<?xml version="1.0" encoding="UTF-8"?>
<svg width="1239px" height="152px" viewBox="0 0 1239 152" version="1.1" xmlns="http://www.w3.org/2000/svg" xmlns:xlink="http://www.w3.org/1999/xlink">
    <!-- Generator: sketchtool 46 (44423) - http://www.bohemiancoding.com/sketch -->
    <title>397D276B-DCEE-44F4-99A4-A6C152B50099</title>
    <desc>Created with sketchtool.</desc>
    <defs>
        <linearGradient x1="50%" y1="100%" x2="50%" y2="-112.994792%" id="linearGradient-1">
            <stop stop-color="#FFFFFF" offset="0%"></stop>
            <stop stop-color="#779CB2" offset="100%"></stop>
        </linearGradient>
        <path d="M650.455897,5528.40093 L470.83915,5599.38682 C443.641791,5610.13664 403.951546,5611.51599 382.638033,5602.45242 C361.329664,5593.38885 327.569554,5595.68383 307.629282,5607.55331 L201,5671 L1441,5671 L1312.56346,5634.70524 C1279.30738,5625.30274 1225.99274,5625.58434 1194.09448,5635.32916 L1191.41486,5636.14698 C1159.5166,5645.89011 1116.70956,5644.20218 1096.29611,5632.3934 L1015.54238,5585.69282 C995.123786,5573.88573 958.236597,5573.37985 933.56456,5584.56978 L907.025534,5596.60621 C882.35864,5607.79613 847.333297,5607.06767 829.193153,5594.98572 L732.876032,5530.82238 C723.162425,5524.35002 708.005287,5521.03224 691.843096,5521 C677.505578,5521.02762 662.938499,5523.46716 650.455897,5528.40093 Z" id="path-2"></path>
    </defs>
    <g id="Page-1" stroke="none" stroke-width="1" fill="none" fill-rule="evenodd">
        <g id="Data-Center_colokeishn" transform="translate(-201.000000, -5520.000000)">
            <mask id="mask-3" fill="white">
                <use xlink:href="#path-2"></use>
            </mask>
            <use id="Clip-2-Copy" stroke="#B4D9A1" fill-opacity="0.4" fill="url(#linearGradient-1)" opacity="0.480015851" stroke-dasharray="7" transform="translate(821.000000, 5596.000000) scale(-1, 1) translate(-821.000000, -5596.000000) " xlink:href="#path-2"></use>
        </g>
    </g>
</svg>