<svg width="20" height="20" viewBox="0 0 20 20" fill="none" xmlns="http://www.w3.org/2000/svg">
<path d="M5.83333 10.0001H7.5V11.6667H5.83333V10.0001ZM17.5 5.00008V16.6667C17.5 17.1088 17.3244 17.5327 17.0118 17.8453C16.6993 18.1578 16.2754 18.3334 15.8333 18.3334H4.16667C3.72464 18.3334 3.30072 18.1578 2.98816 17.8453C2.67559 17.5327 2.5 17.1088 2.5 16.6667V5.00008C2.5 4.55805 2.67559 4.13413 2.98816 3.82157C3.30072 3.50901 3.72464 3.33341 4.16667 3.33341H5V1.66675H6.66667V3.33341H13.3333V1.66675H15V3.33341H15.8333C16.2754 3.33341 16.6993 3.50901 17.0118 3.82157C17.3244 4.13413 17.5 4.55805 17.5 5.00008ZM4.16667 6.66675H15.8333V5.00008H4.16667V6.66675ZM15.8333 16.6667V8.33342H4.16667V16.6667H15.8333ZM12.5 11.6667V10.0001H14.1667V11.6667H12.5ZM9.16667 11.6667V10.0001H10.8333V11.6667H9.16667ZM5.83333 13.3334H7.5V15.0001H5.83333V13.3334ZM12.5 15.0001V13.3334H14.1667V15.0001H12.5ZM9.16667 15.0001V13.3334H10.8333V15.0001H9.16667Z" fill="#CBD0D5"/>
</svg>
