<svg width="20" height="20" viewBox="0 0 20 20" fill="none" xmlns="http://www.w3.org/2000/svg">
<path d="M13.3334 10C12.6703 10 12.0344 9.73662 11.5656 9.26778C11.0967 8.79894 10.8334 8.16305 10.8334 7.50001V4.16668H4.16669C3.72466 4.16668 3.30074 4.34227 2.98818 4.65483C2.67562 4.96739 2.50002 5.39132 2.50002 5.83334V15C2.50002 15.442 2.67562 15.866 2.98818 16.1785C3.30074 16.4911 3.72466 16.6667 4.16669 16.6667H15C15.442 16.6667 15.866 16.4911 16.1785 16.1785C16.4911 15.866 16.6667 15.442 16.6667 15V10H13.3334ZM11.6667 7.50001C11.6667 7.94204 11.8423 8.36596 12.1548 8.67852C12.4674 8.99108 12.8913 9.16668 13.3334 9.16668H16.3217L11.6667 4.51168V7.50001ZM4.16669 3.33334H11.6667L17.5 9.16668V15C17.5 15.6631 17.2366 16.2989 16.7678 16.7678C16.2989 17.2366 15.6631 17.5 15 17.5H4.16669C3.50365 17.5 2.86776 17.2366 2.39892 16.7678C1.93008 16.2989 1.66669 15.6631 1.66669 15V5.83334C1.66669 5.1703 1.93008 4.53442 2.39892 4.06558C2.86776 3.59674 3.50365 3.33334 4.16669 3.33334ZM4.16669 6.66668H9.16669V7.50001H4.16669V6.66668ZM4.16669 10H9.16669V10.8333H4.16669V10ZM4.16669 13.3333H15V14.1667H4.16669V13.3333Z" fill="#20262E"/>
</svg>
