<svg width="140" height="61" viewBox="0 0 140 61" fill="none" xmlns="http://www.w3.org/2000/svg">
<path d="M68.7182 11.3863C68.0205 10.5212 67.1107 9.84927 66.0764 9.43503C64.0218 8.57205 61.7329 8.43126 59.5871 9.0359C57.4412 9.64054 55.5666 10.9545 54.2723 12.7611V9.22438H48.3535V33.4492H54.7293V22.4732C54.6456 20.6119 54.8105 18.7479 55.2198 16.9298C55.5344 15.9466 56.1699 15.0961 57.0255 14.5128C57.8972 13.9069 58.9383 13.5889 60.0016 13.6037C60.794 13.5809 61.5737 13.8057 62.2309 14.2467C62.8394 14.6851 63.2953 15.3013 63.535 16.0095C63.8942 17.6696 64.0329 19.3693 63.9475 21.0652V33.4492H70.3233V18.3932C70.3624 16.9507 70.2428 15.5082 69.9666 14.0915C69.7464 13.1125 69.321 12.1906 68.7182 11.3863Z" fill="#193C25"/>
<path d="M118.153 9.22437H111.331L107.006 21.5862C106.772 22.2625 106.527 22.9499 106.326 23.6373C106.226 23.9699 106.014 24.6684 105.669 25.7216L104.342 21.5973L100.04 9.22437H92.9839L94.5221 13.1159L102.548 33.4492H108.778L116.581 13.2267L118.153 9.22437Z" fill="#193C25"/>
<path d="M92.5162 12.1957C91.3523 11.0313 89.9601 10.1174 88.426 9.5109C86.892 8.90439 85.2489 8.61817 83.599 8.67004C81.3504 8.64104 79.1319 9.18696 77.1563 10.2555C75.2427 11.2932 73.6887 12.8814 72.6977 14.8122C71.677 16.717 71.1376 18.8402 71.126 20.9986C71.0537 23.453 71.5937 25.887 72.6977 28.0832C73.7198 30.0062 75.3273 31.5585 77.2901 32.5179C79.2466 33.4989 81.4079 34.0078 83.599 34.0036C85.2563 34.0514 86.9055 33.7546 88.441 33.1322C89.9765 32.5099 91.3644 31.5756 92.5162 30.3892C93.2998 29.5926 93.971 28.6937 94.5114 27.7173C95.5612 25.7412 96.0904 23.5327 96.0496 21.298C96.0935 19.0701 95.564 16.868 94.5114 14.9009C93.9761 13.9112 93.3046 13.0006 92.5162 12.1957ZM87.7678 26.8525C87.2646 27.4696 86.6291 27.967 85.9079 28.3084C85.1866 28.6499 84.3978 28.8267 83.599 28.826C82.7995 28.8352 82.008 28.668 81.2813 28.3364C80.5547 28.0047 79.911 27.5168 79.3967 26.908C78.1548 25.3355 77.5468 23.359 77.6913 21.3645C77.5478 19.3702 78.1558 17.3941 79.3967 15.8211C79.9099 15.2102 80.5531 14.7202 81.2798 14.3866C82.0065 14.053 82.7986 13.884 83.599 13.892C84.3989 13.8796 85.1915 14.0454 85.9186 14.3773C86.6458 14.7091 87.289 15.1987 87.8012 15.81C89.0291 17.364 89.6365 19.3146 89.5066 21.2869C89.6366 23.2919 89.0174 25.274 87.7678 26.8525Z" fill="#193C25"/>
<path d="M136.5 12.1955C135.333 11.0142 133.931 10.0869 132.385 9.47237C130.838 8.85784 129.18 8.56946 127.516 8.6255C125.271 8.59741 123.056 9.14333 121.085 10.2109C119.171 11.2481 117.616 12.8364 116.626 14.7676C115.614 16.6635 115.079 18.7746 115.065 20.9208C114.994 23.3668 115.53 25.7925 116.626 27.9832C117.647 29.9067 119.255 31.4592 121.218 32.4179C123.173 33.4074 125.334 33.924 127.527 33.9258C129.185 33.9743 130.834 33.6778 132.37 33.0554C133.905 32.433 135.293 31.4984 136.444 30.3114C137.615 29.104 138.531 27.6756 139.138 26.1103C139.745 24.5451 140.031 22.8748 139.978 21.198C140.032 19.5424 139.753 17.8928 139.155 16.3465C138.558 14.8003 137.655 13.3888 136.5 12.1955ZM131.729 26.808C131.227 27.4375 130.588 27.946 129.861 28.2955C129.133 28.6449 128.335 28.8262 127.527 28.8258C126.728 28.8351 125.936 28.6678 125.21 28.3362C124.483 28.0045 123.839 27.5166 123.325 26.9078C122.084 25.3348 121.476 23.3587 121.62 21.3643C121.477 19.3701 122.085 17.3944 123.325 15.8209C123.839 15.212 124.483 14.7241 125.21 14.3925C125.936 14.0608 126.728 13.8936 127.527 13.9029C128.325 13.8921 129.116 14.0587 129.841 14.3906C130.566 14.7224 131.207 15.2111 131.718 15.8209C132.946 17.3749 133.554 19.3255 133.424 21.2978C133.562 23.2933 132.96 25.2699 131.729 26.8523V26.808Z" fill="#193C25"/>
<path d="M17.2771 11.0869C15.7897 9.76196 13.9145 8.94598 11.9268 8.75863C11.3641 8.69804 10.7985 8.66843 10.2325 8.66994C8.84877 8.63803 7.47487 8.90841 6.20763 9.46202C4.94038 10.0156 3.81066 10.839 2.89809 11.874C0.96603 14.0101 0 17.1329 0 21.2425C0 25.352 0.992038 28.4822 2.97611 30.633C4.14096 31.7954 5.53361 32.7072 7.0676 33.3118C8.60159 33.9164 10.2442 34.2009 11.8933 34.1476C15.0571 34.2593 18.1516 33.2096 20.5876 31.1985C22.7389 29.225 23.664 26.1096 23.664 21.5196V0H17.2771V11.0869ZM15.75 27.052C15.3105 27.6363 14.7402 28.1109 14.0843 28.438C13.4285 28.7651 12.705 28.9359 11.9713 28.9368C11.0952 28.9437 10.2335 28.7145 9.47783 28.2733C8.7222 27.8321 8.10089 27.1955 7.67994 26.4311C6.82159 24.6902 6.43725 22.7559 6.56529 20.8212C6.42187 18.8887 6.97073 16.9681 8.11465 15.3997C8.57085 14.8273 9.15237 14.3659 9.81491 14.0509C10.4775 13.7358 11.2035 13.5752 11.9379 13.5814C12.6823 13.5667 13.4198 13.7255 14.0914 14.0451C14.763 14.3647 15.3501 14.8362 15.8057 15.4218C16.8089 16.6414 17.3105 18.6592 17.3105 21.4309C17.4511 23.4269 16.9004 25.4106 15.75 27.052Z" fill="#E46914"/>
<path d="M40.4505 26.4866C40.1893 27.2267 39.7355 27.8848 39.1352 28.3935C38.4093 28.9518 37.511 29.2418 36.5938 29.214C36.3451 29.2301 36.0957 29.2301 35.847 29.214C34.7019 29.0699 33.6463 28.5233 32.8709 27.6729C32.3839 27.1659 32.0047 26.5663 31.7562 25.9101L35.8247 24.9677L39.9935 24.0031C42.0659 23.6146 43.9487 22.5495 45.3438 20.9764C47.0492 18.759 47.1607 15.6547 44.4521 12.2954C43.3766 11.1022 42.0471 10.1626 40.5604 9.54504C39.0738 8.92747 37.4673 8.64746 35.8581 8.7254C34.3616 8.68149 32.8731 8.95882 31.494 9.53851C30.1148 10.1182 28.8775 10.9866 27.8661 12.0847C25.7557 14.376 24.7005 17.521 24.7005 21.5197C24.5871 24.4883 25.4349 27.4147 27.1193 29.8681C29.0439 32.4772 31.9569 33.8483 35.8581 33.9813H36.5269C38.8937 34.0687 41.2297 33.4258 43.2148 32.1409C45.1427 30.7406 46.5499 28.7444 47.2164 26.4644H40.4505V26.4866ZM31.433 19.2579C31.337 17.7537 31.8236 16.27 32.7929 15.1114C33.1779 14.6698 33.647 14.3083 34.173 14.0476C34.6991 13.7869 35.2718 13.6323 35.8581 13.5925H36.2817C36.9116 13.5791 37.5369 13.7021 38.1143 13.9529C38.6917 14.2036 39.2074 14.5763 39.6257 15.0449C41.097 16.6303 40.1272 19.1803 37.5636 19.6792L35.8581 20.0784L31.3995 21.1205V19.269L31.433 19.2579Z" fill="#E46914"/>
<path d="M1.02539 42.8297V40.0459H47.183V42.8408L1.02539 42.8297Z" fill="#193C25"/>
<path d="M47.0938 42.8297V40.0459H140V42.8408L47.0938 42.8297Z" fill="#E46914"/>
<path d="M2.58612 47.9951V58.317H1.96191V47.9951H2.58612Z" fill="#193C25"/>
<path d="M5.49523 50.89V52.5308C5.69976 51.9741 6.07636 51.4961 6.57099 51.1654C7.06563 50.8348 7.65286 50.6685 8.24841 50.6904C8.60349 50.6707 8.95874 50.7257 9.291 50.8518C9.62327 50.9779 9.92508 51.1722 10.1768 51.4222C10.6647 51.9827 10.9128 52.7109 10.8678 53.451V58.3293H10.2882V53.7393C10.2882 52.0541 9.5637 51.2115 8.11466 51.2115C7.66482 51.1821 7.21591 51.2813 6.82091 51.4974C6.4259 51.7135 6.10128 52.0374 5.88536 52.4311C5.57242 53.0643 5.42665 53.7663 5.46179 54.471V58.3182H4.92676V50.89H5.49523Z" fill="#193C25"/>
<path d="M18.4921 53.0518H17.8902C17.8869 52.7815 17.8255 52.515 17.7101 52.2703C17.5948 52.0255 17.4282 51.8081 17.2214 51.6327C16.7434 51.3196 16.1766 51.168 15.6052 51.2003C15.0822 51.171 14.5634 51.3069 14.1227 51.5883C13.9423 51.7097 13.7971 51.8759 13.7012 52.0704C13.6054 52.2648 13.5624 52.4809 13.5765 52.697C13.563 52.8038 13.563 52.9118 13.5765 53.0185C13.5975 53.1063 13.6273 53.1918 13.6657 53.2735C13.7062 53.3576 13.763 53.433 13.8329 53.4953L14.0224 53.6727C14.1004 53.7327 14.1868 53.7813 14.2787 53.8168L14.5463 53.9276L14.8695 54.0163L15.1927 54.105L15.5606 54.1937L15.9173 54.2713L16.6864 54.4487L17.3886 54.6926C17.6379 54.7804 17.8713 54.9077 18.0797 55.0696C18.2479 55.2254 18.3875 55.4093 18.4921 55.6129C18.6217 55.8589 18.6869 56.1334 18.6816 56.4111C18.6878 56.7216 18.6167 57.0288 18.4748 57.3054C18.3328 57.582 18.1244 57.8194 17.8679 57.9965C17.2396 58.4236 16.4878 58.6339 15.7278 58.5952C14.9205 58.6387 14.1258 58.3819 13.4985 57.8746C13.2226 57.6204 13.0066 57.3087 12.8659 56.9617C12.7253 56.6148 12.6634 56.2413 12.6848 55.8679H13.2644C13.2411 56.1738 13.2871 56.481 13.399 56.7669C13.5108 57.0528 13.6858 57.3101 13.9109 57.5198C14.4401 57.9209 15.0974 58.1178 15.7612 58.0741C16.356 58.0988 16.9438 57.9401 17.4443 57.6196C17.6448 57.493 17.8094 57.3176 17.9225 57.11C18.0357 56.9024 18.0936 56.6694 18.0908 56.4333C18.0928 56.2305 18.0388 56.0311 17.9348 55.8568C17.8488 55.7044 17.7398 55.566 17.6115 55.4465C17.4508 55.3212 17.2699 55.2238 17.0765 55.1583C16.9019 55.0884 16.7233 55.0292 16.5415 54.9809L15.9619 54.8479H15.7724L15.3711 54.7592L14.9252 54.6705L14.5017 54.5596C14.3562 54.5203 14.2144 54.4684 14.0781 54.4044L13.7103 54.227C13.5833 54.1692 13.4695 54.0862 13.3759 53.9831L13.1306 53.6727C13.0465 53.556 12.9859 53.4242 12.9523 53.2846C12.9343 53.1262 12.9343 52.9663 12.9523 52.8079C12.9428 52.5219 13.0039 52.238 13.1302 51.981C13.2565 51.7239 13.4442 51.5016 13.6768 51.3333C14.2719 50.9487 14.9746 50.7623 15.6832 50.8012C16.4158 50.7591 17.1405 50.9706 17.7341 51.3998C17.9705 51.6064 18.1603 51.8604 18.2909 52.1451C18.4216 52.4298 18.4901 52.7388 18.4921 53.0518Z" fill="#193C25"/>
<path d="M21.3011 50.8899V52.6638C21.4719 52.0695 21.8407 51.5505 22.347 51.1919C22.8533 50.8333 23.4671 50.6565 24.0877 50.6904C24.5512 50.6765 25.0117 50.7693 25.4332 50.9616C25.8547 51.1539 26.2258 51.4405 26.5176 51.7991C27.1601 52.6197 27.4845 53.6428 27.4316 54.6817C27.4804 55.7097 27.156 56.721 26.5176 57.531C26.0033 58.1053 25.3002 58.4787 24.5343 58.5843C23.7684 58.6899 22.9897 58.5209 22.3377 58.1075C21.8467 57.7608 21.4921 57.2553 21.3345 56.6773V60.979H20.7549V50.8899H21.3011ZM24.0542 51.1782C23.6669 51.1603 23.2809 51.2344 22.9281 51.3945C22.5753 51.5545 22.266 51.7958 22.0256 52.0984C21.5008 52.8465 21.2455 53.749 21.3011 54.6595C21.2929 55.225 21.3834 55.7877 21.5686 56.3225C21.7474 56.818 22.0645 57.2525 22.4826 57.5753C22.9352 57.9219 23.4944 58.1021 24.0654 58.0853C24.4494 58.098 24.831 58.0191 25.1781 57.8551C25.5252 57.6912 25.8278 57.447 26.0606 57.1429C26.5892 56.4209 26.8528 55.5404 26.8074 54.6484C26.8568 53.7422 26.5933 52.8464 26.0606 52.1095C25.8231 51.8093 25.5174 51.5694 25.1687 51.4095C24.8199 51.2495 24.438 51.1741 24.0542 51.1893V51.1782Z" fill="#193C25"/>
<path d="M30.0957 47.9951V49.4586H29.5161V47.9951H30.0957ZM30.0957 50.8999V58.3281H29.5161V50.8888L30.0957 50.8999Z" fill="#193C25"/>
<path d="M35.8475 50.8344V51.4331H35.6691C35.2714 51.4206 34.8766 51.5049 34.5192 51.6788C34.1617 51.8527 33.8524 52.1109 33.6182 52.4309C33.3632 52.756 33.1877 53.1355 33.1055 53.5396C33.0247 54.0455 32.9874 54.5574 32.994 55.0696V58.3181H32.3252V50.8899H32.8937V52.8522C33.0983 52.2374 33.4873 51.6996 34.0083 51.3112C34.5575 50.968 35.1997 50.8015 35.8475 50.8344Z" fill="#193C25"/>
<path d="M43.2707 55.8013C43.1678 56.5714 42.7971 57.2813 42.223 57.808C41.634 58.3255 40.8683 58.5992 40.0828 58.573C39.613 58.5862 39.1462 58.4933 38.7176 58.3013C38.289 58.1093 37.9097 57.8231 37.6083 57.4643C36.9601 56.6676 36.6307 55.6608 36.6832 54.6372C36.6346 53.5953 36.9672 52.5712 37.6195 51.7546C37.9158 51.3956 38.2909 51.109 38.7161 50.9168C39.1412 50.7246 39.6049 50.6319 40.0717 50.6459C40.535 50.6221 40.9972 50.7105 41.4185 50.9036C41.8398 51.0968 42.2077 51.3888 42.4905 51.7546C43.0728 52.5433 43.3712 53.504 43.3376 54.4819V54.6815H37.2962C37.2663 55.5305 37.5126 56.3665 37.9985 57.0652C38.238 57.389 38.5553 57.648 38.9213 57.8184C39.2874 57.9888 39.6906 58.0653 40.094 58.0408C40.7142 58.0596 41.319 57.8459 41.7883 57.4421C42.2661 56.995 42.5799 56.4018 42.68 55.7569L43.2707 55.8013ZM42.7469 54.2159C42.7653 53.4558 42.5214 52.7123 42.0558 52.1094C41.8218 51.8158 41.5206 51.5822 41.1774 51.4279C40.8343 51.2736 40.459 51.2032 40.0828 51.2224C39.7107 51.1997 39.3383 51.2641 38.9957 51.4104C38.653 51.5568 38.3497 51.781 38.1099 52.065C37.6287 52.6892 37.3455 53.4419 37.2962 54.2269L42.7469 54.2159Z" fill="#193C25"/>
<path d="M51.586 47.9951V58.317H51.0287V56.5431C50.8711 57.1508 50.5043 57.6844 49.9921 58.0509C49.3268 58.4794 48.5301 58.6588 47.7441 58.5573C46.9581 58.4558 46.2339 58.0798 45.7007 57.4966C45.0677 56.6806 44.7512 55.6652 44.809 54.6362C44.7544 53.5937 45.0788 52.5666 45.723 51.7425C46.0148 51.384 46.3859 51.0974 46.8074 50.905C47.2289 50.7127 47.6894 50.6199 48.1529 50.6338C48.7694 50.6102 49.3768 50.7867 49.8835 51.1367C50.3903 51.4867 50.7687 51.9912 50.9618 52.574V47.9951H51.586ZM48.2421 51.1771C47.8591 51.164 47.4785 51.2416 47.1316 51.4035C46.7847 51.5654 46.4815 51.807 46.2469 52.1083C45.7158 52.8418 45.4524 53.7336 45.5 54.6362C45.4489 55.5306 45.7086 56.4153 46.2357 57.1418C46.4761 57.4408 46.7842 57.6791 47.1348 57.8371C47.4855 57.995 47.8687 58.0683 48.2532 58.0509C48.6447 58.0675 49.0345 57.9917 49.391 57.8299C49.7474 57.668 50.0603 57.4246 50.3042 57.1196C50.8394 56.3882 51.1033 55.4949 51.051 54.5918C51.0796 53.7257 50.834 52.8725 50.3488 52.1527C50.1061 51.8177 49.7805 51.5508 49.4036 51.378C49.0267 51.2051 48.6112 51.132 48.1975 51.166L48.2421 51.1771Z" fill="#193C25"/>
<path d="M59.0764 47.9951V52.6516C59.2558 52.0497 59.6339 51.5254 60.1495 51.1634C60.6652 50.8013 61.2884 50.6226 61.9187 50.656C62.379 50.6421 62.8363 50.7351 63.2542 50.9275C63.6721 51.1199 64.0392 51.4066 64.3264 51.7647C64.9052 52.6157 65.2146 53.6197 65.2146 54.6472C65.2146 55.6748 64.9052 56.6788 64.3264 57.5298C64.0398 57.8886 63.6728 58.1757 63.2547 58.3682C62.8367 58.5607 62.3792 58.6533 61.9187 58.6385C61.2739 58.6727 60.6372 58.4821 60.1184 58.0997C59.5996 57.7172 59.2311 57.1667 59.0764 56.5431V58.317H58.519V47.9951H59.0764ZM61.8184 51.1549C61.4392 51.1497 61.064 51.2333 60.7232 51.3989C60.3824 51.5645 60.0856 51.8076 59.8566 52.1083C59.3186 52.8188 59.043 53.6919 59.0764 54.5807C59.031 55.4847 59.2985 56.3769 59.8343 57.1085C60.0801 57.4038 60.3884 57.6414 60.7371 57.8045C61.0858 57.9677 61.4665 58.0522 61.8519 58.0522C62.2372 58.0522 62.6179 57.9677 62.9666 57.8045C63.3153 57.6414 63.6236 57.4038 63.8694 57.1085C64.3565 56.3565 64.6156 55.4809 64.6156 54.5863C64.6156 53.6917 64.3565 52.816 63.8694 52.064C63.6255 51.7689 63.3168 51.5335 62.967 51.3759C62.6172 51.2183 62.2357 51.1427 61.8519 51.1549H61.8184Z" fill="#193C25"/>
<path d="M72.8869 50.8899L69.6655 59.0831C69.5169 59.4601 69.4092 59.7261 69.3423 59.8813C69.2443 60.0762 69.1286 60.2617 68.9968 60.4357C68.8592 60.6325 68.6649 60.7833 68.4394 60.8681C68.1764 60.9503 67.9013 60.9878 67.6257 60.979H67.0573V60.4579C67.2167 60.4727 67.3771 60.4727 67.5366 60.4579C67.8321 60.4764 68.1256 60.3986 68.3726 60.2361C68.6113 60.0401 68.7924 59.7834 68.8964 59.4933C69.1268 58.9611 69.2977 58.562 69.4092 58.2959L66.2324 50.8899H66.8789L69.3423 56.7105C69.4203 56.899 69.5318 57.2094 69.6767 57.6418C69.8625 57.1022 69.9776 56.7696 70.0222 56.644L72.2515 50.901L72.8869 50.8899Z" fill="#193C25"/>
<path d="M81.6373 50.889V51.399H80.0322V56.4325C80.0322 56.6542 80.0322 56.8094 80.0322 56.887C80.0256 57.0052 80.0256 57.1237 80.0322 57.2418C80.0463 57.3612 80.0969 57.4734 80.1772 57.5633C80.266 57.6399 80.3679 57.7 80.4781 57.7407C80.635 57.7979 80.8016 57.8242 80.9685 57.8183C81.174 57.8157 81.379 57.7972 81.5816 57.7629V58.2951C81.349 58.3287 81.1144 58.3472 80.8794 58.3505C80.633 58.3586 80.3873 58.321 80.1549 58.2396C79.9922 58.1815 79.8413 58.0952 79.709 57.9846C79.5902 57.859 79.5125 57.7005 79.4861 57.5301C79.4445 57.3628 79.4184 57.1921 79.408 57.0201C79.408 56.887 79.408 56.669 79.408 56.366V51.399H78.0259V50.889H79.408V48.5608H79.9877V50.889H81.6373Z" fill="#193C25"/>
<path d="M83.8554 47.9951V52.574C84.0495 52.0321 84.3981 51.5583 84.8586 51.2103C85.3473 50.8595 85.9394 50.6801 86.5417 50.7003C86.9105 50.6729 87.2808 50.7273 87.6258 50.8596C87.9709 50.9919 88.2821 51.1988 88.5369 51.4653C89.0086 52.0554 89.2466 52.7969 89.2057 53.5496V58.317H88.6261V53.6494C88.6487 53.0071 88.4479 52.3767 88.0576 51.8644C87.8503 51.6316 87.5912 51.4503 87.3009 51.3348C87.0106 51.2193 86.6972 51.1729 86.3857 51.1992C85.8132 51.1777 85.2544 51.3762 84.8252 51.7536C84.4017 52.1459 84.1065 52.6558 83.978 53.217C83.8805 53.6499 83.8356 54.0929 83.8443 54.5364V58.3059H83.2646V47.9951H83.8554Z" fill="#193C25"/>
<path d="M97.6433 55.8013C97.5404 56.5714 97.1697 57.2813 96.5955 57.808C96.0066 58.3255 95.2408 58.5992 94.4554 58.573C93.9855 58.5862 93.5187 58.4933 93.0901 58.3013C92.6615 58.1093 92.2823 57.8231 91.9809 57.4643C91.3327 56.6676 91.0032 55.6608 91.0557 54.6372C91.0071 53.5953 91.3398 52.5712 91.992 51.7546C92.2884 51.3956 92.6635 51.109 93.0886 50.9168C93.5137 50.7246 93.9775 50.6319 94.4443 50.6459C94.9076 50.6221 95.3697 50.7105 95.7911 50.9036C96.2124 51.0968 96.5803 51.3888 96.863 51.7546C97.4453 52.5433 97.7437 53.504 97.7102 54.4819V54.6815H91.6688C91.6388 55.5305 91.8851 56.3665 92.371 57.0652C92.6105 57.389 92.9278 57.648 93.2939 57.8184C93.66 57.9888 94.0631 58.0653 94.4666 58.0408C95.0868 58.0596 95.6915 57.8459 96.1608 57.4421C96.6386 56.995 96.9525 56.4018 97.0525 55.7569L97.6433 55.8013ZM97.1194 54.2159C97.1379 53.4558 96.894 52.7123 96.4283 52.1094C96.1943 51.8158 95.8932 51.5822 95.55 51.4279C95.2068 51.2736 94.8315 51.2032 94.4554 51.2224C94.0851 51.2103 93.717 51.2841 93.3803 51.438C93.0437 51.592 92.7477 51.8218 92.5159 52.1094C92.0347 52.7336 91.7514 53.4862 91.7022 54.2713L97.1194 54.2159Z" fill="#193C25"/>
<path d="M107.062 47.973V48.4941H106.483C106.285 48.4876 106.087 48.5215 105.903 48.5939C105.772 48.6466 105.651 48.7216 105.546 48.8156C105.45 48.9245 105.387 49.0596 105.368 49.2036C105.334 49.3457 105.311 49.4903 105.301 49.636C105.301 49.7469 105.301 49.9243 105.301 50.146V50.9332H106.862V51.4432H105.301V58.3171H104.722V51.3988H103.406V50.8889H104.699V49.9576C104.665 49.4288 104.785 48.9015 105.045 48.4387C105.219 48.2451 105.438 48.0973 105.683 48.0083C105.928 47.9193 106.191 47.892 106.449 47.9287L107.062 47.973Z" fill="#193C25"/>
<path d="M114.14 50.8899V58.3181H113.583V56.7548C113.384 57.2979 113.017 57.7638 112.533 58.0848C112.05 58.4058 111.477 58.5652 110.896 58.5398C110.531 58.5663 110.164 58.5113 109.823 58.379C109.482 58.2466 109.174 58.0402 108.924 57.7748C108.451 57.1853 108.213 56.4434 108.255 55.6905V50.8899H108.834V55.5464C108.834 57.202 109.559 58.0298 111.008 58.0298C111.375 58.0452 111.739 57.9702 112.07 57.8116C112.401 57.653 112.687 57.4157 112.903 57.1207C113.349 56.4683 113.575 55.6919 113.549 54.9033V50.8899H114.14Z" fill="#193C25"/>
<path d="M119.178 50.889V51.399H117.573V56.4325C117.573 56.6542 117.573 56.8094 117.573 56.887C117.567 57.0052 117.567 57.1237 117.573 57.2418C117.587 57.3612 117.638 57.4734 117.718 57.5633C117.807 57.6399 117.909 57.7 118.019 57.7407C118.176 57.7979 118.343 57.8242 118.51 57.8183C118.715 57.8157 118.92 57.7972 119.123 57.7629V58.2951C118.89 58.3287 118.655 58.3472 118.42 58.3505C118.174 58.3586 117.928 58.321 117.696 58.2396C117.533 58.1815 117.382 58.0952 117.25 57.9846C117.131 57.859 117.054 57.7005 117.027 57.5301C116.985 57.3628 116.959 57.1921 116.949 57.0201C116.949 56.887 116.949 56.669 116.949 56.366V51.399H115.567V50.889H117.038V48.5608H117.618V50.889H119.178Z" fill="#193C25"/>
<path d="M126.646 50.8899V58.3181H126.089V56.7548C125.89 57.2979 125.523 57.7638 125.04 58.0848C124.557 58.4058 123.983 58.5652 123.403 58.5398C123.048 58.5549 122.693 58.4934 122.364 58.3594C122.035 58.2255 121.739 58.0223 121.497 57.7637C121.024 57.1742 120.786 56.4323 120.828 55.6794V50.8899H121.408V55.5464C121.408 57.202 122.132 58.0298 123.581 58.0298C123.948 58.0451 124.313 57.9702 124.643 57.8116C124.974 57.653 125.26 57.4157 125.476 57.1207C125.922 56.4683 126.149 55.6919 126.123 54.9033V50.8899H126.646Z" fill="#193C25"/>
<path d="M132.409 50.8345V51.4332H132.186C131.789 51.4207 131.394 51.505 131.036 51.6789C130.679 51.8528 130.37 52.111 130.135 52.431C129.881 52.7561 129.705 53.1356 129.623 53.5397C129.542 54.0456 129.505 54.5575 129.511 55.0697V58.3182H128.932V50.89H129.5V52.8523C129.705 52.2375 130.094 51.6997 130.615 51.3113C131.151 50.9768 131.777 50.8107 132.409 50.8345Z" fill="#193C25"/>
<path d="M139.833 55.8013C139.73 56.5714 139.359 57.2813 138.785 57.808C138.196 58.3255 137.43 58.5992 136.645 58.573C136.175 58.5862 135.708 58.4933 135.28 58.3013C134.851 58.1093 134.472 57.8231 134.17 57.4643C133.522 56.6676 133.193 55.6608 133.245 54.6372C133.197 53.5953 133.529 52.5712 134.181 51.7546C134.478 51.3956 134.853 51.109 135.278 50.9168C135.703 50.7246 136.167 50.6319 136.634 50.6459C137.097 50.6221 137.559 50.7105 137.981 50.9036C138.402 51.0968 138.77 51.3888 139.053 51.7546C139.635 52.5433 139.933 53.504 139.9 54.4819V54.6815H133.847C133.817 55.5305 134.063 56.3665 134.549 57.0652C134.789 57.389 135.106 57.648 135.472 57.8184C135.838 57.9888 136.241 58.0653 136.645 58.0408C137.265 58.0596 137.87 57.8459 138.339 57.4421C138.817 56.995 139.131 56.4018 139.231 55.7569L139.833 55.8013ZM139.331 54.2159C139.352 53.452 139.108 52.7042 138.64 52.0983C138.406 51.8048 138.105 51.5711 137.762 51.4168C137.419 51.2625 137.043 51.1921 136.667 51.2113C136.295 51.1886 135.923 51.253 135.58 51.3993C135.237 51.5457 134.934 51.7699 134.694 52.0539C134.213 52.6781 133.93 53.4308 133.881 54.2159H139.331Z" fill="#193C25"/>
</svg>
