<svg width="32" height="32" viewBox="0 0 32 32" fill="none" xmlns="http://www.w3.org/2000/svg">
<g clip-path="url(#clip0)">
<path d="M30.811 0H1.3125C0.62207 0 0.0625 0.55957 0.0625 1.25C0.0625 4.73096 1.55469 8.0542 4.1565 10.3669L9.63086 15.2327C10.5801 16.0764 11.1245 17.2888 11.1245 18.5591V30.7485C11.1245 31.7446 12.2378 32.3418 13.0676 31.7883L20.4424 26.8721C20.79 26.6401 20.999 26.25 20.999 25.832V18.5591C20.999 17.2888 21.5435 16.0764 22.4927 15.2327L27.9668 10.3669C30.5686 8.0542 32.0608 4.73096 32.0608 1.25C32.0608 0.55957 31.5012 0 30.811 0ZM26.3059 8.49829L20.8318 13.3643C19.3494 14.6821 18.499 16.5754 18.499 18.5588V25.1631L13.6243 28.4129V18.5591C13.6243 16.5754 12.7739 14.6821 11.2915 13.3643L5.81738 8.49854C4.06299 6.93872 2.94312 4.80152 2.64331 2.49976H29.48C29.1802 4.80152 28.0606 6.93872 26.3059 8.49829Z" fill="#F57C1D"/>
</g>
<defs>
<clipPath id="clip0">
<rect width="32" height="32" fill="white"/>
</clipPath>
</defs>
</svg>
