<svg width="16" height="16" viewBox="0 0 16 16" fill="none" xmlns="http://www.w3.org/2000/svg">
<path d="M11.7667 4.23334C11.2733 3.73657 10.6864 3.34238 10.0399 3.07349C9.39347 2.80461 8.70017 2.66634 8.00001 2.66667C5.05334 2.66667 2.67334 5.05334 2.67334 8.00001C2.67334 10.9467 5.05334 13.3333 8.00001 13.3333C10.4867 13.3333 12.56 11.6333 13.1533 9.33334H11.7667C11.4921 10.113 10.9822 10.7883 10.3076 11.2659C9.6329 11.7435 8.82664 12 8.00001 12C5.79334 12 4.00001 10.2067 4.00001 8.00001C4.00001 5.79334 5.79334 4.00001 8.00001 4.00001C9.10667 4.00001 10.0933 4.46001 10.8133 5.18667L8.66667 7.33334H13.3333V2.66667L11.7667 4.23334Z" fill="#358D44"/>
</svg>
