<svg width="20" height="20" viewBox="0 0 20 20" fill="none" xmlns="http://www.w3.org/2000/svg">
<path d="M8.75009 13.75C10.0762 13.75 11.3479 13.2232 12.2856 12.2855C13.2233 11.3479 13.7501 10.0761 13.7501 8.75C13.7501 7.42392 13.2233 6.15215 12.2856 5.21447C11.3479 4.27679 10.0762 3.75 8.75009 3.75C7.42401 3.75 6.15224 4.27679 5.21456 5.21447C4.27688 6.15215 3.75009 7.42392 3.75009 8.75C3.75009 10.0761 4.27688 11.3479 5.21456 12.2855C6.15224 13.2232 7.42401 13.75 8.75009 13.75ZM14.0168 12.8383L17.0001 15.8217C17.0796 15.8986 17.143 15.9906 17.1866 16.0923C17.2302 16.194 17.2532 16.3034 17.254 16.414C17.2549 16.5247 17.2338 16.6344 17.1918 16.7368C17.1498 16.8391 17.0879 16.9321 17.0096 17.0103C16.9313 17.0885 16.8382 17.1503 16.7357 17.1922C16.6333 17.234 16.5236 17.255 16.4129 17.254C16.3023 17.2529 16.1929 17.2299 16.0913 17.1861C15.9897 17.1424 15.8977 17.0788 15.8209 16.9992L12.8376 14.0158C11.498 15.0557 9.81242 15.546 8.12406 15.3868C6.43569 15.2277 4.87143 14.4311 3.74972 13.1592C2.62801 11.8873 2.03316 10.2358 2.08628 8.54077C2.1394 6.84575 2.83648 5.23469 4.03563 4.03554C5.23478 2.83639 6.84585 2.13931 8.54086 2.08619C10.2359 2.03307 11.8874 2.62792 13.1593 3.74963C14.4312 4.87134 15.2278 6.4356 15.3869 8.12396C15.5461 9.81233 15.0558 11.4979 14.0159 12.8375L14.0168 12.8383Z" fill="#98999B"/>
</svg>
