<svg width="16" height="16" viewBox="0 0 16 16" fill="none" xmlns="http://www.w3.org/2000/svg">
<path fill-rule="evenodd" clip-rule="evenodd" d="M0.553253 3.80513C2.74067 3.64036 4.93585 3.6044 7.12726 3.69771C7.63827 3.75836 8.02681 3.87424 8.29242 4.04606C8.70401 4.31214 8.83987 4.72396 8.6986 5.28198C8.58836 5.71683 8.3251 6.06048 7.90929 6.31434C7.49394 6.56843 6.92088 6.73556 6.19245 6.81454C6.62965 6.9196 6.95426 7.07145 7.16628 7.27383C7.37947 7.47598 7.48713 7.72984 7.49018 8.03541C7.49535 8.27258 7.46597 8.58121 7.40298 8.96129C7.37947 9.10867 7.36443 9.21515 7.35785 9.27767C7.34398 9.44009 7.34962 9.54963 7.37994 9.6044C7.40862 9.65917 7.4655 9.68643 7.55224 9.68643C7.68904 9.68643 7.81268 9.61192 7.92151 9.46454C8.1119 9.20857 8.28584 8.50434 8.43581 8.1708C8.53218 7.95643 8.64266 7.75099 8.76794 7.55566C9.05118 7.11447 9.39883 6.73321 9.81393 6.4093C10.1794 6.12512 10.5595 5.90911 10.9556 5.76173C11.3502 5.61411 11.7475 5.54124 12.1487 5.54124C12.2975 5.54124 12.4501 5.55793 12.6054 5.59296C12.761 5.62633 12.9498 5.68557 13.1686 5.76925C13.2314 5.79205 13.3123 5.82707 13.4136 5.87103C13.587 5.94859 13.7187 5.98667 13.8085 5.98667C13.8907 5.98667 13.9683 5.95024 14.0386 5.87714C14.1086 5.80427 14.1709 5.69638 14.2261 5.55041H14.7202L14.1817 8.11345L13.6921 8.13178C13.6728 7.47057 13.5466 6.97179 13.3151 6.6373C13.084 6.30141 12.7526 6.13405 12.3191 6.13405C11.787 6.13405 11.3249 6.38039 10.9309 6.87306C10.537 7.3655 10.218 8.09699 9.97306 9.06377C9.81205 9.69936 9.73072 10.1873 9.7279 10.5293C9.72673 10.8699 9.79607 11.1602 9.93804 11.3974C10.0412 11.5784 10.1809 11.7168 10.3593 11.8109C10.5372 11.9068 10.7443 11.9538 10.9814 11.9538C12.8283 11.9538 17.0762 8.7535 15.6501 5.08124C13.6735 -0.00815807 3.52669 1.36503 0.553253 3.80513Z" fill="#D30000"/>
<path fill-rule="evenodd" clip-rule="evenodd" d="M3.26626 5.01237L2.23836 9.06918C2.16385 9.36418 2.06583 9.5588 1.94689 9.65C1.82608 9.74261 1.59831 9.80208 1.26054 9.83241L1.14277 10.2976H4.46315L4.58092 9.83241C4.20741 9.80044 3.98012 9.73815 3.89785 9.64836C3.81769 9.55716 3.81487 9.36418 3.88962 9.06918L4.4058 7.03196H4.80563C5.06395 7.03196 5.27221 7.05617 5.43158 7.10483C5.5893 7.15513 5.71176 7.22965 5.79873 7.33001C5.97714 7.54438 6.003 7.98229 5.87607 8.64491C5.87184 8.67382 5.86455 8.71496 5.85491 8.76526C5.73644 9.38251 5.73574 9.79879 5.84951 10.0162C5.92801 10.1622 6.05236 10.2717 6.2216 10.3476C6.39084 10.4238 6.60309 10.4619 6.85859 10.4619C7.2918 10.4619 7.65755 10.3387 7.95559 10.0924C7.96946 10.0809 7.98333 10.0691 7.99696 10.0571C7.99438 10.3559 8.03034 10.6354 8.10556 10.8958C8.25999 11.4385 8.5705 11.8565 9.03496 12.1545C9.2129 12.2732 9.42657 12.3614 9.67149 12.4206C9.82733 12.4582 9.99469 12.4841 10.1733 12.4982C10.9525 12.6427 12.2618 12.3945 14.1018 11.7537C11.1911 14.9846 1.95865 15.5717 0.212898 11.0768C-0.526584 9.17284 0.776088 6.78633 3.26626 5.01237Z" fill="#0A0A0A"/>
<path fill-rule="evenodd" clip-rule="evenodd" d="M4.95583 4.86101L4.52121 6.57597H5.02305C5.61445 6.57597 6.06105 6.48171 6.36263 6.2932C6.66561 6.10468 6.87199 5.79441 6.98106 5.36426C7.08707 4.9461 7.06003 4.62689 6.89855 4.40641C6.73801 4.18758 6.45148 4.07663 6.03943 4.07663C5.67462 4.07663 5.42288 4.12811 5.2849 4.22848C5.14693 4.32884 5.03715 4.54016 4.95583 4.86101Z" fill="#D30000"/>
</svg>