<svg width="210" height="60" viewBox="0 0 210 60" fill="none" xmlns="http://www.w3.org/2000/svg">
<g filter="url(#filter0_d)">
<path d="M156.705 25.9609L164.212 30.1246H156.705V25.9609ZM153.019 25.5445H155.749V30.1246H153.019V25.5445ZM149.334 25.5445H152.064V30.1246H149.334V25.5445ZM145.785 25.5445H148.515V30.1246H145.785V25.5445ZM142.1 25.5445H144.83V30.1246H142.1V25.5445ZM138.414 25.5445H141.144V30.1246H138.414V25.5445ZM114.937 19.2989V23.3238H110.706C109.614 21.6584 107.84 20.2705 105.656 19.2989H114.937ZM115.483 25.5445V30.1246H112.753V25.5445H115.483ZM111.798 25.5445V30.1246H109.068V25.5445H111.798ZM105.383 25.5445H108.113V30.1246H105.383V25.5445ZM101.697 25.5445H104.427V30.1246H101.697V25.5445ZM98.012 25.5445H100.742V30.1246H98.012V25.5445ZM94.3266 25.5445H97.0565V30.1246H94.3266V25.5445ZM89.6858 21.242C89.6858 20.6868 90.0953 20.2705 90.6413 20.2705C91.1873 20.2705 91.5968 20.6868 91.5968 21.242V22.6299C91.5968 23.1851 91.1873 23.6014 90.6413 23.6014C90.0953 23.6014 89.6858 23.1851 89.6858 22.6299V21.242ZM93.3712 25.5445V30.1246H90.6413V25.5445H93.3712ZM89.6858 25.5445V30.1246H86.9559V25.5445H89.6858ZM85.591 21.242V22.6299C85.591 23.1851 85.1815 23.6014 84.6356 23.6014C84.0896 23.6014 83.6801 23.1851 83.6801 22.6299V21.242C83.6801 20.6868 84.0896 20.2705 84.6356 20.2705C85.1815 20.4093 85.591 20.8256 85.591 21.242ZM62.114 25.5445H67.7103V30.1246H58.2922L62.114 25.5445ZM60.4761 43.8648C60.4761 44.4199 60.0666 44.8363 59.5206 44.8363C58.9746 44.8363 58.5651 44.4199 58.5651 43.8648V42.4769C58.5651 41.9217 58.9746 41.5053 59.5206 41.5053C60.0666 41.5053 60.4761 41.9217 60.4761 42.4769V43.8648ZM65.9358 43.8648C65.9358 44.4199 65.5264 44.8363 64.9804 44.8363C64.4344 44.8363 64.0249 44.4199 64.0249 43.8648V42.4769C64.0249 41.9217 64.4344 41.5053 64.9804 41.5053C65.5264 41.5053 65.9358 41.9217 65.9358 42.4769V43.8648ZM68.2562 38.452H34.4057V34.8434H68.3927V38.452H68.2562ZM68.6657 25.5445H71.3956V30.1246H68.6657V25.5445ZM71.8051 43.8648C71.8051 44.4199 71.3956 44.8363 70.8496 44.8363C70.3036 44.8363 70.0307 44.2811 70.0307 43.8648V42.4769C70.0307 41.9217 70.4401 41.5053 70.9861 41.5053C71.5321 41.5053 71.9416 41.9217 71.9416 42.4769V43.8648H71.8051ZM75.0809 30.1246H72.3511V25.5445H75.0809V30.1246ZM77.4014 43.8648C77.4014 44.4199 76.9919 44.8363 76.4459 44.8363C75.8999 44.8363 75.4904 44.4199 75.4904 43.8648V42.4769C75.4904 41.9217 75.8999 41.5053 76.4459 41.5053C76.9919 41.5053 77.4014 41.9217 77.4014 42.4769V43.8648ZM78.7663 30.1246H76.0364V25.5445H78.7663V30.1246ZM78.2203 22.6299V21.242C78.2203 20.6868 78.6298 20.2705 79.1758 20.2705C79.7218 20.2705 80.1312 20.6868 80.1312 21.242V22.6299C80.1312 23.1851 79.7218 23.6014 79.1758 23.6014C78.6298 23.6014 78.2203 23.1851 78.2203 22.6299ZM82.4516 30.1246H79.7218V25.5445H82.4516V30.1246ZM83.2706 25.5445H86.0005V30.1246H83.2706V25.5445ZM94.1901 43.8648C94.1901 44.4199 93.7807 44.8363 93.2347 44.8363C92.6887 44.8363 92.2792 44.4199 92.2792 43.8648V42.4769C92.2792 41.9217 92.6887 41.5053 93.2347 41.5053C93.7807 41.5053 94.1901 41.9217 94.1901 42.4769V43.8648ZM99.7864 43.8648C99.7864 44.4199 99.3769 44.8363 98.8309 44.8363C98.285 44.8363 97.8755 44.4199 97.8755 43.8648V42.4769C97.8755 41.9217 98.285 41.5053 98.8309 41.5053C99.3769 41.5053 99.7864 41.9217 99.7864 42.4769V43.8648ZM105.656 43.8648C105.656 44.4199 105.246 44.8363 104.7 44.8363C104.154 44.8363 103.745 44.4199 103.745 43.8648V42.4769C103.745 41.9217 104.154 41.5053 104.7 41.5053C105.246 41.5053 105.656 41.9217 105.656 42.4769V43.8648ZM111.115 43.8648C111.115 44.4199 110.706 44.8363 110.16 44.8363C109.614 44.8363 109.205 44.4199 109.205 43.8648V42.4769C109.205 41.9217 109.614 41.5053 110.16 41.5053C110.706 41.5053 111.115 41.9217 111.115 42.4769V43.8648ZM118.896 38.452H85.045V34.8434H118.896V38.452ZM119.169 30.1246H116.439V25.5445H119.169V30.1246ZM122.854 30.1246H120.124V25.5445H122.854V30.1246ZM128.041 43.8648C128.041 44.4199 127.631 44.8363 127.085 44.8363C126.539 44.8363 126.13 44.4199 126.13 43.8648V42.4769C126.13 41.9217 126.539 41.5053 127.085 41.5053C127.631 41.5053 128.041 41.9217 128.041 42.4769V43.8648ZM123.673 30.1246V25.5445H126.403V30.1246H123.673ZM130.088 30.1246H127.358V25.5445H130.088V30.1246ZM130.361 23.3238H115.893V19.2989H130.225V23.3238H130.361ZM133.5 43.8648C133.5 44.4199 133.091 44.8363 132.545 44.8363C131.999 44.8363 131.59 44.4199 131.59 43.8648V42.4769C131.59 41.9217 131.999 41.5053 132.545 41.5053C133.091 41.5053 133.5 41.9217 133.5 42.4769V43.8648ZM133.773 30.1246H131.044V25.5445H133.773V30.1246ZM134.729 25.5445H137.459V30.1246H134.729V25.5445ZM139.37 43.8648C139.37 44.4199 138.96 44.8363 138.414 44.8363C137.868 44.8363 137.459 44.4199 137.459 43.8648V42.4769C137.459 41.9217 137.868 41.5053 138.414 41.5053C138.96 41.5053 139.37 41.9217 139.37 42.4769V43.8648ZM144.966 43.8648C144.966 44.4199 144.557 44.8363 144.011 44.8363C143.465 44.8363 143.055 44.4199 143.055 43.8648V42.4769C143.055 41.9217 143.465 41.5053 144.011 41.5053C144.557 41.5053 144.966 41.9217 144.966 42.4769V43.8648ZM169.808 38.452H135.821V34.8434H169.808V38.452ZM48.4646 14.7189V19.2989C48.1916 19.4377 47.9186 19.5765 47.6456 19.7153V14.7189H46.6902V20.2705C45.4617 21.1032 44.3698 22.0747 43.6873 23.3238H32.9042L31.2663 25.5445H52.8324L49.0106 30.2633H26.216C26.216 30.2633 23.0766 35.9537 21.3022 36.9253C19.8008 37.758 14.2045 37.2028 14.2045 37.2028C12.1571 39.9786 8.1988 44.2811 10.9287 46.363L14.7505 49.1388H177.588C177.588 49.1388 181.546 47.8897 189.054 41.3665C196.151 35.2598 199.973 29.9858 199.973 29.9858L169.262 30.2633H168.307L159.161 25.1281L155.886 23.3238H131.317V19.2989C131.726 19.1601 131.999 18.8826 131.999 18.3274C131.999 17.7722 131.59 17.3559 131.18 17.3559H110.433C110.023 15.8292 108.522 14.7189 106.611 14.7189H88.5939V12.9146C88.5939 10.5552 86.683 10 84.4991 10C82.1786 10 80.4042 10.5552 80.4042 12.9146V14.7189H79.0393H66.6183H65.5264C63.6154 14.7189 62.114 15.8292 61.7045 17.3559H51.4674C51.058 17.3559 50.6485 17.7722 50.6485 18.3274C50.6485 18.4662 50.6485 18.605 50.785 18.605C50.512 18.7438 50.239 18.7438 49.966 18.8826V14.7189H48.4646Z" fill="#E1FEAA"/>
</g>
<defs>
<filter id="filter0_d" x="0" y="0" width="209.973" height="59.1388" filterUnits="userSpaceOnUse" color-interpolation-filters="sRGB">
<feFlood flood-opacity="0" result="BackgroundImageFix"/>
<feColorMatrix in="SourceAlpha" type="matrix" values="0 0 0 0 0 0 0 0 0 0 0 0 0 0 0 0 0 0 127 0"/>
<feOffset/>
<feGaussianBlur stdDeviation="5"/>
<feColorMatrix type="matrix" values="0 0 0 0 0 0 0 0 0 0 0 0 0 0 0 0 0 0 1 0"/>
<feBlend mode="normal" in2="BackgroundImageFix" result="effect1_dropShadow"/>
<feBlend mode="normal" in="SourceGraphic" in2="effect1_dropShadow" result="shape"/>
</filter>
</defs>
</svg>
