<svg width="135" height="85" viewBox="0 0 135 85" fill="none" xmlns="http://www.w3.org/2000/svg">
<g filter="url(#filter0_d)">
<g clip-path="url(#clip0)">
<path d="M16.7856 13.4582C22.7229 13.8817 22.9349 22.0684 22.9349 22.0684C23.0056 26.797 18.2699 30.6786 17.5631 32.0901C16.0787 34.9132 18.3406 68.1542 17.7044 70.342C17.7044 70.342 17.2096 71.6124 15.3719 71.4712C13.6049 71.3301 12.6153 70.0597 12.6153 70.0597C12.6153 67.025 13.2514 58.8382 13.8876 50.7926C14.7358 41.759 15.5133 32.8665 14.3824 31.6667C13.7462 29.4788 9.57597 26.5853 10.0001 20.8686C10.0707 20.8686 10.8482 13.0348 16.7856 13.4582Z" fill="#E1FEAA"/>
<path d="M118.78 70.5538C118.78 70.5538 119.345 71.7536 121.183 71.8242C123.021 71.8947 123.869 69.9186 123.869 69.9186C123.869 69.9186 121.395 40.2064 121.678 39.0771C121.89 38.3714 121.961 37.5951 122.385 37.0305C122.738 36.4659 124.293 36.4659 124.788 34.7015C125.283 32.9371 125 29.9729 124.223 23.8328C123.445 17.6222 121.183 14.2346 121.183 14.2346C121.183 14.2346 120.547 13.3877 119.84 13.3171C119.133 13.2465 118.709 14.164 118.709 14.164L118.78 70.5538Z" fill="#E1FEAA"/>
<path d="M30.7806 70.4125C30.7806 70.4125 31.134 71.8946 33.1838 71.8946C35.2336 71.8946 35.9404 70.2714 35.9404 70.2714C36.3645 69.3539 34.1027 33.925 34.1027 33.925C34.1027 33.925 34.1027 32.7958 34.8802 32.0195C35.6577 31.2431 36.2939 31.3137 36.5766 30.7491C36.8593 30.1845 36.8593 28.9847 36.8593 27.7144C36.8593 26.444 37.0007 13.2464 36.5059 13.2464C36.0111 13.2464 35.7284 25.3854 34.8802 25.3854C34.032 25.3854 34.7388 13.1758 34.3148 13.2464C33.82 13.317 33.6079 24.9619 32.6891 25.456C31.7702 25.95 31.9822 13.2464 31.6995 13.317C31.4168 13.317 31.2754 25.2442 30.2859 25.3148C29.367 25.2442 29.7911 13.2464 29.5084 13.2464C29.2256 13.317 28.3774 26.7969 28.3774 27.9261C28.3774 29.0553 28.5188 30.2551 28.8722 30.7491C29.2256 31.1726 29.7911 31.3843 30.7806 32.1606C31.7702 32.937 32.1236 34.1367 32.1236 34.1367C32.1236 34.1367 30.6393 69.5656 30.7806 70.4125Z" fill="#E1FEAA"/>
<path d="M97.9368 65.446C110.634 52.7679 110.634 32.2126 97.9368 19.5344C85.2395 6.8563 64.6531 6.8563 51.9557 19.5344C39.2584 32.2126 39.2584 52.7679 51.9557 65.446C64.6531 78.1242 85.2395 78.1242 97.9368 65.446Z" fill="#E1FEAA"/>
<g filter="url(#filter1_d)">
<path d="M50.0061 42.4647C50.0061 28.7025 61.1739 17.481 75.0276 17.481C88.8107 17.481 100.049 28.6319 100.049 42.4647C100.049 56.2269 88.8813 67.4484 75.0276 67.4484C61.1739 67.4484 50.0061 56.2975 50.0061 42.4647ZM58.1346 25.6677C53.8229 29.9728 51.2077 35.9012 51.2077 42.4647C51.2077 49.0282 53.8936 54.9565 58.2052 59.2616C62.5169 63.5667 68.4542 66.2486 75.0276 66.2486C81.6011 66.2486 87.5384 63.5667 91.85 59.2616C96.1616 54.9565 98.8475 49.0282 98.8475 42.4647C98.8475 35.9012 96.1616 29.9728 91.85 25.6677C87.5384 21.3626 81.6011 18.6807 75.0276 18.6807C68.3835 18.7513 62.4462 21.3626 58.1346 25.6677Z" fill="#E1FEAA"/>
</g>
</g>
</g>
<defs>
<filter id="filter0_d" x="0" y="0" width="135" height="85" filterUnits="userSpaceOnUse" color-interpolation-filters="sRGB">
<feFlood flood-opacity="0" result="BackgroundImageFix"/>
<feColorMatrix in="SourceAlpha" type="matrix" values="0 0 0 0 0 0 0 0 0 0 0 0 0 0 0 0 0 0 2 0"/>
<feOffset/>
<feGaussianBlur stdDeviation="5"/>
<feColorMatrix type="matrix" values="0 0 0 0 0 0 0 0 0 0 0 0 0 0 0 0 0 0 1 0"/>
<feBlend mode="normal" in2="BackgroundImageFix" result="effect1_dropShadow"/>
<feBlend mode="normal" in="SourceGraphic" in2="effect1_dropShadow" result="shape"/>
</filter>
<filter id="filter1_d" x="40.0061" y="7.48096" width="70.043" height="69.9674" filterUnits="userSpaceOnUse" color-interpolation-filters="sRGB">
<feFlood flood-opacity="0" result="BackgroundImageFix"/>
<feColorMatrix in="SourceAlpha" type="matrix" values="0 0 0 0 0 0 0 0 0 0 0 0 0 0 0 0 0 0 20 0"/>
<feOffset/>
<feGaussianBlur stdDeviation="5"/>
<feColorMatrix type="matrix" values="0 0 0 0 0 0 0 0 0 0 0 0 0 0 0 0 0 0 1 0"/>
<feBlend mode="normal" in2="BackgroundImageFix" result="effect1_dropShadow"/>
<feBlend mode="normal" in="SourceGraphic" in2="effect1_dropShadow" result="shape"/>
</filter>
<clipPath id="clip0">
<rect x="10" y="10" width="115" height="65" fill="white"/>
</clipPath>
</defs>
</svg>
