<svg width="96" height="106" viewBox="0 0 96 106" fill="none" xmlns="http://www.w3.org/2000/svg">
<g filter="url(#filter0_d)">
<path d="M81.9836 70.059L82.485 71.1054L81.2642 71.7158L79.8036 72.3044L78.3866 72.8058L77.0786 73.22L75.836 73.5688L74.1792 74.0048L72.3262 74.4408L70.4732 74.8768L68.4022 75.291L66.9852 75.5744L65.2412 75.9232L63.1048 76.3374L60.5106 76.817L58.0472 77.2966L55.126 77.7544L52.8152 78.125L50.003 78.561L48.1936 78.8662L46.3406 79.1496L44.7492 79.4112L43.0924 79.651L41.6754 79.8472L42.6564 77.6019L43.5066 75.7052L44.1606 73.9612L44.7274 72.457L45.425 70.2552L46.0572 68.5112L46.5804 66.7672L47.0164 65.372L47.496 63.7588L47.9756 61.9712L48.4988 60.2272L48.913 58.396L49.1964 56.9354L49.5016 55.0606L49.8722 52.9242L50.2428 50.9404L50.5262 48.804L50.7224 46.951L50.875 45.2506L50.984 43.3104L51.0494 41.0868V38.9504L51.0712 37.1192L50.984 35.5496L50.875 33.8274L50.7006 32.2796L50.548 30.7754L50.3736 29.402L50.112 28.0722L49.7632 26.4154L49.458 25.1728L49.131 23.6904L48.804 22.4478L48.4988 21.445L48.1718 20.5076L47.8448 19.6138L47.4524 18.5456L50.221 21.336L52.292 23.6686L54.2322 26.0666L55.78 27.9196L57.742 30.4266L59.05 32.0834L60.6632 34.2198L62.1238 36.2036L63.6498 38.2092L64.8488 40.0404L66.3094 42.1332L67.7264 44.2914L69.6012 47.2126L71.476 50.1556L72.893 52.5536L74.2228 54.7336L75.509 57.0444L76.4682 58.832L77.3184 60.467L78.1468 61.993L78.9316 63.5844L79.6946 65.0668L80.3922 66.462L80.9808 67.7264L81.4604 68.8818L81.9836 70.059Z" fill="#E1FEAA"/>
<path d="M74.3317 88.2402C74.7459 88.2402 75.0729 88.6108 75.0729 89.0686C75.0729 89.5264 74.7459 89.897 74.3317 89.897C73.9175 89.897 73.5905 89.5264 73.5905 89.0686C73.5905 88.6108 73.9175 88.2402 74.3317 88.2402Z" fill="#E1FEAA"/>
<path d="M41.1303 76.4028L40.6943 77.4928L19.7881 79.106H19.6137L19.4611 79.0842L19.3303 79.0624L19.2213 78.9752L19.1777 78.888L19.1559 78.779L19.1341 78.6482L19.1559 78.5392L19.2213 78.452L19.3303 78.343L19.4829 78.2776L19.7663 78.2122L41.1303 76.4028Z" fill="#E1FEAA"/>
<path d="M25.4779 84.0546L25.5869 84.774L24.2353 84.883L23.7993 83.575L23.5595 82.376V81.6348L23.7339 81.1988L24.0173 80.9154L24.3879 80.8718L24.6495 81.1116L24.8457 81.5476L25.0637 82.3324L25.2817 83.1172L25.4779 84.0546Z" fill="#E1FEAA"/>
<path d="M46.5803 85.9729H43.3103V86.6051H46.5803V85.9729Z" fill="#E1FEAA"/>
<path d="M10.9156 89.2865L10.5668 88.3927L10.2398 87.3681L10 86.3435L15.2756 85.6459L20.4204 85.1227L26.023 84.7303L26.6552 83.2915L27.2874 81.9617L27.876 80.9153L28.6608 79.9343L60.8812 83.3351L71.8248 83.5749L78.3648 83.8365L85.1446 84.2071L83.8148 85.0791L83.03 85.6895L82.3978 86.3217L81.7874 87.0193L81.6784 87.1501L81.613 87.1065L81.7874 86.8013L10.8066 88.9159L10.9156 89.2865ZM79.3894 85.3407C79.3894 85.1227 79.215 84.9265 79.0188 84.9265C78.8226 84.9265 78.6482 85.1227 78.6482 85.3407C78.6482 85.5587 78.8226 85.7549 79.0188 85.7549C79.2368 85.7549 79.3894 85.5805 79.3894 85.3407ZM70.931 85.7767V85.1445H67.661V85.7767H70.931ZM58.4832 86.2127V85.5805H55.2132V86.2127H58.4832ZM27.6144 84.0981L51.856 83.3133L29.1404 80.8499L28.5954 81.7873L28.1158 82.8337L27.6144 84.0981ZM46.5804 86.6051V85.9729H43.3104V86.6051H46.5804ZM30.6882 86.9757V86.3435H27.4182V86.9757H30.6882ZM14.2946 87.2373C14.2946 87.0193 14.1202 86.8231 13.924 86.8231C13.7278 86.8231 13.5534 87.0193 13.5534 87.2373C13.5534 87.4553 13.7278 87.6515 13.924 87.6515C14.1202 87.6515 14.2946 87.4553 14.2946 87.2373Z" fill="#E1FEAA"/>
<path d="M76.5554 92.513L79.4766 92.404L77.7326 95.1944L52.728 95.5432L40.2366 95.4778L31.5166 95.5432L23.6686 95.456L18.3494 95.1944L13.27 94.8674L12.6814 94.2134L12.071 93.3632L11.5478 92.4694L17.2812 92.6874L23.6468 92.84L29.0314 92.9708L35.0918 93.058L40.956 93.1016L47.0164 93.1452L52.401 93.1016L57.742 93.0362L63.4972 92.9272L68.2278 92.8182L72.8276 92.6438L76.5554 92.513Z" fill="#E1FEAA"/>
<path d="M39.6916 12.2453L39.8006 73.9175L18.1532 75.7051L39.6916 12.2453Z" fill="#E1FEAA"/>
<path d="M74.3318 88.2402C73.9176 88.2402 73.5906 88.6108 73.5906 89.0686C73.5906 89.5264 73.9176 89.897 74.3318 89.897C74.746 89.897 75.073 89.5264 75.073 89.0686C75.073 88.6108 74.746 88.2402 74.3318 88.2402ZM73.5252 87.7606L77.6236 87.4772L81.613 87.063L81.6784 87.1066L81.068 87.8696L80.2832 89.025L79.4984 90.4638L66.9198 90.9216L55.4094 91.1396L48.4552 91.2268L38.7106 91.1832L31.0152 91.096L24.5188 90.9652L17.3248 90.7908L11.5914 90.551L11.0246 89.5046L10.981 89.4174L20.8128 89.6354H25.587L39.0376 89.461L44.989 89.2648L51.747 89.025L59.7694 88.6326L67.1814 88.262L73.5252 87.7606Z" fill="#E1FEAA"/>
<path d="M44.4004 10.763L44.4876 66.1568L42.809 71.6286L42.7654 10.6976L42.8962 10.436L43.0488 10.1962L43.245 10.0872L43.4848 10.0218L43.7246 10L43.9208 10.0436L44.0734 10.1308L44.226 10.2834L44.335 10.4142L44.3786 10.5668L44.4004 10.763Z" fill="#E1FEAA"/>
<path d="M30.6882 86.3437H27.4182V86.9759H30.6882V86.3437Z" fill="#E1FEAA"/>
<path d="M70.931 85.1665H67.661V85.7987H70.931V85.1665Z" fill="#E1FEAA"/>
</g>
<defs>
<filter id="filter0_d" x="0" y="0" width="95.1446" height="105.543" filterUnits="userSpaceOnUse" color-interpolation-filters="sRGB">
<feFlood flood-opacity="0" result="BackgroundImageFix"/>
<feColorMatrix in="SourceAlpha" type="matrix" values="0 0 0 0 0 0 0 0 0 0 0 0 0 0 0 0 0 0 127 0"/>
<feOffset/>
<feGaussianBlur stdDeviation="5"/>
<feColorMatrix type="matrix" values="0 0 0 0 0 0 0 0 0 0 0 0 0 0 0 0 0 0 1 0"/>
<feBlend mode="normal" in2="BackgroundImageFix" result="effect1_dropShadow"/>
<feBlend mode="normal" in="SourceGraphic" in2="effect1_dropShadow" result="shape"/>
</filter>
</defs>
</svg>
