<svg width="158" height="74" viewBox="0 0 158 74" fill="none" xmlns="http://www.w3.org/2000/svg">
<g filter="url(#filter0_d)">
<path d="M139.137 56.8349L133.946 60.3439L130.843 62.5189L110.485 63.1859L80.528 63.3889L55.414 63.5339L31.576 63.6789L10 63.9979L13.422 60.4599L16.148 60.4889L51.151 60.6339H77.512L93.549 60.3729L110.456 59.5609L123.477 58.5459L139.137 56.8349Z" fill="#E1FEAA"/>
<path d="M69.682 37.9269L63.795 38.0429L57.908 38.1589L56.632 38.4199L55.327 38.7679L53.993 39.2609L52.659 39.8699L51.528 40.5369L50.426 41.2909L49.295 42.1319L48.193 43.0019L50.165 44.2489L59.358 44.0459L59.996 43.1759L60.721 42.3639L61.591 41.6099L62.49 40.9429L63.534 40.3339L64.578 39.8119L65.796 39.2899L67.014 38.7969L68.203 38.3909L69.682 37.9269ZM100.538 40.0439L99.262 39.2029L97.986 38.3909L96.739 37.7239L95.463 37.1149L94.013 36.4769L92.505 35.9259L90.852 35.3459L89.17 34.7949L87.488 34.2439L85.806 33.7219L91.809 33.7799L96.188 35.4909L99.204 36.8829L101.321 37.9849L103.322 39.1449L108.078 39.6089L114.777 40.1599L121.07 40.7689L127.421 41.5519L133.627 42.5089L137.194 43.1759L140.239 43.9009L142.153 44.4229L143.835 45.0029L145.256 45.6409L146.503 46.3949L147.634 47.3229L120.461 47.2069L99.987 47.2359L76.787 47.5839L56.081 47.7869L43.089 48.0769L33.026 48.3089L22.615 48.5119L24.21 47.4099L25.805 46.3659L27.226 45.5539L28.56 44.8869L29.865 44.4229L31.083 44.1039L32.562 43.9299L34.041 43.8139L38.246 43.4949L42.915 43.1759L49.933 37.1729L54.747 37.0279L59.735 36.9409L67.594 36.8249L69.711 36.8539L71.944 37.0279L74.264 37.3469L76.468 37.6949L78.73 38.0719L80.673 38.4199L83.051 38.8839L84.994 39.4059L87.372 40.0439H100.538ZM77.454 39.6089L78.527 39.2319L69.218 39.4059L68.203 39.5799L67.188 39.8699L66.173 40.2469L65.071 40.7689L64.114 41.2909L63.273 41.8419L62.635 42.3059L62.055 42.7699L61.533 43.2339L63.099 44.2199L70.378 44.0749L70.9 43.4079L71.48 42.7699L72.147 42.1899L72.872 41.6389L73.684 41.1459L74.554 40.7399L75.511 40.3339L76.439 39.9859L77.454 39.6089Z" fill="#E1FEAA"/>
<path d="M75.366 18.8451L72.292 21.2231H66.173L63.128 21.7451L60.489 22.2381L58.575 22.5861L64.781 27.7771L55.501 27.6901L50.919 23.5721L52.949 21.2231H48.657L46.772 18.8161H49.063V18.8451H52.398H75.366Z" fill="#E1FEAA"/>
<path d="M51.006 14.7561L52.398 18.8451L49.063 18.8161L48.715 14.7561H51.006Z" fill="#E1FEAA"/>
<path d="M51.673 10.406L52.195 11.015L52.166 13.973L51.76 14.437L51.064 14.756H51.006H48.715L48.106 14.495L47.7 13.915L47.729 11.073L48.222 10.522L49.063 10H50.803L51.673 10.406Z" fill="#E1FEAA"/>
<path d="M69.914 34.708L66.695 35.172L62.896 35.868L45.032 36.042L43.408 34.244L31.431 33.606L26.501 29.488H55.501H64.752H77.338H82.8479L84.7329 29.546L86.4729 29.952L96.9129 33.78L91.8089 33.722L85.7769 33.693L82.761 33.664L75.25 34.07L69.914 34.708Z" fill="#E1FEAA"/>
<path d="M32.736 58.8069L22.789 58.7489L13.451 58.6909L16.96 55.3559L22.644 50.2229L38.681 49.9039L53.848 49.5269L78.759 49.2949L95.579 48.9759L113.095 48.8889L147.634 49.0339L143.284 52.4559L140.326 54.3989L139.195 55.0369L130.901 55.9359L122.056 56.8639L112.689 57.5889L102.974 58.1109L93.085 58.5749L84.588 58.7199L76.642 58.7779L62.78 58.8359H54.457L46.279 58.8069H32.736ZM124.956 51.2669C124.956 50.7739 124.55 50.3969 124.086 50.3969C123.593 50.3969 123.216 50.8029 123.216 51.2669C123.216 51.7309 123.622 52.1369 124.086 52.1369C124.579 52.1369 124.956 51.7309 124.956 51.2669ZM97.812 51.7309C97.812 51.2379 97.406 50.8609 96.942 50.8609C96.478 50.8609 96.072 51.2669 96.072 51.7309C96.072 52.2239 96.478 52.6299 96.942 52.6299C97.406 52.6299 97.812 52.2239 97.812 51.7309ZM86.038 54.2249L86.125 52.6009L84.878 52.0499L78.034 52.1369L77.019 52.6879L77.135 54.5439L78.991 56.8349L84.414 56.8059L86.038 54.2249ZM73.597 52.7749C73.597 52.2819 73.191 51.9049 72.727 51.9049C72.234 51.9049 71.857 52.3109 71.857 52.7749C71.857 53.2389 72.263 53.6449 72.727 53.6449C73.22 53.6449 73.597 53.2679 73.597 52.7749Z" fill="#E1FEAA"/>
</g>
<defs>
<filter id="filter0_d" x="0" y="0" width="157.634" height="73.9979" filterUnits="userSpaceOnUse" color-interpolation-filters="sRGB">
<feFlood flood-opacity="0" result="BackgroundImageFix"/>
<feColorMatrix in="SourceAlpha" type="matrix" values="0 0 0 0 0 0 0 0 0 0 0 0 0 0 0 0 0 0 127 0"/>
<feOffset/>
<feGaussianBlur stdDeviation="5"/>
<feColorMatrix type="matrix" values="0 0 0 0 0 0 0 0 0 0 0 0 0 0 0 0 0 0 1 0"/>
<feBlend mode="normal" in2="BackgroundImageFix" result="effect1_dropShadow"/>
<feBlend mode="normal" in="SourceGraphic" in2="effect1_dropShadow" result="shape"/>
</filter>
</defs>
</svg>
