<svg width="148" height="45" viewBox="0 0 148 45" fill="none" xmlns="http://www.w3.org/2000/svg">
<g filter="url(#filter0_d)">
<path d="M137.219 16.3785L134.191 18.7637L131.43 20.8809L128.67 22.9713L126.312 24.7937L123.98 26.5893L122.024 27.9293L119.665 29.2157L117.87 30.0465L115.886 30.8505L113.099 31.7885L110.821 32.4049L108.704 32.8873L106.774 33.2357L104.764 33.5573L102.781 33.7449L99.9404 33.9057L96.2424 34.0129L12.3584 34.8169L14.5828 32.6461L10.4824 32.6193L10.2144 32.4585L10 32.1101V31.8421V31.5741L10.134 31.3597L10.3484 31.1721L10.6968 31.0649L16.4052 31.0917L18.2008 29.3229L19.648 28.0097L20.8808 26.8841L22.2744 25.7585L23.7216 24.6597L25.946 23.3197L27.7952 22.4353L29.6444 21.7385L31.2256 21.2829L32.914 20.8809L34.2272 20.5861L35.6208 20.3717L37.47 20.2109L137.219 16.3785ZM16.6196 32.5389C130.948 35.9961 130.868 18.8173 130.868 18.8173C113.26 31.7081 57.1412 30.5289 16.6196 32.5389ZM100.074 22.8641C101.816 22.7569 103.21 22.1941 103.183 21.6313C103.156 21.0417 101.709 20.6397 99.9674 20.7469C98.2256 20.8541 96.832 21.3901 96.8588 22.0065C96.8856 22.5693 98.3328 22.9713 100.074 22.8641ZM88.6044 23.3197C90.3464 23.2125 91.7668 22.6497 91.7132 22.0601C91.6864 21.4705 90.2392 21.0685 88.4972 21.1757C86.7552 21.2829 85.3616 21.8457 85.3884 22.4353C85.4152 23.0249 86.8624 23.4269 88.6044 23.3197ZM77.402 23.7485C79.144 23.6413 80.5376 23.0785 80.5108 22.4889C80.484 21.8993 79.0368 21.4973 77.2948 21.6045C75.5528 21.7117 74.1592 22.2745 74.186 22.8373C74.2128 23.4537 75.66 23.8557 77.402 23.7485ZM48.4044 26.9913C48.592 26.6965 48.5116 26.2677 48.2436 26.0533L45.644 24.0701C45.3492 23.8557 44.974 23.9361 44.7864 24.2309L44.6792 24.3917C44.4916 24.6865 44.572 25.1153 44.84 25.3297L47.4396 27.3397C47.7344 27.5541 48.1096 27.4737 48.2972 27.1789L48.4044 26.9913ZM42.5352 26.9913C42.7228 26.6965 42.6424 26.2677 42.3744 26.0533L39.7748 24.0701C39.5068 23.8557 39.1048 23.9361 38.9172 24.2309L38.81 24.3917C38.6224 24.6865 38.7028 25.1153 38.9708 25.3297L41.5704 27.3397C41.8384 27.5541 42.2404 27.4737 42.428 27.1789L42.5352 26.9913ZM36.6392 26.9913C36.8268 26.6965 36.7464 26.2677 36.4784 26.0533L33.8788 24.0701C33.6108 23.8557 33.2088 23.9361 33.0212 24.2309L32.914 24.3917C32.7264 24.6865 32.8068 25.1153 33.0748 25.3297L35.6744 27.3397C35.9424 27.5541 36.3444 27.4737 36.532 27.1789L36.6392 26.9913Z" fill="#E1FEAA"/>
<path d="M84.0484 15.5476L75.3652 11.34L72.8728 11.2596L70.0052 11.2864L68.9868 11.3668L67.9684 11.4472L65.878 11.742L63.734 12.1172L61.6704 12.6264L62.5816 13.2964L63.8412 13.9396L65.3688 14.556L67.3788 15.092L69.6568 15.5208L72.042 15.7888L74.2396 15.8692L84.0484 15.5476ZM105.247 15.3868L49.128 17.3432L51.0844 16.0032L53.6572 14.5024L56.1228 13.35L58.5616 12.3584L61.054 11.5812L63.4124 10.938L66.1728 10.4288L68.5848 10.1876L72.6584 10L75.9012 10.0268L85.442 14.7704L105.247 15.3868Z" fill="#E1FEAA"/>
</g>
<defs>
<filter id="filter0_d" x="0" y="0" width="147.219" height="44.8169" filterUnits="userSpaceOnUse" color-interpolation-filters="sRGB">
<feFlood flood-opacity="0" result="BackgroundImageFix"/>
<feColorMatrix in="SourceAlpha" type="matrix" values="0 0 0 0 0 0 0 0 0 0 0 0 0 0 0 0 0 0 127 0"/>
<feOffset/>
<feGaussianBlur stdDeviation="5"/>
<feColorMatrix type="matrix" values="0 0 0 0 0 0 0 0 0 0 0 0 0 0 0 0 0 0 1 0"/>
<feBlend mode="normal" in2="BackgroundImageFix" result="effect1_dropShadow"/>
<feBlend mode="normal" in="SourceGraphic" in2="effect1_dropShadow" result="shape"/>
</filter>
</defs>
</svg>
