<svg width="300" height="300" viewBox="0 0 300 300" fill="none" xmlns="http://www.w3.org/2000/svg">
<path d="M283.328 104.911C283.328 106.259 284.263 107.9 285.431 108.545C286.6 109.19 287.535 108.662 287.535 107.314C287.535 105.966 286.6 104.324 285.431 103.68C284.263 103.035 283.328 103.562 283.328 104.911Z" fill="white"/>
<path d="M275.44 100.338C275.44 101.687 276.375 103.328 277.544 103.973C278.712 104.618 279.647 104.09 279.647 102.742C279.647 101.393 278.712 99.7521 277.544 99.1073C276.375 98.4625 275.44 98.99 275.44 100.338Z" fill="white"/>
<path d="M267.611 95.8246C267.611 97.1729 268.546 98.8143 269.715 99.4591C270.883 100.104 271.818 99.5763 271.818 98.2281C271.818 96.8798 270.883 95.2384 269.715 94.5936C268.546 93.9488 267.611 94.4764 267.611 95.8246Z" fill="white"/>
<path d="M162.563 137.972C160.05 136.507 156.019 136.507 153.507 137.972L19.7123 215.468C17.2001 216.934 17.2001 219.279 19.7123 220.686L108.402 272.037C110.915 273.502 114.946 273.502 117.458 272.037L251.253 194.541C253.765 193.075 253.765 190.731 251.253 189.324L162.563 137.972Z" fill="url(#paint0_linear)"/>
<path d="M17.9009 218.106V223.265C17.9009 224.261 18.4851 225.199 19.7705 225.961L108.46 277.313C110.973 278.778 115.004 278.778 117.516 277.313L251.311 199.817C252.538 199.113 253.18 198.175 253.18 197.179V192.02V191.962C253.18 192.9 252.538 193.838 251.311 194.541L117.516 272.037C115.004 273.502 110.973 273.502 108.46 272.037L19.7705 220.686C18.4851 219.982 17.9009 219.044 17.9009 218.106Z" fill="url(#paint1_linear)"/>
<path d="M158.414 27.2388C158.414 24.3664 156.369 23.194 153.916 24.6009L20.1212 102.097C17.6089 103.562 15.564 107.08 15.564 109.952V212.655C15.564 215.527 17.6089 216.699 20.1212 215.293L153.916 137.797C156.428 136.331 158.414 132.814 158.414 129.941V27.2388Z" fill="url(#paint2_linear)"/>
<path d="M23.7433 205.855C22.7501 206.441 21.9321 205.972 21.9321 204.8V110.48C21.9321 109.307 22.7501 107.9 23.7433 107.314L150.293 34.0387C151.286 33.4525 152.104 33.9215 152.104 35.0939V129.414C152.104 130.586 151.286 131.993 150.293 132.579L23.7433 205.855Z" fill="url(#paint3_linear)"/>
<path d="M206.674 173.203C207.199 173.496 207.199 173.965 206.674 174.258L82.5779 246.127C82.052 246.42 81.2341 246.42 80.7667 246.127L31.1634 217.637C30.6376 217.344 30.6376 216.875 31.1634 216.582L155.259 144.655C155.785 144.362 156.603 144.362 157.07 144.655L206.674 173.203Z" fill="url(#paint4_linear)"/>
<path d="M53.9498 219.689C54.4756 219.982 54.4756 220.451 53.9498 220.744L48.4578 223.91C47.932 224.203 47.1724 224.203 46.6466 223.91L41.1546 220.686C40.6288 220.393 40.6288 219.924 41.1546 219.63L46.6466 216.406C47.1724 216.113 47.932 216.113 48.4578 216.406L53.9498 219.689Z" fill="url(#paint5_linear)"/>
<path d="M62.4215 214.765C62.9473 215.058 62.9473 215.527 62.4215 215.82L56.9295 218.986C56.4037 219.279 55.6441 219.279 55.1183 218.986L49.6263 215.82C49.1005 215.527 49.1005 215.058 49.6263 214.765L55.1183 211.599C55.6441 211.306 56.4037 211.306 56.9295 211.599L62.4215 214.765Z" fill="url(#paint6_linear)"/>
<path d="M70.8346 209.899C71.3604 210.193 71.3604 210.662 70.8346 210.955L65.3426 214.12C64.8168 214.413 64.0572 214.413 63.5314 214.12L58.0394 210.955C57.5136 210.662 57.5136 210.193 58.0394 209.899L63.5314 206.734C64.0572 206.441 64.8168 206.441 65.3426 206.734L70.8346 209.899Z" fill="url(#paint7_linear)"/>
<path d="M79.3062 205.034C79.8321 205.327 79.8321 205.796 79.3062 206.089L73.8143 209.255C73.2884 209.548 72.5289 209.548 72.0031 209.255L66.5111 206.089C65.9852 205.796 65.9852 205.327 66.5111 205.034L72.0031 201.869C72.5289 201.575 73.2884 201.575 73.8143 201.869L79.3062 205.034Z" fill="url(#paint8_linear)"/>
<path d="M87.7193 200.11C88.2452 200.403 88.2452 200.872 87.7193 201.165L82.2273 204.331C81.7015 204.624 80.942 204.624 80.4161 204.331L74.9242 201.165C74.3983 200.872 74.3983 200.403 74.9242 200.11L80.4161 196.944C80.942 196.651 81.7015 196.651 82.2273 196.944L87.7193 200.11Z" fill="url(#paint9_linear)"/>
<path d="M96.1329 195.244C96.6587 195.538 96.6587 196.007 96.1329 196.3L90.6409 199.465C90.1151 199.758 89.3556 199.758 88.8297 199.465L83.3377 196.3C82.8119 196.007 82.8119 195.538 83.3377 195.244L88.8297 192.079C89.3556 191.786 90.1151 191.786 90.6409 192.079L96.1329 195.244Z" fill="url(#paint10_linear)"/>
<path d="M104.605 190.32C105.13 190.613 105.13 191.082 104.605 191.376L99.1126 194.541C98.5868 194.834 97.8272 194.834 97.3014 194.541L91.8094 191.376C91.2836 191.082 91.2836 190.613 91.8094 190.32L97.3014 187.155C97.8272 186.862 98.5868 186.862 99.1126 187.155L104.605 190.32Z" fill="url(#paint11_linear)"/>
<path d="M113.018 185.455C113.544 185.748 113.544 186.217 113.018 186.51L107.526 189.676C107 189.969 106.24 189.969 105.714 189.676L100.222 186.51C99.6967 186.217 99.6967 185.748 100.222 185.455L105.714 182.289C106.24 181.996 107 181.996 107.526 182.289L113.018 185.455Z" fill="url(#paint12_linear)"/>
<path d="M121.49 180.589C122.016 180.882 122.016 181.351 121.49 181.644L115.998 184.868C115.472 185.162 114.712 185.162 114.187 184.868L108.695 181.644C108.169 181.351 108.169 180.882 108.695 180.589L114.187 177.424C114.712 177.131 115.472 177.131 115.998 177.424L121.49 180.589Z" fill="url(#paint13_linear)"/>
<path d="M129.903 175.665C130.429 175.958 130.429 176.427 129.903 176.721L124.411 179.945C123.885 180.238 123.126 180.238 122.6 179.945L117.108 176.721C116.582 176.427 116.582 175.958 117.108 175.665L122.6 172.5C123.126 172.207 123.885 172.207 124.411 172.5L129.903 175.665Z" fill="url(#paint14_linear)"/>
<path d="M138.375 170.8C138.9 171.093 138.9 171.562 138.375 171.855L132.883 175.079C132.357 175.372 131.597 175.372 131.071 175.079L125.579 171.855C125.054 171.562 125.054 171.093 125.579 170.8L131.071 167.634C131.597 167.341 132.357 167.341 132.883 167.634L138.375 170.8Z" fill="url(#paint15_linear)"/>
<path d="M146.788 165.876C147.314 166.169 147.314 166.638 146.788 166.931L141.296 170.096C140.77 170.39 139.952 170.39 139.485 170.096L133.993 166.931C133.467 166.638 133.467 166.169 133.993 165.876L139.485 162.71C139.952 162.417 140.77 162.417 141.296 162.71L146.788 165.876Z" fill="url(#paint16_linear)"/>
<path d="M155.201 161.01C155.727 161.303 155.727 161.772 155.201 162.065L149.709 165.231C149.183 165.524 148.423 165.524 147.898 165.231L142.406 162.065C141.88 161.772 141.88 161.303 142.406 161.01L147.898 157.845C148.423 157.551 149.183 157.551 149.709 157.845L155.201 161.01Z" fill="url(#paint17_linear)"/>
<path d="M45.8869 214.706C46.4127 214.999 46.4127 215.468 45.8869 215.761L40.1028 219.103C39.577 219.396 38.8174 219.396 38.2916 219.103L35.8377 217.696C35.3119 217.403 35.3119 216.934 35.8377 216.641L41.6219 213.299C42.1477 213.006 42.9072 213.006 43.433 213.299L45.8869 214.706Z" fill="url(#paint18_linear)"/>
<path d="M54.6506 209.606C55.1764 209.899 55.1764 210.368 54.6506 210.661L48.8665 214.003C48.3406 214.296 47.5811 214.296 47.0553 214.003L44.6014 212.596C44.0756 212.303 44.0756 211.834 44.6014 211.541L50.3855 208.199C50.9114 207.906 51.6709 207.906 52.1967 208.199L54.6506 209.606Z" fill="url(#paint19_linear)"/>
<path d="M63.3561 204.565C63.882 204.858 63.882 205.327 63.3561 205.62L57.572 208.961C57.0462 209.255 56.2867 209.255 55.7608 208.961L53.307 207.555C52.7811 207.261 52.7811 206.793 53.307 206.499L59.0911 203.158C59.6169 202.865 60.3765 202.865 60.9023 203.158L63.3561 204.565Z" fill="url(#paint20_linear)"/>
<path d="M72.1198 199.465C72.6456 199.758 72.6456 200.227 72.1198 200.52L66.3357 203.862C65.8099 204.155 65.0503 204.155 64.5245 203.862L62.0706 202.455C61.5448 202.162 61.5448 201.693 62.0706 201.4L67.8548 198.058C68.3806 197.765 69.1401 197.765 69.666 198.058L72.1198 199.465Z" fill="url(#paint21_linear)"/>
<path d="M80.8835 194.424C81.4093 194.717 81.4093 195.186 80.8835 195.479L75.0994 198.82C74.5735 199.113 73.814 199.113 73.2882 198.82L70.8343 197.413C70.3085 197.12 70.3085 196.651 70.8343 196.358L76.6184 193.017C77.1443 192.724 77.9038 192.724 78.4296 193.017L80.8835 194.424Z" fill="url(#paint22_linear)"/>
<path d="M89.5891 189.382C90.1149 189.675 90.1149 190.144 89.5891 190.437L83.8049 193.779C83.2791 194.072 82.5196 194.072 81.9938 193.779L79.5399 192.372C79.0141 192.079 79.0141 191.61 79.5399 191.317L85.324 187.975C85.8498 187.682 86.6094 187.682 87.1352 187.975L89.5891 189.382Z" fill="url(#paint23_linear)"/>
<path d="M98.3527 184.282C98.8786 184.576 98.8786 185.045 98.3527 185.338L92.5686 188.679C92.0428 188.972 91.2833 188.972 90.7574 188.679L88.3036 187.272C87.7777 186.979 87.7777 186.51 88.3036 186.217L94.0877 182.876C94.6135 182.582 95.373 182.582 95.8989 182.876L98.3527 184.282Z" fill="url(#paint24_linear)"/>
<path d="M107.059 179.241C107.585 179.534 107.585 180.003 107.059 180.296L101.275 183.637C100.749 183.931 99.9893 183.931 99.4635 183.637L97.0096 182.231C96.4838 181.938 96.4838 181.469 97.0096 181.175L102.794 177.834C103.32 177.541 104.079 177.541 104.605 177.834L107.059 179.241Z" fill="url(#paint25_linear)"/>
<path d="M115.822 174.2C116.348 174.493 116.348 174.962 115.822 175.255L110.038 178.596C109.513 178.889 108.753 178.889 108.227 178.596L105.773 177.189C105.247 176.896 105.247 176.427 105.773 176.134L111.557 172.793C112.083 172.5 112.843 172.5 113.369 172.793L115.822 174.2Z" fill="url(#paint26_linear)"/>
<path d="M124.586 169.1C125.112 169.393 125.112 169.862 124.586 170.155L118.802 173.496C118.276 173.789 117.517 173.789 116.991 173.496L114.537 172.089C114.011 171.796 114.011 171.327 114.537 171.034L120.321 167.693C120.847 167.4 121.606 167.4 122.132 167.693L124.586 169.1Z" fill="url(#paint27_linear)"/>
<path d="M133.292 164.058C133.818 164.351 133.818 164.82 133.292 165.114L127.508 168.455C126.982 168.748 126.222 168.748 125.696 168.455L123.243 167.048C122.717 166.755 122.717 166.286 123.243 165.993L129.027 162.651C129.552 162.358 130.312 162.358 130.838 162.651L133.292 164.058Z" fill="url(#paint28_linear)"/>
<path d="M142.055 158.958C142.581 159.252 142.581 159.721 142.055 160.014L136.271 163.355C135.745 163.648 134.986 163.648 134.46 163.355L132.006 161.948C131.48 161.655 131.48 161.186 132.006 160.893L137.79 157.552C138.316 157.259 139.076 157.259 139.602 157.552L142.055 158.958Z" fill="url(#paint29_linear)"/>
<path d="M150.819 153.917C151.345 154.21 151.345 154.679 150.819 154.972L145.035 158.314C144.509 158.607 143.75 158.607 143.224 158.314L140.77 156.907C140.244 156.614 140.244 156.145 140.77 155.851L146.554 152.51C147.08 152.217 147.839 152.217 148.365 152.51L150.819 153.917Z" fill="url(#paint30_linear)"/>
<path d="M159.583 148.817C160.109 149.11 160.109 149.579 159.583 149.872L153.799 153.214C153.273 153.507 152.514 153.507 151.988 153.214L149.534 151.807C149.008 151.514 149.008 151.045 149.534 150.752L155.318 147.41C155.844 147.117 156.604 147.117 157.129 147.41L159.583 148.817Z" fill="url(#paint31_linear)"/>
<path d="M167.879 153.683C168.405 153.976 168.405 154.445 167.879 154.738L158.122 160.365C157.597 160.658 156.837 160.658 156.311 160.365L150.819 157.2C150.293 156.907 150.293 156.438 150.819 156.145L160.576 150.517C161.102 150.224 161.862 150.224 162.387 150.517L167.879 153.683Z" fill="url(#paint32_linear)"/>
<path d="M87.7779 239.268C88.3038 239.561 88.3038 240.03 87.7779 240.323L82.2859 243.489C81.7601 243.782 81.0006 243.782 80.4747 243.489L74.9828 240.323C74.4569 240.03 74.4569 239.561 74.9828 239.268L80.4747 236.103C81.0006 235.81 81.7601 235.81 82.2859 236.103L87.7779 239.268Z" fill="url(#paint33_linear)"/>
<path d="M96.2496 234.403C96.7754 234.696 96.7754 235.165 96.2496 235.458L90.7576 238.623C90.2318 238.916 89.4723 238.916 88.9464 238.623L83.4544 235.458C82.9286 235.165 82.9286 234.696 83.4544 234.403L88.9464 231.237C89.4723 230.944 90.2318 230.944 90.7576 231.237L96.2496 234.403Z" fill="url(#paint34_linear)"/>
<path d="M104.663 229.479C105.189 229.772 105.189 230.241 104.663 230.534L99.1707 233.699C98.6449 233.992 97.8853 233.992 97.3595 233.699L91.8675 230.534C91.3417 230.241 91.3417 229.772 91.8675 229.479L97.3595 226.313C97.8853 226.02 98.6449 226.02 99.1707 226.313L104.663 229.479Z" fill="url(#paint35_linear)"/>
<path d="M188.971 175.665C189.497 175.958 189.497 176.427 188.971 176.72L183.479 179.886C182.953 180.179 182.194 180.179 181.668 179.886L180.383 179.124C179.857 178.831 179.857 178.362 180.383 178.069L185.875 174.903C186.4 174.61 187.16 174.61 187.686 174.903L188.971 175.665Z" fill="url(#paint36_linear)"/>
<path d="M184.881 183.051C185.407 183.345 185.407 183.814 184.881 184.107L179.389 187.272C178.863 187.565 178.104 187.565 177.578 187.272L176.292 186.51C175.766 186.217 175.766 185.748 176.292 185.455L181.784 182.289C182.31 181.996 183.07 181.996 183.596 182.289L184.881 183.051Z" fill="url(#paint37_linear)"/>
<path d="M193.294 178.186C193.82 178.479 193.82 178.948 193.294 179.241L187.802 182.406C187.277 182.7 186.517 182.7 185.991 182.406L184.706 181.644C184.18 181.351 184.18 180.882 184.706 180.589L190.198 177.424C190.665 177.131 191.483 177.131 192.009 177.424L193.294 178.186Z" fill="url(#paint38_linear)"/>
<path d="M201.708 173.262C202.233 173.555 202.233 174.024 201.708 174.317L196.216 177.483C195.69 177.776 194.93 177.776 194.404 177.483L193.119 176.721C192.593 176.427 192.593 175.958 193.119 175.665L198.611 172.5C199.137 172.207 199.896 172.207 200.422 172.5L201.708 173.262Z" fill="url(#paint39_linear)"/>
<path d="M113.135 224.613C113.661 224.906 113.661 225.375 113.135 225.668L107.643 228.834C107.117 229.127 106.358 229.127 105.832 228.834L100.34 225.668C99.8139 225.375 99.8139 224.906 100.34 224.613L105.832 221.448C106.358 221.155 107.117 221.155 107.643 221.448L113.135 224.613Z" fill="url(#paint40_linear)"/>
<path d="M159.583 197.706C160.109 197.999 160.109 198.468 159.583 198.762L116.056 223.968C115.53 224.261 114.771 224.261 114.245 223.968L108.753 220.803C108.227 220.51 108.227 220.041 108.753 219.748L152.28 194.541C152.806 194.248 153.565 194.248 154.091 194.541L159.583 197.706Z" fill="url(#paint41_linear)"/>
<path d="M167.996 192.841C168.522 193.134 168.522 193.603 167.996 193.896L162.504 197.062C161.978 197.355 161.219 197.355 160.693 197.062L155.201 193.896C154.675 193.603 154.675 193.134 155.201 192.841L160.693 189.675C161.219 189.382 161.978 189.382 162.504 189.675L167.996 192.841Z" fill="url(#paint42_linear)"/>
<path d="M176.41 187.917C176.936 188.21 176.936 188.679 176.41 188.972L170.918 192.137C170.392 192.431 169.632 192.431 169.107 192.137L163.615 188.972C163.089 188.679 163.089 188.21 163.615 187.917L169.107 184.751C169.632 184.458 170.392 184.458 170.918 184.751L176.41 187.917Z" fill="url(#paint43_linear)"/>
<path d="M75.0997 217.227C75.6255 217.52 75.6255 217.989 75.0997 218.282L69.6077 221.448C69.0819 221.741 68.3223 221.741 67.7965 221.448L62.3045 218.282C61.7787 217.989 61.7787 217.52 62.3045 217.227L67.7965 214.061C68.3223 213.768 69.0819 213.768 69.6077 214.061L75.0997 217.227Z" fill="url(#paint44_linear)"/>
<path d="M66.6279 222.092C67.1538 222.385 67.1538 222.854 66.6279 223.148L56.8709 228.775C56.3451 229.068 55.5855 229.068 55.0597 228.775L49.5677 225.61C49.0419 225.316 49.0419 224.847 49.5677 224.554L59.3248 218.927C59.8506 218.634 60.6101 218.634 61.136 218.927L66.6279 222.092Z" fill="url(#paint45_linear)"/>
<path d="M83.5133 212.303C84.0391 212.596 84.0391 213.065 83.5133 213.358L78.0213 216.523C77.4955 216.817 76.7359 216.817 76.2101 216.523L70.7181 213.358C70.1923 213.065 70.1923 212.596 70.7181 212.303L76.2101 209.137C76.7359 208.844 77.4955 208.844 78.0213 209.137L83.5133 212.303Z" fill="url(#paint46_linear)"/>
<path d="M91.9845 207.437C92.5103 207.73 92.5103 208.199 91.9845 208.493L86.4925 211.658C85.9667 211.951 85.2071 211.951 84.6813 211.658L79.1893 208.493C78.6635 208.199 78.6635 207.73 79.1893 207.437L84.6813 204.213C85.2071 203.92 85.9667 203.92 86.4925 204.213L91.9845 207.437Z" fill="url(#paint47_linear)"/>
<path d="M100.398 202.572C100.924 202.865 100.924 203.334 100.398 203.627L94.9061 206.793C94.3802 207.086 93.6207 207.086 93.0949 206.793L87.6029 203.627C87.077 203.334 87.077 202.865 87.6029 202.572L93.0949 199.406C93.6207 199.113 94.3802 199.113 94.9061 199.406L100.398 202.572Z" fill="url(#paint48_linear)"/>
<path d="M108.811 197.648C109.337 197.941 109.337 198.41 108.811 198.703L103.319 201.868C102.793 202.162 102.034 202.162 101.508 201.868L96.016 198.703C95.4901 198.41 95.4901 197.941 96.016 197.648L101.508 194.424C102.034 194.131 102.793 194.131 103.319 194.424L108.811 197.648Z" fill="url(#paint49_linear)"/>
<path d="M117.283 192.782C117.809 193.075 117.809 193.544 117.283 193.837L111.791 197.003C111.265 197.296 110.505 197.296 109.98 197.003L104.488 193.837C103.962 193.544 103.962 193.075 104.488 192.782L109.98 189.617C110.505 189.324 111.265 189.324 111.791 189.617L117.283 192.782Z" fill="url(#paint50_linear)"/>
<path d="M125.696 187.858C126.222 188.151 126.222 188.62 125.696 188.913L120.204 192.079C119.679 192.372 118.919 192.372 118.393 192.079L112.901 188.913C112.375 188.62 112.375 188.151 112.901 187.858L118.393 184.693C118.919 184.4 119.679 184.4 120.204 184.693L125.696 187.858Z" fill="url(#paint51_linear)"/>
<path d="M134.168 182.993C134.693 183.286 134.693 183.755 134.168 184.048L128.676 187.213C128.15 187.507 127.39 187.507 126.864 187.213L121.372 184.048C120.847 183.755 120.847 183.286 121.372 182.993L126.864 179.827C127.39 179.534 128.15 179.534 128.676 179.827L134.168 182.993Z" fill="url(#paint52_linear)"/>
<path d="M142.581 178.127C143.107 178.42 143.107 178.889 142.581 179.182L137.089 182.348C136.563 182.641 135.804 182.641 135.278 182.348L129.786 179.182C129.26 178.889 129.26 178.42 129.786 178.127L135.278 174.962C135.804 174.669 136.563 174.669 137.089 174.962L142.581 178.127Z" fill="url(#paint53_linear)"/>
<path d="M151.053 173.203C151.579 173.496 151.579 173.965 151.053 174.258L145.561 177.424C145.035 177.717 144.275 177.717 143.75 177.424L138.258 174.258C137.732 173.965 137.732 173.496 138.258 173.203L143.75 170.038C144.275 169.745 145.035 169.745 145.561 170.038L151.053 173.203Z" fill="url(#paint54_linear)"/>
<path d="M159.466 168.338C159.992 168.631 159.992 169.1 159.466 169.393L153.974 172.558C153.448 172.851 152.689 172.851 152.163 172.558L146.671 169.393C146.145 169.1 146.145 168.631 146.671 168.338L152.163 165.172C152.689 164.879 153.448 164.879 153.974 165.172L159.466 168.338Z" fill="url(#paint55_linear)"/>
<path d="M167.88 163.472C168.405 163.765 168.405 164.234 167.88 164.527L162.387 167.693C161.862 167.986 161.102 167.986 160.576 167.693L155.084 164.527C154.558 164.234 154.558 163.765 155.084 163.472L160.576 160.307C161.102 160.014 161.862 160.014 162.387 160.307L167.88 163.472Z" fill="url(#paint56_linear)"/>
<path d="M176.351 158.548C176.877 158.841 176.877 159.31 176.351 159.603L170.859 162.769C170.333 163.062 169.574 163.062 169.048 162.769L163.556 159.603C163.03 159.31 163.03 158.841 163.556 158.548L169.048 155.383C169.574 155.09 170.333 155.09 170.859 155.383L176.351 158.548Z" fill="url(#paint57_linear)"/>
<path d="M85.4996 220.979C86.0255 221.272 86.0255 221.741 85.4996 222.034L80.0076 225.258C79.4818 225.551 78.7223 225.551 78.1964 225.258L72.7044 222.034C72.1786 221.741 72.1786 221.272 72.7044 220.979L78.1964 217.813C78.7223 217.52 79.4818 217.52 80.0076 217.813L85.4996 220.979Z" fill="url(#paint58_linear)"/>
<path d="M77.0861 225.844C77.6119 226.137 77.6119 226.606 77.0861 226.899L65.3426 233.699C64.8168 233.992 64.0572 233.992 63.5314 233.699L58.0394 230.534C57.5136 230.241 57.5136 229.772 58.0394 229.479L69.7829 222.679C70.3087 222.385 71.0683 222.385 71.5941 222.679L77.0861 225.844Z" fill="url(#paint59_linear)"/>
<path d="M93.9713 216.055C94.4971 216.348 94.4971 216.817 93.9713 217.11L88.4793 220.275C87.9535 220.568 87.1939 220.568 86.6681 220.275L81.1761 217.11C80.6503 216.817 80.6503 216.348 81.1761 216.055L86.6681 212.889C87.1939 212.596 87.9535 212.596 88.4793 212.889L93.9713 216.055Z" fill="url(#paint60_linear)"/>
<path d="M102.384 211.189C102.91 211.482 102.91 211.951 102.384 212.244L96.8924 215.41C96.3666 215.703 95.607 215.703 95.0812 215.41L89.5892 212.244C89.0634 211.951 89.0634 211.482 89.5892 211.189L95.0812 207.965C95.607 207.672 96.3666 207.672 96.8924 207.965L102.384 211.189Z" fill="url(#paint61_linear)"/>
<path d="M110.797 206.265C111.323 206.558 111.323 207.027 110.797 207.32L105.305 210.486C104.78 210.779 104.02 210.779 103.494 210.486L98.0023 207.32C97.4765 207.027 97.4765 206.558 98.0023 206.265L103.494 203.099C104.02 202.806 104.78 202.806 105.305 203.099L110.797 206.265Z" fill="url(#paint62_linear)"/>
<path d="M119.269 201.399C119.795 201.693 119.795 202.162 119.269 202.455L113.777 205.62C113.251 205.913 112.492 205.913 111.966 205.62L106.474 202.455C105.948 202.162 105.948 201.693 106.474 201.399L111.966 198.234C112.492 197.941 113.251 197.941 113.777 198.234L119.269 201.399Z" fill="url(#paint63_linear)"/>
<path d="M127.682 196.534C128.208 196.827 128.208 197.296 127.682 197.589L122.19 200.755C121.664 201.048 120.905 201.048 120.379 200.755L114.887 197.589C114.361 197.296 114.361 196.827 114.887 196.534L120.379 193.369C120.905 193.075 121.664 193.075 122.19 193.369L127.682 196.534Z" fill="url(#paint64_linear)"/>
<path d="M136.154 191.61C136.68 191.903 136.68 192.372 136.154 192.665L130.662 195.831C130.137 196.124 129.377 196.124 128.851 195.831L123.359 192.665C122.833 192.372 122.833 191.903 123.359 191.61L128.851 188.444C129.377 188.151 130.137 188.151 130.662 188.444L136.154 191.61Z" fill="url(#paint65_linear)"/>
<path d="M144.568 186.744C145.094 187.038 145.094 187.507 144.568 187.8L139.076 190.965C138.55 191.258 137.791 191.258 137.265 190.965L131.773 187.8C131.247 187.507 131.247 187.038 131.773 186.744L137.265 183.579C137.791 183.286 138.55 183.286 139.076 183.579L144.568 186.744Z" fill="url(#paint66_linear)"/>
<path d="M152.981 181.82C153.507 182.113 153.507 182.582 152.981 182.876L147.489 186.041C146.963 186.334 146.204 186.334 145.678 186.041L140.186 182.876C139.66 182.582 139.66 182.113 140.186 181.82L145.678 178.655C146.204 178.362 146.963 178.362 147.489 178.655L152.981 181.82Z" fill="url(#paint67_linear)"/>
<path d="M161.453 176.955C161.979 177.248 161.979 177.717 161.453 178.01L155.961 181.176C155.435 181.469 154.675 181.469 154.15 181.176L148.658 178.01C148.132 177.717 148.132 177.248 148.658 176.955L154.15 173.789C154.675 173.496 155.435 173.496 155.961 173.789L161.453 176.955Z" fill="url(#paint68_linear)"/>
<path d="M169.866 172.089C170.392 172.383 170.392 172.852 169.866 173.145L164.374 176.31C163.848 176.603 163.088 176.603 162.563 176.31L157.071 173.086C156.545 172.793 156.545 172.324 157.071 172.031L162.563 168.865C163.088 168.572 163.848 168.572 164.374 168.865L169.866 172.089Z" fill="url(#paint69_linear)"/>
<path d="M184.764 163.472C185.29 163.765 185.29 164.234 184.764 164.527L172.787 171.445C172.261 171.738 171.502 171.738 170.976 171.445L165.484 168.221C164.958 167.927 164.958 167.458 165.484 167.165L177.461 160.248C177.987 159.955 178.746 159.955 179.272 160.248L184.764 163.472Z" fill="url(#paint70_linear)"/>
<path d="M98.2359 223.324C98.7618 223.617 98.7618 224.086 98.2359 224.379L92.7439 227.544C92.2181 227.837 91.4586 227.837 90.9328 227.544L85.4408 224.379C84.9149 224.086 84.9149 223.617 85.4408 223.324L90.9328 220.158C91.4586 219.865 92.2181 219.865 92.7439 220.158L98.2359 223.324Z" fill="url(#paint71_linear)"/>
<path d="M89.7642 228.248C90.2901 228.541 90.2901 229.01 89.7642 229.303L73.7557 238.565C73.2298 238.858 72.4703 238.858 71.9445 238.565L66.4525 235.399C65.9266 235.106 65.9266 234.637 66.4525 234.344L82.4611 225.082C82.9869 224.789 83.7464 224.789 84.2723 225.082L89.7642 228.248Z" fill="url(#paint72_linear)"/>
<path d="M106.708 218.458C107.234 218.751 107.234 219.22 106.708 219.513L101.216 222.679C100.69 222.972 99.9307 222.972 99.4049 222.679L93.9129 219.513C93.3871 219.22 93.3871 218.751 93.9129 218.458L99.4049 215.234C99.9307 214.941 100.69 214.941 101.216 215.234L106.708 218.458Z" fill="url(#paint73_linear)"/>
<path d="M115.121 213.593C115.647 213.886 115.647 214.355 115.121 214.648L109.629 217.813C109.103 218.106 108.344 218.106 107.818 217.813L102.326 214.648C101.8 214.355 101.8 213.886 102.326 213.593L107.818 210.427C108.344 210.134 109.103 210.134 109.629 210.427L115.121 213.593Z" fill="url(#paint74_linear)"/>
<path d="M123.535 208.669C124.002 208.962 124.002 209.431 123.535 209.724L118.043 212.889C117.517 213.182 116.757 213.182 116.232 212.889L110.74 209.724C110.214 209.431 110.214 208.962 110.74 208.669L116.232 205.503C116.757 205.21 117.517 205.21 118.043 205.503L123.535 208.669Z" fill="url(#paint75_linear)"/>
<path d="M132.006 203.803C132.532 204.096 132.532 204.565 132.006 204.858L126.514 208.023C125.988 208.317 125.229 208.317 124.703 208.023L119.211 204.858C118.685 204.565 118.685 204.096 119.211 203.803L124.703 200.579C125.229 200.286 125.988 200.286 126.514 200.579L132.006 203.803Z" fill="url(#paint76_linear)"/>
<path d="M140.42 198.938C140.945 199.231 140.945 199.7 140.42 199.993L134.928 203.158C134.402 203.451 133.642 203.451 133.116 203.158L127.624 199.993C127.099 199.7 127.099 199.231 127.624 198.938L133.116 195.772C133.642 195.479 134.402 195.479 134.928 195.772L140.42 198.938Z" fill="url(#paint77_linear)"/>
<path d="M148.891 194.014C149.417 194.307 149.417 194.776 148.891 195.069L143.399 198.234C142.873 198.527 142.114 198.527 141.588 198.234L136.096 195.069C135.57 194.776 135.57 194.307 136.096 194.014L141.588 190.848C142.114 190.555 142.873 190.555 143.399 190.848L148.891 194.014Z" fill="url(#paint78_linear)"/>
<path d="M157.304 189.148C157.83 189.441 157.83 189.91 157.304 190.203L151.812 193.369C151.286 193.662 150.527 193.662 150.001 193.369L144.509 190.203C143.983 189.91 143.983 189.441 144.509 189.148L150.001 185.983C150.527 185.689 151.286 185.689 151.812 185.983L157.304 189.148Z" fill="url(#paint79_linear)"/>
<path d="M165.776 184.224C166.302 184.517 166.302 184.986 165.776 185.279L160.284 188.444C159.758 188.737 158.999 188.737 158.473 188.444L152.981 185.279C152.455 184.986 152.455 184.517 152.981 184.224L158.473 181.058C158.999 180.765 159.758 180.765 160.284 181.058L165.776 184.224Z" fill="url(#paint80_linear)"/>
<path d="M174.189 179.358C174.715 179.652 174.715 180.121 174.189 180.414L168.697 183.638C168.171 183.931 167.412 183.931 166.886 183.638L161.394 180.414C160.927 180.121 160.927 179.652 161.394 179.358L166.886 176.193C167.412 175.9 168.23 175.9 168.697 176.193L174.189 179.358Z" fill="url(#paint81_linear)"/>
<path d="M193.236 168.338C193.762 168.631 193.762 169.1 193.236 169.393L177.111 178.713C176.585 179.007 175.825 179.007 175.299 178.713L169.807 175.548C169.282 175.255 169.282 174.786 169.807 174.493L185.933 165.172C186.459 164.879 187.218 164.879 187.744 165.172L193.236 168.338Z" fill="url(#paint82_linear)"/>
<path d="M200.306 217.52C200.832 217.813 200.832 218.282 200.306 218.575L158.941 242.551C158.415 242.844 157.655 242.844 157.129 242.551L126.982 225.082C126.456 224.789 126.456 224.32 126.982 224.027L168.405 200.051C168.931 199.758 169.691 199.758 170.217 200.051L200.306 217.52Z" fill="url(#paint83_linear)"/>
<path d="M15.564 212.713V110.011C15.564 107.138 17.6089 103.562 20.1211 102.156L153.916 24.6596C155.084 23.9561 156.194 23.8975 157.012 24.3078C157.012 24.3078 157.012 24.3078 156.954 24.3078L153.39 22.2561C152.572 21.8458 151.462 21.9044 150.293 22.6078L16.4988 100.104C13.9865 101.569 12 105.087 12 107.959V210.662C12 212.127 12.5258 213.124 13.3438 213.593L16.9662 215.644C16.0898 215.117 15.564 214.12 15.564 212.713Z" fill="url(#paint84_linear)"/>
<path opacity="0.2" d="M148.365 57.9558C148.365 59.7731 147.08 62.0006 145.502 62.9386L135.219 68.8592C133.642 69.7971 132.356 69.035 132.356 67.2178V55.3179C132.356 53.5007 133.642 51.2731 135.219 50.3352L145.502 44.4146C147.08 43.4766 148.365 44.2387 148.365 46.0559V57.9558Z" fill="black"/>
<path d="M153.799 60.887C153.799 62.7042 152.513 64.9318 150.936 65.8697L140.653 71.7903C139.075 72.7283 137.79 71.9662 137.79 70.149V58.2491C137.79 56.4318 139.075 54.2043 140.653 53.2663L150.936 47.3457C152.513 46.4078 153.799 47.1698 153.799 48.9871V60.887Z" fill="url(#paint85_linear)"/>
<path d="M137.79 70.1489V58.249C137.79 56.4318 139.075 54.2042 140.653 53.2663L150.936 47.3456C151.637 46.9353 152.28 46.8767 152.747 47.0525L150.994 45.9973C150.468 45.6456 149.709 45.7042 148.891 46.1732L138.608 52.0939C137.03 53.0318 135.745 55.2593 135.745 57.0766V68.9765C135.745 69.9144 136.096 70.5592 136.621 70.8523L138.55 71.9661C138.082 71.673 137.79 71.0282 137.79 70.1489Z" fill="url(#paint86_linear)"/>
<path opacity="0.2" d="M43.7835 112.707L123.242 66.7488V66.8074V155.5L211.114 206.851L215.379 215.41L166.711 248.823L147.547 259.902L147.313 254.802L43.7251 194.248L43.7835 112.707Z" fill="black"/>
<path opacity="0.3" d="M109.512 64.9317C112.551 63.1731 116.523 62.88 123.242 66.749L43.7838 112.707C37.5907 109.131 33.6762 109.073 30.7549 110.48L109.512 64.9317Z" fill="url(#paint87_linear)"/>
<path d="M81.293 153.507L91.1084 160.014L140.127 131.934L115.589 124.607L81.293 153.507Z" fill="url(#paint88_linear)"/>
<path d="M189.146 90.373C192.769 88.3213 197.443 88.2626 203.869 92.0143C233.199 109.014 236.646 171.328 238.457 195.479C239.684 211.482 253.297 223.265 260.367 219.513L180.908 265.53C173.839 269.223 160.284 257.499 159.057 241.496C157.188 217.403 153.799 155.031 124.469 138.031C118.393 134.514 113.894 134.338 110.389 136.038L189.146 90.373Z" fill="url(#paint89_linear)"/>
<path d="M185.115 255.916L264.515 209.899C264.34 215.117 262.704 218.165 260.308 219.455L180.85 265.471C183.303 264.182 184.939 261.192 185.115 255.916Z" fill="url(#paint90_linear)"/>
<path d="M123.184 66.7488C142.347 77.828 139.368 97.2899 155.318 109.952L110.33 136.038C98.3531 141.783 97.0093 168.631 80.5917 159.134C59.2664 146.765 64.5832 124.841 43.7837 112.766L123.184 66.7488Z" fill="url(#paint91_linear)"/>
<g opacity="0.2">
<path opacity="0.2" d="M88.2451 155.852C89.3552 155.793 90.9327 155.734 92.7439 155.558L97.4764 152.803C98.119 151.69 98.8201 150.517 99.4628 149.345L88.2451 155.852Z" fill="#587C13"/>
<path opacity="0.2" d="M82.3442 154.034C82.6364 154.21 82.9285 154.386 83.2206 154.562C83.6296 154.796 83.9802 154.972 84.3307 155.148L102.034 144.89C102.793 143.6 103.611 142.31 104.488 141.197L82.3442 154.034Z" fill="#587C13"/>
<path opacity="0.2" d="M78.313 151.103C78.8388 151.572 79.3647 151.983 79.9489 152.393L149.651 112.004L148.248 110.538L78.313 151.103Z" fill="#587C13"/>
<path opacity="0.2" d="M74.9824 147.821C75.3914 148.348 75.8588 148.817 76.3262 149.286L146.495 108.662C146.028 108.135 145.619 107.666 145.21 107.138L74.9824 147.821Z" fill="#587C13"/>
<path opacity="0.2" d="M72.2363 144.128C72.5869 144.655 72.9959 145.241 73.3464 145.769L143.691 105.028C143.282 104.5 142.931 103.914 142.581 103.386L72.2363 144.128Z" fill="#587C13"/>
<path opacity="0.2" d="M69.8994 140.259C70.1915 140.845 70.5421 141.431 70.8342 141.959L141.179 101.218C140.828 100.631 140.536 100.104 140.244 99.5176L69.8994 140.259Z" fill="#587C13"/>
<path opacity="0.2" d="M67.9131 136.155C68.2052 136.741 68.4973 137.328 68.7895 137.914L139.134 97.1727C138.842 96.5865 138.549 96.0003 138.257 95.4141L67.9131 136.155Z" fill="#587C13"/>
<path opacity="0.2" d="M65.9849 131.993C66.2186 132.462 66.4523 132.99 66.686 133.459C66.7444 133.576 66.8028 133.693 66.8612 133.81L137.206 93.0694C137.03 92.6591 136.855 92.3073 136.68 91.897C136.563 91.7211 136.504 91.4867 136.388 91.3108L65.9849 131.993Z" fill="#587C13"/>
<path opacity="0.2" d="M63.9985 127.89C64.2907 128.476 64.5828 129.062 64.8749 129.648L135.219 88.9073C134.927 88.3211 134.635 87.7349 134.343 87.1487L63.9985 127.89Z" fill="#587C13"/>
<path opacity="0.2" d="M61.8369 123.904C62.1875 124.49 62.4796 125.017 62.8301 125.604L133.174 84.8626C132.882 84.2764 132.532 83.6902 132.181 83.1626L61.8369 123.904Z" fill="#587C13"/>
<path opacity="0.2" d="M59.3828 120.093C59.7918 120.621 60.1423 121.207 60.4929 121.734L130.837 80.9934C130.487 80.4658 130.078 79.8796 129.669 79.4106L59.3828 120.093Z" fill="#587C13"/>
<path opacity="0.2" d="M56.52 116.459C56.9874 116.986 57.3964 117.455 57.8054 117.983L128.033 77.3005C127.565 76.7729 127.098 76.3039 126.631 75.835L56.52 116.459Z" fill="#587C13"/>
<path opacity="0.2" d="M53.3652 113.235C53.8326 113.645 54.3 114.114 54.7675 114.524L124.644 74.0176C124.177 73.6073 123.651 73.1969 123.067 72.8452L53.3652 113.235Z" fill="#587C13"/>
</g>
<g opacity="0.5">
<path opacity="0.5" d="M194.872 125.897C202.876 140.727 207.024 160.483 209.42 177.893L212.575 176.076C211.523 168.162 210.062 159.838 208.076 151.748C205.388 140.786 202 131.524 197.968 124.079L194.872 125.897Z" fill="#17C605"/>
<path opacity="0.5" d="M164.549 190.731C165.309 194.776 165.893 198.82 166.419 202.748L163.264 204.565C162.738 200.638 162.095 196.593 161.336 192.548L164.549 190.731Z" fill="#F97000"/>
<path opacity="0.5" d="M204.629 124.021C208.017 130.938 210.88 139.203 213.217 148.758C215.204 156.848 216.606 165.172 217.716 173.086L214.561 174.903C212.341 158.548 208.543 140.259 201.474 125.779L204.629 124.021Z" fill="#F97000"/>
<path opacity="0.5" d="M196.216 133.986C198.786 140.024 201.065 146.941 202.993 154.679C204.98 162.769 206.382 171.093 207.492 179.007L204.337 180.824C202.292 165.993 198.962 149.521 193.119 135.804L196.216 133.986Z" fill="#F97000"/>
<path opacity="0.5" d="M171.91 171.21C172.027 171.621 172.144 172.09 172.261 172.5C174.247 180.589 175.65 188.914 176.76 196.827L173.605 198.644C172.495 190.379 170.917 181.586 168.755 173.027L171.91 171.21Z" fill="#F97000"/>
<path opacity="0.5" d="M174.891 160.541C175.767 163.414 176.585 166.403 177.403 169.569C179.389 177.658 180.791 185.982 181.902 193.896L178.747 195.713C177.286 184.927 175.124 173.203 171.794 162.358L174.891 160.541Z" fill="#17C605"/>
<path opacity="0.5" d="M178.104 151.924C179.74 156.379 181.142 161.245 182.427 166.521C184.414 174.61 185.816 182.934 186.926 190.848L183.771 192.665C182.018 179.945 179.331 166.052 174.949 153.741L178.104 151.924Z" fill="#F97000"/>
<path opacity="0.5" d="M181.025 143.19C183.537 149.169 185.758 155.969 187.627 163.59C189.614 171.679 191.016 180.003 192.126 187.917L188.971 189.734C186.984 175.02 183.654 158.665 177.87 145.007L181.025 143.19Z" fill="#17C605"/>
<path opacity="0.5" d="M188.971 147.645C190.373 151.69 191.6 155.969 192.769 160.6C194.755 168.689 196.157 177.014 197.267 184.927L194.113 186.744C192.477 174.61 189.906 161.362 185.875 149.462L188.971 147.645Z" fill="#F97000"/>
<path opacity="0.5" d="M192.418 140.141C194.463 145.359 196.274 151.221 197.851 157.669C199.838 165.758 201.24 174.082 202.35 181.996L199.195 183.813C197.325 170.096 194.346 155.031 189.263 141.959L192.418 140.141Z" fill="#17C605"/>
<path opacity="0.5" d="M214.269 131.993C215.788 136.214 217.132 140.845 218.359 145.769C220.345 153.859 221.747 162.183 222.857 170.096L219.703 171.914C218.008 159.486 215.379 145.945 211.172 133.81L214.269 131.993Z" fill="#17C605"/>
<path opacity="0.5" d="M223.091 141.372C223.208 141.841 223.325 142.369 223.442 142.838C225.428 150.927 226.83 159.251 227.94 167.165L224.785 168.982C223.675 160.658 222.098 151.807 219.936 143.19L223.091 141.372Z" fill="#F97000"/>
<path opacity="0.5" d="M168.639 182.231C169.866 188.151 170.801 194.072 171.619 199.758L168.464 201.575C167.704 195.889 166.711 189.969 165.484 184.048L168.639 182.231Z" fill="#17C605"/>
<path opacity="0.5" d="M169.982 255.975C170.45 256.502 170.859 257.03 171.326 257.44L242.079 216.465C241.671 215.996 241.262 215.468 240.853 214.941L169.982 255.975Z" fill="#55AA1F"/>
<path opacity="0.5" d="M167.354 252.223C167.704 252.809 168.055 253.396 168.405 253.923L239.334 212.772C238.983 212.244 238.633 211.658 238.282 211.072L167.354 252.223Z" fill="#55AA1F"/>
<path opacity="0.5" d="M165.484 248.061C165.718 248.706 165.951 249.292 166.243 249.878L237.114 208.844C236.821 208.258 236.529 207.672 236.296 207.027L165.484 248.061Z" fill="#55AA1F"/>
<path opacity="0.5" d="M164.257 243.489C164.374 244.192 164.549 244.837 164.666 245.482L235.361 204.565C235.127 203.92 234.952 203.275 234.776 202.63L164.257 243.489Z" fill="#55AA1F"/>
<path opacity="0.5" d="M162.972 228.482C163.03 229.244 163.089 229.947 163.147 230.651L233.141 190.144C233.082 189.441 233.024 188.737 232.965 187.975L162.972 228.482Z" fill="#55AA1F"/>
<path opacity="0.5" d="M162.562 223.499C162.621 224.203 162.679 224.965 162.738 225.668L232.732 185.103C232.673 184.4 232.615 183.696 232.556 182.934L162.562 223.499Z" fill="#55AA1F"/>
<path opacity="0.5" d="M160.926 208.727C161.043 209.431 161.102 210.134 161.218 210.837L231.329 170.214C231.271 169.51 231.154 168.807 231.095 168.103L160.926 208.727Z" fill="#96B7DC"/>
<path opacity="0.5" d="M138.082 143.19C138.491 143.717 138.958 144.186 139.367 144.714L210.121 103.738C209.712 103.211 209.244 102.742 208.777 102.214L138.082 143.19Z" fill="#55AA1F"/>
<path opacity="0.5" d="M134.869 139.79C135.336 140.259 135.862 140.728 136.329 141.255L206.907 100.397C206.381 99.9279 205.856 99.4589 205.33 99.0486L134.869 139.79Z" fill="#55AA1F"/>
<path opacity="0.5" d="M131.247 136.624C131.831 137.035 132.357 137.504 132.882 137.973L203.052 97.3487C202.526 96.997 201.941 96.6452 201.416 96.2935C201.357 96.2349 201.24 96.1763 201.182 96.1763L131.247 136.624Z" fill="#55AA1F"/>
<path opacity="0.5" d="M127.098 133.81C127.741 134.162 128.384 134.573 128.968 134.983L198.377 94.7694C197.442 94.4177 196.566 94.1246 195.748 94.0073L127.098 133.81Z" fill="#55AA1F"/>
<path opacity="0.5" d="M121.548 131.934C123.593 131.524 124.235 131.876 124.82 132.286L193.178 92.7761C192.243 92.4244 191.366 92.1313 189.146 92.8348L121.548 131.934Z" fill="#55AA1F"/>
<path opacity="0.5" d="M159.407 136.096L211.756 105.79C212.165 106.317 212.516 106.845 212.925 107.373L160.517 137.738C160.167 137.152 159.758 136.624 159.407 136.096Z" fill="#55AA1F"/>
<path opacity="0.5" d="M226.13 181.469C226.188 182.172 226.246 182.934 226.363 183.638L162.329 220.744C162.271 220.041 162.212 219.337 162.095 218.575L226.13 181.469Z" fill="#55AA1F"/>
<path opacity="0.5" d="M182.427 222.503L233.374 193.017C233.433 193.779 233.491 194.482 233.55 195.186L182.603 224.672C182.544 223.968 182.486 223.265 182.427 222.503Z" fill="#55AA1F"/>
<path opacity="0.5" d="M227.765 201.458C227.765 201.575 227.765 201.692 227.765 201.81C227.824 202.396 227.882 202.982 227.94 203.568L163.848 240.675C163.789 239.972 163.731 239.268 163.672 238.506L227.765 201.458Z" fill="#55AA1F"/>
</g>
<path d="M50.795 51.3904C50.795 52.7386 49.8602 54.4386 48.6917 55.0834C47.5232 55.7869 46.5884 55.2007 46.5884 53.8524C46.5884 52.5042 47.5232 50.8628 48.6917 50.1593C49.8602 49.4559 50.795 50.0421 50.795 51.3904Z" fill="white"/>
<path d="M58.7994 46.7595C58.7994 48.1078 57.8646 49.8078 56.6961 50.4526C55.5276 51.156 54.5928 50.5698 54.5928 49.2216C54.5928 47.8733 55.5276 46.1733 56.6961 45.5285C57.8062 44.825 58.7994 45.4112 58.7994 46.7595Z" fill="white"/>
<path opacity="0.2" d="M44.0755 171.562C44.0755 173.379 42.7901 175.607 41.2126 176.544L30.9297 182.465C29.3523 183.403 28.0669 182.641 28.0669 180.824V168.982C28.0669 167.165 29.3523 164.938 30.9297 164L41.2126 158.079C42.7901 157.141 44.0755 157.903 44.0755 159.72V171.562Z" fill="black"/>
<path d="M49.6263 174.903C49.6263 176.721 48.3409 178.948 46.7634 179.886L36.4805 185.807C34.903 186.745 33.6177 185.983 33.6177 184.165V172.265C33.6177 170.448 34.903 168.221 36.4805 167.283L46.7634 161.362C48.3409 160.424 49.6263 161.186 49.6263 163.003V174.903Z" fill="url(#paint92_linear)"/>
<path d="M33.6178 184.165V172.265C33.6178 170.448 34.9032 168.221 36.4807 167.283L46.7635 161.362C47.4647 160.952 48.1073 160.893 48.5747 161.069L46.822 160.014C46.2961 159.662 45.5366 159.721 44.7771 160.19L34.4942 166.11C32.9167 167.048 31.6313 169.276 31.6313 171.093V182.993C31.6313 183.931 31.9819 184.576 32.5077 184.869L34.3773 185.982C33.9099 185.689 33.6178 185.103 33.6178 184.165Z" fill="url(#paint93_linear)"/>
<defs>
<linearGradient id="paint0_linear" x1="154.785" y1="134.681" x2="101.153" y2="329.107" gradientUnits="userSpaceOnUse">
<stop stop-color="#DCEBFA"/>
<stop offset="1" stop-color="#C2C2C2"/>
</linearGradient>
<linearGradient id="paint1_linear" x1="143.123" y1="235.209" x2="95.8922" y2="235.209" gradientUnits="userSpaceOnUse">
<stop stop-color="#BDBDBD"/>
<stop offset="1" stop-color="#969696"/>
</linearGradient>
<linearGradient id="paint2_linear" x1="151.754" y1="21.6864" x2="15.2949" y2="227.364" gradientUnits="userSpaceOnUse">
<stop stop-color="#FAFAFA"/>
<stop offset="1" stop-color="#DEDEDE"/>
</linearGradient>
<linearGradient id="paint3_linear" x1="86.9789" y1="26.8382" x2="86.9789" y2="250.724" gradientUnits="userSpaceOnUse">
<stop stop-color="#009416"/>
<stop offset="1" stop-color="#00551F"/>
</linearGradient>
<linearGradient id="paint4_linear" x1="221.22" y1="59.7816" x2="86.7675" y2="236.88" gradientUnits="userSpaceOnUse">
<stop stop-color="#D0D0D0"/>
<stop offset="1" stop-color="#BABABA"/>
</linearGradient>
<linearGradient id="paint5_linear" x1="180.367" y1="113.536" x2="38.7488" y2="226.509" gradientUnits="userSpaceOnUse">
<stop stop-color="#C7C7C7"/>
<stop offset="1" stop-color="#5D5D5D"/>
</linearGradient>
<linearGradient id="paint6_linear" x1="181.292" y1="114.68" x2="39.6663" y2="227.66" gradientUnits="userSpaceOnUse">
<stop stop-color="#C7C7C7"/>
<stop offset="1" stop-color="#5D5D5D"/>
</linearGradient>
<linearGradient id="paint7_linear" x1="182.211" y1="115.83" x2="40.5833" y2="228.812" gradientUnits="userSpaceOnUse">
<stop stop-color="#C7C7C7"/>
<stop offset="1" stop-color="#5D5D5D"/>
</linearGradient>
<linearGradient id="paint8_linear" x1="183.125" y1="116.984" x2="41.503" y2="229.961" gradientUnits="userSpaceOnUse">
<stop stop-color="#C7C7C7"/>
<stop offset="1" stop-color="#5D5D5D"/>
</linearGradient>
<linearGradient id="paint9_linear" x1="184.043" y1="118.135" x2="42.4203" y2="231.113" gradientUnits="userSpaceOnUse">
<stop stop-color="#C7C7C7"/>
<stop offset="1" stop-color="#5D5D5D"/>
</linearGradient>
<linearGradient id="paint10_linear" x1="184.96" y1="119.286" x2="43.3388" y2="232.263" gradientUnits="userSpaceOnUse">
<stop stop-color="#C7C7C7"/>
<stop offset="1" stop-color="#5D5D5D"/>
</linearGradient>
<linearGradient id="paint11_linear" x1="185.882" y1="120.435" x2="44.2554" y2="233.415" gradientUnits="userSpaceOnUse">
<stop stop-color="#C7C7C7"/>
<stop offset="1" stop-color="#5D5D5D"/>
</linearGradient>
<linearGradient id="paint12_linear" x1="186.804" y1="121.582" x2="45.1799" y2="234.561" gradientUnits="userSpaceOnUse">
<stop stop-color="#C7C7C7"/>
<stop offset="1" stop-color="#5D5D5D"/>
</linearGradient>
<linearGradient id="paint13_linear" x1="187.715" y1="122.738" x2="46.0948" y2="235.714" gradientUnits="userSpaceOnUse">
<stop stop-color="#C7C7C7"/>
<stop offset="1" stop-color="#5D5D5D"/>
</linearGradient>
<linearGradient id="paint14_linear" x1="188.636" y1="123.888" x2="47.0103" y2="236.867" gradientUnits="userSpaceOnUse">
<stop stop-color="#C7C7C7"/>
<stop offset="1" stop-color="#5D5D5D"/>
</linearGradient>
<linearGradient id="paint15_linear" x1="189.554" y1="125.038" x2="47.9275" y2="238.018" gradientUnits="userSpaceOnUse">
<stop stop-color="#C7C7C7"/>
<stop offset="1" stop-color="#5D5D5D"/>
</linearGradient>
<linearGradient id="paint16_linear" x1="190.471" y1="126.189" x2="48.847" y2="239.167" gradientUnits="userSpaceOnUse">
<stop stop-color="#C7C7C7"/>
<stop offset="1" stop-color="#5D5D5D"/>
</linearGradient>
<linearGradient id="paint17_linear" x1="191.388" y1="127.34" x2="49.7671" y2="240.316" gradientUnits="userSpaceOnUse">
<stop stop-color="#C7C7C7"/>
<stop offset="1" stop-color="#5D5D5D"/>
</linearGradient>
<linearGradient id="paint18_linear" x1="175.804" y1="107.815" x2="34.1855" y2="220.789" gradientUnits="userSpaceOnUse">
<stop stop-color="#C7C7C7"/>
<stop offset="1" stop-color="#5D5D5D"/>
</linearGradient>
<linearGradient id="paint19_linear" x1="176.757" y1="109.006" x2="35.1368" y2="221.981" gradientUnits="userSpaceOnUse">
<stop stop-color="#C7C7C7"/>
<stop offset="1" stop-color="#5D5D5D"/>
</linearGradient>
<linearGradient id="paint20_linear" x1="177.706" y1="110.2" x2="36.0885" y2="223.173" gradientUnits="userSpaceOnUse">
<stop stop-color="#C7C7C7"/>
<stop offset="1" stop-color="#5D5D5D"/>
</linearGradient>
<linearGradient id="paint21_linear" x1="178.666" y1="111.385" x2="37.0382" y2="224.367" gradientUnits="userSpaceOnUse">
<stop stop-color="#C7C7C7"/>
<stop offset="1" stop-color="#5D5D5D"/>
</linearGradient>
<linearGradient id="paint22_linear" x1="179.612" y1="112.581" x2="37.9908" y2="225.558" gradientUnits="userSpaceOnUse">
<stop stop-color="#C7C7C7"/>
<stop offset="1" stop-color="#5D5D5D"/>
</linearGradient>
<linearGradient id="paint23_linear" x1="180.563" y1="113.774" x2="38.9411" y2="226.751" gradientUnits="userSpaceOnUse">
<stop stop-color="#C7C7C7"/>
<stop offset="1" stop-color="#5D5D5D"/>
</linearGradient>
<linearGradient id="paint24_linear" x1="181.514" y1="114.966" x2="39.8925" y2="227.943" gradientUnits="userSpaceOnUse">
<stop stop-color="#C7C7C7"/>
<stop offset="1" stop-color="#5D5D5D"/>
</linearGradient>
<linearGradient id="paint25_linear" x1="182.465" y1="116.16" x2="40.8468" y2="229.133" gradientUnits="userSpaceOnUse">
<stop stop-color="#C7C7C7"/>
<stop offset="1" stop-color="#5D5D5D"/>
</linearGradient>
<linearGradient id="paint26_linear" x1="183.419" y1="117.349" x2="41.7947" y2="230.328" gradientUnits="userSpaceOnUse">
<stop stop-color="#C7C7C7"/>
<stop offset="1" stop-color="#5D5D5D"/>
</linearGradient>
<linearGradient id="paint27_linear" x1="184.372" y1="118.539" x2="42.7428" y2="231.522" gradientUnits="userSpaceOnUse">
<stop stop-color="#C7C7C7"/>
<stop offset="1" stop-color="#5D5D5D"/>
</linearGradient>
<linearGradient id="paint28_linear" x1="185.32" y1="119.734" x2="43.6991" y2="232.71" gradientUnits="userSpaceOnUse">
<stop stop-color="#C7C7C7"/>
<stop offset="1" stop-color="#5D5D5D"/>
</linearGradient>
<linearGradient id="paint29_linear" x1="186.271" y1="120.927" x2="44.6512" y2="233.902" gradientUnits="userSpaceOnUse">
<stop stop-color="#C7C7C7"/>
<stop offset="1" stop-color="#5D5D5D"/>
</linearGradient>
<linearGradient id="paint30_linear" x1="187.222" y1="122.119" x2="45.602" y2="235.094" gradientUnits="userSpaceOnUse">
<stop stop-color="#C7C7C7"/>
<stop offset="1" stop-color="#5D5D5D"/>
</linearGradient>
<linearGradient id="paint31_linear" x1="188.177" y1="123.313" x2="46.5528" y2="236.292" gradientUnits="userSpaceOnUse">
<stop stop-color="#C7C7C7"/>
<stop offset="1" stop-color="#5D5D5D"/>
</linearGradient>
<linearGradient id="paint32_linear" x1="192.538" y1="128.782" x2="50.919" y2="241.757" gradientUnits="userSpaceOnUse">
<stop stop-color="#C7C7C7"/>
<stop offset="1" stop-color="#5D5D5D"/>
</linearGradient>
<linearGradient id="paint33_linear" x1="203.112" y1="142.036" x2="61.4874" y2="255.014" gradientUnits="userSpaceOnUse">
<stop stop-color="#C7C7C7"/>
<stop offset="1" stop-color="#5D5D5D"/>
</linearGradient>
<linearGradient id="paint34_linear" x1="204.027" y1="143.188" x2="62.406" y2="256.165" gradientUnits="userSpaceOnUse">
<stop stop-color="#C7C7C7"/>
<stop offset="1" stop-color="#5D5D5D"/>
</linearGradient>
<linearGradient id="paint35_linear" x1="204.951" y1="144.335" x2="63.3222" y2="257.317" gradientUnits="userSpaceOnUse">
<stop stop-color="#C7C7C7"/>
<stop offset="1" stop-color="#5D5D5D"/>
</linearGradient>
<linearGradient id="paint36_linear" x1="213.119" y1="154.582" x2="71.5005" y2="267.556" gradientUnits="userSpaceOnUse">
<stop stop-color="#C7C7C7"/>
<stop offset="1" stop-color="#5D5D5D"/>
</linearGradient>
<linearGradient id="paint37_linear" x1="215.085" y1="157.052" x2="73.4736" y2="270.02" gradientUnits="userSpaceOnUse">
<stop stop-color="#C7C7C7"/>
<stop offset="1" stop-color="#5D5D5D"/>
</linearGradient>
<linearGradient id="paint38_linear" x1="216.007" y1="158.199" x2="74.3787" y2="271.181" gradientUnits="userSpaceOnUse">
<stop stop-color="#C7C7C7"/>
<stop offset="1" stop-color="#5D5D5D"/>
</linearGradient>
<linearGradient id="paint39_linear" x1="216.925" y1="159.35" x2="75.2982" y2="272.331" gradientUnits="userSpaceOnUse">
<stop stop-color="#C7C7C7"/>
<stop offset="1" stop-color="#5D5D5D"/>
</linearGradient>
<linearGradient id="paint40_linear" x1="205.867" y1="145.488" x2="64.2421" y2="258.467" gradientUnits="userSpaceOnUse">
<stop stop-color="#C7C7C7"/>
<stop offset="1" stop-color="#5D5D5D"/>
</linearGradient>
<linearGradient id="paint41_linear" x1="208.852" y1="149.23" x2="67.2274" y2="262.209" gradientUnits="userSpaceOnUse">
<stop stop-color="#C7C7C7"/>
<stop offset="1" stop-color="#5D5D5D"/>
</linearGradient>
<linearGradient id="paint42_linear" x1="211.835" y1="152.97" x2="70.2099" y2="265.949" gradientUnits="userSpaceOnUse">
<stop stop-color="#C7C7C7"/>
<stop offset="1" stop-color="#5D5D5D"/>
</linearGradient>
<linearGradient id="paint43_linear" x1="212.753" y1="154.121" x2="71.1292" y2="267.1" gradientUnits="userSpaceOnUse">
<stop stop-color="#C7C7C7"/>
<stop offset="1" stop-color="#5D5D5D"/>
</linearGradient>
<linearGradient id="paint44_linear" x1="187.424" y1="122.369" x2="45.7994" y2="235.347" gradientUnits="userSpaceOnUse">
<stop stop-color="#C7C7C7"/>
<stop offset="1" stop-color="#5D5D5D"/>
</linearGradient>
<linearGradient id="paint45_linear" x1="186.27" y1="120.93" x2="44.6485" y2="233.907" gradientUnits="userSpaceOnUse">
<stop stop-color="#C7C7C7"/>
<stop offset="1" stop-color="#5D5D5D"/>
</linearGradient>
<linearGradient id="paint46_linear" x1="188.339" y1="123.522" x2="46.7182" y2="236.498" gradientUnits="userSpaceOnUse">
<stop stop-color="#C7C7C7"/>
<stop offset="1" stop-color="#5D5D5D"/>
</linearGradient>
<linearGradient id="paint47_linear" x1="189.257" y1="124.673" x2="47.6367" y2="237.649" gradientUnits="userSpaceOnUse">
<stop stop-color="#C7C7C7"/>
<stop offset="1" stop-color="#5D5D5D"/>
</linearGradient>
<linearGradient id="paint48_linear" x1="190.182" y1="125.819" x2="48.5511" y2="238.802" gradientUnits="userSpaceOnUse">
<stop stop-color="#C7C7C7"/>
<stop offset="1" stop-color="#5D5D5D"/>
</linearGradient>
<linearGradient id="paint49_linear" x1="191.096" y1="126.972" x2="49.4712" y2="239.951" gradientUnits="userSpaceOnUse">
<stop stop-color="#C7C7C7"/>
<stop offset="1" stop-color="#5D5D5D"/>
</linearGradient>
<linearGradient id="paint50_linear" x1="192.009" y1="128.127" x2="50.3919" y2="241.1" gradientUnits="userSpaceOnUse">
<stop stop-color="#C7C7C7"/>
<stop offset="1" stop-color="#5D5D5D"/>
</linearGradient>
<linearGradient id="paint51_linear" x1="192.931" y1="129.275" x2="51.3084" y2="242.252" gradientUnits="userSpaceOnUse">
<stop stop-color="#C7C7C7"/>
<stop offset="1" stop-color="#5D5D5D"/>
</linearGradient>
<linearGradient id="paint52_linear" x1="193.849" y1="130.425" x2="52.2247" y2="243.404" gradientUnits="userSpaceOnUse">
<stop stop-color="#C7C7C7"/>
<stop offset="1" stop-color="#5D5D5D"/>
</linearGradient>
<linearGradient id="paint53_linear" x1="194.769" y1="131.575" x2="53.142" y2="244.556" gradientUnits="userSpaceOnUse">
<stop stop-color="#C7C7C7"/>
<stop offset="1" stop-color="#5D5D5D"/>
</linearGradient>
<linearGradient id="paint54_linear" x1="195.688" y1="132.725" x2="54.0584" y2="245.708" gradientUnits="userSpaceOnUse">
<stop stop-color="#C7C7C7"/>
<stop offset="1" stop-color="#5D5D5D"/>
</linearGradient>
<linearGradient id="paint55_linear" x1="196.604" y1="133.876" x2="54.9788" y2="246.856" gradientUnits="userSpaceOnUse">
<stop stop-color="#C7C7C7"/>
<stop offset="1" stop-color="#5D5D5D"/>
</linearGradient>
<linearGradient id="paint56_linear" x1="197.522" y1="135.027" x2="55.8971" y2="248.007" gradientUnits="userSpaceOnUse">
<stop stop-color="#C7C7C7"/>
<stop offset="1" stop-color="#5D5D5D"/>
</linearGradient>
<linearGradient id="paint57_linear" x1="198.441" y1="136.178" x2="56.8133" y2="249.159" gradientUnits="userSpaceOnUse">
<stop stop-color="#C7C7C7"/>
<stop offset="1" stop-color="#5D5D5D"/>
</linearGradient>
<linearGradient id="paint58_linear" x1="193.306" y1="129.753" x2="51.687" y2="242.727" gradientUnits="userSpaceOnUse">
<stop stop-color="#C7C7C7"/>
<stop offset="1" stop-color="#5D5D5D"/>
</linearGradient>
<linearGradient id="paint59_linear" x1="192.053" y1="128.174" x2="50.4295" y2="241.152" gradientUnits="userSpaceOnUse">
<stop stop-color="#C7C7C7"/>
<stop offset="1" stop-color="#5D5D5D"/>
</linearGradient>
<linearGradient id="paint60_linear" x1="194.231" y1="130.898" x2="52.6029" y2="243.88" gradientUnits="userSpaceOnUse">
<stop stop-color="#C7C7C7"/>
<stop offset="1" stop-color="#5D5D5D"/>
</linearGradient>
<linearGradient id="paint61_linear" x1="195.144" y1="132.053" x2="53.523" y2="245.029" gradientUnits="userSpaceOnUse">
<stop stop-color="#C7C7C7"/>
<stop offset="1" stop-color="#5D5D5D"/>
</linearGradient>
<linearGradient id="paint62_linear" x1="196.064" y1="133.202" x2="54.4407" y2="246.18" gradientUnits="userSpaceOnUse">
<stop stop-color="#C7C7C7"/>
<stop offset="1" stop-color="#5D5D5D"/>
</linearGradient>
<linearGradient id="paint63_linear" x1="196.984" y1="134.351" x2="55.3566" y2="247.332" gradientUnits="userSpaceOnUse">
<stop stop-color="#C7C7C7"/>
<stop offset="1" stop-color="#5D5D5D"/>
</linearGradient>
<linearGradient id="paint64_linear" x1="197.901" y1="135.503" x2="56.2752" y2="248.482" gradientUnits="userSpaceOnUse">
<stop stop-color="#C7C7C7"/>
<stop offset="1" stop-color="#5D5D5D"/>
</linearGradient>
<linearGradient id="paint65_linear" x1="198.819" y1="136.654" x2="57.1938" y2="249.634" gradientUnits="userSpaceOnUse">
<stop stop-color="#C7C7C7"/>
<stop offset="1" stop-color="#5D5D5D"/>
</linearGradient>
<linearGradient id="paint66_linear" x1="199.736" y1="137.806" x2="58.115" y2="250.782" gradientUnits="userSpaceOnUse">
<stop stop-color="#C7C7C7"/>
<stop offset="1" stop-color="#5D5D5D"/>
</linearGradient>
<linearGradient id="paint67_linear" x1="200.655" y1="138.956" x2="59.0318" y2="251.934" gradientUnits="userSpaceOnUse">
<stop stop-color="#C7C7C7"/>
<stop offset="1" stop-color="#5D5D5D"/>
</linearGradient>
<linearGradient id="paint68_linear" x1="201.571" y1="140.109" x2="59.9535" y2="253.082" gradientUnits="userSpaceOnUse">
<stop stop-color="#C7C7C7"/>
<stop offset="1" stop-color="#5D5D5D"/>
</linearGradient>
<linearGradient id="paint69_linear" x1="202.491" y1="141.257" x2="60.8659" y2="254.236" gradientUnits="userSpaceOnUse">
<stop stop-color="#C7C7C7"/>
<stop offset="1" stop-color="#5D5D5D"/>
</linearGradient>
<linearGradient id="paint70_linear" x1="203.761" y1="142.847" x2="62.1344" y2="255.827" gradientUnits="userSpaceOnUse">
<stop stop-color="#C7C7C7"/>
<stop offset="1" stop-color="#5D5D5D"/>
</linearGradient>
<linearGradient id="paint71_linear" x1="199.45" y1="137.445" x2="57.8249" y2="250.424" gradientUnits="userSpaceOnUse">
<stop stop-color="#C7C7C7"/>
<stop offset="1" stop-color="#5D5D5D"/>
</linearGradient>
<linearGradient id="paint72_linear" x1="197.959" y1="135.575" x2="56.3339" y2="248.554" gradientUnits="userSpaceOnUse">
<stop stop-color="#C7C7C7"/>
<stop offset="1" stop-color="#5D5D5D"/>
</linearGradient>
<linearGradient id="paint73_linear" x1="200.368" y1="138.596" x2="58.7433" y2="251.575" gradientUnits="userSpaceOnUse">
<stop stop-color="#C7C7C7"/>
<stop offset="1" stop-color="#5D5D5D"/>
</linearGradient>
<linearGradient id="paint74_linear" x1="201.283" y1="139.749" x2="59.6635" y2="252.724" gradientUnits="userSpaceOnUse">
<stop stop-color="#C7C7C7"/>
<stop offset="1" stop-color="#5D5D5D"/>
</linearGradient>
<linearGradient id="paint75_linear" x1="202.201" y1="140.901" x2="60.5827" y2="253.875" gradientUnits="userSpaceOnUse">
<stop stop-color="#C7C7C7"/>
<stop offset="1" stop-color="#5D5D5D"/>
</linearGradient>
<linearGradient id="paint76_linear" x1="203.121" y1="142.049" x2="61.498" y2="255.027" gradientUnits="userSpaceOnUse">
<stop stop-color="#C7C7C7"/>
<stop offset="1" stop-color="#5D5D5D"/>
</linearGradient>
<linearGradient id="paint77_linear" x1="204.041" y1="143.2" x2="62.4169" y2="256.178" gradientUnits="userSpaceOnUse">
<stop stop-color="#C7C7C7"/>
<stop offset="1" stop-color="#5D5D5D"/>
</linearGradient>
<linearGradient id="paint78_linear" x1="204.957" y1="144.352" x2="63.3362" y2="257.328" gradientUnits="userSpaceOnUse">
<stop stop-color="#C7C7C7"/>
<stop offset="1" stop-color="#5D5D5D"/>
</linearGradient>
<linearGradient id="paint79_linear" x1="205.878" y1="145.499" x2="64.2482" y2="258.483" gradientUnits="userSpaceOnUse">
<stop stop-color="#C7C7C7"/>
<stop offset="1" stop-color="#5D5D5D"/>
</linearGradient>
<linearGradient id="paint80_linear" x1="206.795" y1="146.652" x2="65.169" y2="259.632" gradientUnits="userSpaceOnUse">
<stop stop-color="#C7C7C7"/>
<stop offset="1" stop-color="#5D5D5D"/>
</linearGradient>
<linearGradient id="paint81_linear" x1="207.713" y1="147.803" x2="66.0872" y2="260.783" gradientUnits="userSpaceOnUse">
<stop stop-color="#C7C7C7"/>
<stop offset="1" stop-color="#5D5D5D"/>
</linearGradient>
<linearGradient id="paint82_linear" x1="209.208" y1="149.675" x2="67.5803" y2="262.656" gradientUnits="userSpaceOnUse">
<stop stop-color="#C7C7C7"/>
<stop offset="1" stop-color="#5D5D5D"/>
</linearGradient>
<linearGradient id="paint83_linear" x1="207.98" y1="143.871" x2="152.409" y2="240.34" gradientUnits="userSpaceOnUse">
<stop stop-color="#DDDDDD"/>
<stop offset="1" stop-color="#9F9F9F"/>
</linearGradient>
<linearGradient id="paint84_linear" x1="47.2085" y1="117.029" x2="36.7462" y2="131.628" gradientUnits="userSpaceOnUse">
<stop stop-color="#DDDDDD"/>
<stop offset="1" stop-color="#BFBFBF"/>
</linearGradient>
<linearGradient id="paint85_linear" x1="144.466" y1="41.9713" x2="147.218" y2="78.7789" gradientUnits="userSpaceOnUse">
<stop stop-color="#FDD751"/>
<stop offset="1" stop-color="#FFAF3F"/>
</linearGradient>
<linearGradient id="paint86_linear" x1="143.083" y1="53.8596" x2="139.532" y2="60.9378" gradientUnits="userSpaceOnUse">
<stop stop-color="#FFEBB6"/>
<stop offset="1" stop-color="#FFA300"/>
</linearGradient>
<linearGradient id="paint87_linear" x1="79.0655" y1="92.366" x2="74.698" y2="84.6843" gradientUnits="userSpaceOnUse">
<stop stop-color="white"/>
<stop offset="1"/>
</linearGradient>
<linearGradient id="paint88_linear" x1="57.7766" y1="55.5696" x2="105.66" y2="133.867" gradientUnits="userSpaceOnUse">
<stop stop-color="#B6C5D4"/>
<stop offset="1" stop-color="#747474"/>
</linearGradient>
<linearGradient id="paint89_linear" x1="164.67" y1="120.583" x2="214.696" y2="242.281" gradientUnits="userSpaceOnUse">
<stop stop-color="white"/>
<stop offset="1" stop-color="#D4EDFF"/>
</linearGradient>
<linearGradient id="paint90_linear" x1="200.768" y1="201.534" x2="221.32" y2="235.14" gradientUnits="userSpaceOnUse">
<stop stop-color="white"/>
<stop offset="1" stop-color="#BBBBBB"/>
</linearGradient>
<linearGradient id="paint91_linear" x1="85.7785" y1="90.8806" x2="120.289" y2="138.053" gradientUnits="userSpaceOnUse">
<stop stop-color="#DCEBFA"/>
<stop offset="1" stop-color="#CACACA"/>
</linearGradient>
<linearGradient id="paint92_linear" x1="40.305" y1="156" x2="43.0572" y2="192.808" gradientUnits="userSpaceOnUse">
<stop stop-color="#009401"/>
<stop offset="1" stop-color="#29FFEE"/>
</linearGradient>
<linearGradient id="paint93_linear" x1="38.9212" y1="167.889" x2="35.3705" y2="174.967" gradientUnits="userSpaceOnUse">
<stop stop-color="#507F00"/>
<stop offset="1" stop-color="#98FFFE"/>
</linearGradient>
</defs>
</svg>
