<svg width="300" height="300" viewBox="0 0 300 300" fill="none" xmlns="http://www.w3.org/2000/svg">
<path d="M279.301 106.191C279.301 107.495 280.208 109.082 281.342 109.706C282.476 110.33 283.383 109.819 283.383 108.515C283.383 107.211 282.476 105.624 281.342 105C280.208 104.376 279.301 104.887 279.301 106.191Z" fill="white"/>
<path d="M271.647 101.768C271.647 103.072 272.555 104.66 273.689 105.283C274.823 105.907 275.73 105.397 275.73 104.093C275.73 102.789 274.823 101.201 273.689 100.578C272.555 99.9539 271.647 100.464 271.647 101.768Z" fill="white"/>
<path d="M264.05 97.4027C264.05 98.7068 264.957 100.294 266.091 100.918C267.225 101.542 268.132 101.031 268.132 99.7273C268.132 98.4233 267.225 96.8358 266.091 96.2121C264.957 95.5884 264.05 96.0987 264.05 97.4027Z" fill="white"/>
<path d="M162.108 138.168C159.671 136.75 155.758 136.75 153.32 138.168L23.484 213.121C21.046 214.539 21.046 216.807 23.484 218.167L109.55 267.834C111.988 269.252 115.9 269.252 118.338 267.834L248.175 192.881C250.613 191.463 250.613 189.195 248.175 187.835L162.108 138.168Z" fill="url(#paint0_linear)"/>
<path d="M21.7266 215.673V220.662C21.7266 221.626 22.2935 222.533 23.5409 223.27L109.607 272.937C112.045 274.354 115.957 274.354 118.395 272.937L248.232 197.983C249.422 197.303 250.046 196.396 250.046 195.432V190.443V190.386C250.046 191.293 249.422 192.2 248.232 192.881L118.395 267.834C115.957 269.252 112.045 269.252 109.607 267.834L23.5409 218.168C22.2935 217.487 21.7266 216.58 21.7266 215.673Z" fill="url(#paint1_linear)"/>
<path d="M158.083 31.067C158.083 28.2889 156.099 27.1549 153.717 28.5157L23.8809 103.469C21.4429 104.887 19.4585 108.289 19.4585 111.067V210.4C19.4585 213.178 21.4429 214.312 23.8809 212.951L153.717 137.998C156.155 136.58 158.083 133.179 158.083 130.4V31.067Z" fill="url(#paint2_linear)"/>
<path d="M27.396 203.823C26.4322 204.39 25.6384 203.936 25.6384 202.803V111.577C25.6384 110.443 26.4322 109.082 27.396 108.515L150.202 37.6437C151.166 37.0768 151.96 37.5304 151.96 38.6643V129.89C151.96 131.024 151.166 132.385 150.202 132.952L27.396 203.823Z" fill="url(#paint3_linear)"/>
<path d="M204.915 172.243C205.425 172.526 205.425 172.98 204.915 173.263L84.4903 242.774C83.98 243.058 83.1863 243.058 82.7327 242.774L34.5968 215.219C34.0865 214.936 34.0865 214.482 34.5968 214.199L155.022 144.631C155.532 144.348 156.326 144.348 156.779 144.631L204.915 172.243Z" fill="url(#paint4_linear)"/>
<path d="M56.7086 217.204C57.2188 217.487 57.2188 217.941 56.7086 218.224L51.379 221.286C50.8688 221.57 50.1317 221.57 49.6214 221.286L44.2919 218.168C43.7816 217.884 43.7816 217.431 44.2919 217.147L49.6214 214.029C50.1317 213.745 50.8688 213.745 51.379 214.029L56.7086 217.204Z" fill="url(#paint5_linear)"/>
<path d="M64.9298 212.441C65.44 212.725 65.44 213.178 64.9298 213.462L59.6002 216.523C59.0899 216.807 58.3529 216.807 57.8426 216.523L52.5131 213.462C52.0028 213.178 52.0028 212.725 52.5131 212.441L57.8426 209.38C58.3529 209.096 59.0899 209.096 59.6002 209.38L64.9298 212.441Z" fill="url(#paint6_linear)"/>
<path d="M73.0938 207.735C73.6041 208.019 73.6041 208.473 73.0938 208.756L67.7643 211.818C67.254 212.101 66.5169 212.101 66.0067 211.818L60.6771 208.756C60.1669 208.473 60.1669 208.019 60.6771 207.735L66.0067 204.674C66.5169 204.39 67.254 204.39 67.7643 204.674L73.0938 207.735Z" fill="url(#paint7_linear)"/>
<path d="M81.3152 203.029C81.8255 203.313 81.8255 203.766 81.3152 204.05L75.9857 207.112C75.4754 207.395 74.7384 207.395 74.2281 207.112L68.8986 204.05C68.3883 203.766 68.3883 203.313 68.8986 203.029L74.2281 199.968C74.7384 199.684 75.4754 199.684 75.9857 199.968L81.3152 203.029Z" fill="url(#paint8_linear)"/>
<path d="M89.4796 198.267C89.9898 198.55 89.9898 199.004 89.4796 199.287L84.15 202.349C83.6397 202.633 82.9027 202.633 82.3924 202.349L77.0629 199.287C76.5526 199.004 76.5526 198.55 77.0629 198.267L82.3924 195.205C82.9027 194.922 83.6397 194.922 84.15 195.205L89.4796 198.267Z" fill="url(#paint9_linear)"/>
<path d="M97.6441 193.561C98.1544 193.845 98.1544 194.298 97.6441 194.582L92.3146 197.643C91.8043 197.927 91.0672 197.927 90.557 197.643L85.2274 194.582C84.7172 194.298 84.7172 193.845 85.2274 193.561L90.557 190.499C91.0672 190.216 91.8043 190.216 92.3146 190.499L97.6441 193.561Z" fill="url(#paint10_linear)"/>
<path d="M105.865 188.799C106.375 189.082 106.375 189.536 105.865 189.819L100.535 192.881C100.025 193.164 99.2879 193.164 98.7777 192.881L93.4481 189.819C92.9379 189.536 92.9379 189.082 93.4481 188.799L98.7777 185.737C99.2879 185.454 100.025 185.454 100.535 185.737L105.865 188.799Z" fill="url(#paint11_linear)"/>
<path d="M114.029 184.093C114.54 184.376 114.54 184.83 114.029 185.113L108.7 188.175C108.19 188.458 107.452 188.458 106.942 188.175L101.613 185.113C101.102 184.83 101.102 184.376 101.613 184.093L106.942 181.031C107.452 180.747 108.19 180.747 108.7 181.031L114.029 184.093Z" fill="url(#paint12_linear)"/>
<path d="M122.251 179.387C122.761 179.67 122.761 180.124 122.251 180.407L116.921 183.526C116.411 183.809 115.674 183.809 115.163 183.526L109.834 180.407C109.324 180.124 109.324 179.67 109.834 179.387L115.163 176.325C115.674 176.042 116.411 176.042 116.921 176.325L122.251 179.387Z" fill="url(#paint13_linear)"/>
<path d="M130.415 174.624C130.925 174.908 130.925 175.361 130.415 175.645L125.086 178.763C124.575 179.047 123.838 179.047 123.328 178.763L117.998 175.645C117.488 175.361 117.488 174.908 117.998 174.624L123.328 171.563C123.838 171.279 124.575 171.279 125.086 171.563L130.415 174.624Z" fill="url(#paint14_linear)"/>
<path d="M138.636 169.919C139.146 170.202 139.146 170.656 138.636 170.939L133.306 174.057C132.796 174.341 132.059 174.341 131.549 174.057L126.219 170.939C125.709 170.656 125.709 170.202 126.219 169.919L131.549 166.857C132.059 166.573 132.796 166.573 133.306 166.857L138.636 169.919Z" fill="url(#paint15_linear)"/>
<path d="M146.8 165.156C147.311 165.439 147.311 165.893 146.8 166.176L141.471 169.238C140.961 169.522 140.167 169.522 139.713 169.238L134.384 166.176C133.873 165.893 133.873 165.439 134.384 165.156L139.713 162.094C140.167 161.811 140.961 161.811 141.471 162.094L146.8 165.156Z" fill="url(#paint16_linear)"/>
<path d="M154.964 160.45C155.475 160.734 155.475 161.187 154.964 161.471L149.635 164.532C149.125 164.816 148.388 164.816 147.877 164.532L142.548 161.471C142.037 161.187 142.037 160.734 142.548 160.45L147.877 157.388C148.388 157.105 149.125 157.105 149.635 157.388L154.964 160.45Z" fill="url(#paint17_linear)"/>
<path d="M48.8844 212.385C49.3946 212.668 49.3946 213.122 48.8844 213.405L43.2714 216.637C42.7611 216.92 42.024 216.92 41.5137 216.637L39.1325 215.276C38.6222 214.993 38.6222 214.539 39.1325 214.256L44.7455 211.024C45.2558 210.74 45.9928 210.74 46.5031 211.024L48.8844 212.385Z" fill="url(#paint18_linear)"/>
<path d="M57.389 207.452C57.8993 207.735 57.8993 208.189 57.389 208.473L51.776 211.704C51.2657 211.988 50.5287 211.988 50.0184 211.704L47.6371 210.344C47.1268 210.06 47.1268 209.607 47.6371 209.323L53.2501 206.091C53.7604 205.808 54.4975 205.808 55.0077 206.091L57.389 207.452Z" fill="url(#paint19_linear)"/>
<path d="M65.8368 202.576C66.347 202.86 66.347 203.313 65.8368 203.597L60.2237 206.828C59.7135 207.112 58.9764 207.112 58.4661 206.828L56.0849 205.468C55.5746 205.184 55.5746 204.731 56.0849 204.447L61.6979 201.215C62.2081 200.932 62.9452 200.932 63.4555 201.215L65.8368 202.576Z" fill="url(#paint20_linear)"/>
<path d="M74.3411 197.643C74.8514 197.927 74.8514 198.38 74.3411 198.664L68.7281 201.895C68.2179 202.179 67.4808 202.179 66.9705 201.895L64.5892 200.535C64.079 200.251 64.079 199.798 64.5892 199.514L70.2023 196.282C70.7125 195.999 71.4496 195.999 71.9599 196.282L74.3411 197.643Z" fill="url(#paint21_linear)"/>
<path d="M82.8458 192.767C83.3561 193.051 83.3561 193.505 82.8458 193.788L77.2328 197.02C76.7225 197.303 75.9854 197.303 75.4752 197.02L73.0939 195.659C72.5836 195.376 72.5836 194.922 73.0939 194.638L78.7069 191.407C79.2172 191.123 79.9542 191.123 80.4645 191.407L82.8458 192.767Z" fill="url(#paint22_linear)"/>
<path d="M91.2938 187.891C91.8041 188.175 91.8041 188.629 91.2938 188.912L85.6808 192.144C85.1705 192.427 84.4334 192.427 83.9232 192.144L81.5419 190.783C81.0316 190.5 81.0316 190.046 81.5419 189.762L87.1549 186.531C87.6652 186.247 88.4022 186.247 88.9125 186.531L91.2938 187.891Z" fill="url(#paint23_linear)"/>
<path d="M99.7987 182.959C100.309 183.242 100.309 183.696 99.7987 183.979L94.1857 187.211C93.6754 187.495 92.9383 187.495 92.4281 187.211L90.0468 185.85C89.5365 185.567 89.5365 185.113 90.0468 184.83L95.6598 181.598C96.1701 181.315 96.9071 181.315 97.4174 181.598L99.7987 182.959Z" fill="url(#paint24_linear)"/>
<path d="M108.246 178.083C108.757 178.366 108.757 178.82 108.246 179.103L102.633 182.335C102.123 182.619 101.386 182.619 100.876 182.335L98.4945 180.974C97.9842 180.691 97.9842 180.237 98.4945 179.954L104.108 176.722C104.618 176.439 105.355 176.439 105.865 176.722L108.246 178.083Z" fill="url(#paint25_linear)"/>
<path d="M116.751 173.207C117.261 173.49 117.261 173.944 116.751 174.227L111.138 177.459C110.628 177.743 109.89 177.743 109.38 177.459L106.999 176.098C106.489 175.815 106.489 175.361 106.999 175.078L112.612 171.846C113.122 171.563 113.859 171.563 114.37 171.846L116.751 173.207Z" fill="url(#paint26_linear)"/>
<path d="M125.256 168.274C125.766 168.558 125.766 169.011 125.256 169.295L119.643 172.527C119.132 172.81 118.395 172.81 117.885 172.527L115.504 171.166C114.994 170.882 114.994 170.429 115.504 170.145L121.117 166.914C121.627 166.63 122.364 166.63 122.874 166.914L125.256 168.274Z" fill="url(#paint27_linear)"/>
<path d="M133.703 163.398C134.214 163.682 134.214 164.135 133.703 164.419L128.09 167.65C127.58 167.934 126.843 167.934 126.333 167.65L123.952 166.29C123.441 166.006 123.441 165.553 123.952 165.269L129.565 162.037C130.075 161.754 130.812 161.754 131.322 162.037L133.703 163.398Z" fill="url(#paint28_linear)"/>
<path d="M142.208 158.466C142.718 158.749 142.718 159.203 142.208 159.486L136.595 162.718C136.085 163.001 135.348 163.001 134.837 162.718L132.456 161.357C131.946 161.074 131.946 160.62 132.456 160.337L138.069 157.105C138.579 156.821 139.316 156.821 139.827 157.105L142.208 158.466Z" fill="url(#paint29_linear)"/>
<path d="M150.713 153.59C151.223 153.873 151.223 154.327 150.713 154.61L145.1 157.842C144.589 158.125 143.852 158.125 143.342 157.842L140.961 156.481C140.451 156.198 140.451 155.744 140.961 155.461L146.574 152.229C147.084 151.945 147.821 151.945 148.331 152.229L150.713 153.59Z" fill="url(#paint30_linear)"/>
<path d="M159.217 148.657C159.727 148.941 159.727 149.394 159.217 149.678L153.604 152.909C153.094 153.193 152.357 153.193 151.847 152.909L149.465 151.549C148.955 151.265 148.955 150.812 149.465 150.528L155.078 147.296C155.589 147.013 156.326 147.013 156.836 147.296L159.217 148.657Z" fill="url(#paint31_linear)"/>
<path d="M167.268 153.363C167.778 153.646 167.778 154.1 167.268 154.383L157.799 159.826C157.289 160.11 156.552 160.11 156.042 159.826L150.712 156.765C150.202 156.481 150.202 156.028 150.712 155.744L160.181 150.301C160.691 150.018 161.428 150.018 161.938 150.301L167.268 153.363Z" fill="url(#paint32_linear)"/>
<path d="M89.5362 236.141C90.0465 236.424 90.0465 236.878 89.5362 237.161L84.2067 240.223C83.6964 240.506 82.9593 240.506 82.449 240.223L77.1195 237.161C76.6092 236.878 76.6092 236.424 77.1195 236.141L82.449 233.079C82.9593 232.796 83.6964 232.796 84.2067 233.079L89.5362 236.141Z" fill="url(#paint33_linear)"/>
<path d="M97.7574 231.435C98.2677 231.718 98.2677 232.172 97.7574 232.455L92.4279 235.517C91.9176 235.801 91.1805 235.801 90.6702 235.517L85.3407 232.455C84.8304 232.172 84.8304 231.718 85.3407 231.435L90.6702 228.373C91.1805 228.09 91.9176 228.09 92.4279 228.373L97.7574 231.435Z" fill="url(#paint34_linear)"/>
<path d="M105.921 226.672C106.432 226.956 106.432 227.409 105.921 227.693L100.592 230.754C100.082 231.038 99.3446 231.038 98.8343 230.754L93.5048 227.693C92.9945 227.409 92.9945 226.956 93.5048 226.672L98.8343 223.611C99.3446 223.327 100.082 223.327 100.592 223.611L105.921 226.672Z" fill="url(#paint35_linear)"/>
<path d="M187.736 174.624C188.246 174.908 188.246 175.361 187.736 175.645L182.406 178.706C181.896 178.99 181.159 178.99 180.649 178.706L179.401 177.969C178.891 177.686 178.891 177.232 179.401 176.949L184.731 173.887C185.241 173.604 185.978 173.604 186.488 173.887L187.736 174.624Z" fill="url(#paint36_linear)"/>
<path d="M183.767 181.768C184.277 182.052 184.277 182.505 183.767 182.789L178.437 185.85C177.927 186.134 177.19 186.134 176.68 185.85L175.433 185.113C174.922 184.83 174.922 184.376 175.433 184.093L180.762 181.031C181.272 180.747 182.009 180.747 182.52 181.031L183.767 181.768Z" fill="url(#paint37_linear)"/>
<path d="M191.931 177.062C192.441 177.346 192.441 177.799 191.931 178.083L186.602 181.144C186.091 181.428 185.354 181.428 184.844 181.144L183.597 180.407C183.086 180.124 183.086 179.67 183.597 179.387L188.926 176.325C189.38 176.042 190.173 176.042 190.684 176.325L191.931 177.062Z" fill="url(#paint38_linear)"/>
<path d="M200.096 172.3C200.606 172.583 200.606 173.037 200.096 173.32L194.766 176.382C194.256 176.665 193.519 176.665 193.008 176.382L191.761 175.645C191.251 175.361 191.251 174.908 191.761 174.624L197.091 171.563C197.601 171.279 198.338 171.279 198.848 171.563L200.096 172.3Z" fill="url(#paint39_linear)"/>
<path d="M114.143 221.966C114.653 222.25 114.653 222.703 114.143 222.987L108.813 226.049C108.303 226.332 107.566 226.332 107.055 226.049L101.726 222.987C101.216 222.703 101.216 222.25 101.726 221.966L107.055 218.905C107.566 218.621 108.303 218.621 108.813 218.905L114.143 221.966Z" fill="url(#paint40_linear)"/>
<path d="M159.217 195.942C159.727 196.226 159.727 196.679 159.217 196.963L116.978 221.343C116.467 221.626 115.73 221.626 115.22 221.343L109.891 218.281C109.38 217.997 109.38 217.544 109.891 217.26L152.13 192.881C152.64 192.597 153.377 192.597 153.887 192.881L159.217 195.942Z" fill="url(#paint41_linear)"/>
<path d="M167.381 191.237C167.891 191.52 167.891 191.974 167.381 192.257L162.051 195.319C161.541 195.602 160.804 195.602 160.294 195.319L154.964 192.257C154.454 191.974 154.454 191.52 154.964 191.237L160.294 188.175C160.804 187.892 161.541 187.892 162.051 188.175L167.381 191.237Z" fill="url(#paint42_linear)"/>
<path d="M175.546 186.474C176.056 186.757 176.056 187.211 175.546 187.495L170.216 190.556C169.706 190.84 168.969 190.84 168.459 190.556L163.129 187.495C162.619 187.211 162.619 186.757 163.129 186.474L168.459 183.412C168.969 183.129 169.706 183.129 170.216 183.412L175.546 186.474Z" fill="url(#paint43_linear)"/>
<path d="M77.233 214.822C77.7432 215.106 77.7432 215.559 77.233 215.843L71.9034 218.905C71.3932 219.188 70.6561 219.188 70.1458 218.905L64.8163 215.843C64.306 215.559 64.306 215.106 64.8163 214.822L70.1458 211.761C70.6561 211.477 71.3932 211.477 71.9034 211.761L77.233 214.822Z" fill="url(#paint44_linear)"/>
<path d="M69.0118 219.528C69.522 219.812 69.522 220.265 69.0118 220.549L59.5433 225.992C59.0331 226.275 58.296 226.275 57.7857 225.992L52.4562 222.93C51.9459 222.647 51.9459 222.193 52.4562 221.91L61.9246 216.467C62.4349 216.183 63.172 216.183 63.6822 216.467L69.0118 219.528Z" fill="url(#paint45_linear)"/>
<path d="M85.3973 210.06C85.9075 210.343 85.9075 210.797 85.3973 211.08L80.0677 214.142C79.5575 214.426 78.8204 214.426 78.3101 214.142L72.9806 211.08C72.4703 210.797 72.4703 210.343 72.9806 210.06L78.3101 206.998C78.8204 206.715 79.5575 206.715 80.0677 206.998L85.3973 210.06Z" fill="url(#paint46_linear)"/>
<path d="M93.6182 205.354C94.1285 205.638 94.1285 206.091 93.6182 206.375L88.2887 209.436C87.7784 209.72 87.0414 209.72 86.5311 209.436L81.2016 206.375C80.6913 206.091 80.6913 205.638 81.2016 205.354L86.5311 202.236C87.0414 201.952 87.7784 201.952 88.2887 202.236L93.6182 205.354Z" fill="url(#paint47_linear)"/>
<path d="M101.783 200.648C102.293 200.932 102.293 201.385 101.783 201.669L96.4532 204.73C95.943 205.014 95.2059 205.014 94.6956 204.73L89.3661 201.669C88.8558 201.385 88.8558 200.932 89.3661 200.648L94.6956 197.587C95.2059 197.303 95.943 197.303 96.4532 197.587L101.783 200.648Z" fill="url(#paint48_linear)"/>
<path d="M109.947 195.886C110.457 196.169 110.457 196.623 109.947 196.906L104.617 199.968C104.107 200.251 103.37 200.251 102.86 199.968L97.5302 196.906C97.0199 196.623 97.0199 196.169 97.5302 195.886L102.86 192.767C103.37 192.484 104.107 192.484 104.617 192.767L109.947 195.886Z" fill="url(#paint49_linear)"/>
<path d="M118.169 191.18C118.679 191.463 118.679 191.917 118.169 192.2L112.839 195.262C112.329 195.545 111.592 195.545 111.081 195.262L105.752 192.2C105.242 191.917 105.242 191.463 105.752 191.18L111.081 188.118C111.592 187.835 112.329 187.835 112.839 188.118L118.169 191.18Z" fill="url(#paint50_linear)"/>
<path d="M126.333 186.417C126.843 186.701 126.843 187.154 126.333 187.438L121.003 190.5C120.493 190.783 119.756 190.783 119.245 190.5L113.916 187.438C113.406 187.154 113.406 186.701 113.916 186.417L119.245 183.356C119.756 183.072 120.493 183.072 121.003 183.356L126.333 186.417Z" fill="url(#paint51_linear)"/>
<path d="M134.554 181.712C135.064 181.995 135.064 182.449 134.554 182.732L129.224 185.794C128.714 186.077 127.977 186.077 127.467 185.794L122.137 182.732C121.627 182.449 121.627 181.995 122.137 181.712L127.467 178.65C127.977 178.366 128.714 178.366 129.224 178.65L134.554 181.712Z" fill="url(#paint52_linear)"/>
<path d="M142.718 177.005C143.228 177.289 143.228 177.743 142.718 178.026L137.388 181.088C136.878 181.371 136.141 181.371 135.631 181.088L130.301 178.026C129.791 177.743 129.791 177.289 130.301 177.005L135.631 173.944C136.141 173.66 136.878 173.66 137.388 173.944L142.718 177.005Z" fill="url(#paint53_linear)"/>
<path d="M150.939 172.243C151.449 172.527 151.449 172.98 150.939 173.264L145.609 176.325C145.099 176.609 144.362 176.609 143.852 176.325L138.522 173.264C138.012 172.98 138.012 172.527 138.522 172.243L143.852 169.181C144.362 168.898 145.099 168.898 145.609 169.181L150.939 172.243Z" fill="url(#paint54_linear)"/>
<path d="M159.104 167.537C159.614 167.821 159.614 168.274 159.104 168.558L153.775 171.619C153.264 171.903 152.527 171.903 152.017 171.619L146.687 168.558C146.177 168.274 146.177 167.821 146.687 167.537L152.017 164.476C152.527 164.192 153.264 164.192 153.775 164.476L159.104 167.537Z" fill="url(#paint55_linear)"/>
<path d="M167.268 162.831C167.778 163.115 167.778 163.568 167.268 163.852L161.939 166.914C161.428 167.197 160.691 167.197 160.181 166.914L154.851 163.852C154.341 163.568 154.341 163.115 154.851 162.831L160.181 159.77C160.691 159.486 161.428 159.486 161.939 159.77L167.268 162.831Z" fill="url(#paint56_linear)"/>
<path d="M175.489 158.069C175.999 158.352 175.999 158.806 175.489 159.089L170.159 162.151C169.649 162.434 168.912 162.434 168.402 162.151L163.072 159.089C162.562 158.806 162.562 158.352 163.072 158.069L168.402 155.007C168.912 154.724 169.649 154.724 170.159 155.007L175.489 158.069Z" fill="url(#paint57_linear)"/>
<path d="M87.325 218.451C87.8353 218.735 87.8353 219.188 87.325 219.472L81.9955 222.59C81.4852 222.874 80.7482 222.874 80.2379 222.59L74.9083 219.472C74.3981 219.188 74.3981 218.735 74.9083 218.451L80.2379 215.39C80.7482 215.106 81.4852 215.106 81.9955 215.39L87.325 218.451Z" fill="url(#paint58_linear)"/>
<path d="M79.1604 223.157C79.6707 223.441 79.6707 223.894 79.1604 224.178L67.7643 230.754C67.254 231.038 66.5169 231.038 66.0067 230.754L60.6771 227.693C60.1669 227.409 60.1669 226.956 60.6771 226.672L72.0733 220.095C72.5835 219.812 73.3206 219.812 73.8309 220.095L79.1604 223.157Z" fill="url(#paint59_linear)"/>
<path d="M95.5465 213.689C96.0567 213.972 96.0567 214.426 95.5465 214.709L90.2169 217.771C89.7066 218.054 88.9696 218.054 88.4593 217.771L83.1298 214.709C82.6195 214.426 82.6195 213.972 83.1298 213.689L88.4593 210.627C88.9696 210.343 89.7066 210.343 90.2169 210.627L95.5465 213.689Z" fill="url(#paint60_linear)"/>
<path d="M103.711 208.983C104.221 209.266 104.221 209.72 103.711 210.003L98.381 213.065C97.8707 213.348 97.1336 213.348 96.6234 213.065L91.2938 210.003C90.7836 209.72 90.7836 209.266 91.2938 208.983L96.6234 205.864C97.1336 205.581 97.8707 205.581 98.381 205.864L103.711 208.983Z" fill="url(#paint61_linear)"/>
<path d="M111.875 204.22C112.385 204.504 112.385 204.957 111.875 205.241L106.546 208.302C106.035 208.586 105.298 208.586 104.788 208.302L99.4584 205.241C98.9481 204.957 98.9481 204.504 99.4584 204.22L104.788 201.159C105.298 200.875 106.035 200.875 106.546 201.159L111.875 204.22Z" fill="url(#paint62_linear)"/>
<path d="M120.096 199.514C120.606 199.798 120.606 200.251 120.096 200.535L114.766 203.596C114.256 203.88 113.519 203.88 113.009 203.596L107.679 200.535C107.169 200.251 107.169 199.798 107.679 199.514L113.009 196.453C113.519 196.169 114.256 196.169 114.766 196.453L120.096 199.514Z" fill="url(#paint63_linear)"/>
<path d="M128.26 194.808C128.771 195.092 128.771 195.545 128.26 195.829L122.931 198.891C122.421 199.174 121.683 199.174 121.173 198.891L115.844 195.829C115.333 195.545 115.333 195.092 115.844 194.808L121.173 191.747C121.683 191.463 122.421 191.463 122.931 191.747L128.26 194.808Z" fill="url(#paint64_linear)"/>
<path d="M136.482 190.046C136.992 190.329 136.992 190.783 136.482 191.067L131.152 194.128C130.642 194.412 129.905 194.412 129.394 194.128L124.065 191.067C123.555 190.783 123.555 190.329 124.065 190.046L129.394 186.984C129.905 186.701 130.642 186.701 131.152 186.984L136.482 190.046Z" fill="url(#paint65_linear)"/>
<path d="M144.646 185.34C145.156 185.624 145.156 186.077 144.646 186.361L139.316 189.422C138.806 189.706 138.069 189.706 137.558 189.422L132.229 186.361C131.719 186.077 131.719 185.624 132.229 185.34L137.558 182.279C138.069 181.995 138.806 181.995 139.316 182.279L144.646 185.34Z" fill="url(#paint66_linear)"/>
<path d="M152.81 180.577C153.32 180.861 153.32 181.315 152.81 181.598L147.481 184.66C146.97 184.943 146.233 184.943 145.723 184.66L140.393 181.598C139.883 181.315 139.883 180.861 140.393 180.577L145.723 177.516C146.233 177.232 146.97 177.232 147.481 177.516L152.81 180.577Z" fill="url(#paint67_linear)"/>
<path d="M161.031 175.872C161.542 176.155 161.542 176.609 161.031 176.892L155.702 179.954C155.192 180.237 154.454 180.237 153.944 179.954L148.615 176.892C148.104 176.609 148.104 176.155 148.615 175.872L153.944 172.81C154.454 172.527 155.192 172.527 155.702 172.81L161.031 175.872Z" fill="url(#paint68_linear)"/>
<path d="M169.196 171.166C169.706 171.449 169.706 171.903 169.196 172.186L163.866 175.248C163.356 175.532 162.619 175.532 162.109 175.248L156.779 172.13C156.269 171.846 156.269 171.393 156.779 171.109L162.109 168.048C162.619 167.764 163.356 167.764 163.866 168.048L169.196 171.166Z" fill="url(#paint69_linear)"/>
<path d="M183.653 162.831C184.164 163.115 184.164 163.568 183.653 163.852L172.03 170.542C171.52 170.825 170.783 170.825 170.273 170.542L164.943 167.424C164.433 167.14 164.433 166.687 164.943 166.403L176.566 159.713C177.076 159.429 177.814 159.429 178.324 159.713L183.653 162.831Z" fill="url(#paint70_linear)"/>
<path d="M99.6851 220.719C100.195 221.003 100.195 221.456 99.6851 221.74L94.3556 224.801C93.8453 225.085 93.1082 225.085 92.598 224.801L87.2684 221.74C86.7582 221.456 86.7582 221.003 87.2684 220.719L92.598 217.657C93.1082 217.374 93.8453 217.374 94.3556 217.657L99.6851 220.719Z" fill="url(#paint71_linear)"/>
<path d="M91.4638 225.482C91.9741 225.765 91.9741 226.219 91.4638 226.502L75.9288 235.46C75.4186 235.744 74.6815 235.744 74.1712 235.46L68.8417 232.399C68.3314 232.115 68.3314 231.662 68.8417 231.378L84.3767 222.42C84.887 222.136 85.624 222.136 86.1343 222.42L91.4638 225.482Z" fill="url(#paint72_linear)"/>
<path d="M107.906 216.013C108.416 216.297 108.416 216.75 107.906 217.034L102.576 220.096C102.066 220.379 101.329 220.379 100.819 220.096L95.4892 217.034C94.9789 216.75 94.9789 216.297 95.4892 216.013L100.819 212.895C101.329 212.612 102.066 212.612 102.576 212.895L107.906 216.013Z" fill="url(#paint73_linear)"/>
<path d="M116.07 211.307C116.581 211.591 116.581 212.044 116.07 212.328L110.741 215.389C110.231 215.673 109.494 215.673 108.983 215.389L103.654 212.328C103.143 212.044 103.143 211.591 103.654 211.307L108.983 208.246C109.494 207.962 110.231 207.962 110.741 208.246L116.07 211.307Z" fill="url(#paint74_linear)"/>
<path d="M124.235 206.545C124.688 206.828 124.688 207.282 124.235 207.565L118.905 210.627C118.395 210.91 117.658 210.91 117.148 210.627L111.818 207.565C111.308 207.282 111.308 206.828 111.818 206.545L117.148 203.483C117.658 203.2 118.395 203.2 118.905 203.483L124.235 206.545Z" fill="url(#paint75_linear)"/>
<path d="M132.456 201.839C132.966 202.122 132.966 202.576 132.456 202.859L127.127 205.921C126.616 206.204 125.879 206.204 125.369 205.921L120.039 202.859C119.529 202.576 119.529 202.122 120.039 201.839L125.369 198.72C125.879 198.437 126.616 198.437 127.127 198.72L132.456 201.839Z" fill="url(#paint76_linear)"/>
<path d="M140.62 197.133C141.13 197.417 141.13 197.87 140.62 198.154L135.291 201.215C134.78 201.499 134.043 201.499 133.533 201.215L128.204 198.154C127.693 197.87 127.693 197.417 128.204 197.133L133.533 194.072C134.043 193.788 134.78 193.788 135.291 194.072L140.62 197.133Z" fill="url(#paint77_linear)"/>
<path d="M148.841 192.37C149.352 192.654 149.352 193.108 148.841 193.391L143.512 196.453C143.002 196.736 142.265 196.736 141.754 196.453L136.425 193.391C135.914 193.108 135.914 192.654 136.425 192.37L141.754 189.309C142.265 189.025 143.002 189.025 143.512 189.309L148.841 192.37Z" fill="url(#paint78_linear)"/>
<path d="M157.006 187.665C157.516 187.948 157.516 188.402 157.006 188.685L151.676 191.747C151.166 192.03 150.429 192.03 149.919 191.747L144.589 188.685C144.079 188.402 144.079 187.948 144.589 187.665L149.919 184.603C150.429 184.32 151.166 184.32 151.676 184.603L157.006 187.665Z" fill="url(#paint79_linear)"/>
<path d="M165.227 182.902C165.737 183.185 165.737 183.639 165.227 183.922L159.898 186.984C159.387 187.268 158.65 187.268 158.14 186.984L152.81 183.922C152.3 183.639 152.3 183.185 152.81 182.902L158.14 179.84C158.65 179.557 159.387 179.557 159.898 179.84L165.227 182.902Z" fill="url(#paint80_linear)"/>
<path d="M173.391 178.196C173.901 178.48 173.901 178.933 173.391 179.217L168.062 182.335C167.551 182.619 166.814 182.619 166.304 182.335L160.974 179.217C160.521 178.933 160.521 178.48 160.974 178.196L166.304 175.135C166.814 174.851 167.608 174.851 168.062 175.135L173.391 178.196Z" fill="url(#paint81_linear)"/>
<path d="M191.875 167.537C192.385 167.821 192.385 168.274 191.875 168.558L176.226 177.573C175.716 177.856 174.979 177.856 174.469 177.573L169.139 174.511C168.629 174.227 168.629 173.774 169.139 173.49L184.787 164.476C185.298 164.192 186.035 164.192 186.545 164.476L191.875 167.537Z" fill="url(#paint82_linear)"/>
<path d="M198.735 215.106C199.245 215.389 199.245 215.843 198.735 216.126L158.593 239.316C158.083 239.599 157.346 239.599 156.836 239.316L127.58 222.42C127.07 222.136 127.07 221.683 127.58 221.399L167.778 198.21C168.289 197.927 169.026 197.927 169.536 198.21L198.735 215.106Z" fill="url(#paint83_linear)"/>
<path d="M19.4585 210.457V111.123C19.4585 108.345 21.4429 104.887 23.8809 103.526L153.717 28.5723C154.851 27.8919 155.929 27.8352 156.722 28.2321C156.722 28.2321 156.722 28.2321 156.666 28.2321L153.207 26.2477C152.413 25.8508 151.336 25.9075 150.202 26.5879L20.3657 101.542C17.9277 102.959 16 106.361 16 109.139V208.472C16 209.89 16.5103 210.854 17.304 211.307L20.8193 213.292C19.9688 212.781 19.4585 211.817 19.4585 210.457Z" fill="url(#paint84_linear)"/>
<path opacity="0.2" d="M148.331 60.7762C148.331 62.5338 147.084 64.6883 145.553 65.5955L135.575 71.3219C134.044 72.229 132.796 71.492 132.796 69.7344V58.2248C132.796 56.4672 134.044 54.3127 135.575 53.4056L145.553 47.6792C147.084 46.772 148.331 47.5091 148.331 49.2667V60.7762Z" fill="black"/>
<path d="M153.604 63.6112C153.604 65.3688 152.357 67.5233 150.826 68.4304L140.847 74.1568C139.316 75.064 138.069 74.3269 138.069 72.5693V61.0598C138.069 59.3022 139.316 57.1477 140.847 56.2405L150.826 50.5141C152.357 49.607 153.604 50.344 153.604 52.1016V63.6112Z" fill="url(#paint85_linear)"/>
<path d="M138.069 72.5694V61.0598C138.069 59.3022 139.316 57.1477 140.847 56.2406L150.826 50.5142C151.506 50.1173 152.13 50.0606 152.583 50.2307L150.882 49.2101C150.372 48.87 149.635 48.9267 148.841 49.3802L138.863 55.1066C137.332 56.0138 136.084 58.1683 136.084 59.9259V71.4354C136.084 72.3426 136.425 72.9662 136.935 73.2497L138.806 74.327C138.352 74.0435 138.069 73.4198 138.069 72.5694Z" fill="url(#paint86_linear)"/>
<path d="M53.6469 54.4261C53.6469 55.7301 52.7397 57.3743 51.6058 57.998C50.4718 58.6784 49.5647 58.1114 49.5647 56.8074C49.5647 55.5033 50.4718 53.9158 51.6058 53.2355C52.7397 52.5551 53.6469 53.1221 53.6469 54.4261Z" fill="white"/>
<path d="M61.4142 49.9471C61.4142 51.2511 60.5071 52.8953 59.3731 53.519C58.2392 54.1994 57.332 53.6324 57.332 52.3284C57.332 51.0243 58.2392 49.3801 59.3731 48.7565C60.4504 48.0761 61.4142 48.6431 61.4142 49.9471Z" fill="white"/>
<path opacity="0.2" d="M47.1268 170.655C47.1268 172.413 45.8795 174.567 44.3487 175.475L34.37 181.201C32.8391 182.108 31.5918 181.371 31.5918 179.613V168.161C31.5918 166.403 32.8391 164.249 34.37 163.341L44.3487 157.615C45.8795 156.708 47.1268 157.445 47.1268 159.202V170.655Z" fill="black"/>
<path d="M52.513 173.887C52.513 175.645 51.2657 177.799 49.7349 178.706L39.7562 184.433C38.2254 185.34 36.978 184.603 36.978 182.845V171.336C36.978 169.578 38.2254 167.424 39.7562 166.516L49.7349 160.79C51.2657 159.883 52.513 160.62 52.513 162.378V173.887Z" fill="url(#paint87_linear)"/>
<path d="M36.978 182.845V171.336C36.978 169.578 38.2253 167.424 39.7562 166.516L49.7348 160.79C50.4152 160.393 51.0389 160.336 51.4925 160.507L49.7915 159.486C49.2813 159.146 48.5442 159.203 47.8071 159.656L37.8284 165.383C36.2976 166.29 35.0503 168.444 35.0503 170.202V181.711C35.0503 182.618 35.3905 183.242 35.9008 183.526L37.7151 184.603C37.2615 184.319 36.978 183.752 36.978 182.845Z" fill="url(#paint88_linear)"/>
<path opacity="0.4" d="M111.932 153.816L166.078 122.576C167.098 122.009 168.062 121.953 168.742 122.349L170.727 123.653C170.046 123.257 169.083 123.257 168.062 123.88L113.916 155.12C111.875 156.311 110.174 159.203 110.174 161.584V197.473C110.174 198.607 110.571 199.401 111.195 199.798L109.437 198.664C108.7 198.324 108.246 197.473 108.246 196.226V160.336C108.19 157.899 109.891 155.007 111.932 153.816Z" fill="white"/>
<path opacity="0.3" d="M170.5 123.483L140.961 167.197L111.422 157.615C112.102 156.538 112.953 155.631 113.917 155.064L168.062 123.824C168.969 123.257 169.82 123.2 170.5 123.483Z" fill="white"/>
<path opacity="0.25" d="M170.5 123.483C171.237 123.824 171.747 124.674 171.747 125.978V161.867C171.747 163.228 171.181 164.702 170.387 166.006L143.909 162.831L170.5 123.483Z" fill="white"/>
<path opacity="0.25" d="M138.012 166.233L111.535 199.911C110.684 199.627 110.174 198.72 110.174 197.359V161.47C110.174 160.223 110.627 158.805 111.421 157.558L138.012 166.233Z" fill="white"/>
<path opacity="0.2" d="M138.012 166.233L140.96 167.197L143.909 162.831L170.386 166.006C169.763 166.97 168.912 167.82 168.062 168.331L113.916 199.571C113.009 200.081 112.215 200.194 111.591 199.968L138.012 166.233Z" fill="white"/>
<g opacity="0.8">
<path opacity="0.4" d="M63.9656 126.091L118.111 94.8511C119.132 94.2841 120.096 94.2274 120.776 94.6243L122.761 95.9283C122.08 95.5315 121.116 95.5315 120.096 96.1551L65.8933 127.339C63.8522 128.529 62.1513 131.421 62.1513 133.802V169.691C62.1513 170.825 62.5482 171.619 63.1719 172.016L61.4143 170.882C60.6772 170.542 60.2236 169.691 60.2236 168.444V132.555C60.2236 130.117 61.9246 127.225 63.9656 126.091Z" fill="white"/>
<path opacity="0.2" d="M72.2435 161.187V168.161L65.9501 171.789C65.0429 172.299 64.2492 172.413 63.6255 172.186L72.2435 161.187Z" fill="white"/>
<path opacity="0.25" d="M63.3987 129.89L75.0216 133.632C73.3774 135.049 72.1868 137.431 72.1868 139.415V161.13L63.5121 172.129C62.6616 171.846 62.1514 170.939 62.1514 169.578V133.689C62.2081 132.498 62.6616 131.081 63.3987 129.89Z" fill="white"/>
<path opacity="0.25" d="M111.024 112.711L122.534 95.7014C123.271 96.0416 123.781 96.8921 123.781 98.1961V105.34L111.024 112.711Z" fill="white"/>
<path opacity="0.3" d="M75.9288 133.008C75.6453 133.178 75.3051 133.405 75.0216 133.632L63.3987 129.89C64.079 128.813 64.9295 127.906 65.8934 127.339L120.039 96.0984C121.003 95.5315 121.853 95.4748 122.534 95.7583L111.024 112.767L75.9288 133.008Z" fill="white"/>
</g>
<path opacity="0.4" d="M75.929 133.008L130.075 101.768C131.095 101.201 132.059 101.144 132.739 101.541L134.724 102.845C134.044 102.448 133.08 102.448 132.059 103.072L77.9134 134.312C75.8723 135.503 74.1714 138.394 74.1714 140.776V176.665C74.1714 177.799 74.5682 178.593 75.1919 178.99L73.4343 177.856C72.6972 177.515 72.2437 176.665 72.2437 175.418V139.528C72.2437 137.09 73.8879 134.199 75.929 133.008Z" fill="white"/>
<path opacity="0.2" d="M84.2066 168.104V175.078L77.9132 178.706C77.0061 179.216 76.2123 179.33 75.5886 179.103L84.2066 168.104Z" fill="white"/>
<path opacity="0.25" d="M75.4186 136.807L87.0415 140.549C85.3973 141.966 84.2066 144.348 84.2066 146.332V168.047L75.5887 179.103C74.7382 178.819 74.2279 177.912 74.2279 176.552V140.662C74.1712 139.415 74.6815 138.054 75.4186 136.807Z" fill="white"/>
<path opacity="0.3" d="M87.9488 139.925C87.6653 140.095 87.3251 140.322 87.0416 140.549L75.4187 136.807C76.0991 135.73 76.9495 134.823 77.9134 134.256L132.059 103.015C133.023 102.448 133.873 102.392 134.554 102.675L123.044 119.684L87.9488 139.925Z" fill="white"/>
<path opacity="0.25" d="M123.044 119.684L134.554 102.675C135.291 103.015 135.801 103.866 135.801 105.17V112.314L123.044 119.684Z" fill="white"/>
<path opacity="0.4" d="M87.9484 139.925L142.094 108.685C143.115 108.118 144.079 108.062 144.759 108.459L146.743 109.763C146.063 109.366 145.099 109.366 144.079 109.989L89.9328 141.229C87.8917 142.42 86.1908 145.312 86.1908 147.693V183.582C86.1908 184.716 86.5877 185.51 87.2114 185.907L85.4537 184.773C84.7167 184.433 84.2631 183.582 84.2631 182.335V146.446C84.2064 144.008 85.9073 141.116 87.9484 139.925Z" fill="white"/>
<path opacity="0.2" d="M96.2259 175.021V181.994L89.9325 185.623C89.0253 186.133 88.2316 186.247 87.6079 186.02L96.2259 175.021Z" fill="white"/>
<path opacity="0.25" d="M87.4382 143.724L99.0612 147.466C97.4169 148.883 96.2263 151.265 96.2263 153.249V174.964L87.5516 185.963C86.7012 185.68 86.1909 184.773 86.1909 183.412V147.523C86.1909 146.389 86.6445 144.971 87.4382 143.724Z" fill="white"/>
<path opacity="0.3" d="M99.9114 146.842C99.6279 147.012 99.2877 147.239 99.0043 147.466L87.3813 143.724C88.0617 142.647 88.9122 141.74 89.876 141.173L144.022 109.932C144.986 109.365 145.836 109.309 146.516 109.592L135.007 126.601L99.9114 146.842Z" fill="white"/>
<path opacity="0.25" d="M135.007 126.601L146.516 109.592C147.253 109.932 147.764 110.783 147.764 112.087V119.231L135.007 126.601Z" fill="white"/>
<path opacity="0.4" d="M99.9119 146.842L154.058 115.602C155.078 115.035 156.042 114.979 156.722 115.376L158.707 116.68C158.026 116.283 157.063 116.283 156.042 116.906L101.896 148.146C99.8552 149.337 98.1543 152.229 98.1543 154.61V190.499C98.1543 191.633 98.5512 192.427 99.1748 192.824L97.4172 191.69C96.6801 191.35 96.2266 190.499 96.2266 189.252V153.363C96.2266 150.925 97.8708 148.033 99.9119 146.842Z" fill="white"/>
<path opacity="0.2" d="M108.19 181.995V188.969L101.896 192.597C100.989 193.108 100.195 193.221 99.5718 192.994L108.19 181.995Z" fill="white"/>
<path opacity="0.25" d="M99.4016 150.698L111.025 154.44C109.38 155.857 108.19 158.239 108.19 160.223V181.938L99.515 192.937C98.6646 192.654 98.1543 191.747 98.1543 190.386V154.497C98.1543 153.306 98.6646 151.889 99.4016 150.698Z" fill="white"/>
<path opacity="0.3" d="M111.932 153.816C111.648 153.986 111.308 154.213 111.025 154.44L99.4019 150.698C100.082 149.621 100.933 148.714 101.897 148.147L156.042 116.907C157.006 116.34 157.857 116.283 158.537 116.566L147.027 133.576L111.932 153.816Z" fill="white"/>
<path opacity="0.25" d="M147.027 133.519L158.537 116.51C159.274 116.85 159.784 117.7 159.784 119.004V126.205L147.027 133.519Z" fill="white"/>
<g opacity="0.7">
<path opacity="0.7" d="M110.174 197.359C110.174 199.741 111.875 200.705 113.916 199.514L168.062 168.274C170.103 167.083 171.804 164.192 171.804 161.81V125.921C171.804 123.54 170.103 122.576 168.062 123.767L113.916 155.007C111.875 156.197 110.174 159.089 110.174 161.47V197.359Z" fill="#E0AAE7"/>
<path opacity="0.7" d="M110.174 197.359C110.174 199.741 111.875 200.705 113.916 199.514L168.062 168.274C170.103 167.083 171.804 164.192 171.804 161.81V125.921C171.804 123.54 170.103 122.576 168.062 123.767L113.916 155.007C111.875 156.197 110.174 159.089 110.174 161.47V197.359Z" fill="url(#paint89_linear)"/>
<path opacity="0.7" d="M111.932 153.759L166.078 122.519C167.098 121.952 168.062 121.896 168.742 122.293L170.727 123.597C170.046 123.2 169.083 123.2 168.062 123.823L113.916 155.063C111.875 156.254 110.174 159.146 110.174 161.527V197.416C110.174 198.55 110.571 199.344 111.195 199.741L109.437 198.607C108.7 198.267 108.246 197.416 108.246 196.169V160.28C108.19 157.842 109.891 154.95 111.932 153.759Z" fill="url(#paint90_linear)"/>
<path opacity="0.7" d="M170.386 123.37C171.18 123.71 171.747 124.561 171.747 125.865V161.754C171.747 163.115 171.18 164.589 170.386 165.893L140.96 162.377L170.386 123.37Z" fill="url(#paint91_linear)"/>
<path opacity="0.7" d="M110.174 161.47C110.174 160.166 110.684 158.692 111.535 157.388L140.96 162.434L111.535 199.911C110.684 199.627 110.174 198.72 110.174 197.359V161.47Z" fill="url(#paint92_linear)"/>
<path opacity="0.7" d="M170.5 123.426L140.961 167.14L111.422 157.558C112.102 156.481 112.953 155.574 113.917 155.007L168.062 123.767C168.969 123.2 169.82 123.143 170.5 123.426Z" fill="url(#paint93_linear)"/>
</g>
<path d="M124.348 205.354C124.348 207.735 126.049 208.699 128.09 207.508L182.236 176.268C184.277 175.078 185.978 172.186 185.978 169.805V133.915C185.978 131.534 184.277 130.57 182.236 131.761L128.09 163.001C126.049 164.192 124.348 167.083 124.348 169.465V205.354Z" fill="#E0AAE7"/>
<path d="M124.348 205.354C124.348 207.735 126.049 208.699 128.09 207.508L182.236 176.268C184.277 175.078 185.978 172.186 185.978 169.805V133.915C185.978 131.534 184.277 130.57 182.236 131.761L128.09 163.001C126.049 164.192 124.348 167.083 124.348 169.465V205.354Z" fill="url(#paint94_linear)"/>
<path d="M126.106 161.754L180.251 130.513C181.272 129.946 182.236 129.89 182.916 130.287L184.901 131.591C184.22 131.194 183.256 131.194 182.236 131.817L128.09 163.058C126.049 164.248 124.348 167.14 124.348 169.521V205.41C124.348 206.544 124.745 207.338 125.369 207.735L123.611 206.601C122.874 206.261 122.42 205.41 122.42 204.163V168.274C122.364 165.836 124.008 162.944 126.106 161.754Z" fill="url(#paint95_linear)"/>
<path d="M184.561 131.421C185.354 131.761 185.921 132.612 185.921 133.916V169.805C185.921 171.166 185.354 172.64 184.561 173.944L155.135 170.429L184.561 131.421Z" fill="url(#paint96_linear)"/>
<path d="M124.348 169.465C124.348 168.16 124.858 166.686 125.709 165.382L155.135 170.428L125.709 207.905C124.858 207.622 124.348 206.715 124.348 205.354V169.465Z" fill="url(#paint97_linear)"/>
<path d="M184.674 131.421L155.134 175.134L125.595 165.552C126.276 164.475 127.126 163.568 128.09 163.001L182.236 131.761C183.143 131.194 183.993 131.137 184.674 131.421Z" fill="url(#paint98_linear)"/>
<g opacity="0.8">
<path opacity="0.4" d="M63.9656 126.091L118.111 94.8511C119.132 94.2841 120.096 94.2274 120.776 94.6243L122.761 95.9283C122.08 95.5315 121.116 95.5315 120.096 96.1551L65.8933 127.339C63.8522 128.529 62.1513 131.421 62.1513 133.802V169.691C62.1513 170.825 62.5482 171.619 63.1719 172.016L61.4143 170.882C60.6772 170.542 60.2236 169.691 60.2236 168.444V132.555C60.2236 130.117 61.9246 127.225 63.9656 126.091Z" fill="white"/>
<path opacity="0.2" d="M72.2435 161.187V168.161L65.9501 171.789C65.0429 172.299 64.2492 172.413 63.6255 172.186L72.2435 161.187Z" fill="white"/>
<path opacity="0.25" d="M63.3987 129.89L75.0216 133.632C73.3774 135.049 72.1868 137.431 72.1868 139.415V161.13L63.5121 172.129C62.6616 171.846 62.1514 170.939 62.1514 169.578V133.689C62.2081 132.498 62.6616 131.081 63.3987 129.89Z" fill="white"/>
<path opacity="0.25" d="M111.024 112.711L122.534 95.7014C123.271 96.0416 123.781 96.8921 123.781 98.1961V105.34L111.024 112.711Z" fill="white"/>
<path opacity="0.3" d="M75.9288 133.008C75.6453 133.178 75.3051 133.405 75.0216 133.632L63.3987 129.89C64.079 128.813 64.9295 127.906 65.8934 127.339L120.039 96.0984C121.003 95.5315 121.853 95.4748 122.534 95.7583L111.024 112.767L75.9288 133.008Z" fill="white"/>
</g>
<path opacity="0.4" d="M75.929 133.008L130.075 101.768C131.095 101.201 132.059 101.145 132.739 101.542L134.724 102.846C134.044 102.449 133.08 102.449 132.059 103.072L77.9134 134.312C75.8723 135.503 74.1714 138.395 74.1714 140.776V176.665C74.1714 177.799 74.5682 178.593 75.1919 178.99L73.4343 177.856C72.6972 177.516 72.2437 176.665 72.2437 175.418V139.529C72.2437 137.091 73.8879 134.199 75.929 133.008Z" fill="white"/>
<path opacity="0.2" d="M84.2066 168.104V175.078L77.9132 178.706C77.0061 179.217 76.2123 179.33 75.5886 179.103L84.2066 168.104Z" fill="white"/>
<path opacity="0.25" d="M75.4186 136.807L87.0415 140.549C85.3973 141.967 84.2066 144.348 84.2066 146.332V168.047L75.5887 179.103C74.7382 178.82 74.2279 177.913 74.2279 176.552V140.663C74.1712 139.415 74.6815 138.054 75.4186 136.807Z" fill="white"/>
<path opacity="0.3" d="M87.9488 139.926C87.6653 140.096 87.3251 140.322 87.0416 140.549L75.4187 136.807C76.0991 135.73 76.9495 134.823 77.9134 134.256L132.059 103.016C133.023 102.449 133.873 102.392 134.554 102.676L123.044 119.685L87.9488 139.926Z" fill="white"/>
<path opacity="0.25" d="M123.044 119.685L134.554 102.676C135.291 103.016 135.801 103.866 135.801 105.17V112.314L123.044 119.685Z" fill="white"/>
<path opacity="0.4" d="M87.9484 139.925L142.094 108.685C143.115 108.118 144.079 108.062 144.759 108.459L146.743 109.763C146.063 109.366 145.099 109.366 144.079 109.989L89.9328 141.229C87.8917 142.42 86.1908 145.312 86.1908 147.693V183.582C86.1908 184.716 86.5877 185.51 87.2114 185.907L85.4537 184.773C84.7167 184.433 84.2631 183.582 84.2631 182.335V146.446C84.2064 144.008 85.9073 141.116 87.9484 139.925Z" fill="white"/>
<path opacity="0.2" d="M96.2259 175.021V181.995L89.9325 185.623C89.0253 186.134 88.2316 186.247 87.6079 186.02L96.2259 175.021Z" fill="white"/>
<path opacity="0.25" d="M87.4382 143.724L99.0612 147.466C97.4169 148.884 96.2263 151.265 96.2263 153.249V174.964L87.5516 185.963C86.7012 185.68 86.1909 184.773 86.1909 183.412V147.523C86.1909 146.389 86.6445 144.971 87.4382 143.724Z" fill="white"/>
<path opacity="0.3" d="M99.9114 146.843C99.6279 147.013 99.2877 147.239 99.0043 147.466L87.3813 143.724C88.0617 142.647 88.9122 141.74 89.876 141.173L144.022 109.933C144.986 109.366 145.836 109.309 146.516 109.592L135.007 126.602L99.9114 146.843Z" fill="white"/>
<path opacity="0.25" d="M135.007 126.602L146.516 109.593C147.253 109.933 147.764 110.783 147.764 112.087V119.231L135.007 126.602Z" fill="white"/>
<path opacity="0.4" d="M99.9119 146.842L154.058 115.602C155.078 115.035 156.042 114.979 156.722 115.376L158.707 116.68C158.026 116.283 157.063 116.283 156.042 116.906L101.896 148.146C99.8552 149.337 98.1543 152.229 98.1543 154.61V190.499C98.1543 191.633 98.5512 192.427 99.1748 192.824L97.4172 191.69C96.6801 191.35 96.2266 190.499 96.2266 189.252V153.363C96.2266 150.925 97.8708 148.033 99.9119 146.842Z" fill="white"/>
<path opacity="0.2" d="M108.19 181.995V188.969L101.896 192.597C100.989 193.108 100.195 193.221 99.5718 192.994L108.19 181.995Z" fill="white"/>
<path opacity="0.25" d="M99.4016 150.698L111.025 154.44C109.38 155.857 108.19 158.239 108.19 160.223V181.938L99.515 192.937C98.6646 192.654 98.1543 191.747 98.1543 190.386V154.497C98.1543 153.306 98.6646 151.889 99.4016 150.698Z" fill="white"/>
<path opacity="0.3" d="M111.932 153.816C111.648 153.986 111.308 154.213 111.025 154.44L99.4019 150.698C100.082 149.621 100.933 148.714 101.897 148.147L156.042 116.907C157.006 116.34 157.857 116.283 158.537 116.566L147.027 133.576L111.932 153.816Z" fill="white"/>
<path opacity="0.25" d="M147.027 133.519L158.537 116.51C159.274 116.85 159.784 117.7 159.784 119.004V126.205L147.027 133.519Z" fill="white"/>
<g opacity="0.5">
<path opacity="0.5" d="M110.174 197.359C110.174 199.741 111.875 200.705 113.916 199.514L168.062 168.274C170.103 167.083 171.804 164.192 171.804 161.81V125.921C171.804 123.54 170.103 122.576 168.062 123.767L113.916 155.007C111.875 156.197 110.174 159.089 110.174 161.47V197.359Z" fill="#EDDDFF"/>
<path opacity="0.5" d="M110.174 197.359C110.174 199.741 111.875 200.705 113.916 199.514L168.062 168.274C170.103 167.083 171.804 164.192 171.804 161.81V125.921C171.804 123.54 170.103 122.576 168.062 123.767L113.916 155.007C111.875 156.197 110.174 159.089 110.174 161.47V197.359Z" fill="url(#paint99_linear)"/>
<path opacity="0.5" d="M111.932 153.759L166.078 122.519C167.098 121.952 168.062 121.896 168.742 122.293L170.727 123.597C170.046 123.2 169.083 123.2 168.062 123.823L113.916 155.063C111.875 156.254 110.174 159.146 110.174 161.527V197.416C110.174 198.55 110.571 199.344 111.195 199.741L109.437 198.607C108.7 198.267 108.246 197.416 108.246 196.169V160.28C108.19 157.842 109.891 154.95 111.932 153.759Z" fill="url(#paint100_linear)"/>
<path opacity="0.5" d="M170.386 123.37C171.18 123.71 171.747 124.561 171.747 125.865V161.754C171.747 163.115 171.18 164.589 170.386 165.893L140.96 162.377L170.386 123.37Z" fill="url(#paint101_linear)"/>
<path opacity="0.5" d="M110.174 161.47C110.174 160.166 110.684 158.692 111.535 157.388L140.96 162.434L111.535 199.911C110.684 199.627 110.174 198.72 110.174 197.359V161.47Z" fill="url(#paint102_linear)"/>
<path opacity="0.5" d="M170.5 123.426L140.961 167.14L111.422 157.558C112.102 156.481 112.953 155.574 113.917 155.007L168.062 123.767C168.969 123.2 169.82 123.143 170.5 123.426Z" fill="url(#paint103_linear)"/>
</g>
<path d="M124.348 205.354C124.348 207.735 126.049 208.699 128.09 207.509L182.236 176.268C184.277 175.078 185.978 172.186 185.978 169.805V133.916C185.978 131.534 184.277 130.571 182.236 131.761L128.09 163.001C126.049 164.192 124.348 167.084 124.348 169.465V205.354Z" fill="#E0AAE7"/>
<path d="M124.348 205.354C124.348 207.735 126.049 208.699 128.09 207.509L182.236 176.268C184.277 175.078 185.978 172.186 185.978 169.805V133.916C185.978 131.534 184.277 130.571 182.236 131.761L128.09 163.001C126.049 164.192 124.348 167.084 124.348 169.465V205.354Z" fill="url(#paint104_linear)"/>
<path d="M126.106 161.754L180.251 130.514C181.272 129.947 182.236 129.89 182.916 130.287L184.901 131.591C184.22 131.194 183.256 131.194 182.236 131.818L128.09 163.058C126.049 164.248 124.348 167.14 124.348 169.521V205.411C124.348 206.545 124.745 207.338 125.369 207.735L123.611 206.601C122.874 206.261 122.42 205.411 122.42 204.163V168.274C122.364 165.836 124.008 162.944 126.106 161.754Z" fill="url(#paint105_linear)"/>
<path d="M184.561 131.421C185.354 131.761 185.921 132.612 185.921 133.916V169.805C185.921 171.166 185.354 172.64 184.561 173.944L155.135 170.429L184.561 131.421Z" fill="url(#paint106_linear)"/>
<path d="M124.348 169.465C124.348 168.161 124.858 166.687 125.709 165.383L155.135 170.429L125.709 207.905C124.858 207.622 124.348 206.715 124.348 205.354V169.465Z" fill="url(#paint107_linear)"/>
<path d="M184.674 131.421L155.134 175.134L125.595 165.553C126.276 164.475 127.126 163.568 128.09 163.001L182.236 131.761C183.143 131.194 183.993 131.137 184.674 131.421Z" fill="url(#paint108_linear)"/>
<path d="M124.348 205.354C124.348 207.735 126.049 208.699 128.09 207.509L182.236 176.268C184.277 175.078 185.978 172.186 185.978 169.805V133.916C185.978 131.534 184.277 130.571 182.236 131.761L128.09 163.001C126.049 164.192 124.348 167.084 124.348 169.465V205.354Z" fill="#95D2E6"/>
<path d="M124.348 205.354C124.348 207.735 126.049 208.699 128.09 207.509L182.236 176.268C184.277 175.078 185.978 172.186 185.978 169.805V133.916C185.978 131.534 184.277 130.571 182.236 131.761L128.09 163.001C126.049 164.192 124.348 167.084 124.348 169.465V205.354Z" fill="url(#paint109_linear)"/>
<path d="M126.106 161.754L180.251 130.514C181.272 129.947 182.236 129.89 182.916 130.287L184.901 131.591C184.22 131.194 183.256 131.194 182.236 131.818L128.09 163.058C126.049 164.248 124.348 167.14 124.348 169.521V205.411C124.348 206.545 124.745 207.338 125.369 207.735L123.611 206.601C122.874 206.261 122.42 205.411 122.42 204.163V168.274C122.364 165.836 124.008 162.944 126.106 161.754Z" fill="url(#paint110_linear)"/>
<path d="M184.561 131.421C185.354 131.761 185.921 132.612 185.921 133.916V169.805C185.921 171.166 185.354 172.64 184.561 173.944L155.135 170.429L184.561 131.421Z" fill="url(#paint111_linear)"/>
<path d="M124.348 169.465C124.348 168.161 124.858 166.687 125.709 165.383L155.135 170.429L125.709 207.905C124.858 207.622 124.348 206.715 124.348 205.354V169.465Z" fill="url(#paint112_linear)"/>
<path d="M184.674 131.421L155.134 175.134L125.595 165.553C126.276 164.475 127.126 163.568 128.09 163.001L182.236 131.761C183.143 131.194 183.993 131.137 184.674 131.421Z" fill="url(#paint113_linear)"/>
<g opacity="0.2">
<path opacity="0.2" d="M98.6646 152.116C98.7212 151.889 98.8346 151.719 98.948 151.549C98.8346 151.719 98.7779 151.889 98.6646 152.116Z" fill="black"/>
<path opacity="0.2" d="M61.4143 170.825L63.1719 171.959L63.1152 171.903C63.2286 172.016 63.3987 172.073 63.5688 172.13C64.1924 172.356 65.0429 172.243 65.8933 171.733L72.1867 168.104V175.248C72.1867 176.495 72.6403 177.346 73.3774 177.686L75.135 178.82L75.0783 178.763C75.1917 178.876 75.3618 178.933 75.5319 178.99C76.1555 179.217 77.006 179.103 77.8564 178.593L84.1498 174.964V182.108C84.1498 183.356 84.6034 184.206 85.3405 184.546L87.0981 185.68L87.0414 185.623C87.1548 185.737 87.3249 185.794 87.495 185.85C88.1186 186.077 88.9691 185.964 89.8195 185.453L96.1129 181.825V188.969C96.1129 190.216 96.5665 191.066 97.3036 191.407L99.0612 192.54L99.0045 192.484C99.1179 192.597 99.288 192.654 99.4581 192.711C100.082 192.937 100.932 192.824 101.783 192.314L108.076 188.685V195.829C108.076 197.076 108.53 197.927 109.267 198.267L111.024 199.401C111.138 199.458 111.251 199.514 111.421 199.571C112.045 199.798 112.895 199.684 113.746 199.174L122.25 194.298V203.823C122.25 205.071 122.704 205.921 123.441 206.261L125.199 207.395C125.312 207.452 125.425 207.509 125.595 207.565C126.219 207.792 127.07 207.679 127.92 207.168L175.602 179.67L185.808 185.567V188.912L124.008 224.574L123.668 221.343L60.2236 184.716V169.295C60.5071 170.032 60.904 170.599 61.4143 170.825Z" fill="black"/>
<path opacity="0.2" d="M101.499 151.378L111.024 154.44L101.499 151.378Z" fill="black"/>
</g>
<path opacity="0.2" d="M157.97 83.4551C157.97 90.5422 162.959 99.2169 169.082 102.732C175.262 106.304 180.195 103.412 180.195 96.3253C180.195 89.2382 175.206 80.5635 169.082 77.0483C162.959 73.4197 157.97 76.3112 157.97 83.4551ZM159.16 84.0787C159.16 77.7287 163.639 75.1206 169.139 78.3523C174.639 81.5274 179.118 89.2382 179.118 95.5883C179.118 101.938 174.639 104.546 169.139 101.315C163.583 98.1963 159.16 90.4855 159.16 84.0787Z" fill="white"/>
<path opacity="0.1" d="M147.027 103.186L145.439 102.279L147.14 100.067L145.439 95.9285L147.027 96.8356L148.671 100.975L147.027 103.186Z" fill="#FC7B1A"/>
<path opacity="0.1" d="M153.32 106.814L151.79 105.907L153.434 103.696L151.79 99.5571L153.32 100.464L154.965 104.603L153.32 106.814Z" fill="#FC7B1A"/>
<path opacity="0.2" d="M159.614 110.443L158.083 109.593L159.727 107.325L158.083 103.242L159.614 104.093L161.315 108.232L159.614 110.443Z" fill="#FC7B1A"/>
<path opacity="0.4" d="M165.963 114.128L164.376 113.221L166.02 111.01L164.376 106.871L165.963 107.778L167.608 111.86L165.963 114.128Z" fill="#FC7B1A"/>
<path opacity="0.6" d="M172.257 117.757L170.67 116.85L172.314 114.639L170.67 110.5L172.257 111.407L173.902 115.546L172.257 117.757Z" fill="#FC7B1A"/>
<path opacity="0.8" d="M178.551 121.386L177.02 120.478L178.664 118.267L177.02 114.128L178.551 115.036L180.195 119.174L178.551 121.386Z" fill="#FC7B1A"/>
<path d="M184.844 125.014L183.313 124.107L184.957 121.896L183.313 117.757L184.844 118.664L186.488 122.803L184.844 125.014Z" fill="#FC7B1A"/>
<defs>
<linearGradient id="paint0_linear" x1="154.561" y1="134.985" x2="102.836" y2="323.12" gradientUnits="userSpaceOnUse">
<stop stop-color="#DCEBFA"/>
<stop offset="1" stop-color="#C2C2C2"/>
</linearGradient>
<linearGradient id="paint1_linear" x1="143.244" y1="232.215" x2="97.4108" y2="232.215" gradientUnits="userSpaceOnUse">
<stop stop-color="#BDBDBD"/>
<stop offset="1" stop-color="#969696"/>
</linearGradient>
<linearGradient id="paint2_linear" x1="151.62" y1="25.6969" x2="19.8086" y2="225.031" gradientUnits="userSpaceOnUse">
<stop stop-color="#FAFAFA"/>
<stop offset="1" stop-color="#DEDEDE"/>
</linearGradient>
<linearGradient id="paint3_linear" x1="88.761" y1="30.6795" x2="88.761" y2="247.221" gradientUnits="userSpaceOnUse">
<stop stop-color="#009416"/>
<stop offset="1" stop-color="#00551F"/>
</linearGradient>
<linearGradient id="paint4_linear" x1="219.031" y1="62.5421" x2="89.1064" y2="234.247" gradientUnits="userSpaceOnUse">
<stop stop-color="#D0D0D0"/>
<stop offset="1" stop-color="#BABABA"/>
</linearGradient>
<linearGradient id="paint5_linear" x1="179.386" y1="114.533" x2="42.3132" y2="224.245" gradientUnits="userSpaceOnUse">
<stop stop-color="#C7C7C7"/>
<stop offset="1" stop-color="#5D5D5D"/>
</linearGradient>
<linearGradient id="paint6_linear" x1="180.284" y1="115.64" x2="43.2038" y2="225.358" gradientUnits="userSpaceOnUse">
<stop stop-color="#C7C7C7"/>
<stop offset="1" stop-color="#5D5D5D"/>
</linearGradient>
<linearGradient id="paint7_linear" x1="181.176" y1="116.752" x2="44.0934" y2="226.472" gradientUnits="userSpaceOnUse">
<stop stop-color="#C7C7C7"/>
<stop offset="1" stop-color="#5D5D5D"/>
</linearGradient>
<linearGradient id="paint8_linear" x1="182.063" y1="117.868" x2="44.9863" y2="227.583" gradientUnits="userSpaceOnUse">
<stop stop-color="#C7C7C7"/>
<stop offset="1" stop-color="#5D5D5D"/>
</linearGradient>
<linearGradient id="paint9_linear" x1="182.954" y1="118.982" x2="45.8766" y2="228.698" gradientUnits="userSpaceOnUse">
<stop stop-color="#C7C7C7"/>
<stop offset="1" stop-color="#5D5D5D"/>
</linearGradient>
<linearGradient id="paint10_linear" x1="183.844" y1="120.095" x2="46.7677" y2="229.81" gradientUnits="userSpaceOnUse">
<stop stop-color="#C7C7C7"/>
<stop offset="1" stop-color="#5D5D5D"/>
</linearGradient>
<linearGradient id="paint11_linear" x1="184.738" y1="121.206" x2="47.6569" y2="230.925" gradientUnits="userSpaceOnUse">
<stop stop-color="#C7C7C7"/>
<stop offset="1" stop-color="#5D5D5D"/>
</linearGradient>
<linearGradient id="paint12_linear" x1="185.633" y1="122.315" x2="48.5543" y2="232.032" gradientUnits="userSpaceOnUse">
<stop stop-color="#C7C7C7"/>
<stop offset="1" stop-color="#5D5D5D"/>
</linearGradient>
<linearGradient id="paint13_linear" x1="186.516" y1="123.434" x2="49.4418" y2="233.148" gradientUnits="userSpaceOnUse">
<stop stop-color="#C7C7C7"/>
<stop offset="1" stop-color="#5D5D5D"/>
</linearGradient>
<linearGradient id="paint14_linear" x1="187.41" y1="124.545" x2="50.3306" y2="234.263" gradientUnits="userSpaceOnUse">
<stop stop-color="#C7C7C7"/>
<stop offset="1" stop-color="#5D5D5D"/>
</linearGradient>
<linearGradient id="paint15_linear" x1="188.301" y1="125.658" x2="51.2203" y2="235.377" gradientUnits="userSpaceOnUse">
<stop stop-color="#C7C7C7"/>
<stop offset="1" stop-color="#5D5D5D"/>
</linearGradient>
<linearGradient id="paint16_linear" x1="189.191" y1="126.771" x2="52.113" y2="236.488" gradientUnits="userSpaceOnUse">
<stop stop-color="#C7C7C7"/>
<stop offset="1" stop-color="#5D5D5D"/>
</linearGradient>
<linearGradient id="paint17_linear" x1="190.081" y1="127.885" x2="53.0057" y2="237.599" gradientUnits="userSpaceOnUse">
<stop stop-color="#C7C7C7"/>
<stop offset="1" stop-color="#5D5D5D"/>
</linearGradient>
<linearGradient id="paint18_linear" x1="174.958" y1="109" x2="37.8852" y2="218.713" gradientUnits="userSpaceOnUse">
<stop stop-color="#C7C7C7"/>
<stop offset="1" stop-color="#5D5D5D"/>
</linearGradient>
<linearGradient id="paint19_linear" x1="175.883" y1="110.152" x2="38.8086" y2="219.866" gradientUnits="userSpaceOnUse">
<stop stop-color="#C7C7C7"/>
<stop offset="1" stop-color="#5D5D5D"/>
</linearGradient>
<linearGradient id="paint20_linear" x1="176.804" y1="111.307" x2="39.7318" y2="221.019" gradientUnits="userSpaceOnUse">
<stop stop-color="#C7C7C7"/>
<stop offset="1" stop-color="#5D5D5D"/>
</linearGradient>
<linearGradient id="paint21_linear" x1="177.735" y1="112.453" x2="40.6533" y2="222.173" gradientUnits="userSpaceOnUse">
<stop stop-color="#C7C7C7"/>
<stop offset="1" stop-color="#5D5D5D"/>
</linearGradient>
<linearGradient id="paint22_linear" x1="178.653" y1="113.61" x2="41.5779" y2="223.325" gradientUnits="userSpaceOnUse">
<stop stop-color="#C7C7C7"/>
<stop offset="1" stop-color="#5D5D5D"/>
</linearGradient>
<linearGradient id="paint23_linear" x1="179.577" y1="114.764" x2="42.5001" y2="224.479" gradientUnits="userSpaceOnUse">
<stop stop-color="#C7C7C7"/>
<stop offset="1" stop-color="#5D5D5D"/>
</linearGradient>
<linearGradient id="paint24_linear" x1="180.5" y1="115.917" x2="43.4238" y2="225.632" gradientUnits="userSpaceOnUse">
<stop stop-color="#C7C7C7"/>
<stop offset="1" stop-color="#5D5D5D"/>
</linearGradient>
<linearGradient id="paint25_linear" x1="181.422" y1="117.071" x2="44.3491" y2="226.783" gradientUnits="userSpaceOnUse">
<stop stop-color="#C7C7C7"/>
<stop offset="1" stop-color="#5D5D5D"/>
</linearGradient>
<linearGradient id="paint26_linear" x1="182.348" y1="118.221" x2="45.2689" y2="227.939" gradientUnits="userSpaceOnUse">
<stop stop-color="#C7C7C7"/>
<stop offset="1" stop-color="#5D5D5D"/>
</linearGradient>
<linearGradient id="paint27_linear" x1="183.273" y1="119.372" x2="46.1895" y2="229.093" gradientUnits="userSpaceOnUse">
<stop stop-color="#C7C7C7"/>
<stop offset="1" stop-color="#5D5D5D"/>
</linearGradient>
<linearGradient id="paint28_linear" x1="184.192" y1="120.528" x2="47.1172" y2="230.242" gradientUnits="userSpaceOnUse">
<stop stop-color="#C7C7C7"/>
<stop offset="1" stop-color="#5D5D5D"/>
</linearGradient>
<linearGradient id="paint29_linear" x1="185.115" y1="121.682" x2="48.0411" y2="231.395" gradientUnits="userSpaceOnUse">
<stop stop-color="#C7C7C7"/>
<stop offset="1" stop-color="#5D5D5D"/>
</linearGradient>
<linearGradient id="paint30_linear" x1="186.039" y1="122.834" x2="48.9643" y2="232.548" gradientUnits="userSpaceOnUse">
<stop stop-color="#C7C7C7"/>
<stop offset="1" stop-color="#5D5D5D"/>
</linearGradient>
<linearGradient id="paint31_linear" x1="186.966" y1="123.989" x2="49.8864" y2="233.707" gradientUnits="userSpaceOnUse">
<stop stop-color="#C7C7C7"/>
<stop offset="1" stop-color="#5D5D5D"/>
</linearGradient>
<linearGradient id="paint32_linear" x1="191.197" y1="129.279" x2="54.1234" y2="238.993" gradientUnits="userSpaceOnUse">
<stop stop-color="#C7C7C7"/>
<stop offset="1" stop-color="#5D5D5D"/>
</linearGradient>
<linearGradient id="paint33_linear" x1="201.458" y1="142.098" x2="64.3794" y2="251.815" gradientUnits="userSpaceOnUse">
<stop stop-color="#C7C7C7"/>
<stop offset="1" stop-color="#5D5D5D"/>
</linearGradient>
<linearGradient id="paint34_linear" x1="202.346" y1="143.213" x2="65.271" y2="252.928" gradientUnits="userSpaceOnUse">
<stop stop-color="#C7C7C7"/>
<stop offset="1" stop-color="#5D5D5D"/>
</linearGradient>
<linearGradient id="paint35_linear" x1="203.243" y1="144.322" x2="66.1599" y2="254.042" gradientUnits="userSpaceOnUse">
<stop stop-color="#C7C7C7"/>
<stop offset="1" stop-color="#5D5D5D"/>
</linearGradient>
<linearGradient id="paint36_linear" x1="211.169" y1="154.233" x2="74.0961" y2="263.945" gradientUnits="userSpaceOnUse">
<stop stop-color="#C7C7C7"/>
<stop offset="1" stop-color="#5D5D5D"/>
</linearGradient>
<linearGradient id="paint37_linear" x1="213.078" y1="156.621" x2="76.0113" y2="266.328" gradientUnits="userSpaceOnUse">
<stop stop-color="#C7C7C7"/>
<stop offset="1" stop-color="#5D5D5D"/>
</linearGradient>
<linearGradient id="paint38_linear" x1="213.972" y1="157.731" x2="76.8891" y2="267.452" gradientUnits="userSpaceOnUse">
<stop stop-color="#C7C7C7"/>
<stop offset="1" stop-color="#5D5D5D"/>
</linearGradient>
<linearGradient id="paint39_linear" x1="214.863" y1="158.844" x2="77.7817" y2="268.563" gradientUnits="userSpaceOnUse">
<stop stop-color="#C7C7C7"/>
<stop offset="1" stop-color="#5D5D5D"/>
</linearGradient>
<linearGradient id="paint40_linear" x1="204.131" y1="145.437" x2="67.0522" y2="255.154" gradientUnits="userSpaceOnUse">
<stop stop-color="#C7C7C7"/>
<stop offset="1" stop-color="#5D5D5D"/>
</linearGradient>
<linearGradient id="paint41_linear" x1="207.028" y1="149.056" x2="69.9495" y2="258.774" gradientUnits="userSpaceOnUse">
<stop stop-color="#C7C7C7"/>
<stop offset="1" stop-color="#5D5D5D"/>
</linearGradient>
<linearGradient id="paint42_linear" x1="209.923" y1="152.674" x2="72.8434" y2="262.392" gradientUnits="userSpaceOnUse">
<stop stop-color="#C7C7C7"/>
<stop offset="1" stop-color="#5D5D5D"/>
</linearGradient>
<linearGradient id="paint43_linear" x1="210.814" y1="153.787" x2="73.7358" y2="263.504" gradientUnits="userSpaceOnUse">
<stop stop-color="#C7C7C7"/>
<stop offset="1" stop-color="#5D5D5D"/>
</linearGradient>
<linearGradient id="paint44_linear" x1="186.234" y1="123.076" x2="49.1555" y2="232.793" gradientUnits="userSpaceOnUse">
<stop stop-color="#C7C7C7"/>
<stop offset="1" stop-color="#5D5D5D"/>
</linearGradient>
<linearGradient id="paint45_linear" x1="185.114" y1="121.685" x2="48.0385" y2="231.4" gradientUnits="userSpaceOnUse">
<stop stop-color="#C7C7C7"/>
<stop offset="1" stop-color="#5D5D5D"/>
</linearGradient>
<linearGradient id="paint46_linear" x1="187.122" y1="124.192" x2="50.0467" y2="233.906" gradientUnits="userSpaceOnUse">
<stop stop-color="#C7C7C7"/>
<stop offset="1" stop-color="#5D5D5D"/>
</linearGradient>
<linearGradient id="paint47_linear" x1="188.013" y1="125.305" x2="50.9383" y2="235.019" gradientUnits="userSpaceOnUse">
<stop stop-color="#C7C7C7"/>
<stop offset="1" stop-color="#5D5D5D"/>
</linearGradient>
<linearGradient id="paint48_linear" x1="188.91" y1="126.413" x2="51.8256" y2="236.135" gradientUnits="userSpaceOnUse">
<stop stop-color="#C7C7C7"/>
<stop offset="1" stop-color="#5D5D5D"/>
</linearGradient>
<linearGradient id="paint49_linear" x1="189.798" y1="127.528" x2="52.7183" y2="237.246" gradientUnits="userSpaceOnUse">
<stop stop-color="#C7C7C7"/>
<stop offset="1" stop-color="#5D5D5D"/>
</linearGradient>
<linearGradient id="paint50_linear" x1="190.685" y1="128.645" x2="53.6124" y2="238.357" gradientUnits="userSpaceOnUse">
<stop stop-color="#C7C7C7"/>
<stop offset="1" stop-color="#5D5D5D"/>
</linearGradient>
<linearGradient id="paint51_linear" x1="191.579" y1="129.756" x2="54.5011" y2="239.472" gradientUnits="userSpaceOnUse">
<stop stop-color="#C7C7C7"/>
<stop offset="1" stop-color="#5D5D5D"/>
</linearGradient>
<linearGradient id="paint52_linear" x1="192.47" y1="130.868" x2="55.3909" y2="240.586" gradientUnits="userSpaceOnUse">
<stop stop-color="#C7C7C7"/>
<stop offset="1" stop-color="#5D5D5D"/>
</linearGradient>
<linearGradient id="paint53_linear" x1="193.362" y1="131.981" x2="56.2805" y2="241.7" gradientUnits="userSpaceOnUse">
<stop stop-color="#C7C7C7"/>
<stop offset="1" stop-color="#5D5D5D"/>
</linearGradient>
<linearGradient id="paint54_linear" x1="194.253" y1="133.093" x2="57.1699" y2="242.814" gradientUnits="userSpaceOnUse">
<stop stop-color="#C7C7C7"/>
<stop offset="1" stop-color="#5D5D5D"/>
</linearGradient>
<linearGradient id="paint55_linear" x1="195.143" y1="134.206" x2="58.0639" y2="243.924" gradientUnits="userSpaceOnUse">
<stop stop-color="#C7C7C7"/>
<stop offset="1" stop-color="#5D5D5D"/>
</linearGradient>
<linearGradient id="paint56_linear" x1="196.034" y1="135.32" x2="58.9544" y2="245.038" gradientUnits="userSpaceOnUse">
<stop stop-color="#C7C7C7"/>
<stop offset="1" stop-color="#5D5D5D"/>
</linearGradient>
<linearGradient id="paint57_linear" x1="196.925" y1="136.432" x2="59.8432" y2="246.152" gradientUnits="userSpaceOnUse">
<stop stop-color="#C7C7C7"/>
<stop offset="1" stop-color="#5D5D5D"/>
</linearGradient>
<linearGradient id="paint58_linear" x1="191.942" y1="130.218" x2="54.8686" y2="239.931" gradientUnits="userSpaceOnUse">
<stop stop-color="#C7C7C7"/>
<stop offset="1" stop-color="#5D5D5D"/>
</linearGradient>
<linearGradient id="paint59_linear" x1="190.726" y1="128.691" x2="53.6484" y2="238.408" gradientUnits="userSpaceOnUse">
<stop stop-color="#C7C7C7"/>
<stop offset="1" stop-color="#5D5D5D"/>
</linearGradient>
<linearGradient id="paint60_linear" x1="192.84" y1="131.326" x2="55.7579" y2="241.046" gradientUnits="userSpaceOnUse">
<stop stop-color="#C7C7C7"/>
<stop offset="1" stop-color="#5D5D5D"/>
</linearGradient>
<linearGradient id="paint61_linear" x1="193.726" y1="132.443" x2="56.6505" y2="242.157" gradientUnits="userSpaceOnUse">
<stop stop-color="#C7C7C7"/>
<stop offset="1" stop-color="#5D5D5D"/>
</linearGradient>
<linearGradient id="paint62_linear" x1="194.619" y1="133.554" x2="57.5415" y2="243.271" gradientUnits="userSpaceOnUse">
<stop stop-color="#C7C7C7"/>
<stop offset="1" stop-color="#5D5D5D"/>
</linearGradient>
<linearGradient id="paint63_linear" x1="195.512" y1="134.666" x2="58.4299" y2="244.385" gradientUnits="userSpaceOnUse">
<stop stop-color="#C7C7C7"/>
<stop offset="1" stop-color="#5D5D5D"/>
</linearGradient>
<linearGradient id="paint64_linear" x1="196.402" y1="135.779" x2="59.3216" y2="245.497" gradientUnits="userSpaceOnUse">
<stop stop-color="#C7C7C7"/>
<stop offset="1" stop-color="#5D5D5D"/>
</linearGradient>
<linearGradient id="paint65_linear" x1="197.293" y1="136.893" x2="60.2128" y2="246.611" gradientUnits="userSpaceOnUse">
<stop stop-color="#C7C7C7"/>
<stop offset="1" stop-color="#5D5D5D"/>
</linearGradient>
<linearGradient id="paint66_linear" x1="198.182" y1="138.007" x2="61.1061" y2="247.722" gradientUnits="userSpaceOnUse">
<stop stop-color="#C7C7C7"/>
<stop offset="1" stop-color="#5D5D5D"/>
</linearGradient>
<linearGradient id="paint67_linear" x1="199.074" y1="139.119" x2="61.9961" y2="248.836" gradientUnits="userSpaceOnUse">
<stop stop-color="#C7C7C7"/>
<stop offset="1" stop-color="#5D5D5D"/>
</linearGradient>
<linearGradient id="paint68_linear" x1="199.963" y1="140.234" x2="62.8907" y2="249.946" gradientUnits="userSpaceOnUse">
<stop stop-color="#C7C7C7"/>
<stop offset="1" stop-color="#5D5D5D"/>
</linearGradient>
<linearGradient id="paint69_linear" x1="200.856" y1="141.345" x2="63.7763" y2="251.063" gradientUnits="userSpaceOnUse">
<stop stop-color="#C7C7C7"/>
<stop offset="1" stop-color="#5D5D5D"/>
</linearGradient>
<linearGradient id="paint70_linear" x1="202.088" y1="142.883" x2="65.0073" y2="252.601" gradientUnits="userSpaceOnUse">
<stop stop-color="#C7C7C7"/>
<stop offset="1" stop-color="#5D5D5D"/>
</linearGradient>
<linearGradient id="paint71_linear" x1="197.905" y1="137.657" x2="60.8255" y2="247.375" gradientUnits="userSpaceOnUse">
<stop stop-color="#C7C7C7"/>
<stop offset="1" stop-color="#5D5D5D"/>
</linearGradient>
<linearGradient id="paint72_linear" x1="196.458" y1="135.849" x2="59.3785" y2="245.567" gradientUnits="userSpaceOnUse">
<stop stop-color="#C7C7C7"/>
<stop offset="1" stop-color="#5D5D5D"/>
</linearGradient>
<linearGradient id="paint73_linear" x1="198.795" y1="138.772" x2="61.7159" y2="248.489" gradientUnits="userSpaceOnUse">
<stop stop-color="#C7C7C7"/>
<stop offset="1" stop-color="#5D5D5D"/>
</linearGradient>
<linearGradient id="paint74_linear" x1="199.683" y1="139.886" x2="62.6092" y2="249.6" gradientUnits="userSpaceOnUse">
<stop stop-color="#C7C7C7"/>
<stop offset="1" stop-color="#5D5D5D"/>
</linearGradient>
<linearGradient id="paint75_linear" x1="200.574" y1="141" x2="63.5011" y2="250.713" gradientUnits="userSpaceOnUse">
<stop stop-color="#C7C7C7"/>
<stop offset="1" stop-color="#5D5D5D"/>
</linearGradient>
<linearGradient id="paint76_linear" x1="201.468" y1="142.111" x2="64.3899" y2="251.827" gradientUnits="userSpaceOnUse">
<stop stop-color="#C7C7C7"/>
<stop offset="1" stop-color="#5D5D5D"/>
</linearGradient>
<linearGradient id="paint77_linear" x1="202.359" y1="143.224" x2="65.281" y2="252.941" gradientUnits="userSpaceOnUse">
<stop stop-color="#C7C7C7"/>
<stop offset="1" stop-color="#5D5D5D"/>
</linearGradient>
<linearGradient id="paint78_linear" x1="203.249" y1="144.338" x2="66.1732" y2="254.052" gradientUnits="userSpaceOnUse">
<stop stop-color="#C7C7C7"/>
<stop offset="1" stop-color="#5D5D5D"/>
</linearGradient>
<linearGradient id="paint79_linear" x1="204.143" y1="145.448" x2="67.0586" y2="255.17" gradientUnits="userSpaceOnUse">
<stop stop-color="#C7C7C7"/>
<stop offset="1" stop-color="#5D5D5D"/>
</linearGradient>
<linearGradient id="paint80_linear" x1="205.033" y1="146.563" x2="67.9523" y2="256.281" gradientUnits="userSpaceOnUse">
<stop stop-color="#C7C7C7"/>
<stop offset="1" stop-color="#5D5D5D"/>
</linearGradient>
<linearGradient id="paint81_linear" x1="205.923" y1="147.676" x2="68.843" y2="257.394" gradientUnits="userSpaceOnUse">
<stop stop-color="#C7C7C7"/>
<stop offset="1" stop-color="#5D5D5D"/>
</linearGradient>
<linearGradient id="paint82_linear" x1="207.374" y1="149.487" x2="70.292" y2="259.206" gradientUnits="userSpaceOnUse">
<stop stop-color="#C7C7C7"/>
<stop offset="1" stop-color="#5D5D5D"/>
</linearGradient>
<linearGradient id="paint83_linear" x1="206.183" y1="143.873" x2="152.524" y2="237.331" gradientUnits="userSpaceOnUse">
<stop stop-color="#DDDDDD"/>
<stop offset="1" stop-color="#BCBCBC"/>
</linearGradient>
<linearGradient id="paint84_linear" x1="50.1669" y1="117.912" x2="40.0587" y2="132.063" gradientUnits="userSpaceOnUse">
<stop stop-color="#DDDDDD"/>
<stop offset="1" stop-color="#BFBFBF"/>
</linearGradient>
<linearGradient id="paint85_linear" x1="144.547" y1="45.3161" x2="147.2" y2="80.9175" gradientUnits="userSpaceOnUse">
<stop stop-color="#FDD751"/>
<stop offset="1" stop-color="#FFAF3F"/>
</linearGradient>
<linearGradient id="paint86_linear" x1="143.205" y1="56.8144" x2="139.778" y2="63.6696" gradientUnits="userSpaceOnUse">
<stop stop-color="#FFEBB6"/>
<stop offset="1" stop-color="#FFA300"/>
</linearGradient>
<linearGradient id="paint87_linear" x1="43.4675" y1="155.604" x2="46.1207" y2="191.205" gradientUnits="userSpaceOnUse">
<stop stop-color="#009401"/>
<stop offset="1" stop-color="#29FFEE"/>
</linearGradient>
<linearGradient id="paint88_linear" x1="42.1245" y1="167.103" x2="38.6971" y2="173.958" gradientUnits="userSpaceOnUse">
<stop stop-color="#507F00"/>
<stop offset="1" stop-color="#98FFFE"/>
</linearGradient>
<linearGradient id="paint89_linear" x1="150.78" y1="190.114" x2="137.555" y2="151.763" gradientUnits="userSpaceOnUse">
<stop offset="0.1314" stop-color="#9520EF"/>
<stop offset="0.8903" stop-color="#560058"/>
</linearGradient>
<linearGradient id="paint90_linear" x1="127.492" y1="162.726" x2="124.54" y2="168.083" gradientUnits="userSpaceOnUse">
<stop stop-color="#B24BFF"/>
<stop offset="1" stop-color="#560058"/>
</linearGradient>
<linearGradient id="paint91_linear" x1="178.658" y1="156.869" x2="141.15" y2="134.043" gradientUnits="userSpaceOnUse">
<stop stop-color="#9520EF"/>
<stop offset="0.1284" stop-color="#921FE9"/>
<stop offset="0.3045" stop-color="#8B1BD7"/>
<stop offset="0.5081" stop-color="#7F15BA"/>
<stop offset="0.7324" stop-color="#6E0C92"/>
<stop offset="0.9711" stop-color="#59015F"/>
<stop offset="1" stop-color="#560058"/>
</linearGradient>
<linearGradient id="paint92_linear" x1="116.385" y1="186.456" x2="131.812" y2="144.33" gradientUnits="userSpaceOnUse">
<stop stop-color="#9520EF"/>
<stop offset="0.1349" stop-color="#901DE3"/>
<stop offset="0.3818" stop-color="#8216C1"/>
<stop offset="0.7102" stop-color="#6C0B8C"/>
<stop offset="1" stop-color="#560058"/>
</linearGradient>
<linearGradient id="paint93_linear" x1="140.767" y1="140.17" x2="167.891" y2="187.286" gradientUnits="userSpaceOnUse">
<stop stop-color="#9520EF"/>
<stop offset="1" stop-color="#560058"/>
</linearGradient>
<linearGradient id="paint94_linear" x1="164.937" y1="198.128" x2="151.712" y2="159.778" gradientUnits="userSpaceOnUse">
<stop offset="0.1314" stop-color="#9520EF"/>
<stop offset="0.8903" stop-color="#560058"/>
</linearGradient>
<linearGradient id="paint95_linear" x1="141.649" y1="170.74" x2="138.697" y2="176.097" gradientUnits="userSpaceOnUse">
<stop stop-color="#B24BFF"/>
<stop offset="1" stop-color="#560058"/>
</linearGradient>
<linearGradient id="paint96_linear" x1="192.815" y1="164.884" x2="155.306" y2="142.058" gradientUnits="userSpaceOnUse">
<stop stop-color="#9520EF"/>
<stop offset="0.1284" stop-color="#921FE9"/>
<stop offset="0.3045" stop-color="#8B1BD7"/>
<stop offset="0.5081" stop-color="#7F15BA"/>
<stop offset="0.7324" stop-color="#6E0C92"/>
<stop offset="0.9711" stop-color="#59015F"/>
<stop offset="1" stop-color="#560058"/>
</linearGradient>
<linearGradient id="paint97_linear" x1="130.542" y1="194.47" x2="145.969" y2="152.344" gradientUnits="userSpaceOnUse">
<stop stop-color="#9520EF"/>
<stop offset="0.1349" stop-color="#901DE3"/>
<stop offset="0.3818" stop-color="#8216C1"/>
<stop offset="0.7102" stop-color="#6C0B8C"/>
<stop offset="1" stop-color="#560058"/>
</linearGradient>
<linearGradient id="paint98_linear" x1="154.923" y1="148.185" x2="182.047" y2="195.3" gradientUnits="userSpaceOnUse">
<stop stop-color="#9520EF"/>
<stop offset="1" stop-color="#560058"/>
</linearGradient>
<linearGradient id="paint99_linear" x1="150.78" y1="190.114" x2="137.555" y2="151.763" gradientUnits="userSpaceOnUse">
<stop stop-color="#1AAA00"/>
<stop offset="1" stop-color="#08BF00"/>
</linearGradient>
<linearGradient id="paint100_linear" x1="127.492" y1="162.726" x2="124.54" y2="168.083" gradientUnits="userSpaceOnUse">
<stop stop-color="#03AA00"/>
<stop offset="0.3694" stop-color="#039E00"/>
<stop offset="1" stop-color="#027F00"/>
</linearGradient>
<linearGradient id="paint101_linear" x1="178.658" y1="156.869" x2="141.15" y2="134.043" gradientUnits="userSpaceOnUse">
<stop stop-color="#1AAA00"/>
<stop offset="1" stop-color="#08BF00"/>
</linearGradient>
<linearGradient id="paint102_linear" x1="116.385" y1="186.456" x2="131.812" y2="144.33" gradientUnits="userSpaceOnUse">
<stop stop-color="#1AAA00"/>
<stop offset="1" stop-color="#0F9400"/>
</linearGradient>
<linearGradient id="paint103_linear" x1="140.767" y1="140.17" x2="167.891" y2="187.286" gradientUnits="userSpaceOnUse">
<stop stop-color="#1AAA00"/>
<stop offset="1" stop-color="#08BF00"/>
</linearGradient>
<linearGradient id="paint104_linear" x1="164.937" y1="198.128" x2="151.712" y2="159.778" gradientUnits="userSpaceOnUse">
<stop offset="0.1314" stop-color="#9520EF"/>
<stop offset="0.8903" stop-color="#560058"/>
</linearGradient>
<linearGradient id="paint105_linear" x1="141.649" y1="170.74" x2="138.697" y2="176.097" gradientUnits="userSpaceOnUse">
<stop stop-color="#B24BFF"/>
<stop offset="1" stop-color="#560058"/>
</linearGradient>
<linearGradient id="paint106_linear" x1="192.815" y1="164.884" x2="155.306" y2="142.058" gradientUnits="userSpaceOnUse">
<stop stop-color="#9520EF"/>
<stop offset="0.1284" stop-color="#921FE9"/>
<stop offset="0.3045" stop-color="#8B1BD7"/>
<stop offset="0.5081" stop-color="#7F15BA"/>
<stop offset="0.7324" stop-color="#6E0C92"/>
<stop offset="0.9711" stop-color="#59015F"/>
<stop offset="1" stop-color="#560058"/>
</linearGradient>
<linearGradient id="paint107_linear" x1="130.542" y1="194.471" x2="145.969" y2="152.344" gradientUnits="userSpaceOnUse">
<stop stop-color="#9520EF"/>
<stop offset="0.1349" stop-color="#901DE3"/>
<stop offset="0.3818" stop-color="#8216C1"/>
<stop offset="0.7102" stop-color="#6C0B8C"/>
<stop offset="1" stop-color="#560058"/>
</linearGradient>
<linearGradient id="paint108_linear" x1="154.923" y1="148.185" x2="182.047" y2="195.3" gradientUnits="userSpaceOnUse">
<stop stop-color="#9520EF"/>
<stop offset="1" stop-color="#560058"/>
</linearGradient>
<linearGradient id="paint109_linear" x1="164.937" y1="198.128" x2="151.712" y2="159.778" gradientUnits="userSpaceOnUse">
<stop stop-color="#00BF1C"/>
<stop offset="1" stop-color="#0A6A00"/>
</linearGradient>
<linearGradient id="paint110_linear" x1="141.649" y1="170.74" x2="138.697" y2="176.097" gradientUnits="userSpaceOnUse">
<stop stop-color="#CCFFBF"/>
<stop offset="1" stop-color="#097F00"/>
</linearGradient>
<linearGradient id="paint111_linear" x1="192.815" y1="164.884" x2="155.306" y2="142.058" gradientUnits="userSpaceOnUse">
<stop stop-color="#03AA00"/>
<stop offset="0.1386" stop-color="#03A60C"/>
<stop offset="0.3922" stop-color="#029B2E"/>
<stop offset="0.7296" stop-color="#018A63"/>
<stop offset="1" stop-color="#007A92"/>
</linearGradient>
<linearGradient id="paint112_linear" x1="130.542" y1="194.471" x2="145.969" y2="152.344" gradientUnits="userSpaceOnUse">
<stop stop-color="#03AA00"/>
<stop offset="0.1386" stop-color="#03A60C"/>
<stop offset="0.3922" stop-color="#029B2E"/>
<stop offset="0.7296" stop-color="#018A63"/>
<stop offset="1" stop-color="#007A92"/>
</linearGradient>
<linearGradient id="paint113_linear" x1="154.923" y1="148.185" x2="182.047" y2="195.3" gradientUnits="userSpaceOnUse">
<stop stop-color="#00BF1C"/>
<stop offset="0.0277305" stop-color="#00BD1F"/>
<stop offset="1" stop-color="#007A92"/>
</linearGradient>
</defs>
</svg>
