<svg width="300" height="300" viewBox="0 0 300 300" fill="none" xmlns="http://www.w3.org/2000/svg">
<path d="M279.298 106.106C279.298 107.408 280.205 108.994 281.339 109.617C282.473 110.24 283.38 109.73 283.38 108.428C283.38 107.125 282.473 105.539 281.339 104.916C280.205 104.293 279.298 104.803 279.298 106.106Z" fill="white"/>
<path d="M271.644 101.688C271.644 102.991 272.551 104.577 273.685 105.2C274.819 105.823 275.726 105.313 275.726 104.01C275.726 102.708 274.819 101.122 273.685 100.499C272.551 99.8757 271.644 100.385 271.644 101.688Z" fill="white"/>
<path d="M264.046 97.3272C264.046 98.6299 264.954 100.216 266.087 100.839C267.221 101.462 268.128 100.952 268.128 99.6493C268.128 98.3467 267.221 96.7608 266.087 96.1378C264.954 95.5148 264.046 96.0245 264.046 97.3272Z" fill="white"/>
<path d="M162.106 138.049C159.668 136.633 155.756 136.633 153.318 138.049L23.4837 212.923C21.0458 214.339 21.0458 216.605 23.4837 217.964L109.549 267.578C111.987 268.994 115.899 268.994 118.337 267.578L248.171 192.704C250.609 191.288 250.609 189.023 248.171 187.663L162.106 138.049Z" fill="url(#paint0_linear)"/>
<path d="M21.7266 215.472V220.456C21.7266 221.419 22.2935 222.325 23.5408 223.061L109.606 272.676C112.044 274.091 115.956 274.091 118.394 272.676L248.229 197.801C249.419 197.122 250.043 196.215 250.043 195.253V190.269V190.212C250.043 191.118 249.419 192.024 248.229 192.704L118.394 267.578C115.956 268.994 112.044 268.994 109.606 267.578L23.5408 217.964C22.2935 217.284 21.7266 216.378 21.7266 215.472Z" fill="url(#paint1_linear)"/>
<path d="M158.081 31.0615C158.081 28.2863 156.097 27.1536 153.715 28.5129L23.8808 103.387C21.4429 104.803 19.4585 108.201 19.4585 110.976V210.205C19.4585 212.98 21.4429 214.113 23.8808 212.753L153.715 137.879C156.153 136.463 158.081 133.065 158.081 130.29V31.0615Z" fill="url(#paint2_linear)"/>
<path d="M27.3963 203.635C26.4324 204.201 25.6387 203.748 25.6387 202.615V111.486C25.6387 110.354 26.4324 108.994 27.3963 108.428L150.201 37.6315C151.164 37.0652 151.958 37.5182 151.958 38.651V129.78C151.958 130.913 151.164 132.272 150.201 132.838L27.3963 203.635Z" fill="url(#paint3_linear)"/>
<path d="M204.912 172.088C205.423 172.371 205.423 172.824 204.912 173.107L84.4894 242.544C83.9791 242.828 83.1854 242.828 82.7318 242.544L34.5966 215.019C34.0863 214.736 34.0863 214.283 34.5966 213.999L155.02 144.506C155.53 144.222 156.324 144.222 156.777 144.506L204.912 172.088Z" fill="url(#paint4_linear)"/>
<path d="M56.7079 217.002C57.2182 217.285 57.2182 217.738 56.7079 218.021L51.3784 221.079C50.8682 221.363 50.1311 221.363 49.6208 221.079L44.2914 217.964C43.7811 217.681 43.7811 217.228 44.2914 216.945L49.6208 213.83C50.1311 213.547 50.8682 213.547 51.3784 213.83L56.7079 217.002Z" fill="url(#paint5_linear)"/>
<path d="M64.9286 212.244C65.4389 212.527 65.4389 212.98 64.9286 213.264L59.5991 216.322C59.0889 216.605 58.3518 216.605 57.8416 216.322L52.5121 213.264C52.0018 212.98 52.0018 212.527 52.5121 212.244L57.8416 209.186C58.3518 208.903 59.0889 208.903 59.5991 209.186L64.9286 212.244Z" fill="url(#paint6_linear)"/>
<path d="M73.0932 207.543C73.6034 207.826 73.6034 208.28 73.0932 208.563L67.7637 211.621C67.2534 211.904 66.5164 211.904 66.0061 211.621L60.6766 208.563C60.1664 208.28 60.1664 207.826 60.6766 207.543L66.0061 204.485C66.5164 204.202 67.2534 204.202 67.7637 204.485L73.0932 207.543Z" fill="url(#paint7_linear)"/>
<path d="M81.3134 202.842C81.8236 203.126 81.8236 203.579 81.3134 203.862L75.9839 206.92C75.4736 207.203 74.7366 207.203 74.2263 206.92L68.8969 203.862C68.3866 203.579 68.3866 203.126 68.8969 202.842L74.2263 199.784C74.7366 199.501 75.4736 199.501 75.9839 199.784L81.3134 202.842Z" fill="url(#paint8_linear)"/>
<path d="M89.4779 198.085C89.9882 198.368 89.9882 198.821 89.4779 199.104L84.1485 202.163C83.6382 202.446 82.9011 202.446 82.3909 202.163L77.0614 199.104C76.5511 198.821 76.5511 198.368 77.0614 198.085L82.3909 195.026C82.9011 194.743 83.6382 194.743 84.1485 195.026L89.4779 198.085Z" fill="url(#paint9_linear)"/>
<path d="M97.6425 193.384C98.1527 193.667 98.1527 194.12 97.6425 194.403L92.313 197.462C91.8027 197.745 91.0657 197.745 90.5554 197.462L85.226 194.403C84.7157 194.12 84.7157 193.667 85.226 193.384L90.5554 190.325C91.0657 190.042 91.8027 190.042 92.313 190.325L97.6425 193.384Z" fill="url(#paint10_linear)"/>
<path d="M105.863 188.626C106.373 188.909 106.373 189.363 105.863 189.646L100.534 192.704C100.023 192.987 99.2864 192.987 98.7761 192.704L93.4467 189.646C92.9364 189.363 92.9364 188.909 93.4467 188.626L98.7761 185.568C99.2864 185.285 100.023 185.285 100.534 185.568L105.863 188.626Z" fill="url(#paint11_linear)"/>
<path d="M114.028 183.926C114.538 184.209 114.538 184.662 114.028 184.945L108.698 188.003C108.188 188.287 107.451 188.287 106.941 188.003L101.611 184.945C101.101 184.662 101.101 184.209 101.611 183.926L106.941 180.867C107.451 180.584 108.188 180.584 108.698 180.867L114.028 183.926Z" fill="url(#paint12_linear)"/>
<path d="M122.249 179.225C122.759 179.508 122.759 179.961 122.249 180.244L116.919 183.359C116.409 183.642 115.672 183.642 115.162 183.359L109.832 180.244C109.322 179.961 109.322 179.508 109.832 179.225L115.162 176.166C115.672 175.883 116.409 175.883 116.919 176.166L122.249 179.225Z" fill="url(#paint13_linear)"/>
<path d="M130.413 174.467C130.923 174.75 130.923 175.203 130.413 175.487L125.084 178.602C124.573 178.885 123.836 178.885 123.326 178.602L117.996 175.487C117.486 175.203 117.486 174.75 117.996 174.467L123.326 171.409C123.836 171.125 124.573 171.125 125.084 171.409L130.413 174.467Z" fill="url(#paint14_linear)"/>
<path d="M138.634 169.766C139.144 170.049 139.144 170.502 138.634 170.786L133.304 173.901C132.794 174.184 132.057 174.184 131.547 173.901L126.217 170.786C125.707 170.502 125.707 170.049 126.217 169.766L131.547 166.708C132.057 166.425 132.794 166.425 133.304 166.708L138.634 169.766Z" fill="url(#paint15_linear)"/>
<path d="M146.798 165.009C147.309 165.292 147.309 165.745 146.798 166.028L141.469 169.086C140.959 169.37 140.165 169.37 139.711 169.086L134.382 166.028C133.871 165.745 133.871 165.292 134.382 165.009L139.711 161.95C140.165 161.667 140.959 161.667 141.469 161.95L146.798 165.009Z" fill="url(#paint16_linear)"/>
<path d="M154.962 160.308C155.473 160.591 155.473 161.044 154.962 161.327L149.633 164.386C149.123 164.669 148.386 164.669 147.875 164.386L142.546 161.327C142.036 161.044 142.036 160.591 142.546 160.308L147.875 157.249C148.386 156.966 149.123 156.966 149.633 157.249L154.962 160.308Z" fill="url(#paint17_linear)"/>
<path d="M48.8835 212.187C49.3938 212.471 49.3938 212.924 48.8835 213.207L43.2706 216.435C42.7603 216.718 42.0232 216.718 41.513 216.435L39.1317 215.076C38.6215 214.793 38.6215 214.34 39.1317 214.056L44.7447 210.828C45.2549 210.545 45.992 210.545 46.5023 210.828L48.8835 212.187Z" fill="url(#paint18_linear)"/>
<path d="M57.3874 207.26C57.8977 207.543 57.8977 207.996 57.3874 208.279L51.7745 211.508C51.2642 211.791 50.5271 211.791 50.0169 211.508L47.6356 210.148C47.1254 209.865 47.1254 209.412 47.6356 209.129L53.2486 205.901C53.7588 205.617 54.4959 205.617 55.0062 205.901L57.3874 207.26Z" fill="url(#paint19_linear)"/>
<path d="M65.8356 202.389C66.3459 202.672 66.3459 203.125 65.8356 203.409L60.2227 206.637C59.7124 206.92 58.9754 206.92 58.4651 206.637L56.0839 205.278C55.5736 204.994 55.5736 204.541 56.0839 204.258L61.6968 201.03C62.2071 200.747 62.9441 200.747 63.4544 201.03L65.8356 202.389Z" fill="url(#paint20_linear)"/>
<path d="M74.3405 197.462C74.8508 197.745 74.8508 198.198 74.3405 198.481L68.7276 201.71C68.2173 201.993 67.4803 201.993 66.97 201.71L64.5888 200.35C64.0785 200.067 64.0785 199.614 64.5888 199.331L70.2017 196.103C70.712 195.819 71.449 195.819 71.9593 196.103L74.3405 197.462Z" fill="url(#paint21_linear)"/>
<path d="M82.8444 192.591C83.3547 192.874 83.3547 193.327 82.8444 193.61L77.2315 196.839C76.7212 197.122 75.9842 197.122 75.4739 196.839L73.0927 195.479C72.5824 195.196 72.5824 194.743 73.0927 194.46L78.7056 191.232C79.2159 190.948 79.9529 190.948 80.4632 191.232L82.8444 192.591Z" fill="url(#paint22_linear)"/>
<path d="M91.2927 187.72C91.803 188.003 91.803 188.456 91.2927 188.74L85.6797 191.968C85.1695 192.251 84.4324 192.251 83.9222 191.968L81.5409 190.609C81.0306 190.325 81.0306 189.872 81.5409 189.589L87.1538 186.361C87.6641 186.078 88.4012 186.078 88.9114 186.361L91.2927 187.72Z" fill="url(#paint23_linear)"/>
<path d="M99.7971 182.793C100.307 183.076 100.307 183.529 99.7971 183.812L94.1841 187.041C93.6739 187.324 92.9368 187.324 92.4266 187.041L90.0453 185.681C89.535 185.398 89.535 184.945 90.0453 184.662L95.6582 181.434C96.1685 181.15 96.9056 181.15 97.4158 181.434L99.7971 182.793Z" fill="url(#paint24_linear)"/>
<path d="M108.244 177.922C108.755 178.205 108.755 178.658 108.244 178.941L102.631 182.17C102.121 182.453 101.384 182.453 100.874 182.17L98.4926 180.81C97.9823 180.527 97.9823 180.074 98.4926 179.791L104.106 176.562C104.616 176.279 105.353 176.279 105.863 176.562L108.244 177.922Z" fill="url(#paint25_linear)"/>
<path d="M116.749 173.051C117.259 173.334 117.259 173.787 116.749 174.071L111.136 177.299C110.626 177.582 109.888 177.582 109.378 177.299L106.997 175.94C106.487 175.656 106.487 175.203 106.997 174.92L112.61 171.692C113.12 171.409 113.857 171.409 114.367 171.692L116.749 173.051Z" fill="url(#paint26_linear)"/>
<path d="M125.254 168.124C125.764 168.407 125.764 168.86 125.254 169.143L119.641 172.371C119.13 172.655 118.393 172.655 117.883 172.371L115.502 171.012C114.992 170.729 114.992 170.276 115.502 169.993L121.115 166.764C121.625 166.481 122.362 166.481 122.872 166.764L125.254 168.124Z" fill="url(#paint27_linear)"/>
<path d="M133.701 163.253C134.211 163.536 134.211 163.989 133.701 164.272L128.088 167.501C127.578 167.784 126.841 167.784 126.33 167.501L123.949 166.141C123.439 165.858 123.439 165.405 123.949 165.122L129.562 161.894C130.072 161.61 130.809 161.61 131.32 161.894L133.701 163.253Z" fill="url(#paint28_linear)"/>
<path d="M142.206 158.325C142.716 158.609 142.716 159.062 142.206 159.345L136.593 162.573C136.083 162.856 135.346 162.856 134.835 162.573L132.454 161.214C131.944 160.931 131.944 160.478 132.454 160.194L138.067 156.966C138.577 156.683 139.314 156.683 139.825 156.966L142.206 158.325Z" fill="url(#paint29_linear)"/>
<path d="M150.71 153.455C151.22 153.738 151.22 154.191 150.71 154.474L145.097 157.703C144.587 157.986 143.85 157.986 143.34 157.703L140.958 156.343C140.448 156.06 140.448 155.607 140.958 155.324L146.571 152.095C147.082 151.812 147.819 151.812 148.329 152.095L150.71 153.455Z" fill="url(#paint30_linear)"/>
<path d="M159.215 148.527C159.725 148.81 159.725 149.264 159.215 149.547L153.602 152.775C153.092 153.058 152.355 153.058 151.845 152.775L149.463 151.416C148.953 151.133 148.953 150.679 149.463 150.396L155.076 147.168C155.586 146.885 156.324 146.885 156.834 147.168L159.215 148.527Z" fill="url(#paint31_linear)"/>
<path d="M167.266 153.228C167.776 153.511 167.776 153.964 167.266 154.248L157.798 159.685C157.288 159.968 156.551 159.968 156.04 159.685L150.711 156.626C150.201 156.343 150.201 155.89 150.711 155.607L160.179 150.17C160.689 149.886 161.426 149.886 161.937 150.17L167.266 153.228Z" fill="url(#paint32_linear)"/>
<path d="M89.535 235.918C90.0453 236.201 90.0453 236.655 89.535 236.938L84.2056 239.996C83.6953 240.279 82.9583 240.279 82.448 239.996L77.1185 236.938C76.6083 236.655 76.6083 236.201 77.1185 235.918L82.448 232.86C82.9583 232.577 83.6953 232.577 84.2056 232.86L89.535 235.918Z" fill="url(#paint33_linear)"/>
<path d="M97.7557 231.217C98.266 231.501 98.266 231.954 97.7557 232.237L92.4263 235.295C91.916 235.578 91.179 235.578 90.6687 235.295L85.3392 232.237C84.829 231.954 84.829 231.501 85.3392 231.217L90.6687 228.159C91.179 227.876 91.916 227.876 92.4263 228.159L97.7557 231.217Z" fill="url(#paint34_linear)"/>
<path d="M105.92 226.46C106.431 226.743 106.431 227.196 105.92 227.479L100.591 230.538C100.081 230.821 99.3435 230.821 98.8332 230.538L93.5038 227.479C92.9935 227.196 92.9935 226.743 93.5038 226.46L98.8332 223.401C99.3435 223.118 100.081 223.118 100.591 223.401L105.92 226.46Z" fill="url(#paint35_linear)"/>
<path d="M187.733 174.467C188.243 174.75 188.243 175.204 187.733 175.487L182.403 178.545C181.893 178.828 181.156 178.828 180.646 178.545L179.398 177.809C178.888 177.526 178.888 177.073 179.398 176.789L184.728 173.731C185.238 173.448 185.975 173.448 186.485 173.731L187.733 174.467Z" fill="url(#paint36_linear)"/>
<path d="M183.764 181.603C184.274 181.887 184.274 182.34 183.764 182.623L178.434 185.681C177.924 185.964 177.187 185.964 176.677 185.681L175.43 184.945C174.919 184.662 174.919 184.209 175.43 183.926L180.759 180.867C181.269 180.584 182.006 180.584 182.517 180.867L183.764 181.603Z" fill="url(#paint37_linear)"/>
<path d="M191.928 176.903C192.439 177.186 192.439 177.639 191.928 177.922L186.599 180.98C186.089 181.264 185.352 181.264 184.841 180.98L183.594 180.244C183.084 179.961 183.084 179.508 183.594 179.225L188.924 176.166C189.377 175.883 190.171 175.883 190.681 176.166L191.928 176.903Z" fill="url(#paint38_linear)"/>
<path d="M200.093 172.145C200.603 172.428 200.603 172.881 200.093 173.164L194.763 176.223C194.253 176.506 193.516 176.506 193.006 176.223L191.758 175.487C191.248 175.203 191.248 174.75 191.758 174.467L197.088 171.409C197.598 171.125 198.335 171.125 198.845 171.409L200.093 172.145Z" fill="url(#paint39_linear)"/>
<path d="M114.141 221.759C114.651 222.042 114.651 222.495 114.141 222.779L108.812 225.837C108.301 226.12 107.564 226.12 107.054 225.837L101.724 222.779C101.214 222.495 101.214 222.042 101.724 221.759L107.054 218.701C107.564 218.417 108.301 218.417 108.812 218.701L114.141 221.759Z" fill="url(#paint40_linear)"/>
<path d="M159.214 195.762C159.725 196.046 159.725 196.499 159.214 196.782L116.976 221.136C116.465 221.419 115.728 221.419 115.218 221.136L109.889 218.077C109.378 217.794 109.378 217.341 109.889 217.058L152.127 192.704C152.638 192.421 153.375 192.421 153.885 192.704L159.214 195.762Z" fill="url(#paint41_linear)"/>
<path d="M167.379 191.062C167.89 191.345 167.89 191.798 167.379 192.081L162.05 195.139C161.54 195.423 160.803 195.423 160.292 195.139L154.963 192.081C154.453 191.798 154.453 191.345 154.963 191.062L160.292 188.003C160.803 187.72 161.54 187.72 162.05 188.003L167.379 191.062Z" fill="url(#paint42_linear)"/>
<path d="M175.543 186.304C176.054 186.587 176.054 187.041 175.543 187.324L170.214 190.382C169.704 190.665 168.967 190.665 168.456 190.382L163.127 187.324C162.617 187.041 162.617 186.587 163.127 186.304L168.456 183.246C168.967 182.963 169.704 182.963 170.214 183.246L175.543 186.304Z" fill="url(#paint43_linear)"/>
<path d="M77.2323 214.623C77.7426 214.906 77.7426 215.359 77.2323 215.642L71.9028 218.701C71.3926 218.984 70.6555 218.984 70.1453 218.701L64.8158 215.642C64.3055 215.359 64.3055 214.906 64.8158 214.623L70.1453 211.564C70.6555 211.281 71.3926 211.281 71.9028 211.564L77.2323 214.623Z" fill="url(#paint44_linear)"/>
<path d="M69.0113 219.324C69.5215 219.607 69.5215 220.06 69.0113 220.343L59.543 225.78C59.0327 226.063 58.2957 226.063 57.7854 225.78L52.4559 222.722C51.9457 222.439 51.9457 221.985 52.4559 221.702L61.9242 216.265C62.4345 215.982 63.1716 215.982 63.6818 216.265L69.0113 219.324Z" fill="url(#paint45_linear)"/>
<path d="M85.3959 209.865C85.9061 210.148 85.9061 210.601 85.3959 210.884L80.0664 213.943C79.5562 214.226 78.8191 214.226 78.3088 213.943L72.9794 210.884C72.4691 210.601 72.4691 210.148 72.9794 209.865L78.3088 206.807C78.8191 206.523 79.5562 206.523 80.0664 206.807L85.3959 209.865Z" fill="url(#paint46_linear)"/>
<path d="M93.6171 205.164C94.1273 205.448 94.1273 205.901 93.6171 206.184L88.2876 209.242C87.7773 209.525 87.0403 209.525 86.53 209.242L81.2006 206.184C80.6903 205.901 80.6903 205.448 81.2006 205.164L86.53 202.049C87.0403 201.766 87.7773 201.766 88.2876 202.049L93.6171 205.164Z" fill="url(#paint47_linear)"/>
<path d="M101.781 200.463C102.291 200.747 102.291 201.2 101.781 201.483L96.4517 204.541C95.9414 204.824 95.2044 204.824 94.6941 204.541L89.3646 201.483C88.8544 201.2 88.8544 200.747 89.3646 200.463L94.6941 197.405C95.2044 197.122 95.9414 197.122 96.4517 197.405L101.781 200.463Z" fill="url(#paint48_linear)"/>
<path d="M109.946 195.706C110.456 195.989 110.456 196.442 109.946 196.725L104.616 199.784C104.106 200.067 103.369 200.067 102.859 199.784L97.5292 196.725C97.0189 196.442 97.0189 195.989 97.5292 195.706L102.859 192.591C103.369 192.308 104.106 192.308 104.616 192.591L109.946 195.706Z" fill="url(#paint49_linear)"/>
<path d="M118.167 191.005C118.677 191.288 118.677 191.741 118.167 192.025L112.837 195.083C112.327 195.366 111.59 195.366 111.08 195.083L105.75 192.025C105.24 191.741 105.24 191.288 105.75 191.005L111.08 187.947C111.59 187.664 112.327 187.664 112.837 187.947L118.167 191.005Z" fill="url(#paint50_linear)"/>
<path d="M126.331 186.248C126.841 186.531 126.841 186.984 126.331 187.267L121.001 190.325C120.491 190.609 119.754 190.609 119.244 190.325L113.914 187.267C113.404 186.984 113.404 186.531 113.914 186.248L119.244 183.189C119.754 182.906 120.491 182.906 121.001 183.189L126.331 186.248Z" fill="url(#paint51_linear)"/>
<path d="M134.552 181.547C135.062 181.83 135.062 182.283 134.552 182.566L129.222 185.625C128.712 185.908 127.975 185.908 127.465 185.625L122.135 182.566C121.625 182.283 121.625 181.83 122.135 181.547L127.465 178.488C127.975 178.205 128.712 178.205 129.222 178.488L134.552 181.547Z" fill="url(#paint52_linear)"/>
<path d="M142.716 176.846C143.226 177.129 143.226 177.582 142.716 177.865L137.386 180.924C136.876 181.207 136.139 181.207 135.629 180.924L130.299 177.865C129.789 177.582 129.789 177.129 130.299 176.846L135.629 173.788C136.139 173.504 136.876 173.504 137.386 173.788L142.716 176.846Z" fill="url(#paint53_linear)"/>
<path d="M150.937 172.088C151.448 172.372 151.448 172.825 150.937 173.108L145.608 176.166C145.098 176.449 144.361 176.449 143.85 176.166L138.521 173.108C138.011 172.825 138.011 172.372 138.521 172.088L143.85 169.03C144.361 168.747 145.098 168.747 145.608 169.03L150.937 172.088Z" fill="url(#paint54_linear)"/>
<path d="M159.101 167.387C159.612 167.67 159.612 168.124 159.101 168.407L153.772 171.465C153.262 171.748 152.525 171.748 152.014 171.465L146.685 168.407C146.175 168.124 146.175 167.67 146.685 167.387L152.014 164.329C152.525 164.046 153.262 164.046 153.772 164.329L159.101 167.387Z" fill="url(#paint55_linear)"/>
<path d="M167.265 162.686C167.776 162.969 167.776 163.423 167.265 163.706L161.936 166.764C161.426 167.047 160.689 167.047 160.178 166.764L154.849 163.706C154.339 163.423 154.339 162.969 154.849 162.686L160.178 159.628C160.689 159.345 161.426 159.345 161.936 159.628L167.265 162.686Z" fill="url(#paint56_linear)"/>
<path d="M175.486 157.929C175.996 158.212 175.996 158.665 175.486 158.948L170.157 162.007C169.646 162.29 168.909 162.29 168.399 162.007L163.07 158.948C162.559 158.665 162.559 158.212 163.07 157.929L168.399 154.87C168.909 154.587 169.646 154.587 170.157 154.87L175.486 157.929Z" fill="url(#paint57_linear)"/>
<path d="M87.3231 218.247C87.8334 218.531 87.8334 218.984 87.3231 219.267L81.9937 222.382C81.4834 222.665 80.7464 222.665 80.2361 222.382L74.9066 219.267C74.3964 218.984 74.3964 218.531 74.9066 218.247L80.2361 215.189C80.7464 214.906 81.4834 214.906 81.9937 215.189L87.3231 218.247Z" fill="url(#paint58_linear)"/>
<path d="M79.1597 222.948C79.6699 223.231 79.6699 223.685 79.1597 223.968L67.7637 230.538C67.2534 230.821 66.5164 230.821 66.0061 230.538L60.6766 227.479C60.1664 227.196 60.1664 226.743 60.6766 226.46L72.0726 219.89C72.5829 219.607 73.3199 219.607 73.8302 219.89L79.1597 222.948Z" fill="url(#paint59_linear)"/>
<path d="M95.5448 213.49C96.0551 213.773 96.0551 214.226 95.5448 214.509L90.2154 217.568C89.7051 217.851 88.968 217.851 88.4578 217.568L83.1283 214.509C82.618 214.226 82.618 213.773 83.1283 213.49L88.4578 210.432C88.968 210.148 89.7051 210.148 90.2154 210.432L95.5448 213.49Z" fill="url(#paint60_linear)"/>
<path d="M103.709 208.789C104.219 209.073 104.219 209.526 103.709 209.809L98.3794 212.867C97.8691 213.15 97.1321 213.15 96.6218 212.867L91.2924 209.809C90.7821 209.526 90.7821 209.073 91.2924 208.789L96.6218 205.674C97.1321 205.391 97.8691 205.391 98.3794 205.674L103.709 208.789Z" fill="url(#paint61_linear)"/>
<path d="M111.874 204.032C112.384 204.315 112.384 204.768 111.874 205.051L106.544 208.11C106.034 208.393 105.297 208.393 104.787 208.11L99.4574 205.051C98.9471 204.768 98.9471 204.315 99.4574 204.032L104.787 200.973C105.297 200.69 106.034 200.69 106.544 200.973L111.874 204.032Z" fill="url(#paint62_linear)"/>
<path d="M120.094 199.331C120.604 199.614 120.604 200.067 120.094 200.35L114.765 203.409C114.254 203.692 113.517 203.692 113.007 203.409L107.678 200.35C107.167 200.067 107.167 199.614 107.678 199.331L113.007 196.272C113.517 195.989 114.254 195.989 114.765 196.272L120.094 199.331Z" fill="url(#paint63_linear)"/>
<path d="M128.259 194.63C128.769 194.913 128.769 195.366 128.259 195.649L122.929 198.708C122.419 198.991 121.682 198.991 121.172 198.708L115.842 195.649C115.332 195.366 115.332 194.913 115.842 194.63L121.172 191.572C121.682 191.288 122.419 191.288 122.929 191.572L128.259 194.63Z" fill="url(#paint64_linear)"/>
<path d="M136.479 189.872C136.99 190.156 136.99 190.609 136.479 190.892L131.15 193.95C130.64 194.233 129.903 194.233 129.392 193.95L124.063 190.892C123.553 190.609 123.553 190.156 124.063 189.872L129.392 186.814C129.903 186.531 130.64 186.531 131.15 186.814L136.479 189.872Z" fill="url(#paint65_linear)"/>
<path d="M144.643 185.171C145.154 185.455 145.154 185.908 144.643 186.191L139.314 189.249C138.804 189.532 138.067 189.532 137.556 189.249L132.227 186.191C131.717 185.908 131.717 185.455 132.227 185.171L137.556 182.113C138.067 181.83 138.804 181.83 139.314 182.113L144.643 185.171Z" fill="url(#paint66_linear)"/>
<path d="M152.808 180.414C153.318 180.697 153.318 181.15 152.808 181.433L147.478 184.492C146.968 184.775 146.231 184.775 145.72 184.492L140.391 181.433C139.881 181.15 139.881 180.697 140.391 180.414L145.72 177.355C146.231 177.072 146.968 177.072 147.478 177.355L152.808 180.414Z" fill="url(#paint67_linear)"/>
<path d="M161.029 175.713C161.539 175.996 161.539 176.449 161.029 176.732L155.7 179.791C155.189 180.074 154.452 180.074 153.942 179.791L148.613 176.732C148.102 176.449 148.102 175.996 148.613 175.713L153.942 172.655C154.452 172.371 155.189 172.371 155.7 172.655L161.029 175.713Z" fill="url(#paint68_linear)"/>
<path d="M169.193 171.012C169.704 171.295 169.704 171.749 169.193 172.032L163.864 175.09C163.354 175.373 162.616 175.373 162.106 175.09L156.777 171.975C156.266 171.692 156.266 171.239 156.777 170.956L162.106 167.897C162.616 167.614 163.354 167.614 163.864 167.897L169.193 171.012Z" fill="url(#paint69_linear)"/>
<path d="M183.651 162.687C184.161 162.97 184.161 163.423 183.651 163.706L172.028 170.389C171.518 170.672 170.781 170.672 170.27 170.389L164.941 167.274C164.431 166.991 164.431 166.538 164.941 166.255L176.564 159.572C177.074 159.288 177.811 159.288 178.321 159.572L183.651 162.687Z" fill="url(#paint70_linear)"/>
<path d="M99.684 220.513C100.194 220.796 100.194 221.249 99.684 221.532L94.3545 224.591C93.8442 224.874 93.1072 224.874 92.5969 224.591L87.2675 221.532C86.7572 221.249 86.7572 220.796 87.2675 220.513L92.5969 217.455C93.1072 217.171 93.8442 217.171 94.3545 217.455L99.684 220.513Z" fill="url(#paint71_linear)"/>
<path d="M91.4625 225.271C91.9728 225.554 91.9728 226.007 91.4625 226.29L75.9277 235.239C75.4175 235.522 74.6804 235.522 74.1702 235.239L68.8407 232.18C68.3304 231.897 68.3304 231.444 68.8407 231.161L84.3755 222.212C84.8858 221.929 85.6228 221.929 86.1331 222.212L91.4625 225.271Z" fill="url(#paint72_linear)"/>
<path d="M107.904 215.812C108.414 216.095 108.414 216.549 107.904 216.832L102.575 219.89C102.064 220.173 101.327 220.173 100.817 219.89L95.4877 216.832C94.9774 216.549 94.9774 216.095 95.4877 215.812L100.817 212.697C101.327 212.414 102.064 212.414 102.575 212.697L107.904 215.812Z" fill="url(#paint73_linear)"/>
<path d="M116.069 211.111C116.579 211.395 116.579 211.848 116.069 212.131L110.74 215.189C110.229 215.472 109.492 215.472 108.982 215.189L103.653 212.131C103.142 211.848 103.142 211.395 103.653 211.111L108.982 208.053C109.492 207.77 110.229 207.77 110.74 208.053L116.069 211.111Z" fill="url(#paint74_linear)"/>
<path d="M124.233 206.354C124.686 206.637 124.686 207.09 124.233 207.373L118.903 210.431C118.393 210.715 117.656 210.715 117.146 210.431L111.816 207.373C111.306 207.09 111.306 206.637 111.816 206.354L117.146 203.295C117.656 203.012 118.393 203.012 118.903 203.295L124.233 206.354Z" fill="url(#paint75_linear)"/>
<path d="M132.454 201.653C132.964 201.936 132.964 202.389 132.454 202.672L127.125 205.731C126.614 206.014 125.877 206.014 125.367 205.731L120.037 202.672C119.527 202.389 119.527 201.936 120.037 201.653L125.367 198.538C125.877 198.255 126.614 198.255 127.125 198.538L132.454 201.653Z" fill="url(#paint76_linear)"/>
<path d="M140.618 196.952C141.128 197.235 141.128 197.688 140.618 197.972L135.288 201.03C134.778 201.313 134.041 201.313 133.531 201.03L128.201 197.972C127.691 197.688 127.691 197.235 128.201 196.952L133.531 193.894C134.041 193.611 134.778 193.611 135.288 193.894L140.618 196.952Z" fill="url(#paint77_linear)"/>
<path d="M148.839 192.194C149.35 192.478 149.35 192.931 148.839 193.214L143.51 196.272C143 196.555 142.262 196.555 141.752 196.272L136.423 193.214C135.912 192.931 135.912 192.478 136.423 192.194L141.752 189.136C142.262 188.853 143 188.853 143.51 189.136L148.839 192.194Z" fill="url(#paint78_linear)"/>
<path d="M157.003 187.493C157.514 187.777 157.514 188.23 157.003 188.513L151.674 191.571C151.164 191.855 150.427 191.855 149.916 191.571L144.587 188.513C144.077 188.23 144.077 187.777 144.587 187.493L149.916 184.435C150.427 184.152 151.164 184.152 151.674 184.435L157.003 187.493Z" fill="url(#paint79_linear)"/>
<path d="M165.225 182.736C165.735 183.019 165.735 183.472 165.225 183.756L159.895 186.814C159.385 187.097 158.648 187.097 158.137 186.814L152.808 183.756C152.298 183.472 152.298 183.019 152.808 182.736L158.137 179.678C158.648 179.395 159.385 179.395 159.895 179.678L165.225 182.736Z" fill="url(#paint80_linear)"/>
<path d="M173.389 178.035C173.899 178.318 173.899 178.771 173.389 179.055L168.059 182.17C167.549 182.453 166.812 182.453 166.301 182.17L160.972 179.055C160.518 178.771 160.518 178.318 160.972 178.035L166.301 174.977C166.812 174.694 167.605 174.694 168.059 174.977L173.389 178.035Z" fill="url(#paint81_linear)"/>
<path d="M191.872 167.387C192.382 167.67 192.382 168.124 191.872 168.407L176.224 177.412C175.713 177.695 174.976 177.695 174.466 177.412L169.137 174.354C168.626 174.07 168.626 173.617 169.137 173.334L184.785 164.329C185.295 164.046 186.032 164.046 186.542 164.329L191.872 167.387Z" fill="url(#paint82_linear)"/>
<path d="M198.732 214.906C199.242 215.189 199.242 215.642 198.732 215.925L158.591 239.09C158.081 239.373 157.344 239.373 156.833 239.09L127.578 222.212C127.068 221.929 127.068 221.476 127.578 221.192L167.776 198.028C168.286 197.745 169.023 197.745 169.533 198.028L198.732 214.906Z" fill="url(#paint83_linear)"/>
<path d="M19.4585 210.261V111.033C19.4585 108.258 21.4429 104.803 23.8808 103.444L153.715 28.5696C154.849 27.8899 155.927 27.8333 156.72 28.2298C156.72 28.2298 156.72 28.2298 156.664 28.2298L153.205 26.2475C152.411 25.851 151.334 25.9076 150.2 26.5873L20.3656 101.462C17.9277 102.877 16 106.276 16 109.051V208.279C16 209.695 16.5103 210.658 17.304 211.111L20.8192 213.093C19.9687 212.584 19.4585 211.621 19.4585 210.261Z" fill="url(#paint84_linear)"/>
<path opacity="0.2" d="M148.329 60.7395C148.329 62.4952 147.082 64.6474 145.551 65.5536L135.573 71.274C134.042 72.1802 132.794 71.4439 132.794 69.6881V58.1908C132.794 56.435 134.042 54.2828 135.573 53.3766L145.551 47.6563C147.082 46.7501 148.329 47.4864 148.329 49.2421V60.7395Z" fill="black"/>
<path d="M153.602 63.5713C153.602 65.327 152.355 67.4792 150.824 68.3854L140.845 74.1058C139.315 75.012 138.067 74.2757 138.067 72.5199V61.0226C138.067 59.2668 139.315 57.1146 140.845 56.2084L150.824 50.4881C152.355 49.5819 153.602 50.3182 153.602 52.0739V63.5713Z" fill="url(#paint85_linear)"/>
<path d="M138.067 72.52V61.0227C138.067 59.2669 139.315 57.1147 140.845 56.2085L150.824 50.4882C151.504 50.0917 152.128 50.0351 152.582 50.205L150.881 49.1855C150.37 48.8457 149.633 48.9023 148.84 49.3554L138.861 55.0758C137.33 55.982 136.083 58.1342 136.083 59.8899V71.3872C136.083 72.2934 136.423 72.9164 136.933 73.1996L138.804 74.2757C138.351 73.9925 138.067 73.3695 138.067 72.52Z" fill="url(#paint86_linear)"/>
<path opacity="0.2" d="M60.7905 127.231L126.898 106.842L138.238 119.302L138.465 152.718L223.793 202.332L227.875 210.601L180.703 242.884L162.107 253.589L161.88 248.661L61.3008 190.155L60.7905 127.231Z" fill="black"/>
<path d="M53.6461 54.3962C53.6461 55.6989 52.739 57.3413 51.605 57.9643C50.4711 58.644 49.564 58.0776 49.564 56.775C49.564 55.4723 50.4711 53.8865 51.605 53.2068C52.739 52.5272 53.6461 53.0936 53.6461 54.3962Z" fill="white"/>
<path d="M61.4137 49.9218C61.4137 51.2245 60.5065 52.867 59.3726 53.49C58.2387 54.1696 57.3315 53.6033 57.3315 52.3006C57.3315 50.998 58.2387 49.3555 59.3726 48.7325C60.4499 48.0528 61.4137 48.6192 61.4137 49.9218Z" fill="white"/>
<path opacity="0.2" d="M47.1261 177.299C47.1261 179.054 45.8788 181.207 44.348 182.113L34.3694 187.833C32.8386 188.739 31.5913 188.003 31.5913 186.247V174.807C31.5913 173.051 32.8386 170.899 34.3694 169.992L44.348 164.272C45.8788 163.366 47.1261 164.102 47.1261 165.858V177.299Z" fill="black"/>
<path d="M52.5128 180.527C52.5128 182.283 51.2655 184.435 49.7347 185.341L39.7562 191.062C38.2254 191.968 36.978 191.231 36.978 189.476V177.978C36.978 176.223 38.2254 174.07 39.7562 173.164L49.7347 167.444C51.2655 166.538 52.5128 167.274 52.5128 169.03V180.527Z" fill="url(#paint87_linear)"/>
<path d="M36.9775 189.476V177.978C36.9775 176.223 38.2248 174.071 39.7556 173.164L49.7342 167.444C50.4145 167.047 51.0382 166.991 51.4917 167.161L49.7909 166.141C49.2806 165.801 48.5435 165.858 47.8065 166.311L37.8279 172.032C36.2971 172.938 35.0498 175.09 35.0498 176.846V188.343C35.0498 189.249 35.39 189.872 35.9002 190.155L37.7145 191.232C37.261 190.948 36.9775 190.382 36.9775 189.476Z" fill="url(#paint88_linear)"/>
<path d="M133.475 90.5872L126.671 86.9624C126.558 86.9058 126.444 86.9058 126.331 86.9624L41.3433 132.159C41.0598 132.329 40.833 132.725 40.833 133.065V147.847C40.833 148.017 40.8897 148.13 40.9464 148.187L47.8067 151.812L47.8634 144.676L126.274 102.991C126.558 102.821 126.785 102.424 126.785 102.085V96.9872L133.475 90.5872Z" fill="url(#paint89_linear)"/>
<path d="M133.134 106.615L48.1465 151.812C47.863 151.982 47.6362 151.812 47.6362 151.472V136.69C47.6362 136.35 47.863 135.953 48.1465 135.783L133.134 90.5869C133.418 90.417 133.645 90.5869 133.645 90.9267V105.709C133.645 106.105 133.418 106.502 133.134 106.615Z" fill="url(#paint90_linear)"/>
<path opacity="0.6" d="M121.455 103.614L55.2905 139.465C57.3316 141.108 59.2593 142.92 61.0736 144.959L127.692 109.504C125.764 107.352 123.666 105.37 121.455 103.614Z" fill="#240A6C"/>
<path d="M130.753 102.198L50.5848 144.789C50.4147 144.902 50.2446 144.789 50.2446 144.562V140.824C50.2446 140.598 50.4147 140.314 50.5848 140.201L130.697 97.6101C130.867 97.4968 131.037 97.6101 131.037 97.8367V101.575C131.094 101.801 130.924 102.084 130.753 102.198Z" fill="#3D3B44"/>
<path d="M130.753 97.61L129.109 98.4596V100.442C129.109 100.668 128.939 100.952 128.769 101.065L50.3013 142.806V144.506C50.3013 144.732 50.4714 144.845 50.6415 144.732L130.753 102.141C130.923 102.028 131.094 101.745 131.094 101.518V97.7799C131.094 97.6667 130.923 97.5534 130.753 97.61Z" fill="#7E7D89"/>
<path opacity="0.96" d="M175.714 262.028L242.389 226.573C233.771 221.985 226.571 212.017 224.303 202.445C223.396 198.594 220.844 195.196 217.102 193.214L166.756 166.424C152.752 158.948 143.624 145.525 142.66 130.63C141.866 118.056 131.548 105.709 123.497 101.405L56.8784 136.916C64.7592 141.107 73.4338 152.831 74.4543 165.178C75.6449 180.074 84.4328 193.553 98.4935 201.029L150.484 228.668C154.226 230.651 156.777 233.992 157.685 237.9C159.896 247.472 167.153 257.44 175.714 262.028Z" fill="url(#paint91_linear)"/>
<path opacity="0.8" d="M123.553 101.462L56.8784 136.916C57.3887 137.2 57.9557 137.483 58.4659 137.823L125.084 102.368C124.631 102.028 124.064 101.745 123.553 101.462Z" fill="#85858E"/>
<path d="M215.004 120.832H193.743V184.718C193.743 186.191 194.764 187.607 196.861 188.739C201 190.948 207.747 190.948 211.886 188.739C213.984 187.663 215.004 186.191 215.004 184.718V120.832Z" fill="url(#paint92_linear)"/>
<path d="M215.004 120.832H193.743V184.718C193.743 186.191 194.764 187.607 196.861 188.739C201 190.948 207.747 190.948 211.886 188.739C213.984 187.663 215.004 186.191 215.004 184.718V120.832Z" fill="url(#paint93_linear)"/>
<path d="M211.886 124.796C207.747 127.005 201 127.005 196.861 124.796C192.723 122.587 192.723 119.019 196.861 116.81C201 114.601 207.747 114.601 211.886 116.81C216.025 119.019 216.025 122.587 211.886 124.796Z" fill="url(#paint94_linear)"/>
<path d="M209.221 123.38C206.556 124.796 202.191 124.796 199.526 123.38C196.861 121.964 196.861 119.642 199.526 118.226C202.191 116.81 206.556 116.81 209.221 118.226C211.942 119.642 211.942 121.964 209.221 123.38Z" fill="url(#paint95_linear)"/>
<path opacity="0.5" d="M211.886 124.399C207.747 126.608 201 126.608 196.862 124.399C194.877 123.323 193.857 121.964 193.743 120.605C193.63 122.134 194.651 123.663 196.862 124.796C201 127.005 207.747 127.005 211.886 124.796C214.041 123.663 215.061 122.077 215.004 120.605C214.891 121.964 213.871 123.323 211.886 124.399Z" fill="white"/>
<path d="M215.004 111.713H193.743V115.508C193.743 116.98 194.764 118.396 196.861 119.529C201 121.738 207.747 121.738 211.886 119.529C213.984 118.453 215.004 116.98 215.004 115.508V111.713Z" fill="url(#paint96_linear)"/>
<path d="M215.004 111.713H193.743V115.508C193.743 116.98 194.764 118.396 196.861 119.529C201 121.738 207.747 121.738 211.886 119.529C213.984 118.453 215.004 116.98 215.004 115.508V111.713Z" fill="url(#paint97_linear)"/>
<path d="M211.886 115.734C207.747 117.943 201 117.943 196.861 115.734C192.723 113.525 192.723 109.957 196.861 107.748C201 105.54 207.747 105.54 211.886 107.748C216.025 109.957 216.025 113.525 211.886 115.734Z" fill="url(#paint98_linear)"/>
<path opacity="0.5" d="M211.886 115.281C207.747 117.49 201 117.49 196.862 115.281C194.877 114.205 193.857 112.846 193.743 111.486C193.63 113.016 194.651 114.545 196.862 115.677C201 117.886 207.747 117.886 211.886 115.677C214.041 114.545 215.061 112.959 215.004 111.486C214.891 112.902 213.871 114.262 211.886 115.281Z" fill="white"/>
<path d="M197.428 166.142H176.167V194.007C176.167 195.48 177.188 196.896 179.285 198.028C183.424 200.237 190.171 200.237 194.31 198.028C196.408 196.952 197.428 195.48 197.428 194.007V166.142Z" fill="url(#paint99_linear)"/>
<path d="M197.428 166.142H176.167V194.007C176.167 195.48 177.188 196.896 179.285 198.028C183.424 200.237 190.171 200.237 194.31 198.028C196.408 196.952 197.428 195.48 197.428 194.007V166.142Z" fill="url(#paint100_linear)"/>
<path d="M194.31 170.106C190.171 172.315 183.425 172.315 179.286 170.106C175.147 167.897 175.147 164.329 179.286 162.12C183.425 159.911 190.171 159.911 194.31 162.12C198.449 164.329 198.449 167.897 194.31 170.106Z" fill="url(#paint101_linear)"/>
<path opacity="0.5" d="M194.311 169.71C190.172 171.919 183.425 171.919 179.286 169.71C177.302 168.634 176.281 167.274 176.168 165.915C176.054 167.444 177.075 168.973 179.286 170.106C183.425 172.315 190.172 172.315 194.311 170.106C196.465 168.973 197.486 167.388 197.429 165.915C197.315 167.274 196.295 168.634 194.311 169.71Z" fill="white"/>
<path d="M179.852 161.157H158.591V203.295C158.591 204.768 159.612 206.183 161.71 207.316C165.848 209.525 172.595 209.525 176.734 207.316C178.832 206.24 179.852 204.768 179.852 203.295V161.157Z" fill="url(#paint102_linear)"/>
<path d="M179.852 161.157H158.591V203.295C158.591 204.768 159.612 206.183 161.71 207.316C165.848 209.525 172.595 209.525 176.734 207.316C178.832 206.24 179.852 204.768 179.852 203.295V161.157Z" fill="url(#paint103_linear)"/>
<path d="M176.734 165.178C172.595 167.387 165.848 167.387 161.71 165.178C157.571 162.97 157.571 159.401 161.71 157.193C165.848 154.984 172.595 154.984 176.734 157.193C180.873 159.401 180.873 162.97 176.734 165.178Z" fill="url(#paint104_linear)"/>
<path opacity="0.5" d="M176.734 164.782C172.596 166.991 165.849 166.991 161.71 164.782C159.725 163.706 158.705 162.347 158.592 160.987C158.478 162.517 159.499 164.046 161.71 165.178C165.849 167.387 172.596 167.387 176.734 165.178C178.889 164.046 179.909 162.46 179.853 160.987C179.739 162.347 178.719 163.706 176.734 164.782Z" fill="white"/>
<path d="M162.277 178.092H141.016V212.64C141.016 214.113 142.037 215.529 144.134 216.661C148.273 218.87 155.02 218.87 159.159 216.661C161.257 215.585 162.277 214.113 162.277 212.64V178.092Z" fill="url(#paint105_linear)"/>
<path d="M162.277 178.092H141.016V212.64C141.016 214.113 142.037 215.529 144.134 216.661C148.273 218.87 155.02 218.87 159.159 216.661C161.257 215.585 162.277 214.113 162.277 212.64V178.092Z" fill="url(#paint106_linear)"/>
<path d="M159.16 182.113C155.021 184.322 148.274 184.322 144.135 182.113C139.997 179.904 139.997 176.336 144.135 174.127C148.274 171.918 155.021 171.918 159.16 174.127C163.299 176.336 163.299 179.904 159.16 182.113Z" fill="url(#paint107_linear)"/>
<path opacity="0.5" d="M159.159 181.717C155.02 183.926 148.273 183.926 144.134 181.717C142.15 180.641 141.129 179.281 141.016 177.922C140.902 179.451 141.923 180.981 144.134 182.113C148.273 184.322 155.02 184.322 159.159 182.113C161.313 180.981 162.334 179.395 162.277 177.922C162.164 179.281 161.143 180.641 159.159 181.717Z" fill="white"/>
<path d="M144.701 195.989H123.439V222.042C123.439 223.515 124.46 224.931 126.558 226.064C130.697 228.272 137.443 228.272 141.582 226.064C143.68 224.987 144.701 223.515 144.701 222.042V195.989Z" fill="url(#paint108_linear)"/>
<path d="M144.701 195.989H123.439V222.042C123.439 223.515 124.46 224.931 126.558 226.064C130.697 228.272 137.443 228.272 141.582 226.064C143.68 224.987 144.701 223.515 144.701 222.042V195.989Z" fill="url(#paint109_linear)"/>
<path d="M141.584 199.954C137.445 202.163 130.698 202.163 126.559 199.954C122.42 197.745 122.42 194.177 126.559 191.968C130.698 189.759 137.445 189.759 141.584 191.968C145.723 194.177 145.723 197.745 141.584 199.954Z" fill="url(#paint110_linear)"/>
<path opacity="0.5" d="M141.582 199.557C137.444 201.766 130.697 201.766 126.558 199.557C124.574 198.481 123.553 197.122 123.44 195.762C123.326 197.292 124.347 198.821 126.558 199.954C130.697 202.162 137.444 202.162 141.582 199.954C143.737 198.821 144.757 197.235 144.701 195.762C144.587 197.122 143.567 198.481 141.582 199.557Z" fill="white"/>
<defs>
<linearGradient id="paint0_linear" x1="154.559" y1="134.869" x2="102.936" y2="322.833" gradientUnits="userSpaceOnUse">
<stop stop-color="#DCEBFA"/>
<stop offset="1" stop-color="#C2C2C2"/>
</linearGradient>
<linearGradient id="paint1_linear" x1="143.243" y1="231.996" x2="97.4097" y2="231.996" gradientUnits="userSpaceOnUse">
<stop stop-color="#BDBDBD"/>
<stop offset="1" stop-color="#969696"/>
</linearGradient>
<linearGradient id="paint2_linear" x1="151.618" y1="25.697" x2="20.0003" y2="224.947" gradientUnits="userSpaceOnUse">
<stop stop-color="#FAFAFA"/>
<stop offset="1" stop-color="#DEDEDE"/>
</linearGradient>
<linearGradient id="paint3_linear" x1="88.7604" y1="30.6746" x2="88.7604" y2="246.986" gradientUnits="userSpaceOnUse">
<stop stop-color="#009416"/>
<stop offset="1" stop-color="#00551F"/>
</linearGradient>
<linearGradient id="paint4_linear" x1="219.028" y1="62.5033" x2="89.2781" y2="234.157" gradientUnits="userSpaceOnUse">
<stop stop-color="#D0D0D0"/>
<stop offset="1" stop-color="#BABABA"/>
</linearGradient>
<linearGradient id="paint5_linear" x1="179.383" y1="114.439" x2="42.4244" y2="224.174" gradientUnits="userSpaceOnUse">
<stop stop-color="#C7C7C7"/>
<stop offset="1" stop-color="#5D5D5D"/>
</linearGradient>
<linearGradient id="paint6_linear" x1="180.281" y1="115.545" x2="43.3149" y2="225.287" gradientUnits="userSpaceOnUse">
<stop stop-color="#C7C7C7"/>
<stop offset="1" stop-color="#5D5D5D"/>
</linearGradient>
<linearGradient id="paint7_linear" x1="181.174" y1="116.656" x2="44.205" y2="226.399" gradientUnits="userSpaceOnUse">
<stop stop-color="#C7C7C7"/>
<stop offset="1" stop-color="#5D5D5D"/>
</linearGradient>
<linearGradient id="paint8_linear" x1="182.06" y1="117.771" x2="45.097" y2="227.51" gradientUnits="userSpaceOnUse">
<stop stop-color="#C7C7C7"/>
<stop offset="1" stop-color="#5D5D5D"/>
</linearGradient>
<linearGradient id="paint9_linear" x1="182.951" y1="118.883" x2="45.9874" y2="228.623" gradientUnits="userSpaceOnUse">
<stop stop-color="#C7C7C7"/>
<stop offset="1" stop-color="#5D5D5D"/>
</linearGradient>
<linearGradient id="paint10_linear" x1="183.841" y1="119.996" x2="46.879" y2="229.734" gradientUnits="userSpaceOnUse">
<stop stop-color="#C7C7C7"/>
<stop offset="1" stop-color="#5D5D5D"/>
</linearGradient>
<linearGradient id="paint11_linear" x1="184.735" y1="121.105" x2="47.7682" y2="230.848" gradientUnits="userSpaceOnUse">
<stop stop-color="#C7C7C7"/>
<stop offset="1" stop-color="#5D5D5D"/>
</linearGradient>
<linearGradient id="paint12_linear" x1="185.63" y1="122.214" x2="48.6658" y2="231.954" gradientUnits="userSpaceOnUse">
<stop stop-color="#C7C7C7"/>
<stop offset="1" stop-color="#5D5D5D"/>
</linearGradient>
<linearGradient id="paint13_linear" x1="186.514" y1="123.331" x2="49.5531" y2="233.068" gradientUnits="userSpaceOnUse">
<stop stop-color="#C7C7C7"/>
<stop offset="1" stop-color="#5D5D5D"/>
</linearGradient>
<linearGradient id="paint14_linear" x1="187.407" y1="124.441" x2="50.4414" y2="234.182" gradientUnits="userSpaceOnUse">
<stop stop-color="#C7C7C7"/>
<stop offset="1" stop-color="#5D5D5D"/>
</linearGradient>
<linearGradient id="paint15_linear" x1="188.298" y1="125.552" x2="51.3313" y2="235.295" gradientUnits="userSpaceOnUse">
<stop stop-color="#C7C7C7"/>
<stop offset="1" stop-color="#5D5D5D"/>
</linearGradient>
<linearGradient id="paint16_linear" x1="189.189" y1="126.664" x2="52.224" y2="236.405" gradientUnits="userSpaceOnUse">
<stop stop-color="#C7C7C7"/>
<stop offset="1" stop-color="#5D5D5D"/>
</linearGradient>
<linearGradient id="paint17_linear" x1="190.078" y1="127.777" x2="53.1168" y2="237.515" gradientUnits="userSpaceOnUse">
<stop stop-color="#C7C7C7"/>
<stop offset="1" stop-color="#5D5D5D"/>
</linearGradient>
<linearGradient id="paint18_linear" x1="174.956" y1="108.913" x2="37.997" y2="218.649" gradientUnits="userSpaceOnUse">
<stop stop-color="#C7C7C7"/>
<stop offset="1" stop-color="#5D5D5D"/>
</linearGradient>
<linearGradient id="paint19_linear" x1="175.88" y1="110.063" x2="38.9189" y2="219.8" gradientUnits="userSpaceOnUse">
<stop stop-color="#C7C7C7"/>
<stop offset="1" stop-color="#5D5D5D"/>
</linearGradient>
<linearGradient id="paint20_linear" x1="176.801" y1="111.217" x2="39.8434" y2="220.952" gradientUnits="userSpaceOnUse">
<stop stop-color="#C7C7C7"/>
<stop offset="1" stop-color="#5D5D5D"/>
</linearGradient>
<linearGradient id="paint21_linear" x1="177.733" y1="112.362" x2="40.7652" y2="222.105" gradientUnits="userSpaceOnUse">
<stop stop-color="#C7C7C7"/>
<stop offset="1" stop-color="#5D5D5D"/>
</linearGradient>
<linearGradient id="paint22_linear" x1="178.651" y1="113.517" x2="41.6888" y2="223.255" gradientUnits="userSpaceOnUse">
<stop stop-color="#C7C7C7"/>
<stop offset="1" stop-color="#5D5D5D"/>
</linearGradient>
<linearGradient id="paint23_linear" x1="179.574" y1="114.67" x2="42.6114" y2="224.409" gradientUnits="userSpaceOnUse">
<stop stop-color="#C7C7C7"/>
<stop offset="1" stop-color="#5D5D5D"/>
</linearGradient>
<linearGradient id="paint24_linear" x1="180.497" y1="115.822" x2="43.5346" y2="225.56" gradientUnits="userSpaceOnUse">
<stop stop-color="#C7C7C7"/>
<stop offset="1" stop-color="#5D5D5D"/>
</linearGradient>
<linearGradient id="paint25_linear" x1="181.419" y1="116.974" x2="44.4597" y2="226.71" gradientUnits="userSpaceOnUse">
<stop stop-color="#C7C7C7"/>
<stop offset="1" stop-color="#5D5D5D"/>
</linearGradient>
<linearGradient id="paint26_linear" x1="182.345" y1="118.124" x2="45.3798" y2="227.865" gradientUnits="userSpaceOnUse">
<stop stop-color="#C7C7C7"/>
<stop offset="1" stop-color="#5D5D5D"/>
</linearGradient>
<linearGradient id="paint27_linear" x1="183.27" y1="119.274" x2="46.3004" y2="229.018" gradientUnits="userSpaceOnUse">
<stop stop-color="#C7C7C7"/>
<stop offset="1" stop-color="#5D5D5D"/>
</linearGradient>
<linearGradient id="paint28_linear" x1="184.189" y1="120.428" x2="47.2278" y2="230.166" gradientUnits="userSpaceOnUse">
<stop stop-color="#C7C7C7"/>
<stop offset="1" stop-color="#5D5D5D"/>
</linearGradient>
<linearGradient id="paint29_linear" x1="185.113" y1="121.58" x2="48.1519" y2="231.317" gradientUnits="userSpaceOnUse">
<stop stop-color="#C7C7C7"/>
<stop offset="1" stop-color="#5D5D5D"/>
</linearGradient>
<linearGradient id="paint30_linear" x1="186.036" y1="122.732" x2="49.0746" y2="232.469" gradientUnits="userSpaceOnUse">
<stop stop-color="#C7C7C7"/>
<stop offset="1" stop-color="#5D5D5D"/>
</linearGradient>
<linearGradient id="paint31_linear" x1="186.963" y1="123.886" x2="49.9979" y2="233.627" gradientUnits="userSpaceOnUse">
<stop stop-color="#C7C7C7"/>
<stop offset="1" stop-color="#5D5D5D"/>
</linearGradient>
<linearGradient id="paint32_linear" x1="191.195" y1="129.17" x2="54.2351" y2="238.907" gradientUnits="userSpaceOnUse">
<stop stop-color="#C7C7C7"/>
<stop offset="1" stop-color="#5D5D5D"/>
</linearGradient>
<linearGradient id="paint33_linear" x1="201.456" y1="141.975" x2="64.4904" y2="251.716" gradientUnits="userSpaceOnUse">
<stop stop-color="#C7C7C7"/>
<stop offset="1" stop-color="#5D5D5D"/>
</linearGradient>
<linearGradient id="paint34_linear" x1="202.343" y1="143.089" x2="65.3816" y2="252.827" gradientUnits="userSpaceOnUse">
<stop stop-color="#C7C7C7"/>
<stop offset="1" stop-color="#5D5D5D"/>
</linearGradient>
<linearGradient id="paint35_linear" x1="203.24" y1="144.196" x2="66.2714" y2="253.94" gradientUnits="userSpaceOnUse">
<stop stop-color="#C7C7C7"/>
<stop offset="1" stop-color="#5D5D5D"/>
</linearGradient>
<linearGradient id="paint36_linear" x1="211.166" y1="154.097" x2="74.2065" y2="263.833" gradientUnits="userSpaceOnUse">
<stop stop-color="#C7C7C7"/>
<stop offset="1" stop-color="#5D5D5D"/>
</linearGradient>
<linearGradient id="paint37_linear" x1="213.074" y1="156.483" x2="76.122" y2="266.214" gradientUnits="userSpaceOnUse">
<stop stop-color="#C7C7C7"/>
<stop offset="1" stop-color="#5D5D5D"/>
</linearGradient>
<linearGradient id="paint38_linear" x1="213.969" y1="157.592" x2="77" y2="267.336" gradientUnits="userSpaceOnUse">
<stop stop-color="#C7C7C7"/>
<stop offset="1" stop-color="#5D5D5D"/>
</linearGradient>
<linearGradient id="paint39_linear" x1="214.859" y1="158.704" x2="77.8922" y2="268.446" gradientUnits="userSpaceOnUse">
<stop stop-color="#C7C7C7"/>
<stop offset="1" stop-color="#5D5D5D"/>
</linearGradient>
<linearGradient id="paint40_linear" x1="204.129" y1="145.311" x2="67.163" y2="255.051" gradientUnits="userSpaceOnUse">
<stop stop-color="#C7C7C7"/>
<stop offset="1" stop-color="#5D5D5D"/>
</linearGradient>
<linearGradient id="paint41_linear" x1="207.025" y1="148.926" x2="70.0601" y2="258.667" gradientUnits="userSpaceOnUse">
<stop stop-color="#C7C7C7"/>
<stop offset="1" stop-color="#5D5D5D"/>
</linearGradient>
<linearGradient id="paint42_linear" x1="209.92" y1="152.54" x2="72.9552" y2="262.281" gradientUnits="userSpaceOnUse">
<stop stop-color="#C7C7C7"/>
<stop offset="1" stop-color="#5D5D5D"/>
</linearGradient>
<linearGradient id="paint43_linear" x1="210.811" y1="153.652" x2="73.8464" y2="263.392" gradientUnits="userSpaceOnUse">
<stop stop-color="#C7C7C7"/>
<stop offset="1" stop-color="#5D5D5D"/>
</linearGradient>
<linearGradient id="paint44_linear" x1="186.232" y1="122.974" x2="49.2673" y2="232.714" gradientUnits="userSpaceOnUse">
<stop stop-color="#C7C7C7"/>
<stop offset="1" stop-color="#5D5D5D"/>
</linearGradient>
<linearGradient id="paint45_linear" x1="185.112" y1="121.584" x2="48.1503" y2="231.322" gradientUnits="userSpaceOnUse">
<stop stop-color="#C7C7C7"/>
<stop offset="1" stop-color="#5D5D5D"/>
</linearGradient>
<linearGradient id="paint46_linear" x1="187.119" y1="124.088" x2="50.1579" y2="233.826" gradientUnits="userSpaceOnUse">
<stop stop-color="#C7C7C7"/>
<stop offset="1" stop-color="#5D5D5D"/>
</linearGradient>
<linearGradient id="paint47_linear" x1="188.011" y1="125.2" x2="51.0494" y2="234.937" gradientUnits="userSpaceOnUse">
<stop stop-color="#C7C7C7"/>
<stop offset="1" stop-color="#5D5D5D"/>
</linearGradient>
<linearGradient id="paint48_linear" x1="188.907" y1="126.307" x2="51.9365" y2="236.052" gradientUnits="userSpaceOnUse">
<stop stop-color="#C7C7C7"/>
<stop offset="1" stop-color="#5D5D5D"/>
</linearGradient>
<linearGradient id="paint49_linear" x1="189.796" y1="127.421" x2="52.8299" y2="237.162" gradientUnits="userSpaceOnUse">
<stop stop-color="#C7C7C7"/>
<stop offset="1" stop-color="#5D5D5D"/>
</linearGradient>
<linearGradient id="paint50_linear" x1="190.682" y1="128.537" x2="53.7235" y2="238.272" gradientUnits="userSpaceOnUse">
<stop stop-color="#C7C7C7"/>
<stop offset="1" stop-color="#5D5D5D"/>
</linearGradient>
<linearGradient id="paint51_linear" x1="191.576" y1="129.646" x2="54.6122" y2="239.385" gradientUnits="userSpaceOnUse">
<stop stop-color="#C7C7C7"/>
<stop offset="1" stop-color="#5D5D5D"/>
</linearGradient>
<linearGradient id="paint52_linear" x1="192.467" y1="130.757" x2="55.5017" y2="240.498" gradientUnits="userSpaceOnUse">
<stop stop-color="#C7C7C7"/>
<stop offset="1" stop-color="#5D5D5D"/>
</linearGradient>
<linearGradient id="paint53_linear" x1="193.359" y1="131.869" x2="56.3915" y2="241.612" gradientUnits="userSpaceOnUse">
<stop stop-color="#C7C7C7"/>
<stop offset="1" stop-color="#5D5D5D"/>
</linearGradient>
<linearGradient id="paint54_linear" x1="194.251" y1="132.98" x2="57.2817" y2="242.724" gradientUnits="userSpaceOnUse">
<stop stop-color="#C7C7C7"/>
<stop offset="1" stop-color="#5D5D5D"/>
</linearGradient>
<linearGradient id="paint55_linear" x1="195.14" y1="134.092" x2="58.1748" y2="243.833" gradientUnits="userSpaceOnUse">
<stop stop-color="#C7C7C7"/>
<stop offset="1" stop-color="#5D5D5D"/>
</linearGradient>
<linearGradient id="paint56_linear" x1="196.031" y1="135.204" x2="59.0655" y2="244.945" gradientUnits="userSpaceOnUse">
<stop stop-color="#C7C7C7"/>
<stop offset="1" stop-color="#5D5D5D"/>
</linearGradient>
<linearGradient id="paint57_linear" x1="196.922" y1="136.315" x2="59.954" y2="246.058" gradientUnits="userSpaceOnUse">
<stop stop-color="#C7C7C7"/>
<stop offset="1" stop-color="#5D5D5D"/>
</linearGradient>
<linearGradient id="paint58_linear" x1="191.939" y1="130.108" x2="54.9791" y2="239.844" gradientUnits="userSpaceOnUse">
<stop stop-color="#C7C7C7"/>
<stop offset="1" stop-color="#5D5D5D"/>
</linearGradient>
<linearGradient id="paint59_linear" x1="190.724" y1="128.583" x2="53.7599" y2="238.323" gradientUnits="userSpaceOnUse">
<stop stop-color="#C7C7C7"/>
<stop offset="1" stop-color="#5D5D5D"/>
</linearGradient>
<linearGradient id="paint60_linear" x1="192.837" y1="131.215" x2="55.869" y2="240.958" gradientUnits="userSpaceOnUse">
<stop stop-color="#C7C7C7"/>
<stop offset="1" stop-color="#5D5D5D"/>
</linearGradient>
<linearGradient id="paint61_linear" x1="193.723" y1="132.33" x2="56.7614" y2="242.068" gradientUnits="userSpaceOnUse">
<stop stop-color="#C7C7C7"/>
<stop offset="1" stop-color="#5D5D5D"/>
</linearGradient>
<linearGradient id="paint62_linear" x1="194.617" y1="133.441" x2="57.653" y2="243.181" gradientUnits="userSpaceOnUse">
<stop stop-color="#C7C7C7"/>
<stop offset="1" stop-color="#5D5D5D"/>
</linearGradient>
<linearGradient id="paint63_linear" x1="195.509" y1="134.551" x2="58.5409" y2="244.294" gradientUnits="userSpaceOnUse">
<stop stop-color="#C7C7C7"/>
<stop offset="1" stop-color="#5D5D5D"/>
</linearGradient>
<linearGradient id="paint64_linear" x1="196.399" y1="135.663" x2="59.4327" y2="245.405" gradientUnits="userSpaceOnUse">
<stop stop-color="#C7C7C7"/>
<stop offset="1" stop-color="#5D5D5D"/>
</linearGradient>
<linearGradient id="paint65_linear" x1="197.29" y1="136.775" x2="60.3236" y2="246.517" gradientUnits="userSpaceOnUse">
<stop stop-color="#C7C7C7"/>
<stop offset="1" stop-color="#5D5D5D"/>
</linearGradient>
<linearGradient id="paint66_linear" x1="198.179" y1="137.888" x2="61.217" y2="247.627" gradientUnits="userSpaceOnUse">
<stop stop-color="#C7C7C7"/>
<stop offset="1" stop-color="#5D5D5D"/>
</linearGradient>
<linearGradient id="paint67_linear" x1="199.071" y1="138.999" x2="62.1066" y2="248.74" gradientUnits="userSpaceOnUse">
<stop stop-color="#C7C7C7"/>
<stop offset="1" stop-color="#5D5D5D"/>
</linearGradient>
<linearGradient id="paint68_linear" x1="199.96" y1="140.113" x2="63.0021" y2="249.849" gradientUnits="userSpaceOnUse">
<stop stop-color="#C7C7C7"/>
<stop offset="1" stop-color="#5D5D5D"/>
</linearGradient>
<linearGradient id="paint69_linear" x1="200.853" y1="141.223" x2="63.8871" y2="250.964" gradientUnits="userSpaceOnUse">
<stop stop-color="#C7C7C7"/>
<stop offset="1" stop-color="#5D5D5D"/>
</linearGradient>
<linearGradient id="paint70_linear" x1="202.085" y1="142.759" x2="65.1182" y2="252.501" gradientUnits="userSpaceOnUse">
<stop stop-color="#C7C7C7"/>
<stop offset="1" stop-color="#5D5D5D"/>
</linearGradient>
<linearGradient id="paint71_linear" x1="197.903" y1="137.539" x2="60.9371" y2="247.281" gradientUnits="userSpaceOnUse">
<stop stop-color="#C7C7C7"/>
<stop offset="1" stop-color="#5D5D5D"/>
</linearGradient>
<linearGradient id="paint72_linear" x1="196.455" y1="135.733" x2="59.4895" y2="245.474" gradientUnits="userSpaceOnUse">
<stop stop-color="#C7C7C7"/>
<stop offset="1" stop-color="#5D5D5D"/>
</linearGradient>
<linearGradient id="paint73_linear" x1="198.792" y1="138.652" x2="61.8268" y2="248.393" gradientUnits="userSpaceOnUse">
<stop stop-color="#C7C7C7"/>
<stop offset="1" stop-color="#5D5D5D"/>
</linearGradient>
<linearGradient id="paint74_linear" x1="199.681" y1="139.766" x2="62.7206" y2="249.503" gradientUnits="userSpaceOnUse">
<stop stop-color="#C7C7C7"/>
<stop offset="1" stop-color="#5D5D5D"/>
</linearGradient>
<linearGradient id="paint75_linear" x1="200.571" y1="140.878" x2="63.6117" y2="250.615" gradientUnits="userSpaceOnUse">
<stop stop-color="#C7C7C7"/>
<stop offset="1" stop-color="#5D5D5D"/>
</linearGradient>
<linearGradient id="paint76_linear" x1="201.465" y1="141.988" x2="64.5007" y2="251.728" gradientUnits="userSpaceOnUse">
<stop stop-color="#C7C7C7"/>
<stop offset="1" stop-color="#5D5D5D"/>
</linearGradient>
<linearGradient id="paint77_linear" x1="202.356" y1="143.1" x2="65.3917" y2="252.841" gradientUnits="userSpaceOnUse">
<stop stop-color="#C7C7C7"/>
<stop offset="1" stop-color="#5D5D5D"/>
</linearGradient>
<linearGradient id="paint78_linear" x1="203.246" y1="144.212" x2="66.2841" y2="253.951" gradientUnits="userSpaceOnUse">
<stop stop-color="#C7C7C7"/>
<stop offset="1" stop-color="#5D5D5D"/>
</linearGradient>
<linearGradient id="paint79_linear" x1="204.14" y1="145.322" x2="67.1691" y2="255.067" gradientUnits="userSpaceOnUse">
<stop stop-color="#C7C7C7"/>
<stop offset="1" stop-color="#5D5D5D"/>
</linearGradient>
<linearGradient id="paint80_linear" x1="205.03" y1="146.435" x2="68.0632" y2="256.177" gradientUnits="userSpaceOnUse">
<stop stop-color="#C7C7C7"/>
<stop offset="1" stop-color="#5D5D5D"/>
</linearGradient>
<linearGradient id="paint81_linear" x1="205.92" y1="147.547" x2="68.954" y2="257.289" gradientUnits="userSpaceOnUse">
<stop stop-color="#C7C7C7"/>
<stop offset="1" stop-color="#5D5D5D"/>
</linearGradient>
<linearGradient id="paint82_linear" x1="207.371" y1="149.356" x2="70.4029" y2="259.099" gradientUnits="userSpaceOnUse">
<stop stop-color="#C7C7C7"/>
<stop offset="1" stop-color="#5D5D5D"/>
</linearGradient>
<linearGradient id="paint83_linear" x1="206.18" y1="143.748" x2="152.606" y2="237.156" gradientUnits="userSpaceOnUse">
<stop stop-color="#DDDDDD"/>
<stop offset="1" stop-color="#9F9F9F"/>
</linearGradient>
<linearGradient id="paint84_linear" x1="50.1665" y1="117.815" x2="40.0724" y2="131.961" gradientUnits="userSpaceOnUse">
<stop stop-color="#DDDDDD"/>
<stop offset="1" stop-color="#BFBFBF"/>
</linearGradient>
<linearGradient id="paint85_linear" x1="144.546" y1="45.2955" x2="147.193" y2="80.8596" gradientUnits="userSpaceOnUse">
<stop stop-color="#FDD751"/>
<stop offset="1" stop-color="#FFAF3F"/>
</linearGradient>
<linearGradient id="paint86_linear" x1="143.203" y1="56.7817" x2="139.782" y2="63.6325" gradientUnits="userSpaceOnUse">
<stop stop-color="#FFEBB6"/>
<stop offset="1" stop-color="#FFA300"/>
</linearGradient>
<linearGradient id="paint87_linear" x1="43.4674" y1="162.263" x2="46.115" y2="197.828" gradientUnits="userSpaceOnUse">
<stop stop-color="#009401"/>
<stop offset="1" stop-color="#29FFEE"/>
</linearGradient>
<linearGradient id="paint88_linear" x1="42.1239" y1="173.75" x2="38.7023" y2="180.601" gradientUnits="userSpaceOnUse">
<stop stop-color="#507F00"/>
<stop offset="1" stop-color="#98FFFE"/>
</linearGradient>
<linearGradient id="paint89_linear" x1="58.955" y1="162.436" x2="101.806" y2="85.1965" gradientUnits="userSpaceOnUse">
<stop stop-color="#6E6E6E"/>
<stop offset="0.0434602" stop-color="#737373"/>
<stop offset="0.0946972" stop-color="#818181"/>
<stop offset="0.1499" stop-color="#999999"/>
<stop offset="0.2074" stop-color="#BABABA"/>
<stop offset="0.2237" stop-color="#C5C5C5"/>
</linearGradient>
<linearGradient id="paint90_linear" x1="107.885" y1="154.839" x2="84.7596" y2="109.583" gradientUnits="userSpaceOnUse">
<stop stop-color="#DADADA"/>
<stop offset="0.326" stop-color="#DCDCDF"/>
<stop offset="0.7095" stop-color="#E2E2ED"/>
<stop offset="1" stop-color="#E9E9FD"/>
</linearGradient>
<linearGradient id="paint91_linear" x1="192.516" y1="260.331" x2="101.922" y2="99.6386" gradientUnits="userSpaceOnUse">
<stop stop-color="#D4EDFF"/>
<stop offset="0.0767845" stop-color="#D7EEFF"/>
<stop offset="0.1317" stop-color="#E0F2FF"/>
<stop offset="0.1797" stop-color="#F0F9FF"/>
<stop offset="0.2117" stop-color="white"/>
<stop offset="0.2545" stop-color="#FFFDFF"/>
<stop offset="0.5143" stop-color="#FFFBFF"/>
<stop offset="0.5455" stop-color="#F3F7FF"/>
<stop offset="0.6082" stop-color="#E2F1FF"/>
<stop offset="0.6755" stop-color="#D7EEFF"/>
<stop offset="0.755" stop-color="#D4EDFF"/>
<stop offset="1" stop-color="#B0D6F1"/>
</linearGradient>
<linearGradient id="paint92_linear" x1="193.751" y1="155.565" x2="214.892" y2="155.565" gradientUnits="userSpaceOnUse">
<stop stop-color="#C1BFF7"/>
<stop offset="0.488" stop-color="#D2D1FA"/>
<stop offset="1" stop-color="#E9E9FD"/>
</linearGradient>
<linearGradient id="paint93_linear" x1="170.058" y1="155.565" x2="210.913" y2="155.565" gradientUnits="userSpaceOnUse">
<stop stop-color="#F56107"/>
<stop offset="0.1831" stop-color="#F5640C"/>
<stop offset="0.3991" stop-color="#F56D1A"/>
<stop offset="0.6315" stop-color="#F67C32"/>
<stop offset="0.874" stop-color="#F79053"/>
<stop offset="1" stop-color="#F79D67"/>
</linearGradient>
<linearGradient id="paint94_linear" x1="197.152" y1="116.639" x2="204.371" y2="129.155" gradientUnits="userSpaceOnUse">
<stop stop-color="#F56107"/>
<stop offset="0.1831" stop-color="#F5640C"/>
<stop offset="0.3991" stop-color="#F56D1A"/>
<stop offset="0.6315" stop-color="#F67C32"/>
<stop offset="0.874" stop-color="#F79053"/>
<stop offset="1" stop-color="#F79D67"/>
</linearGradient>
<linearGradient id="paint95_linear" x1="199.714" y1="118.117" x2="204.375" y2="126.197" gradientUnits="userSpaceOnUse">
<stop stop-color="#F56107"/>
<stop offset="0.1831" stop-color="#F5640C"/>
<stop offset="0.3991" stop-color="#F56D1A"/>
<stop offset="0.6315" stop-color="#F67C32"/>
<stop offset="0.874" stop-color="#F79053"/>
<stop offset="1" stop-color="#F79D67"/>
</linearGradient>
<linearGradient id="paint96_linear" x1="193.751" y1="116.458" x2="214.892" y2="116.458" gradientUnits="userSpaceOnUse">
<stop stop-color="#C1BFF7"/>
<stop offset="0.488" stop-color="#D2D1FA"/>
<stop offset="1" stop-color="#E9E9FD"/>
</linearGradient>
<linearGradient id="paint97_linear" x1="170.058" y1="116.458" x2="210.913" y2="116.458" gradientUnits="userSpaceOnUse">
<stop stop-color="#F56107"/>
<stop offset="0.1831" stop-color="#F5640C"/>
<stop offset="0.3991" stop-color="#F56D1A"/>
<stop offset="0.6315" stop-color="#F67C32"/>
<stop offset="0.874" stop-color="#F79053"/>
<stop offset="1" stop-color="#F79D67"/>
</linearGradient>
<linearGradient id="paint98_linear" x1="197.152" y1="107.552" x2="204.371" y2="120.068" gradientUnits="userSpaceOnUse">
<stop stop-color="#F56107"/>
<stop offset="0.1831" stop-color="#F5640C"/>
<stop offset="0.3991" stop-color="#F56D1A"/>
<stop offset="0.6315" stop-color="#F67C32"/>
<stop offset="0.874" stop-color="#F79053"/>
<stop offset="1" stop-color="#F79D67"/>
</linearGradient>
<linearGradient id="paint99_linear" x1="176.171" y1="182.889" x2="197.312" y2="182.889" gradientUnits="userSpaceOnUse">
<stop stop-color="#C1BFF7"/>
<stop offset="0.488" stop-color="#D2D1FA"/>
<stop offset="1" stop-color="#E9E9FD"/>
</linearGradient>
<linearGradient id="paint100_linear" x1="152.479" y1="182.889" x2="193.333" y2="182.889" gradientUnits="userSpaceOnUse">
<stop stop-color="#003F02"/>
<stop offset="0.1721" stop-color="#004403"/>
<stop offset="0.375" stop-color="#005208"/>
<stop offset="0.5935" stop-color="#006A0F"/>
<stop offset="0.8214" stop-color="#008B19"/>
<stop offset="1" stop-color="#00AA22"/>
</linearGradient>
<linearGradient id="paint101_linear" x1="179.573" y1="161.951" x2="186.792" y2="174.468" gradientUnits="userSpaceOnUse">
<stop stop-color="#003F02"/>
<stop offset="0.1721" stop-color="#004403"/>
<stop offset="0.375" stop-color="#005208"/>
<stop offset="0.5935" stop-color="#006A0F"/>
<stop offset="0.8214" stop-color="#008B19"/>
<stop offset="1" stop-color="#00AA22"/>
</linearGradient>
<linearGradient id="paint102_linear" x1="158.592" y1="185.086" x2="179.733" y2="185.086" gradientUnits="userSpaceOnUse">
<stop stop-color="#C1BFF7"/>
<stop offset="0.488" stop-color="#D2D1FA"/>
<stop offset="1" stop-color="#E9E9FD"/>
</linearGradient>
<linearGradient id="paint103_linear" x1="134.899" y1="185.086" x2="175.754" y2="185.086" gradientUnits="userSpaceOnUse">
<stop stop-color="#F56107"/>
<stop offset="0.1831" stop-color="#F5640C"/>
<stop offset="0.3991" stop-color="#F56D1A"/>
<stop offset="0.6315" stop-color="#F67C32"/>
<stop offset="0.874" stop-color="#F79053"/>
<stop offset="1" stop-color="#F79D67"/>
</linearGradient>
<linearGradient id="paint104_linear" x1="161.993" y1="157.009" x2="169.212" y2="169.525" gradientUnits="userSpaceOnUse">
<stop stop-color="#F56107"/>
<stop offset="0.1831" stop-color="#F5640C"/>
<stop offset="0.3991" stop-color="#F56D1A"/>
<stop offset="0.6315" stop-color="#F67C32"/>
<stop offset="0.874" stop-color="#F79053"/>
<stop offset="1" stop-color="#F79D67"/>
</linearGradient>
<linearGradient id="paint105_linear" x1="141.013" y1="198.223" x2="162.154" y2="198.223" gradientUnits="userSpaceOnUse">
<stop stop-color="#C1BFF7"/>
<stop offset="0.488" stop-color="#D2D1FA"/>
<stop offset="1" stop-color="#E9E9FD"/>
</linearGradient>
<linearGradient id="paint106_linear" x1="117.321" y1="198.223" x2="158.175" y2="198.223" gradientUnits="userSpaceOnUse">
<stop stop-color="#003F02"/>
<stop offset="0.1721" stop-color="#004403"/>
<stop offset="0.375" stop-color="#005208"/>
<stop offset="0.5935" stop-color="#006A0F"/>
<stop offset="0.8214" stop-color="#008B19"/>
<stop offset="1" stop-color="#00AA22"/>
</linearGradient>
<linearGradient id="paint107_linear" x1="144.415" y1="173.946" x2="151.634" y2="186.463" gradientUnits="userSpaceOnUse">
<stop stop-color="#003F02"/>
<stop offset="0.1721" stop-color="#004403"/>
<stop offset="0.375" stop-color="#005208"/>
<stop offset="0.5935" stop-color="#006A0F"/>
<stop offset="0.8214" stop-color="#008B19"/>
<stop offset="1" stop-color="#00AA22"/>
</linearGradient>
<linearGradient id="paint108_linear" x1="123.433" y1="211.82" x2="144.574" y2="211.82" gradientUnits="userSpaceOnUse">
<stop stop-color="#C1BFF7"/>
<stop offset="0.488" stop-color="#D2D1FA"/>
<stop offset="1" stop-color="#E9E9FD"/>
</linearGradient>
<linearGradient id="paint109_linear" x1="99.7402" y1="211.82" x2="140.595" y2="211.82" gradientUnits="userSpaceOnUse">
<stop stop-color="#F56107"/>
<stop offset="0.1831" stop-color="#F5640C"/>
<stop offset="0.3991" stop-color="#F56D1A"/>
<stop offset="0.6315" stop-color="#F67C32"/>
<stop offset="0.874" stop-color="#F79053"/>
<stop offset="1" stop-color="#F79D67"/>
</linearGradient>
<linearGradient id="paint110_linear" x1="126.835" y1="191.803" x2="134.055" y2="204.32" gradientUnits="userSpaceOnUse">
<stop stop-color="#F56107"/>
<stop offset="0.1831" stop-color="#F5640C"/>
<stop offset="0.3991" stop-color="#F56D1A"/>
<stop offset="0.6315" stop-color="#F67C32"/>
<stop offset="0.874" stop-color="#F79053"/>
<stop offset="1" stop-color="#F79D67"/>
</linearGradient>
</defs>
</svg>
