<?xml version="1.0" encoding="UTF-8"?>
<svg width="50px" height="50px" viewBox="0 0 50 50" version="1.1" xmlns="http://www.w3.org/2000/svg" xmlns:xlink="http://www.w3.org/1999/xlink">
    <!-- Generator: Sketch 46 (44423) - http://www.bohemiancoding.com/sketch -->
    <title>Group 12</title>
    <desc>Created with Sketch.</desc>
    <defs></defs>
    <g id="Page-1" stroke="none" stroke-width="1" fill="none" fill-rule="evenodd">
        <g id="Data-Center_colokeishn" transform="translate(-384.000000, -2605.000000)" fill-rule="nonzero">
            <g id="Group-12" transform="translate(384.000000, 2605.000000)">
                <g id="padlock">
                    <path d="M39.1666667,40 L39.1666667,42.9883333 L36.0266667,39.8483333 C37.5208333,37.1216667 38.3333333,34.1791667 38.3333333,31.165 L38.3333333,30.8333333 L40,30.8333333 L40,29.1666667 L38.3333333,29.1666667 L38.3333333,21.6666667 C38.3333333,21.2066667 37.9608333,20.8333333 37.5,20.8333333 L31.6666667,20.8333333 L31.6666667,15.8333333 C31.6666667,15.3733333 31.2941667,15 30.8333333,15 L28.3333333,15 L28.3333333,12.5 C28.3333333,5.6075 22.7258333,0 15.8333333,0 C8.94083333,0 3.33333333,5.6075 3.33333333,12.5 L3.33333333,15 L0.833333333,15 C0.3725,15 0,15.3733333 0,15.8333333 L0,21.6666667 L0,25.8333333 L0,30 L0,34.1666667 L0,38.3333333 L0,40.8333333 C0,43.1308333 1.86916667,45 4.16666667,45 L17.8875,45 C19.76,46.8583333 22.015,48.5183333 24.6083333,49.9016667 C24.7308333,49.9675 24.865,50 25,50 C25.135,50 25.2691667,49.9675 25.3925,49.9016667 C29.5983333,47.6583333 32.9141667,44.6891667 35.1408333,41.3183333 L37.9883333,44.1666667 L35,44.1666667 L35,45.8333333 L40,45.8333333 C40.4608333,45.8333333 40.8333333,45.46 40.8333333,45 L40.8333333,40 L39.1666667,40 Z M5,12.5 C5,6.52666667 9.86,1.66666667 15.8333333,1.66666667 C21.8066667,1.66666667 26.6666667,6.52666667 26.6666667,12.5 L26.6666667,15 L24.1666667,15 L24.1666667,12.5 C24.1666667,7.905 20.4283333,4.16666667 15.8333333,4.16666667 C11.2383333,4.16666667 7.5,7.905 7.5,12.5 L7.5,15 L5,15 L5,12.5 Z M22.5,12.5 L22.5,15 L9.16666667,15 L9.16666667,12.5 C9.16666667,8.82416667 12.1575,5.83333333 15.8333333,5.83333333 C19.5091667,5.83333333 22.5,8.82416667 22.5,12.5 Z M1.66666667,22.5 L6.66666667,22.5 L6.66666667,25 L1.66666667,25 L1.66666667,22.5 Z M1.66666667,26.6666667 L6.66666667,26.6666667 L6.66666667,29.1666667 L1.66666667,29.1666667 L1.66666667,26.6666667 Z M1.66666667,30.8333333 L6.66666667,30.8333333 L6.66666667,33.3333333 L1.66666667,33.3333333 L1.66666667,30.8333333 Z M1.66666667,35 L6.66666667,35 L6.66666667,37.5 L1.66666667,37.5 L1.66666667,35 Z M4.16666667,43.3333333 C2.78833333,43.3333333 1.66666667,42.2116667 1.66666667,40.8333333 L1.66666667,39.1666667 L7.5,39.1666667 C7.96083333,39.1666667 8.33333333,38.7933333 8.33333333,38.3333333 L8.33333333,34.1666667 L8.33333333,30 L8.33333333,25.8333333 L8.33333333,21.6666667 C8.33333333,21.2066667 7.96083333,20.8333333 7.5,20.8333333 L1.66666667,20.8333333 L1.66666667,16.6666667 L30,16.6666667 L30,20.8333333 L12.5,20.8333333 C12.0391667,20.8333333 11.6666667,21.2066667 11.6666667,21.6666667 L11.6666667,31.165 C11.6666667,35.5166667 13.3458333,39.7225 16.3633333,43.3333333 L4.16666667,43.3333333 Z M25,48.2183333 C17.6858333,44.1783333 13.3333333,37.8308333 13.3333333,31.165 L13.3333333,22.5 L36.6666667,22.5 L36.6666667,29.1666667 L35,29.1666667 L35,25 C35,24.54 34.6275,24.1666667 34.1666667,24.1666667 L15.8333333,24.1666667 C15.3725,24.1666667 15,24.54 15,25 L15,29.5583333 C15,36.3041667 18.6791667,42.5016667 24.6008333,45.7316667 C24.725,45.7991667 24.8625,45.8333333 25,45.8333333 C25.1375,45.8333333 25.275,45.7991667 25.3991667,45.7316667 C28.4416667,44.0725 30.8866667,41.6258333 32.55,38.7283333 L33.935,40.1133333 C31.9291667,43.2666667 28.8891667,46.0708333 25,48.2183333 Z M25,29.1666667 C24.6633333,29.1666667 24.3583333,29.37 24.23,29.6808333 C24.1008333,29.9925 24.1725,30.3508333 24.4108333,30.5891667 L31.3233333,37.5016667 C29.88,40.1808333 27.7183333,42.4641667 25,44.0441667 C19.8475,41.05 16.6666667,35.5416667 16.6666667,29.5591667 L16.6666667,25.8333333 L33.3333333,25.8333333 L33.3333333,29.1666667 L25,29.1666667 Z M33.2808333,30.8333333 C33.1466667,32.5975 32.7383333,34.3066667 32.0841667,35.905 L27.0116667,30.8333333 L33.2808333,30.8333333 Z M34.7983333,38.6191667 L33.3466667,37.1675 C34.2433333,35.1916667 34.8025,33.0533333 34.9558333,30.8325 L36.6666667,30.8325 L36.6666667,31.165 C36.6666667,33.7358333 36.0133333,36.2575 34.7983333,38.6191667 Z" id="Shape" fill="#9BA5AE"></path>
                    <rect id="Rectangle-path" fill="#9BA5AE" x="41.6666667" y="29.1666667" width="1.66666667" height="1.66666667"></rect>
                    <rect id="Rectangle-path" fill="#9BA5AE" x="45" y="29.1666667" width="1.66666667" height="1.66666667"></rect>
                    <rect id="Rectangle-path" fill="#9BA5AE" x="48.3333333" y="29.1666667" width="1.66666667" height="1.66666667"></rect>
                    <rect id="Rectangle-path" fill="#F56107" x="45" y="6.66666667" width="1.66666667" height="1.66666667"></rect>
                    <rect id="Rectangle-path" fill="#F56107" x="48.3333333" y="6.66666667" width="1.66666667" height="1.66666667"></rect>
                    <path d="M48.3333333,15 L38.6783333,15 L40.5891667,13.0891667 L39.4108333,11.9108333 L36.0775,15.2441667 C35.7516667,15.57 35.7516667,16.0966667 36.0775,16.4225 L39.4108333,19.7558333 L40.5891667,18.5775 L38.6783333,16.6666667 L48.3333333,16.6666667 L48.3333333,15 Z" id="Shape" fill="#F56107"></path>
                    <path d="M50,22.5 L42.845,22.5 L44.7558333,20.5891667 L43.5775,19.4108333 L40.2441667,22.7441667 C39.9183333,23.07 39.9183333,23.5966667 40.2441667,23.9225 L43.5775,27.2558333 L44.7558333,26.0775 L42.845,24.1666667 L50,24.1666667 L50,22.5 Z" id="Shape" fill="#F56107"></path>
                    <path d="M43.3333333,6.66666667 L33.6783333,6.66666667 L35.5891667,4.75583333 L34.4108333,3.5775 L31.0775,6.91083333 C30.7516667,7.23666667 30.7516667,7.76333333 31.0775,8.08916667 L34.4108333,11.4225 L35.5891667,10.2441667 L33.6783333,8.33333333 L43.3333333,8.33333333 L43.3333333,6.66666667 Z" id="Shape" fill="#F56107"></path>
                </g>
            </g>
        </g>
    </g>
</svg>