<?xml version="1.0" encoding="UTF-8"?>
<svg width="15px" height="11px" viewBox="0 0 15 11" version="1.1" xmlns="http://www.w3.org/2000/svg" xmlns:xlink="http://www.w3.org/1999/xlink">
    <!-- Generator: sketchtool 46 (44423) - http://www.bohemiancoding.com/sketch -->
    <title>9752E8B9-7B72-4B67-B9E7-06DDC779D959</title>
    <desc>Created with sketchtool.</desc>
    <defs></defs>
    <g id="Page-1" stroke="none" stroke-width="1" fill="none" fill-rule="evenodd" opacity="0.25">
        <g id="Desktop" transform="translate(-1135.000000, -4490.000000)" fill-rule="nonzero" fill="#000000">
            <g id="close-envelope" transform="translate(1135.000000, 4490.000000)">
                <path d="M7.56857263,7.51138808 L5.71146986,5.89285714 L0.401785714,10.4249573 C0.594787157,10.6032519 0.855339105,10.7142857 1.14269681,10.7142857 L13.9944485,10.7142857 C14.2807339,10.7142857 14.5402136,10.6032519 14.7321429,10.4249573 L9.4256754,5.89285714 L7.56857263,7.51138808 Z" id="Shape"></path>
                <path d="M14.7321429,0.290357143 C14.5391559,0.110357143 14.2796955,0 13.9912872,0 L1.14049708,0 C0.854233022,0 0.594772718,0.111428571 0.401785714,0.2925 L7.56589214,6.42857143 L14.7321429,0.290357143 Z" id="Shape"></path>
                <polygon id="Shape" points="0 0.9375 0 9.77678571 5.22321429 5.40714845"></polygon>
                <polygon id="Shape" points="9.77678571 5.40872574 15 9.77678571 15 0.9375"></polygon>
            </g>
        </g>
    </g>
</svg>