<svg xmlns="http://www.w3.org/2000/svg" viewBox="0 0 125.6 55.02"><defs><style>.cls-1{fill:#193c25;}.cls-2{fill:#e46914;}</style></defs><title>de novo-logo</title><g id="Layer_1" data-name="Layer 1"><path class="cls-1" d="M61.65,10.27a5.83,5.83,0,0,0-2.37-1.76,8.8,8.8,0,0,0-10.59,3V8.32H43.38V30.17H49.1v-9.9a19,19,0,0,1,.44-5,4.18,4.18,0,0,1,1.62-2.18,4.55,4.55,0,0,1,2.67-.82,3.4,3.4,0,0,1,2,.58A3.24,3.24,0,0,1,57,14.44,17.51,17.51,0,0,1,57.37,19V30.17h5.72V16.59a17.85,17.85,0,0,0-.32-3.88A6.43,6.43,0,0,0,61.65,10.27Z"/><path class="cls-1" d="M106,8.32H99.88L96,19.47c-.21.61-.43,1.23-.61,1.85-.09.3-.28.93-.59,1.88l-1.19-3.72L89.75,8.32H83.42l1.38,3.51L92,30.17h5.59l7-18.24Z"/><path class="cls-1" d="M83,11A10.8,10.8,0,0,0,75,7.82h0a11.78,11.78,0,0,0-5.78,1.43,9.71,9.71,0,0,0-4,4.11,12,12,0,0,0-1.41,5.58,13.41,13.41,0,0,0,1.41,6.39,9.3,9.3,0,0,0,4.12,4A12.52,12.52,0,0,0,75,30.67h0a10.69,10.69,0,0,0,8-3.26A11.1,11.1,0,0,0,84.79,25a11.93,11.93,0,0,0,1.38-5.79,11.79,11.79,0,0,0-1.38-5.77A10.89,10.89,0,0,0,83,11ZM78.74,24.22A4.81,4.81,0,0,1,75,26h0a4.85,4.85,0,0,1-3.77-1.73,7.25,7.25,0,0,1-1.53-5,7.26,7.26,0,0,1,1.53-5A4.85,4.85,0,0,1,75,12.53h0a4.81,4.81,0,0,1,3.77,1.73,7.23,7.23,0,0,1,1.53,4.94A7.35,7.35,0,0,1,78.74,24.22Z"/><path class="cls-1" d="M122.46,11a10.79,10.79,0,0,0-8.06-3.22h0a11.76,11.76,0,0,0-5.77,1.43,9.7,9.7,0,0,0-4,4.11v0a12,12,0,0,0-1.4,5.55,13.42,13.42,0,0,0,1.4,6.37v0a9.29,9.29,0,0,0,4.12,4,12.5,12.5,0,0,0,5.66,1.36h0a10.68,10.68,0,0,0,8-3.26,11.33,11.33,0,0,0,3.17-8.22A11.18,11.18,0,0,0,122.46,11Zm-4.28,13.18A4.81,4.81,0,0,1,114.41,26h0a4.85,4.85,0,0,1-3.77-1.73,7.26,7.26,0,0,1-1.53-5,7.27,7.27,0,0,1,1.53-5,4.85,4.85,0,0,1,3.77-1.73h0a4.81,4.81,0,0,1,3.76,1.73,7.23,7.23,0,0,1,1.53,4.94A7.36,7.36,0,0,1,118.18,24.22Z"/><path class="cls-2" d="M15.5,10A8.38,8.38,0,0,0,10.7,7.9a13.78,13.78,0,0,0-1.52-.08A8.49,8.49,0,0,0,2.6,10.71Q0,13.6,0,19.16t2.67,8.47a10.8,10.8,0,0,0,8,3.17,11.57,11.57,0,0,0,7.8-2.66c1.93-1.78,2.76-4.59,2.76-8.73V0H15.5ZM14.13,24.4a4.24,4.24,0,0,1-3.39,1.7h0a4.35,4.35,0,0,1-3.85-2.26,10,10,0,0,1-1-5.06,7.4,7.4,0,0,1,1.39-4.89,4.33,4.33,0,0,1,3.43-1.64h0a4.28,4.28,0,0,1,3.47,1.66c.9,1.1,1.35,2.92,1.35,5.42A7.9,7.9,0,0,1,14.13,24.4Z"/><path class="cls-2" d="M36.29,23.89a4,4,0,0,1-1.18,1.72,3.55,3.55,0,0,1-2.28.74,5.15,5.15,0,0,1-.67,0,4.34,4.34,0,0,1-2.67-1.39,4.7,4.7,0,0,1-1-1.59l3.65-.85,3.74-.87a8.5,8.5,0,0,0,4.8-2.73c1.53-2,1.63-4.8-.8-7.83a9.72,9.72,0,0,0-7.71-3.22h0A9.35,9.35,0,0,0,25,10.9Q22.16,14,22.16,19.41a12.51,12.51,0,0,0,2.17,7.53q2.59,3.53,7.84,3.71h.6a10.3,10.3,0,0,0,6-1.66,9.69,9.69,0,0,0,3.59-5.12H36.29ZM28.2,17.37a5.32,5.32,0,0,1,1.22-3.74,4,4,0,0,1,2.75-1.37l.38,0a3.9,3.9,0,0,1,3,1.31C36.87,15,36,17.3,33.7,17.75l-1.53.36-4,.94,0-1.67Z"/><path class="cls-1" d="M.92,38.63V36.12H42.33v2.52Z"/><path id="Shape_1_copy" data-name="Shape 1 copy" class="cls-2" d="M42.25,38.63V36.12H125.6v2.52Z"/></g><g id="Слой_2" data-name="Слой 2"><path class="cls-1" d="M2.32,43.29V52.6H1.76V43.29Z"/><path class="cls-1" d="M4.93,45.9v1.48A2.53,2.53,0,0,1,7.4,45.72a2.27,2.27,0,0,1,1.73.66,2.56,2.56,0,0,1,.62,1.83v4.4H9.23V48.47q0-2.28-1.95-2.28a2.12,2.12,0,0,0-2,1.1,3.75,3.75,0,0,0-.38,1.84V52.6H4.42V45.9Z"/><path class="cls-1" d="M16.59,47.85h-.54a1.71,1.71,0,0,0-.6-1.28A2.39,2.39,0,0,0,14,46.18a2.23,2.23,0,0,0-1.33.35,1.12,1.12,0,0,0-.49,1,1.16,1.16,0,0,0,0,.29,1.2,1.2,0,0,0,.08.23.64.64,0,0,0,.15.2l.17.16a.92.92,0,0,0,.23.13l.24.1.29.08.29.08.33.08.32.07.69.16.63.22a2.2,2.2,0,0,1,.62.34,1.77,1.77,0,0,1,.37.49,1.49,1.49,0,0,1,.17.72,1.7,1.7,0,0,1-.73,1.43,3.12,3.12,0,0,1-1.92.54,2.92,2.92,0,0,1-2-.65,2.29,2.29,0,0,1-.73-1.81h.52a1.85,1.85,0,0,0,.58,1.49,2.47,2.47,0,0,0,1.66.5,2.59,2.59,0,0,0,1.51-.41,1.25,1.25,0,0,0,.58-1.07,1,1,0,0,0-.14-.52,1.54,1.54,0,0,0-.29-.37,1.63,1.63,0,0,0-.48-.26,4.16,4.16,0,0,0-.48-.16l-.52-.12-.17,0-.36-.08-.4-.08-.38-.1a2.31,2.31,0,0,1-.38-.14l-.33-.16a.92.92,0,0,1-.3-.22l-.22-.28a1,1,0,0,1-.16-.35,1.91,1.91,0,0,1,0-.43,1.58,1.58,0,0,1,.65-1.33,3,3,0,0,1,1.8-.48,2.85,2.85,0,0,1,1.84.54A2,2,0,0,1,16.59,47.85Z"/><path class="cls-1" d="M19.11,45.9v1.6a2.46,2.46,0,0,1,2.5-1.78,2.7,2.7,0,0,1,2.18,1,3.91,3.91,0,0,1,.82,2.6,3.87,3.87,0,0,1-.82,2.57,2.92,2.92,0,0,1-3.75.52,2.33,2.33,0,0,1-.9-1.29V55h-.52V45.9Zm2.47.26a2.19,2.19,0,0,0-1.82.83,3.65,3.65,0,0,0-.65,2.31,4.41,4.41,0,0,0,.24,1.5,2.5,2.5,0,0,0,.82,1.13,2.22,2.22,0,0,0,1.42.46,2.16,2.16,0,0,0,1.79-.85,3.52,3.52,0,0,0,.67-2.25A3.59,3.59,0,0,0,23.38,47,2.18,2.18,0,0,0,21.58,46.17Z"/><path class="cls-1" d="M27,43.29v1.32h-.52V43.29Zm0,2.62v6.7h-.52V45.9Z"/><path class="cls-1" d="M32.16,45.85v.54H32a2.19,2.19,0,0,0-1.84.9,2.4,2.4,0,0,0-.46,1,8.14,8.14,0,0,0-.1,1.38V52.6H29V45.9h.51v1.77a2.86,2.86,0,0,1,1-1.39A2.83,2.83,0,0,1,32.16,45.85Z"/><path class="cls-1" d="M38.82,50.33a3,3,0,0,1-.94,1.81,2.76,2.76,0,0,1-1.92.69,2.79,2.79,0,0,1-2.22-1,3.75,3.75,0,0,1-.83-2.55,3.89,3.89,0,0,1,.84-2.6,2.74,2.74,0,0,1,2.2-1,2.57,2.57,0,0,1,2.17,1,3.93,3.93,0,0,1,.76,2.46v.18H33.46a3.56,3.56,0,0,0,.63,2.15,2.17,2.17,0,0,0,1.88.88,2.22,2.22,0,0,0,1.52-.54,2.64,2.64,0,0,0,.8-1.52Zm-.47-1.43A3,3,0,0,0,37.73,47a2.12,2.12,0,0,0-1.77-.8,2.14,2.14,0,0,0-1.77.76,3.57,3.57,0,0,0-.73,1.95Z"/><path class="cls-1" d="M46.28,43.29V52.6h-.5V51a2.42,2.42,0,0,1-.93,1.36A3,3,0,0,1,41,51.86a3.87,3.87,0,0,1-.8-2.58,3.92,3.92,0,0,1,.82-2.61,2.7,2.7,0,0,1,2.18-1,2.55,2.55,0,0,1,2.52,1.75V43.29Zm-3,2.87a2.17,2.17,0,0,0-1.79.84,3.58,3.58,0,0,0-.67,2.28,3.52,3.52,0,0,0,.66,2.26,2.19,2.19,0,0,0,1.81.82,2.23,2.23,0,0,0,1.84-.84,3.53,3.53,0,0,0,.67-2.28,3.73,3.73,0,0,0-.63-2.2A2.16,2.16,0,0,0,43.24,46.15Z"/><path class="cls-1" d="M53,43.29v4.2a2.52,2.52,0,0,1,2.55-1.8,2.66,2.66,0,0,1,2.16,1,4.64,4.64,0,0,1,0,5.2,2.65,2.65,0,0,1-2.16,1A2.49,2.49,0,0,1,53,51V52.6h-.5V43.29Zm2.46,2.85A2.17,2.17,0,0,0,53.7,47,3.49,3.49,0,0,0,53,49.23a3.57,3.57,0,0,0,.68,2.28,2.35,2.35,0,0,0,3.62,0,4.2,4.2,0,0,0,0-4.55A2.25,2.25,0,0,0,55.49,46.14Z"/><path class="cls-1" d="M65.39,45.9,62.5,53.29q-.2.51-.29.72a3.24,3.24,0,0,1-.31.5,1.07,1.07,0,0,1-.5.39,2.2,2.2,0,0,1-.73.1l-.51,0v-.47a2.31,2.31,0,0,0,.43,0,1.22,1.22,0,0,0,.75-.2,1.54,1.54,0,0,0,.47-.67q.31-.72.46-1.08L59.42,45.9H60l2.21,5.25c.07.17.17.45.3.84q.25-.73.31-.9l2-5.18Z"/><path class="cls-1" d="M73.24,45.9v.46H71.8V50.9c0,.2,0,.34,0,.41a2.87,2.87,0,0,0,0,.32.53.53,0,0,0,.13.29.88.88,0,0,0,.27.16,1.16,1.16,0,0,0,.44.07,3.55,3.55,0,0,0,.55-.05v.48a4.86,4.86,0,0,1-.63.05,1.78,1.78,0,0,1-.65-.1,1.31,1.31,0,0,1-.4-.23.77.77,0,0,1-.2-.41,2.55,2.55,0,0,1-.07-.46q0-.18,0-.59V46.36H70V45.9h1.24V43.8h.52V45.9Z"/><path class="cls-1" d="M75.23,43.29v4.13a2.67,2.67,0,0,1,.9-1.23,2.44,2.44,0,0,1,1.51-.46,2.24,2.24,0,0,1,1.79.69,2.78,2.78,0,0,1,.6,1.88V52.6h-.52V48.39A2.52,2.52,0,0,0,79,46.78a1.8,1.8,0,0,0-1.5-.6,2,2,0,0,0-1.4.5A2.59,2.59,0,0,0,75.34,48a5,5,0,0,0-.12,1.19v3.4H74.7V43.29Z"/><path class="cls-1" d="M87.6,50.33a3,3,0,0,1-.94,1.81,2.76,2.76,0,0,1-1.92.69,2.79,2.79,0,0,1-2.22-1,3.75,3.75,0,0,1-.83-2.55,3.89,3.89,0,0,1,.84-2.6,2.74,2.74,0,0,1,2.2-1,2.57,2.57,0,0,1,2.17,1,3.93,3.93,0,0,1,.76,2.46v.18H82.24a3.56,3.56,0,0,0,.63,2.15,2.17,2.17,0,0,0,1.88.88,2.22,2.22,0,0,0,1.52-.54,2.64,2.64,0,0,0,.8-1.52Zm-.47-1.43A3,3,0,0,0,86.51,47a2.12,2.12,0,0,0-1.77-.8A2.14,2.14,0,0,0,83,47a3.57,3.57,0,0,0-.73,1.95Z"/><path class="cls-1" d="M96.05,43.27v.47l-.52,0a1.3,1.3,0,0,0-.52.09,1.09,1.09,0,0,0-.32.2.66.66,0,0,0-.16.35,2.36,2.36,0,0,0-.06.39c0,.1,0,.26,0,.46v.71h1.4v.46h-1.4V52.6h-.52V46.36H92.77V45.9h1.16v-.84a2.49,2.49,0,0,1,.31-1.37,1.42,1.42,0,0,1,1.26-.46Z"/><path class="cls-1" d="M102.4,45.9v6.7h-.5V51.19a2.45,2.45,0,0,1-2.41,1.61,2.21,2.21,0,0,1-1.77-.69,2.77,2.77,0,0,1-.6-1.88V45.9h.52v4.2q0,2.24,1.95,2.24a2,2,0,0,0,1.7-.82,3.36,3.36,0,0,0,.58-2V45.9Z"/><path class="cls-1" d="M106.92,45.9v.46h-1.44V50.9c0,.2,0,.34,0,.41a2.87,2.87,0,0,0,0,.32.53.53,0,0,0,.13.29.88.88,0,0,0,.27.16,1.16,1.16,0,0,0,.44.07,3.55,3.55,0,0,0,.55-.05v.48a4.86,4.86,0,0,1-.63.05,1.78,1.78,0,0,1-.65-.1,1.31,1.31,0,0,1-.4-.23.77.77,0,0,1-.2-.41,2.55,2.55,0,0,1-.07-.46q0-.18,0-.59V46.36h-1.24V45.9H105V43.8h.52V45.9Z"/><path class="cls-1" d="M113.62,45.9v6.7h-.5V51.19a2.45,2.45,0,0,1-2.41,1.61A2.21,2.21,0,0,1,109,52.1a2.77,2.77,0,0,1-.6-1.88V45.9h.52v4.2q0,2.24,1.95,2.24a2,2,0,0,0,1.7-.82,3.36,3.36,0,0,0,.58-2V45.9Z"/><path class="cls-1" d="M118.79,45.85v.54h-.2a2.19,2.19,0,0,0-1.84.9,2.4,2.4,0,0,0-.46,1,8.14,8.14,0,0,0-.1,1.38V52.6h-.52V45.9h.51v1.77a2.86,2.86,0,0,1,1-1.39A2.83,2.83,0,0,1,118.79,45.85Z"/><path class="cls-1" d="M125.45,50.33a3,3,0,0,1-.94,1.81,2.76,2.76,0,0,1-1.92.69,2.79,2.79,0,0,1-2.22-1,3.75,3.75,0,0,1-.83-2.55,3.89,3.89,0,0,1,.84-2.6,2.74,2.74,0,0,1,2.2-1,2.57,2.57,0,0,1,2.17,1,3.93,3.93,0,0,1,.76,2.46v.18h-5.43a3.56,3.56,0,0,0,.63,2.15,2.17,2.17,0,0,0,1.88.88,2.22,2.22,0,0,0,1.52-.54,2.64,2.64,0,0,0,.8-1.52ZM125,48.9a3,3,0,0,0-.62-1.91,2.12,2.12,0,0,0-1.77-.8,2.14,2.14,0,0,0-1.77.76,3.57,3.57,0,0,0-.73,1.95Z"/></g></svg>