<svg width="88" height="88" viewBox="0 0 88 88" fill="none" xmlns="http://www.w3.org/2000/svg">
<path d="M72.875 74.25C73.6344 74.25 74.25 73.6344 74.25 72.875C74.25 72.1156 73.6344 71.5 72.875 71.5C72.1156 71.5 71.5 72.1156 71.5 72.875C71.5 73.6344 72.1156 74.25 72.875 74.25Z" fill="white"/>
<path d="M42.625 74.25C43.3844 74.25 44 73.6344 44 72.875C44 72.1156 43.3844 71.5 42.625 71.5C41.8656 71.5 41.25 72.1156 41.25 72.875C41.25 73.6344 41.8656 74.25 42.625 74.25Z" fill="white"/>
<path d="M86.625 71.5H79.6125C79.2969 69.9459 78.4537 68.5486 77.2258 67.545C75.9979 66.5414 74.4608 65.9931 72.875 65.9931C71.2891 65.9931 69.752 66.5414 68.5241 67.545C67.2962 68.5486 66.453 69.9459 66.1375 71.5H49.3625C49.0469 69.9459 48.2037 68.5486 46.9758 67.545C45.7479 66.5414 44.2108 65.9931 42.625 65.9931C41.0391 65.9931 39.502 66.5414 38.2741 67.545C37.0462 68.5486 36.2031 69.9459 35.8875 71.5H30.8605C29.8713 71.5054 28.9135 71.1527 28.1641 70.5069C27.4147 69.8612 26.9244 68.966 26.7836 67.9869L25.6602 60.5H75.702C77.3463 60.4913 78.9337 59.8971 80.1795 58.8239C81.4253 57.7507 82.2479 56.2688 82.5 54.6439L84.0963 44H20.4022L24.0625 68.3952C24.2987 70.027 25.1168 71.5184 26.3662 72.5944C27.6155 73.6704 29.2117 74.2584 30.8605 74.25H35.8875C36.2031 75.8041 37.0462 77.2014 38.2741 78.205C39.502 79.2086 41.0391 79.7569 42.625 79.7569C44.2108 79.7569 45.7479 79.2086 46.9758 78.205C48.2037 77.2014 49.0469 75.8041 49.3625 74.25H66.1375C66.453 75.8041 67.2962 77.2014 68.5241 78.205C69.752 79.2086 71.2891 79.7569 72.875 79.7569C74.4608 79.7569 75.9979 79.2086 77.2258 78.205C78.4537 77.2014 79.2969 75.8041 79.6125 74.25H86.625C86.9896 74.25 87.3394 74.1051 87.5972 73.8473C87.8551 73.5894 88 73.2397 88 72.875C88 72.5103 87.8551 72.1606 87.5972 71.9027C87.3394 71.6449 86.9896 71.5 86.625 71.5ZM42.625 77C41.8091 77 41.0116 76.7581 40.3332 76.3048C39.6549 75.8515 39.1262 75.2073 38.814 74.4536C38.5018 73.6998 38.4201 72.8704 38.5792 72.0703C38.7384 71.2701 39.1313 70.5351 39.7082 69.9582C40.285 69.3813 41.02 68.9884 41.8202 68.8293C42.6204 68.6701 43.4498 68.7518 44.2035 69.064C44.9573 69.3762 45.6015 69.9049 46.0548 70.5833C46.508 71.2616 46.75 72.0591 46.75 72.875C46.75 73.969 46.3154 75.0182 45.5418 75.7918C44.7682 76.5654 43.719 77 42.625 77ZM72.875 77C72.0591 77 71.2616 76.7581 70.5832 76.3048C69.9049 75.8515 69.3762 75.2073 69.064 74.4536C68.7518 73.6998 68.6701 72.8704 68.8292 72.0703C68.9884 71.2701 69.3813 70.5351 69.9582 69.9582C70.535 69.3813 71.27 68.9884 72.0702 68.8293C72.8704 68.6701 73.6998 68.7518 74.4535 69.064C75.2073 69.3762 75.8515 69.9049 76.3048 70.5833C76.758 71.2616 77 72.0591 77 72.875C77 73.969 76.5654 75.0182 75.7918 75.7918C75.0182 76.5654 73.969 77 72.875 77Z" fill="white"/>
<path d="M85.8 32.6452C85.9468 31.667 85.8808 30.6687 85.6065 29.7184C85.3322 28.7681 84.856 27.8881 84.2106 27.1386C83.5651 26.3891 82.7655 25.7877 81.8664 25.3755C80.9672 24.9633 79.9898 24.7499 79.0006 24.75H20.2964L19.9375 22.3547C19.7013 20.7229 18.8831 19.2315 17.6338 18.1556C16.3845 17.0796 14.7883 16.4916 13.1395 16.5H9.625C9.26033 16.5 8.91059 16.6448 8.65273 16.9027C8.39487 17.1606 8.25 17.5103 8.25 17.875C8.25 18.2396 8.39487 18.5894 8.65273 18.8472C8.91059 19.1051 9.26033 19.25 9.625 19.25H13.1395C14.1287 19.2445 15.0865 19.5973 15.8358 20.243C16.5852 20.8888 17.0756 21.7839 17.2164 22.7631L19.9897 41.25H84.5089L85.8 32.6452Z" fill="white"/>
<path fill-rule="evenodd" clip-rule="evenodd" d="M6.875 0H42.625C44.4477 0.0021833 46.1951 0.727213 47.4839 2.01605C48.7728 3.30489 49.4978 5.05231 49.5 6.875V81.125C49.4978 82.9477 48.7728 84.6951 47.4839 85.9839C46.1951 87.2728 44.4477 87.9978 42.625 88H6.875C5.05231 87.9978 3.30489 87.2728 2.01605 85.9839C0.727213 84.6951 0.0021833 82.9477 0 81.125V6.875C0.0021833 5.05231 0.727213 3.30489 2.01605 2.01605C3.30489 0.727213 5.05231 0.0021833 6.875 0ZM30.2761 4.09475C30.5397 3.61456 30.8536 3.16378 31.2125 2.75H18.2875C18.6442 3.16279 18.9562 3.61217 19.2184 4.09062L20.0282 5.60312C20.4562 6.40338 21.0935 7.07233 21.8721 7.53852C22.6508 8.00472 23.5414 8.25063 24.4489 8.25H25.0511C25.9572 8.24989 26.8464 8.00406 27.6238 7.53868C28.4013 7.07331 29.0381 6.40581 29.4663 5.60725L30.2761 4.09475ZM45.5418 84.0418C46.3154 83.2682 46.75 82.219 46.75 81.125V6.875C46.75 5.78098 46.3154 4.73177 45.5418 3.95818C44.7682 3.1846 43.719 2.75 42.625 2.75H37.125C36.2191 2.75006 35.3301 2.99589 34.5528 3.46128C33.7756 3.92667 33.1391 4.5942 32.7113 5.39275L31.9 6.90525C31.2369 8.14455 30.2493 9.18023 29.0429 9.9015C27.8365 10.6228 26.4567 11.0025 25.0511 11H24.4489C23.0449 11.0018 21.6667 10.6222 20.4617 9.9017C19.2566 9.18123 18.2699 8.14697 17.6069 6.90938L16.7956 5.39687C16.3679 4.59643 15.7306 3.92731 14.952 3.46109C14.1733 2.99486 13.2826 2.74907 12.375 2.75H6.875C5.78098 2.75 4.73177 3.1846 3.95818 3.95818C3.1846 4.73177 2.75 5.78098 2.75 6.875V81.125C2.75 82.219 3.1846 83.2682 3.95818 84.0418C4.73177 84.8154 5.78098 85.25 6.875 85.25H42.625C43.719 85.25 44.7682 84.8154 45.5418 84.0418ZM24.75 16.5H39.875C40.2397 16.5 40.5894 16.6449 40.8473 16.9027C41.1051 17.1606 41.25 17.5103 41.25 17.875C41.25 18.2397 41.1051 18.5894 40.8473 18.8473C40.5894 19.1051 40.2397 19.25 39.875 19.25H24.75C24.3853 19.25 24.0356 19.1051 23.7777 18.8473C23.5199 18.5894 23.375 18.2397 23.375 17.875C23.375 17.5103 23.5199 17.1606 23.7777 16.9027C24.0356 16.6449 24.3853 16.5 24.75 16.5ZM9.625 33C9.26033 33 8.91059 33.1449 8.65273 33.4027C8.39487 33.6606 8.25 34.0103 8.25 34.375C8.25 34.7397 8.39487 35.0894 8.65273 35.3473C8.91059 35.6051 9.26033 35.75 9.625 35.75H39.875C40.2397 35.75 40.5894 35.6051 40.8473 35.3473C41.1051 35.0894 41.25 34.7397 41.25 34.375C41.25 34.0103 41.1051 33.6606 40.8473 33.4027C40.5894 33.1449 40.2397 33 39.875 33H9.625ZM9.625 24.75H39.875C40.2397 24.75 40.5894 24.8949 40.8473 25.1527C41.1051 25.4106 41.25 25.7603 41.25 26.125C41.25 26.4897 41.1051 26.8394 40.8473 27.0973C40.5894 27.3551 40.2397 27.5 39.875 27.5H9.625C9.26033 27.5 8.91059 27.3551 8.65273 27.0973C8.39487 26.8394 8.25 26.4897 8.25 26.125C8.25 25.7603 8.39487 25.4106 8.65273 25.1527C8.91059 24.8949 9.26033 24.75 9.625 24.75Z" fill="#EB9F2D"/>
</svg>
