<svg width="88" height="88" viewBox="0 0 88 88" fill="none" xmlns="http://www.w3.org/2000/svg">
<g clip-path="url(#clip0)">
<path fill-rule="evenodd" clip-rule="evenodd" d="M44.6957 19.316L72.4115 35.6125C72.6319 35.7426 72.8116 35.9316 72.9303 36.1582C73.0491 36.3849 73.1023 36.6402 73.0839 36.8954L72.7374 41.9375C70.8992 68.5065 52.2273 82.2142 46.4461 86.4583C45.611 87.0714 45.0449 87.487 44.8373 87.7154C44.597 87.9001 44.3024 88.0003 43.9992 88.0003C43.6961 88.0003 43.4015 87.9001 43.1612 87.7154C42.9683 87.5033 42.4302 87.1077 41.631 86.5202C35.9531 82.3459 17.0982 68.4842 15.2624 41.9375L14.9118 36.894C14.8939 36.6387 14.9477 36.3836 15.0669 36.1572C15.1862 35.9308 15.3663 35.7421 15.5869 35.6125L43.3028 19.316C43.5139 19.192 43.7544 19.1266 43.9992 19.1266C44.2441 19.1266 44.4845 19.192 44.6957 19.316ZM43.983 77.5907C44.2997 77.5947 44.6084 77.4917 44.8593 77.2984C50.4838 73.0464 55.1429 67.6503 58.5293 61.466C61.9158 55.2817 63.9525 48.4496 64.5053 41.4205C64.5234 41.165 64.4698 40.9095 64.3505 40.6829C64.2313 40.4562 64.051 40.2674 63.8302 40.1376L44.6957 28.8874C44.4845 28.7634 44.2441 28.698 43.9992 28.698C43.7544 28.698 43.5139 28.7634 43.3028 28.8874L24.1711 40.1376C23.9502 40.2674 23.77 40.4562 23.6507 40.6829C23.5314 40.9095 23.4778 41.165 23.4959 41.4205C24.048 48.4437 26.0817 55.2703 29.4633 61.4505C32.8448 67.6308 37.4973 73.0245 43.1144 77.2764C43.3603 77.4759 43.6664 77.5867 43.983 77.5907ZM31.8477 60.0803C28.8073 54.5127 26.9225 48.3886 26.3062 42.0751L43.9997 31.6677L61.6946 42.0751C61.0777 48.3886 59.1924 54.5126 56.1519 60.0801C53.1113 65.6476 48.978 70.5439 43.9997 74.4756C39.0213 70.5441 34.8881 65.6478 31.8477 60.0803Z" fill="white"/>
<path fill-rule="evenodd" clip-rule="evenodd" d="M81.125 0H6.875C5.05231 0.0021833 3.30489 0.727213 2.01605 2.01605C0.727213 3.30489 0.0021833 5.05231 0 6.875V53.625C0.0021833 55.4477 0.727213 57.1951 2.01605 58.4839C3.30489 59.7728 5.05231 60.4978 6.875 60.5H81.125C82.9477 60.4978 84.6951 59.7728 85.9839 58.4839C87.2728 57.1951 87.9978 55.4477 88 53.625V6.875C87.9978 5.05231 87.2728 3.30489 85.9839 2.01605C84.6951 0.727213 82.9477 0.0021833 81.125 0ZM85.25 53.625C85.25 54.719 84.8154 55.7682 84.0418 56.5418C83.2682 57.3154 82.219 57.75 81.125 57.75H6.875C5.78098 57.75 4.73177 57.3154 3.95818 56.5418C3.1846 55.7682 2.75 54.719 2.75 53.625V13.75H85.25V53.625ZM85.25 11H2.75V6.875C2.75 5.78098 3.1846 4.73177 3.95818 3.95818C4.73177 3.1846 5.78098 2.75 6.875 2.75H81.125C82.219 2.75 83.2682 3.1846 84.0418 3.95818C84.8154 4.73177 85.25 5.78098 85.25 6.875V11ZM23.5418 51.0418C22.7682 51.8154 21.719 52.25 20.625 52.25H12.375C11.281 52.25 10.2318 51.8154 9.45818 51.0418C8.6846 50.2682 8.25 49.219 8.25 48.125V23.375C8.25 22.281 8.6846 21.2318 9.45818 20.4582C10.2318 19.6846 11.281 19.25 12.375 19.25H20.625C21.719 19.25 22.7682 19.6846 23.5418 20.4582C24.3154 21.2318 24.75 22.281 24.75 23.375V48.125C24.75 49.219 24.3154 50.2682 23.5418 51.0418ZM11.4027 22.4027C11.1449 22.6606 11 23.0103 11 23.375V48.125C11 48.4897 11.1449 48.8394 11.4027 49.0973C11.6606 49.3551 12.0103 49.5 12.375 49.5H20.625C20.9897 49.5 21.3394 49.3551 21.5973 49.0973C21.8551 48.8394 22 48.4897 22 48.125V23.375C22 23.0103 21.8551 22.6606 21.5973 22.4027C21.3394 22.1449 20.9897 22 20.625 22H12.375C12.0103 22 11.6606 22.1449 11.4027 22.4027ZM31.625 31.4627H78.375C78.7397 31.4627 79.0894 31.3179 79.3473 31.06C79.6051 30.8021 79.75 30.4524 79.75 30.0877C79.75 29.723 79.6051 29.3733 79.3473 29.1154C79.0894 28.8576 78.7397 28.7127 78.375 28.7127H31.625C31.2603 28.7127 30.9106 28.8576 30.6527 29.1154C30.3949 29.3733 30.25 29.723 30.25 30.0877C30.25 30.4524 30.3949 30.8021 30.6527 31.06C30.9106 31.3179 31.2603 31.4627 31.625 31.4627ZM31.625 42.7873H78.375C78.7397 42.7873 79.0894 42.6424 79.3473 42.3846C79.6051 42.1267 79.75 41.777 79.75 41.4123C79.75 41.0476 79.6051 40.6979 79.3473 40.44C79.0894 40.1821 78.7397 40.0373 78.375 40.0373H31.625C31.2603 40.0373 30.9106 40.1821 30.6527 40.44C30.3949 40.6979 30.25 41.0476 30.25 41.4123C30.25 41.777 30.3949 42.1267 30.6527 42.3846C30.9106 42.6424 31.2603 42.7873 31.625 42.7873ZM8.25 6.875C8.25 7.63439 7.63439 8.25 6.875 8.25C6.11561 8.25 5.5 7.63439 5.5 6.875C5.5 6.11561 6.11561 5.5 6.875 5.5C7.63439 5.5 8.25 6.11561 8.25 6.875ZM12.375 8.25C13.1344 8.25 13.75 7.63439 13.75 6.875C13.75 6.11561 13.1344 5.5 12.375 5.5C11.6156 5.5 11 6.11561 11 6.875C11 7.63439 11.6156 8.25 12.375 8.25ZM19.25 6.875C19.25 7.63439 18.6344 8.25 17.875 8.25C17.1156 8.25 16.5 7.63439 16.5 6.875C16.5 6.11561 17.1156 5.5 17.875 5.5C18.6344 5.5 19.25 6.11561 19.25 6.875Z" fill="#EB9F2D"/>
</g>
<defs>
<clipPath id="clip0">
<rect width="88" height="88" fill="white"/>
</clipPath>
</defs>
</svg>
