<svg width="88" height="88" viewBox="0 0 88 88" fill="none" xmlns="http://www.w3.org/2000/svg">
<path fill-rule="evenodd" clip-rule="evenodd" d="M15.125 0H81.125C82.9477 0.0021833 84.6951 0.727213 85.9839 2.01605C87.2728 3.30489 87.9978 5.05231 88 6.875V11H8.25V6.875C8.25218 5.05231 8.97721 3.30489 10.2661 2.01605C11.5549 0.727213 13.3023 0.0021833 15.125 0ZM14.3611 7.48615C14.5872 7.63723 14.8531 7.71788 15.125 7.71788C15.4897 7.71788 15.8394 7.57301 16.0973 7.31515C16.3551 7.05728 16.5 6.70755 16.5 6.34288C16.5 6.07093 16.4194 5.80508 16.2683 5.57897C16.1172 5.35285 15.9024 5.17661 15.6512 5.07254C15.3999 4.96847 15.1235 4.94124 14.8568 4.9943C14.59 5.04735 14.345 5.17831 14.1527 5.3706C13.9604 5.5629 13.8295 5.8079 13.7764 6.07463C13.7234 6.34135 13.7506 6.61782 13.8547 6.86907C13.9587 7.12031 14.135 7.33506 14.3611 7.48615ZM19.8611 7.48615C20.0872 7.63723 20.3531 7.71788 20.625 7.71788C20.9897 7.71788 21.3394 7.57301 21.5973 7.31515C21.8551 7.05728 22 6.70755 22 6.34288C22 6.07093 21.9194 5.80508 21.7683 5.57897C21.6172 5.35285 21.4024 5.17661 21.1512 5.07254C20.8999 4.96847 20.6235 4.94124 20.3568 4.9943C20.09 5.04735 19.845 5.17831 19.6527 5.3706C19.4604 5.5629 19.3295 5.8079 19.2764 6.07463C19.2234 6.34135 19.2506 6.61782 19.3547 6.86907C19.4587 7.12031 19.635 7.33506 19.8611 7.48615ZM25.3611 7.48615C25.5872 7.63723 25.8531 7.71788 26.125 7.71788C26.4897 7.71788 26.8394 7.57301 27.0973 7.31515C27.3551 7.05728 27.5 6.70755 27.5 6.34288C27.5 6.07093 27.4194 5.80508 27.2683 5.57897C27.1172 5.35285 26.9024 5.17661 26.6512 5.07254C26.3999 4.96847 26.1235 4.94124 25.8568 4.9943C25.59 5.04735 25.345 5.17831 25.1527 5.3706C24.9604 5.5629 24.8295 5.8079 24.7764 6.07463C24.7234 6.34135 24.7506 6.61782 24.8547 6.86907C24.9587 7.12031 25.135 7.33506 25.3611 7.48615ZM8.25 48.125V13.75H88V48.125C87.9978 49.9477 87.2728 51.6951 85.9839 52.9839C84.6951 54.2728 82.9477 54.9978 81.125 55H15.125C13.3023 54.9978 11.5549 54.2728 10.2661 52.9839C8.97721 51.6951 8.25218 49.9477 8.25 48.125Z" fill="white"/>
<path fill-rule="evenodd" clip-rule="evenodd" d="M6.875 19.5938H72.875C74.6977 19.5959 76.4451 20.321 77.7339 21.6098C79.0228 22.8986 79.7478 24.6461 79.75 26.4688V72.875C79.7478 74.6977 79.0228 76.4451 77.7339 77.7339C76.4451 79.0228 74.6977 79.7478 72.875 79.75H51.7C52.0191 81.3018 52.8635 82.6961 54.0908 83.698C55.3181 84.6999 56.8532 85.248 58.4375 85.25C58.8022 85.25 59.1519 85.3949 59.4098 85.6527C59.6676 85.9106 59.8125 86.2603 59.8125 86.625C59.8125 86.9897 59.6676 87.3394 59.4098 87.5973C59.1519 87.8551 58.8022 88 58.4375 88H21.3125C20.9478 88 20.5981 87.8551 20.3402 87.5973C20.0824 87.3394 19.9375 86.9897 19.9375 86.625C19.9375 86.2603 20.0824 85.9106 20.3402 85.6527C20.5981 85.3949 20.9478 85.25 21.3125 85.25C22.8968 85.248 24.4319 84.6999 25.6592 83.698C26.8865 82.6961 27.7309 81.3018 28.05 79.75H6.875C5.05231 79.7478 3.30489 79.0228 2.01605 77.7339C0.727213 76.4451 0.0021833 74.6977 0 72.875V26.4688C0.0021833 24.6461 0.727213 22.8986 2.01605 21.6098C3.30489 20.321 5.05231 19.5959 6.875 19.5938ZM28.05 85.25H51.7C50.1955 83.7713 49.2195 81.8385 48.9225 79.75H30.8344C30.5355 81.8394 29.557 83.7722 28.05 85.25ZM75.7918 75.7918C76.5654 75.0182 77 73.969 77 72.875V71.5H2.75V72.875C2.75 73.969 3.1846 75.0182 3.95818 75.7918C4.73177 76.5654 5.78098 77 6.875 77H72.875C73.969 77 75.0182 76.5654 75.7918 75.7918ZM2.75 68.75H77V26.4688C77 25.3747 76.5654 24.3255 75.7918 23.5519C75.0182 22.7783 73.969 22.3438 72.875 22.3438H6.875C5.78098 22.3438 4.73177 22.7783 3.95818 23.5519C3.1846 24.3255 2.75 25.3747 2.75 26.4688V68.75ZM33 27.8438H12.375C11.281 27.8438 10.2318 28.2783 9.45818 29.0519C8.6846 29.8255 8.25 30.8747 8.25 31.9688V59.125C8.25 60.219 8.6846 61.2682 9.45818 62.0418C10.2318 62.8154 11.281 63.25 12.375 63.25H33C34.094 63.25 35.1432 62.8154 35.9168 62.0418C36.6904 61.2682 37.125 60.219 37.125 59.125V31.9688C37.125 30.8747 36.6904 29.8255 35.9168 29.0519C35.1432 28.2783 34.094 27.8438 33 27.8438ZM34.375 59.125C34.375 59.4897 34.2301 59.8394 33.9723 60.0973C33.7144 60.3551 33.3647 60.5 33 60.5H12.375C12.0103 60.5 11.6606 60.3551 11.4027 60.0973C11.1449 59.8394 11 59.4897 11 59.125V31.9688C11 31.6041 11.1449 31.2543 11.4027 30.9965C11.6606 30.7386 12.0103 30.5938 12.375 30.5938H33C33.3647 30.5938 33.7144 30.7386 33.9723 30.9965C34.2301 31.2543 34.375 31.6041 34.375 31.9688V59.125ZM46.75 27.8438H67.375C68.469 27.8438 69.5182 28.2783 70.2918 29.0519C71.0654 29.8255 71.5 30.8747 71.5 31.9688V38.6719C71.5 39.7659 71.0654 40.8151 70.2918 41.5887C69.5182 42.3623 68.469 42.7969 67.375 42.7969H46.75C45.656 42.7969 44.6068 42.3623 43.8332 41.5887C43.0596 40.8151 42.625 39.7659 42.625 38.6719V31.9688C42.625 30.8747 43.0596 29.8255 43.8332 29.0519C44.6068 28.2783 45.656 27.8438 46.75 27.8438ZM68.3473 39.6441C68.6051 39.3863 68.75 39.0365 68.75 38.6719V31.9688C68.75 31.6041 68.6051 31.2543 68.3473 30.9965C68.0894 30.7386 67.7397 30.5938 67.375 30.5938H46.75C46.3853 30.5938 46.0356 30.7386 45.7777 30.9965C45.5199 31.2543 45.375 31.6041 45.375 31.9688V38.6719C45.375 39.0365 45.5199 39.3863 45.7777 39.6441C46.0356 39.902 46.3853 40.0469 46.75 40.0469H67.375C67.7397 40.0469 68.0894 39.902 68.3473 39.6441ZM50.1875 48.2969H46.75C45.656 48.2969 44.6068 48.7315 43.8332 49.5051C43.0596 50.2786 42.625 51.3279 42.625 52.4219V59.125C42.625 60.219 43.0596 61.2682 43.8332 62.0418C44.6068 62.8154 45.656 63.25 46.75 63.25H50.1875C51.2815 63.25 52.3307 62.8154 53.1043 62.0418C53.8779 61.2682 54.3125 60.219 54.3125 59.125V52.4219C54.3125 51.3279 53.8779 50.2786 53.1043 49.5051C52.3307 48.7315 51.2815 48.2969 50.1875 48.2969ZM51.5625 59.125C51.5625 59.4897 51.4176 59.8394 51.1598 60.0973C50.9019 60.3551 50.5522 60.5 50.1875 60.5H46.75C46.3853 60.5 46.0356 60.3551 45.7777 60.0973C45.5199 59.8394 45.375 59.4897 45.375 59.125V52.4219C45.375 52.0572 45.5199 51.7075 45.7777 51.4496C46.0356 51.1917 46.3853 51.0469 46.75 51.0469H50.1875C50.5522 51.0469 50.9019 51.1917 51.1598 51.4496C51.4176 51.7075 51.5625 52.0572 51.5625 52.4219V59.125ZM67.375 48.2969H63.9375C62.8435 48.2969 61.7943 48.7315 61.0207 49.5051C60.2471 50.2786 59.8125 51.3279 59.8125 52.4219V59.125C59.8125 60.219 60.2471 61.2682 61.0207 62.0418C61.7943 62.8154 62.8435 63.25 63.9375 63.25H67.375C68.469 63.25 69.5182 62.8154 70.2918 62.0418C71.0654 61.2682 71.5 60.219 71.5 59.125V52.4219C71.5 51.3279 71.0654 50.2786 70.2918 49.5051C69.5182 48.7315 68.469 48.2969 67.375 48.2969ZM68.75 59.125C68.75 59.4897 68.6051 59.8394 68.3473 60.0973C68.0894 60.3551 67.7397 60.5 67.375 60.5H63.9375C63.5728 60.5 63.2231 60.3551 62.9652 60.0973C62.7074 59.8394 62.5625 59.4897 62.5625 59.125V52.4219C62.5625 52.0572 62.7074 51.7075 62.9652 51.4496C63.2231 51.1917 63.5728 51.0469 63.9375 51.0469H67.375C67.7397 51.0469 68.0894 51.1917 68.3473 51.4496C68.6051 51.7075 68.75 52.0572 68.75 52.4219V59.125Z" fill="#EB9F2D"/>
</svg>
