<svg width="88" height="88" viewBox="0 0 88 88" fill="none" xmlns="http://www.w3.org/2000/svg">
<g clip-path="url(#clip0)">
<path d="M64.625 0H23.375C21.5523 0.0021833 19.8049 0.727213 18.5161 2.01605C17.2272 3.30489 16.5022 5.05231 16.5 6.875V38.5C16.5022 40.3227 17.2272 42.0701 18.5161 43.3589C19.8049 44.6478 21.5523 45.3728 23.375 45.375H36.476C37.2424 45.3728 37.9941 45.5852 38.6461 45.9881C39.2981 46.391 39.8243 46.9683 40.1651 47.6548L42.7694 52.8646C42.8834 53.0934 43.059 53.2859 43.2764 53.4205C43.4938 53.555 43.7443 53.6263 44 53.6263C44.2557 53.6263 44.5062 53.555 44.7236 53.4205C44.941 53.2859 45.1166 53.0934 45.2306 52.8646L47.8349 47.6548C48.1757 46.9683 48.7019 46.391 49.3539 45.9881C50.0059 45.5852 50.7576 45.3728 51.524 45.375H64.625C66.4477 45.3728 68.1951 44.6478 69.4839 43.3589C70.7728 42.0701 71.4978 40.3227 71.5 38.5V6.875C71.4978 5.05231 70.7728 3.30489 69.4839 2.01605C68.1951 0.727213 66.4477 0.0021833 64.625 0V0ZM33.275 24.0625C33.0031 24.0625 32.7372 23.9819 32.5111 23.8308C32.285 23.6797 32.1087 23.4649 32.0047 23.2137C31.9006 22.9624 31.8734 22.686 31.9264 22.4193C31.9795 22.1525 32.1104 21.9075 32.3027 21.7152C32.495 21.5229 32.74 21.392 33.0068 21.3389C33.2735 21.2859 33.5499 21.3131 33.8012 21.4172C34.0524 21.5212 34.2672 21.6975 34.4183 21.9236C34.5694 22.1497 34.65 22.4156 34.65 22.6875C34.65 23.0522 34.5051 23.4019 34.2473 23.6598C33.9894 23.9176 33.6397 24.0625 33.275 24.0625ZM40.425 24.0625C40.153 24.0625 39.8872 23.9819 39.6611 23.8308C39.435 23.6797 39.2587 23.4649 39.1547 23.2137C39.0506 22.9624 39.0234 22.686 39.0764 22.4193C39.1295 22.1525 39.2604 21.9075 39.4527 21.7152C39.645 21.5229 39.89 21.392 40.1568 21.3389C40.4235 21.2859 40.6999 21.3131 40.9512 21.4172C41.2024 21.5212 41.4172 21.6975 41.5683 21.9236C41.7194 22.1497 41.8 22.4156 41.8 22.6875C41.8 23.0522 41.6551 23.4019 41.3973 23.6598C41.1394 23.9176 40.7897 24.0625 40.425 24.0625ZM47.575 24.0625C47.303 24.0625 47.0372 23.9819 46.8111 23.8308C46.585 23.6797 46.4087 23.4649 46.3047 23.2137C46.2006 22.9624 46.1734 22.686 46.2264 22.4193C46.2795 22.1525 46.4104 21.9075 46.6027 21.7152C46.795 21.5229 47.04 21.392 47.3068 21.3389C47.5735 21.2859 47.8499 21.3131 48.1012 21.4172C48.3524 21.5212 48.5672 21.6975 48.7183 21.9236C48.8694 22.1497 48.95 22.4156 48.95 22.6875C48.95 23.0522 48.8051 23.4019 48.5473 23.6598C48.2894 23.9176 47.9397 24.0625 47.575 24.0625ZM54.725 24.0625C54.453 24.0625 54.1872 23.9819 53.9611 23.8308C53.735 23.6797 53.5587 23.4649 53.4547 23.2137C53.3506 22.9624 53.3234 22.686 53.3764 22.4193C53.4295 22.1525 53.5604 21.9075 53.7527 21.7152C53.945 21.5229 54.19 21.392 54.4567 21.3389C54.7235 21.2859 54.9999 21.3131 55.2512 21.4172C55.5024 21.5212 55.7172 21.6975 55.8683 21.9236C56.0194 22.1497 56.1 22.4156 56.1 22.6875C56.1 23.0522 55.9551 23.4019 55.6973 23.6598C55.4394 23.9176 55.0897 24.0625 54.725 24.0625Z" fill="white"/>
<path d="M86.625 77H79.75V41.25C79.7478 39.4273 79.0228 37.6799 77.7339 36.3911C76.4451 35.1022 74.6977 34.3772 72.875 34.375H15.125C13.3023 34.3772 11.5549 35.1022 10.2661 36.3911C8.97721 37.6799 8.25218 39.4273 8.25 41.25V77H1.375C1.01033 77 0.660591 77.1449 0.402728 77.4027C0.144866 77.6606 0 78.0103 0 78.375L0 81.125C0.0021833 82.9477 0.727213 84.6951 2.01605 85.9839C3.30489 87.2728 5.05231 87.9978 6.875 88H81.125C82.9477 87.9978 84.6951 87.2728 85.9839 85.9839C87.2728 84.6951 87.9978 82.9477 88 81.125V78.375C88 78.0103 87.8551 77.6606 87.5973 77.4027C87.3394 77.1449 86.9897 77 86.625 77ZM11 41.25C11 40.156 11.4346 39.1068 12.2082 38.3332C12.9818 37.5596 14.031 37.125 15.125 37.125H72.875C73.969 37.125 75.0182 37.5596 75.7918 38.3332C76.5654 39.1068 77 40.156 77 41.25V77H11V41.25ZM85.25 81.125C85.25 82.219 84.8154 83.2682 84.0418 84.0418C83.2682 84.8154 82.219 85.25 81.125 85.25H6.875C5.78098 85.25 4.73177 84.8154 3.95818 84.0418C3.1846 83.2682 2.75 82.219 2.75 81.125V79.75H85.25V81.125Z" fill="#EB9F2D"/>
<path d="M67.375 42.625H59.8125C58.7185 42.625 57.6693 43.0596 56.8957 43.8332C56.1221 44.6068 55.6875 45.656 55.6875 46.75V51.0469C55.6875 52.1409 56.1221 53.1901 56.8957 53.9637C57.6693 54.7373 58.7185 55.1719 59.8125 55.1719H67.375C68.469 55.1719 69.5182 54.7373 70.2918 53.9637C71.0654 53.1901 71.5 52.1409 71.5 51.0469V46.75C71.5 45.656 71.0654 44.6068 70.2918 43.8332C69.5182 43.0596 68.469 42.625 67.375 42.625ZM68.75 51.0469C68.75 51.4115 68.6051 51.7613 68.3473 52.0191C68.0894 52.277 67.7397 52.4219 67.375 52.4219H59.8125C59.4478 52.4219 59.0981 52.277 58.8402 52.0191C58.5824 51.7613 58.4375 51.4115 58.4375 51.0469V46.75C58.4375 46.3853 58.5824 46.0356 58.8402 45.7777C59.0981 45.5199 59.4478 45.375 59.8125 45.375H67.375C67.7397 45.375 68.0894 45.5199 68.3473 45.7777C68.6051 46.0356 68.75 46.3853 68.75 46.75V51.0469Z" fill="#EB9F2D"/>
<path d="M47.7812 58.9531H40.2188C39.1247 58.9531 38.0755 59.3877 37.3019 60.1613C36.5283 60.9349 36.0938 61.9841 36.0938 63.0781V67.375C36.0938 68.469 36.5283 69.5182 37.3019 70.2918C38.0755 71.0654 39.1247 71.5 40.2188 71.5H47.7812C48.8753 71.5 49.9245 71.0654 50.6981 70.2918C51.4717 69.5182 51.9062 68.469 51.9062 67.375V63.0781C51.9062 61.9841 51.4717 60.9349 50.6981 60.1613C49.9245 59.3877 48.8753 58.9531 47.7812 58.9531ZM49.1562 67.375C49.1562 67.7397 49.0114 68.0894 48.7535 68.3473C48.4957 68.6051 48.1459 68.75 47.7812 68.75H40.2188C39.8541 68.75 39.5043 68.6051 39.2465 68.3473C38.9886 68.0894 38.8438 67.7397 38.8438 67.375V63.0781C38.8438 62.7135 38.9886 62.3637 39.2465 62.1059C39.5043 61.848 39.8541 61.7031 40.2188 61.7031H47.7812C48.1459 61.7031 48.4957 61.848 48.7535 62.1059C49.0114 62.3637 49.1562 62.7135 49.1562 63.0781V67.375Z" fill="#EB9F2D"/>
<path d="M67.375 58.9531H59.8125C58.7185 58.9531 57.6693 59.3877 56.8957 60.1613C56.1221 60.9349 55.6875 61.9841 55.6875 63.0781V67.375C55.6875 68.469 56.1221 69.5182 56.8957 70.2918C57.6693 71.0654 58.7185 71.5 59.8125 71.5H67.375C68.469 71.5 69.5182 71.0654 70.2918 70.2918C71.0654 69.5182 71.5 68.469 71.5 67.375V63.0781C71.5 61.9841 71.0654 60.9349 70.2918 60.1613C69.5182 59.3877 68.469 58.9531 67.375 58.9531ZM68.75 67.375C68.75 67.7397 68.6051 68.0894 68.3473 68.3473C68.0894 68.6051 67.7397 68.75 67.375 68.75H59.8125C59.4478 68.75 59.0981 68.6051 58.8402 68.3473C58.5824 68.0894 58.4375 67.7397 58.4375 67.375V63.0781C58.4375 62.7135 58.5824 62.3637 58.8402 62.1059C59.0981 61.848 59.4478 61.7031 59.8125 61.7031H67.375C67.7397 61.7031 68.0894 61.848 68.3473 62.1059C68.6051 62.3637 68.75 62.7135 68.75 63.0781V67.375Z" fill="#EB9F2D"/>
<path d="M30.9375 68.75H17.875C17.5103 68.75 17.1606 68.8949 16.9027 69.1527C16.6449 69.4106 16.5 69.7603 16.5 70.125C16.5 70.4897 16.6449 70.8394 16.9027 71.0973C17.1606 71.3551 17.5103 71.5 17.875 71.5H30.9375C31.3022 71.5 31.6519 71.3551 31.9098 71.0973C32.1676 70.8394 32.3125 70.4897 32.3125 70.125C32.3125 69.7603 32.1676 69.4106 31.9098 69.1527C31.6519 68.8949 31.3022 68.75 30.9375 68.75Z" fill="#EB9F2D"/>
<path d="M28.1875 42.625H20.625C19.531 42.625 18.4818 43.0596 17.7082 43.8332C16.9346 44.6068 16.5 45.656 16.5 46.75V59.125C16.5 60.219 16.9346 61.2682 17.7082 62.0418C18.4818 62.8154 19.531 63.25 20.625 63.25H28.1875C29.2815 63.25 30.3307 62.8154 31.1043 62.0418C31.8779 61.2682 32.3125 60.219 32.3125 59.125V46.75C32.3125 45.656 31.8779 44.6068 31.1043 43.8332C30.3307 43.0596 29.2815 42.625 28.1875 42.625ZM29.5625 59.125C29.5625 59.4897 29.4176 59.8394 29.1598 60.0973C28.9019 60.3551 28.5522 60.5 28.1875 60.5H20.625C20.2603 60.5 19.9106 60.3551 19.6527 60.0973C19.3949 59.8394 19.25 59.4897 19.25 59.125V46.75C19.25 46.3853 19.3949 46.0356 19.6527 45.7777C19.9106 45.5199 20.2603 45.375 20.625 45.375H28.1875C28.5522 45.375 28.9019 45.5199 29.1598 45.7777C29.4176 46.0356 29.5625 46.3853 29.5625 46.75V59.125Z" fill="#EB9F2D"/>
</g>
<defs>
<clipPath id="clip0">
<rect width="88" height="88" fill="white"/>
</clipPath>
</defs>
</svg>
