<svg width="24" height="24" viewBox="0 0 24 24" fill="none" xmlns="http://www.w3.org/2000/svg">
<path d="M20.8086 10.2921L12.2763 4.04492C12.1118 3.92448 11.8882 3.92448 11.7238 4.04492L3.19145 10.2921C2.98304 10.4447 2.93776 10.7373 3.09037 10.9457C3.24298 11.1541 3.53566 11.1993 3.74403 11.0468L12 5.00191L20.256 11.0468C20.3392 11.1078 20.436 11.1371 20.5319 11.1371C20.6759 11.1371 20.818 11.0709 20.9096 10.9457C21.0622 10.7373 21.017 10.4447 20.8086 10.2921Z" fill="#CFCFCF"/>
<path d="M18.5477 11.1526C18.2894 11.1526 18.08 11.362 18.08 11.6203V19.0646H14.3386V15.001C14.3386 13.7115 13.2895 12.6624 12 12.6624C10.7105 12.6624 9.66141 13.7115 9.66141 15.001V19.0646H5.91998V11.6203C5.91998 11.362 5.71056 11.1526 5.4523 11.1526C5.19404 11.1526 4.98462 11.362 4.98462 11.6203V19.5323C4.98462 19.7906 5.19404 20 5.4523 20H10.1291C10.375 20 10.5763 19.81 10.5949 19.5687C10.5961 19.5578 10.5968 19.5458 10.5968 19.5323V15.001C10.5968 14.2273 11.2262 13.5978 12 13.5978C12.7738 13.5978 13.4032 14.2273 13.4032 15.001V19.5323C13.4032 19.5458 13.4039 19.5575 13.4051 19.5683C13.4235 19.8097 13.6248 20 13.8709 20H18.5477C18.806 20 19.0154 19.7906 19.0154 19.5323V11.6203C19.0153 11.362 18.806 11.1526 18.5477 11.1526Z" fill="#CFCFCF"/>
</svg>
