<svg width="24" height="24" viewBox="0 0 24 24" fill="none" xmlns="http://www.w3.org/2000/svg">
<path d="M18.3873 5H6.42305C5.08676 5 4 6.10509 4 7.46392V16.6685C4 18.0274 5.08676 19.1325 6.42305 19.1325H18.384C19.7203 19.1325 20.807 18.0274 20.807 16.6685V7.46392C20.8103 6.10509 19.7236 5 18.3873 5ZM19.8418 13.5469H16.286C15.4849 13.5469 14.8315 12.8825 14.8315 12.0679C14.8315 11.2533 15.4849 10.5889 16.286 10.5889H19.8418V13.5469ZM19.8418 9.60065H16.286C14.9497 9.60065 13.8629 10.7057 13.8629 12.0646C13.8629 13.4234 14.9497 14.5285 16.286 14.5285H19.8418V16.6652C19.8418 17.4798 19.1884 18.1442 18.3873 18.1442H6.42305C5.62193 18.1442 4.96856 17.4798 4.96856 16.6652V7.46392C4.96856 6.64929 5.62193 5.9849 6.42305 5.9849H18.384C19.1851 5.9849 19.8385 6.64929 19.8385 7.46392L19.8418 9.60065Z" fill="#CFCFCF"/>
<path d="M16.9296 11.574H16.2828C16.0136 11.574 15.7969 11.7946 15.7969 12.0688C15.7969 12.343 16.0136 12.5636 16.2828 12.5636H16.9296C17.1988 12.5636 17.4155 12.343 17.4155 12.0688C17.4155 11.7946 17.1988 11.574 16.9296 11.574Z" fill="#CFCFCF"/>
</svg>
