<svg width="24" height="24" viewBox="0 0 24 24" fill="none" xmlns="http://www.w3.org/2000/svg">
<path d="M19.6132 11.9944C19.6423 11.7643 19.6589 11.547 19.6589 11.334C19.6589 8.39008 17.3254 6 14.4604 6C12.7456 6 11.1346 6.88616 10.1713 8.33044C9.68553 8.07481 9.15406 7.93848 8.60184 7.93848C6.82474 7.93848 5.3549 9.33589 5.18881 11.1295C3.34943 11.4576 2 13.0765 2 15.0278C2 17.2091 3.72727 18.9814 5.85315 18.9814H17.1469C19.2727 18.9814 21 17.2091 21 15.0278C21 13.8391 20.4976 12.7485 19.6132 11.9944ZM17.1469 18.2103H5.85315C4.14248 18.2103 2.74738 16.7831 2.74738 15.0235C2.74738 13.3875 3.99301 11.9944 5.57911 11.8538L5.91958 11.8069V11.4533C5.91958 9.9366 7.11954 8.70535 8.59768 8.70535C9.12915 8.70535 9.63986 8.86299 10.08 9.16547L10.4122 9.39127L10.6115 9.03766C11.4087 7.63599 12.8785 6.76261 14.4563 6.76261C16.9102 6.76261 18.9032 8.8076 18.9032 11.3255C18.9032 11.5641 18.8824 11.8154 18.8368 12.0881L18.7994 12.3224L18.9862 12.463C19.7876 13.0723 20.2485 14.0053 20.2485 15.0235C20.2526 16.7831 18.8575 18.2103 17.1469 18.2103Z" fill="#CFCFCF"/>
<path d="M13 7.99731V8.60817C14.8592 8.60817 16.3705 10.113 16.3705 11.9642H16.9841C16.9878 9.77774 15.1996 7.99731 13 7.99731Z" fill="#CFCFCF"/>
</svg>
