<svg width="24" height="24" viewBox="0 0 24 24" fill="none" xmlns="http://www.w3.org/2000/svg">
<path d="M13.9046 5.65332H10.0688C9.44477 5.65379 8.93701 6.16119 8.93701 6.78435C8.93701 7.00212 8.93701 12.8117 8.93701 13.0422C8.93706 13.6659 9.44508 14.1733 10.0697 14.1733H13.9039C14.5286 14.1733 15.0368 13.6659 15.0368 13.0422C15.0368 10.7139 15.0368 9.01069 15.0368 6.78435C15.0367 6.16113 14.5289 5.65374 13.9046 5.65332ZM14.2556 13.0422C14.2556 13.2358 14.0978 13.3933 13.9039 13.3933H10.0697C9.87587 13.3933 9.71826 13.2358 9.71826 13.0422V12.6406H14.2556V13.0422H14.2556ZM14.2556 11.8414H9.71821V11.0887H14.2556V11.8414ZM14.2556 10.3087H9.71821V9.53692H14.2556V10.3087ZM14.2556 8.75684H9.71821V7.98508H14.2556V8.75684ZM14.2556 7.20505H9.71821V6.78435C9.71821 6.59093 9.87576 6.4335 10.0691 6.4334H13.9042C14.0979 6.43356 14.2555 6.59104 14.2555 6.78435V7.20505H14.2556Z" fill="#CFCFCF"/>
<path d="M13.7496 17.356H10.2246C10.0088 17.356 9.83398 17.5309 9.83398 17.7465C9.83398 17.9623 10.0088 18.1371 10.2246 18.1371H13.7496C13.9653 18.1371 14.1401 17.9622 14.1401 17.7465C14.1401 17.5308 13.9652 17.356 13.7496 17.356Z" fill="#CFCFCF"/>
<path d="M16.6756 5.13114C16.6756 4.5074 16.1674 4 15.5428 4H8.43089C7.8063 4 7.29818 4.50745 7.29818 5.13114V5.59147L7.29807 6.37166V7.02713H4.00729C3.45188 7.02713 3 7.47836 3 8.03298V19.1468C3 19.7014 3.45188 20.1526 4.00729 20.1526H4.62828C4.84406 20.1526 5.01885 19.978 5.01885 19.7626C5.01885 19.5472 4.84401 19.3726 4.62828 19.3726H4.00729C3.88255 19.3726 3.78115 19.2713 3.78115 19.1468V8.03277C3.78115 7.90826 3.88255 7.80695 4.00729 7.80695H7.29807V8.75679H5.83245C5.20839 8.75726 4.70068 9.26466 4.70068 9.88783C4.70068 11.6893 4.70068 10.5668 4.70068 13.0421C4.70068 13.6658 5.2088 14.1732 5.83339 14.1732H7.29807C7.29807 14.7406 7.29807 18.7999 7.29807 19.3724H6.45099C6.23521 19.3724 6.06042 19.5471 6.06042 19.7624C6.06042 19.9779 6.23526 20.1525 6.45099 20.1525C7.79563 20.1525 7.8088 20.1834 7.95474 20.0474C8.27234 20.1949 7.81318 20.1525 15.5427 20.1525C15.7128 20.1525 15.8739 20.1146 16.0188 20.0474C16.1743 20.1922 15.982 20.1525 19.9664 20.1525C20.5218 20.1525 20.9736 19.7013 20.9736 19.1467V8.03277C20.9736 7.47815 20.5218 7.02692 19.9664 7.02692H16.6755V6.37145L16.6756 5.13114ZM7.29818 13.3932H5.83349C5.63964 13.3932 5.48198 13.2357 5.48198 13.0421V12.6405H7.29823V13.3932H7.29818ZM7.29818 11.8413H5.48193V11.0887H7.29818V11.8413ZM7.29818 10.3086H5.48193V9.88788C5.48193 9.69446 5.63948 9.53708 5.83281 9.53692H7.29813V10.3086H7.29818ZM15.8945 19.0215C15.8945 19.2151 15.7367 19.3725 15.5429 19.3725H8.43089C8.23703 19.3725 8.07938 19.215 8.07938 19.0215C8.07938 17.7247 8.07938 6.45316 8.07938 5.13114C8.07938 4.93751 8.23708 4.78008 8.43089 4.78008H15.5429C15.7368 4.78008 15.8945 4.93762 15.8945 5.13114C15.8945 5.48824 15.8945 18.6315 15.8945 19.0215ZM16.6756 9.53687H18.1406C18.3343 9.53703 18.4918 9.69446 18.4918 9.88783V10.3085H16.6755V9.53687H16.6756ZM16.6756 11.0887H18.4918V11.8413H16.6756V11.0887ZM16.6756 12.6405H18.4918V13.0421C18.4918 13.2357 18.3341 13.3932 18.1403 13.3932H16.6756V12.6405H16.6756ZM19.9664 7.807C20.0911 7.807 20.1926 7.90831 20.1926 8.03282V19.1468C20.1926 19.2713 20.0911 19.3725 19.9664 19.3725H16.6756C16.6756 18.8001 16.6756 14.7406 16.6756 14.1733H18.1403C18.7648 14.1733 19.273 13.6659 19.273 13.0422C19.273 12.3691 19.273 10.5546 19.273 9.88793C19.273 9.26476 18.7653 8.75736 18.1409 8.75689H16.6756V7.80705H19.9664V7.807Z" fill="#CFCFCF"/>
</svg>
