<svg width="120" height="13" viewBox="0 0 120 13" fill="none" xmlns="http://www.w3.org/2000/svg">
<path d="M119 4.65034C118.1 4.65034 117.3 4.65034 116.5 4.75335C115.3 2.17813 111.6 0.426983 107.1 0.426983C102.6 0.426983 99 2.28114 97.7 4.75335C96.9 4.75335 96 4.65034 95.2 4.65034C94.4 4.65034 93.5 4.65034 92.7 4.75335C91.5 2.17813 87.8 0.323975 83.3 0.323975C78.8 0.323975 75.2 2.17813 73.9 4.65034C73.1 4.65034 72.2 4.54734 71.4 4.54734C70.6 4.54734 69.7 4.54734 68.9 4.65034C67.7 2.17813 64 0.323975 59.5 0.323975C55 0.323975 51.4 2.17813 50.1 4.65034C49.3 4.65034 48.4 4.54734 47.6 4.54734C46.8 4.54734 45.9 4.54734 45.1 4.65034C43.9 2.17813 40.2 0.323975 35.7 0.323975C31.2 0.323975 27.6 2.17813 26.3 4.65034C25.5 4.65034 24.6 4.54734 23.8 4.54734C22.9 4.54734 22.1 4.54734 21.3 4.65034C20 2.17813 16.4 0.323975 11.9 0.323975C7.5 0.323975 3.8 2.17813 2.6 4.65034C1.7 4.65034 0.9 4.65034 0 4.65034V8.56468C0.9 8.56468 1.7 8.56468 2.6 8.46167C3.8 11.0369 7.5 12.788 12 12.788C16.5 12.788 20.1 10.9339 21.4 8.46167C22.1 8.56468 22.9 8.56468 23.8 8.56468C24.7 8.56468 25.5 8.56468 26.3 8.46167C27.5 11.0369 31.2 12.788 35.7 12.788C40.2 12.788 43.8 10.9339 45.1 8.46167C45.9 8.56468 46.7 8.56468 47.6 8.56468C48.5 8.56468 49.3 8.56468 50.1 8.46167C51.3 11.0369 55 12.788 59.5 12.788C64 12.788 67.6 10.9339 68.9 8.46167C69.7 8.56468 70.5 8.56468 71.4 8.56468C72.3 8.56468 73.1 8.56468 73.9 8.46167C75.1 11.0369 78.8 12.788 83.3 12.788C87.8 12.788 91.4 10.9339 92.7 8.46167C93.5 8.56468 94.4 8.56468 95.2 8.56468C96 8.56468 96.9 8.56468 97.7 8.46167C98.9 11.0369 102.6 12.788 107.1 12.788C111.6 12.788 115.2 10.9339 116.5 8.46167C117.3 8.46167 118.1 8.56468 119 8.56468C119.3 8.56468 119.6 8.56468 120 8.56468V4.65034C119.7 4.65034 119.4 4.65034 119 4.65034ZM17.7 8.15264C16.6 9.07972 14.6 9.80079 11.9 9.80079C9.2 9.80079 7.2 9.07972 6.1 8.15264C8.3 7.84362 9.8 7.22556 9.8 6.60751C9.8 5.98946 8.4 5.47441 6.1 5.06238C7.2 4.1353 9.2 3.41424 11.9 3.41424C14.6 3.41424 16.6 4.1353 17.7 5.06238C15.5 5.37141 14 5.98946 14 6.60751C14.1 7.22556 15.5 7.74061 17.7 8.15264ZM41.5 8.15264C40.4 9.07972 38.4 9.80079 35.7 9.80079C33 9.80079 31 9.07972 29.9 8.15264C32.1 7.84362 33.6 7.22556 33.6 6.60751C33.6 5.98946 32.2 5.47441 29.9 5.06238C31 4.1353 33 3.41424 35.7 3.41424C38.4 3.41424 40.4 4.1353 41.5 5.06238C39.3 5.37141 37.8 5.98946 37.8 6.60751C37.9 7.22556 39.3 7.74061 41.5 8.15264ZM65.4 8.15264C64.3 9.07972 62.3 9.80079 59.6 9.80079C56.9 9.80079 54.9 9.07972 53.8 8.15264C56 7.84362 57.5 7.22556 57.5 6.60751C57.5 5.98946 56.1 5.47441 53.8 5.06238C54.8 4.1353 56.8 3.41424 59.5 3.41424C62.2 3.41424 64.2 4.1353 65.3 5.06238C63.1 5.37141 61.6 5.98946 61.6 6.60751C61.7 7.22556 63.1 7.74061 65.4 8.15264ZM89.2 8.15264C88 8.97671 86 9.80079 83.3 9.80079C80.6 9.80079 78.6 9.07972 77.5 8.15264C79.7 7.84362 81.1 7.22556 81.1 6.60751C81.1 5.98946 79.7 5.47441 77.5 5.06238C78.6 4.1353 80.7 3.41424 83.3 3.41424C86 3.41424 88 4.1353 89.2 5.06238C87 5.37141 85.5 5.98946 85.5 6.60751C85.5 7.22556 86.9 7.74061 89.2 8.15264ZM113 8.15264C111.9 9.07972 109.9 9.80079 107.2 9.80079C104.5 9.80079 102.5 9.07972 101.4 8.15264C103.6 7.84362 105 7.22556 105 6.60751C105 5.98946 103.6 5.47441 101.4 5.06238C102.5 4.1353 104.5 3.41424 107.2 3.41424C109.9 3.41424 111.9 4.1353 113 5.06238C110.8 5.37141 109.3 5.98946 109.3 6.60751C109.3 7.22556 110.7 7.74061 113 8.15264Z" fill="#C5DE96"/>
</svg>
