<svg width="18" height="18" viewBox="0 0 18 18" fill="none" xmlns="http://www.w3.org/2000/svg">
<path d="M9.83268 8.16675H13.166C13.387 8.16675 13.599 8.25455 13.7553 8.41083C13.9116 8.56711 13.9993 8.77907 13.9993 9.00008C13.9993 9.2211 13.9116 9.43306 13.7553 9.58934C13.599 9.74562 13.387 9.83342 13.166 9.83342H8.99935C8.77834 9.83342 8.56637 9.74562 8.41009 9.58934C8.25381 9.43306 8.16602 9.2211 8.16602 9.00008V4.00008C8.16602 3.77907 8.25381 3.56711 8.41009 3.41083C8.56637 3.25455 8.77834 3.16675 8.99935 3.16675C9.22036 3.16675 9.43232 3.25455 9.5886 3.41083C9.74489 3.56711 9.83268 3.77907 9.83268 4.00008V8.16675ZM8.99935 17.3334C4.39685 17.3334 0.666016 13.6026 0.666016 9.00008C0.666016 4.39758 4.39685 0.666748 8.99935 0.666748C13.6018 0.666748 17.3327 4.39758 17.3327 9.00008C17.3327 13.6026 13.6018 17.3334 8.99935 17.3334ZM8.99935 15.6667C10.7675 15.6667 12.4632 14.9644 13.7134 13.7141C14.9636 12.4639 15.666 10.7682 15.666 9.00008C15.666 7.23197 14.9636 5.53628 13.7134 4.28604C12.4632 3.03579 10.7675 2.33341 8.99935 2.33341C7.23124 2.33341 5.53555 3.03579 4.2853 4.28604C3.03506 5.53628 2.33268 7.23197 2.33268 9.00008C2.33268 10.7682 3.03506 12.4639 4.2853 13.7141C5.53555 14.9644 7.23124 15.6667 8.99935 15.6667Z" fill="#DCBC5A"/>
</svg>
