<svg width="32" height="32" viewBox="0 0 32 32" fill="none" xmlns="http://www.w3.org/2000/svg">
<path d="M24.4001 7.61363C24.2767 7.49003 24.1302 7.39196 23.9689 7.32505C23.8076 7.25815 23.6347 7.22371 23.4601 7.22371C23.2854 7.22371 23.1125 7.25815 22.9512 7.32505C22.7899 7.39196 22.6434 7.49003 22.5201 7.61363L16.0001 14.1203L9.48005 7.6003C9.35661 7.47686 9.21006 7.37894 9.04878 7.31213C8.88749 7.24532 8.71463 7.21094 8.54005 7.21094C8.36548 7.21094 8.19261 7.24532 8.03133 7.31213C7.87004 7.37894 7.7235 7.47686 7.60005 7.6003C7.47661 7.72374 7.37869 7.87029 7.31188 8.03157C7.24508 8.19286 7.21069 8.36572 7.21069 8.5403C7.21069 8.71487 7.24508 8.88774 7.31188 9.04902C7.37869 9.21031 7.47661 9.35686 7.60005 9.4803L14.1201 16.0003L7.60005 22.5203C7.47661 22.6437 7.37869 22.7903 7.31188 22.9516C7.24508 23.1129 7.21069 23.2857 7.21069 23.4603C7.21069 23.6349 7.24508 23.8077 7.31188 23.969C7.37869 24.1303 7.47661 24.2768 7.60005 24.4003C7.7235 24.5237 7.87004 24.6217 8.03133 24.6885C8.19261 24.7553 8.36548 24.7897 8.54005 24.7897C8.71463 24.7897 8.88749 24.7553 9.04878 24.6885C9.21006 24.6217 9.35661 24.5237 9.48005 24.4003L16.0001 17.8803L22.5201 24.4003C22.6435 24.5237 22.79 24.6217 22.9513 24.6885C23.1126 24.7553 23.2855 24.7897 23.4601 24.7897C23.6346 24.7897 23.8075 24.7553 23.9688 24.6885C24.1301 24.6217 24.2766 24.5237 24.4001 24.4003C24.5235 24.2768 24.6214 24.1303 24.6882 23.969C24.755 23.8077 24.7894 23.6349 24.7894 23.4603C24.7894 23.2857 24.755 23.1129 24.6882 22.9516C24.6214 22.7903 24.5235 22.6437 24.4001 22.5203L17.8801 16.0003L24.4001 9.4803C24.9067 8.97363 24.9067 8.1203 24.4001 7.61363Z" fill="#8D8D8D"/>
</svg>
