<svg width="20" height="20" viewBox="0 0 20 20" fill="none" xmlns="http://www.w3.org/2000/svg">
<path d="M15.8327 3.33325H4.16602C3.50297 3.33325 2.86709 3.59664 2.39825 4.06549C1.92941 4.53433 1.66602 5.17021 1.66602 5.83325V14.1666C1.66602 14.8296 1.92941 15.4655 2.39825 15.9344C2.86709 16.4032 3.50297 16.6666 4.16602 16.6666H15.8327C16.4957 16.6666 17.1316 16.4032 17.6005 15.9344C18.0693 15.4655 18.3327 14.8296 18.3327 14.1666V5.83325C18.3327 5.17021 18.0693 4.53433 17.6005 4.06549C17.1316 3.59664 16.4957 3.33325 15.8327 3.33325ZM15.491 4.99992L10.591 9.89992C10.5135 9.97802 10.4214 10.04 10.3198 10.0823C10.2183 10.1246 10.1094 10.1464 9.99935 10.1464C9.88934 10.1464 9.78042 10.1246 9.67887 10.0823C9.57732 10.04 9.48515 9.97802 9.40768 9.89992L4.50768 4.99992H15.491ZM16.666 14.1666C16.666 14.3876 16.5782 14.5996 16.4219 14.7558C16.2657 14.9121 16.0537 14.9999 15.8327 14.9999H4.16602C3.945 14.9999 3.73304 14.9121 3.57676 14.7558C3.42048 14.5996 3.33268 14.3876 3.33268 14.1666V6.17492L8.23268 11.0749C8.70143 11.5431 9.33685 11.8061 9.99935 11.8061C10.6619 11.8061 11.2973 11.5431 11.766 11.0749L16.666 6.17492V14.1666Z" fill="#DCBC5A"/>
</svg>
