<svg width="19" height="24" viewBox="0 0 19 24" fill="none" xmlns="http://www.w3.org/2000/svg">
<g clip-path="url(#clip0)">
<path d="M0 24H19V4.2L14.8 0H0" fill="#0F9D57"/>
<path d="M14.8 4.2H19L14.8 0" fill="#57BB8A"/>
<path d="M19 8.39995V4.19995H14.8" fill="#098540"/>
<path d="M8.47492 14.1099H13.5899V16.2299H8.47492V14.1099ZM5.29992 14.1099H7.59492V16.2299H5.29992V14.1099ZM8.47492 10.9349H13.5899V13.2299H8.47492V10.9349ZM5.29992 10.9349H7.59492V13.2299H5.29992V10.9349ZM8.47492 7.93993H13.5899V10.2299H8.47492V7.93993ZM5.29992 7.93993H7.59492V10.2299H5.29992V7.93993ZM4.41992 17.1099H14.4749V7.05493H4.41992V17.1099Z" fill="white"/>
</g>
<defs>
<clipPath id="clip0">
<rect width="19" height="24" fill="white"/>
</clipPath>
</defs>
</svg>
