<svg width="24" height="24" viewBox="0 0 24 24" fill="none" xmlns="http://www.w3.org/2000/svg">
<circle cx="12" cy="12" r="11.5" stroke="#7FA244"/>
<path d="M14.9993 6.0025L13.4432 6C11.6949 6 10.5651 7.15914 10.5651 8.95322V10.3148H9.00054C8.86534 10.3148 8.75586 10.4245 8.75586 10.5597V12.5325C8.75586 12.6677 8.86547 12.7772 9.00054 12.7772H10.5651V17.7553C10.5651 17.8905 10.6746 18 10.8098 18H12.8512C12.9864 18 13.0959 17.8904 13.0959 17.7553V12.7772H14.9253C15.0605 12.7772 15.17 12.6677 15.17 12.5325L15.1707 10.5597C15.1707 10.4947 15.1449 10.4326 15.099 10.3866C15.0532 10.3407 14.9908 10.3148 14.9259 10.3148H13.0959V9.16058C13.0959 8.60579 13.2281 8.32415 13.9508 8.32415L14.999 8.32377C15.1341 8.32377 15.2436 8.21416 15.2436 8.07909V6.24718C15.2436 6.11223 15.1342 6.00275 14.9993 6.0025Z" fill="#7FA244"/>
</svg>
