<svg width="24" height="24" viewBox="0 0 24 24" fill="none" xmlns="http://www.w3.org/2000/svg">
<circle cx="12" cy="12" r="11.5" stroke="#7FA244"/>
<path d="M14.6883 6H9.31148C7.48553 6 6 7.4856 6 9.31155V14.6884C6 16.5144 7.48553 17.9999 9.31148 17.9999H14.6883C16.5144 17.9999 17.9999 16.5143 17.9999 14.6884V9.31155C18 7.4856 16.5144 6 14.6883 6ZM16.9353 14.6884C16.9353 15.9273 15.9273 16.9352 14.6884 16.9352H9.31148C8.0726 16.9353 7.06469 15.9273 7.06469 14.6884V9.31155C7.06469 8.07267 8.0726 7.06469 9.31148 7.06469H14.6883C15.9273 7.06469 16.9352 8.07267 16.9352 9.31155V14.6884H16.9353Z" fill="#7FA244"/>
<path d="M12.0003 8.90808C10.2953 8.90808 8.9082 10.2952 8.9082 12.0002C8.9082 13.7051 10.2953 15.0921 12.0003 15.0921C13.7053 15.0921 15.0924 13.7051 15.0924 12.0002C15.0924 10.2952 13.7053 8.90808 12.0003 8.90808ZM12.0003 14.0273C10.8824 14.0273 9.9729 13.1179 9.9729 12.0001C9.9729 10.8822 10.8824 9.9727 12.0003 9.9727C13.1182 9.9727 14.0277 10.8822 14.0277 12.0001C14.0277 13.1179 13.1181 14.0273 12.0003 14.0273Z" fill="#7FA244"/>
<path d="M15.2222 8.00525C15.017 8.00525 14.8155 8.0883 14.6707 8.2338C14.5251 8.3786 14.4414 8.58018 14.4414 8.78602C14.4414 8.99122 14.5252 9.19274 14.6707 9.33824C14.8155 9.48304 15.017 9.5668 15.2222 9.5668C15.428 9.5668 15.6289 9.48304 15.7744 9.33824C15.9199 9.19274 16.0029 8.99115 16.0029 8.78602C16.0029 8.58018 15.9199 8.3786 15.7744 8.2338C15.6296 8.0883 15.428 8.00525 15.2222 8.00525Z" fill="#7FA244"/>
</svg>
