<svg width="24" height="24" viewBox="0 0 24 24" fill="none" xmlns="http://www.w3.org/2000/svg">
<path d="M15.8511 0H3.41313C3.06685 0 2.78613 0.280714 2.78613 0.825429V23.5714C2.78613 23.7193 3.06685 24 3.41313 24H20.5877C20.934 24 21.2147 23.7193 21.2147 23.5714V5.562C21.2147 5.26371 21.1749 5.16771 21.1046 5.097L16.1177 0.110143C16.047 0.0398571 15.951 0 15.8511 0Z" fill="#E9E9E0"/>
<path d="M16.0723 0.0647278V5.14287H21.1504L16.0723 0.0647278Z" fill="#D9D7CA"/>
<path d="M8.11342 8.14285C9.19487 8.14285 10.0716 7.26616 10.0716 6.1847C10.0716 5.10325 9.19487 4.22656 8.11342 4.22656C7.03196 4.22656 6.15527 5.10325 6.15527 6.1847C6.15527 7.26616 7.03196 8.14285 8.11342 8.14285Z" fill="#F3D55B"/>
<path d="M2.78613 16.7143H7.50042H21.2147V12L16.929 7.92856L12.429 12.8571L10.0791 10.5073L2.78613 16.7143Z" fill="#26B99A"/>
<path d="M20.5877 24H3.41313C3.06685 24 2.78613 23.7193 2.78613 23.373V16.7143H21.2147V23.373C21.2147 23.7193 20.934 24 20.5877 24Z" fill="#14A085"/>
<path d="M9.18359 18.2786V21.642C9.18359 21.8451 9.1463 22.0161 9.07216 22.1546C8.99802 22.293 8.89816 22.4044 8.77344 22.4884C8.6483 22.5724 8.50473 22.6311 8.34273 22.6641C8.1803 22.6976 8.01359 22.7143 7.84173 22.7143C7.75559 22.7143 7.65487 22.7053 7.54002 22.6877C7.42473 22.6701 7.30559 22.6431 7.18259 22.6059C7.05959 22.5686 6.9413 22.5266 6.82816 22.4798C6.71459 22.4331 6.61902 22.3804 6.54102 22.3217L6.83973 21.8473C6.87873 21.8743 6.93444 21.903 7.00687 21.9321C7.07887 21.9613 7.15816 21.9887 7.2443 22.014C7.33002 22.0397 7.42002 22.0616 7.51387 22.0813C7.60773 22.101 7.69559 22.1104 7.77744 22.1104C7.98444 22.1104 8.14944 22.0701 8.27244 21.9904C8.39544 21.9107 8.46059 21.7744 8.46873 21.5833V18.2786H9.18359Z" fill="white"/>
<path d="M10.9357 22.6851H10.2324V18.3664H11.4744C11.6579 18.3664 11.8396 18.3956 12.0191 18.4543C12.1987 18.513 12.3598 18.6009 12.5026 18.7179C12.6453 18.8349 12.7606 18.9767 12.8484 19.1426C12.9363 19.3084 12.9804 19.4949 12.9804 19.7023C12.9804 19.9213 12.9431 20.1193 12.869 20.2971C12.7948 20.475 12.6911 20.6246 12.5583 20.7454C12.4254 20.8663 12.2651 20.9601 12.0779 21.0266C11.8906 21.093 11.6831 21.126 11.4569 21.126H10.9353V22.6851H10.9357ZM10.9357 18.9V20.6109H11.5803C11.666 20.6109 11.7509 20.5963 11.8353 20.5667C11.9193 20.5376 11.9964 20.4896 12.0667 20.4231C12.137 20.3567 12.1936 20.2641 12.2364 20.145C12.2793 20.0259 12.3007 19.8784 12.3007 19.7027C12.3007 19.6324 12.2909 19.551 12.2716 19.4597C12.2519 19.368 12.212 19.2801 12.1516 19.1961C12.0907 19.1121 12.0059 19.0419 11.8966 18.9853C11.7869 18.9283 11.6424 18.9 11.4629 18.9H10.9357Z" fill="white"/>
<path d="M16.9295 20.4583V22.128C16.8395 22.2416 16.7392 22.3337 16.6277 22.4061C16.5163 22.4786 16.3993 22.5381 16.2763 22.5849C16.1533 22.6316 16.0265 22.665 15.8953 22.6843C15.7642 22.7049 15.6347 22.7143 15.5057 22.7143C15.2477 22.7143 15.0107 22.6676 14.7939 22.5737C14.577 22.4799 14.3876 22.3414 14.2256 22.1576C14.0636 21.9737 13.9363 21.7436 13.8446 21.4663C13.7529 21.189 13.707 20.8684 13.707 20.5054C13.707 20.1424 13.7529 19.8227 13.8446 19.5476C13.9363 19.272 14.0632 19.0427 14.2256 18.8593C14.3876 18.6754 14.5779 18.5361 14.7969 18.4401C15.0155 18.3441 15.252 18.2966 15.5057 18.2966C15.7402 18.2966 15.9587 18.3356 16.1619 18.4136C16.365 18.492 16.5463 18.609 16.7066 18.765L16.2202 19.1987C16.1263 19.0851 16.0187 19.0033 15.8979 18.9527C15.7766 18.9021 15.6519 18.8764 15.5229 18.8764C15.3785 18.8764 15.2405 18.9034 15.1097 18.9583C14.9786 19.0131 14.8616 19.1057 14.7583 19.2364C14.6546 19.3676 14.5736 19.536 14.5153 19.7434C14.457 19.9509 14.4253 20.2041 14.4215 20.505C14.4253 20.7981 14.4557 21.0519 14.5123 21.2666C14.5689 21.4813 14.6469 21.657 14.7467 21.7937C14.8466 21.9304 14.9597 22.032 15.0866 22.0984C15.2135 22.1649 15.3472 22.1979 15.4882 22.1979C15.531 22.1979 15.5885 22.1949 15.6609 22.1889C15.7329 22.1829 15.8053 22.1734 15.8777 22.1597C15.9497 22.146 16.0192 22.1276 16.0856 22.104C16.152 22.0804 16.2009 22.0474 16.2322 22.0046V20.9383H15.4997V20.4579H16.9295V20.4583Z" fill="white"/>
</svg>
