<svg width="19" height="24" viewBox="0 0 19 24" fill="none" xmlns="http://www.w3.org/2000/svg">
<g clip-path="url(#clip0)">
<path d="M0 24H19V4.2L14.8 0H0" fill="#FF2116"/>
<path d="M14.8 4.2H19L14.8 0" fill="#FF5450"/>
<path d="M19 8.39995V4.19995H14.8" fill="#DB0500"/>
<path d="M2.66007 18.9093C1.87562 18.0916 2.72464 16.9674 5.02786 15.7738L6.47725 15.0227L7.04189 13.7345C7.35237 13.0264 7.81604 11.8699 8.07226 11.1661L8.53798 9.8858L8.21719 8.93777C7.82291 7.77278 7.68209 6.02135 7.93213 5.39123C8.27077 4.53843 9.38151 4.62579 9.82045 5.54017C10.1639 6.25406 10.1289 7.54722 9.72153 9.17836L9.38769 10.5152L9.68169 11.035C9.84312 11.3207 10.315 12.0003 10.7306 12.5437L11.5109 13.5562L12.4822 13.4238C15.5678 13.0042 16.625 13.7173 16.625 14.7405C16.625 16.0316 14.2023 16.1383 12.1669 14.6482C11.7095 14.3131 11.3948 13.9801 11.3948 13.9801C11.3948 13.9801 10.1199 14.2508 9.49279 14.4269C8.84503 14.6088 8.5215 14.7226 7.57287 15.057C7.57287 15.057 7.23972 15.5611 7.02265 15.9277C6.21553 17.2911 5.27309 18.421 4.59991 18.832C3.84775 19.2924 3.0578 19.3239 2.66007 18.9093ZM3.89102 18.4503C4.33202 18.1661 5.225 17.0655 5.84254 16.0445L6.09258 15.6306L4.95367 16.2278C3.19449 17.15 2.38943 18.0193 2.80776 18.5449C3.04337 18.8406 3.32432 18.8155 3.89102 18.4503ZM15.3199 15.1064C15.7512 14.7914 15.6887 14.157 15.201 13.9006C14.8212 13.7016 14.5155 13.6608 13.5298 13.6758C12.9239 13.7188 11.9499 13.8462 11.7843 13.8849C11.7843 13.8849 12.3194 14.2708 12.5571 14.4119C12.8738 14.6002 13.6424 14.9496 14.2036 15.1286C14.7573 15.3062 15.0774 15.2876 15.3199 15.1064ZM10.7244 13.1159C10.4634 12.8294 10.0197 12.233 9.73802 11.789C9.36983 11.2857 9.18505 10.9305 9.18505 10.9305C9.18505 10.9305 8.91578 11.8327 8.69529 12.3755L8.00631 14.1498L7.80642 14.5522C7.80642 14.5522 8.86839 14.1892 9.4083 14.0424C9.9805 13.8863 11.1414 13.6486 11.1414 13.6486L10.7244 13.1159ZM9.24344 6.92499C9.31007 6.34213 9.33824 5.76071 9.15895 5.46713C8.66094 4.89931 8.05989 5.37262 8.16155 6.72235C8.1959 7.17632 8.30375 7.9525 8.44868 8.4301L8.71177 9.29937L8.89655 8.64419C8.9989 8.28474 9.15483 7.51071 9.24344 6.92499Z" fill="white"/>
</g>
<defs>
<clipPath id="clip0">
<rect width="19" height="24" fill="white"/>
</clipPath>
</defs>
</svg>
