<svg width="24" height="26" viewBox="0 0 24 26" fill="none" xmlns="http://www.w3.org/2000/svg">
<path fill-rule="evenodd" clip-rule="evenodd" d="M13.6278 5.19936H23.144C23.6173 5.19936 24 4.81077 24 4.33226C24 3.85536 23.6173 3.46677 23.144 3.46677H13.6278C13.2308 1.48851 11.5013 0 9.4288 0C7.35469 0 5.6252 1.48851 5.22816 3.46677H0.856008C0.382742 3.46677 0 3.85536 0 4.33226C0 4.81077 0.382742 5.19936 0.856008 5.19936H5.22816C5.6252 7.17762 7.35469 8.66613 9.4288 8.66613C11.5013 8.66613 13.2308 7.17762 13.6278 5.19936ZM6.85601 4.33226C6.85601 2.89674 8.00741 1.73258 9.4288 1.73258C10.8486 1.73258 12 2.89674 12 4.33226C12 5.76939 10.8486 6.93355 9.4288 6.93355C8.00741 6.93355 6.85601 5.76939 6.85601 4.33226ZM22.199 13.8671H23.144C23.6173 13.8671 24 13.4785 24 13C24 12.5215 23.6173 12.1329 23.144 12.1329H22.199C21.8036 10.1562 20.0741 8.66613 18 8.66613C15.9275 8.66613 14.198 10.1562 13.801 12.1329H0.856008C0.382742 12.1329 0 12.5215 0 13C0 13.4785 0.382742 13.8671 0.856008 13.8671H13.801C14.198 15.8438 15.9275 17.3339 18 17.3339C20.0741 17.3339 21.8036 15.8438 22.199 13.8671ZM15.4288 13C15.4288 11.5645 16.5802 10.4003 18 10.4003C19.4214 10.4003 20.5712 11.5645 20.5712 13C20.5712 14.4355 19.4214 15.5997 18 15.5997C16.5802 15.5997 15.4288 14.4355 15.4288 13ZM10.199 22.5332H23.144C23.6173 22.5332 24 22.1446 24 21.6661C24 21.1892 23.6173 20.8006 23.144 20.8006H10.199C9.80201 18.8224 8.07253 17.3339 6 17.3339C3.92589 17.3339 2.1964 18.8224 1.80095 20.8006H0.856008C0.382742 20.8006 0 21.1892 0 21.6661C0 22.1446 0.382742 22.5332 0.856008 22.5332H1.79936C2.1964 24.5115 3.92589 26 6 26C8.07253 26 9.80201 24.5115 10.199 22.5332ZM3.42721 21.6661C3.42721 20.2306 4.57861 19.0665 6 19.0665C7.4198 19.0665 8.5712 20.2306 8.5712 21.6661C8.5712 23.1033 7.4198 24.2674 6 24.2674C4.57861 24.2674 3.42721 23.1033 3.42721 21.6661Z" fill="#1C2833"/>
</svg>
