<svg width="18" height="18" viewBox="0 0 18 18" fill="none" xmlns="http://www.w3.org/2000/svg">
<path d="M9 0C4.0294 0 0 4.0294 0 9C0 13.9706 4.0294 18 9 18C13.9706 18 18 13.9706 18 9C18 4.0294 13.9706 0 9 0Z" fill="#40B3E0"/>
<path d="M13.3793 5.17702L11.7717 13.2819C11.7717 13.2819 11.5469 13.844 10.9287 13.5742L7.21912 10.7302L5.87024 10.0782L3.59957 9.31379C3.59957 9.31379 3.2511 9.19018 3.21735 8.92039C3.1836 8.6506 3.61082 8.50449 3.61082 8.50449L12.6373 4.96355C12.6373 4.96355 13.3792 4.63758 13.3792 5.17716" fill="white"/>
<path d="M6.93407 13.1908C6.93407 13.1908 6.82579 13.1807 6.69079 12.7535C6.556 12.3263 5.87024 10.0781 5.87024 10.0781L11.3221 6.61594C11.3221 6.61594 11.6369 6.42483 11.6257 6.61594C11.6257 6.61594 11.6818 6.64969 11.5132 6.80705C11.3446 6.96448 7.23043 10.6627 7.23043 10.6627" fill="#D2E5F1"/>
<path d="M8.64148 11.8206L7.17427 13.1584C7.17427 13.1584 7.05952 13.2455 6.93408 13.1909L7.21505 10.7061" fill="#B5CFE4"/>
</svg>
