<svg width="18" height="18" viewBox="0 0 18 18" fill="none" xmlns="http://www.w3.org/2000/svg">
<g clip-path="url(#clip0)">
<path d="M15.6094 1.75419C15.1629 1.34286 13.3558 0.0315356 9.32694 0.0139575C9.32694 0.0139575 4.57733 -0.270808 2.26405 1.85263C0.97733 3.13935 0.523815 5.02724 0.474596 7.36513C0.425377 9.70302 0.365612 14.0835 4.58788 15.2718H4.59139L4.58788 17.0858C4.58788 17.0858 4.55975 17.8206 5.04491 17.9683C5.6285 18.1511 5.97303 17.5921 6.53202 16.9909C6.83788 16.6604 7.25975 16.1753 7.57967 15.8061C10.4695 16.0487 12.6879 15.4933 12.941 15.4124C13.5246 15.2226 16.8258 14.8007 17.3601 10.4202C17.9156 5.89911 17.093 3.04443 15.6094 1.75419ZM16.098 10.0897C15.6445 13.746 12.9691 13.978 12.4769 14.1362C12.266 14.203 10.3148 14.6882 7.86444 14.53C7.86444 14.53 6.03631 16.7343 5.46678 17.3073C5.28046 17.4936 5.07655 17.4761 5.08006 17.1069C5.08006 16.8643 5.09413 14.094 5.09413 14.094C5.09061 14.094 5.09061 14.094 5.09413 14.094C1.51522 13.1026 1.72616 9.37255 1.76483 7.42138C1.8035 5.47021 2.17264 3.8706 3.26249 2.79482C5.22069 1.01943 9.25311 1.2831 9.25311 1.2831C12.6598 1.29716 14.291 2.32372 14.6707 2.66825C15.9258 3.74404 16.5656 6.31747 16.098 10.0897ZM11.2113 7.24911C11.2254 7.55146 10.7719 7.57255 10.7578 7.27021C10.7191 6.49677 10.357 6.1206 9.61171 6.07841C9.30936 6.06083 9.33749 5.60732 9.63632 5.6249C10.6172 5.67763 11.1621 6.24013 11.2113 7.24911ZM11.925 7.64638C11.9601 6.15575 11.0285 4.98857 9.26014 4.85849C8.96131 4.8374 8.99296 4.38388 9.29178 4.40497C11.3308 4.55263 12.4172 5.95536 12.3785 7.65693C12.375 7.95927 11.918 7.94521 11.925 7.64638ZM13.5773 8.11747C13.5808 8.41982 13.1238 8.42333 13.1238 8.12099C13.1027 5.25575 11.1937 3.69482 8.87694 3.67724C8.57811 3.67372 8.57811 3.22372 8.87694 3.22372C11.468 3.2413 13.5527 5.03075 13.5773 8.11747ZM13.1801 11.5663V11.5733C12.8004 12.2413 12.0902 12.9796 11.359 12.744L11.3519 12.7335C10.6101 12.5261 8.86288 11.6261 7.75897 10.7472C7.18944 10.2972 6.66913 9.7663 6.26835 9.25653C5.90624 8.80302 5.54061 8.26513 5.18553 7.61825C4.43671 6.26474 4.27147 5.66005 4.27147 5.66005C4.03592 4.9288 4.77069 4.21864 5.44217 3.83896H5.44921C5.77264 3.67021 6.08202 3.72646 6.28944 3.97607C6.28944 3.97607 6.72538 4.49638 6.91171 4.75302C7.08749 4.99208 7.32303 5.37529 7.44608 5.58974C7.66053 5.97294 7.52694 6.36318 7.316 6.5249L6.89413 6.8624C6.67967 7.03466 6.7078 7.35458 6.7078 7.35458C6.7078 7.35458 7.33358 9.7206 9.67147 10.3183C9.67147 10.3183 9.99139 10.3464 10.1637 10.1319L10.5012 9.71005C10.6629 9.49911 11.0531 9.36552 11.4363 9.57997C11.9531 9.87177 12.6105 10.3253 13.0465 10.7366C13.2926 10.937 13.3488 11.2429 13.1801 11.5663Z" fill="#7B519C"/>
</g>
<defs>
<clipPath id="clip0">
<rect width="18" height="18" fill="white"/>
</clipPath>
</defs>
</svg>
