<svg width="18" height="21" viewBox="0 0 18 21" fill="none" xmlns="http://www.w3.org/2000/svg">
<path d="M15.304 3.90127C13.6205 2.21377 11.3786 1.28564 8.99598 1.28564C4.07812 1.28564 0.0763393 5.28743 0.0763393 10.2053C0.0763393 11.7763 0.486161 13.3111 1.26562 14.6651L0 19.2856L4.72902 18.0441C6.0308 18.7553 7.49732 19.1289 8.99196 19.1289H8.99598C13.9098 19.1289 18 15.1272 18 10.2093C18 7.82672 16.9875 5.58877 15.304 3.90127ZM8.99598 17.6263C7.66205 17.6263 6.35625 17.2687 5.2192 16.5937L4.95 16.433L2.14554 17.1682L2.89286 14.4321L2.71607 14.1508C1.97277 12.9696 1.58304 11.6075 1.58304 10.2053C1.58304 6.11913 4.90982 2.79234 9 2.79234C10.9808 2.79234 12.8411 3.56377 14.2393 4.966C15.6375 6.36823 16.4973 8.2285 16.4933 10.2093C16.4933 14.2995 13.0821 17.6263 8.99598 17.6263ZM13.0621 12.0736C12.8411 11.9611 11.7442 11.4227 11.5393 11.3504C11.3344 11.274 11.1857 11.2379 11.0371 11.4629C10.8884 11.6879 10.4625 12.1861 10.3299 12.3388C10.2013 12.4874 10.0688 12.5075 9.84777 12.395C8.53795 11.7401 7.67813 11.2258 6.81429 9.74323C6.58527 9.34948 7.0433 9.37761 7.4692 8.52582C7.54152 8.37716 7.50536 8.24859 7.44911 8.13609C7.39286 8.02359 6.94688 6.92672 6.76205 6.48073C6.58125 6.0468 6.39643 6.10707 6.25982 6.09904C6.13125 6.091 5.98259 6.091 5.83393 6.091C5.68527 6.091 5.4442 6.14725 5.23929 6.36823C5.03437 6.59323 4.45982 7.13163 4.45982 8.2285C4.45982 9.32538 5.25938 10.3861 5.36786 10.5348C5.48036 10.6834 6.93884 12.9334 9.17679 13.9017C10.5911 14.5124 11.1455 14.5647 11.8527 14.4602C12.2826 14.3959 13.1705 13.9218 13.3554 13.3995C13.5402 12.8772 13.5402 12.4312 13.4839 12.3388C13.4317 12.2383 13.283 12.1821 13.0621 12.0736Z" fill="#4AC959"/>
</svg>
