<svg width="78" height="78" viewBox="0 0 78 78" fill="none" xmlns="http://www.w3.org/2000/svg">
<path d="M40.9895 51.5581C40.9895 48.6721 41.7695 46.1761 43.3685 44.1481C45.7865 41.1061 50.5055 40.7161 53.2355 41.3401C54.3665 34.9051 48.9065 26.7151 41.8475 23.2051L47.2685 15.6001C57.9155 20.6701 68.4065 32.2921 66.6125 46.9951C65.4815 56.2771 60.0995 62.4001 52.4945 62.4001C49.1795 62.4001 46.4105 61.4251 44.2265 59.4751C42.0425 57.5251 40.9895 54.8731 40.9895 51.5581ZM9.59447 51.5581C9.59447 48.6721 10.3745 46.1761 11.9735 44.1481C14.4305 41.1061 19.1105 40.7161 21.8405 41.3401C22.9715 34.9051 17.5115 26.7151 10.4525 23.2051L15.8735 15.6001C26.5205 20.6701 36.9725 32.2921 35.1785 46.9951C34.0475 56.2771 28.7045 62.4001 21.0995 62.4001C17.7845 62.4001 15.0155 61.4251 12.8315 59.4751C10.6475 57.5251 9.59447 54.8731 9.59447 51.5581Z" fill="#E9EEEF"/>
</svg>
