<svg xmlns="http://www.w3.org/2000/svg" height="512pt" version="1.1" viewBox="-20 0 512 512.00003" width="512pt">
<g id="surface1">
<path d="M 432.230469 202.566406 C 432.230469 202.566406 432.230469 202.566406 432.226562 202.566406 L 432.226562 196.34375 C 432.226562 88.078125 344.152344 0 235.894531 0 C 127.394531 0 39.558594 87.8125 39.558594 196.34375 L 39.558594 202.566406 C 16.695312 210.082031 0 233.316406 0 260.738281 L 0 290.816406 C 0 324.296875 24.894531 351.535156 55.496094 351.535156 L 83.953125 351.535156 C 91.644531 367.125 107.714844 377.871094 126.238281 377.871094 L 147.832031 377.871094 C 156.175781 377.871094 162.929688 371.121094 162.929688 362.777344 L 162.929688 188.78125 C 162.929688 180.449219 156.175781 173.683594 147.832031 173.683594 L 126.238281 173.683594 C 107.714844 173.683594 91.652344 184.433594 83.953125 200.011719 L 69.75 200.011719 L 69.75 196.34375 C 69.75 104.523438 144.050781 30.1875 235.894531 30.1875 C 327.507812 30.1875 402.039062 104.726562 402.039062 196.34375 L 402.039062 200.011719 L 387.832031 200.011719 C 380.136719 184.433594 364.074219 173.683594 345.550781 173.683594 L 323.953125 173.683594 C 315.613281 173.683594 308.859375 180.449219 308.859375 188.78125 L 308.859375 362.777344 C 308.859375 371.121094 315.613281 377.871094 323.953125 377.871094 L 345.550781 377.871094 C 364.074219 377.871094 380.144531 367.125 387.832031 351.535156 L 407.917969 351.535156 L 407.917969 354.386719 C 407.917969 408.625 363.792969 452.75 309.566406 452.75 L 305.449219 452.75 C 300.003906 434.757812 283.261719 421.613281 263.515625 421.613281 L 221.746094 421.613281 C 197.585938 421.613281 177.941406 441.269531 177.941406 465.417969 L 177.941406 468.195312 C 177.941406 492.347656 197.585938 512 221.746094 512 L 263.515625 512 C 282.496094 512 298.695312 499.863281 304.773438 482.9375 L 309.566406 482.9375 C 380.449219 482.9375 438.109375 425.269531 438.109375 354.386719 L 438.109375 346.648438 C 457.890625 337.359375 471.789062 315.832031 471.789062 290.816406 L 471.789062 260.738281 C 471.789062 233.316406 455.09375 210.082031 432.230469 202.566406 Z M 30.1875 290.816406 L 30.1875 260.738281 C 30.1875 243.90625 41.539062 230.199219 55.496094 230.199219 L 79.113281 230.199219 L 79.113281 321.347656 L 55.496094 321.347656 C 41.539062 321.347656 30.1875 307.652344 30.1875 290.816406 Z M 126.238281 203.875 L 132.738281 203.875 L 132.738281 347.683594 L 126.238281 347.683594 C 117.050781 347.683594 109.542969 340.316406 109.3125 331.179688 L 109.3125 220.378906 C 109.542969 211.242188 117.050781 203.875 126.238281 203.875 Z M 221.746094 481.8125 C 214.238281 481.8125 208.128906 475.703125 208.128906 468.195312 L 208.128906 465.417969 C 208.128906 457.910156 214.238281 451.804688 221.746094 451.804688 L 263.515625 451.804688 C 270.984375 451.804688 277.132812 457.878906 277.132812 465.417969 L 277.132812 468.195312 C 277.132812 475.703125 271.023438 481.8125 263.515625 481.8125 Z M 345.550781 347.683594 L 339.050781 347.683594 L 339.050781 203.875 L 345.550781 203.875 C 354.738281 203.875 362.242188 211.242188 362.476562 220.378906 L 362.476562 331.179688 C 362.242188 340.316406 354.738281 347.683594 345.550781 347.683594 Z M 441.601562 290.816406 C 441.601562 307.652344 430.25 321.347656 416.292969 321.347656 L 392.675781 321.347656 L 392.675781 230.199219 L 416.292969 230.199219 C 430.25 230.199219 441.601562 243.90625 441.601562 260.738281 Z M 441.601562 290.816406 " style=" stroke:none;fill-rule:nonzero;fill:rgb(0%,0%,0%);fill-opacity:1;" />
</g>
</svg>