<?xml version="1.0" encoding="UTF-8"?>
<svg width="8px" height="14px" viewBox="0 0 8 14" version="1.1" xmlns="http://www.w3.org/2000/svg" xmlns:xlink="http://www.w3.org/1999/xlink">
    <!-- Generator: sketchtool 46 (44423) - http://www.bohemiancoding.com/sketch -->
    <title>48A8AAED-8AAB-4587-AE7B-CD906C9A2E7F</title>
    <desc>Created with sketchtool.</desc>
    <defs></defs>
    <g id="Page-1" stroke="none" stroke-width="1" fill="none" fill-rule="evenodd" opacity="0.561084692">
        <g id="Desktop-HD" transform="translate(-86.000000, -973.000000)" fill-rule="nonzero" fill="#000000">
            <g id="facebook-logo" transform="translate(86.000000, 973.000000)">
                <path d="M7.01671255,0.00288659794 L5.27055428,0 C3.30880534,0 2.04103699,1.34010309 2.04103699,3.41426804 L2.04103699,4.98847423 L0.285352941,4.98847423 C0.133640995,4.98847423 0.0107865373,5.11519588 0.0107865373,5.27150515 L0.0107865373,7.55235052 C0.0107865373,7.70865979 0.133781079,7.83523711 0.285352941,7.83523711 L2.04103699,7.83523711 L2.04103699,13.5905361 C2.04103699,13.7468454 2.16389145,13.8734227 2.3156034,13.8734227 L4.60627168,13.8734227 C4.75798363,13.8734227 4.88083808,13.746701 4.88083808,13.5905361 L4.88083808,7.83523711 L6.93364221,7.83523711 C7.08535415,7.83523711 7.20820861,7.70865979 7.20820861,7.55235052 L7.20904912,5.27150515 C7.20904912,5.19645361 7.18005155,5.12457732 7.12864039,5.07146392 C7.07722923,5.01835052 7.00718678,4.98847423 6.93434263,4.98847423 L4.88083808,4.98847423 L4.88083808,3.654 C4.88083808,3.01259794 5.02918799,2.68698969 5.84013948,2.68698969 L7.01643238,2.6865567 C7.16800424,2.6865567 7.2908587,2.55983505 7.2908587,2.4036701 L7.2908587,0.285773196 C7.2908587,0.129752577 7.16814433,0.00317525773 7.01671255,0.00288659794 Z" id="Shape"></path>
            </g>
        </g>
    </g>
</svg>