<?xml version="1.0" encoding="UTF-8"?>
<svg width="43px" height="50px" viewBox="0 0 43 50" version="1.1" xmlns="http://www.w3.org/2000/svg" xmlns:xlink="http://www.w3.org/1999/xlink">
    <!-- Generator: Sketch 46 (44423) - http://www.bohemiancoding.com/sketch -->
    <title>secure-shield</title>
    <desc>Created with Sketch.</desc>
    <defs></defs>
    <g id="Page-1" stroke="none" stroke-width="1" fill="none" fill-rule="evenodd">
        <g id="Data-Center_colokeishn" transform="translate(-704.000000, -2326.000000)" fill-rule="nonzero">
            <g id="secure-shield" transform="translate(704.000000, 2326.000000)">
                <path d="M41.8513645,8.61705653 C34.9853801,6.73576998 28.0790448,3.80643275 21.8789474,0.145808967 C21.5496101,-0.0486354776 21.1409357,-0.0486354776 20.8116959,0.145808967 C14.4327485,3.91159844 7.89961014,6.68245614 0.838693957,8.61705653 C0.382553606,8.74191033 0.066374269,9.15653021 0.066374269,9.62953216 L0.066374269,20.3552632 C0.066374269,31.4003899 5.16179337,38.711501 9.43645224,42.8997076 C14.0384016,47.4089669 19.3990253,49.9026316 21.3453216,49.9026316 C23.291423,49.9026316 28.6520468,47.4089669 33.2539961,42.8997076 C37.5285575,38.7115984 42.6236842,31.4004873 42.6236842,20.3552632 L42.6236842,9.6294347 C42.6236842,9.15653021 42.3075049,8.74191033 41.8513645,8.61705653 Z M40.524269,20.3551657 C40.524269,30.6712476 35.7717349,37.4933723 31.7846004,41.4 C27.2591618,45.8342105 22.4206628,47.8030214 21.3453216,47.8030214 C20.2699805,47.8030214 15.4311891,45.8342105 10.905653,41.4 C6.91861598,37.4932749 2.16588694,30.6712476 2.16588694,20.3551657 L2.16588694,10.4263158 C8.91812865,8.50916179 15.2064327,5.83362573 21.3455166,2.26608187 C27.3312865,5.73898635 33.9333333,8.54756335 40.524269,10.4259259 L40.524269,20.3551657 Z" id="Shape" fill="#9BA5AE"></path>
                <path d="M12.0407407,10.3088694 C11.8282651,9.76939571 11.2188109,9.50438596 10.6792398,9.71695906 C8.8039961,10.455848 6.87923977,11.1359649 4.95847953,11.738499 C4.52076023,11.8759259 4.22290448,12.281384 4.22290448,12.7400585 L4.22290448,16.7937622 C4.22290448,17.3734893 4.69298246,17.8434698 5.27261209,17.8434698 C5.85224172,17.8434698 6.32231969,17.3734893 6.32231969,16.7937622 L6.32231969,13.5072125 C8.0454191,12.9497076 9.76666667,12.3330409 11.4488304,11.6701754 C11.9883041,11.4577973 12.2533138,10.8483431 12.0407407,10.3088694 Z" id="Shape" fill="#9BA5AE"></path>
                <path d="M14.0347953,10.5079922 C14.1756335,10.5079922 14.318616,10.4796296 14.4557505,10.4197856 L14.4750487,10.4114035 C15.0061404,10.178655 15.2453216,9.56042885 15.0125731,9.02953216 C14.7796296,8.49844055 14.1578947,8.25818713 13.6273879,8.49074074 L13.6104288,8.49805068 C13.0790448,8.73011696 12.8390838,9.34785575 13.0711501,9.87904483 C13.2433723,10.2733918 13.6298246,10.5079922 14.0347953,10.5079922 Z" id="Shape" fill="#9BA5AE"></path>
                <path d="M33.8520468,33.8482456 C33.3669591,33.5311891 32.7164717,33.6675439 32.3990253,34.1528265 C31.5340156,35.4768031 30.5192008,36.7446394 29.3823587,37.9207602 C28.4474659,38.8878168 27.4344055,39.7891813 26.371345,40.5996101 C25.9104288,40.9510721 25.8217349,41.6097466 26.1730994,42.0708577 C26.3798246,42.3417154 26.6923977,42.4842105 27.008577,42.4842105 C27.2306043,42.4842105 27.4542885,42.4141326 27.644347,42.2691033 C28.7910331,41.3947368 29.8836257,40.4227096 30.8916179,39.3800195 C32.1207602,38.1086745 33.2192008,36.7363548 34.1566277,35.3011696 C34.4738791,34.8157895 34.3373294,34.1653021 33.8520468,33.8482456 Z" id="Shape" fill="#9BA5AE"></path>
                <path d="M23.9335283,42.2459064 L23.8732943,42.281384 C23.3716374,42.5719298 23.2001949,43.2140351 23.4906433,43.715692 C23.6852827,44.0519493 24.0376218,44.2396686 24.4000975,44.2396686 C24.57846,44.2396686 24.7595517,44.194152 24.9249513,44.0981481 L24.9944444,44.0573099 C25.4947368,43.7643275 25.662768,43.121345 25.3697856,42.6210526 C25.0766082,42.1209552 24.4335283,41.9532164 23.9335283,42.2459064 Z" id="Shape" fill="#9BA5AE"></path>
                <path d="M14.189961,22.8088694 C13.5454191,22.16423 12.6882066,21.8094542 11.7765107,21.8094542 C10.8648148,21.8094542 10.0075049,22.1643275 9.36267057,22.8088694 C8.03196881,24.1398635 8.03196881,26.3055556 9.36267057,27.6364522 L15.5611111,33.8346979 C16.2057505,34.4791423 17.062963,34.8340156 17.9747563,34.8340156 C18.8865497,34.8340156 19.7437622,34.4791423 20.388499,33.8345029 L33.3281676,20.8947368 C34.6587719,19.5634503 34.6587719,17.3980507 33.3279727,16.0675439 C32.6833333,15.4229045 31.8261209,15.0681287 30.91423,15.0681287 C30.0024366,15.0681287 29.1452242,15.4230019 28.5004873,16.0675439 L17.9746589,26.5933723 L14.189961,22.8088694 Z M29.9850877,17.5521442 C30.2331384,17.3040936 30.5632554,17.1675439 30.9143275,17.1675439 C31.2655945,17.1675439 31.5954191,17.3040936 31.8436647,17.5521442 C32.355848,18.0643275 32.355848,18.8980507 31.8434698,19.4104288 L18.9039961,32.35 C18.6559454,32.5980507 18.3258285,32.7346004 17.9747563,32.7346004 C17.6236842,32.7346004 17.2935673,32.5980507 17.0454191,32.35 L10.8471735,26.1519493 C10.3347953,25.6395712 10.3347953,24.805848 10.8469786,24.2936647 C11.0951267,24.045614 11.4252437,23.9088694 11.7764133,23.9088694 C12.1275828,23.9088694 12.4575049,24.0454191 12.7055556,24.2934698 L17.2323587,28.8203704 C17.4293372,29.017154 17.6961988,29.1277778 17.9746589,29.1277778 C18.2531189,29.1277778 18.5199805,29.0172515 18.7167641,28.8203704 L29.9850877,17.5521442 Z" id="Shape" fill="#F56107"></path>
            </g>
        </g>
    </g>
</svg>