<svg width="18" height="18" viewBox="0 0 18 18" fill="none" xmlns="http://www.w3.org/2000/svg">
<path d="M17.8428 17.082L13.4685 12.7078C14.6419 11.3588 15.3523 9.59867 15.3523 7.67494C15.3523 3.44035 11.908 0 7.67739 0C3.4428 0 0.00244141 3.44435 0.00244141 7.67494C0.00244141 11.9055 3.44679 15.3499 7.67739 15.3499C9.60111 15.3499 11.3612 14.6395 12.7102 13.4661L17.0845 17.8404C17.1883 17.9441 17.3279 18 17.4636 18C17.5993 18 17.739 17.9481 17.8428 17.8404C18.0503 17.6328 18.0503 17.2896 17.8428 17.082ZM1.07606 7.67494C1.07606 4.03503 4.03748 1.07761 7.6734 1.07761C11.3133 1.07761 14.2707 4.03902 14.2707 7.67494C14.2707 11.3109 11.3133 14.2763 7.6734 14.2763C4.03748 14.2763 1.07606 11.3149 1.07606 7.67494Z" fill="black" fill-opacity="0.48"/>
</svg>
