<svg width="80" height="80" viewBox="0 0 80 80" fill="none" xmlns="http://www.w3.org/2000/svg">
<path d="M40 50C45.5228 50 50 45.5228 50 40C50 34.4772 45.5228 30 40 30C34.4772 30 30 34.4772 30 40C30 45.5228 34.4772 50 40 50Z" fill="#959595" fill-opacity="0.5"/>
<path d="M66.6665 13.3334H56.0998L51.9665 8.83335C51.3453 8.15133 50.5887 7.60638 49.745 7.23331C48.9013 6.86024 47.989 6.66725 47.0665 6.66669H32.9332C31.0665 6.66669 29.2665 7.46669 27.9998 8.83335L23.8998 13.3334H13.3332C9.6665 13.3334 6.6665 16.3334 6.6665 20V60C6.6665 63.6667 9.6665 66.6667 13.3332 66.6667H66.6665C70.3332 66.6667 73.3332 63.6667 73.3332 60V20C73.3332 16.3334 70.3332 13.3334 66.6665 13.3334ZM39.9998 56.6667C30.7998 56.6667 23.3332 49.2 23.3332 40C23.3332 30.8 30.7998 23.3334 39.9998 23.3334C49.1998 23.3334 56.6665 30.8 56.6665 40C56.6665 49.2 49.1998 56.6667 39.9998 56.6667Z" fill="#959595" fill-opacity="0.5"/>
</svg>
