<svg width="134" height="134" viewBox="0 0 134 134" fill="none" xmlns="http://www.w3.org/2000/svg">
<g clip-path="url(#clip0)">
<path d="M53.1504 10.9482C54.234 10.9482 55.1132 10.0701 55.1132 8.98535C55.1132 7.90167 54.234 7.02246 53.1504 7.02246H42.9004C41.8167 7.02246 40.9375 7.90167 40.9375 8.98535C40.9375 10.0701 41.8167 10.9482 42.9004 10.9482H53.1504Z" fill="#0055A7"/>
<path d="M95.9077 75.2135C95.9332 75.2912 95.9608 75.3668 95.9946 75.4404C98.5197 82.102 104.964 86.8528 112.499 86.8528C120.04 86.8528 126.488 82.0969 129.009 75.4282C129.041 75.3597 129.066 75.2891 129.09 75.2176C129.772 73.3405 130.145 71.3163 130.145 69.2072C130.145 63.4412 127.373 58.1159 122.693 54.8045C121.409 50.386 117.327 47.1462 112.499 47.1462C107.673 47.1462 103.591 50.386 102.306 54.8035C98.7917 57.2949 96.3493 60.9406 95.3546 65.0371H87.043V58.7671C87.043 57.6834 86.1637 56.8042 85.0801 56.8042C83.9964 56.8042 83.1172 57.6834 83.1172 58.7671V65.0371H67.1309C67.1268 65.0371 67.1227 65.0381 67.1186 65.0381C66.5461 60.3497 64.2673 56.0415 60.7157 52.9244L83.1172 39.4817V50.2193C83.1172 51.303 83.9954 52.1822 85.0801 52.1822C86.1637 52.1822 87.043 51.303 87.043 50.2193V44.0996H87.8066C90.3318 44.0996 92.3867 42.0447 92.3867 39.5195V33.9192L97.2837 30.981C100.353 36.1959 106.023 39.7066 112.499 39.7066C120.04 39.7066 126.488 34.9507 129.009 28.282C129.04 28.2135 129.066 28.1429 129.09 28.0714C129.772 26.1944 130.145 24.1701 130.145 22.0611C130.145 16.3114 127.369 10.9666 122.691 7.65527C121.407 3.23775 117.326 0 112.499 0C107.673 0 103.591 3.23979 102.306 7.65732C97.6334 10.9687 94.8546 16.3227 94.8546 22.0611C94.8546 23.9105 95.1419 25.6934 95.6715 27.3701L92.3867 29.3411V24.0781C92.3867 21.5529 90.3318 19.498 87.8066 19.498H87.043V7.19727C87.043 3.22855 83.8144 0 79.8457 0H31.4298C30.3461 0 29.4669 0.879211 29.4669 1.96289C29.4669 3.04657 30.3461 3.92578 31.4298 3.92578H79.8457C81.6491 3.92578 83.1172 5.39284 83.1172 7.19727V13.2168H12.9336V7.19727C12.9336 5.39284 14.4007 3.92578 16.2051 3.92578H22.882C23.9657 3.92578 24.8449 3.04657 24.8449 1.96289C24.8449 0.879211 23.9657 0 22.882 0H16.2051C12.2364 0 9.00783 3.22855 9.00783 7.19727V19.498H8.24414C5.71896 19.498 3.66406 21.5529 3.66406 24.0781V44.7539C3.66406 47.2791 5.71896 49.334 8.24414 49.334H9.00783V53.7832H8.24414C5.71896 53.7832 3.66406 55.8381 3.66406 58.3633V63.3359C3.66406 65.8611 5.71896 67.916 8.24414 67.916H9.00783V70.0098H8.24414C5.71896 70.0098 3.66406 72.0647 3.66406 74.5898V79.5625C3.66406 82.0877 5.71896 84.1426 8.24414 84.1426H9.00783V126.803C9.00783 130.771 12.2364 134 16.2051 134H79.8457C83.8144 134 87.043 130.771 87.043 126.803V101.452L97.205 107.55C95.6868 110.189 94.8546 113.214 94.8546 116.353C94.8546 118.461 95.2268 120.484 95.9077 122.36C95.9332 122.437 95.9608 122.513 95.9946 122.588C98.5197 129.249 104.964 133.999 112.5 133.999C120.038 133.999 126.484 129.246 129.007 122.581C129.04 122.511 129.066 122.437 129.091 122.363C129.773 120.487 130.146 118.464 130.146 116.353C130.146 110.604 127.369 105.26 122.692 101.949C121.407 97.5311 117.326 94.2934 112.5 94.2934C107.673 94.2934 103.592 97.5322 102.307 101.951C101.294 102.668 100.37 103.482 99.5441 104.376L87.043 96.8748V68.9629H94.8587C94.8577 69.0447 94.8546 69.1254 94.8546 69.2072C94.8536 71.3153 95.2268 73.3375 95.9077 75.2135ZM112.499 35.7808C106.853 35.7808 101.993 32.3509 99.8907 27.4651C101.352 24.0751 104.188 21.3597 107.64 20.0481C109.097 20.8015 110.749 21.2309 112.499 21.2309C114.249 21.2309 115.902 20.8015 117.358 20.0481C120.811 21.3597 123.647 24.0751 125.108 27.4651C123.006 32.3509 118.147 35.7808 112.499 35.7808ZM126.21 21.7564C124.721 19.9172 122.871 18.3939 120.755 17.2785C121.741 16.0589 122.462 14.6174 122.832 13.041C124.925 15.4353 126.138 18.5023 126.21 21.7564ZM112.499 3.92578C116.188 3.92578 119.189 6.92635 119.189 10.6149C119.189 14.3035 116.188 17.3051 112.499 17.3051C108.811 17.3051 105.81 14.3035 105.81 10.6149C105.81 6.92635 108.811 3.92578 112.499 3.92578ZM102.166 13.0399C102.536 14.6164 103.257 16.0589 104.244 17.2785C102.129 18.3939 100.278 19.9162 98.7896 21.7564C98.8612 18.5084 100.075 15.4363 102.166 13.0399ZM104.249 111.577C102.147 112.698 100.285 114.24 98.7886 116.085C98.852 112.823 100.067 109.738 102.166 107.332C102.538 108.912 103.26 110.355 104.249 111.577ZM112.499 130.073C106.853 130.073 101.994 126.643 99.8917 121.757C101.353 118.366 104.188 115.652 107.64 114.34C109.098 115.095 110.749 115.523 112.5 115.523C114.253 115.523 115.906 115.094 117.365 114.338C120.823 115.653 123.644 118.355 125.108 121.759C123.006 126.643 118.147 130.073 112.499 130.073ZM126.211 116.082C124.714 114.236 122.855 112.698 120.749 111.577C121.739 110.356 122.462 108.912 122.832 107.332C124.932 109.736 126.146 112.816 126.211 116.082ZM112.499 98.2181C116.188 98.2181 119.189 101.219 119.189 104.907C119.189 108.596 116.188 111.597 112.499 111.597C108.811 111.597 105.81 108.596 105.81 104.907C105.81 101.219 108.811 98.2181 112.499 98.2181ZM63.3359 67.3803C63.3359 67.4733 63.3308 67.5643 63.3288 67.6563C61.5908 65.3806 59.357 63.4975 56.8042 62.1797C58.0341 60.7249 58.9102 58.9613 59.2957 57.023C61.8658 59.8191 63.3359 63.4975 63.3359 67.3803ZM32.7148 67.3803C32.7148 63.4975 34.185 59.8191 36.7551 57.023C37.1405 58.9613 38.0167 60.7249 39.2466 62.1807C36.6938 63.4985 34.459 65.3816 32.721 67.6574C32.7189 67.5654 32.7148 67.4733 32.7148 67.3803ZM40.458 54.7738C40.458 50.6017 43.8532 47.2065 48.0254 47.2065C52.1976 47.2065 55.5927 50.6017 55.5927 54.7738C55.5927 58.946 52.1976 62.3412 48.0254 62.3412C43.8532 62.3412 40.458 58.947 40.458 54.7738ZM88.4609 39.5195C88.4609 39.8804 88.1675 40.1738 87.8066 40.1738H87.043V37.1262L88.4609 36.2757V39.5195ZM87.8066 23.4238C88.1675 23.4238 88.4609 23.7172 88.4609 24.0781V31.6966L87.043 32.5482V23.4238H87.8066ZM8.24414 45.4082C7.88326 45.4082 7.58984 45.1148 7.58984 44.7539V24.0781C7.58984 23.7172 7.88326 23.4238 8.24414 23.4238H9.00783V45.4082H8.24414ZM8.24414 63.9902C7.88326 63.9902 7.58984 63.6968 7.58984 63.3359V58.3633C7.58984 58.0024 7.88326 57.709 8.24414 57.709H9.00783V63.9902H8.24414ZM8.24414 80.2168C7.88326 80.2168 7.58984 79.9234 7.58984 79.5625V74.5898C7.58984 74.229 7.88326 73.9355 8.24414 73.9355H9.00783V80.2168H8.24414ZM79.8457 130.074H16.2051C14.4007 130.074 12.9336 128.607 12.9336 126.803V120.783H83.1172V126.803C83.1172 128.607 81.6491 130.074 79.8457 130.074ZM83.1172 116.857H12.9336V17.1426H83.1172V34.9037L58.3633 49.7572C56.4975 45.9265 52.5646 43.2807 48.0254 43.2807C42.7747 43.2807 38.3387 46.8211 36.9708 51.6394C31.8418 55.2462 28.7891 61.1021 28.7891 67.3803C28.7891 69.6019 29.1776 71.7927 29.9167 73.8568C29.9484 73.9713 29.9893 74.0828 30.0414 74.1901C30.8031 76.201 31.897 78.0862 33.2986 79.7527C33.6871 80.2137 34.2422 80.4519 34.8025 80.4519C35.2482 80.4519 35.696 80.3006 36.064 79.9919C36.8942 79.2936 37.0015 78.0556 36.3033 77.2254C35.3126 76.0477 34.5152 74.733 33.9232 73.3334C35.558 69.4792 38.763 66.4091 42.6847 64.9461C44.2816 65.7875 46.0983 66.267 48.0254 66.267C49.9525 66.267 51.7692 65.7875 53.3661 64.9461C57.2888 66.4101 60.4949 69.4812 62.1286 73.3385C59.8007 78.8295 54.3557 82.6909 48.0254 82.6909C46.1494 82.6909 44.3112 82.3525 42.562 81.6839C41.5499 81.2974 40.4151 81.8045 40.0276 82.8166C39.6412 83.8297 40.1483 84.9645 41.1604 85.351C43.3584 86.1913 45.6689 86.6166 48.0254 86.6166C51.6046 86.6166 54.9558 85.6321 57.8296 83.9218L83.1172 99.0963V116.857ZM83.1172 94.5183L61.2074 81.371C63.3175 79.3815 64.9788 76.9249 66.0226 74.1646C66.0574 74.0899 66.086 74.0122 66.1106 73.9335C66.6821 72.3611 67.0491 70.6937 67.1912 68.9629H83.1172V94.5183ZM112.499 82.927C106.853 82.927 101.994 79.4971 99.8917 74.6123C101.355 71.2151 104.181 68.5069 107.637 67.1932C109.095 67.9477 110.748 68.3771 112.499 68.3771C114.251 68.3771 115.904 67.9477 117.361 67.1932C120.818 68.5069 123.645 71.2151 125.108 74.6123C123.006 79.4971 118.147 82.927 112.499 82.927ZM126.211 68.9373C124.714 67.092 122.855 65.5493 120.752 64.4288C121.74 63.2071 122.462 61.7636 122.833 60.1851C124.934 62.5855 126.147 65.6618 126.211 68.9373ZM112.499 51.072C116.188 51.072 119.189 54.0725 119.189 57.7611C119.189 61.4507 116.188 64.4513 112.499 64.4513C108.811 64.4513 105.81 61.4507 105.81 57.7611C105.81 54.0725 108.811 51.072 112.499 51.072ZM102.166 60.1871C102.538 61.7646 103.259 63.2081 104.247 64.4288C102.144 65.5493 100.285 67.093 98.7886 68.9373C98.852 65.6771 100.067 62.5917 102.166 60.1871Z" fill="#0055A7"/>
</g>
<defs>
<clipPath id="clip0">
<rect width="134" height="134" fill="white"/>
</clipPath>
</defs>
</svg>
