<svg width="134" height="134" viewBox="0 0 134 134" fill="none" xmlns="http://www.w3.org/2000/svg">
<g clip-path="url(#clip0)">
<path d="M42.4502 75.9718C38.8792 75.9718 35.9778 73.2936 35.7546 69.7226C44.2356 66.1516 49.3689 57.6706 49.1457 48.52C49.1457 48.0736 49.1457 47.1808 49.1457 46.9577C49.1457 35.7984 40.2183 26.871 29.059 26.871H2.27678C0.937664 26.871 0.0449219 27.7637 0.0449219 29.1028C0.0449219 34.2361 2.05359 39.1462 5.40137 42.7171C4.955 44.949 4.50863 46.9577 4.50863 49.1895C4.50863 58.1169 9.86508 66.1516 17.8998 69.7226C17.6766 73.2936 14.7752 75.9718 11.2042 75.9718C4.955 75.9718 0.0449219 80.8819 0.0449219 87.131V131.768C0.0449219 133.107 0.937664 134 2.27678 134H51.3776C52.7167 134 53.6094 133.107 53.6094 131.768V87.131C53.6094 80.8819 48.6994 75.9718 42.4502 75.9718ZM4.73182 31.3347H29.059C36.8705 31.3347 43.3429 37.1375 44.4588 44.7258H20.1316C12.3201 44.7258 5.84774 38.923 4.73182 31.3347ZM8.97234 49.1895C8.97234 48.0736 8.97234 46.9577 9.19553 46.0649C12.5433 48.0736 16.3375 49.1895 20.1316 49.1895H44.682C44.682 56.7778 39.9951 63.4734 32.8532 65.9284C31.9604 66.1516 31.2909 67.0444 31.2909 67.9371V69.2762C31.2909 72.1776 32.4068 75.079 34.6387 77.3109L28.8359 78.2036H24.8185L19.0157 77.3109C21.2475 75.3022 22.3635 72.4008 22.3635 69.2762V68.1603C22.3635 67.2675 21.6939 66.3748 20.8012 66.1516C13.6592 63.4734 8.97234 56.7778 8.97234 49.1895ZM31.2909 108.78L26.8272 113.021L22.5867 108.78L26.604 82.6673H27.2736L31.2909 108.78ZM4.50863 87.131C4.50863 83.5601 7.41004 80.4355 10.981 80.4355L21.9171 82.221L17.6766 109.003C17.6766 109.673 17.8998 110.342 18.3461 111.012L25.0417 117.707C25.9344 118.6 27.2736 118.6 28.1663 117.707L34.8619 111.012C35.3082 110.566 35.5314 109.896 35.5314 109.003L31.2909 82.221L42.227 80.4355C45.7979 80.4355 48.6994 83.5601 48.6994 87.131V120.609H4.50863V87.131ZM49.1457 129.536H4.50863V125.073H49.1457V129.536Z" fill="#0055A7"/>
<path d="M125.027 17.9436H114.984L112.529 14.1494C111.413 12.3639 109.181 11.248 106.949 11.248H102.039C100.923 11.248 100.031 10.5784 99.8073 9.46251C97.5755 2.32057 90.2103 -1.47358 83.0684 0.535087C78.8279 1.8742 75.4801 5.22198 74.141 9.46251C73.9178 10.3552 73.0251 11.248 71.9091 11.248H66.9991C64.7672 11.248 62.7585 12.3639 61.4194 14.1494L59.1876 17.9436H49.1442C44.2341 17.9436 40.2168 21.9609 40.2168 26.871H44.6805C44.6805 24.4159 46.6892 22.4073 49.1442 22.4073H56.2862C54.947 24.4159 55.8398 27.3173 57.8484 28.4333C58.518 28.8796 59.4107 29.1028 60.0803 29.1028H114.314C116.769 29.1028 118.778 27.0942 118.778 24.6391C118.778 23.7464 118.555 23.0768 118.109 22.4073H125.027C127.482 22.4073 129.491 24.4159 129.491 26.871V125.073C129.491 127.528 127.482 129.536 125.027 129.536H58.0716V134H125.027C129.937 134 133.955 129.983 133.955 125.073V26.871C133.955 21.9609 129.937 17.9436 125.027 17.9436ZM60.0803 24.6391L65.2136 16.6044C65.6599 16.1581 66.3295 15.7117 67.2222 15.7117H72.1323C75.0337 15.7117 77.712 13.703 78.6047 10.8016C80.167 6.11472 85.0771 3.4365 89.764 4.9988C92.6654 5.89154 94.674 8.12339 95.5668 10.8016C96.4595 13.703 99.1378 15.7117 102.039 15.7117H106.949C107.619 15.7117 108.288 16.1581 108.735 16.6044L114.091 24.6391H60.0803Z" fill="#0055A7"/>
<path d="M89.3192 9.01611H84.8555V13.4798H89.3192V9.01611Z" fill="#0055A7"/>
<path d="M77.4903 55.2155L74.3657 52.0909L69.2325 57.2242L64.0992 52.0909L60.9746 55.2155L66.1079 60.3488L60.9746 65.4821L64.0992 68.6067L69.2325 63.4734L74.3657 68.6067L77.4903 65.4821L72.3571 60.3488L77.4903 55.2155Z" fill="#0055A7"/>
<path d="M102.041 99.8526L98.9165 96.728L93.7833 101.861L88.65 96.728L85.5254 99.8526L90.6587 104.986L85.5254 110.119L88.65 113.244L93.7833 108.11L98.9165 113.244L102.041 110.119L96.9079 104.986L102.041 99.8526Z" fill="#0055A7"/>
<path d="M104.272 63.2502C103.379 62.3575 102.04 62.3575 101.148 63.2502L92.2202 72.1777L95.3448 75.3023L100.478 70.169V74.8559C100.478 80.4355 96.0144 84.8992 90.4347 84.8992C82.4001 84.8992 75.9277 91.3716 75.9277 99.4063V101.638C75.9277 107.218 71.464 111.681 65.8843 111.681H60.3047V116.145H65.8843C73.919 116.145 80.3914 109.673 80.3914 101.638V99.4063C80.3914 93.8267 84.8551 89.3629 90.4347 89.3629C98.4694 89.3629 104.942 82.8906 104.942 74.8559V70.169L110.075 75.3023L113.2 72.1777L104.272 63.2502Z" fill="#0055A7"/>
<path d="M117.663 37.5838L114.539 34.2361L111.637 37.1375C106.281 32.2274 97.7997 32.6738 92.8897 38.2534C87.9796 43.833 88.426 52.0909 94.0056 57.001C99.5852 61.9111 107.843 61.4647 112.753 55.8851C116.547 51.6445 117.217 45.6185 114.539 40.7084L117.663 37.5838ZM102.71 55.8851C97.7997 55.8851 93.7824 51.8677 93.7824 46.9576C93.7824 42.0476 97.7997 38.0302 102.71 38.0302C104.942 38.0302 106.95 38.923 108.513 40.2621L102.71 46.0649L99.8084 43.1635L96.6838 46.2881L101.148 50.7518C102.04 51.6445 103.379 51.6445 104.272 50.7518L110.968 44.0562C111.414 44.949 111.637 45.8417 111.637 46.9576C111.637 51.8677 107.62 55.8851 102.71 55.8851Z" fill="#0055A7"/>
<path d="M42.4495 91.5947H35.7539V96.0584H42.4495V91.5947Z" fill="#0055A7"/>
<path d="M120.564 29.1028V120.609H58.0723V125.073H122.796C124.135 125.073 125.028 124.18 125.028 122.841V29.1028H120.564Z" fill="#0055A7"/>
</g>
<defs>
<clipPath id="clip0">
<rect width="134" height="134" fill="white"/>
</clipPath>
</defs>
</svg>
