<svg width="134" height="134" viewBox="0 0 134 134" fill="none" xmlns="http://www.w3.org/2000/svg">
<path d="M58.0668 82.6334H64.7668V89.3334C64.7668 90.5668 65.7667 91.5667 67.0002 91.5667C68.2336 91.5667 69.2335 90.5668 69.2335 89.3334V82.6334H75.9335C76.7877 82.6294 77.5649 82.1386 77.9355 81.3689C78.3061 80.5992 78.2051 79.6856 77.6755 79.0154L68.7422 67.8487C68.3183 67.3204 67.6775 67.0129 67.0002 67.0129C66.3228 67.0129 65.6821 67.3204 65.2582 67.8487L56.3248 79.0154C55.7952 79.6856 55.6943 80.5992 56.0649 81.3689C56.4354 82.1386 57.2126 82.6294 58.0668 82.6334ZM67.0002 72.8067L71.2882 78.1667H62.7122L67.0002 72.8067Z" fill="#0055A7"/>
<path d="M42.4327 84.8667V82.6334H49.1327C49.9869 82.6294 50.7641 82.1386 51.1347 81.3689C51.5052 80.5992 51.4043 79.6856 50.8747 79.0154L41.9414 67.8487C41.5175 67.3204 40.8767 67.0129 40.1993 67.0129C39.522 67.0129 38.8812 67.3204 38.4573 67.8487L29.524 79.0154C28.9944 79.6856 28.8935 80.5992 29.264 81.3689C29.6346 82.1386 30.4118 82.6294 31.266 82.6334H37.966V84.8667C37.966 86.1001 36.9661 87.1 35.7327 87.1H13.3993C12.1659 87.1 11.166 88.0999 11.166 89.3334C11.166 90.5668 12.1659 91.5667 13.3993 91.5667H35.7327C39.433 91.5667 42.4327 88.567 42.4327 84.8667ZM40.1993 72.8067L44.4874 78.1667H35.9113L40.1993 72.8067Z" fill="#0055A7"/>
<path d="M84.8676 82.6334H91.5676V84.8667C91.5676 88.567 94.5673 91.5667 98.2676 91.5667H120.601C121.834 91.5667 122.834 90.5668 122.834 89.3334C122.834 88.0999 121.834 87.1 120.601 87.1H98.2676C97.0342 87.1 96.0343 86.1001 96.0343 84.8667V82.6334H102.734C103.589 82.6294 104.366 82.1386 104.736 81.3689C105.107 80.5992 105.006 79.6856 104.476 79.0154L95.543 67.8487C95.1191 67.3204 94.4783 67.0129 93.801 67.0129C93.1236 67.0129 92.4828 67.3204 92.059 67.8487L83.1256 79.0154C82.596 79.6856 82.4951 80.5992 82.8656 81.3689C83.2362 82.1386 84.0134 82.6294 84.8676 82.6334ZM93.801 72.8067L98.089 78.1667H89.513L93.801 72.8067Z" fill="#0055A7"/>
<path d="M127.3 11.1667H111.667V8.93333C111.667 3.99959 107.667 0 102.733 0H31.2667C26.3329 0 22.3333 3.99959 22.3333 8.93333V11.1667H6.7C2.99969 11.1667 0 14.1664 0 17.8667V104.967C0 108.667 2.99969 111.667 6.7 111.667H46.1407L40.7807 129.533H35.7333C34.4999 129.533 33.5 130.533 33.5 131.767C33.5 133 34.4999 134 35.7333 134H98.2667C99.5001 134 100.5 133 100.5 131.767C100.5 130.533 99.5001 129.533 98.2667 129.533H93.2193L87.8593 111.667H127.3C131 111.667 134 108.667 134 104.967V17.8667C134 14.1664 131 11.1667 127.3 11.1667ZM55.8333 31.2667L27.135 55.2527C26.9109 54.7307 26.7969 54.1681 26.8 53.6C26.8 4.73467 26.666 8.442 27.135 7.28067L55.8333 31.2667ZM59.3173 34.17C61.6847 36.1577 63.449 37.9667 67 37.9667C70.551 37.9667 72.5833 35.912 74.6827 34.1477L103.202 58.0667C102.622 58.0667 31.6017 58.0667 30.7977 58.0667L59.3173 34.17ZM106.865 7.37C107.356 8.55367 107.2 4.891 107.2 53.6893C107.203 54.2574 107.089 54.82 106.865 55.342L78.1667 31.2667L106.865 7.37ZM103.202 4.46667L69.7023 32.4503C68.1326 33.7892 65.8227 33.7892 64.253 32.4503L30.7977 4.46667H103.202ZM88.574 129.533H45.426L50.786 111.667H83.214L88.574 129.533ZM127.3 107.2H6.7C5.46656 107.2 4.46667 106.2 4.46667 104.967V100.5H13.4C14.6334 100.5 15.6333 99.5001 15.6333 98.2667C15.6333 97.0332 14.6334 96.0333 13.4 96.0333H4.46667V17.8667C4.46667 16.6332 5.46656 15.6333 6.7 15.6333H22.3333V53.6C22.3333 58.5337 26.3329 62.5333 31.2667 62.5333H102.733C107.667 62.5333 111.667 58.5337 111.667 53.6V15.6333H127.3C128.533 15.6333 129.533 16.6332 129.533 17.8667V96.0333H22.3333C21.0999 96.0333 20.1 97.0332 20.1 98.2667C20.1 99.5001 21.0999 100.5 22.3333 100.5H129.533V104.967C129.533 106.2 128.533 107.2 127.3 107.2Z" fill="#0055A7"/>
</svg>
