<svg width="184" height="184" viewBox="0 0 184 184" fill="none" xmlns="http://www.w3.org/2000/svg">
<rect width="184" height="184" rx="10" fill="#0055A7" fill-opacity="0.2"/>
<rect x="8.5" y="8.5" width="167" height="167" rx="9.5" stroke="#0055A7" stroke-dasharray="8 8"/>
<path d="M92.0003 109.333C94.9458 109.333 97.3337 106.946 97.3337 104C97.3337 101.055 94.9458 98.6667 92.0003 98.6667C89.0548 98.6667 86.667 101.055 86.667 104C86.667 106.946 89.0548 109.333 92.0003 109.333Z" fill="#0055A7"/>
<path d="M86.9997 87.3333L83.9497 90.6666H78.6663C76.833 90.6666 75.333 92.1666 75.333 93.9999V114C75.333 115.833 76.833 117.333 78.6663 117.333H105.333C107.166 117.333 108.666 115.833 108.666 114V93.9999C108.666 92.1666 107.166 90.6666 105.333 90.6666H100.05L96.9997 87.3333H86.9997ZM91.9997 112.333C87.3997 112.333 83.6663 108.6 83.6663 104C83.6663 99.3999 87.3997 95.6666 91.9997 95.6666C96.5997 95.6666 100.333 99.3999 100.333 104C100.333 108.6 96.5997 112.333 91.9997 112.333Z" fill="#0055A7"/>
<path d="M51.6924 65.6445C51.6924 65.0202 51.4668 64.528 51.0156 64.168C50.5645 63.8079 49.9219 63.6279 49.0879 63.6279C48.3678 63.6279 47.7731 63.8193 47.3037 64.2021C46.8343 64.585 46.5996 65.0703 46.5996 65.6582H45.7588C45.7588 65.1296 45.9023 64.6579 46.1895 64.2432C46.4766 63.8239 46.8776 63.498 47.3926 63.2656C47.9121 63.0286 48.4772 62.9102 49.0879 62.9102C50.1634 62.9102 51.0065 63.1494 51.6172 63.6279C52.2279 64.1064 52.5332 64.7855 52.5332 65.665C52.5332 66.1709 52.3714 66.6221 52.0479 67.0186C51.7243 67.415 51.2891 67.709 50.7422 67.9004C52.0365 68.2467 52.6836 69.0465 52.6836 70.2998C52.6836 71.1611 52.3577 71.8493 51.7061 72.3643C51.0589 72.8792 50.1862 73.1367 49.0879 73.1367C48.4225 73.1367 47.8164 73.0114 47.2695 72.7607C46.7227 72.5055 46.3102 72.1637 46.0322 71.7354C45.7542 71.3024 45.6152 70.8034 45.6152 70.2383H46.4561C46.4561 70.8763 46.7044 71.4027 47.2012 71.8174C47.6979 72.2275 48.3268 72.4326 49.0879 72.4326C49.9492 72.4326 50.6237 72.2435 51.1113 71.8652C51.599 71.4824 51.8428 70.9697 51.8428 70.3271C51.8428 69.6481 51.6263 69.1423 51.1934 68.8096C50.7604 68.4723 50.0928 68.2992 49.1904 68.29H47.9189V67.5654H49.1494C49.9788 67.5609 50.61 67.3991 51.043 67.0801C51.4759 66.7565 51.6924 66.278 51.6924 65.6445ZM59.0615 73C58.9795 72.7676 58.9271 72.4235 58.9043 71.9678C58.6172 72.3415 58.2503 72.6309 57.8037 72.8359C57.3617 73.0365 56.8923 73.1367 56.3955 73.1367C55.6846 73.1367 55.1081 72.9385 54.666 72.542C54.2285 72.1455 54.0098 71.6442 54.0098 71.0381C54.0098 70.318 54.3083 69.7484 54.9053 69.3291C55.5068 68.9098 56.3431 68.7002 57.4141 68.7002H58.8975V67.8594C58.8975 67.3307 58.7334 66.916 58.4053 66.6152C58.0817 66.3099 57.6077 66.1572 56.9834 66.1572C56.4137 66.1572 55.9421 66.3031 55.5684 66.5947C55.1947 66.8864 55.0078 67.2373 55.0078 67.6475L54.1875 67.6406C54.1875 67.0527 54.4609 66.5446 55.0078 66.1162C55.5547 65.6833 56.2269 65.4668 57.0244 65.4668C57.8493 65.4668 58.4987 65.6742 58.9727 66.0889C59.4512 66.499 59.6973 67.0732 59.7109 67.8115V71.3115C59.7109 72.027 59.7861 72.5625 59.9365 72.918V73H59.0615ZM56.4912 72.4121C57.0381 72.4121 57.5257 72.2799 57.9541 72.0156C58.387 71.7513 58.7015 71.3981 58.8975 70.9561V69.3291H57.4346C56.6188 69.3382 55.9808 69.4886 55.5205 69.7803C55.0602 70.0674 54.8301 70.4639 54.8301 70.9697C54.8301 71.3844 54.9827 71.7285 55.2881 72.002C55.598 72.2754 55.999 72.4121 56.4912 72.4121ZM66.5059 66.3076H62.7666V73H61.9463V65.6035H66.5059V66.3076ZM73.752 69.377C73.752 70.5299 73.4967 71.446 72.9863 72.125C72.4759 72.7995 71.7923 73.1367 70.9355 73.1367C69.9238 73.1367 69.1491 72.7812 68.6113 72.0703V75.8438H67.7979V65.6035H68.5566L68.5977 66.6494C69.1309 65.861 69.9033 65.4668 70.915 65.4668C71.7992 65.4668 72.4919 65.8018 72.9932 66.4717C73.499 67.1416 73.752 68.0713 73.752 69.2607V69.377ZM72.9316 69.2334C72.9316 68.29 72.738 67.5449 72.3506 66.998C71.9632 66.4512 71.4232 66.1777 70.7305 66.1777C70.2292 66.1777 69.7985 66.2985 69.4385 66.54C69.0785 66.7816 68.8027 67.1325 68.6113 67.5928V71.1406C68.8073 71.5645 69.0876 71.888 69.4521 72.1113C69.8167 72.3346 70.2474 72.4463 70.7441 72.4463C71.4323 72.4463 71.9678 72.1729 72.3506 71.626C72.738 71.0745 72.9316 70.277 72.9316 69.2334ZM77.833 71.8242L79.9932 65.6035H80.875L77.7168 74.2578L77.5527 74.6406C77.1471 75.5384 76.5205 75.9873 75.6729 75.9873C75.4769 75.9873 75.2673 75.9554 75.0439 75.8916L75.0371 75.2148L75.4609 75.2559C75.862 75.2559 76.1855 75.1556 76.4316 74.9551C76.6823 74.7591 76.8942 74.4196 77.0674 73.9365L77.4297 72.9385L74.6406 65.6035H75.5361L77.833 71.8242ZM86.4805 67.5586C86.4805 67.112 86.3141 66.7679 85.9814 66.5264C85.6488 66.2848 85.1908 66.1641 84.6074 66.1641C84.0788 66.1641 83.6253 66.3008 83.2471 66.5742C82.8734 66.8431 82.6865 67.1849 82.6865 67.5996H81.873C81.873 66.9844 82.1351 66.4762 82.6592 66.0752C83.1878 65.6742 83.8372 65.4736 84.6074 65.4736C85.4551 65.4736 86.1159 65.6559 86.5898 66.0205C87.0638 66.3851 87.3008 66.9023 87.3008 67.5723C87.3008 67.9277 87.1914 68.249 86.9727 68.5361C86.7539 68.8232 86.4349 69.0465 86.0156 69.2061C86.9635 69.4658 87.4375 70.0537 87.4375 70.9697C87.4375 71.6351 87.18 72.1615 86.665 72.5488C86.1501 72.9362 85.4665 73.1299 84.6143 73.1299C83.7894 73.1299 83.1058 72.9225 82.5635 72.5078C82.0212 72.0931 81.75 71.5508 81.75 70.8809H82.5703C82.5703 71.3275 82.7663 71.7012 83.1582 72.002C83.5547 72.2982 84.04 72.4463 84.6143 72.4463C85.2386 72.4463 85.7262 72.3164 86.0771 72.0566C86.4326 71.7923 86.6104 71.4346 86.6104 70.9834C86.6104 70.4867 86.4486 70.1289 86.125 69.9102C85.8014 69.6914 85.307 69.582 84.6416 69.582H83.5137V68.8711H84.7783C85.9131 68.8438 86.4805 68.4062 86.4805 67.5586ZM94.1025 65.6035H94.9229V73H94.1025V66.9229L90.1104 73H89.2969V65.6035H90.1104V71.6875L94.1025 65.6035ZM102.429 66.3008H99.7354V73H98.915V66.3008H96.3242V65.6035H102.429V66.3008ZM106.093 73.1367C105.464 73.1367 104.894 72.9818 104.384 72.6719C103.878 72.362 103.484 71.9313 103.201 71.3799C102.919 70.8239 102.777 70.2018 102.777 69.5137V69.2197C102.777 68.5088 102.914 67.8685 103.188 67.2988C103.465 66.7292 103.851 66.2826 104.343 65.959C104.835 65.6309 105.368 65.4668 105.942 65.4668C106.84 65.4668 107.551 65.7744 108.075 66.3896C108.604 67.0003 108.868 67.8366 108.868 68.8984V69.3564H103.591V69.5137C103.591 70.3522 103.83 71.0518 104.309 71.6123C104.792 72.1683 105.398 72.4463 106.127 72.4463C106.564 72.4463 106.95 72.3665 107.282 72.207C107.619 72.0475 107.925 71.7923 108.198 71.4414L108.711 71.8311C108.109 72.7015 107.237 73.1367 106.093 73.1367ZM105.942 66.1641C105.327 66.1641 104.808 66.3896 104.384 66.8408C103.965 67.292 103.709 67.8981 103.618 68.6592H108.055V68.5703C108.032 67.8594 107.829 67.2806 107.446 66.834C107.063 66.3874 106.562 66.1641 105.942 66.1641ZM113.558 69.3633C113.558 68.1602 113.792 67.21 114.262 66.5127C114.736 65.8154 115.39 65.4668 116.224 65.4668C116.702 65.4668 117.108 65.5739 117.44 65.7881V62.5H118.254V65.8154C118.591 65.583 119.01 65.4668 119.512 65.4668C120.3 65.4668 120.931 65.7835 121.405 66.417C121.879 67.0505 122.137 67.9323 122.178 69.0625L122.185 69.5068C122.185 70.6325 121.948 71.5212 121.474 72.1729C121 72.82 120.35 73.1436 119.525 73.1436C119.033 73.1436 118.609 73.0365 118.254 72.8223V75.8438H117.44V72.8291C117.09 73.0387 116.679 73.1436 116.21 73.1436C115.431 73.1436 114.806 72.8496 114.337 72.2617C113.868 71.6693 113.61 70.8512 113.564 69.8076L113.558 69.3633ZM121.371 69.3633C121.371 68.3698 121.191 67.5882 120.831 67.0186C120.476 66.4489 119.977 66.1641 119.334 66.1641C118.869 66.1641 118.509 66.2643 118.254 66.4648V72.1865C118.541 72.3643 118.906 72.4531 119.348 72.4531C119.986 72.4531 120.482 72.1979 120.838 71.6875C121.193 71.1725 121.371 70.3978 121.371 69.3633ZM114.378 69.5068C114.378 70.4365 114.549 71.1611 114.891 71.6807C115.232 72.1956 115.725 72.4531 116.367 72.4531C116.796 72.4531 117.153 72.3597 117.44 72.1729V66.4443C117.176 66.2575 116.823 66.1641 116.381 66.1641C115.743 66.1641 115.248 66.4489 114.897 67.0186C114.551 67.5837 114.378 68.4131 114.378 69.5068ZM123.559 69.1924C123.559 68.4814 123.695 67.8411 123.969 67.2715C124.247 66.7018 124.636 66.2598 125.138 65.9453C125.644 65.6263 126.215 65.4668 126.854 65.4668C127.838 65.4668 128.635 65.8132 129.246 66.5059C129.857 67.194 130.162 68.1077 130.162 69.2471V69.418C130.162 70.1335 130.023 70.7783 129.745 71.3525C129.472 71.9222 129.084 72.362 128.583 72.6719C128.082 72.9818 127.51 73.1367 126.867 73.1367C125.887 73.1367 125.09 72.7926 124.475 72.1045C123.864 71.4118 123.559 70.4958 123.559 69.3564V69.1924ZM124.379 69.418C124.379 70.3021 124.607 71.029 125.062 71.5986C125.523 72.1637 126.124 72.4463 126.867 72.4463C127.605 72.4463 128.202 72.1637 128.658 71.5986C129.118 71.029 129.349 70.2793 129.349 69.3496V69.1924C129.349 68.6273 129.244 68.11 129.034 67.6406C128.825 67.1712 128.531 66.8089 128.152 66.5537C127.774 66.2939 127.341 66.1641 126.854 66.1641C126.124 66.1641 125.53 66.4512 125.069 67.0254C124.609 67.5951 124.379 68.3424 124.379 69.2676V69.418ZM137.019 66.3008H134.325V73H133.505V66.3008H130.914V65.6035H137.019V66.3008ZM137.627 69.1924C137.627 68.4814 137.764 67.8411 138.037 67.2715C138.315 66.7018 138.705 66.2598 139.206 65.9453C139.712 65.6263 140.284 65.4668 140.922 65.4668C141.906 65.4668 142.704 65.8132 143.314 66.5059C143.925 67.194 144.23 68.1077 144.23 69.2471V69.418C144.23 70.1335 144.091 70.7783 143.813 71.3525C143.54 71.9222 143.153 72.362 142.651 72.6719C142.15 72.9818 141.578 73.1367 140.936 73.1367C139.956 73.1367 139.158 72.7926 138.543 72.1045C137.932 71.4118 137.627 70.4958 137.627 69.3564V69.1924ZM138.447 69.418C138.447 70.3021 138.675 71.029 139.131 71.5986C139.591 72.1637 140.193 72.4463 140.936 72.4463C141.674 72.4463 142.271 72.1637 142.727 71.5986C143.187 71.029 143.417 70.2793 143.417 69.3496V69.1924C143.417 68.6273 143.312 68.11 143.103 67.6406C142.893 67.1712 142.599 66.8089 142.221 66.5537C141.842 66.2939 141.41 66.1641 140.922 66.1641C140.193 66.1641 139.598 66.4512 139.138 67.0254C138.677 67.5951 138.447 68.3424 138.447 69.2676V69.418Z" fill="#0055A7"/>
</svg>
