<?xml version="1.0" encoding="UTF-8"?>
<svg width="15px" height="14px" viewBox="0 0 15 14" version="1.1" xmlns="http://www.w3.org/2000/svg" xmlns:xlink="http://www.w3.org/1999/xlink">
    <!-- Generator: sketchtool 46 (44423) - http://www.bohemiancoding.com/sketch -->
    <title>F476DAFE-C047-4067-A3D9-C5EC04E851F7</title>
    <desc>Created with sketchtool.</desc>
    <defs></defs>
    <g id="Page-1" stroke="none" stroke-width="1" fill="none" fill-rule="evenodd" opacity="0.561084692">
        <g id="Desktop-HD" transform="translate(-121.000000, -973.000000)" fill-rule="nonzero" fill="#000000">
            <g id="linkedin-logo" transform="translate(121.000000, 973.000000)">
                <path d="M14.4996292,8.58155825 L14.4996292,13.9850485 L11.3918892,13.9850485 L11.3918892,8.94345146 C11.3918892,7.67696117 10.9423881,6.81263107 9.81748921,6.81263107 C8.95877157,6.81263107 8.44774811,7.39512621 8.22293015,7.95859223 C8.14094525,8.16002913 8.11984223,8.44040291 8.11984223,8.72237379 L8.11984223,13.9850485 L5.01105717,13.9850485 C5.01105717,13.9850485 5.05292611,5.44623786 5.01105717,4.5615534 L8.11953883,4.5615534 L8.11953883,5.89729612 C8.1132349,5.90728641 8.10504315,5.91805825 8.09911003,5.92774272 L8.11953883,5.92774272 L8.11953883,5.89729612 C8.53253101,5.2561165 9.27009169,4.3401699 10.9209817,4.3401699 C12.9663228,4.34013592 14.4996292,5.68702427 14.4996292,8.58155825 Z M1.75913565,0.018961165 C0.695624326,0.018961165 0,0.722121359 0,1.64680097 C0,2.5513301 0.675498921,3.2758301 1.71787352,3.2758301 L1.73863943,3.2758301 C2.82274811,3.2758301 3.49696602,2.55146602 3.49696602,1.64680097 C3.47653722,0.722121359 2.82274811,0.018961165 1.75913565,0.018961165 Z M0.184634574,13.9850485 L3.29223975,13.9850485 L3.29223975,4.5615534 L0.184634574,4.5615534 L0.184634574,13.9850485 Z" id="LinkedIn"></path>
            </g>
        </g>
    </g>
</svg>