<?xml version="1.0" encoding="UTF-8"?>
<svg width="17px" height="20px" viewBox="0 0 17 20" version="1.1" xmlns="http://www.w3.org/2000/svg" xmlns:xlink="http://www.w3.org/1999/xlink">
    <!-- Generator: sketchtool 46 (44423) - http://www.bohemiancoding.com/sketch -->
    <title>1396FB65-54BA-4B7C-AD72-999A83644D75</title>
    <desc>Created with sketchtool.</desc>
    <defs></defs>
    <g id="Page-1" stroke="none" stroke-width="1" fill="none" fill-rule="evenodd" opacity="0.561084692">
        <g id="Desktop-HD" transform="translate(-39.000000, -970.000000)" fill-rule="nonzero" fill="#000000">
            <g id="youtube-logo" transform="translate(39.000000, 970.000000)">
                <path d="M14.3778175,14.6293333 L13.2671958,14.6293333 L13.2723677,13.9917778 C13.2723677,13.7084444 13.5078042,13.4766667 13.7954101,13.4766667 L13.8662434,13.4766667 C14.1545238,13.4766667 14.3906349,13.7084444 14.3906349,13.9917778 L14.3778175,14.6293333 Z M10.211918,13.2631111 C9.93015873,13.2631111 9.69966931,13.4502222 9.69966931,13.6793333 L9.69966931,16.78 C9.69966931,17.0086667 9.93015873,17.1953333 10.211918,17.1953333 C10.4948016,17.1953333 10.7255159,17.0086667 10.7255159,16.78 L10.7255159,13.6793333 C10.7255159,13.45 10.4948016,13.2631111 10.211918,13.2631111 Z M16.9775132,11.5286667 L16.9775132,17.4273333 C16.9775132,18.8422222 15.7360185,20 14.2183862,20 L2.87178571,20 C1.3537037,20 0.112433862,18.8422222 0.112433862,17.4273333 L0.112433862,11.5286667 C0.112433862,10.1137778 1.3537037,8.95577778 2.87178571,8.95577778 L14.2183862,8.95577778 C15.7360185,8.95577778 16.9775132,10.1137778 16.9775132,11.5286667 Z M3.62869048,18.0677778 L3.62779101,11.8542222 L5.03433862,11.8546667 L5.03433862,10.934 L1.28489418,10.9284444 L1.28489418,11.8335556 L2.45533069,11.8368889 L2.45533069,18.0677778 L3.62869048,18.0677778 Z M7.84496032,12.7797778 L6.67227513,12.7797778 L6.67227513,16.0977778 C6.67227513,16.5777778 6.7017328,16.8177778 6.67047619,16.9024444 C6.57513228,17.1597778 6.14653439,17.4331111 5.97945767,16.9302222 C5.95112434,16.8422222 5.97608466,16.5766667 5.97563492,16.1206667 L5.9709127,12.7797778 L4.80474868,12.7797778 L4.80834656,16.0682222 C4.80924603,16.5722222 4.79687831,16.948 4.81239418,17.1191111 C4.84095238,17.4206667 4.83083333,17.7722222 5.1139418,17.9731111 C5.64148148,18.3486667 6.65271164,17.9171111 6.90568783,17.3802222 L6.90343915,18.0653333 L7.84518519,18.0664444 L7.84496032,12.7797778 L7.84496032,12.7797778 Z M11.5964286,16.5793333 L11.593955,13.8177778 C11.5930556,12.7653333 10.7963492,12.1351111 9.71496032,12.9866667 L9.71968254,10.9335556 L8.54834656,10.9353333 L8.54272487,18.022 L9.5060582,18.0082222 L9.59375661,17.5668889 C10.8244577,18.6826667 11.5982275,17.918 11.5964286,16.5793333 Z M15.2664947,16.2133333 L14.3872619,16.218 C14.3868122,16.2524444 14.385463,16.2922222 14.3850132,16.3355556 L14.3850132,16.8204444 C14.3850132,17.08 14.1680159,17.2913333 13.9044709,17.2913333 L13.7322222,17.2913333 C13.4682275,17.2913333 13.2512302,17.08 13.2512302,16.8204444 L13.2512302,16.7666667 L13.2512302,16.2333333 L13.2512302,15.5451111 L15.2646958,15.5451111 L15.2646958,14.7962222 C15.2646958,14.2488889 15.2505291,13.7017778 15.2046561,13.3888889 C15.0605159,12.3991111 13.6546429,12.242 12.9445106,12.7486667 C12.7216667,12.9068889 12.5514418,13.1186667 12.4525,13.4031111 C12.3526587,13.6877778 12.302963,14.0766667 12.302963,14.5706667 L12.302963,16.2173333 C12.3034127,18.9546667 15.6678836,18.5677778 15.2664947,16.2133333 Z M10.7560979,7.27377778 C10.8165873,7.41911111 10.910582,7.53688889 11.038082,7.62577778 C11.1640079,7.71333333 11.3250132,7.75733333 11.5179497,7.75733333 C11.6870503,7.75733333 11.8368122,7.71222222 11.9672354,7.61911111 C12.097209,7.52644444 12.2067196,7.388 12.2962169,7.20333333 L12.273955,7.658 L13.5811111,7.658 L13.5811111,2.16444444 L12.5521164,2.16444444 L12.5521164,6.44 C12.5521164,6.67155556 12.3591799,6.86111111 12.1232937,6.86111111 C11.8887566,6.86111111 11.6951455,6.67155556 11.6951455,6.44 L11.6951455,2.16444444 L10.6211772,2.16444444 L10.6211772,5.86977778 C10.6211772,6.34177778 10.6299471,6.65644444 10.6441138,6.816 C10.6587302,6.97444444 10.6956085,7.12644444 10.7560979,7.27377778 Z M6.79482804,4.17111111 C6.79482804,3.64377778 6.83935185,3.232 6.92772487,2.93511111 C7.01677249,2.63933333 7.17665344,2.40155556 7.4082672,2.22222222 C7.63920635,2.042 7.93490741,1.95177778 8.2944709,1.95177778 C8.59691799,1.95177778 8.85596561,2.01044444 9.07228836,2.12533333 C9.28973545,2.24088889 9.45748677,2.39088889 9.57374339,2.576 C9.69224868,2.76177778 9.77275132,2.95266667 9.81570106,3.148 C9.85955026,3.346 9.88113757,3.64466667 9.88113757,4.04755556 L9.88113757,5.43688889 C9.88113757,5.94644444 9.86044974,6.32133333 9.82019841,6.55933333 C9.78039683,6.798 9.69494709,7.01933333 9.5625,7.22688889 C9.43207672,7.43222222 9.26365079,7.58577778 9.0594709,7.68377778 C8.85304233,7.78266667 8.61693122,7.83111111 8.3502381,7.83111111 C8.05228836,7.83111111 7.80133598,7.79044444 7.59445767,7.70555556 C7.38690476,7.62111111 7.22657407,7.49377778 7.11234127,7.32466667 C6.99698413,7.15533333 6.91580688,6.94911111 6.86678571,6.70866667 C6.81753968,6.46844444 6.79415344,6.10711111 6.79415344,5.62555556 L6.79482804,4.17111111 L6.79482804,4.17111111 Z M7.81865079,6.35333333 C7.81865079,6.66444444 8.05296296,6.91844444 8.33832011,6.91844444 C8.62390212,6.91844444 8.85731481,6.66444444 8.85731481,6.35333333 L8.85731481,3.42888889 C8.85731481,3.11822222 8.62390212,2.86422222 8.33832011,2.86422222 C8.05296296,2.86422222 7.81865079,3.11822222 7.81865079,3.42888889 L7.81865079,6.35333333 Z M4.20097884,7.83 L5.43415344,7.83 L5.43550265,3.61666667 L6.8926455,0.00733333333 L5.54388889,0.00733333333 L4.76921958,2.68822222 L3.98353175,0 L2.64871693,0 L4.19895503,3.61866667 L4.20097884,7.83 Z" id="YouTube"></path>
            </g>
        </g>
    </g>
</svg>