<svg id="Слой_1" data-name="Слой 1" xmlns="http://www.w3.org/2000/svg" viewBox="0 0 199.44 49.94"><defs><style>.cls-1{fill:#4b53a4;}.cls-2{fill:#f6e500;}.cls-3{fill:#ee2469;}.cls-4{fill:#86d2df;}.cls-5{fill:#fff;}</style></defs><title>logo oboi</title><path class="cls-1" d="M7.12,26.78a.27.27,0,0,0-.25-.37c-1.28,0-2.45,0-3.62,0-.72,0-1.8.1-1.78-.8s1.22-.6,1.9-.8c.09,0,.21,0,.31.05,2.26.53,2.94-.48,3.05-2.79,0-.4-.51-.87-.85-1.25a3,3,0,0,0-.46-.41.28.28,0,0,1,.17-.49l.62,0a4,4,0,0,1,.5.05.13.13,0,0,0,.12-.05c.1-.13.22-.1.32-.19a.13.13,0,0,0,0-.18,3.74,3.74,0,0,0-.91-.84C4.83,18,3.36,17.28,1.9,16.59c-.22-.11-.53-.07-.7-.22a5.07,5.07,0,0,1-.52-.61.27.27,0,0,1,.18-.43,1.51,1.51,0,0,1,.76,0c1.3.53,2.55,1.16,3.84,1.74a8.52,8.52,0,0,1,.9.26c1,.59,1.57.41,1.8-.86,0-.26.71-.41,1.22-.59a.28.28,0,0,1,.34.15,1.85,1.85,0,0,1,.26.87,15.83,15.83,0,0,0,2.6,10.66,15.4,15.4,0,0,0,8.94,6.37,13,13,0,0,0,6.1.36A10.35,10.35,0,0,1,29.78,34a.27.27,0,0,1,.22.43,8.65,8.65,0,0,1-1,1.21A14,14,0,0,1,19.09,40a18.86,18.86,0,0,1-5.58-1,5.4,5.4,0,0,0-5.84,1.32,7.33,7.33,0,0,1-1.16,1.07,1,1,0,0,1-.63,0,.27.27,0,0,1-.24-.33,1.25,1.25,0,0,1,.24-.56,5.39,5.39,0,0,1,1.31-.91c1.36-.72,1.73-2.11,2.31-3.36a.86.86,0,0,0-.27-.8,2,2,0,0,0-1.34-.29c-1.3.57-2.54,1.3-3.8,2a3,3,0,0,0-.37.25c-.87.66-2.05.71-2.41.12a1.84,1.84,0,0,1,.94-2.32,9.34,9.34,0,0,1,2.11-.62,26.77,26.77,0,0,0,2.7-.5,1.42,1.42,0,0,0,.37-2.5A9.37,9.37,0,0,0,5,31.1a2.67,2.67,0,0,0-.49,0,.27.27,0,0,1-.29-.31,1.47,1.47,0,0,1,.21-.68c.78-1,1.64-1.93,2.45-2.9A1.57,1.57,0,0,0,7.12,26.78Z" transform="translate(-0.01 0)"/><path class="cls-2" d="M34.8,21.48a9.56,9.56,0,0,1,1.05,1,15.19,15.19,0,0,1,3.81,7.41,13.42,13.42,0,0,1-1.76,9.74c-.24.42,0,1.1,0,1.65,0,.26.14.61,0,.75a.92.92,0,0,1-.75.18A10.16,10.16,0,0,1,36,41.78a.29.29,0,0,0-.39.3c.13,1.26,1.33,1.94,1.74,3s.78,2.16,1.18,3.29a.29.29,0,0,1-.24.38,1.38,1.38,0,0,1-1.6-.93c-.87-2.33-2.8-3.19-5-3.73a1.82,1.82,0,0,1-.78-.48c-.62-.63-1.13-.32-1.26.3a18,18,0,0,0-.33,3.43,5.19,5.19,0,0,1-.15,2.44.29.29,0,0,1-.43.1,1.41,1.41,0,0,1-.64-1.55c.28-1.5-.63-2.65-1.47-3.71-.67-.84-1.7-.4-1.95.72a1.71,1.71,0,0,1-.09.22.28.28,0,0,1-.5,0c-.16-.26-.29-.47-.44-.68s-.31-.52-.49-.58c-.7-.26-1.41.57-2,1-.24.18-.25.77-.22,1.17.06,1.07-.1,1.43-1,1.56a.28.28,0,0,1-.32-.31c0-.41.06-.82.06-1.23,0-.67.51-1.59-.83-1.68-.13,0-.23-.48-.36-1a.29.29,0,0,0-.45-.16,16.29,16.29,0,0,0-3,3.52c-.47.8-1.26.56-.85-.46v0c.45-1.21.91-2.42,1.35-3.64a1.13,1.13,0,0,0,0-.52c-.17-1.32.07-1.63,1.41-1.46A15.86,15.86,0,0,0,23,40.57,14.79,14.79,0,0,0,31.19,35a14.9,14.9,0,0,0,2.93-11.77c-.06-.38,0-.79-.07-1.16L34,22Z" transform="translate(-0.01 0)"/><path class="cls-3" d="M21.39,16.44a12.42,12.42,0,0,1,3.86-3.19,14.38,14.38,0,0,1,10.53-1.5,18.77,18.77,0,0,1,2.29.79c.79.29,1.59.57,2.34.93.34.17.81.52.82.8,0,.67.44.76.89.81a4.67,4.67,0,0,0,3.37-.7,6.31,6.31,0,0,1,1.11-.74c.08,0,.34-.18.39-.1l0,.23a.47.47,0,0,1-.12.34,12,12,0,0,1-1,.87c-.48.35-1,.6-1.5,1a2.19,2.19,0,0,0-.62,3,2.23,2.23,0,0,0,2.64,1.26c.91-.17,1.81-.37,2.72-.48a2,2,0,0,1,.7.08.36.36,0,0,1,.21.59c-1,1.13-2.42.56-3.69.93a.37.37,0,0,0-.08.68l.79.41a.37.37,0,0,1,.09.58l-1.83,1.92c-.17.17-.45.28-.56.48-.27.49-.79,1.21-.62,1.5s1,.58,1.55.81c.06,0,.56.05.59.22-.06.45,0,.27-.36.57a.18.18,0,0,1-.17.1,3.12,3.12,0,0,0-1.43.16c-1.09.45-1.22,1.2-.52,2.12A9.52,9.52,0,0,0,48.72,34a.82.82,0,0,1,.3.21.37.37,0,0,1-.11.59.7.7,0,0,1-.45.09c-.83-.27-1.61-.68-2.42-1-1.33-.54-1.75-.38-2.74.67a2.8,2.8,0,0,1-1.44.78c-.89.14-.85-.61-.76-1.15A13.94,13.94,0,0,0,40.47,28a15.07,15.07,0,0,0-8.54-9.75A14.43,14.43,0,0,0,23.58,17q-.82.14-1.65.3Z" transform="translate(-0.01 0)"/><path class="cls-4" d="M34.87,9.6a.6.6,0,0,1-.66.64c-5.46-.45-10.1,1.18-13.71,5.37a15.5,15.5,0,0,0-3.57,13.27.61.61,0,0,1-1,.58,11.73,11.73,0,0,1-2.69-3.15A14.17,14.17,0,0,1,11.39,17a13.39,13.39,0,0,1,2.44-6.3,1.94,1.94,0,0,1,1-.64c.75-.21,1.15-.62.91-1.38a12.56,12.56,0,0,0-.88-2c-.19-.36-.55-.65-.74-1A.67.67,0,0,1,14.27,5a.67.67,0,0,1,.64.06,1.58,1.58,0,0,1,.5.8c.29,1.34,1.3,2,2.3,2.73a.62.62,0,0,0,.93-.23c.24-.51.5-1,1.13-.83a.61.61,0,0,0,.75-.46.37.37,0,0,0,0-.18A2.41,2.41,0,0,1,21.2,4.8a1.37,1.37,0,0,0,.23-.52.61.61,0,0,1,1.12-.2l.38.59c.47.75.88,1.55,1.41,2.26s1,.34,1.47-.07c.62-.53,1.19-1.15,2.1-.41.1.09.78-.3,1-.61,1-1.41,2.17-2.69,2-4.63,0-.33.56-.77,1-1s.94-.1.83.52-.48,1.16-.63,1.76-.18,1.35-.33,2a8.28,8.28,0,0,1-.46,1.32l-.12.29a.61.61,0,0,0,.3.82,1.19,1.19,0,0,1,.25.13c.42.3.79.65,1.18,1s.49.65.72.65C34.5,8.65,34.82,9,34.87,9.6Z" transform="translate(-0.01 0)"/><path class="cls-4" d="M13.09,3.76a.63.63,0,0,1-1,.2c-.54-.53-1-1-1.43-1.48a1.23,1.23,0,0,1,.52-.68c.75-.18,2,1,2,1.82Z" transform="translate(-0.01 0)"/><path class="cls-5" d="M.17,32a2.2,2.2,0,0,1,1.55-.55.46.46,0,0,1,.27.82,2.19,2.19,0,0,1-1.52.54A.46.46,0,0,1,.17,32Z" transform="translate(-0.01 0)"/><path class="cls-3" d="M51.11,28.41c-.59.95-1.35.73-2.09.42-.19-.07-.42-.35-.4-.51a.76.76,0,0,1,.46-.51A1.69,1.69,0,0,1,51.11,28.41Z" transform="translate(-0.01 0)"/><path class="cls-4" d="M26.62,1A.59.59,0,0,1,27.8.91a1.84,1.84,0,0,1-.29.83c-.07.14-.46.34-.48.3A1.94,1.94,0,0,1,26.62,1Z" transform="translate(-0.01 0)"/><path class="cls-2" d="M40.31,43.66a.24.24,0,0,1,.32,0,11.55,11.55,0,0,1,1.13.81.46.46,0,0,1,.1.31.24.24,0,0,1-.21.27.53.53,0,0,1-.39,0,12.73,12.73,0,0,1-.95-1,.24.24,0,0,1,0-.33Z" transform="translate(-0.01 0)"/><path d="M56.42,31.13V19h4.93a5.29,5.29,0,0,1,3.36.88,3.23,3.23,0,0,1,1.09,2.69,3.24,3.24,0,0,1-1.09,2.69,5.36,5.36,0,0,1-3.36.88H57.63v4.95ZM57.63,25h3.5a4.71,4.71,0,0,0,2.66-.54,2.17,2.17,0,0,0,.74-1.87,2.19,2.19,0,0,0-.74-1.88,4.74,4.74,0,0,0-2.66-.54h-3.5Z" transform="translate(-0.01 0)"/><path d="M67.93,31.13V19h1.21v5H77V19h1.21V31.13H77V25.24H69.14v5.89Z" transform="translate(-0.01 0)"/><path d="M93.21,25.09a6.27,6.27,0,0,1-1.7,4.66,6.37,6.37,0,0,1-11-4.66,6.32,6.32,0,0,1,1.7-4.67,7.24,7.24,0,0,1,9.32,0A6.28,6.28,0,0,1,93.21,25.09Zm-6.36,5.19a5,5,0,0,0,3.76-1.38A5.18,5.18,0,0,0,92,25.09a5.2,5.2,0,0,0-1.36-3.82,5.86,5.86,0,0,0-7.53,0,5.2,5.2,0,0,0-1.36,3.82,5.18,5.18,0,0,0,1.36,3.81A5.07,5.07,0,0,0,86.85,30.28Z" transform="translate(-0.01 0)"/><path d="M98.75,31.13v-11H94.08V19h10.55v1.11H100v11Z" transform="translate(-0.01 0)"/><path d="M118.21,25.09a6.36,6.36,0,1,1-12.71,0,6.31,6.31,0,0,1,1.69-4.67,7.24,7.24,0,0,1,9.32,0A6.28,6.28,0,0,1,118.21,25.09Zm-6.36,5.19a5,5,0,0,0,3.76-1.38A5.18,5.18,0,0,0,117,25.09a5.2,5.2,0,0,0-1.36-3.82,5.84,5.84,0,0,0-7.52,0,5.21,5.21,0,0,0-1.37,3.82,5.18,5.18,0,0,0,1.37,3.81A5,5,0,0,0,111.85,30.28Z" transform="translate(-0.01 0)"/><path class="cls-3" d="M121.55,31.13v-13h5.33a14.82,14.82,0,0,1,2.81.21,4.77,4.77,0,0,1,1.73.66,3.94,3.94,0,0,1,1.34,1.51,4.85,4.85,0,0,1,.44,2.13A4.24,4.24,0,0,1,131.91,26a5.32,5.32,0,0,1-3.71,1.16h-2.49v4ZM125.71,24h1.34a3.53,3.53,0,0,0,1.74-.29,1.13,1.13,0,0,0,.44-1,1.17,1.17,0,0,0-.42-1,3.55,3.55,0,0,0-1.76-.29h-1.34Z" transform="translate(-0.01 0)"/><path class="cls-3" d="M134.85,31.13v-13h10.37v3.11H139V23h5.24v3H139v2h6.46v3.15Z" transform="translate(-0.01 0)"/><path class="cls-3" d="M155.84,26.1h3.94a5.51,5.51,0,0,1-1.8,4,7.53,7.53,0,0,1-9.32-.41,6.87,6.87,0,0,1-1.79-5,6.89,6.89,0,0,1,1.77-5,6.37,6.37,0,0,1,4.83-1.84,6.63,6.63,0,0,1,4.43,1.37,5.34,5.34,0,0,1,1.81,3.88h-4a2,2,0,0,0-2.2-2,2.07,2.07,0,0,0-1.84.89,4.9,4.9,0,0,0-.61,2.7,4.63,4.63,0,0,0,.65,2.68,2.23,2.23,0,0,0,1.91.9,2.1,2.1,0,0,0,1.54-.55A2.48,2.48,0,0,0,155.84,26.1Z" transform="translate(-0.01 0)"/><path class="cls-3" d="M161.54,31.13v-13h4.16v4.4h3.89v-4.4h4.16v13h-4.16v-5H165.7v5Z" transform="translate(-0.01 0)"/><path class="cls-3" d="M174.93,31.13l4.56-13h4.22l4.56,13h-4.13l-.48-1.71h-4.14l-.5,1.71Zm5.35-4.44h2.62l-1.3-4.49Z" transform="translate(-0.01 0)"/><path class="cls-3" d="M191.55,31.13V21.58h-3.74V18.16h11.64v3.42h-3.74v9.55Z" transform="translate(-0.01 0)"/></svg>