<svg xmlns="http://www.w3.org/2000/svg" width="10" height="6" viewBox="0 0 10 6">
    <g fill="none" fill-rule="evenodd">
        <path d="M0 0H10V10H0z" transform="matrix(1 0 0 -1 0 8)"/>
        <path fill="#0A0A0A" fill-rule="nonzero" d="M10 2.834c-.005.174-.067.344-.167.47l-4.101 4.4-.137.112c-.424.293-1.013.232-1.371-.152L.168 3.307c-.246-.313-.22-.763.069-1.053.324-.325.85-.33 1.203 0l3.185 3.623c.073.086.144.162.21.226l.118.107.092-.004.089-.078c.05-.047.102-.1.157-.16l3.289-3.74c.238-.226.598-.292.914-.162.273.116.46.363.499.645l.007.123z" transform="matrix(1 0 0 -1 0 8)"/>
    </g>
</svg>
