<?xml version="1.0" encoding="UTF-8"?>
<svg width="10px" height="10px" viewBox="0 0 10 10" version="1.1" xmlns="http://www.w3.org/2000/svg" xmlns:xlink="http://www.w3.org/1999/xlink">
    <!-- Generator: Sketch 62 (91390) - https://sketch.com -->
    <title>10icon-arrow-black</title>
    <desc>Created with Sketch.</desc>
    <g id="10icon-arrow-black" stroke="none" stroke-width="1" fill="none" fill-rule="evenodd">
        <g id="Path-2">
            <g>
                <rect id="Rectangle" x="0" y="0" width="10" height="10"></rect>
                <path d="M2.83372098,0 C3.00848411,0.00526237455 3.17824387,0.067380202 3.30494558,0.167231972 L7.70422187,4.26846723 L7.81561821,4.4049996 C8.10893928,4.82948676 8.0479535,5.41846452 7.66361664,5.77643626 L3.30697565,9.83243737 C2.99377937,10.0781022 2.54384942,10.0525291 2.25378492,9.7630315 C1.92907967,9.43896088 1.92492583,8.91240128 2.25326296,8.55977419 L5.87731766,5.37478283 C5.96324274,5.3021639 6.03872729,5.23146071 6.10327357,5.16496553 L6.20960928,5.04674991 L6.20640826,4.95496949 L6.12810143,4.86614127 C6.08149281,4.81675581 6.02809224,4.76429807 5.96762759,4.70940681 L2.22735757,1.42028979 C2.00163673,1.18222024 1.936357,0.821660582 2.06598842,0.506422605 C2.18234971,0.233028798 2.42875963,0.0452592133 2.71132926,0.00704899607 L2.83372098,0 Z" id="Path" fill="#0A0A0A" fill-rule="nonzero" transform="translate(5.000000, 5.000000) rotate(90.000000) translate(-5.000000, -5.000000) "></path>
            </g>
        </g>
    </g>
</svg>