<?xml version="1.0" encoding="UTF-8"?>
<svg width="32px" height="32px" viewBox="0 0 32 32" version="1.1" xmlns="http://www.w3.org/2000/svg" xmlns:xlink="http://www.w3.org/1999/xlink">
    <!-- Generator: Sketch 62 (91390) - https://sketch.com -->
    <title>32icon-quote-red</title>
    <desc>Created with Sketch.</desc>
    <g id="32icon-quote-red" stroke="none" stroke-width="1" fill="none" fill-rule="evenodd">
        <g id="Fill-26">
            <g>
                <rect id="Rectangle" x="0" y="0" width="32" height="32"></rect>
                <path d="M30.1130362,18.5119537 C29.3163739,19.5160462 28.433223,20.4587459 27.6714784,21.4865356 C27.6295771,21.5432622 27.7171401,21.5978917 27.7654878,21.5572604 C28.3338416,21.0786493 28.7958306,20.4786684 29.2545963,19.9023323 C29.4726981,19.6290275 29.6902626,19.3549363 29.8954717,19.0722994 C29.9384474,19.0123747 29.9841091,18.9521354 30.0297708,18.8914768 C29.8132806,19.8079103 29.4931116,20.7020098 29.0837679,21.5559497 C28.5804148,22.1240022 28.066855,22.6839284 27.582841,23.2666606 C27.5452373,23.3118008 27.6021801,23.3674788 27.648379,23.3304125 C28.0297885,23.0244978 28.3741314,22.6706118 28.7002096,22.2985859 C28.4471901,22.7530279 28.1699967,23.1941009 27.8686295,23.6181349 C26.617499,25.3776035 24.9247931,26.7933046 22.9833652,27.7611172 C23.0392336,27.6915983 23.0934904,27.6205589 23.1407637,27.5449584 C23.212748,27.4309809 23.0311756,27.3289569 22.9581169,27.4405227 C22.8474545,27.6087103 22.7034858,27.7518375 22.578319,27.9096445 C22.5605916,27.9323456 22.5417897,27.9557807 22.523525,27.9798974 C22.0685196,28.1859901 21.6016959,28.3685428 21.1246655,28.5251963 C21.1074752,28.5307012 21.0908221,28.5358915 21.0736318,28.5413964 C21.076855,28.5367828 21.079541,28.5320119 21.082227,28.527608 C21.2014846,28.3418048 21.3309489,28.1657006 21.4201235,27.9633303 C21.4716944,27.8462596 21.2997915,27.7416666 21.2406999,27.8609917 C21.1327234,28.0786709 20.9747877,28.2609615 20.8399514,28.4620736 C20.8023476,28.5176992 20.7577603,28.5826569 20.721231,28.6513894 C20.3704417,28.7567688 20.0137433,28.8512957 19.6532845,28.9345506 C19.7768396,28.6930169 19.9465937,28.4778542 20.0782068,28.2259923 C20.13891,28.1091837 19.9627096,28.0065306 19.8966344,28.1226052 C19.7365499,28.4059236 19.4491498,28.6858343 19.332041,29.0056424 C18.9742682,29.0810856 18.6132722,29.1453618 18.2501274,29.1982612 C18.3742197,28.8532355 18.6390576,28.4908563 18.8351343,28.2218505 C18.908193,28.1215042 18.7427365,28.0332162 18.6686034,28.1267469 C18.4693035,28.3782419 18.2855823,28.6470904 18.1335557,28.928102 C18.0921916,29.0042793 18.027728,29.1176801 17.9852895,29.2346984 C17.6038801,29.2842424 17.220859,29.321099 16.8367635,29.3449535 C16.8743673,29.2194944 16.9194918,29.097076 16.9898645,28.9700441 C17.1048246,28.7630601 17.2391237,28.5666141 17.3863155,28.3801817 C17.4545394,28.2944102 17.3019757,28.1784929 17.2316029,28.2635304 C17.0446586,28.4893883 16.8711441,28.7299783 16.7320102,28.9868209 C16.673993,29.0939304 16.6025459,29.2256808 16.5654793,29.3595283 C16.2657237,29.3733168 15.9654309,29.3791887 15.6656753,29.3767246 C15.6678241,29.325765 15.659229,29.2733375 15.6667497,29.2209099 C15.6828656,29.1042062 15.7322877,28.9875025 15.7774122,28.879292 C15.8703472,28.6540632 15.9896048,28.4413122 16.0970441,28.2228991 C16.1518381,28.1125391 15.9879932,28.0154957 15.9267528,28.1256984 C15.859066,28.2485886 15.3653825,29.0477941 15.4094326,29.3725304 C15.1386856,29.3660294 14.8679386,29.3527128 14.598266,29.3325282 C14.6632668,28.8661851 14.9141375,28.4859805 15.1300905,28.0656164 C15.1870333,27.9555186 15.0199652,27.8583703 14.9597992,27.9684157 C14.8083098,28.2477497 14.6294234,28.512037 14.4929755,28.7996021 C14.4365699,28.9193991 14.322147,29.1400142 14.3350397,29.3105086 C14.0325982,29.2826696 13.731231,29.2460227 13.4325497,29.2002535 C13.4459796,29.1733057 13.4422193,29.1337753 13.4105247,29.119148 C13.4089131,29.118414 13.4078387,29.1179422 13.4062271,29.1172606 C13.482509,28.73239 13.7672231,28.4066052 13.9455723,28.0640436 C14.0014408,27.9576681 13.8392074,27.8637179 13.7811902,27.9699886 C13.5775928,28.3409135 13.2015553,28.7193355 13.1596539,29.1557425 C12.8566752,29.1035246 12.5569195,29.0423941 12.2603871,28.9710402 C12.2362133,28.9652732 12.2125766,28.958877 12.1884028,28.9530051 C12.2996025,28.7457066 12.3603057,28.5053787 12.4666705,28.2934666 C12.5692751,28.0879506 12.6767144,27.8851084 12.760517,27.6712564 C12.7986579,27.5744227 12.6417966,27.535469 12.6025812,27.6287901 C12.4967535,27.8809666 12.3506361,28.1116478 12.2227834,28.3530242 C12.1325344,28.5224701 12.0207975,28.7136734 12.0089792,28.9077077 C11.7339346,28.835882 11.461576,28.7550911 11.1919034,28.6648633 C11.2117797,28.5913599 11.2144657,28.5100972 11.2381023,28.4377996 C11.2778548,28.3126026 11.341244,28.1937494 11.4024844,28.0775699 C11.5523622,27.7942514 11.7333974,27.5172767 11.7994726,27.2010337 C11.8220348,27.0932951 11.6544295,27.0467394 11.6297185,27.1553169 C11.5351719,27.568446 11.2348791,27.8889356 11.0608275,28.2689305 C11.0318189,28.3332066 10.9770248,28.4765436 10.977562,28.5904686 C10.6563186,28.4760717 10.3393727,28.3478863 10.0299475,28.2058077 C10.0514354,28.1315178 10.0675513,28.0551833 10.0927995,27.9806838 C10.1486679,27.8152749 10.2270986,27.6572058 10.3066037,27.5015484 C10.4537955,27.2123056 10.6235496,26.9344396 10.7691298,26.644358 C10.8180147,26.547 10.6718973,26.461281 10.6187148,26.5585865 C10.44144,26.8815402 10.2244126,27.1819501 10.0498238,27.5061096 C9.96064918,27.6718331 9.8376312,27.8884113 9.79949025,28.0969157 C9.49812305,27.9500661 9.2037394,27.7898475 8.9184881,27.6148968 C8.95662904,27.5340011 8.96683578,27.446814 8.9936956,27.356429 C9.04419206,27.1892899 9.11778797,27.0301199 9.19944183,26.8757732 C9.33642692,26.6181966 9.49812305,26.3744609 9.63994291,26.1195582 C9.69312536,26.0246119 9.54808232,25.9415667 9.49167669,26.0348353 C9.3101043,26.3330432 9.0989861,26.614317 8.93460399,26.9221716 C8.84811536,27.0845397 8.73100654,27.2927819 8.71972542,27.4889658 C8.54245059,27.3745165 8.36893614,27.2549816 8.19971927,27.1289458 C8.13847887,27.0829669 8.07777568,27.0360442 8.01707248,26.9886497 C8.03641155,26.9343347 8.04876707,26.8777654 8.06649455,26.8175262 C8.11269344,26.6638086 8.18038019,26.5175357 8.25666209,26.3761911 C8.38236605,26.1435176 8.53331825,25.9247374 8.67298933,25.7001378 C8.73100654,25.6071313 8.58488911,25.5256589 8.52472311,25.6154149 C8.35228305,25.8704749 8.1648015,26.1175135 8.01814687,26.38783 C7.94938573,26.5142852 7.85913673,26.6758669 7.82583055,26.834303 C7.61847272,26.6626552 7.41863565,26.4828287 7.22631933,26.2954002 C7.25371634,26.2167064 7.27627859,26.1358632 7.30958477,26.0587947 C7.37834592,25.9010926 7.45946258,25.748476 7.53037251,25.5916128 C7.67648994,25.2685018 7.84946719,24.9581307 8.02298164,24.6484936 C8.07240371,24.5605726 7.9381046,24.4837138 7.88545935,24.5699571 C7.6673576,24.9270936 7.46161136,25.2859602 7.27090663,25.6576191 C7.20107109,25.7947695 7.09631779,25.9513706 7.04259815,26.1115368 C6.77561152,25.8381795 6.52474078,25.5502999 6.28729996,25.2516725 C6.3109366,25.1903323 6.33403605,25.1290969 6.36250746,25.0713742 C6.4463101,24.8997264 6.54676584,24.736834 6.65313073,24.5779785 C6.88197641,24.2371994 7.13069836,23.90937 7.32570067,23.5480393 C7.37404835,23.4584931 7.23867484,23.3803236 7.18602959,23.4684543 C6.96040709,23.8460899 6.66924662,24.1773796 6.42106187,24.5402307 C6.32973848,24.6740258 6.2056461,24.8480853 6.11647149,25.0311098 C5.96605649,24.8326191 5.82208785,24.6297769 5.68349117,24.4233173 C5.81725308,24.1550455 5.93060153,23.8759736 6.07457017,23.6114766 C6.24378705,23.3005288 6.4763931,23.0317328 6.58651837,22.6917401 C6.62036175,22.5880909 6.45597964,22.5454148 6.42106187,22.6470719 C6.28891155,23.0263328 5.99989987,23.3450923 5.81134392,23.6988209 C5.72915286,23.8528007 5.60022572,24.0312116 5.54650607,24.2142886 C5.51910906,24.1716126 5.49117484,24.1291463 5.46431502,24.0862081 C5.30261889,23.8286316 5.1505923,23.5663365 5.00554926,23.300424 C5.14736912,23.0099754 5.29348655,22.7235637 5.46001745,22.4437578 C5.67221004,22.0869883 5.87258431,21.7259198 5.98485837,21.3256355 C6.0101066,21.2350931 5.86882394,21.1975025 5.84088972,21.2869439 C5.70551622,21.7245043 5.44175277,22.1053904 5.20646073,22.4961329 C5.0904263,22.6885945 4.97224309,22.8838347 4.89381241,23.0909759 C4.73533946,22.7897272 4.58707324,22.4838649 4.44686497,22.1741229 C4.51562612,22.0650212 4.57632931,21.9501524 4.64079289,21.839373 C4.77294321,21.6118375 4.9104655,21.3873427 5.04261582,21.1598071 C5.28811459,20.7364547 5.51910906,20.3093798 5.68295397,19.8486465 C5.69745827,19.8072812 5.62977152,19.77918 5.60989525,19.818658 C5.38373555,20.2614086 5.12856725,20.6896893 4.8648038,21.1122553 C4.70310767,21.3722436 4.49145228,21.6516824 4.34426045,21.9434941 C4.140663,21.4757355 3.95479304,21.0000604 3.78342738,20.5192473 C3.7947085,20.5153153 3.80545243,20.5077133 3.81404757,20.4958646 C4.21855649,19.9218878 4.60211474,19.3335983 5.05604573,18.7923887 C5.11997211,18.715792 5.00984684,18.6053272 4.94323448,18.6822908 C4.66765271,18.9998445 4.41946795,19.3238992 4.17396918,19.6635773 C4.02946334,19.8637457 3.77483223,20.0775452 3.71735221,20.3312421 C3.71144305,20.3145702 3.70553389,20.2979506 3.69962473,20.2812262 C3.58197871,19.9404996 3.46970466,19.596837 3.36387696,19.2507628 C3.38536482,19.25999 3.41598501,19.2525977 3.42995212,19.2329374 C3.52127551,19.0997714 3.58090432,18.9484131 3.67545089,18.8154568 C3.78396457,18.6630499 3.91880088,18.5300937 4.02462857,18.3762188 C4.24004434,18.0630166 4.41570758,17.7230764 4.62252821,17.404212 C4.66496672,17.3389397 4.56128781,17.2818461 4.51723771,17.3442349 C4.2615322,17.7083967 4.03805849,18.0979334 3.75119559,18.4400231 C3.57982993,18.6446479 3.33057078,18.8796806 3.33647994,19.159801 C3.21668514,18.7618234 3.10763426,18.3605954 3.01255049,17.956379 C3.12213856,17.8037624 3.19466008,17.627868 3.30424816,17.4741504 C3.43747287,17.2872462 3.59970619,17.1192683 3.75871634,16.9531778 C4.02570297,16.6740011 4.30397072,16.3973934 4.4731876,16.0478065 C4.51347733,15.9641321 4.38831056,15.8902617 4.34426045,15.9744079 C4.13797702,16.371599 3.78611336,16.6629389 3.47615101,16.9804926 C3.29242983,17.1684453 3.04961704,17.4175811 2.95238449,17.6877402 C2.88308615,17.3701341 2.82292015,17.0508503 2.77510967,16.7299413 C2.79176276,16.739955 2.81378781,16.7406365 2.82882931,16.7238073 C3.0566006,16.4706346 3.22689187,16.1767258 3.43102651,15.9058851 C3.66685575,15.5931547 3.9150405,15.291906 4.19008508,15.0110517 C4.25239986,14.9471949 4.15516731,14.8520389 4.09016654,14.9140607 C3.81888234,15.1737868 3.56263964,15.4501324 3.33003358,15.7436742 C3.10817146,16.0232704 2.87717699,16.3124083 2.76436574,16.6518767 C2.7095717,16.2741886 2.67035636,15.8944034 2.65101729,15.5127833 C2.6488685,15.4659655 2.64779411,15.4193574 2.64618252,15.3726445 C2.71279488,15.2807914 2.76597733,15.1797111 2.82721772,15.0838211 C2.94217776,14.9043616 3.07325369,14.7366983 3.21077598,14.5733865 C3.45143998,14.2873942 3.71144305,14.0187554 3.97413211,13.7520565 C4.0359097,13.6893007 3.94082593,13.5960845 3.87636236,13.6565335 C3.57123478,13.9428403 3.26288403,14.2297239 2.99428581,14.5496892 C2.88147456,14.6838513 2.74448947,14.8376213 2.63973617,15.0032924 C2.64027336,14.6810727 2.65638925,14.3608452 2.68915824,14.0433964 C2.82238295,13.8846982 2.94969851,13.719866 3.08346042,13.5635794 C3.27738833,13.3369876 3.4627211,13.1063588 3.60078059,12.8424909 C3.63569836,12.7759079 3.53470543,12.7171891 3.49763887,12.7835623 C3.33003358,13.0847062 3.09903912,13.3378264 2.86858185,13.5934107 C2.82077136,13.6462053 2.77188649,13.6992095 2.72407601,13.753105 C2.85300315,12.8067353 3.12751053,11.8855833 3.55243291,11.0046956 C4.18739909,9.68850195 5.0748476,8.50238106 6.09713242,7.44832517 C7.46752053,6.03545513 9.07803544,4.81415536 10.867974,3.9586426 C10.9071893,3.94527357 10.9464046,3.9320094 10.9850828,3.91864038 C10.9743389,3.93636089 10.9630577,3.95366198 10.9523138,3.97143492 C10.7868573,4.24468731 10.5859458,4.52858249 10.4833413,4.83072246 C10.4672254,4.87832668 10.5349122,4.91539296 10.5692927,4.87953251 C10.7830969,4.65671542 10.9152472,4.35557158 11.0699598,4.09243771 C11.1199191,4.00740022 11.1698784,3.9226773 11.220912,3.83821652 C11.3659551,3.78877734 11.5109981,3.73918088 11.6555039,3.68895528 C11.7801335,3.6455977 11.9053003,3.60344595 12.030467,3.56192333 C11.7156699,3.88456247 11.3809966,4.27824094 11.2402511,4.67480293 C11.2246724,4.71852751 11.28645,4.74898791 11.3176074,4.71863236 C11.4868243,4.55416714 11.6012471,4.33659281 11.7371578,4.14591381 C11.9053003,3.90962284 12.0884843,3.68491836 12.2915445,3.47672856 C12.5542336,3.39289691 12.8185342,3.31362645 13.0839093,3.23938904 C12.9678748,3.40416883 12.8518404,3.5685292 12.7422523,3.73755562 C12.5896885,3.97431844 12.3920002,4.24515916 12.36138,4.52947376 C12.3554709,4.58426055 12.4312156,4.59028972 12.4575382,4.55479627 C12.6407222,4.30723338 12.7529962,3.99565645 12.9200643,3.7335187 C13.0355616,3.55143782 13.154282,3.37098219 13.2697792,3.18842946 C13.5389146,3.11576488 13.8101988,3.04802849 14.0825574,2.9871601 C14.2447907,2.95098509 14.4075613,2.9176936 14.5703318,2.88602736 C14.2711134,3.3932639 13.8999106,3.86259533 13.6651558,4.40343793 C13.6463539,4.44648095 13.6936272,4.48700745 13.7328425,4.45429266 C13.9659858,4.25858061 14.0702019,3.97756894 14.2130962,3.72025453 C14.3769411,3.42487771 14.5757038,3.15125833 14.7373999,2.85409898 C14.9716175,2.81110839 15.2063724,2.77357026 15.4422016,2.74111761 C15.2805055,2.95413074 15.1408344,3.18428769 15.0129817,3.41638445 C14.8158306,3.77388791 14.5762409,4.17993929 14.4602065,4.56910899 C14.4467766,4.61445882 14.5090914,4.65142024 14.5429348,4.61592679 C14.8212025,4.32343349 14.9442205,3.92807734 15.1209581,3.57665547 C15.2686872,3.28253692 15.4384412,2.98102608 15.6431131,2.71401257 C15.924604,2.67914825 16.2071693,2.65314418 16.4897346,2.63537124 C16.3312617,2.92173052 16.1701028,3.20662182 16.0127042,3.49381994 C15.8402642,3.80938136 15.5619964,4.17097418 15.5141859,4.52947376 C15.506128,4.58992273 15.5920794,4.61278114 15.6307576,4.5765537 C15.8988186,4.32338106 16.04225,3.87114102 16.2087809,3.54803003 C16.3667167,3.24237741 16.5187433,2.93410342 16.6696955,2.62525272 C16.9479632,2.61156913 17.2267682,2.60648366 17.5055731,2.61162156 C17.3825551,2.82054535 17.2761902,3.03822453 17.1666022,3.25595615 C17.0903203,3.4075242 17.0113524,3.55835826 16.9232522,3.70368742 C16.8330032,3.85190011 16.7132084,3.98553793 16.6476704,4.14559924 C16.6256453,4.19933748 16.6981669,4.24285235 16.7432914,4.21732013 C17.0274683,4.05710154 17.1832552,3.66599202 17.313794,3.3890697 C17.436812,3.1289242 17.551772,2.86652431 17.6941291,2.61733616 C17.9589669,2.62645856 18.2232675,2.64365479 18.4875682,2.67165111 C18.3317812,2.89976338 18.1894242,3.13636891 18.0680178,3.38429879 C17.9240491,3.67784064 17.7172285,4.05867436 17.7730969,4.3898592 C17.7833037,4.45172371 17.8676435,4.44768678 17.8977265,4.40579717 C17.9911987,4.2747283 18.0218189,4.11938547 18.0723153,3.96870869 C18.1405393,3.76455581 18.2205816,3.56438742 18.3140537,3.3700385 C18.4263278,3.13736503 18.5557921,2.9137091 18.6965376,2.69681633 C18.8351343,2.7142747 18.973731,2.73346319 19.1117904,2.75658374 C19.2697262,2.78290237 19.4260504,2.81346763 19.5818373,2.84681155 C19.4367943,3.06947135 19.2842305,3.28751753 19.1579893,3.52144926 C19.0715007,3.68203485 18.9866237,3.84361655 18.9183997,4.01264298 C18.8458782,4.19299375 18.7362901,4.38770967 18.7239346,4.58190131 C18.7201742,4.63951919 18.7969933,4.68539329 18.8469526,4.65084354 C18.9936072,4.54871467 19.0392689,4.39541652 19.0994349,4.23425423 C19.176254,4.02968193 19.2659658,3.8347563 19.3653472,3.63962096 C19.4953487,3.38377452 19.6522101,3.14302721 19.7961787,2.89520218 C20.1029179,2.9675522 20.4053595,3.0524324 20.7035035,3.15047192 C20.6406515,3.25464546 20.565444,3.35090244 20.4966829,3.45245461 C20.3736649,3.63401121 20.2812671,3.82720673 20.1759766,4.01830515 C20.029322,4.28495167 19.7182852,4.64439495 19.8058482,4.9687642 C19.8246501,5.03676273 19.9084528,5.03503262 19.9460565,4.986642 C20.0615537,4.83790504 20.0991575,4.62462976 20.1872577,4.45680918 C20.2715976,4.2964333 20.3666813,4.14444584 20.442426,3.97956119 C20.5643696,3.71254768 20.7480908,3.47216736 20.8748691,3.20908592 C21.1536741,3.3059196 21.4287187,3.41302909 21.6994657,3.53062408 C21.4340906,3.88136439 21.1783851,4.2469417 20.9753249,4.63558712 C20.9049521,4.77153176 20.8576789,4.91355799 20.8071824,5.0576289 C20.7593719,5.19456966 20.6712717,5.32894147 20.6589162,5.47316966 C20.6540814,5.52627877 20.7137102,5.56030425 20.7609835,5.54918961 C21.0376397,5.48402216 21.076855,5.01201693 21.1703272,4.80104847 C21.3551228,4.38356789 21.615663,3.98627192 21.8751289,3.60931783 C22.1770333,3.74631102 22.4730285,3.89557226 22.7631146,4.05621027 C22.5756331,4.31787617 22.3988954,4.5868295 22.2329017,4.86207414 C22.0712056,5.12908765 21.8681454,5.4108333 21.7966982,5.71627621 C21.7811195,5.7840126 21.8665338,5.8390091 21.9197162,5.78600485 C22.1448015,5.56171979 22.2758774,5.24683993 22.4327388,4.97626134 C22.5944349,4.69792348 22.7631146,4.42435652 22.944687,4.15812943 C23.1665491,4.2855808 23.3841137,4.41969047 23.5984551,4.55967203 C23.3792789,4.86794602 23.1869626,5.19477937 23.007539,5.52580692 C22.7991068,5.90915716 22.5724099,6.29507636 22.4638962,6.71837639 C22.4493919,6.77499815 22.5229878,6.79995366 22.5557568,6.75622908 C22.8238178,6.39652367 22.9946463,5.97553044 23.2025413,5.58122284 C23.3696094,5.26461287 23.5441982,4.95198739 23.7161011,4.63799879 C24.2694134,5.00782273 24.7953287,5.41738675 25.291161,5.85772574 C25.2750451,5.86018983 25.2583921,5.8683161 25.2433506,5.88420165 C24.9253303,6.22099623 24.6739223,6.60943195 24.4520602,7.01155125 C24.2318097,7.41036762 23.9589139,7.84541143 23.8482514,8.28789995 C23.8342843,8.34462656 23.9094918,8.395324 23.9535419,8.34771979 C24.2479256,8.02749231 24.4042497,7.57787365 24.6008636,7.19772148 C24.8189654,6.77709525 25.050497,6.36401858 25.3679801,6.00583356 C25.3846332,5.98701207 25.3910796,5.96630319 25.3905424,5.94643315 C25.6113301,6.14586755 25.8256715,6.35138355 26.0335665,6.56203744 C26.0303433,6.56649378 26.026583,6.57100255 26.0233598,6.57645502 C25.7644311,7.03802717 25.471659,7.47925742 25.1783498,7.9203304 C25.0354555,8.13502122 24.8936357,8.35013145 24.7582622,8.56917376 C24.632021,8.77269751 24.4783828,8.99357477 24.4332583,9.2299706 C24.4209028,9.29419434 24.4966475,9.34536363 24.5487556,9.29571474 C24.7147493,9.13853695 24.8221886,8.92070048 24.940909,8.7289205 C25.0854148,8.49650917 25.2326066,8.26593281 25.3797985,8.03530402 C25.657529,7.60031264 25.9341852,7.16516397 26.1796839,6.71203266 C26.2849744,6.82108196 26.3886534,6.93117982 26.4896463,7.04269322 C26.620185,7.18629228 26.748575,7.33240786 26.8748161,7.48083025 C26.4601005,8.44780398 25.3830216,9.10524545 25.1993004,10.1774937 C25.1890937,10.2373135 25.2621524,10.2690322 25.299219,10.2185445 C25.6489339,9.73836055 25.9196809,9.21041512 26.2860488,8.73783319 C26.5551843,8.3905531 26.8329148,8.04495069 27.0150244,7.64823142 C27.3717228,8.07986744 27.708545,8.53058708 28.0211933,8.99771655 C27.6687925,9.48335294 27.3153172,9.96836021 26.9801066,10.4654258 C26.6551028,10.9473398 26.2688586,11.4519026 26.084063,12.004856 C26.0593519,12.0800371 26.1705516,12.1477735 26.2242712,12.0845458 C26.6078295,11.6359233 26.8801881,11.0840709 27.2014316,10.5918286 C27.5103195,10.1185651 27.8251166,9.64923371 28.1415253,9.18100326 C28.2999983,9.42505351 28.4520249,9.67335038 28.5965307,9.92557933 C28.2930147,10.4061827 27.9825152,10.882487 27.6693297,11.3571136 C27.3486234,11.8440082 26.9602304,12.3124484 26.6980785,12.8323724 C26.6653095,12.8971204 26.7469634,12.9664296 26.803369,12.9118001 C27.2180847,12.5111488 27.5232122,11.9857199 27.8304886,11.5056408 C28.1334674,11.0322725 28.4074376,10.5430186 28.6642175,10.0444326 C28.8549222,10.3853689 29.0327342,10.733383 29.1955047,11.0874263 C28.8124837,11.4426229 28.5712825,11.9232787 28.3225605,12.3715867 C27.9916475,12.9685792 27.6150728,13.5441812 27.3024245,14.1508204 C27.2766391,14.2015703 27.339491,14.2507998 27.3835412,14.2116364 C27.8637948,13.7847713 28.1528064,13.1193084 28.4541736,12.5676133 C28.7002096,12.1175228 28.9107906,11.6279543 29.2707122,11.2530449 C29.4173669,11.5833909 29.5505916,11.9189796 29.6703864,12.2589199 C29.6376174,12.2544111 29.6021624,12.2640578 29.5774514,12.295724 C29.1675705,12.8208383 28.7738055,13.3574867 28.3999168,13.9071896 C28.0539623,14.415265 27.6585857,14.9455172 27.4426328,15.5215387 C27.4195333,15.5826692 27.5135427,15.6370366 27.5565184,15.5863392 C27.9583413,15.1108737 28.250039,14.5344328 28.5900843,14.0156622 C28.9489316,13.467637 29.3271179,12.9320896 29.72142,12.4073947 C29.8637771,12.8283355 29.9846463,13.2556724 30.0808045,13.6884094 C30.0426635,13.6671238 29.9889439,13.6684345 29.9567121,13.7133125 C29.4904256,14.3647773 29.010172,15.0074866 28.5503318,15.6633028 C28.3564039,15.9395436 28.2070633,16.2441476 28.0453672,16.5385808 C27.886357,16.8264604 27.6816852,17.1075769 27.5592044,17.4113946 C27.5409397,17.4558532 27.6054033,17.505869 27.6451558,17.4761426 C27.8933406,17.2909161 28.0485903,16.9927082 28.1936334,16.7288928 C28.3617759,16.4227159 28.5121909,16.1037991 28.7061188,15.8118825 C29.1557522,15.133103 29.6370802,14.4717819 30.1055155,13.8051132 C30.1936157,14.2213355 30.2607653,14.6420666 30.3021294,15.0664152 C30.3085757,15.130901 30.3134105,15.1953869 30.3182453,15.2598728 C30.2817159,15.2240648 30.2215499,15.2114822 30.1742766,15.2578806 C29.6660888,15.7551034 29.2524475,16.3324356 28.8586826,16.9178416 C28.4541736,17.5186089 28.0050774,18.0978809 27.6220564,18.7104444 C27.5876758,18.7658603 27.6623461,18.8101616 27.7080078,18.7749827 C28.2580969,18.3512633 28.6196301,17.7130103 28.9945933,17.1463733 C29.398565,16.5351205 29.7998507,15.925493 30.3214685,15.4012175 C30.3241544,15.398334 30.3263032,15.3952932 30.328452,15.3923048 C30.3998991,16.440017 30.3214685,17.4880961 30.1130362,18.5119537 Z M28.3230977,8.32292156 C26.6008459,5.89814738 24.2914385,3.84969815 21.4561157,2.75065942 C19.873535,2.13694253 18.1792174,1.90028457 16.4822139,2.03795931 C15.6280716,2.10726853 14.7900451,2.26046183 13.9670602,2.47331769 C13.1403149,2.60894776 12.3264623,2.81105596 11.5314116,3.11230466 C9.99449256,3.69514173 8.58327752,4.55767978 7.31388235,5.57954516 C4.95344121,7.47951956 2.82614333,10.0355723 2.19654911,13.0250961 C1.84898301,14.6752532 1.99778643,16.3789913 2.36684038,18.0126337 C2.71655526,19.560662 3.2376358,21.0913367 3.89677582,22.5403818 C5.12212089,25.2363637 7.05549086,27.5932966 9.85052391,28.8389752 C12.8013439,30.1542251 16.0873745,30.2278859 19.2342712,29.6739888 C22.1641406,29.158259 24.9226443,27.7678279 26.9887018,25.6672133 C29.1874468,23.4316501 30.6271332,20.4419167 30.9419303,17.3562932 C31.269083,14.1426942 30.1893181,10.9501709 28.3230977,8.32292156 Z M30.2011365,16.6672904 C29.9336126,16.8574451 29.7558006,17.1382995 29.543608,17.3813012 C29.278233,17.6842276 29.0031884,17.9771403 28.7754171,18.3076436 C28.3080562,18.9856891 27.7493719,19.6136138 27.3470118,20.332081 C27.31478,20.3904853 27.3953595,20.4574352 27.4442443,20.4053223 C27.9599529,19.8581883 28.4052888,19.2388617 28.8339715,18.6257215 C29.0628172,18.2988882 29.3013324,17.9904045 29.5575751,17.6833887 C29.7880324,17.406781 30.0034482,17.039893 30.2946086,16.8228954 C30.3870064,16.7539531 30.298369,16.5982957 30.2011365,16.6672904 Z M24.3263562,5.22571162 C24.123296,5.62007165 23.8901527,5.99697331 23.6548607,6.3735604 C23.4362217,6.72367158 23.1901858,7.06109529 23.0564239,7.45288637 C23.0413824,7.49682065 23.1058459,7.53378208 23.1375405,7.49870805 C23.4158083,7.19069619 23.6177941,6.82674414 23.8321355,6.47464071 C24.06313,6.09464583 24.2742482,5.70489943 24.4585066,5.30120729 C24.4977219,5.21506883 24.3709435,5.13847218 24.3263562,5.22571162 Z M27.5323446,8.40114346 C27.593585,8.30389036 27.4394096,8.21775189 27.3765576,8.31222634 C27.0649837,8.77867425 26.7174176,9.2208482 26.3972485,9.68126694 C26.1216667,10.0770425 25.7144718,10.4776939 25.6167021,10.9606564 C25.605421,11.0179073 25.6833144,11.0802961 25.7289761,11.0244083 C26.043236,10.6418445 26.3231154,10.2064337 26.5938624,9.79330462 C26.9006016,9.32528388 27.2347377,8.8748788 27.5323446,8.40114346 L27.5323446,8.40114346 Z" id="Fill-24" fill="#D30000"></path>
                <path d="M21.3294829,14.4993478 C21.0322456,14.8866545 20.684912,15.2533442 20.3596208,15.6082526 C20.2734554,15.7017659 20.1766028,15.7989607 20.0797501,15.9013098 C20.0570399,15.8887923 20.0316578,15.8784838 20.0036039,15.8718568 C20.1719271,15.6200338 20.3021772,15.3122501 20.4437824,15.0898801 C20.7056185,14.6804836 21.0516161,14.3123213 21.3228034,13.8999795 C21.3468496,14.0958419 21.3475175,14.2968585 21.3294829,14.4993478 Z M20.9847544,15.8762748 C20.7490351,16.1627051 20.4725042,16.425573 20.2073284,16.6980131 C20.212672,16.5728379 20.21334,16.44619 20.212672,16.3195422 C20.2320425,16.255482 20.2367182,16.1870038 20.2266989,16.1229435 C20.3496016,15.9800966 20.4738401,15.8379859 20.5987466,15.6966116 C20.8211736,15.4433159 21.0830097,15.1428955 21.2847303,14.8299575 C21.2212084,15.1863386 21.1110636,15.5405108 20.9847544,15.8762748 Z M20.6501787,16.6766596 C20.4411106,17.1412805 20.1806104,17.5624581 19.8760257,17.9490286 C19.9461603,17.798082 20.0089475,17.6427175 20.0657232,17.4866167 C20.110409,17.3636505 20.1411347,17.2384753 20.1632438,17.1125638 C20.2280348,17.0345134 20.2928259,16.9571993 20.3602888,16.8813579 C20.4891361,16.7370383 20.6207889,16.5964003 20.7497031,16.452817 C20.7163056,16.5293947 20.6829082,16.6037635 20.6501787,16.6766596 Z M19.2975817,15.8438765 C19.6449153,15.5000129 19.9301295,15.0361284 20.2026528,14.6480853 C20.5219324,14.1930367 20.8278531,13.7276796 21.1391174,13.2660041 C21.1711122,13.3263827 21.1999008,13.3919156 21.2246149,13.4640754 C21.2419816,13.5141454 21.2560085,13.5642155 21.2693675,13.6150219 C20.9647827,13.9655124 20.6789005,14.3550282 20.409049,14.7276084 C20.252749,14.9440878 20.1098078,15.1723485 19.9722103,15.4035544 C19.8813692,15.5552373 19.8092307,15.7128107 19.7284089,15.8659662 C19.5807921,15.8667026 19.4358472,15.8622846 19.2975817,15.8438765 Z M18.9201905,15.7466817 C19.1987253,15.4285894 19.4138049,14.9757498 19.6342281,14.6598665 C20.0349975,14.0862697 20.3455939,13.4257865 20.7937877,12.8934238 C20.8919763,12.9515934 20.9801455,13.0311165 21.0556238,13.1334656 C20.7149029,13.5782057 20.3863388,14.0317816 20.0543681,14.4846213 C19.7364243,14.9175802 19.3403305,15.3291856 19.0464329,15.7923338 C19.0036841,15.7790799 18.9615365,15.7636171 18.9201905,15.7466817 Z M18.4866915,15.4212262 C18.8814494,14.9809041 19.1907099,14.4352875 19.5473947,13.9574129 C19.7036948,13.7482967 19.8613308,13.5406531 20.0109514,13.3256463 C20.1171553,13.1724908 20.2266989,12.9486481 20.3562811,12.7653033 C20.4684965,12.7726666 20.5753016,12.796229 20.6762287,12.8367268 C20.2841426,13.2321331 19.9995962,13.723998 19.6950114,14.202609 C19.385751,14.6900558 19.0583891,15.1686668 18.7411801,15.6516958 C18.650339,15.5920535 18.5655095,15.5162121 18.4866915,15.4212262 Z M18.3731402,15.2658617 C18.3504299,15.2283091 18.3290555,15.1907566 18.3102861,15.1524677 C18.5287723,14.8734007 18.6830685,14.4802033 18.8567353,14.1996637 C19.1412816,13.7379881 19.3289753,13.2247699 19.7210615,12.8595529 C19.8619987,12.8131644 20.004873,12.7807661 20.1438732,12.7689849 C19.9147667,13.070878 19.6956794,13.381607 19.4659049,13.6835001 C19.0931893,14.173156 18.6189454,14.6952101 18.3965184,15.2997326 C18.3891709,15.2879514 18.3811555,15.2776429 18.3731402,15.2658617 Z M18.5768646,13.6025044 C18.7885377,13.3573083 19.1185714,13.1150575 19.477928,12.9538024 C19.2401381,13.2122524 19.0511085,13.5215087 18.8754379,13.8366556 C18.729825,14.0965782 18.5714542,14.3461923 18.4211657,14.6031695 C18.3597812,14.708464 18.2883106,14.8115494 18.2201798,14.9161075 C18.0926015,14.4507503 18.2535773,13.975821 18.5768646,13.6025044 Z M17.7332449,13.610604 C17.3525139,14.2961222 17.4693382,15.1833933 17.9042399,15.8004334 C18.3143606,16.3836024 18.9201905,16.6111268 19.556078,16.6074451 C19.5360396,16.6523609 19.517337,16.6987494 19.5026421,16.7451378 C19.4892831,16.7893173 19.5246844,16.8276062 19.5620896,16.8276062 C19.5507344,16.9505724 19.5313639,17.072066 19.4986344,17.1906142 C19.4011138,17.5403684 19.2207676,17.8893863 19.0410893,18.194961 C18.8587392,18.50569 18.637648,18.8061104 18.4312517,19.0991676 C18.2562491,19.3458364 18.0084399,19.5748333 17.8848694,19.8568456 C17.8568155,19.9216422 17.8908809,19.9967473 17.9596797,19.9996926 C18.0445092,20.0026379 18.1246631,19.9842298 18.2014104,19.9525678 C18.9442366,19.7699593 19.6228729,19.1440834 20.1579002,18.587422 C20.7463633,17.9755363 21.1952251,17.2001864 21.5091612,16.3828661 C21.9560192,15.2187369 22.3701476,13.5428621 21.447042,12.510535 C20.3816631,11.3184255 18.3871671,12.4339572 17.7332449,13.610604 Z M14.8336778,14.3962623 C14.8076278,14.3749089 14.7708906,14.370491 14.7481803,14.4028893 C14.424225,14.8579379 14.122312,15.3336036 13.7903413,15.7812889 C13.7449208,15.8416675 13.6988323,15.9020462 13.6520758,15.9616884 C13.6153386,15.9182453 13.5645745,15.8865833 13.5004514,15.8718568 C13.624022,15.6472778 13.7315618,15.409445 13.846449,15.2018015 C14.1363389,14.6775383 14.4068583,14.089215 14.7648791,13.610604 C14.8303381,13.8638996 14.8490406,14.1282402 14.8336778,14.3962623 Z M14.5938841,15.5567099 C14.5791892,15.5618642 14.5651623,15.5736454 14.555143,15.5935261 C14.332716,16.0117585 13.9980735,16.3416319 13.7035079,16.70464 C13.7095195,16.5772558 13.7101874,16.4491353 13.7095195,16.3195422 C13.7168669,16.2959798 13.7215425,16.2724174 13.7248823,16.2481187 C14.1142966,15.7017659 14.4596263,15.1185968 14.8216547,14.5464725 C14.7862534,14.8851819 14.7020918,15.2275728 14.5938841,15.5567099 Z M14.1470261,16.6766596 C13.9379581,17.1412805 13.6774579,17.5624581 13.3728731,17.9490286 C13.4430078,17.798082 13.505795,17.6427175 13.5625707,17.4866167 C13.6013117,17.3798496 13.6300335,17.2716099 13.6514079,17.1626339 C13.767631,17.0080057 13.8765067,16.8460143 13.9839798,16.6869682 C14.1029415,16.5102503 14.2325236,16.3563584 14.3554263,16.196576 C14.2858928,16.3637217 14.2151569,16.5249768 14.1470261,16.6766596 Z M12.9560729,15.8593393 C12.9781152,15.806324 13.0008255,15.7518359 13.0275434,15.6995569 C13.2118974,15.3336036 13.3935795,14.9676502 13.5925616,14.6112691 C13.8845221,14.0862697 14.1342683,13.5296083 14.4810007,13.048052 C14.5791892,13.1526101 14.6613469,13.2888301 14.7207944,13.4626027 C14.3440043,13.8359193 14.1029415,14.3299931 13.8217349,14.790196 C13.6105962,15.1370049 13.3802206,15.495595 13.1818397,15.8659662 C13.1050255,15.8659662 13.0295473,15.8644936 12.9560729,15.8593393 Z M12.4791572,15.7709804 C12.5232418,15.6701039 12.5646547,15.5692274 12.6086725,15.4742416 C12.7523484,15.1664579 12.9133241,14.8689827 13.0749678,14.5722439 C13.3909077,13.9934928 13.6606924,13.3712985 14.0461658,12.8433537 C14.0561851,12.8293636 14.0614618,12.8146371 14.0635325,12.7999106 C14.1697364,12.8278909 14.2699288,12.873543 14.3601019,12.9398123 C14.0340759,13.2741036 13.8109809,13.7505056 13.5919604,14.1591658 C13.3047423,14.6952101 12.9126562,15.2349361 12.7002484,15.82915 C12.6247701,15.8151599 12.5506278,15.7967517 12.4791572,15.7709804 Z M12.232684,15.6480142 C12.1752404,15.6097253 12.1198006,15.5648095 12.0670326,15.5125304 C12.1244762,15.3917732 12.1732365,15.2636527 12.2313481,15.1443681 C12.3469033,14.9072716 12.4851687,14.6834289 12.6160868,14.4566409 C12.9367023,13.9029248 13.2252564,13.3278553 13.5525514,12.7785572 C13.6747861,12.7608854 13.7950169,12.7579401 13.9099042,12.7711939 C13.493104,13.2741036 13.1992063,13.8675813 12.8652318,14.4374965 C12.6735304,14.7644246 12.4985277,15.100925 12.3342122,15.4462612 C12.3021507,15.5132668 12.2667494,15.5802723 12.232684,15.6480142 Z M11.8699876,15.2658617 C11.825235,15.1937019 11.789099,15.1208057 11.759776,15.0471733 C11.7657875,15.0427553 11.7711311,15.0368647 11.7764747,15.0295015 C11.8866863,14.8682464 11.9227556,14.6679661 11.9875467,14.4802033 C12.0676338,14.2453158 12.1812519,14.0258911 12.3048225,13.8153022 C12.4417521,13.5826236 12.5820214,13.3160741 12.7396574,13.073087 C12.9213395,12.9700016 13.1163807,12.8853242 13.3120897,12.8308362 C13.0021614,13.3212284 12.7162791,13.8292924 12.4237174,14.3329384 C12.2674173,14.6009606 12.0009056,14.9448242 11.8900261,15.2945784 C11.8833466,15.2842698 11.8766671,15.2754339 11.8699876,15.2658617 Z M12.0737121,13.6025044 C12.1605455,13.5016279 12.2680185,13.4022241 12.3883161,13.3079746 C12.324861,13.4169506 12.2627417,13.5229813 12.1992865,13.6135493 C12.0075183,13.8889347 11.7510927,14.3248388 11.6789542,14.7195088 C11.6375413,14.3196846 11.7958453,13.9235419 12.0737121,13.6025044 Z M11.2300256,13.610604 C10.8486934,14.2961222 10.9662525,15.1833933 11.4004194,15.8004334 C11.8152158,16.389493 12.429061,16.6155447 13.072296,16.6074451 C13.0656165,16.8047801 13.0482498,17.0013788 12.9954819,17.1906142 C12.8979613,17.5403684 12.717615,17.8893863 12.5379367,18.194961 C12.3555866,18.50569 12.1344955,18.8061104 11.9280992,19.0991676 C11.7530297,19.3458364 11.5052874,19.5748333 11.3817168,19.8568456 C11.3536629,19.9216422 11.3877284,19.9967473 11.4564603,19.9996926 C11.5406887,20.0026379 11.6215105,19.9842298 11.6983247,19.9525678 C12.4410841,19.7699593 13.1196536,19.1440834 13.6547476,18.587422 C14.2425429,17.9755363 14.6920726,17.2001864 15.0053407,16.3828661 C15.4528666,15.2187369 15.8669951,13.5428621 14.9438894,12.510535 C13.8785106,11.3184255 11.8840145,12.4339572 11.2300256,13.610604 Z" id="Fill-32" fill="#D30000"></path>
            </g>
        </g>
    </g>
</svg>