<svg xmlns="http://www.w3.org/2000/svg" width="29" height="28" viewBox="0 0 29 28">
    <g fill="none" fill-rule="evenodd">
        <path d="M0 0H32V32H0z" transform="translate(-2 -2)"/>
        <path fill="#D30000" d="M30.113 18.512c-.797 1.004-1.68 1.947-2.442 2.975-.041.056.046.11.094.07.569-.478 1.03-1.078 1.49-1.655.218-.273.435-.547.64-.83.043-.06.09-.12.135-.18-.217.916-.537 1.81-.946 2.664-.504.568-1.017 1.128-1.501 1.71-.038.046.02.101.065.064.382-.306.726-.66 1.052-1.031-.253.454-.53.895-.831 1.32-1.252 1.759-2.944 3.174-4.886 4.142.056-.07.11-.14.158-.216.072-.114-.11-.216-.183-.104-.11.168-.255.31-.38.469l-.054.07c-.455.206-.922.389-1.4.545l-.05.016.008-.013c.12-.186.249-.362.338-.565.052-.117-.12-.221-.18-.102-.107.218-.265.4-.4.601-.038.056-.082.12-.119.19-.35.105-.707.2-1.068.283.124-.242.294-.457.425-.709.06-.117-.115-.22-.181-.103-.16.283-.448.563-.565.883-.358.075-.719.14-1.082.192.124-.345.39-.707.585-.976.073-.1-.092-.189-.166-.095-.2.251-.383.52-.535.801-.042.076-.106.19-.149.307-.381.05-.764.086-1.148.11.037-.126.082-.248.153-.375.115-.207.25-.403.396-.59.069-.086-.084-.202-.154-.116-.187.225-.36.466-.5.723-.058.107-.13.239-.167.373-.3.013-.6.02-.9.017.003-.051-.006-.104.002-.156.016-.117.065-.233.11-.342.093-.225.213-.438.32-.656.055-.11-.109-.208-.17-.097-.068.123-.562.922-.518 1.247-.27-.007-.541-.02-.81-.04.064-.467.315-.847.531-1.267.057-.11-.11-.208-.17-.098-.152.28-.33.544-.467.832-.056.12-.17.34-.158.51-.302-.027-.604-.064-.902-.11.013-.027.01-.066-.022-.08l-.005-.003c.077-.385.361-.71.54-1.053.055-.106-.107-.2-.165-.094-.203.37-.58.75-.621 1.186-.303-.052-.603-.114-.9-.185l-.072-.018c.112-.207.172-.448.279-.66.102-.205.21-.408.294-.622.038-.097-.12-.136-.158-.042-.106.252-.252.483-.38.724-.09.17-.202.36-.214.555-.275-.072-.547-.153-.817-.243.02-.074.022-.155.046-.227.04-.125.103-.244.164-.36.15-.284.331-.56.397-.877.023-.108-.145-.154-.17-.046-.094.413-.394.734-.568 1.114-.03.064-.084.208-.083.321-.322-.114-.639-.242-.948-.384.021-.074.038-.15.063-.225.056-.166.134-.324.214-.48.147-.289.317-.567.462-.857.049-.097-.097-.183-.15-.085-.178.323-.395.623-.57.947-.088.166-.211.382-.25.59-.3-.146-.595-.306-.88-.481.038-.081.048-.168.075-.259.05-.167.124-.326.205-.48.137-.258.3-.502.44-.756.054-.095-.09-.178-.147-.085-.182.298-.393.58-.557.887-.087.163-.204.37-.215.567-.178-.114-.351-.234-.52-.36-.062-.046-.122-.093-.183-.14.02-.055.032-.111.05-.171.046-.154.113-.3.19-.442.125-.232.276-.451.416-.676.058-.093-.088-.174-.148-.085-.173.255-.36.503-.507.773-.069.126-.159.288-.192.446-.208-.171-.407-.351-.6-.539.028-.078.05-.16.084-.236.068-.158.15-.31.22-.467.146-.323.32-.634.493-.944.05-.087-.085-.164-.138-.078-.218.357-.423.716-.614 1.088-.07.137-.175.293-.228.454-.267-.274-.518-.562-.756-.86.024-.062.047-.123.076-.18.083-.172.184-.335.29-.494.229-.34.478-.669.673-1.03.048-.09-.087-.168-.14-.08-.226.378-.517.71-.765 1.072-.091.134-.215.308-.305.491-.15-.198-.294-.401-.433-.608.134-.268.248-.547.392-.812.169-.31.401-.58.512-.92.033-.103-.131-.146-.166-.044-.132.38-.421.698-.61 1.052-.082.154-.21.332-.264.515l-.083-.128c-.161-.257-.313-.52-.458-.786.141-.29.287-.576.454-.856.212-.357.413-.718.525-1.118.025-.09-.116-.128-.144-.04-.135.439-.4.82-.635 1.21-.116.193-.234.388-.312.595-.159-.301-.307-.607-.447-.917.069-.109.13-.224.194-.335.132-.227.27-.452.402-.68.245-.423.476-.85.64-1.31.014-.042-.053-.07-.073-.03-.226.442-.481.87-.745 1.293-.162.26-.374.54-.52.831-.204-.467-.39-.943-.562-1.424.012-.004.022-.011.031-.023.405-.574.788-1.162 1.242-1.704.064-.076-.046-.187-.113-.11-.275.318-.524.642-.769.982-.145.2-.4.414-.457.667l-.017-.05c-.118-.34-.23-.684-.336-1.03.021.009.052.002.066-.018.091-.133.15-.285.245-.418.109-.152.244-.285.35-.439.215-.313.39-.653.598-.972.042-.065-.062-.122-.106-.06-.255.364-.479.754-.766 1.096-.171.205-.42.44-.415.72-.12-.398-.228-.8-.323-1.204.11-.152.182-.328.291-.482.133-.187.296-.355.455-.52.267-.28.545-.557.714-.906.04-.084-.085-.158-.129-.074-.206.398-.558.689-.868 1.006-.184.188-.426.438-.524.708-.069-.318-.13-.637-.177-.958.017.01.039.01.054-.006.228-.253.398-.547.602-.818.236-.313.484-.614.76-.895.061-.064-.036-.159-.1-.097-.272.26-.528.536-.761.83-.222.28-.453.568-.566.908-.054-.378-.094-.758-.113-1.14l-.005-.14c.067-.091.12-.192.181-.288.115-.18.246-.347.384-.51.24-.287.5-.555.763-.822.062-.063-.033-.156-.098-.095-.305.286-.613.573-.882.893-.113.134-.25.288-.354.453 0-.322.016-.642.05-.96.132-.158.26-.323.393-.48.194-.226.38-.457.518-.72.035-.067-.066-.126-.103-.06-.168.302-.399.555-.63.81l-.144.16c.129-.946.404-1.867.828-2.748.635-1.316 1.523-2.503 2.545-3.557 1.37-1.413 2.981-2.634 4.771-3.49l.117-.04c-.01.018-.022.036-.033.053-.165.274-.366.558-.469.86-.016.047.052.084.086.049.214-.223.346-.524.501-.788l.15-.254.436-.149c.124-.043.25-.086.374-.127-.314.323-.649.716-.79 1.113-.015.044.046.074.078.044.169-.165.283-.382.42-.573.167-.236.35-.461.554-.67.262-.083.527-.162.792-.237-.116.165-.232.33-.342.499-.152.236-.35.507-.38.791-.007.055.07.061.096.026.183-.248.295-.56.462-.821.116-.183.234-.363.35-.546.269-.072.54-.14.813-.2.162-.037.325-.07.487-.102-.299.507-.67.977-.905 1.517-.019.043.029.084.068.051.233-.195.337-.476.48-.734.164-.295.363-.569.524-.866.235-.043.47-.08.705-.113-.161.213-.301.443-.429.675-.197.358-.437.764-.553 1.153-.013.045.05.082.083.047.278-.293.401-.688.578-1.04.148-.293.317-.595.522-.862.282-.035.564-.06.847-.079-.159.287-.32.572-.477.859-.173.315-.451.677-.499 1.035-.008.06.078.084.117.048.268-.254.411-.706.578-1.029.158-.306.31-.614.46-.923.279-.013.558-.019.837-.013-.123.209-.23.426-.34.644-.076.152-.155.302-.243.448-.09.148-.21.282-.275.442-.022.053.05.097.095.071.284-.16.44-.551.57-.828.124-.26.239-.522.381-.772.265.01.53.027.794.055-.156.228-.299.464-.42.712-.144.294-.35.675-.295 1.006.01.062.095.058.125.016.093-.131.124-.287.174-.437.069-.204.149-.405.242-.599.112-.233.242-.456.383-.673.138.017.277.036.415.06.158.026.314.056.47.09-.145.222-.298.44-.424.674-.086.161-.171.323-.24.492-.072.18-.182.375-.194.569-.004.058.073.103.123.069.147-.102.192-.256.252-.417.077-.204.167-.4.266-.594.13-.256.287-.497.431-.745.307.073.61.157.908.255-.063.105-.139.2-.207.302-.123.182-.216.375-.321.566-.147.267-.458.626-.37.95.019.069.102.067.14.019.116-.15.153-.362.241-.53.085-.16.18-.313.255-.477.122-.267.306-.508.433-.77.279.096.554.203.824.32-.265.351-.52.717-.724 1.106-.07.136-.117.278-.168.422-.048.137-.136.27-.148.415-.005.053.055.087.102.076.277-.065.316-.537.41-.748.184-.417.445-.815.704-1.192.302.137.598.287.888.447-.187.262-.364.53-.53.806-.162.267-.365.549-.436.854-.016.068.07.123.123.07.225-.224.356-.54.513-.81.161-.278.33-.552.512-.818.222.128.44.262.653.402-.219.308-.411.635-.59.966-.209.383-.436.77-.544 1.192-.015.057.059.082.092.038.268-.36.439-.78.647-1.175.167-.316.341-.629.513-.943.553.37 1.08.78 1.575 1.22-.016.002-.033.01-.048.026-.318.337-.57.725-.79 1.128-.221.398-.494.833-.605 1.276-.014.057.061.107.106.06.294-.32.45-.77.647-1.15.218-.42.45-.834.767-1.192.017-.019.023-.04.023-.06.22.2.435.405.643.616l-.01.014c-.26.462-.552.903-.846 1.344-.143.215-.284.43-.42.65-.126.203-.28.424-.325.66-.012.064.064.115.116.066.166-.157.273-.375.392-.567.144-.232.292-.463.439-.694.278-.435.554-.87.8-1.323.105.11.209.22.31.33.13.144.259.29.385.439-.415.967-1.492 1.624-1.676 2.696-.01.06.063.092.1.042.35-.48.62-1.009.987-1.481.27-.347.547-.693.729-1.09.357.432.694.883 1.006 1.35-.352.485-.706.97-1.04 1.467-.326.482-.712.987-.897 1.54-.025.075.087.143.14.08.384-.45.656-1 .977-1.493.31-.473.624-.943.94-1.411.159.244.311.492.456.745-.304.48-.614.956-.928 1.431-.32.487-.709.955-.97 1.475-.034.065.048.134.104.08.415-.4.72-.926 1.027-1.406.303-.474.577-.963.834-1.462.19.341.369.69.532 1.043-.384.356-.625.836-.873 1.285-.331.597-.708 1.172-1.02 1.779-.026.05.036.1.08.06.48-.426.77-1.092 1.071-1.643.246-.45.457-.94.817-1.315.146.33.28.666.4 1.006-.033-.005-.069.005-.094.037-.41.525-.803 1.061-1.177 1.611-.346.508-.741 1.039-.957 1.615-.023.06.07.115.114.064.401-.475.693-1.052 1.033-1.57.359-.548.737-1.084 1.131-1.609.143.421.264.849.36 1.281-.038-.02-.092-.02-.124.025-.467.652-.947 1.294-1.407 1.95-.194.277-.343.581-.505.876-.159.287-.363.569-.486.872-.018.045.046.095.086.065.248-.185.404-.483.549-.747.168-.306.318-.625.512-.917.45-.679.931-1.34 1.4-2.007.088.416.155.837.196 1.261.007.065.011.13.016.194-.036-.036-.096-.049-.144-.002-.508.497-.922 1.074-1.315 1.66-.405.6-.854 1.18-1.237 1.792-.034.056.04.1.086.065.55-.424.912-1.062 1.287-1.629.404-.61.805-1.22 1.326-1.745l.007-.009c.072 1.048-.007 2.096-.215 3.12zm-1.79-10.19c-1.722-2.424-4.032-4.472-6.867-5.571-1.582-.614-3.277-.85-4.974-.713-.854.07-1.692.222-2.515.435-.827.136-1.64.338-2.436.64-1.537.582-2.948 1.445-4.217 2.467-2.36 1.9-4.488 4.456-5.117 7.445-.348 1.65-.2 3.354.17 4.988.35 1.548.87 3.078 1.53 4.527 1.225 2.696 3.158 5.053 5.954 6.299 2.95 1.315 6.236 1.389 9.383.835 2.93-.516 5.689-1.906 7.755-4.007 2.198-2.235 3.638-5.225 3.953-8.31.327-3.214-.753-6.407-2.619-9.034zm1.878 8.345c-.267.19-.445.471-.657.714-.266.303-.54.596-.769.927-.467.678-1.026 1.306-1.428 2.024-.032.058.048.125.097.073.516-.547.961-1.166 1.39-1.78.229-.326.467-.635.724-.942.23-.276.445-.643.737-.86.092-.069.003-.225-.094-.156zM24.326 5.226c-.203.394-.436.771-.671 1.148-.219.35-.465.687-.599 1.079-.015.044.05.08.082.046.278-.308.48-.672.694-1.024.231-.38.442-.77.627-1.174.039-.086-.088-.163-.133-.075zM27.532 8.4c.062-.097-.093-.183-.155-.089-.312.467-.66.909-.98 1.37-.275.395-.683.796-.78 1.279-.012.057.066.12.112.063.314-.382.594-.818.865-1.23.307-.469.64-.92.938-1.393z" transform="translate(-2 -2)"/>
        <path fill="#D30000" d="M21.33 14.5c-.298.387-.645.753-.97 1.108-.087.094-.183.191-.28.293-.023-.012-.048-.023-.076-.03.168-.251.298-.559.44-.781.262-.41.608-.778.879-1.19.024.196.025.397.006.6zm-.345 1.376c-.236.287-.512.55-.778.822.006-.125.006-.252.006-.378.019-.065.024-.133.014-.197.123-.143.247-.285.372-.426.222-.254.484-.554.686-.867-.064.356-.174.71-.3 1.046zm-.335.8c-.209.465-.47.886-.774 1.273.07-.15.133-.306.19-.462.044-.123.075-.249.097-.374.065-.078.13-.156.197-.232l.39-.428-.1.224zm-1.352-.832c.347-.344.632-.808.905-1.196.319-.455.625-.92.936-1.382.032.06.06.126.086.198.017.05.031.1.044.151-.304.35-.59.74-.86 1.113-.156.216-.3.444-.437.676-.09.151-.163.309-.244.462-.147 0-.292-.004-.43-.022zm-.378-.097c.279-.318.494-.771.714-1.087.401-.574.712-1.234 1.16-1.767.098.059.186.138.262.24-.341.445-.67.899-1.002 1.352-.318.433-.714.844-1.008 1.307-.042-.013-.084-.028-.126-.045zm-.433-.326c.394-.44.704-.986 1.06-1.464.157-.209.314-.416.464-.631.106-.154.216-.377.345-.56.112.007.22.03.32.07-.392.396-.676.888-.981 1.367-.31.487-.637.966-.954 1.449-.09-.06-.175-.136-.254-.23zm-.114-.155c-.023-.038-.044-.075-.063-.114.219-.279.373-.672.547-.952.284-.462.472-.975.864-1.34.141-.047.284-.08.423-.091-.23.302-.448.613-.678.915-.373.49-.847 1.011-1.07 1.616l-.023-.034zm.204-1.663c.212-.246.542-.488.9-.65-.237.26-.426.569-.602.884-.145.26-.304.51-.454.766-.061.105-.133.209-.2.313-.128-.465.033-.94.356-1.313zm-.844.008c-.38.685-.264 1.572.171 2.19.41.583 1.016.81 1.652.806-.02.045-.039.092-.053.138-.014.044.022.083.06.083-.012.123-.032.244-.064.363-.098.35-.278.698-.458 1.004-.182.31-.403.611-.61.904-.175.247-.423.476-.546.758-.028.065.006.14.075.143.085.003.165-.016.241-.047.743-.183 1.422-.809 1.957-1.366.588-.611 1.037-1.387 1.351-2.204.447-1.164.861-2.84-.062-3.872-1.065-1.193-3.06-.077-3.714 1.1zm-2.9.785c-.025-.021-.062-.026-.085.007-.324.455-.626.93-.958 1.378-.045.06-.091.121-.138.18-.037-.043-.087-.074-.152-.09.124-.224.232-.462.346-.67.29-.523.56-1.112.919-1.59.065.253.084.517.069.785zm-.24 1.16c-.014.006-.028.018-.038.038-.222.418-.557.748-.851 1.11.006-.127.006-.255.006-.384.007-.024.012-.048.015-.072.39-.546.735-1.13 1.097-1.702-.036.34-.12.682-.228 1.01zm-.446 1.12c-.209.465-.47.886-.774 1.273.07-.15.133-.306.19-.462.038-.107.067-.215.088-.324.117-.155.226-.317.333-.476.119-.177.249-.33.371-.49-.07.167-.14.328-.208.48zm-1.19-.817c.021-.053.044-.107.07-.16.185-.365.367-.731.566-1.088.292-.525.541-1.081.888-1.563.098.105.18.24.24.415-.377.373-.618.867-.9 1.327-.21.347-.44.706-.64 1.076-.076 0-.151-.002-.225-.007zm-.478-.088c.044-.1.086-.202.13-.297.143-.308.304-.605.466-.902.316-.579.586-1.2.971-1.729.01-.014.015-.028.018-.043.106.028.206.074.296.14-.326.334-.549.81-.768 1.22-.287.535-.68 1.075-.892 1.67-.075-.015-.15-.033-.22-.059zm-.246-.123c-.058-.038-.113-.083-.166-.135.057-.121.106-.25.164-.369.116-.237.254-.46.385-.687.32-.554.61-1.13.937-1.678.122-.018.242-.021.357-.008-.417.503-.71 1.097-1.045 1.666-.191.327-.366.664-.53 1.01l-.102.201zm-.363-.382c-.045-.072-.08-.145-.11-.219.006-.004.011-.01.016-.017.11-.162.147-.362.212-.55.08-.235.193-.454.317-.665.137-.232.277-.499.435-.742.181-.103.376-.188.572-.242-.31.49-.596.998-.888 1.502-.157.268-.423.612-.534.962l-.02-.03zm.204-1.663c.087-.101.194-.2.314-.295-.063.109-.125.215-.189.306-.191.275-.448.71-.52 1.106-.041-.4.117-.796.395-1.117zm-.844.008c-.381.685-.264 1.572.17 2.19.415.588 1.03.815 1.672.806-.006.198-.024.394-.077.584-.097.35-.277.698-.457 1.004-.182.31-.404.611-.61.904-.175.247-.423.476-.546.758-.028.065.006.14.074.143.085.003.166-.016.242-.047.743-.183 1.422-.809 1.957-1.366.588-.611 1.037-1.387 1.35-2.204.448-1.164.862-2.84-.061-3.872-1.065-1.193-3.06-.077-3.714 1.1z" transform="translate(-2 -2)"/>
    </g>
</svg>
