<svg xmlns="http://www.w3.org/2000/svg" width="20" height="20" viewBox="0 0 20 20">
    <g fill="#FFF">
        <path d="M10 0c5.523 0 10 4.477 10 10s-4.477 10-10 10S0 15.523 0 10 4.477 0 10 0zm0 1.002C5.03 1.002 1.002 5.03 1.002 10S5.03 18.998 10 18.998 18.998 14.97 18.998 10 14.97 1.002 10 1.002z"/>
        <path d="M8.94 6.15c.134.004.265.051.362.127l3.378 3.117.086.104c.225.323.178.77-.117 1.042l-3.345 3.083c-.24.187-.586.167-.81-.053-.248-.246-.252-.646 0-.914l2.783-2.421c.066-.055.124-.109.174-.16l.082-.09-.003-.07-.06-.067c-.036-.037-.077-.077-.123-.119l-2.872-2.5c-.174-.18-.224-.455-.124-.694.089-.208.278-.35.495-.38l.094-.005z"/>
    </g>
</svg>
