<?xml version="1.0" encoding="UTF-8"?>
<svg width="32px" height="32px" viewBox="0 0 32 32" version="1.1" xmlns="http://www.w3.org/2000/svg" xmlns:xlink="http://www.w3.org/1999/xlink">
    <!-- Generator: Sketch 62 (91390) - https://sketch.com -->
    <title>32icon-phone-red</title>
    <desc>Created with Sketch.</desc>
    <g id="32icon-phone-red" stroke="none" stroke-width="1" fill="none" fill-rule="evenodd">
        <g id="Fill-28">
            <g>
                <rect id="Rectangle" x="0" y="0" width="32" height="32"></rect>
                <path d="M13.7223328,18.5782496 C13.5476451,18.9352242 13.1098543,19.1877448 12.7111807,19.1425172 C12.9458301,18.9050725 13.1425413,18.6261693 13.3633122,18.3774177 C13.4849505,18.2406582 13.610822,18.1141288 13.7153667,17.9709082 C13.8069973,18.1550489 13.8252163,18.3693414 13.7223328,18.5782496 Z M12.3891338,19.0283715 C12.3714507,19.0170646 12.3547857,19.0046808 12.3382279,18.9922971 C12.5659113,18.8555376 12.7170751,18.5992481 12.876223,18.393032 C13.0653786,18.1485879 13.2448889,17.8885294 13.4517277,17.6559306 C13.519245,17.7076192 13.5797962,17.768461 13.6307021,17.8346871 C13.4892373,18.0328269 13.2973488,18.1938154 13.1350394,18.3747256 C12.9286829,18.6046324 12.6993919,18.8340007 12.5434591,19.1042891 C12.4904098,19.0854443 12.4384322,19.0606769 12.3891338,19.0283715 Z M12.0804297,18.6757042 C12.3007183,18.512562 12.4437907,18.2535804 12.6071719,18.0365958 C12.7519054,17.8449171 12.8981929,17.656469 13.0557333,17.4766356 C13.1559376,17.494942 13.2529267,17.5326316 13.3424139,17.5837819 C13.1596885,17.7754605 12.9962538,17.9875993 12.8263352,18.189508 C12.6281237,18.4253374 12.4277152,18.6590131 12.2299323,18.8943041 C12.1683629,18.8291549 12.1179929,18.7553909 12.0804297,18.6757042 Z M12.0038565,18.2374277 C12.0043388,18.2347356 12.0049282,18.2320435 12.0049282,18.2293513 C12.0901286,18.0888229 12.1624686,17.9364491 12.2599936,17.8088428 C12.4277152,17.5897045 12.64152,17.4588677 12.9094458,17.4620982 C12.7748934,17.6063956 12.6458068,17.7560773 12.5236326,17.9111432 C12.3575186,18.1211283 12.1560384,18.3343439 12.041902,18.5793265 C12.0070716,18.4716418 11.9930859,18.3558808 12.0038565,18.2374277 Z M12.9742839,16.8089908 C12.5311345,16.7869154 12.1442496,16.9635183 11.8725192,17.3140318 C11.7611157,17.4572524 11.6362622,17.6731601 11.5730317,17.8944521 C11.4540727,18.2056607 11.424065,18.5631738 11.4958691,18.8043874 C11.7236061,19.5700253 12.5439414,19.943691 13.280791,19.715938 C13.9495339,19.5091834 14.5384349,18.8646908 14.4425174,18.1265125 C14.3476717,17.3974874 13.6955402,16.8450651 12.9742839,16.8089908 Z M20.4177993,18.5782496 C20.2704401,18.8792282 19.9360687,19.1059044 19.5957493,19.1425172 C19.7517357,18.9847592 19.895344,18.8043874 20.0223408,18.6337072 C20.1005216,18.5287147 20.1573754,18.4043389 20.2259644,18.2928853 C20.2881232,18.1927386 20.3631425,18.105514 20.4284628,18.0096747 C20.5040715,18.1846622 20.5131274,18.3838788 20.4177993,18.5782496 Z M19.3610999,19.1360561 C19.3048354,19.1263645 19.2495891,19.1102118 19.1965934,19.087598 C19.3412733,18.9384548 19.447372,18.7133939 19.5427536,18.5674812 C19.7420904,18.2621952 19.9741142,17.9805998 20.1626804,17.6683143 C20.2281078,17.7210798 20.2870515,17.7813832 20.335814,17.8481477 C20.2591872,17.9601397 20.1600547,18.0484411 20.0807486,18.1582795 C19.9741142,18.305269 19.8846269,18.4597965 19.7667396,18.5981713 C19.617237,18.7736973 19.4645192,18.9357627 19.3610999,19.1360561 Z M18.8799051,18.8426154 C19.0610229,18.6800116 19.1960575,18.3871094 19.306443,18.2105065 C19.46184,17.961755 19.6451012,17.7307714 19.8122334,17.4906346 C19.8910572,17.5116331 19.9671481,17.5434001 20.0378269,17.5837819 C19.8503324,17.8433019 19.6311691,18.0791313 19.4462467,18.3413434 C19.2984052,18.5513285 19.1596196,18.7666978 19.0218522,18.9831439 C18.9688564,18.9411469 18.9211656,18.8943041 18.8799051,18.8426154 Z M18.699323,18.2374277 C18.699323,18.2347356 18.6998589,18.2320435 18.7003412,18.2293513 C18.7850057,18.0888229 18.8579351,17.9364491 18.9549243,17.8088428 C19.1194308,17.5940119 19.3284129,17.4637135 19.5887832,17.4620982 C19.4511229,17.6182409 19.335379,17.8018433 19.2260652,17.9639087 C19.12211,18.1184362 19.0218522,18.2761942 18.9179505,18.4312601 C18.8718673,18.5001782 18.8118519,18.5696348 18.760946,18.6428604 C18.7089684,18.5179462 18.6864626,18.3795714 18.699323,18.2374277 Z M19.6697504,16.8089908 C19.2266011,16.7869154 18.8391803,16.9635183 18.5675035,17.3140318 C18.4560464,17.4572524 18.3317288,17.6731601 18.2684983,17.8944521 C18.1489498,18.2056607 18.1189957,18.5631738 18.1907998,18.8043874 C18.4185368,19.5700253 19.2389257,19.943691 19.9757217,19.715938 C20.6444646,19.5091834 21.2339014,18.8646908 21.1374481,18.1265125 C21.0425488,17.3974874 20.3910068,16.8450651 19.6697504,16.8089908 Z M13.7223328,22.0796161 C13.5401432,22.4516666 13.0723447,22.7106482 12.6608106,22.6368842 C12.9131432,22.4888178 13.0691296,22.248681 13.2501939,22.0246969 C13.4018935,21.8362488 13.5621131,21.6542617 13.7110799,21.4636599 C13.8064615,21.6499543 13.826288,21.8674773 13.7223328,22.0796161 Z M12.579897,22.6175009 C12.5139873,22.5975793 12.4496851,22.5690428 12.3891338,22.5297379 C12.3446581,22.5006631 12.3038798,22.4678193 12.2664238,22.4328218 C12.3371562,22.3617499 12.3902055,22.2739869 12.4577228,22.1975308 C12.5531044,22.0903846 12.655988,21.9907763 12.7508337,21.8830916 C12.9705329,21.6321864 13.1773716,21.3705127 13.3917123,21.1147616 C13.4806637,21.1734497 13.560452,21.2455985 13.6248078,21.3285156 C13.2684128,21.7414863 12.8847966,22.1210747 12.5847197,22.5841187 C12.5777536,22.5954256 12.5772178,22.6067325 12.579897,22.6175009 Z M12.0616749,22.1345353 C12.0719096,22.1339969 12.081555,22.1313047 12.0901286,22.1243052 C12.1694347,22.0580792 12.2112311,21.9735467 12.2696389,21.8884758 C12.3612695,21.7544085 12.4673682,21.6289558 12.5739491,21.5061953 C12.7288638,21.3285156 12.8874223,21.1535281 13.042337,20.9758484 C13.1173562,20.9882321 13.1902321,21.0113843 13.2604286,21.0431513 C13.0251898,21.2967487 12.7963811,21.5562687 12.5616749,21.8104045 C12.4443266,21.9374724 12.2208764,22.101153 12.1415704,22.2852938 C12.1099551,22.2379125 12.0831625,22.1873008 12.0616749,22.1345353 Z M12.0038565,21.7387942 C12.0043388,21.7361021 12.0049282,21.7328715 12.0049282,21.7307178 C12.0901286,21.5901894 12.1624686,21.4378156 12.2599936,21.3102093 C12.428251,21.0905326 12.6420558,20.9596957 12.9110534,20.9634647 C12.7347046,21.143298 12.5536403,21.318824 12.3859187,21.5061953 C12.2599936,21.6478006 12.0665511,21.8335567 12.0279698,22.031158 C12.0032671,21.9380108 11.994747,21.8394793 12.0038565,21.7387942 Z M12.9742839,20.3103573 C12.5311345,20.2882819 12.1442496,20.4648847 11.8725192,20.8148599 C11.7611157,20.9586189 11.6362622,21.1745266 11.5730317,21.3958186 C11.4540727,21.7070272 11.424065,22.0645403 11.4958691,22.3057539 C11.7236061,23.0713918 12.5439414,23.4450575 13.280791,23.2173045 C13.9495339,23.0105499 14.5384349,22.3655189 14.4425174,21.627879 C14.3476717,20.8988539 13.6955402,20.3464316 12.9742839,20.3103573 Z M13.7223328,25.5809826 C13.5786709,25.8744233 13.2566777,26.0973305 12.9249855,26.1420196 C13.0112576,26.0348734 13.0883667,25.9180355 13.1682622,25.8060435 C13.353131,25.5449082 13.5674181,25.3112325 13.7475178,25.0474051 C13.8096766,25.2137779 13.8112842,25.3995339 13.7223328,25.5809826 Z M12.6762967,26.1404044 C12.5782895,26.1247901 12.4834437,26.0908694 12.3960999,26.0348734 C12.5841303,25.8771154 12.7288638,25.6499008 12.8756871,25.4630679 C13.0787749,25.2040863 13.2834703,24.9461816 13.5042412,24.7022758 C13.5685434,24.7588103 13.6248078,24.8228826 13.6698193,24.8934161 C13.4854863,25.160474 13.255606,25.3855349 13.0616277,25.645055 C12.9367742,25.8119662 12.8044189,25.97457 12.6762967,26.1404044 Z M12.0906645,25.6988973 C12.1233514,25.6525929 12.1560384,25.6062885 12.1914046,25.5610609 C12.3184014,25.3984571 12.4577228,25.2466217 12.5916322,25.0899406 C12.7138599,24.9472584 12.8327654,24.8013457 12.955529,24.659202 C12.998933,24.6091286 13.0444804,24.5482868 13.0932429,24.4869065 C13.1886245,24.5095203 13.280791,24.5477483 13.3649197,24.599437 C13.1495073,24.8363432 12.948563,25.0856332 12.7492262,25.3365384 C12.5965084,25.5282171 12.4025301,25.7209726 12.2691031,25.9358035 C12.1951555,25.8668853 12.1351401,25.7871987 12.0906645,25.6988973 Z M12.0038565,25.2401607 C12.0043388,25.2374685 12.0049282,25.234238 12.0049282,25.2315459 C12.0901286,25.0915558 12.1624686,24.9386436 12.2599936,24.8115757 C12.4400397,24.5762848 12.6725994,24.4432942 12.9683895,24.4675233 C12.8108491,24.6220508 12.666705,24.7873467 12.5182741,24.9504889 C12.3693073,25.1141696 12.1731856,25.2961567 12.0193962,25.4959117 C12.0017131,25.4135329 11.9958187,25.3273852 12.0038565,25.2401607 Z M12.9742839,23.8117237 C12.5311345,23.78911 12.1442496,23.9662512 11.8725192,24.3162263 C11.7611157,24.4599853 11.6362622,24.6753547 11.5730317,24.897185 C11.4540727,25.2083937 11.424065,25.5659067 11.4958691,25.8071204 C11.7236061,26.5727582 12.5439414,26.9458856 13.280791,26.7186709 C13.9495339,26.5119164 14.5384349,25.8668853 14.4425174,25.1292455 C14.3476717,24.4002204 13.6955402,23.8477981 12.9742839,23.8117237 Z M20.4177993,22.0796161 C20.2468627,22.427976 19.8256297,22.6767275 19.4345115,22.6465758 C19.5936595,22.4785877 19.733999,22.2928317 19.8744458,22.1081525 C20.0427032,21.8863222 20.2184625,21.6268021 20.3470669,21.3656669 C20.4906752,21.5708061 20.5405094,21.8292493 20.4177993,22.0796161 Z M19.0845468,22.5297379 C19.04977,22.5071242 19.0176189,22.4823567 18.9870754,22.455974 C19.1134828,22.276679 19.2239218,22.0790777 19.346096,21.9073207 C19.5507913,21.6192642 19.7603093,21.3344383 19.9676839,21.0485356 C20.0673524,21.09484 20.158983,21.1589123 20.2372173,21.2359068 C20.1713076,21.3333615 20.0914657,21.4254318 20.0293069,21.5234249 C19.9194573,21.6957203 19.8037133,21.8588626 19.6777882,22.0198511 C19.5266244,22.2120682 19.3696735,22.4015932 19.2282086,22.6018867 C19.1789103,22.5835803 19.1306836,22.5598897 19.0845468,22.5297379 Z M18.7368327,22.0796161 C18.8434136,21.9358571 18.9383129,21.7780991 19.0422681,21.641878 C19.2148124,21.4168171 19.3803905,21.1815261 19.5625801,20.9645415 C19.6075916,20.9623878 19.6542107,20.9640031 19.7029732,20.9699258 C19.7426262,20.97531 19.7817434,20.9833863 19.8208606,20.9941548 C19.6140218,21.2509827 19.4060578,21.5056569 19.2094002,21.7710996 C19.0904948,21.9310113 18.9495658,22.1033067 18.8375728,22.2869091 C18.7947046,22.2228367 18.760946,22.1533801 18.7368327,22.0796161 Z M18.699323,21.7387942 C18.699323,21.7361021 18.6998589,21.7328715 18.7003412,21.7307178 C18.7850057,21.5901894 18.8579351,21.4378156 18.9549243,21.3102093 C19.0732939,21.1556818 19.2148124,21.0447666 19.3819981,20.9941548 C19.1992727,21.1896024 19.0256567,21.396357 18.8610967,21.6052652 C18.8086368,21.6720297 18.7513007,21.7404094 18.6961079,21.8104045 C18.6961079,21.7867138 18.6971796,21.7624848 18.699323,21.7387942 Z M19.6697504,20.3103573 C19.2266011,20.2882819 18.8391803,20.4648847 18.5675035,20.8148599 C18.4560464,20.9586189 18.3317288,21.1745266 18.2684983,21.3958186 C18.1489498,21.7070272 18.1189957,22.0645403 18.1907998,22.3057539 C18.4185368,23.0713918 19.2389257,23.4450575 19.9757217,23.2173045 C20.6444646,23.0105499 21.2339014,22.3655189 21.1374481,21.627879 C21.0425488,20.8988539 20.3910068,20.3464316 19.6697504,20.3103573 Z M17.070334,22.0796161 C16.90422,22.4182843 16.5001878,22.6632669 16.1186614,22.6481911 C16.286383,22.4721267 16.4219535,22.2605263 16.5757429,22.0758471 C16.7418569,21.8766305 16.9079709,21.6795676 17.0638502,21.4744284 C17.1549985,21.6580307 17.1721458,21.8717847 17.070334,22.0796161 Z M15.737135,22.5297379 C15.7023047,22.5071242 15.6701536,22.4823567 15.6395565,22.455974 C15.8148335,22.2847554 15.9713022,22.0780008 16.1186614,21.8917064 C16.3238926,21.6332632 16.5151917,21.36459 16.6973812,21.0894557 C16.8002647,21.1492207 16.8929671,21.2283689 16.9657893,21.3199009 C16.6121808,21.7457937 16.1824278,22.1318432 15.9037849,22.609963 C15.8459129,22.5905798 15.7901844,22.564197 15.737135,22.5297379 Z M15.4225901,22.164687 C15.459028,22.1146136 15.4933225,22.0613097 15.5319039,22.0096211 C15.6422893,21.8626315 15.7655352,21.7264104 15.8882452,21.5896509 C16.0640046,21.392588 16.2290469,21.1960635 16.3581871,20.9704642 C16.4299912,20.9801558 16.5012059,20.999539 16.5693127,21.0264602 C16.3496135,21.3204393 16.1197331,21.6117263 15.8802074,21.8895527 C15.7596408,22.0284659 15.6133533,22.1619949 15.5147566,22.3208297 C15.4783187,22.2723716 15.4477751,22.2201446 15.4225901,22.164687 Z M15.3513218,21.7387942 C15.3518577,21.7361021 15.3523935,21.7328715 15.3523935,21.7307178 C15.4375404,21.5901894 15.5099339,21.4378156 15.6074589,21.3102093 C15.7617842,21.108839 15.9546908,20.9817711 16.1931448,20.9650799 C16.033461,21.1869103 15.8389469,21.3812811 15.6513988,21.5815746 C15.5619115,21.6763371 15.4456317,21.7888675 15.3534652,21.9127049 C15.3469814,21.855632 15.3464992,21.7974823 15.3513218,21.7387942 Z M16.3222851,20.3103573 C15.8785999,20.2882819 15.491715,20.4648847 15.2200382,20.8148599 C15.108581,20.9586189 14.9837276,21.1745266 14.9204971,21.3958186 C14.801538,21.7070272 14.7715303,22.0645403 14.8433345,22.3057539 C15.0710714,23.0713918 15.8914067,23.4450575 16.6282564,23.2173045 C17.2969992,23.0105499 17.8864361,22.3655189 17.7899828,21.627879 C17.695137,20.8988539 17.0430055,20.3464316 16.3222851,20.3103573 Z M30.28599,11.3828122 C30.190662,11.5061111 29.7973469,11.5572613 29.6526669,11.5971046 C29.6258744,11.6046425 29.5990818,11.6121805 29.5722892,11.6197184 C29.6114064,11.5508002 29.6457009,11.4781131 29.6826746,11.4221171 C29.7957393,11.2508985 29.9211286,11.0909867 30.0631293,10.9434588 C30.1611366,10.8411584 30.0074007,10.6860925 29.9077323,10.787316 C29.7582297,10.9391514 29.6248027,11.1049858 29.5037002,11.2805117 C29.4179639,11.4038107 29.2888237,11.5497234 29.269533,11.7047893 C29.056264,11.7634774 28.8419234,11.8194734 28.6243676,11.8603936 C28.5965033,11.8657778 28.568639,11.8700852 28.5407747,11.874931 C28.5450616,11.8700852 28.5498842,11.8652394 28.5535816,11.8598552 C28.5868044,11.8157045 28.5922165,11.7968596 28.6131147,11.7424789 C28.6174015,11.731172 28.6168657,11.7198651 28.6131147,11.7096351 C28.7658324,11.3607368 29.0375092,11.0877562 29.2448838,10.7695481 C29.3124011,10.6661708 29.1521815,10.577331 29.0825208,10.6742471 C28.8279376,11.0274528 28.4549849,11.3327388 28.3328643,11.7661695 C28.3146453,11.8302419 28.3425096,11.8770847 28.38586,11.8991601 C27.7096152,11.9949994 27.0446769,11.962694 26.361466,11.8970064 C26.0881817,11.8706236 25.81972,11.8313187 25.5534017,11.7828606 C25.6000208,11.7570163 25.6337795,11.7187883 25.6278851,11.6552543 C25.6262775,11.6385632 25.6214549,11.6251026 25.6134171,11.6137957 C25.7136214,11.4000417 25.8979543,11.2008251 26.0345965,11.0177612 C26.2484013,10.7318584 26.4632778,10.4475709 26.6786902,10.162745 C26.7467434,10.0722899 26.5918822,9.95060627 26.520614,10.0399845 C26.267692,10.3592695 26.0056605,10.6731703 25.758097,10.9973011 C25.6048435,11.198133 25.3813933,11.4005801 25.3272723,11.657408 C25.3208421,11.6864829 25.3256647,11.7160962 25.3374535,11.7424789 C25.0726892,11.6897134 24.8090502,11.62941 24.5438572,11.5647992 C24.2668219,11.4969579 23.9110163,11.4221171 23.655951,11.2444374 C23.6714907,11.24013 23.6859586,11.2331305 23.6977474,11.2239773 C23.7293626,11.198133 23.7363287,11.1695965 23.749725,11.1308301 C23.7524043,11.1216769 23.7528865,11.1130621 23.7513326,11.1055242 C23.884706,10.777086 24.1382175,10.5466408 24.3525581,10.2661223 C24.6510275,9.87468859 24.9864706,9.51394501 25.2806532,9.11874233 C25.3449554,9.03259461 25.1975426,8.91737203 25.1311506,9.00298133 C24.7930282,9.44018102 24.4254339,9.86715067 24.060519,10.2817366 C23.8595746,10.510028 23.5085917,10.7986229 23.5262749,11.134599 C23.500554,11.1076779 23.4759048,11.0796799 23.4538813,11.0489897 C23.3001454,10.8303899 23.3424777,10.499798 23.3499797,10.2488928 C23.3499797,10.2327401 23.3505155,10.2176642 23.3509978,10.2020499 C23.4566141,10.2219716 23.4769765,10.110518 23.5107352,10.0324466 C23.6002224,9.82353838 23.7394902,9.64747398 23.8777935,9.46925588 C24.2384217,9.00513502 24.6092311,8.55393633 24.9805763,8.09789182 C25.0582748,8.00312933 24.9264553,7.86636982 24.8444699,7.96113232 C24.4822342,8.38217931 24.1007078,8.78222779 23.7636571,9.22481172 C23.6446981,9.38095446 23.4512556,9.57047945 23.3445676,9.77508029 C23.3317607,9.57640211 23.3012172,9.38149289 23.2363791,9.17258466 C23.214945,9.10312806 23.193511,9.03313303 23.171541,8.96367643 C23.2749604,8.98521336 23.3033606,8.87483659 23.3445676,8.80214945 C23.4480405,8.62016239 23.6033839,8.47317284 23.739008,8.31541482 C24.0969033,7.90029049 24.4972381,7.52016366 24.8198208,7.07488762 C24.8959117,6.96989509 24.7244392,6.87459417 24.6482947,6.97420247 C24.3257655,7.39686474 23.9260202,7.75276251 23.5696788,8.1458115 C23.4298216,8.30033897 23.1629674,8.51840039 23.102952,8.7499224 C23.0156082,8.48932554 22.9143322,8.23357449 22.7734033,8.00151406 C23.0182875,7.8728309 23.2122658,7.5718523 23.3987422,7.37425096 C23.6258897,7.13465261 23.85577,6.89774637 24.0862398,6.66084013 C24.1709044,6.57361557 24.0396207,6.44170187 23.9528128,6.52677274 C23.7052493,6.77014006 23.4576858,7.01296895 23.2122658,7.25848996 C23.0365064,7.43455436 22.7894788,7.61707985 22.669448,7.84483289 C22.6072892,7.76030044 22.5387002,7.67953695 22.4610017,7.60415769 C22.3656201,7.51154889 22.2616649,7.43024698 22.1518153,7.35863668 C22.1941476,7.31017859 22.2354082,7.2617205 22.279348,7.21864664 C22.4063449,7.09373244 22.5370927,6.97043351 22.6677869,6.84928828 C22.9727401,6.56607764 23.3205078,6.30009655 23.5803959,5.9727352 C23.6478596,5.88766433 23.5305617,5.76490382 23.4587575,5.85105155 C23.1710052,6.19456559 22.785192,6.4632388 22.452964,6.76152528 C22.3093557,6.89074687 22.0859056,7.051197 21.9449766,7.23695303 C21.7011105,7.10880829 21.4374715,7.01727633 21.1722785,6.94405077 C21.1476293,6.93705127 21.1229265,6.93059019 21.0982774,6.92412911 C21.1411991,6.87136363 21.1803163,6.81429076 21.2237202,6.76206371 C21.3357132,6.62961159 21.4541365,6.50146685 21.5704163,6.37332211 C21.8437006,6.07072824 22.1512795,5.79720922 22.4352809,5.50484539 C22.5108359,5.42731244 22.395092,5.31101301 22.3173399,5.38585385 C22.0055278,5.6857556 21.6625828,5.95658251 21.3721512,6.27802119 C21.2306863,6.43470236 20.9670473,6.64038005 20.8855978,6.86651782 C20.6541099,6.80513757 20.4220326,6.7480647 20.1889907,6.6947608 C20.6117241,6.23387049 21.0302778,5.7713649 21.4927178,5.34708737 C21.5537513,5.29109135 21.4643176,5.20332836 21.4021588,5.25609384 C21.1154782,5.50323012 20.8314768,5.76113486 20.5694454,6.03465388 C20.3969011,6.21502567 20.1364772,6.40185854 20.0619938,6.64791798 C20.0603327,6.65437906 20.0603327,6.66030171 20.0603327,6.66568594 C19.7704905,6.60161358 19.4784514,6.54454071 19.1848047,6.49608262 C19.4077189,6.39916643 19.5657952,6.21233356 19.7372677,6.0443455 C19.9521442,5.83436043 20.1664849,5.62491378 20.377021,5.41062132 C20.469777,5.31585882 20.3267046,5.17209981 20.2318052,5.26470861 C20.0276993,5.46500207 19.8191994,5.66152656 19.6108067,5.85751263 C19.429153,6.0281928 19.2148124,6.18864293 19.1162156,6.4239339 C19.1081779,6.44277871 19.1119288,6.46862303 19.1242534,6.486391 C19.107642,6.48369888 19.0904948,6.48046834 19.0738834,6.47777622 C18.7797008,6.43147182 18.482839,6.38893639 18.1848519,6.35501572 C18.3403024,6.2365626 18.4710502,6.05403712 18.5985829,5.92104657 C18.7914895,5.72021469 18.9876112,5.52207493 19.1912349,5.33201152 C19.2796504,5.24963276 19.1483667,5.11879591 19.0594154,5.1995594 C18.8536483,5.38746912 18.6559191,5.58345518 18.4608691,5.78267179 C18.3006494,5.94635246 18.063803,6.1208016 17.9673497,6.33186352 C17.6463745,6.30009655 17.3248635,6.27855962 17.0033525,6.27425223 C17.1673231,6.12726268 17.3023578,5.91350864 17.4389999,5.75951959 C17.6469104,5.52638232 17.8628586,5.30078297 18.0788068,5.07572205 C18.1554336,4.99549698 18.0370104,4.87650544 17.9571685,4.95349997 C17.7219296,5.18125301 17.4861549,5.40900605 17.2600255,5.64537386 C17.0901605,5.82305354 16.842597,6.03196176 16.7622193,6.27532908 C16.7418569,6.27532908 16.7209587,6.27479065 16.7005963,6.27532908 C16.4240433,6.28125173 16.1437929,6.2920202 15.863596,6.31355713 C16.0232262,6.18164343 16.1588503,5.99211844 16.2997793,5.84512889 C16.5409125,5.59422365 16.8056233,5.36647061 17.0515792,5.12041118 C17.1416023,5.03049449 17.0028167,4.89104287 16.9127936,4.98042113 C16.647547,5.24209484 16.3624739,5.48384688 16.1063368,5.75305851 C15.9562984,5.91081653 15.7178444,6.07342035 15.7039122,6.30655763 C15.7033764,6.31355713 15.7044481,6.32001821 15.7065915,6.32594086 C15.7023047,6.32647929 15.6980179,6.32647929 15.6937311,6.32701771 C15.6835499,6.32701771 15.6739045,6.32647929 15.6642592,6.32701771 C15.4016919,6.33401721 15.1385887,6.35124676 14.8759678,6.37332211 C14.9971239,6.25594584 15.1053659,6.12026318 15.2173589,6.00450218 C15.4225901,5.79236341 15.6305006,5.58291676 15.838411,5.37293169 C15.9300416,5.28086131 15.7880409,5.13817915 15.6964103,5.23024952 C15.4767111,5.45046464 15.2570119,5.67067975 15.0405279,5.89358698 C14.8872743,6.05188342 14.7061564,6.2064109 14.5925559,6.39862801 C14.4135814,6.41531913 14.234607,6.43308709 14.0561684,6.45139349 C13.9693068,6.46000826 13.8830883,6.46969988 13.7962803,6.47885307 C13.8761222,6.38624427 13.9522131,6.2920202 14.0261607,6.21179513 C14.2565769,5.96142832 14.4639515,5.68952457 14.7425943,5.49030796 C14.8395835,5.42085136 14.747417,5.25878596 14.6488203,5.32878098 C14.3798228,5.51938282 14.1708406,5.76759594 13.9511414,6.01096326 C13.8027105,6.17572077 13.613019,6.33617091 13.4640523,6.5165427 C13.2111303,6.54615598 12.9587442,6.57684611 12.706358,6.60699781 C12.6779579,6.61076677 12.6490219,6.61345889 12.6206218,6.61668943 C12.6988561,6.51977324 12.7760187,6.42231863 12.8558606,6.33024825 C13.0943146,6.05349869 13.3236591,5.76974963 13.5792604,5.5075375 C13.6585664,5.42623559 13.5342488,5.30132139 13.4549428,5.38262331 C13.1762999,5.66744921 12.9255214,5.97704259 12.6650974,6.27802119 C12.5611422,6.39808958 12.4496851,6.51815797 12.3468016,6.64414901 C12.1544308,6.66191698 11.9572374,6.68130022 11.7632055,6.71252877 C11.8066631,6.63984163 11.8484595,6.5698466 11.8907382,6.5095432 C12.0043388,6.34801622 12.1287099,6.19564243 12.2449897,6.03626915 C12.370379,5.86558897 12.4925532,5.62060639 12.6864779,5.52745916 C12.7331506,5.50538381 12.7117165,5.42192821 12.6597389,5.42731244 C12.522025,5.44238829 12.4512926,5.51238331 12.3601978,5.61414531 C12.1999782,5.79182499 12.0590492,5.99265686 11.9106183,6.18056658 C11.7803528,6.34478568 11.662519,6.51815797 11.5440958,6.69045341 C11.5264127,6.71629773 11.5076578,6.74214205 11.4878313,6.76744794 C11.2102602,6.83475085 10.9481751,6.93974339 10.7285295,7.1206536 C10.2001798,7.55516118 10.0394243,8.26534146 9.90814062,8.9049883 C9.89635189,8.90983411 9.885099,8.91737203 9.87432838,8.9281405 C9.55978346,9.24581022 9.26779788,9.58340161 8.99504939,9.93822254 C8.74855762,10.2591228 8.45062409,10.605329 8.32041214,10.994609 C8.30219318,11.0489897 8.37346145,11.082372 8.41097107,11.0473745 C8.70301023,10.7808549 8.90020364,10.4050355 9.13705008,10.0911347 C9.36050022,9.79500195 9.59949006,9.51179131 9.85235846,9.24096441 C9.81859981,9.5090992 9.80740051,9.77561871 9.79454007,10.0512914 C9.79287893,10.0884426 9.79078911,10.1266707 9.7886457,10.1659756 C9.68361878,10.3366558 9.57269748,10.5024901 9.46016863,10.6683245 C9.39050791,10.7706249 9.31061243,10.8734637 9.24154115,10.9811484 C9.07435543,11.0586814 8.89270172,11.1254458 8.70944045,11.1868261 C8.15536983,11.3725821 7.5846878,11.5071879 7.00811141,11.5987199 C5.48522098,11.8415488 3.90017175,11.75917 2.50534986,11.0576045 C2.49034602,11.0500666 2.47480632,11.0436055 2.45980247,11.0382213 C2.4849875,9.84561374 2.67253558,8.70900223 3.19767022,7.62031039 C3.72387655,6.52946486 4.47728399,5.53499709 5.42413389,4.77958925 C7.24174274,3.32907698 9.60592028,2.88110882 11.8677502,2.75942517 C13.3215157,2.68135379 14.7854625,2.67327744 16.2408356,2.65443263 C17.7551524,2.63451097 19.2721485,2.65281736 20.7811068,2.79226899 C22.9856005,2.99579298 25.3669253,3.23485291 27.3093876,4.39246293 C28.4689706,5.0837984 29.3107936,6.10949471 29.7769845,7.38286573 C30.0213329,8.04943373 30.1697102,8.75046082 30.2394245,9.45741057 C30.273719,9.80846253 30.291938,10.1605913 30.2972429,10.5132586 C30.2994399,10.6903998 30.2983682,10.8675411 30.2956889,11.0441439 C30.2946172,11.1308301 30.3069418,11.2492832 30.3059363,11.35966 C30.2989041,11.3666595 30.2924738,11.3741974 30.28599,11.3828122 Z M9.59627495,10.7813934 C9.60431273,10.7695481 9.57216163,10.7937771 9.53786712,10.8185446 C9.55340682,10.7927003 9.56948237,10.7668559 9.58555792,10.74155 C9.63914309,10.657556 9.6911207,10.5724851 9.74250887,10.4863374 C9.71416232,10.5956373 9.66968663,10.6979378 9.59627495,10.7813934 Z M30.9901527,10.292505 C30.9649141,9.61947597 30.8904843,8.9442932 30.7463402,8.28580154 C30.4644286,7.00112364 29.8879058,5.72021469 28.9367691,4.7946651 C27.1748888,3.07978701 24.612982,2.58120707 22.2658981,2.2996117 C20.7918238,2.12300887 19.3160883,2.01855476 17.8312433,2.00294048 C16.201129,1.98624936 14.5716577,2.04439907 12.9426686,2.0820887 C10.4728747,2.13862314 7.81992668,2.43583279 5.70759942,3.83627169 C4.5105068,4.63044601 3.54222284,5.75252009 2.87830262,7.02696795 C2.26475247,8.20449963 1.73050836,9.75838917 2.15061606,11.0818336 C1.97533898,11.2094399 1.92019984,11.495881 2.16561991,11.6423322 C3.36592764,12.3605888 4.89203318,12.4887335 6.25625794,12.379972 C7.38213587,12.2905938 8.5438087,12.0639176 9.57269748,11.5825672 C9.95422387,11.4038107 10.221078,11.198133 10.3614711,10.7781628 C10.4831095,10.4131119 10.4659086,10.0184476 10.4798944,9.63885921 C10.4916831,9.30019097 10.5650948,8.96098432 10.6454725,8.6320077 C10.7226352,8.31649167 10.8249828,7.98105398 11.040931,7.73122558 C11.279385,7.45555287 11.6780587,7.39040366 12.019932,7.33548448 C12.5054136,7.25741311 12.9946462,7.1992634 13.4806637,7.12226887 C14.0743873,7.02858322 14.6697185,6.94351235 15.2650497,6.86274886 C15.2993442,6.85844147 15.3331029,6.85413409 15.3668615,6.8498267 C15.7773239,6.84605774 16.1877863,6.83259716 16.5977128,6.83905823 C17.3334372,6.85090355 18.0809502,6.95051185 18.8059575,7.07327235 C19.5347158,7.1971097 20.252757,7.3683283 20.9649039,7.56539122 C21.4101966,7.68815172 21.8726366,7.85775505 22.1523512,8.25026561 C22.3281105,8.49794031 22.3999147,8.78545833 22.4910094,9.07136109 C22.5407901,9.22750383 22.5928212,9.38364658 22.6319384,9.54355829 C22.6817726,9.74708228 22.6689122,9.93876096 22.6581952,10.1460539 C22.6260441,10.7700865 22.6598027,11.3575063 23.1892242,11.7607853 C23.5605694,12.0429191 24.0294396,12.1629875 24.475804,12.2690568 C25.1027505,12.4176617 25.718444,12.5355764 26.361466,12.597495 C27.2220438,12.6798738 28.055829,12.6933344 28.9078331,12.5151163 C29.3059709,12.4316607 29.7110748,12.3218223 30.0974238,12.1926007 C30.2426396,12.1436042 30.3948215,12.096223 30.5298561,12.0235358 C30.9354958,12.004691 30.9772923,11.6988666 30.9901527,11.3542757 C31.0030131,11 31.003549,10.6462491 30.9901527,10.292505 Z M20.4177993,25.5809826 C20.2039945,26.0171054 19.5963387,26.2976239 19.1489026,26.0682556 C19.318714,25.9207277 19.429153,25.641286 19.551863,25.4824511 C19.7597735,25.2137779 19.9821519,24.9601806 20.1648774,24.673201 C20.2586514,24.7480418 20.3379574,24.8401122 20.3942219,24.9418742 C20.2902131,25.0845563 20.1830963,25.2256232 20.0764618,25.3672285 C19.9199931,25.5750599 19.7447696,25.7845066 19.669161,26.0375655 C19.6520673,26.0957152 19.7233356,26.1274822 19.7640603,26.0930231 C19.963933,25.9234198 20.1037903,25.6848983 20.2522212,25.4700674 C20.3261687,25.3634596 20.3995268,25.2557749 20.4719204,25.1475519 C20.5019281,25.2864651 20.4890676,25.4350699 20.4177993,25.5809826 Z M18.8670446,25.8286573 C19.0197623,25.6213643 19.125861,25.3483837 19.2576805,25.1335529 C19.3980736,24.9057998 19.5330547,24.6802005 19.6954713,24.4707538 C19.6976147,24.4712922 19.700294,24.4712922 19.7029732,24.4712922 C19.8219323,24.4869065 19.9382121,24.5283651 20.043239,24.5897454 C19.8422947,24.8896471 19.5941953,25.1497056 19.3696735,25.4307625 C19.2495891,25.5809826 19.078706,25.7721228 18.997203,25.9659552 C18.9484405,25.9244966 18.9045542,25.8787306 18.8670446,25.8286573 Z M18.699323,25.2401607 C18.699323,25.2374685 18.6998589,25.234238 18.7003412,25.2315459 C18.7850057,25.0915558 18.8579351,24.9386436 18.9549243,24.8115757 C19.1103213,24.6080517 19.3053713,24.4815223 19.5465045,24.4664464 C19.3964661,24.6344345 19.2732202,24.8228826 19.1478309,25.0172534 C19.0267284,25.2040863 18.8466823,25.4205325 18.7625535,25.6482855 C18.7089684,25.5228329 18.6859268,25.3833812 18.699323,25.2401607 Z M19.6697504,23.8117237 C19.2266011,23.78911 18.8391803,23.9662512 18.5675035,24.3162263 C18.4560464,24.4599853 18.3317288,24.6753547 18.2684983,24.897185 C18.1489498,25.2083937 18.1189957,25.5659067 18.1907998,25.8071204 C18.4185368,26.5727582 19.2389257,26.9458856 19.9757217,26.7186709 C20.6444646,26.5119164 21.2339014,25.8668853 21.1374481,25.1292455 C21.0425488,24.4002204 20.3910068,23.8477981 19.6697504,23.8117237 Z M17.070334,18.5782496 C16.8843935,18.9572996 16.4020734,19.2184349 15.9852344,19.1306719 C16.2247601,18.9109952 16.4283837,18.6471678 16.6641584,18.4253374 C16.8045516,18.2928853 16.9588233,18.1722785 17.0912322,18.0339037 C17.157142,18.203507 17.1608929,18.393032 17.070334,18.5782496 Z M15.737135,19.0283715 C15.6942669,19.0009119 15.6551497,18.9696833 15.6192477,18.9357627 C15.7499955,18.7952342 15.8764565,18.6374762 15.9825551,18.4953324 C16.1631371,18.2525035 16.3715834,18.0511332 16.5837807,17.8363024 C16.6454036,17.7738453 16.5505579,17.6785443 16.4873274,17.7393862 C16.2804886,17.9386028 16.0693631,18.1243588 15.8898528,18.3494197 C15.7751805,18.4931787 15.6090665,18.6310151 15.4933225,18.7903884 C15.4681375,18.7532372 15.4461676,18.7139323 15.4273592,18.6735505 C15.4461676,18.6347841 15.4654582,18.5960176 15.4874282,18.5604817 C15.58924,18.3973394 15.7130217,18.2487346 15.8389469,18.1044371 C16.0259591,17.8896063 16.2279752,17.6887744 16.4219535,17.4804046 C16.6668377,17.5320932 16.8935029,17.6920049 17.0242507,17.9009132 C16.8597443,18.0759007 16.6470112,18.2148139 16.4771462,18.375264 C16.2472658,18.5917102 16.0179213,18.8259243 15.8062599,19.0676764 C15.7826824,19.0558311 15.7596408,19.0429089 15.737135,19.0283715 Z M15.3513218,18.2374277 C15.3518577,18.2347356 15.3523935,18.2320435 15.3523935,18.2293513 C15.4375404,18.0888229 15.5099339,17.9364491 15.6074589,17.8088428 C15.78429,17.5773208 16.0125628,17.4448686 16.3013868,17.4637135 C16.0656121,17.6720833 15.8287657,17.8799146 15.6197835,18.115744 C15.5436926,18.2013533 15.4413449,18.3122685 15.3561445,18.4323369 C15.3475709,18.368803 15.3454275,18.3036538 15.3513218,18.2374277 Z M16.3222851,16.8089908 C15.8785999,16.7869154 15.491715,16.9635183 15.2200382,17.3140318 C15.108581,17.4572524 14.9837276,17.6731601 14.9204971,17.8944521 C14.801538,18.2056607 14.7715303,18.5631738 14.8433345,18.8043874 C15.0710714,19.5700253 15.8914067,19.943691 16.6282564,19.715938 C17.2969992,19.5091834 17.8864361,18.8646908 17.7899828,18.1265125 C17.695137,17.3974874 17.0430055,16.8450651 16.3222851,16.8089908 Z M26.5425839,27.223712 C26.9551897,26.7789743 27.25741,26.2184757 27.6126797,25.7268953 C27.8746575,25.3650749 28.1394218,25.0048697 28.4052043,24.6457414 C28.4009175,24.9472584 28.4003816,25.2487754 28.4013997,25.5502925 C28.2058674,25.8442716 27.9658059,26.1129448 27.7696306,26.4047702 C27.4765733,26.8403546 27.0687902,27.3184745 26.9530463,27.8402066 C26.9401858,27.8972795 27.0103824,27.9457376 27.0543222,27.8994332 C27.2354401,27.7088313 27.3570784,27.4751556 27.4937206,27.2522484 C27.6550119,26.9900363 27.8216618,26.7321315 27.9899192,26.4747652 C28.1200776,26.2750102 28.2664187,26.0849468 28.4030609,25.8894991 C28.4041326,26.1016379 28.4046684,26.3137766 28.4041326,26.5259154 C28.2428412,26.8290477 28.0563648,27.1138736 27.8532771,27.3900847 C27.6684082,27.6404516 27.4363845,27.8875878 27.325999,28.1815669 C26.408621,28.1438773 25.4869561,28.1891049 24.5690422,28.2036423 C23.4973389,28.2203334 22.4256355,28.2327172 21.3539322,28.2429472 C18.8032247,28.2682531 16.2526243,28.2849442 13.7019704,28.2994816 C11.7423609,28.3102501 9.78269775,28.3194033 7.82314179,28.325326 C7.13939507,28.3274797 6.45350494,28.3570929 5.78851302,28.1594916 C3.931787,27.6081462 4.09147079,25.2832345 4.41887616,23.7643425 C4.80576106,21.9719314 5.77726013,20.4013508 6.89075989,18.9745291 C7.47751747,18.2223518 8.07927889,17.4760972 8.69282905,16.7459953 C9.32406231,15.9954332 10.0018611,15.2163348 10.7638957,14.5960712 C11.0242661,14.3844708 11.3200562,14.2170212 11.6351905,14.1028755 C11.7155683,14.4383131 11.8881125,14.7376765 12.2112311,14.9476616 C12.6806371,15.2518707 13.3220516,15.2529475 13.8230729,15.0316556 C13.9607868,14.9708138 14.0776024,14.8965113 14.1778067,14.8125173 C14.1922747,14.8243626 14.2115653,14.82867 14.2292485,14.8152094 C14.4023285,14.684911 14.5384349,14.4652343 14.6761487,14.2967078 C14.8229721,14.1179513 14.9531841,13.9187347 15.0710714,13.7173644 C15.1669889,13.7286713 15.2634422,13.7362092 15.3577521,13.744824 C15.4075863,13.7491314 15.4574205,13.7523619 15.5067188,13.7561309 C15.39419,13.8756608 15.2773743,13.9914218 15.1712757,14.1195666 C14.9901578,14.3381664 14.7618314,14.5836874 14.6991904,14.8690518 C14.6938318,14.8938192 14.7109791,14.926663 14.7404509,14.9234325 C14.8497647,14.9121256 14.8787007,14.8776665 14.9435387,14.7855962 C15.0555317,14.6283766 15.1610945,14.4646959 15.2805894,14.3101684 C15.4252694,14.1222587 15.58924,13.9531938 15.7355275,13.7701299 C15.8957471,13.7787446 16.0559668,13.7846673 16.2167223,13.7884363 C16.0757933,13.948348 15.9391511,14.1125671 15.7960787,14.2719404 C15.6519346,14.4323905 15.3909749,14.6138391 15.4081221,14.8534375 C15.4113372,14.8932808 15.4542054,14.9261246 15.491715,14.9013572 C15.5929909,14.8356695 15.6384847,14.7430607 15.715701,14.6488366 C15.8046524,14.541152 15.9059283,14.4458511 15.993808,14.337628 C16.1422389,14.1545641 16.2858471,13.9698849 16.4385649,13.7922052 C16.5869958,13.7927437 16.7348908,13.79059 16.8827859,13.7862826 C16.7734722,13.8961209 16.6748755,14.0161893 16.568241,14.1324887 C16.3833721,14.3349359 16.1400955,14.5535357 16.0307818,14.8087484 C15.9932721,14.8970498 16.091333,14.9891201 16.1690315,14.9158946 C16.5441276,14.5896101 16.7643627,14.0926454 17.1549985,13.776591 C17.250916,13.772822 17.3462976,13.769053 17.442215,13.7647456 C17.2627047,13.9548091 17.0949832,14.1567178 16.9160087,14.3473196 C16.7981213,14.4733107 16.6175393,14.611147 16.5886033,14.7915188 C16.5725278,14.8911271 16.6930944,14.9492768 16.7531098,14.8609754 C16.8634952,14.6978332 17.0124084,14.5599968 17.1442279,14.4140841 C17.3274892,14.2110985 17.4845473,13.9871145 17.6709701,13.786821 C17.6801332,13.776591 17.6865634,13.7658225 17.6908502,13.755054 C17.8065942,13.7507466 17.922874,13.7469777 18.0391538,13.7453624 C18.0412972,13.776591 18.0439229,13.8083579 18.0471916,13.8395865 C18.0466557,13.8401249 18.0466557,13.8401249 18.0460663,13.8406633 C17.8441038,14.0194198 17.7037107,14.249865 17.5140192,14.43939 C17.3698751,14.5836874 17.1839345,14.726908 17.1314211,14.9331241 C17.1223116,14.9670448 17.1298135,15.0117339 17.1582137,15.0354245 C17.1608929,15.0381167 17.164108,15.0408088 17.1673231,15.0429625 C17.1919723,15.063961 17.2278744,15.0811905 17.2610972,15.0682684 L17.2787803,15.0612689 C17.3200409,15.0445777 17.3387957,15.0122723 17.3318296,14.9681216 C17.3355806,14.9918123 17.4159583,14.8787434 17.4218527,14.8701286 C17.4513245,14.8297469 17.4824039,14.7925957 17.5156267,14.7554444 C17.586895,14.6773731 17.666201,14.6063012 17.7353259,14.5255377 C17.8575001,14.3812403 17.9619912,14.2250975 18.0873804,14.0845691 C18.1206032,14.2294049 18.1704375,14.3677797 18.2417057,14.4948476 C18.172045,14.5643042 18.1017949,14.6332224 18.0354028,14.7059095 C17.9282325,14.8222089 17.7905186,14.9648911 17.8269565,15.1361097 C17.8339226,15.1700304 17.8730398,15.179722 17.9003682,15.1662614 C18.0423689,15.0962664 18.132392,14.9207404 18.2358114,14.8055178 C18.2770719,14.7602903 18.3188684,14.7156011 18.3606648,14.6703736 C18.4437218,14.7737508 18.5444619,14.8674365 18.6682437,14.9476616 C19.1376497,15.2518707 19.7790106,15.2529475 20.2795496,15.0316556 C20.4424485,14.9595069 20.5769473,14.8701286 20.6878686,14.7662129 C20.6803667,14.776443 20.6734006,14.7872114 20.6658987,14.796903 C20.4504863,15.0924974 20.1418357,15.4769316 20.1000393,15.8495205 C20.0962883,15.8866717 20.1488018,15.9184387 20.1788095,15.8947481 C20.3074139,15.7956782 20.3470669,15.6610724 20.4210144,15.5200055 C20.5217546,15.3288652 20.642857,15.1404171 20.7618161,14.9605837 C20.9198924,14.7209854 21.0688591,14.4738491 21.2322403,14.2374813 C21.3651851,14.3446275 21.5077216,14.4426205 21.654545,14.5363062 C21.4905744,14.7985183 21.2976678,15.0418856 21.1149424,15.2906372 C20.9980731,15.4500105 20.8261183,15.5964616 20.8550543,15.8086004 C20.8592875,15.8392905 20.9038168,15.8549048 20.9273943,15.8382136 C21.0919007,15.7240679 21.2145572,15.5081602 21.3266038,15.3434027 C21.4878951,15.1064964 21.6513299,14.8728207 21.7869003,14.6197618 C21.9165764,14.6994484 22.0472707,14.7769814 22.1770004,14.8545143 C22.0055278,15.0688068 21.8270892,15.2771766 21.6657979,15.4984686 C21.524333,15.6923009 21.2558713,15.9426677 21.2778413,16.1994956 C21.2815922,16.2371853 21.3217811,16.2694907 21.358219,16.2458 C21.571488,16.1068868 21.7156321,15.8188304 21.8554894,15.6104606 C22.0070818,15.3843228 22.174857,15.1705688 22.3366842,14.9525074 C22.424028,15.0068881 22.5103001,15.0623457 22.5933571,15.119957 C22.6512291,15.1598003 22.7085652,15.2012589 22.7653655,15.2432559 C22.6003232,15.4220124 22.4642169,15.6239212 22.3216267,15.8231378 C22.1796796,16.0228928 21.9294369,16.2350316 21.9278293,16.4956284 C21.9278293,16.5645466 22.0060637,16.5860835 22.0532186,16.5478555 C22.2279063,16.4040965 22.3687817,16.161806 22.4952962,15.9738963 C22.6351535,15.7660649 22.7610787,15.5528493 22.92237,15.3633243 C23.0509744,15.4645479 23.176846,15.5695404 23.3001454,15.6783019 C23.1383182,15.8850565 22.976491,16.0912726 22.8146638,16.2980271 C22.6555159,16.5010127 22.4427828,16.7115362 22.3784806,16.9662104 C22.3672277,17.0114379 22.4159902,17.049666 22.4567149,17.0265138 C22.6833266,16.898369 22.8318111,16.6345416 22.983993,16.4294024 C23.1372465,16.2221094 23.2905001,16.0148165 23.4432178,15.8075235 C23.534259,15.8904407 23.6237999,15.9749731 23.7122154,16.0605824 C23.5674818,16.2527995 23.4233913,16.4455551 23.2867492,16.6436948 C23.1292088,16.8730631 22.9716148,17.1024315 22.9363022,17.3840268 C22.9293361,17.4362539 23.0005508,17.4540218 23.0327555,17.4244086 C23.2412018,17.2294993 23.3676628,16.9624414 23.5198446,16.7244583 C23.6313018,16.5505476 23.7486533,16.3804059 23.8665407,16.211341 C23.9114986,16.2560301 23.9560279,16.3001808 23.9999677,16.3443315 C24.0519453,16.397097 24.1033871,16.4498625 24.154293,16.5031664 C24.0583756,16.6447717 23.9646015,16.7853002 23.8751143,16.9317513 C23.6939964,17.2284225 23.4201762,17.5067873 23.3499797,17.856224 C23.3408702,17.9014516 23.3923119,17.933757 23.4271423,17.9014516 C23.648449,17.6957739 23.8033102,17.4044869 23.9635298,17.1508895 C24.0471227,17.017899 24.1173192,16.877909 24.1971611,16.7427647 C24.2164518,16.7104593 24.2368142,16.6636165 24.2598558,16.6151584 C24.3809583,16.7449184 24.4999173,16.8768321 24.6156613,17.0103611 C24.4554416,17.2725732 24.251818,17.4992494 24.0765945,17.7501546 C23.9378089,17.9499097 23.7223966,18.1561258 23.6934606,18.407031 C23.6891738,18.4441822 23.7384721,18.4684113 23.7674081,18.4495665 C23.9833563,18.3106533 24.1232136,18.0689012 24.2641426,17.8605314 C24.4232905,17.624702 24.5979782,17.4034101 24.7410506,17.1573506 C24.8348246,17.2682658 24.9269911,17.3807963 25.0180859,17.4938652 C24.7281901,18.0339037 24.1826931,18.4651807 24.0128282,19.0660611 C23.9994319,19.1134423 24.0508736,19.1462862 24.0910625,19.1263645 C24.3643469,18.9901434 24.4843776,18.6530905 24.645669,18.4113384 C24.8144623,18.1572026 25.0057613,17.9246038 25.1461009,17.6553921 C25.2645777,17.8061507 25.3813933,17.9585244 25.4960656,18.1125135 C25.2972646,18.3467276 25.1011429,18.5841723 24.9168099,18.8313086 C24.7319411,19.0779064 24.4908078,19.3562712 24.4549058,19.6723257 C24.4479397,19.7342444 24.527728,19.7503971 24.5658271,19.7186301 C24.7887414,19.5307204 24.9173458,19.2238191 25.0818522,18.9852976 C25.2501097,18.7408534 25.4312275,18.5055625 25.6155605,18.2735021 C25.7355913,18.4355675 25.8534786,18.5992481 25.971366,18.7640056 C25.7789953,18.999835 25.6021642,19.2464329 25.4317634,19.4978766 C25.263506,19.7455513 25.0673842,19.9889186 24.9730743,20.2758982 C24.9585528,20.3211257 25.01755,20.3722759 25.0577389,20.3415858 C25.2694003,20.1800588 25.398487,19.9555363 25.5432205,19.7347828 C25.719998,19.4644943 25.8995619,19.1968979 26.0983628,18.9433006 C26.1739179,19.04937 26.2489372,19.1559778 26.3239564,19.2625856 C26.3550358,19.3067363 26.386651,19.3514254 26.4177304,19.3961146 C25.9810113,20.0513757 25.4473031,20.6484871 25.1847358,21.4060486 C25.1643198,21.4641983 25.245287,21.5078106 25.2860117,21.4652752 C25.5592425,21.178834 25.7409498,20.8261667 25.9467168,20.4912675 C26.1364083,20.1832894 26.3577151,19.8968482 26.5575877,19.5958696 C26.6717241,19.7584734 26.7847888,19.9221541 26.896246,20.0879884 C26.6031351,20.3555848 26.4059417,20.7405574 26.2264314,21.0856868 C25.9911925,21.5374239 25.703976,21.9837768 25.5190536,22.4597429 C25.5014241,22.5055089 25.566798,22.5367375 25.5978774,22.5055089 C25.9247469,22.1813781 26.126763,21.7274873 26.3282432,21.3193625 C26.5104328,20.9505425 26.682977,20.5004207 26.9562614,20.1779051 C27.1132659,20.4137345 27.2659836,20.6533329 27.4100741,20.897777 C27.3147461,21.0318444 27.2043607,21.1589123 27.1084432,21.2849034 C26.9305405,21.5191175 26.7558528,21.7501011 26.6025993,22.0010063 C26.2960385,22.5022784 25.9510036,23.0148573 25.7125496,23.5527422 C25.6921873,23.5985081 25.7446472,23.6469662 25.784836,23.6087382 C26.2130351,23.1979212 26.4798892,22.6110399 26.7831813,22.1076141 C26.9342914,21.8567089 27.1004055,21.6181874 27.268127,21.378589 C27.3415387,21.2735965 27.4245957,21.1632197 27.4969357,21.0479971 C27.5805286,21.1955251 27.6609063,21.3446683 27.7364078,21.4959653 C27.6008909,21.6919514 27.4353128,21.8793226 27.3056366,22.0656171 C27.0982621,22.3622883 26.9042838,22.6670359 26.7044111,22.9690913 C26.3448546,23.5128988 25.9242111,24.0739359 25.7044583,24.693661 C25.6889722,24.7388886 25.7559,24.7798088 25.787033,24.7415807 C26.2130351,24.2171565 26.535082,23.5942007 26.9058377,23.0288563 C27.1046923,22.7262624 27.2933121,22.4166691 27.4931847,22.1146136 C27.5933354,21.9627783 27.709133,21.8109429 27.8119629,21.6526465 C27.9025754,21.8437867 27.9850966,22.0386959 28.0585082,22.2373741 C27.7841522,22.7865658 27.344218,23.2571478 27.0393184,23.7934173 C26.715664,24.3625307 26.33253,24.9219525 26.0597815,25.5174486 C26.0388833,25.5632146 26.0946119,25.6165185 26.1337291,25.5745215 C26.5715199,25.1098622 26.8753478,24.4912139 27.1844806,23.9371764 C27.468482,23.4283664 27.8634046,22.9631687 28.1313305,22.4452055 C28.1506747,22.5028168 28.1694295,22.5598897 28.1865768,22.6180394 C28.2374827,22.789258 28.2776716,22.961015 28.3092868,23.1338489 C28.2535582,23.2038439 28.1881843,23.2684547 28.1340633,23.3330655 C28.008674,23.4811319 27.8907867,23.6356593 27.771774,23.78911 C27.5590945,24.062629 27.3409493,24.3302253 27.1357717,24.609667 C26.72263,25.1728578 26.2221446,25.8044282 26.0538872,26.497379 C26.0436524,26.5404528 26.1026497,26.5846035 26.1348008,26.5447602 C26.3651634,26.2529348 26.5468707,25.9169587 26.7478151,25.6041348 C26.9637633,25.2676202 27.1904285,24.9386436 27.4278108,24.6172049 C27.6566195,24.3070731 27.8940018,24.0023256 28.1254897,23.6943475 C28.1918817,23.6055076 28.2749923,23.5128988 28.3526372,23.4149058 C28.3928261,23.7212686 28.4083658,24.030862 28.4083658,24.3436859 C28.0788706,24.7668866 27.7434275,25.1852415 27.4240599,25.6159801 C27.0687902,26.0951768 26.6464855,26.5986026 26.4477381,27.1682544 C26.4289833,27.2220967 26.5050743,27.2635553 26.5425839,27.223712 Z M27.9320472,27.9915035 C27.8071938,28.0771128 27.6689441,28.1347241 27.5237283,28.1761827 C27.7177066,27.9963493 27.8688167,27.756751 28.0151043,27.5419201 C28.1516928,27.3410882 28.279815,27.1343337 28.3977023,26.9216565 C28.3778758,27.3330119 28.2953547,27.7416751 27.9320472,27.9915035 Z M12.1538414,11.9884873 C12.1597893,11.7984239 12.1833132,11.5981304 12.2385595,11.4129128 C12.2417746,11.4069902 12.243918,11.4010675 12.2471331,11.3956833 C12.3660386,11.1749297 12.5214892,11.0139412 12.7733395,10.9719442 C12.9126609,10.948792 13.060556,10.9455614 13.2068435,10.9493304 C13.2004133,10.9557915 13.193983,10.9611757 13.1880351,10.9676368 C13.0578767,11.0990121 12.8547889,11.310074 12.8204944,11.4915226 C12.8108491,11.5410576 12.8569323,11.5749782 12.9019439,11.5545181 C13.0905637,11.4667552 13.1987521,11.1900056 13.3440215,11.0419392 C13.3713499,11.0139412 13.3996965,10.98702 13.4286861,10.9600989 C13.4367238,10.9606373 13.4442258,10.9611757 13.4522635,10.9617141 C13.6140907,10.9714058 13.7394264,11.0198638 13.8364692,11.0947047 C13.5112072,11.4112976 13.1248582,11.6729713 12.8751513,12.060636 C12.8537172,12.0934798 12.8965854,12.1365537 12.9298082,12.1150168 C13.1987521,11.9400292 13.4024293,11.6869703 13.6301127,11.4624478 C13.7276913,11.36607 13.8295031,11.2750765 13.9259564,11.1792371 C14.0133002,11.2809991 14.0695647,11.4102207 14.1060026,11.5523645 C13.6537438,11.9744883 13.1548659,12.3826131 12.8054906,12.8871157 C12.7845924,12.9178058 12.8263352,12.9598029 12.8569323,12.9388044 C13.3300894,12.6109046 13.7405517,12.1699359 14.1429763,11.7467353 C14.162267,11.8829563 14.1686972,12.0245617 14.1713765,12.1591675 C14.1719123,12.1995492 14.1713765,12.239931 14.1713765,12.2803127 C13.7255479,12.7115897 13.2111303,13.1067924 12.8424643,13.6053724 C12.8199586,13.6355241 12.8628267,13.6742905 12.8922985,13.6559841 C13.3702782,13.3560824 13.7737745,12.9199595 14.1681614,12.509681 C14.1644104,12.6604395 14.1589983,12.811198 14.1553009,12.9619566 C13.7116157,13.2860874 13.3006175,13.7200565 12.9480271,14.1292582 C12.9115892,14.1712552 12.9560649,14.2250975 13.0047738,14.2035606 C13.4672674,13.9962676 13.7743104,13.5445305 14.1531575,13.2031702 C14.1558368,13.5418384 14.1702512,13.9278879 13.9704321,14.2046374 C13.7319781,14.5341525 13.2486399,14.6526056 12.8665241,14.5815337 C12.3977075,14.4943092 12.1694347,14.1335656 12.1555025,13.6753674 C12.1383553,13.1154072 12.1367477,12.5489859 12.1538414,11.9884873 Z M14.7238395,13.6446773 C14.7929644,13.6678295 14.8647149,13.6845206 14.9376444,13.6974427 C14.8374401,13.8137422 14.7425943,13.9338105 14.6450693,14.0517252 C14.6814537,13.9214268 14.7066923,13.7846673 14.7238395,13.6446773 Z M18.6109075,11.9884873 C18.6168019,11.7984239 18.6403794,11.5981304 18.6955721,11.4129128 C18.6987872,11.4069902 18.7009306,11.4010675 18.7041457,11.3956833 C18.8231048,11.1749297 18.9779659,11.0139412 19.230352,10.9719442 C19.4334398,10.9385619 19.6547466,10.9460999 19.8615853,10.9584836 C19.8240757,11.0090954 19.7865661,11.0602456 19.7469131,11.1076268 C19.6617126,11.2066967 19.5341799,11.2906907 19.4794695,11.411836 C19.4645192,11.4452182 19.483274,11.4748315 19.5186402,11.4796773 C19.7442338,11.509829 19.9285132,11.1851598 20.0400239,11.0284786 C20.0502051,11.0144796 20.061458,11.001019 20.0716392,10.98702 C20.1814888,11.0166333 20.2693684,11.0677835 20.3401008,11.134548 C20.2243569,11.2201573 20.101111,11.2982287 19.997638,11.3902991 C19.8165738,11.551826 19.5668133,11.7117377 19.4998854,11.9577972 C19.4875608,12.0030247 19.5406102,12.050406 19.5829424,12.0218695 C19.8063926,11.8694958 19.9939407,11.6508959 20.1922058,11.4672936 C20.2715118,11.394068 20.3588557,11.3289188 20.4435202,11.2616159 C20.5137168,11.3730695 20.5571208,11.5071369 20.5844492,11.6498191 C20.4386976,11.7736564 20.2891949,11.8931864 20.1407104,12.0143316 C19.9333894,12.1833965 19.7029732,12.348154 19.5770481,12.5904445 C19.5497196,12.6421331 19.6033048,12.6932833 19.6542107,12.6679775 C19.8947545,12.5468322 20.090394,12.3427698 20.2934818,12.1677822 C20.4017238,12.0735582 20.50943,11.9782573 20.6149928,11.8808026 C20.6229769,11.9744883 20.6262456,12.0681739 20.628389,12.158629 C20.4279805,12.365922 20.2147116,12.5586775 19.9939407,12.7438951 C19.7865661,12.9172674 19.5438253,13.0750254 19.4028963,13.3108548 C19.3809264,13.3469292 19.4179001,13.4029252 19.4607683,13.3867725 C19.7093499,13.2930869 19.9114195,13.0971008 20.1096846,12.9242669 C20.2881232,12.7686626 20.4617392,12.6082125 20.6267815,12.439686 C20.6229769,12.6362105 20.6144569,12.8332734 20.6107059,13.0297979 C20.4595958,13.1633269 20.3031271,13.2898563 20.1461225,13.4169242 C19.9483933,13.5768359 19.7442338,13.7313634 19.617237,13.9569627 C19.5914625,14.0027287 19.642422,14.0517252 19.6873799,14.0274962 C19.9119554,13.9058125 20.0978959,13.7275944 20.2908025,13.5617601 C20.3979728,13.4696897 20.5051432,13.3776193 20.6107059,13.2833952 C20.6117241,13.3813883 20.6123135,13.4820734 20.606955,13.5822202 C20.469777,13.6904432 20.3427801,13.8115885 20.2098353,13.9246574 C20.0512768,14.0587247 19.8776609,14.1933306 19.7394111,14.3489349 C19.714762,14.3769329 19.7383394,14.4323905 19.7796,14.4173146 C20.0694958,14.3107068 20.3567122,14.0754159 20.5785548,13.8277412 C20.552834,13.9645007 20.5078224,14.0931838 20.4274447,14.2046374 C20.1889907,14.5341525 19.7056525,14.6526056 19.3235902,14.5815337 C18.8546664,14.4943092 18.6264472,14.1335656 18.6125151,13.6753674 C18.5953142,13.1154072 18.5937603,12.5489859 18.6109075,11.9884873 Z M21.0843988,14.1114902 C21.1047612,14.1297966 21.1256594,14.148103 21.1465576,14.1664094 C21.09458,14.2191749 21.0447458,14.2751709 20.9980731,14.3343975 C21.0312959,14.2627872 21.0602319,14.1884848 21.0843988,14.1114902 Z M29.057818,23.4665944 C28.9072973,22.0462339 28.1897919,20.7777087 27.3988748,19.6206371 C26.6422523,18.5136388 25.8733051,17.3883342 24.9596781,16.4040965 C24.4473503,15.8516742 23.8933332,15.3380184 23.2840699,14.8954345 C22.9314259,14.639145 22.5494173,14.4329289 22.1630682,14.2326355 C21.838878,14.064109 21.5114726,13.8901983 21.159418,13.7911284 C21.2360448,13.3361607 21.210324,12.8343502 21.2167542,12.3831515 C21.2269354,11.6137447 21.1111914,10.5611272 20.1808993,10.408215 C19.7994265,10.3452195 19.3541338,10.376448 18.984932,10.5406671 C18.7679121,10.59774 18.5991188,10.7506522 18.4694427,10.9407156 C18.2304528,11.2567701 18.0798249,11.7090456 18.0862552,12.138169 C18.0530859,12.4569155 18.0530859,12.7821232 18.0460663,13.1019466 C18.034867,13.1041003 18.0230782,13.1073308 18.0107001,13.1110998 C17.442215,13.1229451 16.8731406,13.1574042 16.3040661,13.1703264 C16.004525,13.1767874 15.7060556,13.1821717 15.4059787,13.1703264 C15.1873512,13.16225 14.9649728,13.1493279 14.7549189,13.204247 C14.7629567,12.9258822 14.7559906,12.6459021 14.7597416,12.3831515 C14.7699228,11.6137447 14.6541788,10.5611272 13.7244762,10.408215 C13.3429498,10.3452195 12.8971212,10.376448 12.5279194,10.5406671 C12.3108995,10.59774 12.1420526,10.7506522 12.0124301,10.9407156 C11.7739761,11.2567701 11.622866,11.7090456 11.6292962,12.138169 C11.5858922,12.5602928 11.5992885,12.9937235 11.5799978,13.4104631 C11.5767827,13.4858424 11.575711,13.5612216 11.5773186,13.6355241 C11.2568793,13.7022885 10.9530514,13.8142806 10.6701217,13.9924987 C10.2531755,14.2552492 9.88456315,14.611147 9.5303652,14.9514305 C8.78338798,15.6702256 8.10173107,16.4563235 7.45715511,17.2682658 C6.28578336,18.7435456 5.07261519,20.1735977 4.33153234,21.9304729 C3.9650098,22.8011033 3.74316721,23.7035007 3.62420814,24.6398187 C3.50792833,25.553523 3.5159661,26.5173006 3.91035293,27.367471 C4.50086147,28.6419188 5.83834722,29.0026624 7.13510825,28.9999852 C8.84822603,28.9967398 10.5613438,28.988125 12.2739257,28.9795102 C14.8979377,28.9665881 17.5214675,28.9504354 20.1455867,28.9272832 C22.1823589,28.9095152 24.2202028,28.8982083 26.2569749,28.8427507 C26.4600627,28.8373665 26.6626146,28.8362896 26.8656488,28.8341359 C27.041944,28.844366 27.2199004,28.840597 27.3940522,28.8206754 C27.4004824,28.8206754 27.4069126,28.8201369 27.4133428,28.8201369 C27.441743,28.8185217 27.4674639,28.8142143 27.492113,28.8077532 C28.2080109,28.6989917 28.8446026,28.3070196 29.0241129,27.51123 C29.1591476,26.9141186 29.0985963,26.2717796 29.0830566,25.6660535 C29.063766,24.9316441 29.1355701,24.1988501 29.057818,23.4665944 Z M17.070334,25.5809826 C16.9030947,25.9218045 16.4953651,26.1678639 16.1116954,26.1495576 C16.2895981,25.9551868 16.4439234,25.7333564 16.6030177,25.5282171 C16.7541815,25.3327695 16.9015407,25.1351681 17.0403263,24.9305673 C17.1512476,25.1238612 17.1807194,25.3553832 17.070334,25.5809826 Z M15.737135,26.0311044 C15.7065915,26.0111828 15.6776555,25.9891074 15.6502735,25.9664936 C15.846931,25.8135814 15.9739815,25.5314476 16.1256275,25.3510759 C16.329787,25.1077085 16.5264445,24.8568033 16.7172077,24.6021291 C16.7986572,24.6522025 16.8720689,24.7141211 16.9347635,24.7841162 C16.7493588,25.0441746 16.5494862,25.2923877 16.3469342,25.5389856 C16.1947524,25.7236647 16.033461,25.9072671 15.9150378,26.1150985 C15.852879,26.0957152 15.7933995,26.0677172 15.737135,26.0311044 Z M15.3968692,25.6025195 C15.4097297,25.5799057 15.423126,25.557292 15.4381298,25.535755 C15.5329756,25.3979187 15.6422893,25.2665434 15.7451728,25.1340913 C15.9171812,24.9127993 16.0816341,24.6850463 16.2558395,24.4648312 C16.2879906,24.4653696 16.3212134,24.4669849 16.354972,24.4712922 C16.4283837,24.4809839 16.5007237,24.5003671 16.5698485,24.5283651 C16.3715834,24.7760398 16.1674239,25.0194071 15.9605852,25.2595439 C15.8121543,25.4313009 15.6406817,25.6348249 15.5356548,25.8491174 C15.4756394,25.774815 15.4290203,25.6918978 15.3968692,25.6025195 Z M15.3513218,25.2401607 C15.3518577,25.2374685 15.3523935,25.234238 15.3523935,25.2315459 C15.4375404,25.0915558 15.5099339,24.9386436 15.6074589,24.8115757 C15.7323124,24.6484335 15.8823508,24.5348262 16.0607894,24.4885218 C15.8812791,24.7028142 15.7081991,24.9235678 15.535119,25.142706 C15.4836772,25.2078553 15.4145523,25.2832345 15.3491784,25.3634596 C15.3469814,25.3230778 15.3475709,25.2816192 15.3513218,25.2401607 Z M16.3222851,23.8117237 C15.8785999,23.78911 15.491715,23.9662512 15.2200382,24.3162263 C15.108581,24.4599853 14.9837276,24.6753547 14.9204971,24.897185 C14.801538,25.2083937 14.7715303,25.5659067 14.8433345,25.8071204 C15.0710714,26.5727582 15.8914067,26.9458856 16.6282564,26.7186709 C17.2969992,26.5119164 17.8864361,25.8668853 17.7899828,25.1292455 C17.695137,24.4002204 17.0430055,23.8477981 16.3222851,23.8117237 Z M28.1828258,10.6704782 C28.0193911,10.9095381 27.8688167,11.1739039 27.6651931,11.38012 C27.5414114,11.5050342 27.4010182,11.6461011 27.4085202,11.8345493 C27.4117353,11.9266197 27.5317661,11.9901536 27.5998192,11.9142359 C27.6453666,11.8636241 27.6485817,11.8587783 27.678,11.7925523 C27.6855555,11.7763996 27.6855555,11.7575547 27.6796611,11.741402 C27.7466426,11.6218721 27.8495261,11.5394933 27.9395492,11.4248092 C28.0965537,11.2250541 28.2208713,10.9870711 28.3585852,10.773317 C28.4298534,10.6618634 28.2562375,10.5633319 28.1828258,10.6704782 Z M10.1830325,7.26279734 C9.76560408,7.86044717 9.27476395,8.40479309 8.80696545,8.96206116 C8.59208893,9.21835064 8.389537,9.48379331 8.18805678,9.75031282 C7.97639537,10.0297545 7.72508094,10.3032735 7.56539714,10.6166359 C7.53860456,10.6699398 7.59808409,10.749088 7.65595607,10.707091 C7.91530828,10.517566 8.10124881,10.236509 8.292012,9.98021955 C8.52939429,9.66201141 8.76677658,9.34541853 9.01862686,9.03744042 C9.46927811,8.48555657 9.94404268,7.94767173 10.3491465,7.36079038 C10.4204148,7.25795153 10.2537649,7.16157377 10.1830325,7.26279734 Z M27.4519242,10.4734153 C27.2595534,10.6694013 27.0987979,10.8912317 26.9375066,11.1130621 C26.7922908,11.3122787 26.6261767,11.5298017 26.5511575,11.7677848 C26.5334744,11.822704 26.5715199,11.9018522 26.6320711,11.9110054 C26.6947657,11.9212354 26.7316859,11.9271581 26.778305,11.8781616 C26.7976493,11.8582399 26.8014002,11.8275498 26.7880039,11.8033207 C26.7440641,11.7252494 27.0746846,11.2902034 27.1213037,11.2212852 C27.2659836,11.008608 27.4133428,10.7991613 27.5890486,10.6112516 C27.6748384,10.5197197 27.5398038,10.3829602 27.4519242,10.4734153 Z M25.5405413,9.77346502 C25.2576116,10.1605913 24.9253836,10.5019517 24.620484,10.8696948 C24.5176004,10.9929937 24.222882,11.2788965 24.410966,11.4415003 C24.465087,11.4883431 24.5679169,11.4781131 24.584046,11.3957343 C24.6279859,11.1712118 24.8433982,10.9693031 24.9864706,10.8002382 C25.2404643,10.5003364 25.4907071,10.1993578 25.7141572,9.87522702 C25.7881047,9.76754237 25.6155605,9.67062618 25.5405413,9.77346502 Z M8.48223934,8.35525814 C8.97629458,7.72961031 9.42796395,7.06465758 10.0024505,6.50846635 C10.0780056,6.43470236 9.96333334,6.32001821 9.88670656,6.39216693 C9.28655269,6.96235716 8.77963702,7.63753993 8.27004208,8.28849366 C8.01010044,8.62070081 7.76473396,8.96421486 7.52140372,9.30880574 C7.29050524,9.63562867 7.00060949,9.97322005 6.85057102,10.3468858 C6.82592184,10.4088045 6.91005055,10.4384178 6.95023943,10.4050355 C7.2476371,10.1595145 7.46144192,9.77561871 7.6800694,9.46117953 C7.93995746,9.08751378 8.20038137,8.71277119 8.48223934,8.35525814 Z M7.20423312,7.83029546 C7.40464164,7.55246906 7.60070977,7.27302739 7.83546638,7.02319899 C7.87779866,6.97743301 7.81135306,6.91013011 7.76687737,6.95428081 C7.56052089,7.16157377 7.38052832,7.38932681 7.20369727,7.62138724 C7.020436,7.86098559 6.76108379,8.09950709 6.62658502,8.370334 C6.60997362,8.40263939 6.64319643,8.43817533 6.67636564,8.42040736 C6.90308448,8.2987237 7.05682033,8.0348963 7.20423312,7.83029546 Z M7.76955663,8.01766676 C8.09267518,7.61654143 8.41257862,7.2132624 8.67407424,6.76798636 C8.71372726,6.70068346 8.6124513,6.64253374 8.57119072,6.70714454 C8.26843453,7.18526439 7.89601762,7.6090035 7.53110263,8.03920369 C7.2400816,8.38217931 6.83342377,8.79245783 6.71071373,9.23504176 C6.69570989,9.28942251 6.76590646,9.33141952 6.80502363,9.29049935 C6.96577913,9.12358814 7.0793261,8.9119878 7.215486,8.72515493 C7.3917812,8.48286446 7.58147269,8.25080403 7.76955663,8.01766676 L7.76955663,8.01766676 Z" id="Fill-27" fill="#D30000"></path>
            </g>
        </g>
    </g>
</svg>