<svg xmlns="http://www.w3.org/2000/svg" width="20" height="32" viewBox="0 0 20 32">
    <g fill="none" fill-rule="evenodd">
        <path d="M0 0H32V32H0z" transform="translate(-6)"/>
        <path fill="#D30000" d="M25.136 10.934c-.369.361-.766.691-1.165 1.02-.448.368-1.02.74-1.32 1.25-.03.052.03.111.081.081.51-.3.947-.787 1.397-1.172.34-.29.67-.587.981-.907-.044.41-.111.817-.2 1.222-.394.39-.83.732-1.275 1.062-.453.335-.964.642-1.337 1.073-.046.052.01.13.074.097.533-.288 1.02-.69 1.502-1.057.334-.255.655-.526.953-.82-.063.25-.133.5-.21.75-.036.116-.075.231-.113.347-.31.22-.581.497-.88.74-.546.445-1.175.745-1.604 1.33-.034.045.033.112.08.079.525-.378 1.062-.753 1.577-1.146.25-.19.465-.422.697-.633-.122.335-.256.665-.4.99-.41.34-.846.65-1.28.958-.546.387-1.146.764-1.572 1.29-.043.053.012.145.077.101.597-.395 1.162-.85 1.74-1.275.286-.21.568-.423.84-.648-.127.27-.261.536-.402.798-.51.346-.949.774-1.445 1.144-.565.42-1.168.794-1.613 1.356-.039.049.02.107.069.068.57-.448 1.16-.874 1.73-1.324.376-.297.715-.628 1.084-.925-.345.612-.723 1.206-1.13 1.782-.447.313-.885.639-1.32.969-.628.476-1.286.922-1.882 1.438-.049.042.013.113.066.086.707-.367 1.335-.891 1.968-1.372.262-.2.523-.4.785-.597-.3.399-.613.788-.937 1.169-.413.199-.765.524-1.153.767-.592.371-1.129.832-1.71 1.222-.045.03-.018.116.039.094.618-.241 1.108-.695 1.65-1.066.273-.188.546-.423.834-.626-.436.491-.887.967-1.353 1.426-.64.222-1.209.628-1.778.989-.573.361-1.227.662-1.66 1.205-.032.04.011.116.06.079.155-.12.314-.23.475-.339-.29.245-.57.506-.844.766-1.437-1.614-2.89-3.205-4.177-4.95-.707-.96-1.361-1.954-2.007-2.957-.626-.973-1.195-1.994-1.627-3.07-.436-1.088-.79-2.272-.827-3.453-.035-1.15.182-2.29.592-3.36.756-1.976 2.227-3.688 3.995-4.805 1.26-.796 2.691-1.284 4.162-1.38-.062.095-.186.3-.073.394.017.014.04.02.06.008.047-.031.051-.052.064-.104.02-.088.05-.167.096-.245.013-.022.028-.042.042-.064.227-.01.455-.01.684 0-.14.165-.26.35-.359.504-.047.074.03.153.105.138.064-.012.12-.025.18-.05.03-.014.03-.068 0-.08-.018-.009-.036-.015-.053-.02.08-.123.156-.248.24-.369l.08-.113c.108.007.217.016.325.027.12.013.241.029.361.048-.101.115-.19.24-.267.35-.053.078-.395.652-.077.633.026-.001.048-.017.056-.043.062-.204.112-.37.235-.553.07-.105.158-.237.26-.352.244.045.486.102.726.169-.278.32-.557.667-.579 1.086-.004.074.077.133.145.112.101-.031.151-.08.198-.175.025-.052-.025-.1-.076-.077-.007.006-.014.01-.022.014.062-.333.295-.63.518-.907.22.067.436.143.65.227-.204.2-.405.405-.56.647-.12.189-.303.529-.165.743.03.047.086.04.117 0 .067-.088.066-.179.094-.283.039-.148.11-.287.19-.416.142-.227.325-.424.507-.617.255.106.506.225.751.353-.395.403-.795.887-.9 1.445-.018.096.053.158.144.145.138-.019.209-.066.286-.177.027-.038-.018-.097-.06-.08-.037.013-.071.02-.105.025.146-.48.471-.898.807-1.266.226.124.447.256.662.396-.209.208-.394.452-.562.675-.167.223-.577.72-.331 1.004.067.08.186-.005.163-.097-.066-.274.3-.7.441-.899.133-.188.28-.397.447-.577.196.133.389.273.575.418-.036-.004-.073.01-.09.048-.217.476-.631.816-.878 1.272-.05.093-.15.215-.096.328.04.082.11.098.186.058.03-.016.034-.052.02-.08l.007-.013.027-.044c.033-.044.06-.096.087-.143.078-.143.155-.28.252-.41.215-.29.436-.553.575-.89.007-.018.008-.036.004-.05.157.125.31.255.46.389l.204.19c-.495.455-1.068.946-1.25 1.604-.024.091.065.196.16.161.1-.036.153-.086.197-.187.013-.03 0-.077-.031-.089.24-.526.656-.946 1.056-1.361.213.21.419.43.613.657-.324.295-.669.572-.946.913-.209.256-.542.733-.35 1.073.027.047.089.042.117 0 .111-.169.125-.386.216-.568.094-.188.225-.36.361-.518.227-.264.484-.498.73-.742.156.19.304.385.445.586-.027-.003-.054.007-.078.035-.38.46-.828.88-1.135 1.397-.1.17-.406.505-.33.72.018.05.073.078.12.05.208-.123.316-.411.432-.615.292-.511.703-.939 1.061-1.402.013-.016.02-.033.022-.05.173.258.335.522.482.795-.034-.015-.074-.013-.108.022-.296.303-.533.656-.775 1.002-.131.186-.263.372-.415.542-.122.137-.302.247-.354.428-.015.053.027.107.08.107.336 0 .62-.505.79-.754.27-.396.491-.826.818-1.179.015-.014.023-.03.026-.047.119.227.228.46.328.698-.016.004-.032.012-.047.026-.39.389-.763.796-1.102 1.231-.281.361-.716.829-.797 1.292-.015.081.068.125.13.076.178-.139.29-.352.413-.54.15-.225.302-.448.461-.665.316-.432.654-.84 1.02-1.226.116.295.218.595.302.903.158.577.25 1.158.287 1.739-.4.359-.782.74-1.162 1.119l-.651.65c-.208.207-.471.408-.6.677-.028.059.03.117.088.088.25-.122.435-.366.628-.565l.682-.702c.346-.356.694-.713 1.025-1.085.017.396.008.791-.024 1.186zm-8.14 13.02c-.438.37-.869.752-1.318 1.104-.025.02-.044.04-.06.062l-.203-.229c.773-.46 1.26-1.506 2.229-1.56.04-.003.04-.066 0-.065-.157.002-.307.03-.45.078l.181-.116c.484-.316.959-.652 1.462-.936-.598.58-1.216 1.134-1.842 1.663zm8.906-15.207c-.276-1.926-1.157-3.74-2.438-5.184-1.348-1.52-3.17-2.692-5.117-3.239-2.013-.565-4.142-.379-6.051.463C8.15 2.614 5.202 7.31 6.193 11.909c.525 2.44 1.823 4.584 3.195 6.623 1.395 2.074 2.98 4.071 4.79 5.788.442.42.888.82 1.367 1.195.043.034.09.043.133.037.108.121.279.18.428.067 3.634-2.783 7.07-6.244 8.843-10.568.818-1.994 1.26-4.149.953-6.304zm-5.928 2.845c-.042-.032-.104-.04-.156.003-.279.234-.481.547-.648.871-.104.205-.24.453-.304.7-.176.177-.362.34-.556.487.167-.604.527-1.114.87-1.645.075-.117-.106-.221-.182-.109-.389.57-.986 1.26-1.037 1.995-.099.062-.2.12-.3.173-.21.109-.426.191-.645.25.054-.071.104-.145.147-.223.031-.06-.026-.123-.085-.102.334-.904 1.032-1.62 1.293-2.561.035-.124-.153-.176-.19-.054-.318 1.054-1.326 1.8-1.483 2.918-.005.03.001.06.014.087-.278.046-.56.057-.84.035l.023-.05c.01-.025.009-.049 0-.067.447-1.093.906-2.158 1.64-3.097.08-.103-.06-.25-.144-.146-.794.98-1.4 2.134-1.833 3.323-.647-.106-1.277-.374-1.833-.75.026-.055-.03-.113-.084-.087.162-.46.41-.904.637-1.325.305-.562.644-1.102.925-1.676.058-.12-.116-.224-.177-.105-.31.6-.686 1.16-1.015 1.75-.215.384-.452.783-.611 1.203-.167-.133-.325-.276-.472-.427.057-.079.105-.164.157-.25.036-.058-.041-.106-.088-.069-.05.04-.093.08-.137.12.13-.465.433-.917.669-1.315.364-.616.715-1.239 1.12-1.829.067-.096-.088-.185-.154-.091-.457.643-.892 1.315-1.29 1.997-.191.33-.458.702-.585 1.09l-.09-.114c-.11-.146-.209-.297-.298-.451.223-.474.539-.892.793-1.355.343-.628.665-1.267 1.155-1.793.076-.08-.042-.2-.119-.12-.516.52-.873 1.161-1.233 1.796-.232.41-.52.785-.743 1.197-.067-.137-.126-.278-.177-.42.025-.027.021-.079-.014-.098-.009-.004-.017-.009-.026-.012l-.04-.129c.09-.546.442-1.042.744-1.488.416-.616.835-1.231 1.257-1.843.06-.087-.08-.167-.14-.083-.473.657-.985 1.294-1.428 1.973-.2.308-.41.615-.55.95-.032-.18-.055-.362-.067-.547.12-.236.23-.477.378-.702.197-.3.405-.594.611-.887.482-.688.923-1.412 1.445-2.07.053-.066-.037-.162-.095-.095-.565.642-1.057 1.348-1.557 2.043-.229.32-.463.64-.679.97l-.108.164c.002-.015.002-.03.002-.047.013-.253.041-.509.083-.761.085.091.243.114.307-.026.184-.404.355-.804.554-1.184.272-.342.546-.684.816-1.027.114-.145.238-.291.346-.445.65-.525 1.451-.86 2.288-.866 1.034-.01 1.92.492 2.664 1.187.78.728 1.407 1.667 1.633 2.727.18.843.018 1.728-.358 2.532zm-.51.871c.085-.164.183-.323.3-.466-.093.16-.193.316-.3.466zm-2.54-7.981c-1.23-.252-2.518.068-3.507.846-.305.24-.602.532-.864.86-.88.603-1.279 1.697-1.45 2.727-.188 1.134-.069 2.264.453 3.294.99 1.957 3.431 3.425 5.618 2.847 1.118-.296 2.056-1.07 2.747-1.986.685-.907 1.214-2.056 1.234-3.214.021-1.247-.534-2.429-1.298-3.378-.732-.91-1.775-1.759-2.933-1.996zm5.6 25.015c-.07.121-.16.231-.258.332.03-.1-.096-.208-.186-.116-.165.168-.292.365-.415.565-.246.14-.508.254-.75.351-.081.032-.162.062-.243.09.118-.213.26-.41.459-.557.11-.08.008-.269-.11-.189-.327.225-.49.55-.705.864-.257.078-.519.143-.782.196.197-.325.453-.61.713-.89.092-.1-.05-.243-.148-.15-.35.333-.7.678-.924 1.106-.209.034-.418.062-.628.084.166-.314.452-.576.632-.878.07-.118-.107-.22-.18-.107-.228.349-.589.635-.762 1.014-.349.027-.698.04-1.047.043.23-.428.666-.796.972-1.12.084-.088-.045-.218-.133-.134-.267.253-.54.498-.784.775-.119.135-.264.3-.358.48-.103 0-.206-.002-.308-.004-.154-.003-.308-.008-.462-.015.008-.028.014-.059.023-.09.054-.18.187-.319.311-.452.238-.254.544-.467.74-.757.077-.113-.1-.21-.179-.106-.21.28-.542.473-.788.717-.16.158-.426.43-.344.677-.263-.013-.527-.03-.79-.052.138-.155.241-.372.343-.52.22-.322.462-.603.814-.777.11-.056.013-.215-.097-.167-.33.146-.582.38-.806.661-.103.13-.2.265-.298.399-.087.12-.208.239-.262.379-.13-.012-.259-.023-.388-.036-.134-.014-.281-.03-.422-.047.077-.104.168-.195.251-.295.285-.34.555-.683.859-1.008.075-.08-.04-.198-.12-.121-.315.3-.612.609-.898.939-.125.146-.272.284-.377.448l-.127-.018c-.23-.032-.46-.067-.69-.105.04-.038.075-.086.111-.126.088-.1.182-.194.27-.294.344-.39.66-.8 1.021-1.178.08-.083-.044-.209-.126-.128-.412.405-.79.838-1.193 1.247-.067.068-.321.281-.329.437-.269-.048-.537-.1-.804-.16.369-.542.859-.98 1.275-1.49.07-.084-.048-.207-.121-.122-.459.531-1.036.96-1.423 1.547-.105-.025-.208-.051-.31-.08-.113-.03-.231-.062-.353-.097.186-.328.493-.598.77-.842.234-.206.52-.42.634-.721.03-.078-.099-.133-.133-.058-.152.337-.543.53-.808.768-.25.222-.557.466-.707.78-.238-.073-.48-.161-.703-.274.096-.103.217-.196.29-.258.143-.12.295-.23.433-.356.383-.347.796-.654 1.16-1.026.068-.07-.037-.175-.107-.108-.44.425-.941.784-1.422 1.16-.146.114-.397.278-.558.473-.173-.108-.327-.233-.448-.385-.029-.037-.053-.074-.073-.111.2-.192.37-.491.514-.67.287-.356.576-.696.982-.917.057-.032.006-.12-.051-.089-.382.2-.705.496-.986.823-.145.169-.283.345-.426.515-.031.038-.066.074-.101.11-.009-.114.017-.237.078-.372.256-.557.786-.958 1.31-1.23.884-.46 1.868-.699 2.86-.877.182.005.365.003.547.004.532.003 1.062.021 1.593.051 1.049.06 2.105.148 3.149.272.433.051.848.156 1.275.25.686.154 1.409.305 2.006.702.5.334.907.822.556 1.421zm-.576-2.206c-.701-.339-1.465-.474-2.216-.643-.97-.218-2.007-.256-2.998-.256-.442 0-.89-.015-1.338-.027-.006-.056-.046-.111-.112-.11-1.568.019-3.208.223-4.67.837-.61.258-1.198.607-1.622 1.131-.256.316-.478.677-.457 1.102.04.81.866 1.291 1.517 1.576.863.377 1.801.576 2.724.736.907.156 1.824.252 2.741.31 1.612.104 3.276.086 4.843-.354 1.171-.328 3.164-1.132 3-2.686-.08-.77-.768-1.305-1.412-1.616zm1.148-17.019c.338-.193.562-.533.795-.837.254-.332.498-.669.783-.974.094-.1-.053-.25-.15-.152-.294.294-.559.614-.817.94-.239.302-.518.59-.7.932-.032.058.031.125.09.091zM11.033 28.086c-.565.237-1.006.736-1.369 1.213-.071.093-.253.258-.228.39.022.12.125.115.202.047.02-.018.016-.051-.002-.069.006-.009.017-.022.033-.04.044-.05.08-.111.118-.164.062-.082.114-.173.173-.255.283-.384.69-.802 1.121-1.007.063-.03.018-.143-.048-.115zm5.09-17.398c-.6.614-.89 1.385-1.282 2.133-.043.083-.624 1.192-.155 1.05.06-.019.093-.106.04-.152.041.036.014.042.043-.029.015-.036.024-.076.037-.113.042-.111.09-.22.141-.328.082-.171.17-.337.245-.513.286-.675.576-1.356 1.081-1.897.094-.1-.054-.25-.15-.15z" transform="translate(-6)"/>
    </g>
</svg>
