<svg xmlns="http://www.w3.org/2000/svg" width="29" height="27" viewBox="0 0 29 27">
    <g fill="none" fill-rule="evenodd">
        <path d="M0 0H32V32H0z" transform="translate(-2 -2)"/>
        <path fill="#D30000" d="M13.722 18.578c-.174.357-.612.61-1.01.565.234-.238.43-.517.651-.766.122-.136.248-.263.352-.406.092.184.11.398.007.607zm-1.333.45c-.018-.01-.034-.023-.05-.036.227-.136.378-.393.537-.599.19-.244.369-.504.576-.737.067.052.128.112.179.179-.142.198-.334.359-.496.54-.206.23-.436.459-.592.73-.053-.02-.105-.044-.154-.077zm-.309-.352c.22-.163.364-.422.527-.64.145-.191.291-.38.449-.56.1.019.197.057.286.108-.182.191-.346.404-.516.606l-.596.704c-.062-.065-.112-.139-.15-.218zm-.076-.439v-.008c.086-.14.158-.293.256-.42.168-.22.382-.35.65-.347-.135.144-.264.294-.386.45-.166.21-.368.422-.482.667-.035-.107-.049-.223-.038-.342zm.97-1.428c-.443-.022-.83.155-1.101.505-.112.143-.237.36-.3.58-.119.312-.149.67-.077.91.228.766 1.048 1.14 1.785.912.669-.207 1.257-.851 1.162-1.59-.095-.729-.747-1.28-1.469-1.317zm7.444 1.77c-.148.3-.482.527-.822.564.156-.158.3-.339.426-.51.079-.104.135-.229.204-.34.062-.1.137-.187.202-.283.076.175.085.374-.01.568zm-1.057.557c-.056-.01-.111-.026-.164-.048.144-.15.25-.375.346-.52.2-.306.431-.587.62-.9.065.053.124.113.173.18-.077.112-.176.2-.255.31-.107.147-.196.302-.314.44-.15.176-.302.338-.406.538zm-.481-.293c.181-.163.316-.456.426-.632.156-.25.34-.48.506-.72.08.02.155.052.226.093-.188.26-.407.495-.592.757-.148.21-.286.426-.424.642-.053-.042-.1-.089-.142-.14zm-.18-.606v-.008c.085-.14.158-.293.255-.42.164-.215.373-.345.634-.347-.138.156-.254.34-.363.502-.104.154-.204.312-.308.467-.046.07-.106.139-.157.212-.052-.125-.075-.263-.062-.406zm.97-1.428c-.443-.022-.83.155-1.102.505-.112.143-.236.36-.3.58-.12.312-.149.67-.077.91.228.766 1.048 1.14 1.785.912.668-.207 1.258-.851 1.161-1.59-.094-.729-.746-1.28-1.467-1.317zm-5.948 5.27c-.182.373-.65.632-1.061.558.252-.148.408-.388.59-.612.15-.189.311-.37.46-.561.095.186.115.403.011.616zm-1.142.539c-.066-.02-.13-.049-.19-.088-.045-.03-.086-.062-.124-.097.071-.071.124-.159.192-.235.095-.108.198-.207.293-.315.22-.25.426-.512.64-.768.09.058.17.13.234.214-.357.412-.74.792-1.04 1.255-.007.011-.008.023-.005.034zm-.518-.483c.01-.001.02-.004.028-.01.08-.067.121-.151.18-.237.091-.134.197-.259.304-.382.155-.177.313-.352.468-.53.075.012.148.035.218.067-.235.254-.464.513-.698.767-.118.127-.341.291-.42.475-.032-.047-.059-.098-.08-.15zm-.058-.396v-.008c.086-.14.158-.293.256-.42.168-.22.382-.351.651-.348-.176.18-.357.356-.525.543-.126.142-.32.328-.358.525-.025-.093-.033-.192-.024-.292zm.97-1.429c-.443-.022-.83.155-1.101.505-.112.144-.237.36-.3.58-.119.312-.149.67-.077.91.228.766 1.048 1.14 1.785.912.669-.206 1.257-.851 1.162-1.59-.095-.728-.747-1.28-1.469-1.317zm.748 5.271c-.143.293-.465.516-.797.561.086-.107.163-.224.243-.336.185-.261.4-.495.58-.759.062.167.063.353-.026.534zm-1.046.56c-.098-.016-.193-.05-.28-.106.188-.158.333-.385.48-.572.203-.259.407-.517.628-.76.065.056.12.12.166.19-.185.267-.414.493-.608.752-.125.167-.258.33-.386.495zm-.585-.442c.032-.046.065-.093.1-.138.127-.163.267-.314.4-.471.123-.143.242-.289.365-.43.043-.05.088-.112.137-.173.096.023.188.06.272.112-.215.237-.416.487-.616.738-.152.191-.346.384-.48.599-.074-.07-.134-.149-.178-.237zm-.087-.459v-.008c.086-.14.158-.293.256-.42.18-.236.413-.369.708-.344-.157.154-.301.32-.45.482-.149.164-.345.346-.499.546-.017-.082-.023-.169-.015-.256zm.97-1.428c-.443-.023-.83.154-1.101.504-.112.144-.237.36-.3.581-.119.311-.149.669-.077.91.228.766 1.048 1.139 1.785.912.669-.207 1.257-.852 1.162-1.59-.095-.729-.747-1.281-1.469-1.317zm7.444-1.732c-.171.348-.592.597-.983.567.159-.168.299-.354.44-.539.168-.222.343-.481.472-.742.144.205.194.463.07.714zm-1.333.45c-.035-.023-.067-.048-.098-.074.126-.18.237-.377.36-.549.204-.288.413-.573.62-.858.1.046.192.11.27.187-.066.097-.146.19-.208.287-.11.173-.225.336-.351.497-.151.192-.308.382-.45.582-.05-.018-.097-.042-.143-.072zm-.348-.45c.106-.144.201-.302.305-.438.173-.225.338-.46.52-.677.046-.003.092-.001.141.005.04.005.079.013.118.024-.207.257-.415.512-.612.777-.119.16-.26.332-.371.516-.043-.064-.077-.134-.101-.207zm-.038-.341l.001-.008c.085-.14.158-.293.255-.42.118-.155.26-.266.427-.317-.183.196-.356.402-.52.611l-.166.205c0-.023.001-.048.003-.071zm.97-1.429c-.442-.022-.83.155-1.101.505-.112.144-.236.36-.3.58-.12.312-.149.67-.077.91.228.766 1.048 1.14 1.785.912.668-.206 1.258-.851 1.161-1.59-.094-.728-.746-1.28-1.467-1.317zm-2.599 1.77c-.166.338-.57.583-.951.568.167-.176.303-.387.457-.572.166-.2.332-.396.488-.602.091.184.108.398.006.606zm-1.333.45c-.035-.023-.067-.048-.097-.074.175-.171.331-.378.479-.564.205-.259.396-.527.578-.803.103.06.196.14.269.23-.354.427-.784.813-1.062 1.291-.058-.02-.114-.046-.167-.08zm-.314-.365c.036-.05.07-.104.109-.155.11-.147.234-.284.356-.42.176-.197.341-.394.47-.62.072.01.143.03.211.056-.22.294-.45.586-.689.864-.12.138-.267.272-.365.43-.037-.048-.067-.1-.092-.155zm-.072-.426l.001-.008c.086-.14.158-.293.255-.42.155-.202.348-.33.586-.346-.16.222-.354.416-.542.617-.09.094-.205.207-.298.33-.006-.056-.007-.115-.002-.173zm.971-1.429c-.443-.022-.83.155-1.102.505-.111.144-.236.36-.3.58-.118.312-.148.67-.077.91.228.766 1.048 1.14 1.785.912.669-.206 1.258-.851 1.162-1.59-.095-.728-.747-1.28-1.468-1.317zm13.964-8.927c-.095.123-.489.174-.633.214l-.08.023c.038-.07.073-.142.11-.198.113-.171.238-.331.38-.479.098-.102-.056-.257-.155-.156-.15.152-.283.318-.404.494-.086.123-.215.269-.234.424-.214.058-.428.114-.646.155-.027.006-.055.01-.083.015l.013-.015c.033-.044.038-.063.06-.118.003-.01.003-.022 0-.032.152-.35.424-.622.63-.94.068-.104-.092-.193-.161-.096-.255.353-.628.659-.75 1.092-.018.064.01.111.053.133-.676.096-1.341.064-2.025-.002-.273-.026-.541-.066-.808-.114.047-.026.08-.064.075-.128-.002-.016-.007-.03-.015-.041.1-.214.285-.413.422-.596.213-.286.428-.57.644-.855.068-.09-.087-.212-.158-.123-.253.32-.515.633-.763.957-.153.201-.377.404-.43.66-.007.03-.002.06.01.085-.265-.052-.529-.113-.794-.177-.277-.068-.633-.143-.888-.32.015-.005.03-.012.042-.021.031-.026.038-.054.052-.093.002-.01.003-.018.001-.025.134-.329.387-.56.602-.84.298-.391.633-.752.928-1.147.064-.086-.083-.202-.15-.116-.338.437-.706.864-1.07 1.279-.201.228-.552.517-.535.853-.025-.027-.05-.055-.072-.086-.154-.219-.112-.55-.104-.8l.001-.047c.106.02.126-.091.16-.17.09-.208.228-.385.367-.563.36-.464.731-.915 1.103-1.371.077-.095-.055-.232-.137-.137-.362.421-.743.821-1.08 1.264-.12.156-.313.345-.42.55-.012-.199-.043-.394-.108-.602l-.064-.21c.103.022.131-.088.173-.16.103-.183.258-.33.394-.488.358-.415.758-.795 1.08-1.24.077-.105-.095-.2-.17-.1-.323.422-.723.778-1.08 1.17-.14.155-.406.373-.466.605-.087-.26-.189-.516-.33-.748.245-.13.44-.43.626-.628.227-.24.457-.476.687-.713.085-.087-.046-.22-.133-.134-.248.243-.495.486-.74.731-.176.177-.424.36-.544.587-.062-.085-.13-.165-.208-.24-.095-.093-.2-.175-.31-.246.043-.049.084-.097.128-.14.127-.125.258-.249.389-.37.305-.283.653-.549.912-.876.068-.085-.05-.208-.121-.122-.288.344-.674.612-1.006.91-.144.13-.367.29-.508.476-.244-.128-.508-.22-.773-.293l-.074-.02c.043-.053.082-.11.126-.162.112-.132.23-.26.346-.389.274-.302.581-.576.865-.868.076-.078-.04-.194-.118-.12-.311.3-.654.572-.945.893-.141.157-.405.362-.486.589-.232-.062-.464-.119-.697-.172.423-.461.841-.924 1.304-1.348.06-.056-.029-.144-.09-.09-.288.246-.572.504-.834.778-.172.18-.433.367-.507.613-.002.006-.002.012-.002.018-.29-.064-.582-.121-.875-.17.223-.097.38-.284.552-.452.215-.21.43-.42.64-.633.093-.095-.05-.239-.145-.146-.204.2-.413.397-.621.593-.182.17-.396.33-.495.566-.008.019-.004.045.008.062l-.05-.008c-.294-.047-.591-.09-.89-.123.156-.118.287-.301.415-.434.192-.2.389-.399.592-.589.089-.082-.043-.213-.132-.132-.205.187-.403.383-.598.583-.16.163-.397.338-.494.549-.32-.032-.642-.053-.964-.058.164-.147.3-.36.436-.514.208-.234.424-.46.64-.684.076-.08-.042-.2-.122-.123-.235.228-.47.456-.697.692-.17.178-.417.387-.498.63h-.061c-.277.006-.557.017-.837.039.16-.132.295-.322.436-.469.24-.25.506-.479.752-.725.09-.09-.05-.229-.14-.14-.264.262-.55.504-.806.773-.15.158-.388.32-.402.554 0 .007 0 .013.003.019l-.013.001h-.03c-.262.007-.525.024-.788.046.121-.117.23-.253.341-.368.206-.213.414-.422.621-.632.092-.092-.05-.235-.142-.143-.22.22-.439.44-.655.664-.154.158-.335.312-.448.505-.18.016-.358.034-.537.052l-.26.028c.08-.093.156-.187.23-.267.23-.25.438-.522.717-.722.097-.07.004-.231-.094-.161-.27.19-.478.439-.698.682-.148.165-.338.325-.487.506l-.758.09-.085.01c.078-.097.155-.195.235-.287.238-.277.468-.56.723-.822.08-.082-.045-.207-.124-.125-.279.284-.53.594-.79.895-.104.12-.215.24-.318.366-.193.018-.39.037-.584.069.044-.073.085-.143.128-.203.113-.162.238-.314.354-.474.125-.17.248-.415.441-.509.047-.022.026-.105-.026-.1-.138.015-.209.085-.3.187-.16.178-.301.379-.45.567-.13.164-.247.337-.366.51-.018.025-.036.051-.056.076-.278.068-.54.173-.76.354-.528.434-.689 1.144-.82 1.784-.012.005-.023.012-.034.023-.314.318-.606.655-.879 1.01-.246.321-.544.667-.675 1.057-.018.054.053.087.091.052.292-.266.49-.642.726-.956.224-.296.462-.58.715-.85-.033.268-.045.535-.057.81l-.006.115c-.105.17-.216.336-.329.502-.07.103-.15.205-.218.313-.168.078-.35.144-.533.206-.554.186-1.124.32-1.7.412-1.524.243-3.109.16-4.504-.541-.015-.008-.03-.014-.045-.02.025-1.192.213-2.329.738-3.418.526-1.09 1.28-2.085 2.226-2.84 1.818-1.45 4.182-1.899 6.444-2.02 1.454-.079 2.917-.087 4.373-.106 1.514-.02 3.031-.001 4.54.138 2.205.204 4.586.443 6.528 1.6 1.16.692 2.002 1.717 2.468 2.99.244.667.393 1.368.462 2.075.035.351.053.704.058 1.056.002.177.001.355-.001.531-.001.087.01.205.01.316-.007.007-.014.014-.02.023zm-20.69-.602c.008-.011-.024.013-.058.038.015-.026.031-.052.048-.077.053-.084.105-.17.157-.256-.029.11-.073.212-.147.295zm21.394-.488c-.025-.674-.1-1.349-.244-2.007-.282-1.285-.858-2.566-1.81-3.491-1.761-1.715-4.323-2.214-6.67-2.495-1.474-.177-2.95-.281-4.435-.297-1.63-.017-3.26.041-4.888.08-2.47.056-5.123.353-7.235 1.753-1.197.794-2.166 1.917-2.83 3.191-.613 1.177-1.147 2.731-.727 4.055-.176.127-.23.414.015.56 1.2.719 2.726.847 4.09.738 1.126-.09 2.288-.316 3.317-.797.381-.18.648-.385.788-.805.122-.365.105-.76.119-1.14.012-.338.085-.677.165-1.006.078-.316.18-.65.396-.9.238-.276.637-.342.979-.397.485-.078.975-.136 1.46-.213.594-.093 1.19-.178 1.785-.26l.102-.012c.41-.004.82-.017 1.23-.01.736.01 1.484.11 2.209.233.729.124 1.447.295 2.159.492.445.123.908.293 1.187.685.176.248.248.535.339.821.05.157.102.313.14.473.05.203.038.395.027.602-.032.624.002 1.212.531 1.615.372.282.84.402 1.287.508.627.149 1.242.267 1.885.328.861.083 1.695.096 2.547-.082.398-.083.803-.193 1.19-.322.145-.05.297-.097.432-.17.405-.018.447-.324.46-.669.013-.354.014-.708 0-1.061zM20.418 25.58c-.214.436-.822.717-1.27.487.17-.147.281-.427.404-.586.208-.268.43-.522.613-.809.094.075.173.167.23.269-.105.143-.212.284-.319.425-.156.208-.331.418-.407.67-.017.059.054.09.095.056.2-.17.34-.408.488-.623.074-.107.148-.214.22-.322.03.138.017.287-.054.433zm-1.551.248c.153-.208.259-.48.39-.695.141-.228.276-.454.438-.663h.008c.119.016.235.057.34.119-.2.3-.449.56-.673.84-.12.151-.291.342-.373.536-.049-.042-.092-.087-.13-.137zm-.168-.589l.001-.008c.085-.14.158-.293.255-.42.155-.204.35-.33.592-.346-.15.168-.274.357-.4.551-.12.187-.3.404-.384.631-.054-.125-.077-.265-.064-.408zm.97-1.428c-.442-.023-.83.154-1.101.504-.112.144-.236.36-.3.581-.12.311-.149.669-.077.91.228.766 1.048 1.139 1.785.912.668-.207 1.258-.852 1.161-1.59-.094-.729-.746-1.281-1.467-1.317zm-2.599-5.234c-.186.38-.668.64-1.085.553.24-.22.443-.484.68-.706.14-.132.294-.253.426-.391.066.17.07.359-.02.544zm-1.333.45c-.043-.027-.082-.058-.118-.092.131-.14.257-.299.364-.44.18-.243.389-.445.6-.66.062-.062-.032-.157-.096-.097-.207.2-.418.385-.597.61-.115.144-.28.282-.397.441-.025-.037-.047-.076-.066-.116.02-.04.038-.078.06-.114.102-.163.226-.311.352-.456.187-.214.389-.415.583-.624.245.052.472.212.602.42-.164.176-.377.315-.547.475-.23.217-.46.45-.67.693-.024-.012-.047-.025-.07-.04zm-.386-.79l.001-.009c.086-.14.158-.293.255-.42.177-.232.406-.364.694-.345-.235.208-.472.416-.681.652-.076.085-.179.196-.264.316-.008-.063-.01-.128-.005-.195zm.971-1.429c-.443-.022-.83.155-1.102.505-.111.143-.236.36-.3.58-.118.312-.148.67-.077.91.228.766 1.048 1.14 1.785.912.669-.207 1.258-.851 1.162-1.59-.095-.729-.747-1.28-1.468-1.317zm10.22 10.415c.413-.445.715-1.006 1.07-1.497.263-.362.527-.722.793-1.081-.004.301-.005.603-.004.904-.195.294-.435.563-.631.855-.293.435-.701.913-.817 1.435-.013.057.057.106.101.06.181-.191.303-.425.44-.648.161-.262.328-.52.496-.777.13-.2.276-.39.413-.586.001.213.002.425.001.637-.161.303-.348.588-.55.864-.186.25-.418.498-.528.792-.917-.038-1.839.007-2.757.022-1.072.016-2.143.029-3.215.039-2.55.025-5.101.042-7.652.056-1.96.011-3.92.02-5.879.026-.684.002-1.37.032-2.034-.166-1.857-.55-1.698-2.876-1.37-4.395.387-1.792 1.358-3.363 2.472-4.79.587-.752 1.188-1.498 1.802-2.228.631-.75 1.309-1.53 2.07-2.15.261-.212.557-.379.872-.493.08.335.253.635.576.845.47.304 1.111.305 1.612.084.138-.061.255-.135.355-.22.014.012.034.017.051.003.173-.13.31-.35.447-.518.147-.179.277-.378.395-.58.096.012.192.02.287.028l.149.011c-.113.12-.23.235-.336.364-.18.218-.41.464-.472.75-.005.024.012.057.041.053.11-.01.139-.045.204-.137.112-.158.217-.321.337-.476.144-.188.308-.357.455-.54.16.009.32.015.48.018-.14.16-.277.325-.42.484-.144.16-.405.342-.388.581.003.04.046.073.084.048.101-.065.146-.158.224-.252.089-.108.19-.203.278-.311.148-.183.292-.368.445-.546.148 0 .296-.001.444-.006-.11.11-.208.23-.315.346-.185.203-.428.422-.537.677-.038.088.06.18.138.107.375-.326.595-.823.986-1.14l.287-.011c-.18.19-.347.392-.526.582-.118.126-.298.264-.327.445-.016.1.104.157.164.069.11-.163.26-.301.391-.447.183-.203.34-.427.527-.627.01-.01.016-.021.02-.032.116-.004.232-.008.348-.01l.008.095c-.203.18-.343.41-.533.6-.144.144-.33.287-.383.493-.009.034-.001.079.027.102l.01.008c.024.021.06.038.093.025l.018-.007c.041-.016.06-.049.053-.093.004.024.084-.09.09-.098.03-.04.06-.077.094-.115.07-.078.15-.149.22-.23.122-.144.226-.3.351-.44.034.144.083.283.155.41-.07.07-.14.138-.207.21-.107.117-.244.26-.208.431.007.034.046.044.073.03.142-.07.232-.245.336-.36l.125-.136c.083.104.183.197.307.278.47.304 1.111.305 1.612.084.162-.072.297-.162.408-.266l-.022.03c-.216.296-.524.68-.566 1.054-.004.037.049.068.079.045.128-.1.168-.234.242-.375.1-.191.222-.38.34-.56.159-.239.308-.486.471-.723.133.108.276.206.423.3-.164.262-.357.505-.54.754-.117.159-.289.305-.26.518.004.03.049.046.072.03.165-.115.288-.33.4-.496.16-.237.324-.47.46-.723.13.08.26.157.39.235-.171.214-.35.422-.511.643-.142.194-.41.445-.388.701.004.038.044.07.08.047.213-.14.358-.427.497-.636.152-.226.32-.44.482-.657.087.054.173.11.256.167.058.04.116.081.172.123-.165.179-.3.38-.443.58-.142.2-.393.412-.394.673 0 .069.078.09.125.052.175-.144.316-.386.442-.574.14-.208.266-.421.427-.61.129.1.255.206.378.314l-.485.62c-.16.203-.372.414-.437.668-.01.045.038.084.079.06.226-.128.375-.391.527-.597l.46-.621c.09.082.18.167.268.253-.145.192-.289.385-.425.583-.158.23-.315.458-.35.74-.008.052.064.07.096.04.208-.195.335-.462.487-.7.111-.173.229-.344.347-.513l.133.133.154.16c-.096.14-.19.281-.279.428-.181.296-.455.575-.525.924-.01.045.042.078.077.045.221-.205.376-.497.537-.75.083-.133.153-.273.233-.408.02-.033.04-.08.063-.128.121.13.24.262.356.395-.16.263-.364.49-.54.74-.138.2-.354.406-.383.657-.004.037.045.061.074.043.216-.14.356-.381.497-.59.16-.235.334-.457.477-.703.094.111.186.224.277.337-.29.54-.835.971-1.005 1.572-.014.047.038.08.078.06.273-.136.393-.473.555-.715.168-.254.36-.486.5-.756.119.151.235.304.35.458-.199.234-.395.471-.58.718-.184.247-.425.525-.461.841-.007.062.073.078.11.047.224-.188.352-.495.517-.734.168-.244.35-.48.534-.711.12.162.237.325.355.49-.192.236-.369.482-.54.734-.167.248-.364.49-.458.778-.014.045.045.096.085.066.211-.162.34-.386.485-.607.177-.27.357-.538.555-.792l.226.32.094.133c-.437.655-.97 1.252-1.233 2.01-.02.058.06.102.101.06.273-.287.455-.64.66-.975.19-.308.412-.594.612-.895.114.162.227.326.338.492-.293.268-.49.653-.67.998-.235.451-.522.898-.707 1.374-.018.046.048.077.079.046.327-.325.529-.779.73-1.187.182-.368.355-.819.628-1.141.157.236.31.475.454.72-.095.134-.206.26-.302.387-.177.234-.352.465-.505.716-.307.501-.652 1.014-.89 1.552-.02.046.032.094.072.056.428-.411.695-.998.998-1.501.151-.251.317-.49.485-.73.074-.104.157-.215.229-.33.084.148.164.297.24.448-.136.196-.302.383-.431.57-.208.296-.402.601-.602.903-.36.544-.78 1.105-1 1.725-.015.045.052.086.083.048.426-.525.748-1.148 1.119-1.713.199-.303.387-.612.587-.914.1-.152.216-.304.319-.462.09.19.173.386.247.584-.275.55-.715 1.02-1.02 1.556-.323.57-.706 1.129-.98 1.724-.02.046.036.1.075.058.438-.465.741-1.084 1.05-1.638.284-.509.68-.974.947-1.492.02.058.038.115.056.173.05.171.09.343.122.516-.055.07-.12.134-.175.2-.125.147-.243.302-.362.455-.213.274-.431.541-.636.82-.413.564-.914 1.195-1.082 1.888-.01.043.049.088.08.048.231-.292.413-.628.614-.94.216-.337.442-.666.68-.988.229-.31.466-.615.697-.923.067-.088.15-.181.228-.28.04.307.055.617.055.93-.33.423-.665.841-.984 1.272-.355.48-.778.983-.976 1.552-.019.054.057.096.095.056zm1.39.768c-.125.085-.263.143-.408.184.194-.18.345-.42.491-.634.137-.2.265-.408.383-.62-.02.411-.103.82-.466 1.07zM12.154 11.988c.006-.19.03-.39.085-.575l.008-.017c.119-.221.274-.382.526-.424.14-.023.288-.026.434-.023l-.019.019c-.13.131-.333.342-.368.524-.01.05.037.083.082.063.189-.088.297-.365.442-.513.027-.028.056-.055.085-.082l.023.002c.162.01.287.058.384.133-.325.316-.711.578-.96.966-.022.032.02.076.054.054.269-.175.472-.428.7-.653.098-.096.2-.187.296-.283.087.102.144.231.18.373-.452.422-.951.83-1.3 1.335-.021.03.02.073.05.052.474-.328.885-.77 1.287-1.192.02.136.026.278.028.412v.121c-.445.432-.96.827-1.329 1.325-.022.03.02.07.05.051.478-.3.882-.736 1.276-1.146l-.013.452c-.443.324-.854.758-1.207 1.167-.036.042.008.096.057.075.462-.208.77-.66 1.148-1 .003.338.017.724-.183 1-.238.33-.721.449-1.103.378-.47-.088-.698-.448-.711-.907-.018-.56-.02-1.126-.002-1.687zm2.57 1.657c.069.023.14.04.214.052-.1.117-.195.237-.293.355.036-.13.062-.267.079-.407zm3.887-1.657c.006-.19.03-.39.085-.575l.008-.017c.12-.221.274-.382.526-.424.203-.033.425-.026.632-.014-.038.051-.075.102-.115.15-.085.099-.213.183-.268.304-.014.033.004.063.04.068.225.03.41-.295.521-.452l.032-.041c.11.03.197.08.268.148-.116.085-.239.163-.342.255-.181.162-.431.322-.498.568-.012.045.04.092.083.064.223-.153.41-.371.61-.555.079-.073.166-.138.25-.205.07.111.114.245.141.388-.145.124-.295.243-.443.364-.208.17-.438.334-.564.576-.027.052.026.103.077.078.24-.121.436-.325.64-.5.108-.094.215-.19.321-.287.008.093.011.187.013.278-.2.207-.413.4-.634.585-.207.173-.45.331-.591.567-.022.036.015.092.058.076.248-.094.45-.29.649-.463.178-.155.352-.316.517-.484-.004.196-.013.393-.016.59-.151.133-.308.26-.465.387-.198.16-.402.314-.529.54-.026.046.025.095.07.07.225-.121.41-.3.604-.465.107-.092.214-.184.32-.279 0 .098.001.2-.004.3-.137.107-.264.229-.397.342-.159.134-.332.268-.47.424-.025.028-.002.083.04.068.29-.106.577-.342.799-.59-.026.138-.071.266-.152.378-.238.33-.721.448-1.103.377-.47-.088-.698-.448-.711-.907-.018-.56-.02-1.126-.002-1.687zm2.473 2.123c.02.019.042.037.063.055-.052.053-.102.11-.149.168.033-.071.062-.146.086-.223zm7.974 9.356c-.15-1.42-.868-2.69-1.66-3.846-.756-1.107-1.525-2.233-2.438-3.217-.513-.552-1.067-1.066-1.676-1.509-.353-.256-.735-.462-1.12-.662-.325-.169-.653-.343-1.005-.442.077-.455.051-.957.058-1.408.01-.77-.106-1.822-1.036-1.975-.382-.063-.827-.032-1.196.133-.217.057-.386.21-.516.4-.239.316-.39.768-.383 1.197-.033.319-.033.644-.04.964-.011.002-.023.005-.035.01-.569.01-1.138.045-1.707.058-.3.007-.598.012-.898 0-.219-.008-.441-.02-.651.034.008-.278.001-.558.005-.82.01-.77-.106-1.823-1.036-1.976-.381-.063-.827-.032-1.196.133-.217.057-.386.21-.516.4-.238.316-.39.768-.383 1.197-.043.422-.03.856-.049 1.272-.003.076-.004.151-.003.226-.32.066-.624.178-.907.356-.417.263-.785.62-1.14.96-.747.718-1.428 1.504-2.073 2.316-1.171 1.476-2.384 2.906-3.125 4.662-.367.871-.589 1.774-.708 2.71-.116.914-.108 1.877.286 2.727.59 1.275 1.928 1.636 3.225 1.633 1.713-.003 3.426-.012 5.139-.02 2.624-.013 5.247-.03 7.872-.053 2.036-.017 4.074-.029 6.111-.084.203-.006.406-.007.609-.009.176.01.354.007.528-.013h.02c.028-.002.053-.007.078-.013.716-.109 1.353-.501 1.532-1.297.135-.597.075-1.24.06-1.845-.02-.734.052-1.467-.026-2.2zM17.07 25.58c-.167.34-.575.587-.958.569.178-.195.332-.417.491-.622.151-.195.299-.393.437-.597.111.193.14.424.03.65zm-1.333.45c-.03-.02-.06-.042-.087-.065.197-.152.324-.435.476-.615.204-.243.4-.494.591-.749.082.05.155.112.218.182-.186.26-.386.508-.588.755-.152.185-.314.368-.432.576-.062-.02-.122-.047-.178-.084zm-.34-.428c.013-.023.026-.046.041-.067.095-.138.204-.27.307-.402.172-.221.337-.449.51-.67.033.001.066.003.1.007.073.01.146.03.215.057-.198.248-.403.491-.61.732-.148.171-.32.375-.424.59-.06-.075-.107-.158-.14-.247zm-.046-.363l.001-.008c.086-.14.158-.293.255-.42.125-.164.275-.277.454-.323-.18.214-.353.435-.526.654-.051.065-.12.14-.186.22-.002-.04-.001-.081.002-.123zm.971-1.428c-.443-.023-.83.154-1.102.504-.111.144-.236.36-.3.581-.118.311-.148.669-.077.91.228.766 1.048 1.139 1.785.912.669-.207 1.258-.852 1.162-1.59-.095-.729-.747-1.281-1.468-1.317zm11.86-13.142c-.163.24-.313.504-.517.71-.124.125-.264.266-.256.455.003.092.123.155.19.08.046-.051.05-.056.079-.122.008-.017.008-.035.002-.052.067-.12.17-.202.26-.316.157-.2.28-.438.419-.652.07-.111-.103-.21-.176-.103zM10.184 7.263c-.417.597-.908 1.142-1.376 1.7-.215.255-.417.52-.619.787-.212.28-.463.553-.623.867-.026.053.033.132.091.09.26-.19.445-.47.636-.727.237-.318.475-.635.727-.943.45-.551.925-1.09 1.33-1.676.071-.103-.095-.2-.166-.098zm17.269 3.21c-.192.196-.353.418-.514.64-.146.2-.312.417-.387.655-.018.055.02.134.081.143.063.01.1.016.146-.033.02-.02.023-.05.01-.075-.044-.078.287-.513.333-.582.145-.212.292-.422.468-.61.086-.091-.05-.228-.137-.138zm-1.911-.7c-.283.388-.616.729-.92 1.097-.103.123-.398.409-.21.572.054.046.157.036.173-.046.044-.225.26-.427.402-.596.254-.3.505-.6.728-.925.074-.107-.098-.204-.173-.102zM8.482 8.355c.494-.625.946-1.29 1.52-1.847.076-.073-.039-.188-.115-.116-.6.57-1.107 1.246-1.617 1.896-.26.333-.505.676-.749 1.02-.23.328-.52.665-.67 1.039-.025.062.06.091.1.058.297-.245.51-.63.73-.944.259-.373.52-.748.801-1.106zM7.204 7.83c.2-.278.397-.557.631-.807.043-.046-.024-.113-.068-.069-.206.208-.386.435-.563.667-.184.24-.443.479-.577.75-.017.032.016.067.05.05.226-.122.38-.386.527-.59zm.566.188c.323-.401.643-.805.904-1.25.04-.067-.062-.125-.103-.06-.303.477-.675.901-1.04 1.331-.29.343-.698.753-.82 1.196-.015.054.055.096.094.055.16-.166.274-.378.41-.565.177-.242.366-.474.555-.707z" transform="translate(-2 -2)"/>
    </g>
</svg>
