<?xml version="1.0" encoding="UTF-8"?>
<svg width="32px" height="32px" viewBox="0 0 32 32" version="1.1" xmlns="http://www.w3.org/2000/svg" xmlns:xlink="http://www.w3.org/1999/xlink">
    <!-- Generator: Sketch 62 (91390) - https://sketch.com -->
    <title>32icon-pin-red</title>
    <desc>Created with Sketch.</desc>
    <g id="32icon-pin-red" stroke="none" stroke-width="1" fill="none" fill-rule="evenodd">
        <g id="Group">
            <g>
                <rect id="Rectangle" x="0" y="0" width="32" height="32"></rect>
                <path d="M25.1355915,10.9340315 C24.7670199,11.2951281 24.3695407,11.6251166 23.9708571,11.9532753 C23.5233919,12.3223013 22.951865,12.6943771 22.6513467,13.203694 C22.6212347,13.2555407 22.6814588,13.3153168 22.7319868,13.2854287 C23.2414828,12.9847183 23.6787701,12.4979699 24.1292465,12.1130849 C24.4688503,11.8227438 24.7995409,11.5256931 25.1102974,11.2060738 C25.0663338,11.6153572 24.9988828,12.0228108 24.9097511,12.4278244 C24.5164876,12.818809 24.0798627,13.1597769 23.6348065,13.4897654 C23.1819212,13.8252436 22.6706184,14.1320537 22.2978311,14.5626857 C22.2520608,14.6151423 22.3086715,14.6938272 22.3719068,14.6596694 C22.9048902,14.3717681 23.3927056,13.9704142 23.873836,13.6026081 C24.2075379,13.3476447 24.5285324,13.0768223 24.8266418,12.7828214 C24.7640087,13.0335151 24.6941487,13.2835988 24.6170016,13.5324627 C24.5809274,13.6489651 24.542384,13.7642476 24.5038405,13.8795301 C24.1930841,14.0991158 23.9226778,14.3766478 23.6245684,14.620022 C23.0777335,15.0652931 22.4489335,15.3653936 22.020198,15.9491256 C21.9858702,15.9954826 22.0533212,16.0619683 22.0990916,16.0290304 C22.6248481,15.650855 23.1620472,15.2757294 23.6769634,14.8829149 C23.9262912,14.6932172 24.1424958,14.4608223 24.3737564,14.2497761 C24.2515015,14.5852543 24.1178039,14.9152428 23.9744705,15.2403517 C23.5637421,15.5807096 23.1283217,15.8905694 22.6935036,16.1979895 C22.1478129,16.5847043 21.5480409,16.9622698 21.1216542,17.4886656 C21.078895,17.5411222 21.1336388,17.6326162 21.198741,17.5893091 C21.796104,17.1940547 22.3610665,16.7390243 22.939218,16.3144919 C23.2246803,16.1046655 23.5071314,15.8911794 23.7799466,15.666104 C23.6522715,15.9357065 23.5179717,16.2016492 23.3769871,16.4639322 C22.8674911,16.8097797 22.4284573,17.2379719 21.9322708,17.6076079 C21.3673686,18.0284805 20.7639229,18.4023862 20.3194689,18.9635498 C20.2803233,19.0129565 20.3387407,19.0709028 20.3875222,19.0324753 C20.9583866,18.5835445 21.5486431,18.1577921 22.1171588,17.7082513 C22.4935595,17.4105907 22.8326213,17.0799922 23.2017951,16.7829415 C22.8573132,17.3953417 22.4791057,17.9894431 22.0719907,18.5646357 C21.6251278,18.8781553 21.1866962,19.2038741 20.7512758,19.5338627 C20.1243428,20.0096318 19.4660932,20.4561228 18.8698745,20.9721492 C18.8210929,21.0142365 18.8831238,21.0849919 18.9355188,21.0581537 C19.6425499,20.6909575 20.2706874,20.1670016 20.9042451,19.6857428 C21.1656178,19.4862858 21.4269904,19.2868288 21.6889653,19.0885916 C21.3890492,19.4875057 21.0764861,19.8772704 20.7524201,20.2578857 C20.3393429,20.4567327 19.9870318,20.7824516 19.5991885,21.0252158 C19.0065832,21.3960717 18.4699863,21.8565918 17.8888236,22.2469664 C17.8442578,22.2774644 17.8713586,22.3628589 17.9279693,22.3409003 C18.5458687,22.099966 19.0360328,21.6461554 19.5775078,21.2752995 C19.8509253,21.0874318 20.1237406,20.8519871 20.4116118,20.6494802 C19.9761915,21.1404983 19.5245106,21.6156574 19.0589782,22.0749576 C18.4187958,22.2969832 17.8502802,22.7032168 17.28056,23.0637033 C16.7084309,23.4254098 16.0537948,23.7261203 15.6213856,24.268985 C15.5894669,24.3086324 15.632226,24.3848775 15.6809473,24.3476699 C15.8357835,24.2287276 15.9947752,24.1177148 16.1555736,24.0091419 C15.8664376,24.253736 15.5858534,24.514799 15.3118337,24.7746422 C13.8754885,23.160687 12.4216181,21.5699104 11.135231,19.8242038 C10.4282601,18.8641262 9.77362398,17.8705008 9.12802146,16.8677259 C8.50229289,15.8948392 7.933175,14.8737655 7.50076584,13.7971855 C7.06474325,12.7102361 6.71122768,11.5256931 6.67449097,10.3454198 C6.63889852,9.19564447 6.8563678,8.05501859 7.26649403,6.98453815 C8.02230669,5.00948649 9.49291938,3.29732774 11.2611596,2.17988036 C12.5210482,1.38388208 13.9519732,0.895913788 15.4225858,0.79954005 C15.3606152,0.895303827 15.2371558,1.10086047 15.3497749,1.19357445 C15.3666376,1.20760353 15.3907273,1.21492306 15.4106012,1.20150393 C15.4569738,1.17100591 15.4611895,1.1496573 15.4738366,1.09781067 C15.4943128,1.00997638 15.5244248,0.931291489 15.5701951,0.853216562 C15.5833842,0.831257989 15.5978982,0.810519337 15.6117498,0.789170724 C15.8393969,0.779411358 16.0670441,0.778801398 16.2958957,0.788560764 C16.1561758,0.953860022 16.0357276,1.13806805 15.93696,1.29299799 C15.8899852,1.36680319 15.9676743,1.44609804 16.042292,1.43145899 C16.1061898,1.41864982 16.1621982,1.40645061 16.2212178,1.38022232 C16.2513299,1.36741315 16.2513299,1.31312668 16.2212178,1.30031751 C16.2037528,1.29238803 16.1862879,1.28628842 16.1688229,1.28079878 C16.2489209,1.15819674 16.3254056,1.03315487 16.4084546,0.912382718 C16.433809,0.875785096 16.4609098,0.837357593 16.4886129,0.79893009 C16.5969561,0.806249614 16.706022,0.814789059 16.8144254,0.826378306 C16.9348736,0.839187474 17.0553218,0.855046443 17.1751678,0.873955215 C17.0739311,0.989237724 16.9842574,1.1142796 16.9077728,1.22468242 C16.8547755,1.30153743 16.5127026,1.87551013 16.8306859,1.85721132 C16.8571845,1.8559914 16.8794674,1.84013243 16.8872966,1.81390414 C16.9493274,1.61017738 16.9987112,1.44426816 17.1215684,1.26128005 C17.1914284,1.15636686 17.2799578,1.02400546 17.3822786,0.909332916 C17.6262465,0.953860022 17.8683474,1.01058634 18.1080394,1.07768198 C17.8304062,1.39791117 17.5509663,1.74497862 17.5292856,2.16402139 C17.52507,2.23782659 17.6057703,2.29699275 17.6738235,2.27564413 C17.775,2.24453615 17.8249861,2.19634929 17.8719609,2.10058551 C17.897255,2.04873888 17.8466667,2.00055201 17.7960785,2.0237305 C17.7887914,2.02983011 17.7816247,2.03409983 17.7737956,2.03836955 C17.8364286,1.70472123 18.069496,1.40706057 18.291723,1.13135849 C18.5114808,1.19845413 18.7283478,1.27408921 18.9427456,1.35826374 C18.7379837,1.55711082 18.5374373,1.76327743 18.3826614,2.00543169 C18.2622131,2.19390944 18.0785296,2.53365737 18.217045,2.74775346 C18.2471571,2.7947204 18.3031655,2.7886208 18.3344821,2.74775346 C18.4013308,2.65991916 18.4001264,2.56903507 18.4278295,2.46473185 C18.4669751,2.31651148 18.5380396,2.17805048 18.6187399,2.04873888 C18.7602063,1.82244358 18.9427456,1.62542638 19.1246225,1.43206895 C19.3799727,1.53820205 19.6305051,1.65653436 19.8762194,1.78462604 C19.4811492,2.1884198 19.0812009,2.67150841 18.9764712,3.2302321 C18.9583437,3.32599588 19.0294684,3.38821184 19.1198045,3.37540267 C19.2577178,3.3564939 19.3287822,3.30891699 19.4064713,3.19790421 C19.4329699,3.16008666 19.3884041,3.10092051 19.345645,3.11738944 C19.3089083,3.13141853 19.2745203,3.13873805 19.240855,3.14300777 C19.3865974,2.662359 19.7124098,2.24453615 20.0484604,1.87734002 C20.2736986,2.00055201 20.4947211,2.13291341 20.7097212,2.27320429 C20.5012855,2.48120078 20.3158555,2.72457496 20.1484324,2.94782046 C19.9810094,3.17106595 19.5714854,3.66879361 19.8165373,3.95242518 C19.8840486,4.03111006 20.0026901,3.94693553 19.9804072,3.85544148 C19.9141004,3.58095931 20.279721,3.15581694 20.4212477,2.9563599 C20.554343,2.76788215 20.7018921,2.55866574 20.8680504,2.37872744 C21.0644413,2.51230876 21.2565562,2.65198968 21.4425885,2.79716025 C21.4065142,2.79289052 21.3697775,2.80630965 21.3522523,2.84534711 C21.136108,3.32050624 20.721766,3.66086412 20.4754494,4.11711448 C20.4248611,4.21043841 20.3242869,4.33182052 20.3790908,4.44527315 C20.4188387,4.52700784 20.4893009,4.54286681 20.5645811,4.50321939 C20.5952954,4.48736042 20.5989088,4.4507628 20.5843948,4.42270462 C20.586864,4.41904486 20.5892128,4.41477513 20.5916217,4.40989545 C20.6007156,4.3952564 20.6097492,4.38061735 20.619385,4.3659783 C20.6519061,4.32206116 20.6795489,4.27021453 20.7061078,4.22263762 C20.7843991,4.07990689 20.8608837,3.94327577 20.9583866,3.81213429 C21.1728447,3.52301308 21.3944694,3.26012016 21.5329247,2.92220212 C21.5401515,2.90451327 21.540814,2.88743438 21.5365983,2.87218537 C21.6937833,2.99844717 21.8473548,3.12775876 21.9961083,3.26195004 C22.0653661,3.32355604 22.1334193,3.38760188 22.2008703,3.45164772 C21.7064303,3.90667815 21.1330967,4.39769624 20.9518222,5.05645344 C20.9271303,5.14733753 21.0155995,5.25164075 21.1102116,5.21748297 C21.2113881,5.18088535 21.2643853,5.1308686 21.3077467,5.03022514 C21.320996,4.99972712 21.3070842,4.95337014 21.2770324,4.94117093 C21.5179288,4.41477513 21.932873,3.99451244 22.3327611,3.57973939 C22.5464965,3.79017572 22.751921,4.00915149 22.9457824,4.23727667 C22.6217767,4.53249748 22.2773549,4.80880953 21.9997218,5.14977737 C21.7912861,5.40596073 21.458307,5.88294973 21.6504219,6.22330762 C21.6769205,6.27027456 21.7389514,6.26478492 21.7666544,6.22330762 C21.8780691,6.05434859 21.8919206,5.8372027 21.982859,5.65543452 C22.0774109,5.46695676 22.2080972,5.2955579 22.3442037,5.13696821 C22.5712486,4.87346533 22.8284056,4.63924055 23.0747222,4.39464644 C23.2301005,4.58434412 23.3782518,4.78014139 23.518574,4.98142831 C23.4920754,4.97837851 23.4649745,4.98813788 23.4408849,5.01619605 C23.0602685,5.47549621 22.6134055,5.89636886 22.3062625,6.41300529 C22.2056883,6.58257427 21.8997497,6.91805247 21.9767764,7.13336848 C21.9943016,7.18338523 22.0485033,7.21144341 22.0966826,7.18277527 C22.3044558,7.06017324 22.412257,6.77166198 22.5284895,6.56793522 C22.8199742,6.05678844 23.2307027,5.62920622 23.5890362,5.1662463 C23.6016833,5.15038733 23.6083079,5.13330844 23.6113191,5.11683951 C23.7841623,5.37363283 23.945563,5.63835563 24.0925098,5.91100791 C24.0593865,5.8957589 24.0190364,5.89819874 23.9846484,5.93296648 C23.6890082,6.23550682 23.4523275,6.58867387 23.2096243,6.9345214 C23.0789379,7.12116927 22.9470471,7.30720718 22.7952823,7.47738613 C22.6730274,7.61401725 22.4929573,7.72442007 22.4411043,7.90496834 C22.4255063,7.95803489 22.4676632,8.01232137 22.5212626,8.01232137 C22.8567109,8.01171141 23.1415108,7.50666422 23.3108008,7.25841036 C23.5806048,6.86193612 23.8022296,6.43191406 24.1292465,6.07935697 C24.1437003,6.06471792 24.1515294,6.04824899 24.1551429,6.03178006 C24.2737844,6.25929528 24.3833321,6.49230014 24.4827621,6.72957472 C24.4671038,6.73384444 24.4508433,6.74177393 24.4363293,6.75641297 C24.0467395,7.14495773 23.6727477,7.55241125 23.3342882,7.98731299 C23.0530416,8.34840953 22.6176212,8.81563917 22.5369209,9.27920904 C22.5224671,9.36033377 22.6049741,9.40425092 22.6664027,9.35545409 C22.8446661,9.21638313 22.9560807,9.002897 23.0801424,8.81502921 C23.2294982,8.58995383 23.3818652,8.3673183 23.5414591,8.14956245 C23.8570335,7.71832047 24.1948908,7.31025699 24.5616557,6.92354212 C24.6772257,7.21876293 24.7790647,7.51947339 24.862716,7.82689342 C25.0211657,8.40391592 25.1133086,8.98459819 25.1500453,9.56589042 C24.7501572,9.92454711 24.3683363,10.3051624 23.9883221,10.6845577 C23.7708528,10.9010937 23.5541062,11.1176296 23.3366971,11.3347755 C23.1289239,11.541552 22.8657446,11.7434489 22.7374672,12.0124414 C22.7091619,12.0709976 22.7663748,12.1289439 22.8247922,12.1002757 C23.0747222,11.9776737 23.2602125,11.7336896 23.4529297,11.5354524 C23.6805166,11.3012277 23.908224,11.0670029 24.1352087,10.8333881 C24.4814974,10.4771712 24.8290507,10.1203444 25.1596811,9.74826857 C25.1765439,10.1441328 25.1675103,10.5393872 25.1355915,10.9340315 Z M16.9950977,23.9548554 C16.5584729,24.3232715 16.1272682,24.7057166 15.6779963,25.0576638 C15.6532442,25.0771825 15.6340327,25.0979212 15.6183744,25.1204897 C15.550261,25.0436347 15.4828702,24.9673896 15.4147567,24.8911446 C16.1880946,24.4312345 16.6746452,23.3851524 17.6437115,23.330256 C17.6840616,23.3278162 17.6846639,23.2649903 17.6437115,23.2656002 C17.4865265,23.2680401 17.3371105,23.2967082 17.1938373,23.3442851 C17.2546034,23.3058576 17.3148878,23.2668201 17.3751119,23.2277827 C17.8593138,22.9118232 18.3338798,22.576345 18.8373534,22.2921035 C18.2387257,22.8715658 17.6214285,23.4260198 16.9950977,23.9548554 Z M25.901582,8.74732361 C25.6257556,6.82106877 24.7453392,5.00765661 23.4643723,3.56327046 C22.1159543,2.04263927 20.2941748,0.870905413 18.3471291,0.324380926 C16.3338369,-0.241052333 14.2049144,-0.0550144213 12.29581,0.786730882 C8.1511863,2.61356218 5.20195111,7.31086695 6.19269805,11.9093581 C6.71779211,14.3491996 8.01628428,16.4932103 9.38818964,18.5316978 C10.7829199,20.6055631 12.3680789,22.6031833 14.1784158,24.3202217 C14.6198586,24.7392645 15.0660591,25.1400084 15.544901,25.515134 C15.5882624,25.5492918 15.6352372,25.5584412 15.6779963,25.5517317 C15.7863997,25.6731138 15.9567737,25.7328899 16.1055875,25.6194373 C19.7395107,22.8355782 23.1758988,19.375273 24.9488967,15.051264 C25.7667402,13.0573035 26.2099295,10.9023136 25.901582,8.74732361 Z M19.9737825,11.5921787 C19.9315654,11.5604608 19.870197,11.5513114 19.8184043,11.5946186 C19.5389644,11.8288434 19.3366114,12.142363 19.1703928,12.466252 C19.0656028,12.6705887 18.9307008,12.9188425 18.866261,13.1664865 C18.6898044,13.343375 18.5037118,13.5062344 18.3103924,13.6526249 C18.476611,13.0493741 18.8367512,12.5388372 19.1800287,12.0075618 C19.2553088,11.8910593 19.0740342,11.7867561 18.9975496,11.8989888 C18.609104,12.4693018 18.0116808,13.1597769 17.9610926,13.8941692 C17.862325,13.9557752 17.7617507,14.0137214 17.6605742,14.0667879 C17.4509943,14.1759709 17.235392,14.2583155 17.016116,14.3168717 C17.0697756,14.2455063 17.1197617,14.1723111 17.1625208,14.0936262 C17.1944396,14.0344601 17.1366244,13.9710242 17.0776048,13.9917628 C17.4124509,13.0878016 18.1098461,12.3710981 18.3711586,11.4305393 C18.4055465,11.3067173 18.2176473,11.2548707 18.1803083,11.3774727 C17.8629272,12.4314842 16.8553176,13.1774657 16.6975906,14.2949131 C16.6933749,14.3241912 16.6993973,14.3546892 16.7120444,14.3821375 C16.433809,14.4284944 16.1519601,14.4388638 15.8713157,14.4169052 C15.8790846,14.3998263 15.8869138,14.3833574 15.8948031,14.3662785 C15.9056435,14.3418801 15.9038368,14.3180916 15.8942009,14.2997928 C16.3416661,13.2073538 16.8005738,12.141753 17.5353081,11.203024 C17.6159481,11.0999407 17.4744817,10.9523303 17.3907702,11.0566335 C16.5969561,12.0362299 15.9905595,13.1908849 15.5575481,14.3796976 C14.9113433,14.2741745 14.2807366,14.0057919 13.7249282,13.6294464 C13.7508246,13.5745499 13.6948162,13.5172137 13.6406145,13.543442 C13.8026173,13.0823119 14.0501385,12.6394807 14.2783879,12.2179981 C14.5825196,11.6562246 14.9221837,11.1164097 15.202828,10.541827 C15.2606432,10.4228847 15.0871977,10.3179715 15.0257691,10.4369138 C14.7162172,11.0371148 14.3398165,11.5976684 14.0109928,12.1868901 C13.7959927,12.5705552 13.5593119,12.9700792 13.399718,13.3903419 C13.2328972,13.2573705 13.07511,13.1140299 12.9281632,12.9633696 C12.9847738,12.8840748 13.0334952,12.7986804 13.0853481,12.7138959 C13.1214826,12.6547297 13.0437935,12.6071528 12.9968187,12.6443604 C12.9474349,12.6840078 12.9040735,12.7248751 12.8601099,12.7645226 C12.9907963,12.2991228 13.2931213,11.8471422 13.5285976,11.4488381 C13.8929535,10.8327781 14.2440601,10.2100086 14.6493684,9.62017689 C14.7156149,9.52380315 14.5614412,9.4353589 14.4951947,9.52868283 C14.0380936,10.1715811 13.6026733,10.8443673 13.2051941,11.526303 C13.0136814,11.8550717 12.7474908,12.2277574 12.6204179,12.6169122 C12.5896434,12.5790946 12.5595916,12.5406671 12.5300818,12.5022396 C12.4198716,12.3558491 12.3211041,12.2051889 12.2319724,12.0508689 C12.4554039,11.5769297 12.7709782,11.1591069 13.025124,10.695537 C13.3677992,10.0684978 13.6899982,9.42864933 14.1802226,8.9028635 C14.2555027,8.82295869 14.1380054,8.70340646 14.0609788,8.78209135 C13.5454604,9.30360746 13.1882711,9.94406584 12.8281309,10.5790346 C12.5963283,10.9889279 12.3072525,11.3640536 12.0849653,11.7757768 C12.0181768,11.6385357 11.9591572,11.4982449 11.9079667,11.3561241 C11.9332608,11.3286759 11.9290451,11.2774392 11.8935129,11.2579205 C11.8850815,11.2536507 11.8766501,11.249381 11.8682187,11.2457213 C11.854307,11.203024 11.8411179,11.1597169 11.8284708,11.1170196 C11.9176025,10.5711051 12.2699136,10.0745974 12.5716364,9.62871633 C12.9877851,9.01265637 13.4069449,8.39781632 13.8290557,7.78602607 C13.8899423,7.69880174 13.7496201,7.61889693 13.689396,7.70307146 C13.2160345,8.35999877 12.7035272,8.99740736 12.2614822,9.67568328 C12.0609359,9.98371327 11.8501515,10.2911333 11.711636,10.6260015 C11.679115,10.4460632 11.6562298,10.2636851 11.644185,10.0788671 C11.7646333,9.84281242 11.8748434,9.60187808 12.0223323,9.37741266 C12.2192651,9.07731216 12.4270985,8.78331127 12.633065,8.48992033 C13.1154602,7.802495 13.5556985,7.07786209 14.0778416,6.42032481 C14.1308388,6.35383913 14.0411048,6.25807536 13.9826875,6.32456104 C13.4177852,6.96745926 12.925694,7.67257344 12.4264963,8.36792826 C12.1970424,8.68754749 11.9627706,9.00716672 11.7471683,9.33715528 C11.7122383,9.39022183 11.6755016,9.44572822 11.6393671,9.50245454 C11.6405716,9.48659557 11.6405716,9.47134656 11.6411136,9.45548759 C11.6544231,9.20174408 11.6821262,8.94617069 11.7236206,8.69364709 C11.8091389,8.78514115 11.9669863,8.80831964 12.0308239,8.66802876 C12.2151096,8.264235 12.3861461,7.864101 12.585488,7.48409569 C12.8570987,7.14190793 13.1311185,6.80033012 13.4009225,6.45692244 C13.5147461,6.31175187 13.6388077,6.16597134 13.7472112,6.01165137 C14.3970294,5.48708546 15.1980101,5.15282718 16.0350651,5.14550765 C17.0685712,5.13635825 17.9556724,5.63774567 18.6994402,6.33310048 C19.4787403,7.0607832 20.1056733,7.9995122 20.332116,9.05962331 C20.5115839,9.90258854 20.3501832,10.787641 19.9737825,11.5921787 Z M19.463082,12.4632022 C19.5492025,12.2985129 19.6473678,12.1399232 19.7635401,11.9965825 C19.6714574,12.157002 19.5708832,12.3125419 19.463082,12.4632022 Z M16.9240333,4.48187077 C15.6942568,4.22995714 14.406063,4.55018633 13.4165808,5.32849576 C13.112449,5.56760022 12.8149418,5.85977124 12.5529669,6.18792991 C11.6736346,6.79057076 11.274409,7.88544961 11.1033725,8.91506271 C10.9154732,10.048979 11.0341147,11.1786256 11.5562578,12.2094586 C12.5469445,14.1656015 14.9872257,15.6337761 17.1739634,15.0555337 C18.2923252,14.7597029 19.2300147,13.9856632 19.9213875,13.0695028 C20.6061357,12.1631017 21.1349035,11.0139363 21.1547774,9.85623155 C21.1763979,8.6088626 20.6205895,7.42736938 19.8569477,6.47766109 C19.1252247,5.56760022 18.082143,4.71914536 16.9240333,4.48187077 Z M22.5242738,29.4969553 C22.4532094,29.6183374 22.3646799,29.7281303 22.2659124,29.8293837 C22.2966267,29.7281303 22.1695538,29.6213872 22.0804221,29.7128813 C21.9148058,29.8812303 21.7883351,30.0776376 21.6648757,30.2777046 C21.4185591,30.4179955 21.1571864,30.532058 20.9144832,30.6290417 C20.8337829,30.6607597 20.7530826,30.6912577 20.67178,30.7199258 C20.7904215,30.5064397 20.9319482,30.3088125 21.1306878,30.1624221 C21.2414399,30.0812973 21.1385169,29.8934295 21.0216821,29.9733343 C20.6940629,30.1977998 20.5313976,30.5229086 20.3158555,30.8370382 C20.0586985,30.9151132 19.7973259,30.979769 19.5341465,31.0334455 C19.7310191,30.7083366 19.9870318,30.4228751 20.2465978,30.1429033 C20.3393429,30.0434798 20.197214,29.8995291 20.0990487,29.9928531 C19.7497488,30.3258914 19.3998467,30.671129 19.1746085,31.0987112 C18.9662331,31.132869 18.7571951,31.1609272 18.5470732,31.1828858 C18.7132918,30.8693661 18.9987541,30.6070832 19.1794264,30.3045428 C19.2492262,30.1868205 19.0722275,30.0843471 18.9987541,30.1977998 C18.7711069,30.5466971 18.4103645,30.8333785 18.236919,31.2115539 C17.8882214,31.2390021 17.5389215,31.2518113 17.1902239,31.255471 C17.4190755,30.8272789 17.8557004,30.4588628 18.1616389,30.1355838 C18.2459526,30.0465296 18.117073,29.916608 18.0285436,30.0007826 C17.762353,30.2539161 17.4883332,30.4991202 17.2450278,30.7760422 C17.1263261,30.9108434 16.9812462,31.0761427 16.8866943,31.256081 C16.7843133,31.255471 16.6813301,31.2542511 16.5789491,31.2518113 C16.4253776,31.2487615 16.2712039,31.2438818 16.1170301,31.2371722 C16.1254013,31.209114 16.1308817,31.1780061 16.1399153,31.1468981 C16.1935147,30.9675697 16.32661,30.8284988 16.451274,30.6949175 C16.688557,30.4411739 16.9950977,30.2276878 17.1908261,29.9379566 C17.267913,29.824504 17.0908541,29.7275203 17.0119605,29.8324335 C16.8029226,30.1111854 16.4699434,30.3045428 16.2236268,30.5491369 C16.0646351,30.7071167 15.7984445,30.979159 15.8803493,31.2261929 C15.6165677,31.2127738 15.3533883,31.195085 15.0908112,31.1743463 C15.2275199,31.0188064 15.3311054,30.8022705 15.4334864,30.6534402 C15.6532442,30.331991 15.8948031,30.0514093 16.246512,29.8769606 C16.3579266,29.8214542 16.2603635,29.6616446 16.1500932,29.7104414 C15.8207275,29.855612 15.5683884,30.0904467 15.3443547,30.3710285 C15.2407692,30.5009501 15.1437482,30.6357513 15.0456431,30.7699426 C14.9589204,30.8894948 14.8378699,31.009047 14.7836682,31.148728 C14.6547284,31.1371387 14.5253067,31.1255495 14.3963669,31.1127403 C14.2615251,31.0993212 14.1145783,31.0828523 13.9736538,31.0657734 C14.0513429,30.9620801 14.1422814,30.870586 14.2253906,30.7705525 C14.5102507,30.4301947 14.7800547,30.0880069 15.0835843,29.762898 C15.1588644,29.6823833 15.0432341,29.5652709 14.9643405,29.6415159 C14.6493684,29.9428363 14.3518613,30.2508663 14.066399,30.5808549 C13.9405306,30.7266354 13.7935837,30.8650964 13.6887938,31.0291757 C13.6442279,31.0230761 13.6008666,31.0169765 13.5623231,31.0114869 C13.3316648,30.979159 13.1016086,30.9437813 12.8715525,30.9059637 C12.9113004,30.8681462 12.9468327,30.8199593 12.9829671,30.779702 C13.0714966,30.6808884 13.164844,30.5863445 13.2527712,30.486311 C13.5972531,30.0959364 13.9128275,29.686653 14.2741722,29.3084776 C14.3542702,29.224913 14.2302086,29.0992611 14.1477015,29.1803859 C13.7363708,29.5847896 13.3587656,30.0178615 12.955264,30.4271449 C12.8884153,30.4948505 12.6336673,30.7083366 12.6264404,30.8638765 C12.3572386,30.8162996 12.088639,30.763843 11.8217859,30.7034569 C12.19102,30.1624221 12.6806421,29.7232506 13.0973929,29.2145437 C13.1672529,29.1297592 13.0492137,29.0065472 12.97568,29.0919416 C12.5174347,29.6232171 11.9404877,30.0526292 11.5526444,30.6394111 C11.4484566,30.6144027 11.3454734,30.5875644 11.2424902,30.5595063 C11.1304733,30.5290082 11.0118318,30.4966803 10.8895769,30.4619126 C11.0756694,30.1337539 11.3834146,29.8641514 11.6604455,29.6195573 C11.8935129,29.4140007 12.1801797,29.1999046 12.2940032,28.8985842 C12.3235131,28.8211192 12.1952357,28.7656128 12.1609079,28.8412479 C12.0085409,29.177946 11.6176864,29.3719134 11.3527003,29.6085781 C11.1033725,29.8312136 10.7962295,30.0751977 10.6462714,30.3893273 C10.4083862,30.3155221 10.1662852,30.2276878 9.94345599,30.1148452 C10.0386101,30.0117619 10.1602628,29.9190479 10.2330738,29.8568319 C10.3758651,29.7360598 10.5276299,29.6262669 10.6661454,29.501225 C11.0491708,29.1541576 11.461706,28.8467376 11.8254596,28.4752717 C11.8935129,28.4051263 11.7887229,28.2996031 11.7188027,28.3673087 C11.2792269,28.7924511 10.77756,29.1511078 10.2969716,29.5262334 C10.1505667,29.640906 9.90009463,29.8049853 9.738694,29.9995626 C9.56585078,29.8922096 9.41167705,29.7665578 9.29122881,29.6146777 C9.26232124,29.57808 9.23762935,29.5414824 9.21775539,29.5036649 C9.41769946,29.3115274 9.58753146,29.0126468 9.73206934,28.8339284 C10.0193384,28.4783215 10.3084141,28.1379636 10.7137224,27.916548 C10.7709353,27.8848301 10.7203471,27.7976057 10.6625319,27.8281037 C10.280711,28.0281707 9.95790978,28.3240015 9.6772654,28.6509403 C9.53212528,28.8198993 9.39415183,28.9955679 9.25087866,29.1657468 C9.21956212,29.2035644 9.18463213,29.239552 9.14970214,29.2761497 C9.14127076,29.1620871 9.16656489,29.0388751 9.22799349,28.9040738 C9.48394599,28.34718 10.0139182,27.9458261 10.537868,27.6731738 C11.421958,27.2138737 12.4060201,26.9753792 13.3979113,26.7972707 C13.5803904,26.8015405 13.7628694,26.7997106 13.9453485,26.8009305 C14.4765252,26.8039803 15.0070997,26.8222791 15.5376741,26.8521672 C16.5867782,26.9125532 17.642507,27.0003875 18.6867932,27.1242095 C19.1198045,27.1754462 19.5353509,27.2797494 19.9617377,27.3749032 C20.6482926,27.5280032 21.370982,27.6786635 21.967803,28.0763576 C22.4682654,28.4100059 22.8753202,28.8979742 22.5242738,29.4969553 Z M21.947929,27.2907287 C21.2469203,26.9522007 20.4832785,26.8173994 19.7316816,26.6478304 C18.7620733,26.4300746 17.725014,26.3916471 16.7343273,26.392257 C16.2916801,26.392257 15.8442149,26.377008 15.3961475,26.3654188 C15.3900648,26.3086925 15.3497749,26.253796 15.2841306,26.254401 C13.7164969,26.2739247 12.0759919,26.4776515 10.6148947,27.0924915 C10.0042823,27.3498948 9.41589273,27.6994021 8.99191496,28.2233581 C8.73596246,28.5393175 8.51433772,28.9004141 8.53541616,29.3249465 C8.57516407,30.1355838 9.40143895,30.6162326 10.0524014,30.9010841 C10.914871,31.2780396 11.8531627,31.4774966 12.7757962,31.6366963 C13.6827714,31.7934561 14.5999846,31.8886099 15.5171979,31.9477761 C17.1287953,32.0514693 18.7933898,32.0325605 20.3598191,31.5933891 C21.5311782,31.2646204 23.5239942,30.4606927 23.3607868,28.9071236 C23.2800865,28.1367437 22.5923271,27.6024184 21.947929,27.2907287 Z M23.0963427,10.2722245 C23.4342602,10.079477 23.6576917,9.73911916 23.890759,9.43474894 C24.1448446,9.1029305 24.3888125,8.76623238 24.6736725,8.46064223 C24.7675619,8.36060874 24.6212775,8.21177841 24.5243167,8.30937206 C24.2303628,8.602763 23.9654369,8.92299219 23.7070755,9.24871103 C23.4679857,9.55064141 23.1885458,9.83915266 23.006669,10.1813404 C22.9753525,10.2392867 23.0379855,10.3057723 23.0963427,10.2722245 Z M11.0329102,28.086117 C10.468008,28.3233916 10.0271675,28.8223391 9.66401609,29.2993281 C9.59295164,29.3920421 9.4110748,29.5567314 9.43576669,29.6890928 C9.45804962,29.8086451 9.56103285,29.8043753 9.63751748,29.7360598 C9.65739144,29.717761 9.65371777,29.6848231 9.63571076,29.6671342 C9.64233541,29.6579848 9.65317575,29.6451757 9.66943626,29.6262669 C9.71279763,29.5774701 9.74832985,29.5158641 9.78747553,29.4634075 C9.84890413,29.3810628 9.90069687,29.2895688 9.96031874,29.2084441 C10.2433721,28.824169 10.6498849,28.4057362 11.0810895,28.2013995 C11.1437226,28.1715114 11.0985545,28.0580588 11.0329102,28.086117 Z M16.1236548,10.6882175 C15.5238226,11.3018376 15.2323379,12.0734375 14.8414833,12.8206389 C14.798122,12.9035935 14.2169593,14.0125015 14.6861051,13.8703807 C14.7469315,13.8520819 14.7788503,13.7648576 14.725853,13.7191105 C14.7674077,13.7550982 14.7397046,13.7611978 14.7686122,13.6904424 C14.7836682,13.6538448 14.7927018,13.6141974 14.8059511,13.5769898 C14.8475058,13.465977 14.8968895,13.3567941 14.9474778,13.2494411 C15.0287201,13.0780422 15.117912,12.911523 15.1919877,12.7364644 C15.4780523,12.0612383 15.7677302,11.3799125 16.2729504,10.8394877 C16.3669602,10.7394542 16.2194111,10.5894039 16.1236548,10.6882175 L16.1236548,10.6882175 Z" id="Fill-36" fill="#D30000"></path>
            </g>
        </g>
    </g>
</svg>