<?xml version="1.0" encoding="UTF-8"?>
<svg width="32px" height="32px" viewBox="0 0 32 32" version="1.1" xmlns="http://www.w3.org/2000/svg" xmlns:xlink="http://www.w3.org/1999/xlink">
    <!-- Generator: Sketch 62 (91390) - https://sketch.com -->
    <title>32icon-rules-red</title>
    <desc>Created with Sketch.</desc>
    <defs>
        <path d="M18.7916214,19.5212889 C18.7910842,19.5825767 18.7900098,19.6438645 18.7889354,19.7050999 C18.0938032,20.6607493 17.2471816,21.515895 16.6234966,22.5192011 C16.5998599,22.5566343 16.6525052,22.5943822 16.6841998,22.5651276 C17.1929248,22.0949049 17.6044173,21.51773 18.0261165,20.9740563 C18.2802104,20.6463317 18.5407506,20.3220149 18.7846378,19.9869504 C18.7798031,20.2458377 18.7733567,20.5047249 18.7652987,20.7635597 C18.632074,20.9136074 18.4918658,21.0587792 18.3704594,21.2156949 C18.1475228,21.5029979 17.9568181,21.8111146 17.7473115,22.1074351 C17.5324329,22.4118819 17.3272239,22.7219908 17.1257752,23.0352979 C16.9409797,23.3227581 16.7051504,23.5933891 16.5896532,23.9167623 C16.5756861,23.9550344 16.6320917,23.9868055 16.6594887,23.9566072 C17.1494119,23.4160267 17.5109451,22.802939 17.9261979,22.2094591 C18.1340929,21.9125619 18.3242605,21.6040782 18.5407506,21.3127383 C18.6079002,21.2221435 18.6809589,21.1355856 18.755092,21.0497617 C18.7438109,21.3698843 18.7309182,21.6900069 18.7164139,22.0100771 C18.27645,22.4393015 17.8961149,22.9223165 17.496978,23.3867197 C17.1424283,23.7986954 16.7384566,24.2667162 16.5595702,24.7810304 C16.5445287,24.824021 16.6041575,24.8532232 16.6347777,24.8238637 C17.0537909,24.4246804 17.3390422,23.8911776 17.7032614,23.4453337 C18.0298768,23.0459407 18.3484343,22.638631 18.7045956,22.2636168 C18.6960004,22.447952 18.6868681,22.6323397 18.6771985,22.8166226 C18.6739754,22.880689 18.6707522,22.9447555 18.667529,23.008822 C18.3199629,23.6493293 17.7768573,24.1834612 17.4728041,24.8465649 C17.4497047,24.8970526 17.5071847,24.9440277 17.551772,24.9061226 C17.8300398,24.6714044 18.0255793,24.3553187 18.2302511,24.0610953 C18.3677734,23.8633386 18.5112048,23.6716635 18.6438924,23.4728058 C18.63476,23.6511119 18.6261649,23.829418 18.6181069,24.0077765 C18.6143465,24.098214 18.6111234,24.1887564 18.6084374,24.2792463 C18.5869495,24.2856949 18.5670733,24.2986445 18.5509574,24.3200874 C18.3656246,24.5706911 18.1695479,24.8157375 18.0164469,25.0867355 C17.8316513,25.073314 17.6409466,25.0272302 17.4717297,25.0169544 C17.1617674,24.9981853 16.8507307,24.9762182 16.5402311,24.9672007 C15.897207,24.9485889 15.2396785,25.0569566 14.5998776,24.9809367 C14.3484697,24.951053 14.2447907,24.8825826 14.2179309,24.6377984 C14.2002034,24.4786807 14.1926827,24.3303632 14.1550789,24.1808923 C14.1953687,23.8786474 14.2093358,23.5715268 14.2243773,23.271484 C14.2689646,22.3558368 14.2442536,21.4346848 14.2281377,20.5184085 C14.2023522,19.0645925 14.1319795,17.6114581 14.1164008,16.1576422 C14.111566,15.7106973 14.0368957,15.0910561 14.4252888,14.7629645 C14.7143004,14.5190715 15.1456692,14.438805 15.5174091,14.3705967 C15.7408828,14.3295984 15.9670425,14.3002914 16.1942766,14.2817844 C16.1276643,14.35015 16.0562171,14.4150553 16.0019603,14.4806946 C15.897207,14.6067828 15.7097254,14.7583509 15.7317505,14.9363424 C15.7355109,14.9695815 15.7704286,14.985467 15.7978256,14.9631329 C15.8837771,14.8926703 15.9369595,14.7860326 16.0057207,14.7002087 C16.0685726,14.6227208 16.1292758,14.5438698 16.1921278,14.4669061 C16.2453103,14.4020008 16.3060135,14.3387732 16.3575843,14.2704601 C16.5010158,14.2621241 16.6444472,14.2580872 16.7878787,14.2582891 C16.649282,14.404727 16.5149829,14.5555087 16.3892789,14.7124768 C16.2463847,14.890678 16.0873745,15.0716055 16.0164646,15.2900187 C15.9998115,15.3416074 16.0658867,15.3686075 16.102416,15.3388287 C16.2764677,15.1970122 16.3941137,14.9932263 16.526264,14.8157066 C16.6675467,14.6262334 16.8120525,14.4397486 16.9662279,14.260394 C17.1402795,14.2645358 17.3240007,14.273029 17.5044987,14.2974603 C17.1166429,14.8334795 16.6208106,15.3258267 16.3925021,15.945363 C16.3737002,15.9963226 16.4429986,16.0240568 16.4784535,15.9941731 C16.7739116,15.7444607 16.9560212,15.3863805 17.1730485,15.0742793 C17.3471002,14.8232562 17.5297469,14.5866506 17.6866083,14.3279731 C17.8370233,14.3590626 17.9820663,14.4046222 18.1152911,14.4718867 C18.117977,14.4734596 18.120663,14.4751897 18.1238862,14.4767625 C18.123349,14.4776538 18.1222746,14.4782829 18.1217374,14.4791742 C17.8751643,14.824095 17.6350374,15.1730004 17.3943734,15.5217484 C17.1585442,15.8641003 16.8904832,16.1968056 16.6965553,16.5645324 C16.671307,16.6120842 16.7298615,16.6543932 16.7706884,16.6203677 C17.0870971,16.356762 17.3191659,15.9997828 17.5442513,15.6625688 C17.7854525,15.3003993 18.0121493,14.9288453 18.2485158,14.5634252 C18.3242605,14.6336782 18.3709966,14.7188729 18.4043027,14.8153396 C18.3892612,14.8200581 18.3752941,14.829862 18.3645502,14.8466913 C17.787064,15.7483403 17.1488747,16.6001307 16.6815138,17.567419 C16.6664723,17.5983512 16.7083736,17.6381962 16.734159,17.6071066 C17.0752788,17.1948688 17.3460258,16.729784 17.6269795,16.2778585 C17.8961149,15.8451215 18.188887,15.4260157 18.4526504,14.9902903 C18.4676919,15.057083 18.4821962,15.1271787 18.4988493,15.2001578 C18.5203372,15.2956284 18.5402134,15.3915184 18.5579409,15.4876181 C18.5343043,15.4871462 18.5112048,15.4984182 18.4956261,15.526729 C18.3752941,15.7518529 18.1749199,15.9467261 18.0320256,16.1612597 C17.879999,16.3890574 17.7290468,16.6182182 17.5807806,16.848113 C17.2708183,17.3278251 16.9608559,17.8291897 16.7508121,18.359442 C16.7320102,18.4060501 16.8013086,18.4253958 16.827094,18.3910034 C17.1805693,17.9210428 17.4765645,17.404212 17.7892128,16.9079328 C17.9256607,16.6908828 18.0664062,16.4761395 18.2023169,16.2585652 C18.3237233,16.0641639 18.481659,15.882083 18.5923215,15.6811806 C18.6336856,15.9361882 18.664843,16.1929259 18.6900912,16.4500306 C18.7110419,16.6689156 18.727695,16.8882201 18.7416621,17.1076818 C18.69224,17.2208729 18.5987679,17.3153998 18.5262463,17.4152742 C18.4300882,17.546448 18.3290952,17.6738469 18.2297139,17.8024517 C17.997645,18.1023373 17.7929732,18.4197337 17.5861526,18.7365009 C17.1821809,19.3569285 16.7540353,19.9779329 16.3941137,20.6235781 C16.3651051,20.6755863 16.4381638,20.7375556 16.4811395,20.6893223 C17.0011457,20.1072192 17.3965222,19.4053716 17.8107007,18.7499224 C18.0212817,18.4170074 18.240995,18.0925333 18.4671547,17.7698942 C18.5520318,17.649206 18.6664546,17.5146769 18.7567036,17.3726506 C18.7744311,17.708187 18.785175,18.0441427 18.790547,18.3802033 C18.7115791,18.4685961 18.6256277,18.5511171 18.5504202,18.6433896 C18.4494272,18.7668565 18.3521947,18.8925777 18.2554993,19.0194 C18.0347116,19.3099535 17.8139239,19.5999302 17.5963593,19.8927381 C17.1714369,20.463779 16.7105224,21.035449 16.4075436,21.679836 C16.3903533,21.7164304 16.4397754,21.7644541 16.4698584,21.7270208 C16.9248638,21.1661509 17.3460258,20.5746632 17.7736341,19.9939757 C17.9895871,19.7009057 18.2033913,19.4062629 18.4155839,19.1106239 C18.5343043,18.945215 18.672901,18.7803304 18.7926958,18.6071097 C18.7953817,18.9119759 18.7948446,19.2167897 18.7916214,19.5212889 Z M18.6401137,24.7396857 C18.6330651,24.7091823 18.6300443,24.6683136 18.6411207,24.6396857 C18.6431346,24.6555791 18.6461554,24.6712751 18.6481693,24.6870698 C18.6461554,24.70474 18.6431346,24.7222129 18.6401137,24.7396857 Z M18.3591782,25.0540207 C18.3108306,25.0704829 18.2608713,25.0802344 18.2093004,25.0855296 C18.3597154,24.9364781 18.487031,24.7678187 18.6121978,24.597167 C18.6138094,24.6107982 18.6148837,24.6244293 18.6170325,24.6379556 C18.5665361,24.7078416 18.5590153,24.7760498 18.5794288,24.8349784 C18.5402134,24.9350101 18.4746755,25.0145952 18.3591782,25.0540207 Z M19.1832376,15.5111581 C19.12146,15.1391322 19.0672031,14.6875737 18.872738,14.3550782 C18.4354601,13.6078283 17.1596186,13.6284323 16.408618,13.6678578 C15.5517897,13.7128407 14.2775597,13.8194783 13.7639999,14.6022216 C13.4518888,15.0782638 13.4959716,15.6906176 13.5007737,16.2305689 C13.5023853,16.4669123 13.5066828,16.7029411 13.5142036,16.9391797 C13.5394518,17.755529 13.5716836,18.5716163 13.602841,19.3877035 C13.6699906,21.1300807 13.6699906,22.8762851 13.7661487,24.6167749 C13.7489584,24.7408709 13.747884,24.8640232 13.7731323,24.9791017 C13.7725951,24.9983426 13.7768927,25.0141233 13.7849506,25.0263914 C13.8316867,25.1867672 13.933754,25.328741 14.1190868,25.4315515 C14.4537602,25.6174596 14.923807,25.6265819 15.298233,25.6220732 C15.7446432,25.6166207 16.1840699,25.6001585 16.6304801,25.618613 C17.0339146,25.6352849 17.4357376,25.6720891 17.8370233,25.7135068 C18.208226,25.7518314 18.6331484,25.7417128 18.9151766,25.4706624 C19.1381131,25.2562862 19.271875,24.853328 19.2203041,24.5101897 C19.2240645,24.4103152 19.2197669,24.3101786 19.2224529,24.2224149 C19.233734,23.894166 19.2519987,23.5660744 19.269189,23.2380876 C19.3196855,22.2517157 19.3685703,21.2651865 19.392207,20.277766 C19.4190668,19.1825021 19.4217528,18.0843022 19.3481569,16.9906111 C19.3148507,16.4955902 19.2648914,16.0009887 19.1832376,15.5111581 Z M30.1130362,18.5119537 C29.3163739,19.5160462 28.433223,20.4587459 27.6714784,21.4865356 C27.6295771,21.5432622 27.7171401,21.5978917 27.7654878,21.5572604 C28.3338416,21.0786493 28.7958306,20.4786684 29.2545963,19.9023323 C29.4726981,19.6290275 29.6902626,19.3549363 29.8954717,19.0722994 C29.9384474,19.0123747 29.9841091,18.9521354 30.0297708,18.8914768 C29.8132806,19.8079103 29.4931116,20.7020098 29.0837679,21.5559497 C28.5804148,22.1240022 28.066855,22.6839284 27.582841,23.2666606 C27.5452373,23.3118008 27.6021801,23.3674788 27.648379,23.3304125 C28.0297885,23.0244978 28.3741314,22.6706118 28.7002096,22.2985859 C28.4471901,22.7530279 28.1699967,23.1941009 27.8686295,23.6181349 C26.617499,25.3776035 24.9247931,26.7933046 22.9833652,27.7611172 C23.0392336,27.6915983 23.0934904,27.6205589 23.1407637,27.5449584 C23.212748,27.4309809 23.0311756,27.3289569 22.9581169,27.4405227 C22.8474545,27.6087103 22.7034858,27.7518375 22.578319,27.9096445 C22.5605916,27.9323456 22.5417897,27.9557807 22.523525,27.9798974 C22.0685196,28.1859901 21.6016959,28.3685428 21.1246655,28.5251963 C21.1074752,28.5307012 21.0908221,28.5358915 21.0736318,28.5413964 C21.076855,28.5367828 21.079541,28.5320119 21.082227,28.527608 C21.2014846,28.3418048 21.3309489,28.1657006 21.4201235,27.9633303 C21.4716944,27.8462596 21.2997915,27.7416666 21.2406999,27.8609917 C21.1327234,28.0786709 20.9747877,28.2609615 20.8399514,28.4620736 C20.8023476,28.5176992 20.7577603,28.5826569 20.721231,28.6513894 C20.3704417,28.7567688 20.0137433,28.8512957 19.6532845,28.9345506 C19.7768396,28.6930169 19.9465937,28.4778542 20.0782068,28.2259923 C20.13891,28.1091837 19.9627096,28.0065306 19.8966344,28.1226052 C19.7365499,28.4059236 19.4491498,28.6858343 19.332041,29.0056424 C18.9742682,29.0810856 18.6132722,29.1453618 18.2501274,29.1982612 C18.3742197,28.8532355 18.6390576,28.4908563 18.8351343,28.2218505 C18.908193,28.1215042 18.7427365,28.0332162 18.6686034,28.1267469 C18.4693035,28.3782419 18.2855823,28.6470904 18.1335557,28.928102 C18.0921916,29.0042793 18.027728,29.1176801 17.9852895,29.2346984 C17.6038801,29.2842424 17.220859,29.321099 16.8367635,29.3449535 C16.8743673,29.2194944 16.9194918,29.097076 16.9898645,28.9700441 C17.1048246,28.7630601 17.2391237,28.5666141 17.3863155,28.3801817 C17.4545394,28.2944102 17.3019757,28.1784929 17.2316029,28.2635304 C17.0446586,28.4893883 16.8711441,28.7299783 16.7320102,28.9868209 C16.673993,29.0939304 16.6025459,29.2256808 16.5654793,29.3595283 C16.2657237,29.3733168 15.9654309,29.3791887 15.6656753,29.3767246 C15.6678241,29.325765 15.659229,29.2733375 15.6667497,29.2209099 C15.6828656,29.1042062 15.7322877,28.9875025 15.7774122,28.879292 C15.8703472,28.6540632 15.9896048,28.4413122 16.0970441,28.2228991 C16.1518381,28.1125391 15.9879932,28.0154957 15.9267528,28.1256984 C15.859066,28.2485886 15.3653825,29.0477941 15.4094326,29.3725304 C15.1386856,29.3660294 14.8679386,29.3527128 14.598266,29.3325282 C14.6632668,28.8661851 14.9141375,28.4859805 15.1300905,28.0656164 C15.1870333,27.9555186 15.0199652,27.8583703 14.9597992,27.9684157 C14.8083098,28.2477497 14.6294234,28.512037 14.4929755,28.7996021 C14.4365699,28.9193991 14.322147,29.1400142 14.3350397,29.3105086 C14.0325982,29.2826696 13.731231,29.2460227 13.4325497,29.2002535 C13.4459796,29.1733057 13.4422193,29.1337753 13.4105247,29.119148 C13.4089131,29.118414 13.4078387,29.1179422 13.4062271,29.1172606 C13.482509,28.73239 13.7672231,28.4066052 13.9455723,28.0640436 C14.0014408,27.9576681 13.8392074,27.8637179 13.7811902,27.9699886 C13.5775928,28.3409135 13.2015553,28.7193355 13.1596539,29.1557425 C12.8566752,29.1035246 12.5569195,29.0423941 12.2603871,28.9710402 C12.2362133,28.9652732 12.2125766,28.958877 12.1884028,28.9530051 C12.2996025,28.7457066 12.3603057,28.5053787 12.4666705,28.2934666 C12.5692751,28.0879506 12.6767144,27.8851084 12.760517,27.6712564 C12.7986579,27.5744227 12.6417966,27.535469 12.6025812,27.6287901 C12.4967535,27.8809666 12.3506361,28.1116478 12.2227834,28.3530242 C12.1325344,28.5224701 12.0207975,28.7136734 12.0089792,28.9077077 C11.7339346,28.835882 11.461576,28.7550911 11.1919034,28.6648633 C11.2117797,28.5913599 11.2144657,28.5100972 11.2381023,28.4377996 C11.2778548,28.3126026 11.341244,28.1937494 11.4024844,28.0775699 C11.5523622,27.7942514 11.7333974,27.5172767 11.7994726,27.2010337 C11.8220348,27.0932951 11.6544295,27.0467394 11.6297185,27.1553169 C11.5351719,27.568446 11.2348791,27.8889356 11.0608275,28.2689305 C11.0318189,28.3332066 10.9770248,28.4765436 10.977562,28.5904686 C10.6563186,28.4760717 10.3393727,28.3478863 10.0299475,28.2058077 C10.0514354,28.1315178 10.0675513,28.0551833 10.0927995,27.9806838 C10.1486679,27.8152749 10.2270986,27.6572058 10.3066037,27.5015484 C10.4537955,27.2123056 10.6235496,26.9344396 10.7691298,26.644358 C10.8180147,26.547 10.6718973,26.461281 10.6187148,26.5585865 C10.44144,26.8815402 10.2244126,27.1819501 10.0498238,27.5061096 C9.96064918,27.6718331 9.8376312,27.8884113 9.79949025,28.0969157 C9.49812305,27.9500661 9.2037394,27.7898475 8.9184881,27.6148968 C8.95662904,27.5340011 8.96683578,27.446814 8.9936956,27.356429 C9.04419206,27.1892899 9.11778797,27.0301199 9.19944183,26.8757732 C9.33642692,26.6181966 9.49812305,26.3744609 9.63994291,26.1195582 C9.69312536,26.0246119 9.54808232,25.9415667 9.49167669,26.0348353 C9.3101043,26.3330432 9.0989861,26.614317 8.93460399,26.9221716 C8.84811536,27.0845397 8.73100654,27.2927819 8.71972542,27.4889658 C8.54245059,27.3745165 8.36893614,27.2549816 8.19971927,27.1289458 C8.13847887,27.0829669 8.07777568,27.0360442 8.01707248,26.9886497 C8.03641155,26.9343347 8.04876707,26.8777654 8.06649455,26.8175262 C8.11269344,26.6638086 8.18038019,26.5175357 8.25666209,26.3761911 C8.38236605,26.1435176 8.53331825,25.9247374 8.67298933,25.7001378 C8.73100654,25.6071313 8.58488911,25.5256589 8.52472311,25.6154149 C8.35228305,25.8704749 8.1648015,26.1175135 8.01814687,26.38783 C7.94938573,26.5142852 7.85913673,26.6758669 7.82583055,26.834303 C7.61847272,26.6626552 7.41863565,26.4828287 7.22631933,26.2954002 C7.25371634,26.2167064 7.27627859,26.1358632 7.30958477,26.0587947 C7.37834592,25.9010926 7.45946258,25.748476 7.53037251,25.5916128 C7.67648994,25.2685018 7.84946719,24.9581307 8.02298164,24.6484936 C8.07240371,24.5605726 7.9381046,24.4837138 7.88545935,24.5699571 C7.6673576,24.9270936 7.46161136,25.2859602 7.27090663,25.6576191 C7.20107109,25.7947695 7.09631779,25.9513706 7.04259815,26.1115368 C6.77561152,25.8381795 6.52474078,25.5502999 6.28729996,25.2516725 C6.3109366,25.1903323 6.33403605,25.1290969 6.36250746,25.0713742 C6.4463101,24.8997264 6.54676584,24.736834 6.65313073,24.5779785 C6.88197641,24.2371994 7.13069836,23.90937 7.32570067,23.5480393 C7.37404835,23.4584931 7.23867484,23.3803236 7.18602959,23.4684543 C6.96040709,23.8460899 6.66924662,24.1773796 6.42106187,24.5402307 C6.32973848,24.6740258 6.2056461,24.8480853 6.11647149,25.0311098 C5.96605649,24.8326191 5.82208785,24.6297769 5.68349117,24.4233173 C5.81725308,24.1550455 5.93060153,23.8759736 6.07457017,23.6114766 C6.24378705,23.3005288 6.4763931,23.0317328 6.58651837,22.6917401 C6.62036175,22.5880909 6.45597964,22.5454148 6.42106187,22.6470719 C6.28891155,23.0263328 5.99989987,23.3450923 5.81134392,23.6988209 C5.72915286,23.8528007 5.60022572,24.0312116 5.54650607,24.2142886 C5.51910906,24.1716126 5.49117484,24.1291463 5.46431502,24.0862081 C5.30261889,23.8286316 5.1505923,23.5663365 5.00554926,23.300424 C5.14736912,23.0099754 5.29348655,22.7235637 5.46001745,22.4437578 C5.67221004,22.0869883 5.87258431,21.7259198 5.98485837,21.3256355 C6.0101066,21.2350931 5.86882394,21.1975025 5.84088972,21.2869439 C5.70551622,21.7245043 5.44175277,22.1053904 5.20646073,22.4961329 C5.0904263,22.6885945 4.97224309,22.8838347 4.89381241,23.0909759 C4.73533946,22.7897272 4.58707324,22.4838649 4.44686497,22.1741229 C4.51562612,22.0650212 4.57632931,21.9501524 4.64079289,21.839373 C4.77294321,21.6118375 4.9104655,21.3873427 5.04261582,21.1598071 C5.28811459,20.7364547 5.51910906,20.3093798 5.68295397,19.8486465 C5.69745827,19.8072812 5.62977152,19.77918 5.60989525,19.818658 C5.38373555,20.2614086 5.12856725,20.6896893 4.8648038,21.1122553 C4.70310767,21.3722436 4.49145228,21.6516824 4.34426045,21.9434941 C4.140663,21.4757355 3.95479304,21.0000604 3.78342738,20.5192473 C3.7947085,20.5153153 3.80545243,20.5077133 3.81404757,20.4958646 C4.21855649,19.9218878 4.60211474,19.3335983 5.05604573,18.7923887 C5.11997211,18.715792 5.00984684,18.6053272 4.94323448,18.6822908 C4.66765271,18.9998445 4.41946795,19.3238992 4.17396918,19.6635773 C4.02946334,19.8637457 3.77483223,20.0775452 3.71735221,20.3312421 C3.71144305,20.3145702 3.70553389,20.2979506 3.69962473,20.2812262 C3.58197871,19.9404996 3.46970466,19.596837 3.36387696,19.2507628 C3.38536482,19.25999 3.41598501,19.2525977 3.42995212,19.2329374 C3.52127551,19.0997714 3.58090432,18.9484131 3.67545089,18.8154568 C3.78396457,18.6630499 3.91880088,18.5300937 4.02462857,18.3762188 C4.24004434,18.0630166 4.41570758,17.7230764 4.62252821,17.404212 C4.66496672,17.3389397 4.56128781,17.2818461 4.51723771,17.3442349 C4.2615322,17.7083967 4.03805849,18.0979334 3.75119559,18.4400231 C3.57982993,18.6446479 3.33057078,18.8796806 3.33647994,19.159801 C3.21668514,18.7618234 3.10763426,18.3605954 3.01255049,17.956379 C3.12213856,17.8037624 3.19466008,17.627868 3.30424816,17.4741504 C3.43747287,17.2872462 3.59970619,17.1192683 3.75871634,16.9531778 C4.02570297,16.6740011 4.30397072,16.3973934 4.4731876,16.0478065 C4.51347733,15.9641321 4.38831056,15.8902617 4.34426045,15.9744079 C4.13797702,16.371599 3.78611336,16.6629389 3.47615101,16.9804926 C3.29242983,17.1684453 3.04961704,17.4175811 2.95238449,17.6877402 C2.88308615,17.3701341 2.82292015,17.0508503 2.77510967,16.7299413 C2.79176276,16.739955 2.81378781,16.7406365 2.82882931,16.7238073 C3.0566006,16.4706346 3.22689187,16.1767258 3.43102651,15.9058851 C3.66685575,15.5931547 3.9150405,15.291906 4.19008508,15.0110517 C4.25239986,14.9471949 4.15516731,14.8520389 4.09016654,14.9140607 C3.81888234,15.1737868 3.56263964,15.4501324 3.33003358,15.7436742 C3.10817146,16.0232704 2.87717699,16.3124083 2.76436574,16.6518767 C2.7095717,16.2741886 2.67035636,15.8944034 2.65101729,15.5127833 C2.6488685,15.4659655 2.64779411,15.4193574 2.64618252,15.3726445 C2.71279488,15.2807914 2.76597733,15.1797111 2.82721772,15.0838211 C2.94217776,14.9043616 3.07325369,14.7366983 3.21077598,14.5733865 C3.45143998,14.2873942 3.71144305,14.0187554 3.97413211,13.7520565 C4.0359097,13.6893007 3.94082593,13.5960845 3.87636236,13.6565335 C3.57123478,13.9428403 3.26288403,14.2297239 2.99428581,14.5496892 C2.88147456,14.6838513 2.74448947,14.8376213 2.63973617,15.0032924 C2.64027336,14.6810727 2.65638925,14.3608452 2.68915824,14.0433964 C2.82238295,13.8846982 2.94969851,13.719866 3.08346042,13.5635794 C3.27738833,13.3369876 3.4627211,13.1063588 3.60078059,12.8424909 C3.63569836,12.7759079 3.53470543,12.7171891 3.49763887,12.7835623 C3.33003358,13.0847062 3.09903912,13.3378264 2.86858185,13.5934107 C2.82077136,13.6462053 2.77188649,13.6992095 2.72407601,13.753105 C2.85300315,12.8067353 3.12751053,11.8855833 3.55243291,11.0046956 C4.18739909,9.68850195 5.0748476,8.50238106 6.09713242,7.44832517 C7.46752053,6.03545513 9.07803544,4.81415536 10.867974,3.9586426 C10.9071893,3.94527357 10.9464046,3.9320094 10.9850828,3.91864038 C10.9743389,3.93636089 10.9630577,3.95366198 10.9523138,3.97143492 C10.7868573,4.24468731 10.5859458,4.52858249 10.4833413,4.83072246 C10.4672254,4.87832668 10.5349122,4.91539296 10.5692927,4.87953251 C10.7830969,4.65671542 10.9152472,4.35557158 11.0699598,4.09243771 C11.1199191,4.00740022 11.1698784,3.9226773 11.220912,3.83821652 C11.3659551,3.78877734 11.5109981,3.73918088 11.6555039,3.68895528 C11.7801335,3.6455977 11.9053003,3.60344595 12.030467,3.56192333 C11.7156699,3.88456247 11.3809966,4.27824094 11.2402511,4.67480293 C11.2246724,4.71852751 11.28645,4.74898791 11.3176074,4.71863236 C11.4868243,4.55416714 11.6012471,4.33659281 11.7371578,4.14591381 C11.9053003,3.90962284 12.0884843,3.68491836 12.2915445,3.47672856 C12.5542336,3.39289691 12.8185342,3.31362645 13.0839093,3.23938904 C12.9678748,3.40416883 12.8518404,3.5685292 12.7422523,3.73755562 C12.5896885,3.97431844 12.3920002,4.24515916 12.36138,4.52947376 C12.3554709,4.58426055 12.4312156,4.59028972 12.4575382,4.55479627 C12.6407222,4.30723338 12.7529962,3.99565645 12.9200643,3.7335187 C13.0355616,3.55143782 13.154282,3.37098219 13.2697792,3.18842946 C13.5389146,3.11576488 13.8101988,3.04802849 14.0825574,2.9871601 C14.2447907,2.95098509 14.4075613,2.9176936 14.5703318,2.88602736 C14.2711134,3.3932639 13.8999106,3.86259533 13.6651558,4.40343793 C13.6463539,4.44648095 13.6936272,4.48700745 13.7328425,4.45429266 C13.9659858,4.25858061 14.0702019,3.97756894 14.2130962,3.72025453 C14.3769411,3.42487771 14.5757038,3.15125833 14.7373999,2.85409898 C14.9716175,2.81110839 15.2063724,2.77357026 15.4422016,2.74111761 C15.2805055,2.95413074 15.1408344,3.18428769 15.0129817,3.41638445 C14.8158306,3.77388791 14.5762409,4.17993929 14.4602065,4.56910899 C14.4467766,4.61445882 14.5090914,4.65142024 14.5429348,4.61592679 C14.8212025,4.32343349 14.9442205,3.92807734 15.1209581,3.57665547 C15.2686872,3.28253692 15.4384412,2.98102608 15.6431131,2.71401257 C15.924604,2.67914825 16.2071693,2.65314418 16.4897346,2.63537124 C16.3312617,2.92173052 16.1701028,3.20662182 16.0127042,3.49381994 C15.8402642,3.80938136 15.5619964,4.17097418 15.5141859,4.52947376 C15.506128,4.58992273 15.5920794,4.61278114 15.6307576,4.5765537 C15.8988186,4.32338106 16.04225,3.87114102 16.2087809,3.54803003 C16.3667167,3.24237741 16.5187433,2.93410342 16.6696955,2.62525272 C16.9479632,2.61156913 17.2267682,2.60648366 17.5055731,2.61162156 C17.3825551,2.82054535 17.2761902,3.03822453 17.1666022,3.25595615 C17.0903203,3.4075242 17.0113524,3.55835826 16.9232522,3.70368742 C16.8330032,3.85190011 16.7132084,3.98553793 16.6476704,4.14559924 C16.6256453,4.19933748 16.6981669,4.24285235 16.7432914,4.21732013 C17.0274683,4.05710154 17.1832552,3.66599202 17.313794,3.3890697 C17.436812,3.1289242 17.551772,2.86652431 17.6941291,2.61733616 C17.9589669,2.62645856 18.2232675,2.64365479 18.4875682,2.67165111 C18.3317812,2.89976338 18.1894242,3.13636891 18.0680178,3.38429879 C17.9240491,3.67784064 17.7172285,4.05867436 17.7730969,4.3898592 C17.7833037,4.45172371 17.8676435,4.44768678 17.8977265,4.40579717 C17.9911987,4.2747283 18.0218189,4.11938547 18.0723153,3.96870869 C18.1405393,3.76455581 18.2205816,3.56438742 18.3140537,3.3700385 C18.4263278,3.13736503 18.5557921,2.9137091 18.6965376,2.69681633 C18.8351343,2.7142747 18.973731,2.73346319 19.1117904,2.75658374 C19.2697262,2.78290237 19.4260504,2.81346763 19.5818373,2.84681155 C19.4367943,3.06947135 19.2842305,3.28751753 19.1579893,3.52144926 C19.0715007,3.68203485 18.9866237,3.84361655 18.9183997,4.01264298 C18.8458782,4.19299375 18.7362901,4.38770967 18.7239346,4.58190131 C18.7201742,4.63951919 18.7969933,4.68539329 18.8469526,4.65084354 C18.9936072,4.54871467 19.0392689,4.39541652 19.0994349,4.23425423 C19.176254,4.02968193 19.2659658,3.8347563 19.3653472,3.63962096 C19.4953487,3.38377452 19.6522101,3.14302721 19.7961787,2.89520218 C20.1029179,2.9675522 20.4053595,3.0524324 20.7035035,3.15047192 C20.6406515,3.25464546 20.565444,3.35090244 20.4966829,3.45245461 C20.3736649,3.63401121 20.2812671,3.82720673 20.1759766,4.01830515 C20.029322,4.28495167 19.7182852,4.64439495 19.8058482,4.9687642 C19.8246501,5.03676273 19.9084528,5.03503262 19.9460565,4.986642 C20.0615537,4.83790504 20.0991575,4.62462976 20.1872577,4.45680918 C20.2715976,4.2964333 20.3666813,4.14444584 20.442426,3.97956119 C20.5643696,3.71254768 20.7480908,3.47216736 20.8748691,3.20908592 C21.1536741,3.3059196 21.4287187,3.41302909 21.6994657,3.53062408 C21.4340906,3.88136439 21.1783851,4.2469417 20.9753249,4.63558712 C20.9049521,4.77153176 20.8576789,4.91355799 20.8071824,5.0576289 C20.7593719,5.19456966 20.6712717,5.32894147 20.6589162,5.47316966 C20.6540814,5.52627877 20.7137102,5.56030425 20.7609835,5.54918961 C21.0376397,5.48402216 21.076855,5.01201693 21.1703272,4.80104847 C21.3551228,4.38356789 21.615663,3.98627192 21.8751289,3.60931783 C22.1770333,3.74631102 22.4730285,3.89557226 22.7631146,4.05621027 C22.5756331,4.31787617 22.3988954,4.5868295 22.2329017,4.86207414 C22.0712056,5.12908765 21.8681454,5.4108333 21.7966982,5.71627621 C21.7811195,5.7840126 21.8665338,5.8390091 21.9197162,5.78600485 C22.1448015,5.56171979 22.2758774,5.24683993 22.4327388,4.97626134 C22.5944349,4.69792348 22.7631146,4.42435652 22.944687,4.15812943 C23.1665491,4.2855808 23.3841137,4.41969047 23.5984551,4.55967203 C23.3792789,4.86794602 23.1869626,5.19477937 23.007539,5.52580692 C22.7991068,5.90915716 22.5724099,6.29507636 22.4638962,6.71837639 C22.4493919,6.77499815 22.5229878,6.79995366 22.5557568,6.75622908 C22.8238178,6.39652367 22.9946463,5.97553044 23.2025413,5.58122284 C23.3696094,5.26461287 23.5441982,4.95198739 23.7161011,4.63799879 C24.2694134,5.00782273 24.7953287,5.41738675 25.291161,5.85772574 C25.2750451,5.86018983 25.2583921,5.8683161 25.2433506,5.88420165 C24.9253303,6.22099623 24.6739223,6.60943195 24.4520602,7.01155125 C24.2318097,7.41036762 23.9589139,7.84541143 23.8482514,8.28789995 C23.8342843,8.34462656 23.9094918,8.395324 23.9535419,8.34771979 C24.2479256,8.02749231 24.4042497,7.57787365 24.6008636,7.19772148 C24.8189654,6.77709525 25.050497,6.36401858 25.3679801,6.00583356 C25.3846332,5.98701207 25.3910796,5.96630319 25.3905424,5.94643315 C25.6113301,6.14586755 25.8256715,6.35138355 26.0335665,6.56203744 C26.0303433,6.56649378 26.026583,6.57100255 26.0233598,6.57645502 C25.7644311,7.03802717 25.471659,7.47925742 25.1783498,7.9203304 C25.0354555,8.13502122 24.8936357,8.35013145 24.7582622,8.56917376 C24.632021,8.77269751 24.4783828,8.99357477 24.4332583,9.2299706 C24.4209028,9.29419434 24.4966475,9.34536363 24.5487556,9.29571474 C24.7147493,9.13853695 24.8221886,8.92070048 24.940909,8.7289205 C25.0854148,8.49650917 25.2326066,8.26593281 25.3797985,8.03530402 C25.657529,7.60031264 25.9341852,7.16516397 26.1796839,6.71203266 C26.2849744,6.82108196 26.3886534,6.93117982 26.4896463,7.04269322 C26.620185,7.18629228 26.748575,7.33240786 26.8748161,7.48083025 C26.4601005,8.44780398 25.3830216,9.10524545 25.1993004,10.1774937 C25.1890937,10.2373135 25.2621524,10.2690322 25.299219,10.2185445 C25.6489339,9.73836055 25.9196809,9.21041512 26.2860488,8.73783319 C26.5551843,8.3905531 26.8329148,8.04495069 27.0150244,7.64823142 C27.3717228,8.07986744 27.708545,8.53058708 28.0211933,8.99771655 C27.6687925,9.48335294 27.3153172,9.96836021 26.9801066,10.4654258 C26.6551028,10.9473398 26.2688586,11.4519026 26.084063,12.004856 C26.0593519,12.0800371 26.1705516,12.1477735 26.2242712,12.0845458 C26.6078295,11.6359233 26.8801881,11.0840709 27.2014316,10.5918286 C27.5103195,10.1185651 27.8251166,9.64923371 28.1415253,9.18100326 C28.2999983,9.42505351 28.4520249,9.67335038 28.5965307,9.92557933 C28.2930147,10.4061827 27.9825152,10.882487 27.6693297,11.3571136 C27.3486234,11.8440082 26.9602304,12.3124484 26.6980785,12.8323724 C26.6653095,12.8971204 26.7469634,12.9664296 26.803369,12.9118001 C27.2180847,12.5111488 27.5232122,11.9857199 27.8304886,11.5056408 C28.1334674,11.0322725 28.4074376,10.5430186 28.6642175,10.0444326 C28.8549222,10.3853689 29.0327342,10.733383 29.1955047,11.0874263 C28.8124837,11.4426229 28.5712825,11.9232787 28.3225605,12.3715867 C27.9916475,12.9685792 27.6150728,13.5441812 27.3024245,14.1508204 C27.2766391,14.2015703 27.339491,14.2507998 27.3835412,14.2116364 C27.8637948,13.7847713 28.1528064,13.1193084 28.4541736,12.5676133 C28.7002096,12.1175228 28.9107906,11.6279543 29.2707122,11.2530449 C29.4173669,11.5833909 29.5505916,11.9189796 29.6703864,12.2589199 C29.6376174,12.2544111 29.6021624,12.2640578 29.5774514,12.295724 C29.1675705,12.8208383 28.7738055,13.3574867 28.3999168,13.9071896 C28.0539623,14.415265 27.6585857,14.9455172 27.4426328,15.5215387 C27.4195333,15.5826692 27.5135427,15.6370366 27.5565184,15.5863392 C27.9583413,15.1108737 28.250039,14.5344328 28.5900843,14.0156622 C28.9489316,13.467637 29.3271179,12.9320896 29.72142,12.4073947 C29.8637771,12.8283355 29.9846463,13.2556724 30.0808045,13.6884094 C30.0426635,13.6671238 29.9889439,13.6684345 29.9567121,13.7133125 C29.4904256,14.3647773 29.010172,15.0074866 28.5503318,15.6633028 C28.3564039,15.9395436 28.2070633,16.2441476 28.0453672,16.5385808 C27.886357,16.8264604 27.6816852,17.1075769 27.5592044,17.4113946 C27.5409397,17.4558532 27.6054033,17.505869 27.6451558,17.4761426 C27.8933406,17.2909161 28.0485903,16.9927082 28.1936334,16.7288928 C28.3617759,16.4227159 28.5121909,16.1037991 28.7061188,15.8118825 C29.1557522,15.133103 29.6370802,14.4717819 30.1055155,13.8051132 C30.1936157,14.2213355 30.2607653,14.6420666 30.3021294,15.0664152 C30.3085757,15.130901 30.3134105,15.1953869 30.3182453,15.2598728 C30.2817159,15.2240648 30.2215499,15.2114822 30.1742766,15.2578806 C29.6660888,15.7551034 29.2524475,16.3324356 28.8586826,16.9178416 C28.4541736,17.5186089 28.0050774,18.0978809 27.6220564,18.7104444 C27.5876758,18.7658603 27.6623461,18.8101616 27.7080078,18.7749827 C28.2580969,18.3512633 28.6196301,17.7130103 28.9945933,17.1463733 C29.398565,16.5351205 29.7998507,15.925493 30.3214685,15.4012175 C30.3241544,15.398334 30.3263032,15.3952932 30.328452,15.3923048 C30.3998991,16.440017 30.3214685,17.4880961 30.1130362,18.5119537 Z M28.3230977,8.32292156 C26.6008459,5.89814738 24.2914385,3.84969815 21.4561157,2.75065942 C19.873535,2.13694253 18.1792174,1.90028457 16.4822139,2.03795931 C15.6280716,2.10726853 14.7900451,2.26046183 13.9670602,2.47331769 C13.1403149,2.60894776 12.3264623,2.81105596 11.5314116,3.11230466 C9.99449256,3.69514173 8.58327752,4.55767978 7.31388235,5.57954516 C4.95344121,7.47951956 2.82614333,10.0355723 2.19654911,13.0250961 C1.84898301,14.6752532 1.99778643,16.3789913 2.36684038,18.0126337 C2.71655526,19.560662 3.2376358,21.0913367 3.89677582,22.5403818 C5.12212089,25.2363637 7.05549086,27.5932966 9.85052391,28.8389752 C12.8013439,30.1542251 16.0873745,30.2278859 19.2342712,29.6739888 C22.1641406,29.158259 24.9226443,27.7678279 26.9887018,25.6672133 C29.1874468,23.4316501 30.6271332,20.4419167 30.9419303,17.3562932 C31.269083,14.1426942 30.1893181,10.9501709 28.3230977,8.32292156 Z M14.6562832,9.37781629 C14.7153748,9.12742231 14.8260373,8.90062073 14.9409973,8.67339973 C15.109677,8.43653206 15.314886,8.22435776 15.5652196,8.07090232 C15.6721217,8.00547274 15.7800982,7.95529958 15.8886118,7.91886243 C15.8429501,7.96489382 15.7983628,8.01176405 15.7564615,8.05942069 C15.6737333,8.15368543 15.5260042,8.2838106 15.5668312,8.42054165 C15.5754263,8.44895739 15.6060465,8.45813221 15.6312947,8.44623115 C15.7457176,8.39348904 15.8252227,8.23751708 15.9020417,8.14309506 C15.9777864,8.04930217 16.0535311,7.955719 16.1271271,7.86061542 C16.2345663,7.84383861 16.3420056,7.8396444 16.4483705,7.84677455 C16.3710142,7.92541587 16.2963439,8.0061543 16.2232852,8.08909468 C16.1083252,8.22016356 15.9514638,8.35658004 15.894521,8.52303751 C15.8746447,8.58149423 15.9434059,8.61735468 15.9917536,8.59585938 C16.1588216,8.52151711 16.2716329,8.33854497 16.3844441,8.2031246 C16.4757675,8.09386559 16.5654793,7.98340074 16.6589515,7.87587184 C16.7432914,7.89333021 16.827094,7.91739446 16.9087479,7.94775001 C16.6240338,8.24050545 16.3436172,8.58191365 16.1808467,8.93323066 C16.1550613,8.98896115 16.2163017,9.03310515 16.2646493,8.99651072 C16.5987855,8.74422935 16.8190361,8.35186156 17.0849483,8.02345539 C17.2160242,8.08767914 17.3417282,8.16710688 17.4604486,8.2584881 C17.3213147,8.42211448 17.1923876,8.59449626 17.0516421,8.75911877 C16.8082921,9.04332852 16.5482891,9.32884895 16.3463032,9.64362396 C16.3215922,9.68283977 16.3720886,9.7339042 16.4123784,9.70805742 C16.9264754,9.38028038 17.2310657,8.84342227 17.6033429,8.37755106 C17.6892943,8.45472442 17.7709481,8.53803179 17.8461556,8.62621493 C17.6022685,8.86491757 17.3664392,9.11043578 17.1408167,9.3662298 C16.8915576,9.64928614 16.6251082,9.93611726 16.4548169,10.2732264 C16.430643,10.3210928 16.4875859,10.3629824 16.52895,10.3290617 C16.8308544,10.0817086 17.0618489,9.75990827 17.3154056,9.46788682 C17.5233006,9.2280832 17.7354932,8.99158253 17.9546693,8.76168772 C18.0191329,8.84793104 18.0792989,8.94030838 18.1324813,9.03703721 C17.5770202,9.57116909 17.0398238,10.1719364 16.6159758,10.7975019 C16.5907276,10.8345158 16.6422984,10.8882016 16.6804394,10.8605722 C17.281025,10.4274158 17.7435511,9.8058348 18.2302511,9.24103281 C18.2866567,9.37834056 18.3264093,9.52136292 18.3430623,9.66611538 C17.9009497,10.0819183 17.461523,10.5461642 17.1746601,11.0565464 C17.1435027,11.1119099 17.2128011,11.1547432 17.2584627,11.1198265 C17.5587556,10.8923433 17.7854525,10.5934539 18.0293396,10.3123898 C18.1330185,10.1933268 18.2366975,10.0751551 18.3425252,9.95818926 C18.341988,9.96096792 18.341988,9.96374658 18.3414508,9.96652524 C18.2802104,10.4234838 17.910082,10.8553819 17.5528464,11.1337198 C16.7443658,11.7642659 15.6280716,11.7121005 14.9780639,10.8862617 C14.6358698,10.4518471 14.5316536,9.90827824 14.6562832,9.37781629 Z M14.0632184,10.285442 C14.089541,10.4587675 14.1362771,10.6298386 14.2050382,10.7947757 C14.4580577,11.3980071 14.9812871,11.8758842 15.6022861,12.1102353 C16.2109297,12.3398156 16.8749045,12.258448 17.4523907,11.9850383 C18.0266536,11.7132015 18.514428,11.2310777 18.8077373,10.6798545 C19.1128648,10.1049864 19.0811703,9.47538396 18.8163324,8.89155076 C18.3290952,7.81673356 17.0817251,6.94428671 15.8493965,7.26771226 C15.2117443,7.435061 14.7067797,7.8900797 14.3554532,8.4210135 C14.1690461,8.70349314 14.0283006,9.00374572 13.9520187,9.33220432 C13.8859435,9.61772475 13.8118104,9.93879107 13.9213985,10.2194357 C13.9466467,10.2838692 14.0089615,10.3065179 14.0632184,10.285442 Z M30.2011365,16.6672904 C29.9336126,16.8574451 29.7558006,17.1382995 29.543608,17.3813012 C29.278233,17.6842276 29.0031884,17.9771403 28.7754171,18.3076436 C28.3080562,18.9856891 27.7493719,19.6136138 27.3470118,20.332081 C27.31478,20.3904853 27.3953595,20.4574352 27.4442443,20.4053223 C27.9599529,19.8581883 28.4052888,19.2388617 28.8339715,18.6257215 C29.0628172,18.2988882 29.3013324,17.9904045 29.5575751,17.6833887 C29.7880324,17.406781 30.0034482,17.039893 30.2946086,16.8228954 C30.3870064,16.7539531 30.298369,16.5982957 30.2011365,16.6672904 Z M24.3263562,5.22571162 C24.123296,5.62007165 23.8901527,5.99697331 23.6548607,6.3735604 C23.4362217,6.72367158 23.1901858,7.06109529 23.0564239,7.45288637 C23.0413824,7.49682065 23.1058459,7.53378208 23.1375405,7.49870805 C23.4158083,7.19069619 23.6177941,6.82674414 23.8321355,6.47464071 C24.06313,6.09464583 24.2742482,5.70489943 24.4585066,5.30120729 C24.4977219,5.21506883 24.3709435,5.13847218 24.3263562,5.22571162 Z M16.4945694,19.7587857 C16.884574,19.2874096 17.1875528,18.7410097 17.5141683,18.2273246 C17.8730155,17.6632565 18.2442182,17.1065808 18.6761241,16.5925811 C18.7427365,16.5134155 18.6309996,16.3993856 18.5590153,16.4781842 C18.126035,16.9519196 17.7516091,17.4659717 17.4061918,18.0029346 C17.0543281,18.5498588 16.7030016,19.1231017 16.4370894,19.7153757 C16.4220479,19.7489293 16.466098,19.7934403 16.4945694,19.7587857 Z M27.5323446,8.40114346 C27.593585,8.30389036 27.4394096,8.21775189 27.3765576,8.31222634 C27.0649837,8.77867425 26.7174176,9.2208482 26.3972485,9.68126694 C26.1216667,10.0770425 25.7144718,10.4776939 25.6167021,10.9606564 C25.605421,11.0179073 25.6833144,11.0802961 25.7289761,11.0244083 C26.043236,10.6418445 26.3231154,10.2064337 26.5938624,9.79330462 C26.9006016,9.32528388 27.2347377,8.8748788 27.5323446,8.40114346 L27.5323446,8.40114346 Z" id="path-1"></path>
    </defs>
    <g id="32icon-rules-red" stroke="none" stroke-width="1" fill="none" fill-rule="evenodd">
        <g id="Fill-26">
            <g>
                <rect id="Rectangle" x="0" y="0" width="32" height="32"></rect>
                <mask id="mask-2" fill="white">
                    <use xlink:href="#path-1"></use>
                </mask>
                <use id="Fill-24" fill="#D30000" xlink:href="#path-1"></use>
            </g>
        </g>
    </g>
</svg>