<svg xmlns="http://www.w3.org/2000/svg" width="48" height="48" viewBox="0 0 48 48">
    <path fill="#D30000" fill-rule="evenodd" d="M36.634 6.992l.007-.009c.136-.142.29-.257.434-.388.305-.277.582-.629.863-.936.062-.068-.032-.162-.1-.101-.365.328-.723.68-1.105.983l-.004.003c.025-.095.05-.189.08-.278.001-.007.004-.013.006-.02l.034-.062c.399-.694 1.046-1.31 1.827-1.518 1.304-.348 2.747.277 3.376 1.484.667 1.278.194 2.917-.945 3.747-.356.26-.766.409-1.192.463.053-.052.106-.104.16-.152.274-.24.552-.474.81-.732.138-.138-.074-.352-.213-.215-.26.256-.54.487-.815.726-.143.122-.305.247-.432.394-.176-.007-.35-.028-.522-.063.095-.104.184-.213.272-.304l.873-.907c.12-.126-.066-.316-.19-.193l-.898.883c-.132.13-.303.265-.44.418-.182-.06-.36-.136-.527-.227.125-.138.24-.287.353-.412.363-.402.796-.734 1.17-1.126.122-.126-.062-.312-.19-.193-.536.504-1.177.958-1.675 1.52-.158-.112-.306-.239-.439-.378.208-.186.414-.374.636-.548.408-.322.813-.643 1.184-1.011.106-.106-.057-.27-.164-.166-.575.563-1.237 1.004-1.806 1.554l-.025-.03c-.1-.125-.179-.263-.243-.408.625-.517 1.11-1.212 1.8-1.65.122-.079.01-.273-.114-.197-.385.235-.696.56-1.03.861-.26.236-.52.475-.75.74-.055-.177-.09-.362-.107-.552.171-.167.332-.346.496-.504.355-.339.697-.69 1.027-1.052.063-.07-.033-.167-.103-.103-.362.331-.738.646-1.103.974-.105.093-.219.187-.331.284.004-.201.023-.403.055-.6zm4.287 4.27c1.846-.748 2.928-2.892 2.414-4.843-.484-1.84-2.35-3.142-4.225-2.94-1.075.117-1.943.67-2.578 1.512-.331.397-.576.89-.731 1.414-.067.214-.116.432-.145.652-.094.63-.066 1.27.092 1.821.589 2.043 3.278 3.154 5.173 2.385zm-.277 35.415l.018-.09-.018.09zm6.47-32.36c-.013.161-.063.326-.095.484l-.104.517c-.019-.058-.03-.062-.09-.091-.066-.033-.119.058-.058.1-.069-.047-.894.51-1.008.568-.359.188-.725.361-1.093.534-.664.312-1.333.61-1.908 1.076.25-.336.495-.676.74-1.015.153-.213.309-.425.465-.636l.056-.03c.399-.214.792-.441 1.187-.66.371-.208.75-.403 1.115-.62.245-.145.519-.384.798-.525.008.11.001.222-.005.299zm-.491 2.446c-.005-.034-.035-.066-.08-.059-.466.074-.876.267-1.288.491-.472.258-.948.503-1.424.754-.905.477-1.807.98-2.677 1.521.542-.58 1.039-1.206 1.518-1.848.013.029.05.05.083.032.716-.375 1.43-.748 2.16-1.098.696-.336 1.381-.682 1.985-1.175l.004-.004c-.093.462-.186.924-.281 1.386zm-.033.164l-.276 1.365c-.879.32-1.726.73-2.577 1.115-.991.447-2.109.91-2.965 1.592-.073.057.006.19.09.157.984-.384 1.891-1.017 2.85-1.47.841-.399 1.687-.833 2.558-1.176l-.6 2.962c-.879.33-1.749.663-2.591 1.09-.837.425-1.708.848-2.525 1.326-.79-.012-1.579-.031-2.368-.061-.629-.024-1.258-.04-1.885-.077-.615-.037-1.226-.123-1.843-.122-.652 0-1.302.07-1.949.142-.148.016-.301.03-.452.055.387-2.021.772-4.042 1.155-6.064.1-.523.183-1.049.272-1.574.07-.421.163-.94.209-1.28.04-.296.078-.592.11-.889.05-.023.097-.056.14-.101.327.433.657.862.97 1.293.71.977 1.401 1.967 2.064 2.977.615.936 1.256 1.83 2.096 2.574.029.025.06.04.094.05.14.108.328.14.496.015.468-.352.897-.74 1.3-1.155.013.022.038.036.069.026.975-.307 1.828-.907 2.714-1.405.43-.242.876-.452 1.3-.705.491-.294.972-.61 1.532-.754.018-.005.03-.014.036-.026l-.024.12zm-1.412 6.986l-.044-.002H44.2c.365-.208.695-.462.934-.768.053-.069-.029-.155-.096-.097-.472.406-1.03.617-1.57.865-.762-.001-1.524-.005-2.286-.014.645-.313 1.264-.708 1.88-1.037.837-.448 1.703-.826 2.57-1.202-.15.752-.302 1.503-.454 2.255zm-.401 1.995c-.47.192-.919.445-1.377.662-.562.267-1.117.545-1.666.835-1.122.591-2.259 1.224-3.252 2.02-.072.056.02.164.094.123 1.085-.602 2.116-1.3 3.209-1.891.502-.271 1.003-.547 1.512-.805.477-.241.949-.522 1.44-.742-.12.589-.237 1.178-.355 1.768-.333.072-.628.263-.935.416-.491.246-.99.476-1.482.72-.956.473-1.999.924-2.83 1.608-.07.056.018.147.087.115.9-.413 1.758-.94 2.638-1.397.397-.206.796-.407 1.194-.607.4-.202.845-.555 1.295-.685l-.261 1.31c-1.284.599-2.54 1.336-3.69 2.164-.057.04-.009.122.054.094 1.243-.57 2.359-1.389 3.584-2l-.283 1.423-.023.012c-.83.535-1.735.988-2.461 1.67-.047.045.014.125.07.091.787-.482 1.575-.966 2.353-1.464-.185.93-.37 1.859-.557 2.787l-.07.355c-1.13-.034-2.242-.166-3.375-.163-1.213.003-2.422-.116-3.634-.157-1.181-.04-2.37-.094-3.551-.094-.583 0-1.166-.007-1.749-.009-.228 0-.46-.018-.69-.017.509-2.565 1.015-5.13 1.507-7.698l.33-1.72c.838.1 1.714-.024 2.555-.024.644 0 1.282.091 1.924.129l.256.013c-.309.158-.609.325-.877.55-.084.07.023.176.106.14.427-.189.827-.432 1.24-.648l.038-.02c.373.015.748.027 1.122.042.858.035 1.714.056 2.572.069-.252.136-.497.284-.736.4-.885.432-1.915.763-2.717 1.34-.053.037-.024.133.046.111.82-.258 1.628-.704 2.402-1.078.438-.211.928-.549 1.427-.768.887.01 1.773.014 2.66.015-.232.104-.458.218-.685.337-.575.304-1.165.571-1.755.847-1.248.585-2.639 1.12-3.748 1.956-.061.045-.029.171.056.137 1.23-.492 2.393-1.195 3.591-1.762.574-.271 1.154-.526 1.711-.832.428-.235.85-.486 1.297-.683h.59l-.201 1.005zm-2.179 10.928c-.795.49-1.57 1.011-2.33 1.555-.865.622-1.795 1.26-2.555 2.013-.063.063.02.176.097.126.92-.59 1.755-1.347 2.629-2.01.69-.523 1.396-1.023 2.121-1.494l-.405 2.04c-.33.246-.656.497-.983.747-.885.678-1.858 1.334-2.646 2.129-.08.08.022.211.12.156.9-.503 1.702-1.24 2.511-1.88l.91-.715-.33 1.658c-.482.39-.975.765-1.466 1.142-.537.412-1.106.813-1.553 1.325-.055.063.016.176.094.123.617-.423 1.183-.926 1.776-1.383.36-.277.719-.555 1.074-.84-.07.355-.14.709-.213 1.062l-.025.127c-.668.577-1.407 1.094-2.002 1.743-.065.07.017.177.1.131.646-.348 1.236-.84 1.795-1.344-.148.726-.296 1.453-.448 2.178-.065.305-.135.61-.191.917l-.029.16c-.015.095-.041.222-.024.137l-.002.009c-.013.064-.028.127-.04.19-.018.032-.03.065-.04.097-.773-.078-1.57-.073-2.337-.096-1.078-.031-2.157-.028-3.235-.014-2.098.028-4.196.1-6.294.05-.397-.01-.792-.024-1.185-.044l.07-.304c.173-.779.327-1.563.485-2.346.544-2.671 1.074-5.346 1.602-8.02l.243-1.224c.123.011.247.016.364.025.61.047 1.22.063 1.832.066.997.004 1.993.035 2.99.068-.295.201-.577.415-.838.66-.06.057.016.143.084.11.272-.133.51-.329.755-.505.036-.025.184-.14.346-.254l.377.012c.611.019 1.222.058 1.832.093-.87.464-1.727.964-2.541 1.511-.047.032-.007.098.044.075.972-.444 1.873-1.035 2.803-1.568.526.03 1.054.054 1.581.058.18.001.359 0 .537-.002-.286.17-.567.348-.852.521-.847.514-1.758 1-2.492 1.676-.063.059.018.16.09.118.835-.48 1.631-1.043 2.441-1.565.372-.24.733-.495 1.114-.72l.052-.03c.284 0 .569.007.854.031.304.026.608.06.912.087-.812.509-1.612 1.037-2.404 1.58-.947.647-1.924 1.273-2.813 2.001-.055.045.015.128.073.096 1.024-.56 1.966-1.28 2.926-1.943.836-.577 1.674-1.152 2.521-1.71.115.008.229.015.343.018.015.008.03.016.047.022l-.272 1.368zm-2.016 10.136h-.004c.006-.025.012-.05.02-.075l-.016.075zm-13.175-4.7c-.594.595-1.212 1.164-1.845 1.715-.622.54-1.367 1.03-1.897 1.661-.065.077.015.195.109.143.702-.391 1.316-1.024 1.921-1.55.567-.492 1.119-.998 1.654-1.523l-.005.027c-.189.939-.379 1.878-.574 2.815-.082.395-.2.802-.262 1.205-1.341-.11-2.669-.308-3.981-.661-1.87-.502-3.651-1.265-5.418-2.05-1.393-.619-2.81-1.231-4.302-1.535.047-.229.143-.457.193-.685.048-.216.094-.433.14-.65.168-.79.333-1.581.497-2.372.534-2.566 1.063-5.132 1.594-7.699.217.15.438.293.69.399.534.224 1.098.35 1.664.461.57.112 1.137.235 1.704.363-.643.557-1.345 1.066-1.919 1.693-.05.055.013.136.077.102.623-.323 1.142-.844 1.67-1.301.006-.007.231-.22.457-.43.569.132 1.136.269 1.703.407-.201.126-.401.254-.599.387-.51.342-1.05.688-1.48 1.133-.053.054.014.14.08.104.554-.312 1.044-.747 1.563-1.115.22-.156.443-.306.668-.452.359.088.718.177 1.075.267-.319.24-.645.47-.946.735-.603.53-1.245 1.01-1.854 1.531-.063.055.017.15.086.113.689-.37 1.279-.913 1.861-1.43.353-.314.729-.592 1.09-.889.59.15 1.18.302 1.769.46-.378.292-.743.603-1.129.889-.77.57-1.582 1.13-2.263 1.81-.06.059.017.163.09.118.832-.52 1.573-1.19 2.362-1.772.42-.31.807-.654 1.218-.97.115.03.23.061.344.093.361.098.718.207 1.074.318-.72.598-1.533 1.075-2.255 1.674-.98.814-2.027 1.569-2.943 2.457-.05.049.015.137.075.099 1.06-.67 2.024-1.516 2.983-2.321.773-.649 1.65-1.163 2.408-1.826l.471.146c.567.174 1.171.242 1.71.488.057.031.112.051.164.062l-.368 1.86c-.02-.053-.077-.087-.134-.043-1.248.964-2.428 2.018-3.561 3.118-1.115 1.084-2.291 2.195-3.234 3.438-.052.069.054.136.112.087 1.156-1.001 2.155-2.21 3.238-3.292 1.125-1.125 2.293-2.2 3.547-3.176l.008-.008-.499 2.517v.001c-.825.82-1.724 1.558-2.55 2.378-.431.429-.868.85-1.308 1.27-.458.436-.965.842-1.366 1.334-.056.069.016.186.101.132 1.01-.64 1.87-1.63 2.707-2.478.753-.762 1.564-1.458 2.33-2.205l-.478 2.396c-.013.006-.026.015-.037.027zm-15.462.11l-.171-.02c-1.968-.188-3.912.245-5.852.502-.875.116-1.78.212-2.664.167-.732-.036-1.625-.223-1.98-.957-.346-.722-.257-1.633-.108-2.369.568-2.817 1.2-5.623 1.808-8.432l.027-.125c.243.094.483.19.774.194.466.007.93-.083 1.399-.067 1.002.036 1.995.026 2.996-.014-.688.884-1.708 1.478-2.31 2.429-.033.053.041.107.085.065.81-.782 1.72-1.532 2.392-2.443.015-.02.017-.04.013-.058l.058-.002c.627-.028 1.253-.053 1.877-.075-1.259 1.19-2.55 2.337-3.648 3.697-.043.052.021.117.073.074.78-.649 1.455-1.416 2.157-2.148.538-.561 1.11-1.088 1.666-1.632.537-.018 1.072-.034 1.608-.046-.24.254-.484.504-.724.758-.494.523-.948 1.081-1.422 1.623-.969 1.11-2.026 2.175-2.86 3.396-.051.077.063.16.126.098 1.073-1.076 2.066-2.255 3.05-3.415.698-.823 1.44-1.62 2.113-2.466.636-.013 1.271-.022 1.908-.025l-.671 3.238c-.712.686-1.332 1.484-1.98 2.22-.902 1.02-1.861 2.11-2.49 3.329-.044.087.071.191.142.11.917-1.054 1.707-2.22 2.61-3.29.546-.65 1.064-1.36 1.64-2l-.61 2.952c-.94 1.549-2.399 2.706-3.485 4.138-.054.072.05.169.121.122.784-.52 1.406-1.34 2.014-2.053.402-.472.823-.942 1.194-1.446-.227 1.129-.437 2.267-.718 3.38-.052.202-.114.393-.158.592zM5.341 20.247c.72.116 1.447.01 2.183-.031.706-.04 1.418-.037 2.127-.034-.16.09-.281.213-.446.342-.308.243-.616.483-.87.786-.054.064.014.168.092.121.277-.165.499-.394.747-.598.242-.198.475-.473.772-.574.04-.014.059-.044.062-.076.209 0 .417 0 .625-.002l1.4-.015c-.6.592-1.197 1.249-1.63 1.945-.03.047.033.118.08.08.707-.544 1.257-1.333 1.842-2.028.465-.005.93-.009 1.396-.01h.115c-.489.517-.935 1.074-1.415 1.602-.553.608-1.203 1.18-1.616 1.901-.04.072.053.142.112.087 1.164-1.095 2.097-2.408 3.167-3.59.59.004 1.183.021 1.773.018-.76.591-1.382 1.347-2.032 2.056-.722.786-1.443 1.598-2.013 2.505-.042.065.053.14.105.083.715-.785 1.37-1.624 2.077-2.417.678-.761 1.318-1.593 2.116-2.23.168-.003.337-.007.504-.015l-.02.096-.306 1.468c-.996 1.348-2.271 2.478-3.252 3.842-.057.082.064.161.131.102.662-.586 1.214-1.31 1.773-1.994.4-.49.839-.944 1.239-1.432l-.473 2.263c-.766.91-1.62 1.79-2.247 2.798-.046.072.054.144.114.088.732-.694 1.377-1.512 2.014-2.314l-.966 4.649-.087.42c-2.046.002-4.077.069-6.122.172-1.052.054-2.104.086-3.158.072-.473-.006-.936.056-1.404.113-.23.029-.47.014-.708.015.74-3.42 1.484-6.839 2.199-10.264zm.404-1.953c.37-1.804.734-3.61 1.079-5.418.123-.641.24-1.285.346-1.93.042-.26.057-.524.085-.786.017-.15.026-.284.039-.529l.004-.095c.23.034.461.032.702.037.44.008.879.025 1.319.008.894-.034 1.777-.125 2.673-.122.832.003 1.665.025 2.497.046-.494.367-1.031.68-1.517 1.058-.747.583-1.527 1.142-2.2 1.814-.04.04.013.114.06.08.794-.57 1.56-1.183 2.327-1.787.513-.402 1.076-.745 1.58-1.159.596.015 1.197.01 1.795.02-.279.232-.623.433-.893.64-.439.334-.893.64-1.339.963-.883.637-1.782 1.281-2.592 2.013-.05.044.015.13.072.093.975-.641 1.877-1.401 2.82-2.09.442-.32.88-.64 1.314-.97.279-.21.61-.397.865-.644.225.006.451.015.676.03.51.031.997.16 1.478.315l-.038.134c-.229.79-.419 1.587-.604 2.388-.168.728-.33 1.457-.492 2.187-.572.463-1.207.841-1.772 1.314-.742.618-1.574 1.243-2.16 2.02-.046.06.044.15.104.105.782-.592 1.474-1.32 2.224-1.955.494-.42 1.036-.778 1.539-1.185-.205.934-.407 1.87-.604 2.805-.415.263-.751.622-1.142.923-.247.19-.523.375-.777.579-1.526-.011-3.063.065-4.58.089-1.004.015-2.03-.038-3.029.048-.508.044-1.015.13-1.52.19-.207.025-.409.045-.609.074l.27-1.303zm24.232 4.96c-.132-.029-.262-.06-.392-.093.345-.211.668-.466.943-.762.158-.168.308-.325.488-.47.117-.092.212-.168.278-.307.087-.18-.178-.337-.265-.157-.079.165-.249.252-.382.367-.138.12-.252.26-.377.393-.294.311-.653.55-.937.87-.451-.125-.893-.271-1.34-.424l-.032-.01c.677-.51 1.282-1.134 1.935-1.663.726-.589 1.374-1.31 2.108-1.895-.297 1.484-.58 2.972-.87 4.458-.366-.155-.775-.226-1.157-.308zM16.58 19.23c-.305-.015-.61-.025-.916-.03.196-.163.386-.33.57-.484.293-.245.546-.523.841-.756l-.261 1.245-.017.007c-.075-.019-.149-.01-.217.018zm.609 2.406l.299-1.45c.156.097.311.192.478.273.578.282 1.196.477 1.81.665.456.14.911.283 1.366.428-.183.128-.352.289-.52.42-.507.398-1.077.747-1.547 1.189-.052.048.001.148.07.123.898-.332 1.516-1.128 2.304-1.634l1.396.451c-.98.59-2.001 1.179-2.883 1.898-.065.054.019.14.084.11 1.063-.483 2.042-1.244 2.982-1.948l.646.211c.294.096.588.19.884.282-.543.435-1.22.76-1.774 1.149-.734.516-1.538.985-2.169 1.632-.05.052.015.139.077.101.837-.495 1.632-1.09 2.418-1.663.542-.396 1.128-.717 1.626-1.164.553.172 1.107.341 1.66.515-.2.125-.402.251-.606.37-.495.286-.977.583-1.458.895-.936.609-1.921 1.222-2.717 2.018-.053.053.016.149.082.107 1.057-.674 2.062-1.438 3.112-2.124.495-.323 1.008-.613 1.499-.943.108-.073.235-.151.36-.237.299.095.596.191.894.29.216.073.431.148.646.22-.304.185-.62.354-.895.521-.658.4-1.3.819-1.924 1.27-1.21.877-2.428 1.8-3.537 2.805-.059.053.016.145.081.107 1.356-.79 2.516-1.907 3.788-2.823.6-.433 1.221-.836 1.84-1.242.27-.177.572-.364.857-.569.323.105.649.203.983.28.2.046.423.08.645.123-1.16.79-2.35 1.524-3.466 2.379-.595.456-1.18.926-1.752 1.412-.644.547-1.331 1.094-1.87 1.75-.06.072.018.203.107.14.656-.463 1.237-1.04 1.849-1.56.638-.544 1.286-1.075 1.948-1.589 1.11-.862 2.323-1.588 3.407-2.484.208.049.408.112.58.209.027.016.055.028.083.038-.008.034-.014.069-.02.103-.612 3.077-1.212 6.157-1.818 9.235-.443-.266-.998-.286-1.484-.435-.629-.192-1.251-.403-1.885-.579-1.282-.356-2.57-.69-3.864-1.004-1.281-.312-2.563-.631-3.859-.873-.618-.116-1.23-.26-1.827-.455-.28-.09-.527-.193-.778-.268l1.792-8.675zm2.714-11.427c.849.283 1.676.63 2.53.895.415.13.836.24 1.257.345-.23.153-.46.304-.674.48-.471.388-.96.783-1.398 1.212-.054.053.014.135.077.102.531-.277.956-.736 1.406-1.123.26-.223.542-.413.815-.615.359.088.717.175 1.074.267.125.032.248.066.372.101-.815.532-1.65 1.06-2.325 1.748-.048.048.014.135.072.096.846-.558 1.673-1.167 2.491-1.775.423.124.844.258 1.267.38-.449.336-.891.68-1.347 1.008-.644.463-1.298.954-1.842 1.537-.054.057.016.158.086.112.682-.447 1.282-1.016 1.935-1.504.471-.352.924-.728 1.387-1.092.161.044.322.087.484.125.426.1.85.206 1.274.313-.679.517-1.348 1.045-2.009 1.586-.965.788-1.974 1.614-2.814 2.537-.064.07.02.194.105.138 1.007-.664 1.87-1.576 2.785-2.362.722-.62 1.451-1.23 2.186-1.835.503.129 1.005.26 1.508.393l.278.072c-.96.637-1.867 1.387-2.783 2.079-1.054.795-2.094 1.64-3.001 2.606-.048.05.016.145.078.101 1.093-.766 2.081-1.68 3.145-2.488.487-.37.992-.718 1.466-1.107.457-.373.901-.763 1.368-1.123.276.069.553.132.833.185.37.07.798.107 1.168.236-.036.13-.07.26-.104.389-.14.535-.256 1.078-.371 1.62-.13.095-.268.182-.4.28-.274.2-.533.425-.793.645-.596.504-1.202.997-1.805 1.494-1.195.981-2.39 1.994-3.476 3.099-.06.062.02.18.097.126 1.295-.91 2.427-2.058 3.648-3.065.624-.516 1.238-1.043 1.85-1.574.243-.21.53-.41.798-.625-.03.148-.061.296-.093.443-.152.7-.297 1.402-.438 2.104-.807.581-1.498 1.343-2.283 1.951-.73.567-1.468 1.176-2.139 1.828-1.256-.418-2.527-.786-3.785-1.197-1.348-.442-2.692-.894-4.058-1.278-.674-.19-1.336-.41-1.968-.716-.05-.025-.106-.05-.164-.074.4-1.94.799-3.88 1.192-5.822.224-1.105.486-2.288.632-3.398l.406.14zm12.53-3.965c.338-1.591 1.152-3.227 2.507-4.17 1.37-.951 3.052-1.113 4.67-1.008l.132.01c-.151.149-.309.292-.442.457-.102.127-.223.277-.166.449.013.038.06.053.09.024.12-.116.185-.277.294-.403.123-.14.26-.266.39-.397.035-.036.037-.08.02-.114.248.023.496.057.742.1-.13.107-.261.214-.375.337-.138.148-.355.384-.231.596.023.04.066.045.104.028.094-.042.127-.102.18-.187.07-.112.153-.207.245-.302.135-.14.283-.268.423-.405.542.116 1.074.281 1.58.504-.375.345-.85.69-1.027 1.176-.054.148.165.278.266.157.016-.024.036-.044.06-.06.015-.012.022-.033.022-.054.134-.194.263-.382.43-.555.175-.18.36-.35.537-.529.302.15.593.323.87.518-.202.163-.42.307-.615.48-.175.155-.505.456-.364.72.049.09.167.092.236.03.09-.079.119-.218.192-.314.085-.109.19-.204.293-.295.167-.148.347-.282.514-.432.063.05.126.099.187.15.092.079.183.16.272.244-.169.192-.377.35-.55.537-.172.186-.399.339-.476.59-.028.09.033.208.128.227.016.003.032.006.048.007.059.004.131-.037.157-.091.11-.234.358-.447.536-.63.133-.137.271-.266.393-.41.174.176.34.363.5.558-.171.144-.335.297-.496.452-.21.203-.496.432-.593.715-.056.16.184.311.291.172.292-.378.633-.756 1-1.08.202.27.388.553.555.848-.258.255-.515.51-.777.76-.225.215-.573.471-.503.82.015.074.106.1.165.067.14-.075.212-.204.317-.322.124-.143.263-.272.396-.408l.575-.597c.127.252.24.511.337.775-.358.316-.656.683-.965 1.046-.238.28-.612.523-.764.862-.058.133.01.286.166.291.083.003.124-.01.186-.064.023-.02.032-.057.027-.089.224-.267.484-.5.703-.774.248-.313.49-.627.768-.911.087.286.155.577.2.87-.404.405-.794.825-1.204 1.225-.34.332-.923.74-.99 1.243-.016.114.089.226.203.158.237-.142.371-.379.558-.581.187-.201.389-.388.576-.588.31-.328.606-.67.91-1.005.027.378.015.758-.039 1.135-.397.381-.8.756-1.203 1.13-.447.416-1.139.886-1.381 1.463-.032.075.024.207.125.164.568-.241 1.032-.867 1.468-1.293.287-.282.574-.563.86-.847-.078.276-.18.549-.311.816-.21.426-.442.84-.688 1.246-.397.053-.727.4-1.058.604-.524.322-1.035.668-1.473 1.105-.061.06.017.15.088.115.498-.239.945-.56 1.403-.866.254-.17.536-.434.825-.612-.307.485-.633.958-.966 1.426-.35.183-.662.429-1.01.618-.368.202-.756.382-1.065.674-.068.065.003.197.094.164.573-.206 1.063-.527 1.552-.859-.253.35-.508.698-.76 1.048-.008.002-.018.005-.027.012-.37.286-.833.462-1.245.676-.522.272-1.028.566-1.52.89-.05.032-.02.125.042.102.558-.216 1.064-.516 1.59-.797.286-.153.598-.294.873-.478-.027.04-.055.08-.084.119-.241.346-.484.696-.73 1.043-.32.111-.62.344-.9.506-.567.326-1.152.601-1.676.996-.046.035-.021.128.042.103.526-.205 1.02-.462 1.513-.737.233-.131.487-.332.75-.487-.25.345-.503.686-.765 1.02-.603.42-1.325.652-1.858 1.173-.06.06.016.147.086.113.398-.196.809-.384 1.205-.598-.45.52-.928 1.01-1.454 1.452-.387-.598-.737-1.22-1.118-1.822-.527-.831-1.08-1.646-1.645-2.45-1.072-1.525-2.335-2.97-3.237-4.607-.835-1.516-1.076-3.19-.716-4.888zm14.605 7.498c.024.03.042.07.054.114-.166.076-.318.185-.481.279-.411.236-.835.452-1.244.69-.36.21-.726.41-1.094.608.492-.66.985-1.32 1.456-1.996l.432.07c.223.035.722.033.877.235zm.054-.939c-.302-.06-.614-.058-.921-.016.29-.44.566-.888.823-1.348.827-1.484 1.172-3.01.842-4.7-.306-1.571-1.138-3.043-2.23-4.192C44.401 1.282 42.852.49 41.141.201c-1.78-.3-3.747-.329-5.445.371-3.302 1.361-4.966 5.588-4.143 8.99.283 1.17.864 2.208 1.54 3.191-.52-.127-1.07-.185-1.58-.308-.92-.223-1.827-.492-2.745-.719-1.79-.442-3.577-.924-5.358-1.408-.882-.24-1.733-.557-2.6-.84-.845-.277-1.691-.63-2.568-.785-.833-.149-1.684-.102-2.527-.116-.96-.016-1.92-.047-2.88-.05-1.011-.005-2.01.037-3.017.128-.97.087-1.95.139-2.913.292-.18.028-.208.199-.148.333-.17.806-.425 1.583-.62 2.45-.38 1.693-.746 3.39-1.116 5.084-.957 4.38-1.9 8.763-2.846 13.146C1.514 33.029.836 36.094.2 39.17c-.1.479-.174.95-.195 1.444-.032.787.074 1.6.572 2.233.491.624 1.274.959 2.036 1.08 1.79.285 3.689-.11 5.46-.366 2.008-.289 3.924-.328 5.874.307 1.84.599 3.58 1.494 5.374 2.217 1.85.745 3.763 1.292 5.739 1.558 4.233.57 8.543.106 12.796.201.525.012 1.05.031 1.574.06.478.028.98.007 1.451.088.389.066.641-.28.629-.58.044-.056.03-.08.078-.17-.032.066-.02.091.028-.065l.054-.18c.065-.227.126-.455.176-.685.186-.856.361-1.714.536-2.571.572-2.794 1.137-5.59 1.683-8.388.643-3.304 1.288-6.608 1.917-9.915.51-2.687 1.014-5.377 1.506-8.068.139-.76.278-1.521.413-2.282.15-.846.28-2.07-.809-2.284zM29.354 30.488c-.762.47-1.732.926-2.3 1.64-.034.044.01.117.063.083.393-.248.738-.563 1.12-.826.39-.268.794-.514 1.194-.764.083-.052.007-.185-.077-.133zM14.89 14.538c-1.104 1.005-2.29 1.977-3.296 3.086-.04.044.015.128.067.088 1.174-.889 2.233-1.966 3.316-2.963.548-.505 1.123-.977 1.688-1.463.513-.442 1.086-.824 1.566-1.302.064-.063-.032-.16-.098-.099-.474.444-1.037.794-1.54 1.206-.577.47-1.152.946-1.703 1.447zm13.273 20.264c.1-.081-.04-.22-.139-.14-1.205.972-2.384 1.98-3.525 3.028-1.133 1.04-2.295 2.087-3.295 3.26-.056.066.028.15.093.095 1.164-1.013 2.234-2.138 3.372-3.184 1.14-1.05 2.3-2.074 3.494-3.059zm1.564-6.654c-.311.34-.775.472-1.13.757-.415.331-.851.65-1.282.96-.782.563-1.632 1.043-2.275 1.777-.045.052.015.147.077.102.829-.605 1.699-1.17 2.506-1.8.357-.278.716-.55 1.075-.825.38-.29.86-.454 1.185-.813.096-.106-.06-.264-.156-.158zM13.751 32.04c.067-.07-.038-.175-.105-.107-1.113 1.124-2.167 2.3-3.18 3.516-1.007 1.211-2.123 2.383-2.977 3.715-.052.082.067.174.133.104 1.102-1.154 2.077-2.456 3.087-3.692.98-1.198 1.964-2.427 3.042-3.536zm-2.657-15.818c1.203-1.025 2.288-2.191 3.483-3.23.57-.494 1.154-.972 1.737-1.45.564-.464 1.12-.992 1.734-1.383.092-.059.009-.204-.086-.148-.6.354-1.146.835-1.69 1.27-.586.47-1.172.939-1.746 1.423-1.233 1.039-2.546 2.128-3.533 3.417-.055.072.03.162.1.101zm14.449 3.786c1.118-.853 2.122-1.88 3.18-2.81 1.032-.907 1.998-1.963 3.132-2.74.093-.063.01-.214-.089-.154-1.113.694-2.068 1.655-3.055 2.516-1.11.968-2.33 1.91-3.275 3.048-.06.071.021.206.107.14zm13.973 3.206c1.071-.483 2.07-1.124 3.133-1.63.5-.238 1.014-.443 1.507-.7.498-.258 1.005-.593 1.535-.776.07-.024.043-.136-.03-.115-.46.134-.898.388-1.333.588-.547.253-1.102.483-1.653.726-1.115.493-2.236 1.071-3.23 1.787-.073.052-.01.157.07.12zM23.53 31.575c.585-.32 1.093-.815 1.595-1.249.54-.465 1.072-.936 1.631-1.377.622-.49 1.272-.945 1.925-1.393.573-.393 1.105-.86 1.717-1.191.14-.076.016-.289-.124-.215-.614.325-1.151.786-1.728 1.173-.645.432-1.285.871-1.9 1.346-.53.408-1.043.84-1.55 1.276-.56.479-1.179.949-1.658 1.51-.055.065.014.163.092.12zM41.048 2.526l.002-.014.016-.014c.027-.024.026-.056.012-.083.11-.297.41-.484.627-.703.13-.131-.068-.33-.2-.203-.276.26-.785.554-.76.996.01.19.29.198.303.021z"/>
</svg>
