<svg xmlns="http://www.w3.org/2000/svg" width="40" height="39" viewBox="0 0 40 39">
    <g fill="none" fill-rule="evenodd">
        <path d="M0 0H40V40H0z"/>
        <path fill="#D30000" d="M38.209 31.367c.097-.265.198-.528.304-.79.054-.131-.157-.187-.21-.058-.145.352-.343.745-.472 1.14-.19.125-.393.235-.588.345l-.103.059c.031-.107.062-.213.1-.317.102-.279.23-.548.342-.824.052-.128-.153-.182-.204-.057-.167.41-.47.9-.503 1.37-.152.116-.279.257-.32.444-.015.064.007.137.068.17.214.113.456.085.686.011.344.169.712.364.986.615.345.316.558.748.682 1.196.273.99-.11 1.807-.86 2.445l-.035.028c.081-.322.158-.646.284-.939.033-.075-.067-.139-.111-.065-.232.388-.452.839-.595 1.3-.219.13-.448.23-.684.31.03-.13.059-.261.1-.385.136-.4.324-.78.51-1.158.04-.079-.067-.142-.115-.068-.238.36-.455.73-.627 1.128-.075.174-.159.375-.19.575-.054.014-.11.027-.165.039-.119-.022-.239-.042-.36-.056.048-.138.11-.27.161-.392.14-.326.294-.643.443-.964.053-.113-.106-.212-.168-.1-.224.407-.458.802-.637 1.232-.015.036-.043.107-.07.195-.147-.014-.294-.022-.443-.028.016-.084.034-.17.06-.255.118-.375.254-.742.418-1.1.046-.099-.098-.187-.148-.086-.087.168-.502.928-.602 1.434-.127-.002-.255-.002-.383 0 .006-.202.118-.41.198-.587.103-.226.239-.444.322-.679.044-.124-.146-.171-.193-.053-.127.318-.333.607-.469.924-.025.058-.093.245-.107.4-.157.005-.313.01-.468.017l-.004-.012c-.064-.152.032-.368.083-.509.062-.17.142-.332.22-.495.058-.118-.114-.221-.174-.104-.138.268-.474.792-.363 1.13l-.505.024c-.037-.43.12-.945.352-1.3.07-.105-.092-.193-.162-.096-.107.145-.53 1-.494 1.41-.144.005-.287.01-.43.017l-.023-.046c-.017-.032-.013-.077-.014-.112-.004-.13.033-.264.066-.388.055-.212.122-.444.232-.634.065-.114-.103-.21-.173-.102-.11.167-.489.971-.37 1.293l-.64.026c.002-.07 0-.136.008-.17.068-.315.179-.67.344-.949.067-.112-.104-.211-.173-.102-.075.12-.403.83-.435 1.23l-.693.025c.03-.141.037-.294.073-.428.076-.289.205-.563.352-.821.068-.118-.108-.22-.18-.107-.153.244-.277.5-.38.77-.062.168-.147.395-.141.596l-.775.027c.078-.172.113-.369.175-.545.095-.272.205-.538.289-.815.04-.135-.165-.19-.208-.058-.088.276-.2.541-.304.81-.077.197-.166.404-.159.615-1.424.047-2.85.093-4.275.113.062-.206.098-.427.155-.63.097-.342.183-.67.195-1.027.001-.058-.091-.072-.102-.013-.06.337-.175.661-.287.986-.075.215-.168.453-.178.686l-.424.005c.184-.54.262-1.135.603-1.602.08-.111-.106-.256-.19-.148-.222.29-.336.623-.455.966-.086.249-.232.517-.25.785l-.407.001c.036-.159.057-.324.097-.481.094-.359.244-.702.41-1.032.06-.121-.115-.227-.18-.107-.239.429-.609 1.075-.617 1.62-.202 0-.404-.004-.605-.006-.002-.157.067-.391.08-.457.07-.355.22-.694.358-1.026.047-.113-.145-.194-.197-.084-.231.5-.444 1.015-.516 1.564l-.606-.01c-.049-.082.066-.517.075-.564.047-.244.127-.479.218-.708.044-.114-.148-.197-.197-.084-.171.398-.308.836-.364 1.266-.004.028-.002.056.002.085l-.544-.016c-.002-.008-.005-.016-.01-.025-.079-.149-.025-.346.01-.5.073-.314.2-.62.336-.911.045-.095-.091-.178-.14-.083-.136.262-.254.533-.355.812-.066.184-.177.487-.095.698-.216-.01-.433-.02-.65-.035l.009-.017c.016-.033.01-.077-.025-.097-.066-.034-.012-.249-.01-.333.011-.341.118-.725.255-1.035.051-.115-.114-.218-.17-.1-.196.403-.304.858-.355 1.303-.008.071-.018.183.019.261-.289-.022-.578-.049-.866-.083 0-.12.046-.283.058-.35.077-.408.162-.81.284-1.206.033-.106-.128-.15-.163-.046-.161.49-.383 1.048-.423 1.572-.231-.031-.461-.068-.69-.11-.087-.237.078-.626.14-.832.086-.275.212-.545.273-.826.028-.13-.162-.184-.195-.055-.068.26-.559 1.172-.513 1.656-.216-.044-.43-.095-.642-.152.023-.16.062-.32.085-.481.057-.396.194-.778.28-1.168.026-.118-.15-.168-.18-.05-.065.256-.144.506-.22.759-.071.237-.094.495-.173.727-.014.042-.028.09-.04.143-.262-.078-.518-.166-.768-.266.027-.17.05-.342.094-.506.097-.35.208-.692.263-1.054.019-.121-.163-.174-.184-.05-.063.358-.177.7-.285 1.047-.044.143-.096.301-.13.463-.217-.096-.43-.2-.636-.315.033-.15.05-.307.077-.45.085-.445.296-.901.438-1.333.045-.134-.166-.191-.21-.057-.18.541-.427 1.12-.54 1.702-.407-.25-.788-.545-1.134-.894-.07-.07-.136-.142-.2-.215.276-.506.352-1.137.532-1.68.029-.088-.105-.123-.135-.038-.189.509-.398 1.062-.496 1.603-.154-.189-.295-.387-.423-.595.092-.486.08-.994.244-1.464.04-.115.158-.446-.031-.493-.034-.009-.057.041-.024.058.06.03-.204.723-.223.81-.054.252-.117.525-.135.794-.666-1.24-.92-2.733-1.076-4.096-.262-2.306-.326-4.656-.246-6.975.08-2.348.499-4.603 1.232-6.832.734-2.231 1.647-4.406 2.123-6.716.318-1.543.515-3.096.607-4.669.088-1.519.09-3.062.32-4.568.38-.053.791.01 1.16.057.524.067 1.05.136 1.56.273.905.243 1.689.766 2.295 1.478-.114.2-.27.382-.377.583-.179.332-.41.647-.544 1.001-.024.067.064.102.108.064.312-.274.493-.701.674-1.069.07-.144.18-.281.26-.428.122.16.223.334.307.517-.21.263-.394.552-.563.837-.274.463-.572.948-.784 1.442-.03.07.05.147.11.086.331-.331.523-.79.742-1.2.172-.321.362-.66.576-.97.12.309.198.637.249.968-.271.387-.55.769-.823 1.153-.395.555-.846 1.119-1.096 1.76-.022.055.063.104.1.058.408-.497.733-1.069 1.102-1.596.253-.363.507-.724.756-1.09.026.227.043.453.054.672.007.152.012.304.017.456-.395.469-.72.991-1.063 1.501-.435.648-.995 1.328-1.253 2.072-.018.05.056.097.09.054.82-1.042 1.399-2.284 2.232-3.317.005.478-.007.958-.033 1.436-.761.974-1.556 1.961-2.14 3.046-.03.056.046.121.09.07.733-.845 1.366-1.786 2.023-2.698-.017.228-.036.456-.06.683-.017.174-.04.345-.067.516-.278.34-.524.703-.772 1.067-.393.574-.822 1.136-1.15 1.752-.026.048.038.082.069.041.374-.491.754-.978 1.096-1.494.225-.339.45-.679.697-1.002-.102.561-.23 1.116-.332 1.676l-.5.647c-.29.372-.626.742-.845 1.162-.027.053.039.106.081.063.37-.356.659-.81.972-1.216.078-.1.155-.2.232-.302-.027.167-.05.333-.068.501-.03.272-.017.54.034.795-.13.192-.268.392-.326.617-.012.046.05.09.084.049.113-.136.205-.29.298-.444.158.511.496.942 1.024 1.187.964.445 2.073.314 3.097.245 1.148-.077 2.28.003 3.426.046 1.498.056 2.998.028 4.496.08.718.025 1.436.053 2.154.066.65.013 1.243.136 1.81.463 1.021.587 1.631 1.692 1.344 2.872-.135.55-.468 1.029-.852 1.434.13-.314.257-.63.435-.912.054-.088-.082-.166-.137-.08-.26.404-.493.865-.683 1.33-.279.21-.583.384-.868.586.048-.111.104-.22.17-.33.183-.3.313-.654.475-.97.165-.32.327-.64.475-.97.053-.116-.116-.22-.173-.101-.322.664-.668 1.352-1.051 1.982-.147.241-.502.805-.283 1.078.045.056.137.038.175-.017.027.004.055.002.084-.007.089-.025.176-.052.263-.081.024.017.045.032.06.041.129.08.278.132.415.194.32.146.586.396.815.657.453.517.653 1.204.646 1.883-.006.635-.25 1.266-.673 1.734-.108.12-.22.236-.334.35.119-.307.25-.609.399-.902.06-.118-.112-.221-.175-.104-.178.329-.336.667-.478 1.013-.052.127-.11.258-.164.39-.024.02-.047.043-.07.064-.176.156-.375.292-.548.452.074-.245.11-.514.19-.749.127-.37.29-.725.429-1.09.05-.13-.155-.182-.204-.057-.146.363-.309.72-.45 1.084-.121.315-.302.736-.194 1.074-.017.024-.034.048-.05.075-.049.083.014.197.112.195.305-.004.575-.144.83-.305.517.28.977.548 1.332 1.056.363.52.564 1.14.465 1.776-.1.644-.451 1.187-.921 1.616zm-26.283 2.684c-.028.438-.01.846-.256 1.227-.21.328-.626.482-.981.577l-.035.008c.127-.17.242-.351.356-.521.267-.396.5-.81.707-1.24.055-.116-.11-.215-.17-.102-.204.384-.43.752-.672 1.113-.187.279-.42.542-.6.83-.255.043-.518.067-.781.076.096-.145.189-.295.288-.432.258-.354.526-.7.768-1.065.372-.558.667-1.162 1.013-1.735.103.408.226.81.373 1.204-.004.02-.008.038-.01.06zM7.454 35.93c-1.074-.08-2.15-.164-3.222-.273.599-.804 1.155-1.659 1.803-2.423.083-.098-.056-.24-.142-.142-.398.456-.737.961-1.1 1.445-.231.308-.709.68-.79 1.097-.369-.038-.768-.082-1.155-.169.06-.093.12-.189.183-.278.21-.296.434-.581.648-.873.431-.59.846-1.193 1.326-1.743.712.557 1.6.625 2.33.259-.026.036-.053.07-.083.104-.292.33-.455.783-.74 1.128-.244.296-.53.551-.766.855-.147.19-.374.48-.295.733.017.054.085.077.126.034.094-.096.084-.123.143-.262.079-.184.211-.347.337-.5.197-.24.424-.452.63-.685.22-.25.386-.552.553-.841.155-.27.371-.705.635-.88.043-.028.055-.073.047-.113.094-.094.182-.198.262-.311.793-1.126.031-2.648-1.103-3.17-.609-.278-1.301-.318-1.907-.016-.55.273-.902.936-.83 1.543.001.019.007.036.013.052-.036.151-.064.307-.093.464-.038.202-.023.402.03.592l-.01.008c-.634.64-1.166 1.37-1.745 2.059-.27.32-.521.642-.753.99-.06.093-.138.19-.21.29-.054-.045-.107-.092-.156-.143-.148-.152-.256-.33-.336-.521.196-.174.346-.405.503-.611.263-.345.518-.695.786-1.035.526-.666 1.135-1.258 1.656-1.928.075-.097-.057-.235-.137-.137-.5.624-1.075 1.183-1.596 1.79-.239.279-.462.57-.683.864-.19.253-.436.506-.624.78-.08-.294-.112-.609-.128-.916l.02-.03c.23-.346.49-.67.738-1.004.259-.352.497-.723.772-1.061.221-.27.458-.523.656-.811.053-.079-.073-.151-.126-.074-.245.347-.554.636-.812.97l-.666.872c-.183.24-.394.49-.597.75l-.005-.202c-.01-.296-.011-.593-.007-.89.095-.149.188-.297.283-.44.17-.255.336-.515.501-.774.174-.273.407-.458.537-.762.028-.068-.067-.13-.102-.06-.13.258-.345.406-.51.628-.184.247-.355.502-.528.756-.055.08-.113.161-.172.241.022-.738.072-1.476.104-2.213.099-2.238.123-4.468.163-6.707.018-.965.116-1.971.634-2.806.569-.915 1.672-.94 2.63-.904 1.231.046 2.46.157 3.695.164 1.158.007 2.31-.044 3.464.067-.164.677-.3 1.362-.396 2.06-.325 2.354-.277 4.766-.158 7.134.049.97.108 1.963.234 2.943-.185.467-.542.853-.84 1.247-.342.454-.654.928-1.01 1.372-.317.395-.646.777-.96 1.174-.268.337-.571.703-.689 1.125-.017.059.058.1.1.058.357-.346.625-.806.933-1.195.343-.43.702-.847 1.037-1.284.307-.4.585-.823.879-1.234.207-.292.433-.576.602-.891.063.43.142.857.24 1.278-.4.559-.722 1.169-1.11 1.737-.246.362-.506.711-.772 1.06-.162.213-.355.44-.494.684-.567-.004-1.137-.055-1.675-.095zm-2.59-5.919c.13-.21.3-.383.54-.51.393-.209.895-.046 1.252.154.691.388 1.257 1.133.837 1.926-.392.738-1.34.835-2.003.446-.345-.202-.626-.58-.662-.985-.028-.311-.061-.704.036-1.03zM1.8 35.063c.324-.459.631-.927.987-1.366.526-.646 1.007-1.328 1.577-1.936.107.249.274.474.467.659-.466.524-.875 1.096-1.293 1.659-.214.29-.442.566-.652.86-.103.144-.245.29-.322.454-.272-.079-.532-.185-.764-.33zm38.18-5.303c.098-.843-.173-1.614-.682-2.278-.323-.423-.786-.842-1.308-1.004.275-.198.54-.416.77-.657.573-.603.784-1.525.748-2.336-.04-.87-.403-1.66-1.016-2.265-.279-.274-.609-.478-.976-.598.526-.258 1-.606 1.37-1.09.55-.716.847-1.604.76-2.512-.086-.906-.608-1.704-1.293-2.271-.762-.631-1.658-.9-2.631-.947-2.306-.11-4.614-.071-6.921-.157-1.148-.043-2.274-.108-3.423-.032-.894.06-2.174.277-2.92-.374-.57-.496-.282-1.525-.139-2.144.2-.871.34-1.755.43-2.644.159-1.547.232-3.237-.138-4.76-.35-1.434-1.4-2.55-2.727-3.129-.67-.292-1.365-.403-2.083-.497-.709-.095-1.563-.145-2.18.285-.148.102-.123.331.002.41-.35.957-.453 1.913-.548 2.94-.109 1.186-.202 2.375-.343 3.558-.283 2.375-.97 4.648-1.76 6.894-.467 1.329-.926 2.652-1.287 4.004-.988-.26-2.043-.205-3.056-.23-1.167-.03-2.335-.07-3.5-.145-.868-.055-1.777-.124-2.619.138-.864.268-1.403.956-1.741 1.77-.343.824-.389 1.773-.406 2.656-.019 1.053 0 2.107-.024 3.16C.288 27.774.04 30.052.09 32.32c-.033.078-.063.157-.087.238-.015.05.051.09.086.05l.007-.008c.013.38.038.758.101 1.12-.02.055-.041.11-.058.167-.02.061.061.107.104.062.157.691.475 1.308 1.132 1.747.589.393 1.353.513 2.036.619.809.125 1.627.171 2.442.24 1.602.136 3.25.368 4.85.078.542-.097 1.072-.342 1.452-.75.186-.2.302-.417.372-.646.648 1.077 1.573 1.922 2.725 2.497 1.42.708 3.008.985 4.57 1.13 1.76.165 3.537.146 5.3.12 1.921-.028 3.84-.1 5.757-.191.881-.042 1.78-.06 2.675-.113.763.066 1.532.087 2.291.111 1.252.041 2.433-.517 3.288-1.43.808-.86.95-2.025.58-3.125-.186-.556-.505-.996-.972-1.343-.242-.18-.483-.295-.734-.352.303-.17.585-.368.85-.602.618-.548 1.03-1.356 1.124-2.178zm-10.843 6.806c-.12.211-.22.431-.307.658-.074.194-.176.437-.107.643.018.053.082.059.112.015.105-.15.124-.351.176-.523.074-.24.178-.47.296-.692.061-.113-.107-.212-.17-.1zm-1.034.124c-.056.19-.109.383-.157.577-.042.174-.112.376-.062.552.017.062.095.068.128.017.095-.146.1-.344.135-.513.041-.196.09-.389.142-.582.032-.12-.15-.17-.186-.051zm-1.073.148c-.094.303-.392.756-.258 1.078.017.042.08.065.107.014.076-.15.093-.327.144-.487.06-.186.135-.366.189-.554.034-.12-.146-.168-.182-.051zm-.774-.146c-.061.24-.18.447-.3.66-.1.174-.24.387-.214.597.007.06.075.082.112.03.126-.176.19-.408.295-.6.112-.206.217-.41.273-.64.027-.109-.137-.155-.166-.047zm-11.329-2.218c-.14.516-.365 1.107-.315 1.65.004.055.08.07.098.012.16-.523.228-1.087.37-1.62.026-.099-.125-.141-.153-.042zm21.818-4.053c-.217.527-.355 1.079-.56 1.604-.075.19-.214.566.057.655.041.013.074-.022.078-.06.03-.281.13-.518.186-.792.097-.464.271-.91.438-1.351.048-.127-.149-.176-.199-.056zm-.913.176c-.157.362-.314.722-.445 1.094-.126.362-.271.812-.16 1.191.016.056.09.052.108 0 .111-.323.123-.678.217-1.01.114-.403.287-.79.449-1.176.047-.115-.118-.215-.169-.1zm-.634-.022c-.193.538-.782 1.262-.65 1.862.009.042.075.053.094.012.143-.308.202-.65.346-.964.13-.287.272-.566.376-.865.036-.106-.129-.15-.166-.045zm-.745-.006c-.13.23-.213.489-.299.738-.074.215-.156.462-.107.69.01.053.092.064.117.015.101-.199.126-.436.187-.65.07-.247.166-.494.2-.75.009-.058-.065-.101-.098-.043zm1.12-3.297c.019.04.08.037.1 0 .174-.327.164-.771.27-1.13.143-.485.358-.946.554-1.41.054-.127-.127-.238-.185-.11-.197.44-.4.875-.567 1.33-.136.371-.353.935-.172 1.32zm-.045-3.017c-.261.904-.743 1.834-.757 2.79-.001.058.08.098.12.05.275-.326.22-.837.355-1.23.176-.513.335-1.031.472-1.557.033-.124-.154-.176-.19-.053zm-1.473 2.421c.15-.271.225-.583.33-.874.121-.333.249-.663.353-1.001.037-.12-.147-.17-.184-.052-.192.596-.612 1.265-.595 1.9.001.052.07.073.096.027zm.001-2.425c-.152.315-.283.637-.39.971-.103.32-.234.713-.152 1.049.012.047.086.062.107.014.124-.272.142-.59.212-.88.091-.374.212-.742.333-1.107.022-.065-.08-.109-.11-.047zm1.346-3.501c.017.066.107.076.141.019.098-.167.124-.362.187-.545.083-.242.21-.469.332-.692.227-.42.461-.829.596-1.29.04-.137-.17-.195-.213-.059-.157.514-.446.963-.701 1.43-.171.315-.438.769-.342 1.137zm-.677-.12c.005.064.09.098.126.035.21-.38.283-.856.442-1.264.206-.524.462-1.028.708-1.533.055-.113-.111-.213-.169-.1-.238.471-.479.94-.691 1.424-.188.428-.457.962-.416 1.439zm-.71-.332c.01.036.067.048.084.01.082-.176.113-.365.17-.55.074-.243.199-.47.318-.693.198-.368.41-.724.54-1.122.04-.118-.142-.167-.181-.052-.154.453-.415.853-.637 1.273-.174.328-.397.755-.294 1.134zm-.458-.782c.325-.427.551-.988.752-1.485.027-.068-.08-.097-.108-.03-.207.508-.529.972-.717 1.484-.018.047.047.064.073.031zM10.341 30.543c.061-.097-.09-.185-.154-.09-.631.953-1.32 1.864-2.024 2.764-.308.396-.618.79-.91 1.199-.272.38-.668.83-.773 1.293-.017.074.067.121.122.071.357-.317.586-.847.862-1.24.328-.47.686-.918 1.036-1.373.651-.847 1.27-1.72 1.84-2.624z"/>
    </g>
</svg>
