<?xml version="1.0" encoding="UTF-8"?>
<svg width="40px" height="40px" viewBox="0 0 40 40" version="1.1" xmlns="http://www.w3.org/2000/svg" xmlns:xlink="http://www.w3.org/1999/xlink">
    <!-- Generator: Sketch 62 (91390) - https://sketch.com -->
    <title>icon40-like-red</title>
    <desc>Created with Sketch.</desc>
    <g id="icon40-like-red" stroke="none" stroke-width="1" fill="none" fill-rule="evenodd">
        <g>
            <rect id="Rectangle" x="0" y="0" width="40" height="40"></rect>
            <path d="M38.2088688,31.3671992 C38.3063481,31.1022433 38.4074921,30.8387676 38.5130337,30.5767721 C38.5665374,30.4457743 38.3561872,30.3902668 38.3034164,30.5190442 C38.1575638,30.8705919 37.9604063,31.2643252 37.8306782,31.6587987 C37.640117,31.7838756 37.437829,31.8941506 37.2428703,32.0044255 C37.2091557,32.0236681 37.175441,32.0429107 37.1402605,32.0628934 C37.1710434,31.956319 37.2018264,31.8504847 37.2399386,31.7461305 C37.3418155,31.4671127 37.4708108,31.1977162 37.5822158,30.9216588 C37.6335207,30.7936214 37.4290339,30.7395941 37.377729,30.8646711 C37.2106215,31.2754267 36.9079225,31.7653731 36.8749407,32.2353368 C36.7232248,32.3507924 36.5964283,32.4921516 36.5546514,32.6786569 C36.5399929,32.7430456 36.5619807,32.8163155 36.6228137,32.8488799 C36.8368285,32.9621153 37.0794275,32.9339915 37.3088338,32.8599814 C37.6533097,33.0287243 38.0205064,33.2241108 38.2946213,33.4750048 C38.6398301,33.7910276 38.853112,34.2225061 38.9769767,34.6710068 C39.2496258,35.661261 38.8663047,36.4775916 38.1172528,37.1155581 C38.105526,37.1251794 38.0937991,37.1340606 38.0820723,37.1436819 C38.1634272,36.8217383 38.2396517,36.4983144 38.3664482,36.2052347 C38.398697,36.1304846 38.2990188,36.0660959 38.2550432,36.1401059 C38.0234381,36.5279184 37.8028269,36.9786395 37.6599061,37.4404621 C37.4414937,37.5692395 37.2120874,37.6706333 36.9760847,37.749824 C37.0061348,37.6195664 37.0347189,37.4885686 37.0764958,37.3649719 C37.2120874,36.9653177 37.4004497,36.5849062 37.5866133,36.2067149 C37.6254585,36.1282643 37.519184,36.0653558 37.4708108,36.1386257 C37.2326094,36.4990545 37.0163957,36.8683646 36.8441578,37.2665385 C36.7686663,37.4412022 36.6851125,37.6417694 36.6543296,37.8423366 C36.6000929,37.8563985 36.5443905,37.8689802 36.4894209,37.8808218 C36.3699537,37.8586188 36.2504865,37.8393762 36.1295535,37.8245741 C36.1771938,37.6869155 36.2387597,37.5544375 36.2900646,37.4330611 C36.4293208,37.1066769 36.5839685,36.789914 36.7334857,36.4687104 C36.7855236,36.3562152 36.6272113,36.2570417 36.5649124,36.369537 C36.3413695,36.775852 36.1068327,37.1710656 35.9279984,37.6010639 C35.9133399,37.6365887 35.8854887,37.7076383 35.8576374,37.7957102 C35.7110519,37.7823884 35.5637335,37.7735072 35.4149492,37.7675864 C35.4310736,37.6839551 35.4493968,37.5988436 35.4757822,37.5129919 C35.5930506,37.1377611 35.7286422,36.7706713 35.8928179,36.413943 C35.9389924,36.3140295 35.7953386,36.2259575 35.7447666,36.3266112 C35.6582811,36.495354 35.2434442,37.255437 35.1430331,37.7609255 C35.0155037,37.7587052 34.8879744,37.7594453 34.759712,37.7609255 C34.7663084,37.5588781 34.8784463,37.35091 34.9583354,37.174026 C35.0609452,36.9475553 35.1965368,36.7299658 35.2800906,36.495354 C35.3240662,36.3710172 35.134238,36.3236508 35.0865977,36.4420668 C34.9598012,36.7603099 34.7538486,37.048949 34.618257,37.365712 C34.5933375,37.4241799 34.5251753,37.6106852 34.5112496,37.7661062 C34.3544032,37.7705468 34.1982896,37.7764676 34.042909,37.7831285 C34.0414431,37.7786879 34.0407102,37.7749874 34.0385114,37.7705468 C33.9747467,37.6188263 34.0707602,37.4034571 34.1220651,37.2620979 C34.1836311,37.0918749 34.2642531,36.9297929 34.3426763,36.7669708 C34.3998447,36.6492949 34.2276067,36.5456809 34.1675066,36.6633568 C34.0297163,36.9312731 33.6940355,37.454524 33.8054405,37.7934899 C33.6361342,37.801631 33.4675609,37.8097721 33.3004534,37.8171731 C33.2630741,37.387915 33.4191877,36.8720651 33.6522586,36.5168169 C33.7211538,36.4124628 33.5599098,36.3236508 33.4895487,36.4206039 C33.3832742,36.5664037 32.9596422,37.4204794 32.9955556,37.830495 C32.8519018,37.8364158 32.708981,37.8415965 32.5653272,37.8475173 C32.5587308,37.8319752 32.5462711,37.8068117 32.5433394,37.801631 C32.526482,37.7698067 32.5301467,37.7246606 32.5286808,37.6898759 C32.5250162,37.5596182 32.5623955,37.4264002 32.5946443,37.3020633 C32.6496138,37.0896546 32.7170432,36.8580032 32.8269823,36.6677974 C32.8922128,36.553822 32.7243724,36.4576089 32.6540114,36.5656636 C32.5440723,36.7329262 32.1651488,37.5374152 32.2831501,37.8586188 C32.0698682,37.8675 31.8573192,37.8756411 31.6440373,37.8845223 C31.6455032,37.8142127 31.6440373,37.7490839 31.6520995,37.7142992 C31.7202618,37.3997566 31.8309339,37.0445084 31.9958425,36.7662307 C32.0632719,36.6537355 31.8924998,36.5545621 31.8228716,36.6640969 C31.748113,36.783253 31.4204945,37.4937493 31.3882457,37.8941436 C31.1573735,37.9030248 30.9257684,37.9104258 30.6948963,37.919307 C30.7249463,37.7779478 30.7322756,37.6254872 30.768189,37.4907889 C30.8444135,37.2021498 30.9726758,36.9283127 31.1199942,36.6700177 C31.1881565,36.5516017 31.0115209,36.4494678 30.939694,36.5634433 C30.7865122,36.8069363 30.6626475,37.063011 30.5607705,37.3331476 C30.4977388,37.5011503 30.4127192,37.727621 30.4185826,37.9289283 C30.1605921,37.9378095 29.9026017,37.9474308 29.6438783,37.956312 C29.7215686,37.7838686 29.757482,37.587002 29.8190479,37.4108581 C29.9143285,37.1385012 30.0242676,36.8728052 30.1078214,36.5960077 C30.1481324,36.4613094 29.9429127,36.406542 29.9004029,36.5382799 C29.8117187,36.8135972 29.6995807,37.0792932 29.595505,37.3486897 C29.5192806,37.5448162 29.4298634,37.7520443 29.4371927,37.9629729 C28.0131146,38.0095992 26.5875707,38.0562255 25.1620267,38.0762082 C25.2243256,37.8697203 25.260239,37.6491704 25.3174074,37.4456428 C25.4141538,37.1037165 25.4999063,36.775852 25.5116331,36.4191237 C25.513099,36.3613959 25.4207501,36.347334 25.4104892,36.4058019 C25.3496562,36.7432876 25.2353195,37.0674516 25.1231816,37.3916155 C25.048423,37.6069847 24.9546083,37.8445569 24.9450802,38.0784285 C24.8036252,38.0799087 24.6621702,38.082129 24.5207152,38.0828691 C24.7054129,37.5425959 24.7831032,36.9475553 25.1239145,36.480552 C25.2045365,36.369537 25.018373,36.2252174 24.9348192,36.3332721 C24.7120093,36.6233914 24.5976726,36.9564365 24.4789383,37.2991029 C24.3931858,37.5477766 24.2473332,37.8156929 24.2282771,38.0843493 C24.0926856,38.0850894 23.9578269,38.0850894 23.8222353,38.0850894 C23.8581488,37.9259679 23.8786707,37.7609255 23.9189817,37.6040243 C24.0127965,37.2450756 24.1630466,36.9016691 24.3286882,36.5715844 C24.3887883,36.450948 24.2143515,36.3451137 24.148388,36.4650099 C23.9101866,36.893528 23.5400582,37.5403756 23.531996,38.0850894 C23.330441,38.0843493 23.128153,38.0813889 22.9265979,38.0791686 C22.9251321,37.9215273 22.9940273,37.6876556 23.00722,37.6217867 C23.0768481,37.2665385 23.2263653,36.9283127 23.3648886,36.5960077 C23.4117959,36.4827723 23.2197689,36.4021014 23.168464,36.5123763 C22.9368589,37.0126841 22.72431,37.5270538 22.6517501,38.0762082 C22.4523939,38.0732478 22.2501059,38.0702874 22.0456191,38.0658468 C21.9972459,37.9836957 22.1123155,37.5492568 22.1211106,37.5018904 C22.168018,37.2583974 22.2479071,37.0230455 22.3387901,36.7936145 C22.3834987,36.679639 22.1907388,36.5974879 22.1423655,36.7099831 C21.9708605,37.1081571 21.8338031,37.5455563 21.7781006,37.9762947 C21.7744359,38.0036784 21.7759018,38.0318022 21.7802994,38.0606661 C21.5999992,38.0562255 21.4189661,38.0510448 21.2364672,38.045124 C21.2342684,38.0369829 21.2313367,38.0288418 21.2269391,38.0199606 C21.14705,37.8712005 21.2005537,37.6743338 21.2357342,37.5203929 C21.309027,37.2058503 21.4365564,36.9001889 21.572148,36.6085894 C21.6168565,36.5138565 21.480532,36.4309653 21.4314259,36.5256981 C21.2958343,36.7884337 21.177833,37.0593105 21.0774219,37.3375882 C21.0107255,37.5218731 20.9000535,37.8253142 20.9821413,38.0355027 C20.7659277,38.0266215 20.5489812,38.01552 20.3313017,38.0014581 C20.3342335,37.9955373 20.3378981,37.9910967 20.3408298,37.9844358 C20.3569542,37.9511313 20.3518237,37.9067253 20.3159103,37.8874827 C20.2499468,37.8534381 20.3041834,37.6380689 20.3063822,37.5544375 C20.3173761,37.2125112 20.4243835,36.8291393 20.561441,36.5190372 C20.612013,36.4035816 20.4471043,36.3014478 20.3906689,36.4183836 C20.1949772,36.8224784 20.0872369,37.2768999 20.035932,37.7224403 C20.0278698,37.7934899 20.0183417,37.9052451 20.0549881,37.9829556 C19.7662147,37.9607526 19.4767083,37.934109 19.1886678,37.9000644 C19.1886678,37.779428 19.2348422,37.6173461 19.247302,37.5499969 C19.3235265,37.1422017 19.408546,36.7403272 19.5309449,36.3436335 C19.5639267,36.2377991 19.4026826,36.1941332 19.368235,36.2977473 C19.206991,36.7876936 18.984914,37.3464694 18.9453359,37.8697203 C18.7137308,37.8386361 18.4835916,37.8023711 18.2549182,37.7609255 C18.1676998,37.5226132 18.3326085,37.1340606 18.3956403,36.9283127 C18.4806599,36.6529954 18.6074563,36.3828588 18.6682893,36.1016207 C18.6961405,35.9728432 18.5055794,35.9180758 18.4725977,36.0468533 C18.4051683,36.3073686 17.9141069,37.2191721 17.9602814,37.7031977 C17.7440677,37.6587917 17.52932,37.6084649 17.317504,37.5514771 C17.3409576,37.3908754 17.3798028,37.2317538 17.4032565,37.0696719 C17.4604248,36.6737182 17.5967493,36.2918265 17.6825018,35.9017936 C17.7088872,35.7841177 17.5329846,35.7337908 17.5036675,35.8514668 C17.438437,36.1075415 17.3592808,36.3584355 17.2830564,36.6108097 C17.2119624,36.8483819 17.1892416,37.1059368 17.1100855,37.3375882 C17.0961599,37.3797739 17.0815013,37.4286205 17.0697745,37.4811676 C16.8081194,37.4034571 16.5523277,37.3153852 16.3016665,37.2154716 C16.3287848,37.0452485 16.3515055,36.8728052 16.3962141,36.709243 C16.4929605,36.3584355 16.6043655,36.0165092 16.6593351,35.6553402 C16.6776583,35.5339638 16.4958923,35.4806765 16.4746374,35.6042733 C16.4123385,35.9632219 16.2980018,36.3051483 16.1902615,36.6522553 C16.1455529,36.7950947 16.0935151,36.9534761 16.0598004,37.114818 C15.8428539,37.019345 15.6303049,36.915731 15.4243523,36.8002754 C15.457334,36.650035 15.4741914,36.4931337 15.5013097,36.3502944 C15.5855963,35.904754 15.7974124,35.4488522 15.9388674,35.0173738 C15.983576,34.8826755 15.7732258,34.8256878 15.7292501,34.9596459 C15.54895,35.5013994 15.3019534,36.0808979 15.1883496,36.6618766 C14.7823078,36.4124628 14.4011855,36.1171628 14.0545108,35.7678355 C13.9848827,35.698266 13.9189192,35.6264763 13.8544216,35.5532064 C14.1314682,35.0469778 14.2069597,34.4164123 14.3872599,33.8724386 C14.4158441,33.7851068 14.2824513,33.7503221 14.2516683,33.8346935 C14.063306,34.3438825 13.8536887,34.8967374 13.7562093,35.4377507 C13.6015617,35.2490252 13.4608396,35.0506783 13.3333102,34.8434502 C13.4249261,34.3572043 13.4131993,33.8494955 13.577375,33.3787917 C13.6176861,33.2640762 13.7349545,32.9332514 13.5458592,32.8858849 C13.5121445,32.8770037 13.4886908,32.9273306 13.5216726,32.9436128 C13.5817726,32.9732168 13.3179187,33.6674309 13.2988626,33.7532825 C13.244626,34.0056567 13.1815942,34.2787537 13.1640039,34.5481502 C12.4977729,33.3084822 12.243447,31.8149598 12.0880664,30.4516951 C11.8256784,28.1455426 11.7619137,25.7964643 11.8418028,23.47699 C11.9224248,21.1286518 12.3409264,18.8743064 13.0738539,16.6451243 C13.8075143,14.413722 14.7214748,12.2385672 15.1971448,9.92871423 C15.5145024,8.38634524 15.7123928,6.83287474 15.8040087,5.26016163 C15.89196,3.74147585 15.8934259,2.19836676 16.1235651,0.692262679 C16.5039545,0.638975458 16.9151268,0.702624083 17.2837893,0.749250401 C17.8078324,0.815859426 18.3340744,0.884688753 18.8449248,1.02234741 C19.7493573,1.2651003 20.5328568,1.7883512 21.1389878,2.50032767 C21.0246511,2.69941465 20.8685376,2.88221942 20.7615302,3.0827866 C20.5834288,3.41509163 20.3510908,3.73037435 20.2184309,4.08414228 C20.1935114,4.15075131 20.2821956,4.18627612 20.3261712,4.14779091 C20.6376654,3.8739538 20.8194314,3.44691594 20.9997316,3.0790861 C21.0708256,2.93476654 21.1800318,2.79784799 21.2606538,2.65130813 C21.3815868,2.81190989 21.4827308,2.98509336 21.5670175,3.16789813 C21.3574002,3.43063373 21.1727025,3.72001294 21.0041292,4.00495155 C20.7300143,4.46751423 20.4317128,4.95302002 20.2198968,5.44740701 C20.1898467,5.51771653 20.2697358,5.59394686 20.3298359,5.53325864 C20.6611191,5.20169371 20.8531461,4.74209144 21.0722914,4.33281598 C21.2437965,4.01161245 21.4336247,3.67264652 21.6483724,3.36328461 C21.7678396,3.67190642 21.8455299,3.99977085 21.8968348,4.33133578 C21.6256517,4.71766813 21.3471392,5.09955987 21.0737573,5.48367192 C20.6787094,6.03874713 20.227959,6.60270355 19.9780307,7.2436304 C19.9560429,7.29913792 20.0410625,7.34798454 20.0784418,7.30209832 C20.4859494,6.80475093 20.8106363,6.23339351 21.1800318,5.70570201 C21.4328917,5.34305287 21.6872176,4.98188393 21.93568,4.61627439 C21.9620654,4.84348517 21.9789227,5.06921576 21.9899166,5.28828544 C21.9972459,5.440006 22.0023764,5.59172656 22.006774,5.74418722 C21.611726,6.2126707 21.2870392,6.7351815 20.9440291,7.2451106 C20.5086702,7.89269835 19.9487136,8.57285051 19.6907231,9.31739139 C19.6731329,9.36697811 19.7471585,9.41360443 19.7816061,9.37067861 C20.6002861,8.32861741 21.1800318,7.08672914 22.0126374,6.05354914 C22.0177679,6.53239402 22.006041,7.01197901 21.9796556,7.49008379 C21.2188769,8.46405577 20.4236506,9.45134954 19.8402403,10.5363366 C19.8101903,10.5918441 19.8856818,10.6569729 19.9303904,10.605906 C20.6633179,9.76145156 21.2958343,8.820044 21.9532702,7.90750035 C21.9364129,8.13619134 21.9166239,8.36414223 21.8939031,8.59135301 C21.8763129,8.76453648 21.8528592,8.93623975 21.8264738,9.10720291 C21.5479614,9.44616884 21.3016977,9.81029818 21.0539682,10.1736874 C20.6611191,10.7480052 20.2316236,11.3104815 19.904005,11.9262449 C19.8783526,11.9736113 19.9421173,12.0076559 19.9729002,11.9669504 C20.3474261,11.4755238 20.7270826,10.9885378 21.0693597,10.4726879 C21.2936355,10.1344621 21.5186443,9.79401598 21.7656408,9.47133225 C21.6644968,10.0323283 21.5355016,10.5874035 21.4336247,11.1469193 C21.2672501,11.3630286 21.1008756,11.5783978 20.9337681,11.7937669 C20.6442618,12.1660374 20.3078481,12.5360875 20.0894357,12.9564645 C20.0623174,13.0090116 20.1275479,13.0615587 20.1700577,13.019373 C20.5394531,12.6633848 20.8289595,12.2089632 21.1419195,11.8033882 C21.2196098,11.7027346 21.2965672,11.602081 21.3735246,11.5014273 C21.3471392,11.6679499 21.3244185,11.8344725 21.3060953,12.0024752 C21.2767782,12.274092 21.288505,12.5427484 21.33981,12.7966028 C21.2100818,12.9890289 21.0715585,13.188856 21.0136572,13.4138465 C21.0019304,13.4597327 21.0634963,13.5033986 21.0979439,13.4626931 C21.2108147,13.3272547 21.3031636,13.1725738 21.3955124,13.019373 C21.5538248,13.5300422 21.8917043,13.9607806 22.4201451,14.2057538 C23.3839447,14.6512941 24.492864,14.5195563 25.5167636,14.4514671 C26.6645281,14.3744966 27.7961681,14.4544275 28.9431996,14.4973533 C30.4413034,14.5528608 31.940873,14.524737 33.4389767,14.5772841 C34.1565127,14.6024475 34.8747817,14.6298312 35.5930506,14.643153 C36.2431573,14.6557347 36.8360956,14.7793315 37.4033815,15.1057157 C38.4243494,15.6933553 39.0341451,16.7983251 38.7468375,17.9780449 C38.6119789,18.5286795 38.2792298,19.0067843 37.8951758,19.4116192 C38.024904,19.0978167 38.1524333,18.7825339 38.3298018,18.4998156 C38.3840384,18.4124838 38.2484468,18.3340332 38.1934773,18.4198848 C37.933288,18.8239795 37.7002171,19.285062 37.5103889,19.7505851 C37.2311435,19.9600335 36.9269786,20.133957 36.6418698,20.3360044 C36.690243,20.2249894 36.7459455,20.1154545 36.811909,20.0066598 C36.9951409,19.705439 37.124869,19.351671 37.286846,19.0363883 C37.4517547,18.716665 37.6144646,18.3954615 37.761783,18.066857 C37.8145538,17.9499211 37.6459805,17.8463071 37.5888121,17.9647231 C37.2670569,18.6293332 36.9211152,19.3168863 36.5377941,19.9467117 C36.3912086,20.1879844 36.0364717,20.7519408 36.2548841,21.0250378 C36.2995927,21.0805453 36.3919415,21.0627829 36.4300538,21.0080155 C36.4571721,21.011716 36.4850233,21.0102358 36.5143404,21.0013546 C36.6030247,20.9761912 36.690243,20.9488075 36.7774614,20.9199436 C36.8009151,20.9369659 36.82217,20.9517679 36.8368285,20.9613892 C36.9658238,21.0405799 37.115341,21.093127 37.2523984,21.1552954 C37.5712218,21.3010952 37.8380074,21.550509 38.0674137,21.8117644 C38.5203629,22.3290945 38.7197192,23.0159076 38.7131229,23.6953196 C38.7072594,24.3295856 38.4624617,24.9608911 38.0402954,25.4286345 C37.9318222,25.5485307 37.8196843,25.6647265 37.7060805,25.7787019 C37.8248148,25.4715603 37.9567417,25.1703395 38.1047931,24.8765197 C38.1641602,24.7588437 37.9926551,24.6559698 37.9296234,24.7729056 C37.7522549,25.1015102 37.5939426,25.439736 37.4524876,25.7861029 C37.4004497,25.9134002 37.3418155,26.0436578 37.2875789,26.1761358 C37.2641252,26.1968586 37.2406716,26.2190616 37.2172179,26.2397844 C37.0420482,26.3959456 36.8434249,26.532124 36.670454,26.6919857 C36.7437467,26.4470125 36.7796602,26.177616 36.8602822,25.9430042 C36.9870786,25.5736941 37.1505215,25.2177059 37.2890448,24.8528365 C37.3381509,24.7233189 37.1343971,24.6707718 37.084558,24.7958487 C36.9387054,25.159238 36.7759955,25.5152262 36.6352735,25.8800957 C36.5136075,26.1953784 36.3333073,26.6157553 36.4410477,26.9539812 C36.4241903,26.9784045 36.4066001,27.0020877 36.3912086,27.0287313 C36.3421025,27.1123626 36.4051342,27.225598 36.5026136,27.2241178 C36.8082443,27.2196772 37.0779617,27.0797982 37.3330204,26.9191965 C37.8497343,27.1989544 38.3100127,27.4668707 38.6647496,27.9745795 C39.0282817,28.4941299 39.2291038,29.115074 39.1301586,29.7508201 C39.0297475,30.3947074 38.6786753,30.937941 38.2088688,31.3671992 Z M11.9260894,34.0508028 C11.8982382,34.4889422 11.9150955,34.8974775 11.6702978,35.2778891 C11.4599476,35.6057535 11.0443777,35.7604345 10.6889079,35.8551673 C10.6779139,35.8581277 10.6661871,35.860348 10.6544603,35.8633084 C10.7805238,35.6930853 10.8955934,35.5117608 11.0099301,35.3415377 C11.2774486,34.9463241 11.5105196,34.531868 11.7172051,34.1011296 C11.7721747,33.9864141 11.607266,33.8865005 11.546433,34.000476 C11.3434121,34.3838479 11.1162046,34.7524179 10.8750714,35.1128467 C10.6881749,35.3918645 10.455104,35.6546001 10.2755368,35.9432392 C10.0197451,35.986165 9.75735704,36.0098483 9.49350315,36.0194696 C9.58951664,35.8736698 9.68259843,35.7241695 9.78227657,35.5865109 C10.040267,35.2334831 10.3077856,34.8871161 10.5503846,34.5222467 C10.9219788,33.9642111 11.2173486,33.3602892 11.5625574,32.7867115 C11.6659002,33.1952469 11.789032,33.5971213 11.9356175,33.9908547 C11.9319529,34.0100973 11.9275553,34.0293399 11.9260894,34.0508028 Z M7.45376598,35.9299174 C6.38002722,35.8492465 5.30335676,35.7656152 4.23181679,35.6568204 C4.83061854,34.8530715 5.38691049,33.9982557 6.03481838,33.2344722 C6.11837212,33.1360388 5.97911589,32.9931995 5.89336338,33.0916328 C5.49538376,33.5482747 5.15603834,34.0530231 4.79250631,34.5370487 C4.56163415,34.8449304 4.08449837,35.2179409 4.00387635,35.6338773 C3.6344809,35.5961322 3.23503542,35.5517262 2.84804971,35.4651344 C2.90888269,35.3718818 2.96824982,35.2764089 3.03128158,35.1868567 C3.24163177,34.8908166 3.46517465,34.605878 3.67918947,34.3135384 C4.11015083,33.7236785 4.52498778,33.1212368 5.00505528,32.5706022 C5.71672786,33.1278977 6.60576889,33.195987 7.33576465,32.8296373 C7.30864634,32.8659022 7.28152802,32.900687 7.25221092,32.9339915 C6.95977286,33.2640762 6.79706296,33.7170176 6.51195417,34.0619043 C6.26788932,34.3579444 5.9820476,34.613279 5.74604496,34.9174602 C5.59872653,35.1069259 5.37151902,35.3970452 5.45067518,35.6501595 C5.46753252,35.7041868 5.5364277,35.7271299 5.57747164,35.6842041 C5.67055343,35.5879911 5.66102537,35.5606074 5.7203925,35.4222086 C5.79881574,35.2379237 5.93147561,35.0751016 6.05680621,34.9219008 C6.2539637,34.6828484 6.48117122,34.4696996 6.68639091,34.2373081 C6.90773501,33.9864141 7.07337662,33.6851933 7.23975115,33.395814 C7.39513178,33.1256774 7.61134539,32.6912386 7.87519928,32.516579 C7.918442,32.487711 7.93016884,32.443305 7.92210664,32.4033396 C8.01592135,32.3086067 8.10387265,32.2049927 8.18376174,32.0917573 C8.97678927,30.9660648 8.21527763,29.4444186 7.08070589,28.9226479 C6.47237609,28.6436301 5.77975962,28.6044048 5.17436153,28.9056256 C4.62466592,29.1787226 4.2721278,29.8418525 4.34322177,30.4494748 C4.34542055,30.4679773 4.35055104,30.4849996 4.35714739,30.5005417 C4.32123394,30.6522623 4.29264977,30.8084235 4.2640656,30.9653247 C4.22595337,31.1673721 4.24134485,31.3671992 4.2933827,31.5566648 C4.28971806,31.5596252 4.28678635,31.5618455 4.28385464,31.5648059 C3.64987237,32.2049927 3.11849995,32.9354717 2.53875432,33.6237649 C2.26976994,33.9434883 2.01764288,34.266172 1.7860378,34.6147592 C1.72520482,34.7072717 1.64824744,34.8034848 1.57642054,34.9033983 C1.52218391,34.8589923 1.4686802,34.8116259 1.41957406,34.760559 C1.27152271,34.6088384 1.16378237,34.4312143 1.08389328,34.2395284 C1.27958491,34.0663449 1.42983505,33.8354336 1.58741445,33.6289456 C1.84980249,33.2840589 2.10486125,32.9339915 2.37311271,32.5942854 C2.89862171,31.9281952 3.50768444,31.336115 4.02879588,30.6655841 C4.10355448,30.5693711 3.97162754,30.4309723 3.89247137,30.5286655 C3.39114897,31.1525701 2.81726676,31.7120859 2.29615532,32.3189681 C2.05722097,32.5979859 1.83367809,32.8895855 1.61306692,33.1834053 C1.42250577,33.4357795 1.17697507,33.6888938 0.989345634,33.9627309 C0.909456539,33.6689111 0.87720773,33.3543684 0.861083325,33.0472268 C0.866946745,33.0376055 0.873543092,33.0272441 0.88013944,33.0176228 C1.11101159,32.6712559 1.37193378,32.347832 1.61893034,32.0125666 C1.87765374,31.661019 2.11585517,31.2902287 2.3914359,30.9520029 C2.61204707,30.6818663 2.84878264,30.428752 3.04667306,30.140853 C3.10017677,30.0624024 2.97411324,29.9898725 2.92060953,30.066843 C2.67581176,30.41395 2.36651636,30.7025891 2.10925882,31.0378545 C1.88718179,31.3279739 1.66437184,31.6180932 1.44302774,31.9089526 C1.25979587,32.1494852 1.04871276,32.3996391 0.846424776,32.6594143 C0.844225993,32.591325 0.842760138,32.5232358 0.840561356,32.4573669 C0.830300371,32.1605867 0.829567444,31.8638065 0.833965009,31.5670262 C0.928512653,31.4182661 1.02159444,31.270246 1.11687501,31.1274067 C1.28764712,30.8720721 1.45328873,30.6122969 1.61819741,30.3525217 C1.79190122,30.0801648 2.02497216,29.8951397 2.15470032,29.5909585 C2.18328449,29.5228693 2.08800392,29.4614409 2.0528234,29.5310104 C1.92382817,29.7893054 1.70761456,29.9373254 1.54270588,30.1593555 C1.35874108,30.4058089 1.18796898,30.6611435 1.0149981,30.9149979 C0.960028535,30.9956688 0.902127264,31.0763398 0.843493066,31.1562706 C0.86548089,30.4176505 0.914587031,29.6797705 0.94683584,28.9426306 C1.04578105,26.7045674 1.06996766,24.4746452 1.11027867,22.2358419 C1.12786893,21.2707511 1.22608121,20.2649548 1.74426093,19.4301217 C2.31301266,18.5146176 3.41606851,18.4901943 4.37327179,18.5257191 C5.60532288,18.5716053 6.83444226,18.6826204 8.06869213,18.6900214 C9.22671754,18.6966823 10.3796125,18.6456154 11.5325074,18.7573705 C11.3690646,19.4338222 11.23274,20.119155 11.1367265,20.8170696 C10.8120397,23.1713286 10.8604129,25.5833154 10.9791471,27.9508963 C11.0275204,28.9219078 11.0868875,29.9136422 11.212951,30.893535 C11.0282533,31.3605383 10.6713176,31.7468706 10.373749,32.1413441 C10.030739,32.5950255 9.71924481,33.0694298 9.36304205,33.51349 C9.04641738,33.9079634 8.71660002,34.2898552 8.40217413,34.6865489 C8.13538853,35.0240347 7.83195656,35.3896442 7.71395523,35.8115014 C7.6970979,35.8707094 7.7718565,35.9114149 7.8143663,35.8699693 C8.17130198,35.5243425 8.43882051,35.0640001 8.74738297,34.6747073 C9.08966011,34.2447091 9.44879457,33.8280326 9.78374243,33.3913734 C10.090839,32.9909792 10.3693515,32.5683819 10.6625225,32.1568862 C10.8699409,31.8652867 11.0956826,31.5810881 11.2649889,31.2658054 C11.3280206,31.6958037 11.4071768,32.1228416 11.5053891,32.5439586 C11.1052107,33.1027343 10.7827226,33.712577 10.3957369,34.280974 C10.1494732,34.642883 9.88855106,34.9922104 9.62323131,35.3407976 C9.46125434,35.5539465 9.26776148,35.7804172 9.12850526,36.0246503 C8.56195232,36.0209498 7.99173475,35.9698828 7.45376598,35.9299174 Z M4.8643332,30.0113354 C4.99406137,29.8018871 5.16483347,29.6279635 5.40450075,29.5006662 C5.79734988,29.291958 6.29867227,29.45478 6.65634088,29.6553472 C7.34749149,30.0431598 7.91331151,30.7877006 7.49261113,31.5810881 C7.10122786,32.3189681 6.15355263,32.4159213 5.48952034,32.0266285 C5.14504443,31.8253212 4.86360028,31.4478701 4.82768683,31.0422951 C4.79983558,30.7307129 4.76685385,30.3384598 4.8643332,30.0113354 Z M1.79996342,35.06326 C2.12391737,34.6043978 2.43101398,34.1359143 2.78721673,33.6970349 C3.31272573,33.0509273 3.79425909,32.3685549 4.36447666,31.7609325 C4.47075115,32.0096062 4.63785861,32.2345967 4.83135147,32.4196218 C4.36520959,32.9443529 3.95623606,33.5157103 3.5384674,34.0789266 C3.32371965,34.3683058 3.0957792,34.6451033 2.88616194,34.938183 C2.78281917,35.0832427 2.64063124,35.2283024 2.56440678,35.3933447 C2.29175776,35.314154 2.03156851,35.2083196 1.79996342,35.06326 Z M39.9803545,29.7604414 C40.0778338,28.9174672 39.8066507,28.1462827 39.297999,27.4816727 C38.974778,27.0590754 38.5123007,26.6401786 37.9897234,26.4780967 C38.2645712,26.2797498 38.5306239,26.0621603 38.7600302,25.8208876 C39.3331795,25.2177059 39.5442626,24.2955409 39.5083492,23.4851311 C39.4687711,22.6155133 39.1052391,21.8250862 38.4917788,21.2204243 C38.2132663,20.9458471 37.883449,20.7423195 37.5162523,20.6224232 C38.0424942,20.3641282 38.5166983,20.015541 38.8868267,19.5322555 C39.4365223,18.8158384 39.7333579,17.9284582 39.6468725,17.0196151 C39.560387,16.1137323 39.0378097,15.3159042 38.3525225,14.7489874 C37.5910109,14.1176818 36.6953735,13.8482853 35.7220458,13.801659 C33.416256,13.6928643 31.1075344,13.7306094 28.8010117,13.6447578 C27.6532472,13.6018319 26.5274706,13.5367031 25.3782403,13.6129334 C24.4840688,13.6728816 23.2036445,13.8904711 22.4575244,13.2391828 C21.8887726,12.7433156 22.1760802,11.7138361 22.3190011,11.0951123 C22.5198232,10.2240142 22.6583465,9.3403345 22.7492295,8.45073396 C22.9075418,6.90392437 22.9808346,5.21427542 22.6107062,3.69114903 C22.2618327,2.25683468 21.2100818,1.14076345 19.884216,0.562005029 C19.2143203,0.270405517 18.5187721,0.159390474 17.8005032,0.0646576376 C17.0924952,-0.0300751988 16.2379018,-0.0796619179 15.6207768,0.349596247 C15.4734584,0.451730086 15.498378,0.681161174 15.6229756,0.760351905 C15.2726363,1.71656147 15.1700265,2.67277104 15.0754788,3.70003023 C14.9662726,4.88641099 14.8731908,6.07501205 14.7317358,7.2576923 C14.4488258,9.63267411 13.7628057,11.9055221 12.9727099,14.1517265 C12.5051021,15.4809466 12.0455566,16.8042459 11.6849563,18.155669 C10.6969701,17.8966339 9.6415545,17.9514013 8.62938165,17.9254978 C7.46182818,17.8958938 6.29427471,17.8559284 5.12818709,17.7811782 C4.26113389,17.7264108 3.35230382,17.6568414 2.51017015,17.9188369 C1.64604865,18.1874933 1.10661403,18.8750465 0.768734463,19.6884167 C0.425724404,20.5128884 0.380282901,21.4624371 0.363425569,22.3446366 C0.344369454,23.3977993 0.362692641,24.4517021 0.339238962,25.5056049 C0.287934039,27.7732722 0.0402045514,30.0505608 0.0885777649,32.3189681 C0.0555960284,32.3966787 0.0262789293,32.4758694 0.00209232262,32.5572804 C-0.0125662269,32.606127 0.053397246,32.6460925 0.0878448374,32.6076072 C0.0907765473,32.6046468 0.0929753297,32.6016864 0.0951741122,32.5994661 C0.107633879,32.9791376 0.133286341,33.3573288 0.196318104,33.7192379 C0.175063207,33.7740053 0.154541238,33.8295128 0.137683906,33.8857604 C0.118627791,33.9471888 0.199249814,33.993075 0.242492535,33.9479289 C0.399339015,34.6391825 0.716696612,35.2564262 1.37413256,35.6953056 C1.96267332,36.0882989 2.72711668,36.2081951 3.41020509,36.3140295 C4.2186241,36.4391064 5.03657116,36.4849926 5.85158651,36.553822 C7.45376598,36.6900004 9.1028528,36.9216518 10.7021006,36.6322726 C11.2444669,36.5345794 11.7743735,36.2903463 12.1540299,35.8818109 C12.3401935,35.6819838 12.455996,35.4651344 12.526357,35.2364435 C13.1742649,36.3125493 14.0992194,37.1577438 15.2513814,37.7328017 C16.6710619,38.4410777 18.2585828,38.7178752 19.8219171,38.8636749 C21.5809431,39.0279772 23.3575593,39.0087346 25.1217157,38.9828311 C27.0419857,38.9554474 28.9600569,38.8821775 30.8781281,38.7918852 C31.759107,38.7504396 32.657676,38.731197 33.5525805,38.67939 C34.3162909,38.7445188 35.0851318,38.7659817 35.8444447,38.790405 C37.0955519,38.8311105 38.277031,38.2730749 39.1323574,37.3605313 C39.9400435,36.4997946 40.0822314,35.3348768 39.7128359,34.2350878 C39.5259394,33.6785324 39.207116,33.2389128 38.7402412,32.8918058 C38.4976422,32.7112213 38.257242,32.5965057 38.0058478,32.5402581 C38.3092798,32.3707752 38.5914569,32.1724283 38.8560437,31.9378165 C39.4739016,31.3901423 39.8850739,30.5819528 39.9803545,29.7604414 Z M29.1366924,36.5664037 C29.0172253,36.7773322 28.9168142,36.997142 28.8303288,37.2243528 C28.7563031,37.417519 28.6536932,37.661012 28.7233213,37.8667599 C28.7409116,37.9200471 28.8046763,37.9259679 28.8354593,37.8815619 C28.939535,37.7328017 28.9585911,37.5307543 29.0113618,37.3590511 C29.0853875,37.1185185 29.1887303,36.8883473 29.3074645,36.6670573 C29.3682975,36.553822 29.2004571,36.4546485 29.1366924,36.5664037 Z M28.1032647,36.6900004 C28.0468293,36.8809463 27.9940585,37.0733724 27.9464182,37.2672786 C27.9039084,37.4412022 27.8335474,37.6425095 27.8841194,37.8193934 C27.9009767,37.8808218 27.9794,37.8874827 28.0123817,37.8364158 C28.1069293,37.6898759 28.1127928,37.4922691 28.1472404,37.3227862 C28.1882843,37.1273997 28.2373904,36.9342335 28.2886954,36.7410673 C28.3209442,36.620431 28.1391782,36.5701042 28.1032647,36.6900004 Z M27.0302589,36.8380205 C26.9357112,37.1414616 26.6381427,37.594403 26.7715355,37.9156065 C26.7891257,37.9577922 26.8528904,37.9807353 26.8785429,37.9296684 C26.9547673,37.779428 26.9716247,37.6032842 27.0229296,37.4434225 C27.0822967,37.2569172 27.1577883,37.0770729 27.2120249,36.8890874 C27.2464725,36.7699312 27.0661723,36.7210846 27.0302589,36.8380205 Z M26.2562875,36.6922207 C26.1947216,36.9312731 26.0752544,37.1385012 25.9550543,37.3516501 C25.8561091,37.5263137 25.7161199,37.7394626 25.7417724,37.948911 C25.7491016,38.0095992 25.8172639,38.0310621 25.8539103,37.9792551 C25.9799738,37.8031112 26.0437385,37.5714599 26.1492801,37.3782937 C26.261418,37.1725458 26.3662266,36.9682781 26.4219291,36.7381069 C26.4490474,36.6300523 26.2848716,36.5841661 26.2562875,36.6922207 Z M14.9274275,34.4741402 C14.7867054,34.9899901 14.5624296,35.5813302 14.6115357,36.1230836 C14.6159333,36.1793312 14.6921577,36.1933931 14.709748,36.1364054 C14.8702591,35.6131545 14.9376884,35.0491981 15.0791434,34.5163259 C15.1055288,34.4171524 14.9545458,34.3749667 14.9274275,34.4741402 Z M36.7452126,30.421351 C36.5275331,30.9483024 36.3904757,31.4996771 36.185256,32.0251483 C36.1104974,32.2153541 35.9705082,32.5905849 36.2416914,32.6801371 C36.2834683,32.6934589 36.3157171,32.6579341 36.3201146,32.6201889 C36.3494317,32.3389508 36.4491099,32.1021187 36.5055453,31.8282816 C36.6030247,31.3642388 36.7774614,30.9186984 36.9438359,30.4768585 C36.9922091,30.3495613 36.7950516,30.3007147 36.7452126,30.421351 Z M35.8319849,30.5967548 C35.6751385,30.9586638 35.5175591,31.3190926 35.387098,31.6913631 C35.2610344,32.052532 35.1159148,32.502513 35.2273198,32.8821844 C35.2434442,32.937692 35.3167369,32.9339915 35.3350601,32.8821844 C35.4464651,32.5587606 35.4581919,32.2035125 35.5520066,31.8719476 C35.6656104,31.4685929 35.8393142,31.0815205 36.0005583,30.6959282 C36.0481986,30.5812127 35.8825569,30.480559 35.8319849,30.5967548 Z M35.1980027,30.5745518 C35.0045098,31.1126047 34.4159691,31.8371628 34.5471631,32.4366441 C34.5566911,32.4788298 34.6226546,32.4899313 34.6417107,32.4492258 C34.7853645,32.1413441 34.8439987,31.7986776 34.9876525,31.4848751 C35.1188465,31.1984563 35.2603015,30.9186984 35.3636443,30.620438 C35.4002907,30.5138635 35.235382,30.4701976 35.1980027,30.5745518 Z M34.4526154,30.5693711 C34.3228873,30.7995422 34.2400665,31.0578372 34.154314,31.307251 C34.0802883,31.5218801 33.9982004,31.7690736 34.0465736,31.9962844 C34.0575675,32.0503117 34.1389225,32.0606731 34.163842,32.0118265 C34.264986,31.8134796 34.2899055,31.5759074 34.3514714,31.3620185 C34.4218325,31.114825 34.5171131,30.8676315 34.5515606,30.6115568 C34.5596228,30.553829 34.4855972,30.5109031 34.4526154,30.5693711 Z M35.5725286,27.2722243 C35.5915847,27.3121897 35.6538836,27.3092293 35.6736726,27.2722243 C35.8466435,26.9451 35.8371154,26.5010398 35.9433899,26.1413511 C36.0863108,25.6565854 36.3010585,25.1955029 36.4974831,24.73146 C36.5509868,24.6049029 36.3699537,24.4938878 36.3120524,24.6219252 C36.114895,25.0615447 35.911874,25.4974638 35.7454995,25.9511453 C35.609175,26.3234157 35.3922285,26.8873721 35.5725286,27.2722243 Z M35.52782,24.2548354 C35.2668979,25.159238 34.7853645,26.0888039 34.7714389,27.0450135 C34.769973,27.1034814 34.8505951,27.1427067 34.8909061,27.0946002 C35.1664868,26.7689561 35.1115172,26.2582869 35.2463759,25.8652937 C35.4222785,25.3524042 35.5813237,24.8335939 35.7183812,24.3081227 C35.75063,24.1837858 35.5637335,24.1319788 35.52782,24.2548354 Z M34.0553687,26.6764436 C34.2056189,26.4048268 34.2796446,26.0932445 34.3851861,25.801645 C34.5061191,25.4685999 34.6336485,25.1392553 34.7384572,24.8010294 C34.7751035,24.6811332 34.5911387,24.6315465 34.5537594,24.7492224 C34.3617324,25.3450032 33.9424979,26.0140538 33.9593552,26.6498 C33.9600882,26.7008669 34.0297163,26.7223298 34.0553687,26.6764436 Z M34.0561017,24.2511349 C33.9036528,24.5664177 33.7731917,24.8883613 33.6654513,25.2221465 C33.5628415,25.5418698 33.4316475,25.9348631 33.5144683,26.2708686 C33.5261951,26.318235 33.6002208,26.333037 33.6214757,26.2849305 C33.7453404,26.0133137 33.7629307,25.6958107 33.8332917,25.4056914 C33.9241747,25.0312006 34.0451078,24.6633708 34.1660408,24.2977612 C34.1880286,24.2326324 34.0861517,24.1889665 34.0561017,24.2511349 Z M35.4017565,20.7497205 C35.4193468,20.8163295 35.5094969,20.8259508 35.5432115,20.7689631 C35.6414238,20.6024405 35.6670763,20.4070541 35.730108,20.2242493 C35.8129288,19.9822365 35.9404582,19.7550257 36.0621242,19.5315154 C36.2885988,19.1126187 36.5231356,18.7033432 36.6579942,18.2422607 C36.6983052,18.1046021 36.4872221,18.0468742 36.4454452,18.1830527 C36.2878658,18.6974224 35.9990924,19.1459232 35.7440336,19.6136665 C35.5725286,19.9282092 35.305743,20.3818906 35.4017565,20.7497205 Z M34.7252645,20.6305643 C34.7303949,20.694213 34.8154145,20.7282576 34.8505951,20.664609 C35.0609452,20.2841974 35.134238,19.809053 35.2932833,19.4012578 C35.4985029,18.8772668 35.7550276,18.3732585 36.0005583,17.86777 C36.0555278,17.7545346 35.8898862,17.6553612 35.8319849,17.7685965 C35.5937835,18.2393003 35.3533833,18.7085239 35.1408343,19.1918094 C34.9532049,19.6195874 34.6842205,20.1539398 34.7252645,20.6305643 Z M34.0150577,20.2975192 C34.0253187,20.3337841 34.0817541,20.3456257 34.0993444,20.3086207 C34.1806993,20.1324768 34.2122152,19.9430112 34.2686506,19.7579861 C34.3434092,19.5152332 34.4680069,19.2872823 34.5874741,19.0645121 C34.7853645,18.6974224 34.9964476,18.3406941 35.1276416,17.9425201 C35.1664868,17.8248442 34.9847208,17.7759975 34.9458756,17.8914532 C34.7919609,18.3443946 34.5310387,18.7440487 34.3089616,19.1636856 C34.1345249,19.49155 33.9124479,19.9185879 34.0150577,20.2975192 Z M33.5569781,19.5159733 C33.8823979,19.0889354 34.1081395,18.5279394 34.3089616,18.030592 C34.33608,17.9632429 34.2283396,17.934379 34.2012213,18.0002479 C33.9938028,18.5086968 33.6720477,18.9734798 33.4836853,19.4848891 C33.4660951,19.5322555 33.5313256,19.5492778 33.5569781,19.5159733 Z M10.3407673,30.5434675 C10.4023332,30.4457743 10.2506172,30.3577024 10.1868525,30.4531753 C9.55580198,31.4056844 8.86611723,32.3167478 8.16323978,33.2167098 C7.85467731,33.6126634 7.54538191,34.0071369 7.25294385,34.4156722 C6.98102776,34.7953437 6.58451399,35.2460648 6.47970536,35.7093675 C6.46284803,35.7826375 6.54713469,35.8300039 6.60210425,35.7804172 C6.95903993,35.4629141 7.18844623,34.9330023 7.46402696,34.5400091 C7.79237847,34.0693053 8.15004708,33.6215446 8.49965349,33.1671231 C9.15122601,32.3204483 9.76908388,31.4478701 10.3407673,30.5434675 L10.3407673,30.5434675 Z" id="Fill-27" fill="#D30000"></path>
        </g>
    </g>
</svg>