<svg xmlns="http://www.w3.org/2000/svg" xmlns:xlink="http://www.w3.org/1999/xlink" width="29" height="28" viewBox="0 0 29 28">
    <defs>
        <path id="dkgzhb6c3a" d="M18.792 19.521c0 .062-.002.123-.003.184-.695.956-1.542 1.81-2.166 2.814-.023.038.03.075.061.046.509-.47.92-1.047 1.342-1.59.254-.329.515-.653.759-.988-.005.259-.012.518-.02.777-.133.15-.273.295-.395.452-.222.287-.413.595-.623.891-.215.305-.42.615-.621.928-.185.288-.42.558-.536.882-.014.038.042.07.07.04.49-.541.85-1.154 1.266-1.748.208-.296.398-.605.615-.896.067-.09.14-.177.214-.263-.011.32-.024.64-.039.96-.44.43-.82.912-1.219 1.377-.355.412-.759.88-.937 1.394-.015.043.044.072.075.043.419-.4.704-.933 1.068-1.379.327-.4.645-.806 1.002-1.181l-.028.553-.01.192c-.347.64-.89 1.174-1.194 1.838-.023.05.034.097.079.06.278-.236.474-.552.678-.846.138-.198.281-.39.414-.588-.01.178-.018.356-.026.535l-.01.271c-.021.007-.04.02-.057.041-.185.25-.381.496-.535.767-.184-.014-.375-.06-.544-.07-.31-.019-.621-.04-.932-.05-.643-.018-1.3.09-1.94.014-.252-.03-.355-.098-.382-.343-.018-.16-.025-.308-.063-.457.04-.302.054-.61.07-.91.044-.915.02-1.836.003-2.753-.026-1.453-.096-2.907-.112-4.36-.004-.447-.08-1.067.31-1.395.288-.244.72-.324 1.091-.392.224-.041.45-.07.677-.09-.066.07-.138.134-.192.2-.105.126-.292.277-.27.455.004.034.038.05.066.027.086-.07.139-.177.208-.263.063-.077.123-.156.186-.233.053-.065.114-.128.166-.197.143-.008.286-.012.43-.012-.139.147-.273.298-.399.454-.143.179-.302.36-.373.578-.016.052.05.079.086.049.174-.142.292-.346.424-.523.142-.19.286-.376.44-.556.174.005.358.013.538.037-.387.536-.883 1.029-1.111 1.648-.02.051.05.08.085.05.296-.25.478-.609.695-.92.174-.252.357-.488.514-.747.15.031.295.077.428.144l.009.005-.002.002c-.247.345-.487.694-.728 1.043-.235.342-.504.675-.697 1.043-.026.047.033.09.074.055.316-.263.548-.62.773-.957.241-.363.468-.734.705-1.1.075.07.122.156.155.252-.015.005-.029.015-.04.032-.577.901-1.215 1.753-1.682 2.72-.016.031.026.071.052.04.341-.412.612-.877.893-1.33.27-.432.562-.851.826-1.287l.046.21c.021.096.041.192.059.288-.024 0-.047.01-.062.039-.12.225-.321.42-.464.634-.152.228-.303.457-.451.687-.31.48-.62.981-.83 1.511-.019.047.05.066.076.032.354-.47.65-.987.962-1.483.137-.217.277-.432.413-.65.122-.194.28-.376.39-.577.042.255.073.512.098.769.021.219.038.438.052.658-.05.113-.143.207-.216.307-.096.131-.197.259-.296.387-.232.3-.437.618-.644.935-.404.62-.832 1.24-1.192 1.887-.029.052.044.114.087.065.52-.582.916-1.284 1.33-1.94.21-.332.43-.656.656-.98.085-.12.2-.254.29-.396.017.335.028.671.034 1.007-.08.089-.165.171-.24.263-.102.124-.199.25-.296.376-.22.291-.441.58-.659.874-.425.57-.885 1.142-1.188 1.787-.018.036.032.084.062.047.455-.56.876-1.152 1.304-1.733.216-.293.43-.588.642-.883.118-.166.257-.33.377-.504.002.305.002.61-.001.914zm-.152 5.219c-.007-.03-.01-.072.001-.1l.007.047-.008.053zm-.28.314c-.05.016-.1.026-.15.032.15-.15.277-.318.402-.489l.005.041c-.05.07-.058.138-.038.197-.039.1-.104.18-.22.219zm.823-9.543c-.062-.372-.116-.823-.31-1.156-.438-.747-1.713-.727-2.464-.687-.857.045-2.131.151-2.645.934-.312.476-.268 1.089-.263 1.629.001.236.006.472.013.708.025.817.058 1.633.089 2.449.067 1.742.067 3.488.163 5.229-.017.124-.018.247.007.362 0 .02.004.035.012.047.047.16.149.303.334.406.335.185.805.195 1.18.19.446-.005.885-.022 1.331-.003.404.016.806.053 1.207.095.371.038.796.028 1.078-.243.223-.215.357-.618.305-.96.004-.1 0-.2.002-.289.012-.328.03-.656.047-.984.05-.986.1-1.973.123-2.96.027-1.095.03-2.194-.044-3.287-.033-.495-.083-.99-.165-1.48zm10.93 3.001c-.797 1.004-1.68 1.947-2.442 2.975-.041.056.046.11.094.07.569-.478 1.03-1.078 1.49-1.655.218-.273.435-.547.64-.83.043-.06.09-.12.135-.18-.217.916-.537 1.81-.946 2.664-.504.568-1.017 1.128-1.501 1.71-.038.046.02.101.065.064.382-.306.726-.66 1.052-1.031-.253.454-.53.895-.831 1.32-1.252 1.759-2.944 3.174-4.886 4.142.056-.07.11-.14.158-.216.072-.114-.11-.216-.183-.104-.11.168-.255.31-.38.469l-.054.07c-.455.206-.922.389-1.4.545l-.05.016.008-.013c.12-.186.249-.362.338-.565.052-.117-.12-.221-.18-.102-.107.218-.265.4-.4.601-.038.056-.082.12-.119.19-.35.105-.707.2-1.068.283.124-.242.294-.457.425-.709.06-.117-.115-.22-.181-.103-.16.283-.448.563-.565.883-.358.075-.719.14-1.082.192.124-.345.39-.707.585-.976.073-.1-.092-.189-.166-.095-.2.251-.383.52-.535.801-.042.076-.106.19-.149.307-.381.05-.764.086-1.148.11.037-.126.082-.248.153-.375.115-.207.25-.403.396-.59.069-.086-.084-.202-.154-.116-.187.225-.36.466-.5.723-.058.107-.13.239-.167.373-.3.013-.6.02-.9.017.003-.051-.006-.104.002-.156.016-.117.065-.233.11-.342.093-.225.213-.438.32-.656.055-.11-.109-.208-.17-.097-.068.123-.562.922-.518 1.247-.27-.007-.541-.02-.81-.04.064-.467.315-.847.531-1.267.057-.11-.11-.208-.17-.098-.152.28-.33.544-.467.832-.056.12-.17.34-.158.51-.302-.027-.604-.064-.902-.11.013-.027.01-.066-.022-.08l-.005-.003c.077-.385.361-.71.54-1.053.055-.106-.107-.2-.165-.094-.203.37-.58.75-.621 1.186-.303-.052-.603-.114-.9-.185l-.072-.018c.112-.207.172-.448.279-.66.102-.205.21-.408.294-.622.038-.097-.12-.136-.158-.042-.106.252-.252.483-.38.724-.09.17-.202.36-.214.555-.275-.072-.547-.153-.817-.243.02-.074.022-.155.046-.227.04-.125.103-.244.164-.36.15-.284.331-.56.397-.877.023-.108-.145-.154-.17-.046-.094.413-.394.734-.568 1.114-.03.064-.084.208-.083.321-.322-.114-.639-.242-.948-.384.021-.074.038-.15.063-.225.056-.166.134-.324.214-.48.147-.289.317-.567.462-.857.049-.097-.097-.183-.15-.085-.178.323-.395.623-.57.947-.088.166-.211.382-.25.59-.3-.146-.595-.306-.88-.481.038-.081.048-.168.075-.259.05-.167.124-.326.205-.48.137-.258.3-.502.44-.756.054-.095-.09-.178-.147-.085-.182.298-.393.58-.557.887-.087.163-.204.37-.215.567-.178-.114-.351-.234-.52-.36-.062-.046-.122-.093-.183-.14.02-.055.032-.111.05-.171.046-.154.113-.3.19-.442.125-.232.276-.451.416-.676.058-.093-.088-.174-.148-.085-.173.255-.36.503-.507.773-.069.126-.159.288-.192.446-.208-.171-.407-.351-.6-.539.028-.078.05-.16.084-.236.068-.158.15-.31.22-.467.146-.323.32-.634.493-.944.05-.087-.085-.164-.138-.078-.218.357-.423.716-.614 1.088-.07.137-.175.293-.228.454-.267-.274-.518-.562-.756-.86.024-.062.047-.123.076-.18.083-.172.184-.335.29-.494.229-.34.478-.669.673-1.03.048-.09-.087-.168-.14-.08-.226.378-.517.71-.765 1.072-.091.134-.215.308-.305.491-.15-.198-.294-.401-.433-.608.134-.268.248-.547.392-.812.169-.31.401-.58.512-.92.033-.103-.131-.146-.166-.044-.132.38-.421.698-.61 1.052-.082.154-.21.332-.264.515l-.083-.128c-.161-.257-.313-.52-.458-.786.141-.29.287-.576.454-.856.212-.357.413-.718.525-1.118.025-.09-.116-.128-.144-.04-.135.439-.4.82-.635 1.21-.116.193-.234.388-.312.595-.159-.301-.307-.607-.447-.917.069-.109.13-.224.194-.335.132-.227.27-.452.402-.68.245-.423.476-.85.64-1.31.014-.042-.053-.07-.073-.03-.226.442-.481.87-.745 1.293-.162.26-.374.54-.52.831-.204-.467-.39-.943-.562-1.424.012-.004.022-.011.031-.023.405-.574.788-1.162 1.242-1.704.064-.076-.046-.187-.113-.11-.275.318-.524.642-.769.982-.145.2-.4.414-.457.667l-.017-.05c-.118-.34-.23-.684-.336-1.03.021.009.052.002.066-.018.091-.133.15-.285.245-.418.109-.152.244-.285.35-.439.215-.313.39-.653.598-.972.042-.065-.062-.122-.106-.06-.255.364-.479.754-.766 1.096-.171.205-.42.44-.415.72-.12-.398-.228-.8-.323-1.204.11-.152.182-.328.291-.482.133-.187.296-.355.455-.52.267-.28.545-.557.714-.906.04-.084-.085-.158-.129-.074-.206.398-.558.689-.868 1.006-.184.188-.426.438-.524.708-.069-.318-.13-.637-.177-.958.017.01.039.01.054-.006.228-.253.398-.547.602-.818.236-.313.484-.614.76-.895.061-.064-.036-.159-.1-.097-.272.26-.528.536-.761.83-.222.28-.453.568-.566.908-.054-.378-.094-.758-.113-1.14l-.005-.14c.067-.091.12-.192.181-.288.115-.18.246-.347.384-.51.24-.287.5-.555.763-.822.062-.063-.033-.156-.098-.095-.305.286-.613.573-.882.893-.113.134-.25.288-.354.453 0-.322.016-.642.05-.96.132-.158.26-.323.393-.48.194-.226.38-.457.518-.72.035-.067-.066-.126-.103-.06-.168.302-.399.555-.63.81l-.144.16c.129-.946.404-1.867.828-2.748.635-1.316 1.523-2.503 2.545-3.557 1.37-1.413 2.981-2.634 4.771-3.49l.117-.04c-.01.018-.022.036-.033.053-.165.274-.366.558-.469.86-.016.047.052.084.086.049.214-.223.346-.524.501-.788l.15-.254.436-.149c.124-.043.25-.086.374-.127-.314.323-.649.716-.79 1.113-.015.044.046.074.078.044.169-.165.283-.382.42-.573.167-.236.35-.461.554-.67.262-.083.527-.162.792-.237-.116.165-.232.33-.342.499-.152.236-.35.507-.38.791-.007.055.07.061.096.026.183-.248.295-.56.462-.821.116-.183.234-.363.35-.546.269-.072.54-.14.813-.2.162-.037.325-.07.487-.102-.299.507-.67.977-.905 1.517-.019.043.029.084.068.051.233-.195.337-.476.48-.734.164-.295.363-.569.524-.866.235-.043.47-.08.705-.113-.161.213-.301.443-.429.675-.197.358-.437.764-.553 1.153-.013.045.05.082.083.047.278-.293.401-.688.578-1.04.148-.293.317-.595.522-.862.282-.035.564-.06.847-.079-.159.287-.32.572-.477.859-.173.315-.451.677-.499 1.035-.008.06.078.084.117.048.268-.254.411-.706.578-1.029.158-.306.31-.614.46-.923.279-.013.558-.019.837-.013-.123.209-.23.426-.34.644-.076.152-.155.302-.243.448-.09.148-.21.282-.275.442-.022.053.05.097.095.071.284-.16.44-.551.57-.828.124-.26.239-.522.381-.772.265.01.53.027.794.055-.156.228-.299.464-.42.712-.144.294-.35.675-.295 1.006.01.062.095.058.125.016.093-.131.124-.287.174-.437.069-.204.149-.405.242-.599.112-.233.242-.456.383-.673.138.017.277.036.415.06.158.026.314.056.47.09-.145.222-.298.44-.424.674-.086.161-.171.323-.24.492-.072.18-.182.375-.194.569-.004.058.073.103.123.069.147-.102.192-.256.252-.417.077-.204.167-.4.266-.594.13-.256.287-.497.431-.745.307.073.61.157.908.255-.063.105-.139.2-.207.302-.123.182-.216.375-.321.566-.147.267-.458.626-.37.95.019.069.102.067.14.019.116-.15.153-.362.241-.53.085-.16.18-.313.255-.477.122-.267.306-.508.433-.77.279.096.554.203.824.32-.265.351-.52.717-.724 1.106-.07.136-.117.278-.168.422-.048.137-.136.27-.148.415-.005.053.055.087.102.076.277-.065.316-.537.41-.748.184-.417.445-.815.704-1.192.302.137.598.287.888.447-.187.262-.364.53-.53.806-.162.267-.365.549-.436.854-.016.068.07.123.123.07.225-.224.356-.54.513-.81.161-.278.33-.552.512-.818.222.128.44.262.653.402-.219.308-.411.635-.59.966-.209.383-.436.77-.544 1.192-.015.057.059.082.092.038.268-.36.439-.78.647-1.175.167-.316.341-.629.513-.943.553.37 1.08.78 1.575 1.22-.016.002-.033.01-.048.026-.318.337-.57.725-.79 1.128-.221.398-.494.833-.605 1.276-.014.057.061.107.106.06.294-.32.45-.77.647-1.15.218-.42.45-.834.767-1.192.017-.019.023-.04.023-.06.22.2.435.405.643.616l-.01.014c-.26.462-.552.903-.846 1.344-.143.215-.284.43-.42.65-.126.203-.28.424-.325.66-.012.064.064.115.116.066.166-.157.273-.375.392-.567.144-.232.292-.463.439-.694.278-.435.554-.87.8-1.323.105.11.209.22.31.33.13.144.259.29.385.439-.415.967-1.492 1.624-1.676 2.696-.01.06.063.092.1.042.35-.48.62-1.009.987-1.481.27-.347.547-.693.729-1.09.357.432.694.883 1.006 1.35-.352.485-.706.97-1.04 1.467-.326.482-.712.987-.897 1.54-.025.075.087.143.14.08.384-.45.656-1 .977-1.493.31-.473.624-.943.94-1.411.159.244.311.492.456.745-.304.48-.614.956-.928 1.431-.32.487-.709.955-.97 1.475-.034.065.048.134.104.08.415-.4.72-.926 1.027-1.406.303-.474.577-.963.834-1.462.19.341.369.69.532 1.043-.384.356-.625.836-.873 1.285-.331.597-.708 1.172-1.02 1.779-.026.05.036.1.08.06.48-.426.77-1.092 1.071-1.643.246-.45.457-.94.817-1.315.146.33.28.666.4 1.006-.033-.005-.069.005-.094.037-.41.525-.803 1.061-1.177 1.611-.346.508-.741 1.039-.957 1.615-.023.06.07.115.114.064.401-.475.693-1.052 1.033-1.57.359-.548.737-1.084 1.131-1.609.143.421.264.849.36 1.281-.038-.02-.092-.02-.124.025-.467.652-.947 1.294-1.407 1.95-.194.277-.343.581-.505.876-.159.287-.363.569-.486.872-.018.045.046.095.086.065.248-.185.404-.483.549-.747.168-.306.318-.625.512-.917.45-.679.931-1.34 1.4-2.007.088.416.155.837.196 1.261.007.065.011.13.016.194-.036-.036-.096-.049-.144-.002-.508.497-.922 1.074-1.315 1.66-.405.6-.854 1.18-1.237 1.792-.034.056.04.1.086.065.55-.424.912-1.062 1.287-1.629.404-.61.805-1.22 1.326-1.745l.007-.009c.072 1.048-.007 2.096-.215 3.12zm-1.79-10.19c-1.722-2.424-4.032-4.472-6.867-5.571-1.582-.614-3.277-.85-4.974-.713-.854.07-1.692.222-2.515.435-.827.136-1.64.338-2.436.64-1.537.582-2.948 1.445-4.217 2.467-2.36 1.9-4.488 4.456-5.117 7.445-.348 1.65-.2 3.354.17 4.988.35 1.548.87 3.078 1.53 4.527 1.225 2.696 3.158 5.053 5.954 6.299 2.95 1.315 6.236 1.389 9.383.835 2.93-.516 5.689-1.906 7.755-4.007 2.198-2.235 3.638-5.225 3.953-8.31.327-3.214-.753-6.407-2.619-9.034zM14.656 9.379c.06-.25.17-.477.285-.705.169-.236.374-.449.624-.602.107-.066.215-.116.324-.152-.046.046-.09.093-.133.14-.082.095-.23.225-.19.362.01.028.04.037.065.025.115-.053.194-.208.271-.303.076-.094.152-.187.225-.282.108-.017.215-.021.321-.014-.077.078-.152.16-.225.242-.115.131-.272.268-.328.434-.02.058.048.094.097.073.167-.074.28-.257.392-.393.092-.11.181-.22.275-.327.084.017.168.041.25.072-.285.293-.565.634-.728.985-.026.056.035.1.084.064.334-.253.554-.645.82-.974.131.065.257.144.375.235-.139.164-.268.336-.408.501-.244.284-.504.57-.706.885-.024.039.026.09.066.064.514-.328.82-.865 1.191-1.33.086.077.168.16.243.248-.244.239-.48.484-.705.74-.25.283-.516.57-.686.907-.024.048.033.09.074.056.302-.247.533-.57.786-.861.208-.24.42-.476.64-.706.064.086.124.178.177.275-.555.534-1.092 1.135-1.516 1.76-.025.038.026.091.064.064.601-.434 1.064-1.055 1.55-1.62.057.137.096.28.113.425-.442.416-.881.88-1.168 1.39-.031.056.038.099.083.064.3-.228.527-.527.771-.808.104-.119.208-.237.314-.354l-.002.009c-.06.456-.43.888-.788 1.167-.809.63-1.925.578-2.575-.248-.342-.434-.446-.978-.322-1.508zm-.593.907c.027.174.073.345.142.51.253.603.776 1.08 1.397 1.315.609.23 1.273.148 1.85-.125.575-.272 1.062-.754 1.356-1.305.305-.575.273-1.205.008-1.788-.487-1.075-1.734-1.948-2.967-1.624-.637.167-1.142.622-1.494 1.153-.186.282-.327.583-.403.911-.066.286-.14.607-.03.887.025.065.087.088.141.066zm16.138 6.382c-.267.19-.445.471-.657.714-.266.303-.54.596-.769.927-.467.678-1.026 1.306-1.428 2.024-.032.058.048.125.097.073.516-.547.961-1.166 1.39-1.78.229-.326.467-.635.724-.942.23-.276.445-.643.737-.86.092-.069.003-.225-.094-.156zM24.326 5.226c-.203.394-.436.771-.671 1.148-.219.35-.465.687-.599 1.079-.015.044.05.08.082.046.278-.308.48-.672.694-1.024.231-.38.442-.77.627-1.174.039-.086-.088-.163-.133-.075zm-7.831 14.533c.39-.472.693-1.018 1.02-1.532.358-.564.73-1.12 1.161-1.634.067-.08-.045-.194-.117-.115-.433.474-.807.988-1.153 1.525-.352.547-.703 1.12-.969 1.712-.015.034.03.078.058.044zM27.532 8.4c.062-.097-.093-.183-.155-.089-.312.467-.66.909-.98 1.37-.275.395-.683.796-.78 1.279-.012.057.066.12.112.063.314-.382.594-.818.865-1.23.307-.469.64-.92.938-1.393z"/>
    </defs>
    <g fill="none" fill-rule="evenodd" transform="translate(-2 -2)">
        <path d="M0 0H32V32H0z"/>
        <use fill="#D30000" xlink:href="#dkgzhb6c3a"/>
    </g>
</svg>
