<svg xmlns="http://www.w3.org/2000/svg" width="32" height="32" viewBox="0 0 32 32">
    <g fill="#0A0A0A">
        <path d="M16 0C7.163 0 0 7.163 0 16s7.163 16 16 16 16-7.163 16-16S24.837 0 16 0zm0 .97C24.301.97 31.03 7.699 31.03 16c0 8.301-6.729 15.03-15.03 15.03C7.699 31.03.97 24.301.97 16 .97 7.699 7.699.97 16 .97z"/>
        <path d="M14.237 10c-.288-.006-.55.17-.667.441-.113.273-.055.589.147.8l4.638 4.034c.378.317.567.56.567.729 0 .169-.189.411-.567.728l-4.638 4.035c-.271.29-.26.751.022 1.03.282.279.73.27 1.002-.023l5.461-5.035c.406-.374.432-1.007.058-1.413-.018-.02-.038-.04-.058-.058l-5.461-5.035c-.13-.145-.313-.227-.504-.233z"/>
    </g>
</svg>
