<svg xmlns="http://www.w3.org/2000/svg" viewBox="0 0 72 72" width="72" height="72" preserveAspectRatio="xMidYMid meet" style="width: 100%; height: 100%; transform: translate3d(0px, 0px, 0px);"><defs><clipPath id="__lottie_element_2"><rect width="72" height="72" x="0" y="0"></rect></clipPath></defs><g clip-path="url(#__lottie_element_2)"><g transform="matrix(1,0,0,1,13.721931457519531,15.30195426940918)" opacity="1" style="display: block;"><g opacity="1" transform="matrix(1,0,0,1,20.4689998626709,18.766000747680664)"><path fill="rgb(9,9,9)" fill-opacity="1" d=" M17.572999954223633,3.9019999504089355 C16.954999923706055,6.382999897003174 15.791000366210938,8.527999877929688 14.335000038146973,10.321000099182129 C14.388999938964844,10.142000198364258 14.447999954223633,9.96399974822998 14.51200008392334,9.788000106811523 C14.59000015258789,9.57699966430664 14.347999572753906,9.390999794006348 14.26099967956543,9.604000091552734 C14.116000175476074,9.956999778747559 13.904999732971191,10.461999893188477 13.782999992370605,10.970000267028809 C13.406000137329102,11.392999649047852 13.01099967956543,11.795000076293945 12.604999542236328,12.175000190734863 C12.675000190734863,11.75 12.800000190734863,11.340999603271484 12.92199993133545,10.9350004196167 C13,10.67300033569336 12.64799976348877,10.482999801635742 12.559000015258789,10.743000030517578 C12.366000175476074,11.315999984741211 12.11400032043457,11.98900032043457 12.079000473022461,12.649999618530273 C11.968999862670898,12.743000030517578 11.862000465393066,12.836000442504883 11.753000259399414,12.927000045776367 C11.39900016784668,13.220000267028809 11.038999557495117,13.49899959564209 10.673999786376953,13.765000343322754 C10.699999809265137,13.553000450134277 10.744000434875488,13.343000411987305 10.788000106811523,13.137999534606934 C10.890000343322754,12.654999732971191 11.027000427246094,12.187999725341797 11.144000053405762,11.711000442504883 C11.21399974822998,11.428000450134277 10.878000259399414,11.321999549865723 10.79699993133545,11.59000015258789 C10.586999893188477,12.293000221252441 10.314000129699707,12.98799991607666 10.218000411987305,13.736000061035156 C10.204999923706055,13.845999717712402 10.190999984741211,13.97599983215332 10.194000244140625,14.10200023651123 C9.845999717712402,14.33899974822998 9.493000030517578,14.562999725341797 9.133999824523926,14.77400016784668 C9.133000373840332,14.769000053405762 9.133000373840332,14.765000343322754 9.133000373840332,14.760000228881836 C9.109000205993652,14.487000465393066 9.142999649047852,14.199999809265137 9.1899995803833,13.937000274658203 C9.28600025177002,13.402000427246094 9.472999572753906,12.899999618530273 9.687000274658203,12.423999786376953 C9.809000015258789,12.152999877929688 9.482999801635742,11.913000106811523 9.355999946594238,12.180000305175781 C8.97599983215332,12.979000091552734 8.567000389099121,14.034000396728516 8.6899995803833,14.994000434875488 C8.690999984741211,15.003999710083008 8.692999839782715,15.01200008392334 8.694999694824219,15.022000312805176 C8.309000015258789,15.234999656677246 7.919000148773193,15.430000305175781 7.52400016784668,15.609999656677246 C7.519999980926514,15.557999610900879 7.51800012588501,15.506999969482422 7.519000053405762,15.456000328063965 C7.5279998779296875,15.11299991607666 7.590000152587891,14.77400016784668 7.6529998779296875,14.440999984741211 C7.758999824523926,13.869999885559082 7.900000095367432,13.312999725341797 8.041000366210938,12.753999710083008 C8.112000465393066,12.470000267028809 7.76800012588501,12.357999801635742 7.689000129699707,12.631999969482422 C7.464000225067139,13.427000045776367 7.210000038146973,14.229000091552734 7.0879998207092285,15.062000274658203 C7.054999828338623,15.277000427246094 7.006999969482422,15.579000473022461 7.077000141143799,15.803000450134277 C6.784999847412109,15.925000190734863 6.492000102996826,16.038999557495117 6.196000099182129,16.142000198364258 C6.164000034332275,16.072999954223633 6.091000080108643,16.048999786376953 6.0269999504089355,16.11199951171875 C5.941999912261963,16.19700050354004 6.004000186920166,16.198999404907227 5.961999893188477,16.027000427246094 C5.940999984741211,15.942000389099121 5.935999870300293,15.833000183105469 5.934000015258789,15.744000434875488 C5.932000160217285,15.454000473022461 5.98799991607666,15.142000198364258 6.02400016784668,14.855999946594238 C6.0970001220703125,14.270999908447266 6.199999809265137,13.696000099182129 6.474999904632568,13.20300006866455 C6.616000175476074,12.951000213623047 6.293000221252441,12.72700023651123 6.150000095367432,12.96500015258789 C5.888999938964844,13.401000022888184 5.751999855041504,13.918999671936035 5.646999835968018,14.444999694824219 C5.550000190734863,14.930999755859375 5.423999786376953,15.479000091552734 5.459000110626221,15.982999801635742 C5.466000080108643,16.093000411987305 5.480000019073486,16.229999542236328 5.508999824523926,16.361000061035156 C5.203000068664551,16.450000762939453 4.894999980926514,16.527999877929688 4.585000038146973,16.59600067138672 C4.6529998779296875,16.520999908447266 4.7129998207092285,16.405000686645508 4.751999855041504,16.2450008392334 C4.7779998779296875,16.135000228881836 4.679999828338623,16.05699920654297 4.605999946594238,16.104000091552734 C4.474999904632568,16.18899917602539 4.478000164031982,16.211999893188477 4.482999801635742,15.98799991607666 C4.485000133514404,15.894000053405762 4.502999782562256,15.807999610900879 4.519000053405762,15.715999603271484 C4.560999870300293,15.473999977111816 4.61899995803833,15.234999656677246 4.675000190734863,14.998000144958496 C4.785999774932861,14.548999786376953 4.913000106811523,14.107999801635742 5.046999931335449,13.668999671936035 C5.133999824523926,13.378000259399414 4.770999908447266,13.262999534606934 4.679999828338623,13.541999816894531 C4.5289998054504395,14.00100040435791 4.382999897003174,14.463000297546387 4.25,14.930999755859375 C4.144000053405762,15.300000190734863 3.98799991607666,15.723999977111816 4.013999938964844,16.12299919128418 C4.033999919891357,16.408000946044922 4.132999897003174,16.593000411987305 4.25600004196167,16.666000366210938 C3.877000093460083,16.739999771118164 3.496999979019165,16.801000595092773 3.11299991607666,16.841999053955078 C3.2249999046325684,16.7549991607666 3.25,16.69099998474121 3.308000087738037,16.547000885009766 C3.3350000381469727,16.482999801635742 3.3259999752044678,16.378000259399414 3.2660000324249268,16.344999313354492 C3.239000082015991,16.32900047302246 3.2160000801086426,16.31999969482422 3.197000026702881,16.312999725341797 C3.1530001163482666,15.434000015258789 3.489000082015991,14.638999938964844 3.7890000343322754,13.859000205993652 C3.8959999084472656,13.57800006866455 3.569999933242798,13.331000328063965 3.4539999961853027,13.612000465393066 C3.0840001106262207,14.501999855041504 2.5309998989105225,15.635000228881836 2.7869999408721924,16.677000045776367 C2.806999921798706,16.76099967956543 2.8570001125335693,16.826000213623047 2.9179999828338623,16.860000610351562 C2.7760000228881836,16.871999740600586 2.635999917984009,16.886999130249023 2.494999885559082,16.895999908447266 C1.8619999885559082,16.934999465942383 1.2369999885559082,16.93400001525879 0.6100000143051147,16.966999053955078 C0.609000027179718,16.96500015258789 0.6100000143051147,16.96299934387207 0.609000027179718,16.961000442504883 C0.5870000123977661,16.79199981689453 0.5230000019073486,16.660999298095703 0.5170000195503235,16.482999801635742 C0.5080000162124634,16.211000442504883 0.5730000138282776,15.92199993133545 0.6290000081062317,15.661999702453613 C0.7269999980926514,15.204000473022461 0.8759999871253967,14.765999794006348 0.9700000286102295,14.307000160217285 C1.0190000534057617,14.071999549865723 0.7350000143051147,13.973999977111816 0.6819999814033508,14.206999778747559 C0.5299999713897705,14.868000030517578 0.26600000262260437,15.486000061035156 0.17399999499320984,16.170000076293945 C0.15000000596046448,16.347000122070312 0.14399999380111694,16.763999938964844 0.24799999594688416,16.98900032043457 C0.0949999988079071,17.000999450683594 -0.05700000002980232,17.014999389648438 -0.20900000631809235,17.033000946044922 C-0.3630000054836273,17.052000045776367 -5.447000026702881,16.722999572753906 -6.513999938964844,15.72599983215332 C-6.525000095367432,15.722000122070312 -6.535999774932861,15.718999862670898 -6.546999931335449,15.715999603271484 C-6.541999816894531,15.619999885559082 -6.557000160217285,15.284000396728516 -6.544000148773193,15.194000244140625 C-6.485000133514404,14.800000190734863 -6.383999824523926,14.42300033569336 -6.2779998779296875,14.045999526977539 C-6.2220001220703125,13.850000381469727 -6.479000091552734,13.708999633789062 -6.546999931335449,13.902999877929688 C-6.689000129699707,14.305000305175781 -6.840000152587891,14.708000183105469 -6.941999912261963,15.130000114440918 C-6.958000183105469,15.20300006866455 -6.978000164031982,15.279000282287598 -6.99399995803833,15.357000350952148 C-7.181000232696533,15.307000160217285 -7.366000175476074,15.258000373840332 -7.552000045776367,15.211000442504883 C-7.553999900817871,15.187999725341797 -7.554999828338623,15.164999961853027 -7.553999900817871,15.142000198364258 C-7.546000003814697,14.918999671936035 -7.454999923706055,14.678999900817871 -7.390999794006348,14.475000381469727 C-7.2789998054504395,14.116000175476074 -7.1020002365112305,13.73799991607666 -7.091000080108643,13.345000267028809 C-7.081999778747559,13.086000442504883 -7.388000011444092,13.093999862670898 -7.406000137329102,13.345000267028809 C-7.419000148773193,13.531000137329102 -7.861000061035156,14.461000442504883 -7.974999904632568,15.104000091552734 C-8.279000282287598,15.027000427246094 -8.581999778747559,14.947999954223633 -8.88599967956543,14.86400032043457 C-8.77299976348877,14.222000122070312 -8.395999908447266,13.574000358581543 -8.218999862670898,13.01200008392334 C-8.147000312805176,12.782999992370605 -8.456000328063965,12.616999626159668 -8.536999702453613,12.843000411987305 C-8.720999717712402,13.357999801635742 -9.157999992370605,14.062000274658203 -9.322999954223633,14.737000465393066 C-9.593000411987305,14.656000137329102 -9.861000061035156,14.567999839782715 -10.128999710083008,14.468000411987305 C-9.984999656677246,13.565999984741211 -9.708000183105469,12.71500015258789 -9.456999778747559,11.840999603271484 C-9.378000259399414,11.565999984741211 -9.715999603271484,11.460000038146973 -9.800999641418457,11.722000122070312 C-10.069999694824219,12.553999900817871 -10.418999671936035,13.39799976348877 -10.590999603271484,14.282999992370605 C-10.781999588012695,14.201000213623047 -10.972000122070312,14.112000465393066 -11.16100025177002,14.015999794006348 C-11.220999717712402,13.984999656677246 -11.279999732971191,13.95199966430664 -11.33899974822998,13.920000076293945 C-11.32800006866455,13.86400032043457 -11.3149995803833,13.809000015258789 -11.305000305175781,13.765999794006348 C-11.258000373840332,13.564000129699707 -11.196999549865723,13.413000106811523 -11.159000396728516,13.206000328063965 C-11.008000373840332,12.371000289916992 -10.70300006866455,11.609999656677246 -10.51200008392334,10.791000366210938 C-10.454000473022461,10.545000076293945 -10.753999710083008,10.444000244140625 -10.815999984741211,10.685999870300293 C-10.991999626159668,11.368000030517578 -11.282999992370605,11.987000465393066 -11.468000411987305,12.663000106811523 C-11.527999877929688,12.883999824523926 -11.557000160217285,13.097000122070312 -11.619000434875488,13.302000045776367 C-11.659000396728516,13.4350004196167 -11.706000328063965,13.559000015258789 -11.741000175476074,13.692999839782715 C-11.96500015258789,13.559000015258789 -12.185999870300293,13.416000366210938 -12.402000427246094,13.265000343322754 C-12.388999938964844,13.03600025177002 -12.3100004196167,12.454999923706055 -12.295999526977539,12.373000144958496 C-12.149999618530273,11.54699993133545 -11.932000160217285,10.706000328063965 -11.651000022888184,9.937999725341797 C-11.557000160217285,9.682999610900879 -11.85200023651123,9.456999778747559 -11.954999923706055,9.71399974822998 C-12.342000007629395,10.6899995803833 -12.72700023651123,11.833000183105469 -12.798999786376953,12.930999755859375 C-12.798999786376953,12.944000244140625 -12.800000190734863,12.958000183105469 -12.800999641418457,12.972000122070312 C-12.979999542236328,12.833000183105469 -13.156000137329102,12.689000129699707 -13.32800006866455,12.538000106811523 C-13.319999694824219,12.52299976348877 -13.312000274658203,12.505000114440918 -13.307000160217285,12.486000061035156 C-13.131999969482422,11.79800033569336 -13.111000061035156,11.060999870300293 -12.92199993133545,10.36299991607666 C-12.737000465393066,9.680999755859375 -12.520999908447266,9.015000343322754 -12.373000144958496,8.315999984741211 C-12.319999694824219,8.0649995803833 -12.619999885559082,7.961999893188477 -12.680999755859375,8.208999633789062 C-12.868000030517578,8.967000007629395 -13.13599967956543,9.680999755859375 -13.354000091552734,10.423999786376953 C-13.515000343322754,10.975000381469727 -13.70199966430664,11.645999908447266 -13.645999908447266,12.25100040435791 C-13.935999870300293,11.97700023651123 -14.215999603271484,11.684000015258789 -14.484000205993652,11.371999740600586 C-14.46399974822998,11.33899974822998 -14.449999809265137,11.300999641418457 -14.447999954223633,11.260000228881836 C-14.416000366210938,10.522000312805176 -14.225000381469727,9.883000373840332 -14.128999710083008,9.15999984741211 C-14.026000022888184,8.395000457763672 -13.913999557495117,7.40500020980835 -13.442999839782715,6.849999904632568 C-13.281999588012695,6.659999847412109 -13.519000053405762,6.367000102996826 -13.682000160217285,6.546999931335449 C-14.25,7.171999931335449 -14.409000396728516,8.284000396728516 -14.545000076293945,9.168999671936035 C-14.612000465393066,9.602999687194824 -14.916000366210938,10.317000389099121 -14.897000312805176,10.864999771118164 C-14.918000221252441,10.838000297546387 -14.937999725341797,10.812000274658203 -14.958999633789062,10.784000396728516 C-15.16100025177002,10.519000053405762 -15.354999542236328,10.243000030517578 -15.543999671936035,9.958999633789062 C-15.54699993133545,9.50100040435791 -15.428000450134277,9.060999870300293 -15.300999641418457,8.631999969482422 C-14.991000175476074,7.5929999351501465 -14.592000007629395,6.586999893188477 -14.149999618530273,5.626999855041504 C-14.045999526977539,5.4029998779296875 -14.317000389099121,5.203999996185303 -14.425000190734863,5.423999786376953 C-14.583000183105469,5.749000072479248 -15.612000465393066,7.991000175476074 -15.907999992370605,9.383000373840332 C-16.090999603271484,9.081000328063965 -16.264999389648438,8.770999908447266 -16.43199920654297,8.45300006866455 C-16.433000564575195,8.265000343322754 -16.445999145507812,8.071999549865723 -16.408000946044922,7.877999782562256 C-16.336000442504883,7.5 -16.2189998626709,7.0920000076293945 -16.091999053955078,6.73799991607666 C-15.74899959564209,5.788000106811523 -15.342000007629395,4.869999885559082 -14.980999946594238,3.930999994277954 C-14.895000457763672,3.7060000896453857 -15.156000137329102,3.507999897003174 -15.25,3.7330000400543213 C-15.399999618530273,4.0920000076293945 -16.509000778198242,6.241000175476074 -16.82200050354004,7.663000106811523 C-16.972000122070312,7.3429999351501465 -17.111000061035156,7.015999794006348 -17.243000030517578,6.684000015258789 C-17.19700050354004,6.419000148773193 -17.163000106811523,6.151000022888184 -17.084999084472656,5.894000053405762 C-16.974000930786133,5.5289998054504395 -16.8439998626709,5.171999931335449 -16.729000091552734,4.809999942779541 C-16.45599937438965,3.9489998817443848 -16.121999740600586,3.131999969482422 -15.71500015258789,2.3610000610351562 C-15.609000205993652,2.1610000133514404 -15.857999801635742,1.9880000352859497 -15.96500015258789,2.174999952316284 C-16.433000564575195,2.9800000190734863 -16.81399917602539,3.8410000801086426 -17.132999420166016,4.752999782562256 C-17.25,5.086999893188477 -17.417999267578125,5.48199987411499 -17.538000106811523,5.88700008392334 C-17.6299991607666,5.619999885559082 -17.715999603271484,5.3520002365112305 -17.795000076293945,5.079999923706055 C-17.7450008392334,4.821000099182129 -17.739999771118164,4.543000221252441 -17.690000534057617,4.28000020980835 C-17.5939998626709,3.7639999389648438 -17.445999145507812,3.2660000324249268 -17.277999877929688,2.7799999713897705 C-16.996999740600586,1.972000002861023 -16.68400001525879,1.1820000410079956 -16.42799949645996,0.3610000014305115 C-16.3700008392334,0.17399999499320984 -16.618999481201172,0.03999999910593033 -16.687000274658203,0.22300000488758087 C-17.027999877929688,1.1510000228881836 -17.454999923706055,2.0230000019073486 -17.770000457763672,2.9660000801086426 C-17.860000610351562,3.234999895095825 -17.988000869750977,3.5959999561309814 -18.083999633789062,3.9760000705718994 C-18.142000198364258,3.7230000495910645 -18.194000244140625,3.4679999351501465 -18.242000579833984,3.2119998931884766 C-18.124000549316406,2.927999973297119 -18.106000900268555,2.568000078201294 -18.017000198364258,2.2669999599456787 C-17.874000549316406,1.7829999923706055 -17.680999755859375,1.3270000219345093 -17.496999740600586,0.8679999709129333 C-17.176000595092773,0.07000000029802322 -16.902000427246094,-0.7369999885559082 -16.860000610351562,-1.6410000324249268 C-16.85099983215332,-1.8079999685287476 -17.072999954223633,-1.850000023841858 -17.0939998626709,-1.680999994277954 C-17.222000122070312,-0.6510000228881836 -17.690000534057617,0.2460000067949295 -18.059999465942383,1.159999966621399 C-18.15399932861328,1.3899999856948853 -18.299999237060547,1.7100000381469727 -18.416000366210938,2.046999931335449 C-18.475000381469727,1.5440000295639038 -18.51300048828125,1.0369999408721924 -18.525999069213867,0.5289999842643738 C-18.48200035095215,0.4490000009536743 -18.440000534057617,0.37599998712539673 -18.415000915527344,0.32199999690055847 C-18.4060001373291,0.3019999861717224 -18.43000030517578,0.28600001335144043 -18.440000534057617,0.30399999022483826 C-18.466999053955078,0.35199999809265137 -18.496999740600586,0.3970000147819519 -18.527000427246094,0.4410000145435333 C-18.52899932861328,0.37700000405311584 -18.530000686645508,0.31200000643730164 -18.530000686645508,0.24699999392032623 C-18.527000427246094,0.23600000143051147 -18.524999618530273,0.22300000488758087 -18.52199935913086,0.21199999749660492 C-18.402999877929688,-0.21699999272823334 -18.236000061035156,-0.6230000257492065 -18.09000015258789,-1.0369999408721924 C-17.871999740600586,-1.659999966621399 -17.56399917602539,-2.240000009536743 -17.61199951171875,-2.944999933242798 C-17.6200008392334,-3.065000057220459 -17.767000198364258,-3.109999895095825 -17.791000366210938,-2.9749999046325684 C-17.92099952697754,-2.252000093460083 -18.23200035095215,-1.5740000009536743 -18.499000549316406,-0.9039999842643738 C-18.097000122070312,-7.104000091552734 -14.006999969482422,-11.375 -9.694000244140625,-13.793999671936035 C-3.8529999256134033,-17.070999145507812 3.1480000019073486,-17.871999740600586 9.024999618530273,-14.33899974822998 C14.376999855041504,-11.121999740600586 19.56800079345703,-4.093999862670898 17.572999954223633,3.9019999504089355z M18.486000061035156,-4.860000133514404 C17.21500015258789,-8.652000427246094 14.852999687194824,-11.711000442504883 12.154000282287598,-13.970999717712402 C9.128000259399414,-16.503000259399414 5.5920000076293945,-17.950000762939453 1.9700000286102295,-18.23699951171875 C-1.555999994277954,-18.516000747680664 -5.159999847412109,-17.6200008392334 -8.46399974822998,-16.097000122070312 C-13.475000381469727,-13.786999702453613 -18.764999389648438,-9.399999618530273 -19.687000274658203,-2.2780001163482666 C-20.2189998626709,1.8259999752044678 -19.291000366210938,6.044000148773193 -17.35300064086914,9.38599967956543 C-15.682999610900879,12.265999794006348 -13.402000427246094,14.329000473022461 -10.763999938964844,15.46500015258789 C-10.70300006866455,15.571999549865723 -10.586999893188477,15.61400032043457 -10.48900032043457,15.579000473022461 C-10.105999946594238,15.734000205993652 -6.236999988555908,17.608999252319336 -5.840000152587891,17.722999572753906 C-5.679999828338623,17.770000457763672 -5.520999908447266,17.80900001525879 -5.36299991607666,17.844999313354492 C-5.34499979019165,17.891000747680664 -1.5479999780654907,18.344999313354492 -0.08500000089406967,18.344999313354492 C1.9700000286102295,18.516000747680664 3.615999937057495,18.516000747680664 5.276000022888184,18.139999389648438 C7.004000186920166,17.74799919128418 8.673999786376953,16.917999267578125 10.239999771118164,15.932999610900879 C13.298999786376953,14.006999969482422 16.12299919128418,11.152999877929688 17.80299949645996,7.359000205993652 C19.486000061035156,3.565999984741211 19.836000442504883,-0.828000009059906 18.486000061035156,-4.860000133514404z M2.5209999084472656,14.017999649047852 C2.2960000038146973,14.472999572753906 2.1419999599456787,14.947999954223633 2.0260000228881836,15.442999839782715 C1.9579999446868896,15.734000205993652 1.8250000476837158,16.090999603271484 1.8329999446868896,16.389999389648438 C1.8339999914169312,16.47100067138672 1.8760000467300415,16.55699920654297 1.9500000476837158,16.59600067138672 C2.0160000324249268,16.628999710083008 2.053999900817871,16.65399932861328 2.131999969482422,16.6560001373291 C2.2009999752044678,16.658000946044922 2.2769999504089355,16.604000091552734 2.2929999828338623,16.533000946044922 C2.2960000038146973,16.520999908447266 2.2960000038146973,16.485000610351562 2.2909998893737793,16.44700050354004 C2.296999931335449,16.430999755859375 2.302999973297119,16.410999298095703 2.311000108718872,16.386999130249023 C2.3399999141693115,16.29800033569336 2.3499999046325684,16.19300079345703 2.371999979019165,16.100000381469727 C2.510999917984009,15.463000297546387 2.617000102996826,14.833999633789062 2.8940000534057617,14.236000061035156 C3.009999990463257,13.987000465393066 2.6449999809265137,13.765999794006348 2.5209999084472656,14.017999649047852z M-0.5889999866485596,13.949999809265137 C-0.746999979019165,14.4399995803833 -0.9599999785423279,14.90999984741211 -1.1139999628067017,15.401000022888184 C-1.2230000495910645,15.746999740600586 -1.3969999551773071,16.207000732421875 -1.1779999732971191,16.531999588012695 C-1.1239999532699585,16.61199951171875 -1.0260000228881836,16.606000900268555 -0.972000002861023,16.531999588012695 C-0.7400000095367432,16.222999572753906 -0.7850000262260437,15.734000205993652 -0.6740000247955322,15.361000061035156 C-0.5440000295639038,14.918999671936035 -0.3779999911785126,14.487000465393066 -0.25600001215934753,14.041999816894531 C-0.19599999487400055,13.826000213623047 -0.5220000147819519,13.73900032043457 -0.5889999866485596,13.949999809265137z M-2.0969998836517334,14.798999786376953 C-2.4110000133514404,15.119999885559082 -2.5329999923706055,15.581000328063965 -2.553999900817871,16.018999099731445 C-2.563999891281128,16.243999481201172 -2.2149999141693115,16.243000030517578 -2.203000068664551,16.018999099731445 C-2.184000015258789,15.678999900817871 -2.1089999675750732,15.281000137329102 -1.878000020980835,15.019000053405762 C-1.746000051498413,14.869000434875488 -1.9559999704360962,14.654000282287598 -2.0969998836517334,14.798999786376953z"></path></g><g opacity="1" transform="matrix(1,0,0,1,19.816999435424805,22.631999969482422)"><path fill="rgb(9,9,9)" fill-opacity="1" d=" M-3.006999969482422,-5.892000198364258 C-2.1740000247955322,-6.89300012588501 -0.6539999842643738,-6.931000232696533 0.5320000052452087,-6.760000228881836 C1.8650000095367432,-6.567999839782715 2.8499999046325684,-5.978000164031982 3.240999937057495,-4.625999927520752 C3.621999979019165,-3.309999942779541 3.490000009536743,-1.8259999752044678 3.556999921798706,-0.4729999899864197 C3.631999969482422,0.9980000257492065 3.9809999465942383,2.5759999752044678 3.763000011444092,4.043000221252441 C3.565000057220459,5.381999969482422 2.565999984741211,6.176000118255615 1.3200000524520874,6.547999858856201 C0.21199999749660492,6.879000186920166 -1.2589999437332153,6.931000232696533 -2.11899995803833,6.025000095367432 C-3.1389999389648438,4.948999881744385 -2.9000000953674316,3.0230000019073486 -2.940999984741211,1.6660000085830688 C-2.947999954223633,1.4110000133514404 -2.9609999656677246,1.156999945640564 -2.9769999980926514,0.9039999842643738 C-3.072000026702881,0.10300000011920929 -3.1440000534057617,-0.699999988079071 -3.2290000915527344,-1.5010000467300415 C-3.371999979019165,-2.8510000705718994 -3.9809999465942383,-4.7210001945495605 -3.006999969482422,-5.892000198364258z M2.13100004196167,-0.1340000033378601 C1.4270000457763672,0.7829999923706055 0.8370000123977661,1.7829999923706055 0.2840000092983246,2.7990000247955322 C-0.1340000033378601,3.563999891281128 -0.6200000047683716,4.355999946594238 -0.6800000071525574,5.23199987411499 C-0.6830000281333923,5.263999938964844 -0.6919999718666077,5.291999816894531 -0.703000009059906,5.318999767303467 C-0.4490000009536743,5.395999908447266 -0.15700000524520874,5.4039998054504395 0.13699999451637268,5.366000175476074 C0.13699999451637268,5.363999843597412 0.13500000536441803,5.361999988555908 0.13500000536441803,5.359000205993652 C0.014000000432133675,4.749000072479248 0.4169999957084656,4.070000171661377 0.7089999914169312,3.549999952316284 C1.1059999465942383,2.8440001010894775 1.5920000076293945,2.190999984741211 2.0840001106262207,1.5490000247955322 C2.122999906539917,1.496999979019165 2.174999952316284,1.4700000286102295 2.2279999256134033,1.4609999656677246 C2.190999984741211,0.9300000071525574 2.1579999923706055,0.39899998903274536 2.13100004196167,-0.1340000033378601z M2.2709999084472656,2.0350000858306885 C1.9290000200271606,2.513000011444092 1.6019999980926514,2.999000072479248 1.3179999589920044,3.515000104904175 C1.0180000066757202,4.060999870300293 0.8870000243186951,4.76800012588501 0.5540000200271606,5.2870001792907715 C0.9039999842643738,5.199999809265137 1.2309999465942383,5.068999767303467 1.472000002861023,4.936999797821045 C2.437999963760376,4.408999919891357 2.380000114440918,3.444999933242798 2.303999900817871,2.4649999141693115 C2.2929999828338623,2.322000026702881 2.2820000648498535,2.178999900817871 2.2709999084472656,2.0350000858306885z M2.068000078201294,-2.809999942779541 C1.527999997138977,-1.7200000286102295 0.8479999899864197,-0.7059999704360962 0.3199999928474426,0.3919999897480011 C0.006000000052154064,1.0449999570846558 -0.35899999737739563,1.6510000228881836 -0.6990000009536743,2.2909998893737793 C-0.9710000157356262,2.8010001182556152 -1.097000002861023,3.4679999351501465 -1.4880000352859497,3.8980000019073486 C-1.5089999437332153,3.921999931335449 -1.534000039100647,3.936000108718872 -1.562000036239624,3.947000026702881 C-1.5299999713897705,4.309000015258789 -1.4589999914169312,4.677000045776367 -1.2619999647140503,4.943999767303467 C-1.277999997138977,4.315999984741211 -0.6890000104904175,3.424999952316284 -0.4690000116825104,3.0169999599456787 C0.2540000081062317,1.6759999990463257 1.1019999980926514,0.36399999260902405 2.0989999771118164,-0.7940000295639038 C2.0889999866485596,-1.0729999542236328 2.0789999961853027,-1.3519999980926514 2.072999954223633,-1.6319999694824219 C2.065000057220459,-2.000999927520752 2.0769999027252197,-2.4040000438690186 2.068000078201294,-2.809999942779541z M0.9200000166893005,-5.290999889373779 C0.4569999873638153,-4.349999904632568 -0.032999999821186066,-3.4210000038146973 -0.4440000057220459,-2.4579999446868896 C-0.6840000152587891,-1.8949999809265137 -0.9670000076293945,-1.3539999723434448 -1.1959999799728394,-0.7860000133514404 C-1.371000051498413,-0.34599998593330383 -1.5019999742507935,0.13600000739097595 -1.7400000095367432,0.5490000247955322 C-1.7400000095367432,0.5490000247955322 -1.718999981880188,0.7910000085830688 -1.718999981880188,0.7910000085830688 C-1.6740000247955322,1.4670000076293945 -1.6549999713897705,2.1449999809265137 -1.6230000257492065,2.822000026702881 C-1.534000039100647,2.617000102996826 -1.430999994277954,2.4179999828338623 -1.3309999704360962,2.2260000705718994 C-1.437999963760376,2.252000093460083 -1.559000015258789,2.181999921798706 -1.565999984741211,2.0510001182556152 C-1.5959999561309814,1.4049999713897705 -1.2389999628067017,0.7210000157356262 -1.0080000162124634,0.13099999725818634 C-0.7739999890327454,-0.46399998664855957 -0.5600000023841858,-1.0740000009536743 -0.26899999380111694,-1.6430000066757202 C0.28600001335144043,-2.7300000190734863 0.8809999823570251,-3.8010001182556152 1.6449999809265137,-4.754000186920166 C1.472000002861023,-5.001999855041504 1.215000033378601,-5.173999786376953 0.9200000166893005,-5.290999889373779z M1.812000036239624,-4.427999973297119 C1.2209999561309814,-3.4830000400543213 0.7020000219345093,-2.496999979019165 0.21899999678134918,-1.4910000562667847 C-0.08900000154972076,-0.8489999771118164 -0.3370000123977661,-0.17599999904632568 -0.5879999995231628,0.4909999966621399 C-0.7020000219345093,0.7960000038146973 -0.7910000085830688,1.128000020980835 -0.9020000100135803,1.4470000267028809 C-0.6629999876022339,1.0399999618530273 -0.4189999997615814,0.6389999985694885 -0.20900000631809235,0.21400000154972076 C0.4320000112056732,-1.0820000171661377 1.3279999494552612,-2.2279999256134033 1.975000023841858,-3.5199999809265137 C1.9869999885559082,-3.5439999103546143 2.002000093460083,-3.562000036239624 2.0169999599456787,-3.5769999027252197 C1.9789999723434448,-3.874000072479248 1.9179999828338623,-4.1620001792907715 1.812000036239624,-4.427999973297119z M-0.1120000034570694,-5.511000156402588 C-0.5770000219345093,-4.824999809265137 -0.8050000071525574,-3.8940000534057617 -1.1319999694824219,-3.1730000972747803 C-1.2960000038146973,-2.811000108718872 -1.4570000171661377,-2.444000005722046 -1.593999981880188,-2.071000099182129 C-1.6369999647140503,-1.9509999752044678 -1.6619999408721924,-1.7719999551773071 -1.7309999465942383,-1.6670000553131104 C-1.75,-1.6390000581741333 -1.75600004196167,-1.5850000381469727 -1.7860000133514404,-1.565000057220459 C-1.7910000085830688,-1.5470000505447388 -1.7999999523162842,-1.5290000438690186 -1.815999984741211,-1.5130000114440918 C-1.8849999904632568,-1.4479999542236328 -1.9529999494552612,-1.4490000009536743 -2.01200008392334,-1.4800000190734863 C-2.000999927520752,-1.38100004196167 -1.9889999628067017,-1.2799999713897705 -1.9789999723434448,-1.1799999475479126 C-1.940999984741211,-0.9850000143051147 -1.909000039100647,-0.7900000214576721 -1.878999948501587,-0.5950000286102295 C-1.5870000123977661,-1.309000015258789 -1.1979999542236328,-2.002000093460083 -0.8899999856948853,-2.680000066757202 C-0.4650000035762787,-3.61899995803833 0.057999998331069946,-4.507999897003174 0.5669999718666077,-5.4039998054504395 C0.3440000116825104,-5.459000110626221 0.11299999803304672,-5.493000030517578 -0.1120000034570694,-5.511000156402588z M-0.5920000076293945,-5.5320000648498535 C-0.5920000076293945,-5.5320000648498535 -0.7559999823570251,-5.531000137329102 -0.7559999823570251,-5.531000137329102 C-1.2359999418258667,-5.52400016784668 -1.8279999494552612,-5.447000026702881 -2.1059999465942383,-5 C-2.3519999980926514,-4.605000019073486 -2.2869999408721924,-4.039999961853027 -2.243000030517578,-3.6019999980926514 C-2.193000078201294,-3.121999979019165 -2.1389999389648438,-2.6419999599456787 -2.0859999656677246,-2.1640000343322754 C-1.9859999418258667,-2.433000087738037 -1.819000005722046,-2.7139999866485596 -1.7350000143051147,-2.8970000743865967 C-1.3480000495910645,-3.753000020980835 -0.9980000257492065,-4.752999782562256 -0.4189999997615814,-5.5289998054504395 C-0.5370000004768372,-5.5320000648498535 -0.6499999761581421,-5.5320000648498535 -0.7559999823570251,-5.531000137329102 C-0.7559999823570251,-5.531000137329102 -0.5920000076293945,-5.5320000648498535 -0.5920000076293945,-5.5320000648498535z"></path></g><g opacity="1" transform="matrix(1,0,0,1,19.79199981689453,10.927000045776367)"><path fill="rgb(9,9,9)" fill-opacity="1" d=" M-0.6690000295639038,-3.5959999561309814 C1.0989999771118164,-3.6760001182556152 2.888000011444092,-2.2860000133514404 3.3289999961853027,-0.5910000205039978 C3.86299991607666,1.4639999866485596 2.0169999599456787,3.6760001182556152 -0.08699999749660492,3.5850000381469727 C-1.9420000314712524,3.50600004196167 -3.6059999465942383,2.2149999141693115 -3.811000108718872,0.30799999833106995 C-3.86299991607666,-0.18199999630451202 -3.7699999809265137,-0.6769999861717224 -3.568000078201294,-1.1260000467300415 C-3.5169999599456787,-1.3609999418258667 -3.434000015258789,-1.5980000495910645 -3.305000066757202,-1.840999960899353 C-2.7829999923706055,-2.816999912261963 -1.7910000085830688,-3.546999931335449 -0.6690000295639038,-3.5959999561309814z M0.7960000038146973,-1.5789999961853027 C0.45399999618530273,-0.9879999756813049 0.11299999803304672,-0.39800000190734863 -0.19499999284744263,0.210999995470047 C-0.3880000114440918,0.5929999947547913 -0.5659999847412109,0.9829999804496765 -0.6930000185966492,1.3910000324249268 C-0.7580000162124634,1.597000002861023 -0.7829999923706055,1.809999942779541 -0.8569999933242798,2.003999948501587 C-0.6930000185966492,2.0460000038146973 -0.5249999761581421,2.072000026702881 -0.3569999933242798,2.0789999961853027 C-0.3089999854564667,1.6710000038146973 -0.0949999988079071,1.2280000448226929 0.041999999433755875,0.9160000085830688 C0.3269999921321869,0.2639999985694885 0.7099999785423279,-0.3720000088214874 1.2580000162124634,-0.8349999785423279 C1.4320000410079956,-0.9819999933242798 1.6799999475479126,-0.7429999709129333 1.5119999647140503,-0.5830000042915344 C1.003000020980835,-0.10300000011920929 0.6840000152587891,0.5379999876022339 0.4359999895095825,1.184000015258789 C0.3409999907016754,1.4329999685287476 0.2879999876022339,1.7450000047683716 0.20399999618530273,2.0350000858306885 C0.8450000286102295,1.906000018119812 1.4199999570846558,1.4980000257492065 1.7100000381469727,0.7950000166893005 C2.0880000591278076,-0.1120000034570694 1.5709999799728394,-1.0390000343322754 0.7960000038146973,-1.5789999961853027z M-0.3199999928474426,-2.0309998989105225 C-0.5619999766349792,-1.3209999799728394 -1.0219999551773071,-0.6190000176429749 -1.3569999933242798,0.007000000216066837 C-1.4759999513626099,0.23000000417232513 -1.6100000143051147,0.4410000145435333 -1.7170000076293945,0.671999990940094 C-1.8509999513626099,0.9570000171661377 -1.8040000200271606,1.1920000314712524 -1.878000020980835,1.4570000171661377 C-1.6970000267028809,1.621000051498413 -1.4950000047683716,1.753000020980835 -1.281000018119812,1.8519999980926514 C-1.2740000486373901,1.3259999752044678 -0.9079999923706055,0.6919999718666077 -0.7020000219345093,0.2800000011920929 C-0.34700000286102295,-0.42899999022483826 0.10400000214576721,-1.0789999961853027 0.5509999990463257,-1.7319999933242798 C0.27399998903274536,-1.8849999904632568 -0.024000000208616257,-1.9900000095367432 -0.3199999928474426,-2.0309998989105225z M-0.628000020980835,-2.0490000247955322 C-1.3830000162124634,-2.0260000228881836 -2.000999927520752,-1.4709999561309814 -2.2709999084472656,-0.7749999761581421 C-2.427999973297119,-0.36500000953674316 -2.4570000171661377,0.06300000101327896 -2.505000114440918,0.48899999260902405 C-2.4539999961853027,0.6510000228881836 -2.38100004196167,0.8059999942779541 -2.2939999103546143,0.9539999961853027 C-2.2860000133514404,0.906000018119812 -2.2780001163482666,0.8619999885559082 -2.2639999389648438,0.828000009059906 C-2.0929999351501465,0.3880000114440918 -1.8370000123977661,-0.007000000216066837 -1.6169999837875366,-0.42399999499320984 C-1.3270000219345093,-0.9710000157356262 -0.906000018119812,-1.4850000143051147 -0.628000020980835,-2.0490000247955322z"></path></g></g></g></svg>