<svg xmlns="http://www.w3.org/2000/svg" width="40" height="40" viewBox="0 0 40 40">
    <g fill="none" fill-rule="evenodd">
        <g>
            <g>
                <path d="M0 0H40V40H0z" transform="translate(-46 -814) translate(46 814)"/>
                <g fill="#0A0A0A">
                    <path d="M37.408 22.19c-.618 2.48-1.782 4.625-3.238 6.419.054-.18.113-.358.177-.533.078-.211-.163-.397-.25-.185-.146.354-.356.858-.478 1.366-.378.424-.773.825-1.178 1.205.07-.425.195-.834.316-1.24.078-.261-.274-.452-.362-.192-.194.573-.446 1.247-.481 1.907-.109.094-.217.186-.326.277-.353.294-.714.573-1.08.838.027-.212.071-.422.115-.627.102-.483.239-.95.357-1.427.07-.282-.267-.388-.348-.12-.21.703-.482 1.398-.579 2.145-.013.11-.026.24-.023.366-.348.238-.702.461-1.06.672l-.001-.014c-.024-.272.01-.56.057-.823.095-.535.282-1.037.496-1.512.123-.272-.203-.512-.33-.244-.38.798-.79 1.853-.666 2.814 0 .01.003.018.005.027-.386.213-.777.409-1.172.588-.003-.052-.005-.103-.004-.153.008-.343.07-.683.133-1.016.107-.57.248-1.128.387-1.687.072-.283-.272-.396-.35-.121-.226.794-.48 1.596-.602 2.429-.032.215-.082.518-.011.742-.292.121-.585.235-.881.338-.032-.068-.105-.092-.169-.029-.085.085-.023.087-.065-.086-.02-.085-.026-.193-.027-.282-.002-.29.053-.603.089-.889.073-.585.176-1.16.451-1.652.141-.252-.182-.477-.325-.239-.26.436-.398.955-.503 1.48-.096.486-.223 1.034-.188 1.538.008.11.022.247.05.378-.306.09-.613.167-.924.235.068-.075.127-.19.167-.35.027-.11-.072-.189-.145-.141-.132.084-.128.107-.123-.116.002-.095.02-.18.036-.273.041-.242.1-.481.156-.718.11-.449.237-.89.37-1.329.089-.29-.275-.405-.366-.127-.15.46-.297.922-.43 1.39-.106.368-.262.792-.235 1.191.02.286.119.47.24.544-.378.074-.758.134-1.142.176.113-.087.137-.152.196-.296.026-.064.017-.168-.043-.202-.027-.015-.05-.025-.069-.031-.043-.88.292-1.674.592-2.455.108-.28-.218-.527-.335-.246-.37.89-.923 2.022-.667 3.064.02.084.07.15.13.183-.14.013-.28.027-.422.036-.632.04-1.258.038-1.885.07v-.004c-.023-.17-.087-.3-.093-.479-.008-.271.057-.56.112-.82.098-.458.247-.897.341-1.356.049-.235-.235-.333-.287-.1-.153.662-.417 1.279-.509 1.963-.024.177-.03.594.074.82-.152.012-.305.025-.457.044-.154.018-5.237-.31-6.305-1.308l-.033-.01c.005-.096-.01-.43.003-.522.06-.394.16-.77.266-1.148.056-.196-.2-.336-.269-.143-.142.402-.293.806-.394 1.228-.017.073-.037.149-.053.226l-.557-.146c-.002-.023-.003-.046-.002-.07.007-.222.098-.462.162-.666.112-.358.29-.736.3-1.13.009-.258-.297-.25-.314 0-.014.187-.456 1.117-.57 1.759-.304-.077-.607-.155-.91-.239.112-.643.49-1.29.666-1.852.073-.23-.237-.395-.318-.17-.184.515-.62 1.22-.785 1.895-.27-.081-.539-.17-.807-.27.144-.902.422-1.752.672-2.627.079-.275-.259-.38-.344-.12-.269.834-.617 1.677-.79 2.563-.19-.082-.38-.17-.57-.268l-.178-.095c.01-.056.024-.112.034-.155.047-.201.108-.352.146-.56.151-.834.456-1.596.647-2.414.058-.247-.242-.348-.304-.106-.176.682-.467 1.302-.651 1.978-.06.22-.09.433-.152.639-.04.132-.087.256-.121.39-.225-.133-.446-.276-.662-.428.014-.228.092-.81.107-.891.146-.827.363-1.668.645-2.436.093-.255-.202-.48-.305-.223-.387.975-.772 2.119-.843 3.216l-.002.041c-.18-.138-.355-.283-.528-.433.008-.016.016-.033.021-.053.175-.688.196-1.425.385-2.122.186-.683.401-1.35.55-2.048.052-.25-.248-.353-.31-.107-.186.758-.454 1.473-.672 2.215-.16.55-.348 1.222-.292 1.827-.29-.274-.57-.567-.838-.878.02-.033.035-.072.037-.113.03-.737.222-1.377.318-2.1.103-.764.215-1.754.687-2.31.16-.19-.077-.482-.24-.302-.568.625-.726 1.737-.863 2.622-.067.433-.371 1.147-.352 1.696l-.062-.081c-.202-.266-.396-.541-.585-.825-.003-.459.116-.899.244-1.327.31-1.04.709-2.045 1.15-3.005.104-.225-.167-.424-.275-.203-.158.324-1.187 2.566-1.483 3.958-.182-.301-.357-.611-.524-.929 0-.189-.013-.38.024-.575.073-.379.19-.786.317-1.14.342-.95.75-1.868 1.11-2.808.086-.225-.174-.423-.269-.198-.15.36-1.258 2.509-1.572 3.93-.15-.32-.289-.647-.42-.98.045-.263.08-.532.157-.79.11-.363.241-.72.356-1.082.273-.86.607-1.679 1.015-2.45.105-.2-.143-.372-.25-.185-.469.804-.85 1.666-1.169 2.577-.117.335-.285.729-.405 1.134-.091-.266-.177-.535-.257-.807.05-.258.056-.536.106-.799.096-.517.244-1.015.412-1.5.28-.809.593-1.599.85-2.42.057-.186-.192-.32-.26-.137-.341.927-.767 1.8-1.083 2.742-.09.269-.218.63-.314 1.01-.058-.253-.11-.508-.157-.763.117-.284.135-.645.224-.946.143-.483.336-.94.52-1.398.321-.8.595-1.605.638-2.51.008-.166-.214-.209-.234-.04-.129 1.03-.596 1.927-.967 2.842-.093.23-.24.55-.356.887-.06-.504-.096-1.01-.11-1.518.045-.08.086-.154.11-.207.01-.02-.014-.037-.024-.018-.027.047-.057.093-.087.137l-.003-.194.008-.036c.12-.428.286-.835.432-1.25.218-.621.526-1.201.478-1.906-.008-.121-.155-.165-.179-.03-.13.723-.44 1.4-.708 2.07.402-6.2 4.493-10.47 8.805-12.89C15.983 1.217 22.983.415 28.86 3.948c5.352 3.217 10.543 10.246 8.548 18.241zm.913-8.762c-1.27-3.792-3.632-6.851-6.332-9.112C28.963 1.784 25.428.337 21.806.051c-3.527-.28-7.13.616-10.434 2.14C6.36 4.5 1.07 8.886.148 16.01c-.532 4.103.396 8.321 2.334 11.663 1.67 2.88 3.951 4.944 6.59 6.08.06.106.176.15.275.114.382.154 4.251 2.029 4.648 2.144.16.046.319.085.478.12.017.048 3.815.501 5.278.501 2.055.17 3.7.17 5.36-.205 1.728-.391 3.399-1.221 4.964-2.207 3.06-1.925 5.883-4.78 7.564-8.574 1.682-3.793 2.032-8.186.682-12.218zM22.357 32.305c-.226.455-.38.931-.496 1.425-.068.29-.2.648-.193.948.001.08.043.166.117.205.067.034.105.059.182.06.069.003.146-.052.161-.122.003-.013.003-.049-.002-.086l.02-.06c.03-.09.04-.195.06-.287.14-.638.246-1.267.524-1.865.116-.25-.25-.47-.373-.218zm-3.111-.067c-.158.49-.37.96-.524 1.45-.11.347-.284.807-.064 1.132.053.08.15.073.206 0 .232-.31.186-.8.297-1.171.13-.443.296-.874.419-1.32.06-.215-.266-.302-.334-.091zm-1.508.848c-.314.321-.436.782-.456 1.22-.01.226.339.225.35 0 .019-.34.094-.737.325-1 .132-.15-.078-.364-.219-.22z" transform="translate(-46 -814) translate(46 814) translate(0 2)"/>
                    <path d="M16.177 16.261c.833-1 2.353-1.039 3.538-.867 1.333.192 2.32.782 2.71 2.133.38 1.317.249 2.8.316 4.154.075 1.471.424 3.049.207 4.516-.199 1.339-1.198 2.133-2.445 2.505-1.107.33-2.578.383-3.438-.523-1.02-1.076-.781-3.003-.822-4.36-.007-.254-.02-.508-.036-.762-.095-.8-.167-1.604-.252-2.404-.143-1.35-.752-3.221.222-4.392zm5.138 5.759c-.705.917-1.294 1.917-1.847 2.933-.418.764-.904 1.556-.964 2.432-.003.032-.012.06-.024.088.255.076.547.084.842.047-.002-.003-.003-.005-.003-.008-.121-.609.282-1.289.574-1.808.396-.706.883-1.36 1.375-2.001.039-.052.09-.08.144-.088-.037-.532-.07-1.063-.097-1.595zm.14 2.17c-.341.477-.669.963-.953 1.478-.3.546-.432 1.253-.764 1.773.35-.087.677-.219.918-.35.966-.528.908-1.493.832-2.472l-.033-.43zm-.203-4.847c-.54 1.09-1.22 2.105-1.748 3.202-.314.653-.68 1.26-1.02 1.9-.271.51-.398 1.177-.788 1.606-.02.024-.047.039-.074.049.031.363.103.73.3.997-.016-.628.573-1.518.793-1.926.723-1.342 1.57-2.654 2.568-3.81-.01-.28-.02-.56-.026-.84-.008-.368.004-.772-.005-1.178zm-1.148-2.48c-.463.94-.953 1.87-1.364 2.833-.24.563-.523 1.103-.751 1.672-.177.44-.307.922-.546 1.335l.021.242c.046.676.064 1.353.097 2.03.088-.204.191-.403.292-.596-.107.027-.228-.044-.235-.175-.03-.646.326-1.33.558-1.92.234-.594.448-1.205.739-1.774.555-1.087 1.15-2.157 1.914-3.11-.173-.249-.43-.42-.725-.537zm.892.863c-.59.945-1.11 1.93-1.594 2.936-.307.643-.555 1.316-.806 1.983-.114.305-.203.637-.314.956.239-.407.483-.809.693-1.233.641-1.296 1.537-2.442 2.184-3.735.012-.023.026-.041.042-.056-.038-.297-.1-.585-.205-.85zm-1.924-1.084c-.465.686-.693 1.618-1.02 2.338-.164.363-.326.73-.463 1.103-.043.12-.067.299-.137.404-.018.027-.024.082-.054.102-.006.018-.015.036-.03.05-.07.066-.137.066-.196.034l.033.3c.037.195.07.39.1.586.292-.715.68-1.407.989-2.085.425-.94.948-1.828 1.457-2.724-.223-.056-.454-.09-.679-.108zm-.48-.02h-.164c-.48.008-1.072.085-1.35.532-.246.394-.181.96-.137 1.398.05.48.103.959.157 1.437.1-.268.267-.55.35-.733.388-.856.737-1.855 1.317-2.631-.118-.004-.231-.004-.337-.002zM18.49 6.852c1.767-.08 3.556 1.31 3.997 3.005.535 2.056-1.312 4.267-3.416 4.177-1.855-.08-3.518-1.37-3.722-3.278-.053-.49.04-.985.242-1.434.051-.235.135-.472.264-.715.521-.976 1.513-1.705 2.634-1.755zm1.464 2.017c-.342.59-.682 1.181-.99 1.79-.193.382-.37.772-.498 1.18-.065.206-.09.42-.164.613.164.043.33.068.5.075.047-.407.263-.85.4-1.163.284-.651.667-1.287 1.215-1.75.174-.147.421.092.253.251-.508.48-.828 1.121-1.076 1.767-.095.25-.147.562-.23.852.64-.13 1.215-.538 1.506-1.24.377-.908-.141-1.835-.916-2.375zm-1.115-.451c-.241.71-.702 1.41-1.037 2.037-.119.223-.254.435-.361.665-.133.285-.086.52-.16.785.18.164.383.296.597.396.006-.527.373-1.16.579-1.573.355-.708.806-1.359 1.252-2.011-.277-.154-.574-.258-.87-.3zM18.53 8.4c-.755.023-1.373.577-1.643 1.273-.158.41-.186.838-.234 1.264.051.162.123.318.21.466.008-.048.016-.093.03-.126.171-.441.428-.836.648-1.252.29-.548.711-1.061.99-1.625z" transform="translate(-46 -814) translate(46 814) translate(0 2)"/>
                </g>
            </g>
        </g>
    </g>
</svg>
