<?xml version="1.0" encoding="UTF-8"?>
<svg width="32px" height="32px" viewBox="0 0 32 32" version="1.1" xmlns="http://www.w3.org/2000/svg" xmlns:xlink="http://www.w3.org/1999/xlink">
    <!-- Generator: Sketch 62 (91390) - https://sketch.com -->
    <title>32icon-message-black</title>
    <desc>Created with Sketch.</desc>
    <g id="32icon-message-black" stroke="none" stroke-width="1" fill="none" fill-rule="evenodd">
        <g fill="#0A0A0A" id="Fill-35">
            <path d="M23.5621912,13.3305757 C22.8590685,13.3642585 22.165927,13.5225678 21.4616953,13.5573734 C19.7737572,13.6404577 18.0725108,13.6471942 16.3834636,13.6842453 C14.6267659,13.7224192 12.8833765,13.6000383 11.1300058,13.545023 C9.40657883,13.4911305 7.68758798,13.6797543 5.98301447,13.9256389 C5.68579541,13.9683038 5.68468638,14.4915103 5.98301447,14.5341752 C7.59442976,14.765464 9.18366453,14.6015409 10.802843,14.6936073 C12.4974353,14.7901647 14.1765012,14.9967527 15.8777476,14.9832796 C17.4558921,14.9709292 19.0329276,14.8979497 20.6121811,14.8912132 C21.4572592,14.8878449 22.2812658,14.8249703 23.1185807,14.7082032 C23.3093332,14.6812569 23.4978677,14.6565562 23.6919473,14.6520651 C23.761816,14.6509424 23.8350117,14.6588017 23.9059894,14.6543106 C23.9791851,14.6958528 24.0623621,14.7205535 24.143321,14.7205535 C24.4083783,14.7227991 24.5791684,14.6049092 24.7355411,14.3938301 C24.8664062,14.2198022 24.8364625,13.9379893 24.7355411,13.7605931 C24.4948824,13.3350667 23.9947115,13.3092432 23.5621912,13.3305757 Z M23.4934316,8.71602891 C22.7426207,8.75308002 21.9907009,8.80584978 21.23989,8.83728708 C19.5175721,8.91026653 17.7830549,8.96415904 16.0596279,8.96640457 C14.3971974,8.96865009 12.7358759,9.00794671 11.0734454,9.00682395 C9.42765033,9.00682395 7.71087753,8.83055051 6.09280808,9.20555261 C5.79115291,9.27516378 5.79226194,9.75121435 6.09280808,9.82307104 C7.60219295,10.180109 9.20806311,10.1846 10.7518278,10.2295104 C12.3066827,10.2744209 13.8648648,10.283403 15.4208288,10.2856485 C17.0045184,10.287894 18.5837719,10.2149145 20.1674616,10.1868455 C20.9515432,10.1722496 21.7278616,10.132953 22.5097252,10.0914109 C22.7681284,10.0779377 23.8849179,9.91962846 24.056817,10.048746 C24.5769503,10.4394667 25.1636253,9.70069011 24.8930229,9.20218433 C24.6113302,8.68346885 24.0046927,8.69020542 23.4934316,8.71602891 Z M18.8954083,17.4084428 C18.1057816,17.5487879 17.2717937,17.4724402 16.4721857,17.4769312 C15.3110351,17.482545 14.1509936,17.4904044 12.989843,17.5117368 C11.8619632,17.5330693 10.7340834,17.5510334 9.60620357,17.5622611 C8.52822995,17.5712431 7.50459863,17.454476 6.44215138,17.6857647 C6.19816558,17.7385345 6.19816558,18.1315008 6.44215138,18.1842705 C8.6901478,18.6760397 10.9082005,18.7692289 13.201667,18.810771 C14.3539454,18.8321035 15.5062238,18.8377173 16.6585022,18.8433311 C17.5313059,18.8478221 18.3985645,18.8972236 19.261387,18.7535102 C20.1308637,18.6086741 19.767103,17.2546246 18.8954083,17.4084428 Z M30.6111627,12.7703181 C30.5080233,14.6318554 30.6178169,16.4978838 30.4936059,18.3582984 C30.3815943,20.0323348 29.8304082,21.6962662 28.5483737,22.8212725 C27.8652135,23.419704 27.086677,23.8081792 26.2105462,24.0237493 C25.3377424,24.2381966 24.4250137,24.1652172 23.5810447,24.4605032 C23.5233753,24.4807129 23.4745781,24.508782 23.4324351,24.5435875 C23.427999,24.541342 23.4235629,24.536851 23.4180178,24.5346055 C22.9699712,24.334754 22.3500254,24.7782445 22.6771882,25.2846097 C22.5596314,25.1027224 22.670534,25.325029 22.6794062,25.4608831 C22.6893875,25.6191924 22.6849514,25.7786244 22.6794062,25.9369337 C22.670534,26.2367108 22.6594438,26.5297514 22.582921,26.8205464 C22.3411532,27.7445785 21.6435756,28.4822323 20.8994189,29.0323851 C19.6750538,29.9373303 18.2710265,30.5570942 16.7882582,30.7569457 C16.9912101,30.5795495 17.1963799,30.4021533 17.3860235,30.2101612 C17.873995,29.7127781 18.2566091,29.0952597 18.4883956,28.4317081 C18.8621375,28.2082787 19.1416122,27.8299083 19.4244139,27.5054305 C19.767103,27.113587 20.1086832,26.7206207 20.4702257,26.3467413 C20.6620873,26.1491355 20.3637592,25.84599 20.1707886,26.0424732 C19.805919,26.414107 19.4610118,26.803705 19.1161046,27.193303 C18.9763672,27.3504895 18.8222126,27.507676 18.6769301,27.6715991 C18.7445807,27.1899347 18.7179641,26.7194979 18.6148247,26.2647798 C18.7944869,26.1480127 18.8909722,25.8224121 19.0007658,25.6607345 C19.2070447,25.3575891 19.4377222,25.0746534 19.638456,24.7681397 C19.7626669,24.5772704 19.4665569,24.4088563 19.3390189,24.5907435 C19.1094504,24.9197124 18.841066,25.2194895 18.6126066,25.5495812 C18.5682455,25.6124558 18.5139033,25.6843125 18.4662151,25.7606602 C18.376384,25.508039 18.2654814,25.2621544 18.1357253,25.0230064 C18.2610452,24.879293 18.3708389,24.7142472 18.462888,24.6087077 C18.7689793,24.2572835 19.0872699,23.9215781 19.4499215,23.6285375 C19.6074032,23.5016655 19.3955792,23.2198526 19.2314433,23.3433563 C18.8610285,23.6218009 18.5294296,23.9395422 18.2122481,24.2774932 C18.1290711,24.3650686 18.0026421,24.4739764 17.8817582,24.592989 C17.8551416,24.5536924 17.829634,24.513273 17.8030174,24.4728536 C17.8263069,24.3639458 17.8251979,24.250547 17.8030174,24.1427619 C17.8351791,24.1304116 17.8662319,24.1124474 17.8906304,24.0899922 C18.3408951,23.68243 18.8199945,23.2681313 19.1560295,22.7572752 C19.2957668,22.5450734 18.966386,22.3598178 18.8233216,22.5596693 C18.4817415,23.0379653 17.9860067,23.3523384 17.5823211,23.7677598 C17.4758546,23.6813073 17.3350082,23.630783 17.156455,23.6375196 C17.0510975,23.6420106 16.94574,23.6431334 16.8403825,23.6465017 C17.451456,23.0941034 18.1091086,22.4676029 18.4795234,21.7400539 C18.5848809,21.5323431 18.2821167,21.3504559 18.1689961,21.5559211 C17.7298216,22.3575723 16.9390858,22.8504643 16.3435387,23.5162614 C16.2969596,23.5589263 16.2769971,23.6083278 16.2758881,23.6554838 C14.9195488,23.6633431 13.5632096,23.579136 12.2079794,23.5117704 C12.2800661,23.4107219 12.3477167,23.3040596 12.4076041,23.1962746 C12.5661949,22.9122161 12.5495595,22.9481445 12.8123988,22.7336972 C13.2770808,22.354204 13.960241,21.7995602 14.0068201,21.1427452 C14.0223465,20.9148247 13.6829845,20.922684 13.6596949,21.1427452 C13.61977,21.514379 13.2072121,21.85233 12.9477,22.0836187 C12.7136954,22.2924522 12.3377355,22.4676029 12.15031,22.7168558 C12.0416254,22.8616919 11.9484672,23.0783847 11.8508729,23.2389395 C11.810948,23.3051824 11.7521696,23.3972488 11.72888,23.4893152 C11.476022,23.4780876 11.224273,23.4679827 10.972524,23.4590006 C11.4638227,22.7943263 12.1780357,22.3081708 12.5007624,21.5256066 C12.5750671,21.3459649 12.2689759,21.2134791 12.1880169,21.3919981 C11.8153841,22.2205955 10.9403623,22.6191756 10.4812254,23.3871439 C10.4690261,23.4062309 10.4623719,23.4264406 10.4568268,23.4455275 C10.0675585,23.4365454 9.67829028,23.4331771 9.29013106,23.4387909 C9.35001848,23.3848984 9.39437954,23.3130417 9.43541351,23.2187298 C9.45315793,23.1760649 9.44206767,23.1165586 9.41101493,23.0806303 C9.84131716,22.485567 10.5167142,22.0926008 10.8106062,21.3931208 C10.8904561,21.204497 10.6209627,21.0372056 10.5344586,21.2291977 C10.1584987,22.0611635 9.17479232,22.3744137 8.82101291,23.2209754 C8.7866331,23.3018141 8.79550531,23.3848984 8.8332122,23.4488958 C8.76667062,23.4511413 8.69902001,23.4522641 8.63247843,23.4545096 C7.61993737,23.4938062 6.47874925,23.5342256 5.41741103,23.3332514 C5.92756315,22.5450734 6.71164478,21.8972404 7.14527409,21.0529243 C7.23732328,20.8755281 6.97670208,20.7194643 6.88021679,20.8957378 C6.53087349,21.5312204 5.93421731,22.0140075 5.46953527,22.5585465 C5.36639582,22.6798047 5.08248507,22.9807045 5.00041712,23.2400623 C4.56678781,23.1277862 4.15201196,22.9672314 3.77161592,22.7404337 C3.774943,22.7314517 3.77827008,22.7235923 3.78270618,22.7146102 C4.69765292,21.7782278 5.56712959,20.7812162 6.32348556,19.7112252 C6.44769651,19.5360745 6.16267674,19.3721514 6.03957481,19.5428111 C5.25438415,20.6217842 4.31060273,21.5312204 3.38123864,22.4743394 C3.26922698,22.3867641 3.1605424,22.293575 3.05629392,22.1914037 C2.99307942,22.1296519 2.93319199,22.0645318 2.87552262,21.9994116 C3.42005456,21.0753795 4.37603528,20.4286693 4.97601854,19.5327062 C5.08137604,19.3743969 4.83295414,19.2329291 4.72537858,19.3845018 C4.11985019,20.2344317 3.19714027,20.8193901 2.60492019,21.6569696 C2.44078429,21.4234354 2.30548308,21.1741825 2.19125336,20.9148247 C2.25446786,20.8452136 2.31102821,20.7643748 2.37202466,20.6891498 C2.62820975,20.369163 2.8788497,20.0435624 3.13614382,19.7224528 C3.57753631,19.1745455 4.02447393,18.496398 4.59229542,18.0719944 C4.74201398,17.9597184 4.60116763,17.7037289 4.44368589,17.8137595 C3.85479289,18.2258127 3.37569351,18.8669091 2.90324828,19.402466 C2.61933753,19.7235755 2.33320873,20.0435624 2.05927923,20.373654 C2.04264383,20.3938637 2.02489941,20.4129507 2.00826401,20.4331604 C1.8940343,20.0839818 1.81307537,19.7202073 1.755406,19.350819 C2.27997547,18.3223701 3.33465953,17.613908 3.97789482,16.6696662 C4.08436135,16.5124797 3.83483042,16.3698891 3.72725486,16.5214618 C3.54537454,16.7774513 2.29993794,17.9327721 1.68331929,18.7928069 C1.63784921,18.3627895 1.59903329,17.9305266 1.56465347,17.4971409 C1.59237913,17.4466167 1.62121381,17.3972152 1.65337558,17.3500593 C1.86963572,17.0267042 2.11805762,16.7280498 2.36647953,16.4305182 C2.78680051,15.9263986 3.21266663,15.4256473 3.47883296,14.817111 C3.55313773,14.6475741 3.30915193,14.4971241 3.228193,14.6689065 C2.89659412,15.370632 2.35095316,15.9028206 1.84856422,16.4765514 C1.74986087,16.5888275 1.6334131,16.7168222 1.51585631,16.8549218 C1.49256676,16.5079887 1.47260428,16.1621784 1.45485986,15.8152453 C1.50809313,15.708583 1.56132639,15.6030435 1.62343187,15.5076088 C1.86519961,15.1393433 2.14800133,14.8002695 2.4452204,14.4769144 C2.97533499,13.8975699 3.55757383,13.3709951 4.1032148,12.8073692 C4.21079035,12.6962159 4.04554543,12.5300473 3.93464279,12.6367095 C3.30915193,13.2441231 2.64151806,13.8055035 2.04264383,14.4398633 C1.87850793,14.6138913 1.64117629,14.8519165 1.42602518,15.1157653 C1.42158907,14.976543 1.41382589,14.8373207 1.40938978,14.6992211 C1.40384465,14.5004924 1.39829952,14.3028865 1.39275439,14.1041579 C1.80087608,13.8178539 2.09920417,13.202581 2.38422395,12.8264561 C2.82450741,12.2459888 3.3080429,11.7227823 3.92466155,11.3320615 C4.07992524,11.2332586 3.94018792,10.9884967 3.78048813,11.0816859 C3.17163266,11.4353555 2.66924372,11.9091606 2.21343389,12.446963 C1.97610225,12.7254076 1.628977,13.0678497 1.37279191,13.4260104 C1.36059262,12.9948702 1.34839333,12.5637301 1.33508502,12.1325899 C1.41160783,11.9911221 1.48369455,11.8474087 1.59348816,11.719414 C1.76316919,11.5195626 1.96723004,11.3545167 2.14689231,11.1647702 C2.68477009,10.5955304 3.05851197,9.86461319 3.74499928,9.45705102 C3.87475537,9.37845777 3.75941663,9.18085187 3.62744249,9.2515858 C2.8744136,9.65465692 2.4241489,10.4226253 1.8097483,10.9941105 C1.65892071,11.1344556 1.47593136,11.2905194 1.31401351,11.4634245 C1.30403228,11.1973302 1.29405104,10.9301132 1.28296078,10.6628961 C1.6079055,10.2789119 1.8773989,9.80622963 2.17572699,9.42561372 C2.58052161,8.90914377 2.99862455,8.41063798 3.44778022,7.93458741 C3.56755507,7.80771545 3.38234767,7.6202144 3.25813671,7.74259532 C2.7524207,8.23997835 2.25003176,8.74522069 1.79754901,9.29425071 C1.62454089,9.50308422 1.43046128,9.72202257 1.24858096,9.949943 C1.23859972,9.78826545 1.22861849,9.6265879 1.21863725,9.46378759 C1.4648411,9.15839666 1.64228532,8.72164272 1.78756777,8.45667117 C2.17239991,7.75606845 2.56388622,6.99146836 3.0806925,6.38293203 C3.15056116,6.30097049 3.04076755,6.18532613 2.96091765,6.26279662 C2.44300234,6.76354793 2.06038825,7.36983875 1.67777416,7.97837509 C1.50365702,8.25457424 1.35393846,8.54424652 1.1831484,8.82156843 C1.18203938,8.82156843 1.18203938,8.82269119 1.18203938,8.82269119 C1.16762204,8.55435136 1.15542275,8.28488878 1.14987761,8.01654895 C1.43711544,7.67972072 1.66446584,7.25643991 1.8984704,6.8960337 C2.21897902,6.4008962 2.50178074,5.885549 2.75020264,5.34886935 C2.78790954,5.26578506 2.6725708,5.19392837 2.62599169,5.2758899 C2.33875387,5.79348262 2.00160985,6.27402423 1.66224779,6.7556886 C1.50143897,6.98248628 1.31512254,7.20816119 1.14765956,7.44394096 C1.15209567,7.13181346 1.16762204,6.81968597 1.1997838,6.50980399 C1.33730307,5.16024554 1.89181625,4.01278403 3.1605424,3.44354432 C3.70285628,3.19990523 4.30838467,3.07752431 4.92278527,3.00229933 C5.57821985,3.08987468 6.22700027,3.16509965 6.89796121,3.19878247 C7.85061485,3.24706118 8.80326849,3.28748057 9.75814018,3.31779511 C11.6312857,3.37842419 13.5055402,3.32789996 15.3797948,3.34025033 C17.2695757,3.35372346 19.1582476,3.36046002 21.0480285,3.31105855 C22.3145366,3.27737572 23.595462,3.28748057 24.857534,3.41435254 C27.3062642,3.66248267 29.7727388,4.63703902 30.4503539,7.27215856 C30.9117089,9.06520751 30.7131932,10.9447091 30.6111627,12.7703181 Z M31.9830283,9.26730445 C31.9120507,7.54049838 31.5405268,5.81930612 30.3915755,4.49108012 C29.5387343,3.50529616 28.3420948,2.89226878 27.1099665,2.5453357 C24.1632835,1.71561549 20.94378,2.0760217 17.9305554,2.08837206 C15.6370889,2.09623139 13.3480585,2.12654593 11.05681,2.20289366 C9.91562192,2.23994477 8.77332478,2.19952538 7.63213666,2.23208544 C7.02217216,2.25004962 6.43660625,2.28822348 5.85325839,2.36008017 C5.02703375,2.25566342 4.22188062,2.27250483 3.37791156,2.48133834 C2.31768237,2.74406436 1.30846838,3.33575928 0.747301047,4.31480668 C0.0896484184,5.46114543 -0.0112729799,6.93083928 0.000926309963,8.22425969 C0.0153436526,9.82756208 0.0674678913,11.4319872 0.088539392,13.0352896 C0.109610893,14.6217506 0.132900446,16.1981067 0.240476003,17.7811994 C0.333634216,19.1577041 0.455627116,20.5824875 1.0988624,21.8253837 C2.28441158,24.119184 4.73425079,24.8119274 7.11976648,24.8624516 C8.57259101,24.8938889 10.0165433,24.7894722 11.4715859,24.8579606 C13.3669119,24.9489042 15.2578019,25.1049679 17.156455,25.0319885 C17.1841807,25.0308657 17.2096883,25.0286202 17.2363049,25.0252519 C17.3582978,25.3755533 17.4780726,25.7269774 17.5612496,26.0885064 C17.7331487,26.8430016 17.6311183,27.6300569 17.3017374,28.3261686 C16.7516604,29.4893488 15.5638932,30.0507291 14.8796239,31.1106153 C14.630093,31.4979678 14.9616918,31.985246 15.3820128,31.9964736 C17.8107805,32.064962 20.3404697,31.1319478 22.1881076,29.5376275 C23.0409488,28.8022192 23.6963834,27.7827524 23.8350117,26.6431502 C23.8738276,26.3332682 23.9403692,25.8516038 23.8993352,25.4193409 C24.5980218,25.5686681 25.3177799,25.4586376 26.0275568,25.3373794 C26.8515634,25.1981571 27.6633707,24.93094 28.3886739,24.5076592 C29.8004645,23.6813073 30.8052423,22.3317488 31.3187216,20.7767251 C31.8954153,19.0285866 31.8155654,17.1243843 31.8155654,15.3077574 C31.8166744,13.2957701 32.0662053,11.2770462 31.9830283,9.26730445 Z M8.68016657,21.2651261 C8.46057935,21.800683 7.90273909,22.1509843 7.49794447,22.532723 C7.33824468,22.6831729 6.99888261,22.9088479 6.91570563,23.1412593 C6.846946,23.2613947 6.9523035,23.4747193 7.13972896,23.447773 C7.42253068,23.4062309 7.69646019,22.9481445 7.88610369,22.7527841 C8.30087955,22.3250123 8.79883239,21.9376598 9.00622031,21.3560697 C9.08052508,21.1461134 8.76112549,21.0675202 8.68016657,21.2651261 Z M17.0688419,21.6592151 C16.5464905,22.0061482 15.9431802,22.5125133 15.682559,23.1176814 C15.6537243,23.1625918 15.6315438,23.213116 15.6226715,23.2737451 C15.5816376,23.5521898 15.9298718,23.6487472 16.0363384,23.3893895 C16.2703429,22.8167815 16.7594236,22.3283805 17.2507222,21.9735881 C17.4359296,21.8399796 17.2651396,21.5289749 17.0688419,21.6592151 Z M15.8699844,21.1842873 C15.1945874,21.8478389 14.5169723,22.5080223 13.8371391,23.1682056 C13.664131,23.335497 13.8449023,23.6038368 14.0600534,23.5555581 C14.2485879,23.5140159 14.3517273,23.3893895 14.4249231,23.2198526 C14.9894175,22.6247894 15.5539119,22.0308489 16.1217334,21.4380312 C16.2803242,21.2718626 16.0341203,21.0226098 15.8699844,21.1842873 L15.8699844,21.1842873 Z"></path>
        </g>
    </g>
</svg>