<svg xmlns="http://www.w3.org/2000/svg" width="32" height="32" viewBox="0 0 32 32">
    <path fill="#FFF" d="M9.288 0C4.173 0 0 4.173 0 9.288v13.424C0 27.827 4.173 32 9.288 32h13.424C27.827 32 32 27.827 32 22.712V9.288C32 4.173 27.827 0 22.712 0H9.288zm0 2.462h13.424c3.783 0 6.826 3.038 6.826 6.826v13.424c0 3.783-3.038 6.826-6.826 6.826H9.288c-3.783 0-6.826-3.038-6.826-6.826V9.288c0-3.783 3.038-6.826 6.826-6.826zm15.943 2.461c-1.02 0-1.846.827-1.846 1.846 0 1.02.827 1.846 1.846 1.846 1.019 0 1.846-.827 1.846-1.846 0-1.019-.827-1.846-1.846-1.846zM16 7.385c-4.745 0-8.615 3.87-8.615 8.615s3.87 8.615 8.615 8.615 8.615-3.87 8.615-8.615S20.745 7.385 16 7.385zm0 2.461c3.413 0 6.154 2.74 6.154 6.154 0 3.413-2.74 6.154-6.154 6.154-3.413 0-6.154-2.74-6.154-6.154 0-3.413 2.74-6.154 6.154-6.154z"/>
</svg>
