<svg xmlns="http://www.w3.org/2000/svg" width="40" height="26" viewBox="0 0 40 26">
    <g fill="none" fill-rule="evenodd">
        <path d="M0 0H40V40H0z" transform="translate(0 -10)"/>
        <path fill="#FFEBC8" d="M17.282 16.39c-.057.047-.118.083-.18.113.066-.167.123-.34.185-.509.047-.132-.174-.228-.231-.097-.08.181-.152.365-.24.542-.027.054-.062.111-.094.17-.096.014-.193.02-.29.023.042-.08.081-.157.121-.216.15-.224.283-.446.346-.705.079.026.155.056.23.089.106.046.364.118.397.246.031.12-.16.278-.244.345zm-1.074.024c-.047.068-.104.144-.152.224-.069 0-.14-.003-.206-.015.052-.1.108-.2.164-.303.117-.212.22-.425.346-.629.08-.02.16-.035.24-.048.03.003.057.01.086.014-.106.28-.307.514-.478.757zm-.59.08c-.029-.04-.049-.091-.056-.155-.032-.27.245-.438.486-.54-.1.154-.192.318-.29.477l-.14.217zm1.823-1.427c-.312-.087-.783-.085-1.165.031-.534.078-1.104.282-1.379.773-.166.297-.139.66.008.96.21.429.63.582 1.084.615.9.066 2.255-.157 2.374-1.282.06-.56-.42-.955-.922-1.097zm9.848 7.245c.044-.157-.208-.216-.273-.06-.036.085-.072.168-.11.251l-.063.022c-.112.036-.23.065-.348.088l.033-.084c.057-.137.135-.267.184-.407.05-.144-.173-.2-.227-.063-.038.097-.212.367-.285.599-.101.01-.203.016-.304.018.074-.259.203-.507.355-.725.09-.128-.117-.24-.208-.12-.167.218-.376.53-.459.834-.134-.012-.268-.033-.399-.064.036-.11.073-.218.104-.327.059-.21.18-.401.261-.603.047-.114-.15-.198-.2-.084-.095.21-.221.404-.3.62-.035.093-.109.21-.124.32-.088-.031-.173-.067-.255-.107.047-.004.088-.036.106-.085.024-.069.005-.15.02-.224.023-.12.074-.237.122-.349.074-.177.178-.353.227-.54.036-.134-.164-.187-.207-.057-.068.21-.59.92-.405 1.181-.1-.06-.192-.128-.274-.205.029-.086.036-.2.046-.249.058-.293.153-.598.33-.843.072-.1-.096-.23-.173-.132-.157.2-.26.433-.34.673-.018.053-.06.17-.088.29-.053-.079-.097-.161-.13-.246.006-.024.011-.05.017-.083.037-.174.103-.339.178-.501.115-.247.244-.485.342-.74.02-.056-.068-.091-.097-.04-.162.287-.36.552-.505.85-.003.008-.008.016-.012.023.018-.226.11-.454.295-.666.371-.427.924-.643 1.48-.691.258-.023.517-.018.774.015l.016.003c.455.127.961.357 1.291.703.606.636.225 1.4-.395 1.805zm-.214 1.178c-.137.312-.338.588-.625.751.047-.138.092-.277.127-.42.04-.167-.217-.238-.258-.072-.053.212-.129.414-.203.619-.005 0-.009.002-.013.003-.15.03-.304.026-.45-.008.016-.05.03-.1.052-.15.084-.207.19-.4.253-.613.344-.013.684-.069 1.005-.165.052-.016.104-.034.156-.053-.014.037-.029.074-.044.108zm-1.683.774c-.075-.04-.145-.092-.208-.152l.013-.04c.058-.164.116-.329.166-.495.102.012.202.02.304.023-.06.173-.144.336-.218.505-.023.052-.04.105-.057.16zm-.351-.324c-.097-.14-.168-.302-.215-.465.114.03.23.055.348.075-.041.131-.087.26-.133.39zm3.609-3.345c-.295-.667-.971-1.077-1.638-1.314-.145-.052-.333-.105-.537-.146-.3-.075-.602-.114-.873-.119-.718-.013-1.439.19-1.984.666-1.032.901-.95 2.414.112 3.252.067.054.137.102.209.148-.056.466.156 1.023.39 1.363.342.494.88.801 1.486.82 1.284.039 2.106-1.117 2.075-2.306.727-.555 1.17-1.439.76-2.364zm5.91-3.885c-.034.06-.074.117-.115.173-.118.07-.24.118-.34.132-.077.012-.156.018-.235.021.015-.045.031-.089.05-.13.114-.238.214-.51.394-.707.05-.055.04-.12.005-.165.095.006.187.023.27.059.093.04.157.084.2.132-.07.164-.141.329-.229.485zm-.98.33c-.064 0-.13-.002-.195 0 .049-.103.092-.207.134-.3.1-.226.167-.466.239-.703h.12c.08-.001.165-.006.251-.008-.18.201-.272.446-.394.683-.05.097-.108.21-.155.327zm-.524.017c-.236.027-.468.08-.703.11.127-.373.247-.748.345-1.129.116-.004.233-.015.335-.013l.486.01c-.08.222-.158.446-.267.655-.06.115-.147.24-.196.367zm-1.32 1.077c-.137.388-.241.79-.366 1.183-.057.177-.118.357-.173.538-.072-.039-.135-.11-.18-.214-.087-.2-.059-.447-.057-.66l-.001-.182.001-.002c.436-.499.58-1.241.783-1.855.11-.333.197-.67.3-1.006.019-.062.039-.121.06-.18.019.052.052.103.103.151.08.076.18.11.29.124-.215.714-.51 1.398-.76 2.103zm.222.95c-.027.272-.131.55-.364.714-.028.02-.056.037-.084.05.183-.52.296-1.075.466-1.59-.016.275.008.552-.018.826zm-1.007-.922c-.006-.254.078-.633-.088-.846-.068-.089-.144-.138-.226-.156.174-.362.317-.744.445-1.108.252-.72.634-1.385.858-2.115.03-.094-.115-.132-.147-.04-.254.721-.652 1.38-.921 2.097-.146.387-.306.767-.495 1.136l-.009.016c-.213-.035-.425-.08-.641-.098-.05-.004-.1-.006-.15-.007.01-.03.017-.058.027-.084.088-.236.206-.46.305-.69.056-.132-.136-.25-.199-.115-.108.235-.235.462-.334.702-.022.054-.052.117-.077.185h-.173c.01-.076.025-.152.054-.235.092-.267.224-.515.335-.773l.243-.005c.256-.005.638.078.852-.087.054-.04.092-.083.119-.129.034-.02.069-.045.102-.08.198-.205.114-.561.118-.82 0-.028 0-.057.002-.084.02.004.042 0 .058-.016.348-.34.615-.847.787-1.332.078.126.135.26.15.365.045.297.012.603.03.903.011.192.047.38.08.57-.082.23-.198.453-.277.684-.099.29-.189.583-.29.872-.167.475-.388.962-.535 1.454l-.003-.164zm-2.11-1.135h-.01c-.097-.01-.193-.029-.286-.06.092-.08.134-.233.18-.337.08-.18.148-.362.208-.55.006-.017.004-.031 0-.044.119 0 .238 0 .357-.002-.1.198-.209.39-.299.59-.048.108-.12.258-.15.403zm-.443-.122c-.112-.057-.212-.134-.287-.24-.166-.232-.108-.458.158-.572.156-.067.34-.065.515-.06l-.004.006c-.07.19-.146.377-.236.558-.048.097-.135.2-.146.308zm2.619-3.543c.168-.387.434-.291.64-.068-.197.453-.523.846-.702 1.3.004-.174.007-.35.005-.524-.002-.226-.035-.494.057-.708zm3.652 1.917c-.302-.082-.617-.071-.927-.07-.378.004-.756-.015-1.134-.007.007-.082.009-.168.013-.26.016-.398.082-.795.031-1.193-.076-.614-.484-1.226-1.122-1.371-.626-.142-1.172.333-1.331.907-.083.3-.073.613-.07.92.002.332-.012.664-.01.995-.32-.001-.638.011-.957.01-.31-.001-.62-.014-.924.059-.598.143-1.11.69-.96 1.333.141.614.732 1.022 1.332 1.11.396.056.787-.008 1.183-.026.116-.005.224-.006.328-.014v.037c-.01.048-.016.096-.016.145 0 .016.006.028.015.037 0 .288.01.576.009.864-.001.308-.015.615.058.917.145.594.696 1.102 1.343.954.618-.14 1.03-.727 1.116-1.323.058-.393-.006-.782-.024-1.175-.008-.172-.007-.326-.032-.473.126.022.26.025.41.03.4.016.8.081 1.201.032.618-.076 1.235-.481 1.38-1.115.144-.621-.335-1.165-.912-1.323zm-11.074 1.356c-.14-.004-.282-.014-.419-.04.083-.3.367-.58.494-.836.01-.02.013-.039.01-.057l.091.028c.033.011.07.024.108.039-.09.183-.169.374-.222.57-.018.062-.054.183-.062.296zm-.753-.159c.002-.004.006-.007.007-.013.054-.186.084-.363.161-.544.031-.072.066-.143.101-.212.079-.025.159-.044.244-.055.022-.003.045-.005.068-.006l.083.015v.003c-.148.256-.46.545-.571.858-.032-.014-.063-.029-.093-.046zm-.215-.156c-.083-.075-.17-.17-.164-.248.008-.126.239-.201.342-.245-.1.173-.176.356-.178.493zm1.277.267c.037-.245.103-.488.196-.719.193.105.362.257.336.47-.033.286-.304.301-.54.3l.008-.051zm.967.552c.262-.244.41-.676.325-1.03-.146-.603-.799-.887-1.353-.991-.027-.005-.067-.01-.114-.016-.32-.094-.694-.1-.978-.07-.426.048-.923.325-1.073.743-.17.475.123.95.48 1.251.431.364.954.433 1.503.429.416-.003.888-.013 1.21-.316zm-14.534-.095c-.067.005-.134.012-.201.02.192-.328.367-.664.482-1.03.134.002.266.003.4.003.078-.001.16-.006.245-.007l-.068.106c-.146.217-.428.46-.374.74.008.048.071.07.11.046.195-.124.316-.427.442-.619.055-.083.099-.173.14-.264.072.009.141.024.206.05-.081.153-.156.31-.238.464-.082.156-.188.302-.254.464-.293.04-.595.01-.89.027zm-.488.066c-.105.018-.209.037-.313.05-.132-.03-.256-.004-.369.114-.198.205-.113.561-.118.821-.001.106-.004.212-.006.317-.262.418-.538.85-.699 1.3-.15-.161-.267-.39-.292-.551-.005-.037-.01-.073-.013-.11l.036-.074c.18-.37.36-.737.556-1.098.338-.618.686-1.232 1.033-1.845.17.015.356-.012.509-.01l.243.006c-.14.383-.348.735-.567 1.08zm-.868 2.531c-.127.293-.31.31-.48.205.203-.249.378-.53.54-.821.006.204.02.431-.06.616zm-.958-1.383c-.012-.204-.052-.406-.087-.607.258-.373.506-.765.737-1.145.154-.253.248-.532.392-.79l.041-.07c.009.015.018.029.029.043.04.052.085.09.131.117.02.035.045.068.08.101.043.041.092.069.146.09-.541.785-1.038 1.601-1.463 2.453-.001-.065-.003-.128-.006-.192zm-.176-1.02l-.013-.014c-.04-.04-.093-.062-.144-.052-.092-.01-.183-.025-.274-.041l.034-.057c.2-.332.357-.687.527-1.034.319-.648.734-1.233 1.062-1.874 0 .226.004.45.009.676.003.162-.029.375-.01.564-.096.134-.198.267-.278.412-.144.263-.28.524-.454.772-.148.21-.317.424-.459.649zm-.508-.508c-.065.115-.153.23-.24.346-.077-.012-.155-.022-.233-.028-.046-.004-.093-.006-.14-.007l.013-.018c.077-.107.177-.193.26-.295.16-.194.268-.425.437-.614.021-.024.024-.052.015-.076.112-.01.216-.036.297-.097-.135.264-.264.53-.409.789zm-.853.31c-.098 0-.196 0-.293-.002.013-.024.025-.048.04-.073.074-.133.163-.255.244-.384.116-.183.207-.38.335-.553l.086-.002c.115-.002.254.013.393.016-.191.202-.333.443-.53.638-.1.1-.226.22-.275.36zm-.547-.018c-.204-.024-.408-.091-.563-.223.057-.083.103-.182.146-.26.096-.171.184-.345.292-.508.088 0 .176.004.258.005h.006c-.103.135-.207.27-.295.417-.079.132-.223.355-.099.495.017.02.048.02.07.008.06-.03.08-.07.105-.13.05-.121.101-.235.168-.348.091-.153.195-.297.296-.444.083 0 .166 0 .25-.002-.093.134-.173.275-.264.411-.12.179-.296.368-.37.579zm-.53-.93c.075-.032.157-.048.241-.055-.087.115-.166.235-.24.358-.048.08-.116.162-.174.248-.147-.225-.086-.44.173-.55zm2.61-1.281l.003-.042c.402-.394.612-.98.947-1.431l.012.024c.078.18.064.4.058.596-.324.586-.785 1.093-1.124 1.673 0-.028-.004-.056-.01-.086.035-.245.094-.487.114-.734zm.022-.89c.027-.272.13-.551.363-.715.162-.114.32-.122.44-.03-.02.007-.037.019-.052.038-.273.357-.553.766-.763 1.183-.002-.16-.003-.318.012-.477zm3.883 2.3c.187.203-.03.467-.294.635.119-.198.205-.435.294-.636zm.797.38c.143-.62-.335-1.164-.913-1.322-.302-.082-.617-.071-.927-.07-.334.003-.667-.01-1.002-.008.003-.318-.01-.634-.01-.952.001-.307.015-.615-.058-.917-.145-.593-.696-1.101-1.343-.954-.618.14-1.029.727-1.116 1.324-.057.392.007.781.025 1.174.005.116.006.224.014.326-.363-.007-.726.01-1.09.009-.31-.002-.62-.015-.923.058-.598.143-1.11.69-.961 1.333.142.614.732 1.022 1.333 1.11.395.056.786-.008 1.182-.026.173-.007.329-.006.476-.03-.021.125-.024.258-.03.407-.017.397-.082.795-.032 1.193.077.613.485 1.225 1.122 1.37.626.143 1.173-.333 1.332-.907.082-.3.072-.613.07-.92-.003-.375.015-.75.007-1.126.083.006.17.009.263.013.4.015.8.08 1.201.031.618-.076 1.234-.481 1.38-1.115zm2.165 7.435c-.088.107-.197.19-.317.249.074-.25.175-.493.267-.736.113-.02.225-.043.337-.073-.058.2-.153.4-.287.56zm-.894.349c.016-.084.028-.168.053-.237.065-.186.15-.365.228-.546.112-.002.224-.009.336-.02-.118.256-.25.522-.336.795-.092.014-.187.017-.281.008zm-.291-.071c-.035-.014-.069-.03-.101-.045l.002-.014c.054-.224.111-.455.197-.672.075.007.151.013.228.016-.089.17-.179.339-.251.516-.024.06-.054.128-.075.199zm.06-2.526c-.054.074-.341.487-.439.782-.132-.036-.267-.088-.398-.151.044-.163.121-.326.179-.473.077-.193.167-.381.282-.555.07-.105-.094-.193-.168-.097-.149.198-.276.425-.379.65-.051.111-.108.223-.153.34-.072-.046-.141-.096-.206-.15l.012-.035c.055-.154.139-.296.223-.438.14-.236.283-.466.344-.738.03-.138-.18-.197-.215-.058-.083.316-.29.566-.454.843-.038.064-.083.139-.12.218-.042-.05-.079-.1-.112-.153.032-.08.048-.162.077-.25.06-.177.145-.346.234-.511.149-.276.32-.54.46-.82.024-.045.006-.089-.024-.113.143-.075.29-.137.428-.188.056-.02.113-.04.17-.057.184-.036.37-.061.562-.06.557.003 1.098.116 1.548.458.715.545.752 1.473.014 2.015-.243.178-.532.294-.837.36.075-.193.162-.379.263-.56.07-.125-.114-.23-.19-.111-.116.183-.225.372-.32.567-.017.038-.049.095-.072.156-.133.013-.267.018-.4.015l-.002-.01c.068-.209.238-.38.296-.594.038-.14-.173-.196-.219-.06-.076.236-.294.409-.36.646-.07-.007-.14-.016-.207-.028.023-.087.062-.17.1-.25.08-.165.172-.326.268-.483.073-.12-.106-.217-.185-.107zm-.394 2.313c0 .003-.002.007-.004.01-.069-.057-.131-.124-.188-.196l.006-.02c.045-.13.102-.258.158-.386.078.018.157.033.237.045-.086.177-.157.364-.209.547zm-.348-.421c-.035-.062-.067-.125-.096-.19-.016-.035-.03-.072-.044-.11.083.028.166.055.251.078-.038.074-.076.147-.111.222zm-1.004-2.262c-.036-.191-.013-.398.092-.617.124-.257.359-.464.62-.624-.169.294-.368.57-.53.868-.059.108-.132.239-.182.373zm3.624 3.07c.249-.346.48-.923.423-1.403 1.003-.659 1.428-1.981.676-3.008-.48-.653-1.21-.981-2.008-1.05-.398-.035-.873.007-1.318.133-.055.012-.107.025-.155.037-.603.161-1.248.48-1.646.97-.767.946-.37 2.141.498 2.807-.025 1.183.796 2.329 2.074 2.29.585-.017 1.117-.304 1.456-.777zm23.148 8.661c-.304.79-.886 1.454-1.617 1.792.025-.1.052-.198.078-.297.057-.209-.263-.296-.326-.088-.048.158-.125.347-.175.538-.165.044-.336.072-.511.081.052-.338.177-.664.304-.98.068-.17-.223-.294-.298-.125-.141.315-.325.71-.394 1.096-.126-.012-.253-.033-.38-.065l-.08-.022c-.004-.029-.006-.056-.005-.082.027-.482.075-.975.274-1.42.075-.169-.172-.319-.254-.147-.207.433-.286.896-.344 1.37-.006.05-.015.107-.02.165-.163-.061-.32-.134-.473-.214.14-.115.064-.509.094-.652.108-.544.33-1.079.501-1.606.055-.169-.209-.239-.266-.073-.168.48-.36.958-.5 1.446-.067.234-.14.514-.06.752-.147-.089-.289-.187-.426-.291.016-.007.03-.017.039-.033.094-.175.098-.35.118-.545.03-.289.077-.573.142-.857.119-.513.293-1.011.5-1.496.058-.139-.185-.242-.248-.104-.232.512-.431 1.037-.567 1.582-.097.386-.27.941-.127 1.34-.21-.17-.41-.358-.6-.557.022-.132.015-.277.042-.407.04-.195.096-.39.145-.583.159-.619.413-1.209.601-1.82.052-.165-.206-.234-.26-.07-.078.234-.764 1.74-.83 2.546-.12-.143-.237-.289-.35-.437.051-.187.057-.384.096-.578.059-.289.152-.569.231-.853.158-.558.297-1.12.594-1.624.085-.144-.137-.273-.226-.131-.313.498-.476 1.055-.646 1.613-.1.325-.292.763-.343 1.168-.117-.169-.228-.339-.335-.507-.024-.036-.045-.072-.068-.109.006-.135.001-.274.032-.409.046-.213.13-.413.192-.621.21-.692.374-1.394.607-2.08.056-.164-.199-.23-.258-.072-.279.755-.467 1.54-.74 2.295-.031.084-.085.234-.127.397-.116-.203-.228-.41-.338-.616.03-.128.052-.26.08-.38.07-.298.138-.594.222-.887.185-.658.44-1.292.736-1.908.067-.14-.139-.262-.21-.122-.344.668-.644 1.361-.86 2.081-.076.252-.14.508-.202.763-.097-.19-.192-.38-.286-.572.015-.09.03-.183.05-.273.061-.29.144-.576.237-.858.195-.592.443-1.167.673-1.748.047-.118-.157-.204-.207-.087-.252.585-.522 1.163-.74 1.761-.076.213-.175.47-.246.734l-.233-.465c.156-.383.238-.832.326-1.215.135-.587.32-1.155.594-1.693.071-.139-.136-.261-.21-.123-.287.53-.493 1.093-.645 1.675-.073.278-.208.602-.287.922-.116-.222-.235-.443-.358-.662.117-.29.166-.629.26-.902.247-.704.558-1.381.807-2.084.055-.156-.19-.218-.247-.068-.348.91-.747 1.772-1.031 2.691-.072-.12-.146-.24-.22-.358-.038-.057-.081-.1-.129-.128-.051-.059-.136-.09-.225-.075-.286.05-.438.279-.664.439-.27.192-.566.366-.874.493-.523.215-1.092.258-1.649.164-.54-.09-1.064-.293-1.523-.59-.4-.258-.857-.709-.99-1.175-.022-.074-.057-.133-.099-.178-.026-.124-.117-.235-.299-.29-.126-.038-.253-.056-.381-.065.018-.06.029-.121.037-.159.074-.327.208-.641.435-.892.112-.124-.065-.303-.185-.184-.327.325-.541.776-.603 1.23-.133.004-.266.011-.4.016.103-.168.147-.383.23-.559.124-.27.246-.54.422-.782.082-.113-.109-.26-.197-.15-.183.23-.32.485-.455.746-.113.216-.29.495-.307.75-.117.003-.233.005-.35.006.144-.203.192-.483.287-.71.118-.278.25-.585.449-.817.102-.118-.063-.289-.175-.174-.241.25-.403.573-.558.88-.118.231-.33.568-.204.824l-.494.008c.083-.165.108-.384.173-.544.115-.287.26-.557.42-.822.077-.13-.122-.244-.204-.118-.183.28-.37.564-.51.869-.08.174-.203.42-.163.622h-.022c-.127.004-.255.006-.383.008.105-.205.166-.46.25-.658.116-.28.204-.572.373-.826.068-.103-.093-.23-.173-.134-.22.27-.356.588-.506.898-.102.21-.283.483-.25.726-.13.003-.261.006-.391.012.036-.085.064-.178.098-.264.143-.359.322-.708.522-1.038.076-.126-.114-.23-.196-.114-.202.29-.399.598-.552.918-.072.151-.18.339-.225.518l-.141.012c-.046.003-.095.006-.145.006.075-.148.133-.315.207-.447.167-.297.29-.621.475-.907.05-.079-.07-.174-.132-.101-.245.285-.422.623-.62.94-.097.155-.234.33-.27.513-.09 0-.178.005-.264.015.139-.214.228-.487.34-.688.178-.317.413-.625.471-.992.036-.109-.155-.199-.2-.056-.12.381-.37.686-.562 1.033-.14.252-.36.539-.415.828h-.003c-.176-.02-.36.066-.424.291-.133.465-.591.918-.99 1.176-.46.296-.984.499-1.524.59-.556.092-1.126.05-1.648-.165-.29-.12-.566-.28-.823-.458-.24-.166-.416-.422-.716-.474-.088-.014-.173.016-.225.075-.047.029-.09.07-.128.128-.331.517-.622 1.056-.9 1.602-.881.815-1.774 1.622-2.643 2.45-.812.772-1.673 1.624-2.263 2.58-.048.08.058.15.123.095.876-.75 1.568-1.713 2.404-2.51.667-.635 1.343-1.261 2.018-1.887-.252.51-.502 1.022-.771 1.524-.014.007-.029.016-.042.028-.571.566-1.13 1.144-1.687 1.724-.272.283-.542.568-.814.85-.26.273-.557.537-.74.869-.041.076.044.169.123.122.305-.184.54-.465.782-.722l.858-.912c.328-.348.658-.694.99-1.037-.707 1.154-1.57 2.294-2.774 2.962-1.278.708-2.791.572-3.732-.613-.98-1.233-.99-3.008-.857-4.496.315-3.497 1.112-6.942 1.602-10.416.319-2.272.562-4.947 2.163-6.744.618-.694 1.396-1.155 2.248-1.402.01.02.03.035.062.046.07.024.126-.049.163-.096l.01-.013c.192-.046.388-.082.586-.108-.021.04-.038.084-.047.13-.024.112.13.234.216.124.072-.091.127-.194.19-.29.115-.008.231-.013.348-.014l-.019.021c-.093.12-.23.287-.152.444.046.09.178.078.227 0 .03-.047.038-.106.062-.156.037-.075.087-.143.136-.21l.072-.095c.081.003.161.008.243.014.078.006.155.015.232.023-.123.193-.247.385-.326.604-.069.19.24.276.306.084.078-.228.195-.437.303-.65.16.025.32.055.477.09-.105.106-.197.223-.286.341-.085.114-.223.263-.223.411 0 .089.105.156.184.105.116-.075.177-.233.253-.344.08-.12.167-.237.266-.342.034-.036.041-.077.032-.114.129.035.256.074.382.117-.098.158-.207.31-.294.474-.073.141-.213.342-.15.503.015.035.047.07.089.066.207-.015.252-.215.326-.38.088-.194.21-.372.312-.56.124.05.246.104.366.161-.168.173-.322.362-.455.563-.104.155-.306.412-.165.592.02.025.063.033.093.024.17-.05.234-.334.32-.472.13-.206.284-.396.454-.57l.006-.009c.092.05.183.101.272.155-.18.194-.34.409-.476.635-.107.174-.358.505-.224.71.02.03.06.052.096.04.211-.07.266-.385.364-.563.132-.242.287-.47.471-.675.17.115.334.239.492.371-.044 0-.09.019-.122.063-.16.218-.292.452-.43.685-.126.21-.327.421-.379.662-.012.057.04.132.106.105.239-.094.359-.334.485-.544.154-.255.296-.518.473-.76.018-.025.025-.05.026-.073.24.217.463.455.668.716.028.036.068.052.11.058.007.056.042.106.108.13-.051.08-.105.159-.157.239-.097.15-.219.314-.2.5.004.048.058.096.106.061.148-.107.222-.28.316-.433.062-.102.127-.203.188-.306.151.026.302.035.453.039-.081.142-.166.283-.239.43-.082.164-.204.367-.113.545.02.041.081.045.113.014.064-.063.073-.11.098-.195.039-.137.093-.267.155-.394.064-.134.133-.264.198-.397.17 0 .343.001.518.017l.226.019c-.19.189-.373.401-.484.645-.026.057-.018.104.02.151.116.147.23-.096.27-.17.104-.182.238-.342.384-.493.035-.037.039-.08.024-.116.38.028.761.05 1.141.067.087.005.175.006.262.008-.104.201-.231.393-.283.614-.042.18.228.256.28.077.07-.238.19-.455.278-.685.143 0 .287 0 .43-.003-.143.174-.274.399-.215.59.015.05.07.103.129.097.051.009.096-.018.113-.068.016-.029.022-.062.016-.1-.013-.094.063-.21.108-.286.05-.084.107-.166.172-.24.177-.005.353-.011.53-.02-.134.203-.319.39-.332.643-.008.143.216.172.251.034.06-.24.216-.418.325-.635.01-.018.013-.036.013-.054l.5-.027c-.167.18-.311.391-.353.632-.02.113.1.247.217.166.056-.039.097-.085.127-.146.016-.032.004-.065-.02-.08.07-.215.192-.393.352-.567l.017-.023.397-.021.134-.005c-.077.103-.146.216-.21.321-.084.14-.253.41-.063.537.057.039.157.015.188-.049.054-.117.08-.274.149-.412.067-.134.141-.284.241-.397l.01-.014c.21-.009.422-.016.634-.023-.211.271-.556.757-.216.843.062.015.114-.02.136-.077-.036.093.013-.027.019-.048.009-.033.006-.067.015-.101.02-.084.065-.161.108-.236.078-.134.17-.26.255-.39.22-.006.442-.011.663-.015-.153.217-.318.432-.399.686-.064.204.265.25.298.076.11-.273.263-.513.408-.768l.503-.006c-.125.265-.374.46-.463.746-.052.17.213.287.292.123-.027.055.025-.025.034-.04.01-.016.012-.034.01-.052.126-.254.304-.482.392-.753l.006-.027c.4-.003.8-.004 1.2-.005-.066.114-.172.215-.242.32-.074.112-.184.375.03.416.153.03.196-.205.26-.303.092-.14.212-.27.263-.433h.422c-.059.067-.113.137-.164.21-.106.152-.237.345-.24.537 0 .13.163.191.255.104.033-.031.044-.062.055-.098.128-.273.242-.55.48-.752h.197c-.158.175-.352.365-.338.6.004.06.043.128.109.14.028.006.05.008.078 0 .048-.011.092-.053.103-.102.056-.241.25-.42.381-.622l.008-.016h.385c-.032.068-.063.136-.092.205-.07.167-.164.337-.13.522.013.079.112.104.174.071.16-.086.221-.276.279-.437.055-.151.102-.305.157-.457.065-.061.103-.144.115-.233.415-.506.892-.918 1.42-1.244-.038.031-.073.066-.101.11-.017.027.016.056.042.042.14-.075.291-.158.412-.261.074-.064.144-.133.216-.198.195-.092.396-.175.603-.246l-.054.044c-.141.124-.31.244-.378.425-.01.027.022.058.05.049.18-.065.311-.226.452-.351.112-.1.227-.197.342-.295.066-.018.132-.035.199-.051-.254.218-.474.466-.306.564.067.04.124-.004.166-.057.065-.08.121-.161.195-.236.129-.13.266-.256.412-.37.167-.029.335-.051.505-.067-.216.18-.42.371-.51.637-.053.161.185.24.263.109.159-.316.416-.53.657-.772.213-.006.426 0 .638.015-.053.045-.105.088-.153.132-.137.126-.322.272-.375.458-.052.188.234.265.292.08.046-.143.246-.312.359-.427.067-.07.14-.137.21-.207.16.02.32.049.477.084-.106.098-.212.196-.315.298-.12.12-.466.406-.235.574.047.033.113.018.156-.014 0-.003.05-.057.063-.074.02-.03.04-.061.063-.09.076-.1.164-.192.25-.284.105-.113.213-.223.32-.333.157.044.311.096.463.155-.074.066-.148.133-.224.197-.144.122-.424.262-.455.46-.007.047.012.11.068.119.216.033.4-.183.546-.32.116-.11.229-.223.34-.338.137.063.271.134.402.211l-.112.1c-.168.147-.385.295-.477.506-.025.057.002.147.08.138.233-.023.383-.244.547-.39.073-.063.144-.127.216-.191.063.042.123.088.183.134-.206.207-.387.433-.582.651-.112.127-.37.3-.277.49.013.027.053.041.083.032.088-.026.108-.078.164-.15.072-.09.156-.17.225-.263.167-.225.329-.45.517-.657.104.086.204.175.3.267-.126.124-.291.204-.415.333-.123.13-.36.361-.35.55.003.048.04.09.09.09.243-.002.355-.34.499-.493.107-.113.227-.21.326-.326.085.09.165.183.243.278-.135.12-.27.238-.404.36-.178.16-.432.34-.463.59-.01.067.071.11.128.096.235-.057.412-.338.573-.506.107-.113.216-.224.325-.336.209.283.39.585.55.9-.15.137-.305.267-.455.404-.122.11-.368.274-.31.464.013.044.05.065.093.07.178.021.33-.241.44-.354.114-.118.23-.233.345-.35.049.108.096.217.141.328-.13.114-.258.23-.38.351-.115.114-.386.314-.323.498.008.025.028.053.056.056.2.03.345-.23.465-.356.093-.097.188-.192.285-.284.05.137.098.276.143.416-.199.16-.833.615-.575.76.02.01.031.012.052.015l.026-.003c-.032.004-.028.003.01-.002.043-.017.069-.042.09-.068.059-.073.125-.14.195-.203.09-.083.187-.16.281-.24.057.192.108.386.155.581l-.09.094c-.116.116-.293.232-.295.41 0 .043.039.08.083.08.162 0 .275-.145.378-.26.025.115.049.231.072.347-.164.155-.336.303-.365.537-.017.141.175.154.24.065.066-.089.125-.174.19-.258.094.508.168 1.013.238 1.499.482 3.318 1.136 6.613 1.573 9.937.21 1.6.423 3.345-.173 4.892zm1.195-3.03c-.101-1.956-.472-3.917-.8-5.846-.307-1.81-.628-3.617-.882-5.436-.353-2.528-.71-5.45-2.678-7.305-1.333-1.258-3.188-1.712-4.985-1.466-1.657.227-3.389.969-4.18 2.485-.023-.004-.047-.007-.072-.007-2.17 0-4.348-.023-6.516.08-.54.026-1.079.055-1.62.064-.564.01-1.13.077-1.694.066-.974-.02-1.899-.137-2.829.145-.007-.062-.037-.12-.088-.151-.643-1.433-2.085-2.21-3.581-2.556-1.651-.383-3.463-.219-4.9.724-2.33 1.53-2.948 4.431-3.326 6.995-.244 1.644-.482 3.286-.766 4.924-.342 1.966-.689 3.937-.923 5.92-.203 1.719-.3 3.562.502 5.157.704 1.402 2.194 2.287 3.779 2.05 1.771-.265 3.135-1.708 4.099-3.103 1.106-1.603 1.858-3.401 2.757-5.12.305.346.733.6 1.147.787.675.305 1.442.328 2.163.207 1.21-.2 2.704-1.018 3.049-2.288.232.058.49.06.698.054.5-.013 1-.028 1.501-.034.48-.005.962-.018 1.443-.022.34-.003.732-.07 1.077-.014.336 1.28 1.836 2.103 3.052 2.304.7.117 1.445.101 2.104-.18.434-.187.888-.451 1.207-.813.804 1.537 1.49 3.133 2.417 4.604.824 1.304 1.873 2.61 3.316 3.263 1.462.663 3.126.454 4.245-.748 1.172-1.258 1.37-3.102 1.284-4.74zM6.947 25.496c.391-.157.67-.528.97-.808.4-.371.795-.756 1.162-1.16.052-.058-.027-.135-.085-.084-.381.332-.762.664-1.137 1.004-.327.296-.703.587-.977.933-.037.047-.005.144.067.115zm8.855-11.325c.023.001.045-.013.056-.032-.031.055.024-.03.028-.042.008-.02.01-.04.016-.059.017-.045.047-.088.075-.128.056-.08.128-.154.174-.24.064-.117-.116-.222-.18-.104-.052.093-.493.585-.169.605zm1.84 9.72c-.311.542-.743 1.005-1.084 1.528-.328.503-.81 1.053-.982 1.632-.025.087.083.139.145.084.454-.398.76-1.07 1.073-1.578.327-.529.725-1.019.998-1.579.048-.099-.094-.185-.15-.087zm12.085-.453c-.273.488-.416 1.033-.61 1.555-.19.518-.508 1.069-.478 1.633.004.06.093.095.124.033.236-.469.43-.977.6-1.474.184-.542.279-1.135.53-1.651.052-.11-.105-.204-.166-.096zm2.692-11.594l.016-.013-.016.013zM29.05 23.125c-.014-.054-.084-.035-.09.012-.05.388-.323.748-.474 1.108-.135.327-.35.688-.293 1.051.008.044.076.061.104.028.265-.322.356-.814.504-1.196.125-.321.34-.649.249-1.003zm-16.653-8.959c.157-.124.26-.308.37-.472.114-.17.232-.338.346-.508.096-.14-.134-.273-.228-.133-.114.17-.232.34-.345.51-.11.164-.23.336-.26.534-.012.072.06.114.117.07zm4.213 10.737c.282-.417.397-1.002.796-1.326.054-.043-.015-.122-.071-.092-.423.23-.556.728-.808 1.104-.387.578-.797 1.138-1.114 1.762-.026.052.037.1.082.062.48-.412.767-.994 1.115-1.51zm6.596-10.666l.022-.01c.043-.018.061-.067.066-.11.098-.181.188-.352.335-.507.116-.122-.064-.3-.185-.184-.183.177-.372.406-.445.653-.037.128.101.204.207.158zM6.567 26.891c.63-.382 1.155-.984 1.693-1.48.484-.448.996-.859 1.393-1.389.051-.068-.062-.154-.118-.09-.447.507-.998.907-1.499 1.357-.528.474-1.15.927-1.574 1.498-.047.063.042.141.104.104zm28.532-12.65c.09-.02.131-.094.184-.162.066-.083.141-.155.22-.226.143-.129.29-.252.38-.425.071-.134-.13-.252-.205-.12-.104.184-.285.299-.439.437-.117.105-.32.287-.228.46.017.031.055.043.088.036zM6.07 28.563c1.293-1.177 2.36-2.594 3.774-3.64.11-.08.006-.264-.108-.183-.722.51-1.376 1.116-2 1.74-.62.624-1.322 1.24-1.763 2.009-.035.061.046.121.097.074zm3.926-1.484c-.785.766-1.604 1.496-2.373 2.279-.696.71-1.46 1.435-2.02 2.259-.048.069.046.164.116.116.82-.562 1.438-1.448 2.123-2.158.763-.789 1.57-1.53 2.345-2.306.122-.123-.067-.311-.191-.19zm.156-1.44c-1.714 1.563-3.505 3.06-4.892 4.936-.044.059.043.146.102.102.894-.664 1.564-1.606 2.336-2.4.835-.859 1.762-1.635 2.633-2.46.118-.111-.06-.286-.179-.177z" transform="translate(0 -10)"/>
    </g>
</svg>
