<svg xmlns="http://www.w3.org/2000/svg" width="36" height="36" viewBox="0 0 36 36">
    <g fill="none" fill-rule="evenodd">
        <path d="M0 0H40V40H0z" transform="translate(0 -2)"/>
        <path fill="#FFEBC8" d="M8.09 36.732v-.006l-.007-.007.007.013zm18.427-8.489h-.006c.018.018.035.033.05.042-.016-.013-.03-.027-.044-.042zm8.54-13.956c-.039-.01-.082-.001-.12.034-.304.294-.634.557-.933.857-.208.208-.576.54-.55.863.005.071.083.135.152.088.121-.084.178-.2.263-.32.125-.175.269-.335.418-.489.241-.245.499-.473.744-.713-.007.082-.011.162-.015.238-.006.136-.01.271-.014.406-.295.438-.696.787-1.034 1.192-.227.271-.64.658-.572 1.045.014.078.109.082.158.042.168-.135.254-.37.382-.544.14-.19.287-.38.439-.56.205-.245.422-.473.617-.721-.006.383-.007.766-.01 1.15v.154c-.13.153-.258.31-.383.47-.26.336-.628.69-.796 1.083-.038.088.043.195.138.14.35-.204.587-.631.823-.95l.218-.292v.724c-.019-.048-.076-.085-.127-.052-.383.247-.742.52-1.072.835-.274.262-.712.654-.783 1.044-.013.07.06.148.129.1.167-.115.26-.284.386-.444.142-.18.295-.35.453-.515.305-.32.644-.61.991-.883.011-.008.018-.018.022-.028l.002.866c-.033-.006-.07.001-.1.032-.4.38-.87.714-1.232 1.128-.127.145-.228.31-.357.454-.133.147-.303.26-.42.42-.042.058.016.13.076.133.377.02.627-.417.83-.68.347-.448.804-.817 1.204-1.221 0 .292 0 .583.002.876-.312.305-.647.584-.985.86-.348.285-.847.572-1.062.978-.034.063.023.166.102.134.42-.172.778-.575 1.124-.863.285-.238.56-.484.821-.746l.002.976c-.37.337-.781.623-1.186.92-.358.262-.928.582-1.07 1.024-.02.059.045.131.106.107.228-.09.391-.283.576-.44.233-.197.476-.38.72-.563.294-.221.583-.447.854-.694v.915c-.366.306-.752.593-1.126.885-.324.252-.868.57-.935 1.006-.012.08.06.147.137.106.198-.105.335-.299.498-.45.193-.178.401-.338.602-.507.277-.232.555-.465.824-.708v.879c-.435.266-.822.598-1.2.94-.215.197-.431.395-.66.576-.2.16-.444.284-.591.498-.037.052.011.142.077.135.461-.05.894-.552 1.218-.853.376-.35.74-.71 1.156-1.007 0 .292-.001.585-.004.878-.54.34-1.055.716-1.55 1.117-.262.212-.518.432-.77.655-.238.211-.505.42-.669.696-.051.086.048.172.13.13.267-.135.483-.367.706-.568.235-.21.473-.419.714-.622.462-.388.936-.757 1.434-1.094-.006.38-.016.76-.033 1.138-.356.322-.769.583-1.152.87-.365.27-.809.534-1.112.873-.066.073.001.17.091.157.437-.065.874-.522 1.212-.78.31-.237.638-.466.94-.722-.017.28-.038.558-.065.836l-.007.065c-.271.253-.558.489-.861.704-.24.172-.507.317-.747.492-.618.057-1.254.023-1.87.02-.917-.005-1.834-.003-2.749.072-.054-.894-.112-1.79-.178-2.685-.032-.424-.074-.802-.142-1.207.115-.082.173-.221.173-.36 0-.218-.138-.434-.416-.434H28h-.002c-2.345 0-4.69.008-7.036.019-3.375.014-6.76-.032-10.134.07-.582.017-1.163.033-1.744.076-.163.013-.327.025-.49.04l-.068.007c.014-.001.045-.004-.002.003-.047.006-.094.01-.14.019-.202.04-.389.2-.584.218-.174.017-.243.192-.171.313l.001.031c.122.81-.024 1.7-.095 2.52-.04.459-.082.917-.125 1.375-1.5-.124-3.001-.005-4.503-.09-.734-.04-1.586-.208-1.752-1.036l-.006-.023c0-.006 0-.012-.002-.023l-.018-.168c-.013-.14-.024-.28-.033-.42-.024-.358-.038-.717-.05-1.076-.029-.922-.038-1.845-.043-2.768-.011-2.058.005-4.117.003-6.176 0-.758-.001-1.517-.021-2.275-.011-.404-.042-.806-.07-1.21-.05-.71-.118-1.534.258-2.173.56-.951 2.05-.9 3.085-.894-.08.083-.153.161-.22.226-.266.257-.91.72-.859 1.146.008.068.074.094.128.053.16-.126.249-.361.385-.518.138-.159.293-.303.443-.45.143-.139.285-.305.439-.457.218-.003.437-.004.656-.005-.15.131-.302.262-.456.391-.31.26-.616.523-.888.824-.246.273-.56.488-.752.808-.032.053.031.112.083.083.578-.322.967-.868 1.456-1.301.255-.227.508-.456.762-.684l.143-.124c.192-.002.385-.006.577-.013-.325.307-.67.592-.993.9-.342.326-.667.67-.99 1.016-.304.326-.715.661-.924 1.058-.04.076.04.157.115.116.361-.195.642-.59.917-.889.307-.334.611-.671.93-.993.322-.322.67-.613.991-.936.085-.086.173-.185.264-.283.268-.017.55-.052.802-.15l.005.165c-.265.146-.51.385-.728.58-.361.324-.701.672-1.06 1-.716.65-1.495 1.306-2.082 2.079-.039.05.035.116.084.084.771-.488 1.389-1.218 2.053-1.84.327-.307.65-.613.966-.933.15-.152.309-.292.468-.434.106-.094.2-.201.306-.291l.019.582c.01.366-.002.743.002 1.12-.316.323-.756.546-1.092.842-.338.3-.72.582-1.066.893-.035.006-.072.011-.107.018-.139.024-.204.16-.208.288-.055.058-.109.118-.16.18-.066.078.016.189.11.142.029-.014.057-.03.084-.044.064.431.108.868.172 1.299.031.214.324.131.345-.047.048-.402-.019-.81-.005-1.21.697.067 1.411.022 2.108.017.84-.006 1.682.01 2.521-.02.89-.032 1.776-.08 2.667-.064.858.015 1.715.041 2.574.045 3.482.012 6.962-.011 10.443.044.985.016 1.963.049 2.946.11.117.007.523-.037.605.04.013.013.007.06.013.085.046.215-.096.504-.197.683-.283.497.479.945.761.449.262-.46.461-1.122.2-1.625-.126-.244-.346-.404-.612-.463l-.045-.008c.25-.239.452-.571.658-.828.298-.371.608-.73.91-1.097.288-.352.579-.7.884-1.038.182-.202.412-.38.536-.625.43.01.86.044 1.263.144-.021.003-.043.015-.059.038-.403.602-.98 1-1.438 1.541-.215.254-.427.509-.649.757-.194.217-.431.426-.542.7-.028.072.065.13.124.096.258-.151.452-.428.65-.65.238-.266.446-.56.687-.821.465-.505.95-.945 1.313-1.538.026-.042.011-.082-.02-.104.163.043.32.096.472.165.059.027.113.057.166.088-.251.406-.652.667-.986.997-.175.174-.322.379-.478.571-.146.183-.315.359-.376.589-.018.068.055.12.114.089.436-.231.69-.82 1.044-1.163.307-.298.642-.586.856-.962.765.618.655 1.815.57 2.807zM34.05 29.024l.192-.144c.17-.125.334-.255.494-.392-.14.27-.4.434-.686.536zM22.394 30.9c-.667-.004-1.335 0-2.003.01.838-.721 1.607-1.546 2.394-2.308.144-.14.29-.277.437-.413.248.002.496.006.743.012.378.009.755.032 1.133.038-.447.423-.89.85-1.318 1.292-.452.464-.918.917-1.386 1.369zm5.38-1.83c.048 1.374.118 2.747.185 4.12-.02.004-.04.014-.06.033-.426.42-.897.81-1.354 1.211-.044-.099-.13-.18-.268-.214-.454-.114-.919-.092-1.381-.107-.121-.004-.242-.007-.363-.008.275-.256.549-.514.821-.764.835-.766 1.792-1.486 2.445-2.423.077-.111-.102-.213-.18-.106-.339.473-.764.867-1.202 1.246-.434.376-.858.765-1.292 1.14-.348.301-.7.602-1.048.905-.25.002-.497.006-.746.01-.417.008-.835.015-1.253.021.842-.739 1.624-1.565 2.41-2.358.61.02 1.235-.009 1.837.094.514.087.712-.608.216-.791-.411-.152-.85-.126-1.283-.125.549-.609 1.095-1.223 1.758-1.703.093-.067.005-.224-.092-.157-.738.52-1.343 1.197-1.963 1.853-.02 0-.038-.001-.056-.003-.527-.036-1.055-.028-1.582-.035-.17-.003-.339-.003-.508-.005.37-.384.732-.771 1.094-1.152.489-.514.992-1.014 1.498-1.511.078 0 .156-.003.234-.006.182-.007.363-.016.545-.015.09 0 .186.014.276.008h.037c-.021-.021-.045-.054-.07-.105.02.042.045.076.073.106.081.007.073.054.026.025.296.257.841-.128.626-.558-.152-.303-.567-.317-.864-.321.426-.419.849-.84 1.264-1.27.06-.06-.032-.152-.093-.093-.473.462-.956.914-1.44 1.364-.275.005-.549.023-.824.018l-1.084-.014.282-.255c.544-.493 1.092-1.024 1.678-1.465.086-.066.003-.214-.086-.15-.537.395-1.044.86-1.543 1.301-.214.19-.43.377-.646.565-.736-.008-1.473-.017-2.21-.03l.03-.03c.63-.633 1.294-1.23 1.932-1.853l1.262-.004c.973-.003 1.945-.004 2.918-.004-.02.25-.03.503-.033.754-.01.951.043 1.91.076 2.86zm-8.318 7.71c-1.495.07-2.99.104-4.486.136-1.458.03-2.906.225-4.364.245-.657.01-1.333.007-1.976-.153-.233-.059-.393-.153-.564-.308v.003c.028.03.026.036.006.012l-.006-.009v.004c-.002.036-.006.013-.01-.018l.006.007-.001-.003-.006-.006-.008-.046c-.053-.246-.06-.288-.077-.57-.02-.304-.027-.608-.029-.911-.011-1.646.12-3.288.217-4.93.045-.768.084-1.537.112-2.307.008-.223.013-.447.015-.67.004-.319.016-.632-.02-.948-.032-.282-.108-.54-.207-.798.282.025.592-.014.864-.007.47.012.94.022 1.41.025 1.521.008 3.044-.017 4.566-.027 2.353-.014 4.707-.025 7.06-.033-.319.274-.672.487-1.01.739-.352.262-.667.549-1.056.76-.046.026-.014.096.036.084.42-.098.704-.408 1.03-.67.387-.312.8-.566 1.161-.913l1.199-.004c-.606.547-1.223 1.083-1.803 1.658l-.22.22c-1.346-.025-2.69-.073-4.036-.052-1.313.02-2.622.101-3.937.11-.727.005-1.447.039-2.17.106-.53.05-1.442-.096-1.821.366-.053.066-.04.17.05.195.231.062.467.03.703.045.295.02.588.092.883.094.613.003 1.228-.041 1.842-.039 1.225.003 2.442-.015 3.665-.04 1.268-.025 2.535.007 3.802.036l.196.003c-.449.454-.895.911-1.335 1.373-.043.044.015.129.068.09.578-.428 1.088-.937 1.588-1.457.699.01 1.398.009 2.096.013l-.127.116c-.92.854-1.868 1.711-2.746 2.617l-.262.005c-2.288.06-4.573.229-6.862.256-.598.008-1.194.064-1.793.033-.547-.028-1.107-.028-1.645.089-.182.04-.156.294 0 .346.196.066.348.146.557.167.26.026.524.035.786.058.543.047 1.074.082 1.62.081 1.091-.002 2.176-.023 3.267-.065 1.942-.075 3.887-.126 5.831-.132-.45.443-.891.893-1.312 1.361-.05.055.017.16.084.11.59-.447 1.147-.948 1.685-1.472h.623c.517.004 1.035.002 1.553.012-.804.775-1.656 1.525-2.382 2.371l-1.92.027c-1.132.017-2.26.046-3.392.084-1.1.038-2.207.001-3.306.084-.61.047-1.197.12-1.807.041-.588-.077-1.209-.1-1.794.005-.14.026-.165.247-.04.31.454.23.954.257 1.448.335.548.086 1.037.164 1.597.125 1.089-.075 2.173-.06 3.264-.078 2.273-.036 4.545-.097 6.819-.104.158 0 .316-.003.473-.005-.306.279-.607.563-.899.854-.063.064.02.181.1.129.445-.299.87-.636 1.282-.991.276-.005.553-.008.83-.005.48.006 1.011-.026 1.49.067-.24.233-.467.476-.673.737-.06.076.03.166.106.107.34-.269.673-.552 1.002-.844.059-.03.107-.076.145-.13.509-.46 1.004-.938 1.481-1.42.032.671.064 1.341.091 2.012.015.372.038.744.053 1.116.004.087.008.174.01.261-2.895-.188-5.771-.211-8.67-.075zM7.535 14.41c-.595.013-1.186.044-1.775.113.238-.217.467-.445.693-.648.272-.246.59-.45.855-.704.02.426.074.846.227 1.238zM7.69 3.91c.043-.28.131-.555.367-.729.306-.225.712-.282 1.08-.31.82-.062 1.642-.032 2.465-.014 1.028.024 2.055.012 3.083.02 2.197.016 4.393.066 6.59.105.6.01 1.202.024 1.802.03-.108.076-.215.155-.32.236-.289.224-.617.435-.866.705-.034.037 0 .114.054.092.314-.124.571-.376.83-.586.188-.152.375-.304.568-.446l.248.002c.409 0 .818-.007 1.226-.02-.332.22-.65.467-.962.718-.355.284-.696.584-1.042.879-.351.298-.758.563-1.07.903-.061.067.015.151.09.119.378-.161.702-.467 1.013-.73.33-.278.652-.564.98-.845.317-.272.645-.529.973-.786.122-.095.26-.179.384-.273.28-.01.558-.023.838-.037.25-.012.55-.04.85-.04-.29.218-.565.453-.84.694-.45.395-.935.747-1.395 1.13-.47.39-.928.792-1.382 1.199-.47.42-.987.831-1.382 1.324-.055.068.015.186.1.13.503-.324.937-.777 1.378-1.178.436-.396.874-.79 1.322-1.172.443-.377.92-.718 1.347-1.114.366-.34.726-.688 1.113-1.004.343.025.671.103.912.306.125.105.192.25.228.405-.238.137-.43.315-.635.5-.273.245-.565.47-.85.7-.585.475-1.16.96-1.747 1.434-.573.462-1.141.93-1.69 1.421-.523.47-1.104.957-1.488 1.554-.052.08.059.148.124.096.551-.442 1.025-.99 1.55-1.462.533-.477 1.083-.935 1.635-1.39.534-.439 1.063-.882 1.59-1.329.282-.237.563-.476.84-.72.237-.21.441-.449.7-.629.01.094.011.19.01.279-.004.47-.034.942-.085 1.41l-.025.231c-.166.112-.286.26-.438.396-.231.207-.497.382-.736.582-.519.434-1.052.848-1.572 1.28-.517.43-1.026.87-1.54 1.304-.5.42-1.062.807-1.51 1.282-.072.076.018.187.108.141.552-.28 1.036-.742 1.505-1.141.496-.422.984-.854 1.48-1.276.499-.424 1.018-.824 1.51-1.256.255-.225.519-.438.776-.66.14-.123.253-.27.387-.397-.099.854-.204 1.703-.224 2.566-.008.333-.008.666-.005.999-.73.704-1.612 1.21-2.403 1.836-.863.684-1.884 1.316-2.591 2.171-.056.069.014.18.098.13.45-.269.858-.618 1.268-.943.464-.366.93-.728 1.393-1.095.746-.593 1.544-1.108 2.24-1.762.009.545.025 1.09.035 1.634-.01.01-.02.023-.025.04-.09.251-.425.423-.632.564-.2.138-.396.285-.598.422-.68.464-1.316.966-1.886 1.564-.05.052.014.142.078.102.387-.238.741-.513 1.098-.795.336-.265.695-.5 1.03-.764.273-.214.709-.44.942-.752.006.455.007.912-.008 1.367-.012.393-.054.787-.064 1.18-1.839-.112-3.702-.127-5.544-.122-1.882.005-3.763.045-5.646.033-1.853-.013-3.72-.104-5.57-.025-1.06.046-2.114.068-3.173.078h-.017c.022-1.717.105-3.431.031-5.15-.039-.915-.107-1.827-.185-2.738-.073-.84-.254-1.763-.123-2.603zm21.068 10.075c.156-.15.268-.358.383-.535.21-.326.425-.639.664-.944.417-.533.837-1.065 1.292-1.566.359.004.738-.006 1.12 0-.203.27-.53.486-.756.722-.295.309-.571.635-.852.957-.289.33-.575.663-.854 1.002-.22.267-.512.548-.665.868-.12-.013-.242-.02-.365-.025l.033-.48zm.053-1.059c.009-.003.016-.008.023-.016.155-.203.231-.462.384-.675.167-.234.363-.444.536-.672.153-.202.347-.405.517-.622l.561-.002c-.438.456-.848.94-1.247 1.432-.198.244-.387.488-.56.75-.072.11-.155.223-.236.338.01-.178.016-.355.022-.533zm.611-2.022c.192.021.387.03.583.035-.185.22-.382.432-.564.646-.161.19-.452.47-.617.764.002-.184.002-.369-.001-.554-.005-.334-.013-.668-.022-1.002.2.062.412.088.621.111zm6.013.356c-.824-1.146-2.431-1.132-3.694-1.114-.364.006-.729.018-1.092.032l.001-.012c.008-.056-.07-.105-.1-.042l-.03.059-.72.027c-.349.011-.675.081-1.009.139-.011-.493-.02-.985-.014-1.478.01-.97.105-1.924.226-2.885.1-.8.244-1.684.095-2.485-.33-1.785-2.637-1.414-3.937-1.363-1.022.04-2.042.031-3.065.014-2.312-.04-4.622-.093-6.934-.117-.997-.01-1.994.007-2.991-.009-.907-.015-1.813-.05-2.72-.005-.729.036-1.567.119-2.1.686-.615.655-.535 1.701-.464 2.526.094 1.077.209 2.151.277 3.23.04.631.067 1.262.089 1.894l-.17-.034c-.015-.033-.048-.058-.088-.042l-.038.017c-.182-.037-.365-.07-.555-.081-.583-.034-1.17-.047-1.753-.063-1.105-.032-2.334-.092-3.34.446-1.468.783-1.341 2.676-1.275 4.102.032.676.036 1.352.04 2.029.008 2.138-.013 4.276-.007 6.415.005 1.657-.055 3.358.152 5.006.046.364.118.67.34.98.398.558 1.044.822 1.7.922.713.11 1.44.081 2.158.076.971-.009 1.942-.017 2.91.057-.137 1.601-.232 3.217-.235 4.822-.002.58-.007 1.189.127 1.756.21.887 1.163 1.03 1.933 1.144 1.425.212 2.91-.004 4.34-.1 1.528-.102 3.065-.094 4.597-.147 1.723-.06 3.44-.177 5.166-.17 1.697.009 3.392.086 5.085.202.033.008.068.013.107.013h.09c.305 0 .431-.259.385-.487.135-.34.039-.934.034-1.186-.02-.944-.075-1.888-.119-2.83-.047-1.007-.1-2.012-.157-3.018 1.533-.105 3.072.049 4.6-.079 1.002-.083 2.16-.463 2.427-1.576.137-.57.134-1.196.156-1.78.037-.95.047-1.902.052-2.853.014-2.178-.006-4.355-.004-6.533 0-.768 0-1.536.025-2.303.04-1.238.27-2.73-.501-3.802zM8.082 36.72l.009.008c-.001-.043-.016-.034-.009-.008zM33.794 14.12c-.229.245-.563.558-.608.906-.01.075.092.126.15.087.3-.201.49-.605.732-.878.271-.305.563-.591.846-.885.106-.11-.057-.274-.166-.168-.32.31-.65.61-.954.938zm.686-1.682c-.346.337-.66.684-.962 1.06-.12.149-.235.302-.355.451-.104.128-.243.22-.302.376-.023.062.036.11.089.117.316.038.555-.464.718-.675.313-.405.622-.792.977-1.162.104-.11-.057-.272-.165-.167zm-11.902-.046c.508-.254.942-.645 1.377-1.002.468-.385.934-.77 1.407-1.149.877-.703 1.6-1.607 2.525-2.248.089-.062.008-.208-.086-.149-.949.593-1.687 1.445-2.568 2.124-.455.351-.898.716-1.345 1.079-.477.388-.997.754-1.411 1.212-.066.072.016.175.101.133zm-17.23 1.556c.574-.613 1.223-1.154 1.808-1.759.094-.096-.05-.24-.146-.147-.58.559-1.24 1.035-1.796 1.619-.226.237-.447.481-.682.711-.258.251-.558.465-.792.738-.046.053-.003.14.07.122.629-.167 1.112-.83 1.538-1.284z" transform="translate(0 -2)"/>
    </g>
</svg>
