<svg xmlns="http://www.w3.org/2000/svg" width="40" height="35" viewBox="0 0 40 35">
    <g fill="none" fill-rule="evenodd">
        <path d="M0 0H40V40H0z" transform="translate(0 -3)"/>
        <path fill="#FFEBC8" d="M31.552 21.84c.025-.194.147-.16.301-.138l-.062.09c-.075.103-.166.21-.253.32-.001-.102.005-.198.014-.272zm.052.606c.065-.076.138-.146.208-.209-.067.068-.135.144-.208.21zm.514-.68c.01-.017.022-.038.033-.061.055-.004.11-.009.166-.016.025.001.049.002.072.006l.02.003c-.134.17-.264.348-.393.516-.113.145-.297.327-.375.52-.003-.01-.008-.026-.017-.047-.013-.03-.024-.062-.033-.098.085-.114.158-.245.233-.362l.072-.065c.002-.002 0-.003-.001-.002-.024.02-.046.04-.07.064l.068-.104c.081-.115.153-.234.225-.354zm.475.841c-.045.178-.395.124-.568.124l.009-.011-.023.011-.028.002.068-.038c.062-.088.117-.18.17-.25.123-.167.241-.339.36-.51-.003.107-.04.224-.037.323.003.102.074.25.049.35zm-1.613.57c.243.394.682.344 1.08.333.439-.012.972-.03 1.212-.465.117-.212.096-.441.063-.671-.035-.238 0-.487-.056-.722-.08-.339-.31-.514-.596-.577-.118-.082-.26-.107-.433-.106-.202 0-.409-.017-.61-.01-.453.016-.75.29-.825.729-.047.278-.003.545.022.822.02.23.017.464.143.667zm1.613 10.336c-.038.149-.291.134-.474.126l.068-.128c.133-.248.248-.505.378-.755l.006-.014.003.012c.03.125-.034.282-.03.41.003.102.074.25.049.35zm-.6-.171c-.062.103-.136.208-.198.317-.039.002-.076.002-.104-.007-.028-.008-.042-.008-.048-.004-.002-.01-.007-.027-.02-.055-.012-.028-.022-.06-.032-.094.053-.104.105-.206.164-.291.142-.205.314-.385.435-.601.043-.004.085-.007.127-.012.025.001.049.002.072.006.036.005.064.01.085.015-.027 0-.054.014-.072.045-.135.228-.275.453-.41.68zm-.44-.597c.03-.234.203-.134.402-.128-.131.166-.286.314-.416.483-.004-.133.001-.261.013-.355zm1.726-.187c-.08-.339-.31-.514-.596-.577-.118-.082-.26-.107-.433-.106-.202 0-.409-.017-.61-.01-.453.016-.75.29-.825.73-.047.277-.003.544.022.821.02.23.017.464.143.668.243.393.682.343 1.08.332.439-.013.972-.03 1.212-.465.117-.212.096-.441.063-.67-.035-.239 0-.488-.056-.723zm-12.267-7.083c.031-.24.213-.128.418-.128l.033-.001c-.16.157-.313.32-.463.487-.005-.134 0-.264.012-.358zm.728-.147l.038-.003c.024 0 .048.001.072.005.15.023.153.024.183.146-.148.132-.296.261-.426.413-.128.149-.32.313-.384.5-.026 0-.051-.001-.072-.008-.028-.008-.042-.007-.048-.003-.002-.01-.007-.027-.02-.056-.017-.04-.031-.089-.043-.141.096-.132.203-.253.31-.376.134-.155.261-.316.39-.477zm.313.915c-.038.153-.309.133-.493.125.084-.08.153-.184.215-.268.074-.099.154-.193.234-.288-.003.028-.006.056-.005.081.002.102.074.251.05.35zm-1.612.57c.242.394.682.343 1.079.332.439-.012.971-.03 1.212-.465.117-.212.096-.441.063-.67-.034-.238 0-.488-.055-.722-.08-.34-.31-.515-.596-.578-.118-.082-.26-.106-.434-.106-.202 0-.408-.016-.61-.01-.453.016-.749.291-.824.73-.047.277-.004.545.021.822.02.23.018.463.144.667zm-2.942-4.973c.022-.172.12-.164.25-.145-.086.097-.176.192-.262.29.003-.054.007-.103.012-.145zm.766-.15c.024 0 .048 0 .071.005l.007.001c-.191.143-.365.324-.539.478-.103.09-.199.188-.293.288-.005-.032-.01-.065-.013-.1.052-.08.109-.156.166-.231.107-.14.217-.277.317-.421.094-.003.188-.01.284-.02zm.256.158c.03.125-.034.283-.03.41.003.102.075.25.05.35-.036.14-.263.135-.442.127.162-.15.295-.362.384-.54.033-.066-.05-.138-.106-.081-.181.18-.461.37-.533.629-.068.009-.139.017-.192.006.11-.124.211-.261.305-.354.113-.11.232-.211.341-.324.076-.078.145-.165.217-.249l.006.026zm-1.594 1.33c.243.393.682.343 1.08.332.439-.012.971-.03 1.212-.465.117-.212.096-.441.063-.671-.035-.238 0-.487-.056-.722-.08-.339-.309-.514-.596-.577-.118-.082-.26-.107-.433-.106-.202 0-.409-.017-.61-.01-.454.016-.75.29-.824.729-.048.278-.004.545.02.822.022.23.018.464.144.667zM8 33.512c-.03.123-.21.135-.375.13.04-.052.079-.106.118-.155.07-.084.144-.166.22-.247.019.091.056.196.037.272zm-.67.132c-.062.008-.131.018-.187.014.007-.008.012-.017.02-.025.093-.114.204-.214.305-.322.177-.191.355-.38.505-.591l.008.033c.012.048.01.1.002.154l-.02.015c-.147.143-.292.288-.426.444-.074.086-.156.176-.207.278zm-.342-.19c-.008-.036-.016-.075-.021-.116.011-.03.022-.06.04-.09.052-.095.126-.177.186-.267.062-.093.12-.188.19-.275l.071-.092c.09-.003.18-.009.27-.02.025.001.05.002.073.006.004 0 .007 0 .01.002-.177.235-.394.444-.604.65-.056.055-.14.125-.215.203zm-.029-.71c.023-.172.122-.163.253-.144-.068.084-.13.172-.184.25-.022.032-.051.07-.083.109.002-.08.007-.155.014-.215zm1.728-.187c-.08-.339-.31-.514-.596-.577-.119-.082-.26-.107-.434-.106-.203 0-.408-.017-.61-.01-.453.016-.75.29-.824.73-.047.277-.004.544.021.821.02.23.018.464.144.668.242.393.681.343 1.079.332.439-.013.971-.03 1.212-.465.118-.212.097-.441.063-.67-.034-.239 0-.488-.055-.723zm1.786-7.083c.027-.214.175-.149.352-.132-.03.04-.059.077-.09.109-.08.079-.2.184-.277.298 0-.104.005-.2.015-.275zm.64-.139c.041-.003.083-.006.125-.011h.014c-.138.158-.259.33-.399.489-.116.131-.252.257-.343.405-.015-.057-.027-.122-.035-.19l.011-.001c.187-.027.34-.323.454-.46.06-.07.118-.149.172-.232zm.382.148c.03.124-.035.282-.031.41.003.101.075.25.05.349-.046.181-.414.12-.582.124-.056.001-.134.016-.206.021.3-.278.489-.68.73-1.01.017.019.026.05.039.106zM9.9 26.813c.243.394.681.343 1.08.332.438-.012.97-.03 1.211-.465.118-.212.096-.441.063-.67-.034-.238 0-.488-.055-.722-.08-.34-.31-.515-.596-.578-.119-.082-.26-.106-.434-.106-.202 0-.408-.016-.61-.01-.453.016-.75.291-.823.73-.048.277-.005.545.02.822.021.23.018.463.144.667zm11.111 2.297c.025-.19.144-.16.293-.138l-.057.048c-.089.078-.169.163-.248.25.002-.058.006-.114.012-.16zm.56-.133c.069-.003.137-.009.206-.017l.022.001c-.143.14-.292.275-.428.423-.103.112-.237.24-.343.379-.01-.053-.017-.111-.022-.169.125-.112.226-.28.33-.388.074-.08.158-.15.234-.229zm.462.142c.02.079 0 .17-.014.26-.11.107-.227.208-.332.317-.084.088-.212.197-.297.313-.081.01-.177.026-.24.008.164-.141.288-.357.417-.509.142-.168.29-.329.423-.502.02.02.029.051.043.113zm.02.759c-.027.106-.163.129-.304.13.046-.059.088-.118.128-.166l.152-.174c.019.074.038.15.023.21zm-1.613.57c.242.394.682.343 1.079.333.439-.013.971-.031 1.212-.465.117-.213.096-.442.063-.671-.034-.238 0-.487-.055-.722-.08-.34-.31-.514-.596-.578-.118-.081-.26-.106-.434-.105-.202 0-.408-.017-.61-.01-.453.015-.749.29-.824.73-.047.276-.004.544.021.821.02.23.018.464.144.667zm15.666 3.065c-.028.11-.175.131-.324.13.04-.054.077-.112.112-.168.057-.086.112-.174.167-.261.017.097.066.215.045.3zm-.632.128c-.088.01-.2.032-.27.011.05-.086.093-.178.137-.26.149-.272.299-.553.493-.797.022.002.045.002.068.006.152.023.153.023.184.153l.003.02-.001.002c-.124.171-.243.346-.367.517-.08.11-.185.222-.247.348zm-.41-.896c.031-.24.213-.128.418-.127.025 0 .049-.002.073-.003-.121.154-.23.319-.337.484-.043.066-.096.14-.15.217-.025-.199-.022-.426-.004-.57zm1.727-.187c-.08-.339-.309-.514-.596-.577-.117-.082-.26-.107-.433-.106-.202 0-.408-.017-.61-.01-.454.016-.749.29-.824.73-.047.277-.004.544.021.821.021.23.017.464.144.668.242.393.68.343 1.08.332.438-.013.97-.03 1.21-.465.118-.212.097-.441.064-.67-.034-.239 0-.488-.056-.723zm-28.31-4.125l-.02-.01c-.053-.037.278.136.02.01zm-.134 1.49h-.002l-.038.005c-.061.007-.123.011-.185.016-.171.013-.342.022-.514.03.11-.072.208-.163.308-.255.132-.121.261-.243.39-.367-.005.13 0 .247.02.376.01.06.012.132.025.193v.001l-.004.001zm-.971.06c-.177.007-.353.013-.53.017.023-.035.047-.067.073-.095.105-.112.222-.214.334-.319.128-.12.247-.251.376-.372.066-.06.137-.115.195-.18.051.003.103.005.153.01.064.003.127.009.19.014l.043.005c-.167.164-.336.325-.51.482-.143.131-.296.243-.324.439zm-.858.023c-.351.004-.702.003-1.053.001.066-.053.114-.122.179-.194.122-.133.25-.26.372-.393.134-.147.296-.286.433-.439h.011l.455.013c-.102.1-.204.201-.304.304-.168.172-.466.385-.472.64 0 .038.042.075.08.06.238-.09.417-.394.592-.575.135-.14.274-.28.414-.418l.308.013c-.066.05-.133.095-.188.144-.144.125-.281.258-.423.386-.12.109-.342.276-.404.458zm-1.812-.004c.038-.044.07-.094.115-.143.106-.114.23-.209.337-.32.18-.191.39-.368.56-.571.162.002.325.004.486.008-.144.13-.303.25-.432.381-.177.18-.49.385-.518.649l-.548-.004zM4.49 30h-.452l.01-.013c.146-.16.298-.323.448-.48.159-.166.396-.337.554-.537l.435-.004c-.183.186-.399.36-.582.52-.131.112-.433.31-.413.514zm-.752 0c-.1 0-.201.003-.302.006.114-.124.21-.276.306-.395.177-.217.356-.43.549-.633l.498-.005c-.174.15-.364.287-.52.446-.16.16-.438.354-.531.581zm-.614.028c-.019.002-.033.002-.036 0-.033-.024-.052-.132-.066-.26.11-.117.197-.271.29-.379.09-.102.196-.19.284-.293.03-.035.056-.072.082-.108l.34-.005c-.15.15-.297.307-.437.468-.142.164-.365.362-.457.577zM3 29.236c.005-.318.06-.27.338-.254l.097.005c-.103.093-.21.182-.304.284l-.13.134v-.169zm6.066-.218c-.065-.532-.445-.67-.876-.703-.077-.021-.156-.038-.236-.048-.356-.043-.724-.03-1.08-.035-.885-.014-1.77-.003-2.654.005-.244.002-.49.013-.733.006-.41-.01-.857-.062-1.104.347-.156.258-.158.602-.132.89.025.283.016.654.153.91.198.368.571.407.949.398 1.558-.039 3.12.033 4.675-.069.232-.015.52-.008.73-.124.224-.126.348-.381.36-.627.009-.154-.036-.293-.049-.444-.014-.168.017-.337-.003-.506zm2.448.86c-.046.181-.414.12-.582.124-.038 0-.087.008-.136.014.072-.081.138-.17.203-.247.169-.199.336-.4.503-.6.007.115-.04.248-.038.36.003.102.075.25.05.349zm-.985.039c-.015-.042-.027-.09-.037-.141.138-.127.263-.29.378-.399.142-.136.286-.269.418-.413l.022.001c.08.012.118.02.14.04l-.009.005c-.218.183-.417.383-.612.59-.092.099-.21.202-.3.317zm-.056-.807c.03-.24.212-.128.418-.127l.067-.003c-.087.076-.172.152-.257.229-.069.06-.155.127-.242.2-.002-.113.004-.219.014-.299zm1.782.535c-.034-.238 0-.487-.055-.722-.08-.34-.31-.514-.596-.578-.119-.081-.26-.106-.434-.105-.202 0-.408-.017-.61-.01-.453.015-.75.29-.823.73-.048.276-.005.544.02.821.021.23.018.464.144.667.243.394.681.343 1.08.333.438-.013.97-.031 1.211-.465.118-.213.096-.442.063-.671zm-3.773-4.848l-.02-.01c-.053-.036.278.137.02.01zm-.107.68h.019c.133-.057-.007.057-.02 0zm-.027.81h-.002c-.005.002-.016.004-.038.006-.061.007-.123.01-.185.016l-.166.01.029-.03c.082-.083.161-.164.232-.258.027-.036.057-.093.089-.15.003.07.01.139.02.211.01.061.012.132.025.194v.001h-.004zm-.753.053c-.12.006-.24.01-.359.013.155-.134.286-.335.42-.457.171-.157.349-.3.498-.474l.015.001.125.014.016.004.006.043c-.007.02-.008.054-.01.089-.06.041-.087.096-.13.16-.08.122-.184.228-.287.331-.093.094-.196.184-.294.276zm-.667.023c-.137.003-.274.006-.41.007l.374-.329c.22-.193.56-.39.695-.656.097.005.193.01.29.017-.14.131-.295.246-.436.375-.166.15-.443.363-.513.586zm-.784.01h-.34c.132-.122.252-.273.372-.383.235-.217.482-.428.73-.631.152.004.305.01.457.017-.094.083-.21.148-.305.221-.138.108-.271.22-.404.334-.153.127-.39.264-.51.441zm-.662-.001l-.474-.003c.03-.034.061-.068.095-.102.114-.111.243-.204.365-.305.237-.196.478-.4.692-.623l.301.007.148.004c-.191.145-.378.295-.558.45-.171.15-.467.347-.57.572zm-.753-.005l-.424-.003c.172-.146.326-.34.47-.476.163-.153.458-.335.573-.556l.18-.002.353.005c-.216.177-.433.352-.655.521-.176.135-.423.292-.497.51zm-.761-.003h-.066c-.104 0-.209 0-.313.002.1-.103.192-.22.28-.309.227-.23.444-.479.708-.67.018-.013.028-.03.032-.047l.52-.006c-.072.062-.154.118-.207.162-.135.112-.27.221-.397.342-.173.163-.423.322-.557.526zm-.72.015c-.065.007-.152.02-.16.013-.02-.015-.036-.065-.049-.132.121-.135.23-.287.363-.406.165-.148.313-.338.476-.504l.313-.006.174-.002c-.211.149-.394.325-.58.508-.158.154-.408.327-.537.529zM3 25.601c.005-.318.06-.27.338-.254.066.003.128.007.194.007.048 0 .096 0 .144-.002l-.025.024c-.16.147-.316.294-.477.438l-.164.152c-.01-.16-.01-.314-.01-.365zm6.066-.218c-.065-.532-.445-.67-.876-.704-.077-.02-.156-.038-.236-.048-.356-.042-.724-.03-1.08-.035-.885-.013-1.77-.002-2.654.005-.244.003-.49.014-.733.007-.41-.01-.857-.063-1.104.346-.156.258-.158.602-.132.891.025.282.016.654.153.91.198.368.571.407.949.398 1.558-.04 3.12.033 4.675-.069.232-.015.52-.008.73-.125.224-.125.348-.38.36-.627.009-.153-.036-.293-.049-.443-.014-.168.017-.337-.003-.506zm20.014 4.495c-.046.181-.414.12-.582.124-.01 0-.022 0-.034.002.094-.092.172-.208.249-.308.12-.157.231-.324.355-.479-.005.103-.04.215-.038.312.003.102.075.25.05.349zm-.904.138c-.026-.008-.04-.007-.047-.003-.001-.01-.006-.027-.019-.056-.022-.05-.04-.115-.053-.186l.01-.014c.082-.122.172-.234.27-.344.127-.142.247-.29.36-.443l.107-.01c.025 0 .048.001.072.005.05.008.082.013.106.021-.166.161-.313.342-.459.52-.127.156-.304.31-.347.51zm-.137-.906c.028-.223.187-.143.374-.13-.118.119-.234.24-.348.362l-.04.044c0-.104.004-.201.014-.276zm1.727-.187c-.08-.34-.31-.514-.596-.578-.118-.081-.26-.106-.433-.105-.203 0-.409-.017-.61-.01-.454.015-.75.29-.824.73-.047.276-.005.544.02.821.021.23.018.464.144.667.243.394.681.343 1.08.333.438-.013.97-.031 1.211-.465.118-.213.096-.442.063-.671-.033-.238 0-.487-.055-.722zm-.686-2.68c-.043.169-.366.127-.545.124.159-.234.34-.454.52-.673-.012.069-.026.137-.025.2.003.101.075.25.05.349zm-.865.145c-.013-.001-.026-.003-.037-.007-.028-.008-.042-.007-.049-.003-.001-.01-.006-.027-.019-.056-.027-.063-.047-.144-.06-.233.076-.109.161-.21.244-.315.11-.14.214-.285.314-.433.065-.003.131-.009.196-.016.025 0 .048.001.072.005.09.014.127.02.148.049-.207.244-.42.483-.615.738-.067.088-.133.178-.194.271zm-.19-.678c0-.089.006-.17.014-.235.026-.201.157-.156.32-.136l-.332.368-.002.003zm1.741-.422c-.08-.34-.31-.515-.596-.578-.118-.082-.26-.106-.433-.106-.203 0-.409-.016-.61-.01-.454.016-.75.291-.824.73-.047.277-.005.545.02.822.021.23.018.463.144.667.243.394.681.343 1.08.332.438-.012.97-.03 1.211-.465.118-.212.096-.441.063-.67-.033-.238 0-.488-.055-.722zm-5.24.187c.03-.24.212-.128.418-.128l.042-.001c-.087.082-.174.165-.254.255-.065.072-.145.15-.219.233-.005-.134 0-.264.013-.36zm.72-.147l.045-.003c.024 0 .048.001.072.005.151.024.153.023.184.15-.153.147-.287.31-.434.464-.132.138-.283.276-.37.446-.029 0-.056-.002-.079-.009-.027-.008-.041-.007-.048-.003-.001-.01-.006-.027-.019-.056-.017-.04-.031-.087-.043-.138.15-.141.267-.353.389-.497.1-.12.208-.235.304-.359zm.32.915c-.04.156-.32.132-.503.125.172-.182.315-.397.466-.6-.007.043-.013.086-.012.125.003.102.074.251.05.35zm-1.612.57c.243.394.681.343 1.08.332.438-.012.971-.03 1.211-.465.118-.212.097-.441.063-.67-.034-.238 0-.488-.055-.722-.08-.34-.309-.515-.596-.578-.119-.082-.26-.106-.434-.106-.202 0-.408-.016-.61-.01-.453.016-.75.291-.823.73-.048.277-.005.545.02.822.022.23.018.463.144.667zm.572-4.973c.03-.241.212-.129.418-.129.015.001.03 0 .046-.001-.103.106-.194.224-.292.338-.046.053-.115.115-.183.185-.007-.147-.002-.29.01-.393zm.7-.145c.021-.002.044-.003.065-.006.024.001.048.002.072.006l.062.01c-.158.174-.285.37-.433.556-.119.147-.267.303-.378.471-.003-.01-.008-.025-.017-.045-.014-.033-.026-.072-.037-.114l.035-.047c.09-.113.19-.22.277-.335.125-.164.215-.346.354-.496zm.291.563c.003.102.074.25.05.35-.046.18-.407.12-.577.123.063-.09.122-.184.183-.266.138-.187.249-.398.378-.593.018.12-.038.266-.034.386zm-1.563.92c.243.393.681.343 1.08.332.438-.012.971-.03 1.211-.465.118-.212.097-.441.063-.671-.034-.238 0-.487-.055-.722-.08-.339-.309-.514-.596-.577-.119-.082-.26-.107-.434-.106-.202 0-.408-.017-.61-.01-.453.016-.75.29-.823.729-.048.278-.005.545.02.822.022.23.018.464.144.667zm11.111-1.338c.025-.192.145-.16.297-.139-.049.083-.093.162-.133.226-.046.074-.11.155-.177.24-.003-.123.002-.24.013-.327zm.585-.134c.06-.004.12-.01.181-.017.024.001.048.002.072.006.082.013.12.02.143.042-.12.153-.24.307-.357.461-.136.18-.307.357-.425.556-.022 0-.042-.002-.06-.008-.028-.008-.042-.007-.048-.004-.002-.01-.007-.027-.02-.055-.01-.025-.02-.053-.028-.083.037-.052.071-.107.104-.162.082-.053.159-.099.211-.134.002-.001 0-.003-.001-.003-.066.044-.135.086-.205.129.04-.069.078-.135.115-.19.106-.156.189-.325.287-.485.01-.014.02-.033.03-.053zm.457.901c-.039.15-.29.134-.474.126.084-.102.16-.214.235-.317.069-.092.135-.187.2-.282-.007.043-.012.085-.011.124.003.102.075.25.05.35zm-1.613.57c.242.394.68.344 1.08.333.438-.012.97-.03 1.21-.465.118-.212.097-.441.064-.671-.034-.238 0-.487-.056-.722-.08-.339-.309-.514-.596-.577-.117-.082-.26-.107-.433-.106-.202 0-.408-.017-.61-.01-.454.016-.749.29-.824.729-.047.278-.004.545.021.822.021.23.017.464.144.667zM21.012 21.84c.031-.241.213-.129.418-.129.081.001.163-.005.244-.012-.139.128-.276.259-.411.392-.078.076-.168.153-.255.234-.016-.176-.012-.36.004-.485zm.91-.133c.08.016.087.036.112.14.003.01.003.019.004.028-.134.133-.266.27-.394.41-.126.14-.283.295-.383.468-.042.003-.08.002-.11-.007-.028-.008-.042-.007-.048-.004-.002-.01-.007-.027-.02-.055l-.016-.044c.128-.126.244-.273.357-.391.17-.18.335-.361.499-.545zm.131.9c-.037.15-.291.134-.474.126.089-.109.17-.226.254-.328l.173-.2c-.002.018-.003.036-.002.053.002.102.074.25.05.35zm-1.612.57c.242.394.682.344 1.079.333.439-.012.971-.03 1.212-.465.117-.212.096-.441.063-.671-.034-.238 0-.487-.055-.722-.08-.339-.31-.514-.596-.577-.118-.082-.26-.107-.434-.106-.202 0-.408-.017-.61-.01-.453.016-.749.29-.824.729-.047.278-.004.545.021.822.02.23.018.464.144.667zm7.294 10.504v-.001c-.086-.049.095-.016 0 .001zm-.064-.797c.019.006.065.004.077.011l.005.003c.014.009-.068.012-.088-.015l.006.001zm-.075-.204c.024-.002.05-.003.074-.007.018-.002.035-.006.05-.012-.038.04-.084.035-.124.019zm-.198.991c-.258.014-.516.02-.774.027-3.814.093-7.633.036-11.45.052-.57.003-1.141.004-1.712.011l-.296.008c-.144.003-.118.03-.162-.038-.065-.101-.054-.43-.065-.56-.01-.129-.038-.394.056-.442.086-.044.266.012.359.016 1.113.044 2.24-.013 3.354-.018l2.583-.01c1.003.007 2.006.012 3.009.023 1.65.017 3.304.016 4.952.096.097.004.193.01.29.017l.032.002c.004.04.006.079.003.118.001.174-.008.332.016.505.004.028.017.134.03.179l-.225.014zm.944-.593c.008-.31-.013-.715-.317-.895-.232-.137-.617-.13-.943-.118-.12-.017-.243-.032-.395-.044-.813-.06-1.64-.03-2.455-.036-2.22-.017-4.44-.009-6.66-.004-1.384.002-2.776.053-4.159.01-.41-.012-.858-.062-1.105.348-.211.35-.138.794-.095 1.176.037.342.049.703.379.906.342.211.984.112 1.38.112 3.976-.003 7.954.02 11.93-.052.576-.01 1.158-.008 1.733-.059.263-.022.449-.054.616-.293.227-.326.081-.692.09-1.051zm-3.816-3.968c.025-.197.15-.157.308-.136-.095.076-.189.152-.271.232l-.049.048c.002-.053.006-.102.012-.144zm.765-.15l.028.002c-.137.174-.32.321-.465.484-.098.108-.238.228-.3.368-.014-.058-.024-.122-.03-.188.1-.109.188-.246.273-.338.093-.101.197-.203.292-.31.068-.005.135-.01.202-.018zm.256.159c.018.073.003.157-.012.24-.128.12-.25.25-.37.375-.08.086-.165.173-.23.272-.08.008-.18.027-.25.015.163-.115.288-.334.408-.484.138-.174.301-.338.41-.533.021.02.03.052.044.115zm.02.759c-.03.116-.19.133-.345.13.047-.056.093-.114.142-.167.061-.067.117-.135.171-.205.02.083.049.174.031.242zm-1.613.57c.243.394.681.343 1.08.333.438-.013.971-.031 1.211-.465.118-.213.097-.442.063-.671-.034-.238 0-.487-.055-.722-.08-.34-.309-.514-.596-.578-.119-.081-.26-.106-.434-.105-.202 0-.408-.017-.61-.01-.453.015-.75.29-.823.73-.048.276-.005.544.02.821.022.23.018.464.144.667zm5.126-7.84c-.046.18-.414.12-.582.123-.017 0-.036.002-.057.005l.01-.012c.212-.262.402-.536.617-.793-.002.108-.04.226-.038.327.003.102.075.25.05.35zm-.957.112l-.013-.033c-.022-.051-.04-.115-.052-.185.076-.093.145-.193.21-.27.13-.155.25-.358.387-.529.05-.003.1-.008.15-.014.024.001.047.002.071.006.036.005.063.01.085.015-.21.204-.402.424-.583.656-.088.112-.19.225-.255.354zm-.084-.88c.026-.202.157-.156.32-.136-.067.08-.132.161-.195.234l-.14.163c0-.098.006-.19.015-.261zm1.727-.188c-.08-.339-.31-.514-.596-.577-.118-.082-.26-.107-.433-.106-.203 0-.409-.017-.61-.01-.454.016-.75.29-.824.729-.047.278-.005.545.02.822.021.23.018.464.144.667.243.394.681.344 1.08.333.438-.012.97-.03 1.211-.465.118-.212.096-.441.063-.671-.033-.238 0-.487-.055-.722zm-19.293.188c.023-.178.128-.164.264-.143-.043.05-.086.102-.125.154-.047.06-.102.13-.153.207.001-.082.006-.158.014-.218zm.505-.132c.078-.002.156-.008.235-.016-.14.139-.267.288-.385.446-.083.112-.24.3-.309.48-.01-.035-.02-.074-.027-.114.037-.06.059-.124.093-.195.06-.122.135-.238.211-.35.058-.086.12-.168.182-.25zm.517.14c.03.125-.035.283-.031.41.003.102.075.25.05.35-.046.18-.414.12-.582.123-.045.001-.105.011-.164.018l.032-.07c.064-.132.135-.26.215-.384.129-.2.276-.385.444-.55.015.02.023.05.036.103zM9.9 23.178c.243.393.681.343 1.08.332.438-.012.97-.03 1.211-.465.118-.212.096-.441.063-.671-.034-.238 0-.487-.055-.722-.08-.339-.31-.514-.596-.577-.119-.082-.26-.107-.434-.106-.202 0-.408-.017-.61-.01-.453.016-.75.29-.823.729-.048.278-.005.545.02.822.021.23.018.464.144.667zm7.598 2.297c.028-.214.175-.149.352-.132-.052.054-.1.105-.144.146-.062.059-.143.127-.222.201.002-.081.006-.155.014-.215zm.639-.139c.042-.003.084-.006.127-.011.024 0 .048.001.071.005.152.024.154.023.184.15-.159.176-.364.324-.525.494-.12.13-.258.26-.373.404-.017-.004-.027-.003-.032 0-.002-.01-.007-.027-.02-.056-.03-.072-.052-.169-.066-.274l.017-.022c.092-.114.19-.222.29-.327.09-.096.18-.192.269-.29.015-.017.035-.043.058-.073zm.403.907c-.043.166-.355.129-.537.124.1-.12.191-.248.285-.355.07-.082.143-.158.212-.235-.007.04-.011.08-.01.116.003.102.075.251.05.35zm-1.614.57c.243.394.682.343 1.08.332.439-.012.971-.03 1.212-.465.117-.212.096-.441.063-.67-.035-.238 0-.488-.056-.722-.08-.34-.309-.515-.596-.578-.118-.082-.26-.106-.433-.106-.202 0-.409-.016-.61-.01-.454.016-.75.291-.824.73-.048.277-.004.545.02.822.022.23.018.463.144.667zm-2.941 2.297c.03-.24.212-.128.418-.127l.069-.003c-.061.047-.12.096-.179.147-.097.086-.215.174-.322.271 0-.108.004-.21.014-.288zm.563.133c.101-.091.212-.177.31-.272.066.01.097.019.115.046-.163.127-.26.314-.398.466-.144.16-.38.323-.477.528-.011-.001-.018 0-.023.002-.001-.01-.006-.027-.018-.056-.024-.054-.042-.121-.055-.196.202-.142.376-.365.546-.518zm.478.635c-.044.173-.377.126-.554.124.091-.094.173-.202.25-.284.11-.116.185-.277.282-.41-.013.076-.03.152-.027.22.002.103.074.252.049.35zm-1.613.57c.243.394.682.343 1.08.333.438-.013.97-.031 1.212-.465.117-.213.095-.442.063-.671-.035-.238 0-.487-.056-.722-.08-.34-.31-.514-.596-.578-.118-.081-.26-.106-.433-.105-.203 0-.409-.017-.61-.01-.453.015-.75.29-.824.73-.048.276-.004.544.02.821.021.23.018.464.144.667zM3.446 21.84c.024-.183.135-.162.277-.142-.068.078-.134.157-.197.24l-.094.12c.002-.082.006-.158.014-.218zm.766-.15c.024 0 .048 0 .071.005.102.016.135.021.157.06l-.01.008c-.203.231-.445.425-.65.656-.072.08-.174.192-.246.31l-.016-.042c-.027-.06-.046-.14-.06-.225l.01-.022c.067-.138.149-.272.235-.4.078-.114.16-.224.247-.332.087-.003.174-.008.262-.019zm.275.917c-.046.182-.413.12-.581.124-.025.001-.054.004-.084.008.056-.087.119-.17.186-.25.15-.18.316-.345.466-.523-.009.097-.039.202-.036.292.002.102.074.25.05.35zm-1.612.57c.242.394.68.344 1.079.333.439-.012.971-.03 1.212-.465.117-.212.096-.441.063-.671-.034-.238 0-.487-.056-.722-.08-.339-.309-.514-.596-.577-.117-.082-.26-.107-.433-.106-.202 0-.409-.017-.61-.01-.454.016-.75.29-.824.729-.047.278-.004.545.02.822.022.23.018.464.145.667zm4.084-1.337c.022-.166.114-.164.236-.148-.082.095-.163.191-.24.289l-.008.01c.003-.057.007-.108.012-.151zm.258.132c.061-.089.124-.175.188-.261.106-.001.213-.01.32-.022.024.001.048.002.072.006.03.005.055.008.075.013-.227.245-.67.55-.874.883-.02-.076-.034-.165-.042-.257.084-.137.2-.275.261-.362zm.734.286c.003.102.074.25.05.35-.047.18-.414.12-.583.123-.049.001-.116.013-.18.02.079-.14.182-.265.29-.384.151-.167.315-.324.456-.5.02.122-.037.27-.033.391zm-1.563.92c.242.393.681.343 1.079.332.439-.012.971-.03 1.212-.465.118-.212.097-.441.063-.671-.034-.238 0-.487-.055-.722-.08-.339-.31-.514-.596-.577-.119-.082-.26-.107-.434-.106-.203 0-.408-.017-.61-.01-.453.016-.75.29-.824.729-.047.278-.004.545.021.822.02.23.018.464.144.667zm11.39 6.082c.1-.089.192-.186.292-.275l.008-.008c.062-.004.125-.01.187-.017.024 0 .048.001.071.005h.003c-.147.142-.29.29-.43.437-.083.086-.157.18-.24.267-.045.047-.098.09-.144.137-.02-.091-.031-.196-.037-.301.092-.087.196-.16.29-.245zm-.279-.15c.025-.19.144-.16.295-.138-.063.057-.127.112-.192.162-.03.024-.07.05-.112.08.002-.037.005-.073.01-.104zm1.022.009c.017.07.004.152-.01.232-.134.156-.292.286-.442.429-.069.064-.165.147-.245.236-.067.008-.138.015-.186 0-.02-.005-.032-.006-.04-.005.175-.063.308-.277.418-.406.156-.186.318-.374.489-.55l.016.064zm.02.759c-.03.117-.192.133-.35.13.018-.02.034-.04.051-.057.09-.097.184-.19.274-.287.019.075.04.153.025.214zm-1.614.57c.243.394.682.343 1.08.333.439-.013.971-.031 1.212-.465.117-.213.096-.442.063-.671-.035-.238 0-.487-.056-.722-.08-.34-.309-.514-.596-.578-.118-.081-.26-.106-.433-.105-.202 0-.409-.017-.61-.01-.454.015-.75.29-.824.73-.048.276-.004.544.02.821.022.23.018.464.144.667zM1.306 36.245l.005.012c.007.003.016.007.027.01l.022.007c.072.002-.01-.022-.054-.03zm3.181-2.732c-.046.182-.413.12-.581.124-.043 0-.099.01-.155.017.053-.084.099-.17.138-.226.183-.252.385-.49.56-.747l.02.073c.029.125-.035.282-.031.41.002.102.074.25.05.35zm-.99.024c-.02-.062-.035-.135-.046-.213.07-.108.153-.206.212-.32.068-.13.16-.257.243-.388.1-.002.204-.008.306-.02.02 0 .04.001.06.004-.18.237-.39.447-.57.684-.05.069-.134.158-.205.253zm-.05-.792c.02-.158.106-.164.22-.148-.083.108-.14.228-.214.341l-.02.03c0-.084.005-.161.013-.223zm1.726-.187c-.08-.339-.309-.514-.596-.577-.117-.082-.26-.107-.433-.106-.202 0-.409-.017-.61-.01-.454.016-.75.29-.824.73-.047.277-.004.544.02.821.022.23.018.464.145.668.242.393.68.343 1.079.332.439-.013.971-.03 1.212-.465.117-.212.096-.441.063-.67-.034-.239 0-.488-.056-.723zm8.813-7.083c.03-.24.212-.128.418-.128l.042-.001c-.082.085-.162.173-.241.26-.065.072-.152.153-.231.24-.006-.14 0-.274.012-.371zm.78-.15c.018.001.038.002.057.005.146.022.153.025.181.138-.1.11-.193.226-.286.33-.161.176-.344.363-.436.586-.058.007-.115.01-.157-.003-.028-.008-.042-.007-.049-.003-.001-.01-.006-.027-.018-.056-.016-.036-.03-.08-.04-.126.157-.11.28-.314.392-.447.117-.14.247-.275.355-.424zm.26.918c-.036.145-.277.135-.458.126.118-.123.212-.277.315-.408l.096-.122c-.001.019-.002.037-.001.054.002.102.074.251.049.35zm-1.612.57c.243.394.682.343 1.08.332.438-.012.97-.03 1.212-.465.117-.212.095-.441.063-.67-.035-.238 0-.488-.056-.722-.08-.34-.31-.515-.596-.578-.118-.082-.26-.106-.433-.106-.203 0-.409-.016-.61-.01-.453.016-.75.291-.824.73-.048.277-.004.545.02.822.021.23.018.463.144.667zm23.125-.523h-.004l-.043.006c-.056.006-.114.01-.17.014-.152.011-.304.02-.456.028.051-.071.1-.146.15-.216.156-.215.32-.424.48-.635 0 .094.007.226.006.256-.008.142-.005.31.04.447.002.005.022.057.042.092l-.045.008zm-1.246.07c.037-.054.075-.106.115-.161.201-.273.383-.554.613-.805.074.004.147.01.22.015l.004.001c-.197.226-.52.611-.69.94-.088.004-.174.008-.262.01zm-.37.007l-.263.003c.039-.068.075-.135.114-.19.179-.265.36-.53.533-.798.005-.007.007-.014.01-.02.122.004.244.01.365.015-.206.225-.392.468-.574.711-.059.078-.134.177-.185.28zm-.642.005h-.274c.055-.105.124-.202.19-.301.158-.243.323-.48.49-.719l.004-.008c.044 0 .09.001.134.003l.204.005c-.177.244-.36.482-.534.727-.062.088-.15.187-.214.293zm-.583-.002l-.328-.002c.076-.122.138-.261.207-.374.142-.229.303-.444.46-.662l.381.006c-.181.235-.362.472-.533.717-.066.094-.146.2-.187.315zm-.614-.004c-.109 0-.218 0-.327-.002.072-.12.13-.261.19-.365.134-.222.275-.44.405-.663l.373-.004c-.151.206-.301.413-.438.63-.08.127-.183.26-.203.404zm-.628-.002h-.106l-.266.003c.03-.06.058-.119.087-.167.172-.287.343-.573.52-.856.135-.003.27-.003.404-.005-.146.204-.298.405-.434.617-.076.118-.19.263-.205.408zm-.711.016c-.059.005-.132.014-.13.014-.025-.016-.043-.086-.056-.176.063-.123.143-.235.212-.354.097-.167.178-.341.27-.51.126.001.253-.002.38-.005-.184.27-.367.54-.544.813-.04.062-.092.138-.132.218zm-.218-.608c-.002-.081-.002-.146-.002-.171.004-.268.028-.274.255-.261-.089.14-.164.29-.252.43v.002zm5.74-.339c-.046-.563-.412-.707-.84-.744-.083-.025-.185-.05-.274-.06-.352-.037-.714-.03-1.068-.034-.825-.01-1.65 0-2.476.008-.57.005-1.443-.18-1.736.426-.129.266-.12.592-.091.878.028.27.016.602.147.848.196.364.566.408.942.398 1.467-.041 2.938.035 4.403-.07.219-.016.484-.014.68-.124.225-.125.35-.38.363-.627.006-.135-.026-.26-.04-.393-.02-.168.004-.337-.01-.506zM13.986 21.84c.03-.226.19-.142.379-.13-.115.115-.234.227-.343.348l-.05.059c0-.105.004-.202.014-.277zm.765-.15c.025 0 .049 0 .072.005.108.016.14.022.16.07-.204.193-.418.378-.603.59-.104.12-.213.246-.248.392l-.007-.001c-.028-.008-.042-.007-.049-.004-.001-.01-.006-.027-.018-.055-.025-.057-.044-.13-.058-.208.017-.037.034-.074.056-.11.068-.113.155-.213.244-.31.11-.118.22-.235.323-.358.042-.003.086-.006.128-.012zm.276.917c-.046.182-.414.12-.582.124-.015 0-.033.002-.051.004.073-.107.145-.216.232-.316.12-.137.251-.265.38-.393-.011.079-.03.16-.028.232.002.102.074.25.049.35zm-1.613.57c.243.394.682.344 1.08.333.438-.012.97-.03 1.212-.465.117-.212.095-.441.063-.671-.035-.238 0-.487-.056-.722-.08-.339-.31-.514-.596-.577-.118-.082-.26-.107-.433-.106-.203 0-.409-.017-.61-.01-.453.016-.75.29-.824.729-.048.278-.004.545.02.822.021.23.018.464.144.667zm23.125 6.748h-.004c-.002.001-.013.003-.043.006-.056.006-.114.01-.17.015-.116.008-.232.014-.348.02.076-.104.142-.219.213-.325.103-.157.199-.322.309-.476.002.087.007.187.006.213-.008.142-.005.31.04.447.002.005.022.057.042.092-.021.005-.043.008-.045.008zM35.036 30c.093-.136.173-.285.262-.419.125-.189.253-.375.368-.57.06.004.119.005.177.009.133.006.266.014.398.025h.01c-.094.124-.181.251-.274.375-.13.176-.291.354-.361.564-.194.007-.387.013-.58.016zm-.327.005c-.143.001-.285.003-.428.003.033-.073.064-.146.1-.211.152-.281.333-.551.519-.813l.453.015c-.111.159-.227.313-.342.47-.12.166-.25.34-.302.536zm-.8.001c-.178 0-.357-.001-.535-.003.034-.092.065-.183.101-.257.132-.266.288-.52.43-.78.224.002.448.006.672.01-.153.2-.304.405-.433.619-.07.114-.168.262-.234.411zm-.915-.005L32.666 30c.054-.113.106-.226.16-.33.122-.236.227-.482.384-.697.135-.001.271-.004.407-.004-.164.245-.334.485-.47.748-.046.086-.11.184-.153.284zM32.291 30l-.212.002c.037-.083.07-.165.106-.236.132-.266.258-.53.408-.785l.073-.001c.075-.002.152-.003.228-.003-.125.188-.23.39-.345.587-.08.135-.188.281-.258.436zm-.569.017c-.053.005-.108.012-.107.013-.016-.01-.028-.041-.039-.085l.045-.09c.076-.14.164-.272.244-.409.085-.142.194-.297.281-.458l.145-.001c-.137.238-.257.483-.392.724-.051.092-.126.198-.177.306zm-.197-.78c.004-.285.03-.275.296-.259l.055.004c-.1.132-.195.267-.29.408l-.056.083c-.005-.112-.005-.205-.005-.237zm5.742-.168c-.046-.564-.412-.708-.84-.745-.083-.025-.185-.05-.274-.059-.352-.038-.714-.03-1.068-.035-.825-.01-1.65 0-2.476.008-.57.005-1.443-.18-1.736.427-.129.265-.12.591-.091.877.028.27.016.602.147.848.196.364.566.409.942.399 1.467-.042 2.938.035 4.403-.071.219-.016.484-.013.68-.123.225-.126.35-.38.363-.627.006-.136-.026-.26-.04-.394-.02-.168.004-.337-.01-.505zm1.517 6.823c-.17.422-.47.69-.818.93-.403.033-.808.084-1.21.107-.61.035-1.223.058-1.833.078-1.811.06-3.624.088-5.435.109-4.743.054-9.487.044-14.23-.034-3.94-.065-7.908-.107-11.832-.492-.615-.06-.95-.092-1.52-.201-.167-.032-.331-.072-.494-.119-.028-.008-.056-.019-.083-.028h-.003c-.008 0-.016-.002-.023-.004l-.003-.006h-.003l-.002-.007h.002l-.012-.027c-.032-.09-.058-.18-.08-.271-.083-.348-.111-.603-.145-.922-.105-.98-.142-1.97-.168-2.954-.066-2.46-.044-4.923.011-7.382.022-1.008.046-2.016.073-3.023.017-.659-.018-1.35.118-1.997.09-.124.149-.264.226-.401.109-.193.235-.377.337-.573.096-.183.17-.374.256-.558.084-.057.172-.108.268-.151.084-.037.169-.07.256-.101-.144.207-.282.417-.401.638-.13.243-.346.577-.253.855.015.046.07.061.106.028.222-.205.287-.595.427-.862.135-.257.283-.506.432-.754.254-.067.516-.11.778-.14-.125.243-.264.476-.4.715-.12.214-.315.475-.228.725.02.053.082.071.125.033.215-.194.304-.568.44-.822.121-.221.235-.445.335-.675.203-.015.406-.023.604-.027.084-.002.168-.003.252-.002l-.252.455c-.117.209-.302.433-.293.678.002.06.074.113.13.073.203-.14.279-.406.386-.621l.292-.582c.261.007.521.021.781.041-.105.189-.215.376-.302.573-.091.208-.233.4-.19.634.01.057.079.107.137.103.056-.003.09-.02.122-.069.023-.036.017-.082.027-.12.023-.081.06-.148.092-.226.124-.295.267-.58.4-.872.277.025.554.054.831.083-.233.32-.44.705-.456 1.08-.004.104.121.172.209.12.07-.045.09-.088.094-.169 0-.004-.003-.008-.003-.011.103-.354.244-.687.462-.987.27.029.54.056.81.08-.266.39-.69 1-.348 1.21.08.05.187.002.212-.085.025-.086.008-.177.03-.266.037-.143.112-.277.181-.407.077-.144.165-.282.241-.427l.1.008c.244.016.489.03.733.042-.182.339-.382.67-.554 1.013-.066.132.067.265.2.199.058-.029.086-.068.095-.121.204-.334.359-.708.528-1.06l.008-.018c.223.01.447.019.67.027-.185.273-.382.587-.437.897-.03.17.208.3.3.125.177-.337.307-.685.515-1.01.238.008.478.015.717.021-.119.183-.235.369-.34.561-.097.182-.25.414-.164.624.024.056.081.087.14.056.192-.105.247-.362.34-.546.117-.23.251-.451.385-.672L11.49 18l.213.006.501.014c-.06.115-.12.23-.19.341-.129.204-.418.58-.234.82.027.034.07.045.105.014.088-.083.1-.169.146-.281.071-.177.176-.332.269-.497.07-.126.125-.258.18-.39l.9.024c-.086.137-.165.279-.239.423-.131.255-.376.533-.403.82-.004.048.055.092.1.076.256-.096.363-.388.476-.619.113-.232.212-.47.343-.692l.82.02c-.113.209-.245.406-.371.608-.122.195-.316.44-.237.676.016.048.069.072.114.046.23-.127.326-.484.45-.705.115-.204.228-.407.324-.619.243.006.486.01.73.017-.143.188-.25.4-.38.6-.115.178-.358.464-.15.657.028.025.078.037.11.014.084-.059.096-.097.13-.193.048-.13.119-.24.184-.36.13-.24.23-.497.413-.704l.005-.008c.323.008.646.013.97.02-.103.144-.2.292-.277.451-.086.179-.222.42-.069.588.028.03.082.036.116.015.175-.106.176-.384.263-.559.084-.171.19-.33.3-.488l.62.011c-.173.243-.723.98-.407 1.164.035.02.093.018.12-.015.051-.063.063-.137.088-.213.037-.111.086-.216.141-.32.095-.178.203-.35.314-.519.021-.033.026-.064.02-.092l.81.015c-.014.009-.028.02-.04.036-.166.22-.322.452-.447.697-.088.175-.25.477-.042.624.067.047.156-.004.178-.072.065-.2.101-.376.209-.568.104-.186.222-.366.348-.538.052-.072.022-.14-.035-.176l.886.014-.015.022c-.21.383-.657.815-.626 1.284.008.12.176.223.268.11.047-.059.068-.114.058-.16.095-.408.348-.723.538-1.097.03-.06.015-.117-.021-.156l.774.011c-.024.01-.045.028-.061.055-.154.249-.332.505-.459.768-.05.105-.132.278-.089.393.046.12.199.146.273.035.071-.106.086-.25.144-.363.118-.234.24-.466.37-.693.05-.085 0-.163-.067-.193l.794.011c-.176.236-.319.506-.456.765-.065.123-.184.379.03.436.17.047.199-.154.255-.27.13-.267.263-.55.431-.794.033-.05.032-.096.011-.133l.573.007c-.137.212-.292.412-.41.635-.087.166-.249.447-.076.604.035.03.078.034.119.015.179-.086.2-.393.29-.558.113-.213.255-.41.375-.62.014-.024.02-.048.02-.071l.487.006c-.21.285-.51.65-.485.997.005.074.046.124.114.149.19.07.246-.25.29-.36.103-.256.266-.485.415-.715.014-.022.022-.044.025-.064l.383.006c-.099.16-.195.322-.28.486-.1.188-.227.443-.208.66.005.055.056.11.116.088.228-.082.289-.282.369-.492.096-.252.24-.497.377-.735l.823.016c-.022.047-.042.096-.062.144-.083.209-.213.512-.068.72.022.028.072.047.1.012.125-.16.133-.37.19-.559.03-.104.067-.21.113-.312.269.004.537.01.806.013-.098.228-.154.478-.16.702 0 .044.026.096.067.116.056.026.078.024.135 0 .046-.02.062-.073.067-.116.028-.246.094-.475.184-.697l.797.008c-.029.043-.058.087-.084.132-.109.187-.304.543-.11.725.034.032.08.028.114 0 .088-.072.086-.146.113-.251.037-.157.102-.3.183-.438.034-.057.07-.112.107-.166h.852c-.11.174-.212.352-.262.556-.013.056.008.13.065.158.023.011.044.021.071.019.06-.007.12-.038.135-.103.057-.228.174-.429.287-.633l.465-.006c-.218.326-.391.704-.14.88.058.04.155 0 .168-.068.057-.307.178-.567.333-.82.258-.005.516-.012.774-.021-.082.132-.156.27-.214.415-.075.19-.195.47-.024.634.038.037.094.034.134 0 .147-.125.123-.378.185-.553.065-.18.154-.348.255-.51l.272-.012c.11-.005.22-.012.329-.02-.1.152-.205.303-.297.46-.104.179-.349.543-.157.736.078.078.22.043.247-.064.113-.432.356-.776.566-1.158.197-.016.393-.034.59-.052-.222.332-.7.986-.408 1.22.03.024.075.038.111.014.166-.109.161-.39.244-.563.109-.228.252-.437.365-.664.007-.012.01-.025.013-.038.328-.03.655-.06.983-.081-.172.286-.403.544-.534.846-.067.153-.15.36.023.469.063.038.166.004.18-.073-.011.061.018-.028.025-.046.01-.028.017-.057.026-.086.033-.1.062-.187.115-.278.165-.285.36-.548.493-.85.263-.013.526-.019.79-.015-.229.386-.65.725-.63 1.203.005.146.236.241.305.082.021-.05.05-.092.071-.141.012-.027.009-.064-.009-.09.12-.364.4-.638.557-.994.008-.018.011-.035.013-.051.231.01.473.028.717.059-.3.352-.723.771-.679 1.232.02.217.31.212.336 0l.002-.028c.015.023.016-.068.022-.085.017-.055.027-.112.047-.166.049-.13.121-.25.193-.369.114-.186.241-.363.368-.541.162.028.324.062.482.105-.104.152-.206.304-.3.465-.116.195-.253.377-.208.613.026.14.231.153.297.039.015-.027.024-.05.03-.071.13-.338.294-.645.47-.958.135.047.268.1.395.162-.261.305-.588.653-.554 1.057.004.051.026.112.078.136.232.102.266-.213.32-.364.093-.248.245-.477.398-.698.137.083.265.177.383.284-.005.01-.01.021-.014.033-.083.27-.678.934-.357 1.197.038.031.095.048.141.018.153-.103.184-.356.269-.515.08-.149.163-.292.225-.447.03.04.06.082.089.125.6.92.57 2.068.548 3.119-.016.687.01 1.377.02 2.064.031 2.045.073 4.09.118 6.135.018.847.037 1.693.048 2.54.011.911.053 1.887-.292 2.75zm-37.448.383l-.012-.013v.001l-.004-.005c-.014-.012-.011-.005-.001.012-.08-.042-.104-.122 0-.012.003-.001.01 0 .018.002.002.002.003.006.004.01l-.016-.007.011.012zm18.433-18.927l-.52-.008c.045-.042.09-.083.134-.121.13-.114.257-.23.382-.349-.016.163-.022.328.004.478zm-1.87-.608c.013-.005.027-.011.037-.022.14-.148.244-.315.405-.445.142-.115.297-.214.435-.334.314-.273.584-.585.933-.814.086.154.123.339.134.53-.017 0-.036.005-.056.016-.36.209-.692.455-1.001.734-.148.133-.36.238-.467.408-.044.07-.01.146.05.19.014.011.031.016.048.016.146.015.362-.225.456-.306.322-.283.616-.57.974-.808-.004.157-.016.311-.025.448-.004.056-.01.116-.018.177-.181.17-.369.335-.561.492-.123.102-.269.197-.39.311l-.967-.016c.017-.192.015-.386.012-.577zm.447-1.486c.085-.08.206-.165.34-.237-.017.019-.035.035-.051.054-.114.125-.216.26-.326.388-.1.114-.221.21-.285.35-.025.053.015.11.076.098.298-.063.489-.43.67-.647.118-.143.254-.27.39-.397.154-.016.3.01.416.1-.39.237-.697.57-1.063.843-.205.152-.453.291-.609.491.023-.378.113-.736.442-1.043zm21.63 17.1c-.037-2.09-.095-4.179-.152-6.267-.024-.922-.049-1.844-.067-2.765-.017-.88.045-1.767-.072-2.64-.154-1.153-.65-2.293-1.736-2.857-1.308-.68-2.82-.729-4.262-.637-.935.059-1.864.194-2.8.222-.514.014-1.028.017-1.542.02-1.638.007-3.276-.006-4.913-.022-1.31-.013-2.62-.03-3.929-.049.029-.18.016-.38.029-.545.021-.29.045-.581.044-.873-.002-.57-.091-1.259-.623-1.594-.136-.086-.283-.14-.434-.168-.07-.717.069-1.575.528-2.138.377-.463.966-.652 1.538-.75 1.248-.211 2.535-.062 3.793-.141 1.339-.084 2.689-.375 3.742-1.25 1.019-.845 1.41-2.25 1.131-3.52-.308-1.405-1.399-2.361-2.77-2.72-1.54-.404-3.169-.165-4.732-.081-3.615.193-7.253.307-10.873.27-1-.01-2.001-.033-3.002-.033-.936-.001-1.864.062-2.799.105-1.734.08-3.535.03-5.072-.867-.415-.242-.783.389-.376.64 1.308.808 2.83 1.038 4.347 1.057.774.01 1.547-.024 2.32-.051.861-.03 1.72-.004 2.58.017 1.792.045 3.58.088 5.373.05 1.773-.036 3.544-.121 5.316-.176 1.675-.053 3.356-.237 5.031-.223 1.385.012 2.93.307 3.568 1.679.518 1.114.214 2.505-.771 3.257-1.053.804-2.473.94-3.755.98-1.325.04-2.765-.06-4.017.455-1.397.575-2.006 2.055-1.585 3.436-.44.067-.872.305-1.172.599-.723.71-.656 1.625-.482 2.533-1.607-.03-3.213-.064-4.819-.106-1.298-.034-2.599-.066-3.896-.136-1.042-.056-2.077-.196-3.119-.252-1.034-.056-2.387-.095-3.388.405-.064-.007-.133.007-.195.055-.64.492-1.162 1.096-1.439 1.86-.155.427-.213.874-.249 1.322-.063.782-.104 1.565-.141 2.35-.115 2.44-.143 4.89-.132 7.334.006 1.164.027 2.329.09 3.492.046.817.09 1.655.269 2.457.098.44.245.786.684.956.347.134.725.19 1.091.245 1.47.218 2.961.3 4.444.378 2.137.111 4.275.176 6.414.223 4.896.11 9.793.13 14.69.093 2.011-.016 4.022-.041 6.032-.092 1.222-.032 2.45-.052 3.667-.157.4-.034.798-.093 1.199-.114.214-.01.436-.181.419-.415-.005-.071-.02-.134-.041-.19.136-.122.261-.262.377-.428.363-.517.53-1.121.602-1.739.098-.823.052-1.667.038-2.495zm-7.892-9.677l-.033.018-.017.025c.122-.066.244-.136.362-.2-.107.047-.213.097-.312.157zm.429-.193l-.117.078.123-.068c.005-.003 0-.014-.006-.01z" transform="translate(0 -3)"/>
    </g>
</svg>
