<?xml version="1.0" encoding="UTF-8"?>
<svg width="40px" height="40px" viewBox="0 0 40 40" version="1.1" xmlns="http://www.w3.org/2000/svg" xmlns:xlink="http://www.w3.org/1999/xlink">
    <!-- Generator: Sketch 62 (91390) - https://sketch.com -->
    <title>40icon-gamepad-yellow</title>
    <desc>Created with Sketch.</desc>
    <g id="40icon-gamepad-yellow" stroke="none" stroke-width="1" fill="none" fill-rule="evenodd">
        <g id="Group-2">
            <g>
                <rect id="Rectangle" x="0" y="0" width="40" height="40"></rect>
                <path d="M17.2824784,16.3909277 C17.2252768,16.4365299 17.164312,16.4731611 17.1010892,16.5030641 C17.1680752,16.3356071 17.2252768,16.1636646 17.2869943,15.9939649 C17.3344114,15.861644 17.1131316,15.7659543 17.05593,15.89678 C16.9769015,16.078441 16.9038943,16.2615971 16.8165866,16.4387726 C16.7894911,16.4933456 16.7541164,16.5501614 16.7217524,16.6092199 C16.6261655,16.6226763 16.5290734,16.6286569 16.4327339,16.6323948 C16.4741298,16.5524041 16.5132677,16.4754038 16.5531583,16.4155977 C16.7021834,16.1920725 16.8361555,15.9700425 16.8993783,15.7106336 C16.9776542,15.7367988 17.0544247,15.7667018 17.12969,15.7995952 C17.2350613,15.8459449 17.4932211,15.9184597 17.5263378,16.0455477 C17.5571965,16.1651598 17.3652702,16.3243935 17.2824784,16.3909277 Z M16.2084435,16.4141026 C16.1610264,16.482132 16.1038248,16.5583847 16.0564077,16.6383754 C15.9871637,16.6383754 15.9156617,16.6353851 15.8501809,16.6226763 C15.9021139,16.5232487 15.9578102,16.4238211 16.0142591,16.319908 C16.1309203,16.1075965 16.2347863,15.8945373 16.3604792,15.6911967 C16.4395077,15.6717597 16.5192889,15.6560606 16.5998227,15.6433518 C16.6291761,15.6463421 16.6570243,15.6523227 16.6856251,15.6568082 C16.5802537,15.9371491 16.3792956,16.1711404 16.2084435,16.4141026 Z M15.6176113,16.4933456 C15.5890105,16.4537241 15.5694416,16.4028889 15.5619151,16.3385974 C15.5303037,16.0687225 15.8072797,15.9005179 16.0481285,15.7981 C15.9472731,15.9528482 15.8562021,16.1165674 15.7576047,16.275801 C15.7139508,16.3460732 15.6650284,16.418588 15.6176113,16.4933456 Z M17.4412881,15.0669708 C17.1289373,14.9795044 16.6577769,14.9824947 16.2761822,15.0983689 C15.741799,15.1761168 15.1720411,15.3802051 14.897323,15.8713625 C14.7309868,16.1681501 14.7580823,16.531472 14.9048495,16.83125 C15.1155922,17.259611 15.5348196,17.412864 15.9894216,17.4457574 C16.8888412,17.5115441 18.2443682,17.2887664 18.3632872,16.1644122 C18.4227468,15.6037303 17.9433072,15.2090102 17.4412881,15.0669708 Z M27.2889919,22.3124767 C27.3333983,22.1547382 27.0812598,22.0964273 27.015779,22.2526706 C26.9804044,22.3371467 26.9442771,22.4201276 26.9066444,22.5031086 C26.8863228,22.5105843 26.8652486,22.5180601 26.8434216,22.5247883 C26.7312764,22.5606719 26.6138627,22.5898274 26.4949436,22.6130022 C26.5054807,22.5845943 26.5167705,22.556934 26.5280603,22.5292737 C26.5845092,22.3917198 26.6627851,22.2623891 26.7117075,22.1218448 C26.7621352,21.9775627 26.5385974,21.9214945 26.4851591,22.0590485 C26.4467738,22.1562333 26.2729111,22.4261083 26.1999039,22.6578568 C26.0990484,22.6683229 25.9974404,22.6743035 25.8958323,22.6757986 C25.9695922,22.4171373 26.0990484,22.1689421 26.2510842,21.9513975 C26.3406499,21.8228145 26.1344231,21.7114257 26.0425995,21.8302902 C25.8755107,22.0485824 25.667026,22.3618167 25.5842342,22.664585 C25.4495094,22.6526238 25.3155373,22.6316916 25.1853284,22.601041 C25.2214558,22.4918949 25.2583357,22.3834964 25.2891945,22.2736028 C25.3479014,22.0635339 25.4683257,21.8729021 25.5503648,21.6710566 C25.5970293,21.5566774 25.3998344,21.4729489 25.3494067,21.5865805 C25.2553251,21.7966493 25.1288795,21.9910191 25.0490984,22.2078161 C25.015229,22.2997679 24.9414691,22.4163898 24.9256634,22.5262834 C24.8383557,22.4956328 24.753306,22.4604967 24.6712669,22.4201276 C24.7179313,22.4156422 24.7593272,22.384244 24.7766382,22.334904 C24.8014757,22.266127 24.7819068,22.1846412 24.7962072,22.1113788 C24.8195394,21.9917666 24.8714724,21.8743972 24.9188895,21.7622608 C24.9934021,21.5850853 25.0972681,21.4086574 25.1461905,21.2217634 C25.1815652,21.0879473 24.9821123,21.0348694 24.9392111,21.1649476 C24.8707197,21.3742689 24.348379,22.084466 24.5335315,22.3461176 C24.4334287,22.2863116 24.3416051,22.2175346 24.259566,22.1412818 C24.2889195,22.054563 24.296446,21.9409315 24.3062305,21.892339 C24.3641847,21.5985417 24.4590189,21.2942783 24.6358922,21.0490734 C24.7081468,20.9496458 24.5403053,20.8180724 24.4627822,20.9167524 C24.3062305,21.1163552 24.2031171,21.3503465 24.1233359,21.5895708 C24.1052723,21.6433962 24.0623711,21.7592705 24.0345229,21.8796302 C23.9818373,21.8011348 23.9381834,21.7189014 23.9050667,21.6336778 C23.911088,21.6097553 23.9163565,21.5835902 23.9223777,21.5514444 C23.9592577,21.3772592 24.0247385,21.2120449 24.1000037,21.049821 C24.2151595,20.8031209 24.3438631,20.5653917 24.4417079,20.3104684 C24.4627822,20.2536526 24.3739692,20.2185165 24.3446157,20.2693517 C24.1827955,20.5571684 23.9840952,20.8218103 23.839586,21.1193455 C23.8365754,21.1275689 23.8320595,21.1357922 23.8282962,21.1432679 C23.8463599,20.9175 23.9389361,20.6894894 24.1233359,20.4771778 C24.4943936,20.0503119 25.0468404,19.8335149 25.6022979,19.7856701 C25.8612103,19.7632428 26.1201227,19.7684758 26.3767772,19.8006216 C26.3820457,19.8021167 26.388067,19.8028643 26.3933355,19.8043594 C26.8479376,19.9306998 27.3544726,20.1609532 27.6841344,20.5070808 C28.2900195,21.1432679 27.9091774,21.9072906 27.2889919,22.3124767 Z M27.0752386,23.4899088 C26.9375032,23.8023955 26.736545,24.0782511 26.4497844,24.2412226 C26.4972015,24.1029211 26.5423607,23.9638719 26.5769827,23.8203374 C26.6168733,23.6543755 26.3602188,23.5833558 26.3188229,23.7493177 C26.2661373,23.9608816 26.1901194,24.1634747 26.1156068,24.367563 C26.1110909,24.3683105 26.1073276,24.3698057 26.1028117,24.3705533 C25.9522812,24.4004563 25.7987401,24.3967184 25.6534782,24.3630775 C25.6685313,24.3129899 25.6835843,24.2621547 25.7046586,24.2120672 C25.7889557,24.0057362 25.8950796,23.8128616 25.9575498,23.5998025 C26.3015119,23.5870937 26.6417108,23.5310255 26.9630934,23.4345882 C27.0150264,23.4188891 27.0669594,23.4009473 27.1188924,23.3815103 C27.104592,23.4188891 27.0902916,23.4555203 27.0752386,23.4899088 Z M25.3923078,24.2643975 C25.3170426,24.2232808 25.2470459,24.1724456 25.1838231,24.111892 C25.1883391,24.0984356 25.192855,24.0849792 25.1973709,24.0722705 C25.2553251,23.9078038 25.3125267,23.743337 25.3629544,23.5773752 C25.4645625,23.5885888 25.5654179,23.5960646 25.667026,23.5998025 C25.6068138,23.7732401 25.5225167,23.9362116 25.4487568,24.1051638 C25.4261772,24.1567465 25.4081135,24.2098244 25.3923078,24.2643975 Z M25.0408192,23.9399495 C24.9444797,23.7994052 24.8729777,23.6379288 24.8255606,23.4749573 C24.9399638,23.5056079 25.0566249,23.5302779 25.1740387,23.5497149 C25.1326428,23.6812882 25.0874836,23.8106189 25.0408192,23.9399495 Z M28.6497874,20.5945472 C28.3547476,19.9277095 27.6788658,19.5180379 27.0120158,19.2810563 C26.8667539,19.2294736 26.6793434,19.1756481 26.474622,19.135279 C26.175819,19.0597738 25.8725001,19.0208999 25.6022979,19.0164144 C24.8842675,19.002958 24.1632265,19.2062987 23.6183062,19.681757 C22.5864198,20.5833336 22.6684589,22.0956797 23.7296987,22.9344599 C23.7974374,22.9875378 23.8674341,23.0361302 23.9389361,23.0824799 C23.8832398,23.5482197 24.0947351,24.1051638 24.32881,24.4453108 C24.6705142,24.9394585 25.2094133,25.2459647 25.8152985,25.2646541 C27.0985708,25.303528 27.9212199,24.1477756 27.8896085,22.9591299 C28.6174233,22.4044285 29.0592303,21.5200462 28.6497874,20.5945472 Z M34.5603665,16.7101427 C34.5264972,16.7699487 34.4858539,16.8267645 34.4452107,16.8828327 C34.3270443,16.9523573 34.204362,17.0009497 34.1057645,17.0151536 C34.0282413,17.0271149 33.9492128,17.0330955 33.8701843,17.0360858 C33.8852373,16.9912312 33.901043,16.9471242 33.920612,16.9067551 C34.0342625,16.6675308 34.1336126,16.3969083 34.3142492,16.1988007 C34.3639243,16.1442277 34.3541398,16.078441 34.3187651,16.0335864 C34.4135993,16.0403146 34.5061756,16.0567613 34.58972,16.0926449 C34.6822962,16.1322665 34.7462717,16.177121 34.7891729,16.2249659 C34.7184235,16.3894326 34.6476742,16.5538993 34.5603665,16.7101427 Z M33.5804131,17.0390761 C33.515685,17.0390761 33.4502043,17.0383285 33.3854762,17.0390761 C33.4336459,16.9374057 33.4772998,16.8334927 33.5194483,16.7392981 C33.6195511,16.5142778 33.6857845,16.2735583 33.7580391,16.0365767 C33.7979297,16.0365767 33.8378202,16.0365767 33.8784635,16.0365767 C33.9582446,16.0358292 34.0425417,16.0313437 34.1290967,16.029101 C33.9484601,16.2301989 33.8566366,16.4746562 33.7354595,16.7116378 C33.6857845,16.8088227 33.6270776,16.9224542 33.5804131,17.0390761 Z M33.0558144,17.0570179 C32.8202342,17.0839306 32.5884173,17.1362609 32.3528371,17.166164 C32.4800353,16.7938712 32.5997071,16.4193356 32.6975519,16.0380719 C32.814213,16.034334 32.9308741,16.0231204 33.0332348,16.0246155 C33.1950551,16.0276058 33.3568754,16.0313437 33.5186956,16.034334 C33.4389145,16.2571116 33.3606386,16.4813844 33.2522567,16.6899581 C33.1927972,16.8050848 33.1047368,16.9291824 33.0558144,17.0570179 Z M31.7364148,18.1335272 C31.5986794,18.5222667 31.4948134,18.923715 31.3698731,19.3169399 C31.3134241,19.4941154 31.2517067,19.6735337 31.196763,19.8551946 C31.1245084,19.8163207 31.0620383,19.7445534 31.0168791,19.6413879 C30.9303241,19.4410375 30.9581722,19.1935899 30.9596775,18.9812783 C30.9604302,18.9207247 30.9596775,18.8594235 30.9589249,18.7988698 C30.9596775,18.7981222 30.9596775,18.7981222 30.9604302,18.7973747 C31.3962159,18.2979939 31.5399725,17.555651 31.7431887,16.9418912 C31.8538286,16.6092199 31.9403836,16.2713156 32.0427443,15.935654 C32.0615606,15.8743528 32.0818822,15.8145467 32.1022038,15.7554882 C32.1217728,15.8078185 32.1548895,15.8586537 32.2060699,15.9072461 C32.2850984,15.9827513 32.3867064,16.0163922 32.4965937,16.0305961 C32.2805825,16.7445311 31.9855427,17.4293107 31.7364148,18.1335272 Z M31.9576946,19.0836962 C31.9305991,19.3558139 31.8267331,19.6346597 31.5941635,19.7983788 C31.5655627,19.8178158 31.5377146,19.8350101 31.5098664,19.8484664 C31.692761,19.3281536 31.8056588,18.7734522 31.9757582,18.2583724 C31.9599525,18.5334804 31.9840374,18.8100835 31.9576946,19.0836962 Z M30.9506457,18.1619351 C30.9446245,17.9077593 31.0289215,17.5287383 30.863338,17.3156792 C30.7948467,17.2274652 30.7188288,17.1781252 30.6367897,17.1601834 C30.811405,16.7983566 30.954409,16.4163453 31.0823599,16.0515283 C31.3337458,15.3323602 31.7160932,14.6670176 31.9403836,13.9373835 C31.969737,13.8431889 31.8252278,13.8050626 31.7928637,13.8970144 C31.5392199,14.6184252 31.1410668,15.2777872 30.8716172,15.9939649 C30.7256026,16.3812092 30.5660403,16.7609778 30.3771246,17.1295328 C30.374114,17.1347658 30.3711034,17.1407464 30.3680928,17.1459794 C30.1550921,17.1108434 29.9428442,17.0652412 29.7268329,17.048047 C29.6771579,17.0443091 29.6274828,17.0420664 29.5778078,17.0405712 C29.5860869,17.0114158 29.5943661,16.9830079 29.6041506,16.9568427 C29.6922109,16.7213563 29.8103773,16.4978311 29.9089748,16.2668301 C29.9646711,16.1345092 29.7727447,16.0171398 29.7102746,16.1517034 C29.6018926,16.3871899 29.475447,16.6144529 29.3760969,16.8536772 C29.3535173,16.9075027 29.3241639,16.9710467 29.2993264,17.0390761 C29.2413721,17.0398236 29.1834179,17.0398236 29.1262163,17.0390761 C29.1367535,16.9628233 29.1510539,16.8865706 29.1796546,16.8043372 C29.2722309,16.5374526 29.4039451,16.2892574 29.5153376,16.0305961 C29.5966241,16.029101 29.6771579,16.0283534 29.7584443,16.0261107 C30.0143461,16.0208776 30.3959409,16.1038586 30.6104468,15.9393919 C30.6638851,15.8990228 30.7015178,15.8556634 30.7286132,15.8100612 C30.7632353,15.7898767 30.7978573,15.7652067 30.830974,15.7308182 C31.0289215,15.5252348 30.9446245,15.1686411 30.9491404,14.9092322 C30.9491404,14.8815719 30.949893,14.853164 30.9506457,14.8255037 C30.9702147,14.8299892 30.9927942,14.8262513 31.0093526,14.8098046 C31.357078,14.4704052 31.6235169,13.9628011 31.7958743,13.4783719 C31.8741502,13.6039646 31.9305991,13.7385283 31.9464048,13.8431889 C31.9908113,14.1399766 31.9576946,14.4464827 31.9757582,14.7455131 C31.987048,14.9376401 32.0231753,15.1260293 32.0562921,15.315166 C31.9742529,15.5461669 31.8575918,15.7689446 31.7785633,15.9999455 C31.6799659,16.290005 31.5904002,16.5830547 31.4887922,16.8723666 C31.3217033,17.3470774 31.1011762,17.8344969 30.9536563,18.3256543 C30.952151,18.2710812 30.9513984,18.2165082 30.9506457,18.1619351 Z M28.8417137,17.0271149 C28.8379505,17.0271149 28.8341872,17.0271149 28.8304239,17.0263673 C28.7340844,17.0173964 28.6377449,16.9979594 28.5451687,16.9673088 C28.6369923,16.8873182 28.6791408,16.7340651 28.7250526,16.630152 C28.8040811,16.4507338 28.8725725,16.2675777 28.9327847,16.0806837 C28.9388059,16.0634895 28.9365479,16.048538 28.9327847,16.0358292 C29.0517037,16.0365767 29.1706228,16.0358292 29.2895419,16.034334 C29.1909444,16.2316941 29.0810572,16.4230735 28.9914915,16.624919 C28.9433218,16.7318224 28.8710672,16.8820851 28.8417137,17.0271149 Z M28.3976488,16.90526 C28.2862563,16.8484442 28.1861535,16.7706963 28.1108883,16.6652881 C27.9445521,16.432792 28.0025063,16.2070241 28.2689453,16.0926449 C28.4247443,16.0261107 28.6091441,16.0276058 28.7837595,16.0320913 C28.7822542,16.0350816 28.7807489,16.0365767 28.7799962,16.0388195 C28.7107522,16.2294513 28.6339817,16.4163453 28.5436634,16.5972587 C28.4962463,16.6944436 28.4089386,16.7968615 28.3976488,16.90526 Z M31.0168791,13.3624976 C31.1854732,12.9752533 31.4511595,13.070943 31.6566336,13.2937206 C31.4601914,13.7467517 31.1335402,14.1399766 30.9551616,14.5937552 C30.9589249,14.41957 30.9619355,14.2446372 30.9604302,14.0697045 C30.9581722,13.8439365 30.9250555,13.5755568 31.0168791,13.3624976 Z M34.6687485,15.2792823 C34.3669349,15.197049 34.0515735,15.207515 33.7422334,15.2097578 C33.3636492,15.2127481 32.9858177,15.1940587 32.6079862,15.202282 C32.6147601,15.1200486 32.6170181,15.0340774 32.6207813,14.9421256 C32.6373397,14.5444152 32.7028205,14.1467048 32.6523927,13.7489944 C32.5756222,13.1352345 32.1676846,12.5229698 31.530188,12.3779401 C30.9039813,12.2359007 30.3575556,12.711359 30.198746,13.2847497 C30.1159542,13.5845277 30.1264913,13.897762 30.1287493,14.2050157 C30.1310073,14.5369394 30.1167069,14.8688631 30.1189648,15.2000393 C29.7998402,15.1985441 29.4807156,15.2112529 29.161591,15.2105053 C28.8514982,15.2090102 28.5421581,15.1955538 28.2380865,15.2688163 C27.6404805,15.4116033 27.1286769,15.9588288 27.2777021,16.6017441 C27.4192007,17.215504 28.0100328,17.624428 28.6098968,17.7111468 C29.0057919,17.7679626 29.3971712,17.7044186 29.7930663,17.6864768 C29.9089748,17.6812438 30.0173567,17.6797486 30.1212228,17.6722729 C30.1212228,17.6842341 30.1212228,17.6969429 30.1212228,17.7089041 C30.1114383,17.756749 30.1046644,17.8045938 30.1046644,17.8539338 C30.1054171,17.8703805 30.1106856,17.8823417 30.1197175,17.8913126 C30.1197175,18.1791294 30.1302546,18.4669461 30.1287493,18.7547628 C30.1279966,19.0627641 30.1144489,19.3700178 30.1874562,19.6720385 C30.3319654,20.2656138 30.882907,20.7739654 31.530188,20.6259454 C32.1481156,20.4854011 32.5590638,19.898554 32.6463715,19.302736 C32.7035731,18.9095111 32.6403503,18.5207716 32.6222866,18.1275466 C32.6140075,17.9563517 32.6147601,17.8016035 32.5899226,17.6550786 C32.7163682,17.6767583 32.8503403,17.6797486 33.0001181,17.6857293 C33.4005292,17.7014283 33.8009403,17.7664675 34.2013513,17.7171274 C34.819279,17.6408747 35.4357013,17.2356885 35.5817158,16.6017441 C35.7247198,15.9805085 35.2460329,15.4370208 34.6687485,15.2792823 Z M23.594974,16.6346375 C23.4549806,16.6308996 23.3127293,16.6211811 23.1764992,16.5942684 C23.259291,16.295238 23.5430409,16.0141495 23.6702392,15.7592261 C23.6800237,15.7390415 23.6830343,15.7203521 23.6807763,15.7024103 C23.7108824,15.7113812 23.7409885,15.7203521 23.7710946,15.7300706 C23.8042113,15.7412842 23.8410913,15.753993 23.8794766,15.7689446 C23.7884056,15.9521007 23.7101298,16.1427325 23.6566915,16.339345 C23.6393804,16.4013938 23.6025005,16.5217535 23.594974,16.6346375 Z M22.8423216,16.4761514 C22.8438269,16.4716659 22.8475901,16.4686756 22.8490954,16.4634426 C22.9025338,16.2772962 22.9326399,16.1001207 23.0101631,15.9192073 C23.0410218,15.84744 23.0756438,15.7764203 23.1110185,15.7068958 C23.190047,15.6822257 23.2698281,15.6627888 23.3548778,15.6515751 C23.3774574,15.6485848 23.400037,15.6470897 23.4226166,15.6455945 C23.4504647,15.6508276 23.4783128,15.6560606 23.506161,15.6612936 C23.506161,15.6620412 23.5054083,15.6627888 23.5054083,15.6635363 C23.3578885,15.9199549 23.0455377,16.2085192 22.9348978,16.5217535 C22.9032864,16.5082972 22.8724277,16.4933456 22.8423216,16.4761514 Z M22.627063,16.319908 C22.5435186,16.2451504 22.4577162,16.1494607 22.4629848,16.0717128 C22.4712639,15.9461201 22.7015756,15.8706149 22.8054416,15.8265079 C22.7053388,15.9999455 22.6285683,16.1831016 22.627063,16.319908 Z M23.9035614,16.5867926 C23.9411941,16.3415877 24.0074275,16.0993731 24.1000037,15.8683722 C24.2934354,15.9730328 24.4620295,16.1247907 24.4364393,16.3385974 C24.40257,16.6241714 24.1316151,16.6391229 23.8967876,16.6383754 C23.8990455,16.6189384 23.9013035,16.6017441 23.9035614,16.5867926 Z M24.8714724,17.1392512 C25.1326428,16.8947939 25.2801626,16.4634426 25.1958656,16.1098392 C25.049851,15.5057978 24.3973014,15.221719 23.8433492,15.1178059 C23.8155011,15.1125729 23.7763632,15.1073399 23.7289461,15.1021068 C23.4098215,15.0079123 23.0350006,15.0011841 22.7512506,15.0325823 C22.3252494,15.0804271 21.8284988,15.3570302 21.6779683,15.7749252 C21.5071162,16.2503835 21.8014033,16.7250942 22.1581606,17.0263673 C22.5894304,17.3904368 23.1117711,17.4592137 23.6612074,17.4547283 C24.0774241,17.451738 24.5493372,17.4420195 24.8714724,17.1392512 Z M10.3370022,17.0443091 C10.2700162,17.0487946 10.2030301,17.0555227 10.136044,17.0644936 C10.3279704,16.7355602 10.5033384,16.3998986 10.6184942,16.0335864 C10.7517137,16.0358292 10.8841805,16.0373243 11.0174,16.0365767 C11.0956758,16.0358292 11.1784676,16.0313437 11.2627646,16.0298486 C11.2409377,16.0649846 11.2183582,16.1008683 11.1950259,16.1360043 C11.0490114,16.3528014 10.7667667,16.5957635 10.8209577,16.8768521 C10.8292369,16.9239494 10.8924597,16.9463767 10.9308449,16.9217066 C11.1257819,16.7983566 11.2469589,16.4948408 11.3734045,16.3034613 C11.4283482,16.2197328 11.472002,16.1300237 11.5133979,16.0388195 C11.5848999,16.0477904 11.6541439,16.0627419 11.718872,16.0889071 C11.6375855,16.2421601 11.5630729,16.3991511 11.4810338,16.5531517 C11.3989947,16.7086475 11.2928707,16.8551724 11.2266373,17.0173964 C10.9338556,17.0577655 10.6320419,17.0271149 10.3370022,17.0443091 Z M9.84853082,17.1100958 C9.74391214,17.1280376 9.64004611,17.146727 9.53618008,17.1609309 C9.40371326,17.1302803 9.28027827,17.1564455 9.16738041,17.2738149 C8.96943283,17.4793983 9.0537299,17.8352444 9.04921399,18.0954009 C9.04770868,18.2008091 9.04545072,18.3069649 9.04319277,18.4123731 C8.78051709,18.830268 8.50504631,19.2623669 8.3439787,19.7124076 C8.19420088,19.5509312 8.07678711,19.3214254 8.05194958,19.1606966 C8.04668101,19.1240653 8.04291775,19.0881817 8.03915449,19.0515505 C8.05119693,19.0261329 8.06323936,19.0014629 8.0752818,18.9767929 C8.25441307,18.6067428 8.43429699,18.239683 8.63149191,17.8786038 C8.96868018,17.2611061 9.31715824,16.6465987 9.66413098,16.0335864 C9.83347777,16.0492855 10.0201356,16.0223728 10.172924,16.0246155 C10.2542105,16.0261107 10.3347443,16.0276058 10.4160307,16.0298486 C10.2752847,16.413355 10.0675527,16.7647157 9.84853082,17.1100958 Z M8.98147527,19.6413879 C8.85427702,19.9336901 8.67138249,19.9516319 8.50128305,19.8462237 C8.70449919,19.5972809 8.87911455,19.3154448 9.04018216,19.0246377 C9.04695603,19.2294736 9.06125642,19.4559891 8.98147527,19.6413879 Z M8.02259614,18.2583724 C8.0105537,18.0535366 7.97066312,17.8524387 7.93604111,17.6505932 C8.19420088,17.2775528 8.44182351,16.885823 8.67288779,16.5060544 C8.82718153,16.2533738 8.92126308,15.9737804 9.06501969,15.7166142 C9.07856743,15.6926918 9.09211517,15.6687694 9.10641557,15.6455945 C9.11469474,15.660546 9.12447923,15.67475 9.13501636,15.6889539 C9.17565959,15.7412842 9.22006608,15.7794106 9.26597787,15.8063234 C9.28554684,15.8407118 9.31113702,15.8743528 9.34575903,15.9072461 C9.38866021,15.9483628 9.43758262,15.9760231 9.49177359,15.9962076 C8.95061652,16.7819099 8.45386595,17.5982629 8.02861735,18.4497519 C8.0278647,18.3854603 8.0263594,18.3219164 8.02259614,18.2583724 Z M7.84722813,17.2386788 C7.84271222,17.2334458 7.8381963,17.2282128 7.83368039,17.2237273 C7.79454246,17.1848534 7.74110414,17.1624261 7.68992378,17.1721446 C7.59810019,17.1616785 7.50702925,17.146727 7.41595831,17.1310279 C7.4272481,17.1115909 7.43853789,17.092154 7.44982767,17.0742121 C7.64928055,16.7422884 7.80733755,16.3871899 7.97743699,16.0403146 C8.29580895,15.3921663 8.71127307,14.8068143 9.03942951,14.1661418 C9.03942951,14.3919097 9.04319277,14.61693 9.04770868,14.8419504 C9.05147194,15.0041744 9.01910789,15.2172335 9.0379242,15.4056227 C8.9415847,15.5401863 8.83997662,15.6732548 8.76019547,15.817537 C8.61568621,16.0814313 8.48020878,16.3423353 8.30634608,16.5897829 C8.15807356,16.8005993 7.98947943,17.0136585 7.84722813,17.2386788 Z M7.33918777,16.7295796 C7.27370701,16.8454539 7.18564668,16.9605806 7.09984431,17.0764549 C7.02232112,17.0644936 6.94404527,17.0540276 6.86576942,17.048047 C6.81985763,17.0443091 6.77319318,17.0420664 6.72652873,17.0413188 C6.73029199,17.0353382 6.73405525,17.0293576 6.73857117,17.023377 C6.81609436,16.915726 6.91619713,16.8297548 6.99974155,16.7280845 C7.15930385,16.5337147 7.26693314,16.3034613 7.43552728,16.1143246 C7.4573542,16.0904022 7.45961215,16.0619943 7.45133298,16.0380719 C7.56347818,16.0283534 7.66734421,16.0021882 7.74787802,15.940887 C7.61315324,16.2047813 7.48444968,16.4716659 7.33918777,16.7295796 Z M6.48567997,17.0390761 C6.38783516,17.0398236 6.28999035,17.0405712 6.19289819,17.0383285 C6.20569328,17.0144061 6.21848837,16.9904836 6.23278877,16.9650661 C6.30730135,16.8319975 6.39611433,16.7101427 6.47740079,16.580812 C6.59255661,16.3984035 6.6843802,16.201791 6.8123311,16.0276058 C6.84093189,16.0276058 6.86953268,16.0268583 6.89813347,16.0261107 C7.01253664,16.0238679 7.15177733,16.0388195 7.29101802,16.0418098 C7.09984431,16.2436553 6.95834566,16.4851223 6.76115074,16.6802396 C6.66029532,16.7804148 6.53535503,16.9007745 6.48567997,17.0390761 Z M5.93850168,17.0218818 C5.73528554,16.9979594 5.53131675,16.9306776 5.3755177,16.7991042 C5.43347194,16.7161233 5.47863108,16.6174432 5.52228492,16.5389478 C5.61787177,16.3677529 5.7059321,16.1935677 5.81356139,16.0305961 C5.90162172,16.0305961 5.98968205,16.0350816 6.07247381,16.0358292 C6.07473177,16.0358292 6.07698972,16.0358292 6.07849503,16.0358292 C5.974629,16.1711404 5.87076297,16.3064517 5.78345529,16.4529765 C5.70442679,16.5845499 5.55991754,16.8080751 5.68410518,16.9478718 C5.70141618,16.9673088 5.73227493,16.9673088 5.7533492,16.9560951 C5.81356139,16.9254445 5.83313035,16.8865706 5.85872053,16.8252694 C5.90990089,16.7049096 5.9603286,16.5905305 6.02731467,16.4776465 C6.1183856,16.3251411 6.22225163,16.1808589 6.32310705,16.034334 C6.40589882,16.034334 6.48944323,16.0335864 6.57298764,16.0320913 C6.4804114,16.1659074 6.3998776,16.3071992 6.30880666,16.443258 C6.18913493,16.6219287 6.01301427,16.8110654 5.93850168,17.0218818 Z M5.40863441,16.0926449 C5.48389965,16.0604992 5.56593875,16.0440525 5.65023582,16.0365767 C5.56292815,16.1517034 5.48389965,16.2720632 5.40938706,16.3954132 C5.36196996,16.4746562 5.29423124,16.5568896 5.23552436,16.6428608 C5.08875714,16.4178405 5.15047464,16.2032862 5.40863441,16.0926449 Z M8.01883287,14.8105522 C8.02033818,14.7970958 8.02109083,14.7828919 8.02184348,14.7694355 C8.42375986,14.3747154 8.63374987,13.7893635 8.96943283,13.3378276 C8.9731961,13.346051 8.97771201,13.3542743 8.98147527,13.3624976 C9.05899847,13.5426634 9.04469807,13.7617032 9.03942951,13.9583156 C8.71503633,14.5444152 8.25366042,15.0512717 7.91496684,15.6313906 C7.91421419,15.6029827 7.91120358,15.5745748 7.90518236,15.5454194 C7.93980437,15.3002144 7.99926391,15.0579998 8.01883287,14.8105522 Z M8.04141244,13.9201893 C8.06775528,13.6488192 8.17162131,13.3699734 8.40419089,13.2062543 C8.56601116,13.0918751 8.72406816,13.0836518 8.84373989,13.1763512 C8.82492358,13.1830794 8.80685992,13.1950406 8.79180687,13.2144776 C8.51859406,13.5710713 8.23936002,13.9799953 8.02861735,14.3971427 C8.02711205,14.237909 8.02560674,14.0786754 8.04141244,13.9201893 Z M11.9243461,16.2204804 C12.1110039,16.4238211 11.89424,16.6877154 11.630059,16.85592 C11.7489781,16.6578123 11.8347805,16.4208308 11.9243461,16.2204804 Z M12.7206523,16.6017441 C12.8644089,15.9805085 12.385722,15.4370208 11.8084376,15.2792823 C11.5058714,15.197049 11.1912627,15.207515 10.8811699,15.2097578 C10.5469922,15.2120005 10.2135672,15.1985441 9.87938957,15.2007868 C9.88164752,14.8830671 9.86809978,14.5668425 9.86960508,14.2491227 C9.87035774,13.941869 9.88390548,13.6338677 9.8108982,13.331847 C9.66638894,12.7390193 9.1154474,12.2306677 8.46816635,12.3779401 C7.85023874,12.5184844 7.43929054,13.1053315 7.35198286,13.7018971 C7.29478128,14.0943745 7.35875673,14.4831139 7.37682039,14.8763389 C7.38208896,14.9922132 7.38284161,15.0998641 7.39112079,15.202282 C7.02758968,15.1948062 6.66481124,15.2112529 6.30052748,15.2105053 C5.99118735,15.2090102 5.68184722,15.1955538 5.37777566,15.2688163 C4.78016967,15.4116033 4.26836605,15.9588288 4.41663856,16.6017441 C4.55888987,17.215504 5.14896933,17.624428 5.74958594,17.7111468 C6.14472844,17.7679626 6.53610768,17.7044186 6.93200283,17.6864768 C7.10511288,17.6790011 7.26091192,17.6797486 7.40843179,17.6550786 C7.38660487,17.7806714 7.38359426,17.9137399 7.37757304,18.0625075 C7.36101469,18.4602179 7.29553393,18.8579283 7.34596164,19.2556387 C7.42273219,19.8693986 7.83066978,20.4809157 8.46816635,20.6259454 C9.09437313,20.7687324 9.64079876,20.2932741 9.79960841,19.7191358 C9.88240018,19.4193578 9.87186304,19.1061235 9.86960508,18.7988698 C9.86734713,18.4235867 9.88541079,18.0483036 9.87713161,17.6730205 C9.95992337,17.6790011 10.047231,17.6819914 10.1398073,17.6857293 C10.5402184,17.7014283 10.9406294,17.7664675 11.3410405,17.7171274 C11.9589681,17.6408747 12.5746378,17.2356885 12.7206523,16.6017441 Z M14.8860332,24.0363868 C14.7979729,24.1425426 14.6888383,24.2255235 14.5691666,24.284582 C14.6429265,24.0356392 14.7437819,23.7919295 14.8356055,23.5489673 C14.949256,23.5295303 15.0614012,23.5056079 15.1727938,23.4757049 C15.1148395,23.6768028 15.0200053,23.8764056 14.8860332,24.0363868 Z M13.9918822,24.3847572 C14.0076879,24.3010287 14.020483,24.2165526 14.0445679,24.1477756 C14.1100486,23.9616292 14.1950983,23.7829586 14.2726215,23.6020452 C14.3847667,23.5998025 14.4969119,23.5930743 14.6090571,23.5811131 C14.4908907,23.8382792 14.3584239,24.1036686 14.2733742,24.3772814 C14.1807979,24.3914854 14.0859637,24.3944757 13.9918822,24.3847572 Z M13.7006057,24.3137375 C13.6659837,24.3002811 13.6321144,24.284582 13.5997503,24.2688829 C13.600503,24.2643975 13.6012556,24.2591644 13.6020083,24.2554266 C13.6561992,24.0311538 13.7134008,23.8001528 13.7992032,23.5826082 C13.8744684,23.590084 13.9504863,23.5960646 14.0265042,23.5990549 C13.9384439,23.7687546 13.8481256,23.9377068 13.775871,24.1148823 C13.7517861,24.1746884 13.7224326,24.2434653 13.7006057,24.3137375 Z M13.7608179,21.7876784 C13.7066269,21.862436 13.4198664,22.2750979 13.3220216,22.5703904 C13.1903074,22.5337592 13.05483,22.4821764 12.9238685,22.4186325 C12.9682749,22.2564085 13.0450455,22.0926894 13.1029997,21.9461645 C13.1797703,21.7532899 13.2700886,21.5649008 13.3852444,21.3914632 C13.455241,21.286055 13.2911628,21.197841 13.2174029,21.2942783 C13.0683777,21.4916383 12.9411795,21.7189014 12.8380661,21.9439218 C12.7868857,22.0553106 12.7296841,22.167447 12.684525,22.2840688 C12.613023,22.2377191 12.543779,22.1876315 12.4790509,22.1338061 C12.4828142,22.1225924 12.4865774,22.1113788 12.4910933,22.0994176 C12.546037,21.9446693 12.6295814,21.8026299 12.7138784,21.6613381 C12.8546244,21.4251041 12.9968757,21.1948507 13.0578406,20.9234806 C13.0886993,20.7851791 12.8787093,20.7261206 12.842582,20.8651697 C12.7597902,21.1806467 12.5520582,21.4310847 12.3887326,21.7084354 C12.3511,21.7719793 12.3059409,21.8467369 12.2683082,21.92598 C12.2269124,21.8766399 12.1900324,21.8258048 12.1569157,21.7727269 C12.1892797,21.6934838 12.2050854,21.6105029 12.2344389,21.5237841 C12.2946511,21.345861 12.3789481,21.1769089 12.4677611,21.0116946 C12.6167863,20.7358391 12.788391,20.4726923 12.9283844,20.1923514 C12.9517166,20.1467492 12.9344056,20.1033898 12.9035468,20.0787198 C13.0473034,20.0039622 13.1940707,19.9419134 13.3318061,19.8910783 C13.3875023,19.8708937 13.4447039,19.8514567 13.5026581,19.8335149 C13.6855527,19.7976313 13.8714578,19.7729613 14.0641368,19.7736923 C14.6210996,19.7766991 15.1622566,19.8903307 15.6115901,20.2319729 C16.3273625,20.7769557 16.3642425,21.7046975 15.6258905,22.24669 C15.3827838,22.4246131 15.0937653,22.5412349 14.7889411,22.6077692 C14.8642063,22.414147 14.9507613,22.2280006 15.0523694,22.0463397 C15.1216134,21.9222421 14.9379662,21.8160863 14.8619483,21.9356984 C14.7460399,22.1188545 14.6369053,22.3079913 14.5428237,22.5031086 C14.5247601,22.5412349 14.4931487,22.5980507 14.4698165,22.6586044 C14.336597,22.6720607 14.2033775,22.6772938 14.070158,22.6743035 C14.0694054,22.6705656 14.0686527,22.6668277 14.0679001,22.6630898 C14.1363914,22.4552637 14.3057382,22.2840688 14.3636925,22.0702621 C14.4020777,21.9297178 14.1905824,21.8736496 14.1454233,22.010456 C14.0686527,22.2459425 13.8511362,22.4186325 13.7856554,22.6563616 C13.7156588,22.6488859 13.6456621,22.639915 13.5779234,22.6279538 C13.600503,22.5412349 13.6396409,22.458254 13.6780261,22.3782634 C13.75856,22.2130491 13.8496309,22.0515727 13.9459704,21.8953293 C14.0189777,21.7757172 13.8398464,21.6777847 13.7608179,21.7876784 Z M13.3671807,24.1006783 C13.3664281,24.1044162 13.3649228,24.1081541 13.3634175,24.111892 C13.2941734,24.0535811 13.2317033,23.9870468 13.1745017,23.9145319 C13.1767597,23.9085513 13.178265,23.9018231 13.1805229,23.8958425 C13.2264347,23.7642692 13.2828836,23.6371813 13.3385799,23.5093458 C13.4168558,23.52654 13.4958843,23.5422391 13.5756654,23.5542003 C13.4898631,23.7313758 13.4191137,23.9182698 13.3671807,24.1006783 Z M13.0187027,23.6797931 C12.9840806,23.6184919 12.9517166,23.5549479 12.9231158,23.4899088 C12.9073101,23.4547727 12.8930097,23.4181415 12.8787093,23.3800151 C12.9615011,23.408423 13.0450455,23.4345882 13.1300952,23.457763 C13.0917099,23.5317731 13.0540773,23.6050355 13.0187027,23.6797931 Z M12.015417,21.4183759 C11.9792897,21.2269965 12.0018693,21.0199179 12.1072406,20.8008782 C12.2314283,20.543712 12.4655032,20.3373811 12.7274262,20.1773998 C12.5580794,20.4711972 12.3586265,20.7463051 12.1968063,21.0445879 C12.1380994,21.1529864 12.0650921,21.2838122 12.015417,21.4183759 Z M15.6394383,24.4871751 C15.8878135,24.141795 16.1188778,23.565414 16.0616762,23.0854702 C17.0649619,22.4261083 17.4902105,21.1036464 16.7375581,20.0772247 C16.2581185,19.4238433 15.5280457,19.0956575 14.7302342,19.0268805 C14.3320811,18.992492 13.8571574,19.0336087 13.4123399,19.159949 C13.3573962,19.1719102 13.3047106,19.184619 13.2572935,19.1973278 C12.6544189,19.3580566 12.0093958,19.676524 11.6112427,20.1669338 C10.8435373,21.1126173 11.2401851,22.3079913 12.1087459,22.9740814 C12.0839084,24.1574941 12.9050521,25.3027804 14.1830559,25.2646541 C14.7678668,25.2467123 15.299992,24.9596431 15.6394383,24.4871751 Z M38.7872623,33.1493375 C38.4831908,33.9395252 37.9006378,34.6033726 37.1698123,34.941277 C37.1954025,34.8418494 37.2217454,34.7431693 37.2480882,34.6444893 C37.3045371,34.4351681 36.9854125,34.3484493 36.9221897,34.5555278 C36.87402,34.7140139 36.7972494,34.9031506 36.7468217,35.0937825 C36.5819908,35.1378894 36.4111387,35.1662973 36.2357707,35.1752682 C36.2884564,34.8366163 36.412644,34.5106732 36.5398423,34.1944486 C36.6083337,34.0254964 36.3170572,33.9013988 36.241792,34.0696034 C36.101046,34.3850805 35.9166461,34.779053 35.8481548,35.1662973 C35.7224618,35.1543361 35.5952636,35.1326564 35.4673127,35.1005106 C35.4402172,35.0937825 35.4138743,35.0863067 35.3875315,35.0788309 C35.3837682,35.0504231 35.3815103,35.0227627 35.3830156,34.9965976 C35.4101111,34.5151587 35.4582808,34.0217586 35.6569811,33.5769509 C35.7322463,33.4079987 35.4846237,33.2584835 35.4025846,33.4296784 C35.1963578,33.8632725 35.1173293,34.326022 35.0593751,34.7992375 C35.0533538,34.8500727 35.044322,34.9068885 35.0383008,34.9651994 C34.8757279,34.9038982 34.7191762,34.8313833 34.5663878,34.7506451 C34.7056284,34.636266 34.6303632,34.2422935 34.6597166,34.0987589 C34.7680986,33.5552712 34.9908837,33.0200068 35.1609831,32.4929658 C35.2159268,32.3240136 34.9524984,32.2544891 34.8945442,32.4204509 C34.7274554,32.8996471 34.535529,33.3780957 34.394783,33.8655152 C34.3277969,34.0995065 34.2555423,34.3798474 34.3345708,34.6183242 C34.1878036,34.5293626 34.046305,34.4314302 33.9093222,34.3267695 C33.9251279,34.3200414 33.9394283,34.3095753 33.9477075,34.2938762 C34.041789,34.1189434 34.0455523,33.9440107 34.0658739,33.7488934 C34.0967327,33.460329 34.1426445,33.1755026 34.2081252,32.8921713 C34.3270443,32.3785867 34.500907,31.8807011 34.7071337,31.3962719 C34.7658406,31.2572228 34.5227339,31.1540573 34.4595111,31.2923588 C34.2276942,31.8037008 34.028994,32.3292467 33.8927639,32.8742295 C33.7964244,33.2599787 33.6225617,33.8154276 33.7663183,34.2146332 C33.5555756,34.0434383 33.3561227,33.8557967 33.1664543,33.6569415 C33.1882812,33.5246206 33.1807547,33.3795908 33.2078502,33.2502602 C33.2477408,33.0551429 33.3041897,32.8600256 33.3531121,32.667151 C33.5119218,32.0481581 33.7663183,31.4583207 33.9544814,30.8475512 C34.0056617,30.6815893 33.747502,30.6128123 33.693311,30.7765314 C33.6157878,31.0105227 32.9301215,32.5176358 32.8646407,33.3227751 C32.7434637,33.1799881 32.6268026,33.0342108 32.5146574,32.8861907 C32.5650851,32.6992967 32.5711063,32.5019367 32.6102442,32.3083145 C32.6689511,32.0190026 32.7615273,31.7394092 32.8413085,31.4553304 C32.9986128,30.8968912 33.1378535,30.3354616 33.4351512,29.8308479 C33.5202009,29.6865657 33.2981685,29.5579827 33.2093555,29.7000221 C32.8962521,30.1979077 32.7329265,30.7548517 32.5628271,31.3125434 C32.463477,31.6377389 32.270798,32.0758184 32.2203703,32.4810046 C32.1029565,32.3120524 31.9915639,32.1423527 31.8846873,31.9741481 C31.8613551,31.9382644 31.8395282,31.9016332 31.8169486,31.865002 C31.8229698,31.7296908 31.8184539,31.5913892 31.84856,31.456078 C31.8952244,31.2430188 31.9787689,31.0426685 32.041239,30.8348424 C32.2504764,30.142587 32.4145546,29.4406132 32.6478768,28.7543385 C32.7035731,28.5906194 32.4491766,28.5248327 32.3904697,28.6833188 C32.1112357,29.4383705 31.9230726,30.2233252 31.6498598,30.9776294 C31.619001,31.0621054 31.56481,31.2116206 31.5234142,31.3753398 C31.406753,31.1719991 31.2946078,30.9656681 31.1847206,30.7585896 C31.2155793,30.6307541 31.2366536,30.4991808 31.2652544,30.3780735 C31.3344984,30.0812858 31.4029898,29.7852457 31.4865342,29.492196 C31.6724393,28.8343292 31.9268358,28.2003848 32.2233809,27.5836346 C32.2903669,27.4445855 32.0841402,27.321983 32.0126382,27.4617797 C31.6686761,28.1301126 31.3691204,28.8231155 31.1523565,29.5430311 C31.0770913,29.7949642 31.0138685,30.0506352 30.9513984,30.3063062 C30.8543062,30.1164219 30.759472,29.92579 30.6646378,29.7344106 C30.6804435,29.6432063 30.6947439,29.5512545 30.7143129,29.4607978 C30.7760303,29.1707383 30.8588221,28.8851643 30.952151,28.6033282 C31.147088,28.0105005 31.3947106,27.4356146 31.6250222,26.8547481 C31.6716867,26.7373787 31.4684705,26.6514074 31.4180428,26.7680293 C31.1659043,27.3526337 30.8964547,27.9305099 30.6789382,28.5293182 C30.6021676,28.7416297 30.5028175,28.9987959 30.4320682,29.2634377 C30.354545,29.107942 30.2770218,28.9524462 30.1994986,28.7976979 C30.3552977,28.4149391 30.4365841,27.9656459 30.5246445,27.582887 C30.6601219,26.9960399 30.8445217,26.4278822 31.1192398,25.8896276 C31.1899892,25.751326 30.9830098,25.6287236 30.9084972,25.7670251 C30.6217366,26.297804 30.4162625,26.8599811 30.2642267,27.4415952 C30.1912194,27.7196934 30.0564947,28.0441414 29.9774662,28.3641039 C29.860805,28.1420738 29.741886,27.9207914 29.6192036,27.7024992 C29.7358648,27.4116922 29.7847872,27.0730403 29.8796214,26.800175 C30.1257387,26.0959585 30.4373368,25.4186547 30.6857121,24.7159333 C30.7406557,24.5604375 30.4967963,24.4976412 30.4388421,24.6479039 C30.0911167,25.5577038 29.6922109,26.4204065 29.4077083,27.3391773 C29.3362063,27.2188176 29.2624464,27.0992054 29.1871812,26.9810884 C29.1503012,26.9235251 29.1066474,26.8816608 29.0592303,26.8525054 C29.0080499,26.7941944 28.9230002,26.7635438 28.8341872,26.7784953 C28.5481793,26.8270878 28.3961435,27.0565936 28.1703478,27.2165748 C27.8993929,27.4094494 27.6043532,27.582887 27.2957657,27.709975 C26.7726723,27.9245292 26.2044198,27.9678887 25.647457,27.8744417 C25.1070526,27.783985 24.5832065,27.5813919 24.1240886,27.2846042 C23.7236775,27.025943 23.2668175,26.5751547 23.133598,26.1094149 C23.1117711,26.0346573 23.0771491,25.9763464 23.0350006,25.9307442 C23.0086577,25.8066466 22.9183395,25.6960054 22.7361976,25.6414323 C22.609752,25.603306 22.4825537,25.5853641 22.3546028,25.5763932 C22.3726665,25.515092 22.3839563,25.4545384 22.3922354,25.4171596 C22.4659954,25.0897213 22.5999675,24.7757394 22.8272685,24.5245539 C22.9394137,24.4012039 22.7617878,24.2217856 22.642116,24.3406502 C22.3154649,24.6658457 22.100959,25.116634 22.0392415,25.5711602 C21.906022,25.5748981 21.7728025,25.5823738 21.6395831,25.5868593 C21.7419438,25.4186547 21.7863503,25.2041004 21.8683894,25.0284201 C21.9933297,24.7585452 22.1145067,24.4886703 22.2906274,24.2464557 C22.3726665,24.1328241 22.1822454,23.9855516 22.0941851,24.0961929 C21.9105379,24.3264463 21.7743078,24.5806221 21.6388304,24.8415261 C21.5259326,25.0583231 21.3483066,25.3371689 21.3317482,25.5928399 C21.2150871,25.5950826 21.0991787,25.5965778 20.9825175,25.5980729 C21.1255215,25.3954799 21.1744439,25.1151389 21.2692781,24.8886234 C21.3866919,24.6097776 21.518406,24.3025238 21.7178589,24.0707753 C21.8202196,23.9526583 21.6553888,23.782211 21.5432436,23.8973377 C21.3016421,24.1462805 21.1398219,24.4699809 20.9847755,24.776487 C20.8673617,25.0082355 20.6543611,25.3453923 20.7808067,25.6010632 C20.6167285,25.603306 20.4518976,25.6062963 20.2870667,25.6092866 C20.3698585,25.4440723 20.3954487,25.2250325 20.4601768,25.0650513 C20.5753326,24.7779821 20.7205945,24.5081072 20.8794042,24.2427178 C20.9569273,24.1126396 20.7582271,23.999008 20.676188,24.1246008 C20.4932935,24.4049417 20.3066357,24.6890206 20.1666423,24.9940316 C20.0868612,25.1682168 19.9626736,25.4134217 20.0025641,25.6160148 C19.9957903,25.6160148 19.9882637,25.6160148 19.9814899,25.6160148 C19.853539,25.6197526 19.725588,25.6219954 19.5976371,25.6242381 C19.7030085,25.4186547 19.7639733,25.1644789 19.8475177,24.9656237 C19.9641789,24.6860303 20.0522392,24.3937281 20.2208333,24.1395523 C20.288572,24.0371344 20.1275044,23.9092989 20.0477233,24.0064838 C19.8271961,24.2756111 19.6924713,24.5940785 19.5419409,24.9043225 C19.4395801,25.1143913 19.2589436,25.3872565 19.2920603,25.6302187 C19.1618514,25.633209 19.0308899,25.6361993 18.900681,25.6421799 C18.9368084,25.5569563 18.9646565,25.4642568 18.9992785,25.377538 C19.1415298,25.0194492 19.3206611,24.6695836 19.5208666,24.3399026 C19.5968845,24.2143099 19.4072161,24.1096493 19.325177,24.2262711 C19.1227135,24.5163306 18.9262712,24.8243318 18.7734828,25.1435468 C18.7012282,25.2953047 18.5935989,25.4829462 18.5484397,25.6616169 C18.5010226,25.6653548 18.4543582,25.6690927 18.4069411,25.6735781 C18.3610293,25.677316 18.3121069,25.6795587 18.2624318,25.6803063 C18.3369444,25.5315387 18.3948986,25.3648292 18.4694112,25.2332559 C18.6357474,24.9357207 18.7584297,24.6120203 18.9435822,24.3256987 C18.9940099,24.2472032 18.8743382,24.1522611 18.8118681,24.2247759 C18.5665034,24.5096024 18.3903827,24.8475067 18.1916825,25.1652265 C18.0945903,25.3199747 17.9576076,25.495655 17.9214803,25.6780636 C17.8326673,25.6788111 17.7438543,25.682549 17.658052,25.6930151 C17.79654,25.4792084 17.8861056,25.2055956 17.9982508,25.0052452 C18.1758768,24.6875255 18.4107043,24.3795242 18.4694112,24.013212 C18.5047859,23.9040659 18.3136122,23.8143568 18.2692057,23.9571438 C18.1487813,24.3384075 17.8989007,24.6426709 17.7069744,24.9895461 C17.566981,25.2422268 17.3472065,25.5285484 17.2915102,25.8178603 C17.2907576,25.8178603 17.2900049,25.8186078 17.2892523,25.8186078 C17.1131316,25.7984233 16.9294844,25.8836469 16.8647563,26.1094149 C16.7322895,26.5744071 16.2739242,27.0274381 15.8742658,27.2846042 C15.4143952,27.5813919 14.8913018,27.783985 14.3508974,27.8744417 C13.7946873,27.9671411 13.2249294,27.9252768 12.7025887,27.709975 C12.4128175,27.5903628 12.1373467,27.429634 11.8799396,27.2517109 C11.6405961,27.0864966 11.4637228,26.8300781 11.1641672,26.7784953 C11.0761069,26.7635438 10.9910571,26.7941944 10.9391241,26.8525054 C10.891707,26.8816608 10.8480532,26.9235251 10.8111732,26.9810884 C10.4800062,27.4976634 10.1894823,28.0366656 9.91175362,28.5831436 C9.02964502,29.3980014 8.1369993,30.2046358 7.26768579,31.0322024 C6.45632652,31.8051959 5.5952922,32.6566849 5.00521273,33.6135821 C4.95704298,33.6920776 5.06316696,33.7630973 5.12789507,33.7077767 C6.00398244,32.9572104 6.69566998,31.9950802 7.53186678,31.1981643 C8.19871679,30.5627247 8.87459863,29.9370037 9.54972782,29.310535 C9.29834193,29.821877 9.04770868,30.3332189 8.77901178,30.8348424 C8.76471139,30.8415705 8.75041099,30.8505415 8.73686325,30.8632502 C8.16560009,31.4291652 7.60637937,32.0070414 7.05016926,32.5871604 C6.77846175,32.8704916 6.50750689,33.1545705 6.23579938,33.4379018 C5.97538165,33.7100194 5.67883661,33.9739137 5.49669474,34.3058374 C5.4545462,34.3820902 5.54034857,34.4747896 5.61937707,34.4276923 C5.92420129,34.2437886 6.15902883,33.9627001 6.40063025,33.7062815 C6.68663815,33.4027657 6.97264606,33.0977547 7.25865397,32.7942389 C7.58681041,32.4458685 7.9172248,32.1004884 8.24989716,31.7566035 C7.54165126,32.9108607 6.67986428,34.050914 5.47486782,34.7192469 C4.19686407,35.4272013 2.68403278,35.2911425 1.7432173,34.1062346 C0.763263894,32.8727344 0.752726761,31.0979891 0.885946233,29.6095654 C1.20055493,26.1131528 1.99836646,22.6683229 2.48759051,19.1943375 C2.80671512,16.9217066 3.04982184,14.24688 4.65071346,12.450455 C5.26864106,11.7559569 6.04688363,11.2954502 6.89888613,11.0480025 C6.90942326,11.0674395 6.92823957,11.0831386 6.96060362,11.0936047 C7.03135295,11.1175271 7.08704922,11.0450122 7.12392919,10.9979149 C7.12769245,10.9934295 7.13070306,10.9896916 7.13446632,10.9852062 C7.32639268,10.9388564 7.5220823,10.9029728 7.72002988,10.8768076 C7.69895561,10.9179243 7.68239726,10.9612837 7.67261278,11.0061383 C7.6485279,11.1190222 7.80206899,11.2408771 7.88862401,11.1309835 C7.96087864,11.0397792 8.01582226,10.9373613 8.07904506,10.8401764 C8.19420088,10.8327007 8.31010935,10.8282152 8.42677047,10.8267201 C8.42074925,10.8341958 8.41397537,10.840924 8.40795416,10.8483998 C8.31462526,10.9672643 8.17764253,11.1354689 8.25591837,11.2917123 C8.30183017,11.3829165 8.43429699,11.3702078 8.48321939,11.2917123 C8.51257284,11.244615 8.52085201,11.1863041 8.54493689,11.1362165 C8.58181686,11.0614589 8.63224457,10.9926819 8.68116697,10.9261477 C8.70449919,10.8940019 8.72858407,10.8626037 8.7534216,10.8312055 C8.8339554,10.8341958 8.91448921,10.8386813 8.99577567,10.8446619 C9.07405152,10.8506425 9.15082206,10.8596134 9.22834525,10.8678367 C9.10491026,11.0614589 8.98147527,11.2528383 8.90244677,11.4718781 C8.83320275,11.6625099 9.14254288,11.7477336 9.20802364,11.5556066 C9.28629949,11.3275959 9.40296061,11.1190222 9.51134255,10.9059631 C9.67165751,10.9306331 9.83121981,10.9605361 9.98777151,10.9964198 C9.88315283,11.101828 9.79057658,11.2191974 9.7017636,11.3373144 C9.61746654,11.450946 9.4789785,11.5997136 9.4789785,11.7484812 C9.47973115,11.8366951 9.58434983,11.903977 9.66337833,11.8531418 C9.7792868,11.7783842 9.84025164,11.6198981 9.91626953,11.5085093 C9.99680334,11.3888972 10.0826057,11.2722753 10.1819558,11.1668671 C10.2158252,11.1309835 10.2233517,11.0898668 10.2143199,11.0532356 C10.3430234,11.0883716 10.4702217,11.1272456 10.5959146,11.1698574 C10.4980698,11.3275959 10.3889352,11.4793538 10.3023802,11.6438205 C10.2286203,11.7851124 10.0886269,11.9862103 10.1526024,12.1469392 C10.1669028,12.1820752 10.1985142,12.2164637 10.2406627,12.2134734 C10.4476421,12.1977743 10.4928013,11.9981715 10.5673138,11.8337048 C10.6553742,11.6393351 10.7765512,11.461412 10.8789119,11.2737705 C11.0030996,11.3231105 11.1250293,11.3769359 11.244701,11.4344993 C11.0768595,11.6071893 10.9233184,11.7955785 10.790099,11.9966764 C10.6862329,12.1521722 10.4837694,12.4093383 10.6245154,12.5887565 C10.644837,12.6141741 10.6884909,12.6216499 10.7178443,12.612679 C10.8886964,12.5633389 10.9519192,12.2792601 11.0384742,12.1409585 C11.1679304,11.9353752 11.3222242,11.7454909 11.491571,11.5705581 C11.4938289,11.5683154 11.4960869,11.5645775 11.4983448,11.5623348 C11.5901684,11.6116748 11.6812394,11.6632575 11.7700524,11.717083 C11.5894158,11.9107052 11.4306061,12.126007 11.2936234,12.351775 C11.1874994,12.5259602 10.9361135,12.8571363 11.0700856,13.0627197 C11.0904073,13.0926227 11.1295452,13.1135548 11.1664251,13.1015936 C11.3771678,13.0328166 11.4321114,12.716592 11.5299562,12.5386689 C11.6616704,12.2972019 11.8167168,12.0691913 12.0011166,11.8643555 C12.1712161,11.9787346 12.3352943,12.1028322 12.4933513,12.2351531 C12.4489448,12.2359007 12.4037857,12.2538425 12.3714216,12.2979495 C12.2111067,12.5162417 12.0786398,12.7502329 11.9401518,12.982729 C11.8152115,13.1920503 11.6135007,13.4043619 11.5623203,13.6450813 C11.5495252,13.7018971 11.6022109,13.7774023 11.6684443,13.7504895 C11.9070351,13.656295 12.0267068,13.4163231 12.1531524,13.2062543 C12.3074462,12.9505833 12.4489448,12.6881841 12.6258181,12.4459695 C12.6438818,12.4205519 12.6514083,12.3966295 12.6521609,12.3734547 C12.8915044,12.5902517 13.1150422,12.8279808 13.3197636,13.0888848 C13.3476118,13.1247685 13.3875023,13.1412151 13.4296509,13.1471958 C13.4371774,13.2025164 13.4717994,13.2533515 13.5380328,13.2765264 C13.4868524,13.356517 13.4334141,13.4357601 13.3814811,13.5157507 C13.2836363,13.6652659 13.1624593,13.8304802 13.1805229,14.0166266 C13.1850388,14.0637238 13.2392298,14.1115687 13.2866469,14.0771802 C13.4349194,13.9695293 13.5086794,13.7960917 13.6027609,13.6443337 C13.6652311,13.5419158 13.7299592,13.4409931 13.790924,13.3378276 C13.9422071,13.3639928 14.0927376,13.3729637 14.2440207,13.3767016 C14.1627343,13.5194886 14.0784372,13.6600328 14.0054299,13.8065577 C13.9233908,13.9710244 13.8007085,14.1743651 13.8917794,14.3515406 C13.9128537,14.3934048 13.9730659,14.3971427 14.0046773,14.3664921 C14.0686527,14.3029481 14.0784372,14.2558509 14.1025221,14.1706272 C14.14166,14.0338208 14.195851,13.9044902 14.2575685,13.7766547 C14.3222966,13.6428386 14.390788,13.5127604 14.4555161,13.3796919 C14.6263682,13.3804394 14.7987255,13.381187 14.9740936,13.3968861 C15.0493588,13.4036143 15.124624,13.4095949 15.1998893,13.4155755 C15.0094682,13.6047122 14.8265737,13.8170238 14.7159338,14.0614811 C14.6903436,14.1182969 14.6978701,14.1646466 14.7355027,14.2124915 C14.8521639,14.3590163 14.9650617,14.1160542 15.0064576,14.0420441 C15.109571,13.8596356 15.2442958,13.6996544 15.3895577,13.548644 C15.4249323,13.5120128 15.4286956,13.4686534 15.4143952,13.4327698 C15.7944846,13.4611776 16.1753268,13.4828573 16.5554162,13.5000516 C16.6419712,13.504537 16.7300316,13.5060322 16.8173392,13.5082749 C16.7134732,13.7093729 16.5855223,13.9007523 16.5343419,14.1220348 C16.4921934,14.3029481 16.761643,14.3777057 16.8143286,14.1990351 C16.8843253,13.9605584 17.0032444,13.7437613 17.0920574,13.513508 C17.2350613,13.5142555 17.3788179,13.513508 17.5225745,13.5112652 C17.3788179,13.6854504 17.2478564,13.9097232 17.3065633,14.1003551 C17.322369,14.1511902 17.3773126,14.2042681 17.4360195,14.1982875 C17.4352668,14.1982875 17.4352668,14.1982875 17.4352668,14.1982875 C17.4871999,14.2065109 17.532359,14.1803457 17.5489174,14.1295105 C17.5654757,14.1011026 17.5707443,14.0682093 17.5647231,14.0293354 C17.551928,13.9358884 17.6279459,13.8192665 17.673105,13.7437613 C17.7235327,13.6600328 17.7799816,13.5777995 17.8454624,13.504537 C18.0223357,13.499304 18.1984564,13.4925758 18.3753297,13.4843525 C18.2413575,13.6869456 18.0562051,13.8745871 18.0426573,14.1265202 C18.0351308,14.2700548 18.2594212,14.2992103 18.2940432,14.1609087 C18.3535028,13.9201893 18.5100545,13.7430138 18.619189,13.5262168 C18.6282209,13.5075274 18.6319841,13.4895855 18.6319841,13.4723913 C18.799073,13.4634204 18.9661618,13.4544495 19.132498,13.4454786 C18.9654091,13.6256444 18.8208999,13.8364608 18.7787514,14.0771802 C18.7591824,14.1900642 18.8796068,14.3238803 18.9955152,14.2431421 C19.0519642,14.2042681 19.09336,14.1579184 19.1234661,14.0966172 C19.1392718,14.065219 19.1272294,14.0323257 19.1023919,14.0166266 C19.1738939,13.8020723 19.2950709,13.6241492 19.4546332,13.449964 C19.4621597,13.4424882 19.4674283,13.4342649 19.4719442,13.4267892 C19.6051637,13.4193134 19.7376305,13.4125852 19.8693447,13.405857 C19.9137511,13.4036143 19.9589103,13.4021191 20.0033168,13.400624 C19.9257936,13.5037895 19.8565496,13.6166734 19.7933268,13.7220816 C19.7090297,13.8626259 19.5404356,14.1317533 19.730104,14.2588412 C19.7873055,14.2977151 19.8874083,14.2737927 19.9175144,14.2102487 C19.9717054,14.0928793 19.9972956,13.9358884 20.0665396,13.7983344 C20.1342783,13.6637707 20.2080382,13.5142555 20.308141,13.400624 C20.3119043,13.3961385 20.3149149,13.3916531 20.3179255,13.3871676 C20.5286681,13.3781967 20.7401635,13.370721 20.9516588,13.3639928 C20.7409161,13.6353628 20.3962013,14.1212872 20.7364002,14.2065109 C20.7981177,14.2222099 20.8500507,14.1863263 20.8718776,14.1302581 C20.8357503,14.2229575 20.8854254,14.1033454 20.8906939,14.0824132 C20.8997258,14.0487723 20.8967152,14.0151314 20.905747,13.9807429 C20.9268213,13.8970144 20.9712277,13.8200141 21.0141289,13.7452565 C21.0916521,13.6106928 21.1834757,13.4851001 21.2685254,13.3550219 C21.4898052,13.3490413 21.711085,13.3438082 21.9323648,13.3400703 C21.7788238,13.5568674 21.6139929,13.7721692 21.5334591,14.0263451 C21.468731,14.2304333 21.7976401,14.2760354 21.8307568,14.1018502 C21.940644,13.828985 22.0941851,13.5890131 22.2386944,13.3340897 C22.4065358,13.331847 22.5743773,13.3296043 22.7422188,13.3281091 C22.6165259,13.5934986 22.3681506,13.7886159 22.2793376,14.0741899 C22.2274046,14.2431421 22.4915856,14.3605115 22.5713667,14.1967924 C22.5442712,14.252113 22.5962042,14.1721224 22.6052361,14.1579184 C22.6142679,14.1414717 22.6172785,14.1227823 22.6150206,14.1048405 C22.7407135,13.8506647 22.9190921,13.622654 23.0071524,13.3520316 C23.0101631,13.3430606 23.012421,13.3340897 23.0131737,13.3251188 C23.4128321,13.3221285 23.8124905,13.3206334 24.2121489,13.3198858 C24.1466682,13.4342649 24.0412968,13.5351877 23.9713001,13.6398483 C23.8967876,13.7519847 23.7869003,14.0151314 24.0014062,14.0562481 C24.1541947,14.0854036 24.1970959,13.8506647 24.2610713,13.7527323 C24.3528949,13.6136831 24.4733193,13.4821098 24.523747,13.3198858 C24.664493,13.3198858 24.805239,13.3198858 24.945985,13.3198858 C24.8872781,13.3871676 24.8330871,13.4574398 24.7819068,13.5307022 C24.6757828,13.6824601 24.5448213,13.8753347 24.5425633,14.0667142 C24.541058,14.1975399 24.7051362,14.2580936 24.7969598,14.1713748 C24.8300765,14.1399766 24.8413663,14.109326 24.8519034,14.0734423 C24.9798543,13.7998295 25.0935049,13.5232264 25.3328483,13.3206334 C25.3975764,13.3206334 25.4630572,13.3206334 25.5285379,13.3206334 C25.3712336,13.4955661 25.1770493,13.686198 25.1913497,13.9201893 C25.1951129,13.9807429 25.2342508,14.0487723 25.2997316,14.0614811 C25.3283324,14.0667142 25.3501593,14.0689569 25.3780075,14.0614811 C25.4261772,14.0495199 25.469831,14.0076557 25.4811208,13.9590632 C25.5368171,13.7175962 25.7310014,13.5389255 25.8619629,13.33708 C25.8657262,13.3310994 25.8679842,13.3258664 25.8702421,13.3206334 C25.9989457,13.3206334 26.1268966,13.3206334 26.2548475,13.3206334 C26.2232361,13.3886628 26.1923773,13.4566922 26.1630239,13.5262168 C26.0930272,13.6929262 25.9989457,13.8633735 26.0320624,14.0480248 C26.0456101,14.1265202 26.1449602,14.1519378 26.2066777,14.1190445 C26.3677453,14.0330732 26.4279575,13.8431889 26.4859118,13.6817125 C26.5408554,13.5307022 26.5882725,13.3767016 26.6432161,13.2249437 C26.7079442,13.1636424 26.7463295,13.0806615 26.7583719,12.9924475 C27.1730834,12.4863386 27.6495123,12.0736767 28.178627,11.7477336 C28.1402417,11.7791318 28.104867,11.8142679 28.0770189,11.8583748 C28.0597079,11.8852876 28.0928246,11.9136955 28.1191674,11.9002391 C28.2591608,11.8254815 28.4104439,11.741753 28.5308683,11.6385875 C28.6053809,11.5750436 28.6746249,11.5062666 28.7468795,11.4412275 C28.9418165,11.3492756 29.1427747,11.2662947 29.3497541,11.1945274 C29.3324431,11.2094789 29.3143794,11.2244305 29.2963158,11.239382 C29.1548171,11.3634796 28.9854703,11.4830917 28.9184843,11.6640051 C28.9079471,11.6909178 28.9395585,11.722316 28.9674067,11.7125975 C29.1480432,11.6475584 29.2790048,11.4868296 29.4197508,11.3619844 C29.531896,11.2618092 29.6470518,11.1646244 29.7622076,11.0674395 C29.8276883,11.0494977 29.8939218,11.0323034 29.9609078,11.0158568 C29.707264,11.2341489 29.4874895,11.4823441 29.6545783,11.5802766 C29.7215644,11.6198981 29.7787659,11.5757911 29.8209145,11.5234608 C29.8856426,11.4434702 29.9420915,11.3619844 30.0158514,11.2872268 C30.144555,11.1571486 30.2822904,11.0308083 30.4275523,10.9171767 C30.5946411,10.8880213 30.7632353,10.865594 30.9333347,10.8498949 C30.7173235,11.0300607 30.5133547,11.2214401 30.423789,11.4868296 C30.3695981,11.648306 30.6081889,11.7260539 30.6857121,11.5959757 C30.6857121,11.5959757 30.6857121,11.5967233 30.6864647,11.5967233 C30.8445217,11.2797511 31.1019288,11.0651968 31.3427776,10.8244773 C31.5557782,10.8184967 31.7687788,10.8237297 31.9810268,10.8394288 C31.9283411,10.8835358 31.8756555,10.9268952 31.8282384,10.9710022 C31.6912556,11.096595 31.5061032,11.2431198 31.4534175,11.4292663 C31.4007318,11.6169078 31.6874924,11.6939081 31.7454466,11.5092569 C31.7906058,11.3657223 31.9908113,11.1967701 32.1037092,11.0816434 C32.1706952,11.0121189 32.2437025,10.9448371 32.3136992,10.8745649 C32.4740141,10.895497 32.6335764,10.9239049 32.7908808,10.959041 C32.6847568,11.0569734 32.5786328,11.1549059 32.4762721,11.2573238 C32.355095,11.3776835 32.0096276,11.6632575 32.2414445,11.8307145 C32.288109,11.8643555 32.3543424,11.8494039 32.3972436,11.8165106 C32.3972436,11.8135203 32.4476713,11.7604424 32.4604664,11.7425006 C32.480788,11.7133451 32.500357,11.6819469 32.5229365,11.653539 C32.5989544,11.5533639 32.6870147,11.4606644 32.7728171,11.3687126 C32.8781885,11.2558286 32.9858177,11.145935 33.093447,11.0360413 C33.2499987,11.0801483 33.4042925,11.131731 33.5555756,11.1907895 C33.4818157,11.2573238 33.4080557,11.323858 33.3320378,11.3881496 C33.1882812,11.5100045 32.9082946,11.6498012 32.8774358,11.8479088 C32.8699093,11.8950061 32.8887256,11.9578024 32.9451745,11.9667734 C33.1611858,12.0004143 33.3455856,11.7836172 33.4908475,11.6475584 C33.606756,11.5376648 33.7196538,11.4240332 33.8302937,11.3089065 C33.9680291,11.3724505 34.1020012,11.4434702 34.2329627,11.5204705 C34.1953301,11.5533639 34.1576975,11.5870048 34.1208175,11.6198981 C33.9529761,11.7671706 33.7362122,11.9151906 33.6436359,12.126007 C33.6187984,12.1828228 33.6458939,12.2725319 33.7234171,12.2643086 C33.957492,12.2411337 34.1072698,12.0198512 34.271348,11.8748215 C34.3436026,11.8112776 34.4151046,11.746986 34.4873593,11.6826945 C34.5498294,11.7253063 34.6100416,11.7709085 34.6702538,11.8172582 C34.464027,12.0243367 34.2826378,12.2501046 34.0884535,12.4683968 C33.9763083,12.5947371 33.7189012,12.7674272 33.8107248,12.9573115 C33.8242725,12.9849718 33.8641631,12.9991757 33.8935165,12.9902048 C33.9815768,12.9640396 34.0018985,12.9117093 34.0583474,12.839942 C34.1298494,12.7494854 34.2141464,12.6694947 34.2833905,12.5767953 C34.4504793,12.351775 34.6115469,12.1275022 34.8004626,11.9196761 C34.9043287,12.0056473 35.0036788,12.0946088 35.0992656,12.1873083 C34.9743253,12.3106583 34.8087418,12.3906489 34.6853068,12.5199795 C34.5618718,12.6500578 34.3247863,12.8810587 34.3345708,13.0694479 C34.3375814,13.1180403 34.3744614,13.1606521 34.4256418,13.1599045 C34.6679958,13.1584094 34.780141,12.8197575 34.9238976,12.667252 C35.0307743,12.554368 35.1511987,12.4571832 35.2497961,12.3405613 C35.3348458,12.4302704 35.4153796,12.5237174 35.4929028,12.6194071 C35.3581781,12.7382717 35.2227006,12.8571363 35.0887285,12.9782436 C34.9111025,13.1389724 34.6574587,13.3191382 34.6258473,13.568081 C34.6168155,13.6361104 34.6973493,13.6794698 34.7537982,13.6652659 C34.9886257,13.6077025 35.1662517,13.3273616 35.3265667,13.159157 C35.434196,13.046273 35.5433305,12.9348842 35.6524651,12.8234954 C35.8609499,13.1060791 36.0423391,13.4080998 36.2019014,13.7235768 C36.0513709,13.8596356 35.8970772,13.9904614 35.7472993,14.1265202 C35.6253697,14.237909 35.3792523,14.4008806 35.4364539,14.5907649 C35.4500017,14.6348719 35.486129,14.655804 35.5297828,14.661037 C35.7081614,14.6819691 35.8601972,14.41957 35.9693318,14.306686 C36.083735,14.1893166 36.1996434,14.0741899 36.3147992,13.9575681 C36.3637216,14.065219 36.4111387,14.1743651 36.4562979,14.2850063 C36.3253364,14.3986379 36.1981381,14.5145121 36.0754558,14.636367 C35.9610526,14.7499986 35.6900978,14.9496013 35.7525679,15.1342526 C35.7608471,15.1589226 35.7811687,15.1865829 35.8090168,15.1903208 C36.0092224,15.2194762 36.1544843,14.960815 36.274156,14.8344746 C36.3667323,14.7365422 36.4615665,14.6423476 36.5586586,14.5496482 C36.609839,14.6872022 36.6572561,14.8262513 36.7024152,14.966048 C36.5029623,15.1252817 35.869229,15.581303 36.1273888,15.7263327 C36.1462051,15.7367988 36.1582475,15.7375464 36.1793218,15.7412842 C36.187601,15.7397891 36.1958802,15.7390415 36.204912,15.7375464 C36.1733006,15.7420318 36.1770639,15.7412842 36.2146965,15.7360512 C36.2575977,15.718857 36.2839405,15.694187 36.3050148,15.6680218 C36.3637216,15.5947594 36.4299551,15.5282251 36.4999517,15.4646811 C36.59027,15.3817002 36.6873622,15.3046999 36.7814437,15.2247093 C36.8378926,15.4168363 36.889073,15.611206 36.9364901,15.8063234 C36.9056314,15.8377215 36.8762779,15.8691197 36.8454192,15.8997703 C36.7295107,16.0156446 36.5526374,16.1315189 36.5511321,16.309442 C36.5511321,16.3528014 36.5895174,16.3909277 36.6339239,16.3909277 C36.7964968,16.3894326 36.908642,16.2451504 37.0117553,16.1292762 C37.0365929,16.2451504 37.0606778,16.3610247 37.08401,16.476899 C36.9199318,16.6316472 36.748327,16.7804148 36.7189736,17.0144061 C36.7016626,17.1549503 36.8943416,17.1676591 36.9598223,17.0786976 C37.0245504,16.9904836 37.08401,16.9045124 37.1494907,16.8207839 C37.2428196,17.3291355 37.3173322,17.8337493 37.3873289,18.3196736 C37.8690264,21.6381632 38.5230813,24.9327304 38.9596197,28.2572005 C39.1696097,29.8577606 39.383363,31.6018553 38.7872623,33.1493375 Z M39.9824743,30.1186646 C39.8808662,28.163006 39.5098086,26.2021143 39.1816522,24.2733684 C38.87457,22.4627395 38.5539401,20.6558484 38.2995436,18.8369962 C37.9465496,16.309442 37.5897924,13.3871676 35.622359,11.5316842 C34.2894117,10.2742614 32.4341235,9.81973527 30.6367897,10.0664353 C28.9802018,10.2929508 27.2483486,11.0345462 26.4565583,12.5506302 C26.4339787,12.5468923 26.4098939,12.543902 26.3850563,12.543902 C24.2151595,12.5431544 22.0369835,12.5207271 19.8693447,12.6246402 C19.3296929,12.6500578 18.7900411,12.6792132 18.2496367,12.6881841 C17.6851474,12.6979026 17.1191528,12.7651845 16.5554162,12.7539708 C15.5807314,12.7337863 14.6564742,12.6171644 13.7261959,12.8990005 C13.7186694,12.8369517 13.6893159,12.7793884 13.6381356,12.7479902 C12.9946178,11.3148871 11.5532885,10.5389033 10.0570155,10.1920281 C8.4056962,9.80926921 6.59406191,9.97298834 5.15724851,10.9164292 C2.82703673,12.4459695 2.20910912,15.3473117 1.83052497,17.9107496 C1.58741825,19.5554167 1.34882745,21.1970934 1.0650775,22.8350323 C0.723373318,24.801157 0.376400569,26.7717672 0.142325678,28.7543385 C-0.0608904659,30.4737632 -0.157982623,32.3172854 0.643592165,33.9118649 C1.3480748,35.3135698 2.83757386,36.1986997 4.42265978,35.9617181 C6.1944035,35.6970762 7.55820961,34.2542547 8.52160467,32.8585304 C9.62800367,31.2557276 10.3799034,29.4578075 11.2785703,27.739878 C11.5841472,28.0845105 12.0116538,28.3386863 12.4263652,28.5263279 C13.1007418,28.8313389 13.8676945,28.8537661 14.5894882,28.7334064 C15.7997532,28.5323085 17.2930155,27.715208 17.6377303,26.4450765 C17.8695473,26.5026398 18.1284597,26.504135 18.3361917,26.4989019 C18.8367056,26.4861932 19.3357141,26.4712416 19.8369806,26.465261 C20.3179255,26.460028 20.7988703,26.4465716 21.2798152,26.4428337 C21.6200141,26.4398434 22.012146,26.3725616 22.3568608,26.4293774 C22.6932964,27.7084798 24.1933326,28.5315609 25.4088662,28.7334064 C26.1080803,28.8500283 26.8539588,28.8343292 27.5125296,28.552493 C27.94681,28.3663466 28.4006594,28.1017047 28.719784,27.739878 C29.5243694,29.2768941 30.2092831,30.8729687 31.1373035,32.3441982 C31.9607052,33.6479706 33.0099026,34.9539858 34.4527372,35.6073671 C35.9151408,36.2697194 37.5792552,36.0611457 38.6976967,34.8590436 C39.8695764,33.6008733 40.0682767,31.7566035 39.9824743,30.1186646 Z M6.94705588,25.495655 C7.33843512,25.3386641 7.61616385,24.9678664 7.9172248,24.688273 C8.31763587,24.3167278 8.71202572,23.9324738 9.07932008,23.5280352 C9.1312531,23.4704718 9.0522246,23.3927239 8.99351771,23.4435591 C8.6126756,23.7762304 8.2318335,24.1081541 7.85701261,24.4475536 C7.53036148,24.7435936 7.15403528,25.0351483 6.88006982,25.3812759 C6.84318985,25.4276256 6.87480125,25.5248105 6.94705588,25.495655 Z M15.8020112,14.1706272 C15.8245907,14.1721224 15.8471703,14.1579184 15.8577074,14.139229 C15.8268487,14.1938021 15.8817923,14.109326 15.8863082,14.0966172 C15.8938348,14.0779278 15.8953401,14.0569957 15.9021139,14.0383063 C15.9186723,13.9927041 15.9487784,13.9500923 15.9766265,13.9104708 C16.0330755,13.8297326 16.1045774,13.7564701 16.1512419,13.6704989 C16.2152173,13.5531295 16.0353334,13.4484689 15.971358,13.5658383 C15.9194249,13.6592853 15.477618,14.1511902 15.8020112,14.1706272 Z M17.6422463,23.8906095 C17.3306482,24.4326021 16.8986257,24.8960991 16.5576742,25.4194023 C16.2295177,25.9217733 15.7478202,26.4719892 15.5762155,27.0513606 C15.5506253,27.1380794 15.6590072,27.1896621 15.7207247,27.1350891 C16.1753268,26.7366311 16.480151,26.0653079 16.794007,25.5569563 C17.1214108,25.0284201 17.5188113,24.5380103 17.7920241,23.9780759 C17.8401938,23.8793959 17.6979425,23.7934246 17.6422463,23.8906095 Z M29.7268329,23.4383261 C29.4536201,23.9264932 29.3106162,24.4707284 29.1179371,24.9925364 C28.9275161,25.5113541 28.6091441,26.06157 28.6392502,26.6259898 C28.6430135,26.6865435 28.7318265,26.720932 28.7626852,26.6588832 C28.9990181,26.1901531 29.1932024,25.6818014 29.3625492,25.185411 C29.546949,24.6434185 29.6417832,24.0498432 29.8924164,23.5340158 C29.9451021,23.4248697 29.7877978,23.3299276 29.7268329,23.4383261 Z M32.4188782,11.8435233 C32.4188782,11.844763 32.4226282,11.8422835 32.4351282,11.8311257 C32.4301282,11.8360847 32.4238782,11.839804 32.4188782,11.8435233 Z M29.0509511,23.1250917 C29.0366507,23.0712663 28.9674067,23.0899557 28.9613855,23.137053 C28.9102051,23.5250449 28.6377449,23.8846289 28.4872144,24.2449605 C28.351737,24.5716512 28.1364784,24.9334779 28.1944327,25.2960523 C28.2019592,25.3401592 28.2696979,25.3573535 28.297546,25.3237126 C28.5632323,25.0022549 28.6535506,24.51035 28.8018231,24.1275911 C28.9267634,23.806881 29.1427747,23.4794427 29.0509511,23.1250917 Z M12.3977644,14.1661418 C12.5550688,14.0420441 12.6574295,13.8581405 12.7673168,13.6944213 C12.8817199,13.523974 12.9998863,13.3557694 13.1142895,13.1860697 C13.2098764,13.0455254 12.9803174,12.9132045 12.8862358,13.0530012 C12.7718327,13.2234485 12.6544189,13.3924007 12.5407684,13.562848 C12.4316338,13.7273147 12.3104568,13.8992571 12.2803507,14.0973648 C12.2690609,14.1691321 12.3405629,14.2109963 12.3977644,14.1661418 Z M16.6111125,24.9028273 C16.8926045,24.4856799 17.0077603,23.9010756 17.4074187,23.5773752 C17.460857,23.5340158 17.3923657,23.4547727 17.3359167,23.4854233 C16.9129261,23.7141816 16.7797066,24.2128147 16.5283207,24.5888454 C16.1407047,25.1674692 15.7305092,25.7274036 15.4143952,26.3508819 C15.3880524,26.4032122 15.4505225,26.4510571 15.4956817,26.4129307 C15.9751212,26.0010164 16.2626344,25.4186547 16.6111125,24.9028273 Z M23.207358,14.2371615 L23.2291849,14.227443 C23.2720861,14.2087536 23.2901497,14.1601611 23.2954183,14.1175493 C23.3932631,13.9358884 23.4828287,13.7654411 23.6303486,13.6099453 C23.7455044,13.4880904 23.5656205,13.3094197 23.4451961,13.4260416 C23.2623016,13.6032171 23.0733859,13.8319753 23.0003786,14.0794229 C22.962746,14.2072584 23.101234,14.2827636 23.207358,14.2371615 Z M6.56621377,26.8906317 C7.19618382,26.5086204 7.72153518,25.9068218 8.25968164,25.4104314 C8.74363712,24.963381 9.25619339,24.5522142 9.6528412,24.0221829 C9.70402156,23.9541535 9.5911237,23.8681822 9.53542743,23.9317262 C9.08759926,24.4393302 8.53741037,24.8385358 8.03614388,25.2885765 C7.5077819,25.7632872 6.88609104,26.2155707 6.46159509,26.7867187 C6.41493064,26.8495151 6.50449628,26.9280105 6.56621377,26.8906317 Z M35.0992656,14.2408993 C35.1888313,14.2214624 35.2302272,14.1467048 35.2829128,14.0794229 C35.3491462,13.9956944 35.4244115,13.9239271 35.50344,13.8529074 C35.6464439,13.7243244 35.7924585,13.6009743 35.8835294,13.4282843 C35.9542787,13.2937206 35.7533206,13.1756036 35.6780553,13.3086722 C35.5741893,13.4918283 35.3928001,13.606955 35.239259,13.7445089 C35.1218452,13.8499171 34.9193817,14.0315781 35.0112053,14.2050157 C35.0277637,14.2364139 35.0661489,14.2476275 35.0992656,14.2408993 Z M6.0694632,28.5629591 C7.36176734,27.3862746 8.42902842,25.9688706 9.84326225,24.9237594 C9.95239685,24.8430212 9.84853082,24.6591176 9.73488031,24.7398558 C9.01308667,25.2497026 8.35903175,25.8559866 7.73583558,26.4802125 C7.11489736,27.1036909 6.41342534,27.720441 5.97237104,28.4889491 C5.93699638,28.5502503 6.01828284,28.6100564 6.0694632,28.5629591 Z M9.99454538,27.0790209 C9.20952894,27.8452862 8.39064315,28.5749203 7.62218507,29.3576323 C6.92598161,30.0670819 6.16128679,30.7929781 5.60131342,31.6168068 C5.55389632,31.6855838 5.64797786,31.7805259 5.71797454,31.7326811 C6.53761298,31.1712515 7.15629324,30.2846265 7.84120691,29.5751769 C8.60364378,28.7864843 9.41048713,28.044889 10.1857191,27.2689052 C10.3084014,27.1463027 10.118733,26.9579136 9.99454538,27.0790209 Z M10.1510971,25.6399372 C8.43655495,27.2023709 6.64599493,28.6990179 5.25885658,30.5754335 C5.21520274,30.6337444 5.30175777,30.7212108 5.36121731,30.6771038 C6.25536834,30.0125088 6.92522896,29.0705632 7.69669765,28.2773851 C8.5321418,27.4184203 9.45940954,26.6416889 10.3302283,25.8171127 C10.4483948,25.7057239 10.2707688,25.5307911 10.1510971,25.6399372 L10.1510971,25.6399372 Z" id="Fill-40" fill="#FFEBC8"></path>
            </g>
        </g>
    </g>
</svg>