<?xml version="1.0" encoding="UTF-8"?>
<svg width="40px" height="40px" viewBox="0 0 40 40" version="1.1" xmlns="http://www.w3.org/2000/svg" xmlns:xlink="http://www.w3.org/1999/xlink">
    <!-- Generator: Sketch 62 (91390) - https://sketch.com -->
    <title>40icon-printer-yellow</title>
    <desc>Created with Sketch.</desc>
    <g id="40icon-printer-yellow" stroke="none" stroke-width="1" fill="none" fill-rule="evenodd">
        <g id="Group">
            <g>
                <rect id="Rectangle" x="0" y="0" width="40" height="40"></rect>
                <path d="M8.09019226,36.7318139 C8.09019226,36.729547 8.09019226,36.7284135 8.09019226,36.7261466 C8.08782976,36.7238797 8.08569226,36.7216128 8.08344226,36.7193459 C8.08569226,36.7238797 8.08681726,36.7272801 8.09019226,36.7318139 Z M26.5168306,28.2429534 C26.5146931,28.2429534 26.5124431,28.2429534 26.5112056,28.2429534 C26.5293181,28.2610887 26.5461931,28.2758237 26.5608181,28.2848914 C26.5450681,28.2724233 26.5304431,28.2576883 26.5168306,28.2429534 Z M35.0567381,14.2869056 C35.0184422,14.2774293 34.9754433,14.2855519 34.9378192,14.3214264 C34.6334674,14.6145148 34.3029132,14.8784974 34.0039362,15.1776777 C33.7956602,15.3861562 33.4281537,15.7171498 33.4536843,16.0413746 C33.4590592,16.1124468 33.5369947,16.1760734 33.6055243,16.1293688 C33.7270634,16.0454359 33.7835667,15.9290128 33.8688927,15.8092053 C33.9938584,15.6338938 34.137636,15.4741504 34.2874604,15.320499 C34.5279857,15.0747922 34.7859793,14.847361 35.0305357,14.6070691 C35.0244889,14.6889714 35.0197859,14.7688431 35.0157548,14.8453304 C35.0097081,14.980706 35.0056769,15.1160817 35.0016458,15.2507805 C34.7066328,15.6893978 34.3056006,16.0379902 33.9683277,16.4427635 C33.7411725,16.7141918 33.3273749,17.1013662 33.3959045,17.4878638 C33.4100135,17.5663817 33.5047455,17.5697661 33.5537912,17.5298303 C33.7224276,17.3951315 33.8077536,17.1609315 33.9360785,16.98562 C34.0758251,16.7954172 34.222962,16.6058912 34.374802,16.4258415 C34.5797188,16.1814884 34.7974008,15.9527035 34.9915679,15.704966 C34.9855212,16.0880792 34.9848493,16.4711924 34.9828337,16.8543056 C34.9828337,16.9057484 34.9828337,16.9571911 34.9828337,17.0086339 C34.8511495,17.1616084 34.7241683,17.3186442 34.5992027,17.4790644 C34.3385216,17.815473 33.9710152,18.1681267 33.8030506,18.5620699 C33.7654265,18.6500641 33.8460495,18.7570109 33.9414534,18.7015069 C34.2908197,18.4977665 34.5279857,18.0706562 34.7638079,17.7518464 C34.8363686,17.6536991 34.9089293,17.5569054 34.9821619,17.4601118 C34.9821619,17.7017574 34.98149,17.9427262 34.98149,18.1836949 C34.9633498,18.1363134 34.90557,18.0990851 34.8545088,18.1322521 C34.4722214,18.3793128 34.1127773,18.6514179 33.7828277,18.9668433 C33.5094485,19.2287952 33.0713969,19.6213847 32.9995081,20.0112667 C32.9867428,20.0809852 33.0593035,20.1588262 33.1285049,20.1114447 C33.2964695,19.9963754 33.3898578,19.8271558 33.5154953,19.6674124 C33.6565855,19.4873628 33.8097692,19.3174663 33.9676559,19.1523079 C34.2733514,18.8328213 34.611968,18.5424405 34.9593187,18.2689816 C34.9700684,18.260859 34.976787,18.2513827 34.98149,18.2412296 C34.98149,18.5295798 34.9821619,18.8186069 34.9828337,19.1069571 C34.9499127,19.1008652 34.9135651,19.1083108 34.882055,19.1387704 C34.483643,19.5184992 34.0133422,19.8528771 33.6505388,20.2671268 C33.5242294,20.4119787 33.4234507,20.577814 33.2944539,20.7206353 C33.1607541,20.8681948 32.9914458,20.9819104 32.8738706,21.1409768 C32.8315435,21.1985115 32.8899952,21.2709375 32.9497906,21.2743219 C33.3273749,21.2939514 33.5766344,20.8566879 33.7795356,20.5947359 C34.1268863,20.1459655 34.5836827,19.7770668 34.9835056,19.3729703 C34.9841774,19.6647049 34.9848493,19.9564395 34.9855212,20.248851 C34.6737789,20.5541232 34.3391935,20.8329971 34.0005769,21.1091636 C33.6525544,21.3941294 33.1540355,21.6811258 32.9390409,22.0872529 C32.905448,22.1502026 32.9624887,22.2530881 33.0411633,22.2212748 C33.4604029,22.0493477 33.819108,21.6459282 34.1645104,21.3575779 C34.4500501,21.1199936 34.725512,20.8742867 34.986193,20.6116579 C34.9867977,20.9365595 34.9875367,21.2621381 34.9882086,21.5877166 C34.6180147,21.925479 34.2068374,22.2111217 33.8017069,22.5075944 C33.4442783,22.7695464 32.8738706,23.0897099 32.7321085,23.5317115 C32.7126246,23.5906 32.777123,23.663026 32.8382621,23.6386583 C33.0660221,23.5486335 33.2292836,23.3564 33.4140447,23.1993642 C33.6465076,23.0017157 33.8897203,22.8182816 34.1336049,22.6355245 C34.4278788,22.4148621 34.7174497,22.1894616 34.9882086,21.941724 C34.9882086,22.2469962 34.9888805,22.5522684 34.9882086,22.8568637 C34.6220458,23.1634897 34.236332,23.4498092 33.8615023,23.7422207 C33.5383384,23.9940195 32.9941332,24.3114755 32.9269474,24.7480621 C32.914854,24.8279338 32.9874147,24.8949447 33.0640065,24.854332 C33.2615328,24.748739 33.3985919,24.5551518 33.5617863,24.4042079 C33.7553487,24.2261888 33.9629529,24.0657686 34.1638385,23.8972259 C34.4405769,23.6650566 34.7187934,23.4322104 34.9875367,23.189211 C34.9875367,23.4816225 34.9882086,23.7747109 34.9882086,24.0677993 C34.5528444,24.3338125 34.1664587,24.6661598 33.7882697,25.0086603 C33.5726032,25.2049551 33.3569367,25.4026036 33.1285049,25.584007 C32.9282911,25.7430734 32.6844066,25.8682959 32.5365978,26.0815127 C32.5003174,26.1343092 32.5480194,26.2236571 32.6138615,26.2168884 C33.0754281,26.1667993 33.5081048,25.6652324 33.8319405,25.3640215 C34.208114,25.0147522 34.5723283,24.6546529 34.9882086,24.3568264 C34.9882086,24.6492379 34.9867977,24.9423262 34.9841774,25.2354146 C34.4446753,25.5752076 33.92936,25.9508751 33.4335286,26.3515872 C33.1715038,26.564127 32.9161977,26.7841125 32.663579,27.0074824 C32.426413,27.2179916 32.1590134,27.427147 31.99508,27.7033134 C31.9439516,27.789277 32.0427819,27.8745637 32.1240768,27.8332741 C32.3921482,27.6978984 32.6084866,27.4657291 32.8308717,27.2653731 C33.0660221,27.054187 33.3038599,26.8463853 33.545057,26.6433218 C34.0065565,26.2547935 34.4809556,25.8858948 34.9794744,25.5494862 C34.9734277,25.929215 34.9633498,26.3082669 34.9458815,26.686642 C34.5897966,27.0088361 34.1772757,27.2701112 33.7936446,27.5564308 C33.4294974,27.8278591 32.9853319,28.0911648 32.682391,28.429604 C32.615877,28.5033838 32.6829957,28.5995005 32.7730919,28.5866398 C33.2104716,28.5216595 33.6465076,28.0647665 33.9851242,27.8068758 C34.2954555,27.5699684 34.6233896,27.3405066 34.9243821,27.0846465 C34.9075856,27.3641973 34.886758,27.6430712 34.8598837,27.9205914 C34.8578009,27.9429284 34.8551807,27.9645885 34.8531651,27.9862486 C34.5817343,28.2394012 34.2948509,28.4749549 33.9918428,28.6902022 C33.7513175,28.8621293 33.4852616,29.0069813 33.2453411,29.181616 C32.6272986,29.2391506 31.9909817,29.2046298 31.3749548,29.2019223 C30.4578683,29.1965073 29.5407817,29.1992148 28.6263826,29.2743483 C28.5719621,28.379515 28.5135104,27.4840048 28.4476683,26.5891715 C28.416091,26.1647687 28.3737639,25.7870705 28.3059062,25.3822972 C28.4214658,25.3003949 28.4792457,25.160958 28.4792457,25.021521 C28.4792457,24.804243 28.3407757,24.5876419 28.0633654,24.5876419 L28.0002107,24.5876419 C27.9995388,24.5876419 27.998867,24.5876419 27.9981951,24.5876419 C25.6527379,24.5883188 23.3079525,24.5964413 20.9624953,24.6065945 C17.5870793,24.620809 14.2022574,24.5754581 10.8281851,24.6769899 C10.2456168,24.6939118 9.66519844,24.7101569 9.08404103,24.7534771 C8.92077947,24.7656609 8.75684605,24.7778448 8.59358449,24.793413 C8.55394485,24.7974742 8.53446096,24.7995049 8.52639866,24.8001818 C8.53983583,24.798828 8.57141317,24.7961205 8.52364404,24.8028893 C8.47735301,24.8089812 8.42965107,24.8130424 8.38396471,24.8218419 C8.18173537,24.8611008 7.99495877,25.0228748 7.80011987,25.0404736 C7.62610858,25.0567187 7.55690718,25.2320302 7.62879601,25.3525146 C7.62812415,25.3626677 7.62879601,25.3734978 7.63013973,25.3843279 C7.75241793,26.1931976 7.60595283,27.0839696 7.53473585,27.9036695 C7.49509621,28.362593 7.45276914,28.8208398 7.41044207,29.2790865 C5.90951069,29.1552177 4.40857931,29.2736714 2.90697607,29.1897385 C2.17263498,29.1484489 1.32139054,28.9805831 1.15476969,28.1534376 C1.15268693,28.1439613 1.1514104,28.1365156 1.14939483,28.1297469 C1.14939483,28.1243318 1.14872297,28.117563 1.14731207,28.106733 C1.14133253,28.0505521 1.13461394,27.9943712 1.12923908,27.9388671 C1.11580191,27.7994302 1.10505218,27.6593163 1.09564617,27.5198794 C1.07213113,27.1611338 1.0580221,26.8017113 1.04653333,26.4429658 C1.01703875,25.5210573 1.00763273,24.5977951 1.00292972,23.6752098 C0.991508133,21.6168224 1.00763273,19.5577581 1.00628901,17.4986939 C1.00561716,16.74059 1.0049453,15.9824862 0.98478955,15.2243823 C0.973972632,14.8202859 0.943134337,14.4182201 0.914849104,14.0141236 C0.865198778,13.3040781 0.796669234,12.480317 1.17290987,11.8413438 C1.73323967,10.8896527 3.22274946,10.9417723 4.25808306,10.9471874 C4.17880378,11.0297665 4.10489937,11.1082844 4.0383854,11.1725879 C3.77165767,11.4298017 3.1286893,11.8934634 3.17907867,12.3185431 C3.18714097,12.3869078 3.25298308,12.4133061 3.30673174,12.3720165 C3.46730587,12.2461171 3.55599116,12.0105634 3.69237839,11.8542045 C3.83010934,11.695138 3.98463674,11.5509629 4.13513299,11.4040803 C4.27756695,11.2653202 4.4200009,11.0988081 4.57378926,10.9465105 C4.79221038,10.9444798 5.01123618,10.9431261 5.23026198,10.9424492 C5.07909387,11.0730867 4.92792575,11.2044012 4.77407021,11.3330081 C4.46494822,11.5922525 4.15797617,11.8562351 3.88647824,12.1567691 C3.63997344,12.4295512 3.32554377,12.6454754 3.13406417,12.964962 C3.10248683,13.0177585 3.16496965,13.076647 3.21670273,13.0482181 C3.79517271,12.7260239 4.18350679,12.1804599 4.67261961,11.7465808 C4.92792575,11.5198265 5.18054446,11.2910416 5.43517875,11.0629336 C5.48220883,11.0209671 5.52991077,10.9803544 5.5776127,10.9390648 C5.77043603,10.9370342 5.96252031,10.9329729 6.15534363,10.9262041 C5.82955956,11.2328301 5.48556812,11.5184728 5.16173243,11.8264525 C4.81975657,12.152031 4.49524903,12.4965621 4.17275705,12.8417701 C3.86833807,13.1680256 3.45655614,13.5030804 3.24828007,13.900408 C3.20864043,13.9755415 3.28791971,14.056767 3.36316784,14.0161543 C3.72395573,13.8212133 4.00546435,13.4265931 4.28025438,13.1274128 C4.58729361,12.7930349 4.89097355,12.4559494 5.21077809,12.1344322 C5.53192634,11.812238 5.87994893,11.5205034 6.20109718,11.1976324 C6.28642318,11.1116688 6.37376476,11.0128446 6.46513748,10.9146972 C6.73320893,10.8984521 7.01471755,10.8632544 7.26733626,10.7657839 C7.26935183,10.8206111 7.27069555,10.8754382 7.27203927,10.9295885 C7.00732711,11.0757943 6.7627707,11.3147324 6.54434957,11.5103502 C6.18295701,11.8338981 5.84299672,12.1824905 5.48355255,12.5094228 C4.76802348,13.1592261 3.9886007,13.8164751 3.40213562,14.5887934 C3.36316784,14.6388824 3.43707225,14.7045396 3.4861179,14.6734032 C4.2574112,14.1853739 4.87484895,13.455022 5.53864492,12.8329707 C5.8658399,12.5256679 6.18900373,12.2197188 6.50544898,11.9002322 C6.65594523,11.7479346 6.81383193,11.6078207 6.97306234,11.4656762 C7.07854409,11.3715901 7.17260424,11.2646433 7.27942971,11.1746185 C7.28540925,11.3688826 7.29152316,11.5631467 7.29756988,11.7574109 C7.30831961,12.1229252 7.29555431,12.4999465 7.30019013,12.8762909 C6.98381207,13.1998388 6.5437449,13.4232087 6.20848762,13.7190046 C5.86987105,14.0181849 5.4875837,14.3011201 5.14218136,14.6118073 C5.10664005,14.6178992 5.07035971,14.6233142 5.03475122,14.630083 C4.89634841,14.6544506 4.83111098,14.7898263 4.82714701,14.9177564 C4.77205463,14.9759679 4.71830597,15.0355332 4.6679166,15.0971291 C4.60140263,15.1763239 4.68269748,15.2866551 4.7774295,15.2399505 C4.80564755,15.2264129 4.8338656,15.2108447 4.86141178,15.1959534 C4.92523832,15.627125 4.96884192,16.0637116 5.03266846,16.4948831 C5.06431298,16.7094536 5.35657133,16.6261976 5.3780708,16.4475017 C5.42577273,16.0461127 5.35925876,15.6386319 5.37336779,15.2385967 C6.07008482,15.3049308 6.78427016,15.2602568 7.48098719,15.2548418 C8.32074285,15.2494268 9.16264845,15.2643181 10.0024713,15.2345355 C10.8926835,15.2027222 11.7781927,15.1546638 12.6690768,15.1709089 C13.5270398,15.1864771 14.3843309,15.2121985 15.2429658,15.2155829 C18.7245354,15.2277667 22.2047612,15.2047528 25.6863308,15.2602568 C26.671275,15.2758251 27.6488288,15.3089921 28.6324293,15.3699112 C28.7493327,15.3766799 29.1551351,15.3333597 29.2371018,15.4105239 C29.2504718,15.4233846 29.2444922,15.4694123 29.2498671,15.4951337 C29.2955535,15.7097041 29.1544632,15.9994081 29.0530126,16.178104 C28.7701603,16.6749328 29.5320476,17.1230263 29.814228,16.6268744 C30.0755809,16.1665971 30.2751228,15.50461 30.0144418,15.0023662 C29.8881324,14.758013 29.6676958,14.5975928 29.4023789,14.5393813 C29.387598,14.5359969 29.3721453,14.5332894 29.3566926,14.5305819 C29.6066238,14.2923207 29.8088532,13.9599733 30.0151137,13.7027595 C30.3127469,13.3318301 30.6231454,12.9730846 30.9241379,12.6062164 C31.2129698,12.2542396 31.5039516,11.9056472 31.8089753,11.5678849 C31.9909817,11.3661751 32.2207572,11.1874792 32.3451182,10.9431261 C32.7744356,10.9532793 33.2044249,10.9871232 33.6082117,11.0873012 C33.5867122,11.0900087 33.5652128,11.1015156 33.5490882,11.1252064 C33.1459732,11.7269513 32.568847,12.1256327 32.1113115,12.6664586 C31.8963168,12.920288 31.6840096,13.1747943 31.4622964,13.4225319 C31.2681293,13.6398098 31.0309634,13.8489653 30.9201068,14.1237779 C30.8918887,14.1948502 30.985277,14.2530617 31.0437287,14.2192178 C31.3023941,14.067597 31.4958221,13.7914306 31.6940875,13.5687376 C31.9319253,13.3034012 32.1402014,13.0089591 32.3806595,12.747684 C32.8456526,12.2434096 33.3300624,11.8027617 33.6942096,11.2104931 C33.720412,11.1678497 33.7049593,11.1279139 33.6747257,11.1055769 C33.8366435,11.1488971 33.9945302,11.2023705 34.1456983,11.2714121 C34.2048219,11.2978104 34.2592424,11.327593 34.3116473,11.3594063 C34.0610442,11.7648565 33.6599448,12.0261316 33.3260312,12.3557714 C33.1506762,12.5297292 33.0035393,12.7348233 32.84834,12.9270568 C32.7018749,13.109814 32.5332385,13.2858024 32.4720994,13.5159411 C32.4539592,13.5843058 32.5265199,13.6357486 32.5856434,13.6046122 C33.0223513,13.3737966 33.2763137,12.7842355 33.6297112,12.441735 C33.9366832,12.1439085 34.2720077,11.8562351 34.4863305,11.4798907 C35.2509052,12.0978807 35.1413923,13.2946018 35.0567381,14.2869056 Z M34.0509663,29.0239033 C34.1160694,28.9758449 34.1799631,28.9277866 34.2431178,28.8804051 C34.4124261,28.7551825 34.5770313,28.624545 34.7369336,28.4878156 C34.5971871,28.7585669 34.3371107,28.9223715 34.0509663,29.0239033 Z M22.3942253,30.8995335 C21.72707,30.8961491 21.0592429,30.8995335 20.3914158,30.9103635 C21.229223,30.1888111 21.9978289,29.3643732 22.7845749,28.6015311 C22.9290245,28.4620942 23.0748177,28.3246879 23.2219547,28.1886353 C23.4698032,28.1913428 23.7177861,28.1947272 23.9650299,28.2008191 C24.3426143,28.2096185 24.7201986,28.2326324 25.0984548,28.2394012 C24.6509972,28.6617733 24.2088473,29.0895605 23.779597,29.5308853 C23.3281083,29.9952239 22.8618386,30.4480556 22.3942253,30.8995335 Z M27.7731226,29.0692541 C27.8221683,30.4439943 27.8920415,31.8173807 27.9592273,33.190767 C27.9383997,33.1941514 27.9181768,33.2036277 27.899432,33.2225803 C27.472802,33.6435987 27.002434,34.0328038 26.5449657,34.4341928 C26.500623,34.3353685 26.4146252,34.25482 26.2768942,34.2196223 C25.8233899,34.1059067 25.358464,34.1282437 24.8955536,34.1126755 C24.7746191,34.1086142 24.6536846,34.1059067 24.5327502,34.104553 C24.8081449,33.8486929 25.0816584,33.5914791 25.3544328,33.3410341 C26.1888808,32.5748077 27.145607,31.8552859 27.7986532,30.9178092 C27.8759169,30.8068011 27.6972026,30.7045925 27.6199389,30.8122162 C27.2799786,31.2846773 26.8546252,31.6786206 26.4173126,32.0576725 C25.9826203,32.4340169 25.5586777,32.8225452 25.1245901,33.1988896 C24.7773066,33.4994236 24.4259247,33.7999576 24.0765584,34.1031992 C23.8279036,34.104553 23.5800551,34.1086142 23.3314676,34.1133524 C22.9135717,34.1214749 22.4956087,34.1282437 22.07778,34.1343356 C22.9196184,33.3951843 23.7016615,32.5693926 24.4884075,31.7760911 C25.0971111,31.7963974 25.7232158,31.7672917 26.3245962,31.8695003 C26.8392396,31.9568176 27.0374378,31.2623403 26.5409345,31.0789063 C26.1297573,30.9266086 25.6910338,30.9530069 25.2583571,30.9536838 C25.8065934,30.34517 26.3528142,29.7312413 27.0159383,29.2513345 C27.1093266,29.1836466 27.0206413,29.0266108 26.9244984,29.0942987 C26.1855215,29.6148182 25.5808491,30.2910198 24.9607239,30.946915 C24.9419118,30.9462381 24.9230326,30.9455612 24.9049596,30.9442075 C24.3782228,30.9083329 23.8501422,30.9164554 23.3227334,30.9090098 C23.1533579,30.9063023 22.9841168,30.9056254 22.8147414,30.9035948 C23.1843306,30.5198047 23.5471341,30.1326302 23.9085938,29.7522245 C24.3977066,29.2384738 24.9009285,28.7382606 25.4068378,28.2407549 C25.4847733,28.240078 25.5627089,28.2380474 25.6406444,28.2353399 C25.822718,28.2278942 26.0041198,28.2190948 26.1861934,28.2197717 C26.2768942,28.2197717 26.3716262,28.2339861 26.4616553,28.2278942 C26.4757643,28.2272174 26.4878577,28.2272174 26.4985403,28.2285711 C26.4777799,28.206911 26.453593,28.173744 26.428667,28.1229781 C26.4495618,28.1649445 26.4744206,28.1994653 26.5018996,28.2285711 C26.5832616,28.2360168 26.5751993,28.2833983 26.5281692,28.2536156 C26.8237197,28.5108294 27.3692686,28.1263625 27.1536021,27.6958678 C27.0018293,27.3926262 26.5866209,27.3790887 26.2896595,27.3750274 C26.7156177,26.9560396 27.1388884,26.5356981 27.5540968,26.1058803 C27.6132203,26.0449612 27.5218476,25.9529058 27.4613804,26.0124711 C26.9883921,26.4741022 26.5046542,26.9255801 26.0209162,27.3757043 C25.746059,27.3811193 25.472008,27.3987181 25.1965461,27.39398 C24.8356911,27.388565 24.4742985,27.3838268 24.1128387,27.3797655 C24.2068989,27.2951557 24.3016309,27.2105459 24.3950192,27.1252592 C24.9385526,26.6318148 25.4874608,26.1011421 26.0726493,25.6598174 C26.159319,25.5941602 26.0759414,25.4459238 25.9866515,25.5109041 C25.4498367,25.9048474 24.9432556,26.3705398 24.4440649,26.8111876 C24.2297421,27.0007136 24.0140756,27.1882089 23.7984091,27.3763811 C23.0620524,27.3675817 22.3249567,27.3594592 21.5879953,27.3465985 C21.5980732,27.3364453 21.6081511,27.3262921 21.618229,27.316139 C22.2477602,26.6825807 22.9115561,26.0869277 23.5498215,25.4628458 C23.9704048,25.461492 24.3909209,25.4601382 24.8122432,25.4587845 C25.785094,25.456077 26.7572729,25.4554001 27.7301237,25.4554001 C27.7106398,25.7058451 27.6998901,25.9583208 27.6972026,26.2087658 C27.6871247,27.1604569 27.7395297,28.1182399 27.7731226,29.0692541 Z M19.4555172,36.7795766 C17.9613044,36.8492951 16.4656807,36.8838159 14.9701914,36.9156292 C13.5121917,36.9467656 12.0637325,37.1410297 10.6064719,37.161336 C9.94872263,37.1708123 9.2728332,37.1681048 8.62986484,37.0076846 C8.39673002,36.9494731 8.23749961,36.855387 8.06617575,36.7003818 L8.06617575,36.7030893 C8.09372194,36.732872 8.09237822,36.7389639 8.07222247,36.7152731 C8.06953504,36.7125656 8.06751946,36.7091812 8.06617575,36.7064737 C8.06617575,36.7078275 8.06617575,36.7085044 8.06617575,36.7098581 C8.06416017,36.7464096 8.06012902,36.7227188 8.05542601,36.6922593 C8.05811345,36.6942899 8.06012902,36.6963205 8.0621446,36.6990281 C8.0621446,36.6976743 8.06147274,36.6963205 8.06080088,36.6956437 C8.05878531,36.693613 8.05744159,36.6922593 8.05542601,36.6902286 C8.05273858,36.6739836 8.05005115,36.6557078 8.04736371,36.643524 C7.99428691,36.3978171 7.98756833,36.3558507 7.97010001,36.0735924 C7.95061612,35.7703508 7.94322568,35.4664324 7.94121011,35.162514 C7.92978852,33.5170225 8.06147274,31.8749153 8.15822033,30.2328082 C8.20323483,29.4645512 8.24153076,28.6956172 8.2697488,27.9260064 C8.2778111,27.7026366 8.28251411,27.4785898 8.28520154,27.2552199 C8.28856083,26.937087 8.30132614,26.6243692 8.2650458,26.3075901 C8.2327966,26.0260086 8.15680943,25.7674411 8.05811345,25.5102272 C8.34029392,25.5345949 8.65002059,25.4960128 8.92212319,25.5027816 C9.39242398,25.5149654 9.86138105,25.5251186 10.3316818,25.5278261 C11.8534408,25.5359486 13.3758717,25.5109041 14.8976307,25.5014278 C17.2511502,25.4865365 19.6046697,25.4763833 21.9581221,25.4682608 C21.6389894,25.7417197 21.2862638,25.9549364 20.9483863,26.2067352 C20.5963325,26.469364 20.2805591,26.7556836 19.8921579,26.9668697 C19.8458668,26.9925911 19.8780489,27.0629864 19.9278336,27.0514795 C20.3470731,26.9533321 20.631941,26.6433218 20.9571204,26.3813698 C21.3447827,26.0693288 21.7586473,25.8148226 22.1194352,25.4682608 C22.5185191,25.466907 22.9182747,25.4648764 23.3180304,25.4641995 C22.7120142,26.0111173 22.0951812,26.5465282 21.5147628,27.1218748 C21.4415302,27.1949777 21.3682977,27.2687575 21.2943933,27.3418603 C19.949333,27.3168158 18.6049446,27.2694343 17.2592125,27.2904176 C15.9457296,27.3100471 14.6369497,27.3912725 13.322123,27.4000719 C12.5951724,27.4054869 11.8749403,27.438654 11.1513489,27.5056649 C10.6225965,27.5550771 9.70954108,27.4095482 9.33061302,27.8718562 C9.27753621,27.9375134 9.29164524,28.0424295 9.38167424,28.0667972 C9.61212163,28.12907 9.84794389,28.0965798 10.0843708,28.112148 C10.3793838,28.1324544 10.6716421,28.2042035 10.9665879,28.2062341 C11.5799945,28.2089416 12.1954167,28.1649445 12.8094952,28.1669752 C14.0336209,28.1696827 15.2510281,28.1520838 16.474482,28.1270393 C17.7416067,28.1019948 19.0094033,28.1338081 20.2758561,28.1629139 C20.3410264,28.1642677 20.4068685,28.1649445 20.4720388,28.1662983 C20.0232374,28.6204837 19.5771235,29.0773767 19.1370564,29.5390078 C19.0940574,29.5830049 19.1518372,29.6676147 19.2049141,29.6283557 C19.7833168,29.2012454 20.2933245,28.691556 20.7925152,28.1717133 C21.4919196,28.1811896 22.1906522,28.1805127 22.8893848,28.1852509 C22.8470578,28.223833 22.8040588,28.2617382 22.7624036,28.3009971 C21.8426296,29.1552177 20.8939658,30.0121458 20.015847,30.9178092 C19.9284382,30.9198398 19.8417685,30.9211936 19.7544941,30.9232242 C17.4661448,30.9821127 15.1811549,31.1520091 12.8921337,31.1790843 C12.293508,31.1865299 11.6975697,31.2433877 11.098944,31.2122513 C10.5520514,31.1838224 9.99172156,31.1844993 9.45423494,31.3009224 C9.27216135,31.3401814 9.29769196,31.5953645 9.45423494,31.6474842 C9.6497457,31.7131414 9.80158567,31.793013 10.0105336,31.8139963 C10.2718865,31.8403945 10.534583,31.8485171 10.7966078,31.8715309 C11.3400739,31.9189124 11.870842,31.9541101 12.4171299,31.9534332 C13.5082278,31.9507257 14.5932117,31.9304194 15.6837048,31.8884529 C17.6260471,31.8126425 19.5710768,31.7618766 21.5154347,31.7557847 C21.0652224,32.1991401 20.6238787,32.6492643 20.2026236,33.1169873 C20.1522342,33.1724913 20.2200919,33.2774075 20.2866059,33.2266416 C20.8771693,32.7799018 21.4341398,32.2790118 21.9722311,31.7551078 C22.1799025,31.7551078 22.3875067,31.7551078 22.5951109,31.7557847 C23.1124418,31.7591691 23.6304445,31.7571385 24.1484472,31.7672917 C23.343561,32.5423175 22.4916447,33.2916219 21.7660378,34.1383969 C21.1257569,34.1478732 20.4854759,34.1553188 19.845195,34.165472 C18.7137857,34.182394 17.5850638,34.2108229 16.4536544,34.2494049 C15.3531506,34.2866333 14.2466,34.2500818 13.1481117,34.3333379 C12.5387363,34.3800425 11.9508603,34.4524685 11.340813,34.3739506 C10.752937,34.2974633 10.1321399,34.2737726 9.54695138,34.3793656 C9.406533,34.405087 9.3823461,34.6257494 9.50663988,34.6886991 C9.96148793,34.9181609 10.4612833,34.9459129 10.9551663,35.0237539 C11.5027308,35.1103943 11.9918436,35.1875585 12.5515016,35.1489764 C13.6405838,35.0738429 14.7249631,35.0887342 15.8159937,35.0711354 C18.0889575,35.0345839 20.3611821,34.9743418 22.6347505,34.9668961 C22.79257,34.9662192 22.9505239,34.9641886 23.1077388,34.962158 C22.8020432,35.2410319 22.5010507,35.5246439 22.2094642,35.8157017 C22.1455705,35.8800051 22.2295528,35.9971051 22.3082274,35.9449855 C22.7536695,35.6464821 23.1782839,35.3087197 23.5908049,34.9540354 C23.8669386,34.9492973 24.1437442,34.9459129 24.4205498,34.9492973 C24.9009285,34.9553892 25.4323684,34.922899 25.9114033,35.0156313 C25.6715499,35.2491544 25.4437228,35.4921538 25.2375295,35.752752 C25.1770622,35.8292392 25.2677631,35.9192641 25.3436831,35.8596988 C25.6836434,35.590978 26.0174898,35.3080428 26.3460956,35.0163082 C26.4045473,34.9851718 26.4529211,34.939821 26.4905452,34.8863476 C26.9998137,34.4267471 27.4949733,33.9475172 27.9719927,33.4662566 C28.0042419,34.1370431 28.0358192,34.8071528 28.0633654,35.4779393 C28.0781463,35.8502225 28.1009894,36.2218288 28.1164422,36.5941119 C28.1197343,36.6807523 28.1238326,36.7680697 28.1258482,36.855387 C25.2308109,36.6672148 22.3545856,36.643524 19.4555172,36.7795766 Z M7.53473585,14.4094206 C6.94014128,14.4229582 6.348906,14.4540946 5.76035815,14.5231362 C5.99819598,14.3058582 6.2266278,14.0784271 6.45304403,13.8746867 C6.72514663,13.6289798 7.04226374,13.4245625 7.30831961,13.1707331 C7.32713165,13.5971665 7.38222402,14.0168311 7.53473585,14.4094206 Z M7.69060697,3.91103584 C7.73427776,3.63080816 7.82229119,3.35599551 8.05811345,3.18203775 C8.36448082,2.95663723 8.76961136,2.89977944 9.13705065,2.87202742 C9.95812864,2.81043148 10.7804832,2.83953725 11.6028377,2.85848985 C12.6314527,2.8821806 13.657985,2.86999678 14.6859953,2.87744245 C16.8829047,2.89368753 19.0792766,2.94377654 21.2762531,2.98303549 C21.8768272,2.99386554 22.4775357,3.00672623 23.078177,3.01281814 C22.9700078,3.08862852 22.8631823,3.1678233 22.7583725,3.24904872 C22.4694734,3.47309548 22.1409347,3.68360468 21.8923471,3.95367919 C21.8580824,3.9909075 21.8916753,4.06807164 21.9460958,4.04641153 C22.2598536,3.9218659 22.5171753,3.67006711 22.7765126,3.45955792 C22.9639611,3.30793714 23.1506705,3.15631637 23.3442329,3.01417189 C23.4268714,3.01484877 23.50951,3.01552565 23.5921486,3.01620253 C24.0006384,3.01687941 24.4098001,3.00875687 24.8182899,2.9952193 C24.4857201,3.21655855 24.1671921,3.46294231 23.855517,3.71406421 C23.5014477,3.99835316 23.1601437,4.29821032 22.8141367,4.59265244 C22.4627548,4.89115584 22.0562806,5.1564922 21.7438665,5.49628518 C21.6827274,5.56329614 21.7593192,5.64722907 21.8345673,5.61473891 C22.2121517,5.45364184 22.5359874,5.14836965 22.8470578,4.88574081 C23.1762011,4.60686689 23.4994321,4.32054731 23.827299,4.03964275 C24.1443489,3.76821449 24.4722829,3.51100068 24.8001497,3.25378687 C24.9217561,3.15902388 25.059487,3.07509096 25.1837808,2.98100485 C25.4632067,2.9701748 25.742095,2.95799098 26.0215881,2.94377654 C26.2715194,2.93159272 26.5711682,2.90384071 26.8721607,2.90451759 C26.5825897,3.12179557 26.3071279,3.35667239 26.0323378,3.598318 C25.5828646,3.99293814 25.0971111,4.34491493 24.6368882,4.72735126 C24.1679311,5.11723324 23.7090519,5.51997592 23.2548757,5.92677987 C22.7859186,6.34644451 22.2679159,6.75798661 21.8728633,7.25075413 C21.8177709,7.31911885 21.8876441,7.4368957 21.9729701,7.38139167 C22.4755201,7.05716689 22.9095406,6.6043352 23.3509515,6.20294628 C23.7869875,5.80697239 24.2250391,5.41302913 24.6731685,5.0305928 C25.115856,4.65357151 25.5936144,4.31310164 26.0195725,3.91712775 C26.3857353,3.57733477 26.7458513,3.22874236 27.1328417,2.91331701 C27.4761613,2.93768463 27.8040281,3.01620253 28.0445533,3.21858919 C28.169519,3.32350535 28.2373767,3.46835734 28.2729852,3.62403938 C28.0351473,3.76076883 27.8436677,3.93878786 27.6380119,4.12425256 C27.3653046,4.36928256 27.0730463,4.59468308 26.7881784,4.82482175 C26.2029898,5.29863667 25.6272073,5.7846354 25.0406078,6.25777344 C24.4675799,6.72008142 23.8998597,7.18780443 23.3509515,7.67921819 C22.8275739,8.14829495 22.2470883,8.63564744 21.8634572,9.23265423 C21.8110523,9.31387965 21.9218417,9.38089061 21.9870792,9.32877097 C22.5380029,8.88676934 23.011663,8.33985155 23.5377281,7.8673904 C24.0698398,7.38951421 24.6200917,6.93194437 25.1723592,6.47708205 C25.7064194,6.03846482 26.235239,5.59510943 26.7626478,5.14836965 C27.0441564,4.91078532 27.3249931,4.67184722 27.6017316,4.42817098 C27.8389647,4.21833866 28.0432096,3.97940057 28.3018751,3.7993509 C28.3112811,3.893437 28.3132967,3.98819999 28.3126967,4.07754794 C28.3079218,4.54797847 28.27836,5.01976275 28.2272988,5.48748576 C28.2192365,5.5646499 28.2105023,5.64181405 28.2017682,5.71897819 C28.0358192,5.83134001 27.9155566,5.97957639 27.7643884,6.11495208 C27.5325973,6.32207689 27.2665415,6.49738841 27.0280318,6.69706755 C26.5093572,7.13094664 25.9759017,7.54451937 25.4558834,7.97636783 C24.9385526,8.40618564 24.4299558,8.84683352 23.9159843,9.2807126 C23.4167936,9.70105412 22.8537763,10.0875517 22.4056469,10.5627204 C22.3344299,10.6385308 22.423787,10.7495388 22.513816,10.704188 C23.0660835,10.4246372 23.5504934,9.96165233 24.0194504,9.56297092 C24.5152818,9.14059876 25.0030509,8.70942719 25.4988824,8.28705504 C25.9980059,7.86265225 26.5174195,7.46329396 27.0092198,7.03076863 C27.263854,6.80604498 27.5278943,6.59282827 27.7845442,6.37013526 C27.9256344,6.24762026 28.0378348,6.10006076 28.1722064,5.97416137 C28.0734433,6.82770509 27.9679615,7.67718755 27.9478058,8.54020758 C27.9403481,8.87323178 27.9397435,9.2055791 27.9431027,9.53860329 C27.2134647,10.2425569 26.3306429,10.748862 25.5398657,11.3749745 C24.6765278,12.0586218 23.6559751,12.6908262 22.9485083,13.5464006 C22.8927441,13.6147653 22.9632892,13.7257734 23.0472715,13.6756844 C23.4974166,13.4069636 23.9045627,13.0583712 24.3150681,12.7334696 C24.7786503,12.3672783 25.2449199,12.0051484 25.7078303,11.6376034 C26.4542648,11.0446578 27.2517606,10.5295533 27.9478058,9.87568876 C27.9565399,10.4205759 27.9726645,10.9654631 27.9834142,11.5103502 C27.9733364,11.5198265 27.9639304,11.5326872 27.9578836,11.5496092 C27.8677874,11.801408 27.5325973,11.9726582 27.3263369,12.1141258 C27.1254512,12.252209 26.9298733,12.3990916 26.7283158,12.536498 C26.0483952,13.0001597 25.4115408,13.5024035 24.841805,14.1000872 C24.7920875,14.1522068 24.855914,14.2415548 24.9197405,14.2022958 C25.3074027,13.9640346 25.6614721,13.6885451 26.0182288,13.4069636 C26.3541579,13.1416273 26.7129303,12.9067505 27.0481875,12.6434448 C27.320962,12.4288743 27.756998,12.2034738 27.9901328,11.8907559 C27.9961796,12.3462951 27.9967842,12.8025112 27.9820705,13.2580504 C27.9699771,13.6513168 27.9283219,14.04526 27.9175721,14.4378495 C26.0793679,14.3261646 24.2156331,14.3105964 22.3740695,14.3160114 C20.4915226,14.3214264 18.6109913,14.3613623 16.7277726,14.3485016 C14.8754593,14.3363178 13.008298,14.2449392 11.1573957,14.3241339 C10.098547,14.3701617 9.04440139,14.3918218 7.9848809,14.401975 C7.97883417,14.401975 7.9734593,14.4026518 7.96801725,14.4026518 C7.99025576,12.6847343 8.07289433,10.9708781 7.99898992,9.25160683 C7.96002214,8.33714404 7.89216445,7.42538877 7.81355704,6.51363349 C7.74099634,5.67362733 7.56026647,4.751042 7.69060697,3.91103584 Z M28.7594106,13.9856947 C28.9146098,13.8354277 29.026743,13.6283029 29.1416307,13.4509607 C29.3519895,13.1253822 29.566917,12.8119875 29.8061657,12.5067153 C30.2233897,11.974012 30.6426293,11.4419855 31.098082,10.9410954 C31.4569215,10.9451567 31.8358496,10.9350035 32.2174651,10.9404186 C32.0145639,11.2104931 31.6873689,11.4270942 31.4622964,11.6633248 C31.1666787,11.9719813 30.890545,12.2975599 30.6097082,12.619754 C30.321481,12.9507476 30.0352694,13.2830949 29.7564482,13.622211 C29.5367506,13.8889011 29.2444922,14.1704825 29.0906367,14.4899692 C28.9709787,14.4771085 28.8487677,14.4696628 28.7258176,14.4649247 C28.7379111,14.3051814 28.7493327,14.145438 28.7594106,13.9856947 Z M28.8124874,12.9270568 C28.8205497,12.9236724 28.8279401,12.9189343 28.8346587,12.9108117 C28.9898579,12.7077482 29.0664498,12.4485038 29.2189616,12.2359639 C29.3862543,12.0024409 29.5817651,11.7919317 29.7551045,11.5638236 C29.9082882,11.3621138 30.1024552,11.1590503 30.2723682,10.9417723 C30.4598167,10.9417723 30.6473323,10.9397417 30.833437,10.9397417 C30.3947136,11.3959578 29.98488,11.879249 29.5857962,12.3720165 C29.3882699,12.6156927 29.1988059,12.8600459 29.0261383,13.1226747 C28.9541823,13.232329 28.870939,13.3453677 28.790316,13.460437 C28.7990502,13.282418 28.8064406,13.1050759 28.8124874,12.9270568 Z M29.4232065,10.9052209 C29.615358,10.9262041 29.8101969,10.9356804 30.0057076,10.9397417 C29.8209466,11.1604041 29.6240921,11.3715901 29.4420186,11.5861606 C29.2807726,11.7763635 28.9904626,12.0565911 28.8245808,12.3496795 C28.8265964,12.1655686 28.8265964,11.9814576 28.8239089,11.7959929 C28.8192059,11.4622919 28.8110765,11.1279139 28.8024095,10.7935359 C29.0026232,10.8558088 29.2135867,10.882207 29.4232065,10.9052209 Z M35.4356662,11.2605821 C34.611968,10.1153037 33.004883,10.1288413 31.7417894,10.147117 C31.3776422,10.152532 31.0134951,10.1653927 30.6500197,10.1789303 C30.6506916,10.174869 30.6506916,10.1714846 30.6513634,10.1674234 C30.6594257,10.1112425 30.5800793,10.0618303 30.5505847,10.12478 C30.5411787,10.1444095 30.5311008,10.164039 30.5210229,10.1836685 C30.2811024,10.1931448 30.0413161,10.2026211 29.8007909,10.2107436 C29.4520292,10.2222505 29.1255733,10.291969 28.7923316,10.3495037 C28.78091,9.85741304 28.7728477,9.36464553 28.7782226,8.87187802 C28.7883005,7.90258807 28.8830325,6.94818946 29.003967,5.98702206 C29.1040738,5.1876286 29.2477843,4.30294847 29.0993037,3.50220126 C28.7694212,1.71727278 26.4616553,2.08820217 25.1622814,2.13896806 C24.1397131,2.17958076 23.1198322,2.17010446 22.0965921,2.1531825 C19.7853996,2.11392355 17.474879,2.05977328 15.1630147,2.03608253 C14.1659098,2.02592935 13.1689393,2.04285132 12.1719017,2.02728311 C11.264893,2.01239179 10.3585562,1.97719411 9.45215218,2.02186808 C8.72325314,2.05774264 7.88544587,2.14099869 7.3519904,2.70822283 C6.73724008,3.36344118 6.81651936,4.40921838 6.88840819,5.23365634 C6.98246835,6.31056996 7.09668426,7.38545294 7.1652138,8.46439719 C7.2055253,9.09524791 7.23239963,9.72609862 7.25389909,10.3576262 C7.19679114,10.3467962 7.14035505,10.3359661 7.08324709,10.3244592 C7.06913807,10.2906153 7.03554516,10.2655708 6.99590552,10.2818158 C6.98307302,10.286554 6.97104676,10.2933228 6.95828145,10.2987378 C6.77620786,10.2621864 6.59346241,10.2283424 6.40332652,10.2175124 C5.82015354,10.1843453 5.23362127,10.1714846 4.64977643,10.1552396 C3.54524143,10.1234263 2.31641265,10.0631841 1.30996895,10.6006256 C-0.158041372,11.3844508 -0.0310601585,13.277003 0.0354538105,14.702509 C0.0669639635,15.3787106 0.071062299,16.0549122 0.0744215903,16.7317906 C0.0831557479,18.8700496 0.0616562832,21.0083087 0.0677030076,23.1472446 C0.0730778738,24.8035661 0.0126106292,26.5052386 0.219542977,28.1527607 C0.265901198,28.5169213 0.338461892,28.8228704 0.559503263,29.1322038 C0.957915219,29.6913054 1.60424288,29.955288 2.26064841,30.0554661 C2.97349004,30.1644435 3.69976883,30.1360146 4.41798532,30.1305996 C5.38949239,30.122477 6.36032759,30.1143545 7.32847536,30.1881342 C7.19141628,31.7889518 7.0960124,33.4046606 7.09265311,35.0102163 C7.09063753,35.5896243 7.08593453,36.1988149 7.22030618,36.766039 C7.4292541,37.6527498 8.38329285,37.7955712 9.15257057,37.9099636 C10.5782538,38.1218266 12.0637325,37.9059023 13.4921032,37.8104625 C15.0212526,37.7082538 16.5577925,37.7163764 18.0896293,37.662903 C19.8129458,37.6033377 21.5302155,37.4855608 23.2555476,37.4936834 C24.9526616,37.5018059 26.6484319,37.57897 28.3407757,37.6947163 C28.3737639,37.7028388 28.4093724,37.707577 28.4483402,37.707577 C28.4778347,37.707577 28.5081356,37.707577 28.5376973,37.707577 C28.842721,37.707577 28.9690303,37.4490094 28.923344,37.2209013 C29.0577156,36.8811084 28.9616399,36.2868091 28.9569369,36.0350103 C28.9367811,35.0914417 28.8823606,34.1471963 28.838018,33.2043046 C28.7909879,32.1984632 28.7385158,31.1926219 28.681475,30.1874574 C30.2139165,30.0818643 31.7525392,30.2355157 33.2816214,30.1082626 C34.2834293,30.0250065 35.4417129,29.6446008 35.7084407,28.5318127 C35.8448279,27.9612041 35.8421405,27.3357684 35.8643118,26.7522992 C35.9005921,25.8019619 35.91067,24.8502708 35.9159777,23.8985797 C35.9300867,21.7210617 35.9099981,19.5435437 35.9120137,17.3660257 C35.9126856,16.5984455 35.9120137,15.8301885 35.9368725,15.0632852 C35.977184,13.8245977 36.2069595,12.3334344 35.4356662,11.2605821 Z M8.08200236,36.7212981 C8.08537736,36.723565 8.08762736,36.725832 8.09100236,36.7292323 C8.08987736,36.6861609 8.07525236,36.6952286 8.08200236,36.7212981 Z M33.7943164,14.1197167 C33.5652128,14.3654235 33.2306274,14.6781414 33.1862847,15.0260569 C33.1762068,15.1011904 33.2776574,15.1519563 33.3361091,15.1126973 C33.6364298,14.9116644 33.8252219,14.5082449 34.0677628,14.2354629 C34.3391935,13.9301907 34.6314519,13.6438711 34.9143042,13.3501059 C35.0204578,13.2404515 34.8571962,13.0759701 34.7476833,13.18224 C34.4272069,13.4922503 34.0979964,13.7927844 33.7943164,14.1197167 Z M34.4796119,12.4383506 C34.1342767,12.7747592 33.819108,13.1219978 33.5175108,13.4976654 C33.3972482,13.6465786 33.2830323,13.80023 33.1634415,13.9491433 C33.0593035,14.0770733 32.9202288,14.1698057 32.8611053,14.3248108 C32.8375903,14.3870836 32.8967138,14.435142 32.9497906,14.4419108 C33.2662358,14.4804929 33.5047455,13.9775722 33.6679399,13.767063 C33.981093,13.3622897 34.2901479,12.9751152 34.644889,12.6048627 C34.7489599,12.4958853 34.5877811,12.3327575 34.4796119,12.4383506 Z M22.5783144,12.391646 C23.0855674,12.1384934 23.5195879,11.7472577 23.954952,11.3898659 C24.4232373,11.0053989 24.8894397,10.6202551 25.3618233,10.2412031 C26.2385983,9.53792641 26.9628615,8.6336168 27.8866667,7.99328979 C27.9760238,7.93101697 27.8954008,7.7854881 27.8006688,7.84437653 C26.8520049,8.43732205 26.1143045,9.28883514 25.2328265,9.96842111 C24.7779784,10.3190441 24.334552,10.6838816 23.8884381,11.0466885 C23.4113515,11.4345398 22.8907285,11.8007311 22.4768638,12.2589778 C22.4110217,12.3307269 22.4929884,12.4342893 22.5783144,12.391646 Z M5.34776999,13.9477895 C5.922276,13.3345377 6.57129109,12.7943886 7.15647964,12.1892593 C7.24980076,12.0931426 7.10676213,11.9482906 7.01001454,12.0416998 C6.43013367,12.6008014 5.76976417,13.0773238 5.21413738,13.6607931 C4.98772114,13.8983774 4.76667977,14.1420536 4.53152937,14.3721923 C4.27420765,14.6233142 3.97449168,14.8372078 3.74008033,15.1099898 C3.69439396,15.1634632 3.73739289,15.2507805 3.81062545,15.231828 C4.43881293,15.0653159 4.92187903,14.4026518 5.34776999,13.9477895 L5.34776999,13.9477895 Z" id="Fill-37" fill="#FFEBC8"></path>
            </g>
        </g>
    </g>
</svg>