<?xml version="1.0" encoding="iso-8859-1"?>
<!-- Generator: Adobe Illustrator 19.0.0, SVG Export Plug-In . SVG Version: 6.00 Build 0)  -->
<svg version="1.1" id="Capa_1" xmlns="http://www.w3.org/2000/svg" xmlns:xlink="http://www.w3.org/1999/xlink" x="0px" y="0px"
	 viewBox="0 0 480 480" style="enable-background:new 0 0 480 480;" xml:space="preserve">
<g>
	<g>
		<path d="M472,146.626h-68.72v-24c0-9.146-7.414-16.56-16.56-16.56H148c-9.146,0-16.56,7.414-16.56,16.56v49.92H66.96
			c-2.87-0.011-5.525,1.515-6.96,4l-32.48,56.72H8c-4.418,0-8,3.582-8,8v89.6c0,4.418,3.582,8,8,8h23.36
			c4.451,23.395,27.025,38.751,50.42,34.3c17.39-3.309,30.991-16.91,34.3-34.3h23.36c1.198-0.032,2.374-0.333,3.44-0.88
			c1.622,0.562,3.324,0.859,5.04,0.88h104.64c4.451,23.395,27.025,38.751,50.42,34.3c17.39-3.309,30.991-16.91,34.3-34.3h49.44
			c9.146,0,16.56-7.414,16.56-16.56v-73.04h51.68c4.418,0,8-3.582,8-8s-3.582-8-8-8h-51.68v-27.36h9.04c4.418,0,8-3.582,8-8
			s-3.582-8-8-8h-9.04v-27.28H472c4.418,0,8-3.582,8-8S476.418,146.626,472,146.626z M71.6,188.866h59.84v44.4H46L71.6,188.866z
			 M73.76,357.986c-0.027,0-0.053,0-0.08,0L73.76,357.986c-15.022,0-27.2-12.178-27.2-27.2s12.178-27.2,27.2-27.2
			s27.2,12.178,27.2,27.2C100.96,345.808,88.782,357.986,73.76,357.986z M116.08,322.786c-4.451-23.395-27.025-38.751-50.42-34.3
			c-17.39,3.309-30.991,16.91-34.3,34.3H16v-73.52h115.44v73.52H116.08z M295.04,357.986c-0.027,0-0.053,0-0.08,0L295.04,357.986
			c-15.022,0-27.2-12.178-27.2-27.2s12.178-27.2,27.2-27.2s27.2,12.178,27.2,27.2C322.24,345.808,310.062,357.986,295.04,357.986z
			 M387.36,146.946h-38.24c-4.418,0-8,3.582-8,8s3.582,8,8,8h38.08v27.04h-97.84c-4.418,0-8,3.582-8,8s3.582,8,8,8h97.68v27.36H332
			c-4.418,0.006-7.995,3.593-7.989,8.011c0.006,4.41,3.579,7.983,7.989,7.989h54.88v73.52h-49.52
			c-4.451-23.395-27.025-38.751-50.42-34.3c-17.39,3.309-30.991,16.91-34.3,34.3l-105.12-0.48l0.56-200l239.28,0.56V146.946z"/>
	</g>
</g>
<g>
</g>
<g>
</g>
<g>
</g>
<g>
</g>
<g>
</g>
<g>
</g>
<g>
</g>
<g>
</g>
<g>
</g>
<g>
</g>
<g>
</g>
<g>
</g>
<g>
</g>
<g>
</g>
<g>
</g>
</svg>
