<svg width="108" height="90" viewBox="0 0 108 90" fill="none" xmlns="http://www.w3.org/2000/svg">
<g clip-path="url(#clip0)">
<path fill-rule="evenodd" clip-rule="evenodd" d="M0.00893079 57.105L56.264 90L56.255 86.895L0 54L0.00893079 57.105Z" fill="#2D3C51"/>
<path fill-rule="evenodd" clip-rule="evenodd" d="M48.6638 24.354C49.1117 24.1233 49.6076 24.003 50.1106 24.003C50.6136 24.003 51.1094 24.1233 51.5574 24.354L107.411 56.853C108.196 57.312 108.196 58.068 107.411 58.536L59.3361 86.319C58.8869 86.5455 58.3916 86.6634 57.8893 86.6634C57.387 86.6634 56.8917 86.5455 56.4425 86.319L0.589368 53.82C-0.205472 53.361 -0.196542 52.605 0.589368 52.137L48.6638 24.354Z" fill="#EEEEEE"/>
<path fill-rule="evenodd" clip-rule="evenodd" d="M58.9341 86.562L58.943 89.649L107.401 61.632L107.393 58.545L58.9341 86.562Z" fill="#2D3C51"/>
<path fill-rule="evenodd" clip-rule="evenodd" d="M56.0137 86.562V89.649C56.4663 89.8799 56.9665 90.0002 57.4739 90.0002C57.9812 90.0002 58.4814 89.8799 58.934 89.649V86.562C58.4814 86.7929 57.9812 86.9132 57.4739 86.9132C56.9665 86.9132 56.4663 86.7929 56.0137 86.562Z" fill="#2D3C51"/>
<path fill-rule="evenodd" clip-rule="evenodd" d="M71.7678 3.41999L75.0186 5.30099C73.0806 4.16699 70.3924 4.32899 67.4274 6.05699C66.2281 6.76917 65.116 7.62102 64.1141 8.595L60.8633 6.71399C61.8669 5.74208 62.9787 4.89042 64.1766 4.17599C67.1416 2.44799 69.8298 2.28599 71.7678 3.41999Z" fill="#2D3C51"/>
<path fill-rule="evenodd" clip-rule="evenodd" d="M26.1045 17.352C28.2358 15.9864 30.7247 15.2966 33.2492 15.372C36.2142 9.9 40.4831 5.013 45.2343 2.25C49.7443 -0.378003 53.8346 -0.630003 56.7907 1.107L59.9879 2.988C57.0408 1.251 52.9505 1.494 48.4315 4.131C43.6892 6.894 39.4203 11.754 36.4642 17.244C33.9395 17.1768 31.4521 17.8693 29.3196 19.233C21.2819 23.913 14.7982 35.262 14.8249 44.577C14.8249 49.203 16.4593 52.461 19.0671 53.991L15.852 52.11C13.2442 50.58 11.6099 47.322 11.6099 42.696C11.6099 33.381 18.0758 21.996 26.1045 17.352Z" fill="#2D3C51"/>
<path fill-rule="evenodd" clip-rule="evenodd" d="M36.3303 17.001C33.8044 16.9238 31.3142 17.6171 29.1857 18.99C21.2552 23.67 14.8161 35.028 14.8429 44.352C14.8696 53.676 21.3534 57.429 29.3286 52.749L67.088 30.6C72.9376 27.126 77.6977 18.801 77.6441 11.961C77.5906 5.121 72.8662 2.367 66.9808 5.796C65.7913 6.51423 64.6885 7.36893 63.6943 8.343C61.7563 1.656 55.5494 -0.441002 48.2261 3.87C43.4928 6.642 39.2953 11.502 36.3303 17.001Z" fill="url(#paint0_linear)" stroke="white"/>
<path fill-rule="evenodd" clip-rule="evenodd" d="M54.1777 43.7193L51.9512 42.4256L55.5217 35.0068L57.7483 36.3005L54.1777 43.7193Z" fill="#A4D2E6"/>
<path fill-rule="evenodd" clip-rule="evenodd" d="M54.1778 43.7193L51.9512 42.4255L51.6704 41.9404L53.897 43.2341L54.1778 43.7193Z" fill="white"/>
<path fill-rule="evenodd" clip-rule="evenodd" d="M53.7266 43.3655L51.5 42.0718C51.561 42.0337 51.6181 41.9897 51.6705 41.9404L53.8971 43.2341C53.8473 43.2865 53.7897 43.3308 53.7266 43.3655Z" fill="#A4D2E6"/>
<path fill-rule="evenodd" clip-rule="evenodd" d="M60.6071 34.7036C59.5236 34.1701 58.2792 34.0726 57.1269 34.4307L55.5723 35.0068L57.7988 36.3005L59.3534 35.7345C60.5058 35.3764 61.7502 35.474 62.8337 36.0074L60.6071 34.7036Z" fill="#9AB4CD"/>
<path fill-rule="evenodd" clip-rule="evenodd" d="M59.3029 35.7345C64.087 34.6631 64.9796 38.2512 64.9997 42.9613V44.7098L54.4586 50.8248L53.1748 43.689L53.7264 43.3655C53.7896 43.3308 53.8471 43.2865 53.8969 43.2342L54.1778 43.7193L57.7483 36.3005L59.3029 35.7345Z" fill="#2D3C51"/>
<path fill-rule="evenodd" clip-rule="evenodd" d="M52.3623 44.164L50.1357 42.8602L50.9481 42.375L53.1747 43.6688L52.3623 44.164Z" fill="#3D95CA"/>
<path fill-rule="evenodd" clip-rule="evenodd" d="M53.1748 43.689L50.9482 42.3851L51.4999 42.0718L53.7264 43.3655L53.1748 43.689Z" fill="#A4D2E6"/>
<path fill-rule="evenodd" clip-rule="evenodd" d="M53.1748 43.689L50.9482 42.3851V42.375L53.1748 43.6688V43.689Z" fill="#3D95CA"/>
<path fill-rule="evenodd" clip-rule="evenodd" d="M51.6203 44.5885L49.4038 43.2948L50.136 42.8602L52.3625 44.164L51.6203 44.5885Z" fill="white"/>
<path fill-rule="evenodd" clip-rule="evenodd" d="M50.9985 45.5689L48.772 44.2651L49.0929 43.3554L51.3195 44.6492L50.9985 45.5689Z" fill="#A4D2E6"/>
<path fill-rule="evenodd" clip-rule="evenodd" d="M50.9983 45.5689L48.7717 44.2651L45.0908 40.9196L47.3174 42.2234L50.9983 45.5689Z" fill="white"/>
<path fill-rule="evenodd" clip-rule="evenodd" d="M51.58 44.5885L52.3221 44.164L50.908 52.8563L39.5444 59.5069V57.7584C39.5444 53.0383 40.3969 48.4293 45.1811 43.9518L47.3374 42.2436L51.0484 45.5689L51.3693 44.6492C51.4209 44.66 51.4742 44.6602 51.5259 44.6498C51.5776 44.6394 51.6267 44.6185 51.6702 44.5885" fill="#2D3C51"/>
<path fill-rule="evenodd" clip-rule="evenodd" d="M52.4024 41.5058L50.1758 40.2121L50.5368 39.9998L52.7634 41.3036L52.4024 41.5058Z" fill="#3D95CA"/>
<path fill-rule="evenodd" clip-rule="evenodd" d="M52.543 40.9802L50.3164 39.6865L50.3565 39.6966L52.5831 40.9903L52.543 40.9802Z" fill="white"/>
<path fill-rule="evenodd" clip-rule="evenodd" d="M52.583 40.9903L50.3564 39.6966L50.4066 39.6258L52.6332 40.9196L52.583 40.9903Z" fill="white"/>
<path fill-rule="evenodd" clip-rule="evenodd" d="M52.583 40.9802L50.3564 39.6865L50.4467 39.6157L52.6733 40.9196L52.583 40.9802Z" fill="#A4D2E6"/>
<path fill-rule="evenodd" clip-rule="evenodd" d="M52.583 41.0409H52.6632L52.7635 40.8994L52.583 41.0409Z" fill="#A4D2E6"/>
<path fill-rule="evenodd" clip-rule="evenodd" d="M49.3936 40.0099L47.167 38.7061L50.3163 39.6865L52.5429 40.9802L49.3936 40.0099Z" fill="white"/>
<path fill-rule="evenodd" clip-rule="evenodd" d="M52.5832 40.9903L50.4067 39.7269L50.5772 40.0099L52.8038 41.3137L52.5832 40.9903Z" fill="white"/>
<path fill-rule="evenodd" clip-rule="evenodd" d="M50.3364 40.303L52.4025 41.6069L52.5831 41.051L52.5429 41.0307L50.3364 40.303Z" fill="#A4D2E6"/>
<path fill-rule="evenodd" clip-rule="evenodd" d="M53.1044 41.5968L52.4023 42.001L52.7534 40.9903L53.1044 41.5968Z" fill="#2C3E50"/>
<path fill-rule="evenodd" clip-rule="evenodd" d="M52.7637 41.3036L51.851 40.768L50.7979 40.4445L51.6704 41.9404L53.897 43.2341L52.7637 41.3036Z" fill="#2C3E50"/>
<path fill-rule="evenodd" clip-rule="evenodd" d="M50.1659 40.2525L49.0928 43.3554L51.3193 44.6492L52.4025 41.5058L50.3364 40.303L50.1659 40.2525Z" fill="#3D95CA"/>
<path fill-rule="evenodd" clip-rule="evenodd" d="M51.3193 44.6492L49.0928 43.3554C49.1451 43.3643 49.1986 43.3626 49.2502 43.3504C49.3019 43.3383 49.3506 43.3159 49.3937 43.2847L51.5801 44.5885C51.5366 44.6185 51.4875 44.6394 51.4358 44.6498C51.3841 44.6602 51.3308 44.66 51.2792 44.6492" fill="#2C3E50"/>
<path fill-rule="evenodd" clip-rule="evenodd" d="M53.1749 43.689L51.9112 42.941L51.6304 43.7395L52.3625 44.164L51.841 47.3579L52.2321 49.531L54.4587 50.8247L53.1749 43.689Z" fill="#A4D2E6"/>
<path fill-rule="evenodd" clip-rule="evenodd" d="M53.1748 43.6688L54.4586 50.8247L50.9482 52.8664L52.3624 44.164L53.1748 43.6688Z" fill="#1A1A1A"/>
<path fill-rule="evenodd" clip-rule="evenodd" d="M55.7524 36.3207L53.5259 35.0169L55.8728 34.2791L58.0994 35.5728L55.7524 36.3207Z" fill="white"/>
<path fill-rule="evenodd" clip-rule="evenodd" d="M55.5317 36.6442L53.3052 35.3504L53.5258 35.0169L55.7524 36.3207L55.5317 36.6442Z" fill="white"/>
<path fill-rule="evenodd" clip-rule="evenodd" d="M52.7334 33.6423L52.7435 33.6726L52.7334 33.6827V33.6423Z" fill="#FBD099"/>
<path fill-rule="evenodd" clip-rule="evenodd" d="M52.6333 40.9196L50.4067 39.6157L53.3053 35.3504L55.5319 36.6442L52.6333 40.9196Z" fill="white"/>
<path fill-rule="evenodd" clip-rule="evenodd" d="M54.96 34.9664L52.7334 33.6625L54.96 34.9664Z" fill="#FBD099"/>
<path fill-rule="evenodd" clip-rule="evenodd" d="M48.9424 40.3839L46.7158 39.0901L47.1671 38.7162L49.3937 40.0099L48.9424 40.3839Z" fill="white"/>
<path fill-rule="evenodd" clip-rule="evenodd" d="M54.9499 34.2588V35.3807C54.9335 35.627 54.977 35.8736 55.0766 36.099C55.1763 36.3245 55.329 36.522 55.5216 36.6745L52.623 40.9499L52.5328 41.0105L49.3835 39.9998L48.9321 40.3738C49.2401 39.8081 49.4151 39.1788 49.4436 38.5342V37.2102C50.3826 37.251 51.313 37.0157 52.1215 36.533H52.2018C53.226 35.9348 54.1529 35.1814 54.9499 34.2993" fill="#E2E7ED"/>
<path fill-rule="evenodd" clip-rule="evenodd" d="M54.96 34.9562L52.7334 33.6625V33.6423L54.96 34.936V34.9562Z" fill="#FBD099"/>
<path fill-rule="evenodd" clip-rule="evenodd" d="M57.7888 28.1742L55.5923 26.8704V26.7794L57.8189 28.0731C57.8217 28.1068 57.8217 28.1406 57.8189 28.1742" fill="#FBD099"/>
<path fill-rule="evenodd" clip-rule="evenodd" d="M58.0293 27.4162L55.8027 26.1224V26.0315L58.0795 27.2949C58.0761 27.3251 58.0761 27.3556 58.0795 27.3859" fill="#FBD099"/>
<path fill-rule="evenodd" clip-rule="evenodd" d="M56.3945 24.6367C56.5202 24.5619 56.6294 24.4622 56.7155 24.3435L58.9421 25.6474C58.8504 25.7609 58.7422 25.8597 58.6211 25.9405L56.3945 24.6367Z" fill="#653800"/>
<path fill-rule="evenodd" clip-rule="evenodd" d="M57.1563 28.3056L54.9297 26.9917C55.1277 26.879 55.3458 26.8068 55.5716 26.7794L57.7982 28.0731C57.5717 28.104 57.3536 28.1795 57.1563 28.2955" fill="#FBD099"/>
<path fill-rule="evenodd" clip-rule="evenodd" d="M58.4505 26.0214C58.5948 26.0222 58.7379 25.9947 58.8718 25.9405C59.0346 25.8636 59.1864 25.765 59.3231 25.6474C58.944 26.2177 58.5355 26.7676 58.0995 27.2949L58.0293 27.3859C58.0293 27.3859 58.2199 26.8502 58.4505 25.991" fill="#653800"/>
<path fill-rule="evenodd" clip-rule="evenodd" d="M56.1036 24.7175C56.2066 24.7227 56.3086 24.6943 56.3944 24.6367L58.6009 25.9405C58.5133 25.9942 58.4126 26.0222 58.3101 26.0214L56.0835 24.7175" fill="#653800"/>
<path fill-rule="evenodd" clip-rule="evenodd" d="M58.0293 27.4162L55.8027 26.1224C55.8027 26.1224 55.9331 25.5766 56.1036 24.7175L58.3302 26.0214C58.1597 26.8805 58.0293 27.3859 58.0293 27.4162Z" fill="#FBD099"/>
<path fill-rule="evenodd" clip-rule="evenodd" d="M52.2022 36.4925L49.9756 35.1887C51.0021 34.5938 51.9294 33.84 52.7237 32.955L54.9503 34.2588C54.1533 35.141 53.2264 35.8944 52.2022 36.4925Z" fill="#FBD099"/>
<path fill-rule="evenodd" clip-rule="evenodd" d="M49.895 35.2393H49.9753L52.2018 36.5431H52.1216L49.895 35.2494" fill="#FBD099"/>
<path fill-rule="evenodd" clip-rule="evenodd" d="M56.1032 24.7175C56.1489 24.7349 56.1901 24.7625 56.2236 24.7984L57.2265 25.3644L58.3398 26.0214C58.267 26.0119 58.196 25.9915 58.1292 25.9607L55.8926 24.6569C55.9563 24.6955 56.0289 24.7164 56.1032 24.7175Z" fill="#FBD099"/>
<path fill-rule="evenodd" clip-rule="evenodd" d="M56.0332 30.3271L53.8066 29.0232C53.8359 28.624 53.9517 28.2362 54.1458 27.8869C54.3398 27.5377 54.6075 27.2355 54.93 27.0018L57.1565 28.3056C56.8341 28.5394 56.5664 28.8415 56.3723 29.1908C56.1783 29.54 56.0625 29.9279 56.0332 30.3271Z" fill="#FBD099"/>
<path fill-rule="evenodd" clip-rule="evenodd" d="M57.4173 21.9178C57.4555 21.6361 57.4273 21.3492 57.335 21.0805C57.2426 20.8119 57.0887 20.5689 56.8857 20.3714L59.1123 21.6651C59.3134 21.8712 59.4629 22.1227 59.5484 22.3987C59.6339 22.6746 59.6528 22.9671 59.6038 23.2519C59.6041 23.5608 59.5738 23.8689 59.5135 24.1717L57.2869 22.8679C57.3473 22.5685 57.3775 22.2637 57.3772 21.9582" fill="#653800"/>
<path fill-rule="evenodd" clip-rule="evenodd" d="M47.3174 42.2234L45.0908 40.9196L44.8301 40.677L47.0566 41.9808L47.3174 42.2234Z" fill="white"/>
<path fill-rule="evenodd" clip-rule="evenodd" d="M56.8858 20.3714L59.1123 21.6651C59.0297 21.6191 58.9357 21.598 58.8415 21.6045C58.7598 21.6147 58.6812 21.6422 58.6108 21.6853L56.3843 20.3916C56.4526 20.3442 56.5323 20.3163 56.615 20.3107C56.7094 20.2995 56.8049 20.3209 56.8858 20.3714Z" fill="#FBD099"/>
<path fill-rule="evenodd" clip-rule="evenodd" d="M47.2275 35.9063C48.1616 35.9431 49.0868 35.7118 49.8954 35.2393L52.122 36.533C51.3134 37.0157 50.383 37.251 49.4441 37.2102L47.2275 35.9063Z" fill="#FBD099"/>
<path fill-rule="evenodd" clip-rule="evenodd" d="M58.1195 25.9506L55.8929 24.6569C55.582 24.4749 55.3713 23.8988 55.3713 23.1003C55.3304 22.6023 55.3991 22.1013 55.5725 21.633C55.7459 21.1648 56.0196 20.7409 56.3743 20.3916L58.6009 21.6853C58.2477 22.0378 57.975 22.4637 57.8018 22.9332C57.6285 23.4028 57.559 23.9048 57.5979 24.4042C57.5979 25.2027 57.8186 25.7687 58.1295 25.9506" fill="#FBD099"/>
<path fill-rule="evenodd" clip-rule="evenodd" d="M53.5859 13.0435C53.8419 13.1171 54.0878 13.2223 54.3181 13.3569L56.5447 14.6607C56.3148 14.5229 56.0689 14.4142 55.8125 14.3373L53.5859 13.0435Z" fill="#FBD099"/>
<path fill-rule="evenodd" clip-rule="evenodd" d="M44.8204 28.4572L46.5054 29.468L44.2788 28.154L44.8204 28.4774" fill="#FBD099"/>
<path fill-rule="evenodd" clip-rule="evenodd" d="M48.8721 35.0169L46.6455 33.7231C47.1871 34.0365 48.4709 33.5918 49.8048 32.8236C51.5801 31.8129 53.4456 30.1755 53.8167 28.9727L56.0332 30.3271C55.6721 31.5299 53.8066 33.1369 52.0214 34.1679C50.6874 34.9461 49.4036 35.3909 48.862 35.0674" fill="#FBD099"/>
<path fill-rule="evenodd" clip-rule="evenodd" d="M46.3947 33.3593C46.3788 33.2069 46.3324 33.0594 46.2582 32.9256C46.1841 32.7918 46.0838 32.6746 45.9634 32.581L48.1899 33.8849C48.3105 33.976 48.411 34.0913 48.4853 34.2235C48.5595 34.3557 48.6058 34.5019 48.6212 34.653L46.3947 33.3593Z" fill="#FBD099"/>
<path fill-rule="evenodd" clip-rule="evenodd" d="M45.9635 32.5911L48.19 33.895C48.0775 33.8422 47.9529 33.821 47.8294 33.8334C47.7059 33.8459 47.5879 33.8916 47.488 33.9657C47.1721 34.1641 46.8937 34.4173 46.6655 34.7137L44.439 33.4098C44.6714 33.1204 44.9492 32.8711 45.2614 32.672C45.3594 32.5941 45.477 32.5453 45.601 32.5311C45.725 32.5168 45.8505 32.5376 45.9635 32.5911Z" fill="#FBD099"/>
<path fill-rule="evenodd" clip-rule="evenodd" d="M45.6829 28.9626L46.5053 29.4376C46.6934 29.8238 46.783 30.251 46.7661 30.6808C46.7756 31.482 46.5713 32.2709 46.1743 32.9651L43.9478 31.6613C44.3518 30.9728 44.5632 30.1869 44.5596 29.3871C44.5778 28.954 44.4881 28.5231 44.2988 28.1338L45.7029 28.9626" fill="#FBD099"/>
<path fill-rule="evenodd" clip-rule="evenodd" d="M44.3891 29.468C44.3274 29.0257 44.2905 28.5803 44.2788 28.1338L46.5054 29.4376C46.5185 29.884 46.5553 30.3294 46.6157 30.7718L44.3891 29.468Z" fill="#FBD099"/>
<path fill-rule="evenodd" clip-rule="evenodd" d="M43.366 28.2248L45.5625 29.5286C45.9357 29.9096 46.2715 30.3259 46.5655 30.7718L44.3389 29.468C44.045 29.0221 43.7091 28.6058 43.3359 28.2248" fill="#653800"/>
<path fill-rule="evenodd" clip-rule="evenodd" d="M43.1351 28.2147C43.1712 28.1975 43.2105 28.1887 43.2504 28.1887C43.2903 28.1887 43.3297 28.1975 43.3658 28.2147L45.5622 29.5286C45.5279 29.506 45.4879 29.494 45.4469 29.494C45.4059 29.494 45.3658 29.506 45.3315 29.5286L43.105 28.2248" fill="#FBD099"/>
<path fill-rule="evenodd" clip-rule="evenodd" d="M50.3164 20.8969L48.0898 19.5931C49.5742 18.3297 53.2852 13.2558 53.5861 13.0435L55.8126 14.3373C55.5519 14.5495 51.8008 19.6335 50.3565 20.8969" fill="#FBD099"/>
<path fill-rule="evenodd" clip-rule="evenodd" d="M48.2704 36.8362L46.0438 35.5425C45.3486 35.0711 44.8269 34.3819 44.5595 33.5816C44.5595 33.5816 44.5595 33.4704 44.4893 33.4098L46.7158 34.7137C46.7435 34.7691 46.767 34.8265 46.786 34.8855C47.0691 35.689 47.6089 36.3751 48.3206 36.8362" fill="#696055"/>
<path fill-rule="evenodd" clip-rule="evenodd" d="M46.6453 33.7231C46.5804 33.6861 46.5244 33.6353 46.4811 33.5742C46.4378 33.5131 46.4082 33.4432 46.3945 33.3694L48.6211 34.6631C48.6319 34.7379 48.6604 34.8091 48.704 34.8706C48.7476 34.9321 48.8051 34.9823 48.8718 35.0169L46.6453 33.7231Z" fill="#FBD099"/>
<path fill-rule="evenodd" clip-rule="evenodd" d="M43.8472 32.3486C43.8472 32.0959 43.9174 31.8634 43.9475 31.6309L46.174 32.9348C46.174 33.1571 46.1139 33.3997 46.0737 33.6423L43.8472 32.3486Z" fill="#E3BC88"/>
<path fill-rule="evenodd" clip-rule="evenodd" d="M43.5566 32.106C43.7316 31.9921 43.8789 31.8401 43.9879 31.6613L46.2145 32.9651C46.1055 33.1439 45.9581 33.2959 45.7832 33.4098L43.5566 32.106Z" fill="#653800"/>
<path fill-rule="evenodd" clip-rule="evenodd" d="M43.8171 32.5507C43.6838 32.4247 43.5628 32.2859 43.4561 32.1363L45.462 33.2885L45.7227 33.4402C45.8239 33.5912 45.9454 33.7272 46.0838 33.8444C45.3206 33.451 44.5775 33.0192 43.8572 32.5507" fill="#653800"/>
<path fill-rule="evenodd" clip-rule="evenodd" d="M43.4561 32.1363H43.5162L45.7428 33.4402H45.6826L43.4561 32.1363Z" fill="#653800"/>
<path fill-rule="evenodd" clip-rule="evenodd" d="M49.4439 37.2102L47.2273 35.9063V37.2405C47.1975 37.888 47.0226 38.5204 46.7158 39.0901L48.9424 40.4344C49.2504 39.8688 49.4254 39.2394 49.4539 38.5949L49.4439 37.2102Z" fill="#696055"/>
<path fill-rule="evenodd" clip-rule="evenodd" d="M46.7361 34.8855C46.4718 34.507 46.2498 34.1002 46.0741 33.6726L44.9307 33.0055C44.78 32.6477 44.7049 32.2622 44.7101 31.8735C44.7101 31.7724 44.7101 31.6714 44.7101 31.5703C44.7463 30.8517 44.9675 30.1551 45.352 29.5488L43.1254 28.245C42.751 28.8739 42.5533 29.5936 42.5537 30.3271C42.5537 30.4282 42.5537 30.5292 42.5537 30.6202C42.5537 31.4187 42.7744 31.9948 43.0853 32.1767L44.0882 32.7528C44.233 33.0584 44.4007 33.3523 44.5897 33.6322C45.2893 34.1369 46.0348 34.5735 46.8163 34.936" fill="#696055"/>
<path fill-rule="evenodd" clip-rule="evenodd" d="M42.9951 28.2147C43.0165 28.2271 43.0407 28.2336 43.0653 28.2336C43.09 28.2336 43.1142 28.2271 43.1355 28.2147L45.3621 29.5185C45.34 29.5285 45.3161 29.5337 45.2919 29.5337C45.2677 29.5337 45.2438 29.5285 45.2217 29.5185L42.9951 28.2147Z" fill="#653800"/>
<path fill-rule="evenodd" clip-rule="evenodd" d="M45.2214 29.5185L42.9948 28.2146C42.9734 28.2016 42.9551 28.184 42.9413 28.163C42.9274 28.142 42.9183 28.1183 42.9146 28.0934L45.1411 29.3972C45.152 29.4463 45.1806 29.4895 45.2214 29.5185Z" fill="#653800"/>
<path fill-rule="evenodd" clip-rule="evenodd" d="M50.3064 20.8969L48.0898 19.5931L48.5111 17.9759L50.7377 19.2798L50.3064 20.8969Z" fill="#653800"/>
<path fill-rule="evenodd" clip-rule="evenodd" d="M44.9507 25.5665C45.0572 24.3864 45.2585 23.2168 45.5525 22.0694L47.779 23.3732C47.4843 24.5171 47.2831 25.6833 47.1773 26.8603L44.9507 25.5665Z" fill="#FBD099"/>
<path fill-rule="evenodd" clip-rule="evenodd" d="M47.1773 26.8603L44.9507 25.5665C44.7472 25.4001 44.5712 25.2023 44.4292 24.9803L46.6558 26.2841C46.7978 26.5061 46.9738 26.704 47.1773 26.8704" fill="#653800"/>
<path fill-rule="evenodd" clip-rule="evenodd" d="M46.5053 29.4376L44.2788 28.1338C44.2502 27.0803 44.3005 26.0262 44.4292 24.9803L46.6558 26.2841C46.5272 27.3334 46.477 28.3909 46.5053 29.4477" fill="#FBD099"/>
<path fill-rule="evenodd" clip-rule="evenodd" d="M51.0488 18.0871L48.8223 16.7934L53.5462 13.0435L55.7728 14.3373L51.0488 18.0871Z" fill="#653800"/>
<path fill-rule="evenodd" clip-rule="evenodd" d="M50.7378 19.2798L48.5112 17.9759L48.8221 16.7934L51.0487 18.0871L50.7378 19.2798Z" fill="#653800"/>
<path fill-rule="evenodd" clip-rule="evenodd" d="M45.1411 29.3972L42.9146 28.0934C43.5364 26.365 43.9175 25.233 44.2184 24.4952L46.445 25.7889C46.1742 26.5267 45.763 27.6588 45.1411 29.3972Z" fill="#653800"/>
<path fill-rule="evenodd" clip-rule="evenodd" d="M47.779 23.3732L45.5625 22.0694C46.4219 20.632 47.4124 19.2785 48.5212 18.0265L50.7478 19.3303C49.6341 20.5965 48.6434 21.9672 47.7891 23.4238" fill="#FBD099"/>
<path fill-rule="evenodd" clip-rule="evenodd" d="M46.4451 25.7889L44.2185 24.4951C44.1928 24.3243 44.1928 24.1505 44.2185 23.9797L46.3949 25.2734C46.3863 25.4435 46.4032 25.6138 46.4451 25.7788" fill="#653800"/>
<path fill-rule="evenodd" clip-rule="evenodd" d="M46.395 25.2734L44.1685 23.9696C44.2487 23.0397 45.4924 22.1098 45.5525 22.0593L47.7791 23.3631C47.7189 23.4137 46.4753 24.3739 46.395 25.2734Z" fill="#653800"/>
<path fill-rule="evenodd" clip-rule="evenodd" d="M56.4143 9.49588C58.7311 8.95008 62.4321 15.9949 59.5536 24.1313C59.5983 23.8405 59.6151 23.546 59.6037 23.252C59.6037 22.2412 59.2527 21.6045 58.8014 21.6449C58.9117 18.5419 58.3701 15.1964 55.7323 14.3777L51.0084 18.1275L50.6974 19.3202C49.5838 20.5864 48.593 21.9571 47.7387 23.4137C47.6785 23.4642 46.4349 24.4244 46.3546 25.324C46.3459 25.494 46.3629 25.6644 46.4048 25.8293C46.134 26.5672 45.7228 27.6992 45.1009 29.4376C45.103 29.4627 45.1112 29.4868 45.1248 29.5078C45.1384 29.5289 45.1569 29.5462 45.1788 29.5582C45.2007 29.5702 45.2252 29.5766 45.2501 29.5767C45.275 29.5768 45.2996 29.5707 45.3216 29.5589C44.9371 30.1652 44.7159 30.8618 44.6797 31.5804C44.0973 29.7549 43.9092 27.825 44.128 25.9203C44.6095 20.4421 46.8059 15.3682 51.219 12.7808C51.4998 12.619 51.7907 12.4573 52.0915 12.3158C52.7861 11.4692 53.6335 10.7627 54.5889 10.2337C55.1691 9.89927 55.794 9.65077 56.4444 9.49588" fill="#1A1A1A"/>
<path fill-rule="evenodd" clip-rule="evenodd" d="M58.6009 21.6853C58.6713 21.6422 58.7499 21.6147 58.8316 21.6045C59.2829 21.6045 59.634 22.2109 59.634 23.2115C59.6347 23.5204 59.6045 23.8286 59.5437 24.1313C59.4556 24.6766 59.2465 25.1949 58.9319 25.6474C58.8403 25.7609 58.732 25.8597 58.6109 25.9405C58.5233 25.9942 58.4226 26.0222 58.3201 26.0214C57.8988 26.0214 57.5879 25.3644 57.5779 24.4042C57.539 23.9048 57.6085 23.4028 57.7817 22.9333C57.9549 22.4637 58.2277 22.0378 58.5809 21.6853" fill="#FBD099"/>
<path fill-rule="evenodd" clip-rule="evenodd" d="M57.1567 28.3056C57.3541 28.1896 57.5722 28.1141 57.7986 28.0833C57.8015 28.1169 57.8015 28.1507 57.7986 28.1843C57.5538 29.9068 56.9236 31.5507 55.9558 32.9918C54.988 34.4328 53.7079 35.6334 52.2121 36.5027H52.1319C51.3267 36.9846 50.3997 37.2199 49.464 37.1798C48.8337 37.1065 48.239 36.8465 47.7553 36.4328C47.2715 36.019 46.9203 35.47 46.746 34.8552C46.7269 34.7962 46.7034 34.7388 46.6758 34.6833C46.9039 34.387 47.1824 34.1338 47.4982 33.9354C47.9295 33.6827 48.4209 33.6726 48.6316 34.6328C48.8422 35.593 50.3867 35.0472 52.0416 34.087C53.6965 33.1268 55.6824 31.449 56.0535 30.2462C56.0827 29.847 56.1985 29.4592 56.3926 29.1099C56.5867 28.7607 56.8543 28.4585 57.1768 28.2248" fill="#FBD099"/>
<path fill-rule="evenodd" clip-rule="evenodd" d="M56.5952 20.3107C56.6955 17.5211 56.2642 14.5293 54.2583 13.3569L56.4849 14.6607C58.4908 15.8332 58.9221 18.8148 58.8218 21.6045L56.5952 20.3107Z" fill="#1A1A1A"/>
<path fill-rule="evenodd" clip-rule="evenodd" d="M45.3617 29.5185C45.6526 29.3972 45.7328 29.6701 46.6154 30.7718C46.5543 30.3295 46.5174 29.8841 46.5051 29.4376C46.6932 29.8238 46.7828 30.251 46.7658 30.6808C46.7754 31.482 46.571 32.2709 46.1741 32.9651C46.0651 33.1439 45.9177 33.2959 45.7428 33.4098H45.6826C45.141 33.6524 44.6797 32.9752 44.6797 31.8432C44.6797 31.7421 44.6797 31.641 44.6797 31.5501C44.7159 30.8315 44.9371 30.1348 45.3216 29.5286" fill="#FBD099"/>
<path fill-rule="evenodd" clip-rule="evenodd" d="M54.188 8.19203C54.5369 8.13491 54.8943 8.21057 55.1909 8.40429L57.4175 9.70813C57.1209 9.51441 56.7634 9.43876 56.4146 9.49588L54.188 8.19203Z" fill="#1A1A1A"/>
<path fill-rule="evenodd" clip-rule="evenodd" d="M55.7725 14.3373C55.5117 14.5495 51.7607 19.6335 50.3164 20.8969L50.7376 19.2798L51.0486 18.0871L55.7725 14.3373Z" fill="#1A1A1A"/>
<path fill-rule="evenodd" clip-rule="evenodd" d="M47.7789 23.3732C47.4842 24.5171 47.2829 25.6833 47.1771 26.8603C46.9736 26.6939 46.7976 26.496 46.6556 26.274C46.5271 27.3233 46.4768 28.3808 46.5051 29.4376C46.5182 29.884 46.5551 30.3294 46.6155 30.7718C45.7329 29.6701 45.6125 29.3972 45.3618 29.5185C45.3398 29.5303 45.3152 29.5364 45.2903 29.5363C45.2654 29.5362 45.2409 29.5298 45.219 29.5178C45.1971 29.5058 45.1786 29.4884 45.165 29.4674C45.1514 29.4463 45.1432 29.4222 45.1411 29.3972C45.7629 27.6587 46.1441 26.5267 46.445 25.7889C46.403 25.6239 46.3861 25.4536 46.3948 25.2835C46.475 24.3435 47.7187 23.4238 47.7789 23.3732Z" fill="#1A1A1A"/>
<path fill-rule="evenodd" clip-rule="evenodd" d="M55.592 14.4485C58.2298 15.2672 58.7714 18.6127 58.6611 21.7156C58.5794 21.7258 58.5007 21.7534 58.4304 21.7965C58.0772 22.149 57.8045 22.5749 57.6312 23.0444C57.458 23.514 57.3885 24.0159 57.4274 24.5154C57.4274 25.4756 57.7484 26.1123 58.1696 26.1325C57.9991 26.9917 57.8687 27.5071 57.8687 27.5273C57.8654 27.4971 57.8654 27.4666 57.8687 27.4364L57.5979 28.3056C57.6008 28.272 57.6008 28.2382 57.5979 28.2045C57.3705 28.2308 57.1514 28.3066 56.956 28.4269C56.6336 28.6607 56.3659 28.9628 56.1718 29.3121C55.9778 29.6613 55.862 30.0492 55.8327 30.4484C55.4716 31.6511 53.6061 33.2582 51.8209 34.2892C50.0356 35.3201 48.6014 35.6941 48.4108 34.8349C48.2202 33.9758 47.7087 33.8849 47.2775 34.1375C46.9616 34.3359 46.6832 34.5892 46.455 34.8855C46.4827 34.9409 46.5062 34.9983 46.5252 35.0573C46.261 34.6788 46.039 34.272 45.8633 33.8444C45.8633 33.6019 45.9335 33.3593 45.9636 33.1369C46.3605 32.4427 46.5649 31.6538 46.5553 30.8527C46.5723 30.4229 46.4827 29.9956 46.2946 29.6095C46.2662 28.5526 46.3165 27.4951 46.445 26.4459C46.587 26.6678 46.763 26.8657 46.9665 27.0321C47.0724 25.8551 47.2736 24.6889 47.5683 23.5451C48.4353 22.0653 49.443 20.6741 50.5772 19.3909L50.156 21.0081C51.6303 19.7447 55.3513 14.6607 55.6121 14.4485" fill="#FBD099"/>
<path fill-rule="evenodd" clip-rule="evenodd" d="M52.1318 12.3461L49.9053 11.0524C50.5784 10.1999 51.4053 9.4832 52.3425 8.93997C52.9177 8.60045 53.5396 8.34842 54.1879 8.19203L56.4145 9.49588C55.764 9.65078 55.1391 9.89927 54.559 10.2337C53.6262 10.779 52.8029 11.4955 52.1318 12.3461Z" fill="#1A1A1A"/>
<path fill-rule="evenodd" clip-rule="evenodd" d="M44.7199 31.5703L42.5535 30.3271C41.961 28.5072 41.7727 26.5784 42.0019 24.6771C42.4732 19.1888 44.6697 14.1149 49.0827 11.5376C49.3636 11.3758 49.6544 11.2242 49.9553 11.0827L52.1819 12.3765C51.881 12.518 51.5902 12.6797 51.3093 12.8414C46.8963 15.3986 44.6998 20.4724 44.2184 25.9809C43.9989 27.8823 44.187 29.8091 44.77 31.6309" fill="#1A1A1A"/>
<path fill-rule="evenodd" clip-rule="evenodd" d="M52.7637 41.3036L52.4027 41.5058L51.6304 43.7395L52.3625 44.164L53.1749 43.689L53.7266 43.3655C53.7897 43.3308 53.8473 43.2865 53.8971 43.2341L52.7637 41.3036Z" fill="#1A1A1A"/>
<path fill-rule="evenodd" clip-rule="evenodd" d="M47.0567 41.9808L44.8301 40.677L46.7156 39.0901L49.3935 40.0099L47.0567 41.9808Z" fill="white"/>
<path fill-rule="evenodd" clip-rule="evenodd" d="M53.5863 43.2442L53.0146 43.5778L54.489 50.7338L54.8701 50.5215L56.7657 36.0478L54.2282 43.4666L53.9073 42.9208C53.8257 43.0398 53.7196 43.1398 53.5964 43.2139" fill="white"/>
<path fill-rule="evenodd" clip-rule="evenodd" d="M51.0688 45.3668L49.2334 40.4344L50.2364 53.2404L51.0387 52.7755L52.2924 44.0326L51.5502 44.4571C51.4986 44.4918 51.4406 44.5158 51.3797 44.5279L51.0688 45.3668Z" fill="white"/>
<path fill-rule="evenodd" clip-rule="evenodd" d="M55.7524 36.3207L58.0993 35.5728L57.7483 36.3005L54.1777 43.7193L53.8969 43.2341L52.7635 41.3036L52.583 40.9903L52.6332 40.9196L55.5317 36.6442L55.7524 36.3207Z" fill="#F2F2F2"/>
<path fill-rule="evenodd" clip-rule="evenodd" d="M49.3938 40.0099L52.5431 40.9802L52.5832 40.9903L52.4027 41.5058L51.3195 44.6492L50.9985 45.5689L47.3177 42.2234L47.0469 41.9808L48.9425 40.3839L49.3938 40.0099Z" fill="#F2F2F2"/>
<path fill-rule="evenodd" clip-rule="evenodd" d="M45.0609 40.9398L42.9045 42.6479C38.1204 47.1356 37.2479 51.7445 37.2679 56.4545V58.2031L39.5446 59.5069V57.7584C39.5446 53.0382 40.3971 48.4293 45.1813 43.9518L47.3376 42.2335L45.0609 40.9398Z" fill="#9AB4CD"/>
<path fill-rule="evenodd" clip-rule="evenodd" d="M28.0874 21.6H28.132H28.1767H28.2303H28.5786H28.6232L25.2742 19.602H24.9348H24.8902H24.8276L28.2481 21.6H28.3017" fill="#3AADEA"/>
<path fill-rule="evenodd" clip-rule="evenodd" d="M20.1568 33.102L16.7363 31.104C16.7235 31.2217 16.7424 31.3407 16.7912 31.4484C16.8399 31.5561 16.9166 31.6486 17.0132 31.716L20.4337 33.714C20.3371 33.6466 20.2604 33.5541 20.2117 33.4464C20.1629 33.3387 20.144 33.2197 20.1568 33.102Z" fill="#136CB2"/>
<path fill-rule="evenodd" clip-rule="evenodd" d="M20.1388 27.351L16.7183 25.353L16.7361 31.104L20.1566 33.102L20.1388 27.351Z" fill="#0091F4"/>
<path fill-rule="evenodd" clip-rule="evenodd" d="M24.5952 19.674L17.6738 23.697L21.0854 25.695L28.0157 21.672L24.5952 19.674Z" fill="#2B9FFC"/>
<path fill-rule="evenodd" clip-rule="evenodd" d="M28.9712 22.221C28.9712 21.609 28.5425 21.321 28.0156 21.672L21.0853 25.695C20.8086 25.8757 20.5785 26.1201 20.4139 26.408C20.2493 26.6959 20.155 27.0191 20.1387 27.351V33.102C20.1387 33.714 20.5674 33.957 21.0943 33.651L28.0156 29.628C28.2928 29.4478 28.5233 29.2036 28.688 28.9155C28.8527 28.6275 28.9467 28.304 28.9623 27.972L28.9712 22.221Z" fill="#136CB2"/>
<path fill-rule="evenodd" clip-rule="evenodd" d="M20.1392 27.252C20.1392 27.252 20.1392 27.198 20.1392 27.171V27V26.91V26.829V26.748V26.676V26.604V26.55C20.1376 26.526 20.1376 26.502 20.1392 26.478V26.424L20.1928 26.352L20.2464 26.28L20.3178 26.199L20.3625 26.154L20.4072 26.1L20.4697 26.037L20.5411 25.974L20.6126 25.92L20.684 25.875L17.2724 23.877L17.1921 23.922L17.1206 23.976L17.0581 24.03C17.0351 24.0487 17.0141 24.0698 16.9956 24.093L16.9509 24.147H16.9063L16.8348 24.228L16.7812 24.3V24.381L16.9688 24.39C16.9519 24.4127 16.937 24.4368 16.9241 24.462V24.516V24.588V24.66C16.9204 24.6869 16.9204 24.7141 16.9241 24.741V24.822V24.912V25.2C16.9198 25.2268 16.9198 25.2542 16.9241 25.281C16.9198 25.3078 16.9198 25.3352 16.9241 25.362L20.3446 27.36V27.261" fill="#3AADEA"/>
<path fill-rule="evenodd" clip-rule="evenodd" d="M25.2831 18.279C25.3045 18.0533 25.2671 17.8258 25.1747 17.6191C25.0823 17.4124 24.9381 17.2334 24.7562 17.1L23.5059 16.371C23.6914 16.5015 23.839 16.6796 23.9332 16.8869C24.0274 17.0942 24.0649 17.3232 24.0417 17.55V21.15L25.292 21.879L25.2831 18.279Z" fill="#53597F"/>
<path fill-rule="evenodd" clip-rule="evenodd" d="M20.3533 21.15L19.103 20.421L19.1209 24.021L20.3623 24.75L20.3533 21.15Z" fill="#53597F"/>
<path fill-rule="evenodd" clip-rule="evenodd" d="M26.5689 17.541C26.5689 15.561 25.1578 14.751 23.452 15.741C22.5496 16.3312 21.7985 17.128 21.2599 18.0665C20.7213 19.0049 20.4106 20.0584 20.353 21.141V24.741L21.6301 23.994V20.394C21.6609 19.7606 21.8385 19.1434 22.1487 18.5917C22.4589 18.04 22.893 17.5691 23.4163 17.217C24.4255 16.632 25.2024 17.109 25.2024 18.27V21.87L26.4795 21.132L26.5689 17.541Z" fill="#3C4167"/>
<path fill-rule="evenodd" clip-rule="evenodd" d="M20.3711 20.799V20.7C20.3711 20.7 20.3711 20.619 20.3711 20.583V20.529V20.367C20.3669 20.3131 20.3669 20.2589 20.3711 20.205V20.07C20.3753 20.0432 20.3753 20.0158 20.3711 19.989V19.881L20.5408 19.8C20.5379 19.758 20.5379 19.7159 20.5408 19.674C20.5408 19.611 20.5854 19.548 20.6033 19.494L20.6569 19.35V19.296L20.7105 19.161V19.116C20.7105 19.062 20.7551 19.008 20.7819 18.945C20.7819 18.891 20.8266 18.846 20.8444 18.801L20.9159 18.639L21.0052 18.468L21.0856 18.342C21.1143 18.2856 21.1471 18.2315 21.1838 18.18L21.2642 18.054V18L21.3445 17.883V17.838L21.4517 17.694L21.5678 17.541L21.6214 17.469L21.6929 17.379L21.7464 17.316L21.8179 17.235L21.9786 17.064L22.1305 16.902C22.1675 16.8737 22.2006 16.8404 22.2287 16.803L22.3627 16.677L22.4698 16.587L22.8628 16.2L22.9521 16.128H23.0057L23.095 16.056H23.1575C23.1867 16.0299 23.2199 16.0086 23.2557 15.993H23.3004L23.4522 15.903L23.5505 15.849H23.6219L23.7201 15.804H23.8005H23.8541H23.9166H24.0059H24.0774H24.2024H24.3274H25.0508H25.1312H25.1937H25.2473H25.3188H25.3723L24.122 15.075H24.0684H23.997H23.9345H23.863H23.7916H23.0682H22.9342H22.8092H22.7467H22.6663H22.6038H22.5413H22.4609L22.3627 15.12H22.2823L22.184 15.174L22.0322 15.264H21.9876L21.8893 15.327H21.8357L21.7375 15.399H21.6839L21.5946 15.471L21.541 15.516L21.4428 15.606L21.2999 15.732L21.2106 15.822L21.0498 15.984L20.898 16.155L20.8444 16.227L20.7819 16.29C20.7632 16.3238 20.739 16.3542 20.7105 16.38L20.6569 16.452L20.5497 16.596L20.4604 16.722L20.38 16.839V16.893C20.3563 16.9208 20.3353 16.951 20.3175 16.983L20.2371 17.127C20.21 17.167 20.1861 17.2091 20.1657 17.253V17.298C20.1454 17.3448 20.1215 17.3899 20.0942 17.433L20.0317 17.55V17.595V17.64C20.0055 17.6855 19.9846 17.7338 19.9692 17.784C19.9692 17.829 19.9692 17.883 19.9067 17.937V17.982V18.063V18.117V18.171L19.8531 18.315L19.7995 18.486V18.531V18.63C19.7953 18.6568 19.7953 18.6842 19.7995 18.711V18.819V18.9C19.8007 18.921 19.8007 18.942 19.7995 18.963V19.035V19.206C19.7995 19.251 19.7995 19.296 19.7995 19.341V19.422C19.7995 19.422 19.7995 19.503 19.7995 19.539V19.602C19.7995 19.647 19.7995 19.683 19.7995 19.728V19.782C19.7995 19.836 19.7995 19.89 19.7995 19.953L21.0498 20.682V20.457C21.0454 20.4151 21.0454 20.3729 21.0498 20.331" fill="#696F8E"/>
<path fill-rule="evenodd" clip-rule="evenodd" d="M25.3721 27.207C25.6531 26.85 25.8128 26.4114 25.8276 25.956C25.8276 25.317 25.381 25.056 24.8273 25.38L24.7559 25.425C24.5039 25.6141 24.2942 25.8544 24.1404 26.1303C23.9865 26.4063 23.892 26.7118 23.8628 27.027C23.8628 27.495 24.0235 27.783 24.3272 27.828L23.9521 29.79C23.9074 30.024 24.0503 30.141 24.229 30.033L25.5061 29.295C25.599 29.2348 25.6739 29.1502 25.7227 29.0503C25.7715 28.9504 25.7923 28.8389 25.7829 28.728L25.3721 27.207Z" fill="black"/>
<path d="M87.4683 36.864L97.5511 30.996L87.4683 25.128L77.3765 30.996L87.4683 36.864Z" fill="#BCC6CC"/>
<path d="M87.0662 64.386L76.0277 57.96C75.9675 57.926 75.9175 57.8764 75.8829 57.8162C75.8484 57.756 75.8305 57.6875 75.8313 57.618C75.8289 57.547 75.8459 57.4766 75.8806 57.4147C75.9153 57.3528 75.9662 57.3017 76.0277 57.267L87.0662 50.841C87.1884 50.7699 87.327 50.7325 87.4681 50.7325C87.6092 50.7325 87.7478 50.7699 87.87 50.841L98.9084 57.267C98.9723 57.2966 99.0269 57.3433 99.0663 57.402C99.1057 57.4607 99.1283 57.5292 99.1317 57.6C99.1325 57.6695 99.1146 57.738 99.08 57.7982C99.0455 57.8584 98.9954 57.908 98.9352 57.942L87.87 64.386C87.7474 64.4561 87.609 64.4933 87.4681 64.494C87.327 64.4946 87.1883 64.4573 87.0662 64.386ZM87.2091 51.102L76.1796 57.519C76.1617 57.528 76.147 57.5424 76.1374 57.5601C76.1279 57.5778 76.1239 57.598 76.126 57.618C76.1245 57.6368 76.1288 57.6555 76.1384 57.6717C76.148 57.6878 76.1624 57.7005 76.1796 57.708L87.2091 64.125C87.2869 64.1736 87.3766 64.1994 87.4681 64.1994C87.5596 64.1994 87.6493 64.1736 87.7271 64.125L98.7566 57.708C98.7738 57.7005 98.7881 57.6878 98.7978 57.6717C98.8074 57.6555 98.8117 57.6368 98.8102 57.618C98.8123 57.598 98.8083 57.5778 98.7987 57.5601C98.7892 57.5424 98.7745 57.528 98.7566 57.519L87.7271 51.102C87.6486 51.0553 87.5592 51.0306 87.4681 51.0306C87.377 51.0306 87.2875 51.0553 87.2091 51.102Z" fill="url(#paint1_linear)"/>
<path d="M87.4683 59.391L97.5511 53.523L87.4683 47.655L77.3765 53.523L87.4683 59.391Z" fill="white"/>
<path d="M77.3765 30.996V53.523L87.4683 59.391V36.864L77.3765 30.996Z" fill="url(#paint2_linear)"/>
<path d="M97.5511 30.996V53.523L87.4683 59.391V36.864L97.5511 30.996Z" fill="#1E262F"/>
<g opacity="0.51">
<path opacity="0.51" d="M96.8724 32.49V52.74L88.147 57.807V37.557L96.8724 32.49Z" fill="#364044"/>
</g>
<path d="M78.8945 36.432V37.035L85.9499 41.139V40.545L78.8945 36.432Z" fill="#37474F"/>
<path d="M78.8945 38.952V39.546L85.9499 43.659V43.065L78.8945 38.952Z" fill="#37474F"/>
<path d="M78.8945 41.472V42.066L85.9499 46.179V45.576L78.8945 41.472Z" fill="#37474F"/>
<path d="M78.8945 43.992V44.586L85.9499 48.69V48.096L78.8945 43.992Z" fill="#37474F"/>
<path d="M78.8945 46.503V47.106L85.9499 51.21V50.616L78.8945 46.503Z" fill="#37474F"/>
<path d="M78.8945 49.023V49.617L85.9499 53.73V53.136L78.8945 49.023Z" fill="#37474F"/>
<path d="M87.4683 35.316H90.1207L97.5511 30.996L89.4598 26.289H87.4683V35.316Z" fill="url(#paint3_linear)"/>
<path d="M87.4683 34.803L94.7826 30.546L87.4683 26.289L80.145 30.546L87.4683 34.803Z" fill="url(#paint4_linear)"/>
<path d="M80.145 30.546V31.059L87.4683 35.316V34.803L80.145 30.546Z" fill="url(#paint5_linear)"/>
<path d="M94.7826 30.546V31.059L87.4683 35.316V34.803L94.7826 30.546Z" fill="url(#paint6_linear)"/>
<path d="M90.3079 30.609L90.6294 30.42L90.6026 30.267L87.5929 28.503L87.1821 28.71L87.2536 28.836L90.3079 30.609Z" fill="black"/>
<path d="M87.5753 28.647L87.2537 28.836L87.0483 28.719L87.5753 28.404L90.835 30.303L90.6296 30.42L87.5753 28.647Z" fill="url(#paint7_linear)"/>
<path d="M89.3256 31.185L89.6471 30.996L89.6203 30.843L86.6107 29.079L86.1909 29.277L86.2713 29.412L89.3256 31.185Z" fill="black"/>
<path d="M86.5928 29.223L86.2713 29.412L86.0659 29.286L86.5928 28.98L89.8526 30.87L89.6472 30.996L86.5928 29.223Z" fill="url(#paint8_linear)"/>
<path d="M88.3343 31.752L88.6647 31.563L88.6379 31.41L85.6282 29.646L85.2085 29.844L85.2889 29.979L88.3343 31.752Z" fill="black"/>
<path d="M85.6104 29.79L85.2889 29.979L85.0835 29.853L85.6104 29.547L88.8702 31.446L88.6648 31.563L85.6104 29.79Z" fill="url(#paint9_linear)"/>
<path d="M87.3518 32.319L87.6733 32.139L87.6466 31.986L84.6458 30.222L84.2261 30.42L84.3065 30.546L87.3518 32.319Z" fill="black"/>
<path d="M84.6281 30.357L84.3066 30.546L84.0923 30.429L84.6281 30.123L87.8879 32.013L87.6735 32.139L84.6281 30.357Z" fill="url(#paint10_linear)"/>
<g opacity="0.51">
<path opacity="0.51" d="M97.5511 49.959L87.4683 43.821V36.864L97.5511 30.996V49.959Z" fill="#37474F"/>
</g>
<path d="M87.87 37.872C87.8792 37.733 87.9203 37.5981 87.9901 37.4778C88.0598 37.3576 88.1563 37.2553 88.2719 37.179C88.3137 37.1536 88.3616 37.1402 88.4103 37.1402C88.4591 37.1402 88.507 37.1536 88.5488 37.179L88.8345 37.35H88.6649V37.431C88.658 37.5707 88.6189 37.7069 88.5507 37.8288C88.4825 37.9507 88.387 38.0548 88.2719 38.133H88.1826L88.263 38.286L87.9861 38.124C87.9479 38.0947 87.9173 38.0564 87.897 38.0125C87.8768 37.9686 87.8675 37.9204 87.87 37.872Z" fill="url(#paint11_linear)"/>
<path d="M88.1558 38.043C88.1558 38.304 88.3344 38.403 88.5577 38.277C88.6744 38.1998 88.7716 38.0961 88.8414 37.9742C88.9112 37.8522 88.9517 37.7155 88.9595 37.575C88.9666 37.5252 88.9587 37.4744 88.9369 37.4291C88.9151 37.3839 88.8803 37.3462 88.8371 37.3211C88.7939 37.2959 88.7441 37.2843 88.6943 37.2879C88.6445 37.2914 88.5969 37.3099 88.5577 37.341C88.4409 37.4182 88.3437 37.5219 88.2739 37.6438C88.2041 37.7657 88.1636 37.9025 88.1558 38.043Z" fill="url(#paint12_linear)"/>
<path d="M88.3252 37.944C88.3252 38.097 88.4234 38.151 88.5574 38.079C88.624 38.0344 88.6791 37.9744 88.718 37.9039C88.7568 37.8334 88.7783 37.7546 88.7807 37.674C88.7807 37.53 88.6824 37.467 88.5574 37.539C88.4901 37.5837 88.4341 37.6435 88.3938 37.7138C88.3535 37.7841 88.33 37.8629 88.3252 37.944Z" fill="#37474F"/>
<path d="M96.3275 32.634C96.3367 32.495 96.3778 32.3601 96.4475 32.2398C96.5173 32.1196 96.6137 32.0173 96.7294 31.941C96.7728 31.9157 96.8221 31.9024 96.8723 31.9024C96.9224 31.9024 96.9717 31.9157 97.0151 31.941L97.3009 32.112H97.1223C97.1223 32.112 97.1223 32.166 97.1223 32.193C97.1145 32.3335 97.074 32.4702 97.0042 32.5922C96.9344 32.7141 96.8372 32.8178 96.7204 32.895H96.6311L96.7115 33.048L96.4347 32.886C96.398 32.8558 96.3691 32.8171 96.3505 32.7732C96.3318 32.7293 96.3239 32.6816 96.3275 32.634Z" fill="url(#paint13_linear)"/>
<path d="M96.6133 32.805C96.6133 33.066 96.7919 33.165 97.0152 33.039C97.132 32.9618 97.2292 32.8581 97.299 32.7362C97.3687 32.6142 97.4092 32.4775 97.417 32.337C97.417 32.085 97.2384 31.977 97.0152 32.103C96.8984 32.1802 96.8012 32.2839 96.7314 32.4058C96.6616 32.5277 96.6211 32.6645 96.6133 32.805Z" fill="url(#paint14_linear)"/>
<path d="M96.7827 32.706C96.7827 32.859 96.8899 32.913 97.0149 32.841C97.0827 32.7969 97.1391 32.7371 97.1795 32.6667C97.2199 32.5963 97.243 32.5172 97.2471 32.436C97.252 32.407 97.248 32.3772 97.2356 32.3505C97.2232 32.3239 97.203 32.3017 97.1777 32.287C97.1524 32.2723 97.1232 32.2657 97.0941 32.2683C97.065 32.2708 97.0374 32.2822 97.0149 32.301C96.949 32.3471 96.894 32.4073 96.8539 32.4773C96.8137 32.5473 96.7894 32.6254 96.7827 32.706Z" fill="#37474F"/>
<path d="M87.8699 58.05C87.8777 57.9095 87.9182 57.7728 87.988 57.6508C88.0578 57.5289 88.155 57.4252 88.2718 57.348C88.3135 57.3226 88.3614 57.3092 88.4102 57.3092C88.459 57.3092 88.5068 57.3226 88.5486 57.348L88.8344 57.519H88.6647V57.6C88.6579 57.7397 88.6188 57.876 88.5506 57.9978C88.4824 58.1197 88.3869 58.2238 88.2718 58.302H88.1825L88.2628 58.464L87.986 58.293C87.9472 58.2663 87.916 58.2298 87.8957 58.1872C87.8753 58.1445 87.8664 58.0972 87.8699 58.05Z" fill="url(#paint15_linear)"/>
<path d="M88.1558 58.221C88.1558 58.482 88.3344 58.581 88.5577 58.455C88.6744 58.3778 88.7716 58.2741 88.8414 58.1522C88.9112 58.0302 88.9517 57.8935 88.9595 57.753C88.9595 57.492 88.772 57.393 88.5577 57.519C88.4409 57.5962 88.3437 57.6999 88.2739 57.8218C88.2041 57.9437 88.1636 58.0805 88.1558 58.221Z" fill="url(#paint16_linear)"/>
<path d="M88.3252 58.122C88.3252 58.266 88.4234 58.329 88.5574 58.257C88.623 58.2114 88.6773 58.1511 88.7161 58.0808C88.7548 58.0106 88.7769 57.9323 88.7807 57.852C88.7807 57.699 88.6824 57.645 88.5574 57.717C88.4886 57.76 88.4313 57.8195 88.3908 57.8901C88.3503 57.9608 88.3278 58.0404 88.3252 58.122Z" fill="#37474F"/>
<path d="M96.3276 52.812C96.3355 52.6715 96.3759 52.5347 96.4457 52.4128C96.5155 52.2909 96.6127 52.1872 96.7295 52.11C96.7729 52.0847 96.8222 52.0714 96.8724 52.0714C96.9225 52.0714 96.9718 52.0847 97.0153 52.11L97.301 52.281H97.1224C97.1224 52.281 97.1224 52.344 97.1224 52.371C97.1146 52.5115 97.0741 52.6482 97.0043 52.7702C96.9345 52.8921 96.8374 52.9958 96.7206 53.073H96.6312L96.7116 53.226L96.4526 53.1C96.4046 53.0712 96.3667 53.0279 96.3442 52.9762C96.3218 52.9246 96.316 52.8671 96.3276 52.812Z" fill="url(#paint17_linear)"/>
<path d="M96.6133 52.983C96.6133 53.235 96.7919 53.343 97.0152 53.217C97.132 53.1398 97.2292 53.0361 97.299 52.9142C97.3687 52.7922 97.4092 52.6555 97.417 52.515C97.417 52.254 97.2384 52.155 97.0152 52.281C96.8984 52.3582 96.8012 52.4619 96.7314 52.5838C96.6616 52.7057 96.6211 52.8425 96.6133 52.983Z" fill="url(#paint18_linear)"/>
<path d="M96.7828 52.884C96.7779 52.913 96.7819 52.9428 96.7943 52.9695C96.8067 52.9961 96.8269 53.0183 96.8522 53.033C96.8775 53.0477 96.9067 53.0542 96.9358 53.0517C96.9649 53.0492 96.9925 53.0378 97.015 53.019C97.0809 52.9729 97.1359 52.9127 97.176 52.8427C97.2162 52.7726 97.2405 52.6946 97.2472 52.614C97.2472 52.461 97.14 52.407 97.015 52.479C96.9472 52.5231 96.8908 52.5829 96.8504 52.6533C96.8101 52.7237 96.7869 52.8028 96.7828 52.884Z" fill="#37474F"/>
<path d="M93.7285 40.104L95.6129 39.006V38.592L93.7285 39.69V40.104Z" fill="#FF7F1B"/>
<path d="M92.7549 40.671L93.4336 40.275V39.852L92.7549 40.248V40.671Z" fill="#FF7F1B"/>
<path d="M92.0049 41.103L92.4693 40.842V40.419L92.0049 40.689V41.103Z" fill="#FF7F1B"/>
<path d="M94.5859 40.563L95.613 39.96V39.546L94.5859 40.14V40.563Z" fill="#FF7F1B"/>
<path d="M93.0317 41.463L94.2999 40.734V40.311L93.0317 41.049V41.463Z" fill="#FF7F1B"/>
<path d="M92.2817 41.904L92.7461 41.634V41.211L92.2817 41.481V41.904Z" fill="#FF7F1B"/>
<path d="M91.5674 42.318L92.0318 42.048V41.634L91.5674 41.895V42.318Z" fill="#FF7F1B"/>
<path d="M94.8716 41.355L95.6128 40.914V40.5L94.8716 40.932V41.355Z" fill="#FF7F1B"/>
<path d="M94.3271 41.67L94.5862 41.517V41.103L94.3271 41.247V41.67Z" fill="#FF7F1B"/>
<path d="M93.5767 42.102L94.0411 41.832V41.418L93.5767 41.688V42.102Z" fill="#FF7F1B"/>
<path d="M92.8623 43.47L95.613 41.877V41.454L92.8623 43.056V43.47Z" fill="#FF7F1B"/>
<path d="M91.8979 44.037L92.5767 43.641V43.227L91.8979 43.623V44.037Z" fill="#FF7F1B"/>
<path d="M94.8716 43.263L95.6128 42.831V42.408L94.8716 42.84V43.263Z" fill="#FF7F1B"/>
<path d="M93.1211 44.28L94.5857 43.434V43.011L93.1211 43.866V44.28Z" fill="#FF7F1B"/>
<path d="M92.3711 44.721L92.8355 44.451V44.028L92.3711 44.298V44.721Z" fill="#FF7F1B"/>
<path d="M94.0947 44.676L95.613 43.785V43.371L94.0947 44.253V44.676Z" fill="#FF7F1B"/>
<path d="M92.7017 45.486L93.8001 44.838V44.424L92.7017 45.063V45.486Z" fill="#FF7F1B"/>
<path d="M91.6655 46.08L92.4068 45.648V45.234L91.6655 45.666V46.08Z" fill="#FF7F1B"/>
<path d="M95.104 45.045L95.6131 44.739V44.325L95.104 44.622V45.045Z" fill="#FF7F1B"/>
<path d="M94.1304 45.603L94.8091 45.207V44.793L94.1304 45.189V45.603Z" fill="#FF7F1B"/>
<path d="M92.7461 46.413L93.8446 45.774V45.351L92.7461 45.99V46.413Z" fill="#FF7F1B"/>
<path d="M94.041 46.611L95.6128 45.693V45.279L94.041 46.197V46.611Z" fill="#FF7F1B"/>
<path d="M92.2729 47.646L93.7465 46.782V46.368L92.2729 47.223V47.646Z" fill="#FF7F1B"/>
<path d="M91.5225 48.078L91.9779 47.808V47.394L91.5225 47.664V48.078Z" fill="#FF7F1B"/>
<path d="M90.7993 48.501L91.2637 48.231V47.817L90.7993 48.078V48.501Z" fill="#FF7F1B"/>
<path d="M94.6665 47.205L95.6132 46.656V46.233L94.6665 46.782V47.205Z" fill="#FF7F1B"/>
<path d="M90.7191 41.859L89.4062 42.615V42.201L90.7191 41.436V41.859Z" fill="#FF7F1B"/>
<path d="M90.4333 42.975L89.4062 43.578V43.155L90.4333 42.561V42.975Z" fill="#FF7F1B"/>
<path d="M90.1475 44.1L89.4062 44.532V44.109L90.1475 43.677V44.1Z" fill="#FF7F1B"/>
<path d="M90.4869 44.856L89.4062 45.486V45.072L90.4869 44.442V44.856Z" fill="#FF7F1B"/>
<path d="M90.1475 46.008L89.4062 46.44V46.026L90.1475 45.594V46.008Z" fill="#FF7F1B"/>
<path d="M90.3529 46.845L89.4062 47.394V46.98L90.3529 46.431V46.845Z" fill="#FF7F1B"/>
<path d="M89.9242 48.051L89.4062 48.357V47.934L89.9242 47.637V48.051Z" fill="#FF7F1B"/>
<path d="M90.4065 48.726L89.4062 49.311V48.888L90.4065 48.312V48.726Z" fill="#FF7F1B"/>
<path d="M90.3529 49.716L89.4062 50.265V49.851L90.3529 49.293V49.716Z" fill="#FF7F1B"/>
<path d="M93.9785 47.601L94.3804 47.367V46.953L93.9785 47.187V47.601Z" fill="#FF7F1B"/>
<path d="M92.7817 48.303L93.6927 47.772V47.358L92.7817 47.88V48.303Z" fill="#FF7F1B"/>
<path d="M92.0405 51.516L93.5677 50.625V50.211L92.0405 51.093V51.516Z" fill="#FF7F1B"/>
<path d="M90.9956 52.119L91.594 51.777V51.354L90.9956 51.705V52.119Z" fill="#FF7F1B"/>
<path d="M72.7593 45.531L82.8421 39.663L72.7593 33.795L62.6675 39.663L72.7593 45.531Z" fill="#BCC6CC"/>
<path d="M72.3395 73.053L61.319 66.6C61.2599 66.5628 61.2112 66.511 61.1774 66.4496C61.1437 66.3882 61.126 66.3192 61.126 66.249C61.126 66.1788 61.1437 66.1098 61.1774 66.0484C61.2112 65.987 61.2599 65.9352 61.319 65.898L72.3395 59.517C72.4617 59.4459 72.6003 59.4085 72.7414 59.4085C72.8825 59.4085 73.0211 59.4459 73.1433 59.517L84.1728 65.934C84.2341 65.9695 84.2849 66.0206 84.3203 66.0823C84.3556 66.1439 84.3742 66.2138 84.3742 66.285C84.3742 66.3562 84.3556 66.4261 84.3203 66.4877C84.2849 66.5493 84.2341 66.6005 84.1728 66.636L73.1612 73.053C73.0386 73.1231 72.9002 73.1603 72.7593 73.161C72.612 73.1658 72.4665 73.1284 72.3395 73.053ZM72.4824 59.769L61.4618 66.195C61.4447 66.2029 61.4302 66.2156 61.4201 66.2315C61.4099 66.2475 61.4045 66.266 61.4045 66.285C61.4045 66.304 61.4099 66.3225 61.4201 66.3385C61.4302 66.3544 61.4447 66.3671 61.4618 66.375L72.5003 72.801C72.578 72.8451 72.6656 72.8684 72.7548 72.8684C72.844 72.8684 72.9317 72.8451 73.0093 72.801L84.0478 66.375C84.0636 66.3658 84.0768 66.3527 84.0862 66.337C84.0955 66.3212 84.1008 66.3033 84.1014 66.285C84.1001 66.2656 84.0946 66.2467 84.0853 66.2296C84.0761 66.2125 84.0633 66.1976 84.0478 66.186L73.0093 59.769C72.9341 59.7224 72.8476 59.6975 72.7593 59.697C72.6683 59.6984 72.5792 59.7232 72.5003 59.769H72.4824Z" fill="url(#paint19_linear)"/>
<path d="M72.7593 68.058L82.8421 62.19L72.7593 56.322L62.6675 62.19L72.7593 68.058Z" fill="white"/>
<path d="M62.6675 39.663V62.19L72.7593 68.058V45.531L62.6675 39.663Z" fill="url(#paint20_linear)"/>
<path d="M82.8421 39.663V62.19L72.7593 68.058V45.531L82.8421 39.663Z" fill="#1E262F"/>
<g opacity="0.51">
<path opacity="0.51" d="M82.1634 41.157V61.407L73.438 66.483V46.233L82.1634 41.157Z" fill="#364044"/>
</g>
<path d="M64.1855 45.108V45.702L71.2409 49.806V49.212L64.1855 45.108Z" fill="#37474F"/>
<path d="M64.1855 47.628V48.222L71.2409 52.326V51.732L64.1855 47.628Z" fill="#37474F"/>
<path d="M64.1855 50.139V50.742L71.2409 54.846V54.252L64.1855 50.139Z" fill="#37474F"/>
<path d="M64.1855 52.659V53.253L71.2409 57.366V56.772L64.1855 52.659Z" fill="#37474F"/>
<path d="M64.1855 55.179V55.773L71.2409 59.877V59.283L64.1855 55.179Z" fill="#37474F"/>
<path d="M64.1855 57.699V58.293L71.2409 62.397V61.803L64.1855 57.699Z" fill="#37474F"/>
<path d="M72.7593 43.992H75.4117L82.8421 39.663L74.7508 34.956H72.7593V43.992Z" fill="url(#paint21_linear)"/>
<path d="M72.7593 43.47L80.0736 39.213L72.7593 34.956L65.436 39.213L72.7593 43.47Z" fill="url(#paint22_linear)"/>
<path d="M65.436 39.213V39.735L72.7593 43.992V43.47L65.436 39.213Z" fill="url(#paint23_linear)"/>
<path d="M80.0736 39.213V39.735L72.7593 43.992V43.47L80.0736 39.213Z" fill="url(#paint24_linear)"/>
<path d="M75.5901 39.285L75.9206 39.096L75.8938 38.943L72.8841 37.179L72.4644 37.377L72.5447 37.512L75.5901 39.285Z" fill="black"/>
<path d="M72.8663 37.323L72.5448 37.512L72.3394 37.386L72.8663 37.08L76.126 38.97L75.9206 39.096L72.8663 37.323Z" fill="url(#paint25_linear)"/>
<path d="M74.6077 39.852L74.9382 39.663L74.9114 39.51L71.9017 37.746L71.4819 37.944L71.5623 38.079L74.6077 39.852Z" fill="black"/>
<path d="M71.884 37.89L71.5625 38.079L71.3481 37.953L71.884 37.647L75.1437 39.546L74.9383 39.663L71.884 37.89Z" fill="url(#paint26_linear)"/>
<path d="M73.6253 40.419L73.9557 40.239L73.9289 40.086L70.9193 38.322L70.4995 38.52L70.5799 38.646L73.6253 40.419Z" fill="black"/>
<path d="M70.9016 38.457L70.5801 38.646L70.3657 38.529L70.9016 38.223L74.1613 40.113L73.947 40.239L70.9016 38.457Z" fill="url(#paint27_linear)"/>
<path d="M72.6429 40.995L72.9644 40.806L72.9376 40.653L69.9368 38.889L69.5171 39.087L69.5975 39.222L72.6429 40.995Z" fill="black"/>
<path d="M69.9191 39.033L69.5976 39.222L69.3833 39.096L69.9191 38.79L73.1789 40.68L72.9645 40.806L69.9191 39.033Z" fill="url(#paint28_linear)"/>
<g opacity="0.51">
<path opacity="0.51" d="M82.8421 58.635L72.7593 52.497V45.531L82.8421 39.663V58.635Z" fill="#37474F"/>
</g>
<path d="M73.152 46.548C73.1598 46.4075 73.2003 46.2707 73.2701 46.1488C73.3399 46.0269 73.4371 45.9232 73.5539 45.846C73.5973 45.8207 73.6466 45.8074 73.6968 45.8074C73.7469 45.8074 73.7962 45.8207 73.8397 45.846L74.1254 46.008H73.9468C73.9517 46.0378 73.9517 46.0682 73.9468 46.098C73.939 46.2385 73.8985 46.3752 73.8287 46.4972C73.7589 46.6191 73.6617 46.7228 73.5449 46.8H73.4646L73.5449 46.953L73.277 46.8C73.2371 46.7717 73.2048 46.7339 73.183 46.6899C73.1611 46.6459 73.1505 46.5971 73.152 46.548Z" fill="url(#paint29_linear)"/>
<path d="M73.4379 46.719C73.4277 46.7696 73.4338 46.8221 73.4552 46.869C73.4767 46.9159 73.5124 46.9547 73.5571 46.9798C73.6019 47.0048 73.6534 47.0149 73.7043 47.0084C73.7551 47.002 73.8026 46.9794 73.8398 46.944C73.9554 46.8677 74.0519 46.7654 74.1217 46.6451C74.1914 46.5249 74.2325 46.39 74.2417 46.251C74.2417 45.99 74.0631 45.882 73.8398 46.017C73.723 46.0942 73.6258 46.1979 73.556 46.3198C73.4862 46.4417 73.4458 46.5785 73.4379 46.719Z" fill="url(#paint30_linear)"/>
<path d="M73.6162 46.611C73.6162 46.764 73.7145 46.827 73.8395 46.746C73.9076 46.7044 73.9645 46.6465 74.005 46.5774C74.0455 46.5083 74.0684 46.4302 74.0717 46.35C74.0717 46.197 73.9734 46.134 73.8395 46.215C73.774 46.2587 73.7197 46.3173 73.6809 46.3861C73.6421 46.4549 73.62 46.532 73.6162 46.611Z" fill="#37474F"/>
<path d="M81.6182 41.31C81.6261 41.1695 81.6665 41.0327 81.7363 40.9108C81.8061 40.7889 81.9033 40.6852 82.0201 40.608C82.0632 40.5818 82.1126 40.568 82.163 40.568C82.2134 40.568 82.2628 40.5818 82.3059 40.608L82.5827 40.77H82.4131C82.4131 40.77 82.4131 40.824 82.4131 40.86C82.4052 41.0005 82.3648 41.1372 82.295 41.2592C82.2252 41.3811 82.128 41.4848 82.0112 41.562H81.9219L82.0022 41.715L81.7254 41.553C81.6895 41.5241 81.661 41.487 81.6423 41.4447C81.6236 41.4024 81.6154 41.3562 81.6182 41.31Z" fill="url(#paint31_linear)"/>
<path d="M81.9043 41.472C81.9043 41.733 82.0829 41.841 82.3062 41.706C82.4218 41.6297 82.5183 41.5274 82.588 41.4072C82.6578 41.2869 82.6989 41.152 82.7081 41.013C82.7081 40.752 82.5205 40.644 82.3062 40.779C82.1906 40.8553 82.0941 40.9576 82.0243 41.0779C81.9546 41.1981 81.9135 41.333 81.9043 41.472Z" fill="url(#paint32_linear)"/>
<path d="M82.0737 41.4C82.0737 41.553 82.172 41.616 82.3059 41.535C82.3714 41.4913 82.4257 41.4327 82.4645 41.3639C82.5033 41.2951 82.5254 41.218 82.5292 41.139C82.5292 40.986 82.431 40.923 82.3059 41.004C82.2378 41.0456 82.1809 41.1035 82.1404 41.1726C82.0999 41.2417 82.077 41.3198 82.0737 41.4Z" fill="#37474F"/>
<path d="M73.1519 66.726C73.1597 66.5855 73.2002 66.4488 73.2699 66.3268C73.3397 66.2049 73.4369 66.1012 73.5537 66.024C73.5961 65.9957 73.6458 65.9807 73.6966 65.9807C73.7474 65.9807 73.7971 65.9957 73.8395 66.024L74.1253 66.186H73.9467C73.9515 66.2158 73.9515 66.2462 73.9467 66.276C73.9375 66.415 73.8964 66.5499 73.8267 66.6701C73.7569 66.7904 73.6604 66.8927 73.5448 66.969H73.4644L73.5448 67.122L73.268 66.96C73.2322 66.9325 73.2031 66.8971 73.183 66.8566C73.1628 66.816 73.1522 66.7713 73.1519 66.726Z" fill="url(#paint33_linear)"/>
<path d="M73.438 66.888C73.438 67.149 73.6255 67.257 73.8399 67.122C73.9567 67.0448 74.0539 66.9411 74.1237 66.8192C74.1935 66.6973 74.2339 66.5605 74.2418 66.42C74.2418 66.168 74.0631 66.06 73.8399 66.186C73.7231 66.2632 73.6259 66.3669 73.5561 66.4888C73.4863 66.6108 73.4458 66.7475 73.438 66.888Z" fill="url(#paint34_linear)"/>
<path d="M73.6162 66.789C73.6162 66.942 73.7145 66.996 73.8395 66.924C73.9083 66.881 73.9655 66.8216 74.006 66.7509C74.0466 66.6802 74.0691 66.6006 74.0717 66.519C74.0717 66.375 73.9734 66.312 73.8395 66.384C73.7743 66.4301 73.7204 66.4905 73.6817 66.5607C73.643 66.6308 73.6206 66.7089 73.6162 66.789Z" fill="#37474F"/>
<path d="M81.6183 61.479C81.6275 61.34 81.6686 61.2051 81.7384 61.0848C81.8081 60.9646 81.9046 60.8623 82.0202 60.786C82.0626 60.7577 82.1123 60.7427 82.1631 60.7427C82.2139 60.7427 82.2636 60.7577 82.306 60.786L82.5829 60.948H82.4132C82.4132 60.948 82.4132 61.002 82.4132 61.038C82.404 61.177 82.3629 61.3119 82.2931 61.4321C82.2234 61.5524 82.1269 61.6547 82.0113 61.731L81.922 61.776L82.0024 61.929L81.7255 61.767C81.6833 61.7334 81.6509 61.6888 81.632 61.6381C81.6132 61.5873 81.6084 61.5323 81.6183 61.479Z" fill="url(#paint35_linear)"/>
<path d="M81.9043 61.65C81.9043 61.911 82.0829 62.01 82.3062 61.884C82.423 61.8068 82.5202 61.7031 82.59 61.5812C82.6598 61.4592 82.7002 61.3225 82.7081 61.182C82.7151 61.1322 82.7073 61.0814 82.6854 61.0361C82.6636 60.9909 82.6289 60.9532 82.5856 60.9281C82.5424 60.9029 82.4927 60.8913 82.4429 60.8949C82.3931 60.8984 82.3455 60.9169 82.3062 60.948C82.1894 61.0252 82.0922 61.1289 82.0224 61.2508C81.9526 61.3727 81.9121 61.5095 81.9043 61.65Z" fill="url(#paint36_linear)"/>
<path d="M82.0737 61.551C82.0737 61.704 82.172 61.758 82.3059 61.686C82.3726 61.6414 82.4276 61.5814 82.4665 61.5109C82.5053 61.4404 82.5268 61.3616 82.5292 61.281C82.5292 61.137 82.431 61.074 82.3059 61.146C82.2386 61.1906 82.1826 61.2505 82.1423 61.3208C82.102 61.3911 82.0785 61.4699 82.0737 61.551Z" fill="#37474F"/>
<path d="M79.0107 48.78L80.9041 47.673V47.259L79.0107 48.357V48.78Z" fill="#FF7F1B"/>
<path d="M78.0459 49.338L78.7246 48.942V48.528L78.0459 48.924V49.338Z" fill="#FF7F1B"/>
<path d="M77.2959 49.779L77.7514 49.509V49.095L77.2959 49.356V49.779Z" fill="#FF7F1B"/>
<path d="M79.877 49.23L80.904 48.636V48.213L79.877 48.816V49.23Z" fill="#FF7F1B"/>
<path d="M78.3228 50.13L79.582 49.401V48.978L78.3228 49.716V50.13Z" fill="#FF7F1B"/>
<path d="M77.5728 50.571L78.0371 50.301V49.887L77.5728 50.157V50.571Z" fill="#FF7F1B"/>
<path d="M76.8584 50.985L77.3228 50.715V50.301L76.8584 50.571V50.985Z" fill="#FF7F1B"/>
<path d="M80.1626 50.022L80.9039 49.59V49.167L80.1626 49.608V50.022Z" fill="#FF7F1B"/>
<path d="M79.6182 50.337L79.8682 50.193V49.77L79.6182 49.923V50.337Z" fill="#FF7F1B"/>
<path d="M78.8677 50.778L79.3232 50.508V50.085L78.8677 50.355V50.778Z" fill="#FF7F1B"/>
<path d="M78.1533 52.146L80.904 50.544V50.13L78.1533 51.723V52.146Z" fill="#FF7F1B"/>
<path d="M77.1797 52.713L77.8674 52.317V51.894L77.1797 52.29V52.713Z" fill="#FF7F1B"/>
<path d="M80.1626 51.93L80.9039 51.498V51.084L80.1626 51.516V51.93Z" fill="#FF7F1B"/>
<path d="M78.4121 52.956L79.8678 52.101V51.687L78.4121 52.533V52.956Z" fill="#FF7F1B"/>
<path d="M77.6621 53.388L78.1176 53.118V52.704L77.6621 52.974V53.388Z" fill="#FF7F1B"/>
<path d="M79.377 53.343L80.9041 52.452V52.038L79.377 52.92V53.343Z" fill="#FF7F1B"/>
<path d="M77.9927 54.153L79.0912 53.514V53.091L77.9927 53.73V54.153Z" fill="#FF7F1B"/>
<path d="M76.9565 54.756L77.6978 54.324V53.901L76.9565 54.333V54.756Z" fill="#FF7F1B"/>
<path d="M80.3857 53.712L80.9037 53.415V52.992L80.3857 53.289V53.712Z" fill="#FF7F1B"/>
<path d="M79.4214 54.279L80.1001 53.883V53.46L79.4214 53.856V54.279Z" fill="#FF7F1B"/>
<path d="M78.0371 55.08L79.1356 54.441V54.027L78.0371 54.666V55.08Z" fill="#FF7F1B"/>
<path d="M79.3232 55.287L80.904 54.369V53.946L79.3232 54.864V55.287Z" fill="#FF7F1B"/>
<path d="M77.5547 56.313L79.0372 55.458V55.035L77.5547 55.899V56.313Z" fill="#FF7F1B"/>
<path d="M76.8047 56.754L77.2691 56.484V56.061L76.8047 56.331V56.754Z" fill="#FF7F1B"/>
<path d="M76.0903 57.168L76.5458 56.898V56.484L76.0903 56.754V57.168Z" fill="#FF7F1B"/>
<path d="M79.9575 55.872L80.9042 55.323V54.909L79.9575 55.458V55.872Z" fill="#FF7F1B"/>
<path d="M76.0101 50.526L74.6973 51.291V50.868L76.0101 50.112V50.526Z" fill="#FF7F1B"/>
<path d="M75.7243 51.642L74.6973 52.245V51.831L75.7243 51.228V51.642Z" fill="#FF7F1B"/>
<path d="M75.4385 52.767L74.6973 53.199V52.785L75.4385 52.353V52.767Z" fill="#FF7F1B"/>
<path d="M75.7779 53.523L74.6973 54.153V53.739L75.7779 53.109V53.523Z" fill="#FF7F1B"/>
<path d="M75.4385 54.684L74.6973 55.116V54.693L75.4385 54.261V54.684Z" fill="#FF7F1B"/>
<path d="M75.6439 55.521L74.6973 56.07V55.647L75.6439 55.098V55.521Z" fill="#FF7F1B"/>
<path d="M75.2063 56.727L74.6973 57.024V56.61L75.2063 56.304V56.727Z" fill="#FF7F1B"/>
<path d="M75.6886 57.402L74.6973 57.978V57.564L75.6886 56.979V57.402Z" fill="#FF7F1B"/>
<path d="M75.6439 58.383L74.6973 58.932V58.518L75.6439 57.969V58.383Z" fill="#FF7F1B"/>
<path d="M79.2695 56.277L79.6714 56.043V55.62L79.2695 55.854V56.277Z" fill="#FF7F1B"/>
<path d="M78.0728 56.97L78.9837 56.448V56.025L78.0728 56.556V56.97Z" fill="#FF7F1B"/>
<path d="M77.3228 60.183L78.8499 59.301V58.878L77.3228 59.769V60.183Z" fill="#FF7F1B"/>
<path d="M76.2778 60.795L76.8851 60.444V60.021L76.2778 60.372V60.795Z" fill="#FF7F1B"/>
<path d="M58.4251 54.684L68.5169 48.816L58.4251 42.948L48.3423 48.816L58.4251 54.684Z" fill="#BCC6CC"/>
<path d="M58.05 82.206L46.9937 75.78C46.9323 75.7457 46.8811 75.6955 46.8455 75.6346C46.8098 75.5737 46.791 75.5042 46.791 75.4335C46.791 75.3628 46.8098 75.2933 46.8455 75.2324C46.8811 75.1714 46.9323 75.1212 46.9937 75.087L58.05 68.661C58.1739 68.59 58.3139 68.5526 58.4564 68.5526C58.5989 68.5526 58.7389 68.59 58.8627 68.661L69.8923 75.087C69.9538 75.1217 70.0048 75.1728 70.0394 75.2347C70.0741 75.2966 70.0911 75.3669 70.0887 75.438C70.0895 75.5075 70.0717 75.576 70.0371 75.6362C70.0025 75.6964 69.9525 75.746 69.8923 75.78L58.836 82.206C58.7121 82.277 58.5721 82.3143 58.4296 82.3143C58.2871 82.3143 58.1471 82.277 58.0233 82.206H58.05ZM58.2019 68.922L47.1366 75.339C47.1201 75.3496 47.1066 75.3642 47.0972 75.3816C47.0878 75.3989 47.083 75.4183 47.083 75.438C47.0836 75.4563 47.0889 75.4742 47.0983 75.49C47.1076 75.5057 47.1208 75.5188 47.1366 75.528L58.1751 81.945C58.2511 81.9939 58.3394 82.0198 58.4296 82.0198C58.5198 82.0198 58.6081 81.9939 58.6841 81.945L69.7226 75.528C69.7384 75.5188 69.7516 75.5057 69.7609 75.49C69.7703 75.4742 69.7756 75.4563 69.7762 75.438C69.7762 75.4183 69.7714 75.3989 69.762 75.3816C69.7526 75.3642 69.7391 75.3496 69.7226 75.339L58.6841 68.922C58.6053 68.8762 58.5161 68.8514 58.4251 68.85C58.3372 68.8529 58.2513 68.8777 58.1751 68.922H58.2019Z" fill="url(#paint37_linear)"/>
<path d="M58.4251 77.211L68.5169 71.343L58.4251 65.475L48.3423 71.343L58.4251 77.211Z" fill="white"/>
<path d="M48.3423 48.816V71.343L58.4251 77.211V54.684L48.3423 48.816Z" fill="url(#paint38_linear)"/>
<path d="M68.5171 48.816V71.343L58.4253 77.211V54.684L68.5171 48.816Z" fill="#1E262F"/>
<g opacity="0.51">
<path opacity="0.51" d="M67.8292 50.31V70.56L59.1128 75.627V55.386L67.8292 50.31Z" fill="#364044"/>
</g>
<path d="M49.8516 54.252V54.855L56.9158 58.959V58.365L49.8516 54.252Z" fill="#37474F"/>
<path d="M49.8516 56.772V57.366L56.9158 61.479V60.885L49.8516 56.772Z" fill="#37474F"/>
<path d="M49.8516 59.292V59.886L56.9158 63.999V63.396L49.8516 59.292Z" fill="#37474F"/>
<path d="M49.8516 61.812V62.406L56.9158 66.51V65.916L49.8516 61.812Z" fill="#37474F"/>
<path d="M49.8516 64.323V64.926L56.9158 69.03V68.436L49.8516 64.323Z" fill="#37474F"/>
<path d="M49.8516 66.843V67.437L56.9158 71.55V70.956L49.8516 66.843Z" fill="#37474F"/>
<path d="M58.4253 53.145H61.0777L68.5171 48.816L60.4258 44.109H58.4253V53.145Z" fill="url(#paint39_linear)"/>
<path d="M58.4252 52.623L65.7484 48.366L58.4252 44.109L51.1108 48.366L58.4252 52.623Z" fill="url(#paint40_linear)"/>
<path d="M51.1108 48.366V48.879L58.4252 53.145V52.623L51.1108 48.366Z" fill="url(#paint41_linear)"/>
<path d="M65.7485 48.366V48.879L58.4253 53.145V52.623L65.7485 48.366Z" fill="url(#paint42_linear)"/>
<path d="M61.2649 48.429L61.5954 48.24L61.5686 48.087L58.5589 46.323L58.1392 46.53L58.2195 46.656L61.2649 48.429Z" fill="black"/>
<path d="M58.5412 46.467L58.2197 46.656L58.0054 46.539L58.5412 46.224L61.801 48.123L61.5956 48.24L58.5412 46.467Z" fill="url(#paint43_linear)"/>
<path d="M60.283 49.005L60.6045 48.816L60.5777 48.663L57.577 46.899L57.1572 47.097L57.2376 47.232L60.283 49.005Z" fill="black"/>
<path d="M57.5588 47.043L57.2373 47.232L57.0229 47.106L57.5588 46.8L60.8185 48.69L60.6042 48.816L57.5588 47.043Z" fill="url(#paint44_linear)"/>
<path d="M59.3006 49.572L59.6221 49.383L59.5953 49.23L56.5945 47.466L56.1748 47.673L56.2552 47.799L59.3006 49.572Z" fill="black"/>
<path d="M56.5764 47.61L56.2549 47.799L56.0405 47.682L56.5764 47.367L59.8361 49.266L59.6218 49.383L56.5764 47.61Z" fill="url(#paint45_linear)"/>
<path d="M58.3182 50.148L58.6397 49.959L58.6129 49.806L55.6032 48.042L55.1924 48.24L55.2638 48.366L58.3182 50.148Z" fill="black"/>
<path d="M55.594 48.177L55.2635 48.366L55.0581 48.249L55.594 47.943L58.8448 49.833L58.6394 49.959L55.594 48.177Z" fill="url(#paint46_linear)"/>
<g opacity="0.51">
<path opacity="0.51" d="M68.5171 67.779L58.4253 61.641V54.684L68.5171 48.816V67.779Z" fill="#37474F"/>
</g>
<path d="M58.8272 55.692C58.8364 55.553 58.8775 55.4181 58.9472 55.2978C59.017 55.1776 59.1134 55.0753 59.2291 54.999C59.2715 54.9707 59.3211 54.9557 59.372 54.9557C59.4228 54.9557 59.4725 54.9707 59.5149 54.999L59.8006 55.17H59.622C59.6269 55.1998 59.6269 55.2302 59.622 55.26C59.6128 55.399 59.5717 55.5339 59.502 55.6541C59.4323 55.7744 59.3358 55.8767 59.2201 55.953H59.1398L59.2201 56.106L58.9433 55.962C58.9009 55.9324 58.8676 55.8914 58.847 55.8437C58.8265 55.796 58.8197 55.7434 58.8272 55.692Z" fill="url(#paint47_linear)"/>
<path d="M59.1128 55.863C59.1128 56.124 59.2914 56.223 59.5147 56.097C59.6315 56.0198 59.7287 55.9161 59.7985 55.7942C59.8683 55.6722 59.9087 55.5355 59.9166 55.395C59.9166 55.143 59.7379 55.035 59.5147 55.161C59.3979 55.2382 59.3007 55.3419 59.2309 55.4638C59.1611 55.5857 59.1206 55.7225 59.1128 55.863Z" fill="url(#paint48_linear)"/>
<path d="M59.2827 55.8C59.2827 55.953 59.3899 56.007 59.5149 55.935C59.5827 55.8909 59.6391 55.8311 59.6795 55.7607C59.7199 55.6903 59.743 55.6112 59.7471 55.53C59.752 55.501 59.748 55.4712 59.7356 55.4445C59.7232 55.4179 59.703 55.3957 59.6777 55.381C59.6524 55.3663 59.6232 55.3597 59.5941 55.3622C59.565 55.3648 59.5374 55.3762 59.5149 55.395C59.449 55.4411 59.394 55.5013 59.3539 55.5713C59.3137 55.6413 59.2894 55.7194 59.2827 55.8Z" fill="#37474F"/>
<path d="M67.2844 50.454C67.2936 50.315 67.3347 50.1801 67.4044 50.0598C67.4742 49.9396 67.5706 49.8373 67.6863 49.761C67.7297 49.7357 67.779 49.7224 67.8292 49.7224C67.8793 49.7224 67.9286 49.7357 67.9721 49.761L68.2578 49.932H68.0792C68.0836 49.9588 68.0836 49.9862 68.0792 50.013C68.0714 50.1535 68.0309 50.2902 67.9611 50.4122C67.8913 50.5341 67.7941 50.6378 67.6773 50.715H67.597L67.6773 50.868L67.4005 50.706C67.3628 50.6762 67.3326 50.6378 67.3124 50.594C67.2922 50.5502 67.2826 50.5023 67.2844 50.454Z" fill="url(#paint49_linear)"/>
<path d="M67.5703 50.625C67.5703 50.886 67.7579 50.985 67.9722 50.859C68.089 50.7818 68.1862 50.6781 68.256 50.5562C68.3258 50.4342 68.3662 50.2975 68.3741 50.157C68.3741 49.905 68.1955 49.797 67.9722 49.923C67.8554 50.0002 67.7582 50.1039 67.6884 50.2258C67.6186 50.3478 67.5782 50.4845 67.5703 50.625Z" fill="url(#paint50_linear)"/>
<path d="M67.749 50.526C67.749 50.679 67.8473 50.733 67.9723 50.661C68.0411 50.618 68.0983 50.5585 68.1389 50.4879C68.1794 50.4172 68.2019 50.3376 68.2045 50.256C68.2045 50.112 68.1063 50.049 67.9723 50.121C67.9071 50.1671 67.8532 50.2275 67.8145 50.2977C67.7758 50.3678 67.7535 50.4459 67.749 50.526Z" fill="#37474F"/>
<path d="M58.827 75.87C58.8348 75.7295 58.8753 75.5928 58.9451 75.4708C59.0149 75.3489 59.1121 75.2452 59.2289 75.168C59.2723 75.1427 59.3216 75.1294 59.3717 75.1294C59.4219 75.1294 59.4712 75.1427 59.5146 75.168L59.8004 75.339H59.6218C59.6267 75.3658 59.6267 75.3932 59.6218 75.42C59.614 75.5605 59.5735 75.6973 59.5037 75.8192C59.4339 75.9411 59.3367 76.0448 59.2199 76.122H59.1395L59.2199 76.284L58.9431 76.131C58.9006 76.1036 58.867 76.0643 58.8464 76.018C58.8258 75.9716 58.819 75.9202 58.827 75.87Z" fill="url(#paint51_linear)"/>
<path d="M59.1128 76.041C59.1128 76.302 59.2914 76.401 59.5147 76.275C59.6315 76.1978 59.7287 76.0941 59.7985 75.9722C59.8683 75.8503 59.9087 75.7135 59.9166 75.573C59.9166 75.312 59.7379 75.213 59.5147 75.339C59.3979 75.4162 59.3007 75.5199 59.2309 75.6418C59.1611 75.7638 59.1206 75.9005 59.1128 76.041Z" fill="url(#paint52_linear)"/>
<path d="M59.2823 75.942C59.2774 75.971 59.2814 76.0008 59.2938 76.0275C59.3062 76.0541 59.3265 76.0763 59.3518 76.091C59.3771 76.1057 59.4062 76.1122 59.4353 76.1097C59.4644 76.1072 59.4921 76.0958 59.5145 76.077C59.5813 76.0318 59.637 75.9718 59.6773 75.9016C59.7175 75.8314 59.7413 75.7529 59.7467 75.672C59.7516 75.643 59.7476 75.6131 59.7352 75.5865C59.7228 75.5599 59.7026 75.5377 59.6773 75.523C59.652 75.5083 59.6228 75.5017 59.5937 75.5042C59.5646 75.5067 59.537 75.5182 59.5145 75.537C59.4467 75.5811 59.3903 75.6409 59.3499 75.7113C59.3096 75.7817 59.2864 75.8608 59.2823 75.942Z" fill="#37474F"/>
<path d="M67.2847 70.632C67.2926 70.4915 67.333 70.3548 67.4028 70.2328C67.4726 70.1109 67.5698 70.0072 67.6866 69.93C67.7301 69.9047 67.7793 69.8914 67.8295 69.8914C67.8797 69.8914 67.929 69.9047 67.9724 69.93L68.2582 70.101H68.0796C68.084 70.1308 68.084 70.1612 68.0796 70.191C68.0717 70.3315 68.0313 70.4683 67.9615 70.5902C67.8917 70.7121 67.7945 70.8158 67.6777 70.893H67.5973L67.6777 71.055L67.4008 70.884C67.3613 70.8559 67.3298 70.8178 67.3094 70.7736C67.2891 70.7294 67.2805 70.6806 67.2847 70.632Z" fill="url(#paint53_linear)"/>
<path d="M67.5704 70.803C67.5633 70.8528 67.5712 70.9036 67.593 70.9489C67.6148 70.9941 67.6496 71.0318 67.6928 71.0569C67.7361 71.0821 67.7858 71.0937 67.8356 71.0901C67.8854 71.0865 67.933 71.0681 67.9723 71.037C68.0891 70.9598 68.1863 70.8561 68.2561 70.7342C68.3259 70.6122 68.3663 70.4755 68.3742 70.335C68.3742 70.074 68.1955 69.975 67.9723 70.101C67.8555 70.1782 67.7583 70.2819 67.6885 70.4038C67.6187 70.5257 67.5782 70.6625 67.5704 70.803Z" fill="url(#paint54_linear)"/>
<path d="M67.749 70.704C67.749 70.848 67.8473 70.911 67.9723 70.839C68.0396 70.7943 68.0956 70.7345 68.1359 70.6642C68.1762 70.5939 68.1997 70.5151 68.2045 70.434C68.2045 70.281 68.1063 70.227 67.9723 70.299C67.9057 70.3436 67.8506 70.4036 67.8117 70.4741C67.7729 70.5446 67.7514 70.6234 67.749 70.704Z" fill="#37474F"/>
<path d="M64.6855 57.924L66.5789 56.826V56.412L64.6855 57.51V57.924Z" fill="#FF7F1B"/>
<path d="M63.7212 58.491L64.3999 58.095V57.672L63.7212 58.077V58.491Z" fill="#FF7F1B"/>
<path d="M62.9619 58.923L63.4263 58.662V58.239L62.9619 58.509V58.923Z" fill="#FF7F1B"/>
<path d="M65.543 58.383L66.5789 57.78V57.366L65.543 57.96V58.383Z" fill="#FF7F1B"/>
<path d="M63.998 59.283L65.2573 58.554V58.131L63.998 58.869V59.283Z" fill="#FF7F1B"/>
<path d="M63.2476 59.724L63.703 59.454V59.031L63.2476 59.301V59.724Z" fill="#FF7F1B"/>
<path d="M62.5332 60.138L62.9887 59.868V59.454L62.5332 59.715V60.138Z" fill="#FF7F1B"/>
<path d="M65.8286 59.175L66.5788 58.734V58.32L65.8286 58.752V59.175Z" fill="#FF7F1B"/>
<path d="M65.293 59.49L65.543 59.337V58.923L65.293 59.067V59.49Z" fill="#FF7F1B"/>
<path d="M64.5337 59.922L64.9981 59.652V59.238L64.5337 59.508V59.922Z" fill="#FF7F1B"/>
<path d="M63.8281 61.299L66.5788 59.697V59.274L63.8281 60.876V61.299Z" fill="#FF7F1B"/>
<path d="M62.855 61.857L63.5337 61.461V61.047L62.855 61.443V61.857Z" fill="#FF7F1B"/>
<path d="M65.8286 61.083L66.5788 60.651V60.228L65.8286 60.669V61.083Z" fill="#FF7F1B"/>
<path d="M64.0781 62.1L65.5428 61.254V60.831L64.0781 61.686V62.1Z" fill="#FF7F1B"/>
<path d="M63.3281 62.541L63.7925 62.271V61.848L63.3281 62.118V62.541Z" fill="#FF7F1B"/>
<path d="M65.0518 62.496L66.5789 61.605V61.191L65.0518 62.073V62.496Z" fill="#FF7F1B"/>
<path d="M63.6587 63.306L64.7661 62.658V62.244L63.6587 62.883V63.306Z" fill="#FF7F1B"/>
<path d="M62.6313 63.9L63.3726 63.468V63.054L62.6313 63.486V63.9Z" fill="#FF7F1B"/>
<path d="M66.061 62.865L66.579 62.559V62.145L66.061 62.442V62.865Z" fill="#FF7F1B"/>
<path d="M65.0967 63.423L65.7754 63.027V62.613L65.0967 63.009V63.423Z" fill="#FF7F1B"/>
<path d="M63.7031 64.233L64.8016 63.594V63.171L63.7031 63.81V64.233Z" fill="#FF7F1B"/>
<path d="M64.998 64.431L66.5788 63.522V63.099L64.998 64.017V64.431Z" fill="#FF7F1B"/>
<path d="M63.23 65.466L64.7125 64.602V64.188L63.23 65.043V65.466Z" fill="#FF7F1B"/>
<path d="M62.4795 65.898L62.9439 65.628V65.214L62.4795 65.484V65.898Z" fill="#FF7F1B"/>
<path d="M61.7563 66.321L62.2207 66.051V65.628L61.7563 65.898V66.321Z" fill="#FF7F1B"/>
<path d="M65.6323 65.025L66.579 64.476V64.053L65.6323 64.602V65.025Z" fill="#FF7F1B"/>
<path d="M61.6761 59.679L60.3633 60.444V60.021L61.6761 59.256V59.679Z" fill="#FF7F1B"/>
<path d="M61.3993 60.795L60.3633 61.398V60.975L61.3993 60.381V60.795Z" fill="#FF7F1B"/>
<path d="M61.1135 61.92L60.3633 62.352V61.929L61.1135 61.497V61.92Z" fill="#FF7F1B"/>
<path d="M61.4528 62.676L60.3633 63.306V62.892L61.4528 62.253V62.676Z" fill="#FF7F1B"/>
<path d="M61.1135 63.828L60.3633 64.26V63.846L61.1135 63.414V63.828Z" fill="#FF7F1B"/>
<path d="M61.3099 64.665L60.3633 65.223V64.8L61.3099 64.251V64.665Z" fill="#FF7F1B"/>
<path d="M60.8813 65.871L60.3633 66.177V65.754L60.8813 65.457V65.871Z" fill="#FF7F1B"/>
<path d="M61.3635 66.546L60.3633 67.131V66.708L61.3635 66.132V66.546Z" fill="#FF7F1B"/>
<path d="M61.3099 67.536L60.3633 68.085V67.671L61.3099 67.122V67.536Z" fill="#FF7F1B"/>
<path d="M64.9448 65.421L65.3467 65.187V64.773L64.9448 65.007V65.421Z" fill="#FF7F1B"/>
<path d="M63.748 66.123L64.6501 65.592V65.178L63.748 65.7V66.123Z" fill="#FF7F1B"/>
<path d="M62.9976 69.336L64.5247 68.445V68.031L62.9976 68.913V69.336Z" fill="#FF7F1B"/>
<path d="M61.9526 69.948L62.551 69.597V69.174L61.9526 69.525V69.948Z" fill="#FF7F1B"/>
</g>
<defs>
<linearGradient id="paint0_linear" x1="46.4118" y1="1.93752" x2="46.4118" y2="54.5422" gradientUnits="userSpaceOnUse">
<stop stop-color="#F4F6FA"/>
<stop offset="1" stop-color="#CDD8E1"/>
</linearGradient>
<linearGradient id="paint1_linear" x1="99.1049" y1="57.618" x2="75.8313" y2="57.618" gradientUnits="userSpaceOnUse">
<stop stop-color="#AF3C00"/>
<stop offset="0.03" stop-color="#B33F01"/>
<stop offset="0.3" stop-color="#D45B0D"/>
<stop offset="0.56" stop-color="#EC6F15"/>
<stop offset="0.8" stop-color="#FA7B19"/>
<stop offset="1" stop-color="#FF7F1B"/>
</linearGradient>
<linearGradient id="paint2_linear" x1="82.4224" y1="53.046" x2="82.4224" y2="31.599" gradientUnits="userSpaceOnUse">
<stop stop-color="#BCC6CC"/>
<stop offset="0.29" stop-color="#C1CAD0"/>
<stop offset="0.64" stop-color="#CFD7DC"/>
<stop offset="1" stop-color="#E6ECEF"/>
</linearGradient>
<linearGradient id="paint3_linear" x1="97.5511" y1="30.807" x2="87.4683" y2="30.807" gradientUnits="userSpaceOnUse">
<stop stop-color="#78909C"/>
<stop offset="1" stop-color="#B0BEC5"/>
</linearGradient>
<linearGradient id="paint4_linear" x1="84.4139" y1="33.102" x2="90.0218" y2="28.4826" gradientUnits="userSpaceOnUse">
<stop stop-color="#CFD8DC"/>
<stop offset="0.41" stop-color="#D4DCE0"/>
<stop offset="0.9" stop-color="#E2E9EC"/>
<stop offset="1" stop-color="#E6ECEF"/>
</linearGradient>
<linearGradient id="paint5_linear" x1="1098.15" y1="213.905" x2="1090.95" y2="194.561" gradientUnits="userSpaceOnUse">
<stop stop-color="#CFD8DC"/>
<stop offset="0.41" stop-color="#D4DCE0"/>
<stop offset="0.9" stop-color="#E2E9EC"/>
<stop offset="1" stop-color="#E6ECEF"/>
</linearGradient>
<linearGradient id="paint6_linear" x1="91.1299" y1="33.111" x2="91.1299" y2="28.332" gradientUnits="userSpaceOnUse">
<stop stop-color="#1E262F"/>
<stop offset="0.14" stop-color="#232B34"/>
<stop offset="0.3" stop-color="#313942"/>
<stop offset="0.47" stop-color="#485159"/>
<stop offset="0.65" stop-color="#69727A"/>
<stop offset="0.84" stop-color="#939CA3"/>
<stop offset="1" stop-color="#BCC6CC"/>
</linearGradient>
<linearGradient id="paint7_linear" x1="90.1384" y1="31.275" x2="88.4687" y2="28.848" gradientUnits="userSpaceOnUse">
<stop stop-color="#263238"/>
<stop offset="0.14" stop-color="#2B373D"/>
<stop offset="0.31" stop-color="#39454B"/>
<stop offset="0.49" stop-color="#515C62"/>
<stop offset="0.68" stop-color="#727D83"/>
<stop offset="0.87" stop-color="#9CA7AD"/>
<stop offset="1" stop-color="#BCC6CC"/>
</linearGradient>
<linearGradient id="paint8_linear" x1="584.957" y1="100.346" x2="588.013" y2="93.0274" gradientUnits="userSpaceOnUse">
<stop stop-color="#263238"/>
<stop offset="0.14" stop-color="#2B373D"/>
<stop offset="0.31" stop-color="#39454B"/>
<stop offset="0.49" stop-color="#515C62"/>
<stop offset="0.68" stop-color="#727D83"/>
<stop offset="0.87" stop-color="#9CA7AD"/>
<stop offset="1" stop-color="#BCC6CC"/>
</linearGradient>
<linearGradient id="paint9_linear" x1="588.521" y1="101.337" x2="592.387" y2="93.5596" gradientUnits="userSpaceOnUse">
<stop stop-color="#263238"/>
<stop offset="0.14" stop-color="#2B373D"/>
<stop offset="0.31" stop-color="#39454B"/>
<stop offset="0.49" stop-color="#515C62"/>
<stop offset="0.68" stop-color="#727D83"/>
<stop offset="0.87" stop-color="#9CA7AD"/>
<stop offset="1" stop-color="#BCC6CC"/>
</linearGradient>
<linearGradient id="paint10_linear" x1="593.308" y1="103.586" x2="596.576" y2="95.5665" gradientUnits="userSpaceOnUse">
<stop stop-color="#263238"/>
<stop offset="0.14" stop-color="#2B373D"/>
<stop offset="0.31" stop-color="#39454B"/>
<stop offset="0.49" stop-color="#515C62"/>
<stop offset="0.68" stop-color="#727D83"/>
<stop offset="0.87" stop-color="#9CA7AD"/>
<stop offset="1" stop-color="#BCC6CC"/>
</linearGradient>
<linearGradient id="paint11_linear" x1="215.548" y1="85.1504" x2="216.59" y2="85.1504" gradientUnits="userSpaceOnUse">
<stop stop-color="#CFD8DC"/>
<stop offset="0.41" stop-color="#D4DCE0"/>
<stop offset="0.9" stop-color="#E2E9EC"/>
<stop offset="1" stop-color="#E6ECEF"/>
</linearGradient>
<linearGradient id="paint12_linear" x1="194.74" y1="81.1509" x2="195.458" y2="81.1509" gradientUnits="userSpaceOnUse">
<stop stop-color="#78909C"/>
<stop offset="1" stop-color="#B0BEC5"/>
</linearGradient>
<linearGradient id="paint13_linear" x1="216.015" y1="73.2351" x2="217.067" y2="73.2351" gradientUnits="userSpaceOnUse">
<stop stop-color="#CFD8DC"/>
<stop offset="0.41" stop-color="#D4DCE0"/>
<stop offset="0.9" stop-color="#E2E9EC"/>
<stop offset="1" stop-color="#E6ECEF"/>
</linearGradient>
<linearGradient id="paint14_linear" x1="195.243" y1="69.8031" x2="195.967" y2="69.8031" gradientUnits="userSpaceOnUse">
<stop stop-color="#78909C"/>
<stop offset="1" stop-color="#B0BEC5"/>
</linearGradient>
<linearGradient id="paint15_linear" x1="215.593" y1="131.588" x2="216.635" y2="131.588" gradientUnits="userSpaceOnUse">
<stop stop-color="#CFD8DC"/>
<stop offset="0.41" stop-color="#D4DCE0"/>
<stop offset="0.9" stop-color="#E2E9EC"/>
<stop offset="1" stop-color="#E6ECEF"/>
</linearGradient>
<linearGradient id="paint16_linear" x1="194.407" y1="124.78" x2="195.123" y2="124.78" gradientUnits="userSpaceOnUse">
<stop stop-color="#78909C"/>
<stop offset="1" stop-color="#B0BEC5"/>
</linearGradient>
<linearGradient id="paint17_linear" x1="216.625" y1="119.615" x2="217.683" y2="119.615" gradientUnits="userSpaceOnUse">
<stop stop-color="#CFD8DC"/>
<stop offset="0.41" stop-color="#D4DCE0"/>
<stop offset="0.9" stop-color="#E2E9EC"/>
<stop offset="1" stop-color="#E6ECEF"/>
</linearGradient>
<linearGradient id="paint18_linear" x1="195.243" y1="113.368" x2="195.967" y2="113.368" gradientUnits="userSpaceOnUse">
<stop stop-color="#78909C"/>
<stop offset="1" stop-color="#B0BEC5"/>
</linearGradient>
<linearGradient id="paint19_linear" x1="3252.88" y1="1072.31" x2="3858.73" y2="1072.31" gradientUnits="userSpaceOnUse">
<stop stop-color="#AF3C00"/>
<stop offset="0.03" stop-color="#B33F01"/>
<stop offset="0.3" stop-color="#D45B0D"/>
<stop offset="0.56" stop-color="#EC6F15"/>
<stop offset="0.8" stop-color="#FA7B19"/>
<stop offset="1" stop-color="#FF7F1B"/>
</linearGradient>
<linearGradient id="paint20_linear" x1="1636.68" y1="1986.99" x2="1636.68" y2="1310.06" gradientUnits="userSpaceOnUse">
<stop stop-color="#BCC6CC"/>
<stop offset="0.29" stop-color="#C1CAD0"/>
<stop offset="0.64" stop-color="#CFD7DC"/>
<stop offset="1" stop-color="#E6ECEF"/>
</linearGradient>
<linearGradient id="paint21_linear" x1="1474.58" y1="431.275" x2="1588.41" y2="431.275" gradientUnits="userSpaceOnUse">
<stop stop-color="#78909C"/>
<stop offset="1" stop-color="#B0BEC5"/>
</linearGradient>
<linearGradient id="paint22_linear" x1="2315.82" y1="430.091" x2="2265.14" y2="357.647" gradientUnits="userSpaceOnUse">
<stop stop-color="#CFD8DC"/>
<stop offset="0.41" stop-color="#D4DCE0"/>
<stop offset="0.9" stop-color="#E2E9EC"/>
<stop offset="1" stop-color="#E6ECEF"/>
</linearGradient>
<linearGradient id="paint23_linear" x1="1204.05" y1="268.94" x2="1196.83" y2="249.568" gradientUnits="userSpaceOnUse">
<stop stop-color="#CFD8DC"/>
<stop offset="0.41" stop-color="#D4DCE0"/>
<stop offset="0.9" stop-color="#E2E9EC"/>
<stop offset="1" stop-color="#E6ECEF"/>
</linearGradient>
<linearGradient id="paint24_linear" x1="1142.33" y1="261.054" x2="1142.33" y2="235.678" gradientUnits="userSpaceOnUse">
<stop stop-color="#1E262F"/>
<stop offset="0.14" stop-color="#232B34"/>
<stop offset="0.3" stop-color="#313942"/>
<stop offset="0.47" stop-color="#485159"/>
<stop offset="0.65" stop-color="#69727A"/>
<stop offset="0.84" stop-color="#939CA3"/>
<stop offset="1" stop-color="#BCC6CC"/>
</linearGradient>
<linearGradient id="paint25_linear" x1="630.227" y1="126.55" x2="632.798" y2="119.475" gradientUnits="userSpaceOnUse">
<stop stop-color="#263238"/>
<stop offset="0.14" stop-color="#2B373D"/>
<stop offset="0.31" stop-color="#39454B"/>
<stop offset="0.49" stop-color="#515C62"/>
<stop offset="0.68" stop-color="#727D83"/>
<stop offset="0.87" stop-color="#9CA7AD"/>
<stop offset="1" stop-color="#BCC6CC"/>
</linearGradient>
<linearGradient id="paint26_linear" x1="633.968" y1="128.427" x2="636.996" y2="121.12" gradientUnits="userSpaceOnUse">
<stop stop-color="#263238"/>
<stop offset="0.14" stop-color="#2B373D"/>
<stop offset="0.31" stop-color="#39454B"/>
<stop offset="0.49" stop-color="#515C62"/>
<stop offset="0.68" stop-color="#727D83"/>
<stop offset="0.87" stop-color="#9CA7AD"/>
<stop offset="1" stop-color="#BCC6CC"/>
</linearGradient>
<linearGradient id="paint27_linear" x1="637.503" y1="129.447" x2="641.356" y2="121.648" gradientUnits="userSpaceOnUse">
<stop stop-color="#263238"/>
<stop offset="0.14" stop-color="#2B373D"/>
<stop offset="0.31" stop-color="#39454B"/>
<stop offset="0.49" stop-color="#515C62"/>
<stop offset="0.68" stop-color="#727D83"/>
<stop offset="0.87" stop-color="#9CA7AD"/>
<stop offset="1" stop-color="#BCC6CC"/>
</linearGradient>
<linearGradient id="paint28_linear" x1="641.15" y1="131.687" x2="644.392" y2="123.669" gradientUnits="userSpaceOnUse">
<stop stop-color="#263238"/>
<stop offset="0.14" stop-color="#2B373D"/>
<stop offset="0.31" stop-color="#39454B"/>
<stop offset="0.49" stop-color="#515C62"/>
<stop offset="0.68" stop-color="#727D83"/>
<stop offset="0.87" stop-color="#9CA7AD"/>
<stop offset="1" stop-color="#BCC6CC"/>
</linearGradient>
<linearGradient id="paint29_linear" x1="218.011" y1="104.839" x2="219.072" y2="104.839" gradientUnits="userSpaceOnUse">
<stop stop-color="#CFD8DC"/>
<stop offset="0.41" stop-color="#D4DCE0"/>
<stop offset="0.9" stop-color="#E2E9EC"/>
<stop offset="1" stop-color="#E6ECEF"/>
</linearGradient>
<linearGradient id="paint30_linear" x1="193.638" y1="100.278" x2="194.365" y2="100.278" gradientUnits="userSpaceOnUse">
<stop stop-color="#78909C"/>
<stop offset="1" stop-color="#B0BEC5"/>
</linearGradient>
<linearGradient id="paint31_linear" x1="216.072" y1="92.9987" x2="217.114" y2="92.9987" gradientUnits="userSpaceOnUse">
<stop stop-color="#CFD8DC"/>
<stop offset="0.41" stop-color="#D4DCE0"/>
<stop offset="0.9" stop-color="#E2E9EC"/>
<stop offset="1" stop-color="#E6ECEF"/>
</linearGradient>
<linearGradient id="paint32_linear" x1="193.773" y1="88.5531" x2="194.497" y2="88.5531" gradientUnits="userSpaceOnUse">
<stop stop-color="#78909C"/>
<stop offset="1" stop-color="#B0BEC5"/>
</linearGradient>
<linearGradient id="paint33_linear" x1="217.991" y1="150.381" x2="219.053" y2="150.381" gradientUnits="userSpaceOnUse">
<stop stop-color="#CFD8DC"/>
<stop offset="0.41" stop-color="#D4DCE0"/>
<stop offset="0.9" stop-color="#E2E9EC"/>
<stop offset="1" stop-color="#E6ECEF"/>
</linearGradient>
<linearGradient id="paint34_linear" x1="192.927" y1="143.685" x2="193.65" y2="143.685" gradientUnits="userSpaceOnUse">
<stop stop-color="#78909C"/>
<stop offset="1" stop-color="#B0BEC5"/>
</linearGradient>
<linearGradient id="paint35_linear" x1="216.694" y1="141.566" x2="217.741" y2="141.566" gradientUnits="userSpaceOnUse">
<stop stop-color="#CFD8DC"/>
<stop offset="0.41" stop-color="#D4DCE0"/>
<stop offset="0.9" stop-color="#E2E9EC"/>
<stop offset="1" stop-color="#E6ECEF"/>
</linearGradient>
<linearGradient id="paint36_linear" x1="194.125" y1="132.145" x2="194.85" y2="132.145" gradientUnits="userSpaceOnUse">
<stop stop-color="#78909C"/>
<stop offset="1" stop-color="#B0BEC5"/>
</linearGradient>
<linearGradient id="paint37_linear" x1="3619.3" y1="1222.06" x2="4226.44" y2="1222.06" gradientUnits="userSpaceOnUse">
<stop stop-color="#AF3C00"/>
<stop offset="0.03" stop-color="#B33F01"/>
<stop offset="0.3" stop-color="#D45B0D"/>
<stop offset="0.56" stop-color="#EC6F15"/>
<stop offset="0.8" stop-color="#FA7B19"/>
<stop offset="1" stop-color="#FF7F1B"/>
</linearGradient>
<linearGradient id="paint38_linear" x1="1782.69" y1="2284.64" x2="1782.69" y2="1607.99" gradientUnits="userSpaceOnUse">
<stop stop-color="#BCC6CC"/>
<stop offset="0.29" stop-color="#C1CAD0"/>
<stop offset="0.64" stop-color="#CFD7DC"/>
<stop offset="1" stop-color="#E6ECEF"/>
</linearGradient>
<linearGradient id="paint39_linear" x1="1623.36" y1="532.324" x2="1737.4" y2="532.324" gradientUnits="userSpaceOnUse">
<stop stop-color="#78909C"/>
<stop offset="1" stop-color="#B0BEC5"/>
</linearGradient>
<linearGradient id="paint40_linear" x1="2536.28" y1="525.831" x2="2485.6" y2="453.387" gradientUnits="userSpaceOnUse">
<stop stop-color="#CFD8DC"/>
<stop offset="0.41" stop-color="#D4DCE0"/>
<stop offset="0.9" stop-color="#E2E9EC"/>
<stop offset="1" stop-color="#E6ECEF"/>
</linearGradient>
<linearGradient id="paint41_linear" x1="1305.66" y1="326.695" x2="1298.43" y2="307.329" gradientUnits="userSpaceOnUse">
<stop stop-color="#CFD8DC"/>
<stop offset="0.41" stop-color="#D4DCE0"/>
<stop offset="0.9" stop-color="#E2E9EC"/>
<stop offset="1" stop-color="#E6ECEF"/>
</linearGradient>
<linearGradient id="paint42_linear" x1="1246.77" y1="318.809" x2="1246.77" y2="293.433" gradientUnits="userSpaceOnUse">
<stop stop-color="#1E262F"/>
<stop offset="0.14" stop-color="#232B34"/>
<stop offset="0.3" stop-color="#313942"/>
<stop offset="0.47" stop-color="#485159"/>
<stop offset="0.65" stop-color="#69727A"/>
<stop offset="0.84" stop-color="#939CA3"/>
<stop offset="1" stop-color="#BCC6CC"/>
</linearGradient>
<linearGradient id="paint43_linear" x1="678.128" y1="156.197" x2="680.695" y2="149.118" gradientUnits="userSpaceOnUse">
<stop stop-color="#263238"/>
<stop offset="0.14" stop-color="#2B373D"/>
<stop offset="0.31" stop-color="#39454B"/>
<stop offset="0.49" stop-color="#515C62"/>
<stop offset="0.68" stop-color="#727D83"/>
<stop offset="0.87" stop-color="#9CA7AD"/>
<stop offset="1" stop-color="#BCC6CC"/>
</linearGradient>
<linearGradient id="paint44_linear" x1="680.524" y1="158.083" x2="683.574" y2="150.759" gradientUnits="userSpaceOnUse">
<stop stop-color="#263238"/>
<stop offset="0.14" stop-color="#2B373D"/>
<stop offset="0.31" stop-color="#39454B"/>
<stop offset="0.49" stop-color="#515C62"/>
<stop offset="0.68" stop-color="#727D83"/>
<stop offset="0.87" stop-color="#9CA7AD"/>
<stop offset="1" stop-color="#BCC6CC"/>
</linearGradient>
<linearGradient id="paint45_linear" x1="684.057" y1="159.073" x2="687.943" y2="151.272" gradientUnits="userSpaceOnUse">
<stop stop-color="#263238"/>
<stop offset="0.14" stop-color="#2B373D"/>
<stop offset="0.31" stop-color="#39454B"/>
<stop offset="0.49" stop-color="#515C62"/>
<stop offset="0.68" stop-color="#727D83"/>
<stop offset="0.87" stop-color="#9CA7AD"/>
<stop offset="1" stop-color="#BCC6CC"/>
</linearGradient>
<linearGradient id="paint46_linear" x1="686.218" y1="161.323" x2="689.491" y2="153.309" gradientUnits="userSpaceOnUse">
<stop stop-color="#263238"/>
<stop offset="0.14" stop-color="#2B373D"/>
<stop offset="0.31" stop-color="#39454B"/>
<stop offset="0.49" stop-color="#515C62"/>
<stop offset="0.68" stop-color="#727D83"/>
<stop offset="0.87" stop-color="#9CA7AD"/>
<stop offset="1" stop-color="#BCC6CC"/>
</linearGradient>
<linearGradient id="paint47_linear" x1="219.768" y1="125.93" x2="220.832" y2="125.93" gradientUnits="userSpaceOnUse">
<stop stop-color="#CFD8DC"/>
<stop offset="0.41" stop-color="#D4DCE0"/>
<stop offset="0.9" stop-color="#E2E9EC"/>
<stop offset="1" stop-color="#E6ECEF"/>
</linearGradient>
<linearGradient id="paint48_linear" x1="191.493" y1="119.588" x2="192.217" y2="119.588" gradientUnits="userSpaceOnUse">
<stop stop-color="#78909C"/>
<stop offset="1" stop-color="#B0BEC5"/>
</linearGradient>
<linearGradient id="paint49_linear" x1="218.553" y1="113.738" x2="219.614" y2="113.738" gradientUnits="userSpaceOnUse">
<stop stop-color="#CFD8DC"/>
<stop offset="0.41" stop-color="#D4DCE0"/>
<stop offset="0.9" stop-color="#E2E9EC"/>
<stop offset="1" stop-color="#E6ECEF"/>
</linearGradient>
<linearGradient id="paint50_linear" x1="192.339" y1="108.278" x2="193.062" y2="108.278" gradientUnits="userSpaceOnUse">
<stop stop-color="#78909C"/>
<stop offset="1" stop-color="#B0BEC5"/>
</linearGradient>
<linearGradient id="paint51_linear" x1="219.811" y1="172.253" x2="220.876" y2="172.253" gradientUnits="userSpaceOnUse">
<stop stop-color="#CFD8DC"/>
<stop offset="0.41" stop-color="#D4DCE0"/>
<stop offset="0.9" stop-color="#E2E9EC"/>
<stop offset="1" stop-color="#E6ECEF"/>
</linearGradient>
<linearGradient id="paint52_linear" x1="191.493" y1="163.287" x2="192.217" y2="163.287" gradientUnits="userSpaceOnUse">
<stop stop-color="#78909C"/>
<stop offset="1" stop-color="#B0BEC5"/>
</linearGradient>
<linearGradient id="paint53_linear" x1="218.681" y1="161" x2="219.743" y2="161" gradientUnits="userSpaceOnUse">
<stop stop-color="#CFD8DC"/>
<stop offset="0.41" stop-color="#D4DCE0"/>
<stop offset="0.9" stop-color="#E2E9EC"/>
<stop offset="1" stop-color="#E6ECEF"/>
</linearGradient>
<linearGradient id="paint54_linear" x1="192.727" y1="151.917" x2="193.453" y2="151.917" gradientUnits="userSpaceOnUse">
<stop stop-color="#78909C"/>
<stop offset="1" stop-color="#B0BEC5"/>
</linearGradient>
<clipPath id="clip0">
<rect width="108" height="90" fill="white"/>
</clipPath>
</defs>
</svg>
