<?xml version="1.0" encoding="UTF-8"?>
<svg width="50px" height="50px" viewBox="0 0 50 50" version="1.1" xmlns="http://www.w3.org/2000/svg" xmlns:xlink="http://www.w3.org/1999/xlink">
    <!-- Generator: Sketch 46 (44423) - http://www.bohemiancoding.com/sketch -->
    <title>Group 7</title>
    <desc>Created with Sketch.</desc>
    <defs></defs>
    <g id="Page-1" stroke="none" stroke-width="1" fill="none" fill-rule="evenodd">
        <g id="Data-Center_colokeishn" transform="translate(-382.000000, -2329.000000)" fill-rule="nonzero">
            <g id="Group-7" transform="translate(382.000000, 2329.000000)">
                <g id="trophy">
                    <path d="M11.6666992,33.3333008 C11.6666992,32.8733398 11.2933594,32.5 10.8333984,32.5 C10.3734375,32.5 10.0000977,32.8733398 10.0000977,33.3333008 C9.54013672,33.3333008 9.16679688,33.7066406 9.16679688,34.1666016 C9.16679688,34.6265625 9.54013672,34.9999023 10.0000977,34.9999023 C10.0000977,35.4598633 10.3734375,35.8332031 10.8333984,35.8332031 C11.2933594,35.8332031 11.6666992,35.4598633 11.6666992,34.9999023 C12.1266602,34.9999023 12.5,34.6265625 12.5,34.1666016 C12.5,33.7066406 12.1266602,33.3333008 11.6666992,33.3333008 Z" id="Shape" fill="#9BA5AE"></path>
                    <path d="M4.16669922,30 L3.33339844,30 L3.33339844,29.1666992 C3.33339844,28.7067383 2.96005859,28.3333984 2.50009766,28.3333984 C2.04013672,28.3333984 1.66679687,28.7067383 1.66679687,29.1666992 L1.66679687,30 L0.833300781,30 C0.373339844,30 0,30.3733398 0,30.8333008 C0,31.2932617 0.373339844,31.6666016 0.833300781,31.6666016 L1.66660156,31.6666016 L1.66660156,32.4999023 C1.66660156,32.9598633 2.03994141,33.3332031 2.49990234,33.3332031 C2.95986328,33.3332031 3.33320312,32.9598633 3.33320312,32.4999023 L3.33320312,31.6666016 L4.16650391,31.6666016 C4.62646484,31.6666016 4.99980469,31.2932617 4.99980469,30.8333008 C4.99980469,30.3733398 4.62666016,30 4.16669922,30 Z" id="Shape" fill="#9BA5AE"></path>
                    <path d="M40.8325195,18.3333008 C40.9,18.3333008 40.9674805,18.3257812 41.0358398,18.3083008 C44.6666992,17.4007812 46.6666992,15.0416016 46.6666992,11.6666016 L46.6666992,5.83330078 C46.6666992,4.45498047 45.5450195,3.33330078 44.1666992,3.33330078 L42.5,3.33330078 C42.0400391,3.33330078 41.6666992,3.70664063 41.6666992,4.16660156 C41.6666992,4.6265625 42.0400391,4.99990234 42.5,4.99990234 L44.1666992,4.99990234 C44.6258789,4.99990234 45,5.37402344 45,5.83320313 L45,11.6665039 C45,14.2756836 43.5299805,15.9665039 40.6308594,16.6915039 C40.1850586,16.803125 39.9133789,17.2556641 40.025,17.7023438 C40.1200195,18.0808594 40.4591797,18.3333008 40.8325195,18.3333008 Z" id="Shape" fill="#9BA5AE"></path>
                    <path d="M29.1150391,45 L20.8333984,45 C20.3734375,45 20.0000977,45.3733398 20.0000977,45.8333008 C20.0000977,46.2932617 20.3734375,46.6666016 20.8333984,46.6666016 L29.1150391,46.6666016 C29.575,46.6666016 29.9483398,46.2932617 29.9483398,45.8333008 C29.9483398,45.3733398 29.575,45 29.1150391,45 Z" id="Shape" fill="#9BA5AE"></path>
                    <path d="M9.975,17.7025391 C10.0866211,17.2558594 9.81503906,16.803418 9.36914062,16.6916992 C6.47001953,15.9666992 5,14.2758789 5,11.6666992 L5,5.83330078 C5,5.37412109 5.37412109,5 5.83330078,5 L7.5,5 C7.95996094,5 8.33330078,4.62666016 8.33330078,4.16669922 C8.33330078,3.70673828 7.95996094,3.33339844 7.5,3.33339844 L5.83330078,3.33339844 C4.45498047,3.33339844 3.33330078,4.45507812 3.33330078,5.83339844 L3.33330078,11.6666992 C3.33330078,15.0416992 5.33330078,17.4008789 8.96416016,18.3083984 C9.03251953,18.3258789 9.1,18.3333984 9.16748047,18.3333984 C9.54082031,18.3333008 9.87998047,18.0808594 9.975,17.7025391 Z" id="Shape" fill="#9BA5AE"></path>
                    <path d="M34.975,42.2974609 C34.8825195,41.9266602 34.5491211,41.6666016 34.1666992,41.6666016 L15.7291992,41.6666016 C15.3466797,41.6666016 15.0133789,41.9265625 14.9208984,42.2974609 L13.2541992,48.9641602 C13.1916992,49.2133789 13.2475586,49.4775391 13.4058594,49.6791992 C13.5633789,49.8817383 13.8058594,50 14.0625,50 L35.8333008,50 C36.0899414,50 36.3324219,49.8816406 36.4899414,49.6791992 C36.6482422,49.4775391 36.7041016,49.2133789 36.6416016,48.9641602 L34.975,42.2974609 Z M15.1299805,48.3333008 L16.3799805,43.3333008 L33.5158203,43.3333008 L34.7658203,48.3333008 L15.1299805,48.3333008 Z" id="Shape" fill="#9BA5AE"></path>
                    <path d="M44.1666992,38.3333008 L43.3333984,38.3333008 L43.3333984,37.5 C43.3333984,37.0400391 42.9600586,36.6666992 42.5000977,36.6666992 C42.0401367,36.6666992 41.6667969,37.0400391 41.6667969,37.5 L41.6667969,38.3333008 L40.8334961,38.3333008 C40.3735352,38.3333008 40.0001953,38.7066406 40.0001953,39.1666016 C40.0001953,39.6265625 40.3735352,39.9999023 40.8334961,39.9999023 L41.6667969,39.9999023 L41.6667969,40.8332031 C41.6667969,41.2931641 42.0401367,41.6665039 42.5000977,41.6665039 C42.9600586,41.6665039 43.3333984,41.2931641 43.3333984,40.8332031 L43.3333984,40 L44.1666992,40 C44.6266602,40 45,39.6266602 45,39.1666992 C45,38.7067383 44.6266602,38.3333008 44.1666992,38.3333008 Z" id="Shape" fill="#9BA5AE"></path>
                    <path d="M49.1666992,21.6666992 L47.5,21.6666992 L47.5,20 C47.5,19.5400391 47.1266602,19.1666992 46.6666992,19.1666992 C46.2067383,19.1666992 45.8333984,19.5400391 45.8333984,20 L45.8333984,21.6666992 L44.1666992,21.6666992 C43.7067383,21.6666992 43.3333984,22.0400391 43.3333984,22.5 C43.3333984,22.9599609 43.7067383,23.3333008 44.1666992,23.3333008 L45.8333984,23.3333008 L45.8333984,25 C45.8333984,25.4599609 46.2067383,25.8333008 46.6666992,25.8333008 C47.1266602,25.8333008 47.5,25.4599609 47.5,25 L47.5,23.3333008 L49.1666992,23.3333008 C49.6266602,23.3333008 50,22.9599609 50,22.5 C50,22.0400391 49.6266602,21.6666992 49.1666992,21.6666992 Z" id="Shape" fill="#9BA5AE"></path>
                    <path d="M40,0.833300781 C40,0.373339844 39.6266602,0 39.1666992,0 L10.8333008,0 C10.3733398,0 10,0.373339844 10,0.833300781 L10,4.16660156 C10,14.2474609 11.6833008,17.7291016 11.7341797,17.8282227 C12.6833008,20.0423828 14.0766602,21.569043 15.4233398,23.046582 C17.7775391,25.6265625 20,28.0632812 20,34.1666016 C20,34.1890625 19.9825195,36.4407227 18.4733398,38.7041016 C18.2183594,39.0874023 18.3216797,39.6049805 18.7041992,39.8599609 C19.0867187,40.1149414 19.6041992,40.0116211 19.8600586,39.6291016 C21.6466797,36.9499023 21.6666992,34.2791016 21.6666992,34.1666016 C21.6666992,27.4174805 19.1183594,24.6241211 16.6549805,21.9232422 C15.3433594,20.4857422 14.1041992,19.1274414 13.2474609,17.1324219 C13.2316406,17.0999023 11.6666016,13.7515625 11.6666016,4.16660156 L11.6666016,1.66660156 L38.3333008,1.66660156 L38.3333008,4.16660156 C38.3333008,13.7515625 36.7682617,17.0999023 36.7341797,17.171582 C35.8958008,19.1274414 34.6566406,20.4857422 33.3450195,21.9232422 C30.8816406,24.6241211 28.3333984,27.4173828 28.3333984,34.1666016 C28.3333984,34.2791016 28.353418,36.9499023 30.1400391,39.6291016 C30.3008789,39.8699219 30.5650391,39.9999023 30.8341797,39.9999023 C30.9924805,39.9999023 31.1533203,39.9548828 31.2958008,39.8598633 C31.6783203,39.6048828 31.7816406,39.0874023 31.5266602,38.7040039 C30.0316406,36.4615234 30,34.1865234 30,34.1665039 C30,28.0631836 32.2224609,25.6264648 34.5766602,23.0464844 C35.9233398,21.5689453 37.3166992,20.0422852 38.2458008,17.8723633 C38.3166016,17.7290039 40,14.2473633 40,4.16650391 L40,0.833300781 Z" id="Shape" fill="#9BA5AE"></path>
                    <path d="M21.1099609,17.2866211 C21.2658203,17.4274414 21.4649414,17.5 21.6666016,17.5 C21.7991211,17.5 21.9316406,17.4683594 22.0532227,17.4049805 L25.0598633,15.8283203 L27.9339844,17.3974609 C28.2365234,17.5632813 28.6098633,17.5241211 28.8731445,17.3016602 C29.1356445,17.0783203 29.2339844,16.7158203 29.1189453,16.3900391 L28.1114258,13.528418 L30.5389648,11.4692383 C30.8056641,11.2425781 30.9023438,10.8742187 30.7823242,10.5458984 C30.6615234,10.2183594 30.3490234,10.0000977 29.9998047,10.0000977 L27.0472656,10.0000977 L25.7588867,7.15595703 C25.6239258,6.85761719 25.3272461,6.66679687 24.999707,6.66679687 L24.9980469,6.66679687 C24.6697266,6.66767578 24.3730469,6.86015625 24.2388672,7.15927734 L22.9671875,10.0000977 L20,10.0000977 C19.6458008,10.0000977 19.3308594,10.2242187 19.2133789,10.5576172 C19.0966797,10.8917969 19.203418,11.2634766 19.4800781,11.4842773 L22.0192383,13.5134766 L20.8916992,16.3601563 C20.7641602,16.6841797 20.8508789,17.0533203 21.1099609,17.2866211 Z M23.5075195,11.6666992 C23.8358398,11.6666992 24.1333984,11.4742187 24.2683594,11.1742187 L25.0041992,9.52919922 L25.7516602,11.1775391 C25.8858398,11.4758789 26.1833008,11.6666992 26.5108398,11.6666992 L27.7299805,11.6666992 L26.5966797,12.6283203 C26.3333008,12.8516602 26.2341797,13.2141602 26.3492187,13.5408203 L26.8258789,14.8933594 L25.4683594,14.1516602 C25.3433594,14.0841797 25.2058594,14.05 25.0683594,14.05 C24.9358398,14.05 24.8025391,14.0816406 24.6817383,14.1450195 L23.2675781,14.8858398 L23.7958984,13.5533203 C23.9308594,13.2125 23.8275391,12.8241211 23.540918,12.5958008 L22.378418,11.6666016 L23.5075195,11.6666016 L23.5075195,11.6666992 Z" id="Shape" fill="#F56107"></path>
                </g>
            </g>
        </g>
    </g>
</svg>