<?xml version="1.0" encoding="UTF-8"?>
<svg width="50px" height="47px" viewBox="0 0 50 47" version="1.1" xmlns="http://www.w3.org/2000/svg" xmlns:xlink="http://www.w3.org/1999/xlink">
    <!-- Generator: Sketch 46 (44423) - http://www.bohemiancoding.com/sketch -->
    <title>Group 13</title>
    <desc>Created with Sketch.</desc>
    <defs></defs>
    <g id="Page-1" stroke="none" stroke-width="1" fill="none" fill-rule="evenodd">
        <g id="Data-Center_colokeishn" transform="translate(-706.000000, -2605.000000)" fill-rule="nonzero">
            <g id="Group-13" transform="translate(706.000000, 2605.000000)">
                <path d="M21.1413664,40.17428 C20.7937901,39.8266511 20.3315288,39.6353343 19.8398867,39.6353343 C19.3482446,39.6353343 18.8859307,39.8267036 18.5381967,40.17428 C17.8206011,40.8920333 17.8206011,42.0599066 18.5381967,42.7776074 L21.8807743,46.1200798 C22.2284032,46.4676036 22.6906645,46.6589729 23.1823591,46.6589729 C23.6740538,46.6589729 24.1363151,46.4676036 24.4839966,46.1199747 L31.4618558,39.1420628 C32.1793989,38.4241519 32.1793989,37.2564362 31.4617507,36.5389457 C31.1141218,36.1913168 30.6518605,36 30.1601133,36 C29.6684187,36 29.2061574,36.1913693 28.8584759,36.5389457 L23.1823066,42.215115 L21.1413664,40.17428 Z M29.6590631,37.3395329 C29.7928271,37.2057688 29.9708463,37.1321328 30.1601659,37.1321328 C30.3495905,37.1321328 30.527452,37.2057688 30.6613212,37.3395329 C30.9375217,37.6157333 30.9375217,38.0653278 30.6612161,38.3416334 L23.6834619,45.3194401 C23.5496979,45.4532042 23.3716787,45.5268401 23.1823591,45.5268401 C22.9930396,45.5268401 22.8150204,45.4532042 22.6812038,45.3194401 L19.3387313,41.9770728 C19.0624257,41.7007672 19.0624257,41.2511727 19.3386262,40.9749723 C19.4724428,40.8412082 19.6504621,40.7674671 19.8398341,40.7674671 C20.0292062,40.7674671 20.2071203,40.8411031 20.3408844,40.9748671 L22.782013,43.4160483 C22.8882359,43.5221661 23.0321439,43.5818212 23.1823066,43.5818212 C23.3324692,43.5818212 23.4763773,43.5222186 23.582495,43.4160483 L29.6590631,37.3395329 Z" id="Shape" fill="#F56107"></path>
                <g id="server" fill="#9BA5AE">
                    <rect id="Rectangle-path" x="32.2580645" y="11.2903226" width="1.61290323" height="1.61290323"></rect>
                    <rect id="Rectangle-path" x="29.0322581" y="11.2903226" width="1.61290323" height="1.61290323"></rect>
                    <rect id="Rectangle-path" x="16.1290323" y="11.2903226" width="6.4516129" height="1.61290323"></rect>
                    <rect id="Rectangle-path" x="32.2580645" y="17.7419355" width="1.61290323" height="1.61290323"></rect>
                    <rect id="Rectangle-path" x="29.0322581" y="17.7419355" width="1.61290323" height="1.61290323"></rect>
                    <rect id="Rectangle-path" x="16.1290323" y="17.7419355" width="6.4516129" height="1.61290323"></rect>
                    <rect id="Rectangle-path" x="32.2580645" y="24.1935484" width="1.61290323" height="1.61290323"></rect>
                    <rect id="Rectangle-path" x="29.0322581" y="24.1935484" width="1.61290323" height="1.61290323"></rect>
                    <rect id="Rectangle-path" x="16.1290323" y="24.1935484" width="6.4516129" height="1.61290323"></rect>
                    <rect id="Rectangle-path" x="0" y="38.7096774" width="14.516129" height="1.61290323"></rect>
                    <rect id="Rectangle-path" x="0" y="41.9354839" width="14.516129" height="1.61290323"></rect>
                    <rect id="Rectangle-path" x="35.483871" y="41.9354839" width="14.516129" height="1.61290323"></rect>
                    <rect id="Rectangle-path" x="35.483871" y="38.7096774" width="14.516129" height="1.61290323"></rect>
                    <path d="M27.4193548,30.6451613 L27.4193548,29.0322581 L37.0967742,29.0322581 L37.0967742,8.06451613 L12.9032258,8.06451613 L12.9032258,29.0322581 L22.5806452,29.0322581 L22.5806452,30.6451613 L24.1935484,30.6451613 L24.1935484,29.0322581 L25.8064516,29.0322581 L25.8064516,30.6451613 L27.4193548,30.6451613 Z M14.516129,9.67741935 L35.483871,9.67741935 L35.483871,14.516129 L14.516129,14.516129 L14.516129,9.67741935 Z M14.516129,16.1290323 L35.483871,16.1290323 L35.483871,20.9677419 L14.516129,20.9677419 L14.516129,16.1290323 Z M14.516129,27.4193548 L14.516129,22.5806452 L35.483871,22.5806452 L35.483871,27.4193548 L14.516129,27.4193548 Z" id="Shape"></path>
                    <path d="M11.2903226,24.1935484 L11.2903226,22.5806452 C7.28790323,22.5806452 4.03225806,19.3241935 4.03225806,15.3225806 C4.03225806,11.3209677 7.28790323,8.06451613 11.2903226,8.06451613 C11.3854839,8.06451613 11.4790323,8.07177419 11.5733871,8.07822581 L12.2879032,8.12096774 L12.5040323,7.58225806 C13.3677419,5.42580645 15.4241935,4.03225806 17.7419355,4.03225806 C18.5830645,4.03225806 19.4008065,4.21935484 20.1717742,4.58870968 L20.6685484,4.8266129 L21.0709677,4.45 C23.025,2.62096774 25.566129,1.61290323 28.2258065,1.61290323 C32.2475806,1.61290323 35.9645161,3.97016129 37.6935484,7.61774194 L37.9209677,8.09758065 L38.7096774,8.06451613 C42.7120968,8.06451613 45.9677419,11.3209677 45.9677419,15.3225806 C45.9677419,19.3241935 42.7120968,22.5806452 38.7096774,22.5806452 L38.7096774,24.1935484 C43.6008065,24.1935484 47.5806452,20.2137097 47.5806452,15.3225806 C47.5806452,10.4991935 43.7112903,6.56290323 38.9137097,6.45403226 C36.8290323,2.51693548 32.691129,0 28.2258065,0 C25.3330645,0 22.5629032,1.03145161 20.3669355,2.91612903 C19.5258065,2.58629032 18.6451613,2.41935484 17.7419355,2.41935484 C14.9556452,2.41935484 12.4637097,3.98387097 11.2427419,6.4516129 C6.3733871,6.47741935 2.41935484,10.4467742 2.41935484,15.3225806 C2.41935484,20.2137097 6.39919355,24.1935484 11.2903226,24.1935484 Z" id="Shape"></path>
                </g>
            </g>
        </g>
    </g>
</svg>