<?xml version="1.0" encoding="UTF-8"?>
<svg width="50px" height="50px" viewBox="0 0 50 50" version="1.1" xmlns="http://www.w3.org/2000/svg" xmlns:xlink="http://www.w3.org/1999/xlink">
    <!-- Generator: Sketch 46 (44423) - http://www.bohemiancoding.com/sketch -->
    <title>Group 14</title>
    <desc>Created with Sketch.</desc>
    <defs></defs>
    <g id="Page-1" stroke="none" stroke-width="1" fill="none" fill-rule="evenodd">
        <g id="Data-Center_colokeishn" transform="translate(-1016.000000, -2605.000000)" fill-rule="nonzero">
            <g id="Group-14" transform="translate(1016.000000, 2605.000000)">
                <g id="cloud-computing">
                    <path d="M21.5425532,43.1790426 L21.5425532,30.3909574 C21.5425532,29.9502128 21.1854255,29.5930851 20.7446809,29.5930851 L15.4255319,29.5930851 C14.9847872,29.5930851 14.6276596,29.9502128 14.6276596,30.3909574 C14.6276596,30.8317021 14.9847872,31.1888298 15.4255319,31.1888298 L19.9468085,31.1888298 L19.9468085,43.1790426 C18.4239362,43.5403191 17.287234,44.9107447 17.287234,46.5425532 C17.287234,48.4490426 18.8381915,50 20.7446809,50 C22.6511702,50 24.2021277,48.4490426 24.2021277,46.5425532 C24.2021277,44.9107447 23.0654255,43.5403191 21.5425532,43.1790426 L21.5425532,43.1790426 Z M20.7446809,48.4042553 C19.7181915,48.4042553 18.8829787,47.5690426 18.8829787,46.5425532 C18.8829787,45.5160638 19.7181915,44.6808511 20.7446809,44.6808511 C21.7711702,44.6808511 22.606383,45.5160638 22.606383,46.5425532 C22.606383,47.5690426 21.7711702,48.4042553 20.7446809,48.4042553 Z" id="Shape" fill="#9BA5AE"></path>
                    <path d="M30.0531915,43.1790426 L30.0531915,30.3909574 C30.0531915,29.9502128 29.6960638,29.5930851 29.2553191,29.5930851 L23.9362766,29.5930851 C23.4955319,29.5930851 23.1384043,29.9502128 23.1384043,30.3909574 C23.1384043,30.8317021 23.4955319,31.1888298 23.9362766,31.1888298 L28.4574468,31.1888298 L28.4574468,43.1790426 C26.9345745,43.5403191 25.7978723,44.9107447 25.7978723,46.5425532 C25.7978723,48.4490426 27.3488298,50 29.2553191,50 C31.1618085,50 32.712766,48.4490426 32.712766,46.5425532 C32.712766,44.9107447 31.5760638,43.5403191 30.0531915,43.1790426 L30.0531915,43.1790426 Z M29.2553191,48.4042553 C28.2288298,48.4042553 27.393617,47.5690426 27.393617,46.5425532 C27.393617,45.5160638 28.2288298,44.6808511 29.2553191,44.6808511 C30.2818085,44.6808511 31.1170213,45.5160638 31.1170213,46.5425532 C31.1170213,47.5690426 30.2818085,48.4042553 29.2553191,48.4042553 Z" id="Shape" fill="#9BA5AE"></path>
                    <path d="M43.6170213,37.7659574 C41.9852128,37.7659574 40.6147872,38.9026596 40.2535106,40.4255319 L38.5638298,40.4255319 L38.5638298,30.3909574 C38.5638298,29.9502128 38.2067021,29.5930851 37.7659574,29.5930851 L32.4468085,29.5930851 C32.0060638,29.5930851 31.6489362,29.9502128 31.6489362,30.3909574 C31.6489362,30.8317021 32.0060638,31.1888298 32.4468085,31.1888298 L36.9680851,31.1888298 L36.9680851,41.2234043 C36.9680851,41.6641489 37.3252128,42.0212766 37.7659574,42.0212766 L40.2535106,42.0212766 C40.6147872,43.5441489 41.9852128,44.6808511 43.6170213,44.6808511 C45.5235106,44.6808511 47.0744681,43.1298936 47.0744681,41.2234043 C47.0744681,39.3169149 45.5235106,37.7659574 43.6170213,37.7659574 Z M43.6170213,43.0851064 C42.5905319,43.0851064 41.7553191,42.2498936 41.7553191,41.2234043 C41.7553191,40.1969149 42.5905319,39.3617021 43.6170213,39.3617021 C44.6435106,39.3617021 45.4787234,40.1969149 45.4787234,41.2234043 C45.4787234,42.2498936 44.6435106,43.0851064 43.6170213,43.0851064 Z" id="Shape" fill="#9BA5AE"></path>
                    <path d="M48.1001064,17.1869149 C47.0247872,15.8518085 45.5642553,14.8626596 43.9391489,14.3579787 C43.7561702,10.5810638 42.1891489,7.05712766 39.4880851,4.37861702 C36.6406383,1.555 32.8640426,0 28.8538298,0 C23.587766,0 18.7148936,2.74595745 15.9744681,7.21138298 C15.3080851,7.0012766 14.6154255,6.89521277 13.9070213,6.89521277 C10.647766,6.89521277 7.845,9.19585106 7.16914894,12.3319149 C2.98340426,13.417766 0,17.232766 0,21.6064894 C0,26.8902128 4.29851064,31.1888298 9.58223404,31.1888298 L11.4361702,31.1888298 L11.4361702,40.4255319 L9.74648936,40.4255319 C9.38521277,38.9026596 8.01478723,37.7659574 6.38297872,37.7659574 C4.47648936,37.7659574 2.92553191,39.3169149 2.92553191,41.2234043 C2.92553191,43.1298936 4.47648936,44.6808511 6.38297872,44.6808511 C8.01478723,44.6808511 9.38521277,43.5441489 9.74648936,42.0212766 L12.2340426,42.0212766 C12.6747872,42.0212766 13.0319149,41.6641489 13.0319149,41.2234043 L13.0319149,30.3909574 C13.0319149,29.9502128 12.6747872,29.5930851 12.2340426,29.5930851 L9.58223404,29.5930851 C5.17851064,29.5930851 1.59574468,26.0103191 1.59574468,21.6064894 C1.59574468,17.8061702 4.29734043,14.5120213 8.01946809,13.7738298 C8.35510638,13.7073404 8.61106383,13.4341489 8.65542553,13.0947872 C8.99893617,10.4702128 11.2565957,8.49106383 13.9070213,8.49106383 C14.6361702,8.49106383 15.3432979,8.63712766 16.0087234,8.92510638 C16.3859574,9.08840426 16.8252128,8.93840426 17.0239362,8.57893617 C19.4052128,4.27148936 23.9381915,1.59574468 28.8538298,1.59574468 C36.2351064,1.59574468 42.2942553,7.59978723 42.3608511,14.98 C42.3641489,15.3487234 42.6196809,15.6670213 42.9788298,15.7501064 C46.1732979,16.4893617 48.4043617,19.2980851 48.4043617,22.5802128 C48.4043617,26.4471277 45.2585106,29.5930851 41.3915957,29.5930851 L40.9574468,29.5930851 C40.5167021,29.5930851 40.1595745,29.9502128 40.1595745,30.3909574 C40.1595745,30.8317021 40.5167021,31.1888298 40.9574468,31.1888298 L41.3914894,31.1888298 C46.1381915,31.1888298 50,27.3270213 50,22.5802128 C50,20.6232979 49.3252128,18.7078723 48.1001064,17.1869149 Z M6.38297872,43.0851064 C5.35648936,43.0851064 4.5212766,42.2498936 4.5212766,41.2234043 C4.5212766,40.1969149 5.35648936,39.3617021 6.38297872,39.3617021 C7.40946809,39.3617021 8.24468085,40.1969149 8.24468085,41.2234043 C8.24468085,42.2498936 7.40946809,43.0851064 6.38297872,43.0851064 Z" id="Shape" fill="#9BA5AE"></path>
                    <path d="M38.9034043,15.8090426 L38.9107447,15.8090426 C39.351383,15.805 39.7053191,15.4445745 39.701383,15.0039362 C39.6894681,13.6896809 39.441383,12.403617 38.9640426,11.1814894 C38.803617,10.7710638 38.3410638,10.5681915 37.9305319,10.7285106 C37.52,10.8888298 37.317234,11.3514894 37.4775532,11.7620213 C37.8841489,12.8028723 38.0954255,13.8985106 38.1055319,15.0184043 C38.1096809,15.4567021 38.4660638,15.8090426 38.9034043,15.8090426 L38.9034043,15.8090426 Z" id="Shape" fill="#F56107"></path>
                    <path d="M35.9870213,9.2293617 C36.1447872,9.42042553 36.372766,9.51914894 36.6025532,9.51914894 C36.7815957,9.51914894 36.9615957,9.45925532 37.1102128,9.33638298 C37.4498936,9.05574468 37.4978723,8.55287234 37.217234,8.21308511 C35.1395745,5.69787234 32.0911702,4.25531915 28.8539362,4.25531915 C28.4131915,4.25531915 28.0560638,4.61244681 28.0560638,5.05319149 C28.0560638,5.49393617 28.4131915,5.85106383 28.8539362,5.85106383 C31.6135106,5.85106383 34.2134043,7.08234043 35.9870213,9.2293617 L35.9870213,9.2293617 Z" id="Shape" fill="#F56107"></path>
                </g>
            </g>
        </g>
    </g>
</svg>