<svg xmlns="http://www.w3.org/2000/svg" xmlns:xlink="http://www.w3.org/1999/xlink" width="17" height="12" viewBox="0 0 17 12">
    <defs>
        <rect id="oa6w60caya" width="16.8" height="12" x="0" y="0" rx="1.2"/>
    </defs>
    <g fill="none" fill-rule="evenodd">
        <mask id="d6qn3jsokb" fill="#fff">
            <use xlink:href="#oa6w60caya"/>
        </mask>
        <path fill="#EE343C" d="M0 0H16.8V12H0z" mask="url(#d6qn3jsokb)"/>
        <path fill="#262626" d="M7.478 2.678c-.153-.153-.425-.18-.606-.06l-.544.363c-.181.121-.169.299.027.397l.89.444c.196.099.355.364.355.578 0 .22-.186.4-.4.4-.22 0-.56-.08-.755-.178l-.89-.444c-.196-.099-.48-.053-.644.11l-.222.223c-.16.16-.13.369.066.467l.89.444c.196.099.208.276.027.397l-.544.362c-.181.121-.143.256.058.296l1.228.246c.213.042.238.188.062.32l-.952.714C5.345 7.891 5.386 8 5.6 8c.22 0 .571-.043.787-.097l.826-.206c.214-.054.289.05.168.23l-.362.545c-.121.181-.032.328.187.328h.388c.224 0 .462.167.533.38l.146.44c.07.21.183.213.254 0l.146-.44c.07-.21.315-.38.533-.38h.388c.224 0 .308-.147.187-.328l-.362-.544c-.121-.181-.048-.285.168-.231l.826.206c.214.054.573.097.787.097.22 0 .252-.11.076-.243l-.952-.714c-.179-.134-.14-.28.062-.32l1.228-.246c.213-.042.239-.175.058-.296l-.544-.362c-.181-.121-.169-.299.027-.397l.89-.444c.196-.099.23-.303.066-.467l-.222-.222c-.16-.16-.448-.21-.644-.111l-.89.444c-.196.099-.54.178-.755.178-.22 0-.4-.186-.4-.4 0-.22.163-.481.362-.58L10.8 3.2l-.872-.581c-.181-.121-.456-.09-.606.06l-.644.643c-.153.153-.406.15-.556 0l-.644-.644z" mask="url(#d6qn3jsokb)"/>
    </g>
</svg>
