<svg width="162" height="49" viewBox="0 0 162 49" fill="none" xmlns="http://www.w3.org/2000/svg">
<circle cx="7.41176" cy="33.353" r="7.41176" fill="#D84640"/>
<circle cx="37.8526" cy="7.14706" r="7.14706" fill="#5898C9"/>
<ellipse cx="28.3235" cy="34.4118" rx="14.5588" ry="14.2941" fill="#B1D766"/>
<ellipse cx="22.2352" cy="17.2059" rx="17.4706" ry="17.2059" fill="#E39BCA"/>
<path d="M63.08 30.28C64.58 30.28 65.8 29.9 66.74 29.14C67.68 28.38 68.16 27.36 68.16 26.06C68.16 25.26 67.94 24.56 67.64 24.08C67.38 23.6 66.74 23.1 66.32 22.84C66.12 22.7 65.82 22.56 65.44 22.42C65.06 22.26 64.76 22.14 64.54 22.08L63.58 21.76C62.54 21.44 61.84 21.14 61.46 20.88C61.1 20.6 60.92 20.24 60.92 19.8C60.92 18.98 61.62 18.4 62.76 18.4C63.98 18.4 64.88 19 65.44 20.2L67.76 18.86C66.8 16.88 65.02 15.72 62.76 15.72C61.5 15.72 60.4 16.1 59.5 16.86C58.6 17.6 58.16 18.62 58.16 19.88C58.16 21.16 58.62 22.12 59.48 22.76C60.36 23.38 61.12 23.68 62.38 24.06C63.52 24.38 64.3 24.68 64.74 24.96C65.18 25.22 65.4 25.6 65.4 26.1C65.4 26.96 64.7 27.58 63.16 27.58C61.56 27.58 60.48 26.86 59.94 25.44L57.58 26.82C58.36 28.96 60.3 30.28 63.08 30.28ZM83.6453 30L78.7253 16H75.3053L70.4053 30H73.3853L74.2253 27.48H79.8053L80.6453 30H83.6453ZM77.0253 19.18L78.9453 24.9H75.1053L77.0253 19.18ZM95.0047 24.54L89.0047 16H86.9047V30H89.6647V21.44L95.6647 30H97.7647V16H95.0047V24.54ZM108.902 30.28C111.462 30.28 113.722 29 114.922 26.98L112.542 25.6C111.882 26.82 110.502 27.58 108.902 27.58C107.542 27.58 106.442 27.16 105.602 26.3C104.782 25.44 104.362 24.34 104.362 23C104.362 21.64 104.782 20.54 105.602 19.68C106.442 18.82 107.542 18.4 108.902 18.4C110.502 18.4 111.842 19.14 112.542 20.4L114.922 19.02C113.722 17 111.442 15.72 108.902 15.72C106.802 15.72 105.062 16.42 103.682 17.82C102.302 19.2 101.622 20.94 101.622 23C101.622 25.06 102.302 26.78 103.682 28.18C105.062 29.58 106.802 30.28 108.902 30.28ZM117.419 16V18.64H121.179V30H123.939V18.64H127.719V16H117.419ZM136.379 30.28C137.959 30.28 139.239 29.84 140.239 28.96C141.239 28.08 141.739 26.9 141.739 25.42V16H138.979V25.2C138.979 26.66 138.159 27.58 136.379 27.58C134.599 27.58 133.779 26.66 133.779 25.2V16H131.039V25.42C131.039 26.9 131.539 28.08 132.539 28.96C133.539 29.84 134.819 30.28 136.379 30.28ZM156.986 16L152.986 22.62L148.966 16H146.126V30H148.886V20.94L152.826 27.42H153.146L157.086 20.92V30H159.826V16H156.986Z" fill="#484848"/>
</svg>
