<svg width="50" height="58" viewBox="0 0 50 58" fill="none" xmlns="http://www.w3.org/2000/svg">
<path fill-rule="evenodd" clip-rule="evenodd" d="M45.2413 6.3639C46.6269 6.3639 47.9406 6.97403 48.8458 8.03763C49.7488 9.09873 50.1508 10.5017 49.9489 11.8869C49.518 14.8397 48.3888 19.1299 45.4566 22.7995C41.9163 27.2303 36.8088 29.5329 30.2707 29.6503C29.515 31.2679 29.0334 33.4819 28.9655 36.8976H32.6283C34.7442 36.8976 36.5541 38.5008 36.8383 40.6269L38.3592 52.0096C39.8416 52.2333 40.9826 53.5323 40.9826 55.0966V57.1487C40.9826 57.6189 40.6067 58 40.143 58H9.85711C9.39335 58 9.01752 57.6189 9.01752 57.1487V55.0966C9.01752 53.5323 10.1584 52.2333 11.6408 52.0096L13.1618 40.6269C13.446 38.5007 15.2559 36.8974 17.3718 36.8974H21.0346C20.9668 33.4823 20.4853 31.2684 19.7297 29.6509C13.9941 29.5474 9.34173 27.7527 5.8958 24.3119C5.56544 23.982 5.56142 23.4431 5.88675 23.1081C6.21208 22.773 6.74354 22.769 7.07401 23.0989C9.98268 26.0033 13.8754 27.6163 18.661 27.9056C18.1043 27.1919 17.4745 26.5943 16.7996 25.9943C6.75382 24.4379 4.0744 16.1926 3.37335 11.3884C3.31403 10.9834 3.43201 10.5726 3.6969 10.2616C3.96302 9.94868 4.35013 9.7689 4.75859 9.7689H8.28552C8.18966 9.15911 8.11425 8.58784 8.05482 8.0664H4.75859C3.86169 8.0664 3.01126 8.46141 2.4254 9.14982C1.84154 9.83597 1.58157 10.7428 1.71217 11.6379C2.0566 13.9977 2.91105 17.4693 5.02571 20.6075C5.28725 20.9957 5.18905 21.5253 4.80618 21.7906C4.37996 22.0675 3.89286 21.9223 3.63936 21.568C1.34449 18.1622 0.42145 14.4236 0.0512052 11.887C-0.150899 10.5017 0.251075 9.09873 1.15423 8.03752C2.05917 6.97392 3.37302 6.3639 4.75859 6.3639H7.89807C7.88332 6.15037 7.87215 5.95858 7.86344 5.78866H7.80746C6.23353 5.78866 4.95298 4.49023 4.95298 2.89433C4.95298 1.29843 6.23353 0 7.80746 0H42.1924C43.7663 0 45.0468 1.29843 45.0468 2.89433C45.0468 4.49023 43.7662 5.78866 42.1923 5.78866H42.1363C42.1276 5.95858 42.1164 6.15025 42.1017 6.3639H45.2413ZM44.9146 11.4715H41.4092C40.6943 15.0058 39.3041 19.3188 36.6002 22.6706C36.3257 23.0109 36.0492 23.3233 35.772 23.6164C38.3424 22.7201 40.4244 21.1797 41.9832 19.013C43.7876 16.505 44.5731 13.5862 44.9146 11.4715ZM5.08526 11.4715C5.42679 13.5865 6.21231 16.5049 8.01672 19.013C9.57545 21.1798 11.6575 22.7201 14.2278 23.6165C13.9506 23.3233 13.6742 23.011 13.3997 22.6708C10.6957 19.3188 9.30542 15.0058 8.59063 11.4715H5.08526ZM36.6602 51.9753L35.1743 40.8556C35.0022 39.5697 33.9077 38.6002 32.6282 38.6002H17.3719C16.0923 38.6002 14.9976 39.5699 14.8257 40.8557L13.3398 51.9753H20.2998C20.7636 51.9753 21.1394 52.3563 21.1394 52.8266C21.1394 53.2968 20.7636 53.6779 20.2998 53.6779H12.0959C11.3242 53.6779 10.6966 54.3143 10.6966 55.0966V56.2974H39.3035V55.0966C39.3035 54.3143 38.6758 53.6779 37.9042 53.6779H23.658C23.1943 53.6779 22.8185 53.2968 22.8185 52.8266C22.8185 52.3563 23.1943 51.9753 23.658 51.9753H36.6602ZM17.3639 24.2367C20.0287 26.5681 22.5503 28.775 22.7138 36.8976H27.286C27.4494 28.775 29.9711 26.5681 32.6359 24.2367L32.6376 24.2352C33.5251 23.4586 34.443 22.6554 35.3002 21.5927C39.4855 16.4047 40.2954 8.40319 40.4501 5.78855H36.4005C35.9368 5.78855 35.561 5.40747 35.561 4.93724C35.561 4.46701 35.9368 4.08593 36.4005 4.08593H42.1923C42.8404 4.08593 43.3676 3.55136 43.3676 2.8941C43.3676 2.23685 42.8404 1.70227 42.1923 1.70227H7.80746C7.15926 1.70227 6.63204 2.23685 6.63204 2.8941C6.63204 3.55136 7.15937 4.08593 7.80746 4.08593H33.0424C33.5062 4.08593 33.882 4.46701 33.882 4.93724C33.882 5.40747 33.5062 5.78855 33.0424 5.78855H9.54965C9.70438 8.40285 10.5142 16.4046 14.6996 21.5928C15.5571 22.6559 16.4753 23.4593 17.3632 24.2361L17.3639 24.2367ZM44.1517 21.7279C46.8449 18.3573 47.8874 14.3805 48.2877 11.6379C48.4184 10.7428 48.1584 9.83597 47.5745 9.15005C46.9886 8.46141 46.1381 8.06652 45.2413 8.06652H41.9451C41.8856 8.58795 41.8101 9.15922 41.7144 9.76902H45.2412C45.6496 9.76902 46.0367 9.94879 46.3034 10.2624C46.5677 10.5727 46.6856 10.9835 46.6264 11.3888C45.9254 16.1928 43.2459 24.4381 33.2002 25.9944C32.5254 26.5943 31.8958 27.1916 31.3392 27.9052C36.8318 27.5736 41.1374 25.5005 44.1517 21.7279ZM39.3126 8.11177C39.3819 7.56385 38.9939 7.06351 38.4459 6.99423C37.898 6.92495 37.3977 7.31296 37.3284 7.86089C37.057 10.0072 35.9007 15.1308 33.5348 18.5149C33.2184 18.9675 33.3288 19.591 33.7814 19.9074C34.2341 20.2239 34.8575 20.1135 35.174 19.6608C37.8132 15.8856 39.0254 10.3834 39.3126 8.11177Z" fill="#2B3293"/>
</svg>
