<svg width="50" height="59" viewBox="0 0 50 59" fill="none" xmlns="http://www.w3.org/2000/svg">
<path fill-rule="evenodd" clip-rule="evenodd" d="M45.872 0.282959H22.6682C22.0349 0.282959 21.5214 0.796503 21.5214 1.42977C21.5214 2.06305 22.0349 2.57659 22.6682 2.57659H45.872C46.5044 2.57659 47.0189 3.09105 47.0189 3.72341V55.5595C47.0189 56.1918 46.5044 56.7063 45.872 56.7063H4.12795C3.49559 56.7063 2.98113 56.1918 2.98113 55.5595V24.863C2.98113 24.2297 2.46759 23.7162 1.83432 23.7162C1.20104 23.7162 0.6875 24.2297 0.6875 24.863V55.5595C0.6875 57.4566 2.23088 58.9999 4.12795 58.9999H45.872C47.7691 58.9999 49.3125 57.4566 49.3125 55.5595V3.72341C49.3125 1.82634 47.7691 0.282959 45.872 0.282959ZM2.645 19.7708C2.43181 19.5574 2.13593 19.4348 1.83432 19.4348C1.5327 19.4348 1.23694 19.5575 1.02352 19.7708C0.810095 19.9841 0.6875 20.28 0.6875 20.5816C0.6875 20.8832 0.810095 21.1791 1.02352 21.3923C1.23682 21.6057 1.5327 21.7284 1.83432 21.7284C2.13593 21.7284 2.43181 21.6057 2.645 21.3923C2.85842 21.1791 2.98113 20.8832 2.98113 20.5816C2.98113 20.28 2.85842 19.9841 2.645 19.7708ZM22.6692 5.0473C23.4355 4.92986 24.2197 4.87023 25 4.87023C33.4104 4.87023 40.2527 11.7127 40.2527 20.1231C40.2527 28.5335 33.4103 35.3759 24.9999 35.3759C21.3704 35.3759 17.8537 34.0793 15.0978 31.725C12.3729 29.3973 10.5475 26.1789 9.9578 22.6627C9.85309 22.0381 10.2745 21.4468 10.8992 21.3421C11.5233 21.2376 12.1152 21.6589 12.2199 22.2834C12.6159 24.6445 13.6281 26.7611 15.0762 28.4819C15.9181 27.0271 17.0714 25.7727 18.4722 24.8004C19.286 24.2357 20.1602 23.785 21.0753 23.4514C20.0306 22.4304 19.3806 21.0075 19.3806 19.435V18.3169C19.3806 15.2182 21.9014 12.6974 25 12.6974C28.0986 12.6974 30.6194 15.2182 30.6194 18.3169V19.435C30.6194 21.0075 29.9693 22.4304 28.9248 23.4514C29.8399 23.785 30.7141 24.2357 31.5278 24.8004C32.922 25.768 34.0706 27.0154 34.9116 28.4615C36.8121 26.2061 37.9591 23.2962 37.9591 20.123C37.9591 12.9773 32.1457 7.16386 25 7.16386C24.3358 7.16386 23.6686 7.21443 23.0168 7.31444C22.391 7.40985 21.8054 6.98071 21.7094 6.35467C21.6135 5.72862 22.0432 5.1434 22.6692 5.0473ZM25 14.9909C23.1662 14.9909 21.6742 16.4829 21.6742 18.3168V19.4349C21.6742 21.2687 23.1662 22.7607 25 22.7607C26.8338 22.7607 28.3258 21.2687 28.3258 19.4349V18.3168C28.3258 16.4829 26.8338 14.9909 25 14.9909ZM16.778 30.1598C19.0246 31.9979 21.8951 33.0821 25 33.0821C28.1141 33.0821 30.975 31.9776 33.2121 30.1403C31.6687 27.0264 28.5266 25.0543 25 25.0543C21.4661 25.0543 18.318 27.0345 16.778 30.1598ZM35.5917 45.9265H19.3069C18.6736 45.9265 18.1601 46.44 18.1601 47.0733C18.1601 47.7065 18.6736 48.2201 19.3069 48.2201H35.5917C36.2251 48.2201 36.7385 47.7065 36.7385 47.0733C36.7385 46.44 36.225 45.9265 35.5917 45.9265ZM14.408 39.5041C14.7096 39.5041 15.0055 39.6266 15.2188 39.8401C15.4332 40.0534 15.5548 40.3493 15.5548 40.6509C15.5548 40.9525 15.4332 41.2484 15.2188 41.4616C15.0055 41.675 14.7096 41.7977 14.408 41.7977C14.1064 41.7977 13.8105 41.675 13.5972 41.4616C13.384 41.2484 13.2612 40.9535 13.2612 40.6509C13.2612 40.3493 13.3839 40.0534 13.5972 39.8401C13.8105 39.6268 14.1064 39.5041 14.408 39.5041ZM15.2188 46.2623C15.0055 46.0488 14.7108 45.9262 14.408 45.9262C14.1064 45.9262 13.8105 46.049 13.5972 46.2623C13.3839 46.4756 13.2612 46.7715 13.2612 47.0731C13.2612 47.3757 13.384 47.6706 13.5972 47.8837C13.8105 48.0972 14.1064 48.2199 14.408 48.2199C14.7096 48.2199 15.0055 48.0972 15.2188 47.8837C15.4332 47.6706 15.5548 47.3758 15.5548 47.0731C15.5548 46.7715 15.4332 46.4756 15.2188 46.2623ZM19.3069 39.5043H35.5917C36.225 39.5043 36.7385 40.0179 36.7385 40.6511C36.7385 41.2844 36.2251 41.798 35.5917 41.798H19.3069C18.6736 41.798 18.1601 41.2844 18.1601 40.6511C18.1601 40.0179 18.6736 39.5043 19.3069 39.5043ZM14.177 6.89191C13.7289 6.4442 13.003 6.4442 12.555 6.89191L8.82032 10.6266L7.54403 9.35034C7.09597 8.90263 6.37003 8.90263 5.92209 9.35034C5.47425 9.79829 5.47425 10.5245 5.92209 10.9723L8.00929 13.0595C8.23327 13.2833 8.52662 13.3954 8.82021 13.3954C9.11379 13.3954 9.40715 13.2833 9.63124 13.0596L14.177 8.51385C14.6248 8.06591 14.6248 7.33974 14.177 6.89191ZM0.6875 9.68685C0.6875 4.50152 4.90606 0.282959 10.0914 0.282959C15.2767 0.282959 19.4953 4.50152 19.4953 9.68685C19.4953 14.8722 15.2767 19.0907 10.0914 19.0907C4.90606 19.0907 0.6875 14.8722 0.6875 9.68685ZM2.98113 9.68685C2.98113 13.6075 6.17077 16.7971 10.0914 16.7971C14.012 16.7971 17.2017 13.6075 17.2017 9.68685C17.2017 5.76623 14.012 2.57659 10.0914 2.57659C6.17077 2.57659 2.98113 5.76623 2.98113 9.68685Z" fill="#2B3293"/>
</svg>
