<svg width="80" height="60" viewBox="0 0 80 60" fill="none" xmlns="http://www.w3.org/2000/svg">
<path fill-rule="evenodd" clip-rule="evenodd" d="M76.4238 43.7563L71.5839 42.3735C71.375 42.3138 71.2291 42.1205 71.2291 41.9031V40.2876C71.6228 40.0148 71.9984 39.7095 72.3495 39.3687C74.0511 37.7174 74.9881 35.5026 74.9881 33.132V30.9028L75.4561 29.967C75.9697 28.9397 76.2411 27.7896 76.2411 26.6411V20.6021C76.2411 19.9548 75.7164 19.4302 75.0692 19.4302H63.7922C59.6916 19.4302 56.3553 22.7664 56.3553 26.8669V26.9369C56.3553 27.8918 56.5811 28.8483 57.0081 29.7023L57.6083 30.9026V32.8167C57.6083 35.8501 59.1031 38.5719 61.3674 40.2096L61.3677 41.9028C61.3677 42.1638 61.3677 42.272 60.4 42.5486L58.0385 43.2233L51.207 40.7391C51.2316 40.4169 51.1228 40.089 50.8876 39.842L48.7047 37.5486V33.6986C48.9355 33.5084 49.163 33.3131 49.3834 33.1066C52.1373 30.5253 53.7167 26.8809 53.7167 23.1079V20.0332C54.5483 18.2238 54.9697 16.3088 54.9697 14.3368V1.80713C54.9697 1.15991 54.445 0.635254 53.7978 0.635254H36.2558C30.0823 0.635254 25.06 5.65784 25.06 11.8311V14.3372C25.06 16.3092 25.4814 18.224 26.313 20.0336V22.6791C26.313 27.0597 28.2608 31.0062 31.325 33.608V37.5487L29.142 39.8422C28.9069 40.0892 28.7981 40.417 28.8226 40.7394L21.6125 43.3611C21.09 43.551 20.6046 43.8083 20.1638 44.1201L19.0316 43.5541C22.4019 42.087 23.4695 40.0237 23.5208 39.9213C23.6858 39.5914 23.6858 39.2029 23.5208 38.873C22.676 37.1833 22.5736 34.0864 22.4914 31.5979C22.4641 30.7695 22.4381 29.9868 22.3886 29.2899C21.9891 23.6691 17.7159 19.4302 12.4487 19.4302C7.18158 19.4302 2.90826 23.6688 2.50891 29.2899C2.45935 29.9869 2.43341 30.7697 2.40607 31.5983C2.32391 34.0865 2.22144 37.1832 1.37671 38.8729C1.21173 39.2028 1.21173 39.5912 1.37671 39.921C1.42798 40.0236 2.49341 42.0826 5.87048 43.5514L2.72565 45.1237C1.04437 45.965 0 47.6548 0 49.5343V58.192C0 58.8392 0.524658 59.3639 1.17188 59.3639C1.81909 59.3639 2.34375 58.8392 2.34375 58.192V49.5343C2.34375 48.5481 2.89172 47.6614 3.77374 47.2202L7.68982 45.2623L9.052 46.5569C10.0045 47.462 11.2264 47.9143 12.4487 47.9143C13.6708 47.9143 14.8933 47.4617 15.8455 46.5569L17.2075 45.2625L18.4844 45.9009C17.8831 46.8629 17.5419 47.9911 17.5419 49.1727V58.1923C17.5419 58.8395 18.0666 59.3641 18.7137 59.3641C19.361 59.3641 19.8856 58.8395 19.8856 58.1923V49.1727C19.8856 47.564 20.9014 46.1138 22.4135 45.5638L30.0153 42.7997L33.1799 47.5466C33.5844 48.1536 34.2327 48.5427 34.9584 48.6146C35.0394 48.6227 35.1199 48.6265 35.2001 48.6265C35.8405 48.6265 36.4537 48.3745 36.9122 47.9163L38.8428 45.9856V58.1925C38.8428 58.8396 39.3675 59.3644 40.0147 59.3644C40.6619 59.3644 41.1866 58.8396 41.1866 58.1925V45.9856L43.1172 47.9163C43.5755 48.3746 44.1888 48.6267 44.8292 48.6267L44.8657 48.6265L44.8928 48.6259L44.9153 48.6252C44.9352 48.6245 44.9551 48.6235 44.975 48.6223C45.0069 48.6205 45.0388 48.618 45.0708 48.6149C45.7967 48.543 46.445 48.1537 46.8495 47.5469L50.0142 42.7999L57.616 45.5642C59.1278 46.114 60.1437 47.5643 60.1437 49.1731V58.1926C60.1437 58.8398 60.6685 59.3645 61.3156 59.3645C61.9628 59.3645 62.4875 58.8398 62.4875 58.1926V49.1731C62.4875 47.5437 61.8401 46.0156 60.7542 44.8854L61.0438 44.8027C61.3358 44.7194 61.7342 44.6051 62.1342 44.4091L65.1263 47.401V58.1926C65.1263 58.8398 65.6509 59.3645 66.2982 59.3645C66.9453 59.3645 67.47 58.8398 67.47 58.1926V47.401L70.4412 44.4298C70.5992 44.5101 70.7651 44.5779 70.9398 44.6278L75.7798 46.0106C76.8845 46.3262 77.6562 47.3492 77.6562 48.4983V58.1926C77.6562 58.8398 78.1809 59.3645 78.8281 59.3645C79.4753 59.3645 80 58.8398 80 58.1926V48.4983C80 46.308 78.5294 44.358 76.4238 43.7563ZM7.51794 41.6865C5.32593 40.8978 4.22638 39.8462 3.75702 39.272C4.07703 38.4354 4.28455 37.4773 4.42499 36.4659C5.07123 38.0154 6.15356 39.3383 7.51794 40.282V41.6865ZM14.2313 44.858C13.2317 45.8077 11.666 45.8076 10.6667 44.8579L9.5769 43.8223C9.7608 43.4778 9.86188 43.0872 9.86188 42.678V41.4288C10.6794 41.6843 11.5485 41.8221 12.449 41.8221C13.3486 41.8221 14.2172 41.6837 15.0361 41.4297L15.0359 42.6777C15.0359 43.0872 15.1369 43.4779 15.3209 43.8226L14.2313 44.858ZM12.4494 39.4784C8.95001 39.4784 6.10327 36.6315 6.10327 33.1323C6.10327 32.4851 5.57861 31.9604 4.9314 31.9604C4.86578 31.9604 4.8017 31.9672 4.73907 31.9777L4.74921 31.676C4.77533 30.8702 4.80048 30.1091 4.84686 29.4564C4.99658 27.3507 5.83795 25.4104 7.21606 23.9927C8.60657 22.562 10.465 21.7742 12.449 21.7742C14.4331 21.7742 16.2914 22.562 17.682 23.9927C19.0602 25.4104 19.9016 27.3507 20.0513 29.4564C20.0975 30.109 20.1228 30.87 20.1494 31.6755L20.1564 31.8846C18.8814 29.9203 16.9124 28.4727 14.3681 27.6552C12.0176 26.9 9.99609 26.9467 9.91077 26.9489C9.60388 26.9575 9.31268 27.0859 9.09967 27.3069L6.98529 29.4996C6.53607 29.9656 6.54956 30.7075 7.01544 31.1567C7.48138 31.606 8.22327 31.5923 8.67249 31.1265L10.4319 29.302C11.947 29.3761 16.8215 29.9429 18.7173 34.1174C18.2403 37.1937 15.5963 39.4784 12.4494 39.4784ZM17.3795 41.6904L17.3797 40.2927C18.743 39.3541 19.8269 38.0338 20.4736 36.4727C20.6141 37.4817 20.8214 38.4376 21.1408 39.2723C20.6741 39.8411 19.5694 40.902 17.3795 41.6904ZM28.6567 22.6788V19.7714C28.6567 19.595 28.6169 19.4208 28.5402 19.2618C27.7861 17.7003 27.4037 16.0435 27.4037 14.3372V11.8312C27.4037 6.95007 31.3748 2.97913 36.2558 2.97913H52.6259V14.3373C52.6259 16.0436 52.2436 17.7004 51.4895 19.262C51.4128 19.4209 51.373 19.5951 51.373 19.7715V23.1083C51.373 26.2819 50.0972 29.2255 47.7806 31.3969C47.4914 31.6677 47.1912 31.9219 46.8809 32.1586C46.877 32.1613 46.8731 32.1642 46.8692 32.1671L46.8608 32.1732C44.6906 33.8209 42.0325 34.6217 39.2566 34.4419C33.3127 34.057 28.6567 28.8901 28.6567 22.6788ZM35.255 46.2587C35.2523 46.2615 35.2482 46.2655 35.2426 46.2695C35.2318 46.2772 35.2149 46.2847 35.1897 46.282C35.1516 46.2782 35.1365 46.2559 35.1301 46.2462L31.4856 40.7793L32.6584 39.547L38.1873 43.3262L35.255 46.2587ZM40.0148 41.7363L33.6688 37.3986V35.2111C35.3108 36.0988 37.1494 36.6538 39.1049 36.7804C39.2629 36.7906 39.4205 36.7982 39.5776 36.8032C39.6245 36.8047 39.6713 36.806 39.7181 36.807C39.8212 36.8092 39.9241 36.8103 40.0269 36.8103C42.2676 36.8103 44.4242 36.2747 46.361 35.2579V37.3986L40.0148 41.7363ZM44.8995 46.2466C44.8931 46.2562 44.8781 46.2786 44.84 46.2823C44.837 46.2827 44.8341 46.283 44.8314 46.283C44.8293 46.2831 44.8273 46.283 44.8254 46.2828L44.822 46.2827C44.815 46.2821 44.8089 46.2806 44.8035 46.2787C44.7886 46.2732 44.7797 46.2639 44.7747 46.259L41.8423 43.3267L47.3713 39.5474L48.5443 40.7797L44.8995 46.2466ZM66.2982 45.2578L63.6387 42.5985C63.6852 42.3878 63.7114 42.157 63.7112 41.9025L63.7111 41.408C64.449 41.6501 65.2269 41.7938 66.0317 41.818C66.122 41.8208 66.2115 41.822 66.3016 41.822C67.1909 41.822 68.0591 41.6876 68.8853 41.4313V41.9031C68.8853 42.1368 68.9147 42.3658 68.97 42.5861L66.2982 45.2578ZM70.7173 37.6869C69.4753 38.8922 67.8345 39.5287 66.1022 39.4752C62.7109 39.3735 59.952 36.3865 59.952 32.817V30.6262C59.952 30.4442 59.9097 30.2648 59.8283 30.1022L59.1044 28.6543C58.8392 28.1239 58.699 27.5302 58.699 26.937V26.8672C58.699 24.0587 60.9839 21.774 63.7922 21.774H73.8973V26.6412C73.8973 27.4277 73.7114 28.2155 73.3597 28.9191L72.7681 30.1022C72.6867 30.265 72.6443 30.4442 72.6443 30.6262V33.1322C72.6443 34.8634 71.96 36.481 70.7173 37.6869ZM70.5813 27.0719C67.8591 25.7109 62.7552 25.6952 62.5392 25.6952C61.8921 25.6952 61.3674 26.2198 61.3674 26.8671C61.3674 27.5143 61.8921 28.0389 62.5392 28.0389C63.8563 28.0391 67.6802 28.2419 69.5331 29.1683C69.7014 29.2526 69.8802 29.2922 70.0563 29.2922C70.4861 29.2922 70.9 29.0547 71.1053 28.6443C71.3949 28.0653 71.1602 27.3615 70.5813 27.0719ZM72.6442 50.6741C72.6442 50.0269 73.1689 49.5022 73.8161 49.5022C74.4633 49.5022 74.988 50.027 74.988 50.6741V58.192C74.988 58.8392 74.4633 59.3639 73.8161 59.3639C73.1689 59.3639 72.6442 58.8392 72.6442 58.192V50.6741ZM6.1839 51.0513C5.53674 51.0513 5.01202 51.5759 5.01202 52.2231V58.192C5.01202 58.8392 5.53674 59.3639 6.1839 59.3639C6.83112 59.3639 7.35577 58.8392 7.35577 58.192V52.2231C7.35577 51.576 6.83112 51.0513 6.1839 51.0513ZM32.1273 11.7468C35.9089 11.1769 45.1822 10.3296 49.6144 14.7617C50.072 15.2192 50.072 15.9613 49.6144 16.4189C49.1569 16.8766 48.4149 16.8766 47.9572 16.4189C46.3914 14.8529 43.7445 13.9357 40.0901 13.6924C36.9847 13.4854 33.9874 13.8365 32.4769 14.0642C32.4419 14.0696 32.4156 14.1036 32.4156 14.1434V16.8433C32.4156 17.4905 31.8909 18.0151 31.2438 18.0151C30.5966 18.0151 30.0719 17.4905 30.0719 16.8433V14.1436C30.0719 12.9343 30.9363 11.9264 32.1273 11.7468ZM26.2319 52.0083C25.5847 52.0083 25.06 52.533 25.06 53.1802V58.1921C25.06 58.8394 25.5847 59.364 26.2319 59.364C26.879 59.364 27.4037 58.8394 27.4037 58.1921V53.1802C27.4037 52.5331 26.879 52.0083 26.2319 52.0083ZM52.6259 53.1802C52.6259 52.533 53.1506 52.0083 53.7978 52.0083C54.445 52.0083 54.9697 52.5331 54.9697 53.1802V58.1921C54.9697 58.8394 54.445 59.364 53.7978 59.364C53.1506 59.364 52.6259 58.8394 52.6259 58.1921V53.1802Z" fill="#2B3293"/>
</svg>
