<svg width="104" height="21" viewBox="0 0 104 21" fill="none" xmlns="http://www.w3.org/2000/svg">
<rect width="44" height="21" fill="#FF5616"/>
<path d="M8.472 17.252C7.224 17.252 6.174 16.976 5.322 16.424C4.47 15.86 3.87 15.098 3.522 14.138L5.646 12.896C6.138 14.18 7.104 14.822 8.544 14.822C9.24 14.822 9.75 14.696 10.074 14.444C10.398 14.192 10.56 13.874 10.56 13.49C10.56 13.046 10.362 12.704 9.966 12.464C9.57 12.212 8.862 11.942 7.842 11.654C7.278 11.486 6.798 11.318 6.402 11.15C6.018 10.982 5.628 10.76 5.232 10.484C4.848 10.196 4.554 9.836 4.35 9.404C4.146 8.972 4.044 8.468 4.044 7.892C4.044 6.752 4.446 5.846 5.25 5.174C6.066 4.49 7.044 4.148 8.184 4.148C9.204 4.148 10.098 4.4 10.866 4.904C11.646 5.396 12.252 6.086 12.684 6.974L10.596 8.18C10.092 7.1 9.288 6.56 8.184 6.56C7.668 6.56 7.26 6.68 6.96 6.92C6.672 7.148 6.528 7.448 6.528 7.82C6.528 8.216 6.69 8.54 7.014 8.792C7.35 9.032 7.986 9.296 8.922 9.584C9.306 9.704 9.594 9.8 9.786 9.872C9.99 9.932 10.26 10.034 10.596 10.178C10.944 10.31 11.208 10.436 11.388 10.556C11.58 10.676 11.796 10.838 12.036 11.042C12.276 11.246 12.456 11.456 12.576 11.672C12.708 11.888 12.816 12.152 12.9 12.464C12.996 12.764 13.044 13.094 13.044 13.454C13.044 14.618 12.618 15.542 11.766 16.226C10.926 16.91 9.828 17.252 8.472 17.252ZM17.0603 14.624H22.3703V17H14.5763V4.4H22.2803V6.776H17.0603V9.458H21.8303V11.798H17.0603V14.624ZM26.6052 14.624H31.4112V17H24.1212V4.4H26.6052V14.624ZM40.3463 6.776H35.3063V9.764H40.2023V12.14H35.3063V17H32.8223V4.4H40.3463V6.776Z" fill="white"/>
<path d="M46.6563 4.4H49.1403V17H46.6563V4.4ZM58.7627 4.4H61.2467V17H59.3567L53.9567 9.296V17H51.4727V4.4H53.3627L58.7627 12.086V4.4ZM66.6981 17L62.4681 4.4H65.1681L68.2461 14.084L71.3061 4.4H74.0241L69.7761 17H66.6981ZM77.7224 14.624H83.0324V17H75.2384V4.4H82.9424V6.776H77.7224V9.458H82.4924V11.798H77.7224V14.624ZM89.0853 17.252C87.8373 17.252 86.7873 16.976 85.9353 16.424C85.0833 15.86 84.4833 15.098 84.1353 14.138L86.2593 12.896C86.7513 14.18 87.7173 14.822 89.1573 14.822C89.8533 14.822 90.3633 14.696 90.6873 14.444C91.0113 14.192 91.1733 13.874 91.1733 13.49C91.1733 13.046 90.9753 12.704 90.5793 12.464C90.1833 12.212 89.4753 11.942 88.4553 11.654C87.8913 11.486 87.4113 11.318 87.0153 11.15C86.6313 10.982 86.2413 10.76 85.8453 10.484C85.4613 10.196 85.1673 9.836 84.9633 9.404C84.7593 8.972 84.6573 8.468 84.6573 7.892C84.6573 6.752 85.0593 5.846 85.8633 5.174C86.6793 4.49 87.6573 4.148 88.7973 4.148C89.8173 4.148 90.7113 4.4 91.4793 4.904C92.2593 5.396 92.8653 6.086 93.2973 6.974L91.2093 8.18C90.7053 7.1 89.9013 6.56 88.7973 6.56C88.2813 6.56 87.8733 6.68 87.5733 6.92C87.2853 7.148 87.1413 7.448 87.1413 7.82C87.1413 8.216 87.3033 8.54 87.6273 8.792C87.9633 9.032 88.5993 9.296 89.5353 9.584C89.9193 9.704 90.2073 9.8 90.3993 9.872C90.6033 9.932 90.8733 10.034 91.2093 10.178C91.5573 10.31 91.8213 10.436 92.0013 10.556C92.1933 10.676 92.4093 10.838 92.6493 11.042C92.8893 11.246 93.0693 11.456 93.1893 11.672C93.3213 11.888 93.4293 12.152 93.5133 12.464C93.6093 12.764 93.6573 13.094 93.6573 13.454C93.6573 14.618 93.2313 15.542 92.3793 16.226C91.5393 16.91 90.4413 17.252 89.0853 17.252ZM103.154 4.4V6.776H99.7524V17H97.2684V6.776H93.8844V4.4H103.154Z" fill="#2B3293"/>
</svg>
