<svg width="79" height="118" viewBox="0 0 79 118" fill="none" xmlns="http://www.w3.org/2000/svg">
<path d="M77.2827 95.6083C76.3345 95.6083 75.5658 96.3823 75.5658 97.3369V113.588C75.5658 114.114 75.1405 114.543 74.6179 114.543H65.3888V80.503C65.3888 79.5484 64.6201 78.7744 63.672 78.7744C62.7238 78.7744 61.9551 79.5484 61.9551 80.503V114.543H43.3708L48.7601 108.574C49.3489 107.921 49.6265 106.992 49.5027 106.088C49.5004 106.07 49.4977 106.053 49.4947 106.035L44.3618 75.5055L45.7446 73.4096C46.5092 73.9563 47.0982 74.4827 48.2027 74.4827C49.3262 74.4827 50.3767 73.8496 50.8936 72.8074V72.8072L56.3074 61.8829L68.6403 66.6917C69.0865 66.8843 75.5654 69.8219 75.5654 77.5785V89.2702C75.5652 90.2246 76.3338 90.9987 77.2822 90.9987C78.2304 90.9987 78.9991 90.2248 78.9991 89.2702V77.5785C78.9991 67.3586 70.3075 63.6437 69.9376 63.4905C69.9268 63.4858 69.9158 63.4815 69.9048 63.4773L49.3786 55.4741V50.6273C52.6388 48.0746 54.8993 44.2906 55.4668 39.9734C57.0923 39.8582 58.6006 39.247 59.8324 38.1806C61.441 36.7879 62.364 34.7609 62.364 32.6203C62.364 30.8439 61.7274 29.1476 60.5929 27.8259V21.4228C60.5926 9.61032 51.0474 0 39.3147 0C27.582 0 18.0368 9.61032 18.0368 21.4228V27.9937C16.8901 29.302 16.2666 30.9125 16.2666 32.6201C16.2666 34.7614 17.1891 36.7881 18.7981 38.1811C20.029 39.247 21.5364 39.8575 23.1614 39.973C23.7335 44.371 26.0599 48.2961 29.5978 50.8831V55.4741L9.0938 63.4771C9.08305 63.4812 9.07229 63.4856 9.06153 63.49C8.69137 63.6433 0 67.3582 0 77.5781V113.588C0 116.02 1.96568 117.999 4.38186 117.999H20.7393C21.6875 117.999 22.4562 117.225 22.4562 116.271C22.4562 115.316 21.6875 114.542 20.7393 114.542H17.0453V80.503C17.0453 79.5484 16.2766 78.7744 15.3285 78.7744C14.3803 78.7744 13.6116 79.5484 13.6116 80.503V114.543H4.38208C3.85948 114.543 3.43416 114.115 3.43416 113.588V77.5783C3.43416 69.7956 9.95658 66.8647 10.3572 66.6924L22.6805 61.8825L28.0947 72.8072C28.6128 73.8519 29.6646 74.4827 30.7858 74.4827C31.8849 74.4827 32.4681 73.9643 33.2439 73.4096L34.6268 75.5055L29.4943 106.035C29.4913 106.052 29.4888 106.07 29.4863 106.087C29.3622 106.992 29.6399 107.921 30.2289 108.574L35.6182 114.543H28.752C27.8038 114.543 27.0351 115.317 27.0351 116.271C27.0351 117.226 27.8038 118 28.752 118H74.6181C77.0343 118 79 116.021 79 113.588V97.3371C78.9995 96.3823 78.2309 95.6083 77.2827 95.6083ZM53.0914 60.6292L48.0441 70.8136C47.9186 70.7239 45.2438 68.8106 41.974 66.4729C43.3928 64.7096 41.7329 66.7723 48.2084 58.7253L53.0914 60.6292ZM42.9432 71.4068L41.6343 73.3905H37.3529L36.044 71.4068L39.4937 68.9401L42.9432 71.4068ZM33.0313 56.0318V52.7969C35.1171 53.6434 37.3463 54.0359 39.5232 54.0359C41.7741 54.0359 43.9815 53.5529 45.9447 52.6886V56.0459L39.4937 64.0627L33.0313 56.0318ZM58.93 32.6203C58.9298 33.7526 58.4427 34.8241 57.5934 35.5595C57.0319 36.0458 56.3536 36.3567 55.6108 36.4784V28.763C57.584 29.0856 58.93 30.7335 58.93 32.6203ZM23.0195 36.4784C21.0238 36.1523 19.7003 34.491 19.7003 32.6201C19.7003 30.7722 21.2219 29.2681 23.0195 28.8498V36.4784ZM23.1118 25.3276C22.5649 25.3907 21.9381 25.5399 21.4709 25.6998V21.4228C21.4709 11.5165 29.4755 3.45726 39.3149 3.45726C49.1543 3.45726 57.1589 11.5165 57.1589 21.4228V25.5811C56.6599 25.4283 56.1423 25.3274 55.611 25.2799C55.611 23.612 55.6254 23.9337 50.2059 18.0676C49.2092 16.9895 47.5606 16.7636 46.3059 17.5889C40.3244 21.5228 33.0278 23.4991 26.2955 23.0123C24.8188 22.901 23.4737 23.8803 23.1118 25.3276ZM26.4534 37.8393V27.0552V26.4871C33.8645 26.9241 41.6345 24.7074 47.9115 20.6601C50.3971 23.3469 51.7431 24.7563 52.1771 25.2923C52.1771 26.6484 52.1771 36.2868 52.1771 37.8391C52.1771 44.8561 46.4941 50.5784 39.5235 50.5784C31.696 50.5787 26.4534 44.4653 26.4534 37.8393ZM30.9436 70.8136L25.8963 60.6292L30.7705 58.7285L37.0063 66.478C33.8352 68.7451 31.2313 70.6078 30.9436 70.8136ZM32.9134 106.408L37.8828 76.8473H41.1039L46.0734 106.408L39.4935 113.696L32.9134 106.408Z" fill="#2B3293"/>
</svg>
