<svg width="80" height="80" viewBox="0 0 80 80" fill="none" xmlns="http://www.w3.org/2000/svg">
<path fill-rule="evenodd" clip-rule="evenodd" d="M58.6567 62.6667C58.6567 61.9303 59.2536 61.3333 59.9898 61.3333C60.726 61.3333 61.3229 61.9303 61.3229 62.6667V76C61.3229 78.2096 59.5322 80 57.3236 80H3.99932C1.79071 80 0 78.2096 0 76V4C0 1.79102 1.79071 0 3.99932 0H57.3236C59.5322 0 61.3229 1.79102 61.3229 4V29.0404C61.3229 29.7767 60.726 30.3737 59.9898 30.3737C59.2536 30.3737 58.6567 29.7767 58.6567 29.0404V4C58.6567 3.26367 58.0598 2.66667 57.3236 2.66667H3.99932C3.26312 2.66667 2.66621 3.26367 2.66621 4V76C2.66621 76.737 3.26312 77.3333 3.99932 77.3333H57.3236C58.0598 77.3333 58.6567 76.737 58.6567 76V62.6667ZM47.9919 10.6667C48.7281 10.6667 49.325 10.0703 49.325 9.33333C49.325 8.59701 48.7281 8 47.9919 8H13.3311C12.5949 8 11.998 8.59701 11.998 9.33333V14.6667C11.998 15.4036 12.5949 16 13.3311 16H47.9919C48.7281 16 49.325 15.4036 49.325 14.6667C49.325 13.9303 48.7281 13.3333 47.9919 13.3333H14.6642V10.6667H47.9919ZM79.8529 18.9603C79.5775 17.9362 78.9058 17.0632 77.9867 16.5339C77.0669 16.002 75.9733 15.8581 74.9475 16.1335C73.9229 16.4095 73.05 17.0807 72.5208 18L71.8543 19.1602C71.2209 18.7962 70.4118 19.0104 70.0414 19.6406L66.6553 25.4134L65.4953 24.7467C65.1881 24.569 64.8223 24.5208 64.4799 24.6133C64.1368 24.7064 63.8452 24.9316 63.6688 25.2402C63.3075 25.8776 63.5275 26.6875 64.1622 27.0534L65.3222 27.7201L53.9908 47.36L51.1911 54.8405L49.858 57.3333C49.0775 58.6914 49.1609 60.3796 50.0715 61.6536L47.072 65.3333L46.2323 63.2272C45.8535 62.2884 44.9767 61.6452 43.9684 61.5664C42.9594 61.487 41.9928 61.9857 41.4727 62.8535L40.993 63.6667L40.5399 58.3333C40.4358 57.0716 39.4587 56.0573 38.2024 55.905C36.9455 55.7533 35.7556 56.5065 35.354 57.707L32.0746 67.5469C31.8454 68.2428 32.2204 68.9928 32.9143 69.2272C33.0445 69.2878 33.1844 69.3242 33.3276 69.3333C33.9004 69.3353 34.4108 68.9701 34.5943 68.4271L37.8601 58.5872L38.3268 64C38.4231 65.155 39.253 66.1152 40.3818 66.377C41.5105 66.6387 42.6782 66.1413 43.2725 65.1471L43.7659 64.3333L44.5926 66.4271C44.9435 67.3092 45.737 67.9388 46.6763 68.0788C47.6155 68.2188 48.5581 67.8483 49.1517 67.1068L52.258 63.1738C52.6017 63.2637 52.9558 63.3086 53.3112 63.3073C54.74 63.3184 56.0666 62.5658 56.7904 61.3333L58.1235 59.1068L63.2027 52.9336L74.6539 33.0534L75.8139 33.7201C76.1231 33.8971 76.3483 34.1895 76.4401 34.5339C76.5325 34.8757 76.4843 35.2402 76.3073 35.5469L70.9748 44.7871C70.7737 45.0905 70.7054 45.4629 70.7861 45.8184C70.8668 46.1732 71.0888 46.4798 71.4012 46.6667C71.7084 46.8451 72.0743 46.8932 72.4167 46.8008C72.7597 46.7077 73.0513 46.4824 73.2277 46.1738L78.5601 36.9336C79.0919 36.0137 79.2358 34.9199 78.9598 33.8939C78.6838 32.8691 78.0127 31.9961 77.0936 31.4668L75.9336 30.8001L79.2664 25.0267C79.6303 24.3932 79.4161 23.5846 78.7867 23.2135L79.4532 22.0534C79.9993 21.1191 80.1439 20.0033 79.8529 18.9603ZM74.827 19.3333C75.0035 19.0247 75.2964 18.7988 75.6407 18.707C75.9831 18.6224 76.345 18.6699 76.6536 18.8405C76.9628 19.0169 77.188 19.3099 77.2804 19.6536C77.365 19.9961 77.3175 20.3581 77.147 20.6667L76.4804 21.8268L74.1605 20.4935L74.827 19.3333ZM56.657 56.5606L55.9904 56.1738L54.0175 55.0267L55.9104 49.9603L60.1095 52.3867L56.657 56.5606ZM52.6577 60.4134C52.0946 60.0208 51.9215 59.2656 52.258 58.6667L52.9245 57.5072L55.2438 58.8405L54.5773 59.987C54.3904 60.3112 54.0767 60.5417 53.7115 60.6231C53.3463 60.7038 52.9642 60.6283 52.6577 60.4134ZM61.6294 50.2005L57.0169 47.5339L67.6818 29.0534L72.2943 31.7201L61.6294 50.2005ZM73.6274 29.4134L69.0149 26.7467L71.6811 22.1335L76.2936 24.8001L73.6274 29.4134ZM21.0361 59.7467L16.3175 64.4538L13.4912 61.627C12.9711 61.11 12.1314 61.11 11.6113 61.627C11.3588 61.8776 11.2169 62.2181 11.2169 62.5736C11.2169 62.929 11.3588 63.2702 11.6113 63.5202L14.4377 66.347C14.9376 66.8431 15.6132 67.1211 16.3175 67.1205C17.0258 67.1244 17.7073 66.8464 18.2105 66.347L22.916 61.627C23.3691 61.0977 23.3385 60.3092 22.8464 59.8171C22.3536 59.3242 21.5653 59.2936 21.0361 59.7467ZM16.6638 74.6667C10.4058 74.6667 5.33241 69.5931 5.33241 63.3333C5.33241 59.041 7.75712 55.1165 11.5963 53.1966C15.4349 51.2773 20.0291 51.6914 23.4628 54.2669C24.0519 54.709 24.171 55.5443 23.729 56.1335C23.2877 56.7227 22.4519 56.8424 21.8628 56.4004C20.3657 55.2702 18.5398 54.6615 16.6638 54.6667C11.8782 54.6667 7.99862 58.5469 7.99862 63.3333C7.99862 68.1198 11.8782 72 16.6638 72C21.4495 72 25.329 68.1198 25.329 63.3333C25.329 62.597 25.9259 62 26.6621 62C27.3983 62 27.9952 62.597 27.9952 63.3333C27.9952 69.5931 22.9219 74.6667 16.6638 74.6667ZM15.9973 20C15.9973 19.2637 16.5942 18.6667 17.3304 18.6667H43.9925C44.7287 18.6667 45.3256 19.2637 45.3256 20C45.3256 20.737 44.7287 21.3333 43.9925 21.3333H17.3304C16.5942 21.3333 15.9973 20.737 15.9973 20ZM51.9912 28H22.6628C21.9266 28 21.3297 28.597 21.3297 29.3333C21.3297 30.0703 21.9266 30.6667 22.6628 30.6667H51.9912C52.7274 30.6667 53.3243 30.0703 53.3243 29.3333C53.3243 28.597 52.7274 28 51.9912 28ZM37.3269 36C38.0631 36 38.66 36.597 38.66 37.3333C38.66 38.0703 38.0631 38.6667 37.3269 38.6667H10.6648C9.92862 38.6667 9.33171 38.0703 9.33171 37.3333C9.33171 36.597 9.92862 36 10.6648 36H37.3269ZM51.9911 36H42.6594C41.9232 36 41.3262 36.597 41.3262 37.3333C41.3262 38.0703 41.9232 38.6667 42.6594 38.6667H51.9911C52.7273 38.6667 53.3242 38.0703 53.3242 37.3333C53.3242 36.597 52.7273 36 51.9911 36ZM25.329 44C25.329 44.737 24.7321 45.3333 23.9959 45.3333H10.6648C9.92862 45.3333 9.33171 44.737 9.33171 44C9.33171 43.2637 9.92862 42.6667 10.6648 42.6667H23.9959C24.7321 42.6667 25.329 43.2637 25.329 44ZM29.3283 45.3333H38.6601C39.3963 45.3333 39.9932 44.737 39.9932 44C39.9932 43.2637 39.3963 42.6667 38.6601 42.6667H29.3283C28.5921 42.6667 27.9952 43.2637 27.9952 44C27.9952 44.737 28.5921 45.3333 29.3283 45.3333Z" fill="#2F3695"/>
</svg>
