<svg width="81" height="81" viewBox="0 0 81 81" fill="none" xmlns="http://www.w3.org/2000/svg">
<path fill-rule="evenodd" clip-rule="evenodd" d="M51.3203 60.3549C59.2481 60.3549 66.7015 57.2675 72.3073 51.6616C77.9131 46.0556 81.0005 38.602 81.0005 30.6741C81.0005 22.7461 77.9131 15.2925 72.3073 9.68657C67.5207 4.90039 61.1848 1.87218 54.4669 1.15984C47.8466 0.457877 41.1183 2.01441 35.518 5.54315C34.788 6.00278 34.5688 6.96783 35.0284 7.69787C35.4887 8.42792 36.4537 8.64766 37.1837 8.18742C47.7331 1.54073 61.2672 3.06613 70.0971 11.8968C75.1127 16.9125 77.8753 23.5812 77.8753 30.6741C77.8753 37.7676 75.1127 44.4362 70.0971 49.4519C65.0822 54.4676 58.4137 57.2297 51.3203 57.2297C44.227 57.2297 37.5585 54.4676 32.5436 49.4519C23.7131 40.6218 22.1877 27.0867 28.8336 16.5377C29.2938 15.8071 29.0747 14.8426 28.3447 14.3824C27.6141 13.9222 26.6496 14.1413 26.1894 14.8713C22.6614 20.4718 21.1049 27.2015 21.8068 33.8207C22.2341 37.8542 23.4976 41.7492 25.474 45.2542L19.1077 51.6207L3.32912 67.4008C1.82451 68.9055 0.995605 70.9058 0.995605 73.0336C0.995605 75.1615 1.82451 77.1624 3.32912 78.667C4.83373 80.1717 6.83397 81 8.9624 81C11.0902 81 13.0905 80.1717 14.5951 78.667L30.3742 62.8875C30.3742 62.8875 30.3742 62.8873 30.3744 62.8871C30.3744 62.887 30.3746 62.8869 30.3748 62.8869L36.7272 56.5344C41.1299 59.0279 46.1229 60.3549 51.3203 60.3549ZM12.3855 76.4568C11.4705 77.3711 10.2552 77.8747 8.96179 77.8747C7.66899 77.8747 6.45309 77.3711 5.53873 76.4568C3.65141 74.5694 3.65141 71.4978 5.53873 69.6105L20.2131 54.9358L27.0592 61.7827L12.3855 76.4568ZM29.2694 59.5724L22.4227 52.7261L27.1941 47.9546C28.1341 49.2688 29.1821 50.5103 30.3333 51.6616C31.4919 52.8201 32.7303 53.8688 34.0341 54.8076L29.2694 59.5724ZM36.1571 46.3963C36.237 46.494 36.3298 46.5807 36.4317 46.657C40.3968 50.3572 45.7139 52.6249 51.5523 52.6249C57.3156 52.6249 62.5723 50.4152 66.5209 46.7986C66.7388 46.6734 66.9226 46.4976 67.0574 46.2889C71.1745 42.2596 73.7345 36.6445 73.7345 30.4428C73.7345 18.2109 63.7833 8.26007 51.5523 8.26007C39.3207 8.26007 29.3701 18.2109 29.3701 30.4428C29.3701 36.7 31.9753 42.3597 36.1571 46.3963ZM39.0332 44.7989C39.8304 40.6964 43.4195 37.6913 47.6806 37.6913H49.9897V43.5958C49.9897 44.4583 50.6892 45.1584 51.5523 45.1584C52.4148 45.1584 53.1149 44.4583 53.1149 43.5958V37.6913H55.4234C59.69 37.6913 63.2749 40.6945 64.0714 44.7983C60.7204 47.7246 56.3396 49.5002 51.5523 49.5002C46.7644 49.4996 42.3843 47.7246 39.0332 44.7989ZM46.8365 28.6915H48.3435C50.4005 28.6915 52.3593 27.9505 53.8865 26.6241L56.2676 28.0231V29.8501C56.2676 32.4504 54.152 34.5661 51.5523 34.5661C48.9521 34.5661 46.8365 32.4504 46.8365 29.8501V28.6915ZM56.2676 24.3986L54.4218 23.3145C53.7638 22.9275 52.9233 23.0728 52.4325 23.6581C51.4162 24.871 49.9262 25.5663 48.3435 25.5663H46.8365V24.0714C46.8365 21.4711 48.9521 19.356 51.5523 19.356C54.152 19.356 56.2676 21.4711 56.2676 24.0714V24.3986ZM51.5523 11.3853C62.0602 11.3853 70.6093 19.9341 70.6093 30.4428C70.6093 34.8652 69.0943 38.9408 66.5569 42.1778C65.0835 38.3548 61.7257 35.5336 57.6495 34.7718C58.7391 33.4246 59.3928 31.7124 59.3928 29.8501V24.0714C59.3928 19.7479 55.8757 16.2301 51.5523 16.2301C47.2289 16.2301 43.7113 19.7479 43.7113 24.0714V29.8501C43.7113 31.713 44.3656 33.4252 45.4545 34.7718C41.3826 35.5354 38.0224 38.3579 36.5483 42.179C34.0103 38.9414 32.4953 34.8658 32.4953 30.4428C32.4953 19.9341 41.0438 11.3853 51.5523 11.3853ZM32.5436 11.8975C32.2384 12.2027 31.8386 12.3547 31.4388 12.3547C31.039 12.3547 30.6392 12.2027 30.334 11.8969C29.7236 11.2871 29.7236 10.297 30.3334 9.68658C30.9438 9.07679 31.9332 9.07679 32.5436 9.68658V9.68719C33.154 10.2976 33.154 11.2871 32.5436 11.8975Z" fill="#2B3293"/>
</svg>
