<svg width="80" height="80" viewBox="0 0 80 80" fill="none" xmlns="http://www.w3.org/2000/svg">
<path fill-rule="evenodd" clip-rule="evenodd" d="M56 46.8966H78.6667C79.0203 46.8966 79.3594 47.0419 79.6095 47.3005C79.8595 47.5592 80 47.91 80 48.2759V78.6207C80 78.9865 79.8595 79.3373 79.6095 79.596C79.3594 79.8547 79.0203 80 78.6667 80H33.3333C32.9797 80 32.6406 79.8547 32.3905 79.596C32.1405 79.3373 32 78.9865 32 78.6207V71.7241H6.66667C4.89917 71.7221 3.20463 70.9948 1.95481 69.7019C0.705002 68.409 0.00198509 66.656 0 64.8276V6.89655C0.00198509 5.0681 0.705002 3.31513 1.95481 2.02222C3.20463 0.729312 4.89917 0.00205356 6.66667 9.11739e-10H41.3333C41.5084 -6.58481e-06 41.6818 0.0356646 41.8436 0.104977C42.0054 0.17429 42.1524 0.275886 42.2762 0.403965L55.6095 14.1971C55.7333 14.3252 55.8315 14.4772 55.8985 14.6446C55.9655 14.8119 56 14.9913 56 15.1724V28.9997C58.155 28.244 60.3962 27.7831 62.6667 27.6288V24.8276C62.6667 24.5638 62.7398 24.3055 62.8773 24.0834C63.0149 23.8612 63.2112 23.6846 63.4429 23.5744C63.6746 23.4641 63.932 23.4249 64.1845 23.4615C64.4371 23.498 64.6742 23.6086 64.8678 23.7803L74.2012 32.0562C74.3472 32.1857 74.4644 32.3463 74.5448 32.5271C74.6252 32.7079 74.6668 32.9045 74.6668 33.1035C74.6668 33.3024 74.6252 33.499 74.5448 33.6798C74.4644 33.8606 74.3472 34.0212 74.2012 34.1507L64.8678 42.4266C64.6742 42.5983 64.4371 42.7089 64.1845 42.7454C63.932 42.782 63.6746 42.7428 63.4429 42.6325C63.2112 42.5223 63.0149 42.3457 62.8773 42.1235C62.7398 41.9014 62.6667 41.6431 62.6667 41.3793V38.6459C60.4331 38.7442 58.207 38.9784 56 39.3472V46.8966ZM56 68.4507L75.3045 49.6552H36.6955L56 68.4507ZM64.9428 29.9408C64.6928 30.1995 64.3536 30.3448 64 30.3448C57.6888 30.3448 50.1525 33.7659 48.3843 38.1112C51.6302 37.2891 58.1125 35.8621 64 35.8621C64.3536 35.8621 64.6928 36.0074 64.9428 36.2661C65.1929 36.5247 65.3333 36.8756 65.3333 37.2414V38.3803L71.2847 33.1035L65.3333 27.8266V28.9655C65.3333 29.3313 65.1929 29.6822 64.9428 29.9408ZM51.4478 13.7931L42.6667 4.70914V9.65517C42.6679 10.7522 43.0897 11.804 43.8396 12.5798C44.5894 13.3555 45.6062 13.7919 46.6667 13.7931H51.4478ZM32 68.9655V48.2759C31.9999 48.0947 32.0344 47.9153 32.1014 47.7479C32.1683 47.5805 32.2665 47.4283 32.3904 47.3002C32.5142 47.1721 32.6612 47.0704 32.823 47.0011C32.9848 46.9317 33.1582 46.896 33.3333 46.896H53.3333V39.8271C49.7158 40.5419 47.0822 41.3119 47.0333 41.3262C46.8349 41.3849 46.626 41.3952 46.423 41.3562C46.2201 41.3171 46.0287 41.2299 45.8639 41.1013C45.6991 40.9728 45.5654 40.8064 45.4733 40.6153C45.3812 40.4241 45.3333 40.2135 45.3333 40C45.3333 36.6448 47.582 33.4498 51.6652 31.0038C52.1992 30.684 52.758 30.3853 53.3333 30.1053V16.5517H46.6667C44.8992 16.5497 43.2046 15.8224 41.9548 14.5295C40.705 13.2366 40.002 11.4836 40 9.65517V2.75862H6.66667C5.60617 2.75985 4.58944 3.19621 3.83956 3.97195C3.08967 4.7477 2.66786 5.79948 2.66667 6.89655V64.8276C2.66786 65.9247 3.08967 66.9764 3.83956 67.7522C4.58944 68.5279 5.60617 68.9643 6.66667 68.9655H32ZM34.6667 51.4683V77.2414H77.3333V51.4683L56.9138 71.3493C56.6665 71.5901 56.3397 71.7242 56 71.7242C55.6604 71.7242 55.3335 71.5901 55.0862 71.3493L34.6667 51.4683ZM25.3334 16.5517H9.33335C8.97973 16.5517 8.64059 16.4064 8.39054 16.1477C8.1405 15.8891 8.00002 15.5382 8.00002 15.1724C8.00002 14.8066 8.1405 14.4558 8.39054 14.1971C8.64059 13.9384 8.97973 13.7931 9.33335 13.7931H25.3334C25.687 13.7931 26.0261 13.9384 26.2762 14.1971C26.5262 14.4558 26.6667 14.8066 26.6667 15.1724C26.6667 15.5382 26.5262 15.8891 26.2762 16.1477C26.0261 16.4064 25.687 16.5517 25.3334 16.5517ZM21.3333 23.4483C21.3333 23.8141 21.4738 24.1649 21.7238 24.4236C21.9739 24.6823 22.313 24.8276 22.6666 24.8276H46.6666C47.0202 24.8276 47.3594 24.6823 47.6094 24.4236C47.8595 24.1649 48 23.8141 48 23.4483C48 23.0825 47.8595 22.7316 47.6094 22.473C47.3594 22.2143 47.0202 22.069 46.6666 22.069H22.6666C22.313 22.069 21.9739 22.2143 21.7238 22.473C21.4738 22.7316 21.3333 23.0825 21.3333 23.4483ZM9.33335 33.1034H30.6667C31.0203 33.1034 31.3594 32.9581 31.6095 32.6995C31.8595 32.4408 32 32.09 32 31.7241C32 31.3583 31.8595 31.0075 31.6095 30.7488C31.3594 30.4901 31.0203 30.3448 30.6667 30.3448H9.33335C8.97973 30.3448 8.64059 30.4901 8.39054 30.7488C8.1405 31.0075 8.00002 31.3583 8.00002 31.7241C8.00002 32.09 8.1405 32.4408 8.39054 32.6995C8.64059 32.9581 8.97973 33.1034 9.33335 33.1034ZM30.6666 38.6207H38.6666C39.0203 38.6207 39.3594 38.766 39.6095 39.0247C39.8595 39.2833 40 39.6342 40 40C40 40.3658 39.8595 40.7166 39.6095 40.9753C39.3594 41.234 39.0203 41.3793 38.6666 41.3793H30.6666C30.313 41.3793 29.9739 41.234 29.7238 40.9753C29.4738 40.7166 29.3333 40.3658 29.3333 40C29.3333 39.6342 29.4738 39.2833 29.7238 39.0247C29.9739 38.766 30.313 38.6207 30.6666 38.6207ZM25.3334 46.8965H9.33335C8.97973 46.8965 8.64059 47.0419 8.39054 47.3005C8.1405 47.5592 8.00002 47.91 8.00002 48.2759C8.00002 48.6417 8.1405 48.9925 8.39054 49.2512C8.64059 49.5098 8.97973 49.6552 9.33335 49.6552H25.3334C25.687 49.6552 26.0261 49.5098 26.2762 49.2512C26.5262 48.9925 26.6667 48.6417 26.6667 48.2759C26.6667 47.91 26.5262 47.5592 26.2762 47.3005C26.0261 47.0419 25.687 46.8965 25.3334 46.8965ZM17.3334 24.8276H9.33335C8.97973 24.8276 8.64059 24.6823 8.39054 24.4236C8.1405 24.1649 8.00002 23.8141 8.00002 23.4483C8.00002 23.0825 8.1405 22.7316 8.39054 22.473C8.64059 22.2143 8.97973 22.069 9.33335 22.069H17.3334C17.687 22.069 18.0261 22.2143 18.2762 22.473C18.5262 22.7316 18.6667 23.0825 18.6667 23.4483C18.6667 23.8141 18.5262 24.1649 18.2762 24.4236C18.0261 24.6823 17.687 24.8276 17.3334 24.8276ZM41.3333 30.3448H36C35.6464 30.3448 35.3072 30.4901 35.0572 30.7488C34.8071 31.0075 34.6667 31.3583 34.6667 31.7241C34.6667 32.09 34.8071 32.4408 35.0572 32.6995C35.3072 32.9581 35.6464 33.1034 36 33.1034H41.3333C41.6869 33.1034 42.0261 32.9581 42.2761 32.6995C42.5262 32.4408 42.6667 32.09 42.6667 31.7241C42.6667 31.3583 42.5262 31.0075 42.2761 30.7488C42.0261 30.4901 41.6869 30.3448 41.3333 30.3448ZM9.33335 38.6207H25.3334C25.687 38.6207 26.0261 38.766 26.2762 39.0247C26.5262 39.2833 26.6667 39.6342 26.6667 40C26.6667 40.3658 26.5262 40.7166 26.2762 40.9753C26.0261 41.234 25.687 41.3793 25.3334 41.3793H9.33335C8.97973 41.3793 8.64059 41.234 8.39054 40.9753C8.1405 40.7166 8.00002 40.3658 8.00002 40C8.00002 39.6342 8.1405 39.2833 8.39054 39.0247C8.64059 38.766 8.97973 38.6207 9.33335 38.6207ZM17.3334 55.1724H9.33335C8.97973 55.1724 8.64059 55.3177 8.39054 55.5764C8.1405 55.8351 8.00002 56.1859 8.00002 56.5517C8.00002 56.9175 8.1405 57.2684 8.39054 57.527C8.64059 57.7857 8.97973 57.931 9.33335 57.931H17.3334C17.687 57.931 18.0261 57.7857 18.2762 57.527C18.5262 57.2684 18.6667 56.9175 18.6667 56.5517C18.6667 56.1859 18.5262 55.8351 18.2762 55.5764C18.0261 55.3177 17.687 55.1724 17.3334 55.1724ZM25.3333 55.1724H22.6666C22.313 55.1724 21.9739 55.3177 21.7238 55.5764C21.4738 55.8351 21.3333 56.1859 21.3333 56.5517C21.3333 56.9175 21.4738 57.2684 21.7238 57.527C21.9739 57.7857 22.313 57.931 22.6666 57.931H25.3333C25.6869 57.931 26.0261 57.7857 26.2761 57.527C26.5261 57.2684 26.6666 56.9175 26.6666 56.5517C26.6666 56.1859 26.5261 55.8351 26.2761 55.5764C26.0261 55.3177 25.6869 55.1724 25.3333 55.1724Z" fill="#2B3293"/>
</svg>
