<svg width="95" height="95" viewBox="0 0 95 95" fill="none" xmlns="http://www.w3.org/2000/svg">
<path d="M47.1685 12.0717C48.2005 12.0717 49.0371 11.2351 49.0371 10.2031V1.86865C49.0371 0.836632 48.2005 0 47.1685 0C46.1364 0 45.2998 0.836632 45.2998 1.86865V10.2031C45.3 11.2351 46.1366 12.0717 47.1685 12.0717Z" fill="white"/>
<path d="M92.8452 64.1966L89.5442 60.9048C88.3698 59.7319 86.8047 59.0859 85.137 59.0859C84.0707 59.0859 83.047 59.3512 82.1399 59.8483L75.9193 53.635L76.2222 53.3324C78.7459 50.8038 78.7449 46.6948 76.2221 44.1747C75.3205 43.2715 74.1955 42.6692 72.9692 42.4157C73.1381 41.8329 73.227 41.2225 73.227 40.5978C73.227 38.862 72.5527 37.2343 71.3321 36.0188C70.4304 35.1156 69.3056 34.5133 68.0793 34.2598C68.2482 33.677 68.337 33.0668 68.337 32.4418C68.337 30.7059 67.6628 29.0784 66.4402 27.861C65.5169 26.9389 64.3819 26.3551 63.1901 26.1067C63.8277 23.9085 63.2829 21.4354 61.5536 19.7031C60.1141 18.2697 58.1609 17.6537 56.2785 17.8534L43.9517 15.5201C42.0717 15.1635 39.724 14.9277 38.242 16.2794C38.1485 16.3647 38.0531 16.4629 37.9593 16.5722C35.6614 15.7346 32.9814 16.2334 31.1413 18.0714C29.9206 19.2906 29.2482 20.9175 29.2482 22.6524C29.2482 23.2773 29.3367 23.8876 29.5054 24.4705C28.2804 24.7238 27.1569 25.3254 26.2583 26.2256C25.0351 27.4437 24.3607 29.0688 24.3594 30.8016C24.3588 31.428 24.4477 32.0403 24.6173 32.6248C23.3918 32.8775 22.2675 33.4779 21.3661 34.3782C20.143 35.6 19.4695 37.2278 19.4695 38.9618C19.4695 40.2899 19.866 41.5552 20.6008 42.6239C19.673 42.9384 18.8232 43.4619 18.1116 44.1727C15.5863 46.6948 15.5854 50.804 18.1133 53.3363L18.4152 53.6369L12.1938 59.847C9.88169 58.7584 7.03298 59.1662 5.125 61.0718L1.82189 64.3656C0.647003 65.539 0.000185547 67.1043 0 68.7729C0 70.4417 0.647003 72.0072 1.82189 73.1808L5.94419 77.2981C6.67432 78.0275 7.85755 78.0267 8.58675 77.2966C9.31614 76.5665 9.3154 75.3832 8.58527 74.654L4.46297 70.5367C3.99502 70.0693 3.73729 69.4429 3.73729 68.7731C3.73729 68.1035 3.99502 67.4772 4.46185 67.011L7.76515 63.7169C8.59047 62.8926 9.85367 62.7697 10.813 63.3432C10.8805 63.4447 10.9586 63.5412 11.048 63.6308C11.2082 63.7913 11.3909 63.9144 11.585 64.0044L30.5281 82.9196C30.6181 83.1157 30.7417 83.3003 30.9029 83.4618C31.0599 83.6189 31.2389 83.7405 31.4289 83.8299C31.8295 84.2828 32.0509 84.8614 32.0509 85.4785C32.0509 86.1483 31.7931 86.7745 31.3252 87.2419L28.0252 90.538C27.0502 91.5088 25.4641 91.5086 24.4921 90.5409L20.3697 86.4183C19.64 85.6885 18.4569 85.6885 17.7272 86.4183C16.9974 87.148 16.9974 88.3311 17.7272 89.0608L21.8525 93.1865C23.0667 94.3957 24.6613 95 26.2566 95C27.8523 95 29.4488 94.3948 30.6645 93.1844L33.9665 89.8863C35.1413 88.7127 35.7884 87.1475 35.7884 85.4785C35.7884 84.2875 35.4571 83.15 34.8413 82.1692L41.8431 75.176C41.8506 75.1684 41.858 75.1608 41.8656 75.1531C42.6673 74.3243 44.9 74.4794 47.0592 74.6293C48.5933 74.736 50.3037 74.8546 51.9747 74.662L59.6423 82.3205C59.1456 83.2261 58.8804 84.2485 58.8804 85.3131C58.8804 86.9803 59.5274 88.5446 60.7023 89.7182L64.0045 93.0163C65.1787 94.1892 66.7438 94.8353 68.4114 94.8353C70.079 94.8353 71.6441 94.1894 72.8184 93.0163L92.8465 73.0125C94.0214 71.8391 94.6684 70.2738 94.6684 68.605C94.6682 66.9364 94.0212 65.3711 92.8452 64.1966ZM43.2559 19.1921L51.3619 20.7264L46.51 25.5764C45.7595 25.2157 44.7308 24.5429 43.6023 23.4634C42.0576 21.9857 40.9527 20.2796 40.8521 19.2155C40.8519 19.2149 40.8519 19.2144 40.8519 19.2138C40.8519 19.2136 40.8517 19.2134 40.8517 19.2132C40.8445 19.1368 40.8427 19.0758 40.8436 19.0292C41.088 18.9698 41.737 18.9039 43.2559 19.1921ZM33.7822 20.7156C34.7289 19.7699 36.1995 19.6608 37.2692 20.3852C37.8754 22.9268 40.0435 25.2304 41.0189 26.1637C41.7418 26.8554 44.0613 28.9292 46.4026 29.4992C46.7193 29.9533 46.8917 30.4945 46.8917 31.0656C46.8917 31.8013 46.6087 32.4892 46.0931 33.0042C45.5789 33.5193 44.89 33.8028 44.153 33.8028C43.4158 33.8028 42.7269 33.5193 42.2103 33.0018L42.2101 33.0016L42.2092 33.0007L33.782 24.5887C33.2682 24.0757 32.9853 23.3879 32.9853 22.6524C32.9855 21.9167 33.2684 21.2288 33.7822 20.7156ZM28.8994 28.8699C29.4135 28.355 30.1017 28.0713 30.8376 28.0713C31.5744 28.0713 32.2648 28.3555 32.7823 28.8725L39.5681 35.6448C40.6367 36.715 40.6367 38.4565 39.5718 39.5231C39.0549 40.038 38.3636 40.3215 37.6253 40.3215C36.887 40.3215 36.1956 40.038 35.6809 39.5253L35.6807 39.5251L30.5327 34.3782C30.5247 34.3702 30.516 34.3628 30.5079 34.3546L28.8973 32.7448C28.3806 32.2286 28.0961 31.5395 28.0967 30.8044C28.0974 30.0717 28.3809 29.3861 28.8994 28.8699ZM24.0072 37.0224C24.5217 36.5087 25.2114 36.2257 25.9495 36.2257C26.6815 36.2257 27.3652 36.5046 27.8775 37.0095L33.0413 42.1708C33.5562 42.6837 33.8399 43.3708 33.8399 44.1055C33.8399 44.8401 33.5562 45.5272 33.0393 46.0421C32.5249 46.5557 31.836 46.8386 31.0992 46.8386C30.3613 46.8386 29.6701 46.5549 29.155 46.0421L27.2831 44.1723C27.2827 44.1718 27.2821 44.1714 27.2818 44.171L24.0074 40.9006C23.4912 40.3849 23.2069 39.6962 23.2069 38.9614C23.2069 38.2268 23.4912 37.5379 24.0072 37.0224ZM20.7527 46.8167C21.2695 46.3005 21.9601 46.0163 22.6973 46.0163C23.4342 46.0163 24.1247 46.3004 24.6412 46.8162L26.5158 48.6885C27.0309 49.2014 27.3144 49.8885 27.3144 50.6232C27.3144 51.358 27.0307 52.0449 26.5119 52.5618C25.9978 53.0767 25.3088 53.3604 24.5718 53.3604C23.8347 53.3604 23.1457 53.0769 22.6279 52.5581L22.3931 52.3243C22.39 52.3212 22.3876 52.3178 22.3846 52.3149C22.3811 52.3115 22.3774 52.3086 22.3738 52.3052L20.7546 50.6923C19.686 49.6215 19.6851 47.8831 20.7527 46.8167ZM58.8333 68.0541C58.1039 67.3238 56.9207 67.3232 56.1908 68.0524L54.5282 69.7129C52.9485 71.2926 50.0861 71.0937 47.3179 70.9017C44.3118 70.6928 41.2034 70.4772 39.1918 72.5423L32.309 79.4168L15.0971 62.2301L21.1882 56.15C22.195 56.7671 23.3567 57.0979 24.5722 57.0979C26.3087 57.0979 27.9371 56.4247 29.1534 55.2063C30.3778 53.9868 31.0523 52.3594 31.0523 50.6234C31.0523 50.6073 31.0511 50.5913 31.0511 50.5752C31.0673 50.5754 31.0834 50.5763 31.0996 50.5763C32.8337 50.5763 34.4608 49.9052 35.6787 48.6887C36.9031 47.4693 37.5776 45.8417 37.5776 44.1059C37.5776 44.0898 37.5765 44.0738 37.5765 44.0577C37.5928 44.0577 37.6091 44.0588 37.6256 44.0588C39.3592 44.0588 40.9872 43.3884 42.2133 42.1673C43.4861 40.8924 44.1157 39.2139 44.1036 37.539C44.1203 37.5392 44.137 37.5401 44.1537 37.5401C45.8903 37.5399 47.5185 36.867 48.7366 35.6466C49.9573 34.4274 50.6297 32.8005 50.6297 31.0656C50.6297 29.8523 50.2998 28.6925 49.6847 27.6877L55.0235 22.3512C55.4213 21.9551 55.9119 21.7064 56.426 21.6038C56.4817 21.5979 56.5366 21.589 56.591 21.5782C57.4159 21.4645 58.2822 21.7191 58.9131 22.3473C59.9817 23.4177 59.9817 25.1593 58.917 26.2258L57.291 27.8451C57.2857 27.8505 57.2799 27.8553 57.2745 27.8607L55.4018 29.7302C54.6715 30.4594 54.6707 31.6427 55.4001 32.3728C56.1297 33.1031 57.3128 33.1037 58.0427 32.3745L59.6751 30.7443C59.6755 30.7439 59.6759 30.7435 59.6763 30.7432L59.923 30.4973C60.9946 29.4356 62.7305 29.4378 63.801 30.5068C64.316 31.0196 64.5998 31.7067 64.5998 32.4415C64.5998 33.176 64.316 33.8631 63.7969 34.3801L62.1617 36.0186C62.1615 36.0188 62.1613 36.019 62.1611 36.0194L60.2886 37.8843C59.5573 38.6126 59.5549 39.7958 60.2832 40.5269C61.0115 41.2581 62.1945 41.2603 62.9257 40.5323L64.8068 38.6588C65.321 38.1437 66.0099 37.8602 66.7469 37.8602C67.4841 37.8602 68.1732 38.1437 68.6911 38.6625C69.2061 39.1755 69.4897 39.8626 69.4897 40.5974C69.4897 41.332 69.2061 42.019 68.6881 42.5349L65.428 45.7962C64.6985 46.5262 64.6986 47.7092 65.4284 48.4388C65.7934 48.8036 66.2713 48.9858 66.7495 48.9858C67.2278 48.9858 67.7062 48.8032 68.071 48.4382L69.6687 46.8399C69.6778 46.8312 69.6876 46.8236 69.6967 46.8145C70.2109 46.2994 70.8998 46.0159 71.6368 46.0159C72.374 46.0159 73.0629 46.2994 73.5789 46.8164C74.6464 47.8827 74.6455 49.6213 73.5789 50.6897L71.9545 52.3123C71.9539 52.3128 71.9532 52.3134 71.9526 52.3139C71.9521 52.3145 71.9515 52.3152 71.9509 52.3158L69.3726 54.891C68.6425 55.6204 68.6417 56.8036 69.3709 57.5338C69.7359 57.8991 70.2146 58.0819 70.6931 58.0819C71.1709 58.0819 71.6489 57.8997 72.0137 57.5354L73.2748 56.2757L79.3194 62.3133L62.109 79.5027L55.9425 73.3437C56.3724 73.0672 56.7838 72.7421 57.1699 72.356L58.8315 70.6965C59.562 69.9675 59.5627 68.7842 58.8333 68.0541ZM90.2053 70.3683L70.1771 90.3721C69.7086 90.84 69.0815 91.0978 68.4113 91.0978C67.7411 91.0978 67.1139 90.84 66.6452 90.3719L63.343 87.0738C62.8751 86.6066 62.6174 85.9813 62.6174 85.3131C62.6174 84.6452 62.8751 84.0199 63.343 83.5525L83.3712 63.5486C83.8399 63.0805 84.4669 62.8228 85.1372 62.8228C85.8074 62.8228 86.4346 63.0805 86.9044 63.5498L90.2055 66.8416C90.6734 67.3089 90.9311 67.935 90.9311 68.6048C90.9309 69.2748 90.6732 69.901 90.2053 70.3683Z" fill="#2B3293"/>
<path d="M22.3555 10.4964C22.7203 10.8605 23.1979 11.0423 23.6755 11.0423C24.1542 11.0423 24.6331 10.8593 24.9981 10.4936C25.7271 9.76313 25.726 8.58008 24.9955 7.85106L18.1863 1.0554C17.4559 0.326382 16.2727 0.32731 15.5437 1.05799C14.8147 1.78849 14.8158 2.97154 15.5463 3.70056L22.3555 10.4964Z" fill="white"/>
<path d="M70.6616 11.0423C71.1394 11.0423 71.6173 10.8601 71.9821 10.4958L78.7861 3.69999C79.5163 2.97079 79.517 1.78756 78.7876 1.05743C78.0584 0.327301 76.8754 0.326559 76.145 1.05594L69.341 7.8518C68.6109 8.581 68.6102 9.76423 69.3395 10.4944C69.7045 10.8597 70.183 11.0423 70.6616 11.0423Z" fill="white"/>
<path d="M11.49 80.3798C10.7666 81.1157 10.7766 82.2989 11.5127 83.0224L11.5181 83.0276C11.8812 83.3846 12.3527 83.5623 12.8239 83.5623C13.3077 83.5623 13.7914 83.3751 14.1578 83.0023C14.8813 82.2664 14.8685 81.0806 14.1326 80.3572C13.3969 79.6337 12.2139 79.6439 11.49 80.3798Z" fill="white"/>
<path d="M63.4037 65.3622C63.6879 65.3622 63.9763 65.2974 64.247 65.161C65.1684 64.6962 65.5386 63.5726 65.074 62.6511C64.6092 61.7297 63.4853 61.3594 62.5641 61.8241L62.5537 61.8293C61.6322 62.2941 61.2673 63.4152 61.7319 64.3366C62.0599 64.9875 62.7197 65.3622 63.4037 65.3622Z" fill="white"/>
</svg>
