<svg width="98" height="98" viewBox="0 0 98 98" fill="none" xmlns="http://www.w3.org/2000/svg">
<path fill-rule="evenodd" clip-rule="evenodd" d="M88.047 53.2233V47.304C88.047 46.5981 87.6587 45.9496 87.0364 45.6166L53.6446 27.7413L54.0236 10.0416C54.0795 7.42639 53.0847 4.93829 51.2223 3.03571C49.3335 1.10633 46.7095 -0.000191233 44.0226 2.47896e-08C41.3364 2.47896e-08 38.7126 1.10652 36.8241 3.03571C34.9618 4.9381 33.967 7.42619 34.0229 10.0416L34.2752 21.8179L34.4463 27.7959L1.01369 45.6147C0.389895 45.9475 0 46.5968 0 47.3042V57.8682C0 58.4567 0.27084 59.0126 0.734236 59.3753C1.19744 59.738 1.8019 59.8676 2.37344 59.7263L25.2174 54.0773V56.1888C25.2174 57.2457 26.0744 58.1028 27.1315 58.1028C28.1886 58.1028 29.0456 57.2457 29.0456 56.1888V53.1305L34.9221 51.6773L35.3465 69.0488L27.5549 75.7947C27.135 76.1582 26.8938 76.6863 26.8938 77.242V86.133C26.8938 86.7516 27.1928 87.3321 27.6963 87.6914C28.025 87.9259 28.4145 88.047 28.808 88.047C29.0174 88.047 29.228 88.0126 29.4313 87.9427L44.0233 82.9158L51.5441 85.5067C55.8454 92.9672 63.9047 98 73.1177 98C86.8381 98 98.0006 86.8377 98.0006 73.1171C98.0006 64.9938 94.0873 57.7677 88.047 53.2233ZM29.0456 49.1873V48.3346C29.0456 47.2774 28.1886 46.4205 27.1315 46.4205C26.0744 46.4205 25.2174 47.2776 25.2174 48.3346V50.1338L3.82813 55.4229V48.4529L34.5389 32.0845L34.8349 47.7554L29.0456 49.1873ZM49.7925 28.8329L49.3563 49.199V49.1995L48.9136 67.3296C48.9091 67.3484 48.905 67.3672 48.901 67.386C48.8974 67.4024 48.8939 67.4188 48.89 67.4352C48.8594 67.5662 48.8309 67.6978 48.8022 67.8295C48.7955 67.8604 48.7886 67.8912 48.7818 67.922C48.7702 67.9739 48.7586 68.0259 48.7478 68.0782C48.7021 68.2994 48.6594 68.522 48.6194 68.7456L48.6131 68.7839C48.6115 68.7938 48.6099 68.8036 48.6082 68.8135C48.6075 68.8175 48.6069 68.8215 48.6062 68.8254C48.5712 69.026 48.5384 69.2274 48.5084 69.4295C48.5031 69.4647 48.4983 69.5 48.4934 69.5353L48.4844 69.5997C48.4599 69.7719 48.4368 69.9448 48.4159 70.1182C48.4079 70.1846 48.4006 70.2508 48.3931 70.3174C48.3748 70.4811 48.3577 70.6455 48.3426 70.8101L48.3411 70.8267L48.341 70.8275C48.3351 70.893 48.3291 70.9583 48.3235 71.0239C48.3101 71.1849 48.2986 71.3462 48.2883 71.508C48.2852 71.5555 48.282 71.6031 48.279 71.6506C48.2774 71.6756 48.2759 71.7006 48.2745 71.7256C48.2653 71.8927 48.2584 72.0604 48.2525 72.2282C48.2515 72.2554 48.2504 72.2825 48.2493 72.3097C48.248 72.339 48.2468 72.3682 48.2458 72.3975C48.2455 72.4061 48.2452 72.4147 48.245 72.4233C48.2387 72.6537 48.2349 72.8848 48.2349 73.1168C48.2349 73.4113 48.2419 73.704 48.2521 73.9963L48.2536 74.0378C48.2551 74.0809 48.2567 74.124 48.2586 74.167C48.3531 76.43 48.7509 78.6159 49.413 80.685C49.4172 80.6993 49.421 80.7139 49.4254 80.7278L44.6467 79.0816C44.2429 78.9424 43.804 78.9424 43.3999 79.0816L30.7219 83.4491V78.1165L38.5349 71.352C38.9673 70.9776 39.2095 70.4298 39.1957 69.8581L38.6909 49.1999V49.1997L38.3074 28.8907C38.3074 28.8897 38.3073 28.8886 38.3072 28.8876C38.3072 28.8868 38.3071 28.8861 38.307 28.8853L38.3066 28.8804C38.3066 28.8773 38.307 28.8748 38.307 28.872L37.8503 9.95927C37.8166 8.38189 38.4237 6.8738 39.5599 5.71311C40.7329 4.5149 42.3594 3.82756 44.0237 3.82756C45.687 3.82737 47.3138 4.51471 48.4869 5.71311C49.6231 6.8738 50.2305 8.3817 50.1968 9.95927L49.7925 28.8329ZM53.5527 32.0338L84.2189 48.4504V50.843C81.946 49.7068 79.5182 48.9331 77.0065 48.5392L76.9509 48.5302C76.9358 48.5277 76.9207 48.5253 76.9055 48.5229C76.8935 48.5209 76.8815 48.519 76.8695 48.5172C76.7265 48.4955 76.5829 48.476 76.4394 48.4571C76.3544 48.4454 76.2696 48.4343 76.1844 48.4238C76.0594 48.4083 75.9343 48.3941 75.8091 48.3805C75.703 48.369 75.5966 48.3583 75.4902 48.3482C75.378 48.3376 75.2659 48.3273 75.1535 48.3183C75.0299 48.3082 74.906 48.2997 74.7818 48.2913L74.683 48.2849C74.6543 48.283 74.6257 48.2811 74.597 48.2792C74.5592 48.2768 74.5214 48.2745 74.4836 48.2724C74.3375 48.2645 74.1911 48.2588 74.0445 48.2534L73.9643 48.2501C73.9109 48.2479 73.8575 48.2456 73.8039 48.2442C73.5759 48.2381 73.3474 48.2343 73.1179 48.2343H73.1177C69.704 48.2343 66.4037 48.9119 63.2978 50.2492L62.829 50.1334V48.3342C62.829 47.2772 61.9721 46.4201 60.915 46.4201C59.8578 46.4201 59.0009 47.2772 59.0009 48.3342V49.1869L53.216 47.7561L53.5527 32.0338ZM53.1247 51.6773L58.487 53.0034C56.3656 54.5505 54.4975 56.4244 52.9569 58.5505L53.1247 51.6773ZM73.1177 94.1721C64.0762 94.1721 56.3484 88.4431 53.3714 80.4252C53.3527 80.3747 53.3341 80.3244 53.3159 80.2738C53.2777 80.168 53.2401 80.0619 53.2036 79.9553C53.1632 79.8374 53.124 79.7191 53.0855 79.6005L53.0672 79.5445C53.0615 79.5269 53.0557 79.5093 53.05 79.4916C53.0443 79.4742 53.0387 79.4568 53.0332 79.4393C52.5892 78.0242 52.294 76.5611 52.1551 75.0792L52.1524 75.0493L52.1497 75.0193C52.1334 74.8415 52.1202 74.6635 52.1085 74.4853L52.1082 74.4801C52.1054 74.4378 52.1027 74.3957 52.1003 74.3536C52.0909 74.1938 52.0838 74.0338 52.0781 73.8736C52.0764 73.8244 52.0739 73.7754 52.0726 73.726C52.0666 73.5231 52.0632 73.3204 52.0632 73.1173C52.0632 72.9173 52.0666 72.7173 52.0722 72.5173C52.0739 72.4585 52.0768 72.4003 52.0789 72.3419C52.084 72.1986 52.0902 72.0556 52.0984 71.9126C52.1022 71.8473 52.1064 71.7823 52.1108 71.7172C52.12 71.5782 52.1306 71.4396 52.1424 71.3009C52.1478 71.2381 52.1533 71.1751 52.1593 71.1123C52.173 70.9655 52.1889 70.8193 52.206 70.6731L52.2127 70.6136C52.2164 70.5803 52.2201 70.5471 52.2241 70.514C52.2477 70.3241 52.2733 70.1346 52.3021 69.9453L52.3032 69.9374L52.3057 69.9203C52.3348 69.7294 52.3673 69.5392 52.4016 69.3491C52.4115 69.2947 52.422 69.2406 52.4326 69.1865L52.4487 69.1035C52.4688 68.9998 52.4892 68.896 52.5107 68.7925C52.5325 68.6886 52.5553 68.585 52.5784 68.4817C52.5953 68.4064 52.6129 68.3316 52.6305 68.2566C54.7096 59.4932 62.2801 52.8319 71.4921 52.125C71.5055 52.124 71.5191 52.1231 71.5326 52.1223C71.5414 52.1217 71.5503 52.1212 71.5591 52.1206C71.713 52.1091 71.8672 52.0992 72.0223 52.0913C72.0891 52.0879 72.1559 52.0861 72.2227 52.0833C72.2441 52.0824 72.2655 52.0815 72.2869 52.0805C72.3791 52.0766 72.4714 52.0726 72.564 52.0703C72.7468 52.0657 72.9299 52.063 73.1137 52.063H73.1181C73.3552 52.063 73.5916 52.0683 73.8278 52.0762C73.8916 52.0783 73.9551 52.0808 74.0187 52.0835C74.2279 52.0923 74.4367 52.1036 74.6449 52.1187C74.6574 52.1196 74.6698 52.1204 74.6823 52.121L74.6897 52.1214C74.7047 52.1223 74.7196 52.1231 74.7345 52.1242C74.9556 52.1411 75.1755 52.1627 75.3953 52.1864C75.4787 52.1954 75.562 52.205 75.645 52.215C75.8016 52.2337 75.9576 52.2546 76.1134 52.2768C76.2397 52.295 76.3657 52.3139 76.4913 52.3342C76.6321 52.3568 76.7728 52.3805 76.9129 52.4062C77.0341 52.4282 77.1549 52.4515 77.2753 52.4757C77.3526 52.4912 77.4295 52.5076 77.5066 52.5241L77.5226 52.5275C77.7936 52.5855 78.0631 52.6477 78.3301 52.7159L78.3586 52.723L78.3841 52.7293C87.4541 55.0732 94.1734 63.3254 94.1734 73.1175C94.1724 84.7269 84.7273 94.1721 73.1177 94.1721ZM27.1319 40.8759C26.0748 40.8759 25.2179 41.733 25.2179 42.7899V42.8351C25.2179 43.892 26.0748 44.7492 27.1319 44.7492C28.1891 44.7492 29.046 43.892 29.046 42.8351V42.7899C29.046 41.733 28.1891 40.8759 27.1319 40.8759ZM59.0011 42.7901C59.0011 41.7332 59.858 40.876 60.9151 40.876C61.9723 40.876 62.8292 41.733 62.8292 42.7901V42.8353C62.8292 43.8922 61.9723 44.7493 60.9151 44.7493C59.858 44.7493 59.0011 43.8922 59.0011 42.8353V42.7901Z" fill="#2B3293"/>
<path d="M53.0197 80.8747C56.0477 88.8623 63.9029 94.5547 73.1173 94.5547C82.3318 94.5547 90.187 88.8623 93.215 80.8747L73.1173 79.0508L53.0197 80.8747Z" fill="#EAD47E"/>
<path d="M73.1173 52.0624C63.9029 52.0624 56.0477 57.7548 53.0197 65.7425L73.1173 67.5664L93.215 65.7424C90.187 57.7548 82.3318 52.0624 73.1173 52.0624Z" fill="#535353"/>
<path d="M53.1927 66.0351C52.3387 68.3005 51.8712 70.7507 51.8712 73.3085C51.8712 75.8664 52.3387 78.3166 53.1927 80.582H93.0421C93.8961 78.3166 94.3635 75.8664 94.3635 73.3085C94.3635 70.7507 93.8961 68.3005 93.042 66.0351H53.1927Z" fill="#BD4D61"/>
</svg>
