<svg width="48" height="48" viewBox="0 0 48 48" fill="none" xmlns="http://www.w3.org/2000/svg">
<path d="M44.0625 16.875H30.8771C30.9188 16.4125 30.9415 15.9441 30.9415 15.4706C30.9415 6.94006 24.0011 0 15.4706 0C12.7533 0 10.0803 0.714844 7.7406 2.06689C7.29236 2.32581 7.13892 2.89929 7.39783 3.34753C7.6571 3.79614 8.23059 3.94922 8.67883 3.69031C10.7336 2.50269 13.0822 1.875 15.4706 1.875C22.9673 1.875 29.0665 7.97388 29.0665 15.4706C29.0665 22.9673 22.9673 29.0665 15.4706 29.0665C12.3325 29.0665 9.38452 28.0269 6.94519 26.0603C6.70056 25.8633 6.37646 25.8043 6.0813 25.8948L3.5929 26.5455L4.56775 24.4032C4.70801 24.0956 4.67139 23.7367 4.47253 23.4631C2.77332 21.1293 1.875 18.3655 1.875 15.4706C1.875 13.0759 2.50598 10.7216 3.69983 8.66235C3.95947 8.21411 3.80676 7.64062 3.35889 7.38098C2.91101 7.12134 2.33752 7.27368 2.07751 7.72192C0.718506 10.0664 0 12.746 0 15.4706C0 18.5793 0.910767 21.5563 2.63928 24.1143L1.0697 27.5629C0.919556 27.8921 0.972656 28.2781 1.20557 28.5549C1.43848 28.8318 1.80981 28.9497 2.15991 28.8582L6.14685 27.8159C8.81946 29.8348 12.1113 30.9415 15.4706 30.9415C16.2019 30.9415 16.9208 30.8892 17.625 30.7906V39C17.625 41.1709 19.3912 42.9375 21.5621 42.9375H34.8215L40.7501 47.788C40.9208 47.9279 41.1313 47.9996 41.3438 47.9996C41.4803 47.9996 41.6173 47.97 41.7451 47.9095C42.0725 47.7543 42.2812 47.4247 42.2812 47.0621V42.9375H44.0625C46.2338 42.9375 48 41.1709 48 39V20.8125C48 18.6412 46.2338 16.875 44.0625 16.875ZM46.125 39C46.125 40.1371 45.2 41.0625 44.0625 41.0625H41.3438C40.8259 41.0625 40.4062 41.4822 40.4062 42V45.0839L35.7759 41.2954C35.5206 41.0625 35.2972 41.0625 34.7952 41.0625H21.5621C20.425 41.0625 19.5 40.1371 19.5 39V30.408C25.0455 28.9105 29.3661 24.401 30.5903 18.75H44.0625C45.2 18.75 46.125 19.675 46.125 20.8125V39Z" fill="#FF5616"/>
<path d="M37.4772 32.6818C37.7951 32.532 38.0155 32.2093 38.0155 31.8343C38.0155 31.3169 37.5958 30.8969 37.078 30.8969H36.6942L33.6708 24.0062C33.521 23.6653 33.1841 23.4452 32.812 23.4452C32.44 23.4452 32.103 23.6653 31.9536 24.0062L28.9302 30.8969H28.5464C28.0286 30.8969 27.6089 31.3169 27.6089 31.8343C27.6089 32.2093 27.8294 32.532 28.1472 32.6818L27.0211 35.2482C26.8131 35.7224 27.0288 36.2754 27.5027 36.4834C27.9769 36.6914 28.5299 36.4757 28.7379 36.0015L30.1552 32.7718H35.4693L36.8865 36.0015C37.0407 36.353 37.3845 36.5625 37.7456 36.5625C37.8712 36.5625 37.999 36.5372 38.1217 36.4834C38.5956 36.2754 38.8117 35.7224 38.6033 35.2482L37.4772 32.6818ZM30.9777 30.8969L32.812 26.7162L34.6464 30.8969H30.9777Z" fill="#FF5616"/>
<path d="M5.19385 6.1311C5.44031 6.1311 5.68201 6.03076 5.85669 5.85645C6.03101 5.68213 6.13135 5.44043 6.13135 5.1936C6.13135 4.94714 6.03101 4.70544 5.85669 4.53076C5.68201 4.35645 5.44031 4.2561 5.19385 4.2561C4.94629 4.2561 4.70532 4.35645 4.53101 4.53076C4.35669 4.70544 4.25635 4.94714 4.25635 5.1936C4.25635 5.44043 4.35669 5.68213 4.53101 5.85645C4.70532 6.03113 4.94702 6.1311 5.19385 6.1311Z" fill="#FF5616"/>
<path d="M9.87472 21.1761C9.42062 21.4252 9.25436 21.995 9.50339 22.4491C9.67404 22.76 9.99521 22.9362 10.3263 22.9362C10.4786 22.9362 10.6331 22.8988 10.7763 22.8204C12.867 21.6738 14.4754 19.8904 15.4162 17.7872C16.3574 19.8904 17.9654 21.6738 20.0561 22.8204C20.1993 22.8988 20.3538 22.9362 20.5062 22.9362C20.8372 22.9362 21.1584 22.76 21.3291 22.4491C21.5781 21.995 21.4118 21.4252 20.9577 21.1761C18.5103 19.834 16.8631 17.4353 16.4541 14.725H20.6164C21.1342 14.725 21.5539 14.3053 21.5539 13.7875C21.5539 13.2697 21.1342 12.85 20.6164 12.85H16.3537V8.94324C16.3537 8.42542 15.9341 8.00574 15.4162 8.00574C14.8984 8.00574 14.4787 8.42542 14.4787 8.94324V12.85H11.092C10.5742 12.85 10.1545 13.2697 10.1545 13.7875C10.1545 14.3053 10.5742 14.725 11.092 14.725H14.3784C13.9693 17.4353 12.3221 19.8344 9.87472 21.1761Z" fill="#FF5616"/>
</svg>
