<svg width="48" height="48" viewBox="0 0 48 48" fill="none" xmlns="http://www.w3.org/2000/svg">
<path d="M5.72522 15.9309C5.55094 15.7565 5.30906 15.6562 5.0625 15.6562C4.81594 15.6562 4.57416 15.7566 4.39969 15.9309C4.22522 16.1053 4.125 16.3472 4.125 16.5938C4.125 16.8403 4.22522 17.0822 4.39969 17.2565C4.57406 17.4309 4.81594 17.5312 5.0625 17.5312C5.30906 17.5312 5.55094 17.4309 5.72522 17.2565C5.89969 17.0822 6 16.8403 6 16.5938C6 16.3472 5.89969 16.1053 5.72522 15.9309Z" fill="#FF5616"/>
<path d="M41.0625 0H22.0938C21.5761 0 21.1563 0.419813 21.1563 0.9375C21.1563 1.45519 21.5761 1.875 22.0938 1.875H41.0625C41.5794 1.875 42 2.29556 42 2.8125V45.1875C42 45.7044 41.5794 46.125 41.0625 46.125H6.9375C6.42056 46.125 6 45.7044 6 45.1875V20.0937C6 19.576 5.58019 19.1562 5.0625 19.1562C4.54481 19.1562 4.125 19.576 4.125 20.0937V45.1875C4.125 46.7383 5.38669 48 6.9375 48H41.0625C42.6133 48 43.875 46.7383 43.875 45.1875V2.8125C43.875 1.26169 42.6133 0 41.0625 0Z" fill="#FF5616"/>
<path d="M23.9997 3.75C23.3618 3.75 22.7208 3.79875 22.0943 3.89475C21.5826 3.97331 21.2313 4.45172 21.3097 4.9635C21.3882 5.47528 21.8669 5.82609 22.3785 5.74809C22.9113 5.66634 23.4567 5.625 23.9997 5.625C29.8412 5.625 34.5936 10.3774 34.5936 16.2188C34.5936 18.8129 33.6559 21.1916 32.1022 23.0354C31.4148 21.8532 30.4758 20.8335 29.3361 20.0425C28.6709 19.5809 27.9562 19.2125 27.2081 18.9398C28.062 18.1051 28.5935 16.9419 28.5935 15.6564V14.7424C28.5935 12.2092 26.5327 10.1485 23.9997 10.1485C21.4667 10.1485 19.406 12.2092 19.406 14.7424V15.6564C19.406 16.9419 19.9373 18.1051 20.7913 18.9398C20.0433 19.2125 19.3286 19.5809 18.6634 20.0425C17.5182 20.8373 16.5755 21.8628 15.8871 23.0521C14.7034 21.6454 13.8759 19.9151 13.5522 17.9849C13.4666 17.4744 12.9828 17.13 12.4726 17.2154C11.9619 17.301 11.6174 17.7844 11.703 18.295C12.1851 21.1694 13.6773 23.8004 15.9049 25.7033C18.1578 27.6278 21.0326 28.6878 23.9996 28.6878C30.875 28.6878 36.4685 23.0943 36.4685 16.2189C36.4685 9.34359 30.8751 3.75 23.9997 3.75ZM21.281 14.7423C21.281 13.2431 22.5006 12.0234 23.9997 12.0234C25.4988 12.0234 26.7185 13.2431 26.7185 14.7423V15.6563C26.7185 17.1554 25.4988 18.3751 23.9997 18.3751C22.5006 18.3751 21.281 17.1554 21.281 15.6563V14.7423ZM23.9997 26.8127C21.4615 26.8127 19.115 25.9264 17.2784 24.4237C18.5373 21.8689 21.1108 20.2501 23.9997 20.2501C26.8826 20.2501 29.4513 21.8622 30.713 24.4078C28.8842 25.9098 26.5454 26.8127 23.9997 26.8127Z" fill="#FF5616"/>
<path d="M32.6582 37.3127H19.3457C18.828 37.3127 18.4082 37.7326 18.4082 38.2502C18.4082 38.7679 18.828 39.1877 19.3457 39.1877H32.6582C33.176 39.1877 33.5957 38.7679 33.5957 38.2502C33.5957 37.7326 33.1759 37.3127 32.6582 37.3127Z" fill="#FF5616"/>
<path d="M16.0041 32.3372C15.8297 32.1627 15.5879 32.0625 15.3413 32.0625C15.0947 32.0625 14.8529 32.1628 14.6785 32.3372C14.5041 32.5116 14.4038 32.7534 14.4038 33C14.4038 33.2474 14.5042 33.4884 14.6785 33.6627C14.8529 33.8372 15.0947 33.9375 15.3413 33.9375C15.5879 33.9375 15.8297 33.8372 16.0041 33.6627C16.1794 33.4884 16.2788 33.2466 16.2788 33C16.2788 32.7534 16.1794 32.5116 16.0041 32.3372Z" fill="#FF5616"/>
<path d="M16.0041 37.5872C15.8297 37.4127 15.5888 37.3125 15.3413 37.3125C15.0947 37.3125 14.8529 37.4128 14.6785 37.5872C14.5041 37.7616 14.4038 38.0034 14.4038 38.25C14.4038 38.4974 14.5042 38.7384 14.6785 38.9127C14.8529 39.0872 15.0947 39.1875 15.3413 39.1875C15.5879 39.1875 15.8297 39.0872 16.0041 38.9127C16.1794 38.7384 16.2788 38.4975 16.2788 38.25C16.2788 38.0034 16.1794 37.7616 16.0041 37.5872Z" fill="#FF5616"/>
<path d="M32.6582 32.0627H19.3457C18.828 32.0627 18.4082 32.4826 18.4082 33.0002C18.4082 33.5179 18.828 33.9377 19.3457 33.9377H32.6582C33.176 33.9377 33.5957 33.5179 33.5957 33.0002C33.5957 32.4826 33.1759 32.0627 32.6582 32.0627Z" fill="#FF5616"/>
<path d="M15.1522 5.40267C14.7859 5.03667 14.1925 5.03667 13.8263 5.40267L10.7732 8.45574L9.72987 7.41239C9.36359 7.04639 8.77015 7.04639 8.40397 7.41239C8.03787 7.77858 8.03787 8.37221 8.40397 8.7383L10.1102 10.4445C10.2933 10.6275 10.5331 10.7191 10.7731 10.7191C11.0131 10.7191 11.2529 10.6276 11.4361 10.4446L15.1522 6.72858C15.5183 6.36239 15.5183 5.76877 15.1522 5.40267Z" fill="#FF5616"/>
<path d="M11.8125 0C7.57359 0 4.125 3.44859 4.125 7.6875C4.125 11.9264 7.57359 15.375 11.8125 15.375C16.0514 15.375 19.5 11.9264 19.5 7.6875C19.5 3.44859 16.0514 0 11.8125 0ZM11.8125 13.5C8.60747 13.5 6 10.8925 6 7.6875C6 4.48247 8.60747 1.875 11.8125 1.875C15.0175 1.875 17.625 4.48247 17.625 7.6875C17.625 10.8925 15.0175 13.5 11.8125 13.5Z" fill="#FF5616"/>
</svg>
