<svg width="48" height="48" viewBox="0 0 48 48" fill="none" xmlns="http://www.w3.org/2000/svg">
<path d="M42.298 5.84775H39.983V3.53269C39.983 3.14437 39.6682 2.82956 39.2798 2.82956H36.9648V0.703125C36.9648 0.314812 36.6501 0 36.2617 0H5.70215C5.31374 0 4.99902 0.314812 4.99902 0.703125V31.7277C4.99902 32.116 5.31374 32.4308 5.70215 32.4308C6.09055 32.4308 6.40527 32.116 6.40527 31.7277V1.40625H35.5584V9.64959C35.5584 10.0379 35.8731 10.3527 36.2616 10.3527C36.65 10.3527 36.9647 10.0379 36.9647 9.64959V4.23581H38.5766V43.5756H9.42355V41.9636H36.2616C36.65 41.9636 36.9647 41.6488 36.9647 41.2605V12.9354C36.9647 12.5471 36.65 12.2323 36.2616 12.2323C35.8731 12.2323 35.5584 12.5471 35.5584 12.9354V40.5574H6.40527V35.0107C6.40527 34.6224 6.09055 34.3076 5.70215 34.3076C5.31374 34.3076 4.99902 34.6224 4.99902 35.0107V41.2605C4.99902 41.6488 5.31374 41.9636 5.70215 41.9636H8.01721V44.2787C8.01721 44.667 8.33193 44.9818 8.72034 44.9818H11.0354V47.2969C11.0354 47.6852 11.3501 48 11.7385 48H42.2979C42.6863 48 43.0011 47.6852 43.0011 47.2969V6.55087C43.0011 6.16256 42.6863 5.84775 42.298 5.84775ZM41.5949 46.5938H12.4417V44.9818H39.2797C39.6681 44.9818 39.9829 44.667 39.9829 44.2787V7.254H41.5948V46.5938H41.5949Z" fill="#FF5616"/>
<path d="M28.5276 3.77283H13.4365C13.0481 3.77283 12.7334 4.08764 12.7334 4.47595V10.1352C12.7334 10.5235 13.0481 10.8383 13.4365 10.8383H28.5276C28.916 10.8383 29.2307 10.5235 29.2307 10.1352V4.47595C29.2307 4.08764 28.916 3.77283 28.5276 3.77283ZM27.8244 9.43195H14.1396V5.17908H27.8244V9.43195Z" fill="#FF5616"/>
<path d="M11.0781 14.3365C9.8063 14.3365 8.77148 15.3713 8.77148 16.6432C8.77148 17.915 9.8062 18.9497 11.0781 18.9497C12.35 18.9497 13.3847 17.915 13.3847 16.6432C13.3846 15.3713 12.3499 14.3365 11.0781 14.3365ZM11.0781 17.5434C10.5817 17.5434 10.1777 17.1395 10.1777 16.6431C10.1777 16.1467 10.5817 15.7427 11.0781 15.7427C11.5745 15.7427 11.9785 16.1466 11.9785 16.6431C11.9784 17.1395 11.5745 17.5434 11.0781 17.5434Z" fill="#FF5616"/>
<path d="M20.2275 14.3365H15.7002C15.3118 14.3365 14.9971 14.6514 14.9971 15.0397C14.9971 15.428 15.3118 15.7428 15.7002 15.7428H20.2275C20.6159 15.7428 20.9306 15.428 20.9306 15.0397C20.9306 14.6514 20.6158 14.3365 20.2275 14.3365Z" fill="#FF5616"/>
<path d="M32.4889 14.3365H27.8672C27.4788 14.3365 27.1641 14.6514 27.1641 15.0397C27.1641 15.428 27.4788 15.7428 27.8672 15.7428H32.4889C32.8773 15.7428 33.192 15.428 33.192 15.0397C33.192 14.6514 32.8772 14.3365 32.4889 14.3365Z" fill="#FF5616"/>
<path d="M25.5522 15.0397C25.5522 14.6514 25.2375 14.3365 24.8491 14.3365H23.2456C22.8572 14.3365 22.5425 14.6514 22.5425 15.0397C22.5425 15.428 22.8572 15.7428 23.2456 15.7428H24.8491C25.2374 15.7428 25.5522 15.428 25.5522 15.0397Z" fill="#FF5616"/>
<path d="M15.7002 18.9496H17.3979C17.7863 18.9496 18.101 18.6348 18.101 18.2465C18.101 17.8581 17.7863 17.5433 17.3979 17.5433H15.7002C15.3118 17.5433 14.9971 17.8581 14.9971 18.2465C14.9971 18.6348 15.3118 18.9496 15.7002 18.9496Z" fill="#FF5616"/>
<path d="M32.4888 17.5433H25.0376C24.6492 17.5433 24.3345 17.8581 24.3345 18.2465C24.3345 18.6348 24.6492 18.9496 25.0376 18.9496H32.4888C32.8773 18.9496 33.192 18.6348 33.192 18.2465C33.192 17.8581 32.8772 17.5433 32.4888 17.5433Z" fill="#FF5616"/>
<path d="M22.0193 17.5433H20.416C20.0276 17.5433 19.7129 17.8581 19.7129 18.2465C19.7129 18.6348 20.0276 18.9496 20.416 18.9496H22.0194C22.4078 18.9496 22.7225 18.6348 22.7225 18.2465C22.7225 17.8581 22.4077 17.5433 22.0193 17.5433Z" fill="#FF5616"/>
<path d="M11.0781 25.1747C12.3499 25.1747 13.3847 24.14 13.3847 22.8681C13.3847 21.5963 12.35 20.5615 11.0781 20.5615C9.8062 20.5615 8.77148 21.5962 8.77148 22.8681C8.77148 24.14 9.8063 25.1747 11.0781 25.1747ZM11.0781 21.9679C11.5745 21.9679 11.9785 22.3717 11.9785 22.8682C11.9785 23.3646 11.5745 23.7685 11.0781 23.7685C10.5817 23.7685 10.1777 23.3646 10.1777 22.8682C10.1777 22.3717 10.5817 21.9679 11.0781 21.9679Z" fill="#FF5616"/>
<path d="M15.7002 21.9679H20.2275C20.6159 21.9679 20.9306 21.6531 20.9306 21.2648C20.9306 20.8765 20.6159 20.5616 20.2275 20.5616H15.7002C15.3118 20.5616 14.9971 20.8765 14.9971 21.2648C14.9971 21.6531 15.3118 21.9679 15.7002 21.9679Z" fill="#FF5616"/>
<path d="M32.4889 20.5616H27.8672C27.4788 20.5616 27.1641 20.8765 27.1641 21.2648C27.1641 21.6531 27.4788 21.9679 27.8672 21.9679H32.4889C32.8773 21.9679 33.192 21.6531 33.192 21.2648C33.192 20.8765 32.8772 20.5616 32.4889 20.5616Z" fill="#FF5616"/>
<path d="M25.5522 21.2648C25.5522 20.8765 25.2375 20.5616 24.8491 20.5616H23.2456C22.8572 20.5616 22.5425 20.8765 22.5425 21.2648C22.5425 21.6531 22.8572 21.9679 23.2456 21.9679H24.8491C25.2374 21.9679 25.5522 21.6531 25.5522 21.2648Z" fill="#FF5616"/>
<path d="M15.7002 25.1747H17.3979C17.7863 25.1747 18.101 24.8599 18.101 24.4716C18.101 24.0832 17.7863 23.7684 17.3979 23.7684H15.7002C15.3118 23.7684 14.9971 24.0832 14.9971 24.4716C14.9971 24.8599 15.3118 25.1747 15.7002 25.1747Z" fill="#FF5616"/>
<path d="M32.4888 23.7684H25.0376C24.6492 23.7684 24.3345 24.0832 24.3345 24.4716C24.3345 24.8599 24.6492 25.1747 25.0376 25.1747H32.4888C32.8773 25.1747 33.192 24.8599 33.192 24.4716C33.192 24.0832 32.8772 23.7684 32.4888 23.7684Z" fill="#FF5616"/>
<path d="M22.7225 24.4716C22.7225 24.0832 22.4077 23.7684 22.0193 23.7684H20.416C20.0276 23.7684 19.7129 24.0832 19.7129 24.4716C19.7129 24.8599 20.0276 25.1747 20.416 25.1747H22.0194C22.4077 25.1747 22.7225 24.8599 22.7225 24.4716Z" fill="#FF5616"/>
<path d="M11.0781 31.3998C12.3499 31.3998 13.3847 30.3651 13.3847 29.0932C13.3847 27.8214 12.35 26.7866 11.0781 26.7866C9.8062 26.7866 8.77148 27.8213 8.77148 29.0932C8.77148 30.3651 9.8063 31.3998 11.0781 31.3998ZM11.0781 28.193C11.5745 28.193 11.9785 28.5968 11.9785 29.0933C11.9785 29.5897 11.5745 29.9936 11.0781 29.9936C10.5817 29.9936 10.1777 29.5897 10.1777 29.0933C10.1777 28.5968 10.5817 28.193 11.0781 28.193Z" fill="#FF5616"/>
<path d="M15.7002 28.193H20.2275C20.6159 28.193 20.9306 27.8782 20.9306 27.4899C20.9306 27.1016 20.6159 26.7867 20.2275 26.7867H15.7002C15.3118 26.7867 14.9971 27.1016 14.9971 27.4899C14.9971 27.8782 15.3118 28.193 15.7002 28.193Z" fill="#FF5616"/>
<path d="M32.4889 26.7867H27.8672C27.4788 26.7867 27.1641 27.1016 27.1641 27.4899C27.1641 27.8782 27.4788 28.193 27.8672 28.193H32.4889C32.8773 28.193 33.192 27.8782 33.192 27.4899C33.192 27.1016 32.8772 26.7867 32.4889 26.7867Z" fill="#FF5616"/>
<path d="M23.2456 28.193H24.8491C25.2375 28.193 25.5522 27.8782 25.5522 27.4899C25.5522 27.1016 25.2375 26.7867 24.8491 26.7867H23.2456C22.8572 26.7867 22.5425 27.1016 22.5425 27.4899C22.5425 27.8782 22.8573 28.193 23.2456 28.193Z" fill="#FF5616"/>
<path d="M15.7002 31.3998H17.3979C17.7863 31.3998 18.101 31.085 18.101 30.6967C18.101 30.3083 17.7863 29.9935 17.3979 29.9935H15.7002C15.3118 29.9935 14.9971 30.3083 14.9971 30.6967C14.9971 31.085 15.3118 31.3998 15.7002 31.3998Z" fill="#FF5616"/>
<path d="M32.4888 29.9935H25.0376C24.6492 29.9935 24.3345 30.3083 24.3345 30.6967C24.3345 31.085 24.6492 31.3998 25.0376 31.3998H32.4888C32.8773 31.3998 33.192 31.085 33.192 30.6967C33.192 30.3083 32.8772 29.9935 32.4888 29.9935Z" fill="#FF5616"/>
<path d="M19.7129 30.6967C19.7129 31.085 20.0276 31.3998 20.416 31.3998H22.0194C22.4078 31.3998 22.7225 31.085 22.7225 30.6967C22.7225 30.3083 22.4078 29.9935 22.0194 29.9935H20.416C20.0276 29.9935 19.7129 30.3083 19.7129 30.6967Z" fill="#FF5616"/>
<path d="M11.0781 37.6249C12.3499 37.6249 13.3847 36.5902 13.3847 35.3182C13.3847 34.0464 12.35 33.0117 11.0781 33.0117C9.8062 33.0117 8.77148 34.0464 8.77148 35.3182C8.77148 36.5902 9.8063 37.6249 11.0781 37.6249ZM11.0781 34.418C11.5745 34.418 11.9785 34.8218 11.9785 35.3182C11.9785 35.8147 11.5745 36.2186 11.0781 36.2186C10.5817 36.2186 10.1777 35.8147 10.1777 35.3182C10.1777 34.8219 10.5817 34.418 11.0781 34.418Z" fill="#FF5616"/>
<path d="M20.9306 33.7148C20.9306 33.3265 20.6159 33.0117 20.2275 33.0117H15.7002C15.3118 33.0117 14.9971 33.3265 14.9971 33.7148C14.9971 34.1032 15.3118 34.418 15.7002 34.418H20.2275C20.6158 34.418 20.9306 34.1033 20.9306 33.7148Z" fill="#FF5616"/>
<path d="M32.4889 33.0117H27.8672C27.4788 33.0117 27.1641 33.3265 27.1641 33.7148C27.1641 34.1032 27.4788 34.418 27.8672 34.418H32.4889C32.8773 34.418 33.192 34.1032 33.192 33.7148C33.192 33.3265 32.8772 33.0117 32.4889 33.0117Z" fill="#FF5616"/>
<path d="M23.2456 34.418H24.8491C25.2375 34.418 25.5522 34.1032 25.5522 33.7148C25.5522 33.3265 25.2375 33.0117 24.8491 33.0117H23.2456C22.8572 33.0117 22.5425 33.3265 22.5425 33.7148C22.5425 34.1032 22.8573 34.418 23.2456 34.418Z" fill="#FF5616"/>
<path d="M15.7002 36.2186C15.3118 36.2186 14.9971 36.5334 14.9971 36.9218C14.9971 37.3101 15.3118 37.6249 15.7002 37.6249H17.3979C17.7863 37.6249 18.101 37.3101 18.101 36.9218C18.101 36.5334 17.7863 36.2186 17.3979 36.2186H15.7002Z" fill="#FF5616"/>
<path d="M25.0376 37.6249H32.4888C32.8773 37.6249 33.192 37.3101 33.192 36.9218C33.192 36.5334 32.8773 36.2186 32.4888 36.2186H25.0376C24.6492 36.2186 24.3345 36.5334 24.3345 36.9218C24.3345 37.3101 24.6493 37.6249 25.0376 37.6249Z" fill="#FF5616"/>
<path d="M20.416 37.6249H22.0194C22.4078 37.6249 22.7225 37.3101 22.7225 36.9218C22.7225 36.5334 22.4078 36.2186 22.0194 36.2186H20.416C20.0276 36.2186 19.7129 36.5334 19.7129 36.9218C19.7129 37.3101 20.0276 37.6249 20.416 37.6249Z" fill="#FF5616"/>
</svg>
