<svg width="48" height="48" viewBox="0 0 48 48" fill="none" xmlns="http://www.w3.org/2000/svg">
<g clip-path="url(#clip0)">
<path d="M12.3582 10.2503C11.458 9.31994 10.2176 8.79625 8.923 8.79995H8.6766C7.3833 8.79735 6.14471 9.32094 5.24541 10.2503C4.39941 11.1201 3.95021 12.3006 4.00381 13.5127L4.09741 15.6663C4.23921 18.1307 6.30131 20.0435 8.7694 19.9999H8.8302C11.2983 20.0435 13.3604 18.1307 13.5022 15.6663L13.5998 13.5127C13.6534 12.3006 13.2042 11.1201 12.3582 10.2503ZM11.9038 15.5999C11.7954 17.2062 10.4396 18.4413 8.8302 18.3999H8.7694C7.16 18.4413 5.80421 17.2062 5.69581 15.5999L5.66781 14.9463C7.1928 14.8784 8.6571 14.3289 9.8502 13.3767C10.3422 14.1043 11.0849 14.6252 11.9366 14.8399L11.9038 15.5999ZM10.9006 11.8183C10.8561 11.4771 10.5983 11.2026 10.2606 11.1367C9.9241 11.0671 9.5811 11.2221 9.411 11.5207C9.4006 11.5375 8.4078 13.1079 5.60621 13.3479C5.59931 12.6067 5.88441 11.8926 6.39981 11.3599C6.9971 10.7444 7.8189 10.3979 8.6766 10.3999H8.923C9.7807 10.3979 10.6025 10.7444 11.1998 11.3599C11.6665 11.8462 11.9435 12.4837 11.9806 13.1567C11.427 12.9093 11.0254 12.4117 10.9006 11.8183Z" fill="#FF5616"/>
<path d="M43.5579 29.4503C42.6577 28.5199 41.4173 27.9962 40.1227 27.9999H39.8763C38.583 27.9973 37.3444 28.5209 36.4451 29.4503C35.5991 30.3201 35.1498 31.5006 35.2035 32.7127L35.2971 34.8663C35.4389 37.3307 37.501 39.2435 39.9691 39.1999H40.0299C42.498 39.2435 44.5601 37.3307 44.7019 34.8663L44.7995 32.7127C44.8531 31.5006 44.4039 30.3201 43.5579 29.4503ZM43.1995 32.6479L43.1035 34.7999C42.9951 36.4062 41.6393 37.6413 40.0299 37.5999H39.9691C38.3597 37.6413 37.0039 36.4062 36.8955 34.7999L36.7995 32.6439C36.7686 31.8688 37.0579 31.1152 37.5995 30.5599C38.1968 29.9444 39.0186 29.5979 39.8763 29.5999H40.1227C40.9804 29.5979 41.8022 29.9444 42.3995 30.5599C42.9421 31.1162 43.2315 31.8715 43.1995 32.6479Z" fill="#FF5616"/>
<path d="M24.7133 11.6343C23.8549 10.804 22.4927 10.804 21.6343 11.6343L12.7032 20.5655C12.553 20.7157 12.3492 20.8001 12.1368 20.7999H3.99999C1.792 20.8025 0.00259999 22.5919 0 24.7999V35.9999C0 37.3254 1.0745 38.3999 2.39999 38.3999C2.67249 38.3999 2.94299 38.3536 3.19999 38.2631V39.1999C3.19999 39.6417 3.55819 39.9999 3.99999 39.9999H13.6C14.0418 39.9999 14.4 39.6417 14.4 39.1999V26.2287C14.3999 26.0263 14.4765 25.8313 14.6144 25.6831L24.7655 14.7655C25.6158 13.8865 25.5924 12.4846 24.7133 11.6343ZM23.623 13.6468C23.6201 13.6496 23.6172 13.6524 23.6143 13.6551L13.44 24.5943C13.028 25.0388 12.7993 25.6226 12.8 26.2287V38.3999H4.79999V26.3999C4.79999 25.9581 4.44179 25.5999 3.99999 25.5999C3.55819 25.5999 3.19999 25.9581 3.19999 26.3999V35.9999C3.19999 36.4417 2.84179 36.7999 2.39999 36.7999C1.95819 36.7999 1.6 36.4417 1.6 35.9999V24.7999C1.6 23.4744 2.67449 22.3999 3.99999 22.3999H12.1368C12.7739 22.4019 13.3853 22.1487 13.8344 21.6967L22.7655 12.7655C23.009 12.5345 23.3908 12.5345 23.6343 12.7655C23.8745 13.012 23.8695 13.4066 23.623 13.6468Z" fill="#FF5616"/>
<path d="M8.8 23.2C8.3582 23.2 8 23.5582 8 23.9999V33.5999C8 34.0417 8.3582 34.3999 8.8 34.3999C9.2418 34.3999 9.6 34.0417 9.6 33.5999V23.9999C9.6 23.5582 9.2418 23.2 8.8 23.2Z" fill="#FF5616"/>
<path d="M25.9543 29.4504C25.055 28.521 23.8164 27.9974 22.5231 28H22.2767C20.9834 27.9974 19.7448 28.521 18.8455 29.4504C17.9995 30.3202 17.5502 31.5007 17.6039 32.7128L17.6975 34.8664C17.8393 37.3308 19.9014 39.2436 22.3695 39.2H22.4303C24.8984 39.2436 26.9605 37.3308 27.1023 34.8664L27.1959 32.7128C27.2496 31.5007 26.8003 30.3202 25.9543 29.4504ZM25.5999 32.648L25.5039 34.8C25.3955 36.4063 24.0397 37.6414 22.4303 37.6H22.3695C20.7601 37.6414 19.4043 36.4063 19.2959 34.8L19.1999 32.644C19.169 31.8689 19.4583 31.1153 19.9999 30.56C20.5972 29.9445 21.419 29.598 22.2767 29.6H22.5231C23.3808 29.598 24.2026 29.9445 24.7999 30.56C25.3425 31.1163 25.6319 31.8716 25.5999 32.648Z" fill="#FF5616"/>
<path d="M26.5335 39.9999H18.2663C16.1319 40.0021 14.4021 41.7319 14.3999 43.8663V47.1999C14.3999 47.6417 14.7581 47.9999 15.1999 47.9999C15.6417 47.9999 15.9999 47.6417 15.9999 47.1999V43.8663C16.0012 42.6151 17.0152 41.6012 18.2663 41.5999H26.5335C27.7847 41.6012 28.7986 42.6151 28.7999 43.8663V47.1999C28.7999 47.6417 29.1581 47.9999 29.5999 47.9999C30.0417 47.9999 30.3999 47.6417 30.3999 47.1999V43.8663C30.3977 41.7319 28.6679 40.0021 26.5335 39.9999Z" fill="#FF5616"/>
<path d="M44.1336 39.9999H35.8664C33.732 40.0021 32.0022 41.7319 32 43.8663V47.1999C32 47.6417 32.3582 47.9999 32.8 47.9999C33.2418 47.9999 33.6 47.6417 33.6 47.1999V43.8663C33.6013 42.6151 34.6153 41.6012 35.8664 41.5999H44.1336C45.3848 41.6012 46.3987 42.6151 46.4 43.8663V47.1999C46.4 47.6417 46.7582 47.9999 47.2 47.9999C47.6418 47.9999 48 47.6417 48 47.1999V43.8663C47.9978 41.7319 46.268 40.0021 44.1336 39.9999Z" fill="#FF5616"/>
<path d="M45.6402 0H17.5603C16.2466 0.0128 15.191 1.0863 15.2003 2.39999V14.4C15.2003 14.8418 15.5585 15.2 16.0003 15.2C16.4421 15.2 16.8003 14.8418 16.8003 14.4V4.79999H46.4002V23.9999C46.4105 24.4304 46.0707 24.7881 45.6402 24.7999H18.3402C17.8984 24.7999 17.5403 25.1581 17.5403 25.5999C17.5403 26.0417 17.8984 26.3999 18.3402 26.3999H45.6402C46.9539 26.3871 48.0095 25.3136 48.0002 23.9999V2.39999C48.0095 1.0863 46.9539 0.0128 45.6402 0ZM46.4002 3.19999H16.8003V2.39999C16.79 1.9695 17.1298 1.6118 17.5603 1.6H45.6402C46.0707 1.6118 46.4105 1.9695 46.4002 2.39999V3.19999Z" fill="#FF5616"/>
<path d="M44.0002 10.2C43.5584 10.2 43.2002 10.5582 43.2002 10.9999V22.3999C43.2002 22.8417 43.5584 23.1999 44.0002 23.1999C44.442 23.1999 44.8002 22.8417 44.8002 22.3999V10.9999C44.8002 10.5582 44.442 10.2 44.0002 10.2Z" fill="#FF5616"/>
<path d="M40.8 15.2C40.3582 15.2 40 15.5582 40 15.9999V22.3999C40 22.8417 40.3582 23.1999 40.8 23.1999C41.2418 23.1999 41.6 22.8417 41.6 22.3999V15.9999C41.6 15.5582 41.2418 15.2 40.8 15.2Z" fill="#FF5616"/>
<path d="M37.5998 13.6C37.158 13.6 36.7998 13.9582 36.7998 14.4V22.4C36.7998 22.8418 37.158 23.2 37.5998 23.2C38.0416 23.2 38.3998 22.8418 38.3998 22.4V14.4C38.3998 13.9582 38.0416 13.6 37.5998 13.6Z" fill="#FF5616"/>
<path d="M34.4001 18.3999C33.9583 18.3999 33.6001 18.7581 33.6001 19.1999V22.3999C33.6001 22.8417 33.9583 23.1999 34.4001 23.1999C34.8419 23.1999 35.2001 22.8417 35.2001 22.3999V19.1999C35.2001 18.7581 34.8419 18.3999 34.4001 18.3999Z" fill="#FF5616"/>
<path d="M44.4444 6.53436C44.0768 6.28916 43.58 6.38836 43.3348 6.75596L40.6036 10.8519L38.0804 8.95995C37.7283 8.69305 37.2265 8.76225 36.9596 9.11435C36.9292 9.15445 36.9027 9.19725 36.8804 9.24235L33.7652 15.4735L30.7204 17.7599C30.367 18.025 30.2954 18.5264 30.5604 18.8799C30.8255 19.2334 31.3269 19.305 31.6804 19.0399L34.8804 16.6399C34.9812 16.5657 35.0634 16.469 35.1204 16.3575L37.8908 10.8151L40.3204 12.6399C40.6738 12.905 41.1753 12.8335 41.4404 12.48C41.4493 12.4682 41.4578 12.4561 41.466 12.4439L44.666 7.64396C44.9112 7.27636 44.812 6.77956 44.4444 6.53436Z" fill="#FF5616"/>
<path d="M28.7999 6.40002H19.1999C18.7581 6.40002 18.3999 6.75822 18.3999 7.20002C18.3999 7.64182 18.7581 8.00002 19.1999 8.00002H28.7999C29.2417 8.00002 29.5999 7.64182 29.5999 7.20002C29.5999 6.75822 29.2417 6.40002 28.7999 6.40002Z" fill="#FF5616"/>
<path d="M33.5997 6.40002H31.9997C31.5579 6.40002 31.1997 6.75822 31.1997 7.20002C31.1997 7.64182 31.5579 8.00002 31.9997 8.00002H33.5997C34.0415 8.00002 34.3997 7.64182 34.3997 7.20002C34.3997 6.75822 34.0415 6.40002 33.5997 6.40002Z" fill="#FF5616"/>
</g>
<defs>
<clipPath id="clip0">
<rect width="48" height="48" fill="white"/>
</clipPath>
</defs>
</svg>
