<svg width="48" height="48" viewBox="0 0 48 48" fill="none" xmlns="http://www.w3.org/2000/svg">
<g clip-path="url(#clip0)">
<path d="M47.2969 39.553C46.9085 39.553 46.5938 39.8679 46.5938 40.2562V44.9543C46.5938 45.0195 46.5407 45.0727 46.4754 45.0727H43.8037V34.7998C43.8037 34.4115 43.489 34.0967 43.1005 34.0967C42.7121 34.0967 42.3974 34.4115 42.3974 34.7998V45.0728H37.2346L38.632 43.5355C38.8478 43.2981 38.9495 42.9608 38.9042 42.6334C38.9032 42.6264 38.9021 42.6194 38.9009 42.6124L37.3302 33.3315L37.6192 32.8964L37.6945 32.9499C37.9522 33.133 38.2809 33.1997 38.5989 33.1203C38.9111 33.0422 39.1728 32.8321 39.3166 32.5441V32.544L40.915 29.3405L44.566 30.7545C44.7101 30.8172 46.5934 31.6807 46.5934 33.9275V36.9747C46.5935 37.3631 46.9082 37.678 47.2966 37.678C47.685 37.678 47.9997 37.3631 47.9997 36.9748V33.9276C47.9997 30.6829 45.2168 29.5016 45.0984 29.4528C45.0939 29.4509 45.0895 29.4492 45.0849 29.4475L38.8677 27.0396V25.759C39.8382 24.9782 40.5198 23.853 40.7245 22.5702C41.2085 22.5094 41.6575 22.3156 42.0302 21.9951C42.5646 21.5356 42.8712 20.8668 42.8712 20.1606C42.8712 19.5969 42.6756 19.0575 42.3252 18.629V16.7317C42.3252 13.0187 39.3044 9.99795 35.5916 9.99795C33.9246 9.99795 32.3983 10.6081 31.2211 11.6151C31.2059 11.0764 31.0131 10.563 30.677 10.152V8.25476C30.677 4.54171 27.6562 1.521 23.9433 1.521C20.2303 1.521 17.2096 4.5418 17.2096 8.25476V10.2015C16.8716 10.6054 16.6825 11.0923 16.6658 11.6091C15.9147 10.9672 15.0157 10.4839 14.0138 10.2201C13.6377 10.1211 13.2536 10.3455 13.1547 10.721C13.0558 11.0966 13.28 11.4813 13.6556 11.5802C15.9912 12.1952 17.6224 14.3136 17.6224 16.7316V17.7832C17.5921 17.7769 17.4946 17.7602 17.4908 17.7596C17.4812 17.5611 17.431 17.4399 17.3228 17.2843C17.1428 17.0256 16.8196 16.7034 15.7799 15.5859C15.4094 15.1879 14.8101 15.1149 14.3553 15.4123C12.5745 16.5755 10.411 17.1684 8.40327 17.0506C7.74927 17.0122 7.3408 17.2996 7.16671 17.7705C7.15114 17.773 6.97724 17.8081 6.96758 17.8104V16.7316C6.96758 14.4002 8.52552 12.3027 10.7561 11.6308C11.1279 11.5189 11.3386 11.1266 11.2266 10.7547C11.1146 10.3828 10.7218 10.1721 10.3504 10.2843C8.99389 10.6928 7.77449 11.5435 6.91714 12.6794C6.02999 13.8544 5.56115 15.2557 5.56115 16.7317V18.6785C5.20696 19.1017 5.01543 19.616 5.01543 20.1606C5.01543 21.3644 5.9023 22.4142 7.16586 22.5707C7.37286 23.8235 8.05255 25.0249 9.12523 25.8418V27.04L2.91496 29.4477C2.91056 29.4493 2.90615 29.4511 2.90174 29.4529C2.78306 29.5016 0 30.6828 0 33.9275V44.9543C0 45.7951 0.683999 46.479 1.52484 46.479H23.1783C23.481 46.479 23.7625 46.3893 24 46.2367C24.2374 46.3893 24.519 46.479 24.8218 46.479H46.4754C47.3161 46.479 48.0001 45.7951 48.0001 44.9543V40.2562C48 39.8679 47.6853 39.553 47.2969 39.553ZM7.09705 21.1179C6.68483 20.9683 6.42149 20.587 6.42149 20.1604C6.42149 19.7467 6.72149 19.4068 7.09705 19.2454V21.1179ZM39.598 28.8304L38.2178 31.5966C38.2176 31.5964 36.6847 30.5077 36.6629 30.4922C37.3242 29.6758 37.0136 30.0594 38.3887 28.3621L39.598 28.8304ZM35.6465 29.5127L33.828 27.2681V26.5935C34.4191 26.7979 35.0559 26.8922 35.6552 26.8924C35.6553 26.8924 35.6555 26.8924 35.6556 26.8924H35.6557C36.2754 26.8923 36.9027 26.7747 37.4615 26.5644V27.2724L35.6465 29.5127ZM36.4721 32.0817L36.2134 32.4711H35.0799L34.8212 32.0817L35.6467 31.4955L36.4721 32.0817ZM23.9982 21.0357L22.1797 18.791V18.1165C22.7685 18.32 23.4046 18.4152 24.0069 18.4154C24.007 18.4154 24.0072 18.4154 24.0073 18.4154H24.0074C24.6259 18.4154 25.2532 18.2981 25.8132 18.0874V18.7953L23.9982 21.0357ZM24.8236 23.6049L24.565 23.9942H23.4315L23.1728 23.6049L23.9983 23.0187L24.8236 23.6049ZM18.461 14.0263C18.576 14.0576 18.6941 14.0789 18.814 14.0937C19.021 15.3465 19.7007 16.5479 20.7734 17.3647V18.5629L19.3389 19.119C19.2557 18.9443 19.1518 18.7798 19.0284 18.6289V16.7317C19.0284 15.7775 18.8274 14.8603 18.461 14.0263ZM27.7346 13.2817C27.7346 15.3398 26.0557 17.0088 24.0074 17.0088C21.6963 17.0088 20.1519 15.2177 20.1519 13.2817V9.9881C22.3722 10.077 24.6787 9.41895 26.5645 8.2452C27.1985 8.92508 27.5758 9.32004 27.7347 9.50342C27.7346 11.254 27.7346 11.9299 27.7346 13.2817ZM29.0762 14.0932C29.1955 14.0782 29.313 14.0568 29.4273 14.0256C29.0621 14.8544 28.8577 15.7694 28.8577 16.7317V18.6784C28.7496 18.8075 28.6566 18.9451 28.5796 19.0893L27.2195 18.5626V17.282C28.1899 16.5012 28.8716 15.3759 29.0762 14.0932ZM21.2536 19.8862L22.9797 22.0168L21.8026 22.8528C21.8019 22.8533 21.8014 22.8538 21.8008 22.8542L21.4272 23.1196L20.0469 20.3536L21.2536 19.8862ZM25.6165 21.2722L26.7403 19.8851L27.9495 20.3534L26.5695 23.1196L26.195 22.8538C26.1946 22.8535 26.1943 22.8531 26.1939 22.8528L25.0146 22.0152L25.6165 21.2722ZM25.9709 24.4195L26.0461 24.4729C26.309 24.6597 26.6389 24.7214 26.9505 24.6434C27.2628 24.5653 27.5245 24.3552 27.6683 24.0672V24.0671L28.855 21.6887C29.2627 22.1912 29.8524 22.4969 30.4597 22.5727C30.6742 23.9171 31.4009 25.0644 32.4218 25.8418V27.0399L26.4439 29.3575L25.6817 24.8547L25.9709 24.4195ZM32.9019 28.3632L34.628 30.4937C33.8733 31.0299 33.1146 31.5688 33.0755 31.5966L31.6952 28.8305L32.9019 28.3632ZM39.3828 21.7588C39.383 23.7666 37.7524 25.4859 35.6557 25.4859C33.2658 25.4859 31.8002 23.6141 31.8002 21.7588V18.4652C34.0047 18.5532 36.3142 17.9039 38.2127 16.7222C38.8467 17.4021 39.224 17.7971 39.3829 17.9805C39.3828 19.731 39.3828 20.407 39.3828 21.7588ZM41.465 20.1605C41.465 20.5878 41.2008 20.9684 40.7894 21.1179V19.2051C41.2147 19.36 41.465 19.7486 41.465 20.1605ZM30.264 16.7316C30.264 13.7941 32.654 11.4042 35.5915 11.4042C38.529 11.4042 40.9188 13.7942 40.9188 16.7316V17.7832C40.8868 17.7766 40.7989 17.7614 40.7872 17.7596C40.7776 17.5609 40.7271 17.4394 40.6192 17.2843C40.4344 17.0189 40.1147 16.7022 39.0762 15.5859C38.7136 15.1967 38.1157 15.109 37.6516 15.4123C35.9191 16.544 33.7303 17.1833 31.6474 17.048C31.0623 17.0097 30.6385 17.2962 30.4631 17.7706C30.4474 17.7731 30.2738 17.8082 30.2639 17.8105V16.7316H30.264ZM30.3939 19.2455V21.117C29.9804 20.9679 29.7183 20.5856 29.7183 20.1604C29.7182 19.7467 30.018 19.407 30.3939 19.2455ZM29.8165 11.6836C29.8165 11.9796 29.6883 12.2597 29.4649 12.4518C29.369 12.5343 29.2597 12.5976 29.1409 12.6408V10.7281C29.5614 10.8807 29.8165 11.2672 29.8165 11.6836ZM23.9431 2.92724C26.8806 2.92724 29.2705 5.31711 29.2705 8.25467V9.30626C29.2387 9.2997 29.1506 9.28442 29.1389 9.28264C29.1284 9.06729 29.0664 8.93492 28.9397 8.76364C28.7515 8.50883 28.4044 8.15848 27.4279 7.10886C27.0592 6.71295 26.4603 6.63655 26.0033 6.93524C24.1737 8.13055 21.9541 8.71226 19.9424 8.56817C19.4502 8.53095 18.9868 8.82833 18.8148 9.29342C18.7992 9.29595 18.6255 9.33101 18.6157 9.33336V8.25476H18.6156C18.6156 5.31711 21.0056 2.92724 23.9431 2.92724ZM18.7454 10.7685V12.6409C18.3332 12.4913 18.0698 12.11 18.0698 11.6835C18.0698 11.2721 18.3675 10.9309 18.7454 10.7685ZM17.4925 19.2051C17.8859 19.3483 18.1385 19.6915 18.1636 20.0994C18.1951 20.553 17.9163 20.9631 17.4925 21.1171V19.2051ZM17.4273 22.5725C18.0905 22.4895 18.6992 22.14 19.0984 21.6024L20.3282 24.0671C20.3282 24.0671 20.3282 24.0671 20.3283 24.0672C20.4721 24.3553 20.7337 24.5653 21.046 24.6434C21.3547 24.7205 21.685 24.6615 21.9504 24.4729L22.0257 24.4195L22.3147 24.8546L21.5528 29.3562L15.5712 27.0395V25.7594H15.5711C16.567 24.9565 17.2275 23.8219 17.4273 22.5725ZM12.3497 29.5127L10.5312 27.2681V26.5935C11.1199 26.7971 11.7561 26.8922 12.3585 26.8923C12.3586 26.8923 12.3588 26.8923 12.3589 26.8923C12.9875 26.8923 13.6138 26.7716 14.1647 26.5644V27.2724L12.3497 29.5127ZM13.1752 32.0817L12.9166 32.4711H11.783L11.5244 32.0817L12.3499 31.4955L13.1752 32.0817ZM15.0918 28.3621L16.3011 28.8305L14.9209 31.5966L14.5465 31.3307C14.5461 31.3304 14.5458 31.3301 14.5454 31.3298L13.3661 30.4922L15.0918 28.3621ZM8.50339 21.7588V18.4652C10.7355 18.5543 13.0435 17.8876 14.9159 16.7222C15.5439 17.3957 15.927 17.7969 16.0861 17.9805C16.0861 19.7311 16.0861 20.4071 16.0861 21.7588C16.0861 23.8037 14.4187 25.4859 12.3589 25.4859C10.0655 25.4859 8.50339 23.7152 8.50339 21.7588ZM9.60514 28.3632L11.3313 30.4937L10.1541 31.3298C10.1535 31.3302 10.153 31.3307 10.1524 31.3312L9.77876 31.5966L8.39848 28.8305L9.60514 28.3632ZM5.60277 45.0728V34.7998C5.60277 34.4115 5.28805 34.0967 4.89965 34.0967C4.51124 34.0967 4.19652 34.4115 4.19652 34.7998V45.0728H1.52484C1.4594 45.0728 1.40634 45.0196 1.40634 44.9543V33.9275C1.40634 31.6692 3.30918 30.8083 3.43237 30.7551L7.08121 29.3405L8.67973 32.544C8.67973 32.544 8.67973 32.544 8.67983 32.5441C8.82355 32.8322 9.0852 33.0422 9.39758 33.1203C9.70629 33.1975 10.0366 33.1384 10.302 32.9499L10.3773 32.8964L10.6663 33.3315L9.09551 42.6124C9.0943 42.6193 9.09326 42.6264 9.09223 42.6334C9.04705 42.9607 9.14876 43.2979 9.36467 43.5357L10.7618 45.0728H5.60277V45.0728ZM10.5068 42.7013L12.0002 33.8774H12.6994L14.1929 42.7013L12.3499 44.7288L10.5068 42.7013ZM23.2967 44.9543C23.2967 45.0196 23.2437 45.0728 23.1783 45.0728H20.5068V34.7998C20.5068 34.4115 20.1921 34.0967 19.8037 34.0967C19.4153 34.0967 19.1006 34.4115 19.1006 34.7998V45.0728H13.9378L15.3351 43.5355C15.5509 43.2981 15.6527 42.9608 15.6074 42.6334C15.6063 42.6264 15.6053 42.6194 15.6041 42.6124L14.0333 33.3315L14.3223 32.8964L14.3976 32.9499C14.5858 33.0836 14.8085 33.1533 15.0346 33.1533C15.447 33.1533 15.8311 32.9222 16.0199 32.5441V32.544L17.6182 29.3406L21.2693 30.7546C22.3336 31.2176 23.2966 32.4115 23.2966 33.9275V44.9543H23.2967ZM24 31.3724C23.7087 30.9031 23.3209 30.4689 22.8535 30.0983L23.6486 25.4006H24.3479L25.1433 30.1007C24.6634 30.4818 24.2807 30.92 24 31.3724ZM28.8995 45.0728V34.7998C28.8995 34.4115 28.5848 34.0967 28.1964 34.0967C27.808 34.0967 27.4933 34.4115 27.4933 34.7998V45.0728H24.8217C24.7563 45.0728 24.7032 45.0196 24.7032 44.9543V33.9275C24.7032 33.0916 24.9653 32.3217 25.5237 31.675C25.896 31.2479 26.3897 30.9022 26.7293 30.7551L30.3781 29.3404L31.9767 32.544C31.9767 32.544 31.9767 32.544 31.9768 32.5441C32.1205 32.8322 32.3821 33.0422 32.6944 33.1203C33.0031 33.1975 33.3334 33.1384 33.5988 32.9499L33.6741 32.8964L33.9631 33.3315L32.3923 42.6124C32.3911 42.6193 32.3901 42.6264 32.3891 42.6334C32.3439 42.9607 32.4456 43.2979 32.6615 43.5357L34.0587 45.0728H28.8995V45.0728ZM33.8036 42.7014L35.297 33.8775H35.9963L37.4897 42.7014L35.6466 44.7289L33.8036 42.7014Z" fill="#FF5616"/>
</g>
<defs>
<clipPath id="clip0">
<rect width="48" height="48" fill="white"/>
</clipPath>
</defs>
</svg>
