<svg width="48" height="48" viewBox="0 0 48 48" fill="none" xmlns="http://www.w3.org/2000/svg">
<path d="M32.25 34.5H29.4998L27 32.625V30.552C27.5884 30.1411 28.0864 29.6139 28.4631 29.0029C28.8397 28.392 29.0871 27.7103 29.19 27H30C30.3978 27 30.7794 26.842 31.0607 26.5607C31.342 26.2794 31.5 25.8978 31.5 25.5V24.75C31.4996 24.4014 31.3778 24.0638 31.1555 23.7953C30.9332 23.5268 30.6244 23.344 30.282 23.2785L31.2803 22.2803C31.4209 22.1396 31.5 21.9489 31.5 21.75V21C31.5026 20.0777 31.2587 19.1714 30.7935 18.375C30.3324 17.5779 29.67 16.9158 28.8726 16.4552C28.0753 15.9945 27.1709 15.7513 26.25 15.75H21.75C20.8304 15.7507 19.9271 15.9929 19.1305 16.4523C18.3339 16.9118 17.672 17.5725 17.211 18.3682C16.7433 19.1663 16.4978 20.075 16.5 21V21.75C16.5 21.9489 16.5791 22.1396 16.7197 22.2803L17.718 23.2785C17.3756 23.344 17.0668 23.5268 16.8445 23.7953C16.6222 24.0638 16.5004 24.4014 16.5 24.75V25.5C16.5 25.8978 16.658 26.2794 16.9393 26.5607C17.2206 26.842 17.6022 27 18 27H18.81C18.9129 27.7103 19.1603 28.392 19.5369 29.0029C19.9136 29.6139 20.4116 30.1411 21 30.552V32.625L18.5002 34.5H15.75C15.1533 34.5 14.581 34.7371 14.159 35.159C13.7371 35.581 13.5 36.1533 13.5 36.75V45.75C13.5 45.9489 13.579 46.1397 13.7197 46.2803C13.8603 46.421 14.0511 46.5 14.25 46.5H33.75C33.9489 46.5 34.1397 46.421 34.2803 46.2803C34.421 46.1397 34.5 45.9489 34.5 45.75V36.75C34.5 36.1533 34.2629 35.581 33.841 35.159C33.419 34.7371 32.8467 34.5 32.25 34.5ZM30 25.5H29.25V24.75H30V25.5ZM18 21C17.9958 20.3405 18.1713 19.6923 18.5078 19.125C18.8364 18.5557 19.309 18.0828 19.878 17.7537C20.4471 17.4247 21.0926 17.2509 21.75 17.25H26.25C26.9088 17.2508 27.5557 17.4252 28.1257 17.7555C28.6957 18.0859 29.1685 18.5605 29.4967 19.1318C29.8307 19.6974 30.0047 20.3431 30 21V21.4395L29.25 22.1895V21.75C29.25 21.5827 29.194 21.4202 29.091 21.2884C28.988 21.1566 28.8438 21.063 28.6815 21.0225L22.6815 19.5225C22.5081 19.4784 22.3246 19.4983 22.1647 19.5787L19.1647 21.0787C19.0401 21.141 18.9352 21.2369 18.862 21.3554C18.7887 21.474 18.7499 21.6106 18.75 21.75V22.1895L18 21.4395V21ZM18 24.75H18.75V25.5H18V24.75ZM20.25 26.25V22.2135L22.587 21.045L27.75 22.3358V26.25C27.75 27.2446 27.3549 28.1984 26.6517 28.9017C25.9484 29.6049 24.9946 30 24 30C23.0054 30 22.0516 29.6049 21.3483 28.9017C20.6451 28.1984 20.25 27.2446 20.25 26.25ZM22.2 33.6C22.2931 33.5301 22.3687 33.4396 22.4208 33.3354C22.4729 33.2313 22.5 33.1164 22.5 33V31.275C23.4782 31.57 24.5218 31.57 25.5 31.275V33C25.5 33.1164 25.5271 33.2313 25.5792 33.3354C25.6312 33.4396 25.7069 33.5301 25.8 33.6L27.8872 35.1653L24 37.3867L20.1127 35.1653L22.2 33.6ZM28.1918 36.7185L27.2557 41.4C27.2211 41.5695 27.129 41.7219 26.9949 41.8312C26.8608 41.9406 26.693 42.0002 26.52 42H21.48C21.307 42.0002 21.1392 41.9406 21.0051 41.8312C20.871 41.7219 20.7789 41.5695 20.7443 41.4L19.8082 36.7215L23.628 38.904C23.7413 38.9687 23.8695 39.0028 24 39.0028C24.1305 39.0028 24.2587 38.9687 24.372 38.904L28.1918 36.7185ZM33 45H15V36.75C15 36.5511 15.079 36.3603 15.2197 36.2197C15.3603 36.079 15.5511 36 15.75 36H18.135L19.275 41.691C19.378 42.2004 19.6536 42.6585 20.0554 42.9882C20.4571 43.3178 20.9603 43.4986 21.48 43.5H26.52C27.0396 43.4986 27.5427 43.3179 27.9444 42.9884C28.3462 42.659 28.6219 42.201 28.725 41.6917L29.865 36H32.25C32.4489 36 32.6397 36.079 32.7803 36.2197C32.921 36.3603 33 36.5511 33 36.75V45Z" fill="#FF5616"/>
<path d="M44.25 1.5H35.25C34.6533 1.5 34.081 1.73705 33.659 2.15901C33.2371 2.58097 33 3.15326 33 3.75V12.75C33 13.3467 33.2371 13.919 33.659 14.341C34.081 14.7629 34.6533 15 35.25 15H44.25C44.8467 15 45.419 14.7629 45.841 14.341C46.2629 13.919 46.5 13.3467 46.5 12.75V3.75C46.5 3.15326 46.2629 2.58097 45.841 2.15901C45.419 1.73705 44.8467 1.5 44.25 1.5ZM45 12.75C45 12.9489 44.921 13.1397 44.7803 13.2803C44.6397 13.421 44.4489 13.5 44.25 13.5H35.25C35.0511 13.5 34.8603 13.421 34.7197 13.2803C34.579 13.1397 34.5 12.9489 34.5 12.75V3.75C34.5 3.55109 34.579 3.36032 34.7197 3.21967C34.8603 3.07902 35.0511 3 35.25 3H44.25C44.4489 3 44.6397 3.07902 44.7803 3.21967C44.921 3.36032 45 3.55109 45 3.75V12.75Z" fill="#FF5616"/>
<path d="M38.9293 28.26L36.4498 26.4L35.5498 27.6L38.5498 29.85C38.6942 29.9583 38.8729 30.0108 39.0529 29.998C39.233 29.9852 39.4024 29.9079 39.5301 29.7802L44.0301 25.2802L42.9696 24.2197L38.9293 28.26Z" fill="#FF5616"/>
<path d="M3.75 15H12.75C13.3467 15 13.919 14.7629 14.341 14.341C14.7629 13.919 15 13.3467 15 12.75V3.75C15 3.15326 14.7629 2.58097 14.341 2.15901C13.919 1.73705 13.3467 1.5 12.75 1.5H3.75C3.15326 1.5 2.58097 1.73705 2.15901 2.15901C1.73705 2.58097 1.5 3.15326 1.5 3.75V12.75C1.5 13.3467 1.73705 13.919 2.15901 14.341C2.58097 14.7629 3.15326 15 3.75 15ZM3 3.75C3 3.55109 3.07902 3.36032 3.21967 3.21967C3.36032 3.07902 3.55109 3 3.75 3H12.75C12.9489 3 13.1397 3.07902 13.2803 3.21967C13.421 3.36032 13.5 3.55109 13.5 3.75V12.75C13.5 12.9489 13.421 13.1397 13.2803 13.2803C13.1397 13.421 12.9489 13.5 12.75 13.5H3.75C3.55109 13.5 3.36032 13.421 3.21967 13.2803C3.07902 13.1397 3 12.9489 3 12.75V3.75Z" fill="#FF5616"/>
<path d="M15 32.25V23.25C15 22.6533 14.7629 22.081 14.341 21.659C13.919 21.2371 13.3467 21 12.75 21H3.75C3.15326 21 2.58097 21.2371 2.15901 21.659C1.73705 22.081 1.5 22.6533 1.5 23.25V32.25C1.5 32.8467 1.73705 33.419 2.15901 33.841C2.58097 34.2629 3.15326 34.5 3.75 34.5H12.75C13.3467 34.5 13.919 34.2629 14.341 33.841C14.7629 33.419 15 32.8467 15 32.25ZM13.5 32.25C13.5 32.4489 13.421 32.6397 13.2803 32.7803C13.1397 32.921 12.9489 33 12.75 33H3.75C3.55109 33 3.36032 32.921 3.21967 32.7803C3.07902 32.6397 3 32.4489 3 32.25V23.25C3 23.0511 3.07902 22.8603 3.21967 22.7197C3.36032 22.579 3.55109 22.5 3.75 22.5H12.75C12.9489 22.5 13.1397 22.579 13.2803 22.7197C13.421 22.8603 13.5 23.0511 13.5 23.25V32.25Z" fill="#FF5616"/>
<path d="M7.5 11.1435V12.75H9V11.1435C9.51575 11.0094 9.98634 10.74 10.3632 10.3632C10.74 9.98634 11.0094 9.51575 11.1435 9H12.75V7.5H11.1435C11.0094 6.98425 10.74 6.51366 10.3632 6.13684C9.98634 5.76002 9.51575 5.49063 9 5.3565V3.75H7.5V5.3565C6.98425 5.49063 6.51366 5.76002 6.13684 6.13684C5.76002 6.51366 5.49063 6.98425 5.3565 7.5H3.75V9H5.3565C5.49063 9.51575 5.76002 9.98634 6.13684 10.3632C6.51366 10.74 6.98425 11.0094 7.5 11.1435ZM8.25 6.75C8.54667 6.75 8.83668 6.83797 9.08335 7.0028C9.33003 7.16762 9.52229 7.40189 9.63582 7.67598C9.74935 7.95006 9.77906 8.25166 9.72118 8.54264C9.6633 8.83361 9.52044 9.10088 9.31066 9.31066C9.10088 9.52044 8.83361 9.6633 8.54264 9.72118C8.25166 9.77906 7.95006 9.74935 7.67598 9.63582C7.40189 9.52229 7.16762 9.33003 7.0028 9.08335C6.83797 8.83668 6.75 8.54667 6.75 8.25C6.75 7.85218 6.90804 7.47064 7.18934 7.18934C7.47064 6.90804 7.85218 6.75 8.25 6.75Z" fill="#FF5616"/>
<path d="M27.2198 10.7197L28.2803 11.7802L31.2803 8.78024L31.275 8.77499C31.3466 8.7071 31.4038 8.62539 31.4429 8.53481C31.4821 8.44423 31.5025 8.34665 31.5029 8.24796C31.5034 8.14927 31.4838 8.05151 31.4454 7.9606C31.407 7.86969 31.3506 7.7875 31.2795 7.71899L28.2795 4.71899L27.2198 5.78024L28.9395 7.49999H16.5V8.99999H28.9395L27.2198 10.7197Z" fill="#FF5616"/>
<path d="M7.71973 16.7197L5.46973 18.9697L6.53023 20.0302L8.24998 18.3105L9.96973 20.0302L11.0302 18.9697L8.78023 16.7197C8.63958 16.5791 8.44885 16.5001 8.24998 16.5001C8.0511 16.5001 7.86037 16.5791 7.71973 16.7197Z" fill="#FF5616"/>
<path d="M44.25 21H35.25C34.6533 21 34.081 21.2371 33.659 21.659C33.2371 22.081 33 22.6533 33 23.25V32.25C33 32.8467 33.2371 33.419 33.659 33.841C34.081 34.2629 34.6533 34.5 35.25 34.5H44.25C44.8467 34.5 45.419 34.2629 45.841 33.841C46.2629 33.419 46.5 32.8467 46.5 32.25V23.25C46.5 22.6533 46.2629 22.081 45.841 21.659C45.419 21.2371 44.8467 21 44.25 21ZM45 32.25C45 32.4489 44.921 32.6397 44.7803 32.7803C44.6397 32.921 44.4489 33 44.25 33H35.25C35.0511 33 34.8603 32.921 34.7197 32.7803C34.579 32.6397 34.5 32.4489 34.5 32.25V23.25C34.5 23.0511 34.579 22.8603 34.7197 22.7197C34.8603 22.579 35.0511 22.5 35.25 22.5H44.25C44.4489 22.5 44.6397 22.579 44.7803 22.7197C44.921 22.8603 45 23.0511 45 23.25V32.25Z" fill="#FF5616"/>
<path d="M40.2802 20.0302L42.5302 17.7802L41.4697 16.7197L39.75 18.4395L38.0302 16.7197L36.9697 17.7802L39.2197 20.0302C39.3604 20.1708 39.5511 20.2498 39.75 20.2498C39.9489 20.2498 40.1396 20.1708 40.2802 20.0302Z" fill="#FF5616"/>
<path d="M43.5 4.5H36V6H43.5V4.5Z" fill="#FF5616"/>
<path d="M43.5 7.5H36V9H43.5V7.5Z" fill="#FF5616"/>
<path d="M43.5 10.5H36V12H43.5V10.5Z" fill="#FF5616"/>
<path d="M9 27H7.5V28.5H9V27Z" fill="#FF5616"/>
<path d="M12 27H10.5V28.5H12V27Z" fill="#FF5616"/>
<path d="M6 27H4.5V28.5H6V27Z" fill="#FF5616"/>
</svg>
