<svg width="48" height="48" viewBox="0 0 48 48" fill="none" xmlns="http://www.w3.org/2000/svg">
<path d="M10.2965 46.5196L8.88514 44.5315C8.58551 44.1093 8.00023 44.01 7.57799 44.3097C7.15583 44.6094 7.05646 45.1946 7.35627 45.6169L8.76767 47.605C8.95048 47.8625 9.23942 47.9999 9.53295 47.9999C9.72063 47.9999 9.9101 47.9436 10.0748 47.8267C10.497 47.527 10.5964 46.9418 10.2965 46.5196Z" fill="#FF5616"/>
<path d="M21.1139 46.8698L19.5779 39.549C18.831 35.9892 16.7572 32.911 13.7389 30.8814L10.4594 28.6762C9.14438 27.7922 7.37682 27.9823 6.2777 29.1031V17.8066C6.2777 16.3239 5.2668 15.0641 3.81931 14.7428C2.88509 14.5352 1.92153 14.76 1.17519 15.3588C0.428944 15.9576 0.000976562 16.8498 0.000976562 17.8066V32.3427C0.000976562 34.247 0.583724 36.0745 1.68613 37.6275L3.35796 39.9825C3.54077 40.2401 3.82971 40.3774 4.12324 40.3774C4.31093 40.3774 4.5004 40.3212 4.66511 40.2043C5.08727 39.9045 5.18664 39.3194 4.88683 38.8971L3.215 36.542C2.339 35.308 1.87597 33.8559 1.87597 32.3426V17.8066C1.87597 17.4215 2.04828 17.0623 2.34865 16.8212C2.64893 16.5802 3.03678 16.4897 3.41309 16.5733C3.99574 16.7025 4.40271 17.2097 4.40271 17.8066V29.3393C4.40271 30.9719 5.00252 32.5273 6.09217 33.7374C6.13886 33.7934 6.18686 33.8488 6.23758 33.9025C6.86017 34.5622 7.59217 35.3396 8.2816 36.0723L9.24675 37.0996C9.24985 37.1028 9.25322 37.1056 9.25641 37.1088C10.0821 37.987 10.691 38.6354 10.7037 38.6489C11.058 39.0263 11.6514 39.045 12.0289 38.6906C12.4063 38.3361 12.425 37.7429 12.0704 37.3654C12.0533 37.3472 10.9559 36.1786 9.70266 34.8466L7.55307 32.5588C7.54763 32.553 7.54267 32.5469 7.53723 32.5411C7.03323 31.9383 7.03951 31.0642 7.56779 30.4678C8.03513 29.9404 8.82863 29.8391 9.41335 30.2322L12.6926 32.4374C15.3034 34.1928 17.0969 36.8551 17.7428 39.9341L19.2789 47.2549C19.3716 47.6967 19.7613 48 20.1955 48C20.2592 48 20.324 47.9934 20.3889 47.9798C20.8956 47.8735 21.2202 47.3765 21.1139 46.8698Z" fill="#FF5616"/>
<path d="M6.94596 41.7991L6.93996 41.7906C6.63903 41.3691 6.05365 41.2713 5.63225 41.572C5.21085 41.8728 5.11297 42.4582 5.41363 42.8796L5.41963 42.8881C5.60263 43.1445 5.89091 43.2812 6.18359 43.2812C6.37203 43.2812 6.56225 43.2245 6.72734 43.1067C7.14865 42.806 7.24662 42.2205 6.94596 41.7991Z" fill="#FF5616"/>
<path d="M46.8255 15.3589C46.0793 14.7601 45.1153 14.5357 44.1815 14.7429C42.734 15.0641 41.723 16.324 41.723 17.8067V29.1032C40.624 27.9824 38.8563 27.7923 37.5413 28.6763L34.2619 30.8814C31.2434 32.9109 29.1698 35.9892 28.4229 39.549L26.8869 46.8699C26.7806 47.3766 27.1051 47.8735 27.6118 47.9798C27.6767 47.9934 27.7416 48 27.8052 48C28.2395 48 28.6291 47.6966 28.7218 47.2548L30.2578 39.934C30.9039 36.8551 32.6973 34.1927 35.308 32.4374L38.5875 30.2323C39.172 29.8391 39.9655 29.9404 40.433 30.4678C40.9607 31.0635 40.9677 31.9361 40.4656 32.5389C40.4596 32.5455 40.4538 32.5522 40.4478 32.5588C40.4478 32.5588 35.9474 37.3474 35.9304 37.3654C35.576 37.7429 35.5946 38.3361 35.972 38.6906C36.3494 39.045 36.9426 39.0264 37.2971 38.6489C37.3099 38.6354 41.1406 34.5623 41.7632 33.9026C41.814 33.8489 41.862 33.7935 41.9086 33.7375C42.9982 32.5274 43.5981 30.972 43.5981 29.3394V17.8066C43.5981 17.2097 44.0051 16.7025 44.5878 16.5732C44.964 16.4898 45.3518 16.5803 45.6523 16.8212C45.9526 17.0622 46.1249 17.4214 46.1249 17.8066V32.3427C46.1249 33.856 45.6619 35.3081 44.7859 36.5421L37.703 46.5196C37.4033 46.9418 37.5026 47.527 37.9248 47.8268C38.0896 47.9437 38.2789 47.9999 38.4666 47.9999C38.7601 47.9999 39.0491 47.8625 39.2319 47.605L46.3148 37.6275C47.4172 36.0746 47.9999 34.2471 47.9999 32.3428V17.8066C47.9997 16.8498 47.5718 15.9577 46.8255 15.3589Z" fill="#FF5616"/>
<path d="M35.8741 17.9681L34.2062 17.5696V17.2706C35.2903 16.5112 36.0011 15.2537 36.0011 13.8327V11.6643C36.0011 9.3507 34.1189 7.46849 31.8052 7.46849C30.7669 7.46849 29.8163 7.84836 29.0829 8.47536C28.2664 6.47568 26.3016 5.0625 24.0118 5.0625C21.7193 5.0625 19.7524 6.47934 18.9377 8.48286C18.2032 7.85136 17.2491 7.4683 16.2066 7.4683C13.8929 7.4683 12.0107 9.35051 12.0107 11.6642V11.8083V13.8325C12.0107 15.2536 12.7215 16.511 13.8056 17.2704V17.5695L12.1377 17.9679C10.1462 18.4437 8.75537 20.2059 8.75537 22.2534V24.0042C8.75537 24.522 9.17518 24.9417 9.69287 24.9417H14.0008C13.9942 25.0555 13.9896 25.1697 13.9896 25.285V28.656C13.9896 29.1738 14.4094 29.5935 14.9271 29.5935H20.5624C21.0801 29.5935 21.4999 29.1738 21.4999 28.656C21.4999 28.1382 21.0801 27.7185 20.5624 27.7185H19.5938V25.7812C19.5938 25.2634 19.174 24.8437 18.6563 24.8437C18.1386 24.8437 17.7188 25.2634 17.7188 25.7812V27.7187H15.8647V25.2851C15.8647 23.477 17.0928 21.9199 18.851 21.4986L21.4237 20.8821L23.1454 24.7991C23.295 25.1395 23.6317 25.3594 24.0035 25.3594H24.0036C24.3754 25.3594 24.7121 25.1396 24.8617 24.7992L26.5817 20.888L29.1462 21.5007C30.9061 21.9211 32.1352 23.4784 32.1352 25.2879V27.7187H30.2811V25.7812C30.2811 25.2634 29.8613 24.8437 29.3436 24.8437C28.8259 24.8437 28.4061 25.2634 28.4061 25.7812V27.7187H27.3437C26.826 27.7187 26.4062 28.1384 26.4062 28.6562C26.4062 29.174 26.826 29.5937 27.3437 29.5937H33.0728C33.5905 29.5937 34.0103 29.174 34.0103 28.6562V25.2879C34.0103 25.1717 34.0056 25.0566 33.9989 24.9419H38.319C38.8367 24.9419 39.2565 24.5222 39.2565 24.0044V22.2536C39.2565 20.2061 37.8657 18.4438 35.8741 17.9681ZM31.8052 9.3433C33.0335 9.3433 34.0419 10.3024 34.121 11.5111H32.8176C31.7219 11.5111 30.6436 11.2473 29.6743 10.7449C30.0308 9.92107 30.8519 9.3433 31.8052 9.3433ZM29.4844 13.6956C29.4855 13.65 29.4878 13.6045 29.4878 13.5586V12.7236C30.5398 13.159 31.6711 13.3861 32.8176 13.3861H34.1261V13.8326C34.1261 15.1123 33.085 16.1535 31.8052 16.1535C30.5254 16.1535 29.4844 15.1123 29.4844 13.8325V13.6956ZM20.4109 10.5384C20.4109 8.55289 22.0262 6.93749 24.0118 6.93749C25.8027 6.93749 27.2923 8.25168 27.5674 9.96617L25.9891 9.03889C25.5943 8.80695 25.0897 8.89405 24.7957 9.24514C24.0244 10.1656 22.8933 10.6935 21.6924 10.6935H20.4109V10.5384ZM16.2067 9.3433C17.16 9.3433 17.981 9.92117 18.3376 10.7449C17.3682 11.2472 16.29 11.511 15.1943 11.511H13.8909C13.97 10.3024 14.9785 9.3433 16.2067 9.3433ZM13.8858 13.386H15.1943C16.3421 13.386 17.4746 13.1584 18.5276 12.7221V13.8324C18.5276 15.1121 17.4865 16.1533 16.2067 16.1533C14.9269 16.1533 13.8858 15.1123 13.8858 13.8325V13.386ZM18.4141 19.6752C16.5697 20.1171 15.1201 21.4031 14.4302 23.0668H10.6304V22.2535C10.6304 21.0773 11.4293 20.0649 12.5733 19.7916L14.9609 19.2212C15.3829 19.1204 15.6807 18.7433 15.6807 18.3094V17.9942C15.8532 18.0159 16.0285 18.0284 16.2067 18.0284C16.3836 18.0284 16.5577 18.0161 16.7289 17.9947V18.2622C16.7282 18.2761 16.7279 18.2901 16.7278 18.3041C16.7277 18.6117 16.8789 18.913 17.1566 19.0926C17.2612 19.1604 17.3742 19.2044 17.4896 19.2265L18.8881 19.5615L18.4141 19.6752ZM21.0292 18.2198C20.7883 18.1136 20.5373 18.0286 20.2785 17.9667L18.6038 17.5653V17.2732C18.906 17.062 19.1793 16.8123 19.4163 16.5309C19.835 17.1759 20.3851 17.7274 21.0292 18.1475V18.2198ZM25.1009 19.5973L24.0038 22.0924L22.9043 19.5909V18.9219C23.2621 18.9957 23.6325 19.0346 24.0118 19.0346C24.3847 19.0346 24.7488 18.9968 25.1009 18.9254V19.5973ZM24.0118 17.1595C22.0262 17.1596 20.4109 15.5442 20.4109 13.5586V12.5684H21.6924C23.179 12.5684 24.5926 12.0155 25.676 11.0295L27.6093 12.1653V13.6957C27.5369 15.6179 25.9515 17.1595 24.0118 17.1595ZM26.9759 18.2228V18.1593C27.6252 17.7395 28.1802 17.1866 28.6022 16.5388C28.8376 16.817 29.1085 17.064 29.4079 17.2732V17.5653L27.733 17.9667C27.472 18.0293 27.2188 18.1153 26.9759 18.2228ZM37.3814 23.0668H33.5686C32.8781 21.4031 31.4275 20.1178 29.5819 19.6769L29.1112 19.5645L30.5172 19.2276C30.6342 19.2059 30.7491 19.1612 30.8552 19.0926C31.1324 18.9133 31.2831 18.6119 31.2831 18.3044C31.2831 18.297 31.283 18.2896 31.2828 18.2823V17.9947C31.4541 18.0161 31.6281 18.0284 31.805 18.0284C31.9832 18.0284 32.1586 18.0159 32.3311 17.9942V18.3094C32.3311 18.7433 32.6288 19.1204 33.0508 19.2212L35.4384 19.7916C36.5824 20.065 37.3814 21.0773 37.3814 22.2535V23.0668Z" fill="#FF5616"/>
<path d="M24.6627 27.9926C24.4875 27.8182 24.2466 27.7189 24 27.7189C23.7524 27.7189 23.5116 27.8182 23.3372 27.9926C23.1619 28.1679 23.0625 28.4089 23.0625 28.6564C23.0625 28.9029 23.1619 29.1439 23.3372 29.3192C23.5116 29.4936 23.7525 29.5939 24 29.5939C24.2466 29.5939 24.4875 29.4936 24.6627 29.3192C24.8371 29.1439 24.9375 28.9029 24.9375 28.6564C24.9375 28.4089 24.8372 28.1679 24.6627 27.9926Z" fill="#FF5616"/>
<path d="M23.999 0C23.4813 0 23.0615 0.419717 23.0615 0.937496V2.34027C23.0615 2.85805 23.4813 3.27777 23.999 3.27777C24.5167 3.27777 24.9365 2.85805 24.9365 2.34027V0.937496C24.9365 0.419717 24.5168 0 23.999 0Z" fill="#FF5616"/>
<path d="M20.5459 3.05797L19.5625 2.07547C19.1962 1.70947 18.6027 1.70975 18.2367 2.07603C17.8707 2.44231 17.8711 3.03594 18.2373 3.40184L19.2209 4.38434C19.4039 4.56724 19.6437 4.65865 19.8834 4.65865C20.1235 4.65865 20.3635 4.56696 20.5466 4.38378C20.9124 4.0175 20.9122 3.42387 20.5459 3.05797Z" fill="#FF5616"/>
<path d="M29.739 2.09947C29.3727 1.73357 28.779 1.73375 28.4132 2.10013L27.4373 3.07691C27.0714 3.44319 27.0717 4.03681 27.438 4.40271C27.6211 4.58562 27.8608 4.67703 28.1006 4.67703C28.3407 4.67703 28.5808 4.58534 28.7638 4.40206L29.7396 3.42528C30.1056 3.059 30.1053 2.46538 29.739 2.09947Z" fill="#FF5616"/>
</svg>
