<svg width="16" height="16" viewBox="0 0 16 16" fill="none" xmlns="http://www.w3.org/2000/svg">
<path d="M11.3334 5.8667H4.66669C4.51949 5.8667 4.40002 5.9859 4.40002 6.13337C4.40002 6.28083 4.51949 6.40003 4.66669 6.40003H11.3334C11.4806 6.40003 11.6 6.28083 11.6 6.13337C11.6 5.9859 11.4806 5.8667 11.3334 5.8667Z" fill="#CBD0D5"/>
<path d="M4.66669 4.26673H7.33336C7.48056 4.26673 7.60002 4.14753 7.60002 4.00007C7.60002 3.8526 7.48056 3.7334 7.33336 3.7334H4.66669C4.51949 3.7334 4.40002 3.8526 4.40002 4.00007C4.40002 4.14753 4.51949 4.26673 4.66669 4.26673Z" fill="#CBD0D5"/>
<path d="M11.3334 8H4.66669C4.51949 8 4.40002 8.1192 4.40002 8.26667C4.40002 8.41413 4.51949 8.53333 4.66669 8.53333H11.3334C11.4806 8.53333 11.6 8.41413 11.6 8.26667C11.6 8.1192 11.4806 8 11.3334 8Z" fill="#CBD0D5"/>
<path d="M11.3334 10.1333H4.66669C4.51949 10.1333 4.40002 10.2525 4.40002 10.4C4.40002 10.5474 4.51949 10.6666 4.66669 10.6666H11.3334C11.4806 10.6666 11.6 10.5474 11.6 10.4C11.6 10.2525 11.4806 10.1333 11.3334 10.1333Z" fill="#CBD0D5"/>
<path d="M11.3334 12.2666H4.66669C4.51949 12.2666 4.40002 12.3858 4.40002 12.5333C4.40002 12.6807 4.51949 12.7999 4.66669 12.7999H11.3334C11.4806 12.7999 11.6 12.6807 11.6 12.5333C11.6 12.3858 11.4806 12.2666 11.3334 12.2666Z" fill="#CBD0D5"/>
<path d="M10.3771 0H1.7334V16H14.2667V3.8896L10.3771 0ZM10.5334 0.9104L13.3563 3.73333H10.5334V0.9104ZM2.26673 15.4667V0.533333H10.0001V4.26667H13.7334V15.4667H2.26673Z" fill="#CBD0D5"/>
</svg>
