<?xml version="1.0" encoding="UTF-8"?>
<svg width="77px" height="77px" viewBox="0 0 77 77" version="1.1" xmlns="http://www.w3.org/2000/svg" xmlns:xlink="http://www.w3.org/1999/xlink">
    <!-- Generator: sketchtool 46 (44423) - http://www.bohemiancoding.com/sketch -->
    <title>75592141-041D-44F9-94AC-845492D66770</title>
    <desc>Created with sketchtool.</desc>
    <defs></defs>
    <g id="Page-1" stroke="none" stroke-width="1" fill="none" fill-rule="evenodd">
        <g id="Desktop-HD" transform="translate(-782.000000, -2295.000000)">
            <g id="Group-7" transform="translate(783.000000, 2296.000000)">
                <g id="Group-3">
                    <circle id="Oval-7" stroke="#F56107" stroke-width="2" fill-opacity="0.333220109" fill="#000000" cx="37.5" cy="37.5" r="37.5"></circle>
                    <g id="play-button" transform="translate(31.000000, 26.000000)" fill-rule="nonzero" fill="#FFFFFF">
                        <path d="M16.7630968,11.5294117 L0.859870968,0.100563018 C0.691516129,-0.0200113361 0.473258065,-0.0325830697 0.293387097,0.0651335868 C0.112967742,0.163993128 0,0.358283556 0,0.570860142 L0,23.4285576 C0,23.6411342 0.112967742,23.835996 0.293387097,23.9348556 C0.373451613,23.9782852 0.461193548,24 0.548387097,24 C0.657516129,24 0.766096774,23.9657135 0.859870968,23.8988547 L16.7630968,12.470006 C16.9117097,12.3631462 17,12.1877134 17,11.9997089 C17,11.8117043 16.9111613,11.6362715 16.7630968,11.5294117 Z" id="Shape"></path>
                    </g>
                </g>
            </g>
        </g>
    </g>
</svg>