<svg 
 xmlns="http://www.w3.org/2000/svg"
 xmlns:xlink="http://www.w3.org/1999/xlink"
 width="17px" height="16px">
<defs>
<filter id="Filter_0">
    <feFlood flood-color="rgb(255, 167, 0)" flood-opacity="1" result="floodOut" />
    <feComposite operator="atop" in="floodOut" in2="SourceGraphic" result="compOut" />
    <feBlend mode="normal" in="compOut" in2="SourceGraphic" />
</filter>

</defs>
<g filter="url(#Filter_0)">
<path fill-rule="evenodd"  fill="rgb(0, 0, 0)"
 d="M4.422,15.447 C4.217,15.447 4.013,15.384 3.840,15.261 C3.509,15.023 3.361,14.610 3.467,14.221 L4.599,10.089 L1.205,7.398 C0.886,7.145 0.759,6.724 0.885,6.340 C1.011,5.957 1.365,5.690 1.774,5.669 L6.137,5.447 L7.701,1.450 C7.847,1.074 8.214,0.826 8.623,0.826 C9.032,0.826 9.399,1.074 9.546,1.449 L11.110,5.447 L15.472,5.669 C15.882,5.690 16.235,5.957 16.361,6.340 C16.488,6.724 16.361,7.145 16.042,7.398 L12.647,10.089 L13.780,14.221 C13.886,14.610 13.738,15.023 13.407,15.261 C13.076,15.496 12.632,15.509 12.287,15.291 L8.623,12.955 L4.959,15.291 C4.795,15.395 4.609,15.447 4.422,15.447 ZM8.623,10.824 C8.810,10.824 8.997,10.876 9.160,10.980 L11.200,12.280 L10.571,9.982 C10.470,9.610 10.600,9.214 10.905,8.972 L12.787,7.481 L10.366,7.357 C9.976,7.337 9.635,7.094 9.495,6.736 L8.623,4.508 C8.623,4.508 8.623,8.587 8.623,10.824 Z"/>
</g>
</svg>