<svg width="162" height="90" viewBox="0 0 162 90" fill="none" xmlns="http://www.w3.org/2000/svg">
<path fill-rule="evenodd" clip-rule="evenodd" d="M26.7592 74.9999H25.1693V72.8747H21.0894V74.9999H19.4995V70.6185H20.1601C20.5304 69.0392 20.7119 67.2634 20.7119 65.2765V63.1003H26.0695V70.6185H26.7592V74.9999ZM24.0949 70.6185V65.5021H22.505V65.6331C22.505 66.9795 22.3598 68.6462 22.0549 70.6258H24.0949V70.6185ZM32.5597 70.0072H28.9952C29.0315 70.4439 29.1041 70.7641 29.2275 70.9824C29.4017 71.2881 29.6268 71.441 29.9026 71.441C30.0769 71.441 30.2439 71.3755 30.4036 71.2444C30.4979 71.1571 30.6068 71.0115 30.7157 70.8005L32.4653 71.0479C32.1967 71.7539 31.8773 72.2706 31.4998 72.5763C31.1223 72.882 30.5778 73.0421 29.8736 73.0421C29.2565 73.0421 28.7774 72.9111 28.4217 72.6418C28.0732 72.3798 27.7756 71.9577 27.5432 71.3827C27.3109 70.8078 27.1948 70.1309 27.1948 69.3522C27.1948 68.2459 27.4271 67.3434 27.8917 66.6593C28.3563 65.9752 28.9952 65.6331 29.8155 65.6331C30.4762 65.6331 30.9989 65.7859 31.3836 66.0916C31.7684 66.3973 32.0588 66.8412 32.262 67.4235C32.4653 68.0057 32.5597 68.7626 32.5597 69.7015V70.0072ZM30.752 68.7117C30.7157 68.1877 30.6214 67.8092 30.4762 67.5763C30.3237 67.3507 30.1277 67.2343 29.8809 67.2343C29.5977 67.2343 29.3727 67.4089 29.2057 67.751C29.0968 67.9621 29.0315 68.2823 29.0024 68.7117H30.752ZM33.38 75.5603V65.7932H35.0425V66.834C35.2748 66.39 35.4853 66.0916 35.6741 65.9388C35.9282 65.7277 36.2186 65.6258 36.5307 65.6258C37.1478 65.6258 37.627 65.9897 37.9682 66.7102C38.3094 67.438 38.4763 68.3332 38.4763 69.4031C38.4763 70.5821 38.2949 71.4846 37.9246 72.1033C37.5544 72.7219 37.0897 73.0348 36.5235 73.0348C36.2476 73.0348 36.0008 72.9621 35.7757 72.8238C35.5507 72.6782 35.3474 72.4744 35.1732 72.1906V75.5603H33.38ZM35.1587 69.3522C35.1587 69.9126 35.2385 70.3347 35.391 70.604C35.5434 70.8733 35.7394 71.0115 35.9718 71.0115C36.175 71.0115 36.3493 70.8805 36.4872 70.6185C36.6251 70.3565 36.6977 69.9126 36.6977 69.2867C36.6977 68.7117 36.6251 68.2896 36.4799 68.013C36.3347 67.7437 36.1605 67.6054 35.95 67.6054C35.7249 67.6054 35.5362 67.7437 35.3837 68.013C35.2385 68.3041 35.1587 68.7408 35.1587 69.3522ZM46.992 72.8747H44.9955L44.3712 70.9242C44.2696 70.5967 44.1825 70.4002 44.1099 70.3274C44.0373 70.2546 43.9356 70.2182 43.7977 70.2182V72.882H42.0191V70.2182C41.8884 70.2182 41.7795 70.2546 41.7142 70.3274C41.6416 70.4002 41.5545 70.5967 41.4528 70.9242L40.8285 72.8747H38.8321L39.6161 70.7495C39.8266 70.1819 40.0081 69.8034 40.1533 69.6214C40.3058 69.4395 40.5381 69.323 40.8503 69.2867C40.6978 69.243 40.5671 69.1557 40.4655 69.0174C40.3566 68.8864 40.2477 68.6607 40.1388 68.3405C40.0227 68.0203 39.9065 67.8238 39.7831 67.751C39.6597 67.6782 39.4709 67.6418 39.2096 67.6418H39.1297V65.7204C39.7395 65.7204 40.1751 65.7568 40.4365 65.8369C40.6978 65.9169 40.9011 66.0771 41.0463 66.3172C41.1915 66.5574 41.3294 66.914 41.4601 67.3725C41.5907 67.8311 41.6851 68.1149 41.7432 68.2022C41.8013 68.2896 41.8957 68.3478 42.0263 68.3696V65.7932H43.805V68.3551C43.9356 68.3332 44.03 68.2823 44.0881 68.1877C44.1462 68.1003 44.2405 67.8165 44.3712 67.358C44.5019 66.8995 44.6471 66.5428 44.785 66.3027C44.9302 66.0625 45.1335 65.9024 45.3948 65.8223C45.6562 65.7423 46.0918 65.7059 46.7016 65.7059V67.6273H46.6217C46.3676 67.6273 46.1789 67.6637 46.0555 67.7364C45.932 67.8092 45.8086 68.0057 45.6925 68.326C45.5763 68.6462 45.4674 68.8718 45.3658 69.0028C45.2569 69.1338 45.1335 69.2284 44.981 69.2721C45.2787 69.3158 45.5037 69.4177 45.6562 69.5851C45.8086 69.7524 45.9974 70.1382 46.2152 70.735L46.992 72.8747ZM49.1989 68.0858L47.5001 67.8165C47.5655 67.3653 47.6598 67.0014 47.776 66.7466C47.8994 66.4846 48.0664 66.259 48.2987 66.0698C48.4584 65.9315 48.6835 65.8223 48.9666 65.7495C49.2497 65.6768 49.5619 65.6331 49.8886 65.6331C50.4185 65.6331 50.8469 65.6768 51.1663 65.7714C51.4857 65.8587 51.7543 66.0552 51.9721 66.3391C52.1246 66.5356 52.2407 66.8267 52.3278 67.1906C52.4149 67.5545 52.4585 67.9038 52.4585 68.2386V71.3682C52.4585 71.703 52.473 71.965 52.5021 72.1542C52.5311 72.3434 52.5892 72.5836 52.6836 72.8747H51.0211C50.9557 72.6928 50.9122 72.5545 50.8904 72.4599C50.8686 72.3653 50.8469 72.2197 50.8323 72.0159C50.6 72.358 50.3677 72.5982 50.1354 72.7437C49.8232 72.9402 49.4603 73.0348 49.0392 73.0348C48.4875 73.0348 48.0664 72.8383 47.7833 72.4453C47.4929 72.0523 47.3549 71.572 47.3549 70.997C47.3549 70.4584 47.4566 70.0145 47.6671 69.6651C47.8704 69.3158 48.2551 69.061 48.8069 68.8864C49.4748 68.6826 49.9031 68.537 50.0991 68.457C50.2951 68.3769 50.5057 68.2677 50.7234 68.1367C50.7234 67.8019 50.6799 67.569 50.5855 67.438C50.4984 67.307 50.3387 67.2343 50.1136 67.2343C49.8232 67.2343 49.6054 67.307 49.4603 67.4453C49.3586 67.5618 49.2642 67.7728 49.1989 68.0858ZM50.7307 69.505C50.4839 69.636 50.2298 69.7597 49.9684 69.8616C49.6054 70.0072 49.3804 70.1527 49.286 70.2983C49.1844 70.4439 49.1336 70.6113 49.1336 70.8005C49.1336 71.0188 49.1844 71.1935 49.2788 71.3318C49.3804 71.4701 49.5183 71.5356 49.7071 71.5356C49.9031 71.5356 50.0918 71.4628 50.2588 71.3099C50.4258 71.1644 50.5492 70.9824 50.6218 70.7714C50.6944 70.5603 50.7307 70.2837 50.7307 69.9417V69.505ZM57.0176 69.1047C57.3661 69.1557 57.6492 69.3376 57.8597 69.636C58.063 69.9417 58.1719 70.342 58.1719 70.8514C58.1719 71.5283 58.0267 72.0305 57.7363 72.3653C57.4459 72.7 56.9232 72.8674 56.1682 72.8674H53.5257V65.7932H56.3787C56.8942 65.7932 57.2935 65.946 57.5621 66.2444C57.8379 66.5501 57.9686 66.9722 57.9686 67.5108C57.9686 67.8966 57.8815 68.2241 57.7073 68.5079C57.533 68.7918 57.3007 68.981 57.0176 69.0683V69.1047ZM55.3043 68.4934H55.7544C56.0521 68.4934 56.1972 68.2823 56.1972 67.8674C56.1972 67.5327 56.0375 67.3653 55.7254 67.3653H55.3043V68.4934ZM55.3043 71.2081H55.8851C56.0303 71.2081 56.1464 71.1571 56.2408 71.0552C56.3352 70.9533 56.3787 70.8078 56.3787 70.6113C56.3787 70.1819 56.219 69.9708 55.8923 69.9708H55.3116V71.2081H55.3043ZM64.2482 72.8747H62.4696V70.2037H60.8507V72.8747H59.0721V65.7932H60.8507V68.2241H62.4696V65.7932H64.2482V72.8747ZM70.5206 70.0072H66.9561C66.9924 70.4439 67.065 70.7641 67.1884 70.9824C67.3627 71.2881 67.5877 71.441 67.8636 71.441C68.0378 71.441 68.2048 71.3755 68.3645 71.2444C68.4589 71.1571 68.5678 71.0115 68.6767 70.8005L70.4262 71.0479C70.1576 71.7539 69.8382 72.2706 69.4607 72.5763C69.0832 72.882 68.5387 73.0421 67.8345 73.0421C67.2175 73.0421 66.7383 72.9111 66.3826 72.6418C66.0341 72.3798 65.7365 71.9577 65.5042 71.3827C65.2719 70.8078 65.1557 70.1309 65.1557 69.3522C65.1557 68.2459 65.388 67.3434 65.8526 66.6593C66.3173 65.9752 66.9561 65.6331 67.7765 65.6331C68.4371 65.6331 68.9598 65.7859 69.3445 66.0916C69.7293 66.3973 70.0197 66.8412 70.223 67.4235C70.4262 68.0057 70.5206 68.7626 70.5206 69.7015V70.0072ZM68.7202 68.7117C68.6839 68.1877 68.5895 67.8092 68.4443 67.5763C68.2919 67.3507 68.0959 67.2343 67.8491 67.2343C67.5659 67.2343 67.3409 67.4089 67.1739 67.751C67.065 67.9621 66.9997 68.2823 66.9706 68.7117H68.7202ZM79.196 72.8747H77.4173V67.7728H76.067V72.8747H74.2884V65.7932H79.1887V72.8747H79.196ZM80.3285 63.1003H82.1071V64.9417H80.3285V63.1003ZM80.3285 65.7932H82.1071V72.8747H80.3285V65.7932ZM88.5101 74.8907H87.276V72.8747H84.0019V74.8907H82.7677V70.8951H83.2178C83.5445 70.0072 83.7042 68.8354 83.7042 67.3944V65.7932H88.0165V70.8951H88.5101V74.8907ZM86.2379 70.8951V67.7728H85.3885V67.8529C85.3885 68.8427 85.2505 69.8543 84.9674 70.8951H86.2379ZM94.0348 72.8747H92.2561V67.7728H90.9058V72.8747H89.1272V65.7932H94.0275V72.8747H94.0348ZM95.1164 75.5603V65.7932H96.7789V66.834C97.0112 66.39 97.2218 66.0916 97.4105 65.9388C97.6646 65.7277 97.955 65.6258 98.2672 65.6258C98.8842 65.6258 99.3634 65.9897 99.7046 66.7102C100.046 67.438 100.213 68.3332 100.213 69.4031C100.213 70.5821 100.031 71.4846 99.661 72.1033C99.2908 72.7219 98.8262 73.0348 98.2599 73.0348C97.984 73.0348 97.7372 72.9621 97.5121 72.8238C97.2871 72.6782 97.0838 72.4744 96.9096 72.1906V75.5603H95.1164ZM96.8951 69.3522C96.8951 69.9126 96.9749 70.3347 97.1274 70.604C97.2798 70.8733 97.4759 71.0115 97.7082 71.0115C97.9114 71.0115 98.0857 70.8805 98.2236 70.6185C98.3615 70.3565 98.4341 69.9126 98.4341 69.2867C98.4341 68.7117 98.3615 68.2896 98.2163 68.013C98.0712 67.7437 97.8969 67.6054 97.6864 67.6054C97.4613 67.6054 97.2726 67.7437 97.1201 68.013C96.9749 68.3041 96.8951 68.7408 96.8951 69.3522ZM106.231 72.8747H104.554V69.3886L102.819 72.8747H101.127V65.7932H102.804V69.323L104.569 65.7932H106.238V72.8747H106.231ZM112.511 70.3784C112.191 72.1542 111.349 73.0421 109.984 73.0421C108.982 73.0421 108.256 72.7073 107.814 72.0377C107.371 71.3682 107.153 70.473 107.153 69.3667C107.153 68.4788 107.276 67.7583 107.523 67.227C107.77 66.6884 108.075 66.2881 108.431 66.0261C108.786 65.7641 109.266 65.6331 109.861 65.6331C110.587 65.6331 111.153 65.8296 111.56 66.2226C111.966 66.6156 112.257 67.227 112.424 68.0567L110.754 68.3987C110.659 67.7874 110.384 67.4817 109.919 67.4817C109.433 67.4817 109.128 67.8674 108.997 68.6389H110.333V70.029H108.968C109.077 70.7932 109.382 71.1717 109.883 71.1717C110.369 71.1717 110.688 70.8078 110.826 70.08L112.511 70.3784ZM119.734 72.8747H118.231V68.4279L117.135 72.8747H116.068L114.877 68.4279V72.8747H113.375V65.7932H115.502L116.605 69.8616L117.607 65.7932H119.734V72.8747ZM124.329 70.1018L126.014 70.3856C125.919 70.9242 125.767 71.39 125.556 71.783C125.346 72.176 125.07 72.4817 124.743 72.7001C124.417 72.9184 123.995 73.0276 123.487 73.0276C122.994 73.0276 122.587 72.9548 122.26 72.8165C121.934 72.6782 121.651 72.4453 121.418 72.1324C121.186 71.8194 120.997 71.4555 120.867 71.0261C120.736 70.604 120.663 70.0436 120.663 69.3449C120.663 68.6171 120.743 68.013 120.91 67.5254C121.026 67.1688 121.193 66.8485 121.397 66.5647C121.6 66.2808 121.818 66.0698 122.035 65.9315C122.384 65.7132 122.827 65.604 123.364 65.604C124.119 65.604 124.7 65.8078 125.092 66.2226C125.491 66.6375 125.767 67.2415 125.927 68.0348L124.257 68.3769C124.206 68.0712 124.112 67.8456 123.974 67.6928C123.836 67.5399 123.647 67.4599 123.415 67.4599C123.124 67.4599 122.885 67.62 122.703 67.9402C122.522 68.2605 122.427 68.7481 122.427 69.4031C122.427 69.9853 122.522 70.4293 122.696 70.7277C122.878 71.0334 123.103 71.1789 123.386 71.1789C123.618 71.1789 123.814 71.0843 123.974 70.9097C124.133 70.7568 124.25 70.4803 124.329 70.1018ZM130.725 67.7656H129.44V72.8674H127.662V67.7656H126.377V65.7932H130.725V67.7656ZM134.856 69.1047C135.204 69.1557 135.488 69.3376 135.698 69.636C135.901 69.9417 136.01 70.342 136.01 70.8514C136.01 71.5283 135.865 72.0305 135.575 72.3653C135.284 72.7 134.762 72.8674 134.007 72.8674H131.364V65.7932H134.217C134.733 65.7932 135.132 65.946 135.4 66.2444C135.676 66.5501 135.807 66.9722 135.807 67.5108C135.807 67.8966 135.72 68.2241 135.546 68.5079C135.371 68.7918 135.139 68.981 134.856 69.0683V69.1047ZM133.135 68.4934H133.586C133.883 68.4934 134.028 68.2823 134.028 67.8674C134.028 67.5327 133.869 67.3653 133.557 67.3653H133.135V68.4934ZM133.135 71.2081H133.716C133.861 71.2081 133.978 71.1571 134.072 71.0552C134.166 70.9533 134.21 70.8078 134.21 70.6113C134.21 70.1819 134.05 69.9708 133.723 69.9708H133.143V71.2081H133.135ZM136.635 69.3522C136.635 68.2677 136.874 67.3798 137.346 66.6811C137.825 65.9824 138.464 65.6331 139.277 65.6331C140.206 65.6331 140.903 66.0479 141.375 66.8704C141.753 67.5327 141.941 68.3478 141.941 69.323C141.941 70.4148 141.709 71.3027 141.237 72.0014C140.765 72.7 140.112 73.0421 139.277 73.0421C138.537 73.0421 137.934 72.751 137.477 72.176C136.918 71.4482 136.635 70.5094 136.635 69.3522ZM138.413 69.3449C138.413 69.9781 138.5 70.4511 138.66 70.7495C138.827 71.0552 139.038 71.2008 139.292 71.2008C139.546 71.2008 139.756 71.0479 139.916 70.7495C140.083 70.4511 140.163 69.9708 140.163 69.3158C140.163 68.6971 140.083 68.2459 139.916 67.9402C139.749 67.6418 139.546 67.489 139.306 67.489C139.045 67.489 138.834 67.6418 138.667 67.9475C138.5 68.2605 138.413 68.7262 138.413 69.3449Z" fill="#58595B"/>
<path fill-rule="evenodd" clip-rule="evenodd" d="M3.65162 80.6694H5.01645L3.81134 83.7626L5.01645 86.8412H3.65162L2.26502 83.7553L3.65162 80.6694ZM1.39386 80.6694H2.75142L1.54631 83.7553L2.75142 86.8412H1.39386L0 83.7626L1.39386 80.6694ZM10.1273 85.7058H7.89128L7.57186 87.3142H5.55366L7.95662 77.5471H10.12L12.5157 87.3142H10.4467L10.1273 85.7058ZM9.71347 83.5879L9.01654 80.0799L8.31235 83.5879H9.71347ZM18.2872 89.3302H17.053V87.3142H13.7789V89.3302H12.5447V85.3346H12.9948C13.3215 84.4394 13.4812 83.2749 13.4812 81.8339V80.2327H17.7935V85.3346H18.2872V89.3302ZM16.0221 85.3346V82.2123H15.1728V82.2924C15.1728 83.2822 15.0348 84.2938 14.7517 85.3346H16.0221ZM25.3508 87.3142H23.8481V82.8674L22.7519 87.3142H21.6847L20.4941 82.8674V87.3142H18.9914V80.2327H21.1257L22.2292 84.3011L23.231 80.2327H25.3581V87.3142H25.3508ZM26.5487 77.5471H28.3273V79.3885H26.5487V77.5471ZM26.5487 80.2327H28.3273V87.3142H26.5487V80.2327ZM34.6941 87.3142H32.9154V84.6432H31.2965V87.3142H29.5179V80.2327H31.2965V82.6636H32.9154V80.2327H34.6941V87.3142ZM35.8847 77.5471H37.6633V79.3885H35.8847V77.5471ZM35.8847 80.2327H37.6633V87.3142H35.8847V80.2327ZM42.2514 84.5413L43.9356 84.8251C43.8413 85.3637 43.6888 85.8295 43.4783 86.2225C43.2678 86.6155 42.9919 86.9212 42.6652 87.1396C42.3385 87.3579 41.9175 87.4671 41.4093 87.4671C40.9156 87.4671 40.5091 87.3943 40.1824 87.256C39.8557 87.1177 39.5726 86.8848 39.3403 86.5719C39.108 86.2589 38.9192 85.895 38.7885 85.4656C38.6579 85.0435 38.5853 84.4831 38.5853 83.7844C38.5853 83.0566 38.6651 82.4525 38.8321 81.9649C38.9482 81.6083 39.1152 81.288 39.3185 81.0042C39.5218 80.7203 39.7395 80.5093 39.9573 80.371C40.3058 80.1527 40.7486 80.0435 41.2859 80.0435C42.0409 80.0435 42.6216 80.2473 43.0137 80.6621C43.413 81.077 43.6888 81.681 43.8485 82.4743L42.1788 82.8164C42.128 82.5107 42.0336 82.2851 41.8957 82.1323C41.7577 81.9794 41.569 81.8994 41.3367 81.8994C41.0463 81.8994 40.8067 82.0595 40.6252 82.3797C40.4437 82.7 40.3494 83.1876 40.3494 83.8426C40.3494 84.4249 40.4437 84.8688 40.618 85.1672C40.7995 85.4729 41.0245 85.6185 41.3076 85.6185C41.54 85.6185 41.736 85.5238 41.8957 85.3492C42.0554 85.1963 42.1715 84.9198 42.2514 84.5413ZM48.6544 82.2123H47.3695V87.3142H45.5909V82.2123H44.3059V80.2327H48.6544V82.2123ZM49.2933 89.9998V80.2327H50.9558V81.2735C51.1881 80.8295 51.3986 80.5311 51.5874 80.3783C51.8414 80.1672 52.1318 80.0653 52.444 80.0653C53.0611 80.0653 53.5402 80.4292 53.8814 81.1497C54.2226 81.8775 54.3896 82.7727 54.3896 83.8426C54.3896 85.0217 54.2081 85.9241 53.8379 86.5428C53.4676 87.1614 53.003 87.4743 52.4367 87.4743C52.1609 87.4743 51.914 87.4016 51.689 87.2633C51.4639 87.1177 51.2607 86.9139 51.0864 86.6301V89.9998H49.2933ZM51.0792 83.7989C51.0792 84.3594 51.159 84.7815 51.3115 85.0508C51.4639 85.32 51.66 85.4583 51.8923 85.4583C52.0955 85.4583 52.2698 85.3273 52.4077 85.0653C52.5456 84.8033 52.6182 84.3594 52.6182 83.7334C52.6182 83.1585 52.5456 82.7291 52.4004 82.4598C52.2553 82.1905 52.081 82.0522 51.8705 82.0522C51.6454 82.0522 51.4567 82.1905 51.3042 82.4598C51.1518 82.7436 51.0792 83.1803 51.0792 83.7989ZM56.8652 82.5253L55.1664 82.2487C55.2317 81.7975 55.3261 81.4336 55.4423 81.1789C55.5657 80.9168 55.7326 80.6912 55.965 80.502C56.1247 80.3637 56.3497 80.2545 56.6328 80.1818C56.916 80.109 57.2281 80.0653 57.5548 80.0653C58.0848 80.0653 58.5131 80.109 58.8325 80.2036C59.152 80.2982 59.4206 80.4874 59.6384 80.7713C59.7908 80.9751 59.907 81.2589 59.9941 81.6228C60.0812 81.9867 60.1248 82.3361 60.1248 82.6709V85.8004C60.1248 86.1352 60.1393 86.3972 60.1683 86.5864C60.1974 86.7757 60.2554 87.0158 60.3498 87.3069H58.6873C58.622 87.125 58.5784 86.9867 58.5567 86.8921C58.5349 86.7975 58.5131 86.6519 58.4986 86.4481C58.2663 86.7902 58.034 87.0304 57.8017 87.1759C57.4895 87.3725 57.1265 87.4671 56.7054 87.4671C56.1537 87.4671 55.7326 87.2706 55.4495 86.8775C55.1591 86.4845 55.0212 86.0042 55.0212 85.4292C55.0212 84.8906 55.1228 84.4467 55.3334 84.0973C55.5439 83.748 55.9214 83.4933 56.4731 83.3186C57.141 83.1148 57.5693 82.9692 57.7654 82.8892C57.9614 82.8091 58.1719 82.7 58.3897 82.569C58.3897 82.2342 58.3461 82.0013 58.2518 81.8703C58.1646 81.7393 58.0049 81.6665 57.7799 81.6665C57.4895 81.6665 57.2717 81.7393 57.1265 81.8775C57.0249 82.0085 56.9378 82.2123 56.8652 82.5253ZM58.4042 83.9445C58.1574 84.0755 57.9033 84.1992 57.6419 84.3011C57.279 84.4467 57.0539 84.5923 56.9595 84.7378C56.8579 84.8834 56.8143 85.0508 56.8143 85.24C56.8143 85.4583 56.8652 85.633 56.9595 85.7713C57.0612 85.9096 57.1991 85.9751 57.3879 85.9751C57.5839 85.9751 57.7726 85.9023 57.9396 85.7494C58.1066 85.6039 58.23 85.4219 58.3026 85.2109C58.3752 84.9998 58.4115 84.716 58.4115 84.3812V83.9445H58.4042ZM66.7456 89.3302H65.5115V87.3142H61.1629V80.2327H62.9415V85.3346H64.2918V80.2327H66.0704V85.3346H66.7456V89.3302ZM67.4207 77.5471H69.1994V79.3885H67.4207V77.5471ZM67.4207 80.2327H69.1994V87.3142H67.4207V80.2327ZM74.8256 87.3142H73.047V84.5559H72.9817C72.8583 84.5559 72.7566 84.6068 72.6913 84.716C72.6187 84.8179 72.5461 84.978 72.4735 85.1963L71.762 87.3215H69.7947L70.4843 85.2691C70.6876 84.6577 70.9562 84.323 71.2829 84.2647C70.9054 84.1774 70.6223 83.9372 70.4263 83.5515C70.2302 83.1658 70.1286 82.7364 70.1286 82.2778C70.1286 81.8193 70.2012 81.4118 70.3537 81.0624C70.4989 80.7131 70.7239 80.4874 71.007 80.3855C71.2974 80.2909 71.6531 80.24 72.0887 80.24H74.8111V87.3142H74.8256ZM73.0543 82.9474V81.8412H72.5025C72.2412 81.8412 72.0815 81.8921 72.0161 81.9867C71.9508 82.0813 71.9218 82.2196 71.9218 82.387C71.9218 82.7582 72.1395 82.9474 72.5679 82.9474H73.0543ZM78.8838 89.9998V80.2327H80.5463V81.2735C80.7786 80.8295 80.9891 80.5311 81.1779 80.3783C81.4319 80.1672 81.7223 80.0653 82.0345 80.0653C82.6516 80.0653 83.1307 80.4292 83.4719 81.1497C83.8131 81.8775 83.9801 82.7727 83.9801 83.8426C83.9801 85.0217 83.7986 85.9241 83.4284 86.5428C83.0581 87.1614 82.5935 87.4743 82.0272 87.4743C81.7514 87.4743 81.5045 87.4016 81.2795 87.2633C81.0544 87.1177 80.8512 86.9139 80.6769 86.6301V89.9998H78.8838ZM80.6624 83.7989C80.6624 84.3594 80.7423 84.7815 80.8947 85.0508C81.0472 85.32 81.2432 85.4583 81.4755 85.4583C81.6788 85.4583 81.853 85.3273 81.991 85.0653C82.1289 84.8033 82.2015 84.3594 82.2015 83.7334C82.2015 83.1585 82.1289 82.7291 81.9837 82.4598C81.8385 82.1905 81.6643 82.0522 81.4537 82.0522C81.2287 82.0522 81.0399 82.1905 80.8875 82.4598C80.7423 82.7436 80.6624 83.1803 80.6624 83.7989ZM84.8948 77.5471H86.6734V79.3885H84.8948V77.5471ZM84.8948 80.2327H86.6734V87.3142H84.8948V80.2327ZM92.67 87.3142H90.8913V84.7087C90.4412 85.1163 89.9621 85.3201 89.4394 85.3201C88.3214 85.3201 87.7697 84.4103 87.7697 82.5981V80.2327H89.5483V82.1759C89.5483 82.4962 89.5991 82.7509 89.6935 82.9329C89.7879 83.1148 89.9258 83.2094 90.0928 83.2094C90.4267 83.2094 90.6953 83.0056 90.8986 82.5908V80.24H92.6772V87.3142H92.67ZM98.8625 87.3142H96.8588L96.1836 85.3637C96.0748 85.0508 95.9731 84.8543 95.8715 84.7742C95.7698 84.6941 95.6392 84.6505 95.494 84.6505V87.3142H93.7153V80.2327H95.494V82.7946C95.6392 82.7727 95.7481 82.7 95.8134 82.5762C95.886 82.4525 95.9804 82.1759 96.1183 81.7538C96.249 81.3317 96.3724 81.0187 96.474 80.8295C96.5757 80.633 96.7136 80.4874 96.8733 80.3928C97.033 80.2982 97.2363 80.2327 97.4831 80.2036C97.73 80.1745 98.0929 80.1599 98.5721 80.1599V82.0813H98.4922C98.2527 82.0813 98.0712 82.0959 97.9477 82.125C97.8243 82.1541 97.7227 82.2196 97.6501 82.3069C97.5775 82.4016 97.4904 82.5908 97.3887 82.8819C97.2871 83.173 97.2073 83.3695 97.1419 83.486C97.0766 83.6024 96.9822 83.6752 96.8515 83.7189C97.0984 83.7553 97.2871 83.8353 97.4178 83.9591C97.5485 84.0901 97.7517 84.4904 98.0203 85.1818L98.8625 87.3142ZM99.2327 83.7917C99.2327 82.7072 99.4723 81.8193 99.9442 81.1206C100.423 80.4219 101.062 80.0726 101.875 80.0726C102.804 80.0726 103.501 80.4874 103.973 81.3099C104.351 81.9722 104.54 82.7873 104.54 83.7626C104.54 84.8543 104.307 85.7422 103.835 86.4409C103.363 87.1396 102.71 87.4816 101.875 87.4816C101.135 87.4816 100.532 87.1905 100.075 86.6155C99.5158 85.895 99.2327 84.9562 99.2327 83.7917ZM101.011 83.7917C101.011 84.4249 101.091 84.8979 101.258 85.1963C101.425 85.502 101.636 85.6548 101.882 85.6548C102.137 85.6548 102.347 85.502 102.507 85.2036C102.674 84.9052 102.754 84.4249 102.754 83.7698C102.754 83.1512 102.674 82.6927 102.507 82.3943C102.34 82.0959 102.137 81.943 101.897 81.943C101.643 81.943 101.425 82.0959 101.258 82.4016C101.091 82.7 101.011 83.1658 101.011 83.7917ZM108.895 83.5442C109.244 83.5952 109.527 83.7771 109.737 84.0755C109.941 84.3812 110.05 84.7815 110.05 85.2909C110.05 85.9678 109.904 86.47 109.614 86.8048C109.324 87.1396 108.801 87.3069 108.046 87.3069H105.403V80.2254H108.257C108.772 80.2254 109.171 80.3783 109.44 80.6839C109.716 80.9896 109.846 81.4118 109.846 81.9503C109.846 82.3361 109.759 82.6636 109.585 82.9547C109.411 83.2385 109.178 83.4278 108.895 83.5151V83.5442ZM107.182 82.9329H107.632C107.93 82.9329 108.075 82.7218 108.075 82.3069C108.075 81.9722 107.915 81.8048 107.603 81.8048H107.182V82.9329ZM107.182 85.6476H107.763C107.908 85.6476 108.024 85.5966 108.119 85.4947C108.213 85.3928 108.257 85.2473 108.257 85.0508C108.257 84.6214 108.097 84.4103 107.77 84.4103H107.189V85.6476H107.182ZM116.061 87.3142H114.384V83.8281L112.649 87.3142H110.957V80.2327H112.634V83.7626L114.398 80.2327H116.068V87.3142H116.061ZM116.794 80.2327H118.899L119.632 82.2051L120.482 80.2327H122.435L120.859 83.6097L122.551 87.3142H120.482L119.632 85.0362L118.616 87.3142H116.7L118.384 83.6097L116.794 80.2327ZM131.008 87.3142H129.23V82.2123H127.879V87.3142H126.101V80.2327H131.001V87.3142H131.008ZM131.872 83.7917C131.872 82.7072 132.112 81.8193 132.584 81.1206C133.063 80.4219 133.702 80.0726 134.515 80.0726C135.444 80.0726 136.141 80.4874 136.613 81.3099C136.99 81.9722 137.179 82.7873 137.179 83.7626C137.179 84.8543 136.947 85.7422 136.475 86.4409C136.003 87.1396 135.35 87.4816 134.515 87.4816C133.774 87.4816 133.172 87.1905 132.714 86.6155C132.148 85.895 131.872 84.9562 131.872 83.7917ZM133.644 83.7917C133.644 84.4249 133.731 84.8979 133.898 85.1963C134.065 85.502 134.275 85.6548 134.529 85.6548C134.783 85.6548 134.994 85.502 135.154 85.2036C135.321 84.9052 135.4 84.4249 135.4 83.7698C135.4 83.1512 135.321 82.6927 135.154 82.3943C134.987 82.0959 134.783 81.943 134.544 81.943C134.29 81.943 134.072 82.0959 133.905 82.4016C133.731 82.7 133.644 83.1658 133.644 83.7917ZM138.043 89.9998V80.2327H139.705V81.2735C139.938 80.8295 140.148 80.5311 140.337 80.3783C140.598 80.1672 140.882 80.0653 141.194 80.0653C141.811 80.0653 142.29 80.4292 142.631 81.1497C142.965 81.8775 143.139 82.7727 143.139 83.8426C143.139 85.0217 142.951 85.9241 142.588 86.5428C142.217 87.1614 141.753 87.4743 141.186 87.4743C140.911 87.4743 140.664 87.4016 140.439 87.2633C140.214 87.1177 140.01 86.9139 139.836 86.6301V89.9998H138.043ZM139.829 83.7989C139.829 84.3594 139.909 84.7815 140.061 85.0508C140.214 85.32 140.41 85.4583 140.642 85.4583C140.845 85.4583 141.02 85.3273 141.157 85.0653C141.295 84.8033 141.368 84.3594 141.368 83.7334C141.368 83.1585 141.295 82.7291 141.15 82.4598C141.005 82.1905 140.831 82.0522 140.62 82.0522C140.395 82.0522 140.206 82.1905 140.054 82.4598C139.902 82.7436 139.829 83.1803 139.829 83.7989ZM147.894 82.2123H146.609V87.3142H144.831V82.2123H143.546V80.2327H147.894V82.2123ZM148.591 77.5471H150.37V79.3885H148.591V77.5471ZM148.591 80.2327H150.37V87.3142H148.591V80.2327ZM154.987 83.5442C155.336 83.5952 155.619 83.7771 155.829 84.0755C156.033 84.3812 156.141 84.7815 156.141 85.2909C156.141 85.9678 155.996 86.47 155.706 86.8048C155.415 87.1396 154.893 87.3069 154.138 87.3069H151.495V80.2254H154.348C154.864 80.2254 155.263 80.3783 155.532 80.6839C155.807 80.9896 155.938 81.4118 155.938 81.9503C155.938 82.3361 155.851 82.6636 155.67 82.9547C155.495 83.2385 155.263 83.4278 154.98 83.5151V83.5442H154.987ZM153.274 82.9329H153.724C154.022 82.9329 154.167 82.7218 154.167 82.3069C154.167 81.9722 154.007 81.8048 153.695 81.8048H153.274V82.9329ZM153.274 85.6476H153.855C154 85.6476 154.116 85.5966 154.21 85.4947C154.305 85.3928 154.348 85.2473 154.348 85.0508C154.348 84.6214 154.189 84.4103 153.862 84.4103H153.281V85.6476H153.274ZM158.348 80.6694H156.984L158.189 83.7626L156.984 86.8412H158.348L159.735 83.7553L158.348 80.6694ZM160.606 80.6694H159.249L160.454 83.7553L159.249 86.8412H160.606L162 83.7626L160.606 80.6694Z" fill="#58595B"/>
<path fill-rule="evenodd" clip-rule="evenodd" d="M59.3626 5.32023L60.9597 6.20087L62.3681 7.17613L64.1322 8.57351L65.3809 9.82533L66.7094 11.3028L67.8129 12.7729L68.8438 14.3959L69.5044 15.7278L70.3102 17.5691L71.1233 20.1528L71.5589 22.3945L71.7912 24.3886L72.009 26.441L72.3066 28.8501L72.597 31.2373L72.8874 33.7409L73.185 36.2154L73.4827 38.8137L72.2485 38.7773L71.8638 38.8064L71.5226 38.8574L71.2394 38.9447L70.7821 39.1339L70.3392 39.425L70.0271 39.7162L69.8093 39.9636L69.5625 40.2911L69.41 40.5895L69.2866 40.8588L69.1995 41.1135L69.1341 41.4629L69.1051 41.9942L69.1341 42.5983L69.3447 43.2897L69.6133 43.7627L70.0053 44.2795L70.6224 44.7598L71.2757 45.0364L72.0743 45.2547L72.6478 45.3785L73.2068 45.4804L73.6134 45.5167L74.6225 43.5881L75.6751 41.4483L76.4519 39.3595L77.0254 37.7729L77.5989 35.9461L77.991 34.5924L78.2451 33.6172L78.4774 32.6638L78.6516 31.7467L78.7968 30.8224L78.9565 29.6143L79.0799 28.6026L79.138 27.2926L79.1452 24.6434L79.0727 22.4818L78.9275 19.5852L78.7242 16.6958L78.5572 14.0466L78.4265 11.6012L78.2668 8.32606L78.2741 7.00146L78.3612 6.1936L78.4991 5.30568L78.7169 4.51237L78.9347 3.88646L79.1598 3.29694L79.4356 2.70015L79.8422 1.92868L80.3649 1.14265L80.8585 0.502183L81.3086 0L82.0636 0.866084L82.6009 1.64483L83.0074 2.32897L83.3486 2.99127L83.7261 3.9083L84.002 4.73799L84.1835 5.5968L84.3142 6.38282L84.3722 7.24891L84.3069 9.82533L84.2343 11.9723L84.1109 13.8719L84.0165 15.6841L83.9076 17.067L83.7914 18.6608L83.7116 20.2183L83.6317 21.7613L83.5664 23.2314L83.4938 24.6507L83.4793 27.2926L83.6317 29.2285L83.8568 30.9753L84.0746 32.1907L84.5973 34.3668L85.0329 35.9389L85.4757 37.3217L86.2162 39.4614L86.8841 41.1936L87.5302 42.5764L88.336 44.2067L89.0039 45.5313L90.042 45.393L90.9931 45.1747L91.6682 44.9491L92.1546 44.6507L92.6555 44.214L93.0911 43.6245L93.3452 43.115L93.5122 42.5691L93.534 42.0451L93.5122 41.4629L93.3888 40.9971L93.1347 40.4367L92.7499 39.8908L92.3288 39.4614L91.7626 39.1121L91.2544 38.901L90.9132 38.8137L90.5502 38.7627H90.1219L89.1636 38.8792L89.4613 36.2082L89.7589 33.6245L90.1074 30.5822L90.347 28.6536L90.7099 25.6114L90.9858 23.0349L91.2907 21.2154L91.5738 19.9636L92.0312 18.4207L92.474 17.2562L92.9822 15.9971L93.534 14.9199L94.2454 13.6754L95.0077 12.5109L95.6683 11.6303L96.4814 10.6477L97.5195 9.53421L98.6157 8.50073L99.77 7.52547L101.099 6.58661L102.18 5.8952L103.276 5.30568L103.291 56.6667L99.4433 58.5953H61.6276L59.3408 57.6274L59.3626 5.32023Z" fill="#FCD603"/>
<path fill-rule="evenodd" clip-rule="evenodd" d="M63.7039 39.8399L63.6967 14.5415L64.3718 15.4804L65.0905 16.6667L65.9181 18.297L66.419 19.6216L66.8691 21.1063L67.1668 22.4964L67.3773 24.0539L67.675 26.4847L67.9726 28.9884L68.1904 30.7642L68.3356 32.0233L68.5606 33.8647L68.7349 35.3057L68.1904 35.6623L67.7548 35.9389L67.3047 36.3101L66.8619 36.7468L66.4263 37.2562L65.9835 37.853L65.7584 38.2242L65.5406 38.6682L65.3954 38.9666L65.243 39.345L65.0905 39.8326L63.7039 39.8399Z" fill="white"/>
<path fill-rule="evenodd" clip-rule="evenodd" d="M98.7899 39.7454V14.4397L98.122 15.3858L97.396 16.5722L96.5757 18.2024L96.0675 19.527L95.6247 21.0045L95.327 22.3946L95.1165 23.9593L94.8188 26.3902L94.5212 28.8938L94.3034 30.6697L94.1582 31.9288L93.9331 33.7701L93.7589 35.2112L94.3034 35.5605L94.7317 35.8443L95.1818 36.2155L95.6319 36.6522L96.0675 37.1617L96.5103 37.7585L96.7354 38.1296L96.9459 38.5736L97.0984 38.872L97.2436 39.2432L97.396 39.7381L98.7899 39.7454Z" fill="white"/>
<path fill-rule="evenodd" clip-rule="evenodd" d="M63.7039 54.3087L63.6967 44.1267L65.0978 44.1194L65.3228 44.7817L65.5406 45.2984L65.7584 45.7424L65.9835 46.1136L66.1287 46.3392L66.3537 46.6303L66.5715 46.9214L66.9417 47.2999L67.312 47.6638L68.0452 48.2533L68.7857 48.6973L69.4391 48.9811L70.5425 49.3305L71.7186 49.607L71.5734 50.0947L71.4355 50.7715L71.283 51.5794L71.1451 52.8239L71.1015 53.4571L71.058 54.2941L63.7039 54.3087Z" fill="white"/>
<path fill-rule="evenodd" clip-rule="evenodd" d="M98.9715 54.265V44.083H97.5776L97.3453 44.738L97.1275 45.262L96.9097 45.706L96.6919 46.0699L96.5395 46.2955L96.3217 46.5939L96.0966 46.885L95.7337 47.2562L95.3634 47.6201L94.6229 48.2096L93.8897 48.6536L93.2291 48.9447L92.1256 49.2868L90.9568 49.5706L91.102 50.051L91.2327 50.7278L91.3851 51.543L91.5303 52.7802L91.5739 53.4134L91.6102 54.2577L98.9715 54.265Z" fill="white"/>
<path fill-rule="evenodd" clip-rule="evenodd" d="M75.399 54.3015L75.4063 53.7702L75.4716 52.9405L75.5515 52.3874L75.6241 51.9725L75.704 51.5577L75.7693 51.2083L75.8492 50.8663L75.929 50.5679L76.4444 50.7498L76.9671 50.99L77.3955 51.2738L77.7584 51.5577L78.1287 51.9361L78.4191 52.3073L78.6441 52.6785L78.8619 53.1152L78.9926 53.5009L79.087 53.9376L79.1596 54.3161L75.399 54.3015Z" fill="white"/>
<path fill-rule="evenodd" clip-rule="evenodd" d="M87.2544 54.2797V53.7484L87.1818 52.9187L87.1019 52.3656L87.0366 51.9508L86.9567 51.5286L86.8841 51.1793L86.8115 50.8372L86.7244 50.5388L86.2162 50.7208L85.6863 50.9609L85.258 51.2448L84.9022 51.5286L84.5247 51.9071L84.2343 52.2783L84.0165 52.6494L83.7988 53.0934L83.6681 53.4719L83.5664 53.9085L83.5011 54.287L87.2544 54.2797Z" fill="white"/>
<path fill-rule="evenodd" clip-rule="evenodd" d="M81.3232 48.9886L81.0618 48.7048L80.6989 48.3336L80.3214 48.0352L79.9584 47.7368L79.6607 47.5185L79.1525 47.2273L78.5645 46.9289L77.9111 46.6451L78.1943 46.1793L78.5645 45.5243L78.8549 44.9347L79.2977 44.0468L79.6607 43.3045L79.9656 42.6422L80.256 41.9799L80.5464 41.2448L80.8441 40.4369L81.0691 39.8401L81.3232 39.1123L81.5918 39.8401L81.8096 40.4442L82.1072 41.2375L82.325 41.7615L82.6154 42.4311L82.9058 43.0934L83.3486 44.0468L83.639 44.6436L83.9367 45.2259L84.2416 45.8154L84.4521 46.1866L84.7425 46.6378L84.2489 46.8343L83.7262 47.0745L83.2035 47.3802L82.7461 47.6858L82.3395 48.0061L82.0201 48.2826L81.7297 48.5519L81.5119 48.7776L81.3232 48.9886Z" fill="white"/>
<path fill-rule="evenodd" clip-rule="evenodd" d="M62.0777 51.8633L61.1775 51.9943L60.8725 51.987L60.7274 51.9506L60.5023 51.8633L60.241 51.6449L60.103 51.3684L60.0885 50.939L60.27 50.6406L60.5604 50.3931L61.9978 49.971L75.3629 46.5794L85.7733 44.0831L95.7481 42.0962L101.534 41.3247L103.661 41.2446L105.411 41.3465L107.11 41.5285L109.309 41.8778L110.601 42.4819L111.117 43.0277L111.349 43.6173L111.378 44.2359L111.168 44.8254L110.812 45.3203L109.963 45.6769L109.033 45.757L108.162 45.495L107.24 45.1093L101.868 45.0583L97.1347 45.5241L90.6881 46.4484L85.0038 47.3509L78.8113 48.5372L71.8419 49.8545L66.6876 50.9244L62.0777 51.8633Z" fill="#00AEEF"/>
<path fill-rule="evenodd" clip-rule="evenodd" d="M103.422 45.073L101.672 46.8124L100.54 47.9696L99.6685 48.9231L98.7175 50.2113L97.8681 51.4777L96.8663 52.8168L96.3508 53.6683L96.3218 53.9231L96.3508 54.1341L96.4524 54.2942L96.6412 54.3743L96.8154 54.3816L97.0114 54.3525L97.2002 54.2433L98.0351 53.1734L98.7465 52.1108L99.7774 50.4078L101.048 48.7848L102.42 47.4529L103.632 46.3467L104.823 45.0876L103.422 45.073Z" fill="#00AEEF"/>
<path fill-rule="evenodd" clip-rule="evenodd" d="M99.654 53.2098L100.525 51.9288L101.665 50.6624L103.022 49.4106L104.91 47.9696L106.493 47.038L107.24 46.6377L107.407 46.6668L107.56 46.7105L107.632 46.8488V46.9798L107.589 47.0817L106.093 48.1151L104.866 49.1195L103.77 50.0875L102.79 51.1501L102.042 51.9579L101.367 52.7512L100.895 53.3116L100.569 53.7483L100.416 53.8866L100.227 53.9521L100.002 53.9157L99.8064 53.8357L99.6685 53.661L99.6177 53.4499L99.654 53.2098Z" fill="#00AEEF"/>
<path fill-rule="evenodd" clip-rule="evenodd" d="M108.467 41.7469L110.623 39.1268L112.024 37.2637L112.91 35.8954L113.542 34.8546L113.73 34.6581L113.948 34.6072L114.086 34.7964L114.057 35.073L113.708 36.1938L113.171 37.431L112.554 38.4936L111.923 39.4616L111.073 40.8517L110.151 42.2709L109.309 41.8779L108.467 41.7469Z" fill="#00AEEF"/>
<path fill-rule="evenodd" clip-rule="evenodd" d="M113.171 42.0596L114.253 40.9606L115.001 39.9708L115.553 39.0173L115.77 38.4351L115.908 37.8383L116.003 37.4162L116.054 37.0377L116.083 36.6083L116.068 36.2371L116.024 35.3565L115.894 34.5996L115.741 34.1047L115.77 33.9373L115.858 33.7699L116.09 33.7117L116.322 33.7335L116.591 34.0173L116.816 34.8325L116.925 35.7713L116.99 36.7612L116.845 37.7801L116.642 38.6316L116.235 39.5486L115.763 40.4366L115.204 41.1789L114.638 41.863L114.035 42.4307L113.767 42.6127L113.505 42.6563L113.324 42.6345L113.179 42.5399L113.106 42.4089L113.121 42.2269L113.171 42.0596Z" fill="#00AEEF"/>
<path fill-rule="evenodd" clip-rule="evenodd" d="M103.705 56.623L103.276 56.9869L102.238 57.6128L101.215 58.0422L99.4434 58.5954L97.0477 59.2286L94.093 59.92L91.6973 60.3858L89.0983 60.757L85.8677 61.1063L82.3613 61.2446L79.0944 61.3028L75.588 61.1645L72.6914 60.8297L68.8147 60.3348L65.9907 59.8108L63.4789 59.2213L60.9089 58.3479L58.898 57.4236L58.5858 57.2853L58.2083 57.0452L58.0922 56.7031L58.2954 56.4556L58.6947 56.3901L59.7111 56.3974L60.7202 56.4411L61.0614 56.4556L62.8836 56.8268L65.664 57.2999L68.8946 57.7657L71.98 58.0568L75.5082 58.3188L79.5663 58.4862H82.9929L86.2162 58.3989L89.4831 58.1805L92.7935 57.8676L95.7046 57.5182L97.8607 57.2708L100.01 57.0379L101.977 56.8123L103.705 56.623Z" fill="#2E3192"/>
<path fill-rule="evenodd" clip-rule="evenodd" d="M71.0217 39.636L74.8185 37.4671L78.5573 35.5603L84.924 32.7437L89.6356 31.2008L92.554 30.5094L94.8843 30.1382L97.2728 30.1891L98.7029 30.4584L100.046 30.9388L101.302 31.4628L102.413 32.2124L103.102 32.9038L104.075 33.0712L105.012 32.9548L108.351 32.1542L111.291 31.5137L114.282 30.9315L114.522 31.0261L114.565 31.2517L114.348 31.4773L104.612 34.4177L96.6993 36.8995L86.209 40.3565L75.6316 43.7262L67.0724 46.4919L62.7529 47.8965L58.6439 49.2284L58.3826 49.0683V48.7772L58.8544 48.3478L70.9927 43.9955L80.5609 40.4875L88.641 37.831L89.4105 37.5181L89.7372 37.3143L89.8316 37.0668L89.6138 36.9358L89.0693 36.9431L88.1836 37.1032L85.875 37.6782L83.1091 38.5443L61.8019 46.4336H61.4825L61.4316 46.0552L61.664 45.7495L74.971 40.3274L81.2506 37.882L84.6699 36.7903L86.7607 36.208L88.7281 35.8369L90.0421 35.7714L91.1093 35.8078L92.0168 35.9315L93.0186 36.1134L93.8099 36.077L94.9569 35.9024L95.9588 35.7277L96.6775 35.5166L97.1784 35.3347L97.3817 34.9053L97.2292 34.4977L96.721 34.2066L95.9588 34.0538L94.5576 33.9227L92.5612 33.981L90.0711 34.4031L86.6591 35.2765L79.1017 37.8529L71.9219 40.8587L65.6132 43.5152L65.272 43.3259L65.8818 42.8747L78.55 37.2706L85.4395 34.6651L88.2998 33.7408L90.4995 32.9912L92.2999 32.6782L94.1584 32.438L95.6684 32.4089L96.7573 32.7L97.4688 33.1003L98.6086 33.6316L99.2474 34.0538L99.6685 34.243L100.017 34.2139L100.757 33.9737L101.019 33.7626L101.048 33.4715L100.939 33.0494L100.409 32.569L99.349 31.8776L98.2673 31.5064L96.6993 31.2372L94.5794 31.1571L92.4088 31.6156L89.7009 32.2197L86.6591 33.2095L82.9203 34.505L78.02 36.6083L74.8621 38.093L71.8929 39.4249L71.0217 39.636Z" fill="#00AEEF"/>
<path fill-rule="evenodd" clip-rule="evenodd" d="M73.8239 38.5008L73.5988 37.0525L73.5262 35.8953L73.5988 34.8764L73.9473 34.0831L74.499 33.4644L75.2976 33.0641L76.0163 33.0132L76.7641 33.2024L77.4393 33.7483L77.9184 34.3014L78.2669 34.789L78.5718 35.3422L78.8186 35.8152L77.9547 36.2592L77.5844 35.5168L77.2142 34.9346L76.8222 34.4906L76.4011 34.1486L76.0163 33.9812L75.7042 33.9521L75.4138 34.0321L75.1016 34.3014L74.8475 34.658L74.6951 35.0219L74.5862 35.5241L74.5789 36.0772L74.6297 36.6304L74.6805 36.9943L74.7822 37.4819L74.8838 37.8967L73.8239 38.5008Z" fill="#00AEEF"/>
<path fill-rule="evenodd" clip-rule="evenodd" d="M81.4395 34.5998L81.6209 33.5081L81.7081 32.5474L81.7952 31.0409L81.9259 29.9419L82.2453 28.9375L82.6954 28.0496L83.327 27.3145L84.082 26.8924L84.7354 26.7104L85.4468 26.7396L86.0784 26.9797L86.6519 27.4237L87.3125 28.1151L87.7046 28.5809L88.053 29.1049L88.2999 29.5707L88.416 29.8327V30.0729L88.3144 30.2403L88.0676 30.2184L87.8716 30.0583L87.2037 29.2869L86.6156 28.6682L86.0348 28.2024L85.5484 27.9259L85.2145 27.8822L84.8442 27.9259L84.3143 28.2315L83.8497 28.7701L83.6464 29.3232L83.5593 29.8036V30.5751L83.5956 31.4266L83.6391 31.987L83.7117 32.5256L83.8134 32.9186L84.0457 33.4499L81.4395 34.5998Z" fill="#00AEEF"/>
<path fill-rule="evenodd" clip-rule="evenodd" d="M61.0613 56.4557L61.2501 55.9462L61.192 55.4804L60.604 54.5852L60.2265 54.003L60.0886 53.7919L59.7982 53.1879L59.682 52.5256L59.8272 52.249L61.1049 53.5591L62.2592 54.7308L62.6077 55.0801L62.9126 55.4513L63.1231 55.8079L63.1449 56.2519L63.0142 56.5794L62.8835 56.8268L61.0613 56.4557Z" fill="#00AEEF"/>
</svg>
