<svg width="212" height="41" viewBox="0 0 212 41" fill="none" xmlns="http://www.w3.org/2000/svg">
<g clip-path="url(#clip0)">
<path fill-rule="evenodd" clip-rule="evenodd" d="M109.2 39.8999H127.5L129.8 38.0999H165.1L168.5 35.3999H115L114.7 35.5999L109.2 39.8999Z" fill="#007CAA"/>
<path fill-rule="evenodd" clip-rule="evenodd" d="M101.9 39.8999H83.6L81.3 38.0999H45.9L42.5 35.3999H96.1L96.3 35.5999L101.9 39.8999Z" fill="#007CAA"/>
<path fill-rule="evenodd" clip-rule="evenodd" d="M108.4 33.5001H182.6L184.9 31.7001H200.2L203.6 29.0001H118L120.9 26.8001H208.9L211.1 25.1001H119.2L108.4 33.5001Z" fill="#007CAA"/>
<path fill-rule="evenodd" clip-rule="evenodd" d="M102.7 33.5001H28.5L26.1 31.7001H10.9L7.5 29.0001H93.1L90.2 26.8001H2.2L0 25.1001H91.9L102.7 33.5001Z" fill="#007CAA"/>
<path fill-rule="evenodd" clip-rule="evenodd" d="M178.3 13.8H172.6V2.10005H167V0.300049H184V2.10005H178.3V13.8Z" fill="#58595B"/>
<path fill-rule="evenodd" clip-rule="evenodd" d="M150.8 7.4C150.8 8.7 151.2 9.8 151.9 10.7C152.8 11.9 154.1 12.5 155.8 12.5C157.5 12.5 158.7 11.9 159.5 10.7C160.1 9.8 160.4 8.7 160.4 7.4C160.4 5.5 159.9 4 158.9 2.9C158.1 2 156.9 1.6 155.5 1.6C153.7 1.6 152.3 2.3 151.5 3.7C151.1 4.6 150.8 5.9 150.8 7.4ZM144.8 7.4C144.8 5.3 145.9 3.5 148 2.1C150.1 0.7 152.7 0 155.7 0C158.7 0 161.3 0.7 163.3 2C165.5 3.4 166.6 5.2 166.6 7.4C166.6 9.5 165.5 11.2 163.2 12.4C161.1 13.6 158.6 14.2 155.6 14.2C152.7 14.2 150.2 13.6 148.1 12.5C145.9 11.1 144.8 9.5 144.8 7.4Z" fill="#58595B"/>
<path fill-rule="evenodd" clip-rule="evenodd" d="M127.7 13.8H124.7L132 0.300049H137.7L145.1 13.8H139L133.3 3.30005L127.7 13.8Z" fill="#58595B"/>
<path fill-rule="evenodd" clip-rule="evenodd" d="M108 11V3.00005C106.3 3.00005 105 3.30005 104.1 3.80005C103 4.40005 102.5 5.50005 102.5 6.90005C102.5 8.30005 103 9.40005 104.1 10.1C105 10.7 106.3 11 108 11ZM113.6 3.00005V11C115.3 11 116.6 10.7 117.5 10.1C118.6 9.40005 119.1 8.40005 119.1 6.90005C119.1 5.50005 118.6 4.50005 117.5 3.80005C116.6 3.30005 115.3 3.00005 113.6 3.00005ZM113.6 13.8H108V12.7H107C104 12.7 101.6 12.2 99.8 11.3C97.7 10.3 96.6 8.80005 96.6 6.90005C96.6 5.10005 97.7 3.60005 99.9 2.60005C101.8 1.70005 104.2 1.20005 107.1 1.20005H108.1V0.300049H113.8V1.20005H114.8C117.7 1.20005 120.1 1.70005 122 2.60005C124.2 3.60005 125.3 5.10005 125.3 6.90005C125.3 8.80005 124.2 10.3 122.1 11.3C120.2 12.2 117.8 12.7 114.9 12.7H113.9V13.8H113.6Z" fill="#58595B"/>
<path fill-rule="evenodd" clip-rule="evenodd" d="M90.4 13.8H84.8V2.10005H79.1V0.300049H96.1V2.10005H90.4V13.8Z" fill="#58595B"/>
<path fill-rule="evenodd" clip-rule="evenodd" d="M60.2 13.8V0.300049H65.8V6.10005H71.8V0.300049H77.4V13.8H71.8V7.90005H65.8V13.8H60.2Z" fill="#58595B"/>
<path fill-rule="evenodd" clip-rule="evenodd" d="M58.5 13.8H45.5V0.300049H58.3V2.10005H51.2V6.10005H57.9V7.90005H51.2V12H58.5V13.8Z" fill="#58595B"/>
<path fill-rule="evenodd" clip-rule="evenodd" d="M33 2.10005V6.60005H34.5C35.6 6.60005 36.4 6.50005 37.1 6.20005C37.9 5.80005 38.3 5.30005 38.3 4.50005C38.3 3.70005 37.9001 3.10005 37.2001 2.70005C36.6 2.30005 35.7 2.20005 34.6 2.20005H33V2.10005ZM33 13.8H27.3V0.300049H36.3C38.3 0.300049 40.1 0.600049 41.5 1.30005C43.1 2.00005 43.9001 3.00005 43.9001 4.40005C43.9001 5.80005 43.2001 6.80005 41.7001 7.50005C40.5001 8.00005 38.9 8.30005 36.8 8.30005H33V13.8Z" fill="#58595B"/>
<path fill-rule="evenodd" clip-rule="evenodd" d="M2.1 19.5999V17.5999H1.5V21.9999H2.1V19.6999L4.3 21.9999H5.1L2.7 19.5999L5 17.4999H4.2L2.1 19.5999ZM9.5 21.0999V17.4999H8.9V21.9999H9.5L12 18.3999V21.9999H12.6V17.4999H12L9.5 21.0999ZM17.6 19.3999V17.9999H20.3V17.4999H17V21.9999H20.5V21.4999H17.7V19.9999H20.2V19.4999H17.6V19.3999ZM24.3 17.4999V21.9999H26.3C27.6 21.9999 28 21.3999 28 20.7999C28 19.9999 27.4 19.6999 27 19.6999C27.4 19.5999 27.8 19.1999 27.8 18.6999C27.8 18.1999 27.5 17.5999 26.4 17.5999H24.3V17.4999ZM24.9 17.9999H26.2C27 17.9999 27.1 18.3999 27.1 18.6999C27.1 19.0999 26.9 19.3999 26.2 19.3999H24.9V17.9999ZM24.9 19.8999H26.2C26.9 19.8999 27.3 20.0999 27.3 20.6999C27.3 21.3999 26.6 21.4999 26.2 21.4999H24.9V19.8999ZM35.5 20.4999C35.5 21.0999 34.9 21.5999 34.2 21.5999C33.2 21.5999 32.6 20.7999 32.6 19.7999C32.6 18.7999 33 17.8999 34.2 17.8999C35.3 17.8999 35.5 18.5999 35.5 18.8999H36.1C36 18.1999 35.6 17.3999 34.1 17.3999C33.7 17.3999 31.9 17.4999 31.9 19.8999C31.9 21.2999 32.7 22.1999 34.2 22.1999C35.7 22.1999 36.1 21.1999 36.2 20.5999H35.5V20.4999ZM40.7 19.5999V17.5999H40.1V21.9999H40.7V19.6999L43 21.9999H43.8L41.4 19.5999L43.7 17.4999H42.9L40.7 19.5999ZM48 20.8999H50L50.4 22.0999H51.1L49.3 17.5999H48.6L46.9 21.9999H47.6L48 20.8999ZM48.2 20.3999L49 18.1999L49.8 20.3999H48.2ZM57.7 20.1999V21.9999H58.3V17.4999H56.3C55.1 17.4999 54.7 18.0999 54.7 18.7999C54.7 19.7999 55.5 20.0999 56 20.0999L54.7 21.9999H55.5L56.7 20.1999H57.7ZM57.7 17.9999V19.6999H56.5C55.5 19.6999 55.4 19.1999 55.4 18.7999C55.4 18.3999 55.6 17.9999 56.4 17.9999H57.7ZM70.7 20.4999C70.7 21.0999 70.1 21.5999 69.4 21.5999C68.4 21.5999 67.8 20.7999 67.8 19.7999C67.8 18.7999 68.2 17.8999 69.4 17.8999C70.5 17.8999 70.7 18.5999 70.7 18.8999H71.3C71.2 18.1999 70.8 17.3999 69.3 17.3999C68.9 17.3999 67.1 17.4999 67.1 19.8999C67.1 21.2999 67.9 22.1999 69.4 22.1999C70.9 22.1999 71.3 21.1999 71.4 20.5999H70.7V20.4999ZM77 20.1999L75.6 17.4999H74.8L76.6 20.8999C76.4 21.4999 76.1 21.5999 75.9 21.5999C75.7 21.5999 75.6 21.5999 75.5 21.4999V21.9999C75.7 22.0999 75.8 22.0999 76 22.0999C76.4 22.0999 76.8 22.0999 77.2 21.1999L78.8 17.4999H78.1L77 20.1999ZM86.2 21.4999V17.4999H83.3V18.3999C83.3 20.0999 82.8 20.8999 82.4 21.4999H82V22.9999H82.6V21.9999H86.3V22.9999H86.9L87 21.4999H86.2ZM85.5 17.9999V21.4999H83.1C83.7 20.5999 83.9 19.7999 83.9 18.5999V17.9999H85.5ZM90.4 19.7999C90.4 22.0999 92.4 22.1999 92.7 22.1999C93 22.1999 95 22.1999 95 19.7999C95 17.9999 93.8 17.3999 92.7 17.3999C91.3 17.3999 90.4 18.1999 90.4 19.7999ZM91.1 19.7999C91.1 19.2999 91.2 17.8999 92.7 17.8999C93.8 17.8999 94.3 18.6999 94.3 19.7999C94.3 21.5999 93 21.6999 92.7 21.6999C91.3 21.5999 91.1 20.4999 91.1 19.7999ZM100.5 19.2999L99.3 17.4999H98.5L100.1 19.6999L98.4 21.9999H99.2L100.4 20.0999L101.6 21.9999H102.4L100.7 19.6999L102.3 17.4999H101.5L100.5 19.2999ZM106 19.7999C106 22.0999 108 22.1999 108.3 22.1999C108.6 22.1999 110.6 22.1999 110.6 19.7999C110.6 17.9999 109.4 17.3999 108.3 17.3999C106.9 17.3999 106 18.1999 106 19.7999ZM106.7 19.7999C106.7 19.2999 106.8 17.8999 108.3 17.8999C109.4 17.8999 109.9 18.6999 109.9 19.7999C109.9 21.5999 108.6 21.6999 108.3 21.6999C106.9 21.5999 106.7 20.4999 106.7 19.7999ZM118.2 21.4999V17.4999H115.3V18.3999C115.3 20.0999 114.8 20.8999 114.4 21.4999H114V22.9999H114.6V21.9999H118.3V22.9999H118.9L119 21.4999H118.2ZM117.6 17.9999V21.4999H115.2C115.8 20.5999 116 19.7999 116 18.5999V17.9999H117.6ZM123.4 19.8999H125.8V21.9999H126.4V17.4999H125.8V19.3999H123.4V17.4999H122.8V21.9999H123.4V19.8999ZM131.2 20.8999H133.2L133.6 22.0999H134.3L132.5 17.5999H131.8L130 22.0999H130.7L131.2 20.8999ZM131.4 20.3999L132.2 18.1999L133 20.3999H131.4ZM140.9 20.1999V21.9999H141.5V17.4999H139.5C138.3 17.4999 137.9 18.0999 137.9 18.7999C137.9 19.7999 138.7 20.0999 139.2 20.0999L137.9 21.8999H138.7L139.9 20.0999H140.9V20.1999ZM140.9 17.9999V19.6999H139.7C138.7 19.6999 138.6 19.1999 138.6 18.7999C138.6 18.3999 138.8 17.9999 139.6 17.9999H140.9ZM151.2 19.5999V17.5999H150.6V21.9999H151.2V19.6999L153.4 21.9999H154.2L151.8 19.5999L154.1 17.4999H153.3L151.2 19.5999ZM157.7 19.7999C157.7 22.0999 159.7 22.1999 160 22.1999C160.3 22.1999 162.3 22.1999 162.3 19.7999C162.3 17.9999 161.1 17.3999 160 17.3999C158.6 17.3999 157.7 18.1999 157.7 19.7999ZM158.4 19.7999C158.4 19.2999 158.5 17.8999 160 17.8999C161.1 17.8999 161.6 18.6999 161.6 19.7999C161.6 21.5999 160.3 21.6999 160 21.6999C158.6 21.5999 158.4 20.4999 158.4 19.7999ZM168.5 21.9999H169L170.5 18.1999V18.3999V21.9999H171.1V17.4999H170.1L168.6 21.1999L167.1 17.4999H166.1V21.9999H166.7V18.3999V18.1999L168.5 21.9999ZM176.1 17.9999H178.5V21.9999H179.1V17.4999H175.4V21.9999H176V17.9999H176.1ZM184 20.8999H186L186.4 22.0999H187.1L185.3 17.5999H184.6L182.8 22.0999H183.5L184 20.8999ZM184.1 20.3999L184.9 18.1999L185.7 20.3999H184.1ZM191.4 19.8999H193.8V21.9999H194.4V17.4999H193.8V19.3999H191.4V17.4999H190.8V21.9999H191.4V19.8999ZM199.4 21.0999V17.4999H198.8V21.9999H199.4L201.9 18.3999V21.9999H202.5V17.4999H201.9L199.4 21.0999ZM209.7 20.1999V21.9999H210.3V17.4999H208.3C207.1 17.4999 206.7 18.0999 206.7 18.7999C206.7 19.7999 207.5 20.0999 208 20.0999L206.7 21.8999H207.5L208.7 20.0999H209.7V20.1999ZM209.7 17.9999V19.6999H208.5C207.5 19.6999 207.4 19.1999 207.4 18.7999C207.4 18.3999 207.6 17.9999 208.4 17.9999H209.7Z" fill="#58595B"/>
<path fill-rule="evenodd" clip-rule="evenodd" d="M105.5 24.6001C105.9 24.6001 106.3 24.8001 106.6 25.1001C106.9 25.4001 107.1 25.8001 107.1 26.2001C107.1 26.6001 106.9 27.0001 106.6 27.3001C106.5 27.4001 106.4 27.5001 106.2 27.6001H109.8V28.5001H106C106 29.4001 106.1 30.5001 106.1 31.7001C106.2 32.9001 106.2 34.3001 106.3 35.9001C106.4 36.3001 106.6 37.2001 107.1 37.3001C107.7 37.5001 108.8 37.3001 109.5 36.5001C110.2 35.8001 110.2 35.8001 110.2 35.8001C110.2 35.8001 109.6 34.7001 110.4 34.6001C111.2 34.6001 111.3 34.6001 111.3 34.6001C111.3 34.6001 110.6 38.2001 107.8 38.8001C106.1 39.2001 105.6 39.7001 105.5 40.0001C105.5 40.0001 105.5 40.0001 105.5 39.9001C105.4 39.6001 104.8 39.1001 103.1 38.7001C100.3 38.1001 99.6 34.5001 99.6 34.5001C99.6 34.5001 99.8 34.4001 100.5 34.5001C101.3 34.5001 100.7 35.7001 100.7 35.7001C100.7 35.7001 100.7 35.7001 101.4 36.4001C102.1 37.1001 103.1 37.4001 103.8 37.2001C104.2 37.1001 104.5 36.4001 104.6 36.0001C104.7 34.3001 104.7 32.9001 104.8 31.6001C104.9 30.4001 104.9 29.4001 104.9 28.4001H101.1V27.5001H104.7C104.6 27.4001 104.4 27.3001 104.3 27.2001C104 26.9001 103.8 26.5001 103.8 26.1001C103.8 25.7001 104 25.3001 104.3 25.0001C104.7 24.8001 105.1 24.6001 105.5 24.6001ZM105.5 25.5001C105.3 25.5001 105.1 25.6001 105 25.7001C104.9 25.8001 104.8 26.0001 104.8 26.2001C104.8 26.4001 104.9 26.6001 105 26.7001C105.1 26.8001 105.3 26.9001 105.5 26.9001C105.7 26.9001 105.9 26.8001 106 26.7001C106.1 26.6001 106.2 26.4001 106.2 26.2001C106.2 26.0001 106.1 25.8001 106 25.7001C105.9 25.6001 105.7 25.5001 105.5 25.5001Z" fill="#007CAA"/>
</g>
<defs>
<clipPath id="clip0">
<rect width="211.1" height="40.1" fill="white"/>
</clipPath>
</defs>
</svg>
