<svg width="116" height="116" viewBox="0 0 116 116" fill="none" xmlns="http://www.w3.org/2000/svg">
<g clip-path="url(#clip0)">
<path d="M92.7048 70.4601C92.5552 70.4158 94.0199 70.7105 70.5494 66.1439V60.932C76.2277 57.1035 79.1774 51.6562 79.7677 45.6798C82.6139 45.5638 84.8928 43.2124 84.8928 40.3396C84.8919 37.2952 84.8937 36.2766 84.891 36.1721C89.7072 34.2623 88.8629 27.1857 83.7467 26.46V24.6714C83.7467 11.0679 72.6788 0 59.0744 0H56.9867C43.3832 0 32.3152 11.0679 32.3152 24.6723V26.46C27.2087 27.1848 26.3476 34.2605 31.17 36.1721C31.1683 36.2766 31.1692 37.2961 31.1692 40.3396C31.1692 43.2133 33.4481 45.5638 36.2934 45.6807C36.8828 51.6439 39.8042 57.084 45.5116 60.932V66.1439C21.9916 70.7202 23.5067 70.4158 23.3563 70.4601C12.5185 73.6505 7.25 79.5518 7.25 88.501V108.312C7.25 112.551 10.6989 116 14.939 116H101.123C105.362 116 108.811 112.551 108.811 108.312V88.501C108.811 79.5518 103.543 73.6505 92.7048 70.4601ZM105.413 88.501V93.2977H92.6446V73.9957C101.465 76.8011 105.413 81.3023 105.413 88.501ZM69.1272 5.9278C69.9892 6.39243 70.8158 6.9137 71.6017 7.48807V10.2767C70.9539 10.4493 69.7759 10.4493 69.1272 10.2767V5.9278ZM56.7937 3.40021C56.9601 3.39844 59.1018 3.39844 59.2682 3.40021V15.4894C58.6195 15.662 57.4416 15.662 56.7937 15.4894V3.40021ZM44.4602 7.48807C45.2461 6.9137 46.0718 6.39243 46.9338 5.9278V10.2767C46.286 10.4493 45.1081 10.4493 44.4602 10.2767V7.48807ZM41.0609 10.5838C41.0848 10.6272 40.6034 13.8044 45.6975 13.8044C48.5569 13.8044 50.3332 12.6866 50.3332 10.8883V4.46487C51.3235 4.13742 52.3466 3.88165 53.3944 3.70288V16.101C53.3944 18.2799 55.8618 19.0162 58.031 19.0162C60.8904 19.0162 62.6667 17.8993 62.6667 16.101V3.70288C63.7154 3.88165 64.7376 4.13742 65.7279 4.46487V10.8883C65.7279 12.6866 67.5041 13.8044 70.3636 13.8044C75.5382 13.8044 74.9709 10.6369 75.0002 10.5838C81.3165 17.7161 80.2217 25.6617 80.3465 26.4096H35.7146C35.8411 25.6529 34.718 17.7453 41.0609 10.5838ZM39.5927 43.9487C39.5458 41.7565 36.8306 42.3619 36.5137 42.2858C35.4411 42.2858 34.5685 41.4123 34.5685 40.3396V36.5261H41.3167C43.5646 36.5261 43.5673 33.1268 41.3167 33.1268H33.0294C30.8346 33.1268 30.8346 29.8089 33.0294 29.8089H83.0325C85.2282 29.8089 85.2256 33.1268 83.0325 33.1268H48.1153C45.8683 33.1268 45.8647 36.5261 48.1153 36.5261H81.4935V40.3396C81.4935 41.4123 80.6208 42.2858 79.5473 42.2858C79.1969 42.3698 76.5162 41.7636 76.4693 43.9487C76.2454 54.3874 67.4377 61.2967 58.031 61.4099C48.6516 61.2967 39.8166 54.4131 39.5927 43.9487ZM67.1501 62.8322V67.5448C67.1501 72.5735 63.0596 76.6649 58.031 76.6649C53.0023 76.6649 48.9109 72.5735 48.9109 67.5448V62.8322C54.5316 65.3712 61.1577 65.5394 67.1501 62.8322ZM37.4058 71.1831L45.6762 69.5742C46.6489 75.5152 51.8191 80.0633 58.031 80.0633C64.2429 80.0633 69.4122 75.5152 70.3848 69.5742L78.6561 71.1831V83.9042C78.6561 85.3645 77.4684 86.5522 76.0073 86.5522H40.0538C38.5944 86.5522 37.4058 85.3645 37.4058 83.9042V71.1831ZM23.4174 73.9957V93.2977H10.6493V88.501C10.6493 81.3023 14.5965 76.8011 23.4174 73.9957ZM14.939 112.601C12.5733 112.601 10.6493 110.677 10.6493 108.312V96.6962H23.4174V112.601H14.939ZM77.6463 99.9282V102.95H73.7638C71.5168 102.95 71.5132 106.349 73.7638 106.349H77.6463V112.601H38.4156V106.348H66.9651C69.2122 106.348 69.2157 102.949 66.9651 102.949H38.4156C38.4908 100.165 38.2519 99.7353 38.6077 99.7353C79.7881 99.8264 77.6463 99.5477 77.6463 99.9282ZM89.2453 112.601H81.0448V99.9273C81.0448 97.9476 79.4341 96.3369 77.4534 96.3369H38.6077C36.627 96.3369 35.0163 97.9476 35.0163 99.9273V112.601H26.8167V73.2416L34.0065 71.8442V83.9042C34.0065 87.239 36.7191 89.9515 40.0538 89.9515H76.0073C79.342 89.9515 82.0546 87.239 82.0546 83.9042V71.8442L89.2444 73.2416V112.601H89.2453ZM101.123 112.601H92.6437V96.6962H105.412V108.312C105.413 110.677 103.488 112.601 101.123 112.601Z" fill="#E1E1E1"/>
</g>
<defs>
<clipPath id="clip0">
<rect width="116" height="116" fill="white"/>
</clipPath>
</defs>
</svg>
