<svg width="116" height="116" viewBox="0 0 116 116" fill="none" xmlns="http://www.w3.org/2000/svg">
<g clip-path="url(#clip0)">
<path d="M20.0236 75.3358C20.0216 74.4599 20.2635 73.6021 20.7235 72.8563L25.1824 65.6781C25.7382 64.5743 26.0261 63.3547 26.0223 62.1191V40.0044C26.0223 25.6479 37.6594 14.0107 52.0159 14.0107H64.013C78.3696 14.0107 90.0067 25.6479 90.0067 40.0044V62.1191C90.0026 63.3547 90.2906 64.5745 90.8465 65.6781L95.3055 72.8563C95.7654 73.6021 96.0074 74.4599 96.0054 75.3358C95.9954 77.9052 93.9158 79.9846 91.3466 79.9945H24.6829C22.1132 79.9846 20.0336 77.905 20.0236 75.3358Z" fill="#88B337"/>
<path d="M52.0156 14.0107L42.0182 0.0141602H74.0103L64.0128 14.0107V18.0097H52.0156V14.0107Z" fill="#88B337"/>
<path d="M20.7234 72.8563L25.1824 65.6782C25.7381 64.5744 26.0261 63.3548 26.0222 62.1191V40.0045C26.0082 34.2138 27.9297 28.5833 31.4808 24.0083C36.8195 53.4212 55.6148 70.3771 73.2705 79.9946H24.6824C22.0991 80.0046 19.9955 77.9191 19.9855 75.3338C19.9814 74.4579 20.2234 73.6001 20.6833 72.8563H20.7234Z" fill="#6B962A"/>
<path d="M48.017 44.0035V42.7238C48.0269 39.0187 51.0302 36.0156 54.7354 36.0054H56.015V32.0063H60.0141V36.0054H61.2937C65.0048 35.9934 68.0221 38.9906 68.0341 42.7016C68.0441 45.5189 66.2946 48.0424 63.6531 49.022L60.0141 50.3816V57.9998H61.2937C62.7954 57.9998 64.0131 56.782 64.0131 55.2803V54.0007H68.0122V55.2803C68.0022 58.9855 64.9989 61.9886 61.2937 61.9988H54.7352C51.0241 62.0108 48.0068 59.0136 47.9948 55.3026C47.9848 52.4853 49.7343 49.9618 52.3758 48.9822L56.0148 47.6226V40.0044H54.7352C53.2336 40.0044 52.0158 41.2222 52.0158 42.7238V44.0035H48.017ZM53.7755 52.7213C52.7197 53.1312 52.0219 54.1471 52.016 55.2808C52.016 56.7825 53.2338 58.0002 54.7354 58.0002H56.015V51.8817L53.7755 52.7213ZM60.0139 46.123L62.2534 45.2831C63.3092 44.8732 64.007 43.8573 64.0129 42.7236C64.0129 41.222 62.7951 40.0042 61.2935 40.0042H60.0139V46.123Z" fill="white"/>
<path d="M18.0241 20.0093C18.704 15.9063 21.9192 12.6912 26.0222 12.0113C21.9192 11.3313 18.704 8.11621 18.0241 4.01318C17.3442 8.11621 14.1291 11.3313 10.0261 12.0113C14.1291 12.6912 17.3442 15.9065 18.0241 20.0093Z" fill="#FDB62F"/>
<path d="M108.002 59.9998C108.682 55.897 111.897 52.6817 116 52.002C111.897 51.3221 108.682 48.1069 108.002 44.0039C107.322 48.1069 104.107 51.3221 100.004 52.002C104.107 52.6817 107.322 55.897 108.002 59.9998Z" fill="#FDB62F"/>
<path d="M0.888245 69.7767C2.52991 67.0134 6.05703 66.0358 8.88633 67.5574L37.2593 79.6743C37.7591 79.8862 38.297 79.9963 38.8389 79.9942H74.0103C76.2198 79.9942 78.0094 78.2046 78.0094 75.9952C78.0094 73.7858 76.2198 71.9961 74.0103 71.9961H58.0142C51.3877 71.9961 46.0171 66.6255 46.0171 59.999H79.289C84.8037 60.0031 90.0183 62.5125 93.4654 66.8174L106.002 81.9936L91.8858 107.867L37.5591 94.8104C35.2117 94.2685 32.9401 93.4368 30.8007 92.331L2.80768 77.9944C0.0223236 76.2451 -0.833397 72.58 0.888245 69.7767Z" fill="#FEC9A3"/>
<path d="M96.3848 99.6295L91.8859 107.868L37.5592 94.8108C35.2118 94.2689 32.9403 93.4372 30.8008 92.3313L15.6645 84.5532C40.8185 92.2513 74.2103 97.0501 96.3848 99.6295Z" fill="#F7BB8F"/>
<path d="M116 79.9945V115.986H90.0064L84.0079 109.987L108.002 73.9961L116 79.9945Z" fill="#4398D1"/>
<path d="M116 115.986H90.0064L84.0079 109.988L88.4068 103.389C97.3005 107.06 106.546 109.814 116 111.607V115.986Z" fill="#3E8CC7"/>
<path d="M98.0044 109.993C95.7958 109.993 94.0053 108.203 94.0053 105.994C94.0053 103.786 95.7958 101.995 98.0044 101.995C100.213 101.995 102.003 103.786 102.003 105.994C102.003 108.203 100.213 109.993 98.0044 109.993Z" fill="#D9D9D9"/>
</g>
<defs>
<clipPath id="clip0">
<rect width="116" height="116" transform="matrix(-1 0 0 1 116 0)" fill="white"/>
</clipPath>
</defs>
</svg>
