<svg width="116" height="116" viewBox="0 0 116 116" fill="none" xmlns="http://www.w3.org/2000/svg">
<g clip-path="url(#clip0)">
<path d="M21.75 33.5313V28.0938H5.43755C5.43755 28.0938 0 30.5407 0 33.5313V100.866C0.181321 106.756 4.98448 111.378 10.8751 111.378H21.7502L21.75 33.5313Z" fill="#416C7E"/>
<path d="M21.7502 15.4062H16.3126C13.322 15.4062 10.8751 17.8532 10.8751 20.8438V100.594C10.8751 104.581 8.70012 108.116 5.4375 110.019C7.0687 110.925 8.88122 111.469 10.8751 111.469H21.7502C21.7502 111.469 21.7502 15.4062 21.7502 15.4062Z" fill="#6CA7C0"/>
<path d="M110.563 4.53125H27.1877C24.5594 4.53125 21.7501 7.52189 21.7501 9.9688V100.594C21.7501 106.575 16.8563 111.469 10.875 111.469H105.125C111.106 111.469 116 106.575 116 100.594V9.9688C116 7.3408 113.009 4.53125 110.563 4.53125Z" fill="#96CFE8"/>
<path d="M36.25 64.3438H54.375C56.3688 64.3438 58 62.7126 58 60.7187V40.7813C58 38.7874 56.3688 37.1562 54.375 37.1562H36.25C34.2562 37.1562 32.625 38.7874 32.625 40.7813V60.7187C32.6252 62.7126 34.2564 64.3438 36.25 64.3438ZM36.25 42.5938C36.25 41.597 37.0657 40.7813 38.0626 40.7813H52.5625C53.5593 40.7813 54.375 41.597 54.375 42.5938V58.9062C54.375 59.903 53.5593 60.7187 52.5625 60.7187H38.0626C37.0657 60.7187 36.25 59.903 36.25 58.9062V42.5938ZM103.313 85.1874H34.4377C33.4409 85.1874 32.6252 86.0031 32.6252 86.9999C32.6252 87.9967 33.4409 88.8124 34.4377 88.8124H103.313C104.31 88.8124 105.125 87.9967 105.125 86.9999C105.125 86.0031 104.31 85.1874 103.313 85.1874ZM103.313 70.6875H34.4377C33.4409 70.6875 32.6252 71.5032 32.6252 72.5C32.6252 73.4968 33.4409 74.3125 34.4377 74.3125H103.313C104.31 74.3125 105.125 73.4968 105.125 72.5C105.125 71.5032 104.31 70.6875 103.313 70.6875ZM103.313 77.9375H34.4377C33.4409 77.9375 32.6252 78.7533 32.6252 79.7501C32.6252 80.7469 33.4409 81.5626 34.4377 81.5626H103.313C104.31 81.5626 105.125 80.7469 105.125 79.7501C105.125 78.7533 104.31 77.9375 103.313 77.9375ZM103.313 51.6561H67.0626C66.0658 51.6561 65.2501 52.4719 65.2501 53.4687C65.2501 54.4655 66.0658 55.2812 67.0626 55.2812H103.313C104.309 55.2812 105.125 54.4655 105.125 53.4687C105.125 52.4719 104.31 51.6561 103.313 51.6561ZM103.313 37.1562H67.0626C66.0658 37.1562 65.2501 37.9719 65.2501 38.9688C65.2501 39.9656 66.0658 40.7813 67.0626 40.7813H103.313C104.309 40.7813 105.125 39.9656 105.125 38.9688C105.125 37.9719 104.31 37.1562 103.313 37.1562ZM103.313 58.9062H67.0626C66.0658 58.9062 65.2501 59.7219 65.2501 60.7187C65.2501 61.7155 66.0658 62.5312 67.0626 62.5312H103.313C104.309 62.5312 105.125 61.7155 105.125 60.7187C105.125 59.7219 104.31 58.9062 103.313 58.9062ZM103.313 15.4062H34.4377C33.4409 15.4062 32.6252 16.222 32.6252 17.2188V26.2814C32.6252 27.2782 33.4409 28.0939 34.4377 28.0939H103.313C104.31 28.0939 105.125 27.2782 105.125 26.2814V17.2188C105.125 16.2217 104.31 15.4062 103.313 15.4062ZM103.313 44.4063H67.0626C66.0658 44.4063 65.2501 45.222 65.2501 46.2188C65.2501 47.2156 66.0658 48.0313 67.0626 48.0313H103.313C104.309 48.0313 105.125 47.2156 105.125 46.2188C105.125 45.222 104.31 44.4063 103.313 44.4063ZM94.2502 92.4374H34.4377C33.4409 92.4374 32.6252 93.2532 32.6252 94.25C32.6252 95.2468 33.4409 96.0625 34.4377 96.0625H94.2502C95.247 96.0625 96.0627 95.2468 96.0627 94.25C96.0627 93.2532 95.247 92.4374 94.2502 92.4374Z" fill="#6CA7C0"/>
</g>
<defs>
<clipPath id="clip0">
<rect width="116" height="116" fill="white"/>
</clipPath>
</defs>
</svg>
