<svg width="14" height="14" viewBox="0 0 14 14" fill="none" xmlns="http://www.w3.org/2000/svg">
<path d="M9.33333 7H10.8889C10.8889 5.9686 10.4792 4.97945 9.74986 4.25014C9.02055 3.52083 8.0314 3.11111 7 3.11111V4.66667C7.61884 4.66667 8.21233 4.9125 8.64992 5.35008C9.0875 5.78767 9.33333 6.38116 9.33333 7ZM12.4444 7H14C14 3.11111 10.8656 0 7 0V1.55556C10.0022 1.55556 12.4444 3.99 12.4444 7ZM13.2222 9.72222C12.25 9.72222 11.3167 9.56667 10.4456 9.27889C10.1733 9.19333 9.87 9.25556 9.65222 9.47333L7.94111 11.1844C5.74 10.0644 3.93556 8.26 2.81556 6.05889L4.52667 4.34778C4.74444 4.13 4.80667 3.82667 4.72111 3.55444C4.43333 2.68333 4.27778 1.75 4.27778 0.777778C4.27778 0.571498 4.19583 0.373667 4.04997 0.227806C3.90411 0.0819442 3.70628 0 3.5 0H0.777778C0.571498 0 0.373667 0.0819442 0.227806 0.227806C0.0819442 0.373667 0 0.571498 0 0.777778C0 4.28453 1.39305 7.64765 3.8727 10.1273C6.35235 12.6069 9.71547 14 13.2222 14C13.4285 14 13.6263 13.9181 13.7722 13.7722C13.9181 13.6263 14 13.4285 14 13.2222V10.5C14 10.2937 13.9181 10.0959 13.7722 9.95003C13.6263 9.80417 13.4285 9.72222 13.2222 9.72222Z" fill="#B0B0AE"/>
</svg>
