<svg width="92" height="92" viewBox="0 0 92 92" fill="none" xmlns="http://www.w3.org/2000/svg">
<path fill-rule="evenodd" clip-rule="evenodd" d="M86.4479 92H5.55206C2.48544 92 0 89.5145 0 86.4479V15.8623H92V86.4479C92 89.5145 89.5146 92 86.4479 92Z" fill="#E7ECED"/>
<path fill-rule="evenodd" clip-rule="evenodd" d="M92 19.0342H0V5.55206C0 2.48544 2.48544 0 5.55206 0H86.4479C89.5146 0 92 2.48544 92 5.55206V19.0342Z" fill="#28384C"/>
<path fill-rule="evenodd" clip-rule="evenodd" d="M6.34448 6.34448H12.6897V12.6897H6.34448V6.34448Z" fill="#DD352E"/>
<path fill-rule="evenodd" clip-rule="evenodd" d="M19.0342 6.34448H25.3795V12.6897H19.0342V6.34448Z" fill="#EBBA16"/>
<path fill-rule="evenodd" clip-rule="evenodd" d="M31.7239 6.34448H38.0692V12.6897H31.7239V6.34448Z" fill="#23A24D"/>
<path d="M26.9657 82.4829H11.1034C10.2281 82.4829 9.51709 81.774 9.51709 80.8966C9.51709 80.0192 10.2281 79.3103 11.1034 79.3103H26.9657C27.841 79.3103 28.552 80.0192 28.552 80.8966C28.552 81.774 27.841 82.4829 26.9657 82.4829Z" fill="#75348B"/>
<path d="M26.9657 69.7932H11.1034C10.2281 69.7932 9.51709 69.0843 9.51709 68.2069C9.51709 67.3295 10.2281 66.6206 11.1034 66.6206H26.9657C27.841 66.6206 28.552 67.3295 28.552 68.2069C28.552 69.0843 27.841 69.7932 26.9657 69.7932Z" fill="#EBBA16"/>
<path d="M19.0342 63.4479H11.1034C10.2281 63.4479 9.51709 62.739 9.51709 61.8623C9.51709 60.9849 10.2281 60.276 11.1034 60.276H19.0342C19.9102 60.276 20.6205 60.9849 20.6205 61.8623C20.6205 62.739 19.9102 63.4479 19.0342 63.4479Z" fill="#DD352E"/>
<path d="M26.9657 76.1377H11.1034C10.2281 76.1377 9.51709 75.4288 9.51709 74.5521C9.51709 73.6747 10.2281 72.9658 11.1034 72.9658H26.9657C27.841 72.9658 28.552 73.6747 28.552 74.5521C28.552 75.4288 27.841 76.1377 26.9657 76.1377Z" fill="#57ABC1"/>
<path d="M53.9308 82.4829H38.0692C37.1932 82.4829 36.4829 81.774 36.4829 80.8966C36.4829 80.0192 37.1932 79.3103 38.0692 79.3103H53.9308C54.8068 79.3103 55.5172 80.0192 55.5172 80.8966C55.5172 81.774 54.8068 82.4829 53.9308 82.4829Z" fill="#7383BF"/>
<path d="M53.9308 69.7932H38.0692C37.1932 69.7932 36.4829 69.0843 36.4829 68.2069C36.4829 67.3295 37.1932 66.6206 38.0692 66.6206H53.9308C54.8068 66.6206 55.5172 67.3295 55.5172 68.2069C55.5172 69.0843 54.8068 69.7932 53.9308 69.7932Z" fill="#25AE88"/>
<path d="M46 63.4479H38.0692C37.1932 63.4479 36.4829 62.739 36.4829 61.8623C36.4829 60.9849 37.1932 60.276 38.0692 60.276H46C46.8753 60.276 47.5863 60.9849 47.5863 61.8623C47.5863 62.739 46.8753 63.4479 46 63.4479Z" fill="#3083C9"/>
<path d="M53.9308 76.1377H38.0692C37.1932 76.1377 36.4829 75.4288 36.4829 74.5521C36.4829 73.6747 37.1932 72.9658 38.0692 72.9658H53.9308C54.8068 72.9658 55.5172 73.6747 55.5172 74.5521C55.5172 75.4288 54.8068 76.1377 53.9308 76.1377Z" fill="#BE6E41"/>
<path d="M80.8966 82.4829H65.0342C64.159 82.4829 63.4479 81.774 63.4479 80.8966C63.4479 80.0192 64.159 79.3103 65.0342 79.3103H80.8966C81.7719 79.3103 82.4829 80.0192 82.4829 80.8966C82.4829 81.774 81.7719 82.4829 80.8966 82.4829Z" fill="#BF4D90"/>
<path d="M80.8966 69.7932H65.0342C64.159 69.7932 63.4479 69.0843 63.4479 68.2069C63.4479 67.3295 64.159 66.6206 65.0342 66.6206H80.8966C81.7719 66.6206 82.4829 67.3295 82.4829 68.2069C82.4829 69.0843 81.7719 69.7932 80.8966 69.7932Z" fill="#6C342A"/>
<path d="M72.9658 63.4479H65.0342C64.159 63.4479 63.4479 62.739 63.4479 61.8623C63.4479 60.9849 64.159 60.276 65.0342 60.276H72.9658C73.841 60.276 74.5521 60.9849 74.5521 61.8623C74.5521 62.739 73.841 63.4479 72.9658 63.4479Z" fill="#FC3952"/>
<path d="M80.8966 76.1377H65.0342C64.159 76.1377 63.4479 75.4288 63.4479 74.5521C63.4479 73.6747 64.159 72.9658 65.0342 72.9658H80.8966C81.7719 72.9658 82.4829 73.6747 82.4829 74.5521C82.4829 75.4288 81.7719 76.1377 80.8966 76.1377Z" fill="#61B872"/>
<path d="M11.1035 35.3627V52.3445H26.9658V30.1377H11.1035V35.3627Z" fill="#25AE88"/>
<path d="M65.0342 30.1377V52.3445H80.8966V30.1377H65.0342Z" fill="#EBBA16"/>
<path d="M38.0692 35.3627V52.3445H53.9308V30.1377H38.0692V35.3627Z" fill="#DD352E"/>
</svg>
