<svg width="92" height="92" viewBox="0 0 92 92" fill="none" xmlns="http://www.w3.org/2000/svg">
<path d="M18.8422 38.8842L63.5005 49.0288L72.6735 12.0987L28.0152 1.95412L18.8422 38.8842Z" fill="#D6D6D6"/>
<path d="M58.1084 53.673L30.8339 47.4773C21.2314 45.2959 15.2963 36.0835 17.5771 26.9005L22.6208 6.59473L67.282 16.7401L58.1084 53.673Z" fill="#D6D6D6"/>
<path d="M37.9473 47.9272L83.2224 40.684L76.6729 3.24389L31.3978 10.4872L37.9473 47.9272Z" fill="#E8E8E8"/>
<path d="M40.7517 44.6834L86.0268 37.4401L79.4773 2.5893e-05L34.2022 7.24329L40.7517 44.6834Z" fill="#F4F4F4"/>
<path d="M39.2434 20.6273L79.2698 14.2237L78.721 11.0862L38.6945 17.4898L39.2434 20.6273Z" fill="#D6D6D6"/>
<path d="M43.8654 15.097L41.7117 12.4864L42.2059 15.3112C42.2523 15.577 41.9368 15.7642 41.598 15.8184C41.2591 15.8725 40.8972 15.7938 40.8506 15.5281L39.9275 10.2523C39.8795 9.978 40.1966 9.79931 40.5354 9.74517C41.0221 9.66735 41.2116 9.67952 41.6479 10.2332L43.5046 12.5754L43.0104 9.7506C42.9624 9.47631 43.2809 9.30601 43.6197 9.25188C43.9586 9.19775 44.3177 9.25961 44.3655 9.5339L45.29 14.818C45.3365 15.0837 45.0209 15.2709 44.6821 15.3251C44.3697 15.3749 44.0815 15.3614 43.8654 15.097Z" fill="#5C5560"/>
<path d="M47.0345 11.3103L48.3376 11.102C48.5983 11.0602 48.7882 11.2775 48.8347 11.5433C48.8739 11.7677 48.7987 12.0528 48.5121 12.0988L47.2089 12.3071L47.4562 13.7195L49.7845 13.347C50.0451 13.3052 50.2392 13.5475 50.2931 13.8551C50.3397 14.1208 50.269 14.4311 49.9822 14.477L46.8894 14.9718C46.5938 15.019 46.2754 14.9333 46.2289 14.6676L45.306 9.39173C45.2595 9.126 45.5316 8.94583 45.827 8.89844L48.9197 8.40367C49.2065 8.35776 49.3789 8.62925 49.4254 8.89499C49.4791 9.20235 49.3781 9.49177 49.1174 9.53357L46.7891 9.90609L47.0345 11.3103Z" fill="#5C5560"/>
<path d="M56.6657 13.0148C56.6124 13.3223 56.2462 13.5262 55.8464 13.59C55.4553 13.6525 55.0136 13.578 54.8933 13.2983L54.0972 11.4016L53.9899 13.4429C53.9711 13.7448 53.5788 13.9528 53.1881 14.0153C52.7884 14.0793 52.3639 14.0018 52.2177 13.7266L49.6022 8.93516C49.5892 8.91163 49.5732 8.87148 49.5659 8.83001C49.5167 8.5475 49.9624 8.23718 50.3534 8.17449C50.562 8.14108 50.7473 8.17975 50.8299 8.34594L52.8961 12.3969L53.0912 9.47896C53.1039 9.2463 53.3877 9.08127 53.6831 9.03404C53.9787 8.98682 54.303 9.05445 54.3944 9.27049L55.5719 11.969L56.1469 7.49559C56.1685 7.31279 56.3307 7.21867 56.5394 7.1851C56.9303 7.12258 57.4573 7.27725 57.5071 7.55976C57.5143 7.60139 57.5127 7.64417 57.5084 7.67066L56.6657 13.0148Z" fill="#5C5560"/>
<path d="M61.2961 10.9929C61.1203 9.98739 58.3968 10.6026 58.0566 8.65839C57.8386 7.41216 58.8937 6.75647 59.9797 6.58271C60.4401 6.50916 61.723 6.38905 61.8366 7.03734C61.8758 7.26177 61.7992 7.74355 61.4171 7.80459C61.1043 7.85478 60.884 7.56535 60.1716 7.67921C59.5547 7.77794 59.345 8.05914 59.3901 8.31664C59.5353 9.14741 62.2619 8.54897 62.6282 10.6426C62.8376 11.839 62.0387 12.6329 60.7789 12.8344C59.6408 13.0166 58.5921 12.6376 58.4962 12.0894C58.4469 11.8069 58.6349 11.3498 58.9649 11.297C59.3732 11.2316 59.7414 11.8047 60.5494 11.6754C60.9489 11.6121 61.3658 11.3917 61.2961 10.9929Z" fill="#5C5560"/>
<path d="M40.1031 25.5434L57.163 22.8141L56.8154 20.8271L39.7555 23.5564L40.1031 25.5434Z" fill="#5C5560"/>
<path d="M40.8168 29.6215L57.8768 26.8922L57.5292 24.9051L40.4692 27.6344L40.8168 29.6215Z" fill="#5C5560"/>
<path d="M63.0686 21.8699L80.1286 19.1406L79.781 17.1535L62.721 19.8828L63.0686 21.8699Z" fill="#5C5560"/>
<path d="M65.7566 37.2424L82.8166 34.5131L80.493 21.2305L63.433 23.9598L65.7566 37.2424Z" fill="#5C5560"/>
<path d="M41.3461 36.7427L41.4383 36.9039C42.0184 37.9178 43.0617 38.6034 44.2545 38.7931C46.9113 39.2161 49.3453 40.7575 50.739 43.1932L52.8941 46.959C51.5811 48.0322 50.1337 48.9922 48.5588 49.8164C41.8957 53.3036 34.3156 53.6414 27.6914 51.3531C27.546 49.8929 27.7917 48.4275 28.3878 47.0969C28.8628 46.0345 28.8216 44.8245 28.2413 43.8107L28.1492 43.6495C27.569 42.6356 26.5257 41.9499 25.3338 41.7599C22.677 41.337 20.2428 39.7946 18.8494 37.3599L16.6442 33.5062C14.8053 30.2927 15.3117 26.4574 17.6123 23.7966C18.3372 22.9576 18.4679 21.7855 17.9214 20.8308L16.3179 18.0285L25.1599 13.401L26.7635 16.2033C27.3098 17.1581 28.4116 17.6851 29.5421 17.5529C33.125 17.1347 36.7767 18.7938 38.6156 22.0073L40.8208 25.861C42.214 28.2958 42.2601 31.0879 41.2005 33.4559C40.7246 34.5188 40.7657 35.7288 41.3461 36.7427Z" fill="#E8E8E8"/>
<path d="M25.1602 13.4016L26.2434 15.2943L20.6915 18.2C20.4291 18.3374 20.2499 18.5637 20.1714 18.8176C20.0942 19.0718 20.1179 19.355 20.2614 19.6059C20.8083 20.5615 21.0027 21.5611 20.7703 22.1437C20.0272 23.9893 20.622 27.2483 22.4615 30.4628L24.6664 34.3156C26.0596 36.7504 27.8615 38.6248 29.5339 39.5618C30.2845 39.984 31.0626 40.8061 31.6433 41.8209L31.7354 41.9821C32.3155 42.996 32.621 44.0678 32.5874 44.8982C32.512 46.7523 33.1905 49.2123 34.5839 51.6468L35.2344 52.7836C32.6538 52.6739 30.109 52.1878 27.6914 51.3533C27.5445 49.893 27.7906 48.4283 28.3873 47.0962C28.8627 46.0346 28.8206 44.8252 28.2403 43.8112L28.1482 43.65C27.5674 42.6353 26.5261 41.9509 25.3337 41.7598C22.6757 41.3386 20.2426 39.7945 18.8492 37.3597L16.6444 33.5069C14.8049 30.2926 15.3106 26.4577 17.611 23.797C18.3354 22.9571 18.4671 21.7867 17.9201 20.8312L16.317 18.0299L25.1602 13.4016Z" fill="#D6D6D6"/>
<path d="M23.8835 9.72169L25.9063 13.2566L15.7883 18.5517L13.7655 15.0168C13.1674 13.9718 13.5683 12.6615 14.6612 12.0896L20.8215 8.86567C21.9141 8.29402 23.2855 8.67659 23.8835 9.72169Z" fill="#279FC9"/>
<path d="M23.8836 9.72166L25.9064 13.2566L18.7142 17.0206L16.6913 13.4857C16.0932 12.4407 16.4942 11.1305 17.587 10.5586L20.8216 8.86588C21.9141 8.294 23.2855 8.67657 23.8836 9.72166Z" fill="#34ABE0"/>
<path d="M37.0408 29.8966C35.8841 30.502 34.4331 30.0959 33.8001 28.9897L31.0327 24.1536C30.3997 23.0474 30.8243 21.6598 31.981 21.0544C33.1378 20.449 34.5887 20.8551 35.2218 21.9613L37.9891 26.7974C38.6222 27.9036 38.1975 29.2912 37.0408 29.8966Z" fill="#FCFCFC"/>
<path d="M49.1127 46.2357L50.5135 48.6835C49.885 49.0849 49.2338 49.4629 48.5587 49.8163C47.8208 50.2024 47.0718 50.5502 46.3143 50.8585L44.9234 48.4282C44.2902 47.3219 44.7147 45.935 45.8715 45.3295C46.4498 45.0269 47.1018 44.9766 47.6882 45.1406C48.2754 45.3042 48.7962 45.6826 49.1127 46.2357Z" fill="#FCFCFC"/>
<path d="M62.6573 50.6916L62.6809 50.8739C62.8292 52.0211 63.5347 53.0263 64.5703 53.6233C66.8767 54.9534 68.5444 57.2448 68.9006 60.0002L69.4515 64.2606C67.8173 64.7951 66.1016 65.1769 64.3198 65.3876C56.7816 66.2789 49.6054 63.9195 44.3307 59.4562C44.7586 58.0477 45.5521 56.7724 46.6196 55.7457C47.4709 54.9256 47.8991 53.7863 47.7507 52.6393L47.7271 52.457C47.5788 51.3098 46.8733 50.3046 45.8388 49.7075C43.5323 48.3774 41.8642 46.0852 41.5084 43.3306L40.9448 38.9708C40.4749 35.3352 42.4246 31.9488 45.5893 30.287C46.5867 29.7628 47.16 28.7196 47.0203 27.6394L46.6104 24.469L56.6137 23.2863L57.0235 26.4566C57.1632 27.5367 57.9841 28.4152 59.0858 28.6913C62.5773 29.5661 65.3318 32.3964 65.8019 36.0319L66.3655 40.3917C66.7217 43.1461 65.6876 45.7579 63.7895 47.5851C62.9371 48.4053 62.509 49.5446 62.6573 50.6916Z" fill="#E8E8E8"/>
<path d="M56.6138 23.2874L56.8907 25.4289L50.6096 26.1715C50.3128 26.2066 50.0586 26.3538 49.8879 26.562C49.7183 26.7713 49.6311 27.0427 49.6677 27.3264C49.8074 28.4074 49.6027 29.4052 49.162 29.8646C47.7596 31.3182 47.0557 34.5571 47.5258 38.1937L48.0894 42.5525C48.4456 45.3069 49.3976 47.6848 50.5908 49.1456C51.1257 49.8028 51.532 50.8414 51.6804 51.9895L51.704 52.1718C51.8523 53.319 51.7231 54.4229 51.3714 55.1828C50.5863 56.8795 50.2685 59.4055 50.6245 62.1599L50.7909 63.446C48.4348 62.4339 46.2567 61.0843 44.3312 59.4561C44.7581 58.0468 45.5516 56.7722 46.6199 55.7445C47.4714 54.9254 47.8985 53.7863 47.7501 52.6391L47.7266 52.4568C47.5781 51.3087 46.874 50.3053 45.8394 49.7074C43.5313 48.3784 41.8649 46.085 41.5091 43.3304L40.9455 38.9716C40.4754 35.3351 42.4241 31.9488 45.5888 30.287C46.586 29.7619 47.1596 28.7206 47.0198 27.6394L46.6101 24.47L56.6138 23.2874Z" fill="#D6D6D6"/>
<path d="M56.8464 19.4165L57.3634 23.4156L45.9164 24.769L45.3994 20.7698C45.2466 19.5876 46.1245 18.5112 47.3607 18.3649L54.3299 17.5409C55.5664 17.3949 56.6936 18.2342 56.8464 19.4165Z" fill="#EF4152"/>
<path d="M56.8463 19.4165L57.3634 23.4156L49.2264 24.3777L48.7094 20.3785C48.5566 19.1963 49.4345 18.1199 50.6707 17.9736L54.33 17.5409C55.5664 17.3949 56.6935 18.2342 56.8463 19.4165Z" fill="#FF525D"/>
<path d="M61.2956 42.8099C59.9869 42.9645 58.7949 42.0753 58.633 40.8239L57.9257 35.3526C57.764 34.1011 58.6937 32.961 60.0024 32.8063C61.3111 32.6516 62.5031 33.5408 62.665 34.7923L63.3723 40.2636C63.5341 41.5151 62.6044 42.655 61.2956 42.8099Z" fill="#FCFCFC"/>
<path d="M66.2153 62.2549L66.5732 65.0241C65.8342 65.1756 65.083 65.2972 64.3195 65.3876C63.4848 65.4863 62.6543 65.5453 61.8313 65.5646L61.4759 62.8151C61.3141 61.5635 62.2434 60.4242 63.5522 60.2694C64.2066 60.192 64.832 60.3753 65.3136 60.7343C65.7966 61.0935 66.1345 61.629 66.2153 62.2549Z" fill="#FCFCFC"/>
<path d="M87.0038 39.299L86.8062 41.3948L86.3621 46.0884L83.4371 76.9908C75.3575 86.1682 63.2546 92 49.7279 92C42.4629 92 35.6078 90.3186 29.5671 87.3391C24.3606 84.7704 19.7581 81.2391 16.0188 76.9908L12.6478 41.3966L12.4501 39.299H87.0038Z" fill="#56ABAE"/>
<path d="M86.3625 46.0883L85.7081 52.9945L84.9981 60.4958L83.4375 76.9904C75.358 86.168 63.2552 91.9996 49.7284 91.9996C42.4635 91.9996 35.6084 90.3182 29.5676 87.3387L26.4933 54.8392C26.0475 50.1388 29.9181 46.0881 34.8532 46.0881L86.3625 46.0883Z" fill="#62C1C5"/>
<path d="M90.2616 42.4954C9.18397 42.4954 90.2702 42.4954 9.19257 42.4954C8.23249 42.4954 7.4541 41.7512 7.4541 40.8329V35.7027C7.4541 34.7845 8.23232 34.0402 9.19257 34.0402H90.2616C91.2217 34.0402 92 34.7844 92 35.7027V40.8329C92 41.7509 91.2218 42.4954 90.2616 42.4954Z" fill="#56ABAE"/>
<path d="M48.6404 79.7474V87.0035C45.0847 87.0035 42.7784 86.9851 41.2917 86.576C40.4345 86.3403 39.7087 85.7913 39.2557 85.0567C39.2557 85.0563 39.2557 85.056 39.2554 85.0557C38.9716 84.3049 38.5224 82.5787 39.2094 81.2821C39.6643 80.4229 40.8287 80.3977 41.18 79.7473H48.6406V79.7474H48.6404Z" fill="#FCFCFC"/>
<path d="M42.3996 70.9423L46.185 78.1822L42.9622 76.5194C42.9622 76.5194 42.3683 77.5466 41.1797 79.7478C40.8284 80.3981 40.4254 81.151 39.9705 82.0106C39.2836 83.3073 38.9717 84.3056 39.2552 85.0562L35.2606 78.5787C34.8644 77.9356 34.8366 77.1435 35.1883 76.4767L36.8409 73.3398L33.8573 71.6766L42.3996 70.9423Z" fill="#494B5B"/>
<path d="M55.6352 73.8672L62.2062 70.2392C63.9841 73.184 65.1205 75.1032 65.4935 76.539C65.7086 77.3668 65.5744 78.2423 65.1358 78.9849C65.1355 78.985 65.1353 78.9852 65.1352 78.9855C64.5971 79.5958 63.2584 80.831 61.7406 80.9107C60.735 80.9636 60.1302 80.0118 59.3656 80.046L55.6352 73.8672Z" fill="#FCFCFC"/>
<path d="M50.7818 83.4383L55.4454 76.6833L55.5507 80.1837C55.5507 80.1837 56.7782 80.162 59.3656 80.0458C60.1302 80.0116 61.0137 79.969 62.0194 79.916C63.5371 79.8363 64.5971 79.5956 65.1351 78.9853L61.2663 85.5324C60.8821 86.1822 60.1783 86.6011 59.3989 86.6432L55.7317 86.843L55.7173 90.1456L50.7818 83.4383Z" fill="#494B5B"/>
<path d="M46.6379 71.1503L40.0668 67.5223C41.8447 64.5775 43.0145 62.6767 44.1282 61.6499C44.7702 61.0578 45.6303 60.7312 46.5222 60.7233C46.5226 60.7235 46.5228 60.7237 46.5233 60.7235C47.345 60.864 49.1329 61.355 49.9637 62.5723C50.5145 63.3788 49.9551 64.3556 50.3682 64.9716L46.6379 71.1503Z" fill="#FCFCFC"/>
<path d="M57.7321 70.3843L49.2831 69.8994L52.4003 68.0618C52.4003 68.0618 51.7669 67.0561 50.3681 64.9713C49.9548 64.3552 49.4744 63.6449 48.9237 62.8383C48.093 61.621 47.3449 60.8635 46.5231 60.7232L54.3865 60.6537C55.1671 60.647 55.8984 61.0203 56.3261 61.6449L58.3407 64.5821L61.3388 62.9428L57.7321 70.3843Z" fill="#494B5B"/>
</svg>
