<svg width="92" height="92" viewBox="0 0 92 92" fill="none" xmlns="http://www.w3.org/2000/svg">
<g clip-path="url(#clip0)">
<path d="M78.4157 29.61H59.4193V64.0401H90.5434V48.5432L86.9135 35.9977C85.8193 32.2145 82.3541 29.61 78.4157 29.61Z" fill="#FF7058"/>
<path d="M85.9993 48.3842L82.7643 37.2014C82.2066 35.279 80.4185 33.9337 78.4157 33.9337H63.743V48.3842H85.9993Z" fill="#84DBFF"/>
<path d="M86.0033 48.3784H63.7354V33.9279L86.0033 48.3784Z" fill="#CDD6E0"/>
<path d="M85.9993 48.3842L82.7643 37.2014C82.2066 35.279 80.4185 33.9337 78.4157 33.9337H63.743L85.9993 48.3842Z" fill="#F2F2F2"/>
<path d="M5.74952 12.325H53.6698C56.8435 12.325 59.4193 14.8988 59.4193 18.0745V64.0381H0V18.0745C0 14.899 2.57381 12.325 5.74952 12.325Z" fill="#FFD15C"/>
<path d="M38.9435 12.3347V27.5267L36.7202 25.3036L34.3899 27.6342L32.0613 25.3036L29.7328 27.6342L27.4003 25.3036L25.0412 27.6342L22.7144 25.3036L20.4645 27.5537V12.3347H38.9435Z" fill="#F2F2F2"/>
<path d="M92 64.0361V70.5331H0.00775146V64.0361H9.60944C11.8518 60.0115 16.1639 57.29 21.1085 57.29C26.0338 57.29 30.346 60.0115 32.6075 64.0361H63.5016C65.7439 60.0115 70.0351 57.29 74.9796 57.29C79.9242 57.29 84.2171 60.0115 86.4787 64.0361H92Z" fill="#334A5E"/>
<path d="M84.1614 70.4928C84.1614 75.5639 80.0505 79.6748 74.9794 79.6748C69.9084 79.6748 65.8012 75.5639 65.8012 70.4928C65.8012 65.4218 69.9102 61.3109 74.9794 61.3109C80.0525 61.3109 84.1614 65.4218 84.1614 70.4928Z" fill="#40596B"/>
<path d="M78.6706 70.4928C78.6706 72.5301 77.0185 74.1803 74.9832 74.1803C72.9459 74.1803 71.292 72.5301 71.292 70.4928C71.292 68.4555 72.9441 66.8054 74.9832 66.8054C77.0185 66.8036 78.6706 68.4557 78.6706 70.4928Z" fill="#ACB3BA"/>
<path d="M30.2827 70.4928C30.2827 75.5639 26.1699 79.6748 21.1008 79.6748C16.0297 79.6748 11.9188 75.5639 11.9188 70.4928C11.9188 65.4218 16.0297 61.3109 21.1008 61.3109C26.1699 61.3109 30.2827 65.4218 30.2827 70.4928Z" fill="#40596B"/>
<path d="M24.7882 70.4928C24.7882 72.5301 23.138 74.1803 21.1007 74.1803C19.0634 74.1803 17.4115 72.5301 17.4115 70.4928C17.4115 68.4555 19.0636 66.8054 21.1007 66.8054C23.1379 66.8054 24.7882 68.4557 24.7882 70.4928Z" fill="#ACB3BA"/>
</g>
<defs>
<clipPath id="clip0">
<rect width="92" height="92" fill="white"/>
</clipPath>
</defs>
</svg>
