<svg width="80" height="88" viewBox="0 0 80 88" fill="none" xmlns="http://www.w3.org/2000/svg">
<g clip-path="url(#clip0)">
<path d="M22.8475 3.8983C22.5868 3.89834 22.3434 3.76815 22.1988 3.55135L20.6395 1.21237C20.4005 0.854115 20.4972 0.36996 20.8554 0.13098C21.2137 -0.108 21.6978 -0.0113092 21.9368 0.346946L22.8475 1.71525L23.7581 0.346946C23.9127 0.115195 24.1792 -0.0164763 24.4572 0.0015301C24.7352 0.0195365 24.9825 0.184485 25.1059 0.434242C25.2293 0.683999 25.2101 0.980619 25.0555 1.21237L23.4961 3.55135C23.3515 3.76815 23.1081 3.89834 22.8475 3.8983Z" fill="#9FC9D3"/>
<path d="M37.661 12.4746C37.4004 12.4746 37.157 12.3444 37.0123 12.1276L35.453 9.78863C35.214 9.43038 35.3107 8.94622 35.669 8.70724C36.0272 8.46826 36.5114 8.56495 36.7504 8.92321L37.661 10.2915L38.5717 8.92555C38.7263 8.6938 38.9927 8.56213 39.2707 8.58013C39.5487 8.59814 39.796 8.76309 39.9194 9.01284C40.0428 9.2626 40.0236 9.55922 39.869 9.79097L38.3097 12.13C38.1645 12.3459 37.9212 12.4751 37.661 12.4746Z" fill="#9FC9D3"/>
<path d="M51.6949 3.8983C51.4343 3.89834 51.1909 3.76815 51.0462 3.55135L49.4869 1.21237C49.2479 0.854115 49.3446 0.36996 49.7029 0.13098C50.0611 -0.108 50.5453 -0.0113092 50.7843 0.346946L51.6949 1.71525L52.6056 0.346946C52.8445 -0.0113092 53.3287 -0.108 53.687 0.13098C54.0452 0.36996 54.1419 0.854115 53.9029 1.21237L52.3436 3.55135C52.199 3.76815 51.9555 3.89834 51.6949 3.8983Z" fill="#9FC9D3"/>
<path d="M35.517 23.6003V23.5926C36.1815 21.3628 38.3837 19.9603 40.6853 20.3012C42.9869 20.642 44.6882 22.6225 44.678 24.9492C44.6802 25.269 44.6462 25.5881 44.5766 25.9003C44.8566 25.7875 45.1557 25.7292 45.4576 25.7288C46.5828 25.7282 47.5475 26.5321 47.7498 27.639C48.2548 27.411 48.8019 27.2915 49.3559 27.2881C51.5089 27.2881 53.2542 29.0335 53.2542 31.1864C53.2464 31.3405 53.2308 31.494 53.2075 31.6464C55.0795 29.9923 57.921 30.101 59.6612 31.8933C61.4014 33.6857 61.4263 36.5291 59.7176 38.3515C61.6085 38.8519 62.8335 40.6788 62.5785 42.6181C62.3235 44.5574 60.6678 46.0055 58.7119 46H21.2881C19.3322 46.0055 17.6765 44.5574 17.4215 42.6181C17.1665 40.6788 18.3915 38.8519 20.2824 38.3515C18.9689 37.0052 18.5894 35.0032 19.3193 33.2696C20.0491 31.5361 21.7462 30.4082 23.6271 30.4068C24.0273 30.4067 24.4257 30.4591 24.8122 30.5627H24.82L35.517 23.6003Z" fill="#805333"/>
<path d="M24.9586 23.0167L32.5369 21.1689C33.7925 20.8627 35.0586 21.6324 35.3648 22.888L36.2887 26.6772C36.4928 27.5143 35.9796 28.3583 35.1426 28.5624L26.0486 30.7798C25.2115 30.9839 24.3675 30.4707 24.1634 29.6337L23.2395 25.8445C22.9333 24.5889 23.703 23.3228 24.9586 23.0167Z" fill="#84B5CB"/>
<path d="M26.7068 40.1369L25.623 35.6851C25.4212 34.848 25.9332 34.005 26.7692 33.7983L35.86 31.584C36.6971 31.3822 37.5401 31.8942 37.7468 32.7302L38.7136 36.7064L32.2034 39.7627L26.7068 40.1369Z" fill="#84B5CB"/>
<path d="M35.1425 28.5608L26.0486 30.7781C25.2115 30.9822 24.6984 31.8263 24.9025 32.6634C25.1066 33.5004 25.9506 34.0136 26.7877 33.8095L35.8816 31.5921C36.7187 31.388 37.2318 30.544 37.0277 29.7069C36.8236 28.8698 35.9796 28.3567 35.1425 28.5608Z" fill="#9FC9D3"/>
<path d="M26.1229 17.9149L29.1543 17.1758C29.5728 17.0737 29.9948 17.3303 30.0969 17.7488L31.0208 21.538L26.4738 22.6467L25.5499 18.8575C25.4478 18.439 25.7044 18.0169 26.1229 17.9149Z" fill="#E57E25"/>
<path d="M24.4068 42.097C24.0934 42.0957 23.8113 41.9069 23.6906 41.6178C23.5698 41.3287 23.6339 40.9953 23.8532 40.7716C23.9577 40.6679 26.4113 38.2993 32.5901 38.9347C33.3105 37.9601 35.3922 35.8644 40 35.8644C40.4306 35.8644 40.7797 36.2134 40.7797 36.644C40.7797 37.0746 40.4306 37.4237 40 37.4237C35.1466 37.4237 33.7346 40.0075 33.677 40.1182C33.5249 40.4073 33.2109 40.5733 32.8864 40.5361C27.1793 39.8227 24.9736 41.8615 24.9518 41.8795C24.8051 42.0198 24.6097 42.0977 24.4068 42.097Z" fill="#A56A43"/>
<path d="M39.2203 42.1017C39.6509 42.1017 40 41.7526 40 41.322C40 40.8915 39.6509 40.5424 39.2203 40.5424C38.7897 40.5424 38.4407 40.8915 38.4407 41.322C38.4407 41.7526 38.7897 42.1017 39.2203 42.1017Z" fill="#CF976A"/>
<path d="M29.8644 43.661C30.295 43.661 30.6441 43.312 30.6441 42.8814C30.6441 42.4508 30.295 42.1017 29.8644 42.1017C29.4338 42.1017 29.0847 42.4508 29.0847 42.8814C29.0847 43.312 29.4338 43.661 29.8644 43.661Z" fill="#CF976A"/>
<path d="M40 25.7288C40.4306 25.7288 40.7797 25.3797 40.7797 24.9492C40.7797 24.5186 40.4306 24.1695 40 24.1695C39.5694 24.1695 39.2203 24.5186 39.2203 24.9492C39.2203 25.3797 39.5694 25.7288 40 25.7288Z" fill="#CF976A"/>
<path d="M42.339 31.9661C42.7696 31.9661 43.1186 31.617 43.1186 31.1865C43.1186 30.7559 42.7696 30.4068 42.339 30.4068C41.9084 30.4068 41.5593 30.7559 41.5593 31.1865C41.5593 31.617 41.9084 31.9661 42.339 31.9661Z" fill="#CF976A"/>
<path d="M51.6949 42.8814C52.1255 42.8814 52.4746 42.5323 52.4746 42.1017C52.4746 41.6711 52.1255 41.3221 51.6949 41.3221C51.2643 41.3221 50.9153 41.6711 50.9153 42.1017C50.9153 42.5323 51.2643 42.8814 51.6949 42.8814Z" fill="#CF976A"/>
<path d="M54.8136 37.4237C55.2441 37.4237 55.5932 37.0747 55.5932 36.6441C55.5932 36.2135 55.2441 35.8644 54.8136 35.8644C54.383 35.8644 54.0339 36.2135 54.0339 36.6441C54.0339 37.0747 54.383 37.4237 54.8136 37.4237Z" fill="#CF976A"/>
<path d="M56.3386 16.139C58.0952 16.9427 59.7786 17.8977 61.3697 18.9933C61.6041 19.1546 61.9074 19.1763 62.1624 19.05C62.4173 18.9237 62.5839 18.6693 62.5977 18.3852C62.7848 14.8907 60.7982 11.3129 58.9146 10.4584C57.0309 9.60387 53.0406 10.4654 50.5356 12.9011C50.326 13.0963 50.2395 13.3902 50.31 13.6679C50.3805 13.9455 50.5966 14.1626 50.8739 14.2343C52.7472 14.7096 54.5757 15.3469 56.3386 16.139Z" fill="#4482C3"/>
<path d="M48.2565 32.0925L55.639 15.8081L57.0603 16.4525L49.6778 32.7369L48.2565 32.0925Z" fill="#95A5A5"/>
<path d="M60.4084 23.0429C60.2329 23.0428 60.0626 22.9834 59.925 22.8745C58.3099 21.6325 56.5684 20.5642 54.7294 19.6872C52.8581 18.881 50.907 18.2747 48.9084 17.8784C48.4847 17.8011 48.2039 17.395 48.2812 16.9713C48.3585 16.5476 48.7646 16.2667 49.1883 16.344C51.3134 16.76 53.3871 17.4049 55.3734 18.2675C57.3306 19.1934 59.1819 20.3285 60.8949 21.6527C61.1547 21.8591 61.2554 22.2072 61.146 22.5204C61.0366 22.8336 60.7409 23.0432 60.4092 23.0429H60.4084Z" fill="#ECF0F1"/>
<path d="M58.4101 25.5612C58.2255 25.5613 58.0469 25.4955 57.9065 25.3756C56.5369 24.2514 55.0376 23.2952 53.4406 22.5275C51.8114 21.8315 50.1044 21.3341 48.3564 21.0462C48.0763 21.0105 47.8374 20.8262 47.7318 20.5644C47.6262 20.3025 47.6704 20.004 47.8474 19.784C48.0244 19.5641 48.3065 19.4569 48.5849 19.504C50.4769 19.8115 52.324 20.3504 54.0846 21.1085C55.8159 21.9333 57.4393 22.9676 58.9185 24.1882C59.1683 24.3999 59.2593 24.7451 59.1462 25.0524C59.033 25.3597 58.7399 25.5636 58.4125 25.5627L58.4101 25.5612Z" fill="#ECF0F1"/>
<path d="M55.7031 27.7559C55.491 27.7559 55.288 27.6695 55.141 27.5166C54.2681 26.6424 53.2588 25.9161 52.1526 25.3663C51.0107 24.8948 49.799 24.614 48.5661 24.5352C48.1355 24.5257 47.7941 24.1689 47.8036 23.7383C47.8131 23.3078 48.1698 22.9664 48.6004 22.9758H48.6363C50.0673 23.0633 51.4733 23.3906 52.7958 23.9442C54.0835 24.5742 55.2561 25.4163 56.2645 26.4352C56.4806 26.6606 56.5413 26.9931 56.4189 27.2804C56.2965 27.5676 56.0146 27.7541 55.7024 27.7544L55.7031 27.7559Z" fill="#ECF0F1"/>
<path d="M56.9171 13.754C57.3477 13.754 57.6967 13.4049 57.6967 12.9743C57.6967 12.5437 57.3477 12.1947 56.9171 12.1947C56.4865 12.1947 56.1374 12.5437 56.1374 12.9743C56.1374 13.4049 56.4865 13.754 56.9171 13.754Z" fill="#393F4A"/>
<path d="M50.9153 34.3051C50.7085 34.305 50.5102 34.2229 50.364 34.0766C49.2725 32.9851 47.0169 32.7458 46.2373 32.7458C45.8067 32.7458 45.4576 32.3967 45.4576 31.9661C45.4576 31.5355 45.8067 31.1864 46.2373 31.1864C46.3784 31.1864 49.699 31.2067 51.4665 32.9742C51.6894 33.1972 51.7561 33.5325 51.6354 33.8238C51.5148 34.115 51.2305 34.305 50.9153 34.3051Z" fill="#A56A43"/>
<path d="M45.4576 39.7627C46.3188 39.7627 47.0169 39.0646 47.0169 38.2034C47.0169 37.3422 46.3188 36.6441 45.4576 36.6441C44.5964 36.6441 43.8983 37.3422 43.8983 38.2034C43.8983 39.0646 44.5964 39.7627 45.4576 39.7627Z" fill="#CF976A"/>
<path d="M23.6271 3.11865H22.0678C21.2066 3.11865 20.5085 3.81678 20.5085 4.67797C20.5085 5.53916 21.2066 6.2373 22.0678 6.2373H23.6271C24.4883 6.2373 25.1864 5.53916 25.1864 4.67797C25.1864 3.81678 24.4883 3.11865 23.6271 3.11865Z" fill="#464F5D"/>
<path d="M38.4407 11.6949H36.8814C36.0202 11.6949 35.322 12.393 35.322 13.2542C35.322 14.1154 36.0202 14.8136 36.8814 14.8136H38.4407C39.3019 14.8136 40 14.1154 40 13.2542C40 12.393 39.3019 11.6949 38.4407 11.6949Z" fill="#464F5D"/>
<path d="M52.4746 3.11865H50.9153C50.0541 3.11865 49.3559 3.81678 49.3559 4.67797C49.3559 5.53916 50.0541 6.2373 50.9153 6.2373H52.4746C53.3358 6.2373 54.0339 5.53916 54.0339 4.67797C54.0339 3.81678 53.3358 3.11865 52.4746 3.11865Z" fill="#464F5D"/>
</g>
<mask id="mask0" mask-type="alpha" maskUnits="userSpaceOnUse" x="0" y="8" width="80" height="80">
<circle cx="40" cy="48" r="40" fill="#C4C4C4"/>
</mask>
<g mask="url(#mask0)">
<path d="M68.1625 33.5729L60.6949 88H18.9134L11.4458 33.5729H68.1625Z" fill="#415597"/>
<path d="M68.1625 33.5729L60.6949 88H39.8007V33.5729H68.1625Z" fill="#202C52"/>
<path d="M37.1053 50.9774H42.496V77.3304H37.1053V50.9774Z" fill="#E1E4FB"/>
<path d="M52.2903 77.3303L54.2564 50.9766H48.851L46.8843 77.3303H52.2903Z" fill="#C5C9F7"/>
<path d="M32.7227 77.3303L30.7566 50.9766H25.3513L27.3173 77.3303H32.7227Z" fill="#E1E4FB"/>
<path d="M5.85938 33.5729H74.2143V38.9636H5.85938V33.5729Z" fill="#697DBE"/>
<path d="M39.8007 50.9774H42.496V77.3304H39.8007V50.9774Z" fill="#C5C9F7"/>
<path d="M39.8007 33.5729H74.2143V38.9636H39.8007V33.5729Z" fill="#415597"/>
</g>
<defs>
<clipPath id="clip0">
<rect x="17" width="46" height="46" fill="white"/>
</clipPath>
</defs>
</svg>
