<svg width="92" height="92" viewBox="0 0 92 92" fill="none" xmlns="http://www.w3.org/2000/svg">
<g clip-path="url(#clip0)">
<path d="M84.9589 10.5504H75.1938C74.4462 10.5504 73.8401 11.1546 73.8401 11.9005V16.2283C73.8401 17.6933 72.645 18.8853 71.1758 18.8853C69.7067 18.8853 68.5118 17.6933 68.5118 16.2283V11.9003C68.5118 11.1546 67.9057 10.5502 67.158 10.5502H19.2478C18.5001 10.5502 17.894 11.1545 17.894 11.9003V16.2281C17.894 17.6931 16.6989 18.8852 15.23 18.8852C13.761 18.8852 12.5659 17.6931 12.5659 16.2281V11.9003C12.5659 11.1546 11.9598 10.5502 11.2121 10.5502H1.35377C0.606086 10.5504 0 11.1546 0 11.9003V77.1546C0 77.9003 0.606086 78.5046 1.35377 78.5046H46.6949C47.1588 78.5046 47.5906 78.2676 47.8387 77.8766C48.0869 77.4856 48.1169 76.9952 47.9183 76.5767C46.5387 73.6706 45.8392 70.5554 45.8392 67.3172C45.8392 55.3693 55.5858 45.6485 67.5659 45.6485C73.8406 45.6485 79.8086 48.3552 83.9394 53.0747C84.3105 53.4989 84.9065 53.6486 85.4346 53.4509C85.9629 53.2533 86.3129 52.7494 86.3129 52.1868V11.9003C86.3127 11.1546 85.7066 10.5504 84.9589 10.5504Z" fill="#EFE7E4"/>
<path d="M23.5908 34.2499H14.8688C14.1211 34.2499 13.515 34.8542 13.515 35.6V44.2985C13.515 45.0443 14.1211 45.6487 14.8688 45.6487H23.5908C24.3385 45.6487 24.9446 45.0443 24.9446 44.2985V35.6C24.9444 34.8542 24.3383 34.2499 23.5908 34.2499Z" fill="#465A65"/>
<path d="M39.5729 34.2499H30.8509C30.1032 34.2499 29.4971 34.8542 29.4971 35.6V44.2985C29.4971 45.0443 30.1032 45.6487 30.8509 45.6487H39.5729C40.3206 45.6487 40.9267 45.0443 40.9267 44.2985V35.6C40.9267 34.8542 40.3206 34.2499 39.5729 34.2499Z" fill="#465A65"/>
<path d="M55.5551 34.2499H46.833C46.0853 34.2499 45.4793 34.8542 45.4793 35.6V44.2985C45.4793 45.0443 46.0853 45.6487 46.833 45.6487H55.5551C56.3028 45.6487 56.9088 45.0443 56.9088 44.2985V35.6C56.9088 34.8542 56.3028 34.2499 55.5551 34.2499Z" fill="#465A65"/>
<path d="M71.5372 34.2499H62.8152C62.0675 34.2499 61.4614 34.8542 61.4614 35.6V44.2985C61.4614 45.0443 62.0675 45.6487 62.8152 45.6487H71.5372C72.2849 45.6487 72.891 45.0443 72.891 44.2985V35.6C72.891 34.8542 72.2849 34.2499 71.5372 34.2499Z" fill="#465A65"/>
<path d="M23.5908 52.9243H14.8688C14.1211 52.9243 13.515 53.5286 13.515 54.2743V62.973C13.515 63.7187 14.1211 64.323 14.8688 64.323H23.5908C24.3385 64.323 24.9446 63.7187 24.9446 62.973V54.2743C24.9444 53.5288 24.3383 52.9243 23.5908 52.9243Z" fill="#465A65"/>
<path d="M39.5729 52.9243H30.8509C30.1032 52.9243 29.4971 53.5286 29.4971 54.2743V62.973C29.4971 63.7187 30.1032 64.323 30.8509 64.323H39.5729C40.3206 64.323 40.9267 63.7187 40.9267 62.973V54.2743C40.9267 53.5288 40.3206 52.9243 39.5729 52.9243Z" fill="#465A65"/>
<path d="M86.3129 20.2346H0V31.0132H86.3129V20.2346Z" fill="#D8D1D0"/>
<path d="M85.0055 10.5504H75.1938C74.4462 10.5504 73.8401 11.1546 73.8401 11.9005V16.2283C73.8401 17.6933 72.645 18.8853 71.1758 18.8853C69.7067 18.8853 68.5118 17.6933 68.5118 16.2283V11.9003C68.5118 11.1546 67.9057 10.5502 67.158 10.5502H19.2478C18.5001 10.5502 17.894 11.1545 17.894 11.9003V16.2281C17.894 17.6931 16.6989 18.8852 15.23 18.8852C13.761 18.8852 12.5659 17.6931 12.5659 16.2281V11.9003C12.5659 11.1546 11.9598 10.5502 11.2121 10.5502H1.40031C0.652625 10.5502 0.0465393 11.1545 0.0465393 11.9003V26.5136C0.0465393 27.2593 0.652625 27.8638 1.40031 27.8638H85.0055C85.7532 27.8638 86.3593 27.2595 86.3593 26.5136V11.9003C86.3593 11.1546 85.7532 10.5504 85.0055 10.5504Z" fill="#F2464F"/>
<path d="M0.0465393 22.9135V26.5137C0.0465393 27.2594 0.652625 27.8638 1.40031 27.8638H85.0055C85.7532 27.8638 86.3593 27.2596 86.3593 26.5137V22.9135H0.0465393Z" fill="#D3333C"/>
<path d="M15.2298 0.314087C12.268 0.314087 9.85818 2.71741 9.85818 5.67129V16.2281C9.85818 19.1822 12.2678 21.5853 15.2298 21.5853C18.1916 21.5853 20.6013 19.182 20.6013 16.2281V5.67129C20.6013 2.71741 18.1917 0.314087 15.2298 0.314087Z" fill="#F7CB4F"/>
<path d="M15.2298 0.314087C14.3254 0.314087 13.473 0.539056 12.7246 0.934548C14.4275 1.83406 15.5908 3.61944 15.5908 5.67129V16.2281C15.5908 18.2801 14.4275 20.0653 12.7246 20.965C13.4731 21.3605 14.3254 21.5855 15.2298 21.5855C18.1916 21.5855 20.6013 19.1822 20.6013 16.2283V5.67129C20.6013 2.71741 18.1917 0.314087 15.2298 0.314087Z" fill="#F4B008"/>
<path d="M71.176 0.314087C68.2142 0.314087 65.8046 2.71741 65.8046 5.67129V16.2281C65.8046 19.1822 68.2144 21.5853 71.1762 21.5853C74.138 21.5853 76.5476 19.182 76.5476 16.2281V5.67129C76.5476 2.71741 74.1378 0.314087 71.176 0.314087Z" fill="#F7CB4F"/>
<path d="M71.176 0.314087C70.272 0.314087 69.4201 0.538876 68.6719 0.934009C70.3753 1.83334 71.5393 3.6189 71.5393 5.67147V16.2283C71.5393 18.2807 70.3755 20.0664 68.6721 20.9657C69.4203 21.3609 70.2724 21.5857 71.1762 21.5857C74.138 21.5857 76.5476 19.1824 76.5476 16.2285V5.67129C76.5476 2.71741 74.1378 0.314087 71.176 0.314087Z" fill="#F4B008"/>
<path d="M67.5657 42.9484C54.0928 42.9484 43.1317 53.8802 43.1317 67.3172C43.1317 80.7541 54.0928 91.6859 67.5657 91.6859C81.0389 91.6859 92 80.7541 92 67.3172C92 53.8802 81.0389 42.9484 67.5657 42.9484Z" fill="#F2464F"/>
<path d="M67.5657 42.9484C66.6986 42.9484 65.8422 42.9944 64.9982 43.0828C77.2689 44.3666 86.8649 54.745 86.8649 67.3172C86.8649 79.8892 77.269 90.2676 64.9982 91.5515C65.8422 91.6397 66.6986 91.6859 67.5657 91.6859C81.0389 91.6859 92 80.7541 92 67.3172C92 53.8802 81.0389 42.9484 67.5657 42.9484Z" fill="#D3333C"/>
<path d="M67.5657 48.6206C57.2287 48.6206 48.8189 57.0081 48.8189 67.3173C48.8189 77.6265 57.2289 86.0139 67.5657 86.0139C77.9028 86.0139 86.3127 77.6265 86.3127 67.3173C86.3127 57.0081 77.9028 48.6206 67.5657 48.6206Z" fill="#EFE7E4"/>
<path d="M67.5657 48.6206C66.7244 48.6206 65.8963 48.6772 65.0839 48.7848C74.2521 49.9995 81.349 57.8472 81.349 67.3174C81.349 76.7877 74.2521 84.6352 65.0839 85.8501C65.8961 85.9577 66.7244 86.0143 67.5657 86.0143C77.9028 86.0143 86.3127 77.6268 86.3127 67.3176C86.3127 57.0079 77.9028 48.6206 67.5657 48.6206Z" fill="#D8D1D0"/>
<path d="M67.5215 65.9617C66.7739 65.9617 66.1678 65.3574 66.1678 64.6117V54.2744C66.1678 53.5287 66.7739 52.9244 67.5215 52.9244C68.2692 52.9244 68.8753 53.5287 68.8753 54.2744V64.6117C68.8751 65.3574 68.269 65.9617 67.5215 65.9617Z" fill="#546F7A"/>
<path d="M60.768 76.3098C60.4406 76.3098 60.1125 76.1923 59.8525 75.954C59.3017 75.4495 59.2656 74.5956 59.7714 74.0463L64.8244 68.5606C65.3301 68.0115 66.1866 67.9754 66.737 68.4798C67.2876 68.9843 67.3239 69.8384 66.8181 70.3875L61.7651 75.8732C61.4982 76.1628 61.1336 76.3098 60.768 76.3098Z" fill="#546F7A"/>
<path d="M67.5215 63.2615C65.2674 63.2615 63.4333 65.0907 63.4333 67.3388C63.4333 69.587 65.2674 71.4161 67.5215 71.4161C69.7757 71.4161 71.6098 69.587 71.6098 67.3388C71.6096 65.0907 69.7757 63.2615 67.5215 63.2615Z" fill="#F7CB4F"/>
</g>
<defs>
<clipPath id="clip0">
<rect width="92" height="92" fill="white"/>
</clipPath>
</defs>
</svg>
