<svg width="92" height="92" viewBox="0 0 92 92" fill="none" xmlns="http://www.w3.org/2000/svg">
<g clip-path="url(#clip0)">
<path d="M25.0199 5.38862V5.3797C25.7798 2.83023 28.2978 1.22669 30.9294 1.61639C33.5609 2.00609 35.5061 4.27057 35.4945 6.93083C35.4971 7.29657 35.4582 7.66142 35.3786 8.0184C35.6988 7.88932 36.0407 7.82275 36.3859 7.82228C37.6725 7.82156 38.7755 8.74077 39.0068 10.0063C39.5842 9.74566 40.2098 9.60899 40.8432 9.60519C43.3049 9.60519 45.3005 11.6008 45.3005 14.0624C45.2915 14.2386 45.2736 14.4141 45.247 14.5884C47.3875 12.6971 50.6363 12.8214 52.6261 14.8707C54.6158 16.92 54.6442 20.1711 52.6906 22.2549C54.8526 22.827 56.2533 24.9159 55.9617 27.1332C55.6701 29.3505 53.7771 31.0063 51.5406 31H8.75092C6.51451 31.0063 4.62144 29.3505 4.32986 27.1332C4.03829 24.9159 5.43895 22.827 7.60095 22.2549C6.09911 20.7155 5.66528 18.4264 6.49975 16.4443C7.33422 14.4622 9.27468 13.1727 11.4253 13.171C11.8828 13.1709 12.3384 13.2308 12.7803 13.3493H12.7892C12.7892 13.3493 13.4386 10.4367 17.4405 7.27515C21.0587 4.41669 25.0199 5.38862 25.0199 5.38862Z" fill="#805333"/>
<path d="M12.3167 26.5374C11.9584 26.5359 11.6359 26.3201 11.4978 25.9895C11.3597 25.6589 11.433 25.2778 11.6838 25.0219C11.8032 24.9034 14.6086 22.1951 21.6734 22.9217C22.4971 21.8074 24.8773 19.4111 30.1458 19.4111C30.6381 19.4111 31.0372 19.8102 31.0372 20.3026C31.0372 20.7949 30.6381 21.194 30.1458 21.194C24.5965 21.194 22.982 24.1483 22.9161 24.2749C22.7423 24.6055 22.3832 24.7953 22.0121 24.7527C15.4867 23.937 12.9648 26.2682 12.9398 26.2887C12.7721 26.4491 12.5488 26.5382 12.3167 26.5374Z" fill="#A56A43"/>
<path d="M42.6261 17.6282C42.3897 17.6281 42.163 17.5342 41.9959 17.367C40.7478 16.119 38.1689 15.8453 37.2774 15.8453C36.7851 15.8453 36.386 15.4462 36.386 14.9538C36.386 14.4615 36.7851 14.0624 37.2774 14.0624C37.4388 14.0624 41.2355 14.0856 43.2564 16.1065C43.5113 16.3614 43.5875 16.7448 43.4495 17.0778C43.3116 17.4109 42.9866 17.6281 42.6261 17.6282Z" fill="#A56A43"/>
<path d="M36.3859 23.8684C37.3706 23.8684 38.1688 23.0702 38.1688 22.0855C38.1688 21.1008 37.3706 20.3026 36.3859 20.3026C35.4013 20.3026 34.603 21.1008 34.603 22.0855C34.603 23.0702 35.4013 23.8684 36.3859 23.8684Z" fill="#CF976A"/>
<path d="M29.446 11.8487C30.0775 11.8487 30.5894 11.3367 30.5894 10.7053C30.5894 10.0738 30.0775 9.56189 29.446 9.56189C28.8146 9.56189 28.3026 10.0738 28.3026 10.7053C28.3026 11.3367 28.8146 11.8487 29.446 11.8487Z" fill="#CF976A"/>
<path d="M20.2989 11.8487C20.9304 11.8487 21.4423 11.3367 21.4423 10.7053C21.4423 10.0738 20.9304 9.56189 20.2989 9.56189C19.6675 9.56189 19.1555 10.0738 19.1555 10.7053C19.1555 11.3367 19.6675 11.8487 20.2989 11.8487Z" fill="#CF976A"/>
<path d="M14.582 20.9958C15.2135 20.9958 15.7254 20.4838 15.7254 19.8524C15.7254 19.2209 15.2135 18.709 14.582 18.709C13.9505 18.709 13.4386 19.2209 13.4386 19.8524C13.4386 20.4838 13.9505 20.9958 14.582 20.9958Z" fill="#CF976A"/>
<path d="M30.5725 62.8671C29.7586 55.5899 23.4016 50.2151 16.0899 50.6224C8.77831 51.0297 3.05838 57.0775 3.05838 64.4004C3.05838 71.724 8.77831 77.7711 16.0899 78.1791C23.4016 78.5864 29.7586 73.2116 30.5725 65.9337C30.6952 64.9155 30.6952 63.8861 30.5725 62.8671ZM16.8648 72.0669C12.6303 72.0669 9.19832 68.6349 9.19832 64.4004C9.19832 60.1666 12.6303 56.7339 16.8648 56.7339C21.0986 56.7339 24.5313 60.1666 24.5313 64.4004C24.5313 68.6349 21.0986 72.0669 16.8648 72.0669Z" fill="black"/>
<path d="M16.8648 56.7339C12.6303 56.7339 9.1983 60.1666 9.1983 64.4004C9.1983 68.6349 12.6303 72.0669 16.8648 72.0669C21.0986 72.0669 24.5313 68.6349 24.5313 64.4004C24.5313 60.1666 21.0986 56.7339 16.8648 56.7339ZM16.8648 69.0003C14.3238 69.0003 12.2649 66.9414 12.2649 64.4004C12.2649 61.8601 14.3238 59.8005 16.8648 59.8005C19.4051 59.8005 21.4647 61.8601 21.4647 64.4004C21.4565 66.9377 19.4021 68.9928 16.8648 69.0003Z" fill="#F9C60B"/>
<path d="M21.4649 64.4004C21.4649 66.9415 19.4053 69.0004 16.8649 69.0004C14.3238 69.0004 12.2649 66.9415 12.2649 64.4004C12.2649 61.8601 14.3238 59.8004 16.8649 59.8004C19.4053 59.8004 21.4649 61.8601 21.4649 64.4004Z" fill="#AD7214"/>
<path d="M85.7713 62.8671C85.6013 61.2656 85.1439 59.7076 84.4214 58.2672C81.6962 52.7928 75.6925 49.7644 69.6701 50.8275C63.647 51.8899 59.0426 56.79 58.3553 62.8671C58.2333 63.886 58.2333 64.9155 58.3553 65.9337C59.0426 72.0107 63.647 76.9109 69.6701 77.974C75.6925 79.0364 81.6962 76.0087 84.4214 70.5336C84.9073 69.558 85.2779 68.5286 85.5257 67.467C85.8671 65.9591 85.9502 64.4034 85.7713 62.8671ZM72.0637 72.0669C67.8291 72.0669 64.3972 68.6349 64.3972 64.4004C64.3972 60.1666 67.8291 56.7339 72.0637 56.7339C76.2975 56.7339 79.7302 60.1666 79.7302 64.4004C79.7302 68.6349 76.2975 72.0669 72.0637 72.0669Z" fill="black"/>
<path d="M72.0637 56.7339C67.8291 56.7339 64.3972 60.1666 64.3972 64.4004C64.3972 68.6349 67.8291 72.0669 72.0637 72.0669C76.2975 72.0669 79.7302 68.6349 79.7302 64.4004C79.7302 60.1666 76.2975 56.7339 72.0637 56.7339ZM72.0637 69.0003C69.5226 69.0003 67.4638 66.9414 67.4638 64.4004C67.4638 61.8601 69.5226 59.8005 72.0637 59.8005C74.6039 59.8005 76.6636 61.8601 76.6636 64.4004C76.6553 66.9377 74.6009 68.9928 72.0637 69.0003Z" fill="#F9C60B"/>
<path d="M76.6638 64.4004C76.6638 66.9415 74.6041 69.0004 72.0638 69.0004C69.5227 69.0004 67.4638 66.9415 67.4638 64.4004C67.4638 61.8601 69.5227 59.8004 72.0638 59.8004C74.6041 59.8004 76.6638 61.8601 76.6638 64.4004Z" fill="#AD7214"/>
<path d="M58.264 64.4004C58.2632 64.9132 58.2939 65.4253 58.3553 65.9337H30.5724C30.6952 64.9155 30.6952 63.886 30.5724 62.8671H58.3553C58.2939 63.3762 58.2632 63.8883 58.264 64.4004Z" fill="#AD7214"/>
<path d="M75.13 13.8015H59.797C59.0918 13.8023 58.4786 14.2829 58.3094 14.9672L56.684 21.468H4.59816C3.8929 21.4688 3.27973 21.9494 3.11053 22.6337L0.0439248 34.9001C-0.108806 35.5245 0.142002 36.1781 0.672818 36.5405L34.4055 59.54C34.6593 59.7107 34.958 59.8013 35.2642 59.8006H49.0639C49.7699 59.8051 50.3861 59.3222 50.5508 58.6356L60.9927 16.8681H75.13C75.9768 16.8681 76.6633 16.1816 76.6633 15.3348C76.6633 14.4881 75.9768 13.8015 75.13 13.8015ZM12.2182 29.5336L10.9612 34.2405C10.774 34.9084 10.1669 35.3711 9.47358 35.3755C9.33957 35.3741 9.2063 35.3591 9.07528 35.3291C8.25847 35.103 7.77407 34.2638 7.9867 33.4432L9.24373 28.7362C9.46385 27.9149 10.3084 27.4275 11.1297 27.6476C11.951 27.8678 12.4384 28.7123 12.2182 29.5336ZM21.4181 29.5336L18.7962 39.3615C18.615 40.0338 18.0048 40.4995 17.3093 40.4965C17.1745 40.4958 17.0413 40.4801 16.9102 40.4509C16.0934 40.224 15.609 39.3847 15.8217 38.5642L18.4435 28.7362C18.6637 27.9149 19.5082 27.4275 20.3295 27.6476C21.1508 27.8678 21.6382 28.7123 21.4181 29.5336ZM30.6179 29.5336L26.6311 44.4675C26.4507 45.1399 25.8398 45.6055 25.1443 45.6026C25.0102 45.6026 24.8762 45.5868 24.7452 45.5561C23.9291 45.33 23.4447 44.4908 23.6566 43.6702L27.6434 28.7362C27.8635 27.9149 28.708 27.4275 29.5293 27.6476C30.3506 27.8678 30.838 28.7123 30.6179 29.5336ZM39.8177 29.5336L34.4668 49.5736C34.2789 50.2414 33.6725 50.7041 32.9792 50.7086C32.8452 50.7078 32.7112 50.6928 32.5809 50.6621C31.7641 50.436 31.2797 49.5968 31.4923 48.7762L36.8432 28.7362C37.0633 27.9149 37.9078 27.4275 38.7291 27.6476C39.5504 27.8678 40.0378 28.7123 39.8177 29.5336ZM41.3974 53.6674C41.2626 53.6666 41.1294 53.6509 40.9984 53.6217C40.1815 53.3948 39.6971 52.5563 39.9098 51.7358L46.043 28.7362C46.2631 27.9149 47.1076 27.4275 47.9289 27.6476C48.7502 27.8678 49.2376 28.7123 49.0175 29.5336L42.8843 52.5331C42.7038 53.2047 42.0929 53.6704 41.3974 53.6674Z" fill="#F9C60B"/>
<path d="M75.4059 23.0012H68.9971V32.2012H76.633L75.4059 23.0012Z" fill="#F9C60B"/>
<path d="M76.633 32.2012H68.9971V23.0012H75.4059L76.633 32.2012Z" fill="#9FE0F6"/>
<path d="M49.0177 29.5335L42.8845 52.533C42.7041 53.2046 42.0932 53.6703 41.3976 53.6673C41.2629 53.6665 41.1296 53.6508 40.9986 53.6216C40.1818 53.3948 39.6974 52.5562 39.91 51.7357L46.0432 28.7362C46.2633 27.9149 47.1078 27.4275 47.9291 27.6476C48.7505 27.8677 49.2378 28.7122 49.0177 29.5335Z" fill="#FAAB1C"/>
<path d="M39.8179 29.5335L34.4671 49.5735C34.2792 50.2413 33.6728 50.704 32.9795 50.7085C32.8455 50.7077 32.7114 50.6928 32.5812 50.6621C31.7644 50.436 31.28 49.5967 31.4926 48.7761L36.8434 28.7362C37.0635 27.9149 37.9081 27.4275 38.7294 27.6476C39.5507 27.8677 40.0381 28.7122 39.8179 29.5335Z" fill="#FAAB1C"/>
<path d="M30.6181 29.5335L26.6314 44.4675C26.451 45.1398 25.84 45.6055 25.1445 45.6025C25.0105 45.6025 24.8765 45.5868 24.7455 45.5561C23.9294 45.33 23.445 44.4907 23.6569 43.6701L27.6436 28.7362C27.8637 27.9149 28.7082 27.4275 29.5295 27.6476C30.3508 27.8677 30.8382 28.7122 30.6181 29.5335Z" fill="#FAAB1C"/>
<path d="M21.4183 29.5335L18.7964 39.3615C18.6152 40.0338 18.0051 40.4995 17.3095 40.4965C17.1748 40.4957 17.0415 40.48 16.9105 40.4508C16.0937 40.224 15.6093 39.3847 15.8219 38.5641L18.4438 28.7362C18.6639 27.9149 19.5084 27.4275 20.3297 27.6476C21.151 27.8677 21.6384 28.7122 21.4183 29.5335Z" fill="#FAAB1C"/>
<path d="M12.2186 29.5336L10.9615 34.2406C10.7743 34.9085 10.1672 35.3712 9.47386 35.3756C9.33984 35.3741 9.20657 35.3592 9.07555 35.3292C8.25872 35.1031 7.77431 34.2638 7.98695 33.4433L9.24401 28.7362C9.46413 27.9149 10.3087 27.4275 11.13 27.6476C11.9513 27.8677 12.4387 28.7122 12.2186 29.5336Z" fill="#FAAB1C"/>
<path d="M85.8634 35.2676H80.9872L78.1662 21.1617C78.0202 20.4474 77.3921 19.9346 76.6636 19.9346H64.3972C63.6904 19.9308 63.075 20.4137 62.9095 21.1003L52.4677 62.867H58.3553C59.0426 56.79 63.647 51.8898 69.6701 50.8275C75.6925 49.7643 81.6962 52.7928 84.4214 58.2671C85.1439 59.7076 85.6014 61.2656 85.7713 62.867H91.7353C91.909 62.3796 91.9974 61.8668 91.9966 61.3494V41.4008C92.0543 39.7574 91.4269 38.1635 90.2642 37.0001C89.1007 35.8373 87.5068 35.21 85.8634 35.2676ZM68.9971 23.0012H75.4058L76.6329 32.201H68.9971V23.0012ZM88.93 55.9058L79.1627 47.534H59.4596L59.4753 47.5033L60.2263 44.4674H79.7302C80.0948 44.4704 80.4474 44.6007 80.7267 44.8358L88.93 51.8734V55.9058Z" fill="#F9C60B"/>
<path d="M88.93 51.8735V55.9059L79.1627 47.5341H59.4596L59.4753 47.5034L60.2263 44.4675H79.7302C80.0948 44.4705 80.4474 44.6008 80.7267 44.8359L88.93 51.8735Z" fill="#FAAB1C"/>
<path d="M91.7355 62.8671C91.278 64.1788 90.2441 65.2075 88.9301 65.6582C88.4457 65.8439 87.9306 65.9375 87.4117 65.9337H85.7713C85.8941 64.9155 85.8941 63.886 85.7713 62.8671H91.7355Z" fill="#AD7214"/>
</g>
<defs>
<clipPath id="clip0">
<rect width="92" height="92" fill="white"/>
</clipPath>
</defs>
</svg>
