<svg width="48" height="48" viewBox="0 0 48 48" fill="none" xmlns="http://www.w3.org/2000/svg">
<path d="M23.8587 48C37.0355 48 47.7174 37.2548 47.7174 24C47.7174 10.7452 37.0355 0 23.8587 0C10.6819 0 0 10.7452 0 24C0 37.2548 10.6819 48 23.8587 48Z" fill="#FF0000"/>
<path d="M42.0888 16.7936V31.5282H40.6176V28.1823C39.4023 30.37 37.1636 31.8499 34.3491 31.8499C30.1914 31.8499 26.8013 28.504 26.8013 24.193C26.8013 19.8177 30.1914 16.5362 34.3491 16.5362C37.1636 16.5362 39.4023 17.9517 40.6176 20.2038V16.8579H42.0888V16.7936ZM40.6176 24.193C40.6176 20.7185 37.9311 17.9517 34.4771 17.9517C31.023 17.9517 28.2725 20.7185 28.2725 24.193C28.2725 27.6676 30.959 30.4343 34.4771 30.4343C37.9951 30.4343 40.6176 27.6676 40.6176 24.193Z" fill="white"/>
<path d="M34.3488 32.4933C29.7434 32.4933 26.1614 28.8257 26.1614 24.193C26.1614 19.5603 29.7434 15.8284 34.3488 15.8284C36.5876 15.8284 38.5705 16.6649 39.9777 18.1448V16.1501H42.7282V32.1716H39.9777V30.177C38.5705 31.6568 36.5876 32.4933 34.3488 32.4933ZM34.3488 17.1153C30.447 17.1153 27.4407 20.2038 27.4407 24.1287C27.4407 28.0536 30.511 31.1421 34.3488 31.1421C36.0119 31.1421 37.4831 30.6274 38.6344 29.5979C37.4831 30.4987 36.0759 31.0134 34.4767 31.0134C30.6389 31.0134 27.6326 27.9893 27.6326 24.1287C27.6326 20.2681 30.6389 17.244 34.4767 17.244C36.0759 17.244 37.4831 17.7587 38.6344 18.6595C37.4831 17.6944 36.0119 17.1153 34.3488 17.1153ZM41.257 30.8847H41.4489V17.437H41.257V22.5845L40.9371 22.0054C41.129 22.6488 41.257 23.4209 41.257 24.1287C41.257 24.9008 41.129 25.6086 40.9371 26.252L41.257 25.7373V30.8847ZM34.4767 18.5308C31.3425 18.5308 28.9118 20.9759 28.9118 24.1287C28.9118 27.2815 31.3425 29.7266 34.4767 29.7266C37.547 29.7266 39.9777 27.2815 39.9777 24.1287C39.9777 21.0402 37.547 18.5308 34.4767 18.5308Z" fill="white"/>
<path d="M21.6846 24.4504C21.6846 24.7078 21.6846 24.9008 21.6846 25.1582H8.38005C8.69988 28.504 11.2585 30.6917 14.5846 30.6917C16.9513 30.6917 18.8062 29.5979 19.6378 27.9893L20.9171 28.7614C19.7017 30.756 17.463 32.1072 14.5206 32.1072C10.0431 32.1072 6.84491 28.8901 6.84491 24.4504C6.84491 20.1394 9.9152 16.7936 14.3927 16.7936C18.8702 16.7292 21.6846 20.4611 21.6846 24.4504ZM8.38005 23.7426H20.1495C19.8297 20.1394 17.3351 18.1448 14.4567 18.1448C11.1305 18.1448 8.69988 20.4611 8.38005 23.7426Z" fill="white"/>
<path d="M14.584 32.7506C9.78665 32.7506 6.26862 29.2761 6.26862 24.4504C6.26862 19.6246 9.65873 16.0858 14.4561 16.0858C19.5732 16.0858 22.3237 20.3967 22.3237 24.4504C22.3237 24.5791 22.3237 24.7077 22.3237 24.8364C22.3237 24.9651 22.3237 25.0295 22.3237 25.1581V25.8016H9.14701C9.72269 28.3753 11.8335 30.0482 14.584 30.0482C16.6308 30.0482 18.2939 29.1474 19.0615 27.7319L19.3813 27.1528L21.812 28.5683L21.4921 29.1474C20.0849 31.3994 17.5263 32.7506 14.584 32.7506ZM14.4561 17.3726C10.4263 17.3726 7.5479 20.3324 7.5479 24.386C7.5479 28.504 10.4263 31.3994 14.584 31.3994C16.8867 31.3994 18.8696 30.4986 20.021 28.9544L19.8291 28.8257C18.7417 30.3699 16.8227 31.2707 14.584 31.2707C10.874 31.2707 8.12358 28.8257 7.7398 25.2225L7.67583 24.5147H21.0444V24.4504C21.0444 21.0402 18.7417 17.3726 14.4561 17.3726ZM20.8525 24.386H7.67583L7.7398 23.6782C8.05962 20.0107 10.8101 17.5013 14.4561 17.5013C17.9101 17.5013 20.4687 20.0107 20.7885 23.6782L20.8525 24.386ZM9.14701 23.0992H19.4453C18.8696 20.1394 16.6308 18.7882 14.4561 18.7882C11.7056 18.7882 9.65873 20.4611 9.14701 23.0992Z" fill="white"/>
</svg>
