<svg width="68" height="54" viewBox="0 0 68 54" fill="none" xmlns="http://www.w3.org/2000/svg">
<rect width="37.3945" height="37.3945" transform="matrix(0.909224 -0.416308 0.909224 0.416308 0 38.4321)" fill="#EC5569"/>
<path d="M34 38.4321V22.8645L68 38.4321L34 53.9998V38.4321Z" fill="#E63950"/>
<path fill-rule="evenodd" clip-rule="evenodd" d="M34.0001 12.6489L0 28.2166L3.09091 29.6318L37.091 14.0642L34.0001 12.6489ZM58.7275 23.9709L24.7274 39.5386L27.8183 40.9538L61.8184 25.3862L58.7275 23.9709ZM12.3636 33.8777L46.3636 18.3101L49.4546 19.7253L15.4545 35.2929L12.3636 33.8777ZM40.1816 15.4792L6.18156 31.0469L9.27247 32.4621L43.2725 16.8945L40.1816 15.4792ZM30.909 42.3689L64.909 26.8013L67.9999 28.2165L33.9999 43.7841L30.909 42.3689ZM52.5452 21.1404L18.5451 36.708L21.6361 38.1232L55.6361 22.5556L52.5452 21.1404Z" fill="#76E2F8"/>
<rect width="37.3945" height="37.3945" transform="matrix(0.909224 -0.416308 0.909224 0.416308 0 15.5676)" fill="#ECECF1"/>
<path d="M34 15.5676V-6.58894e-06L68 15.5676L34 31.1353V15.5676Z" fill="#E2E2E7"/>
</svg>
