<svg width="68" height="68" viewBox="0 0 68 68" fill="none" xmlns="http://www.w3.org/2000/svg">
<g clip-path="url(#clip0)">
<path d="M12.75 19.6563V16.4688H3.18753C3.18753 16.4688 0 17.9031 0 19.6563V59.1282C0.106292 62.5813 2.92194 65.2907 6.37506 65.2907H12.7501L12.75 19.6563Z" fill="#416C7E"/>
<path d="M12.7501 9.03125H9.56256C7.80943 9.03125 6.37503 10.4656 6.37503 12.2188V58.9688C6.37503 61.3063 5.10007 63.3782 3.1875 64.4938C4.14372 65.025 5.20623 65.3439 6.37503 65.3439H12.7501C12.7501 65.3438 12.7501 9.03125 12.7501 9.03125Z" fill="#6CA7C0"/>
<path d="M64.8125 2.65625H15.9376C14.3969 2.65625 12.7501 4.40939 12.7501 5.84378V58.9688C12.7501 62.475 9.88127 65.3438 6.375 65.3438H61.625C65.1313 65.3438 68.0001 62.475 68.0001 58.9688V5.84378C68.0001 4.30323 66.2469 2.65625 64.8125 2.65625Z" fill="#96CFE8"/>
<path d="M21.25 37.7188H31.875C33.0438 37.7188 34 36.7625 34 35.5937V23.9063C34 22.7375 33.0438 21.7812 31.875 21.7812H21.25C20.0812 21.7812 19.125 22.7375 19.125 23.9063V35.5937C19.1251 36.7625 20.0814 37.7188 21.25 37.7188ZM21.25 24.9688C21.25 24.3844 21.7282 23.9063 22.3125 23.9063H30.8125C31.3968 23.9063 31.875 24.3844 31.875 24.9688V34.5312C31.875 35.1156 31.3968 35.5937 30.8125 35.5937H22.3125C21.7282 35.5937 21.25 35.1156 21.25 34.5312V24.9688ZM60.5626 49.9374H20.1876C19.6033 49.9374 19.1251 50.4156 19.1251 50.9999C19.1251 51.5843 19.6033 52.0625 20.1876 52.0625H60.5626C61.147 52.0625 61.6251 51.5843 61.6251 50.9999C61.6251 50.4156 61.147 49.9374 60.5626 49.9374ZM60.5626 41.4375H20.1876C19.6033 41.4375 19.1251 41.9157 19.1251 42.5C19.1251 43.0843 19.6033 43.5625 20.1876 43.5625H60.5626C61.147 43.5625 61.6251 43.0843 61.6251 42.5C61.6251 41.9157 61.147 41.4375 60.5626 41.4375ZM60.5626 45.6875H20.1876C19.6033 45.6875 19.1251 46.1657 19.1251 46.75C19.1251 47.3344 19.6033 47.8125 20.1876 47.8125H60.5626C61.147 47.8125 61.6251 47.3344 61.6251 46.75C61.6251 46.1657 61.147 45.6875 60.5626 45.6875ZM60.5626 30.2812H39.3126C38.7282 30.2812 38.2501 30.7594 38.2501 31.3437C38.2501 31.928 38.7282 32.4062 39.3126 32.4062H60.5625C61.1468 32.4062 61.625 31.928 61.625 31.3437C61.625 30.7594 61.147 30.2812 60.5626 30.2812ZM60.5626 21.7812H39.3126C38.7282 21.7812 38.2501 22.2594 38.2501 22.8438C38.2501 23.4281 38.7282 23.9063 39.3126 23.9063H60.5625C61.1468 23.9063 61.625 23.4281 61.625 22.8438C61.6251 22.2594 61.147 21.7812 60.5626 21.7812ZM60.5626 34.5312H39.3126C38.7282 34.5312 38.2501 35.0094 38.2501 35.5937C38.2501 36.1781 38.7282 36.6563 39.3126 36.6563H60.5625C61.1468 36.6563 61.625 36.1781 61.625 35.5937C61.625 35.0094 61.147 34.5312 60.5626 34.5312ZM60.5626 9.03125H20.1876C19.6033 9.03125 19.1251 9.50943 19.1251 10.0938V15.4063C19.1251 15.9906 19.6033 16.4688 20.1876 16.4688H60.5626C61.147 16.4688 61.6251 15.9906 61.6251 15.4063V10.0938C61.6251 9.50929 61.147 9.03125 60.5626 9.03125ZM60.5626 26.0313H39.3126C38.7282 26.0313 38.2501 26.5095 38.2501 27.0938C38.2501 27.6781 38.7282 28.1563 39.3126 28.1563H60.5625C61.1468 28.1563 61.625 27.6781 61.625 27.0938C61.625 26.5095 61.147 26.0313 60.5626 26.0313ZM55.2501 54.1875H20.1876C19.6033 54.1875 19.1251 54.6656 19.1251 55.25C19.1251 55.8343 19.6033 56.3125 20.1876 56.3125H55.2501C55.8344 56.3125 56.3126 55.8343 56.3126 55.25C56.3126 54.6656 55.8344 54.1875 55.2501 54.1875Z" fill="#6CA7C0"/>
</g>
<defs>
<clipPath id="clip0">
<rect width="68" height="68" fill="white"/>
</clipPath>
</defs>
</svg>
