<svg width="116" height="115" viewBox="0 0 116 115" fill="none" xmlns="http://www.w3.org/2000/svg">
<path d="M23.503 48.673L79.8113 61.1523L91.3773 15.7228L35.069 3.2435L23.503 48.673Z" fill="#D6D6D6"/>
<path d="M73.0125 66.8654L38.6229 59.2437C26.5154 56.5604 19.032 45.2277 21.9078 33.9313L28.2672 8.95215L84.5792 21.4325L73.0125 66.8654Z" fill="#D6D6D6"/>
<path d="M47.5923 59.7972L104.678 50.8869L96.4201 4.83014L39.3341 13.7404L47.5923 59.7972Z" fill="#E8E8E8"/>
<path d="M51.1279 55.8068L108.214 46.8965L99.9557 0.83969L42.8697 9.74997L51.1279 55.8068Z" fill="#F4F4F4"/>
<path d="M49.2262 26.2143L99.6943 18.337L99.0023 14.4774L48.5342 22.3547L49.2262 26.2143Z" fill="#D6D6D6"/>
<path d="M55.0538 19.4112L52.3383 16.1998L52.9614 19.6748C53.0199 20.0017 52.6221 20.232 52.1949 20.2986C51.7675 20.3652 51.3113 20.2684 51.2525 19.9415L50.0886 13.4515C50.0281 13.1141 50.4279 12.8943 50.8551 12.8277C51.4688 12.732 51.7077 12.7469 52.2578 13.428L54.5988 16.3093L53.9758 12.8344C53.9153 12.497 54.3168 12.2875 54.744 12.2209C55.1714 12.1543 55.6241 12.2304 55.6844 12.5678L56.85 19.0679C56.9086 19.3948 56.5108 19.6252 56.0836 19.6918C55.6896 19.7531 55.3262 19.7365 55.0538 19.4112Z" fill="#5C5560"/>
<path d="M59.0495 14.753L60.6926 14.4967C61.0213 14.4453 61.2608 14.7127 61.3194 15.0396C61.3688 15.3157 61.274 15.6664 60.9126 15.7229L59.2695 15.9792L59.5812 17.7166L62.5169 17.2584C62.8455 17.207 63.0903 17.5051 63.1582 17.8834C63.2169 18.2103 63.1278 18.5921 62.7661 18.6485L58.8666 19.2572C58.4939 19.3153 58.0923 19.2098 58.0338 18.8829L56.8701 12.3929C56.8115 12.066 57.1545 11.8444 57.527 11.7861L61.4265 11.1774C61.7882 11.121 62.0055 11.4549 62.0641 11.7818C62.1318 12.1599 62.0045 12.516 61.6758 12.5674L58.7401 13.0256L59.0495 14.753Z" fill="#5C5560"/>
<path d="M71.1934 16.8498C71.1262 17.2281 70.6645 17.4788 70.1603 17.5574C69.6672 17.6343 69.1104 17.5426 68.9587 17.1985L67.9549 14.8653L67.8195 17.3764C67.7959 17.7478 67.3013 18.0037 66.8086 18.0806C66.3046 18.1593 65.7694 18.064 65.585 17.7254L62.2873 11.8312C62.2708 11.8023 62.2506 11.7529 62.2415 11.7019C62.1795 11.3543 62.7414 10.9726 63.2345 10.8955C63.4974 10.8544 63.7311 10.902 63.8352 11.1064L66.4404 16.0897L66.6865 12.5002C66.7025 12.214 67.0602 12.011 67.4327 11.9529C67.8054 11.8948 68.2144 11.978 68.3296 12.2437L69.8143 15.5632L70.5393 10.0603C70.5665 9.83546 70.771 9.71968 71.0342 9.67839C71.5271 9.60147 72.1916 9.79174 72.2543 10.1393C72.2634 10.1905 72.2614 10.2431 72.256 10.2757L71.1934 16.8498Z" fill="#5C5560"/>
<path d="M77.0318 14.3625C76.8101 13.1256 73.3761 13.8824 72.9472 11.4908C72.6724 9.95773 74.0027 9.15113 75.372 8.93739C75.9525 8.84691 77.5701 8.69915 77.7132 9.49664C77.7627 9.77273 77.6662 10.3654 77.1843 10.4405C76.7899 10.5022 76.5123 10.1462 75.6139 10.2862C74.8362 10.4077 74.5717 10.7536 74.6285 11.0704C74.8116 12.0923 78.2495 11.3562 78.7114 13.9316C78.9754 15.4033 77.9682 16.38 76.3797 16.6279C74.9446 16.852 73.6224 16.3858 73.5015 15.7114C73.4393 15.3639 73.6764 14.8016 74.0925 14.7366C74.6073 14.6562 75.0715 15.3612 76.0903 15.2021C76.594 15.1242 77.1197 14.8532 77.0318 14.3625Z" fill="#5C5560"/>
<path d="M50.3102 32.2618L71.8206 28.9044L71.3823 26.4601L49.8719 29.8175L50.3102 32.2618Z" fill="#5C5560"/>
<path d="M51.2099 37.2785L72.7202 33.921L72.2819 31.4767L50.7716 34.8341L51.2099 37.2785Z" fill="#5C5560"/>
<path d="M79.2668 27.7429L100.777 24.3854L100.339 21.9411L78.8285 25.2985L79.2668 27.7429Z" fill="#5C5560"/>
<path d="M82.6559 46.6533L104.166 43.2959L101.237 26.9563L79.7262 30.3137L82.6559 46.6533Z" fill="#5C5560"/>
<path d="M51.8775 46.0386L51.9937 46.2368C52.7252 47.4841 54.0407 48.3276 55.5447 48.5609C58.8945 49.0812 61.9634 50.9774 63.7207 53.9737L66.438 58.6062C64.7825 59.9263 62.9575 61.1073 60.9717 62.1212C52.5705 66.4109 43.013 66.8265 34.6607 64.0115C34.4774 62.2154 34.7872 60.4126 35.5388 58.7759C36.1377 57.4689 36.0857 55.9804 35.354 54.7333L35.2379 54.535C34.5064 53.2877 33.1909 52.4442 31.6881 52.2106C28.3383 51.6902 25.269 49.7929 23.5121 46.7978L20.7317 42.0572C18.4131 38.1041 19.0516 33.3861 21.9523 30.1129C22.8663 29.0809 23.0311 27.639 22.3421 26.4646L20.3202 23.0173L31.4688 17.3248L33.4907 20.7721C34.1795 21.9466 35.5688 22.595 36.9942 22.4323C41.5118 21.9179 46.1161 23.9588 48.4347 27.9118L51.2152 32.6525C52.9718 35.6476 53.0299 39.0824 51.694 41.9953C51.0938 43.3029 51.1457 44.7913 51.8775 46.0386Z" fill="#E8E8E8"/>
<path d="M31.469 17.3256L32.8348 19.654L25.8346 23.2283C25.5038 23.3973 25.2778 23.6757 25.1788 23.9881C25.0815 24.3008 25.1113 24.6492 25.2923 24.9578C25.9818 26.1334 26.227 27.363 25.9339 28.0797C24.9971 30.35 25.7469 34.3591 28.0664 38.3134L30.8464 43.0529C32.603 46.0481 34.8751 48.3538 36.9837 49.5066C37.9301 50.0258 38.9111 51.0372 39.6433 52.2856L39.7595 52.4838C40.491 53.7311 40.8762 55.0495 40.8337 56.071C40.7387 58.3518 41.5942 61.378 43.3511 64.3729L44.1713 65.7713C40.9175 65.6364 37.7088 65.0383 34.6606 64.0117C34.4754 62.2154 34.7857 60.4136 35.538 58.775C36.1374 57.469 36.0843 55.9813 35.3527 54.7338L35.2365 54.5356C34.5042 53.2873 33.1912 52.4455 31.6878 52.2104C28.3364 51.6923 25.2686 49.7928 23.5118 46.7976L20.7317 42.0582C18.4124 38.104 19.05 33.3866 21.9505 30.1134C22.8638 29.0802 23.0299 27.6406 22.3402 26.4651L20.3189 23.0191L31.469 17.3256Z" fill="#D6D6D6"/>
<path d="M29.8592 12.7988L32.4097 17.1473L19.6523 23.661L17.1017 19.3125C16.3476 18.027 16.8531 16.4152 18.2311 15.7117L25.9984 11.7457C27.376 11.0425 29.1052 11.5131 29.8592 12.7988Z" fill="#279FC9"/>
<path d="M29.8596 12.7987L32.4102 17.1472L23.3417 21.7775L20.7912 17.429C20.037 16.1436 20.5426 14.5318 21.9205 13.8283L25.9988 11.746C27.3765 11.0425 29.1056 11.5131 29.8596 12.7987Z" fill="#34ABE0"/>
<path d="M46.4427 37.6153C44.9829 38.3619 43.1538 37.8643 42.3572 36.504L38.8752 30.557C38.0786 29.1967 38.6164 27.4886 40.0762 26.7419C41.5359 25.9953 43.3651 26.4929 44.1616 27.8532L47.6437 33.8002C48.4402 35.1605 47.9024 36.8686 46.4427 37.6153Z" fill="#FCFCFC"/>
<path d="M61.6729 57.7136L63.4351 60.723C62.642 61.2178 61.8204 61.6838 60.9685 62.1195C60.0376 62.5956 59.0927 63.0247 58.137 63.4051L56.3874 60.4171C55.5908 59.057 56.1282 57.3502 57.5878 56.6035C58.3174 56.2304 59.1396 56.1676 59.8786 56.3685C60.6187 56.5689 61.2748 57.0337 61.6729 57.7136Z" fill="#FCFCFC"/>
<path d="M78.7481 63.1979L78.7779 63.4222C78.9649 64.8334 79.8543 66.0699 81.1601 66.8042C84.0682 68.4405 86.171 71.2592 86.6201 74.6488L87.3147 79.8898C85.2542 80.5472 83.0909 81.017 80.8442 81.2761C71.3396 82.3725 62.2914 79.4702 55.6406 73.9796C56.1802 72.247 57.1807 70.6781 58.5266 69.4151C59.6 68.4063 60.14 67.0048 59.9528 65.5938L59.923 65.3695C59.736 63.9583 58.8466 62.7218 57.5421 61.9873C54.634 60.351 52.5308 57.5312 52.0821 54.1427L51.3714 48.7795C50.779 44.3072 53.2373 40.1415 57.2275 38.0971C58.4852 37.4523 59.208 36.169 59.0318 34.8402L58.5151 30.9401L71.1279 29.4852L71.6446 33.3852C71.8208 34.7139 72.8558 35.7945 74.2449 36.1342C78.6473 37.2104 82.1203 40.692 82.713 45.1642L83.4237 50.5275C83.8727 53.9158 82.5689 57.1287 80.1756 59.3764C79.1009 60.3854 78.5611 61.7869 78.7481 63.1979Z" fill="#E8E8E8"/>
<path d="M71.128 29.4867L71.4771 32.121L63.5574 33.0345C63.1832 33.0776 62.8628 33.2588 62.6476 33.5148C62.4337 33.7723 62.3237 34.1062 62.3699 34.4552C62.546 35.785 62.2879 37.0124 61.7323 37.5776C59.964 39.3656 59.0765 43.3501 59.6692 47.8235L60.3799 53.1855C60.8289 56.5739 62.0293 59.4991 63.5338 61.2961C64.2082 62.1045 64.7204 63.3821 64.9077 64.7945L64.9374 65.0188C65.1244 66.43 64.9615 67.7879 64.518 68.7227C63.5281 70.8099 63.1274 73.9173 63.5763 77.3056L63.7861 78.8876C60.8153 77.6426 58.069 75.9825 55.6412 73.9794C56.1795 72.2458 57.18 70.6779 58.527 69.4137C59.6006 68.4061 60.1391 67.0048 59.9521 65.5936L59.9223 65.3693C59.7351 63.9569 58.8474 62.7226 57.5429 61.9871C54.6327 60.3522 52.5316 57.531 52.083 54.1425L51.3723 48.7805C50.7796 44.3071 53.2367 40.1415 57.2269 38.0971C58.4842 37.4513 59.2075 36.1702 59.0312 34.8402L58.5146 30.9414L71.128 29.4867Z" fill="#D6D6D6"/>
<path d="M71.4212 24.7248L72.0731 29.6443L57.64 31.3091L56.9881 26.3896C56.7954 24.9353 57.9023 23.6111 59.461 23.4312L68.2482 22.4175C69.8074 22.238 71.2286 23.2705 71.4212 24.7248Z" fill="#EF4152"/>
<path d="M71.4213 24.7248L72.0732 29.6443L61.8136 30.8278L61.1617 25.9083C60.969 24.454 62.0759 23.1298 63.6346 22.9499L68.2485 22.4175C69.8074 22.238 71.2286 23.2705 71.4213 24.7248Z" fill="#FF525D"/>
<path d="M77.0311 53.5022C75.381 53.6924 73.8781 52.5986 73.6739 51.0591L72.7821 44.3286C72.5781 42.789 73.7505 41.3865 75.4006 41.1963C77.0506 41.006 78.5536 42.0998 78.7577 43.6394L79.6496 50.3699C79.8535 51.9094 78.6814 53.3117 77.0311 53.5022Z" fill="#FCFCFC"/>
<path d="M83.2343 77.4224L83.6855 80.8289C82.7538 81.0153 81.8066 81.1649 80.8438 81.276C79.7914 81.3975 78.7442 81.4701 77.7066 81.4938L77.2584 78.1116C77.0545 76.5718 78.2262 75.1704 79.8765 74.9799C80.7015 74.8848 81.4901 75.1102 82.0973 75.5519C82.7062 75.9938 83.1323 76.6524 83.2343 77.4224Z" fill="#FCFCFC"/>
<path d="M109.446 49.1833L109.197 51.7613L108.637 57.5353L104.949 95.5497C94.7613 106.839 79.5012 114.013 62.4457 114.013C53.2856 114.013 44.6422 111.945 37.0256 108.28C30.4609 105.12 24.6577 100.776 19.9429 95.5497L15.6926 51.7636L15.4434 49.1833H109.446Z" fill="#56ABAE"/>
<path d="M108.637 57.535L107.812 66.0307L106.917 75.2584L104.949 95.5493C94.7619 106.839 79.5018 114.013 62.4463 114.013C53.2861 114.013 44.6427 111.944 37.0261 108.279L33.1498 68.3C32.5877 62.5177 37.4681 57.5348 43.6906 57.5348L108.637 57.535Z" fill="#62C1C5"/>
<path d="M113.553 53.1153C11.3249 53.1153 113.564 53.1153 11.3358 53.1153C10.1252 53.1153 9.1438 52.1998 9.1438 51.0701V44.7592C9.1438 43.6298 10.125 42.7141 11.3358 42.7141H113.553C114.764 42.7141 115.745 43.6296 115.745 44.7592V51.0701C115.745 52.1994 114.764 53.1153 113.553 53.1153Z" fill="#56ABAE"/>
<path d="M61.0747 98.9408V107.867C56.5914 107.867 53.6835 107.844 51.8089 107.341C50.7281 107.051 49.813 106.376 49.2418 105.472C49.2418 105.472 49.2418 105.471 49.2414 105.471C48.8836 104.547 48.3172 102.424 49.1835 100.829C49.7571 99.7717 51.2251 99.7407 51.6681 98.9406H61.0749V98.9408H61.0747Z" fill="#FCFCFC"/>
<path d="M53.2055 88.1091L57.9785 97.0153L53.9149 94.9698C53.9149 94.9698 53.166 96.2334 51.6674 98.9413C51.2244 99.7412 50.7163 100.667 50.1427 101.725C49.2767 103.32 48.8834 104.548 49.2409 105.471L44.2042 97.5032C43.7046 96.7119 43.6696 95.7375 44.1131 94.9174L46.1968 91.0584L42.4348 89.0125L53.2055 88.1091Z" fill="#494B5B"/>
<path d="M69.8943 91.7073L78.1795 87.2444C80.4212 90.8669 81.8541 93.2277 82.3244 94.994C82.5956 96.0123 82.4264 97.0893 81.8734 98.0027C81.8729 98.003 81.8727 98.0032 81.8725 98.0036C81.1941 98.7543 79.5061 100.274 77.5925 100.372C76.3244 100.437 75.5619 99.266 74.5978 99.3081L69.8943 91.7073Z" fill="#FCFCFC"/>
<path d="M63.7744 103.481L69.6546 95.1714L69.7874 99.4775C69.7874 99.4775 71.335 99.4507 74.5974 99.3078C75.5615 99.2657 76.6755 99.2133 77.9435 99.1481C79.8571 99.0502 81.1937 98.7541 81.8721 98.0033L76.994 106.057C76.5095 106.856 75.6222 107.372 74.6395 107.424L70.0156 107.669L69.9974 111.732L63.7744 103.481Z" fill="#494B5B"/>
<path d="M58.5496 88.365L50.2644 83.9021C52.5061 80.2795 53.981 77.9413 55.3853 76.6781C56.1947 75.9498 57.2792 75.548 58.4038 75.5383C58.4043 75.5385 58.4045 75.5387 58.4051 75.5385C59.4412 75.7114 61.6955 76.3154 62.7431 77.8128C63.4375 78.805 62.7322 80.0065 63.2531 80.7643L58.5496 88.365Z" fill="#FCFCFC"/>
<path d="M72.5379 87.4228L61.8847 86.8263L65.8151 84.5658C65.8151 84.5658 65.0165 83.3286 63.2528 80.7639C62.7317 80.0061 62.126 79.1323 61.4316 78.1401C60.3842 76.6427 59.4409 75.7108 58.4048 75.5381L68.3195 75.4527C69.3037 75.4444 70.2257 75.9037 70.765 76.672L73.3052 80.2852L77.0854 78.2686L72.5379 87.4228Z" fill="#494B5B"/>
</svg>
