<svg width="116" height="116" viewBox="0 0 116 116" fill="none" xmlns="http://www.w3.org/2000/svg">
<g clip-path="url(#clip0)">
<path d="M106.328 53.1713H9.6641C8.32778 53.1713 7.24976 54.2475 7.24976 55.5854V99.0855C7.24976 100.423 8.32756 101.5 9.6641 101.5H106.328C107.666 101.5 108.75 100.423 108.75 99.0855V55.5857C108.75 54.2475 107.666 53.1713 106.328 53.1713Z" fill="#CCD1D9"/>
<path d="M106.328 48.3356H9.6641C8.32778 48.3356 7.24976 49.4188 7.24976 50.7499V94.2498C7.24976 95.588 8.32756 96.6714 9.6641 96.6714H106.328C107.666 96.6714 108.75 95.5882 108.75 94.2498V50.7499C108.75 49.4188 107.666 48.3356 106.328 48.3356Z" fill="#E6E9ED"/>
<path d="M94.2497 87H21.7496C20.4133 87 19.3301 85.9168 19.3301 84.5857C19.3301 83.2478 20.4133 82.1715 21.7496 82.1715H94.2495C95.5806 82.1715 96.6636 83.2478 96.6636 84.5857C96.6638 85.9168 95.5808 87 94.2497 87Z" fill="#656D78"/>
<path d="M94.2497 53.1713H21.7496C20.4133 53.1713 19.3301 52.0881 19.3301 50.7497C19.3301 49.4186 20.4133 48.3354 21.7496 48.3354H94.2495C95.5806 48.3354 96.6636 49.4186 96.6636 50.7497C96.6638 52.0881 95.5808 53.1713 94.2497 53.1713Z" fill="#CCD1D9"/>
<path d="M88.3806 60.4216C88.3806 61.7525 89.4639 62.8357 90.795 62.8357C92.1331 62.8357 93.2091 61.7525 93.2091 60.4216C93.2091 59.0835 92.1331 58 90.795 58C89.4636 58 88.3806 59.0832 88.3806 60.4216Z" fill="#A0D468"/>
<path d="M78.7092 60.4216C78.7092 61.7525 79.7925 62.8357 81.1306 62.8357C82.4617 62.8357 83.5447 61.7525 83.5447 60.4216C83.5447 59.0835 82.4617 58 81.1306 58C79.7925 58 78.7092 59.0832 78.7092 60.4216Z" fill="#ED5564"/>
<path d="M69.0447 60.4216C69.0447 61.7525 70.1279 62.8357 71.4588 62.8357C72.7969 62.8357 73.8804 61.7525 73.8804 60.4216C73.8804 59.0835 72.7972 58 71.4588 58C70.1279 58 69.0447 59.0832 69.0447 60.4216Z" fill="#FFCE54"/>
<path d="M93.5418 20.04L74.2098 0.70441C73.7531 0.251268 73.1406 0 72.4999 0H24.1657C22.8312 0 21.7495 1.07984 21.7495 2.41434V48.3322C21.7495 49.6667 22.8309 50.7499 24.1657 50.7499H91.8353C93.1661 50.7499 94.2494 49.6667 94.2494 48.3322V21.7499C94.2498 21.1058 93.9949 20.4932 93.5418 20.04Z" fill="#FFCE54"/>
<path d="M72.5 0V19.3322C72.5 20.6669 73.5832 21.7502 74.9143 21.7502H94.25C94.25 21.2687 94.1083 20.8049 93.8464 20.4084C93.8464 20.4084 93.8464 20.4084 93.8428 20.4048C93.8038 20.3445 93.7578 20.2845 93.7118 20.2278C93.7048 20.2208 93.7012 20.2172 93.6978 20.2102C93.6518 20.1571 93.6058 20.1039 93.5562 20.0543C93.5279 20.026 93.4995 19.994 93.4712 19.9693L74.2099 0.70441C73.7532 0.251268 73.1407 0 72.5 0Z" fill="#F6BB42"/>
<path d="M29.0001 107C27.8952 107 27 106.241 27 105.307V85H31V105.307C31 106.241 30.1048 107 29.0001 107Z" fill="#FFCE54"/>
<path d="M38.4992 111C37.1186 111 36 110.104 36 108.999V85H41V108.999C41.0002 110.104 39.8798 111 38.4992 111Z" fill="#FFCE54"/>
<path d="M48.5011 114C47.1205 114 46 113 46 111.768V85H51V111.768C51.0002 113 49.8817 114 48.5011 114Z" fill="#FFCE54"/>
<path d="M57.9996 116C56.6649 116 55.5835 114.917 55.5835 113.582V84.582H60.4156V113.582C60.4156 114.917 59.3344 116 57.9996 116Z" fill="#FFCE54"/>
<path d="M67.4964 114C66.12 114 65 113 65 111.768V85H70V111.768C70 113 68.88 114 67.4964 114Z" fill="#FFCE54"/>
<path d="M77.5037 111C76.1202 111 75 110.104 75 108.999V85H80V108.999C80 110.104 78.88 111 77.5037 111Z" fill="#FFCE54"/>
<path d="M86.9998 107C85.8941 107 85 106.241 85 105.307V85H89V105.307C88.9998 106.241 88.1057 107 86.9998 107Z" fill="#FFCE54"/>
<path d="M48.3336 43.4999C39.0057 43.4999 31.4158 35.91 31.4158 26.582C31.4158 17.2541 39.0057 9.66417 48.3336 9.66417C57.6616 9.66417 65.2499 17.2541 65.2499 26.582C65.2499 35.9102 57.6618 43.4999 48.3336 43.4999ZM48.3336 14.5001C41.6713 14.5001 36.2499 19.9197 36.2499 26.5822C36.2499 33.2448 41.6715 38.6644 48.3336 38.6644C54.996 38.6644 60.4158 33.2446 60.4158 26.5822C60.4158 19.9199 54.9962 14.5001 48.3336 14.5001Z" fill="#ED5564"/>
<path d="M48.3337 29C46.999 29 45.9158 27.9167 45.9158 26.5822V19.332C45.9158 17.9975 46.999 16.9142 48.3337 16.9142C49.6682 16.9142 50.7499 17.9975 50.7499 19.332V26.582C50.7499 27.9167 49.6685 29 48.3337 29Z" fill="#ED5564"/>
<path d="M50.7499 33.8323C50.7499 35.1668 49.6685 36.2501 48.3337 36.2501C46.999 36.2501 45.9158 35.1668 45.9158 33.8323C45.9158 32.4976 46.999 31.4143 48.3337 31.4143C49.6685 31.4143 50.7499 32.4976 50.7499 33.8323Z" fill="#ED5564"/>
</g>
<defs>
<clipPath id="clip0">
<rect width="116" height="116" fill="white"/>
</clipPath>
</defs>
</svg>
