<svg width="116" height="116" viewBox="0 0 116 116" fill="none" xmlns="http://www.w3.org/2000/svg">
<g clip-path="url(#clip0)">
<path d="M98.8719 37.3344H74.9199V80.7462H114.163V61.2066L109.587 45.3885C108.207 40.6184 103.838 37.3344 98.8719 37.3344Z" fill="#FF7058"/>
<path d="M108.434 61.0061L104.355 46.906C103.652 44.4822 101.397 42.7859 98.872 42.7859H80.3716V61.0061H108.434Z" fill="#84DBFF"/>
<path d="M108.439 60.9988H80.3621V42.7786L108.439 60.9988Z" fill="#CDD6E0"/>
<path d="M108.434 61.0061L104.355 46.906C103.652 44.4822 101.397 42.7859 98.872 42.7859H80.3716L108.434 61.0061Z" fill="#F2F2F2"/>
<path d="M7.24939 15.5402H67.6706C71.6722 15.5402 74.92 18.7854 74.92 22.7896V80.7437H0V22.7896C0 18.7857 3.24523 15.5402 7.24939 15.5402Z" fill="#FFD15C"/>
<path d="M49.1028 15.5524V34.7076L46.2995 31.9046L43.3612 34.8431L40.4252 31.9046L37.4892 34.8431L34.5483 31.9046L31.5737 34.8431L28.64 31.9046L25.8032 34.7416V15.5524H49.1028Z" fill="#F2F2F2"/>
<path d="M116 80.7412V88.933H0.00976562V80.7412H12.1162C14.9435 75.6667 20.3806 72.2352 26.615 72.2352C32.8253 72.2352 38.2623 75.6667 41.1138 80.7412H80.0673C82.8945 75.6667 88.3051 72.2352 94.5396 72.2352C100.774 72.2352 106.187 75.6667 109.038 80.7412H116Z" fill="#334A5E"/>
<path d="M106.117 88.8823C106.117 95.2762 100.933 100.46 94.5393 100.46C88.1454 100.46 82.9668 95.2762 82.9668 88.8823C82.9668 82.4883 88.1476 77.305 94.5393 77.305C100.936 77.305 106.117 82.4883 106.117 88.8823Z" fill="#40596B"/>
<path d="M99.1934 88.8823C99.1934 91.4511 97.1103 93.5316 94.544 93.5316C91.9752 93.5316 89.8899 91.4511 89.8899 88.8823C89.8899 86.3135 91.973 84.2329 94.544 84.2329C97.1103 84.2307 99.1934 86.3137 99.1934 88.8823Z" fill="#ACB3BA"/>
<path d="M38.1826 88.8823C38.1826 95.2762 32.9968 100.46 26.6054 100.46C20.2114 100.46 15.0281 95.2762 15.0281 88.8823C15.0281 82.4883 20.2114 77.305 26.6054 77.305C32.9968 77.305 38.1826 82.4883 38.1826 88.8823Z" fill="#40596B"/>
<path d="M31.2546 88.8823C31.2546 91.4511 29.174 93.5316 26.6052 93.5316C24.0365 93.5316 21.9536 91.4511 21.9536 88.8823C21.9536 86.3135 24.0367 84.2329 26.6052 84.2329C29.1738 84.2329 31.2546 86.3137 31.2546 88.8823Z" fill="#ACB3BA"/>
</g>
<defs>
<clipPath id="clip0">
<rect width="116" height="116" fill="white"/>
</clipPath>
</defs>
</svg>
