<svg width="68" height="68" viewBox="0 0 68 68" fill="none" xmlns="http://www.w3.org/2000/svg">
<path d="M43.4709 63.9094C44.0635 64.4883 44.859 64.8125 45.6875 64.8125H47.6301C47.351 64.8125 47.0747 64.7576 46.8169 64.6508C46.559 64.5439 46.3248 64.3874 46.1275 64.19C45.7836 63.8465 45.3322 63.6312 44.8488 63.5801C44.3654 63.5291 43.8791 63.6453 43.4709 63.9094Z" fill="#48ADD9"/>
<path d="M58.7735 39.367C58.3255 40.711 58.3255 42.164 58.7735 43.508L59.164 44.6795C59.3868 45.347 59.5003 46.0462 59.5 46.75V61.625C59.4998 62.4703 59.1639 63.2809 58.5662 63.8787C57.9684 64.4764 57.1578 64.8123 56.3125 64.8125H54.0055C53.7261 64.8128 53.4494 64.7577 53.1914 64.6505C52.974 64.5589 52.773 64.4324 52.5964 64.2759C52.5632 64.248 52.5313 64.2188 52.5021 64.1896C52.4729 64.1604 52.4423 64.1312 52.4105 64.1033C52.3573 64.0568 52.3029 64.013 52.2458 63.9718C52.2166 63.9492 52.186 63.9293 52.1555 63.908C51.7469 63.6445 51.2605 63.5287 50.777 63.5799C50.2935 63.6311 49.8421 63.8463 49.4979 64.1896C49.3005 64.3871 49.0661 64.5437 48.8081 64.6506C48.5502 64.7575 48.2737 64.8125 47.9945 64.8125H45.6875C44.8422 64.8123 44.0316 64.4764 43.4338 63.8787C42.8361 63.2809 42.5002 62.4703 42.5 61.625V46.75C42.4997 46.0462 42.6132 45.347 42.836 44.6795L43.2265 43.508C43.6745 42.164 43.6745 40.711 43.2265 39.367L42.836 38.1955C42.6132 37.528 42.4997 36.8288 42.5 36.125V31.7103C42.5004 29.0534 43.3306 26.4629 44.8747 24.3007L47.8125 20.1875V14.875H54.1875V20.1875L57.1253 24.3007C58.6701 26.4625 59.5004 29.0533 59.5 31.7103V36.125C59.5003 36.8288 59.3868 37.528 59.164 38.1955L59.1454 38.25L58.7735 39.367Z" fill="#348FD9"/>
<path d="M59.5 31.7103V36.125C59.5003 36.8288 59.3868 37.528 59.164 38.1955L59.1454 38.25L58.7735 39.367C58.3255 40.711 58.3255 42.164 58.7735 43.508L59.164 44.6795C59.3868 45.347 59.5003 46.0462 59.5 46.75V61.625C59.4998 62.4703 59.1639 63.2809 58.5662 63.8787C57.9684 64.4764 57.1578 64.8123 56.3125 64.8125H54.1875C53.6132 64.8096 53.0552 64.6214 52.5964 64.2759C52.5632 64.248 52.5313 64.2188 52.5021 64.1896C52.4729 64.1604 52.4423 64.1312 52.4105 64.1033C52.3573 64.0568 52.3029 64.013 52.2458 63.9718C52.2152 63.9506 52.1847 63.9293 52.1541 63.9094L52.1555 63.908C52.4621 63.6121 52.706 63.2574 52.8726 62.8652C53.0392 62.4729 53.125 62.0512 53.125 61.625V46.75C53.1253 46.0462 53.0118 45.347 52.789 44.6795L52.3985 43.508C51.9505 42.164 51.9505 40.711 52.3985 39.367L52.7704 38.25L52.789 38.1955C53.0118 37.528 53.1253 36.8288 53.125 36.125V31.7103C53.1253 31.0539 53.0747 30.3985 52.9736 29.75C52.668 27.7849 51.9065 25.9187 50.7503 24.3007L47.8125 20.1875V14.875H54.1875V20.1875L57.1253 24.3007C58.6701 26.4625 59.5004 29.0533 59.5 31.7103Z" fill="#3086CD"/>
<path d="M59.3486 29.75H49.9375V27.625H58.828C59.0617 28.3172 59.2359 29.0281 59.3486 29.75Z" fill="#2D7DBF"/>
<path d="M49.9375 31.875H59.5V34H49.9375V31.875Z" fill="#2D7DBF"/>
<path d="M59.5 36.125C59.5003 36.8288 59.3868 37.528 59.164 38.1955L59.1454 38.25H49.9375V36.125H59.5Z" fill="#2D7DBF"/>
<path d="M49.9375 46.75H59.5V48.875H49.9375V46.75Z" fill="#2D7DBF"/>
<path d="M49.9375 51H59.5V53.125H49.9375V51Z" fill="#2D7DBF"/>
<path d="M49.9375 55.25H59.5V57.375H49.9375V55.25Z" fill="#2D7DBF"/>
<path d="M48.875 41.4375L47.8125 43.5625L48.875 45.6875V47.8125L47.8125 49.9375L48.875 52.0625V54.1875L47.8125 56.3125L48.875 58.4375V62.6875C48.8842 63.1581 48.7413 63.619 48.4675 64.0018C48.1938 64.3847 47.8038 64.669 47.3556 64.8125H45.6875C44.8422 64.8123 44.0316 64.4764 43.4338 63.8787C42.8361 63.2809 42.5002 62.4703 42.5 61.625V46.75C42.4997 46.0462 42.6132 45.347 42.836 44.6795L43.2265 43.508C43.6745 42.164 43.6745 40.711 43.2265 39.367L42.836 38.1955C42.6132 37.528 42.4997 36.8288 42.5 36.125V31.7103C42.5 30.6918 42.6222 29.6769 42.8639 28.6875H44.625V32.9375L47.7009 34.4755C48.0538 34.652 48.3505 34.9233 48.5579 35.259C48.7652 35.5947 48.875 35.9815 48.875 36.376V41.4375Z" fill="#3086CD"/>
<path d="M36.125 25.5V57.6406C36.125 58.9725 35.7541 60.2781 35.0539 61.4111C34.3537 62.5441 33.3518 63.4597 32.1605 64.0553C30.9692 64.651 29.6356 64.9031 28.3091 64.7835C26.9825 64.6639 25.7155 64.1773 24.65 63.3781C23.9756 62.8725 23.1554 62.5992 22.3125 62.5992C21.4696 62.5992 20.6494 62.8725 19.975 63.3781C18.9735 64.1292 17.7929 64.6051 16.5505 64.7585C15.3081 64.9119 14.0472 64.7374 12.8931 64.2525C11.739 63.7676 10.7319 62.9891 9.97195 61.9943C9.21197 60.9996 8.72557 59.8232 8.56109 58.5823C8.52057 58.27 8.50016 57.9555 8.5 57.6406V25.5C8.50069 22.5804 9.42652 19.736 11.1446 17.3754C12.8626 15.0147 15.2845 13.2592 18.0625 12.3609V3.1875H26.5625V12.3609C29.3416 13.2574 31.7647 15.0125 33.483 17.3735C35.2013 19.7346 36.1264 22.5799 36.125 25.5Z" fill="#4DB7E5"/>
<path d="M36.125 25.5V57.6406C36.125 58.9725 35.7541 60.2781 35.0538 61.4111C34.3536 62.544 33.3517 63.4597 32.1604 64.0553C30.9691 64.6509 29.6355 64.9031 28.309 64.7835C26.9825 64.6639 25.7155 64.1772 24.65 63.3781C23.9755 62.8725 23.1554 62.5991 22.3124 62.5991C21.4695 62.5991 20.6494 62.8725 19.9749 63.3781C18.9735 64.1292 17.7928 64.605 16.5504 64.7584C15.308 64.9118 14.0471 64.7374 12.893 64.2525C11.7389 63.7675 10.7319 62.989 9.97189 61.9943C9.21191 60.9995 8.72551 59.8232 8.56104 58.5822C17.6587 52.3148 27.3673 40.6871 34.7052 19.3972C35.6421 21.295 36.128 23.3835 36.125 25.5Z" fill="#48ADD9"/>
<path d="M17.5883 18.4319L16.4116 16.6628C17.2264 16.1214 18.1116 15.6945 19.0425 15.3938L19.6962 17.4161C18.9505 17.6568 18.2412 17.9985 17.5883 18.4319Z" fill="#79C6E8"/>
<path d="M13.8646 24.5541L11.752 24.3207C12.0121 22.0002 13.0272 19.8295 14.6412 18.1421L16.1737 19.6144C14.8832 20.9633 14.0719 22.699 13.8646 24.5541Z" fill="#79C6E8"/>
<path d="M15.9375 7.4375H28.6875V9.5625H15.9375V7.4375Z" fill="#79C6E8"/>
<path d="M8.5 27.625H36.125V51H8.5V27.625Z" fill="#F35244"/>
<path d="M11.6875 30.8125H13.8125V32.9375H11.6875V30.8125Z" fill="#FC685B"/>
<path d="M11.6875 35.0625H13.8125V44.625H11.6875V35.0625Z" fill="#FC685B"/>
<path d="M18.0625 9.5625H26.5625V12.75H18.0625V9.5625Z" fill="#48ADD9"/>
<path d="M36.1249 27.625V51H17.1819C22.2367 45.4763 27.1946 37.9233 31.5588 27.625H36.1249Z" fill="#EA4A3B"/>
<path d="M45.6875 43.5625L46.75 45.6875V47.8125L45.6875 49.9375L46.75 52.0625V54.1875L45.6875 56.3125L46.75 58.4375V62.6875C46.75 63.2511 46.5261 63.7916 46.1276 64.1901C45.7291 64.5886 45.1886 64.8125 44.625 64.8125H34C33.4364 64.8125 32.8959 64.5886 32.4974 64.1901C32.0989 63.7916 31.875 63.2511 31.875 62.6875V58.4375L32.9375 56.3125L31.875 54.1875V52.0625L32.9375 49.9375L31.875 47.8125V45.6875L32.9375 43.5625L31.875 41.4375V36.376C31.875 35.9815 31.9848 35.5947 32.1921 35.259C32.3995 34.9233 32.6962 34.652 33.0491 34.4755L36.125 32.9375V28.6875H42.5V32.9375L45.5759 34.4755C45.9288 34.652 46.2255 34.9233 46.4329 35.259C46.6402 35.5947 46.75 35.9815 46.75 36.376V41.4375L45.6875 43.5625Z" fill="#60D1E0"/>
<path d="M46.75 41.4375L45.6875 43.5625L46.75 45.6875V47.8125L45.6875 49.9375L46.75 52.0625V54.1875L45.6875 56.3125L46.75 58.4375V62.6875C46.75 63.2511 46.5261 63.7916 46.1276 64.1901C45.7291 64.5886 45.1886 64.8125 44.625 64.8125H40.375C40.9386 64.8125 41.4791 64.5886 41.8776 64.1901C42.2761 63.7916 42.5 63.2511 42.5 62.6875V58.4375L41.4375 56.3125L42.5 54.1875V52.0625L41.4375 49.9375L42.5 47.8125V45.6875L41.4375 43.5625L42.5 41.4375V36.376C42.5 35.9815 42.3902 35.5947 42.1829 35.259C41.9755 34.9233 41.6788 34.652 41.3259 34.4755L38.25 32.9375V28.6875H42.5V32.9375L45.5759 34.4755C45.9288 34.652 46.2255 34.9233 46.4329 35.259C46.6402 35.5947 46.75 35.9815 46.75 36.376V41.4375Z" fill="#5AC6D4"/>
<path d="M45.6875 43.5625L46.2188 44.625H36.125V42.5H46.2188L45.6875 43.5625Z" fill="#3FB7C7"/>
<path d="M45.6875 49.9375L46.2188 51H36.125V48.875H46.2188L45.6875 49.9375Z" fill="#3FB7C7"/>
<path d="M45.6875 56.3125L46.2188 57.375H36.125V55.25H46.2188L45.6875 56.3125Z" fill="#3FB7C7"/>
<path d="M35.0625 37.1875H37.1875V40.375H35.0625V37.1875Z" fill="#9FE4ED"/>
<path d="M39.3125 30.8125C41.0729 30.8125 42.5 29.8611 42.5 28.6875C42.5 27.5139 41.0729 26.5625 39.3125 26.5625C37.5521 26.5625 36.125 27.5139 36.125 28.6875C36.125 29.8611 37.5521 30.8125 39.3125 30.8125Z" fill="#3FB7C7"/>
</svg>
