<svg width="116" height="116" viewBox="0 0 116 116" fill="none" xmlns="http://www.w3.org/2000/svg">
<g clip-path="url(#clip0)">
<g clip-path="url(#clip1)">
<path d="M31.3899 5.59322C31.0159 5.59327 30.6667 5.40648 30.4592 5.09542L28.2219 1.73949C27.879 1.22547 28.0177 0.530815 28.5317 0.187931C29.0458 -0.154954 29.7404 -0.0162229 30.0833 0.497795L31.3899 2.46102L32.6965 0.497795C32.9183 0.165284 33.3006 -0.0236365 33.6995 0.00219868C34.0983 0.0280339 34.4531 0.2647 34.6302 0.623046C34.8073 0.981393 34.7797 1.40698 34.5579 1.73949L32.3206 5.09542C32.1131 5.40648 31.7638 5.59327 31.3899 5.59322Z" fill="#9FC9D3"/>
<path d="M52.644 17.8983C52.2701 17.8984 51.9209 17.7116 51.7133 17.4005L49.476 14.0446C49.1331 13.5306 49.2719 12.8359 49.7859 12.493C50.2999 12.1501 50.9946 12.2889 51.3375 12.8029L52.644 14.7661L53.9506 12.8062C54.1724 12.4737 54.5548 12.2848 54.9536 12.3106C55.3525 12.3365 55.7073 12.5731 55.8843 12.9315C56.0614 13.2898 56.0338 13.7154 55.812 14.0479L53.5747 17.4039C53.3664 17.7136 53.0173 17.8991 52.644 17.8983Z" fill="#9FC9D3"/>
<path d="M72.7795 5.59322C72.4056 5.59327 72.0564 5.40648 71.8488 5.09542L69.6115 1.73949C69.2686 1.22547 69.4074 0.530815 69.9214 0.187931C70.4354 -0.154954 71.1301 -0.0162229 71.473 0.497795L72.7795 2.46102L74.0861 0.497795C74.429 -0.0162229 75.1237 -0.154954 75.6377 0.187931C76.1517 0.530815 76.2904 1.22547 75.9475 1.73949L73.7102 5.09542C73.5027 5.40648 73.1535 5.59327 72.7795 5.59322Z" fill="#9FC9D3"/>
<path d="M49.5677 33.8614V33.8502C50.5212 30.651 53.681 28.6388 56.9832 29.1278C60.2855 29.6168 62.7264 32.4584 62.7118 35.7966C62.715 36.2556 62.6663 36.7134 62.5664 37.1614C62.9682 36.9994 63.3973 36.9159 63.8305 36.9153C65.4449 36.9144 66.829 38.0679 67.1193 39.656C67.8437 39.3288 68.6288 39.1573 69.4237 39.1526C72.5127 39.1526 75.0169 41.6567 75.0169 44.7458C75.0056 44.9668 74.9832 45.187 74.9498 45.4058C77.6358 43.0324 81.7126 43.1884 84.2095 45.76C86.7063 48.3316 86.742 52.4113 84.2905 55.0261C87.0035 55.744 88.7611 58.3653 88.3952 61.1477C88.0293 63.9301 85.6538 66.0079 82.8474 66H29.1525C26.3461 66.0079 23.9706 63.9301 23.6047 61.1477C23.2388 58.3653 24.9964 55.744 27.7094 55.0261C25.8248 53.0945 25.2805 50.2219 26.3276 47.7347C27.3747 45.2474 29.8097 43.6292 32.5084 43.6271C33.0825 43.627 33.6542 43.7022 34.2088 43.8509H34.2199L49.5677 33.8614Z" fill="#805333"/>
<path d="M34.4189 33.0239L45.2922 30.3727C47.0937 29.9335 48.9102 31.0378 49.3495 32.8393L50.6751 38.276C50.9679 39.477 50.2317 40.688 49.0307 40.9808L35.9828 44.1623C34.7818 44.4551 33.5708 43.7189 33.2779 42.5178L31.9523 37.0812C31.5131 35.2797 32.6174 33.4632 34.4189 33.0239Z" fill="#84B5CB"/>
<path d="M36.9271 57.5878L35.3722 51.2004C35.0826 49.9993 35.8172 48.7898 37.0166 48.4932L50.06 45.3163C51.261 45.0267 52.4705 45.7613 52.7671 46.9607L54.1542 52.6658L44.8135 57.0509L36.9271 57.5878Z" fill="#84B5CB"/>
<path d="M49.0306 40.9785L35.9827 44.1599C34.7817 44.4528 34.0455 45.6638 34.3383 46.8648C34.6312 48.0658 35.8422 48.8021 37.0432 48.5092L50.0911 45.3278C51.2921 45.035 52.0283 43.824 51.7355 42.6229C51.4427 41.4219 50.2316 40.6857 49.0306 40.9785Z" fill="#9FC9D3"/>
<path d="M36.0893 25.704L40.4386 24.6435C41.0391 24.4971 41.6446 24.8652 41.791 25.4657L43.1166 30.9023L36.5927 32.493L35.2671 27.0564C35.1207 26.4559 35.4888 25.8504 36.0893 25.704Z" fill="#E57E25"/>
<path d="M33.6272 60.4C33.1777 60.3982 32.7729 60.1274 32.5996 59.7125C32.4264 59.2977 32.5183 58.8194 32.833 58.4983C32.9829 58.3496 36.5033 54.9511 45.3685 55.8628C46.4021 54.4645 49.3889 51.4576 56.0001 51.4576C56.6179 51.4576 57.1188 51.9584 57.1188 52.5762C57.1188 53.194 56.6179 53.6949 56.0001 53.6949C49.0366 53.6949 47.0107 57.4021 46.9279 57.5609C46.7098 57.9757 46.2592 58.2139 45.7936 58.1605C37.6051 57.137 34.4405 60.0622 34.4092 60.0879C34.1987 60.2892 33.9184 60.4011 33.6272 60.4Z" fill="#A56A43"/>
<path d="M54.8813 60.4068C55.4991 60.4068 56 59.906 56 59.2882C56 58.6703 55.4991 58.1695 54.8813 58.1695C54.2635 58.1695 53.7627 58.6703 53.7627 59.2882C53.7627 59.906 54.2635 60.4068 54.8813 60.4068Z" fill="#CF976A"/>
<path d="M41.4575 62.6441C42.0753 62.6441 42.5762 62.1432 42.5762 61.5254C42.5762 60.9076 42.0753 60.4068 41.4575 60.4068C40.8397 60.4068 40.3389 60.9076 40.3389 61.5254C40.3389 62.1432 40.8397 62.6441 41.4575 62.6441Z" fill="#CF976A"/>
<path d="M55.9998 36.9153C56.6176 36.9153 57.1184 36.4144 57.1184 35.7966C57.1184 35.1788 56.6176 34.678 55.9998 34.678C55.3819 34.678 54.8811 35.1788 54.8811 35.7966C54.8811 36.4144 55.3819 36.9153 55.9998 36.9153Z" fill="#CF976A"/>
<path d="M59.356 45.8644C59.9738 45.8644 60.4746 45.3636 60.4746 44.7458C60.4746 44.128 59.9738 43.6271 59.356 43.6271C58.7381 43.6271 58.2373 44.128 58.2373 44.7458C58.2373 45.3636 58.7381 45.8644 59.356 45.8644Z" fill="#CF976A"/>
<path d="M72.7795 61.5254C73.3973 61.5254 73.8982 61.0246 73.8982 60.4068C73.8982 59.789 73.3973 59.2881 72.7795 59.2881C72.1617 59.2881 71.6609 59.789 71.6609 60.4068C71.6609 61.0246 72.1617 61.5254 72.7795 61.5254Z" fill="#CF976A"/>
<path d="M77.2541 53.6949C77.872 53.6949 78.3728 53.1941 78.3728 52.5763C78.3728 51.9585 77.872 51.4576 77.2541 51.4576C76.6363 51.4576 76.1355 51.9585 76.1355 52.5763C76.1355 53.1941 76.6363 53.6949 77.2541 53.6949Z" fill="#CF976A"/>
<path d="M79.4424 23.1559C81.9628 24.3091 84.3781 25.6794 86.661 27.2513C86.9973 27.4826 87.4324 27.5138 87.7982 27.3326C88.164 27.1515 88.403 26.7865 88.4228 26.3788C88.6913 21.365 85.841 16.2315 83.1384 15.0055C80.4357 13.7795 74.7105 15.0156 71.1163 18.5102C70.8156 18.7904 70.6916 19.2121 70.7927 19.6104C70.8938 20.0087 71.2039 20.3202 71.6018 20.4231C74.2896 21.105 76.913 22.0194 79.4424 23.1559Z" fill="#4482C3"/>
<path d="M67.8464 46.0458L78.4387 22.6812L80.4779 23.6057L69.8856 46.9702L67.8464 46.0458Z" fill="#95A5A5"/>
<path d="M85.2816 33.0615C85.0298 33.0613 84.7854 32.9762 84.588 32.8199C82.2707 31.0379 79.772 29.5051 77.1334 28.2469C74.4486 27.0902 71.6491 26.2203 68.7816 25.6516C68.1737 25.5407 67.7707 24.958 67.8816 24.3501C67.9925 23.7422 68.5753 23.3392 69.1832 23.4501C72.2322 24.047 75.2076 24.9723 78.0574 26.2098C80.8656 27.5384 83.5218 29.1669 85.9796 31.067C86.3523 31.3631 86.4968 31.8625 86.3398 32.3119C86.1828 32.7612 85.7587 33.062 85.2827 33.0615H85.2816Z" fill="#ECF0F1"/>
<path d="M82.4145 36.6747C82.1496 36.6749 81.8933 36.5805 81.6918 36.4085C79.7268 34.7954 77.5756 33.4235 75.2842 32.3221C72.9468 31.3235 70.4976 30.6099 67.9896 30.1967C67.5877 30.1455 67.2449 29.8811 67.0934 29.5054C66.9419 29.1297 67.0053 28.7014 67.2593 28.3858C67.5132 28.0702 67.9179 27.9165 68.3173 27.984C71.032 28.4251 73.6822 29.1983 76.2082 30.2862C78.6923 31.4695 81.0216 32.9535 83.1438 34.7048C83.5023 35.0085 83.6328 35.5039 83.4705 35.9448C83.3082 36.3857 82.8877 36.6782 82.4178 36.677L82.4145 36.6747Z" fill="#ECF0F1"/>
<path d="M78.5307 39.8237C78.2263 39.8237 77.9351 39.6997 77.7241 39.4803C76.4717 38.226 75.0236 37.184 73.4364 36.3951C71.798 35.7186 70.0596 35.3157 68.2906 35.2026C67.6728 35.189 67.183 34.6772 67.1966 34.0594C67.2102 33.4415 67.722 32.9517 68.3398 32.9653H68.3913C70.4444 33.0908 72.4618 33.5605 74.3592 34.3547C76.2068 35.2586 77.8892 36.4668 79.3361 37.9287C79.6461 38.2521 79.7333 38.7293 79.5577 39.1414C79.382 39.5535 78.9775 39.8211 78.5295 39.8215L78.5307 39.8237Z" fill="#ECF0F1"/>
<path d="M80.2722 19.734C80.89 19.734 81.3909 19.2332 81.3909 18.6154C81.3909 17.9975 80.89 17.4967 80.2722 17.4967C79.6544 17.4967 79.1536 17.9975 79.1536 18.6154C79.1536 19.2332 79.6544 19.734 80.2722 19.734Z" fill="#393F4A"/>
<path d="M71.6608 49.2203C71.3642 49.2203 71.0797 49.1024 70.8699 48.8926C69.3038 47.3265 66.0676 46.983 64.949 46.983C64.3312 46.983 63.8303 46.4822 63.8303 45.8644C63.8303 45.2466 64.3312 44.7458 64.949 44.7458C65.1514 44.7458 69.9157 44.7748 72.4517 47.3108C72.7715 47.6307 72.8672 48.1118 72.6941 48.5297C72.521 48.9477 72.1132 49.2202 71.6608 49.2203Z" fill="#A56A43"/>
<path d="M63.8303 57.0509C65.0659 57.0509 66.0676 56.0492 66.0676 54.8136C66.0676 53.5779 65.0659 52.5763 63.8303 52.5763C62.5947 52.5763 61.593 53.5779 61.593 54.8136C61.593 56.0492 62.5947 57.0509 63.8303 57.0509Z" fill="#CF976A"/>
<path d="M32.5083 4.47456H30.271C29.0354 4.47456 28.0337 5.47623 28.0337 6.71185C28.0337 7.94747 29.0354 8.94914 30.271 8.94914H32.5083C33.7439 8.94914 34.7456 7.94747 34.7456 6.71185C34.7456 5.47623 33.7439 4.47456 32.5083 4.47456Z" fill="#464F5D"/>
<path d="M53.7627 16.7797H51.5254C50.2898 16.7797 49.2881 17.7813 49.2881 19.0169C49.2881 20.2526 50.2898 21.2542 51.5254 21.2542H53.7627C54.9983 21.2542 56 20.2526 56 19.0169C56 17.7813 54.9983 16.7797 53.7627 16.7797Z" fill="#464F5D"/>
<path d="M73.8984 4.47456H71.6611C70.4255 4.47456 69.4238 5.47623 69.4238 6.71185C69.4238 7.94747 70.4255 8.94914 71.6611 8.94914H73.8984C75.134 8.94914 76.1357 7.94747 76.1357 6.71185C76.1357 5.47623 75.134 4.47456 73.8984 4.47456Z" fill="#464F5D"/>
</g>
<mask id="mask0" mask-type="alpha" maskUnits="userSpaceOnUse" x="6" y="12" width="104" height="104">
<circle cx="58" cy="64" r="52" fill="#C4C4C4"/>
</mask>
<g mask="url(#mask0)">
<path d="M93.5092 47.3746L84.0935 116H31.4124L21.9968 47.3746H93.5092Z" fill="#415597"/>
<path d="M93.5094 47.3746L84.0937 116H57.7488V47.3746H93.5094Z" fill="#202C52"/>
<path d="M54.3503 69.3193H61.1472V102.547H54.3503V69.3193Z" fill="#E1E4FB"/>
<path d="M73.4965 102.547L75.9754 69.3184H69.16L66.6802 102.547H73.4965Z" fill="#C5C9F7"/>
<path d="M48.8242 102.547L46.3452 69.3184H39.5298L42.0087 102.547H48.8242Z" fill="#E1E4FB"/>
<path d="M14.9531 47.3746H101.14V54.1714H14.9531V47.3746Z" fill="#697DBE"/>
<path d="M57.7488 69.3193H61.1472V102.547H57.7488V69.3193Z" fill="#C5C9F7"/>
<path d="M57.7488 47.3746H101.14V54.1714H57.7488V47.3746Z" fill="#415597"/>
</g>
</g>
<defs>
<clipPath id="clip0">
<rect width="116" height="116" fill="white"/>
</clipPath>
<clipPath id="clip1">
<rect x="23" width="66" height="66" fill="white"/>
</clipPath>
</defs>
</svg>
