<svg width="40" height="40" viewBox="0 0 40 40" fill="none" xmlns="http://www.w3.org/2000/svg">
<g clip-path="url(#clip0)">
<path d="M39.8371 17.0593L33.1421 8.36241C32.8943 8.04076 32.4424 7.96141 32.0997 8.17931L27.7772 10.9283H22.1396C22.0667 10.9283 21.9941 10.9439 21.9239 10.9643L17.5528 12.2226L13.0173 10.982L8.61028 8.17931C8.27336 7.96507 7.82964 8.0377 7.57909 8.34837L0.173995 17.5207C-0.0921179 17.8503 -0.0481726 18.3316 0.272872 18.6078L4.1541 21.9479L7.63616 26.6403C6.61778 27.7252 6.63762 29.4363 7.69719 30.4962C8.16686 30.9656 8.76408 31.2308 9.3784 31.2924C9.35704 31.4316 9.34606 31.5729 9.34606 31.7163C9.34606 32.4567 9.63445 33.1528 10.1578 33.6761C10.6815 34.1998 11.3776 34.4882 12.118 34.4882C12.128 34.4882 12.1378 34.4876 12.1476 34.4873C12.1473 34.5062 12.1463 34.5248 12.1463 34.5438C12.1463 35.2841 12.4347 35.9802 12.9581 36.5039C13.4818 37.0273 14.1779 37.3157 14.9183 37.3157C15.0644 37.3157 15.2091 37.3038 15.351 37.2818C15.4111 37.8982 15.6769 38.4982 16.1481 38.9694C16.6883 39.5099 17.3981 39.78 18.108 39.78C18.8178 39.78 19.5276 39.5099 20.0681 38.9694L20.492 38.5455L20.6699 38.689C21.2058 39.2081 21.9016 39.4675 22.5974 39.4675C23.3072 39.4675 24.0171 39.1974 24.5572 38.6569C25.1087 38.1055 25.3788 37.3776 25.3675 36.6534C26.0914 36.6644 26.8195 36.3946 27.371 35.8435C27.9218 35.2923 28.1919 34.5651 28.1812 33.8412C28.9353 33.8531 29.6506 33.5635 30.1844 33.0298C30.7358 32.4783 31.0059 31.7505 30.9946 31.0263C31.7191 31.0373 32.4466 30.7675 32.9981 30.2161C33.9393 29.2749 34.0604 27.8201 33.3625 26.7462L35.9049 21.4215L39.7272 18.1323C40.0431 17.8604 40.0913 17.3892 39.8371 17.0593ZM8.35942 9.87883L11.5284 11.8939L4.63475 20.2923L1.8723 17.9147L8.35942 9.87883ZM8.8065 27.6852L9.76293 26.7288C9.79192 26.6998 9.82243 26.6724 9.85356 26.6467C10.0406 26.4941 10.2671 26.4032 10.5069 26.3815C10.5137 26.3809 10.5207 26.3809 10.5274 26.3806C10.5616 26.3779 10.5958 26.376 10.6302 26.3763C10.958 26.3809 11.2626 26.5149 11.4884 26.7532C11.9315 27.2217 11.9077 27.987 11.4353 28.4595L10.5079 29.3869C10.0388 29.8559 9.27556 29.8559 8.8065 29.3869C8.33745 28.9175 8.33745 28.1543 8.8065 27.6852ZM11.2671 32.5668C11.0398 32.3398 10.9147 32.0376 10.9147 31.7163C10.9147 31.3949 11.0398 31.0928 11.2671 30.8655L13.1217 29.0109C13.4769 28.6557 14.0354 28.5583 14.4895 28.7747C14.9576 28.9978 15.221 29.5059 15.1523 30.0171C15.1157 30.2899 14.9888 30.5469 14.7941 30.7419L12.9688 32.5668C12.7414 32.7942 12.4393 32.9193 12.118 32.9193C11.7966 32.9193 11.4945 32.7942 11.2671 32.5668ZM14.0674 35.3943C13.8401 35.1672 13.715 34.8651 13.715 34.5438C13.715 34.2224 13.8401 33.9203 14.0674 33.6929L15.9217 31.8384C16.3016 31.4587 16.9111 31.3769 17.3761 31.6476C17.801 31.8948 18.0234 32.3801 17.9505 32.8635C17.9105 33.1293 17.7842 33.3792 17.594 33.5693L15.7691 35.3943C15.5417 35.6216 15.2396 35.7468 14.9183 35.7468C14.5969 35.7468 14.2948 35.6216 14.0674 35.3943ZM17.2571 37.8601C16.7881 37.391 16.7881 36.6278 17.2571 36.1587L18.2136 35.2023C18.2425 35.1733 18.2728 35.1462 18.3039 35.1205C18.3048 35.1199 18.3054 35.1193 18.306 35.1187C18.4617 34.9924 18.6445 34.9078 18.8395 34.8709C18.844 34.8703 18.8486 34.8697 18.8532 34.8691C18.8868 34.863 18.9209 34.8581 18.9551 34.855C18.9689 34.8538 18.9826 34.8538 18.9966 34.8529C19.0247 34.8514 19.0525 34.8495 19.0809 34.8498C19.4083 34.8544 19.7132 34.9881 19.939 35.2267C19.9668 35.256 19.9927 35.2866 20.0165 35.318C20.3772 35.7895 20.3287 36.4899 19.881 36.9379L18.9585 37.8604C18.4894 38.3295 17.7262 38.3292 17.2571 37.8601ZM31.8888 29.1067C31.4197 29.5761 30.6565 29.5758 30.1874 29.1067C30.1703 29.0897 30.1523 29.0738 30.134 29.0588L25.0907 23.9624C24.7858 23.6545 24.2893 23.652 23.9814 23.9569C23.6735 24.2615 23.671 24.758 23.9756 25.0659L29.0735 30.217C29.0741 30.2176 29.0748 30.2182 29.0754 30.2188C29.5444 30.6879 29.5444 31.4514 29.0754 31.9205C28.848 32.1478 28.5459 32.2729 28.2245 32.2729C27.9029 32.2729 27.6008 32.1478 27.3737 31.9205L23.9634 28.4747C23.6588 28.1668 23.1623 28.1644 22.8544 28.4689C22.5464 28.7738 22.544 29.2703 22.8486 29.5782L26.2067 32.9712C26.2238 32.9925 26.2421 33.013 26.2616 33.0325C26.7307 33.5016 26.7307 34.2651 26.2616 34.7342C25.7923 35.2032 25.0287 35.2029 24.5597 34.7339L22.6984 32.8531C22.3935 32.5452 21.897 32.5424 21.5891 32.8473C21.2812 33.1518 21.2787 33.6484 21.5833 33.9563L23.3927 35.7843C23.4098 35.8057 23.4281 35.8264 23.4479 35.8459C23.917 36.315 23.917 37.0785 23.4479 37.5476C22.9789 38.017 22.2156 38.0167 21.7466 37.5476C21.6926 37.4936 21.6291 37.4521 21.5687 37.4057C21.5174 37.3666 21.504 37.3395 21.5296 37.2772C21.5555 37.214 21.5943 37.157 21.6202 37.0935C21.6489 37.0227 21.6721 36.9498 21.6947 36.8765C21.8149 36.4889 21.8503 36.0721 21.7963 35.6699C21.6926 34.8981 21.2681 34.2017 20.6247 33.761C20.2771 33.5232 19.8749 33.3673 19.4581 33.3087C19.6601 32.4176 19.4175 31.4514 18.7864 30.7846C18.267 30.2359 17.5654 29.928 16.8107 29.9176C16.7832 29.9173 16.7557 29.9173 16.728 29.9176C16.7447 29.1974 16.4829 28.4817 15.9864 27.9571C15.4667 27.4084 14.7651 27.1005 14.0107 27.0901C13.7864 27.0871 13.5599 27.1109 13.3414 27.1612C13.248 26.5115 12.9206 25.9103 12.4247 25.4803C11.9318 25.0537 11.312 24.8169 10.6519 24.8077C9.95702 24.7977 9.27434 25.054 8.75829 25.52L5.72636 21.4346L12.9798 12.5979L15.2915 13.2303L12.2724 18.5577C11.9074 19.202 11.8152 19.9496 12.0127 20.6631C12.2101 21.3769 12.6734 21.9708 13.3176 22.3358C13.3579 22.3587 13.3985 22.3804 13.4397 22.4011C13.4427 22.4026 13.4458 22.4042 13.4491 22.4057C13.5575 22.4597 13.6689 22.5061 13.7818 22.5452C14.3076 22.7273 14.8755 22.7472 15.4233 22.5958C16.1368 22.3984 16.7307 21.9348 17.0957 21.2909L19.0577 17.8287L22.5608 18.0771L31.8891 27.4051C32.3578 27.8744 32.3578 28.6377 31.8888 29.1067ZM32.2138 25.5115L23.4629 16.7608C23.4464 16.7441 23.429 16.7282 23.411 16.7132C23.285 16.6083 23.1287 16.5448 22.9639 16.5332L18.6747 16.2289C18.378 16.2085 18.0832 16.3663 17.9368 16.6247L15.7309 20.5176C15.5726 20.7971 15.3147 20.9982 15.0049 21.084C14.6955 21.1697 14.3708 21.1294 14.0909 20.9711C13.8114 20.8127 13.6103 20.5548 13.5245 20.245C13.4388 19.9353 13.4787 19.6106 13.6374 19.331L16.5821 14.1342L17.7753 13.7909C17.7833 13.7884 17.7909 13.7854 17.7988 13.7829L22.2522 12.4969H27.6331L34.3506 21.0364L32.2138 25.5115ZM35.3782 19.8053L29.166 11.904L32.3365 9.88768L38.1412 17.4277L35.3782 19.8053Z" fill="#DCBC5A"/>
<path d="M24.2325 9.45575C24.4334 9.45575 24.6342 9.37915 24.7874 9.22595L30.145 3.86829C30.4514 3.56189 30.4514 3.06537 30.145 2.75897C29.8386 2.45258 29.3421 2.45258 29.0357 2.75897L23.678 8.11664C23.3716 8.42304 23.3716 8.91956 23.678 9.22595C23.8312 9.37915 24.032 9.45575 24.2325 9.45575Z" fill="#DCBC5A"/>
<path d="M15.2115 9.22595C15.3647 9.37915 15.5655 9.45575 15.7663 9.45575C15.9668 9.45575 16.1676 9.37915 16.3208 9.22595C16.6272 8.91956 16.6272 8.42304 16.3208 8.11664L10.9631 2.75897C10.6567 2.45258 10.1602 2.45258 9.85382 2.75897C9.54742 3.06537 9.54742 3.56189 9.85382 3.86829L15.2115 9.22595Z" fill="#DCBC5A"/>
<path d="M20.0001 9.45563C20.4331 9.45563 20.7844 9.10437 20.7844 8.67133V4.23743C20.7844 3.80438 20.4331 3.45312 20.0001 3.45312C19.5671 3.45312 19.2158 3.80438 19.2158 4.23743V8.67133C19.2158 9.10437 19.5671 9.45563 20.0001 9.45563Z" fill="#DCBC5A"/>
<path d="M19.2762 1.39465C19.4007 1.69647 19.7111 1.89452 20.0385 1.87743C20.362 1.86065 20.6461 1.64214 20.7462 1.33422C20.8466 1.02386 20.7374 0.670159 20.4774 0.472405C20.2122 0.270379 19.8423 0.259087 19.5649 0.442498C19.2555 0.646966 19.1355 1.05407 19.2762 1.39465Z" fill="#DCBC5A"/>
</g>
<defs>
<clipPath id="clip0">
<rect width="40" height="40" fill="white"/>
</clipPath>
</defs>
</svg>
