<svg width="40" height="40" viewBox="0 0 40 40" fill="none" xmlns="http://www.w3.org/2000/svg">
<g clip-path="url(#clip0)">
<path d="M39.8282 13.3154L33.4651 4.48519C33.294 4.24771 33.019 4.10693 32.7263 4.10693H7.27375C6.98099 4.10693 6.70617 4.24762 6.53498 4.48519L0.171847 13.3154C-0.0279372 13.5927 -0.0557103 13.9586 0.100001 14.2627C0.136789 14.3346 0.182956 14.3996 0.23568 14.4579L19.3429 35.5932C19.5156 35.7841 19.761 35.893 20.0184 35.893C20.2758 35.893 20.5212 35.784 20.6939 35.5932L39.7798 14.4387C39.8256 14.3852 39.867 14.3271 39.8999 14.2627C40.0557 13.9585 40.028 13.5926 39.8282 13.3154ZM37.3109 12.9371H28.1417L32.7263 6.5751L37.3109 12.9371ZM25.139 14.7583L20.0159 31.8239L14.863 14.7583H25.139ZM15.4155 12.9371L20 6.5751L24.5846 12.9371H15.4155ZM21.7786 5.92812H30.9477L26.3632 12.2903L21.7786 5.92812ZM13.6369 12.2902L9.05232 5.92812H18.2215L13.6369 12.2902ZM12.9607 14.7583L17.9747 31.3641L2.96145 14.7583H12.9607ZM27.0405 14.7583H37.0754L22.052 31.3753L27.0405 14.7583ZM7.27375 6.5751L11.8583 12.9371H2.68918L7.27375 6.5751Z" fill="#DCBC5A"/>
</g>
<defs>
<clipPath id="clip0">
<rect width="40" height="40" fill="white"/>
</clipPath>
</defs>
</svg>
