<svg width="40" height="40" viewBox="0 0 40 40" fill="none" xmlns="http://www.w3.org/2000/svg">
<path d="M34 4H32V1C32 0.447344 31.5527 0 31 0C30.4473 0 30 0.447344 30 1V4H10V1C10 0.447344 9.55266 0 9 0C8.44734 0 8 0.447344 8 1V4H6C2.69133 4 0 6.69133 0 10V34C0 37.3087 2.69133 40 6 40H34C37.3087 40 40 37.3087 40 34V10C40 6.69133 37.3087 4 34 4ZM38 34C38 36.2093 36.2093 38 34 38H6C3.7907 38 2 36.2093 2 34V16H38V34ZM38 14H2V10C2 7.7907 3.7907 6 6 6H8V9C8 9.55266 8.44734 10 9 10C9.55266 10 10 9.55266 10 9V6H30V9C30 9.55266 30.4473 10 31 10C31.5527 10 32 9.55266 32 9V6H34C36.2093 6 38 7.7907 38 10V14Z" fill="#DCBC5A"/>
</svg>
