<svg xmlns="http://www.w3.org/2000/svg" width="32" height="30" viewBox="0 0 32 30">
    <path fill="#0A0A0A" fill-rule="evenodd" d="M23.562 11.33c-.703.034-1.396.193-2.1.227-1.688.083-3.39.09-5.079.127-1.756.038-3.5-.084-5.253-.139-1.723-.054-3.442.135-5.147.38-.297.043-.298.567 0 .61 1.611.23 3.2.067 4.82.159 1.694.096 3.374.303 5.075.29 1.578-.013 3.155-.086 4.734-.093.845-.003 1.67-.066 2.507-.183.19-.027.379-.051.573-.056.07-.001.143.007.214.002.073.042.156.067.237.067.265.002.436-.116.593-.327.13-.174.1-.456 0-.633-.241-.426-.741-.452-1.174-.43zm-.069-4.614c-.75.037-1.502.09-2.253.121-1.722.073-3.457.127-5.18.13-1.663.002-3.324.04-4.987.04-1.645 0-3.362-.176-4.98.199-.302.07-.3.545 0 .617 1.51.357 3.115.362 4.659.407 1.555.044 3.113.053 4.669.056 1.584.002 3.163-.071 4.746-.1.785-.014 1.56-.053 2.343-.095.258-.013 1.375-.171 1.547-.042.52.39 1.107-.348.836-.847-.282-.519-.888-.512-1.4-.486zm-4.598 8.692c-.79.14-1.623.064-2.423.069-1.161.006-2.321.013-3.482.035-1.128.021-2.256.039-3.384.05-1.078.01-2.101-.108-3.164.124-.244.053-.244.446 0 .498 2.248.492 4.466.585 6.76.627 1.152.021 2.304.027 3.457.032.872.005 1.74.054 2.602-.09.87-.144.506-1.498-.366-1.345zm11.716-4.638c-.103 1.862.007 3.728-.117 5.588-.112 1.674-.664 3.338-1.946 4.463-.683.599-1.461.987-2.337 1.203-.873.214-1.786.141-2.63.437-.058.02-.106.048-.149.083-.004-.003-.008-.007-.014-.01-.448-.2-1.068.244-.74.75-.118-.181-.007.041.001.177.01.158.006.318 0 .476-.008.3-.02.593-.096.884-.242.924-.94 1.661-1.684 2.211-1.224.905-2.628 1.525-4.11 1.725.202-.177.407-.355.597-.547.488-.497.87-1.115 1.102-1.778.374-.224.654-.602.936-.927.343-.391.685-.784 1.046-1.158.192-.198-.106-.501-.3-.305-.364.372-.709.762-1.054 1.151-.14.157-.294.315-.44.479.069-.482.042-.953-.061-1.407.18-.117.276-.443.386-.604.206-.303.437-.586.637-.893.125-.19-.171-.36-.299-.177-.23.329-.498.628-.726.959-.045.062-.1.134-.147.21-.09-.252-.2-.498-.33-.737.125-.144.235-.309.327-.414.306-.352.624-.687.987-.98.157-.127-.054-.41-.219-.286-.37.279-.702.597-1.019.934-.083.088-.21.197-.33.316l-.079-.12c.023-.11.022-.222 0-.33.032-.013.063-.03.088-.053.45-.408.929-.822 1.265-1.333.14-.212-.19-.397-.333-.197-.341.478-.837.792-1.24 1.208-.107-.087-.248-.137-.427-.13-.105.004-.21.005-.316.009.611-.553 1.27-1.18 1.64-1.907.105-.208-.198-.39-.311-.184-.44.802-1.23 1.294-1.825 1.96-.047.043-.067.092-.068.14-1.356.007-2.713-.077-4.068-.144.072-.101.14-.208.2-.316.158-.284.142-.248.404-.462.465-.38 1.148-.934 1.195-1.591.015-.228-.324-.22-.347 0-.04.371-.453.71-.712.94-.234.21-.61.385-.798.634-.108.145-.202.361-.3.522-.04.066-.098.158-.121.25l-.756-.03c.49-.665 1.205-1.15 1.528-1.933.074-.18-.232-.313-.313-.134-.373.829-1.248 1.227-1.707 1.995-.012.02-.019.04-.024.059-.39-.01-.779-.013-1.167-.007.06-.054.104-.126.145-.22.018-.043.007-.102-.024-.138.43-.595 1.106-.988 1.4-1.688.08-.189-.19-.356-.277-.164-.376.832-1.36 1.145-1.713 1.992-.034.08-.025.164.012.228-.066.002-.134.003-.2.006-1.013.039-2.154.08-3.216-.122.51-.788 1.295-1.436 1.728-2.28.092-.177-.168-.334-.265-.157-.35.635-.946 1.118-1.41 1.663-.104.12-.388.422-.47.681-.433-.112-.848-.273-1.228-.5l.01-.025c.916-.937 1.785-1.934 2.541-3.004.125-.175-.16-.339-.283-.168-.786 1.079-1.73 1.988-2.659 2.931-.112-.087-.22-.18-.325-.283-.063-.061-.123-.126-.18-.192.544-.924 1.5-1.57 2.1-2.466.105-.159-.143-.3-.25-.148-.606.85-1.529 1.434-2.121 2.272-.164-.234-.3-.483-.414-.742.063-.07.12-.15.181-.226.256-.32.507-.645.764-.967.442-.547.888-1.226 1.456-1.65.15-.112.01-.368-.148-.258-.59.412-1.068 1.053-1.54 1.588-.285.322-.57.642-.845.972-.016.02-.034.039-.05.06-.115-.35-.196-.714-.254-1.083.525-1.029 1.58-1.737 2.223-2.681.106-.158-.143-.3-.25-.149-.183.256-1.428 1.412-2.045 2.272-.045-.43-.084-.862-.118-1.296.027-.05.056-.1.088-.147.217-.323.465-.622.713-.92.42-.504.847-1.004 1.113-1.613.074-.17-.17-.32-.25-.148-.332.702-.878 1.234-1.38 1.808-.1.112-.216.24-.333.378-.023-.347-.043-.693-.061-1.04.053-.106.106-.212.168-.307.242-.369.525-.708.822-1.031.53-.58 1.113-1.106 1.658-1.67.108-.11-.057-.277-.168-.17-.626.607-1.293 1.169-1.892 1.803-.164.174-.402.412-.617.676-.004-.14-.012-.279-.017-.417l-.016-.595c.408-.286.706-.901.991-1.278.44-.58.924-1.103 1.54-1.494.156-.099.016-.344-.144-.25-.608.353-1.11.827-1.567 1.365-.237.278-.584.62-.84.979l-.038-1.293c.077-.142.149-.286.258-.414.17-.2.374-.364.554-.554.538-.57.912-1.3 1.598-1.708.13-.079.014-.276-.118-.205-.753.403-1.203 1.17-1.817 1.742-.151.14-.334.297-.496.47l-.031-.801c.325-.384.594-.857.893-1.237.405-.517.823-1.015 1.272-1.491.12-.127-.066-.315-.19-.192-.506.497-1.008 1.002-1.46 1.551-.173.21-.368.428-.55.656l-.03-.486c.247-.306.424-.742.57-1.007.384-.7.776-1.466 1.293-2.074.07-.082-.04-.198-.12-.12-.518.5-.9 1.107-1.283 1.715-.174.277-.324.566-.495.844h-.001c-.014-.268-.027-.537-.032-.805.287-.337.514-.76.748-1.121.321-.495.604-1.01.852-1.547.038-.083-.077-.155-.124-.073-.287.517-.624.998-.964 1.48-.16.226-.347.452-.514.688.004-.312.02-.624.052-.934.137-1.35.692-2.497 1.96-3.066.543-.244 1.148-.366 1.763-.442.655.088 1.304.163 1.975.197.953.048 1.905.088 2.86.119 1.873.06 3.748.01 5.622.022 1.89.014 3.778.02 5.668-.029 1.267-.034 2.547-.024 3.81.103 2.448.248 4.915 1.223 5.592 3.858.462 1.793.263 3.673.161 5.498zm1.372-3.503c-.07-1.727-.442-3.448-1.591-4.776-.853-.986-2.05-1.599-3.282-1.946-2.947-.83-6.166-.469-9.18-.457-2.293.008-4.582.039-6.873.115C9.916.24 8.773.2 7.632.233 7.022.25 6.437.287 5.853.36 5.027.256 4.222.273 3.378.481c-1.06.263-2.07.855-2.63 1.834C.09 3.46-.013 4.93 0 6.225c.014 1.603.066 3.207.088 4.81.02 1.587.044 3.163.151 4.746.094 1.377.216 2.801.859 4.044 1.185 2.294 3.635 2.987 6.02 3.037 1.454.032 2.898-.073 4.353-.004 1.895.09 3.786.247 5.684.174.028-.001.054-.003.08-.007.122.35.242.702.325 1.064.172.754.07 1.541-.26 2.237-.55 1.163-1.737 1.725-2.421 2.785-.25.387.082.874.502.885 2.429.069 4.958-.864 6.806-2.458.853-.736 1.508-1.755 1.647-2.895.039-.31.105-.791.064-1.224.699.15 1.419.04 2.129-.082.824-.139 1.635-.406 2.36-.83 1.412-.826 2.417-2.175 2.93-3.73.577-1.748.498-3.653.498-5.47 0-2.011.25-4.03.167-6.04zM8.68 19.265c-.22.536-.777.886-1.182 1.268-.16.15-.5.376-.582.608-.07.12.036.334.224.307.283-.042.556-.5.746-.695.415-.428.913-.815 1.12-1.397.075-.21-.245-.288-.326-.09zm8.389.394c-.523.347-1.126.854-1.386 1.459-.03.045-.051.095-.06.156-.041.278.307.375.413.115.234-.572.723-1.06 1.215-1.415.185-.134.014-.445-.182-.315zm-1.199-.475c-.675.664-1.353 1.324-2.033 1.984-.173.167.008.436.223.388.189-.042.292-.167.365-.336.564-.595 1.129-1.19 1.697-1.782.158-.166-.088-.415-.252-.254z"/>
</svg>
