<svg xmlns="http://www.w3.org/2000/svg" width="22" height="22" viewBox="0 0 22 22">
    <g fill="none" fill-rule="evenodd">
        <path d="M0 0H40V40H0z" transform="translate(-9 -9)"/>
        <path fill="#0A0A0A" fill-rule="nonzero" d="M29.825 9c.468-.013.897.262 1.079.693.182.431.082.93-.254 1.257l-8.853 8.855v.384l8.85 8.852c.3.289.42.712.316 1.11-.103.398-.414.709-.812.812-.398.104-.82-.016-1.105-.312l-8.854-8.857h-.384l-8.85 8.853c-.288.3-.711.42-1.11.316-.397-.103-.708-.414-.811-.812-.104-.398.015-.821.312-1.106l8.854-8.856v-.384l-8.85-8.852c-.334-.325-.436-.816-.263-1.244C9.264 9.28 9.68 9 10.142 9c.306 0 .6.124.813.343l8.853 8.856h.384l8.85-8.853c.167-.172.38-.285.608-.328L29.825 9z" transform="translate(-9 -9)"/>
    </g>
</svg>
