<svg xmlns="http://www.w3.org/2000/svg" width="68" height="62" viewBox="0 0 68 62">
    <g fill="none" fill-rule="evenodd">
        <path fill="#D92525" d="M2.31 9.24c9.247-.697 18.527-.85 27.79-.455 2.16.256 3.803.746 4.926 1.473 1.74 1.124 2.314 2.865 1.717 5.224-.466 1.838-1.58 3.291-3.337 4.364-1.756 1.074-4.178 1.78-7.257 2.115 1.848.444 3.22 1.086 4.116 1.941.901.855 1.356 1.928 1.37 3.22.021 1.002-.103 2.307-.37 3.913-.099.623-.162 1.073-.19 1.338-.059.686-.035 1.15.093 1.38.122.232.362.348.729.348.578 0 1.1-.315 1.56-.938.806-1.082 1.54-4.06 2.175-5.47.407-.905.874-1.774 1.404-2.6 1.197-1.865 2.667-3.476 4.421-4.845 1.545-1.202 3.152-2.115 4.826-2.738 1.669-.624 3.348-.932 5.044-.932.63 0 1.274.07 1.93.219.658.14 1.456.391 2.381.745.266.096.608.244 1.036.43.733.328 1.29.489 1.67.489.347 0 .675-.154.972-.463.296-.308.56-.764.793-1.381h2.088L59.921 27.45l-2.07.078c-.081-2.795-.615-4.904-1.594-6.318-.976-1.42-2.377-2.127-4.21-2.127-2.25 0-4.203 1.041-5.868 3.124-1.665 2.082-3.014 5.174-4.049 9.26-.68 2.687-1.024 4.75-1.036 6.196-.005 1.44.288 2.667.888 3.67.436.764 1.026 1.35 1.78 1.747.753.405 1.628.604 2.63.604 7.808 0 25.765-13.528 19.736-29.051C57.773-6.88 14.88-1.076 2.31 9.239"/>
        <path fill="#0A0A0A" d="M13.779 14.342l-4.345 17.15c-.315 1.246-.73 2.07-1.232 2.455-.511.391-1.474.643-2.902.77l-.497 1.967h14.035l.498-1.966c-1.579-.135-2.54-.399-2.887-.778-.339-.386-.35-1.202-.035-2.449l2.182-8.611h1.69c1.092 0 1.973.102 2.646.308.667.212 1.185.527 1.552.952.754.906.864 2.757.327 5.558-.018.122-.049.296-.09.509-.5 2.609-.503 4.369-.022 5.288.332.617.857 1.08 1.573 1.4.715.323 1.612.484 2.693.484 1.83 0 3.377-.521 4.637-1.562l.175-.15c-.011 1.264.14 2.445.459 3.546.653 2.294 1.965 4.06 3.929 5.32.752.503 1.655.875 2.69 1.126.659.159 1.367.268 2.122.327 3.294.612 8.828-.438 16.606-3.146-3.41 3.786-8.875 6.713-15.15 8.562l-4.666-.01c.233-1.783-.526-2.69-2.276-2.72-1.75-.032-2.505.875-2.266 2.72-4.38-.009-10.825-.046-19.336-.11-.512-.892-1.367-1.584-2.566-2.078-1.198-.494-2.672-.533-4.42-.116-3.812-2.192-6.479-5.112-8.031-9.11-3.126-8.048 2.38-18.137 12.907-25.636z"/>
        <path fill="#D8232A" d="M20.921 13.702l-1.837 7.25h2.121c2.5 0 4.388-.398 5.663-1.195 1.28-.797 2.153-2.109 2.614-3.927.448-1.768.334-3.117-.349-4.05-.678-.924-1.89-1.393-3.631-1.393-1.542 0-2.607.217-3.19.642-.583.424-1.047 1.317-1.39 2.673"/>
        <path fill="#0A0A0A" fill-rule="nonzero" d="M10.185 59.565c3.12 0 4.706-1.755 4.9-5.291h-4.354l-.3 1.859h1.717c-.17.806-.728 1.404-1.911 1.404-1.3 0-1.924-.82-1.924-2.145 0-1.755.845-3.315 2.405-3.315 1.014 0 1.52.455 1.599 1.313h2.652c-.117-2.431-1.963-3.406-4.147-3.406-3.081-.013-5.265 2.314-5.265 5.434 0 2.678 1.794 4.147 4.628 4.147zm7.28 0c1 0 1.599-.455 2.015-1.001-.013.273-.013.559.039.845h2.249c-.078-.572-.04-1.235.104-2.12l.299-1.884c.325-2.028-.754-2.977-2.938-2.977-1.73 0-2.938.78-3.276 2.444h2.184c.104-.442.364-.806.988-.806.74 0 .884.416.78 1.053l-.026.182h-1.001c-2.197 0-3.575.598-3.575 2.379 0 1.196.923 1.885 2.158 1.885zm.923-1.56c-.507 0-.767-.286-.767-.637 0-.56.39-.754 1.326-.754h.728l-.065.416c-.091.598-.585.975-1.222.975zm6.812 1.404l.61-3.887c.13-.767.56-1.21 1.197-1.21.559 0 .819.365.702 1.119l-.624 3.978h2.3l.612-3.887c.13-.793.598-1.21 1.196-1.21.572 0 .819.365.702 1.132l-.624 3.965h2.327l.663-4.264c.299-1.872-.585-2.717-1.885-2.717-.871 0-1.638.35-2.314 1.26-.234-.831-.845-1.26-1.742-1.26-1.014 0-1.82.598-2.275 1.3.052-.416.065-.78.065-1.118h-2.275c-.026.61-.091 1.248-.247 2.223l-.715 4.576H25.2zm12.285-7.462c.715 0 1.26-.507 1.26-1.196 0-.676-.532-1.183-1.247-1.183-.728 0-1.261.52-1.261 1.196 0 .689.52 1.183 1.248 1.183zm-.17 7.462l1.067-6.8h-2.314l-1.08 6.8h2.328zm3.77 0l.599-3.757c.13-.884.624-1.34 1.352-1.34.637 0 .897.378.767 1.17l-.611 3.927h2.327l.65-4.095c.325-2.054-.637-2.886-1.924-2.886-1.105 0-1.833.572-2.314 1.339.052-.403.065-.82.065-1.157H39.72c-.026.61-.091 1.248-.247 2.223l-.715 4.576h2.327zm9.049 2.522c2.379 0 3.406-.95 3.718-2.912l1.014-6.41h-2.327l-.156.937c-.325-.702-.975-1.118-2.028-1.118-1.937 0-3.315 1.56-3.315 3.783 0 1.872 1.092 2.86 2.6 2.86.936 0 1.599-.351 2.04-1.04l-.155.975c-.117.74-.455 1.287-1.456 1.287-.82 0-1.131-.455-1.196-.884h-2.314c.078 1.352 1.066 2.522 3.575 2.522zm.39-4.55c-.728 0-1.08-.546-1.08-1.326 0-.962.508-1.911 1.509-1.911.715 0 1.157.507 1.157 1.248 0 1.144-.611 1.989-1.586 1.989z"/>
    </g>
</svg>
