<svg width="186" height="40" viewBox="0 0 186 40" fill="none" xmlns="http://www.w3.org/2000/svg">
<path d="M30.9057 15.9638C30.9057 17.3478 30.7338 18.6749 30.3709 19.9641C30.0081 21.2533 29.4924 22.4477 28.843 23.5852C28.1746 24.7037 27.3915 25.7275 26.4557 26.6375C25.5198 27.5665 24.4885 28.3628 23.3616 29.0074C22.2348 29.6709 21.0125 30.1638 19.7137 30.543C18.415 30.9032 17.059 31.0928 15.6648 31.0928C14.2705 31.0928 12.9336 30.9032 11.6349 30.543C10.3362 30.1828 9.13294 29.6709 7.987 29.0074C6.84107 28.3438 5.82882 27.5665 4.91207 26.6565C3.97623 25.7465 3.17407 24.7227 2.52471 23.6041C1.85625 22.4856 1.35968 21.2722 0.977697 19.983C0.614817 18.6938 0.423828 17.3478 0.423828 15.9638C0.423828 14.5798 0.614817 13.2527 0.977697 11.9635C1.34058 10.6743 1.85625 9.4799 2.52471 8.34238C3.17407 7.22382 3.97623 6.20005 4.91207 5.27107C5.82882 4.36106 6.86016 3.56479 7.987 2.9202C9.11384 2.2756 10.3362 1.76372 11.6349 1.38454C12.9145 1.02433 14.2705 0.83474 15.6648 0.83474C17.059 0.83474 18.415 1.02433 19.7137 1.38454C21.0125 1.74476 22.2157 2.25664 23.3616 2.9202C24.4885 3.58375 25.5198 4.36106 26.4557 5.27107C27.3915 6.20005 28.1746 7.22382 28.843 8.34238C29.4924 9.46094 30.0081 10.6743 30.3709 11.9635L30.9057 15.9638ZM26.1119 15.9638C26.1119 14.5419 25.8445 13.2148 25.2906 11.9445C24.7368 10.6933 23.9728 9.59366 23.037 8.64572C22.082 7.71675 20.9934 6.9584 19.7328 6.4086C18.4532 5.87775 17.0972 5.59337 15.6648 5.59337C14.2323 5.59337 12.8954 5.85879 11.6349 6.4086C10.3553 6.9584 9.24753 7.71675 8.31168 8.64572C7.35674 9.59366 6.59278 10.6933 6.05801 11.9445C5.50414 13.1958 5.21766 14.5419 5.21766 15.9638C5.21766 17.3857 5.50414 18.7317 6.05801 19.983C6.61188 21.2343 7.35674 22.3339 8.31168 23.2818C9.26663 24.2298 10.3744 24.9502 11.6349 25.5C12.8954 26.0498 14.2323 26.3342 15.6648 26.3342C17.0972 26.3342 18.4532 26.0498 19.7328 25.5C20.9934 24.9692 22.1011 24.2298 23.037 23.2818C23.9919 22.3529 24.7368 21.2533 25.2906 19.983L26.1119 15.9638Z" fill="white"/>
<path d="M105.525 28.3059C105.525 28.723 105.449 29.1022 105.315 29.4055C105.181 29.7278 104.99 29.9932 104.761 30.2018C104.532 30.4293 104.265 30.581 103.978 30.6758C103.673 30.7705 103.386 30.8274 103.081 30.8274C102.565 30.8274 102.087 30.6758 101.648 30.3535C101.19 30.0501 100.903 29.5761 100.77 28.9505C99.891 29.5761 98.9361 30.0312 97.9047 30.3535C96.8734 30.6758 95.7848 30.8274 94.6388 30.8274C93.6457 30.8274 92.6716 30.6947 91.7549 30.4483C90.8381 30.1828 89.9787 29.8226 89.1574 29.3676C88.3553 28.9126 87.6104 28.3438 86.9611 27.6803C86.2926 27.0167 85.7196 26.2963 85.2422 25.5C84.7647 24.7038 84.3827 23.8506 84.1344 22.9216C83.867 22.0116 83.7524 21.0447 83.7524 20.0589C83.7524 18.5611 84.0389 17.1582 84.6119 15.8501C85.1849 14.5419 85.9679 13.3854 86.942 12.4185C87.9351 11.4516 89.081 10.6933 90.3989 10.1245C91.7167 9.55577 93.13 9.27139 94.6197 9.27139C96.1094 9.27139 97.5228 9.55577 98.8406 10.1245C100.158 10.6933 101.323 11.4516 102.297 12.4185C103.291 13.4044 104.055 14.5419 104.628 15.8501C105.201 17.1582 105.487 18.5611 105.487 20.0589V28.3059H105.525ZM100.693 20.0778C100.693 19.2626 100.54 18.4664 100.235 17.7459C99.9101 17.0065 99.4709 16.3619 98.9361 15.8121C98.3822 15.2623 97.752 14.8263 97.0071 14.504C96.2622 14.2006 95.4792 14.049 94.6579 14.049C93.8176 14.049 93.0154 14.2006 92.2897 14.504C91.5448 14.8263 90.9145 15.2623 90.3607 15.8121C89.8068 16.3619 89.3675 17.0065 89.0428 17.7459C88.7182 18.4853 88.5654 19.2626 88.5654 20.0778C88.5654 20.8931 88.7182 21.6704 89.0428 22.3908C89.3675 23.1302 89.8068 23.7558 90.3607 24.3056C90.9145 24.8554 91.5448 25.2915 92.2897 25.5948C93.0345 25.9171 93.8176 26.0688 94.6579 26.0688C95.4792 26.0688 96.2813 25.9171 97.0071 25.5948C97.7329 25.2915 98.3822 24.8554 98.9361 24.3056C99.49 23.7558 99.9101 23.1302 100.235 22.3908L100.693 20.0778Z" fill="white"/>
<path d="M132.894 11.4327C132.894 11.8308 132.798 12.21 132.626 12.5892L125.254 29.8037C125.063 30.2587 124.758 30.581 124.357 30.8085C123.956 31.036 123.535 31.1308 123.077 31.1308C122.619 31.1308 122.198 31.017 121.797 30.8085C121.377 30.581 121.072 30.2587 120.881 29.8037L113.508 12.5892C113.356 12.191 113.279 11.8119 113.279 11.4327C113.279 11.0914 113.356 10.7691 113.489 10.4848C113.623 10.2004 113.795 9.95392 114.043 9.72641C114.272 9.51787 114.521 9.3662 114.826 9.25245C115.113 9.13869 115.418 9.08182 115.724 9.08182C116.144 9.08182 116.545 9.21453 116.946 9.46099C117.347 9.72641 117.672 10.1245 117.901 10.6933L123.096 22.9027L128.272 10.6933C128.501 10.1245 128.826 9.72641 129.227 9.47995C129.628 9.23349 130.048 9.11974 130.487 9.11974C130.793 9.11974 131.079 9.17661 131.385 9.29036C131.672 9.40411 131.939 9.55578 132.168 9.74537C132.397 9.95392 132.569 10.2004 132.722 10.4848L132.894 11.4327Z" fill="white"/>
<path d="M156.92 28.6092C156.92 28.9315 156.863 29.2348 156.729 29.5192C156.596 29.8036 156.424 30.0501 156.194 30.2586C155.965 30.4861 155.717 30.6378 155.43 30.7705C155.144 30.9032 154.838 30.9601 154.514 30.9601C154.208 30.9601 153.903 30.9032 153.597 30.7705C153.291 30.6568 152.986 30.4482 152.68 30.1638L145.614 23.1681V28.4575C145.614 28.8746 145.556 29.2538 145.423 29.5571C145.289 29.8794 145.098 30.1449 144.869 30.3534C144.64 30.5809 144.391 30.7326 144.105 30.8274C143.818 30.9222 143.532 30.979 143.226 30.979C142.921 30.979 142.634 30.9222 142.348 30.8274C142.042 30.7326 141.794 30.562 141.565 30.3534C141.335 30.1449 141.164 29.8794 141.03 29.5571C140.896 29.2538 140.82 28.8746 140.82 28.4575V3.48895C140.82 3.07186 140.896 2.69269 141.03 2.37039C141.164 2.04809 141.335 1.78267 141.565 1.55516C141.794 1.34662 142.042 1.19495 142.348 1.0812C142.634 0.986404 142.921 0.929527 143.226 0.929527C143.532 0.929527 143.818 0.986404 144.105 1.0812C144.391 1.19495 144.64 1.36558 144.869 1.55516C145.098 1.78267 145.27 2.04809 145.423 2.37039C145.556 2.69269 145.614 3.07186 145.614 3.48895V16.0775L151.687 10.1055C151.993 9.80219 152.298 9.59365 152.604 9.46094C152.909 9.32823 153.215 9.27135 153.521 9.27135C153.845 9.27135 154.151 9.32823 154.437 9.46094C154.724 9.59365 154.972 9.76428 155.201 9.99178C155.43 10.2193 155.602 10.4657 155.736 10.7501C155.87 11.0345 155.927 11.3378 155.927 11.6601C155.927 11.9635 155.87 12.2668 155.736 12.5702C155.602 12.8735 155.392 13.1768 155.087 13.4802L148.86 19.6418L156.08 26.7702C156.385 27.0736 156.596 27.3769 156.729 27.6802L156.92 28.6092Z" fill="white"/>
<path d="M185.454 28.3059C185.454 28.723 185.378 29.1022 185.244 29.4055C185.111 29.7278 184.92 29.9932 184.69 30.2018C184.461 30.4293 184.194 30.581 183.907 30.6758C183.602 30.7705 183.315 30.8274 183.01 30.8274C182.494 30.8274 182.017 30.6758 181.577 30.3535C181.119 30.0501 180.832 29.5761 180.699 28.9505C179.82 29.5761 178.865 30.0312 177.834 30.3535C176.803 30.6758 175.714 30.8274 174.568 30.8274C173.575 30.8274 172.601 30.6947 171.684 30.4483C170.767 30.1828 169.908 29.8226 169.087 29.3676C168.284 28.9126 167.54 28.3438 166.89 27.6803C166.222 27.0167 165.649 26.2963 165.171 25.5C164.694 24.7038 164.312 23.8506 164.064 22.9216C163.796 22.0116 163.682 21.0447 163.682 20.0589C163.682 18.5611 163.968 17.1582 164.541 15.8501C165.114 14.5419 165.897 13.3854 166.871 12.4185C167.864 11.4516 169.01 10.6933 170.328 10.1245C171.646 9.55577 173.059 9.27139 174.549 9.27139C176.039 9.27139 177.452 9.55577 178.77 10.1245C180.088 10.6933 181.253 11.4516 182.227 12.4185C183.22 13.4044 183.984 14.5419 184.557 15.8501C185.13 17.1582 185.416 18.5611 185.416 20.0589V28.3059H185.454ZM180.641 20.0778C180.641 19.2626 180.489 18.4664 180.183 17.7459C179.858 17.0065 179.419 16.3619 178.884 15.8121C178.33 15.2623 177.7 14.8263 176.955 14.504C176.211 14.2006 175.427 14.049 174.606 14.049C173.766 14.049 172.964 14.2006 172.238 14.504C171.493 14.8263 170.863 15.2623 170.309 15.8121C169.755 16.3619 169.316 17.0065 168.991 17.7459C168.666 18.4853 168.514 19.2626 168.514 20.0778C168.514 20.8931 168.666 21.6704 168.991 22.3908C169.316 23.1302 169.755 23.7558 170.309 24.3056C170.863 24.8554 171.493 25.2915 172.238 25.5948C172.983 25.9171 173.766 26.0688 174.606 26.0688C175.427 26.0688 176.23 25.9171 176.955 25.5948C177.681 25.2915 178.33 24.8554 178.884 24.3056C179.438 23.7558 179.858 23.1302 180.183 22.3908L180.641 20.0778Z" fill="white"/>
<path d="M60.4896 20.0778C60.4896 21.0636 60.3559 22.0305 60.1076 22.9405C59.8402 23.8506 59.4773 24.7037 59.019 25.5189C58.5415 26.3152 57.9685 27.0546 57.3 27.6992C56.6316 28.3627 55.8867 28.9125 55.0846 29.3865C54.2824 29.8415 53.423 30.2017 52.4871 30.4671C51.5704 30.7326 50.5963 30.8463 49.6032 30.8463C48.61 30.8463 47.636 30.7136 46.7192 30.4671C45.8025 30.2017 44.943 29.8415 44.1218 29.3865C43.3196 28.9315 42.5748 28.3627 41.9254 27.6992C41.257 27.0356 40.684 26.3152 40.2065 25.5189C39.729 24.7227 39.3471 23.8695 39.0988 22.9405C38.8314 22.0305 38.7168 21.0636 38.7168 20.0778V3.48895C38.7168 3.07186 38.7932 2.69268 38.9269 2.37039C39.0606 2.04809 39.2325 1.78267 39.4617 1.55516C39.6908 1.34662 39.9391 1.19495 40.2447 1.0812C40.5312 0.986404 40.8177 0.929527 41.1233 0.929527C41.4288 0.929527 41.7153 0.986404 42.0209 1.0812C42.3074 1.19495 42.5748 1.36558 42.804 1.55516C43.0332 1.78267 43.205 2.04809 43.3578 2.37039C43.4915 2.69268 43.5679 3.07186 43.5679 3.48895V11.0724C44.4274 10.4847 45.3632 10.0486 46.3946 9.72635C47.4068 9.42301 48.4763 9.27134 49.6223 9.27134C51.112 9.27134 52.5253 9.55572 53.8431 10.1245C55.161 10.6932 56.326 11.4516 57.3 12.4185C58.2932 13.4043 59.0571 14.5419 59.6301 15.85L60.4896 20.0778ZM55.6766 20.0778C55.6766 19.2626 55.5238 18.4663 55.2183 17.7459C54.8936 17.0065 54.4543 16.3619 53.9195 15.8121C53.3657 15.2623 52.7354 14.8262 51.9905 14.5039C51.2457 14.2006 50.4626 14.0489 49.6414 14.0489C48.801 14.0489 47.9989 14.2006 47.2731 14.5039C46.5283 14.8262 45.898 15.2623 45.3441 15.8121C44.7903 16.3619 44.351 17.0065 44.0263 17.7459C43.7016 18.4853 43.5488 19.2626 43.5488 20.0778C43.5488 20.893 43.7016 21.6703 44.0263 22.3907C44.351 23.1301 44.7903 23.7558 45.3441 24.3056C45.898 24.8554 46.5283 25.2914 47.2731 25.5948C48.018 25.9171 48.801 26.0687 49.6414 26.0687C50.4626 26.0687 51.2648 25.9171 51.9905 25.5948C52.7163 25.2914 53.3657 24.8554 53.9195 24.3056C54.4734 23.7558 54.8936 23.1301 55.2183 22.3907L55.6766 20.0778Z" fill="white"/>
<path d="M75.3109 29.6899C75.3109 30.9791 75.0626 32.1925 74.566 33.349C74.0503 34.4865 73.3819 35.4913 72.5224 36.3444C71.6439 37.2165 70.6125 37.918 69.4666 38.4109C68.3207 38.9039 67.0792 39.1503 65.7423 39.1503C65.3221 39.1503 64.9592 39.0934 64.6537 38.9607C64.329 38.828 64.0616 38.6384 63.8515 38.4109C63.6223 38.1834 63.4695 37.937 63.374 37.6526C63.2594 37.3492 63.2021 37.0649 63.2021 36.7615C63.2021 36.4582 63.2594 36.1738 63.3549 35.8894C63.4504 35.605 63.6223 35.3586 63.8324 35.1311C64.0425 34.9036 64.3099 34.714 64.6346 34.5813C64.9401 34.4486 65.3221 34.3727 65.7423 34.3727C66.4108 34.3727 67.0219 34.259 67.614 34.0125C68.187 33.7471 68.6835 33.4058 69.1228 32.9698C69.543 32.5527 69.8677 32.0598 70.1351 31.51C70.4024 30.9222 70.517 30.3345 70.517 29.6899V11.6413C70.517 11.2242 70.5934 10.845 70.7271 10.5227C70.8608 10.2194 71.0327 9.95394 71.2619 9.72643C71.4911 9.51789 71.7394 9.36622 72.0258 9.27142C72.3123 9.17663 72.5988 9.11976 72.9044 9.11976C73.21 9.11976 73.4965 9.17663 73.7829 9.27142C74.0694 9.36622 74.3368 9.53685 74.566 9.72643C74.7952 9.95394 74.9671 10.2004 75.1199 10.5227C75.2536 10.845 75.3109 11.2242 75.3109 11.6413V29.6899V29.6899ZM76.0748 4.75926C76.0748 5.19531 75.9984 5.6124 75.8265 5.97261C75.6546 6.35179 75.4255 6.69304 75.139 6.97742C74.8525 7.28076 74.5087 7.50827 74.1267 7.67889C73.7447 7.84952 73.3246 7.92536 72.8853 7.92536C72.446 7.92536 72.0258 7.84952 71.663 7.67889C71.281 7.50827 70.9372 7.28076 70.6507 6.97742C70.3642 6.69304 70.1351 6.35179 69.9632 5.97261C69.7913 5.59344 69.7149 5.19531 69.7149 4.75926C69.7149 4.32321 69.7913 3.90612 69.9632 3.52694C70.1351 3.14777 70.3642 2.82547 70.6507 2.54109C70.9372 2.25671 71.281 2.02921 71.663 1.85858C72.0449 1.68795 72.446 1.61211 72.8853 1.61211C73.3246 1.61211 73.7447 1.68795 74.1267 1.85858C74.5087 2.02921 74.8525 2.25671 75.139 2.54109C75.4255 2.82547 75.6546 3.14777 75.8265 3.52694L76.0748 4.75926Z" fill="white"/>
<path d="M11.5771 13.1768V12.2478C11.5771 11.9824 11.8063 11.7549 12.0737 11.7549H19.4841C19.7515 11.7549 19.9807 11.9824 19.9807 12.2478V13.1768C19.9807 13.4422 19.7515 13.6697 19.4841 13.6697H12.0737C11.8063 13.6697 11.5771 13.4612 11.5771 13.1768Z" fill="white"/>
<path d="M11.5771 16.7032V15.7742C11.5771 15.5088 11.8063 15.2813 12.0737 15.2813H19.4841C19.7515 15.2813 19.9807 15.5088 19.9807 15.7742V16.7032C19.9807 16.9686 19.7515 17.1961 19.4841 17.1961H12.0737C11.8063 17.2151 11.5771 16.9876 11.5771 16.7032Z" fill="white"/>
<path d="M11.5771 20.2484V19.3194C11.5771 19.054 11.8063 18.8265 12.0737 18.8265H19.4841C19.7515 18.8265 19.9807 19.054 19.9807 19.3194V20.2484C19.9807 20.5138 19.7515 20.7413 19.4841 20.7413H12.0737C11.8063 20.7413 11.5771 20.5138 11.5771 20.2484Z" fill="white"/>
</svg>
