<svg width="24" height="24" viewBox="0 0 24 24" fill="none" xmlns="http://www.w3.org/2000/svg">
<path fill-rule="evenodd" clip-rule="evenodd" d="M5.875 19.2H18.125C18.3571 19.2 18.5796 19.2948 18.7437 19.4636C18.9078 19.6324 19 19.8613 19 20.1C19 20.3387 18.9078 20.5676 18.7437 20.7364C18.5796 20.9052 18.3571 21 18.125 21H5.875C5.64294 21 5.42038 20.9052 5.25628 20.7364C5.09219 20.5676 5 20.3387 5 20.1C5 19.8613 5.09219 19.6324 5.25628 19.4636C5.42038 19.2948 5.64294 19.2 5.875 19.2ZM5 14.7L13.75 5.7L16.375 8.4L7.625 17.4H5V14.7ZM14.625 4.8L16.375 3L19 5.7L17.2491 7.5009L14.625 4.8Z" fill="#0055A7"/>
</svg>
