<svg width="28" height="28" viewBox="0 0 28 28" fill="none" xmlns="http://www.w3.org/2000/svg">
<circle cx="14" cy="14" r="14" fill="#F11F1F"/>
<path d="M15.1528 17.4165H12.6919L12.3433 7.07031H15.5015L15.1528 17.4165ZM13.9224 19.0366C14.4214 19.0366 14.8213 19.1836 15.1221 19.4775C15.4297 19.7715 15.5835 20.1475 15.5835 20.6055C15.5835 21.0566 15.4297 21.4292 15.1221 21.7231C14.8213 22.0171 14.4214 22.1641 13.9224 22.1641C13.4302 22.1641 13.0303 22.0171 12.7227 21.7231C12.4219 21.4292 12.2715 21.0566 12.2715 20.6055C12.2715 20.1543 12.4219 19.7817 12.7227 19.4878C13.0303 19.187 13.4302 19.0366 13.9224 19.0366Z" fill="white"/>
</svg>
