<svg width="24" height="24" viewBox="0 0 24 24" fill="none" xmlns="http://www.w3.org/2000/svg">
<path fill-rule="evenodd" clip-rule="evenodd" d="M5 0C2.23858 0 0 2.23858 0 5V19C0 21.7614 2.23858 24 5 24H19C21.7614 24 24 21.7614 24 19V5C24 2.23858 21.7614 0 19 0H5ZM16.3748 10.0451L15.9082 13.0312H13.4574V20.25H10.1706V13.0312H7.5V10.0451H10.1706V7.7693C10.1706 5.18021 11.741 3.75 14.1435 3.75C15.2943 3.75 16.4978 3.95174 16.4978 3.95174V6.49409H15.1716C13.865 6.49409 13.4574 7.29041 13.4574 8.10735V10.0451H16.3748Z" fill="white"/>
</svg>
