<svg width="24" height="24" viewBox="0 0 24 24" fill="none" xmlns="http://www.w3.org/2000/svg">
<circle cx="12" cy="12" r="12" fill="#FFF701"/>
<path d="M11.3721 13.9443C11.3721 13.3063 11.4495 12.7982 11.6045 12.4199C11.7594 12.0417 12.042 11.6702 12.4521 11.3057C12.8669 10.9365 13.1426 10.638 13.2793 10.4102C13.416 10.1777 13.4844 9.93392 13.4844 9.67871C13.4844 8.90853 13.1289 8.52344 12.418 8.52344C12.0807 8.52344 11.8096 8.62826 11.6045 8.83789C11.404 9.04297 11.2992 9.3278 11.29 9.69238H9.30762C9.31673 8.82194 9.59701 8.14062 10.1484 7.64844C10.7044 7.15625 11.4609 6.91016 12.418 6.91016C13.3841 6.91016 14.1338 7.14486 14.667 7.61426C15.2002 8.0791 15.4668 8.73763 15.4668 9.58984C15.4668 9.97721 15.3802 10.3441 15.207 10.6904C15.0339 11.0322 14.7308 11.4128 14.2979 11.832L13.7441 12.3584C13.3978 12.6911 13.1995 13.0807 13.1494 13.5273L13.1221 13.9443H11.3721ZM11.1738 16.043C11.1738 15.7376 11.2764 15.487 11.4814 15.291C11.6911 15.0905 11.9577 14.9902 12.2812 14.9902C12.6048 14.9902 12.8691 15.0905 13.0742 15.291C13.2839 15.487 13.3887 15.7376 13.3887 16.043C13.3887 16.3438 13.2861 16.5921 13.0811 16.7881C12.8805 16.984 12.6139 17.082 12.2812 17.082C11.9486 17.082 11.6797 16.984 11.4746 16.7881C11.2741 16.5921 11.1738 16.3438 11.1738 16.043Z" fill="#282830"/>
</svg>
