<svg width="24" height="24" viewBox="0 0 24 24" fill="none" xmlns="http://www.w3.org/2000/svg">
<path fill-rule="evenodd" clip-rule="evenodd" d="M5 0C2.23858 0 0 2.23858 0 5V19C0 21.7614 2.23858 24 5 24H19C21.7614 24 24 21.7614 24 19V5C24 2.23858 21.7614 0 19 0H5ZM7.90076 12C7.90076 9.7293 9.73188 7.89777 12.002 7.89777C14.2722 7.89777 16.1033 9.7293 16.1033 12C16.1033 14.2706 14.2722 16.1022 12.002 16.1022C9.73188 16.1022 7.90076 14.2706 7.90076 12ZM9.33568 12C9.33568 13.4709 10.535 14.6669 12.002 14.6669C13.4691 14.6669 14.6684 13.4709 14.6684 12C14.6684 10.529 13.4727 9.333 12.002 9.333C10.5314 9.333 9.33568 10.529 9.33568 12ZM16.2711 8.68679C16.7994 8.68679 17.2277 8.26193 17.2277 7.72997C17.2277 7.20157 16.7994 6.77315 16.2711 6.77315C15.7428 6.77315 15.3145 7.20157 15.3145 7.72997C15.3145 8.25836 15.7392 8.68679 16.2711 8.68679ZM18.6519 5.34862C19.5907 6.28402 19.8834 7.41936 19.944 8.70107C20.019 10.0221 20.019 13.9779 19.944 15.2989C19.8798 16.5806 19.5871 17.7159 18.6519 18.6513C17.7167 19.5903 16.5816 19.883 15.3002 19.9437C13.9795 20.0187 10.021 20.0187 8.70032 19.9437C7.41889 19.8795 6.28738 19.5867 5.34862 18.6513C4.40985 17.7159 4.11716 16.5806 4.05648 15.2989C3.98152 13.9779 3.98152 10.0185 4.05648 8.6975C4.12073 7.41579 4.40985 6.28045 5.34862 5.34505C6.28738 4.40965 7.42246 4.11689 8.70032 4.0562C10.021 3.98122 13.9795 3.98122 15.3002 4.0562C16.5816 4.12046 17.7167 4.41322 18.6519 5.34862ZM16.7173 18.2372C17.4205 17.9551 17.9594 17.416 18.2379 16.7162C18.5961 15.8159 18.5761 13.8466 18.5632 12.57C18.5611 12.3583 18.5591 12.1656 18.5591 12C18.5591 11.8343 18.5611 11.6417 18.5632 11.43C18.5761 10.1541 18.596 8.18703 18.2379 7.28369C17.9559 6.58035 17.4169 6.04125 16.7173 5.76277C15.8143 5.40643 13.8359 5.42541 12.56 5.43765C12.353 5.43964 12.1645 5.44145 12.002 5.44145C11.8365 5.44145 11.6438 5.4395 11.4322 5.43735C10.1566 5.42443 8.18996 5.4045 7.28682 5.76277C6.58364 6.04482 6.04466 6.58392 5.76624 7.28369C5.40998 8.18682 5.42896 10.1657 5.4412 11.4419C5.44318 11.649 5.44499 11.8375 5.44499 12C5.44499 12.1656 5.44304 12.3583 5.44089 12.5699C5.42797 13.8459 5.40804 15.8129 5.76624 16.7162C6.04822 17.4196 6.58721 17.9587 7.28682 18.2372C8.18975 18.5935 10.1682 18.5745 11.4441 18.5623C11.6511 18.5603 11.8396 18.5585 12.002 18.5585C12.1676 18.5585 12.3603 18.5604 12.5719 18.5626C13.8475 18.5755 15.8141 18.5954 16.7173 18.2372Z" fill="white"/>
</svg>
