<svg width="24" height="24" viewBox="0 0 24 24" fill="none" xmlns="http://www.w3.org/2000/svg">
<path fill-rule="evenodd" clip-rule="evenodd" d="M0 5C0 2.23877 2.23828 0 5 0H19C21.7617 0 24 2.23877 24 5V19C24 21.7612 21.7617 24 19 24H5C2.23828 24 0 21.7612 0 19V5ZM16.793 10.8755C16.8105 8.90137 15.1289 7.0918 13.0469 6.84131L12.9121 6.8208C12.8066 6.80078 12.7012 6.78906 12.5938 6.78662C12.3125 6.78662 12.166 6.91748 12.0918 7.05762C12.0527 7.12988 12.0332 7.20459 12.0234 7.26514C11.9941 7.43896 12.0215 7.58594 12.1055 7.69971C12.1797 7.80176 12.2852 7.85889 12.3984 7.89453C12.498 7.92578 12.6016 7.94043 12.6953 7.95312L12.7129 7.95605C12.7656 7.96289 12.8125 7.96973 12.8555 7.979C14.7266 8.39746 15.3574 9.05518 15.666 10.9111L15.6797 11.0337V11.0713C15.6934 11.2935 15.7207 11.7549 16.2168 11.7549L16.2773 11.7529L16.3496 11.7446C16.8105 11.6743 16.7969 11.2524 16.791 11.0498V10.9707V10.9023L16.793 10.8755ZM12.623 6.13135L12.4727 6.1167C12.2422 6.10059 11.7656 6.06543 11.793 5.57227C11.8066 5.3584 11.9023 5 12.4062 5C12.4629 5 12.5195 5.00391 12.5684 5.00732L12.6816 5.01318L12.7188 5.01074L12.7578 5.00879C15.9219 5.11523 18.6641 7.98877 18.625 11.1558L18.6289 11.2993C18.6387 11.5098 18.6504 11.771 18.4824 11.9463C18.3848 12.0474 18.25 12.0986 18.0801 12.0986H18.0645C17.5234 12.0884 17.5156 11.5845 17.5117 11.3423V11.3047C17.5098 11.251 17.5078 11.2007 17.502 11.1582C17.1113 8.06006 15.6973 6.604 12.623 6.13135ZM17.1582 15.0088L17.3535 15.1616C17.8496 15.5391 18.4648 16.0093 18.127 16.9609C17.7422 18.0469 16.4902 19 15.4473 19H15.4297C15.4102 19 15.3926 18.9976 15.375 18.9927L15.2441 18.9619C15.0918 18.9277 14.8809 18.8804 14.6816 18.7944C12.4648 17.8394 10.5508 16.5693 8.99219 15.0176C7.40234 13.4326 6.14062 11.5117 5.24219 9.30859C4.93359 8.54688 4.91992 7.81445 5.20508 7.19043C5.50195 6.54541 6.0957 6.05664 6.92188 5.77881C7.23047 5.66846 7.56641 5.66943 7.875 5.78174C8.59375 6.0459 10.3008 8.37402 10.3438 9.14746C10.3809 9.82959 9.85547 10.1851 9.57422 10.3765C9.30078 10.562 9.15039 10.771 9.11719 11.0269C9.0918 11.2358 9.14258 11.4761 9.26953 11.7607C9.85156 13.0708 10.873 14.0635 12.2988 14.7104C12.4492 14.7842 12.6133 14.8252 12.7812 14.8311C13.0215 14.8311 13.2168 14.7124 13.3789 14.4683C13.7441 13.917 14.1836 13.6372 14.6914 13.6372C15.0664 13.6372 15.4629 13.7881 15.9062 14.0986L16.1211 14.249L16.168 14.2812C16.4961 14.5122 16.8379 14.7505 17.1582 15.0088ZM12.2539 9.02539C12.3828 8.64746 12.7559 8.6377 12.9336 8.63379C13.2168 8.62695 13.5176 8.7124 13.8047 8.87598C13.998 8.98584 14.1855 9.13135 14.3594 9.30762C14.7891 9.74414 15.043 10.293 15.0371 10.7764C15.0527 11.2397 14.8828 11.4961 14.5352 11.5366L14.4688 11.541C14.1816 11.541 13.9551 11.3066 13.9219 10.9722C13.877 10.5312 13.7246 10.2153 13.4512 10.0112C13.2793 9.88281 13.0605 9.79834 12.791 9.75537C12.5977 9.72363 12.3848 9.6665 12.2754 9.48193C12.2422 9.42773 12.2227 9.36865 12.2148 9.30469C12.2051 9.22021 12.2188 9.12695 12.2539 9.02539Z" fill="white"/>
</svg>
