<svg width="24" height="24" viewBox="0 0 24 24" fill="none" xmlns="http://www.w3.org/2000/svg">
<path fill-rule="evenodd" clip-rule="evenodd" d="M5 0C2.23858 0 0 2.23858 0 5V19C0 21.7614 2.23858 24 5 24H19C21.7614 24 24 21.7614 24 19V5C24 2.23858 21.7614 0 19 0H5ZM17.0772 17.6602L19.4537 6.45236C19.6647 5.46447 19.0986 5.07776 18.4518 5.32033L4.48068 10.7028C3.52794 11.0754 3.542 11.6098 4.31896 11.8524L7.89083 12.9703L16.1877 7.74611C16.5779 7.48596 16.933 7.6301 16.6412 7.89025L9.92989 13.9547L9.66974 17.6426C10.0424 17.6426 10.2041 17.4809 10.3975 17.2875L12.1447 15.6071L15.7658 18.2754C16.4303 18.6481 16.8979 18.4512 17.0772 17.6602Z" fill="white"/>
</svg>
