<svg width="24" height="24" viewBox="0 0 24 24" fill="none" xmlns="http://www.w3.org/2000/svg">
<path d="M21.6328 6.64688C21.3187 5.91947 20.8657 5.2603 20.2992 4.70626C19.7323 4.15057 19.064 3.70897 18.3305 3.40548C17.5699 3.08952 16.7541 2.9278 15.9305 2.9297C14.775 2.9297 13.6477 3.2461 12.668 3.84376C12.4336 3.98673 12.2109 4.14376 12 4.31485C11.7891 4.14376 11.5664 3.98673 11.332 3.84376C10.3523 3.2461 9.225 2.9297 8.06953 2.9297C7.2375 2.9297 6.43125 3.08907 5.66953 3.40548C4.93359 3.71017 4.27031 4.14845 3.70078 4.70626C3.13359 5.25967 2.6805 5.919 2.36719 6.64688C2.04141 7.40392 1.875 8.20782 1.875 9.03516C1.875 9.81563 2.03438 10.6289 2.35078 11.4563C2.61563 12.1477 2.99531 12.8649 3.48047 13.5891C4.24922 14.7352 5.30625 15.9305 6.61875 17.1422C8.79375 19.1508 10.9477 20.5383 11.0391 20.5945L11.5945 20.9508C11.8406 21.1078 12.157 21.1078 12.4031 20.9508L12.9586 20.5945C13.05 20.5359 15.2016 19.1508 17.3789 17.1422C18.6914 15.9305 19.7484 14.7352 20.5172 13.5891C21.0023 12.8649 21.3844 12.1477 21.6469 11.4563C21.9633 10.6289 22.1227 9.81563 22.1227 9.03516C22.125 8.20782 21.9586 7.40392 21.6328 6.64688ZM12 19.0969C12 19.0969 3.65625 13.7508 3.65625 9.03516C3.65625 6.64688 5.63203 4.71095 8.06953 4.71095C9.78281 4.71095 11.2688 5.6672 12 7.06407C12.7312 5.6672 14.2172 4.71095 15.9305 4.71095C18.368 4.71095 20.3438 6.64688 20.3438 9.03516C20.3438 13.7508 12 19.0969 12 19.0969Z" fill="#CBD0D5"/>
</svg>
