<?xml version="1.0" encoding="UTF-8"?>
<svg width="15px" height="20px" viewBox="0 0 15 20" version="1.1" xmlns="http://www.w3.org/2000/svg" xmlns:xlink="http://www.w3.org/1999/xlink">
    <!-- Generator: sketchtool 46 (44423) - http://www.bohemiancoding.com/sketch -->
    <title>785AFC2A-C711-442A-9C07-61968A6452E0</title>
    <desc>Created with sketchtool.</desc>
    <defs></defs>
    <g id="Page-1" stroke="none" stroke-width="1" fill="none" fill-rule="evenodd">
        <g id="Artboard-3" transform="translate(-356.000000, -249.000000)" fill-rule="nonzero" fill="#FFFFFF">
            <g id="padlock-(1)" transform="translate(356.000000, 249.000000)">
                <path d="M4.62204619,5.22040816 C4.62204619,3.75918367 5.79820086,2.57142857 7.23617078,2.57142857 C8.67414071,2.57142857 9.85029538,3.76326531 9.85029538,5.22040816 L9.85029538,7.86938776 L12.3878894,7.86938776 L12.3878894,5.22040816 C12.3878894,2.33061224 10.0678034,0 7.23617078,0 C4.40453813,0 2.0844522,2.33469388 2.0844522,5.22040816 L2.0844522,7.86938776 L4.62204619,7.86938776 L4.62204619,5.22040816 Z" id="Shape"></path>
                <path d="M13.0645811,8.73061224 L1.40776047,8.73061224 C0.638426423,8.73061224 0.0140977444,9.36734694 0.0140977444,10.1428571 L0.0140977444,18.5714286 C0.0140977444,19.3510204 0.64245435,19.9836735 1.40776047,19.9836735 L13.0766649,19.9836735 C13.8459989,19.9836735 14.4703276,19.3469388 14.4703276,18.5714286 L14.4703276,10.1428571 C14.4743555,9.36326531 13.8459989,8.73061224 13.0645811,8.73061224 Z M8.38010204,16.8734694 L6.09223953,16.8734694 L6.54739527,14.4122449 C6.15668636,14.1755102 5.87473147,13.7306122 5.87473147,13.2367347 C5.87473147,12.4734694 6.48697637,11.8571429 7.23617078,11.8571429 C7.9853652,11.8571429 8.5976101,12.477551 8.5976101,13.2367347 C8.5976101,13.7428571 8.33176692,14.1714286 7.92494629,14.4122449 L8.38010204,16.8734694 Z" id="Shape"></path>
            </g>
        </g>
    </g>
</svg>