<svg width="20" height="20" viewBox="0 0 20 20" fill="none" xmlns="http://www.w3.org/2000/svg">
<g clip-path="url(#clip0)">
<path d="M11.6667 3.33334L9.16667 5.83334H2.5C1.83696 5.83334 1.20107 6.09674 0.732233 6.56558C0.263392 7.03442 0 7.6703 0 8.33334L0 10.8333C0 11.4964 0.263392 12.1323 0.732233 12.6011C1.20107 13.07 1.83696 13.3333 2.5 13.3333V15.8333C2.5 16.2754 2.67559 16.6993 2.98816 17.0119C3.30072 17.3244 3.72464 17.5 4.16667 17.5H5C5.44203 17.5 5.86595 17.3244 6.17851 17.0119C6.49107 16.6993 6.66667 16.2754 6.66667 15.8333V13.3333H9.16667L11.6667 15.8333H13.3333V3.33334H11.6667ZM12.0117 4.16668H12.5V15H12.0117L9.51167 12.5H2.5C2.05797 12.5 1.63405 12.3244 1.32149 12.0119C1.00893 11.6993 0.833333 11.2754 0.833333 10.8333V8.33334C0.833333 7.89132 1.00893 7.46739 1.32149 7.15483C1.63405 6.84227 2.05797 6.66668 2.5 6.66668H9.51167L12.0117 4.16668ZM15 5.83334V6.67334C15.6943 6.77368 16.3291 7.12079 16.7883 7.65109C17.2475 8.18139 17.5002 8.85938 17.5002 9.56084C17.5002 10.2623 17.2475 10.9403 16.7883 11.4706C16.3291 12.0009 15.6943 12.348 15 12.4483V13.2875C15.9172 13.1856 16.7647 12.7491 17.3802 12.0614C17.9957 11.3738 18.3361 10.4833 18.3361 9.56043C18.3361 8.63754 17.9957 7.74706 17.3802 7.05941C16.7647 6.37175 15.9172 5.93522 15 5.83334ZM15 8.38251V10.7392C15.2436 10.6529 15.4545 10.4933 15.6036 10.2823C15.7527 10.0713 15.8328 9.81924 15.8328 9.56084C15.8328 9.30244 15.7527 9.05039 15.6036 8.83937C15.4545 8.62836 15.2436 8.46875 15 8.38251ZM3.33333 13.3333H5.83333V15.8333C5.83333 16.0544 5.74554 16.2663 5.58926 16.4226C5.43297 16.5789 5.22101 16.6667 5 16.6667H4.16667C3.94565 16.6667 3.73369 16.5789 3.57741 16.4226C3.42113 16.2663 3.33333 16.0544 3.33333 15.8333V13.3333Z" fill="#20262E"/>
</g>
<defs>
<clipPath id="clip0">
<rect width="20" height="20" fill="white"/>
</clipPath>
</defs>
</svg>
