<svg width="56" height="72" viewBox="0 0 56 72" fill="none" xmlns="http://www.w3.org/2000/svg">
<path d="M0 10C0 4.47715 4.47715 0 10 0H46.0112L56 10.6364V62C56 67.5229 51.5228 72 46 72H10C4.47715 72 0 67.5229 0 62V10Z" fill="#EFF2F5"/>
<path d="M46.0898 0L51.0093 5.35644L56 10.6364H51.0898C48.3284 10.6364 46.0898 8.39779 46.0898 5.63637V0Z" fill="#DCE4EC"/>
<rect x="10.0674" y="23.0728" width="7.55056" height="7.85455" rx="2" fill="#BFCCDA"/>
<rect x="20.1348" y="23.7273" width="26.7416" height="2.61818" rx="1" fill="#BFCCDA"/>
<rect x="20.1348" y="36.8182" width="26.7416" height="2.61818" rx="1" fill="#BFCCDA"/>
<rect x="20.1348" y="49.9091" width="26.7416" height="2.61818" rx="1" fill="#BFCCDA"/>
<rect x="20.1348" y="27.6545" width="26.7416" height="2.61818" rx="1" fill="#BFCCDA"/>
<rect x="20.1348" y="40.7455" width="26.7416" height="2.61818" rx="1" fill="#BFCCDA"/>
<rect x="20.1348" y="53.8363" width="26.7416" height="2.61818" rx="1" fill="#BFCCDA"/>
<rect x="10.0674" y="36.1637" width="7.55056" height="7.85455" rx="2" fill="#BFCCDA"/>
<rect x="10.0674" y="49.2545" width="7.55056" height="7.85455" rx="2" fill="#BFCCDA"/>
<path d="M31.6252 15.1972C31.6252 16.0185 31.3639 16.6858 30.8412 17.1992C30.3185 17.7032 29.6372 18.0065 28.7972 18.1092V19.3412H27.8592V18.1232C27.0752 18.0672 26.4032 17.8478 25.8432 17.4652C25.2832 17.0825 24.8819 16.5645 24.6392 15.9112L26.3052 14.9452C26.6039 15.6918 27.1219 16.1165 27.8592 16.2192V13.7972C27.8499 13.7972 27.8452 13.7972 27.8452 13.7972L27.8172 13.7832C27.4905 13.6618 27.2245 13.5545 27.0192 13.4612C26.8139 13.3678 26.5712 13.2325 26.2912 13.0552C26.0205 12.8778 25.8059 12.6958 25.6472 12.5092C25.4979 12.3132 25.3625 12.0658 25.2412 11.7672C25.1292 11.4685 25.0732 11.1418 25.0732 10.7872C25.0732 9.96583 25.3392 9.30783 25.8712 8.81316C26.4125 8.31849 27.0752 8.03383 27.8592 7.95916V6.74116H28.7972V7.98716C30.0665 8.13649 30.9625 8.79449 31.4852 9.96116L29.8612 10.9132C29.6372 10.3532 29.2825 10.0125 28.7972 9.89116V12.2292C29.6652 12.5745 30.2485 12.8498 30.5472 13.0552C31.2659 13.5685 31.6252 14.2825 31.6252 15.1972ZM26.9912 10.8012C26.9912 11.0065 27.0565 11.1885 27.1872 11.3472C27.3179 11.4965 27.5419 11.6505 27.8592 11.8092V9.84916C27.5792 9.90516 27.3645 10.0172 27.2152 10.1852C27.0659 10.3532 26.9912 10.5585 26.9912 10.8012ZM28.7972 16.1912C29.3945 16.0605 29.6932 15.7338 29.6932 15.2112C29.6932 14.9778 29.6185 14.7818 29.4692 14.6232C29.3292 14.4645 29.1052 14.3152 28.7972 14.1752V16.1912Z" fill="#BFCCDA"/>
<rect x="12.1445" y="9.88232" width="10.1205" height="1.41176" rx="0.705882" fill="#BFCCDA"/>
<rect x="33.0603" y="9.88232" width="10.1205" height="1.41176" rx="0.705882" fill="#BFCCDA"/>
<rect x="12.1445" y="14.1177" width="10.1205" height="1.41176" rx="0.705882" fill="#BFCCDA"/>
<rect x="33.0603" y="14.1177" width="10.1205" height="1.41176" rx="0.705882" fill="#BFCCDA"/>
</svg>
