<svg width="72" height="72" viewBox="0 0 72 72" fill="none" xmlns="http://www.w3.org/2000/svg">
<rect width="71.9999" height="72" rx="18" fill="#755599"/>
<path fill-rule="evenodd" clip-rule="evenodd" d="M0 47.313C1.14543 39.8069 5.46771 34.7734 10.8 31.2656C14.5331 28.8098 20.2867 28.8917 26.572 28.9811C35.2589 29.1048 44.9616 29.2429 51.75 22.7156C58.9981 15.7463 60.3744 6.35913 57.1628 0.438477C65.7062 2.71483 71.9999 10.5053 71.9999 19.7657V51.7657C71.9999 62.8114 63.0456 71.7657 51.9999 71.7657H20C8.9543 71.7657 0 62.8114 0 51.7657V47.313Z" fill="#6E4E92"/>
<path fill-rule="evenodd" clip-rule="evenodd" d="M72.0001 23.3998V52.0002C72.0001 60.9392 66.1357 68.5085 58.0444 71.0706L56.9764 70.6783C34.9106 65.3557 40.0749 44.5091 56.9764 42.7349C66.7121 41.7129 70.7035 32.0448 72.0001 23.3998Z" fill="#69498C"/>
<g clip-path="url(#clip0)">
<path d="M59.4255 41.7763C60.9291 29.1196 58.7031 21.1291 54.6879 17.515L54.69 17.5129C48.2094 11.341 26.3232 10.4275 18.57 17.7901C15.0882 21.3916 13.8618 26.6773 13.7274 33.2209C13.593 39.7666 13.4334 52.0285 24.8595 55.3549H24.87L24.8595 60.4348C24.8595 60.4348 24.7818 62.4928 26.0964 62.9065C27.6 63.3937 28.2804 62.4382 32.9571 56.8522C40.7775 57.5305 46.7835 55.9765 47.466 55.7497C49.0452 55.2205 57.9807 54.0382 59.4255 41.7763ZM33.7278 53.278C33.7278 53.278 28.7781 59.4499 27.2388 61.0522C26.7348 61.573 26.1825 61.5247 26.1909 60.4915C26.1909 59.8132 26.2287 52.0579 26.2287 52.0579C16.5414 49.2817 17.1126 38.8405 17.2176 33.3784C17.3226 27.9142 18.3222 23.4391 21.2706 20.4256C28.0725 14.0479 47.2602 15.4738 52.149 20.0686C58.1256 25.3669 55.9983 40.3357 56.0109 40.846C54.7824 51.0814 47.5416 51.7303 46.2102 52.1734C45.6411 52.3624 40.3596 53.7211 33.7278 53.278Z" fill="white"/>
<path d="M36.4662 21.6239C35.6577 21.6239 35.6577 22.8839 36.4662 22.8944C42.7389 22.9427 47.9049 27.3149 47.9616 35.3348C47.9616 36.1811 49.2006 36.1706 49.1901 35.3243H49.188C49.1208 26.6828 43.4802 21.6722 36.4662 21.6239Z" fill="white"/>
<path d="M44.7172 34.0054C44.6983 34.8412 45.9352 34.8811 45.9457 34.0348C46.0486 29.2699 43.1107 25.345 37.5898 24.9313C36.7813 24.8725 36.6973 26.143 37.5037 26.2018C42.2917 26.5651 44.8138 29.8327 44.7172 34.0054Z" fill="white"/>
<path d="M43.3942 39.4257C42.3568 38.8251 41.3005 39.1989 40.8637 39.789L39.9502 40.9713C39.4861 41.5719 38.6188 41.4921 38.6188 41.4921C32.2894 39.8184 30.5968 33.195 30.5968 33.195C30.5968 33.195 30.5191 32.2983 31.0987 31.8174L32.2411 30.8724C32.8123 30.4188 33.1735 29.3268 32.5918 28.2537C31.0378 25.446 29.9941 24.4779 29.4628 23.7345C28.9042 23.0352 28.0642 22.8777 27.1906 23.3502H27.1717C25.3552 24.4128 23.3665 26.4015 24.0028 28.449C25.0885 30.6078 27.0835 37.4895 33.4423 42.6891C36.4306 45.1482 41.1598 47.6682 43.1674 48.2499L43.1863 48.2793C45.1645 48.9387 47.0881 46.8723 48.115 45.0012V44.9865C48.5707 44.0814 48.4195 43.2246 47.7538 42.6639C46.5736 41.5131 44.7928 40.2426 43.3942 39.4257Z" fill="white"/>
<path d="M38.4549 29.6185C40.473 29.7361 41.4516 30.7903 41.5566 32.9554C41.5944 33.8017 42.8229 33.7429 42.7851 32.8966C42.6507 30.07 41.1765 28.495 38.5221 28.348C37.7136 28.2997 37.638 29.5702 38.4549 29.6185Z" fill="white"/>
</g>
<defs>
<clipPath id="clip0">
<rect x="10.8" y="12.6002" width="50.3999" height="50.4" fill="white"/>
</clipPath>
</defs>
</svg>
