<svg width="72" height="72" viewBox="0 0 72 72" fill="none" xmlns="http://www.w3.org/2000/svg">
<rect width="71.9999" height="72" rx="18" fill="#53A6DE"/>
<path fill-rule="evenodd" clip-rule="evenodd" d="M0 47.313C1.14543 39.8069 5.46771 34.7734 10.8 31.2656C14.5331 28.8098 20.2867 28.8917 26.572 28.9811C35.2589 29.1048 44.9616 29.2429 51.75 22.7156C58.9981 15.7463 60.3744 6.35913 57.1628 0.438477C65.7062 2.71483 71.9999 10.5053 71.9999 19.7657V51.7657C71.9999 62.8114 63.0456 71.7657 51.9999 71.7657H20C8.9543 71.7657 0 62.8114 0 51.7657V47.313Z" fill="#4E9DD3"/>
<path fill-rule="evenodd" clip-rule="evenodd" d="M72.0001 23.3998V52.0002C72.0001 60.9392 66.1357 68.5085 58.0444 71.0706L56.9764 70.6783C34.9106 65.3557 40.0749 44.5091 56.9764 42.7349C66.7121 41.7129 70.7035 32.0448 72.0001 23.3998Z" fill="#4D97CA"/>
<path d="M31.56 49.2999L32.12 40.8399L47.48 26.9999C48.16 26.3799 47.34 26.0799 46.44 26.6199L27.48 38.5999L19.28 35.9999C17.52 35.4999 17.5 34.2799 19.68 33.3999L51.62 21.0799C53.08 20.4199 54.48 21.4399 53.92 23.6799L48.48 49.2999C48.1 51.1199 47 51.5599 45.48 50.7199L37.2 44.5999L33.22 48.4599C32.76 48.9199 32.38 49.2999 31.56 49.2999Z" fill="white"/>
</svg>
