<svg width="80" height="80" viewBox="0 0 80 80" fill="none" xmlns="http://www.w3.org/2000/svg">
<path d="M74.3997 36.1505L72.328 27.8638C72.8944 27.7435 73.3194 27.241 73.3194 26.6389V25.3028C73.3194 22.4019 70.9592 20.0419 68.0584 20.0419H58.6222V17.286C58.6222 15.8585 57.4609 14.6972 56.0334 14.6972H7.93313C6.50562 14.6972 5.34437 15.8585 5.34437 17.286V40C5.34437 40.6917 5.90516 41.2527 6.59703 41.2527C7.28875 41.2527 7.84969 40.6919 7.84969 40V17.286C7.84969 17.24 7.88703 17.2025 7.93313 17.2025H56.0333C56.0794 17.2025 56.1167 17.2402 56.1167 17.286V40.0003C56.1167 40.6921 56.6775 41.253 57.3694 41.253C58.0611 41.253 58.622 40.6922 58.622 40.0003V38.5803H73.3984C73.3997 38.5803 73.4006 38.5806 73.4017 38.5806C73.403 38.5806 73.4041 38.5805 73.4052 38.5805C75.2234 38.5817 76.7673 39.7752 77.2977 41.4197H73.4027C72.7109 41.4197 72.15 41.9805 72.15 42.6724V45.3445C72.15 47.5088 73.9106 49.2694 76.0748 49.2694H77.4945V54.7808H74.2192C73.1433 51.6739 70.19 49.4363 66.722 49.4363C63.2541 49.4363 60.3006 51.6739 59.2248 54.7808H58.6217V45.3444C58.6217 44.6527 58.0609 44.0917 57.3691 44.0917C56.6773 44.0917 56.1164 44.6525 56.1164 45.3444V54.7805H30.1277C29.0517 51.6736 26.0984 49.436 22.6305 49.436C19.1625 49.436 16.2091 51.6736 15.1333 54.7805H7.93313C7.88703 54.7805 7.84969 54.7428 7.84969 54.6971V51.9413H13.2777C13.9694 51.9413 14.5303 51.3805 14.5303 50.6886C14.5303 49.9967 13.9695 49.436 13.2777 49.436H6.59797C6.59766 49.436 6.5975 49.436 6.59719 49.436C6.59688 49.436 6.59672 49.436 6.59641 49.436H1.25266C0.560938 49.436 0 49.9967 0 50.6886C0 51.3805 0.560781 51.9413 1.25266 51.9413H5.34453V54.6971C5.34453 56.1246 6.50578 57.2858 7.93328 57.2858H14.6995C14.6992 57.3136 14.6973 57.3414 14.6973 57.3692C14.6973 61.7435 18.2563 65.3024 22.6305 65.3024C27.0047 65.3024 30.5636 61.7435 30.5636 57.3692C30.5636 57.3414 30.5617 57.3136 30.5614 57.2858H58.7911C58.7908 57.3136 58.7889 57.3414 58.7889 57.3692C58.7889 61.7435 62.3478 65.3024 66.722 65.3024C71.0963 65.3024 74.6552 61.7435 74.6552 57.3692C74.6552 57.3414 74.6533 57.3136 74.653 57.2858H78.7472C79.4389 57.2858 79.9998 56.725 79.9998 56.0331V42.6721C80 39.3733 77.5661 36.6325 74.3997 36.1505ZM58.6222 22.547H68.0584C69.578 22.547 70.8142 23.7833 70.8142 25.3028V25.3863H58.6222V22.547ZM58.6222 36.0752V27.8914H69.7527L71.7986 36.0752H58.6222ZM22.6305 62.7975C19.6375 62.7975 17.2025 60.3627 17.2025 57.3696C17.2025 54.3764 19.6375 51.9416 22.6305 51.9416C25.6234 51.9416 28.0584 54.3764 28.0584 57.3696C28.0584 60.3627 25.6234 62.7975 22.6305 62.7975ZM66.7223 62.7975C63.7294 62.7975 61.2944 60.3627 61.2944 57.3696C61.2944 54.3764 63.7294 51.9416 66.7223 51.9416C69.7153 51.9416 72.1503 54.3764 72.1503 57.3696C72.1503 60.3627 69.7153 62.7975 66.7223 62.7975ZM77.4948 46.7641H76.0752C75.2923 46.7641 74.6555 46.1272 74.6555 45.3444V43.9247H77.4947V46.7641H77.4948Z" fill="#4F8A86"/>
<path d="M22.6305 54.7808C21.203 54.7808 20.0417 55.942 20.0417 57.3695C20.0417 58.797 21.203 59.9583 22.6305 59.9583C24.058 59.9583 25.2192 58.797 25.2192 57.3695C25.2192 55.942 24.058 54.7808 22.6305 54.7808Z" fill="#4F8A86"/>
<path d="M66.7223 54.7808C65.2948 54.7808 64.1335 55.942 64.1335 57.3695C64.1335 58.797 65.2948 59.9583 66.7223 59.9583C68.1498 59.9583 69.3111 58.797 69.3111 57.3695C69.3111 55.942 68.1498 54.7808 66.7223 54.7808Z" fill="#4F8A86"/>
<path d="M52.0249 49.4363H33.3193C32.6276 49.4363 32.0667 49.9971 32.0667 50.689C32.0667 51.3809 32.6274 51.9416 33.3193 51.9416H52.0249C52.7166 51.9416 53.2776 51.3809 53.2776 50.689C53.2776 49.9971 52.7168 49.4363 52.0249 49.4363Z" fill="#4F8A86"/>
<path d="M19.9582 44.0919H3.92478C3.23306 44.0919 2.67212 44.6526 2.67212 45.3445C2.67212 46.0364 3.2329 46.5972 3.92478 46.5972H19.9582C20.6499 46.5972 21.2109 46.0364 21.2109 45.3445C21.2109 44.6526 20.6499 44.0919 19.9582 44.0919Z" fill="#4F8A86"/>
<path d="M31.9833 21.3778C25.3988 21.3778 20.0417 26.7348 20.0417 33.3194C20.0417 39.9039 25.3988 45.2609 31.9833 45.2609C38.5678 45.2609 43.9249 39.9039 43.9249 33.3194C43.9249 26.7348 38.5678 21.3778 31.9833 21.3778ZM31.9833 42.7558C26.7802 42.7558 22.5471 38.5227 22.5471 33.3195C22.5471 28.1164 26.7802 23.8833 31.9833 23.8833C37.1864 23.8833 41.4196 28.1164 41.4196 33.3195C41.4196 38.5227 37.1864 42.7558 31.9833 42.7558Z" fill="#EB9F2D"/>
<path d="M36.8774 36.442L33.236 32.8006V27.975C33.236 27.2833 32.6752 26.7224 31.9834 26.7224C31.2915 26.7224 30.7307 27.2831 30.7307 27.975V33.3195C30.7307 33.6517 30.8626 33.9702 31.0976 34.2052L35.1059 38.2134C35.3504 38.458 35.671 38.5803 35.9915 38.5803C36.312 38.5803 36.6327 38.4581 36.8771 38.2134C37.3666 37.7242 37.3666 36.9313 36.8774 36.442Z" fill="#EB9F2D"/>
</svg>
