<svg width="80" height="80" viewBox="0 0 80 80" fill="none" xmlns="http://www.w3.org/2000/svg">
<path d="M73.75 2.5H6.25C5.25579 2.50114 4.30262 2.89659 3.59961 3.59961C2.89659 4.30262 2.50114 5.25579 2.5 6.25V73.75C2.50114 74.7442 2.89659 75.6974 3.59961 76.4004C4.30262 77.1034 5.25579 77.4989 6.25 77.5H73.75C74.7442 77.4989 75.6974 77.1034 76.4004 76.4004C77.1034 75.6974 77.4989 74.7442 77.5 73.75V6.25C77.4989 5.25579 77.1034 4.30262 76.4004 3.59961C75.6974 2.89659 74.7442 2.50114 73.75 2.5ZM75 73.75C74.9996 74.0814 74.8678 74.3991 74.6335 74.6335C74.3991 74.8678 74.0814 74.9996 73.75 75H6.25C5.9186 74.9996 5.60087 74.8678 5.36654 74.6335C5.1322 74.3991 5.00038 74.0814 5 73.75V6.25C5.00038 5.9186 5.1322 5.60087 5.36654 5.36654C5.60087 5.1322 5.9186 5.00038 6.25 5H73.75C74.0814 5.00038 74.3991 5.1322 74.6335 5.36654C74.8678 5.60087 74.9996 5.9186 75 6.25V73.75Z" fill="#4F8A86"/>
<path d="M8.75 10C9.44036 10 10 9.44036 10 8.75C10 8.05964 9.44036 7.5 8.75 7.5C8.05964 7.5 7.5 8.05964 7.5 8.75C7.5 9.44036 8.05964 10 8.75 10Z" fill="#4F8A86"/>
<path d="M12.5 10C13.1904 10 13.75 9.44036 13.75 8.75C13.75 8.05964 13.1904 7.5 12.5 7.5C11.8096 7.5 11.25 8.05964 11.25 8.75C11.25 9.44036 11.8096 10 12.5 10Z" fill="#4F8A86"/>
<path d="M16.25 10C16.9404 10 17.5 9.44036 17.5 8.75C17.5 8.05964 16.9404 7.5 16.25 7.5C15.5596 7.5 15 8.05964 15 8.75C15 9.44036 15.5596 10 16.25 10Z" fill="#4F8A86"/>
<path d="M38.75 33.75H33.75C33.5858 33.75 33.4233 33.7823 33.2716 33.8451C33.12 33.908 32.9822 34 32.8661 34.1161C32.75 34.2322 32.658 34.37 32.5951 34.5216C32.5323 34.6733 32.5 34.8358 32.5 35V40C32.5 40.1642 32.5323 40.3267 32.5951 40.4784C32.658 40.63 32.75 40.7678 32.8661 40.8839C32.9822 41 33.12 41.092 33.2716 41.1549C33.4233 41.2177 33.5858 41.25 33.75 41.25H38.75C38.9142 41.25 39.0767 41.2177 39.2284 41.1549C39.38 41.092 39.5178 41 39.6339 40.8839C39.75 40.7678 39.842 40.63 39.9049 40.4784C39.9677 40.3267 40 40.1642 40 40V35C40 34.8358 39.9677 34.6733 39.9049 34.5216C39.842 34.37 39.75 34.2322 39.6339 34.1161C39.5178 34 39.38 33.908 39.2284 33.8451C39.0767 33.7823 38.9142 33.75 38.75 33.75ZM37.5 38.75H35V36.25H37.5V38.75Z" fill="#4F8A86"/>
<path d="M43.75 36.25H47.5V38.75H43.75V36.25Z" fill="white"/>
<path d="M50 36.25H67.5V38.75H50V36.25Z" fill="#4F8A86"/>
<path d="M38.75 43.75H33.75C33.5858 43.75 33.4233 43.7823 33.2716 43.8451C33.12 43.908 32.9822 44 32.8661 44.1161C32.75 44.2322 32.658 44.37 32.5951 44.5216C32.5323 44.6733 32.5 44.8358 32.5 45V50C32.5 50.1642 32.5323 50.3267 32.5951 50.4784C32.658 50.63 32.75 50.7678 32.8661 50.8839C32.9822 51 33.12 51.092 33.2716 51.1549C33.4233 51.2177 33.5858 51.25 33.75 51.25H38.75C38.9142 51.25 39.0767 51.2177 39.2284 51.1549C39.38 51.092 39.5178 51 39.6339 50.8839C39.75 50.7678 39.842 50.63 39.9049 50.4784C39.9677 50.3267 40 50.1642 40 50V45C40 44.8358 39.9677 44.6733 39.9049 44.5216C39.842 44.37 39.75 44.2322 39.6339 44.1161C39.5178 44 39.38 43.908 39.2284 43.8451C39.0767 43.7823 38.9142 43.75 38.75 43.75ZM37.5 48.75H35V46.25H37.5V48.75Z" fill="#4F8A86"/>
<path d="M43.75 46.25H47.5V48.75H43.75V46.25Z" fill="white"/>
<path d="M50 46.25H67.5V48.75H50V46.25Z" fill="#4F8A86"/>
<path d="M38.75 53.75H33.75C33.5858 53.75 33.4233 53.7823 33.2716 53.8451C33.12 53.908 32.9822 54 32.8661 54.1161C32.75 54.2322 32.658 54.37 32.5951 54.5216C32.5323 54.6733 32.5 54.8358 32.5 55V60C32.5 60.1642 32.5323 60.3267 32.5951 60.4784C32.658 60.63 32.75 60.7678 32.8661 60.8839C32.9822 61 33.12 61.092 33.2716 61.1549C33.4233 61.2177 33.5858 61.25 33.75 61.25H38.75C38.9142 61.25 39.0767 61.2177 39.2284 61.1549C39.38 61.092 39.5178 61 39.6339 60.8839C39.75 60.7678 39.842 60.63 39.9049 60.4784C39.9677 60.3267 40 60.1642 40 60V55C40 54.8358 39.9677 54.6733 39.9049 54.5216C39.842 54.37 39.75 54.2322 39.6339 54.1161C39.5178 54 39.38 53.908 39.2284 53.8451C39.0767 53.7823 38.9142 53.75 38.75 53.75ZM37.5 58.75H35V56.25H37.5V58.75Z" fill="#4F8A86"/>
<path d="M43.75 56.25H47.5V58.75H43.75V56.25Z" fill="white"/>
<path d="M50 56.25H67.5V58.75H50V56.25Z" fill="#4F8A86"/>
<path d="M38.75 63.75H33.75C33.5858 63.75 33.4233 63.7823 33.2716 63.8451C33.12 63.908 32.9822 64 32.8661 64.1161C32.75 64.2322 32.658 64.37 32.5951 64.5216C32.5323 64.6733 32.5 64.8358 32.5 65V70C32.5 70.1642 32.5323 70.3267 32.5951 70.4784C32.658 70.63 32.75 70.7678 32.8661 70.8839C32.9822 71 33.12 71.092 33.2716 71.1549C33.4233 71.2177 33.5858 71.25 33.75 71.25H38.75C38.9142 71.25 39.0767 71.2177 39.2284 71.1549C39.38 71.092 39.5178 71 39.6339 70.8839C39.75 70.7678 39.842 70.63 39.9049 70.4784C39.9677 70.3267 40 70.1642 40 70V65C40 64.8358 39.9677 64.6733 39.9049 64.5216C39.842 64.37 39.75 64.2322 39.6339 64.1161C39.5178 64 39.38 63.908 39.2284 63.8451C39.0767 63.7823 38.9142 63.75 38.75 63.75ZM37.5 68.75H35V66.25H37.5V68.75Z" fill="#4F8A86"/>
<path d="M43.75 66.25H47.5V68.75H43.75V66.25Z" fill="white"/>
<path d="M50 66.25H67.5V68.75H50V66.25Z" fill="#4F8A86"/>
<path d="M70 15H10C9.83585 15 9.6733 15.0323 9.52164 15.0951C9.36998 15.158 9.23218 15.25 9.11611 15.3661C9.00003 15.4822 8.90796 15.62 8.84514 15.7716C8.78232 15.9233 8.75 16.0858 8.75 16.25V70C8.75 70.1642 8.78232 70.3267 8.84514 70.4784C8.90796 70.63 9.00003 70.7678 9.11611 70.8839C9.23218 71 9.36998 71.092 9.52164 71.1549C9.6733 71.2177 9.83585 71.25 10 71.25H27.5C27.6642 71.25 27.8267 71.2177 27.9784 71.1549C28.13 71.092 28.2678 71 28.3839 70.8839C28.5 70.7678 28.592 70.63 28.6549 70.4784C28.7177 70.3267 28.75 70.1642 28.75 70V30H70C70.1642 30 70.3267 29.9677 70.4784 29.9049C70.63 29.842 70.7678 29.75 70.8839 29.6339C71 29.5178 71.092 29.38 71.1549 29.2284C71.2177 29.0767 71.25 28.9142 71.25 28.75V16.25C71.25 16.0858 71.2177 15.9233 71.1549 15.7716C71.092 15.62 71 15.4822 70.8839 15.3661C70.7678 15.25 70.63 15.158 70.4784 15.0951C70.3267 15.0323 70.1642 15 70 15ZM26.25 68.75H11.25V30H26.25V68.75ZM68.75 27.5H11.25V17.5H68.75V27.5Z" fill="#EB9F2D"/>
</svg>
