<svg width="80" height="80" viewBox="0 0 80 80" fill="none" xmlns="http://www.w3.org/2000/svg">
<g clip-path="url(#clip0)">
<path d="M79.6742 34.1187L66.2843 16.7249C65.7887 16.0816 64.8847 15.9229 64.1993 16.3587L55.5543 21.8567H44.2793C44.1334 21.8567 43.9881 21.8878 43.8478 21.9287L35.1057 24.4452L26.0346 21.9641L17.2206 16.3587C16.5467 15.9302 15.6593 16.0755 15.1582 16.6968L0.347991 35.0415C-0.184236 35.7007 -0.0963451 36.6632 0.545745 37.2156L8.3082 43.8959L15.2723 53.2807C13.2356 55.4505 13.2752 58.8727 15.3944 60.9925C16.3337 61.9312 17.5282 62.4616 18.7568 62.5849C18.7141 62.8632 18.6921 63.1458 18.6921 63.4327C18.6921 64.9134 19.2689 66.3056 20.3156 67.3523C21.363 68.3997 22.7552 68.9765 24.2359 68.9765C24.2561 68.9765 24.2756 68.9753 24.2951 68.9747C24.2945 69.0125 24.2927 69.0497 24.2927 69.0876C24.2927 70.5683 24.8695 71.9605 25.9162 73.0079C26.9636 74.0546 28.3558 74.6314 29.8365 74.6314C30.1289 74.6314 30.4182 74.6076 30.702 74.5636C30.8222 75.7966 31.3539 76.9965 32.2962 77.9389C33.3766 79.0198 34.7962 79.56 36.2159 79.56C37.6356 79.56 39.0553 79.0198 40.1362 77.9389L40.984 77.0911L41.3398 77.378C42.4116 78.4162 43.8032 78.935 45.1948 78.935C46.6145 78.935 48.0342 78.3948 49.1145 77.3139C50.2174 76.211 50.7575 74.7553 50.735 73.3069C52.1827 73.3289 53.639 72.7894 54.7419 71.6871C55.8436 70.5848 56.3838 69.1303 56.3624 67.6825C57.8706 67.7063 59.3012 67.1271 60.3687 66.0596C61.4717 64.9567 62.0118 63.501 61.9892 62.0527C63.4382 62.0746 64.8933 61.5351 65.9962 60.4322C67.8785 58.5499 68.1208 55.6403 66.725 53.4925L71.8098 42.8431L79.4544 36.2647C80.0862 35.7209 80.1826 34.7785 79.6742 34.1187ZM16.7188 19.7577L23.0567 23.7879L9.2695 40.5848L3.7446 35.8295L16.7188 19.7577ZM17.613 55.3705L19.5258 53.4577C19.5838 53.3997 19.6449 53.3448 19.7071 53.2935C20.0813 52.9883 20.5342 52.8064 21.0139 52.7631C21.0273 52.7619 21.0414 52.7619 21.0548 52.7613C21.1231 52.7558 21.1915 52.7521 21.2605 52.7527C21.916 52.7619 22.5251 53.0298 22.9768 53.5065C23.863 54.4434 23.8154 55.9742 22.8706 56.919L21.0157 58.7738C20.0776 59.712 18.5511 59.712 17.613 58.7738C16.6749 57.8351 16.6749 56.3086 17.613 55.3705ZM22.5343 65.1337C22.0796 64.6796 21.8293 64.0754 21.8293 63.4327C21.8293 62.79 22.0796 62.1857 22.5343 61.731L26.2434 58.0219C26.9538 57.3114 28.0708 57.1167 28.979 57.5495C29.9153 57.9957 30.442 59.0119 30.3047 60.0342C30.2314 60.5799 29.9775 61.0938 29.5881 61.4838L25.9376 65.1337C25.4829 65.5884 24.8786 65.8387 24.2359 65.8387C23.5932 65.8387 22.989 65.5884 22.5343 65.1337ZM28.1349 70.7886C27.6801 70.3345 27.4299 69.7303 27.4299 69.0876C27.4299 68.4449 27.6801 67.8406 28.1349 67.3859L31.8434 63.6768C32.6032 62.9175 33.8221 62.754 34.7523 63.2953C35.6019 63.7897 36.0468 64.7602 35.901 65.727C35.821 66.2586 35.5683 66.7585 35.1881 67.1387L31.5382 70.7886C31.0835 71.2433 30.4792 71.4936 29.8365 71.4936C29.1938 71.4936 28.5896 71.2433 28.1349 70.7886ZM34.5143 75.7203C33.5761 74.7822 33.5761 73.2557 34.5143 72.3176L36.4271 70.4047C36.4851 70.3467 36.5455 70.2924 36.6078 70.2411C36.6096 70.2399 36.6108 70.2387 36.612 70.2375C36.9233 69.9848 37.2889 69.8157 37.6789 69.7419C37.6881 69.7407 37.6972 69.7394 37.7064 69.7382C37.7735 69.726 37.8419 69.7162 37.9103 69.7101C37.9377 69.7077 37.9652 69.7077 37.9933 69.7059C38.0494 69.7028 38.105 69.6991 38.1617 69.6998C38.8166 69.7089 39.4264 69.9762 39.878 70.4535C39.9336 70.5121 39.9854 70.5732 40.0331 70.636C40.7545 71.579 40.6574 72.9798 39.7621 73.8758L37.917 75.7209C36.9789 76.659 35.4524 76.6584 34.5143 75.7203ZM63.7776 58.2135C62.8395 59.1523 61.313 59.1517 60.3749 58.2135C60.3407 58.1794 60.3047 58.1476 60.268 58.1177L50.1814 47.9248C49.5716 47.309 48.5786 47.3041 47.9627 47.9139C47.3469 48.523 47.342 49.516 47.9511 50.1319L58.1471 60.434C58.1483 60.4352 58.1495 60.4364 58.1507 60.4377C59.0888 61.3758 59.0888 62.9029 58.1507 63.841C57.696 64.2957 57.0918 64.5459 56.4491 64.5459C55.8058 64.5459 55.2015 64.2957 54.7474 63.841L47.9267 56.9495C47.3176 56.3337 46.3246 56.3288 45.7087 56.9379C45.0929 57.5477 45.088 58.5407 45.6971 59.1565L52.4134 65.9424C52.4476 65.9852 52.4842 66.026 52.5233 66.0651C53.4614 67.0032 53.4614 68.5303 52.5233 69.4684C51.5846 70.4065 50.0575 70.4059 49.1194 69.4678L45.3968 65.7062C44.7871 65.0904 43.794 65.0849 43.1782 65.6946C42.5624 66.3038 42.5575 67.2968 43.1666 67.9126L46.7854 71.5687C46.8196 71.6114 46.8562 71.6529 46.8958 71.6919C47.834 72.6301 47.834 74.1572 46.8958 75.0953C45.9577 76.034 44.4312 76.0334 43.4931 75.0953C43.3851 74.9872 43.2582 74.9042 43.1373 74.8115C43.0348 74.7333 43.0079 74.679 43.0592 74.5545C43.1111 74.4282 43.1886 74.314 43.2405 74.1871C43.2978 74.0455 43.3442 73.8996 43.3894 73.7531C43.6299 72.978 43.7007 72.1442 43.5926 71.3398C43.3851 69.7962 42.5361 68.4034 41.2495 67.522C40.5543 67.0466 39.7499 66.7347 38.9161 66.6175C39.3202 64.8353 38.8349 62.9029 37.5727 61.5693C36.5339 60.4718 35.1307 59.856 33.6213 59.8353C33.5664 59.8346 33.5114 59.8346 33.4559 59.8353C33.4895 58.3948 32.9658 56.9635 31.9727 55.9143C30.9333 54.8169 29.5301 54.2011 28.0213 54.1803C27.5727 54.1742 27.1198 54.2218 26.6828 54.3226C26.4961 53.0231 25.8412 51.8207 24.8493 50.9607C23.8636 50.1075 22.624 49.6338 21.3038 49.6155C19.914 49.5954 18.5487 50.1081 17.5166 51.0401L11.4527 42.8693L25.9596 25.196L30.583 26.4606L24.5448 37.1155C23.8148 38.404 23.6305 39.8993 24.0254 41.3263C24.4203 42.7539 25.3468 43.9417 26.6352 44.6717C26.7158 44.7174 26.797 44.7608 26.8794 44.8023C26.8855 44.8053 26.8916 44.8084 26.8983 44.8114C27.115 44.9195 27.3377 45.0122 27.5636 45.0904C28.6152 45.4548 29.7511 45.4944 30.8467 45.1917C32.2737 44.7968 33.4614 43.8697 34.1914 42.5818L38.1153 35.6574L45.1216 36.1542L63.7782 54.8102C64.7157 55.7489 64.7157 57.2754 63.7776 58.2135ZM64.4276 51.023L46.9258 33.5218C46.8928 33.4882 46.858 33.4565 46.822 33.4265C46.5699 33.2166 46.2574 33.0896 45.9278 33.0664L37.3493 32.4579C36.7561 32.417 36.1665 32.7326 35.8735 33.2495L31.4619 41.0352C31.1451 41.5943 30.6294 41.9965 30.0099 42.168C29.391 42.3395 28.7415 42.2589 28.1819 41.9422C27.6228 41.6254 27.2206 41.1097 27.049 40.4901C26.8775 39.8706 26.9575 39.2212 27.2749 38.6621L33.1642 28.2685L35.5506 27.5818C35.5665 27.5769 35.5818 27.5708 35.5976 27.566L44.5045 24.9939H55.2662L68.7013 42.0728L64.4276 51.023ZM70.7563 39.6106L58.332 23.808L64.673 19.7754L76.2824 34.8554L70.7563 39.6106Z" fill="#4F8A86"/>
<path d="M48.4663 18.9111C48.8679 18.9111 49.2695 18.7579 49.5759 18.4515L60.2913 7.73615C60.9041 7.12335 60.9041 6.13031 60.2913 5.51752C59.6785 4.90472 58.6854 4.90472 58.0726 5.51752L47.3573 16.2329C46.7445 16.8456 46.7445 17.8387 47.3573 18.4515C47.6637 18.7579 48.0653 18.9111 48.4663 18.9111Z" fill="#EB9F2D"/>
<path d="M30.4242 18.4515C30.7306 18.7579 31.1322 18.9111 31.5338 18.9111C31.9348 18.9111 32.3364 18.7579 32.6428 18.4515C33.2556 17.8387 33.2556 16.8456 32.6428 16.2329L21.9275 5.51752C21.3147 4.90472 20.3217 4.90472 19.7089 5.51752C19.0961 6.13031 19.0961 7.12335 19.7089 7.73615L30.4242 18.4515Z" fill="#EB9F2D"/>
<path d="M40 18.9112C40.8661 18.9112 41.5686 18.2087 41.5686 17.3426V8.47479C41.5686 7.6087 40.8661 6.90619 40 6.90619C39.1339 6.90619 38.4314 7.6087 38.4314 8.47479V17.3426C38.4314 18.2087 39.1339 18.9112 40 18.9112Z" fill="#EB9F2D"/>
<path d="M38.5522 2.78935C38.8012 3.39299 39.4219 3.78911 40.0768 3.75493C40.7238 3.72136 41.292 3.28435 41.4922 2.6685C41.693 2.04778 41.4745 1.34038 40.9545 0.944872C40.4241 0.540819 39.6844 0.518236 39.1296 0.885057C38.5107 1.29399 38.2708 2.1082 38.5522 2.78935Z" fill="#EB9F2D"/>
</g>
<defs>
<clipPath id="clip0">
<rect width="80" height="80" fill="white"/>
</clipPath>
</defs>
</svg>
