<svg width="555" height="137" viewBox="0 0 555 137" fill="none" xmlns="http://www.w3.org/2000/svg">
<path d="M21.832 132.624H544.574C544.574 132.624 531.982 107.414 515.526 99.1776C499.069 90.9408 490.342 107.414 470.146 96.0575C449.949 84.7007 454.437 58.2431 431.623 42.3935C408.933 26.6687 384.996 44.2655 364.176 43.0175C343.356 41.7695 337.123 13.9391 314.308 10.8191C291.618 7.69912 292.241 33.9071 271.422 41.7695C250.602 49.6319 236.265 36.9023 221.554 37.4015C206.842 37.9007 209.585 46.8863 195.747 53.1263C181.908 59.4911 179.29 56.2463 152.86 58.8671C126.43 61.3631 120.072 88.5695 110.597 96.0575C101.122 103.67 88.5305 91.6895 68.9573 96.0575C49.6335 100.426 21.832 132.624 21.832 132.624Z" fill="#62A68A"/>
<g opacity="0.8">
<path opacity="0.8" d="M21.832 132.624H544.574C544.574 132.624 531.982 107.414 515.526 99.1776C499.069 90.9408 490.342 107.414 470.146 96.0575C449.949 84.7007 454.437 58.2431 431.623 42.3935C408.933 26.6687 384.996 44.2655 364.176 43.0175C343.356 41.7695 337.123 13.9391 314.308 10.8191C291.618 7.69912 292.241 33.9071 271.422 41.7695C250.602 49.6319 236.265 36.9023 221.554 37.4015C206.842 37.9007 209.585 46.8863 195.747 53.1263C181.908 59.4911 179.29 56.2463 152.86 58.8671C126.43 61.3631 120.072 88.5695 110.597 96.0575C101.122 103.67 88.5305 91.6895 68.9573 96.0575C49.6335 100.426 21.832 132.624 21.832 132.624Z" fill="#62A68A"/>
</g>
<path d="M459.798 36.6527C460.796 41.8943 472.639 58.8671 477.003 68.4767C476.005 67.1039 474.883 65.7311 473.637 64.3583C472.764 62.7359 471.891 60.9887 471.019 59.6159C469.647 57.4943 468.151 55.4975 466.531 53.5007C464.037 50.3807 461.294 47.5103 458.178 45.1391C454.438 42.2687 450.323 40.2719 445.586 39.8975C444.339 39.7727 437.233 39.2735 438.854 42.1439C439.103 42.6431 439.602 42.8927 440.1 43.1423C444.464 45.8879 449.326 47.2607 453.939 49.3823C460.796 52.6271 470.021 61.2383 473.761 64.9823C474.26 65.7311 474.883 66.4799 475.631 67.4783C468.899 61.1135 457.804 57.4943 453.939 59.2415C449.201 61.3631 459.3 63.6095 467.902 65.8559C473.512 67.3535 476.754 69.5999 478.25 71.0975C479.87 73.3439 481.74 75.8399 483.61 78.3359C483.86 78.7103 484.109 79.0847 484.234 79.4591C482.862 77.9615 481.366 76.4639 479.746 75.3407C475.382 72.3455 463.289 70.4735 462.042 74.5919C460.796 78.7103 469.398 76.8383 476.754 77.9615C481.74 78.7103 485.48 81.7055 487.226 83.5775C487.35 83.7023 487.6 83.9519 487.724 84.0767C488.597 85.1999 489.345 86.4479 490.093 87.4463C491.839 90.0671 493.459 92.4383 495.08 94.8095C492.961 92.1887 489.844 88.6943 486.353 86.3231C479.87 81.9551 471.268 80.9567 468.151 83.3279C465.035 85.6991 479.496 87.8207 486.602 90.3167C491.963 92.1887 495.703 96.0575 497.075 97.8047C499.443 101.05 501.688 104.294 504.181 107.664C500.94 104.669 496.327 101.299 491.465 98.1791C484.234 93.4367 476.629 94.0607 474.634 96.9311C472.639 99.8015 478.748 99.9263 490.218 102.422C498.446 104.17 503.932 108.413 506.425 110.659C507.422 112.032 508.544 113.53 509.666 115.027C510.913 116.774 512.409 118.522 514.03 120.269C512.035 119.395 509.292 118.147 506.051 116.774C502.56 115.277 499.069 113.654 495.828 111.658C492.088 109.286 486.976 106.79 482.488 108.787C480.992 109.411 480.369 110.784 480.992 112.282C481.366 113.155 482.239 113.779 483.236 114.278C488.223 117.024 494.332 117.773 499.817 118.896C506.55 120.394 512.285 121.018 515.027 121.267C516.523 122.89 518.019 124.387 519.64 125.76C519.266 125.885 518.643 126.009 517.396 126.134C514.653 126.633 501.563 123.014 494.955 122.141C488.473 121.267 483.112 125.635 490.218 128.131C497.324 130.627 515.027 127.008 515.027 127.008L520.139 126.01C526.248 131.75 531.858 136.118 531.858 136.118L534.226 134.496C534.226 134.496 529.364 133.123 521.136 125.386C521.011 124.762 520.887 123.514 521.011 120.768C521.51 112.032 528.741 102.173 523.255 93.6863C521.884 91.6895 519.017 90.5663 517.396 92.8127C516.274 94.4351 516.274 97.1807 516.648 99.0527C517.895 105.168 519.765 110.659 519.391 117.149C519.391 117.398 519.391 121.766 519.64 124.138C518.518 123.014 517.396 121.766 516.149 120.518C515.152 118.147 514.279 115.526 513.781 113.03C512.16 106.291 513.781 99.0527 512.659 92.0639C512.285 89.9423 509.043 84.9503 507.422 89.3183C506.674 91.3151 507.672 94.9343 507.796 96.9311C508.17 102.797 508.794 108.912 511.038 114.278C510.664 113.904 510.414 113.405 510.04 113.03C509.542 111.533 507.048 104.669 505.428 96.3071C503.682 86.9471 503.932 78.9599 500.94 76.4639C497.947 73.9679 498.072 84.4511 500.94 95.3087C502.56 101.424 505.178 106.291 507.298 109.411C504.056 105.293 500.815 101.05 497.823 96.9311C496.451 94.6847 493.085 88.6943 492.711 82.0799C492.213 73.7183 491.714 66.9791 487.849 62.8607C483.984 58.7423 483.86 61.8623 486.852 71.2223C488.971 77.7119 491.465 86.3231 494.332 92.1887C491.963 88.9439 489.719 85.8239 487.724 83.0783C486.353 80.2079 483.112 72.7199 482.114 66.3551C480.868 58.1183 479.247 53.8751 477.128 55.9967C475.631 57.4943 478.25 67.4783 482.364 75.5903C480.743 73.2191 479.372 71.3471 478.748 70.2239C478.374 69.7247 478 69.2255 477.626 68.6015C476.629 65.3567 474.26 57.6191 470.645 49.2575C465.533 38.6495 458.801 30.9119 459.798 36.6527Z" fill="#517969"/>
<g opacity="0.6">
<path opacity="0.6" d="M459.798 36.6527C460.796 41.8943 472.639 58.8671 477.003 68.4767C476.005 67.1039 474.883 65.7311 473.637 64.3583C472.764 62.7359 471.891 60.9887 471.019 59.6159C469.647 57.4943 468.151 55.4975 466.531 53.5007C464.037 50.3807 461.294 47.5103 458.178 45.1391C454.438 42.2687 450.323 40.2719 445.586 39.8975C444.339 39.7727 437.233 39.2735 438.854 42.1439C439.103 42.6431 439.602 42.8927 440.1 43.1423C444.464 45.8879 449.326 47.2607 453.939 49.3823C460.796 52.6271 470.021 61.2383 473.761 64.9823C474.26 65.7311 474.883 66.4799 475.631 67.4783C468.899 61.1135 457.804 57.4943 453.939 59.2415C449.201 61.3631 459.3 63.6095 467.902 65.8559C473.512 67.3535 476.754 69.5999 478.25 71.0975C479.87 73.3439 481.74 75.8399 483.61 78.3359C483.86 78.7103 484.109 79.0847 484.234 79.4591C482.862 77.9615 481.366 76.4639 479.746 75.3407C475.382 72.3455 463.289 70.4735 462.042 74.5919C460.796 78.7103 469.398 76.8383 476.754 77.9615C481.74 78.7103 485.48 81.7055 487.226 83.5775C487.35 83.7023 487.6 83.9519 487.724 84.0767C488.597 85.1999 489.345 86.4479 490.093 87.4463C491.839 90.0671 493.459 92.4383 495.08 94.8095C492.961 92.1887 489.844 88.6943 486.353 86.3231C479.87 81.9551 471.268 80.9567 468.151 83.3279C465.035 85.6991 479.496 87.8207 486.602 90.3167C491.963 92.1887 495.703 96.0575 497.075 97.8047C499.443 101.05 501.688 104.294 504.181 107.664C500.94 104.669 496.327 101.299 491.465 98.1791C484.234 93.4367 476.629 94.0607 474.634 96.9311C472.639 99.8015 478.748 99.9263 490.218 102.422C498.446 104.17 503.932 108.413 506.425 110.659C507.422 112.032 508.544 113.53 509.666 115.027C510.913 116.774 512.409 118.522 514.03 120.269C512.035 119.395 509.292 118.147 506.051 116.774C502.56 115.277 499.069 113.654 495.828 111.658C492.088 109.286 486.976 106.79 482.488 108.787C480.992 109.411 480.369 110.784 480.992 112.282C481.366 113.155 482.239 113.779 483.236 114.278C488.223 117.024 494.332 117.773 499.817 118.896C506.55 120.394 512.285 121.018 515.027 121.267C516.523 122.89 518.019 124.387 519.64 125.76C519.266 125.885 518.643 126.009 517.396 126.134C514.653 126.633 501.563 123.014 494.955 122.141C488.473 121.267 483.112 125.635 490.218 128.131C497.324 130.627 515.027 127.008 515.027 127.008L520.139 126.01C526.248 131.75 531.858 136.118 531.858 136.118L534.226 134.496C534.226 134.496 529.364 133.123 521.136 125.386C521.011 124.762 520.887 123.514 521.011 120.768C521.51 112.032 528.741 102.173 523.255 93.6863C521.884 91.6895 519.017 90.5663 517.396 92.8127C516.274 94.4351 516.274 97.1807 516.648 99.0527C517.895 105.168 519.765 110.659 519.391 117.149C519.391 117.398 519.391 121.766 519.64 124.138C518.518 123.014 517.396 121.766 516.149 120.518C515.152 118.147 514.279 115.526 513.781 113.03C512.16 106.291 513.781 99.0527 512.659 92.0639C512.285 89.9423 509.043 84.9503 507.422 89.3183C506.674 91.3151 507.672 94.9343 507.796 96.9311C508.17 102.797 508.794 108.912 511.038 114.278C510.664 113.904 510.414 113.405 510.04 113.03C509.542 111.533 507.048 104.669 505.428 96.3071C503.682 86.9471 503.932 78.9599 500.94 76.4639C497.947 73.9679 498.072 84.4511 500.94 95.3087C502.56 101.424 505.178 106.291 507.298 109.411C504.056 105.293 500.815 101.05 497.823 96.9311C496.451 94.6847 493.085 88.6943 492.711 82.0799C492.213 73.7183 491.714 66.9791 487.849 62.8607C483.984 58.7423 483.86 61.8623 486.852 71.2223C488.971 77.7119 491.465 86.3231 494.332 92.1887C491.963 88.9439 489.719 85.8239 487.724 83.0783C486.353 80.2079 483.112 72.7199 482.114 66.3551C480.868 58.1183 479.247 53.8751 477.128 55.9967C475.631 57.4943 478.25 67.4783 482.364 75.5903C480.743 73.2191 479.372 71.3471 478.748 70.2239C478.374 69.7247 478 69.2255 477.626 68.6015C476.629 65.3567 474.26 57.6191 470.645 49.2575C465.533 38.6495 458.801 30.9119 459.798 36.6527Z" fill="#517969"/>
</g>
<path d="M548.189 12.3168C545.322 16.8096 542.08 37.2767 538.714 47.2607C538.839 45.6383 538.964 43.7663 539.088 42.0191C539.462 40.2719 540.21 38.4 540.46 36.7776C540.834 34.2816 541.208 31.7856 541.457 29.2896C541.706 25.296 541.706 21.3024 541.083 17.4336C540.335 12.816 538.714 8.44796 535.598 4.95356C534.85 4.07996 529.987 -1.28647 529.239 1.95833C529.115 2.45753 529.239 2.95675 529.364 3.58075C530.735 8.57275 533.229 12.9407 535.099 17.6831C537.842 24.7967 538.59 37.2767 538.714 42.6431C538.59 43.5167 538.465 44.6399 538.34 45.7631C537.842 36.5279 532.232 26.1696 528.242 24.7968C523.38 23.1744 529.115 31.6608 533.852 39.1488C536.844 44.0159 537.592 47.8847 537.717 50.1311C537.343 52.8767 536.969 55.9967 536.595 59.1167C536.47 59.6159 536.346 59.9903 536.346 60.3647C536.47 58.3679 536.346 56.1215 535.972 54.3743C534.85 49.1327 527.369 39.5231 523.629 41.5199C519.889 43.6415 527.369 48.1343 531.982 54.1247C535.099 58.2431 535.722 62.8607 535.722 65.3567C535.722 65.6063 535.722 65.8559 535.722 66.1056C535.473 67.4784 535.348 68.9759 535.099 70.2239C534.6 73.3439 534.102 76.2143 533.728 78.9599C534.102 75.5903 534.226 70.9728 533.354 66.7296C531.733 59.1168 526.123 52.5023 522.258 52.0031C518.393 51.5039 527.369 63.1104 530.735 69.8495C533.354 74.9664 533.354 80.2079 533.229 82.4543C532.606 86.4479 532.107 90.3167 531.608 94.5599C531.359 90.0671 530.237 84.4511 528.99 78.9599C526.995 70.4735 521.136 65.7311 517.645 66.4799C514.154 67.2287 518.518 71.5967 525.125 81.2063C529.863 88.1951 530.86 95.0591 531.109 98.3039C530.86 100.051 530.735 101.798 530.486 103.67C530.237 105.792 530.112 108.163 530.112 110.41C529.364 108.413 528.117 105.542 526.746 102.422C525.25 98.9279 523.879 95.3087 522.881 91.5647C521.759 87.3215 519.765 81.9551 515.152 80.3327C513.531 79.8335 512.284 80.2079 511.661 81.8303C511.287 82.8287 511.536 83.8271 511.786 84.8255C513.531 90.1919 517.52 95.0591 520.637 99.6767C524.502 105.418 528.242 109.786 529.987 111.907C529.987 114.029 530.112 116.275 530.112 118.397C529.863 118.147 529.239 117.773 528.117 117.149C525.749 115.651 518.767 103.92 514.653 98.8031C510.539 93.6863 503.682 93.1871 507.048 99.9263C510.414 106.666 525.749 116.275 525.749 116.275L530.112 119.146C530.611 127.507 531.608 134.496 531.608 134.496L534.476 134.995C534.476 134.995 531.858 130.627 531.234 119.27C531.608 118.771 532.356 117.648 534.351 115.901C540.709 109.91 552.802 107.789 554.547 97.8047C555.046 95.4335 553.675 92.5631 550.932 93.1871C548.937 93.5615 547.192 95.5583 546.195 97.1807C542.828 102.422 540.46 107.789 535.722 112.157C535.473 112.406 532.606 115.526 531.109 117.398C531.109 115.776 531.109 114.154 531.109 112.282C532.107 109.786 533.229 107.414 534.476 105.168C537.966 99.1775 544.2 95.0591 548.065 89.1935C549.311 87.4463 550.309 81.4559 546.195 83.5775C544.325 84.4511 542.454 87.8207 541.208 89.3183C537.468 93.8111 533.728 98.5535 531.608 104.17C531.608 103.67 531.733 103.171 531.733 102.547C532.356 101.05 535.348 94.3103 539.961 87.3215C545.197 79.3343 550.807 73.7184 550.433 69.8495C549.935 65.9808 542.953 73.5935 537.343 83.5775C534.226 89.0687 532.855 94.4351 532.232 98.0543C532.73 92.8127 533.354 87.5711 533.977 82.4543C534.476 79.8335 536.221 73.2191 540.46 68.1023C545.821 61.7375 550.184 56.3711 550.184 50.7551C550.309 45.1391 547.94 47.2608 543.701 56.1216C540.709 62.2368 536.595 70.2239 534.725 76.4639C535.224 72.4703 535.722 68.7263 536.221 65.3567C537.218 62.3615 539.961 54.7487 543.701 49.3823C548.439 42.5183 550.184 38.3999 547.192 38.5247C545.073 38.6496 540.21 47.6351 537.468 56.2463C537.842 53.3759 538.216 51.1296 538.465 49.8816C538.59 49.2576 538.59 48.6336 538.714 48.0096C540.335 45.0144 543.826 37.6511 546.943 29.0399C550.932 17.6831 551.306 7.44955 548.189 12.3168Z" fill="#517969"/>
<g opacity="0.6">
<path opacity="0.6" d="M548.189 12.3168C545.322 16.8096 542.08 37.2767 538.714 47.2607C538.839 45.6383 538.964 43.7663 539.088 42.0191C539.462 40.2719 540.21 38.4 540.46 36.7776C540.834 34.2816 541.208 31.7856 541.457 29.2896C541.706 25.296 541.706 21.3024 541.083 17.4336C540.335 12.816 538.714 8.44796 535.598 4.95356C534.85 4.07996 529.987 -1.28647 529.239 1.95833C529.115 2.45753 529.239 2.95675 529.364 3.58075C530.735 8.57275 533.229 12.9407 535.099 17.6831C537.842 24.7967 538.59 37.2767 538.714 42.6431C538.59 43.5167 538.465 44.6399 538.34 45.7631C537.842 36.5279 532.232 26.1696 528.242 24.7968C523.38 23.1744 529.115 31.6608 533.852 39.1488C536.844 44.0159 537.592 47.8847 537.717 50.1311C537.343 52.8767 536.969 55.9967 536.595 59.1167C536.47 59.6159 536.346 59.9903 536.346 60.3647C536.47 58.3679 536.346 56.1215 535.972 54.3743C534.85 49.1327 527.369 39.5231 523.629 41.5199C519.889 43.6415 527.369 48.1343 531.982 54.1247C535.099 58.2431 535.722 62.8607 535.722 65.3567C535.722 65.6063 535.722 65.8559 535.722 66.1056C535.473 67.4784 535.348 68.9759 535.099 70.2239C534.6 73.3439 534.102 76.2143 533.728 78.9599C534.102 75.5903 534.226 70.9728 533.354 66.7296C531.733 59.1168 526.123 52.5023 522.258 52.0031C518.393 51.5039 527.369 63.1104 530.735 69.8495C533.354 74.9664 533.354 80.2079 533.229 82.4543C532.606 86.4479 532.107 90.3167 531.608 94.5599C531.359 90.0671 530.237 84.4511 528.99 78.9599C526.995 70.4735 521.136 65.7311 517.645 66.4799C514.154 67.2287 518.518 71.5967 525.125 81.2063C529.863 88.1951 530.86 95.0591 531.109 98.3039C530.86 100.051 530.735 101.798 530.486 103.67C530.237 105.792 530.112 108.163 530.112 110.41C529.364 108.413 528.117 105.542 526.746 102.422C525.25 98.9279 523.879 95.3087 522.881 91.5647C521.759 87.3215 519.765 81.9551 515.152 80.3327C513.531 79.8335 512.284 80.2079 511.661 81.8303C511.287 82.8287 511.536 83.8271 511.786 84.8255C513.531 90.1919 517.52 95.0591 520.637 99.6767C524.502 105.418 528.242 109.786 529.987 111.907C529.987 114.029 530.112 116.275 530.112 118.397C529.863 118.147 529.239 117.773 528.117 117.149C525.749 115.651 518.767 103.92 514.653 98.8031C510.539 93.6863 503.682 93.1871 507.048 99.9263C510.414 106.666 525.749 116.275 525.749 116.275L530.112 119.146C530.611 127.507 531.608 134.496 531.608 134.496L534.476 134.995C534.476 134.995 531.858 130.627 531.234 119.27C531.608 118.771 532.356 117.648 534.351 115.901C540.709 109.91 552.802 107.789 554.547 97.8047C555.046 95.4335 553.675 92.5631 550.932 93.1871C548.937 93.5615 547.192 95.5583 546.195 97.1807C542.828 102.422 540.46 107.789 535.722 112.157C535.473 112.406 532.606 115.526 531.109 117.398C531.109 115.776 531.109 114.154 531.109 112.282C532.107 109.786 533.229 107.414 534.476 105.168C537.966 99.1775 544.2 95.0591 548.065 89.1935C549.311 87.4463 550.309 81.4559 546.195 83.5775C544.325 84.4511 542.454 87.8207 541.208 89.3183C537.468 93.8111 533.728 98.5535 531.608 104.17C531.608 103.67 531.733 103.171 531.733 102.547C532.356 101.05 535.348 94.3103 539.961 87.3215C545.197 79.3343 550.807 73.7184 550.433 69.8495C549.935 65.9808 542.953 73.5935 537.343 83.5775C534.226 89.0687 532.855 94.4351 532.232 98.0543C532.73 92.8127 533.354 87.5711 533.977 82.4543C534.476 79.8335 536.221 73.2191 540.46 68.1023C545.821 61.7375 550.184 56.3711 550.184 50.7551C550.309 45.1391 547.94 47.2608 543.701 56.1216C540.709 62.2368 536.595 70.2239 534.725 76.4639C535.224 72.4703 535.722 68.7263 536.221 65.3567C537.218 62.3615 539.961 54.7487 543.701 49.3823C548.439 42.5183 550.184 38.3999 547.192 38.5247C545.073 38.6496 540.21 47.6351 537.468 56.2463C537.842 53.3759 538.216 51.1296 538.465 49.8816C538.59 49.2576 538.59 48.6336 538.714 48.0096C540.335 45.0144 543.826 37.6511 546.943 29.0399C550.932 17.6831 551.306 7.44955 548.189 12.3168Z" fill="#517969"/>
</g>
<path d="M16.4714 56.9951C17.0947 60.8639 25.4476 73.9679 28.3151 81.2063C27.567 80.2079 26.819 79.0847 25.9463 78.0863C25.323 76.8383 24.8243 75.5903 24.0763 74.4671C23.0789 72.8447 22.0816 71.2223 20.9595 69.7247C19.2141 67.3535 17.2194 65.1071 14.9754 63.2351C12.2326 60.9887 9.24053 59.3663 5.74977 58.9919C4.87708 58.8671 -0.483734 58.2431 0.638297 60.4895C0.762967 60.8639 1.13698 61.1135 1.51099 61.3631C4.75241 63.4847 8.24317 64.7327 11.6093 66.4799C16.7207 69.1007 23.2036 75.8399 25.9463 78.7103C26.3203 79.2095 26.819 79.9583 27.3177 80.7071C22.4556 75.8399 14.2273 72.7199 11.3599 73.9679C7.74449 75.4655 15.2247 77.3375 21.5829 79.3343C25.697 80.5823 28.0657 82.4543 29.1877 83.5775C30.3098 85.3247 31.6811 87.1967 32.9278 89.1935C33.0525 89.4431 33.3019 89.8175 33.4265 90.0671C32.4292 88.9439 31.3071 87.6959 30.1851 86.8223C26.9437 84.4511 18.0921 82.7039 16.9701 85.6991C15.848 88.6943 22.3309 87.5711 27.8164 88.6943C31.5565 89.4431 34.1746 91.8143 35.5459 93.1871C35.6706 93.3119 35.7953 93.4367 35.9199 93.5615C36.5433 94.4351 37.042 95.3087 37.5406 96.1823C38.7873 98.1791 39.9094 100.051 41.1561 101.798C39.66 99.8015 37.416 97.0559 34.9226 95.1839C30.1851 91.6895 23.8269 90.8159 21.4582 92.4383C19.0895 94.0607 29.8111 96.1823 35.0472 98.1791C39.0367 99.8015 41.6548 102.672 42.6521 104.045C44.2728 106.541 45.8935 109.037 47.6389 111.658C45.2702 109.286 41.9041 106.665 38.4133 104.169C33.1772 100.425 27.4424 100.675 25.9463 102.797C24.3256 104.918 28.9384 105.168 37.416 107.414C43.5248 108.912 47.5143 112.281 49.2596 114.029C50.0077 115.152 50.7557 116.275 51.6284 117.398C52.5011 118.771 53.6231 120.019 54.7451 121.392C53.3737 120.643 51.2543 119.645 48.8856 118.521C46.2675 117.274 43.7741 116.025 41.4054 114.403C38.6627 112.531 34.9226 110.534 31.5565 111.907C30.4345 112.406 29.9358 113.28 30.3098 114.403C30.5591 115.152 31.1825 115.651 31.9305 116.026C35.5459 118.147 40.1587 118.896 44.1482 120.019C49.135 121.392 53.3737 122.016 55.3685 122.266C56.4905 123.514 57.4879 124.637 58.6099 125.76C58.3605 125.76 57.8619 125.885 56.8645 126.01C54.8698 126.259 45.1455 123.139 40.2834 122.39C35.4213 121.641 31.3071 124.637 36.5433 126.758C41.7794 128.88 55.1191 126.633 55.1191 126.633L58.9839 126.01C63.3473 130.502 67.4615 133.872 67.4615 133.872L69.3315 132.749C69.3315 132.749 65.7161 131.625 59.8566 125.51C59.7319 125.011 59.7319 124.013 59.9813 122.016C60.6046 115.526 66.2148 108.413 62.35 101.923C61.3526 100.301 59.3579 99.4271 57.9865 101.049C57.1138 102.173 57.1138 104.294 57.2385 105.667C57.9865 110.285 59.2332 114.403 58.7346 119.27C58.7346 119.52 58.6099 122.765 58.7346 124.512C57.9865 123.638 57.1138 122.765 56.2412 121.642C55.6178 119.77 54.9944 117.897 54.6204 116.026C53.6231 110.909 54.9945 105.542 54.3711 100.425C54.1218 98.8031 51.8777 94.9343 50.5063 98.1791C49.883 99.5519 50.5063 102.422 50.5063 103.92C50.631 108.288 50.8803 112.781 52.3764 117.024C52.127 116.649 51.8777 116.4 51.6284 116.026C51.2544 114.902 49.6336 109.661 48.6363 103.421C47.6389 96.4319 48.0129 90.4415 45.8935 88.4447C43.7741 86.4479 43.5248 94.3103 45.2702 102.547C46.2675 107.165 48.1376 110.784 49.509 113.28C47.2649 110.16 44.8962 106.915 42.7768 103.67C41.7794 101.923 39.5354 97.3055 39.286 92.4383C39.1614 86.1983 38.912 81.0815 36.1693 77.9615C33.4265 74.7167 33.1772 77.0879 35.1719 84.2015C36.5433 89.0687 38.164 95.5583 40.1587 100.051C38.538 97.5551 36.9173 95.1839 35.5459 93.0623C34.6732 90.8159 32.4292 85.1999 31.8058 80.3327C31.0578 74.2175 30.0604 70.9727 28.4397 72.4703C27.3177 73.5935 28.9384 81.0815 31.8058 87.1967C30.6838 85.3247 29.6864 83.9519 29.1877 83.0783C28.9384 82.7039 28.6891 82.3295 28.4397 81.8303C27.8164 79.3343 26.1957 73.4687 23.7023 67.1039C20.7102 58.7423 15.848 52.7519 16.4714 56.9951Z" fill="#517969"/>
<path opacity="0.6" d="M16.4714 56.9951C17.0947 60.8639 25.4476 73.9679 28.3151 81.2063C27.567 80.2079 26.819 79.0847 25.9463 78.0863C25.323 76.8383 24.8243 75.5903 24.0763 74.4671C23.0789 72.8447 22.0816 71.2223 20.9595 69.7247C19.2141 67.3535 17.2194 65.1071 14.9754 63.2351C12.2326 60.9887 9.24053 59.3663 5.74977 58.9919C4.87708 58.8671 -0.483734 58.2431 0.638297 60.4895C0.762967 60.8639 1.13698 61.1135 1.51099 61.3631C4.75241 63.4847 8.24317 64.7327 11.6093 66.4799C16.7207 69.1007 23.2036 75.8399 25.9463 78.7103C26.3203 79.2095 26.819 79.9583 27.3177 80.7071C22.4556 75.8399 14.2273 72.7199 11.3599 73.9679C7.74449 75.4655 15.2247 77.3375 21.5829 79.3343C25.697 80.5823 28.0657 82.4543 29.1877 83.5775C30.3098 85.3247 31.6811 87.1967 32.9278 89.1935C33.0525 89.4431 33.3019 89.8175 33.4265 90.0671C32.4292 88.9439 31.3071 87.6959 30.1851 86.8223C26.9437 84.4511 18.0921 82.7039 16.9701 85.6991C15.848 88.6943 22.3309 87.5711 27.8164 88.6943C31.5565 89.4431 34.1746 91.8143 35.5459 93.1871C35.6706 93.3119 35.7953 93.4367 35.9199 93.5615C36.5433 94.4351 37.042 95.3087 37.5406 96.1823C38.7873 98.1791 39.9094 100.051 41.1561 101.798C39.66 99.8015 37.416 97.0559 34.9226 95.1839C30.1851 91.6895 23.8269 90.8159 21.4582 92.4383C19.0895 94.0607 29.8111 96.1823 35.0472 98.1791C39.0367 99.8015 41.6548 102.672 42.6521 104.045C44.2728 106.541 45.8935 109.037 47.6389 111.658C45.2702 109.286 41.9041 106.665 38.4133 104.169C33.1772 100.425 27.4424 100.675 25.9463 102.797C24.3256 104.918 28.9384 105.168 37.416 107.414C43.5248 108.912 47.5143 112.281 49.2596 114.029C50.0077 115.152 50.7557 116.275 51.6284 117.398C52.5011 118.771 53.6231 120.019 54.7451 121.392C53.3737 120.643 51.2543 119.645 48.8856 118.521C46.2675 117.274 43.7741 116.025 41.4054 114.403C38.6627 112.531 34.9226 110.534 31.5565 111.907C30.4345 112.406 29.9358 113.28 30.3098 114.403C30.5591 115.152 31.1825 115.651 31.9305 116.026C35.5459 118.147 40.1587 118.896 44.1482 120.019C49.135 121.392 53.3737 122.016 55.3685 122.266C56.4905 123.514 57.4879 124.637 58.6099 125.76C58.3605 125.76 57.8619 125.885 56.8645 126.01C54.8698 126.259 45.1455 123.139 40.2834 122.39C35.4213 121.641 31.3071 124.637 36.5433 126.758C41.7794 128.88 55.1191 126.633 55.1191 126.633L58.9839 126.01C63.3473 130.502 67.4615 133.872 67.4615 133.872L69.3315 132.749C69.3315 132.749 65.7161 131.625 59.8566 125.51C59.7319 125.011 59.7319 124.013 59.9813 122.016C60.6046 115.526 66.2148 108.413 62.35 101.923C61.3526 100.301 59.3579 99.4271 57.9865 101.049C57.1138 102.173 57.1138 104.294 57.2385 105.667C57.9865 110.285 59.2332 114.403 58.7346 119.27C58.7346 119.52 58.6099 122.765 58.7346 124.512C57.9865 123.638 57.1138 122.765 56.2412 121.642C55.6178 119.77 54.9944 117.897 54.6204 116.026C53.6231 110.909 54.9945 105.542 54.3711 100.425C54.1218 98.8031 51.8777 94.9343 50.5063 98.1791C49.883 99.5519 50.5063 102.422 50.5063 103.92C50.631 108.288 50.8803 112.781 52.3764 117.024C52.127 116.649 51.8777 116.4 51.6284 116.026C51.2544 114.902 49.6336 109.661 48.6363 103.421C47.6389 96.4319 48.0129 90.4415 45.8935 88.4447C43.7741 86.4479 43.5248 94.3103 45.2702 102.547C46.2675 107.165 48.1376 110.784 49.509 113.28C47.2649 110.16 44.8962 106.915 42.7768 103.67C41.7794 101.923 39.5354 97.3055 39.286 92.4383C39.1614 86.1983 38.912 81.0815 36.1693 77.9615C33.4265 74.7167 33.1772 77.0879 35.1719 84.2015C36.5433 89.0687 38.164 95.5583 40.1587 100.051C38.538 97.5551 36.9173 95.1839 35.5459 93.0623C34.6732 90.8159 32.4292 85.1999 31.8058 80.3327C31.0578 74.2175 30.0604 70.9727 28.4397 72.4703C27.3177 73.5935 28.9384 81.0815 31.8058 87.1967C30.6838 85.3247 29.6864 83.9519 29.1877 83.0783C28.9384 82.7039 28.6891 82.3295 28.4397 81.8303C27.8164 79.3343 26.1957 73.4687 23.7023 67.1039C20.7102 58.7423 15.848 52.7519 16.4714 56.9951Z" fill="#517969"/>
<path d="M106.733 53.9999C103.366 56.1215 95.0136 69.1007 89.5281 74.8415C90.1514 73.7183 90.7748 72.5951 91.3981 71.3471C92.2708 70.2239 93.2682 69.2255 93.8915 68.2271C94.8889 66.6047 96.0109 65.1071 96.8836 63.3599C98.255 60.7391 99.5017 57.9935 100.25 55.1231C101.122 51.7535 101.372 48.2591 100.374 44.8895C100.125 44.0159 98.5043 38.8991 96.8836 40.8959C96.6343 41.2703 96.5096 41.6447 96.5096 42.0191C95.8863 45.7631 96.2603 49.5071 96.0109 53.3759C95.7616 59.1167 92.3955 67.8527 90.7748 71.4719C90.4008 71.9711 90.0268 72.7199 89.5281 73.4687C92.0215 66.9791 91.3981 58.2431 89.0294 56.1215C86.162 53.5007 87.5334 61.1135 88.4061 67.6031C89.0294 71.8463 88.2814 74.7167 87.7827 76.2143C86.6607 77.9615 85.5387 79.9583 84.292 81.9551C84.0426 82.2047 83.9179 82.4543 83.6686 82.7039C84.292 81.3311 84.9153 79.8335 85.2893 78.4607C86.162 74.5919 84.0426 65.7311 80.8012 65.9807C77.6844 66.2303 81.2999 71.5967 82.5466 77.0879C83.4193 80.8319 82.4219 84.2015 81.6739 85.9487C81.5492 86.0735 81.5492 86.3231 81.4245 86.4479C80.8012 87.3215 80.3025 88.1951 79.6792 89.0687C78.4325 91.0655 77.1858 92.8127 76.0637 94.6847C77.3104 92.4383 78.8065 89.3183 79.5545 86.3231C80.8012 80.5823 79.0558 74.4671 76.4377 72.9695C73.9443 71.4719 76.4377 82.0799 76.8117 87.6959C77.0611 91.9391 75.4404 95.5583 74.6924 97.0559C73.0716 99.5519 71.4509 102.048 69.8302 104.794C71.0769 101.674 72.0743 97.5551 72.8223 93.3119C74.069 86.9471 71.4509 81.9551 68.9575 81.3311C66.3395 80.7071 67.9602 85.0751 69.5809 93.6863C70.7029 99.8015 69.3315 104.918 68.4589 107.165C67.8355 108.288 67.0875 109.411 66.3395 110.659C65.4668 112.032 64.7187 113.53 63.9707 115.152C63.9707 113.53 64.0954 111.283 64.0954 108.662C64.0954 105.792 64.3447 102.922 64.8434 100.176C65.3421 96.9311 65.7161 92.6879 63.098 90.1919C62.2254 89.3183 61.1033 89.1935 60.2306 90.1919C59.7319 90.6911 59.4826 91.5647 59.4826 92.3135C58.9839 96.5567 60.2306 101.05 60.9787 105.168C61.8513 110.285 62.9734 114.403 63.5967 116.275C62.9734 117.773 62.35 119.27 61.7267 120.768C61.602 120.518 61.3527 120.144 60.7293 119.27C59.6073 117.523 58.4852 107.414 57.1139 102.672C55.8672 97.9295 51.3791 95.4335 51.6284 101.05C51.8777 106.666 59.3579 117.898 59.3579 117.898L61.4773 121.142C59.2333 127.008 57.7372 132.125 57.7372 132.125L59.4826 133.373C59.4826 133.373 58.9839 129.629 62.1007 121.766C62.4747 121.517 63.3474 121.018 65.3421 120.394C71.5756 118.272 80.3025 120.518 84.666 114.278C85.6633 112.781 85.6633 110.534 83.6686 110.035C82.1726 109.661 80.3025 110.534 79.1805 111.283C75.3157 113.904 72.0743 116.774 67.4615 118.272C67.2122 118.397 64.3447 119.52 62.724 120.394C63.2227 119.27 63.7214 118.147 64.2201 116.899C65.5914 115.526 67.0875 114.278 68.7082 113.155C72.947 110.16 78.4325 109.162 82.7959 106.416C84.1673 105.542 86.6607 101.923 83.2946 101.923C81.7985 101.923 79.4298 103.67 78.0584 104.294C74.1937 106.166 70.0796 108.288 66.9628 111.408C67.2122 111.034 67.3368 110.784 67.5862 110.41C68.4589 109.536 72.573 105.917 77.8091 102.547C83.7933 98.6783 89.4034 96.6815 90.2761 93.8111C91.1488 91.0655 84.0426 94.0607 77.1858 99.0527C73.4457 101.798 70.8276 105.043 69.2069 107.414C71.2016 104.045 73.1963 100.675 75.191 97.3055C76.3131 95.6831 79.5545 91.6895 84.0426 89.5679C89.6528 86.8223 94.1409 84.5759 96.0109 80.7071C97.7563 76.8383 95.6369 77.5871 89.9021 82.3295C86.0373 85.5743 80.8012 89.6927 77.5598 93.4367C79.1805 90.9407 80.6765 88.4447 81.9232 86.3231C83.5439 84.5759 87.7827 80.2079 91.8968 77.7119C97.133 74.4671 99.751 72.2207 97.6316 71.3471C96.1356 70.7231 90.0268 75.3407 85.6633 80.4575C86.7854 78.5855 87.7827 77.2127 88.2814 76.4639C88.5307 76.0895 88.7801 75.7151 89.0294 75.2159C91.0241 73.5935 95.6369 69.8495 100.499 64.8575C106.982 58.4927 110.348 51.6287 106.733 53.9999Z" fill="#517969"/>
<path opacity="0.6" d="M106.733 53.9999C103.366 56.1215 95.0136 69.1007 89.5281 74.8415C90.1514 73.7183 90.7748 72.5951 91.3981 71.3471C92.2708 70.2239 93.2682 69.2255 93.8915 68.2271C94.8889 66.6047 96.0109 65.1071 96.8836 63.3599C98.255 60.7391 99.5017 57.9935 100.25 55.1231C101.122 51.7535 101.372 48.2591 100.374 44.8895C100.125 44.0159 98.5043 38.8991 96.8836 40.8959C96.6343 41.2703 96.5096 41.6447 96.5096 42.0191C95.8863 45.7631 96.2603 49.5071 96.0109 53.3759C95.7616 59.1167 92.3955 67.8527 90.7748 71.4719C90.4008 71.9711 90.0268 72.7199 89.5281 73.4687C92.0215 66.9791 91.3981 58.2431 89.0294 56.1215C86.162 53.5007 87.5334 61.1135 88.4061 67.6031C89.0294 71.8463 88.2814 74.7167 87.7827 76.2143C86.6607 77.9615 85.5387 79.9583 84.292 81.9551C84.0426 82.2047 83.9179 82.4543 83.6686 82.7039C84.292 81.3311 84.9153 79.8335 85.2893 78.4607C86.162 74.5919 84.0426 65.7311 80.8012 65.9807C77.6844 66.2303 81.2999 71.5967 82.5466 77.0879C83.4193 80.8319 82.4219 84.2015 81.6739 85.9487C81.5492 86.0735 81.5492 86.3231 81.4245 86.4479C80.8012 87.3215 80.3025 88.1951 79.6792 89.0687C78.4325 91.0655 77.1858 92.8127 76.0637 94.6847C77.3104 92.4383 78.8065 89.3183 79.5545 86.3231C80.8012 80.5823 79.0558 74.4671 76.4377 72.9695C73.9443 71.4719 76.4377 82.0799 76.8117 87.6959C77.0611 91.9391 75.4404 95.5583 74.6924 97.0559C73.0716 99.5519 71.4509 102.048 69.8302 104.794C71.0769 101.674 72.0743 97.5551 72.8223 93.3119C74.069 86.9471 71.4509 81.9551 68.9575 81.3311C66.3395 80.7071 67.9602 85.0751 69.5809 93.6863C70.7029 99.8015 69.3315 104.918 68.4589 107.165C67.8355 108.288 67.0875 109.411 66.3395 110.659C65.4668 112.032 64.7187 113.53 63.9707 115.152C63.9707 113.53 64.0954 111.283 64.0954 108.662C64.0954 105.792 64.3447 102.922 64.8434 100.176C65.3421 96.9311 65.7161 92.6879 63.098 90.1919C62.2254 89.3183 61.1033 89.1935 60.2306 90.1919C59.7319 90.6911 59.4826 91.5647 59.4826 92.3135C58.9839 96.5567 60.2306 101.05 60.9787 105.168C61.8513 110.285 62.9734 114.403 63.5967 116.275C62.9734 117.773 62.35 119.27 61.7267 120.768C61.602 120.518 61.3527 120.144 60.7293 119.27C59.6073 117.523 58.4852 107.414 57.1139 102.672C55.8672 97.9295 51.3791 95.4335 51.6284 101.05C51.8777 106.666 59.3579 117.898 59.3579 117.898L61.4773 121.142C59.2333 127.008 57.7372 132.125 57.7372 132.125L59.4826 133.373C59.4826 133.373 58.9839 129.629 62.1007 121.766C62.4747 121.517 63.3474 121.018 65.3421 120.394C71.5756 118.272 80.3025 120.518 84.666 114.278C85.6633 112.781 85.6633 110.534 83.6686 110.035C82.1726 109.661 80.3025 110.534 79.1805 111.283C75.3157 113.904 72.0743 116.774 67.4615 118.272C67.2122 118.397 64.3447 119.52 62.724 120.394C63.2227 119.27 63.7214 118.147 64.2201 116.899C65.5914 115.526 67.0875 114.278 68.7082 113.155C72.947 110.16 78.4325 109.162 82.7959 106.416C84.1673 105.542 86.6607 101.923 83.2946 101.923C81.7985 101.923 79.4298 103.67 78.0584 104.294C74.1937 106.166 70.0796 108.288 66.9628 111.408C67.2122 111.034 67.3368 110.784 67.5862 110.41C68.4589 109.536 72.573 105.917 77.8091 102.547C83.7933 98.6783 89.4034 96.6815 90.2761 93.8111C91.1488 91.0655 84.0426 94.0607 77.1858 99.0527C73.4457 101.798 70.8276 105.043 69.2069 107.414C71.2016 104.045 73.1963 100.675 75.191 97.3055C76.3131 95.6831 79.5545 91.6895 84.0426 89.5679C89.6528 86.8223 94.1409 84.5759 96.0109 80.7071C97.7563 76.8383 95.6369 77.5871 89.9021 82.3295C86.0373 85.5743 80.8012 89.6927 77.5598 93.4367C79.1805 90.9407 80.6765 88.4447 81.9232 86.3231C83.5439 84.5759 87.7827 80.2079 91.8968 77.7119C97.133 74.4671 99.751 72.2207 97.6316 71.3471C96.1356 70.7231 90.0268 75.3407 85.6633 80.4575C86.7854 78.5855 87.7827 77.2127 88.2814 76.4639C88.5307 76.0895 88.7801 75.7151 89.0294 75.2159C91.0241 73.5935 95.6369 69.8495 100.499 64.8575C106.982 58.4927 110.348 51.6287 106.733 53.9999Z" fill="#517969"/>
<path d="M143.261 54.3743C139.895 56.4959 131.542 69.4751 126.056 75.2159C126.68 74.0927 127.303 72.9695 127.926 71.7215C128.799 70.5983 129.797 69.5999 130.42 68.6015C131.417 66.9791 132.539 65.4815 133.412 63.7343C134.783 61.1135 136.03 58.3679 136.778 55.4975C137.651 52.1279 137.9 48.6335 136.903 45.2639C136.653 44.3903 135.033 39.2735 133.412 41.2703C133.163 41.6447 133.038 42.0191 133.038 42.3935C132.415 46.1375 132.789 49.8815 132.539 53.7503C132.29 59.4911 128.924 68.2271 127.303 71.8463C126.929 72.3455 126.555 73.0943 126.056 73.8431C128.55 67.3535 127.926 58.6175 125.558 56.4959C122.69 53.8751 124.062 61.4879 124.934 67.9775C125.558 72.2207 124.81 75.0911 124.311 76.5887C123.189 78.3359 122.067 80.3327 120.82 82.3295C120.571 82.5791 120.446 82.8287 120.197 83.0783C120.82 81.7055 121.444 80.2079 121.818 78.8351C122.69 74.9663 120.571 66.1055 117.33 66.3551C114.213 66.6047 117.828 71.9711 119.075 77.4623C119.948 81.2063 118.95 84.5759 118.202 86.3231C118.078 86.4479 118.078 86.6975 117.953 86.8223C117.33 87.6959 116.831 88.5695 116.207 89.4431C114.961 91.4399 113.714 93.1871 112.592 95.0591C113.839 92.8127 115.335 89.6927 116.083 86.6975C117.33 80.9567 115.584 74.8415 112.966 73.3439C110.473 71.8463 112.966 82.4543 113.34 88.0703C113.589 92.3135 111.969 95.9327 111.221 97.4303C109.6 99.9263 107.979 102.422 106.359 105.168C107.605 102.048 108.603 97.9295 109.351 93.6863C110.597 87.3215 107.979 82.3295 105.486 81.7055C102.868 81.0815 104.489 85.4495 106.109 94.0607C107.231 100.176 105.86 105.293 104.987 107.539C104.364 108.662 103.616 109.786 102.868 111.034C101.995 112.406 101.247 113.904 100.499 115.526C100.499 113.904 100.624 111.658 100.624 109.037C100.624 106.166 100.873 103.296 101.372 100.55C101.87 97.3055 102.244 93.0623 99.6264 90.5663C98.7537 89.6927 97.6316 89.5679 96.759 90.5663C96.2603 91.0655 96.0109 91.9391 96.0109 92.6879C95.5123 96.9311 96.759 101.424 97.507 105.542C98.3797 110.659 99.5017 114.778 100.125 116.65C99.5017 118.147 98.8783 119.645 98.255 121.142C98.1303 120.893 97.881 120.518 97.2576 119.645C96.1356 117.898 95.0136 107.789 93.6422 103.046C92.3955 98.3039 87.9074 95.8079 88.1567 101.424C88.4061 107.04 95.8863 118.272 95.8863 118.272L98.0057 121.517C95.7616 127.382 94.2656 132.499 94.2656 132.499L96.0109 133.747C96.0109 133.747 95.5123 130.003 98.629 122.141C99.003 121.891 99.8757 121.392 101.87 120.768C108.104 118.646 116.831 120.893 121.194 114.653C122.192 113.155 122.192 110.909 120.197 110.41C118.701 110.035 116.831 110.909 115.709 111.658C111.844 114.278 108.603 117.149 103.99 118.646C103.74 118.771 100.873 119.894 99.2524 120.768C99.751 119.645 100.25 118.522 100.748 117.274C102.12 115.901 103.616 114.653 105.237 113.53C109.475 110.534 114.961 109.536 119.324 106.79C120.696 105.917 123.189 102.298 119.823 102.298C118.327 102.298 115.958 104.045 114.587 104.669C110.722 106.541 106.608 108.662 103.491 111.782C103.74 111.408 103.865 111.158 104.114 110.784C104.987 109.91 109.101 106.291 114.337 102.922C120.322 99.0527 125.932 97.0559 126.804 94.1855C127.677 91.4399 120.571 94.4351 113.714 99.4271C109.974 102.173 107.356 105.418 105.735 107.789C107.73 104.419 109.725 101.05 111.719 97.6799C112.841 96.0575 116.083 92.0639 120.571 89.9423C126.181 87.1967 130.669 84.9503 132.539 81.0815C134.285 77.2127 132.165 77.9615 126.43 82.7039C122.566 85.9487 117.33 90.0671 114.088 93.8111C115.709 91.3151 117.205 88.8191 118.452 86.6975C120.072 84.9503 124.311 80.5823 128.425 78.0863C133.661 74.8415 136.279 72.5951 134.16 71.7215C132.664 71.0975 126.555 75.7151 122.192 80.8319C123.314 78.9599 124.311 77.5871 124.81 76.8383C125.059 76.4639 125.308 76.0895 125.558 75.5903C127.552 73.9679 132.29 70.2239 137.027 65.2319C143.51 58.8671 146.876 52.0031 143.261 54.3743Z" fill="#517969"/>
<path opacity="0.6" d="M143.261 54.3743C139.895 56.4959 131.542 69.4751 126.056 75.2159C126.68 74.0927 127.303 72.9695 127.926 71.7215C128.799 70.5983 129.797 69.5999 130.42 68.6015C131.417 66.9791 132.539 65.4815 133.412 63.7343C134.783 61.1135 136.03 58.3679 136.778 55.4975C137.651 52.1279 137.9 48.6335 136.903 45.2639C136.653 44.3903 135.033 39.2735 133.412 41.2703C133.163 41.6447 133.038 42.0191 133.038 42.3935C132.415 46.1375 132.789 49.8815 132.539 53.7503C132.29 59.4911 128.924 68.2271 127.303 71.8463C126.929 72.3455 126.555 73.0943 126.056 73.8431C128.55 67.3535 127.926 58.6175 125.558 56.4959C122.69 53.8751 124.062 61.4879 124.934 67.9775C125.558 72.2207 124.81 75.0911 124.311 76.5887C123.189 78.3359 122.067 80.3327 120.82 82.3295C120.571 82.5791 120.446 82.8287 120.197 83.0783C120.82 81.7055 121.444 80.2079 121.818 78.8351C122.69 74.9663 120.571 66.1055 117.33 66.3551C114.213 66.6047 117.828 71.9711 119.075 77.4623C119.948 81.2063 118.95 84.5759 118.202 86.3231C118.078 86.4479 118.078 86.6975 117.953 86.8223C117.33 87.6959 116.831 88.5695 116.207 89.4431C114.961 91.4399 113.714 93.1871 112.592 95.0591C113.839 92.8127 115.335 89.6927 116.083 86.6975C117.33 80.9567 115.584 74.8415 112.966 73.3439C110.473 71.8463 112.966 82.4543 113.34 88.0703C113.589 92.3135 111.969 95.9327 111.221 97.4303C109.6 99.9263 107.979 102.422 106.359 105.168C107.605 102.048 108.603 97.9295 109.351 93.6863C110.597 87.3215 107.979 82.3295 105.486 81.7055C102.868 81.0815 104.489 85.4495 106.109 94.0607C107.231 100.176 105.86 105.293 104.987 107.539C104.364 108.662 103.616 109.786 102.868 111.034C101.995 112.406 101.247 113.904 100.499 115.526C100.499 113.904 100.624 111.658 100.624 109.037C100.624 106.166 100.873 103.296 101.372 100.55C101.87 97.3055 102.244 93.0623 99.6264 90.5663C98.7537 89.6927 97.6316 89.5679 96.759 90.5663C96.2603 91.0655 96.0109 91.9391 96.0109 92.6879C95.5123 96.9311 96.759 101.424 97.507 105.542C98.3797 110.659 99.5017 114.778 100.125 116.65C99.5017 118.147 98.8783 119.645 98.255 121.142C98.1303 120.893 97.881 120.518 97.2576 119.645C96.1356 117.898 95.0136 107.789 93.6422 103.046C92.3955 98.3039 87.9074 95.8079 88.1567 101.424C88.4061 107.04 95.8863 118.272 95.8863 118.272L98.0057 121.517C95.7616 127.382 94.2656 132.499 94.2656 132.499L96.0109 133.747C96.0109 133.747 95.5123 130.003 98.629 122.141C99.003 121.891 99.8757 121.392 101.87 120.768C108.104 118.646 116.831 120.893 121.194 114.653C122.192 113.155 122.192 110.909 120.197 110.41C118.701 110.035 116.831 110.909 115.709 111.658C111.844 114.278 108.603 117.149 103.99 118.646C103.74 118.771 100.873 119.894 99.2524 120.768C99.751 119.645 100.25 118.522 100.748 117.274C102.12 115.901 103.616 114.653 105.237 113.53C109.475 110.534 114.961 109.536 119.324 106.79C120.696 105.917 123.189 102.298 119.823 102.298C118.327 102.298 115.958 104.045 114.587 104.669C110.722 106.541 106.608 108.662 103.491 111.782C103.74 111.408 103.865 111.158 104.114 110.784C104.987 109.91 109.101 106.291 114.337 102.922C120.322 99.0527 125.932 97.0559 126.804 94.1855C127.677 91.4399 120.571 94.4351 113.714 99.4271C109.974 102.173 107.356 105.418 105.735 107.789C107.73 104.419 109.725 101.05 111.719 97.6799C112.841 96.0575 116.083 92.0639 120.571 89.9423C126.181 87.1967 130.669 84.9503 132.539 81.0815C134.285 77.2127 132.165 77.9615 126.43 82.7039C122.566 85.9487 117.33 90.0671 114.088 93.8111C115.709 91.3151 117.205 88.8191 118.452 86.6975C120.072 84.9503 124.311 80.5823 128.425 78.0863C133.661 74.8415 136.279 72.5951 134.16 71.7215C132.664 71.0975 126.555 75.7151 122.192 80.8319C123.314 78.9599 124.311 77.5871 124.81 76.8383C125.059 76.4639 125.308 76.0895 125.558 75.5903C127.552 73.9679 132.29 70.2239 137.027 65.2319C143.51 58.8671 146.876 52.0031 143.261 54.3743Z" fill="#517969"/>
</svg>
