<svg width="247" height="307" viewBox="0 0 247 307" fill="none" xmlns="http://www.w3.org/2000/svg">
<path d="M154.48 165.811L177.793 149.088" stroke="#263238" stroke-width="0.8351" stroke-miterlimit="10" stroke-linecap="round" stroke-linejoin="round"/>
<path d="M228.035 281.626L226.664 296.477C226.664 296.477 220.056 299.347 220.056 300.346C220.056 301.344 221.303 302.592 226.664 302.592C232.024 302.592 233.77 300.595 233.77 298.973C233.77 297.35 245.24 284.621 245.24 284.621C245.24 284.621 246.237 282.125 244.492 280.003C242.746 278.006 236.513 277.757 236.513 277.757L228.035 281.626Z" fill="#FB8A00"/>
<path d="M220.056 301.219C220.056 301.219 229.032 300.595 231.401 299.222C233.77 297.85 242.372 284.746 243.12 283.747C243.868 282.749 243.868 281.002 243.868 281.002" stroke="#263238" stroke-width="0.4175" stroke-miterlimit="10" stroke-linecap="round" stroke-linejoin="round"/>
<path d="M239.505 278.007C239.505 278.007 246.736 279.38 246.113 282.5C245.365 285.62 234.02 299.473 232.274 301.22C230.529 302.967 219.807 302.967 220.181 301.22C220.555 299.473 226.789 296.353 226.789 296.353L228.908 283.873" stroke="#263238" stroke-width="0.8351" stroke-miterlimit="10" stroke-linecap="round" stroke-linejoin="round"/>
<path d="M85.9121 293.606L64.4688 304.089C64.4688 304.089 61.6014 306.086 67.3362 306.086C72.9464 306.086 102.618 306.336 102.618 306.336C102.618 306.336 105.984 307.085 106.732 305.587C107.979 303.091 108.477 301.469 107.729 300.72C106.857 299.971 85.9121 293.606 85.9121 293.606Z" fill="#FB8A00"/>
<path d="M66.4626 303.715C66.4626 303.715 102.492 303.715 103.49 303.715C104.487 303.715 104.487 303.715 104.487 303.715" stroke="#263238" stroke-width="0.4175" stroke-miterlimit="10" stroke-linecap="round" stroke-linejoin="round"/>
<path d="M84.5398 294.979C84.5398 294.979 62.7225 304.339 62.9718 305.462C63.3459 306.461 85.1631 306.461 93.516 306.461C101.869 306.461 107.728 306.835 107.728 304.713" stroke="#263238" stroke-width="0.8351" stroke-miterlimit="10" stroke-linecap="round" stroke-linejoin="round"/>
<path d="M239.505 278.006L167.321 225.216L164.952 172.051C164.952 172.051 160.464 176.045 156.1 177.792C151.612 179.539 125.805 192.643 125.805 192.643C125.805 192.643 137.275 233.328 139.394 236.822C141.514 240.317 228.908 284.122 228.908 284.122L239.505 278.006Z" fill="#263238"/>
<path d="M107.728 302.592C107.728 302.592 104.986 301.843 101.869 301.219C98.7521 300.47 84.5396 294.979 84.5396 294.979C84.5396 294.979 84.1657 293.981 84.1657 291.485C84.1657 289.113 86.285 287.616 86.285 287.616C86.285 287.616 32.1782 215.357 30.8068 213.235C29.4355 211.113 30.4328 207.619 39.7831 200.381C49.1333 193.142 110.471 155.577 110.471 155.577C108.102 152.832 112.59 151.085 112.59 151.085L118.201 152.832L154.604 165.686L169.191 155.952C169.191 155.952 171.559 164.937 162.583 171.926C153.607 178.915 71.0753 215.606 71.0753 215.606L69.7039 215.731L106.856 296.976C106.731 296.976 109.224 301.469 107.728 302.592Z" fill="#263238"/>
<path d="M61.7251 206.496L68.5819 215.107L65.8392 203.75" stroke="white" stroke-width="0.8351" stroke-miterlimit="10" stroke-linecap="round" stroke-linejoin="round"/>
<path d="M129.296 193.142C129.296 193.142 143.384 215.107 148.496 219.6" stroke="white" stroke-width="0.8351" stroke-miterlimit="10" stroke-linecap="round" stroke-linejoin="round"/>
<path d="M131.291 192.518C131.291 192.518 135.779 196.637 143.633 201.753" stroke="white" stroke-width="0.8351" stroke-miterlimit="10" stroke-linecap="round" stroke-linejoin="round"/>
<path d="M155.976 76.0798L107.354 109.401L117.951 153.206L154.106 165.437L202.353 130.992L196.494 86.8126L155.976 76.0798Z" fill="#8DD0BE"/>
<path d="M147.568 120L108.109 109.5L155.559 75.5L178.036 82L181.033 98.5L154.061 120L149.066 121L147.568 120Z" fill="#5B5B5B"/>
<path d="M107.604 109.401L110.596 123.129" stroke="#263238" stroke-width="0.8351" stroke-miterlimit="10" stroke-linecap="round" stroke-linejoin="round"/>
<path d="M113.214 133.113L118.076 152.957L154.48 165.811L149.992 133.113" stroke="#263238" stroke-width="0.8351" stroke-miterlimit="10" stroke-linecap="round" stroke-linejoin="round"/>
<path d="M149.618 130.368L148.246 122.006" stroke="#263238" stroke-width="0.8351" stroke-miterlimit="10" stroke-linecap="round" stroke-linejoin="round"/>
<path d="M192.629 138.605L202.353 131.366L197.491 90.0574" stroke="#263238" stroke-width="0.8351" stroke-miterlimit="10" stroke-linecap="round" stroke-linejoin="round"/>
<path d="M153.108 119.51L179.539 99.7918" stroke="#263238" stroke-width="0.8351" stroke-miterlimit="10" stroke-linecap="round" stroke-linejoin="round"/>
<path d="M178.167 82.0702L156.225 76.0798L108.352 108.777" stroke="#263238" stroke-width="0.8351" stroke-miterlimit="10" stroke-linecap="round" stroke-linejoin="round"/>
<path d="M108.726 110.15L115.957 112.272" stroke="#263238" stroke-width="0.8351" stroke-miterlimit="10" stroke-linecap="round" stroke-linejoin="round"/>
<path d="M128.424 115.017L148.246 120.633" stroke="#263238" stroke-width="0.8351" stroke-miterlimit="10" stroke-linecap="round" stroke-linejoin="round"/>
<path d="M174.676 81.3214L144.755 104.285" stroke="#263238" stroke-width="0.4175" stroke-miterlimit="10" stroke-linecap="round" stroke-linejoin="round"/>
<path d="M142.387 106.406L131.665 114.643" stroke="#263238" stroke-width="0.4175" stroke-miterlimit="10" stroke-linecap="round" stroke-linejoin="round"/>
<path d="M175.853 74.9353C175.552 73.6774 174.423 72.7422 173.074 72.7422C171.726 72.7422 170.597 73.6774 170.296 74.9353C166.391 76.1253 163.55 79.7585 163.55 84.0566C163.55 89.3221 167.814 93.5904 173.074 93.5904C178.334 93.5904 182.598 89.3221 182.598 84.0566C182.598 79.7585 179.757 76.1253 175.853 74.9353Z" fill="#FF983B"/>
<path d="M178.723 76.38C179.889 77.9621 180.579 79.9179 180.579 82.035C180.579 87.3005 176.315 91.5689 171.055 91.5689C168.94 91.5689 166.987 90.8783 165.406 89.711C167.141 92.0639 169.929 93.5903 173.074 93.5903C178.334 93.5903 182.598 89.3219 182.598 84.0564C182.598 80.908 181.073 78.1165 178.723 76.38Z" fill="#FF7E40"/>
<path d="M172.36 68.9245V75.5725C172.36 75.9638 172.661 76.3052 173.052 76.317C173.457 76.3294 173.789 76.0045 173.789 75.6022V68.1532C173.175 67.7498 172.36 68.1899 172.36 68.9245Z" fill="#B66652"/>
<path d="M178.515 75.2791L177.81 72.9871C177.285 71.2781 176.197 69.7925 174.721 68.7675L173.789 68.1536C173.175 67.7498 172.36 68.1899 172.36 68.9245V69.9403C172.36 71.8524 173.274 73.5559 174.958 74.6234L177.361 76.1468C177.965 76.5293 178.724 75.9591 178.515 75.2791Z" fill="#28D05B"/>
<path d="M169.377 79.3205C169.377 79.7154 169.058 80.0356 168.663 80.0356C168.269 80.0356 167.949 79.7154 167.949 79.3205C167.949 78.9255 168.269 78.6053 168.663 78.6053C169.058 78.6053 169.377 78.9255 169.377 79.3205Z" fill="#FF7E40"/>
<path d="M171.282 81.9903C171.282 82.3852 170.963 82.7054 170.568 82.7054C170.174 82.7054 169.854 82.3852 169.854 81.9903C169.854 81.5953 170.174 81.2751 170.568 81.2751C170.963 81.2751 171.282 81.5953 171.282 81.9903Z" fill="#FF7E40"/>
<path d="M167.472 84.088C167.472 84.4829 167.153 84.8027 166.758 84.8027C166.364 84.8027 166.044 84.4829 166.044 84.088C166.044 83.693 166.364 83.3728 166.758 83.3728C167.153 83.3728 167.472 83.693 167.472 84.088Z" fill="#FF7E40"/>
<path d="M165.561 100.923C165.451 100.657 165.147 100.531 164.881 100.641L164.569 100.77L164.808 100.531C165.011 100.327 165.011 99.9974 164.808 99.7941C164.605 99.5907 164.275 99.5907 164.072 99.7941L163.833 100.033L163.962 99.7208C164.072 99.4549 163.946 99.15 163.68 99.0399C163.415 98.9295 163.11 99.0559 163 99.3221L162.718 100.005L164.597 101.886L165.28 101.603C165.545 101.493 165.671 101.189 165.561 100.923Z" fill="#28D05B"/>
<path d="M160.124 100.552C161.208 99.4669 162.819 99.6144 163.903 100.7C164.987 101.785 165.134 103.397 164.05 104.483C162.966 105.568 160.08 106.698 158.995 105.613C157.911 104.527 159.04 101.638 160.124 100.552Z" fill="#FF5368"/>
<path d="M163.903 100.7C163.643 100.439 163.352 100.233 163.046 100.085C163.515 101.056 163.403 102.185 162.579 103.009C161.755 103.834 159.891 104.684 158.567 104.568C158.604 104.987 158.735 105.352 158.996 105.613C160.08 106.698 162.966 105.568 164.05 104.483C165.135 103.397 164.988 101.785 163.903 100.7Z" fill="#D9435B"/>
<path d="M162.212 102.914C162.212 103.201 161.979 103.435 161.691 103.435C161.404 103.435 161.171 103.201 161.171 102.914C161.171 102.626 161.404 102.393 161.691 102.393C161.979 102.393 162.212 102.626 162.212 102.914Z" fill="#FFCF5D"/>
<path d="M160.74 104.387C160.74 104.675 160.507 104.908 160.22 104.908C159.932 104.908 159.699 104.675 159.699 104.387C159.699 104.1 159.932 103.866 160.22 103.866C160.507 103.866 160.74 104.1 160.74 104.387Z" fill="#FFCF5D"/>
<path d="M160.74 102.914C160.74 103.201 160.507 103.434 160.22 103.434C159.932 103.434 159.699 103.201 159.699 102.914C159.699 102.626 159.932 102.393 160.22 102.393C160.507 102.393 160.74 102.626 160.74 102.914Z" fill="#FFCF5D"/>
<path d="M162.212 104.387C162.212 104.675 161.979 104.908 161.691 104.908C161.404 104.908 161.171 104.675 161.171 104.387C161.171 104.1 161.404 103.866 161.691 103.866C161.979 103.866 162.212 104.1 162.212 104.387Z" fill="#FFCF5D"/>
<path d="M163.685 102.914C163.685 103.201 163.451 103.435 163.164 103.435C162.876 103.435 162.643 103.201 162.643 102.914C162.643 102.626 162.876 102.393 163.164 102.393C163.451 102.393 163.685 102.626 163.685 102.914Z" fill="#FFCF5D"/>
<path d="M162.212 101.44C162.212 101.727 161.979 101.961 161.691 101.961C161.404 101.961 161.171 101.727 161.171 101.44C161.171 101.152 161.404 100.919 161.691 100.919C161.979 100.919 162.212 101.152 162.212 101.44Z" fill="#FFCF5D"/>
<path d="M123.605 99.9227C123.495 99.6567 123.19 99.5306 122.925 99.6407L122.613 99.7698L122.852 99.5309C123.055 99.3275 123.055 98.9974 122.852 98.7941C122.648 98.5907 122.319 98.5907 122.116 98.7941L121.877 99.033L122.006 98.7208C122.116 98.4549 121.99 98.15 121.724 98.0399C121.459 97.9295 121.154 98.0559 121.044 98.3221L120.761 99.0052L122.641 100.886L123.323 100.603C123.589 100.493 123.715 100.189 123.605 99.9227Z" fill="#28D05B"/>
<path d="M118.168 99.5522C119.252 98.4669 120.863 98.6144 121.947 99.6997C123.031 100.785 123.178 102.397 122.094 103.483C121.01 104.568 118.123 105.698 117.039 104.613C115.955 103.527 117.084 100.638 118.168 99.5522Z" fill="#FF5368"/>
<path d="M121.947 99.6997C121.687 99.4391 121.396 99.2334 121.09 99.0848C121.559 100.056 121.446 101.185 120.623 102.009C119.799 102.834 117.934 103.684 116.611 103.568C116.647 103.987 116.779 104.352 117.039 104.613C118.123 105.698 121.01 104.568 122.094 103.483C123.179 102.397 123.031 100.785 121.947 99.6997Z" fill="#D9435B"/>
<path d="M120.256 101.914C120.256 102.201 120.023 102.435 119.735 102.435C119.448 102.435 119.215 102.201 119.215 101.914C119.215 101.626 119.448 101.393 119.735 101.393C120.023 101.393 120.256 101.626 120.256 101.914Z" fill="#FFCF5D"/>
<path d="M118.784 103.387C118.784 103.675 118.551 103.908 118.263 103.908C117.976 103.908 117.743 103.675 117.743 103.387C117.743 103.1 117.976 102.866 118.263 102.866C118.551 102.866 118.784 103.1 118.784 103.387Z" fill="#FFCF5D"/>
<path d="M118.784 101.914C118.784 102.201 118.551 102.434 118.263 102.434C117.976 102.434 117.743 102.201 117.743 101.914C117.743 101.626 117.976 101.393 118.263 101.393C118.551 101.393 118.784 101.626 118.784 101.914Z" fill="#FFCF5D"/>
<path d="M120.256 103.387C120.256 103.675 120.023 103.908 119.735 103.908C119.448 103.908 119.215 103.675 119.215 103.387C119.215 103.1 119.448 102.866 119.735 102.866C120.023 102.866 120.256 103.1 120.256 103.387Z" fill="#FFCF5D"/>
<path d="M121.728 101.914C121.728 102.201 121.495 102.435 121.208 102.435C120.92 102.435 120.687 102.201 120.687 101.914C120.687 101.626 120.92 101.393 121.208 101.393C121.495 101.393 121.728 101.626 121.728 101.914Z" fill="#FFCF5D"/>
<path d="M120.256 100.44C120.256 100.727 120.023 100.961 119.735 100.961C119.448 100.961 119.215 100.727 119.215 100.44C119.215 100.152 119.448 99.9186 119.735 99.9186C120.023 99.9186 120.256 100.152 120.256 100.44Z" fill="#FFCF5D"/>
<path d="M179.481 97.4739C179.481 99.3925 177.927 100.948 176.011 100.948C174.094 100.948 172.541 99.3925 172.541 97.4739C172.541 95.5553 174.094 94 176.011 94C177.927 94 179.481 95.5553 179.481 97.4739Z" fill="#5C87BD"/>
<path d="M177.616 94.3942C177.867 94.8747 178.01 95.421 178.01 96.0009C178.01 97.9192 176.456 99.4746 174.54 99.4746C173.961 99.4746 173.415 99.3319 172.935 99.0807C173.514 100.19 174.674 100.948 176.011 100.948C177.928 100.948 179.482 99.3925 179.482 97.474C179.482 96.1351 178.725 94.9741 177.616 94.3942Z" fill="#456EA2"/>
<path d="M176.59 96.258L176.742 96.1054C176.945 95.902 176.945 95.572 176.742 95.3686C176.539 95.1652 176.209 95.1652 176.006 95.3686L175.854 95.5212L175.701 95.3686C175.498 95.1652 175.168 95.1652 174.965 95.3686C174.762 95.5722 174.762 95.902 174.965 96.1054L175.118 96.258L174.965 96.4106C174.762 96.6142 174.762 96.944 174.965 97.1477C175.067 97.2492 175.2 97.3003 175.333 97.3003C175.466 97.3003 175.6 97.2492 175.701 97.1477L175.854 96.9951L176.006 97.1477C176.108 97.2492 176.241 97.3003 176.374 97.3003C176.507 97.3003 176.641 97.2492 176.742 97.1477C176.946 96.944 176.946 96.6142 176.742 96.4106L176.59 96.258Z" fill="#315588"/>
<path d="M173.488 103.474C173.488 105.392 171.934 106.948 170.017 106.948C168.101 106.948 166.547 105.392 166.547 103.474C166.547 101.555 168.101 100 170.017 100C171.934 100 173.488 101.555 173.488 103.474Z" fill="#5C87BD"/>
<path d="M171.623 100.394C171.874 100.875 172.017 101.421 172.017 102.001C172.017 103.919 170.463 105.475 168.546 105.475C167.967 105.475 167.421 105.332 166.941 105.081C167.52 106.19 168.68 106.948 170.018 106.948C171.934 106.948 173.488 105.393 173.488 103.474C173.488 102.135 172.731 100.974 171.623 100.394Z" fill="#456EA2"/>
<path d="M170.596 102.258L170.749 102.105C170.952 101.902 170.952 101.572 170.749 101.369C170.545 101.165 170.216 101.165 170.012 101.369L169.86 101.521L169.707 101.369C169.504 101.165 169.175 101.165 168.971 101.369C168.768 101.572 168.768 101.902 168.971 102.105L169.124 102.258L168.971 102.411C168.768 102.614 168.768 102.944 168.971 103.148C169.073 103.249 169.206 103.3 169.34 103.3C169.473 103.3 169.606 103.249 169.708 103.148L169.86 102.995L170.012 103.148C170.114 103.249 170.247 103.3 170.38 103.3C170.514 103.3 170.647 103.249 170.749 103.148C170.952 102.944 170.952 102.614 170.749 102.411L170.596 102.258Z" fill="#315588"/>
<path d="M158.503 108.474C158.503 110.392 156.949 111.948 155.033 111.948C153.116 111.948 151.563 110.392 151.563 108.474C151.563 106.555 153.116 105 155.033 105C156.949 105 158.503 106.555 158.503 108.474Z" fill="#5C87BD"/>
<path d="M156.638 105.394C156.889 105.875 157.032 106.421 157.032 107.001C157.032 108.919 155.478 110.475 153.562 110.475C152.982 110.475 152.437 110.332 151.957 110.081C152.536 111.19 153.696 111.948 155.033 111.948C156.95 111.948 158.504 110.393 158.504 108.474C158.504 107.135 157.747 105.974 156.638 105.394Z" fill="#456EA2"/>
<path d="M155.612 107.258L155.764 107.105C155.967 106.902 155.967 106.572 155.764 106.369C155.561 106.165 155.231 106.165 155.028 106.369L154.876 106.521L154.723 106.369C154.52 106.165 154.19 106.165 153.987 106.369C153.784 106.572 153.784 106.902 153.987 107.105L154.139 107.258L153.987 107.411C153.784 107.614 153.784 107.944 153.987 108.148C154.089 108.249 154.222 108.3 154.355 108.3C154.488 108.3 154.622 108.249 154.723 108.148L154.876 107.995L155.028 108.148C155.13 108.249 155.263 108.3 155.396 108.3C155.529 108.3 155.663 108.249 155.764 108.148C155.968 107.944 155.968 107.614 155.764 107.411L155.612 107.258Z" fill="#315588"/>
<path d="M171.489 94.4739C171.489 96.3925 169.936 97.9476 168.019 97.9476C166.103 97.9476 164.549 96.3925 164.549 94.4739C164.549 92.5553 166.103 91 168.019 91C169.936 91 171.489 92.5553 171.489 94.4739Z" fill="#5C87BD"/>
<path d="M169.625 91.3942C169.876 91.8747 170.018 92.421 170.018 93.0009C170.018 94.9192 168.465 96.4746 166.548 96.4746C165.969 96.4746 165.423 96.3319 164.943 96.0807C165.522 97.19 166.682 97.9476 168.02 97.9476C169.936 97.9476 171.49 96.3925 171.49 94.474C171.49 93.1351 170.733 91.9741 169.625 91.3942Z" fill="#456EA2"/>
<path d="M168.598 93.258L168.751 93.1054C168.954 92.902 168.954 92.572 168.751 92.3686C168.547 92.1652 168.218 92.1652 168.014 92.3686L167.862 92.5212L167.709 92.3686C167.506 92.1652 167.177 92.1652 166.973 92.3686C166.77 92.5722 166.77 92.902 166.973 93.1054L167.126 93.258L166.973 93.4106C166.77 93.6142 166.77 93.944 166.973 94.1477C167.075 94.2492 167.208 94.3003 167.342 94.3003C167.475 94.3003 167.608 94.2492 167.71 94.1477L167.862 93.9951L168.014 94.1477C168.116 94.2492 168.249 94.3003 168.382 94.3003C168.516 94.3003 168.649 94.2492 168.751 94.1477C168.954 93.944 168.954 93.6142 168.751 93.4106L168.598 93.258Z" fill="#315588"/>
<path d="M165.873 107.908C165.756 107.648 165.442 107.54 165.179 107.649L164.887 107.77L165.111 107.546C165.312 107.345 165.332 107.013 165.137 106.806C164.935 106.591 164.597 106.587 164.39 106.794L164.151 107.033L164.28 106.721C164.39 106.455 164.264 106.15 163.999 106.04C163.733 105.93 163.428 106.056 163.318 106.322L163.036 107.005C162.968 107.17 162.991 107.345 163.075 107.481C163.215 107.705 163.191 107.994 163.004 108.181L163 108.185C162.792 108.393 162.781 108.744 162.993 108.947C163.197 109.142 163.52 109.139 163.72 108.938C163.937 108.721 164.22 108.713 164.445 108.85C164.525 108.899 164.618 108.926 164.716 108.926C164.782 108.926 164.85 108.913 164.915 108.886L165.597 108.603C165.868 108.491 165.994 108.177 165.873 107.908Z" fill="#28D05B"/>
<path d="M164.429 108.229C164.048 108.127 163.653 108.248 163.393 108.53L161.685 107.996L160.421 109.324L159.885 111.327C159.879 111.326 159.873 111.324 159.867 111.322C159.311 111.173 158.741 111.502 158.591 112.058C158.442 112.614 158.772 113.186 159.327 113.335C159.882 113.484 160.453 113.155 160.602 112.599C160.645 112.439 160.652 112.274 160.617 112.113C160.724 112.434 160.987 112.701 161.338 112.796C161.894 112.944 162.465 112.615 162.614 112.059C162.659 111.888 162.661 111.709 162.619 111.538C162.666 111.702 162.754 111.856 162.883 111.985C163.29 112.392 163.949 112.392 164.355 111.985C164.762 111.578 164.762 110.918 164.355 110.511C164.227 110.383 164.07 110.293 163.902 110.245C164.453 110.387 165.017 110.057 165.165 109.505C165.314 108.949 164.984 108.378 164.429 108.229Z" fill="#D9435B"/>
<path d="M162.957 106.756C162.183 106.548 161.476 107.26 161.682 108.032C161.562 107.58 161.151 107.26 160.677 107.26C160.41 107.26 160.144 107.361 159.941 107.565C159.534 107.972 159.534 108.632 159.941 109.039C160.081 109.179 160.251 109.272 160.431 109.315C159.864 109.149 159.282 109.486 159.132 110.046C158.983 110.602 159.313 111.173 159.868 111.322C160.424 111.471 160.995 111.141 161.143 110.585C161.19 110.408 161.19 110.223 161.143 110.046C161.261 110.478 161.653 110.818 162.149 110.818C162.15 110.818 162.152 110.818 162.154 110.818C163.069 110.814 163.541 109.696 162.885 109.039C162.75 108.903 162.59 108.815 162.423 108.77C162.977 108.916 163.545 108.586 163.694 108.032C163.842 107.475 163.512 106.904 162.957 106.756Z" fill="#FF5368"/>
<path d="M160.878 98.908C160.761 98.6477 160.447 98.5397 160.184 98.649L159.892 98.7698L160.116 98.5464C160.317 98.3446 160.337 98.0132 160.142 97.8056C159.94 97.5907 159.602 97.5867 159.395 97.7941L159.156 98.0327L159.285 97.7208C159.395 97.4549 159.269 97.15 159.004 97.0399C158.738 96.9295 158.433 97.0559 158.324 97.3218L158.041 98.0049C157.973 98.1698 157.996 98.3446 158.081 98.4806C158.22 98.7048 158.196 98.994 158.009 99.1811L158.005 99.1854C157.797 99.393 157.786 99.7444 157.998 99.947C158.202 100.142 158.525 100.139 158.725 99.9382C158.943 99.7207 159.226 99.7129 159.45 99.8497C159.53 99.8986 159.623 99.9262 159.721 99.9262C159.788 99.9262 159.855 99.9133 159.92 99.8863L160.603 99.6033C160.873 99.4911 160.999 99.1771 160.878 98.908Z" fill="#28D05B"/>
<path d="M159.434 99.2287C159.054 99.1266 158.658 99.2476 158.398 99.5301L156.69 98.9964L155.427 100.324L154.89 102.327C154.884 102.326 154.878 102.324 154.872 102.322C154.316 102.173 153.746 102.502 153.596 103.058C153.447 103.614 153.777 104.186 154.332 104.335C154.887 104.484 155.458 104.155 155.607 103.599C155.65 103.439 155.657 103.274 155.622 103.113C155.729 103.434 155.992 103.701 156.344 103.796C156.899 103.944 157.47 103.615 157.619 103.059C157.665 102.888 157.666 102.709 157.624 102.538C157.671 102.702 157.759 102.856 157.888 102.985C158.295 103.392 158.954 103.392 159.36 102.985C159.767 102.578 159.767 101.918 159.36 101.511C159.232 101.383 159.075 101.293 158.907 101.245C159.459 101.387 160.022 101.057 160.17 100.505C160.319 99.9491 159.989 99.3775 159.434 99.2287Z" fill="#D9435B"/>
<path d="M157.962 97.7555C157.188 97.5481 156.481 98.2598 156.687 99.0316C156.567 98.58 156.156 98.2598 155.682 98.2598C155.415 98.2598 155.149 98.3614 154.946 98.565C154.539 98.972 154.539 99.6319 154.946 100.039C155.086 100.179 155.256 100.272 155.436 100.315C154.869 100.149 154.287 100.486 154.137 101.046C153.988 101.602 154.318 102.173 154.874 102.322C155.429 102.471 156 102.141 156.148 101.585C156.196 101.408 156.196 101.223 156.148 101.046C156.266 101.478 156.658 101.818 157.154 101.818C157.156 101.818 157.157 101.818 157.159 101.818C158.074 101.814 158.546 100.696 157.89 100.039C157.755 99.9034 157.595 99.8152 157.428 99.77C157.982 99.916 158.551 99.5862 158.699 99.0316C158.847 98.4755 158.517 97.9044 157.962 97.7555Z" fill="#FF5368"/>
<path d="M175.424 62.227C175.424 62.227 183.029 124.877 183.029 127.622C183.029 130.368 176.048 131.741 176.048 135.235C176.048 138.729 174.302 143.597 174.302 143.597C174.302 143.597 172.931 144.969 172.931 145.968C172.931 146.966 175.3 146.717 177.419 145.593C179.538 144.595 180.162 140.726 180.162 140.726C180.162 140.726 179.164 145.968 179.164 147.715L177.793 149.088C177.793 149.088 173.679 152.957 176.422 153.206C179.164 153.581 192.005 148.713 192.753 145.593C193.501 142.473 191.008 127.497 191.008 127.497C191.008 127.497 201.106 56.9854 201.106 50.371C201.106 43.7566 195.496 41.635 195.496 41.635" fill="white"/>
<path opacity="0.3" d="M200.982 59.2318C199.485 53.7406 197.989 43.6318 197.989 43.6318L191.382 41.635L182.655 52.1182L189.512 47.875C189.512 47.875 189.512 126.873 189.512 131.117C189.512 135.36 184.276 151.833 184.276 151.833C184.276 151.833 195.247 149.462 193.501 139.478C191.756 129.494 189.637 131.117 192.753 110.899C195.745 90.8062 202.478 64.8478 200.982 59.2318Z" fill="#FDC47F"/>
<path d="M175.424 62.227C175.424 62.227 183.029 124.877 183.029 127.622C183.029 130.368 176.048 131.741 176.048 135.235C176.048 138.729 174.302 143.597 174.302 143.597C174.302 143.597 172.931 144.969 172.931 145.968C172.931 146.966 175.3 146.717 177.419 145.593C179.538 144.595 180.162 140.726 180.162 140.726C180.162 140.726 179.164 145.968 179.164 147.715L177.793 149.088C177.793 149.088 173.679 152.957 176.422 153.206C179.164 153.581 192.005 148.713 192.753 145.593C193.501 142.473 191.008 127.497 191.008 127.497C191.008 127.497 201.106 56.9854 201.106 50.371C201.106 43.7566 195.496 41.635 195.496 41.635" stroke="#263238" stroke-width="0.8351" stroke-miterlimit="10" stroke-linecap="round" stroke-linejoin="round"/>
<path d="M183.777 145.094C183.777 145.094 184.525 147.84 183.403 149.587C182.281 151.334 181.034 152.707 181.034 152.707" stroke="#263238" stroke-width="0.4175" stroke-miterlimit="10" stroke-linecap="round" stroke-linejoin="round"/>
<path d="M187.891 145.094C187.891 145.094 187.517 147.465 186.894 149.213" stroke="#263238" stroke-width="0.4175" stroke-miterlimit="10" stroke-linecap="round" stroke-linejoin="round"/>
<path d="M191.008 144.096C191.008 144.096 190.634 146.467 190.011 148.214" stroke="#263238" stroke-width="0.4175" stroke-miterlimit="10" stroke-linecap="round" stroke-linejoin="round"/>
<path d="M78.9296 13.9295C78.5556 10.3103 71.3248 3.57109 61.3512 1.57429C51.3776 -0.422515 40.6559 -0.422515 36.5418 2.82229C35.0458 4.07029 34.0484 6.81589 33.425 9.68629C34.1731 8.18869 35.5445 5.06869 37.0405 3.82069C44.396 -2.29451 46.3908 1.32467 47.6375 6.69108C48.8842 12.0575 47.2634 26.6591 47.2634 26.6591C47.2634 26.6591 30.5576 31.5263 32.9264 23.0399C32.9264 23.0399 32.4277 21.5423 32.1783 19.2959C32.1783 19.9199 32.1783 20.2943 32.1783 20.2943L31.4303 25.5359L24.6982 26.7839L1.1355 26.0351C1.1355 26.0351 13.1038 33.5231 19.9607 33.5231C26.6929 33.5231 31.929 28.9055 31.929 28.9055L75.5636 32.2751C75.3142 32.2751 79.3036 17.5487 78.9296 13.9295Z" fill="#263238"/>
<path d="M28.0642 26.4104L1.1355 26.036C1.1355 26.036 8.6157 33.1496 18.5893 33.1496C28.5629 33.1496 31.929 29.0312 31.929 29.0312L75.5635 32.4008C75.5635 32.4008 81.2984 21.5432 78.3063 11.9336C75.4389 2.324 49.2582 -0.796007 41.9026 0.951192C32.9264 3.07279 32.303 10.8104 32.303 14.9288C32.303 19.0472 31.4303 24.0392 31.4303 24.0392" stroke="#263238" stroke-width="0.8351" stroke-miterlimit="10" stroke-linecap="round" stroke-linejoin="round"/>
<path d="M53.2477 30.7775L35.6692 31.0271C35.6692 31.0271 30.6824 38.5151 31.9291 40.6367C33.1758 42.7583 35.6692 44.3807 35.6692 44.3807C35.6692 44.3807 34.4225 54.2399 35.9185 57.7343C37.4146 61.1039 49.8816 59.6063 49.8816 59.6063C49.8816 59.6063 46.7649 61.7279 40.9054 62.3519C35.0459 62.9759 33.1758 61.7279 32.3031 58.3583C31.4304 54.9887 31.0564 45.1295 31.0564 45.1295L26.8176 40.6367L29.9344 32.2751L33.3005 28.9055L53.2477 30.7775Z" fill="#FDC47F"/>
<path d="M30.0593 30.1535C30.0593 30.1535 25.4466 41.0111 27.5659 42.6335C29.6853 44.2559 30.932 45.1295 30.932 45.1295C30.932 45.1295 32.1788 59.7311 34.2981 62.2271C36.4175 64.7231 49.6326 60.6047 49.6326 60.6047C49.6326 60.6047 76.5613 87.5615 77.434 82.5695C78.3067 77.5775 74.9406 58.8575 74.9406 56.8607C74.9406 54.7391 69.0811 49.3727 69.0811 49.3727" stroke="#263238" stroke-width="0.8351" stroke-miterlimit="10" stroke-linecap="round" stroke-linejoin="round"/>
<path d="M54.2451 30.6526C54.2451 30.6526 55.1178 34.3967 57.6112 34.7711C60.1046 35.1455 62.224 31.027 62.224 31.027L54.2451 30.6526Z" fill="#263238"/>
<path d="M75.3144 32.2751C75.3144 32.2751 77.8078 39.7631 74.9404 43.8815C72.073 47.9999 70.8263 47.9999 70.8263 47.9999C68.3328 52.1183 61.7253 43.0079 61.7253 43.0079C61.7253 43.0079 66.7121 42.7583 67.9589 39.5135C69.2056 36.1439 67.4602 31.4015 67.4602 31.4015L75.3144 32.2751Z" fill="#263238"/>
<path d="M67.8341 32.2751C67.8341 32.2751 69.0808 38.1407 67.8341 41.0111C66.5874 43.8815 61.6006 43.1327 61.6006 43.1327L59.1072 49.3727" stroke="#263238" stroke-width="0.8351" stroke-miterlimit="10" stroke-linecap="round" stroke-linejoin="round"/>
<path d="M33.9238 47.5007C33.9238 47.5007 38.786 48.4991 41.7781 43.0079" stroke="#263238" stroke-width="0.6263" stroke-miterlimit="10" stroke-linecap="round" stroke-linejoin="round"/>
<path d="M119.346 74.5803L109.168 78.3303L114.948 94.0198L125.127 90.2697L119.346 74.5803Z" fill="#263238"/>
<path d="M117.584 78.0423L112.67 79.8543L115.342 87.1152L120.256 85.3032L117.584 78.0423Z" fill="white"/>
<path d="M113.899 72.2304L111.794 73.007L113.561 77.8081L115.666 77.0315L113.899 72.2304Z" fill="white" stroke="#263238" stroke-width="0.4175" stroke-miterlimit="10" stroke-linecap="round" stroke-linejoin="round"/>
<path d="M103.24 140.602L112.466 151.21" stroke="#263238" stroke-width="0.8351" stroke-miterlimit="10" stroke-linecap="round" stroke-linejoin="round"/>
<path d="M80.4255 79.9486L89.4018 80.5726L89.1525 77.203C89.1525 77.203 81.0489 76.579 80.4255 79.9486Z" fill="#FB8A00"/>
<path d="M55.7417 150.835L73.9435 138.729L50.6302 147.715C50.6302 147.715 48.5108 100.041 50.1315 96.2974C51.7522 92.5534 61.7258 85.6894 61.7258 85.6894C61.7258 85.6894 61.1025 81.8206 64.3439 80.4478C67.5853 78.9502 71.2007 80.4478 71.2007 80.4478L73.5695 81.3214C70.9514 79.8238 66.588 76.8286 59.9804 70.5886H59.8558L61.4765 72.0862L60.7285 78.3262L53.7469 84.067C52.1262 85.6894 46.1421 93.3022 46.1421 93.3022L45.7681 156.576L55.243 150.461C55.3676 150.211 55.4923 150.461 55.7417 150.835Z" fill="#FB8A00"/>
<path d="M60.8524 78.2014C60.8524 78.2014 46.266 90.0574 46.266 93.1774C46.266 96.2974 45.2686 154.953 45.892 156.451C46.64 157.824 73.9427 138.729 73.9427 138.729L71.2 113.395" stroke="#263238" stroke-width="0.8351" stroke-miterlimit="10" stroke-linecap="round" stroke-linejoin="round"/>
<path d="M63.5952 107.03L93.142 130.617" stroke="#263238" stroke-width="0.8351" stroke-miterlimit="10" stroke-linecap="round" stroke-linejoin="round"/>
<path d="M191.382 41.635L173.554 36.2686L115.707 26.5342L100.996 42.6334C100.996 42.6334 113.712 34.6462 117.453 34.6462C120.943 34.6462 177.045 50.4958 182.281 51.9934L191.382 41.635Z" fill="#FB8A00"/>
<path d="M83.5422 53.6158C83.5422 53.6158 112.092 26.4094 115.582 26.4094C119.073 26.4094 176.297 37.891 180.536 38.515C184.65 39.2638 191.631 40.6366 191.631 40.6366C191.631 40.6366 179.538 55.8622 175.299 61.1038C171.185 66.3454 169.066 69.4654 169.066 69.4654L122.19 47.875" stroke="#263238" stroke-width="0.8351" stroke-miterlimit="10" stroke-linecap="round" stroke-linejoin="round"/>
<path d="M130.169 53.2414L142.013 84.4414" stroke="#263238" stroke-width="0.8351" stroke-miterlimit="10" stroke-linecap="round" stroke-linejoin="round"/>
<path d="M94.1394 100.041L91.3966 102.912L77.8076 85.4398" stroke="#263238" stroke-width="0.8351" stroke-miterlimit="10" stroke-linecap="round" stroke-linejoin="round"/>
<path d="M116.954 54.3646L130.668 51.9934L118.949 60.2302" stroke="#263238" stroke-width="0.4175" stroke-miterlimit="10" stroke-linecap="round" stroke-linejoin="round"/>
<path d="M71.1999 113.27L53.7461 110.774" stroke="#263238" stroke-width="0.4175" stroke-miterlimit="10" stroke-linecap="round" stroke-linejoin="round"/>
<path d="M61.4757 71.9614C61.4757 71.9614 59.3563 76.4542 61.1017 81.6958C62.8471 86.9374 68.7066 95.9229 68.7066 95.9229L76.3115 85.1902" stroke="#263238" stroke-width="0.8351" stroke-miterlimit="10" stroke-linecap="round" stroke-linejoin="round"/>
<path d="M78.805 80.9469C78.805 80.9469 82.6697 77.4525 86.0358 77.4525C89.4019 77.4525 91.8953 77.4525 91.8953 77.4525C91.8953 77.4525 90.898 63.8493 86.0358 56.6109C81.1737 49.3726 74.5662 53.1166 74.5662 53.1166" stroke="#263238" stroke-width="0.8351" stroke-miterlimit="10" stroke-linecap="round" stroke-linejoin="round"/>
<path d="M72.5714 140.726L114.211 121.257L117.702 109.152L131.914 106.032C131.914 106.032 134.657 103.286 134.283 106.032C133.909 108.777 130.169 109.901 128.673 112.646C127.302 115.392 127.302 121.008 125.556 123.379C123.811 125.75 117.577 128.621 117.577 128.621C117.577 128.621 70.7013 167.933 67.2106 169.929C63.7198 172.051 56.7383 152.208 56.7383 152.208" fill="white"/>
<path d="M55.741 150.835C57.3617 153.456 63.9692 164.064 64.3432 168.307C64.8419 173.049 69.0807 168.307 69.0807 168.307L107.23 136.483C107.23 136.483 69.5793 160.32 66.4626 159.321C63.3458 158.323 62.7225 150.336 62.7225 150.336L73.9428 138.729L55.741 150.835Z" fill="#FDC47F"/>
<path d="M72.5714 140.726L114.211 121.257L117.702 109.152L131.914 106.032C131.914 106.032 134.657 103.286 134.283 106.032C133.909 108.777 130.169 109.901 128.673 112.646C127.302 115.392 127.302 121.008 125.556 123.379C123.811 125.75 117.577 128.621 117.577 128.621C117.577 128.621 70.7013 167.933 67.2106 169.929C63.7198 172.051 56.7383 152.208 56.7383 152.208" stroke="#263238" stroke-width="0.8351" stroke-miterlimit="10" stroke-linecap="round" stroke-linejoin="round"/>
<path d="M131.914 106.032C131.914 106.032 125.058 110.025 125.806 111.523" stroke="#263238" stroke-width="0.4175" stroke-miterlimit="10" stroke-linecap="round" stroke-linejoin="round"/>
<path d="M126.554 107.28L121.317 110.025" stroke="#263238" stroke-width="0.4175" stroke-miterlimit="10" stroke-linecap="round" stroke-linejoin="round"/>
<path d="M159.615 69.6543C159.387 68.9364 158.979 68.3745 158.471 67.9716C158.158 67.7224 157.98 67.3397 157.98 66.9389V63.6657C157.98 63.298 157.683 63 157.315 63H155.985C155.618 63 155.321 63.298 155.321 63.6657V66.4419C155.321 66.9335 155.051 67.3885 154.616 67.6159C153.989 67.9436 153.447 68.4735 153.095 69.2122C151.608 72.3288 148.97 78.781 143.552 84.1945C138.144 89.6184 131.698 92.2591 128.585 93.7472C125.734 95.11 125.986 99.3044 129.027 100.274C130.803 100.841 132.776 101.112 134.842 101.075C140.868 100.966 147.207 97.5824 152.067 92.7179C156.926 87.8535 160.306 81.5081 160.415 75.475C160.452 73.4072 160.181 71.4323 159.615 69.6543Z" fill="#FFCF5D"/>
<path d="M156.818 70.0575C156.939 70.1531 157.024 70.2852 157.08 70.4624C157.561 71.971 157.788 73.6411 157.755 75.4272C157.665 80.4207 154.835 86.1807 150.186 90.8355C145.536 95.49 139.782 98.3225 134.793 98.413C133.384 98.4386 132.251 99.5573 132.185 100.947C133.047 101.049 133.935 101.092 134.842 101.075C140.868 100.966 147.207 97.5824 152.067 92.7179C156.926 87.8535 160.306 81.5081 160.415 75.475C160.452 73.4076 160.181 71.4323 159.615 69.6543C159.387 68.9364 158.979 68.3745 158.471 67.9716C158.158 67.7224 157.98 67.3397 157.98 66.9389V63.6657C157.98 63.298 157.682 63 157.315 63H155.985C155.618 63 155.32 63.298 155.32 63.6657V66.9389C155.32 68.1649 155.866 69.3017 156.818 70.0575Z" fill="#FFB545"/>
<path d="M165.562 78.9227C165.452 78.6567 165.147 78.5306 164.881 78.6407L164.569 78.7698L164.808 78.5309C165.012 78.3275 165.012 77.9974 164.808 77.7941C164.605 77.5907 164.275 77.5907 164.072 77.7941L163.833 78.033L163.963 77.7208C164.073 77.4549 163.946 77.15 163.681 77.0399C163.415 76.9295 163.111 77.0559 163.001 77.3221L162.718 78.0052L164.597 79.8864L165.28 79.6033C165.545 79.4932 165.672 79.1886 165.562 78.9227Z" fill="#28D05B"/>
<path d="M160.124 78.5522C161.209 77.4669 162.819 77.6144 163.903 78.6997C164.988 79.785 165.135 81.3973 164.05 82.4826C162.966 83.5679 160.08 84.6978 158.996 83.6125C157.912 82.5272 159.04 79.6377 160.124 78.5522Z" fill="#FF5368"/>
<path d="M163.904 78.6997C163.643 78.4391 163.353 78.2334 163.046 78.0848C163.515 79.0557 163.403 80.1845 162.579 81.0093C161.755 81.8343 159.891 82.6836 158.567 82.5681C158.604 82.9866 158.736 83.352 158.996 83.6125C160.08 84.6978 162.967 83.5679 164.051 82.4826C165.135 81.3973 164.988 79.785 163.904 78.6997Z" fill="#D9435B"/>
<path d="M162.212 80.9136C162.212 81.2012 161.979 81.4345 161.692 81.4345C161.404 81.4345 161.171 81.2012 161.171 80.9136C161.171 80.6258 161.404 80.3925 161.692 80.3925C161.979 80.3925 162.212 80.6258 162.212 80.9136Z" fill="#FFCF5D"/>
<path d="M160.74 82.3872C160.74 82.675 160.507 82.9083 160.22 82.9083C159.932 82.9083 159.699 82.675 159.699 82.3872C159.699 82.0996 159.932 81.8663 160.22 81.8663C160.507 81.8663 160.74 82.0996 160.74 82.3872Z" fill="#FFCF5D"/>
<path d="M160.74 80.9136C160.74 81.2012 160.507 81.4345 160.22 81.4345C159.932 81.4345 159.699 81.2012 159.699 80.9136C159.699 80.6258 159.932 80.3925 160.22 80.3925C160.507 80.3925 160.74 80.6258 160.74 80.9136Z" fill="#FFCF5D"/>
<path d="M162.212 82.3872C162.212 82.675 161.979 82.9083 161.692 82.9083C161.404 82.9083 161.171 82.675 161.171 82.3872C161.171 82.0996 161.404 81.8663 161.692 81.8663C161.979 81.8663 162.212 82.0996 162.212 82.3872Z" fill="#FFCF5D"/>
<path d="M163.685 80.9136C163.685 81.2012 163.452 81.4345 163.164 81.4345C162.877 81.4345 162.644 81.2012 162.644 80.9136C162.644 80.6258 162.877 80.3925 163.164 80.3925C163.452 80.3925 163.685 80.6258 163.685 80.9136Z" fill="#FFCF5D"/>
<path d="M162.212 79.4397C162.212 79.7273 161.979 79.9606 161.692 79.9606C161.404 79.9606 161.171 79.7273 161.171 79.4397C161.171 79.1519 161.404 78.9186 161.692 78.9186C161.979 78.9186 162.212 79.1519 162.212 79.4397Z" fill="#FFCF5D"/>
<path d="M154.573 114.923C154.463 114.657 154.158 114.531 153.892 114.641L153.581 114.77L153.819 114.531C154.023 114.327 154.023 113.997 153.819 113.794C153.616 113.591 153.286 113.591 153.083 113.794L152.845 114.033L152.974 113.721C153.084 113.455 152.958 113.15 152.692 113.04C152.427 112.93 152.122 113.056 152.012 113.322L151.729 114.005L153.609 115.886L154.291 115.603C154.556 115.493 154.683 115.189 154.573 114.923Z" fill="#28D05B"/>
<path d="M149.136 114.552C150.22 113.467 151.83 113.614 152.915 114.7C153.999 115.785 154.146 117.397 153.062 118.483C151.978 119.568 149.091 120.698 148.007 119.613C146.923 118.527 148.051 115.638 149.136 114.552Z" fill="#FF5368"/>
<path d="M152.915 114.7C152.654 114.439 152.364 114.233 152.057 114.085C152.526 115.056 152.414 116.185 151.59 117.009C150.766 117.834 148.902 118.684 147.579 118.568C147.615 118.987 147.747 119.352 148.007 119.613C149.091 120.698 151.978 119.568 153.062 118.483C154.146 117.397 153.999 115.785 152.915 114.7Z" fill="#D9435B"/>
<path d="M151.224 116.914C151.224 117.201 150.99 117.435 150.703 117.435C150.416 117.435 150.183 117.201 150.183 116.914C150.183 116.626 150.416 116.393 150.703 116.393C150.99 116.393 151.224 116.626 151.224 116.914Z" fill="#FFCF5D"/>
<path d="M149.751 118.387C149.751 118.675 149.518 118.908 149.231 118.908C148.944 118.908 148.71 118.675 148.71 118.387C148.71 118.1 148.944 117.866 149.231 117.866C149.518 117.866 149.751 118.1 149.751 118.387Z" fill="#FFCF5D"/>
<path d="M149.751 116.914C149.751 117.201 149.518 117.434 149.231 117.434C148.944 117.434 148.71 117.201 148.71 116.914C148.71 116.626 148.944 116.393 149.231 116.393C149.518 116.393 149.751 116.626 149.751 116.914Z" fill="#FFCF5D"/>
<path d="M151.224 118.387C151.224 118.675 150.99 118.908 150.703 118.908C150.416 118.908 150.183 118.675 150.183 118.387C150.183 118.1 150.416 117.866 150.703 117.866C150.99 117.866 151.224 118.1 151.224 118.387Z" fill="#FFCF5D"/>
<path d="M152.696 116.914C152.696 117.201 152.463 117.435 152.175 117.435C151.888 117.435 151.655 117.201 151.655 116.914C151.655 116.626 151.888 116.393 152.175 116.393C152.463 116.393 152.696 116.626 152.696 116.914Z" fill="#FFCF5D"/>
<path d="M151.224 115.44C151.224 115.727 150.99 115.961 150.703 115.961C150.416 115.961 150.183 115.727 150.183 115.44C150.183 115.152 150.416 114.919 150.703 114.919C150.99 114.919 151.224 115.152 151.224 115.44Z" fill="#FFCF5D"/>
<path d="M159.502 90.6827C159.502 92.6012 157.948 94.1563 156.032 94.1563C154.115 94.1563 152.562 92.6012 152.562 90.6827C152.562 88.7641 154.115 87.2087 156.032 87.2087C157.948 87.2087 159.502 88.7641 159.502 90.6827Z" fill="#5C87BD"/>
<path d="M157.637 87.603C157.888 88.0835 158.031 88.6297 158.031 89.2096C158.031 91.1279 156.477 92.6833 154.561 92.6833C153.982 92.6833 153.436 92.5406 152.956 92.2894C153.535 93.3987 154.695 94.1564 156.032 94.1564C157.949 94.1564 159.503 92.6013 159.503 90.6827C159.503 89.3438 158.746 88.1829 157.637 87.603Z" fill="#456EA2"/>
<path d="M156.611 89.4667L156.763 89.3141C156.966 89.1108 156.966 88.7807 156.763 88.5773C156.56 88.374 156.23 88.374 156.027 88.5773L155.875 88.7299L155.722 88.5773C155.519 88.374 155.189 88.374 154.986 88.5773C154.783 88.781 154.783 89.1108 154.986 89.3141L155.139 89.4667L154.986 89.6193C154.783 89.823 154.783 90.1528 154.986 90.3564C155.088 90.458 155.221 90.509 155.354 90.509C155.487 90.509 155.621 90.458 155.722 90.3564L155.875 90.2038L156.027 90.3564C156.129 90.458 156.262 90.509 156.395 90.509C156.528 90.509 156.662 90.458 156.763 90.3564C156.967 90.1528 156.967 89.823 156.763 89.6193L156.611 89.4667Z" fill="#315588"/>
<path d="M164.497 89.4739C164.497 91.3925 162.943 92.9476 161.027 92.9476C159.11 92.9476 157.557 91.3925 157.557 89.4739C157.557 87.5553 159.11 86 161.027 86C162.943 86 164.497 87.5553 164.497 89.4739Z" fill="#5C87BD"/>
<path d="M162.632 86.3942C162.883 86.8747 163.026 87.421 163.026 88.0009C163.026 89.9192 161.472 91.4746 159.556 91.4746C158.976 91.4746 158.431 91.3319 157.951 91.0807C158.53 92.19 159.69 92.9476 161.027 92.9476C162.944 92.9476 164.498 91.3925 164.498 89.474C164.498 88.1351 163.741 86.9741 162.632 86.3942Z" fill="#456EA2"/>
<path d="M161.606 88.258L161.758 88.1054C161.961 87.902 161.961 87.572 161.758 87.3686C161.555 87.1652 161.225 87.1652 161.022 87.3686L160.869 87.5212L160.717 87.3686C160.514 87.1652 160.184 87.1652 159.981 87.3686C159.778 87.5722 159.778 87.902 159.981 88.1054L160.133 88.258L159.981 88.4106C159.778 88.6142 159.778 88.944 159.981 89.1477C160.083 89.2492 160.216 89.3003 160.349 89.3003C160.482 89.3003 160.616 89.2492 160.717 89.1477L160.869 88.9951L161.022 89.1477C161.124 89.2492 161.257 89.3003 161.39 89.3003C161.523 89.3003 161.656 89.2492 161.758 89.1477C161.962 88.944 161.962 88.6142 161.758 88.4106L161.606 88.258Z" fill="#315588"/>
<path d="M143.519 102.474C143.519 104.392 141.965 105.948 140.048 105.948C138.132 105.948 136.578 104.392 136.578 102.474C136.578 100.555 138.132 99 140.048 99C141.965 99 143.519 100.555 143.519 102.474Z" fill="#5C87BD"/>
<path d="M141.654 99.3942C141.905 99.8747 142.048 100.421 142.048 101.001C142.048 102.919 140.494 104.475 138.577 104.475C137.998 104.475 137.452 104.332 136.972 104.081C137.552 105.19 138.712 105.948 140.049 105.948C141.966 105.948 143.519 104.393 143.519 102.474C143.519 101.135 142.762 99.9741 141.654 99.3942Z" fill="#456EA2"/>
<path d="M140.627 101.258L140.78 101.105C140.983 100.902 140.983 100.572 140.78 100.369C140.576 100.165 140.247 100.165 140.044 100.369L139.891 100.521L139.739 100.369C139.536 100.165 139.206 100.165 139.003 100.369C138.799 100.572 138.799 100.902 139.003 101.105L139.155 101.258L139.003 101.411C138.799 101.614 138.799 101.944 139.003 102.148C139.104 102.249 139.238 102.3 139.371 102.3C139.504 102.3 139.637 102.249 139.739 102.148L139.891 101.995L140.044 102.148C140.145 102.249 140.279 102.3 140.412 102.3C140.545 102.3 140.678 102.249 140.78 102.148C140.983 101.944 140.983 101.614 140.78 101.411L140.627 101.258Z" fill="#315588"/>
<path d="M129.533 100.474C129.533 102.392 127.98 103.948 126.063 103.948C124.147 103.948 122.593 102.392 122.593 100.474C122.593 98.5553 124.147 97 126.063 97C127.98 97 129.533 98.5553 129.533 100.474Z" fill="#5C87BD"/>
<path d="M127.669 97.3942C127.92 97.8747 128.062 98.421 128.062 99.0009C128.062 100.919 126.509 102.475 124.592 102.475C124.013 102.475 123.467 102.332 122.987 102.081C123.566 103.19 124.726 103.948 126.064 103.948C127.98 103.948 129.534 102.393 129.534 100.474C129.534 99.1351 128.777 97.9741 127.669 97.3942Z" fill="#456EA2"/>
<path d="M126.642 99.258L126.795 99.1054C126.998 98.902 126.998 98.572 126.795 98.3686C126.591 98.1652 126.262 98.1652 126.058 98.3686L125.906 98.5212L125.753 98.3686C125.55 98.1652 125.22 98.1652 125.017 98.3686C124.814 98.5722 124.814 98.902 125.017 99.1054L125.17 99.258L125.017 99.4106C124.814 99.6142 124.814 99.944 125.017 100.148C125.119 100.249 125.252 100.3 125.385 100.3C125.519 100.3 125.652 100.249 125.754 100.148L125.906 99.9951L126.058 100.148C126.16 100.249 126.293 100.3 126.426 100.3C126.56 100.3 126.693 100.249 126.795 100.148C126.998 99.944 126.998 99.6142 126.795 99.4106L126.642 99.258Z" fill="#315588"/>
<path d="M170.868 95.908C170.751 95.6477 170.437 95.5397 170.174 95.649L169.882 95.7698L170.105 95.5464C170.307 95.3446 170.327 95.0132 170.132 94.8056C169.93 94.5907 169.592 94.5867 169.385 94.7941L169.146 95.0327L169.275 94.7208C169.385 94.4549 169.259 94.15 168.993 94.0399C168.728 93.9295 168.423 94.0559 168.313 94.3218L168.031 95.0049C167.962 95.1698 167.985 95.3446 168.07 95.4806C168.21 95.7048 168.186 95.994 167.999 96.1811L167.994 96.1854C167.787 96.393 167.776 96.7444 167.988 96.947C168.192 97.1416 168.515 97.1386 168.715 96.9382C168.932 96.7207 169.215 96.7129 169.44 96.8497C169.52 96.8986 169.613 96.9262 169.711 96.9262C169.777 96.9262 169.845 96.9133 169.91 96.8863L170.592 96.6033C170.863 96.4911 170.989 96.1771 170.868 95.908Z" fill="#28D05B"/>
<path d="M169.424 96.2287C169.043 96.1266 168.648 96.2476 168.388 96.5301L166.68 95.9964L165.416 97.3244L164.88 99.3274C164.874 99.3258 164.868 99.3236 164.862 99.3218C164.306 99.1726 163.735 99.5022 163.586 100.058C163.437 100.614 163.766 101.186 164.322 101.335C164.877 101.484 165.448 101.155 165.597 100.599C165.64 100.439 165.647 100.274 165.612 100.113C165.718 100.434 165.982 100.701 166.333 100.796C166.889 100.944 167.46 100.615 167.609 100.059C167.654 99.8883 167.656 99.709 167.614 99.5377C167.661 99.7018 167.749 99.8563 167.878 99.9853C168.285 100.392 168.944 100.392 169.35 99.9853C169.757 99.5783 169.757 98.9185 169.35 98.5115C169.222 98.3832 169.065 98.2929 168.897 98.2453C169.448 98.3867 170.012 98.0572 170.16 97.505C170.309 96.9491 169.979 96.3775 169.424 96.2287Z" fill="#D9435B"/>
<path d="M167.952 94.7555C167.178 94.5481 166.471 95.2598 166.677 96.0316C166.557 95.58 166.146 95.2598 165.671 95.2598C165.405 95.2598 165.139 95.3614 164.935 95.565C164.529 95.972 164.529 96.6319 164.935 97.0389C165.076 97.1795 165.246 97.2717 165.426 97.315C164.859 97.1487 164.276 97.4857 164.127 98.0461C163.978 98.602 164.308 99.1734 164.863 99.3222C165.419 99.4708 165.99 99.1408 166.138 98.5846C166.185 98.4083 166.185 98.2225 166.138 98.0461C166.256 98.478 166.648 98.8179 167.144 98.8179C167.145 98.8179 167.147 98.8177 167.149 98.8177C168.064 98.8137 168.536 97.6955 167.88 97.0389C167.745 96.9034 167.585 96.8152 167.418 96.77C167.972 96.916 168.54 96.5862 168.688 96.0316C168.837 95.4755 168.507 94.9044 167.952 94.7555Z" fill="#FF5368"/>
<path d="M118.922 104.908C118.805 104.648 118.491 104.54 118.228 104.649L117.936 104.77L118.16 104.546C118.361 104.345 118.381 104.013 118.186 103.806C117.984 103.591 117.646 103.587 117.439 103.794L117.2 104.033L117.329 103.721C117.439 103.455 117.313 103.15 117.048 103.04C116.782 102.93 116.477 103.056 116.367 103.322L116.085 104.005C116.017 104.17 116.04 104.345 116.125 104.481C116.264 104.705 116.24 104.994 116.053 105.181L116.049 105.185C115.841 105.393 115.83 105.744 116.042 105.947C116.246 106.142 116.569 106.139 116.769 105.938C116.987 105.721 117.27 105.713 117.494 105.85C117.574 105.899 117.667 105.926 117.765 105.926C117.832 105.926 117.899 105.913 117.964 105.886L118.647 105.603C118.917 105.491 119.043 105.177 118.922 104.908Z" fill="#28D05B"/>
<path d="M117.478 105.229C117.098 105.127 116.702 105.248 116.442 105.53L114.734 104.996L113.47 106.324L112.934 108.327C112.928 108.326 112.922 108.324 112.916 108.322C112.36 108.173 111.79 108.502 111.64 109.058C111.491 109.614 111.821 110.186 112.376 110.335C112.931 110.484 113.502 110.155 113.651 109.599C113.694 109.439 113.701 109.274 113.666 109.113C113.773 109.434 114.036 109.701 114.388 109.796C114.943 109.944 115.514 109.615 115.663 109.059C115.708 108.888 115.71 108.709 115.668 108.538C115.715 108.702 115.803 108.856 115.932 108.985C116.339 109.392 116.998 109.392 117.404 108.985C117.811 108.578 117.811 107.918 117.404 107.511C117.276 107.383 117.119 107.293 116.951 107.245C117.503 107.387 118.066 107.057 118.214 106.505C118.363 105.949 118.033 105.378 117.478 105.229Z" fill="#D9435B"/>
<path d="M116.006 103.756C115.232 103.548 114.525 104.26 114.731 105.032C114.611 104.58 114.2 104.26 113.726 104.26C113.459 104.26 113.193 104.361 112.99 104.565C112.583 104.972 112.583 105.632 112.99 106.039C113.13 106.179 113.3 106.272 113.48 106.315C112.913 106.149 112.331 106.486 112.181 107.046C112.032 107.602 112.362 108.173 112.917 108.322C113.473 108.471 114.044 108.141 114.192 107.585C114.24 107.408 114.24 107.223 114.192 107.046C114.31 107.478 114.702 107.818 115.198 107.818C115.2 107.818 115.201 107.818 115.203 107.818C116.118 107.814 116.59 106.696 115.934 106.039C115.799 105.903 115.639 105.815 115.472 105.77C116.026 105.916 116.594 105.586 116.743 105.032C116.891 104.475 116.561 103.904 116.006 103.756Z" fill="#FF5368"/>
<path d="M147.034 82.4634L144.898 81.1096C144.361 80.7693 143.686 81.2759 143.872 81.8806L144.499 83.918C144.966 85.437 145.933 86.7573 147.245 87.6687L149.343 89.0509C149.343 86.5757 149.248 83.8668 147.034 82.4634Z" fill="#28D05B"/>
<path d="M156.638 82.1661L156.3 81.8271C156.13 81.6569 155.878 81.5976 155.65 81.6735C152.343 82.777 149.901 85.292 148.586 88.9469L149.781 89.3775C150.926 86.1939 152.911 84.0535 155.685 83.0097L155.74 83.0652C155.988 83.3132 156.39 83.3132 156.638 83.0652C156.886 82.8168 156.886 82.4145 156.638 82.1661Z" fill="#B66652"/>
<path d="M152.856 88.128C151.625 88.083 150.432 88.4041 149.344 89.0117C148.256 88.4041 147.062 88.0827 145.831 88.128C143.257 88.2378 141.405 89.62 140.418 91.3995C139.427 93.2081 139.3 95.4144 140.09 97.8488C141.299 101.561 144.507 104.887 147.554 105.061C147.853 105.081 148.146 105.076 148.431 105.045C149.034 104.982 149.654 104.982 150.256 105.045C150.541 105.076 150.833 105.081 151.133 105.061C154.18 104.887 157.388 101.561 158.597 97.8488C159.387 95.4144 159.26 93.2081 158.269 91.3995C157.282 89.62 155.43 88.2378 152.856 88.128Z" fill="#FF5368"/>
<path d="M158.269 91.3996C157.786 90.5285 157.095 89.7534 156.214 89.1754C156.306 89.3149 156.393 89.4574 156.474 89.6027C157.465 91.4113 157.592 93.6176 156.802 96.0523C155.99 98.5448 154.277 100.863 152.316 102.17C151.234 102.892 149.956 103.264 148.655 103.264H143.656C144.867 104.31 146.226 104.985 147.554 105.061C147.853 105.082 148.146 105.076 148.431 105.045C149.038 104.981 149.65 104.981 150.257 105.046C150.541 105.076 150.834 105.081 151.133 105.061C154.18 104.887 157.388 101.561 158.596 97.8492C159.387 95.4144 159.26 93.2085 158.269 91.3996Z" fill="#D9435B"/>
<path d="M141.888 98.9353C141.588 97.6774 140.458 96.7422 139.11 96.7422C137.761 96.7422 136.632 97.6774 136.332 98.9353C132.427 100.125 129.586 103.758 129.586 108.057C129.586 113.322 133.85 117.59 139.11 117.59C144.37 117.59 148.634 113.322 148.634 108.057C148.634 103.758 145.793 100.125 141.888 98.9353Z" fill="#FF983B"/>
<path d="M144.758 100.38C145.925 101.962 146.614 103.918 146.614 106.035C146.614 111.3 142.35 115.569 137.09 115.569C134.975 115.569 133.022 114.878 131.442 113.711C133.176 116.064 135.965 117.59 139.11 117.59C144.37 117.59 148.634 113.322 148.634 108.056C148.634 104.908 147.109 102.116 144.758 100.38Z" fill="#FF7E40"/>
<path d="M138.395 92.9245V99.5725C138.395 99.9638 138.697 100.305 139.088 100.317C139.492 100.329 139.824 100.005 139.824 99.6022V92.1532C139.211 91.7498 138.395 92.1899 138.395 92.9245Z" fill="#B66652"/>
<path d="M144.551 99.2791L143.846 96.9871C143.32 95.2781 142.232 93.7925 140.756 92.7675L139.824 92.1536C139.211 91.7498 138.395 92.1899 138.395 92.9245V93.9403C138.395 95.8524 139.309 97.5559 140.993 98.6234L143.396 100.147C144 100.529 144.76 99.9591 144.551 99.2791Z" fill="#28D05B"/>
<path d="M135.413 103.32C135.413 103.715 135.093 104.036 134.699 104.036C134.304 104.036 133.984 103.715 133.984 103.32C133.984 102.925 134.304 102.605 134.699 102.605C135.093 102.605 135.413 102.925 135.413 103.32Z" fill="#FF7E40"/>
<path d="M137.318 105.99C137.318 106.385 136.998 106.705 136.604 106.705C136.209 106.705 135.889 106.385 135.889 105.99C135.889 105.595 136.209 105.275 136.604 105.275C136.998 105.275 137.318 105.595 137.318 105.99Z" fill="#FF7E40"/>
<path d="M133.508 108.088C133.508 108.483 133.188 108.803 132.793 108.803C132.399 108.803 132.079 108.483 132.079 108.088C132.079 107.693 132.399 107.373 132.793 107.373C133.188 107.373 133.508 107.693 133.508 108.088Z" fill="#FF7E40"/>
<path d="M162.643 94.7162C162.566 94.7162 162.487 94.7007 162.411 94.6676L159.937 93.5912C159.642 93.4628 159.506 93.1193 159.634 92.8234C159.763 92.5281 160.106 92.3921 160.401 92.5209L162.876 93.5973C163.171 93.7253 163.306 94.0692 163.178 94.3648C163.082 94.5848 162.868 94.7162 162.643 94.7162Z" fill="#FF4B34"/>
<path d="M166.33 92.8195C166.252 92.8195 166.174 92.8039 166.098 92.7709L162.88 91.3723C162.585 91.2439 162.449 90.9 162.578 90.6045C162.706 90.3089 163.049 90.1728 163.344 90.3016L166.562 91.7002C166.857 91.8286 166.993 92.1725 166.865 92.4681C166.769 92.6881 166.555 92.8195 166.33 92.8195Z" fill="#FF4B34"/>
<path d="M158.697 100.233C157.769 99.7194 157.335 98.6301 157.668 97.6506L162.588 83.1425C163.55 80.3051 166.892 79.0684 169.578 80.5566C172.263 82.0449 172.991 85.5369 171.099 87.8595L161.429 99.735C160.776 100.537 159.624 100.747 158.697 100.233Z" fill="#FF624B"/>
<path d="M173.461 76.881H173.461C173.611 76.7348 173.742 76.5649 173.849 76.3723C174.448 75.2887 174.033 73.9107 172.922 73.2948C171.811 72.6793 170.424 73.0588 169.825 74.1424C169.719 74.335 169.645 74.5368 169.6 74.7416H169.6L169.599 74.748C169.587 74.8058 169.577 74.8639 169.569 74.9224L168.883 78.9483C168.826 79.2796 168.99 79.6143 169.291 79.7807C169.587 79.9449 169.952 79.9103 170.202 79.6937L173.261 77.0539C173.329 77.0022 173.393 76.946 173.455 76.8864L173.461 76.881Z" fill="#EACF32"/>
<path d="M165.059 88.628C164.982 88.628 164.903 88.6124 164.827 88.5794L162.353 87.503C162.057 87.3746 161.922 87.0307 162.051 86.7352C162.179 86.4399 162.523 86.3039 162.817 86.4327L165.292 87.5087C165.587 87.6371 165.722 87.9814 165.594 88.2766C165.499 88.4966 165.284 88.628 165.059 88.628Z" fill="#FF4B34"/>
<path d="M169.923 87.3221C169.846 87.3221 169.767 87.3066 169.691 87.2739L165.253 85.3446C164.958 85.2161 164.822 84.8723 164.951 84.5767C165.079 84.2811 165.422 84.1455 165.717 84.2739L170.156 86.2032C170.451 86.3316 170.586 86.6755 170.458 86.9711C170.362 87.1911 170.148 87.3221 169.923 87.3221Z" fill="#FF4B34"/>
<path d="M169.939 79.8435C169.94 79.8294 169.942 79.815 169.944 79.8005L170.63 75.7747C170.638 75.7162 170.648 75.658 170.66 75.6003L170.661 75.5938H170.662C170.706 75.389 170.78 75.1873 170.886 74.9946C171.439 73.9939 172.664 73.5946 173.723 74.0235C173.524 73.7317 173.254 73.4791 172.922 73.2952C171.811 72.6793 170.424 73.0588 169.825 74.1428C169.718 74.3351 169.645 74.5368 169.6 74.742L169.6 74.7416L169.599 74.7484C169.586 74.8062 169.576 74.8643 169.569 74.9225L168.883 78.9487C168.826 79.28 168.99 79.6144 169.291 79.7812C169.494 79.8936 169.73 79.9122 169.939 79.8435Z" fill="#CCC033"/>
<path d="M169.619 79.1298L168.929 75.8756C168.919 75.8065 168.904 75.7373 168.886 75.6689L168.884 75.6629H168.884C168.838 75.4961 168.768 75.3323 168.672 75.1765C168.131 74.2989 166.981 74.0048 166.104 74.5196C165.226 75.0348 164.954 76.164 165.495 77.0417C165.591 77.1974 165.706 77.3342 165.836 77.452L165.835 77.4524L165.84 77.4558C165.876 77.4889 165.914 77.5204 165.953 77.5504L168.567 79.7355C168.782 79.9152 169.086 79.9425 169.323 79.8031C169.557 79.6659 169.675 79.3966 169.619 79.1298Z" fill="#FCE575"/>
<path d="M167.263 76.9472C167.225 76.9175 167.187 76.886 167.15 76.8529L167.146 76.8491L167.146 76.8488C167.017 76.7314 166.902 76.5942 166.806 76.4384C166.367 75.726 166.464 74.848 166.985 74.2671C166.682 74.2762 166.379 74.3579 166.104 74.5197C165.226 75.0345 164.954 76.1641 165.495 77.0418C165.591 77.1975 165.706 77.3343 165.836 77.4521L165.835 77.4525L165.84 77.4559C165.876 77.489 165.914 77.5205 165.953 77.5505L168.567 79.7356C168.782 79.9153 169.086 79.9426 169.323 79.8032C169.557 79.666 169.675 79.3966 169.619 79.1299L169.564 78.87L167.263 76.9472Z" fill="#EACF32"/>
<path d="M175.582 79.7723C175.552 78.7545 174.693 77.9353 173.663 77.9422C173.48 77.9433 173.304 77.9714 173.139 78.0208V78.0204L173.133 78.0227C173.065 78.0432 172.998 78.0675 172.934 78.0953L169.813 79.2374C169.558 79.3308 169.392 79.5744 169.4 79.8457C169.408 80.1211 169.593 80.3647 169.859 80.4517L173.097 81.509C173.142 81.5261 173.189 81.5413 173.236 81.555L173.242 81.5565V81.5562C173.41 81.6037 173.587 81.6287 173.77 81.6276C174.801 81.6207 175.612 80.7898 175.582 79.7723Z" fill="#FCE575"/>
<path d="M175.081 81.0243C174.898 81.0258 174.721 81.0004 174.553 80.9532V80.9536L174.547 80.9517C174.5 80.9384 174.453 80.9228 174.408 80.9061L171.17 79.8484C170.904 79.7614 170.719 79.5178 170.711 79.2428C170.707 79.1056 170.747 78.976 170.821 78.8689L169.813 79.2378C169.558 79.3313 169.392 79.5744 169.4 79.8461C169.408 80.1212 169.593 80.3647 169.859 80.4517L173.097 81.5095C173.142 81.5262 173.189 81.5418 173.236 81.5551L173.242 81.557V81.5566C173.41 81.6041 173.587 81.6292 173.77 81.628C174.313 81.6242 174.795 81.3913 175.126 81.0232C175.111 81.0235 175.096 81.0243 175.081 81.0243Z" fill="#EACF32"/>
<path d="M160.238 98.3087L165.158 83.8006C165.83 81.8192 167.662 80.6186 169.621 80.5813C169.607 80.573 169.592 80.5646 169.578 80.5566C166.893 79.0684 163.55 80.3051 162.588 83.1425L157.668 97.6506C157.335 98.6301 157.769 99.7194 158.696 100.233C159.307 100.571 160.015 100.596 160.614 100.344C160.158 99.7806 159.998 99.0161 160.238 98.3087Z" fill="#FF4B34"/>
<path d="M125.682 101.716C125.604 101.716 125.525 101.701 125.45 101.668L122.975 100.591C122.68 100.463 122.545 100.119 122.673 99.8234C122.801 99.5281 123.145 99.3921 123.44 99.5209L125.914 100.597C126.21 100.725 126.345 101.069 126.217 101.365C126.121 101.585 125.907 101.716 125.682 101.716Z" fill="#FF4B34"/>
<path d="M129.368 99.8195C129.291 99.8195 129.212 99.8039 129.136 99.7709L125.919 98.3723C125.623 98.2439 125.488 97.9 125.616 97.6045C125.745 97.3089 126.087 97.1728 126.383 97.3016L129.601 98.7002C129.896 98.8286 130.032 99.1725 129.903 99.4681C129.808 99.6881 129.594 99.8195 129.368 99.8195Z" fill="#FF4B34"/>
<path d="M121.735 107.233C120.808 106.719 120.374 105.63 120.706 104.651L125.626 90.1425C126.588 87.3051 129.931 86.0684 132.616 87.5566C135.302 89.0449 136.029 92.5369 134.138 94.8595L124.467 106.735C123.815 107.537 122.662 107.747 121.735 107.233Z" fill="#FF624B"/>
<path d="M136.5 83.881H136.5C136.649 83.7348 136.781 83.5649 136.888 83.3723C137.487 82.2887 137.072 80.9107 135.961 80.2948C134.85 79.6793 133.463 80.0588 132.864 81.1424C132.758 81.335 132.684 81.5368 132.639 81.7416H132.639L132.638 81.748C132.626 81.8058 132.616 81.8639 132.608 81.9224L131.921 85.9483C131.865 86.2796 132.029 86.6143 132.33 86.7807C132.626 86.9449 132.991 86.9103 133.241 86.6937L136.3 84.0539C136.367 84.0022 136.432 83.946 136.494 83.8864L136.5 83.881Z" fill="#EACF32"/>
<path d="M128.098 95.628C128.02 95.628 127.941 95.6124 127.866 95.5794L125.392 94.503C125.096 94.3746 124.961 94.0307 125.089 93.7352C125.217 93.4399 125.561 93.3039 125.856 93.4327L128.33 94.5087C128.625 94.6371 128.761 94.9814 128.633 95.2766C128.537 95.4966 128.323 95.628 128.098 95.628Z" fill="#FF4B34"/>
<path d="M132.962 94.3221C132.884 94.3221 132.805 94.3066 132.73 94.2739L128.292 92.3446C127.996 92.2161 127.861 91.8723 127.989 91.5767C128.117 91.2811 128.46 91.1455 128.756 91.2739L133.194 93.2032C133.489 93.3316 133.625 93.6755 133.497 93.9711C133.401 94.1911 133.187 94.3221 132.962 94.3221Z" fill="#FF4B34"/>
<path d="M132.977 86.8435C132.979 86.8294 132.98 86.815 132.983 86.8005L133.669 82.7747C133.676 82.7162 133.686 82.658 133.699 82.6003L133.7 82.5938H133.7C133.745 82.389 133.818 82.1873 133.925 81.9946C134.478 80.9939 135.703 80.5946 136.762 81.0235C136.563 80.7317 136.293 80.4791 135.961 80.2952C134.85 79.6793 133.463 80.0588 132.863 81.1428C132.757 81.3351 132.684 81.5368 132.639 81.742L132.639 81.7416L132.638 81.7484C132.625 81.8062 132.615 81.8643 132.608 81.9225L131.921 85.9487C131.865 86.28 132.029 86.6144 132.329 86.7812C132.533 86.8936 132.769 86.9122 132.977 86.8435Z" fill="#CCC033"/>
<path d="M132.657 86.1298L131.968 82.8756C131.958 82.8065 131.943 82.7373 131.924 82.6689L131.923 82.6629H131.922C131.876 82.4961 131.807 82.3323 131.71 82.1765C131.17 81.2989 130.02 81.0048 129.142 81.5196C128.265 82.0348 127.992 83.164 128.533 84.0417C128.629 84.1974 128.745 84.3342 128.874 84.452L128.874 84.4524L128.878 84.4558C128.915 84.4889 128.952 84.5204 128.991 84.5504L131.605 86.7355C131.821 86.9152 132.125 86.9425 132.362 86.8031C132.596 86.6659 132.714 86.3966 132.657 86.1298Z" fill="#FCE575"/>
<path d="M130.302 83.9472C130.264 83.9175 130.226 83.886 130.189 83.8529L130.185 83.8491L130.185 83.8488C130.056 83.7314 129.94 83.5942 129.844 83.4384C129.405 82.726 129.502 81.848 130.023 81.2671C129.721 81.2762 129.418 81.3579 129.142 81.5197C128.265 82.0345 127.992 83.1641 128.533 84.0418C128.629 84.1975 128.745 84.3343 128.874 84.4521L128.874 84.4525L128.878 84.4559C128.915 84.489 128.952 84.5205 128.991 84.5505L131.605 86.7356C131.821 86.9153 132.125 86.9426 132.362 86.8032C132.596 86.666 132.714 86.3966 132.657 86.1299L132.602 85.87L130.302 83.9472Z" fill="#EACF32"/>
<path d="M138.621 86.7723C138.591 85.7545 137.731 84.9353 136.701 84.9422C136.518 84.9433 136.343 84.9714 136.177 85.0208V85.0204L136.171 85.0227C136.103 85.0432 136.037 85.0675 135.973 85.0953L132.852 86.2374C132.596 86.3308 132.431 86.5744 132.439 86.8457C132.447 87.1211 132.631 87.3647 132.898 87.4517L136.135 88.509C136.181 88.5261 136.227 88.5413 136.275 88.555L136.28 88.5565V88.5562C136.449 88.6037 136.626 88.6287 136.809 88.6276C137.839 88.6207 138.65 87.7898 138.621 86.7723Z" fill="#FCE575"/>
<path d="M138.12 88.0243C137.937 88.0258 137.76 88.0004 137.591 87.9532V87.9536L137.586 87.9517C137.538 87.9384 137.492 87.9228 137.446 87.9061L134.209 86.8484C133.942 86.7614 133.758 86.5178 133.75 86.2428C133.746 86.1056 133.786 85.976 133.859 85.8689L132.852 86.2378C132.596 86.3313 132.431 86.5744 132.439 86.8461C132.447 87.1212 132.631 87.3647 132.898 87.4517L136.135 88.5095C136.181 88.5262 136.227 88.5418 136.275 88.5551L136.281 88.557V88.5566C136.449 88.6041 136.626 88.6292 136.809 88.628C137.352 88.6242 137.834 88.3913 138.164 88.0232C138.149 88.0235 138.135 88.0243 138.12 88.0243Z" fill="#EACF32"/>
<path d="M123.276 105.309L128.196 90.8006C128.868 88.8192 130.701 87.6186 132.66 87.5813C132.645 87.573 132.631 87.5646 132.617 87.5566C129.931 86.0684 126.589 87.3051 125.626 90.1425L120.706 104.651C120.374 105.63 120.808 106.719 121.735 107.233C122.346 107.571 123.053 107.596 123.652 107.344C123.196 106.781 123.036 106.016 123.276 105.309Z" fill="#FF4B34"/>
<path d="M154.207 115.933L154.27 115.92C155.812 115.615 156.816 114.115 156.51 112.57L154.893 104.394L152.037 104.96L154.207 115.933Z" fill="#FCDA4F"/>
<path d="M147.209 96.8521C146.29 92.207 147.628 87.8728 150.273 86.1015C149.632 85.9721 148.981 85.9636 148.335 86.092C144.548 86.8424 142.376 91.9907 143.484 97.5905C144.591 103.191 148.559 107.122 152.346 106.372C152.992 106.244 153.59 105.988 154.134 105.623C151.015 104.994 148.128 101.498 147.209 96.8521Z" fill="#CCC033"/>
<path d="M155.398 88.0717C152.128 88.0032 149.393 91.8866 149.292 96.746C149.19 101.605 151.758 105.6 155.029 105.669C158.299 105.738 161.034 101.855 161.135 96.9952C161.237 92.1358 158.669 88.1405 155.398 88.0717Z" fill="#CCC033"/>
<path d="M158.315 94.6512C157.784 91.9653 156.595 89.6641 155.084 88.0784C151.883 88.2612 149.303 92.2001 149.289 96.9818C149.275 101.66 151.721 105.438 154.823 105.66C157.749 104.085 159.282 99.5407 158.315 94.6512Z" fill="#99AF17"/>
<path d="M154.207 115.933L154.144 115.945C152.601 116.251 151.103 115.247 150.798 113.702L149.18 105.526L152.037 104.96L154.207 115.933Z" fill="#FCDA4F"/>
<path d="M151.473 96.3147C149.53 91.8609 145.523 89.313 142.526 90.6241C139.527 91.9352 138.674 96.6091 140.617 101.063C142.561 105.517 146.568 108.065 149.565 106.754C152.563 105.443 153.417 100.769 151.473 96.3147Z" fill="#99AF17"/>
<path d="M157.198 94.8734C156.091 89.2732 152.123 85.3415 148.336 86.0919C144.548 86.8426 142.376 91.9909 143.484 97.5911C144.591 103.191 148.559 107.123 152.346 106.372C156.133 105.622 158.306 100.474 157.198 94.8734Z" fill="#EACF32"/>
<path d="M149.881 97.0403C148.45 97.0403 147.298 96.2728 147.242 96.2345C147.001 96.0715 146.939 95.7449 147.101 95.5043C147.263 95.264 147.589 95.2006 147.829 95.3625C147.848 95.3749 149.118 96.2081 150.438 95.9322C151.185 95.7761 151.827 95.2855 152.346 94.4742C152.502 94.2294 152.827 94.1579 153.072 94.315C153.316 94.4718 153.387 94.797 153.231 95.0414C152.551 96.1034 151.68 96.75 150.642 96.964C150.384 97.0174 150.128 97.0403 149.881 97.0403Z" fill="#FFEEA4"/>
<path d="M150.744 101.755C148.587 101.755 146.772 100.239 146.686 100.167C146.465 99.9789 146.438 99.6472 146.625 99.4257C146.812 99.2042 147.143 99.1765 147.365 99.3638C147.385 99.3805 149.398 101.055 151.416 100.636C152.565 100.397 153.528 99.5106 154.281 97.9999C154.41 97.7401 154.726 97.6343 154.985 97.7637C155.244 97.8934 155.35 98.2091 155.221 98.4689C154.316 100.285 153.106 101.361 151.623 101.667C151.326 101.728 151.032 101.755 150.744 101.755Z" fill="#FFEEA4"/>
<path d="M150.462 93.0626C150.382 92.7165 150.016 92.5008 149.635 92.5764C149.256 92.6518 148.999 92.989 149.056 93.3388L152.548 114.86C152.557 114.917 152.574 114.97 152.597 115.02C152.799 115.672 153.489 116.075 154.203 115.934C154.208 115.933 154.213 115.931 154.218 115.93C154.224 115.929 154.229 115.928 154.235 115.927C154.941 115.787 155.416 115.152 155.347 114.475C155.35 114.421 155.346 114.366 155.333 114.311L150.462 93.0626Z" fill="#FFF9DC"/>
<path d="M153.441 114.853C153.418 114.803 153.401 114.75 153.392 114.693L149.9 93.1714C149.867 92.9674 149.941 92.7681 150.083 92.6223C149.949 92.5645 149.794 92.5449 149.635 92.5764C149.256 92.6514 148.999 92.989 149.056 93.3385L152.548 114.86C152.557 114.917 152.574 114.97 152.597 115.02C152.799 115.671 153.489 116.075 154.203 115.933C154.208 115.932 154.213 115.931 154.218 115.93C154.224 115.929 154.229 115.928 154.235 115.927C154.376 115.899 154.507 115.851 154.626 115.787C154.077 115.736 153.602 115.374 153.441 114.853Z" fill="#FFF4C1"/>
<path d="M32.6865 63.5C27.0924 60.7 28.5243 49.8333 30.1892 46C33.8521 45.6666 42.1768 44.3 46.1726 41.5C46.5722 43.5 50.0019 48.3333 51.6669 50.5C49.6688 58.5 38.2807 66.3 32.6865 63.5Z" fill="#62A68A" stroke="#263238" stroke-width="0.5"/>
<path d="M46.1724 41.5L59.1588 31.5" stroke="#263238" stroke-width="0.5"/>
<path d="M51.6668 50.107L63.6542 42.9999" stroke="#263238" stroke-width="0.5"/>
<path d="M28.6907 54.5C31.4878 55.7 38.5138 52 41.6772 50" stroke="#263238" stroke-width="0.5"/>
<path d="M33.6855 59.6497L36.8555 57.9378" stroke="#263238" stroke-width="0.5"/>
</svg>
