<svg width="570" height="217" viewBox="0 0 570 217" fill="none" xmlns="http://www.w3.org/2000/svg">
<path d="M252.58 34.7986C251.45 34.2421 250.609 33.2557 250.112 32.098C247.181 25.2696 234.928 1.31159 206.852 0.0503753C174.385 -1.42136 179.993 29.7795 157.266 38.0213C134.539 46.5574 126.275 22.4208 106.499 28.0134C86.724 33.606 99.415 49.2065 82.5914 54.7991C65.7674 60.3917 66.9481 44.7913 41.5646 57.7426C16.1812 70.3995 10.5732 74.5204 4.67009 75.9921C-1.00071 77.4804 -0.312207 86 5.55069 86H296.488C298.655 86 300.564 84.6145 301.046 82.5023C302.976 74.0452 306.029 52.4294 290.086 42.1421C271.165 30.134 271.736 44.2305 252.58 34.7986Z" fill="#F5F5F5"/>
<path d="M546.5 158.408C545.363 157.889 544.543 156.881 544.012 155.749C542.059 151.594 536.083 141.58 523.665 141.024C507.973 140.321 510.762 155.426 499.778 159.641C488.794 163.68 484.783 152.089 475.194 154.899C465.604 157.709 471.707 165.261 463.686 167.896C455.491 170.706 456.189 163.153 443.984 169.301C431.779 175.448 428.989 177.555 426.2 178.258C423.497 178.939 423.824 183 426.611 183H565.144C567.333 183 569.268 181.573 569.611 179.412C570.383 174.554 570.634 166.004 564.115 161.748C554.937 155.97 555.003 162.296 546.5 158.408Z" fill="#F5F5F5"/>
<g opacity="0.7">
<path opacity="0.7" d="M546.5 158.408C545.363 157.889 544.543 156.881 544.012 155.749C542.059 151.594 536.083 141.58 523.665 141.024C507.973 140.321 510.762 155.426 499.778 159.641C488.794 163.68 484.783 152.089 475.194 154.899C465.604 157.709 471.707 165.261 463.686 167.896C455.491 170.706 456.189 163.153 443.984 169.301C431.779 175.448 428.989 177.555 426.2 178.258C423.497 178.939 423.824 183 426.611 183H565.144C567.333 183 569.268 181.573 569.611 179.412C570.383 174.554 570.634 166.004 564.115 161.748C554.937 155.97 555.003 162.296 546.5 158.408Z" fill="#F5F5F5"/>
</g>
<path d="M109.336 200.26C108.179 199.787 107.367 198.756 106.801 197.642C105.222 194.529 101.094 188.378 93.026 188.016C82.1976 187.531 84.1226 197.961 76.5427 200.871C68.9628 203.66 66.1955 195.656 59.5781 197.597C52.9607 199.537 57.1718 204.752 51.6373 206.571C45.9824 208.511 46.4637 203.296 38.0415 207.541C29.6194 211.785 27.6944 213.241 25.7693 213.726C23.9032 214.196 24.1294 217 26.0538 217H120.508C122.697 217 124.649 215.569 124.882 213.393C125.249 209.966 124.967 204.958 120.939 202.326C114.811 198.466 114.655 202.43 109.336 200.26Z" fill="#F5F5F5"/>
<g opacity="0.7">
<path opacity="0.7" d="M109.336 200.26C108.179 199.787 107.367 198.756 106.801 197.642C105.222 194.529 101.094 188.378 93.026 188.016C82.1976 187.531 84.1226 197.961 76.5427 200.871C68.9628 203.66 66.1955 195.656 59.5781 197.597C52.9607 199.537 57.1718 204.752 51.6373 206.571C45.9824 208.511 46.4637 203.296 38.0415 207.541C29.6194 211.785 27.6944 213.241 25.7693 213.726C23.9032 214.196 24.1294 217 26.0538 217H120.508C122.697 217 124.649 215.569 124.882 213.393C125.249 209.966 124.967 204.958 120.939 202.326C114.811 198.466 114.655 202.43 109.336 200.26Z" fill="#F5F5F5"/>
</g>
</svg>
