<svg width="580" height="174" viewBox="0 0 580 174" fill="none" xmlns="http://www.w3.org/2000/svg">
<path d="M529.163 34.7986C528.033 34.2421 527.192 33.2557 526.695 32.098C523.764 25.2696 511.512 1.31159 483.436 0.0503755C450.969 -1.42136 456.576 29.7795 433.849 38.0213C411.122 46.5574 402.858 22.4208 383.083 28.0134C363.307 33.606 375.999 49.2065 359.175 54.7991C342.351 60.3917 343.532 44.7913 318.148 57.7426C292.765 70.3995 287.157 74.5204 281.254 75.9921C275.583 77.4804 276.271 86 282.134 86H573.072C575.238 86 577.148 84.6145 577.63 82.5023C579.56 74.0452 582.612 52.4294 566.67 42.1421C547.748 30.134 548.319 44.2305 529.163 34.7986Z" fill="#62A68A"/>
<path d="M257.754 9.58197C256.555 9.18589 255.741 8.11828 255.134 7.01088C253.776 4.5339 250.614 0.31621 244.737 0.0527766C236.384 -0.321623 237.88 7.66558 232.021 9.78718C226.286 11.9088 224.042 5.79358 218.93 7.29118C213.819 8.78878 217.06 12.7824 212.822 14.1552C208.458 15.6528 208.832 11.6592 202.349 14.904C195.866 18.1488 194.37 19.272 192.874 19.6464C191.452 20.0024 191.623 22.1424 193.089 22.1424H264.872C267.059 22.1424 269.034 20.708 269.151 18.5237C269.287 15.9768 268.825 12.7123 266.056 10.9104C261.597 8.07993 261.312 10.7573 257.754 9.58197Z" fill="#62A68A"/>
<path opacity="0.8" d="M257.754 9.58197C256.555 9.18589 255.741 8.11828 255.134 7.01088C253.776 4.5339 250.614 0.31621 244.737 0.0527766C236.384 -0.321623 237.88 7.66558 232.021 9.78718C226.286 11.9088 224.042 5.79358 218.93 7.29118C213.819 8.78878 217.06 12.7824 212.822 14.1552C208.458 15.6528 208.832 11.6592 202.349 14.904C195.866 18.1488 194.37 19.272 192.874 19.6464C191.452 20.0024 191.623 22.1424 193.089 22.1424H264.872C267.059 22.1424 269.034 20.708 269.151 18.5237C269.287 15.9768 268.825 12.7123 266.056 10.9104C261.597 8.07993 261.312 10.7573 257.754 9.58197Z" fill="#62A68A"/>
<path d="M105.99 156.148C104.833 155.673 104.014 154.643 103.447 153.527C101.829 150.34 97.5514 143.947 89.1486 143.573C77.9283 143.074 79.923 153.806 72.0688 156.802C64.2146 159.672 61.3472 151.435 54.4903 153.432C47.6335 155.429 51.9969 160.795 46.2621 162.667C40.4026 164.664 40.9013 159.298 32.1744 163.666C23.4475 168.034 21.4528 169.531 19.4581 170.03C17.536 170.511 17.7676 173.4 19.7489 173.4H117.766C119.951 173.4 121.9 171.973 122.145 169.802C122.544 166.273 122.291 161.036 118.072 158.299C111.7 154.312 111.559 158.435 105.99 156.148Z" fill="#62A68A"/>
<g opacity="0.7">
<path opacity="0.7" d="M105.99 156.148C104.833 155.673 104.014 154.643 103.447 153.527C101.829 150.34 97.5514 143.947 89.1486 143.573C77.9283 143.074 79.923 153.806 72.0688 156.802C64.2146 159.672 61.3472 151.435 54.4903 153.432C47.6335 155.429 51.9969 160.795 46.2621 162.667C40.4026 164.664 40.9013 159.298 32.1744 163.666C23.4475 168.034 21.4528 169.531 19.4581 170.03C17.536 170.511 17.7676 173.4 19.7489 173.4H117.766C119.951 173.4 121.9 171.973 122.145 169.802C122.544 166.273 122.291 161.036 118.072 158.299C111.7 154.312 111.559 158.435 105.99 156.148Z" fill="#62A68A"/>
</g>
</svg>
