<svg width="164" height="64" viewBox="0 0 164 64" fill="none" xmlns="http://www.w3.org/2000/svg">
<path d="M36.8056 26.0567C37.0958 26.0567 37.3861 26.0567 37.6764 25.9982C38.315 24.8271 39.9985 24.9442 40.9273 24.2415C45.5716 20.7868 45.5716 15.5169 46.4424 10.8326C40.8693 13.3504 35.122 14.5801 34.7737 20.8454C33.4965 18.0933 32.0452 15.4584 31.4066 14.7557C29.607 14.8728 28.4459 15.8683 28.4459 15.8683C31.2905 18.796 33.5546 22.7191 34.4834 25.8811C35.122 25.9982 35.8767 26.0567 36.8056 26.0567Z" fill="#00823F"/>
<path d="M56.1373 29.8042C54.0474 25.4712 48.5904 22.7777 43.1915 23.3047C41.2177 23.4804 39.8244 24.4758 36.9798 24.4758C34.1352 24.4758 32.7419 23.4804 30.7681 23.3047C25.4853 22.7192 20.0283 25.3541 17.9384 29.57C15.8485 33.6688 15.5582 38.1775 16.8934 42.3934C17.532 44.4429 18.5189 46.258 19.68 47.8976H22.5246V38.7631H38.0248V47.8976H40.4049V38.7631H50.3901V47.8976H54.2796C55.9051 45.6139 57.1242 42.9204 57.6467 39.8756C58.2272 36.4794 57.7048 33.0247 56.1373 29.8042ZM22.5826 36.5966L18.5189 30.624H34.0191L38.0828 36.5966H22.5826ZM50.5062 36.5966H40.463L44.5267 30.624H54.5699L50.5062 36.5966Z" fill="#E5282B"/>
<path d="M75.8174 33.7859H77.617V42.8619H79.8811V33.7859H81.7388V31.678H75.8174V33.7859ZM68.5607 37.0064C69.1993 36.7722 69.4896 36.3038 69.5477 36.2452C69.7799 35.8353 69.954 35.1912 69.954 34.5471C69.954 33.7274 69.7218 32.9662 69.2574 32.4392C68.5027 31.6194 67.4577 31.678 66.5289 31.678H63.5101V42.8033H66.9353C67.9222 42.8033 69.0252 42.7448 69.7799 41.6908C70.1862 41.1052 70.3023 40.4611 70.3023 39.817C70.3023 39.1729 70.1282 38.3532 69.7799 37.8262C69.4896 37.4749 69.0832 37.1821 68.5607 37.0064ZM65.6581 33.4932H66.4708C66.7031 33.4932 67.1094 33.5517 67.3416 33.7859C67.5738 34.0201 67.69 34.4886 67.69 34.8399C67.69 35.1327 67.6319 35.5426 67.4577 35.8353C67.2836 36.0696 66.9353 36.1867 66.4708 36.1867H65.6581V33.4932ZM67.6319 40.5782C67.3416 40.9296 66.9353 40.9296 66.5289 40.9296H65.6581V37.9433H66.4708C66.7611 37.9433 67.1675 37.8847 67.4577 38.1775C67.748 38.4117 67.9222 38.8216 67.9222 39.4657C67.9222 39.817 67.8641 40.344 67.6319 40.5782ZM71.9859 42.8619H74.25V31.7365H71.9859V42.8619ZM101.651 42.8619H103.915V31.7365H101.651V42.8619ZM126.382 31.5023C125.627 31.5023 124.582 31.678 123.827 32.8491C123.479 33.4346 122.898 34.5471 122.898 37.2406C122.898 39.9341 123.421 41.0467 123.827 41.6322C124.64 42.8033 125.627 42.979 126.382 42.979C127.136 42.979 128.181 42.8033 128.936 41.6322C129.284 41.0467 129.865 39.9341 129.865 37.2406C129.865 34.5471 129.342 33.4346 128.936 32.8491C128.123 31.678 127.136 31.5023 126.382 31.5023ZM127.078 40.6368C126.962 40.8125 126.73 41.0467 126.382 41.0467C126.033 41.0467 125.801 40.8125 125.685 40.6368C125.453 40.2269 125.337 39.4657 125.337 37.2992C125.337 35.1327 125.453 34.3129 125.685 33.9616C125.801 33.7859 126.033 33.5517 126.382 33.5517C126.73 33.5517 126.962 33.7859 127.078 33.9616C127.31 34.3715 127.427 35.1327 127.427 37.2992C127.427 39.4657 127.31 40.2269 127.078 40.6368ZM120.925 39.4657C120.867 38.8216 120.809 38.2361 120.576 37.8262C120.286 37.2992 119.822 37.0064 119.299 36.9479V36.8893C119.647 36.8308 119.938 36.6551 120.112 36.4794C120.402 36.1281 120.518 35.7768 120.576 35.484C120.692 34.8399 120.75 34.6057 120.75 34.1958C120.809 33.5517 121.099 33.4932 121.273 33.4932H121.389V31.7365C121.157 31.678 121.041 31.6194 120.75 31.6194C120.344 31.6194 119.88 31.678 119.473 31.9122C119.183 32.0878 118.951 32.4392 118.835 32.7905C118.719 33.1418 118.661 33.5517 118.603 34.3129C118.544 35.0156 118.544 35.1912 118.486 35.4255C118.428 35.6597 118.312 36.1281 117.558 36.1281H116.861V31.7365H114.597V42.8619H116.861V37.9433H117.558C117.79 37.9433 118.196 37.9433 118.428 38.2946C118.661 38.5288 118.719 38.9973 118.777 39.5243C118.893 40.871 118.951 41.5737 119.183 42.1007C119.589 42.8619 120.344 42.979 120.983 42.979C121.215 42.979 121.389 42.979 121.621 42.8619V40.9296C121.389 40.9881 121.273 40.9296 121.157 40.7539C121.041 40.5782 121.041 40.344 120.925 39.4657ZM95.4393 36.1281C95.2652 36.9479 95.091 37.8847 94.9749 39.5828C94.9169 38.8802 94.8007 37.1821 94.6266 36.4209L93.7558 31.7365H90.6209V42.8619H92.4206V36.2452C92.4206 35.5426 92.3625 33.903 92.3625 33.1418C92.5947 35.0156 92.7108 35.7182 92.8269 36.3038L94.1041 42.8619H95.5554L96.8906 36.4209C96.9487 36.011 97.239 34.1373 97.3551 33.1418C97.297 35.6597 97.239 34.7228 97.239 36.538V42.8619H99.3869V31.7365H96.3682L95.4393 36.1281ZM110.069 36.0696H108.385V31.678H106.121V42.8033H108.385V38.0018H110.069V42.8033H112.333V31.678H110.069V36.0696ZM84.3512 31.678L81.8549 42.8033H83.8868L84.3512 40.4026H86.5572L87.0216 42.8033H89.2857L86.7894 31.678H84.3512ZM84.5254 38.5874L85.1059 35.5426C85.28 34.5471 85.3381 33.9616 85.3381 33.7859C85.3381 34.1958 85.3961 34.7814 85.5703 35.6597L86.2089 38.6459H84.5254V38.5874ZM149.777 29.57C146.642 32.1464 141.069 30.3312 139.502 33.2004C138.805 32.1464 137.702 31.678 136.483 31.6194H134.335C132.942 31.6194 131.664 32.2635 131.084 33.6103C130.678 34.4886 130.619 35.484 130.619 36.011C130.619 37.065 130.794 37.8847 131.316 38.7631C131.664 39.4072 132.535 40.4611 134.335 40.4611V42.7448H136.483V40.5782C138.283 40.6368 139.095 39.5243 139.502 38.9387C139.85 39.5828 140.721 40.6368 142.52 40.5782V42.7448H144.668V40.5782C146.468 40.6368 147.339 39.5243 147.687 38.8802C148.21 38.0018 148.384 37.1235 148.384 36.1281C148.384 35.5426 148.326 34.5471 147.919 33.7274C147.861 33.6688 147.861 33.6103 147.803 33.5517C149.661 32.4392 149.951 30.2141 149.777 29.57ZM134.393 38.8216C134.103 38.8216 133.522 38.7631 133.174 38.0604C132.942 37.592 132.884 36.6551 132.884 36.1867C132.884 34.7814 133.232 34.1958 133.29 34.1373C133.464 33.8445 133.812 33.5517 134.393 33.4932V38.8216ZM137.644 37.9433C137.296 38.6459 136.715 38.7045 136.425 38.7045V33.376C136.657 33.376 137.179 33.4346 137.528 34.0201C137.818 34.4886 137.934 35.3669 137.934 36.011C137.934 36.5965 137.876 37.5334 137.644 37.9433ZM142.578 38.8216C142.288 38.8216 141.708 38.7631 141.359 38.0604C141.127 37.592 141.069 36.6551 141.069 36.1867C141.069 34.7814 141.417 34.1958 141.475 34.1373C141.65 33.8445 141.998 33.5517 142.578 33.4932V38.8216ZM145.771 37.9433C145.423 38.6459 144.843 38.7045 144.552 38.7045V33.376C144.784 33.376 145.307 33.4346 145.655 34.0201C145.946 34.4886 146.062 35.3669 146.062 36.011C146.062 36.5965 146.004 37.5334 145.771 37.9433Z" fill="#00823F"/>
</svg>
