<svg width="22" height="26" viewBox="0 0 22 26" fill="none" xmlns="http://www.w3.org/2000/svg">
<path d="M19.3532 3.14373C16.4094 0.199975 11.6157 0.199975 8.67503 3.14373L0.518779 11.2937C0.465654 11.3469 0.437529 11.4187 0.437529 11.4937C0.437529 11.5687 0.465654 11.6406 0.518779 11.6937L1.6719 12.8469C1.72461 12.8993 1.79596 12.9288 1.87034 12.9288C1.94472 12.9288 2.01607 12.8993 2.06878 12.8469L10.225 4.69685C11.2375 3.68435 12.5844 3.1281 14.0157 3.1281C15.4469 3.1281 16.7938 3.68435 17.8032 4.69685C18.8157 5.70935 19.3719 7.05623 19.3719 8.48435C19.3719 9.9156 18.8157 11.2594 17.8032 12.2719L9.49065 20.5812L8.14378 21.9281C6.8844 23.1875 4.83753 23.1875 3.57815 21.9281C2.96878 21.3187 2.6344 20.5093 2.6344 19.6469C2.6344 18.7844 2.96878 17.975 3.57815 17.3656L11.825 9.12185C12.0344 8.9156 12.3094 8.79998 12.6032 8.79998H12.6063C12.9 8.79998 13.1719 8.9156 13.3782 9.12185C13.5875 9.33123 13.7 9.60623 13.7 9.89997C13.7 10.1906 13.5844 10.4656 13.3782 10.6719L6.63753 17.4062C6.5844 17.4594 6.55628 17.5312 6.55628 17.6062C6.55628 17.6812 6.5844 17.7531 6.63753 17.8062L7.79065 18.9594C7.84336 19.0118 7.91471 19.0413 7.98909 19.0413C8.06347 19.0413 8.13482 19.0118 8.18753 18.9594L14.925 12.2219C15.5469 11.6 15.8875 10.775 15.8875 9.89685C15.8875 9.01873 15.5438 8.1906 14.925 7.57185C13.6407 6.28747 11.5532 6.2906 10.2688 7.57185L9.46878 8.37498L2.02503 15.8156C1.51981 16.3179 1.11934 16.9154 0.846827 17.5736C0.574317 18.2318 0.435195 18.9376 0.437529 19.65C0.437529 21.0968 1.00315 22.4562 2.02503 23.4781C3.0844 24.5343 4.4719 25.0625 5.8594 25.0625C7.2469 25.0625 8.6344 24.5343 9.69065 23.4781L19.3532 13.8218C20.775 12.3968 21.5625 10.5 21.5625 8.48435C21.5657 6.4656 20.7782 4.56873 19.3532 3.14373Z" fill="black"/>
</svg>
