<svg width="48" height="48" viewBox="0 0 48 48" fill="none" xmlns="http://www.w3.org/2000/svg">
<path d="M23.8587 48C37.0355 48 47.7174 37.2548 47.7174 24C47.7174 10.7452 37.0355 0 23.8587 0C10.6819 0 0 10.7452 0 24C0 37.2548 10.6819 48 23.8587 48Z" fill="#FF0000"/>
<path d="M42.0883 16.7935V31.5281H40.6171V28.1822C39.4018 30.3699 37.163 31.8498 34.3486 31.8498C30.1909 31.8498 26.8008 28.504 26.8008 24.193C26.8008 19.8176 30.1909 16.5361 34.3486 16.5361C37.163 16.5361 39.4018 17.9517 40.6171 20.2037V16.8578H42.0883V16.7935ZM40.6171 24.193C40.6171 20.7184 37.9306 17.9517 34.4765 17.9517C31.0224 17.9517 28.272 20.7184 28.272 24.193C28.272 27.6675 30.9585 30.4343 34.4765 30.4343C37.9945 30.4343 40.6171 27.6675 40.6171 24.193Z" fill="white"/>
<path d="M34.3486 32.4932C29.7431 32.4932 26.1611 28.8257 26.1611 24.193C26.1611 19.5603 29.7431 15.8284 34.3486 15.8284C36.5873 15.8284 38.5702 16.6648 39.9774 18.1447V16.1501H42.7279V32.1715H39.9774V30.1769C38.5702 31.6568 36.5873 32.4932 34.3486 32.4932ZM34.3486 17.1152C30.4467 17.1152 27.4404 20.2037 27.4404 24.1286C27.4404 28.0536 30.5107 31.142 34.3486 31.142C36.0116 31.142 37.4828 30.6273 38.6342 29.5978C37.4828 30.4986 36.0756 31.0134 34.4765 31.0134C30.6386 31.0134 27.6323 27.9892 27.6323 24.1286C27.6323 20.268 30.6386 17.2439 34.4765 17.2439C36.0756 17.2439 37.4828 17.7587 38.6342 18.6595C37.4828 17.6943 36.0116 17.1152 34.3486 17.1152ZM41.2567 30.8847H41.4486V17.4369H41.2567V22.5844L40.9369 22.0053C41.1288 22.6487 41.2567 23.4209 41.2567 24.1286C41.2567 24.9008 41.1288 25.6085 40.9369 26.252L41.2567 25.7372V30.8847ZM34.4765 18.5308C31.3422 18.5308 28.9116 20.9758 28.9116 24.1286C28.9116 27.2815 31.3422 29.7265 34.4765 29.7265C37.5468 29.7265 39.9774 27.2815 39.9774 24.1286C39.9774 21.0402 37.5468 18.5308 34.4765 18.5308Z" fill="white"/>
<path d="M21.6845 24.4504C21.6845 24.7078 21.6845 24.9008 21.6845 25.1582H8.37987C8.69969 28.504 11.2583 30.6917 14.5844 30.6917C16.9511 30.6917 18.8061 29.5978 19.6376 27.9893L20.9169 28.7614C19.7016 30.756 17.4628 32.1072 14.5205 32.1072C10.0429 32.1072 6.84473 28.8901 6.84473 24.4504C6.84473 20.1394 9.91502 16.7935 14.3925 16.7935C18.87 16.7292 21.6845 20.4611 21.6845 24.4504ZM8.37987 23.7426H20.1493C19.8295 20.1394 17.3349 18.1448 14.4565 18.1448C11.1303 18.1448 8.69969 20.4611 8.37987 23.7426Z" fill="white"/>
<path d="M14.5839 32.7506C9.78659 32.7506 6.26855 29.276 6.26855 24.4503C6.26855 19.6246 9.65867 16.0857 14.456 16.0857C19.5731 16.0857 22.3236 20.3967 22.3236 24.4503C22.3236 24.579 22.3236 24.7077 22.3236 24.8364C22.3236 24.965 22.3236 25.0294 22.3236 25.1581V25.8015H9.14695C9.72263 28.3752 11.8335 30.0482 14.5839 30.0482C16.6308 30.0482 18.2939 29.1474 19.0614 27.7318L19.3812 27.1527L21.8119 28.5683L21.4921 29.1474C20.0849 31.3994 17.5263 32.7506 14.5839 32.7506ZM14.456 17.3726C10.4262 17.3726 7.54784 20.3323 7.54784 24.386C7.54784 28.5039 10.4262 31.3994 14.5839 31.3994C16.8866 31.3994 18.8695 30.4986 20.0209 28.9543L19.829 28.8256C18.7416 30.3699 16.8227 31.2707 14.5839 31.2707C10.874 31.2707 8.12352 28.8256 7.73973 25.2224L7.67577 24.5146H21.0443V24.4503C21.0443 21.0401 18.7416 17.3726 14.456 17.3726ZM20.8524 24.386H7.67577L7.73973 23.6782C8.05956 20.0106 10.81 17.5012 14.456 17.5012C17.9101 17.5012 20.4686 20.0106 20.7885 23.6782L20.8524 24.386ZM9.14695 23.0991H19.4452C18.8695 20.1393 16.6308 18.7881 14.456 18.7881C11.7055 18.7881 9.65866 20.461 9.14695 23.0991Z" fill="white"/>
</svg>
