<svg width="295" height="48" viewBox="0 0 295 48" fill="none" xmlns="http://www.w3.org/2000/svg">
<path class="circlebg" d="M23.8587 48C37.0355 48 47.7174 37.2548 47.7174 24C47.7174 10.7452 37.0355 0 23.8587 0C10.6819 0 0 10.7452 0 24C0 37.2548 10.6819 48 23.8587 48Z" fill="#FF0000"/>
<path class="symbA" d="M42.0883 16.7935V31.5281H40.6171V28.1822C39.4018 30.3699 37.163 31.8498 34.3486 31.8498C30.1909 31.8498 26.8008 28.504 26.8008 24.193C26.8008 19.8176 30.1909 16.5361 34.3486 16.5361C37.163 16.5361 39.4018 17.9517 40.6171 20.2037V16.8578H42.0883V16.7935ZM40.6171 24.193C40.6171 20.7184 37.9306 17.9517 34.4765 17.9517C31.0224 17.9517 28.272 20.7184 28.272 24.193C28.272 27.6675 30.9585 30.4343 34.4765 30.4343C37.9945 30.4343 40.6171 27.6675 40.6171 24.193Z" fill="white"/>
<path class="symbA" d="M34.3476 32.4932C29.7422 32.4932 26.1602 28.8257 26.1602 24.193C26.1602 19.5603 29.7422 15.8284 34.3476 15.8284C36.5863 15.8284 38.5692 16.6648 39.9765 18.1447V16.1501H42.7269V32.1715H39.9765V30.1769C38.5692 31.6568 36.5863 32.4932 34.3476 32.4932ZM34.3476 17.1152C30.4458 17.1152 27.4394 20.2037 27.4394 24.1286C27.4394 28.0536 30.5097 31.142 34.3476 31.142C36.0107 31.142 37.4819 30.6273 38.6332 29.5978C37.4819 30.4986 36.0746 31.0134 34.4755 31.0134C30.6377 31.0134 27.6313 27.9892 27.6313 24.1286C27.6313 20.268 30.6377 17.2439 34.4755 17.2439C36.0746 17.2439 37.4819 17.7587 38.6332 18.6595C37.4819 17.6943 36.0107 17.1152 34.3476 17.1152ZM41.2557 30.8847H41.4476V17.4369H41.2557V22.5844L40.9359 22.0053C41.1278 22.6487 41.2557 23.4209 41.2557 24.1286C41.2557 24.9008 41.1278 25.6085 40.9359 26.252L41.2557 25.7372V30.8847ZM34.4755 18.5308C31.3413 18.5308 28.9106 20.9758 28.9106 24.1286C28.9106 27.2815 31.3413 29.7265 34.4755 29.7265C37.5458 29.7265 39.9765 27.2815 39.9765 24.1286C39.9765 21.0402 37.5458 18.5308 34.4755 18.5308Z" fill="white"/>
<path class="symbE" d="M21.6874 24.4504C21.6874 24.7078 21.6874 24.9008 21.6874 25.1582H8.3828C8.70262 28.504 11.2612 30.6917 14.5873 30.6917C16.954 30.6917 18.809 29.5978 19.6405 27.9893L20.9198 28.7614C19.7045 30.756 17.4657 32.1072 14.5234 32.1072C10.0459 32.1072 6.84766 28.8901 6.84766 24.4504C6.84766 20.1394 9.91795 16.7935 14.3955 16.7935C18.873 16.7292 21.6874 20.4611 21.6874 24.4504ZM8.3828 23.7426H20.1522C19.8324 20.1394 17.3378 18.1448 14.4594 18.1448C11.1333 18.1448 8.70262 20.4611 8.3828 23.7426Z" fill="white"/>
<path class="symbE" d="M14.5849 32.7506C9.78757 32.7506 6.26953 29.276 6.26953 24.4503C6.26953 19.6246 9.65964 16.0857 14.457 16.0857C19.5741 16.0857 22.3246 20.3967 22.3246 24.4503C22.3246 24.579 22.3246 24.7077 22.3246 24.8364C22.3246 24.9651 22.3246 25.0294 22.3246 25.1581V25.8015H9.14793C9.72361 28.3752 11.8344 30.0482 14.5849 30.0482C16.6318 30.0482 18.2948 29.1474 19.0624 27.7318L19.3822 27.1527L21.8129 28.5683L21.493 29.1474C20.0858 31.3994 17.5273 32.7506 14.5849 32.7506ZM14.457 17.3726C10.4272 17.3726 7.54882 20.3323 7.54882 24.386C7.54882 28.5039 10.4272 31.3994 14.5849 31.3994C16.8876 31.3994 18.8705 30.4986 20.0219 28.9543L19.83 28.8256C18.7426 30.3699 16.8236 31.2707 14.5849 31.2707C10.875 31.2707 8.1245 28.8256 7.74071 25.2224L7.67675 24.5146H21.0453V24.4503C21.0453 21.0401 18.7426 17.3726 14.457 17.3726ZM20.8534 24.386H7.67675L7.74071 23.6782C8.06053 20.0106 10.811 17.5012 14.457 17.5012C17.911 17.5012 20.4696 20.0106 20.7894 23.6782L20.8534 24.386ZM9.14793 23.0991H19.4462C18.8705 20.1393 16.6318 18.7881 14.457 18.7881C11.7065 18.7881 9.65964 20.461 9.14793 23.0991Z" fill="white"/>
<path class="symbOth" d="M61.3901 28.4727C61.3901 30.7797 59.314 32.5256 56.2313 32.5256C53.3373 32.5256 51.4499 31.2162 50.7578 29.3456L52.0161 28.6598C52.5194 30.2186 54.0922 31.1538 56.2313 31.1538C58.2445 31.1538 59.9431 30.2809 59.9431 28.4727C59.9431 24.6069 51.2611 26.7892 51.2611 21.6764C51.2611 19.4317 53.2114 17.6235 56.1683 17.6235C58.4961 17.6235 60.2577 18.7459 61.0756 20.4917L59.8802 21.1776C59.2511 19.6811 57.8041 18.9953 56.2313 18.9953C54.3439 18.9953 52.771 19.9929 52.771 21.6764C52.7081 25.5422 61.3901 23.2352 61.3901 28.4727Z" fill="#070707"/>
<path class="symbOth" d="M56.2284 33.1491C53.2715 33.1491 51.0066 31.8397 50.1887 29.595L50 29.0962L52.3907 27.7245L52.6424 28.4727C53.0827 29.7821 54.4668 30.5303 56.2913 30.5303C57.8012 30.5303 59.3741 29.9691 59.3741 28.4727C59.3741 27.2257 58.0529 26.7892 55.9767 26.2904C53.649 25.6669 50.692 24.9187 50.692 21.6764C50.692 18.9952 53.0198 17 56.2284 17C58.7449 17 60.7582 18.1847 61.7018 20.2423L61.9535 20.7411L59.6257 22.0505L59.3741 21.3646C58.9337 20.2423 57.7383 19.6188 56.2913 19.6188C54.9072 19.6188 53.4602 20.2423 53.4602 21.6764C53.4602 22.9234 54.7185 23.2975 56.8575 23.7963C59.2482 24.4198 62.2051 25.1681 62.2051 28.4727C62.0164 31.2162 59.6257 33.1491 56.2284 33.1491ZM51.5728 29.595C52.3907 31.0291 54.0894 31.902 56.2284 31.902C58.8708 31.902 60.7582 30.4679 60.7582 28.4727C60.7582 26.2904 58.9966 25.7292 56.3542 25.0434C54.341 24.5445 52.0132 23.921 52.0132 21.6764C52.0132 19.7435 53.7119 18.3717 56.1026 18.3717C57.8641 18.3717 59.2482 19.0576 60.0661 20.3046L60.1919 20.2423C59.3741 18.9953 57.9271 18.247 56.1655 18.247C53.7119 18.247 51.8874 19.6811 51.8874 21.6764C51.8874 23.7963 53.5861 24.3575 56.2284 25.0434C58.3045 25.5422 60.5694 26.1657 60.5694 28.4727C60.5694 30.4679 58.8078 31.7773 56.2284 31.7773C54.1523 31.7773 52.5165 30.9668 51.6987 29.5327L51.5728 29.595Z" fill="#070707"/>
<path class="symbOth" d="M79.3804 17.9351L73.152 33.523C72.0824 36.2664 69.9434 38.137 67.4898 37.8876V36.5782C69.4401 36.7652 70.8871 35.3312 71.7679 33.2112L72.0824 32.463L65.4766 17.9351H67.0494L72.8374 30.5924L77.8075 17.9351H79.3804V17.9351Z" fill="#070707"/>
<path class="symbOth" d="M67.8661 38.5736C67.7402 38.5736 67.6144 38.5736 67.4257 38.5736L66.8595 38.5112V35.8924L67.5515 35.9548C69.5647 36.1418 70.6972 34.1466 71.2005 33.0243L71.3892 32.5255L64.4688 17.374H67.4257L72.7733 29.0961L77.3659 17.374H80.26L73.717 33.7725C72.5845 36.7654 70.3197 38.5736 67.8661 38.5736ZM68.1177 37.2018V37.3265C69.9422 37.2018 71.6408 35.7054 72.5845 33.336L78.4355 18.6211H78.2467L72.8362 32.2761L66.6078 18.6211H66.4191L72.7104 32.5255L72.27 33.5231C71.3892 35.7054 69.8793 37.0771 68.1177 37.2018Z" fill="#070707"/>
<path class="symbOth" d="M104.798 17.9354V32.214H103.351V28.9717C102.156 31.0916 99.9537 32.5257 97.1855 32.5257C93.0961 32.5257 89.7617 29.2834 89.7617 25.1059C89.7617 20.866 93.0961 17.686 97.1855 17.686C99.9537 17.686 102.156 19.0578 103.351 21.2401V17.9978H104.798V17.9354ZM103.351 25.1059C103.351 21.7389 100.709 19.0578 97.3113 19.0578C93.914 19.0578 91.2087 21.7389 91.2087 25.1059C91.2087 28.4729 93.8511 31.154 97.3113 31.154C100.772 31.154 103.351 28.4729 103.351 25.1059Z" fill="#070707"/>
<path class="symbOth" d="M97.1232 33.1492C92.5934 33.1492 89.0703 29.5952 89.0703 25.1059C89.0703 20.6165 92.5934 17.0625 97.1232 17.0625C99.3251 17.0625 101.275 17.8731 102.66 19.3072V17.3743H105.365V32.8375H102.66V30.9046C101.275 32.3386 99.3251 33.1492 97.1232 33.1492ZM97.1232 18.2472C93.2855 18.2472 90.3286 21.2401 90.3286 25.0435C90.3286 28.847 93.3484 31.8398 97.1232 31.8398C98.7589 31.8398 100.206 31.341 101.338 30.3434C100.206 31.2163 98.8219 31.7151 97.249 31.7151C93.4742 31.7151 90.5173 28.7846 90.5173 25.0435C90.5173 21.3024 93.4742 18.3719 97.249 18.3719C98.8219 18.3719 100.206 18.8707 101.338 19.7436C100.206 18.8083 98.7589 18.2472 97.1232 18.2472ZM103.981 31.5904H104.169V18.5589H103.981V23.5471L103.666 22.9859C103.855 23.6094 103.981 24.3576 103.981 25.0435C103.981 25.7917 103.855 26.4776 103.666 27.1011L103.981 26.5399V31.5904ZM97.249 19.6189C94.1663 19.6189 91.7756 21.9883 91.7756 25.0435C91.7756 28.0987 94.1663 30.4681 97.249 30.4681C100.269 30.4681 102.66 28.0987 102.66 25.0435C102.722 22.0506 100.332 19.6189 97.249 19.6189Z" fill="#070707"/>
<path class="symbOth" d="M126.564 17.9353V31.5279C126.564 35.8302 123.355 38.1996 119.391 38.1996C116.057 38.1996 113.666 36.8902 112.597 34.7702L113.855 34.0844C114.61 35.5808 116.183 36.8278 119.391 36.8278C122.978 36.8278 125.117 34.7702 125.117 31.4656V28.8468C123.921 31.0291 121.719 32.4632 118.951 32.4632C114.862 32.4632 111.527 29.2209 111.527 25.0434C111.527 20.8035 114.862 17.6235 118.951 17.6235C121.719 17.6235 123.921 19.0576 125.117 21.2399V17.9353H126.564V17.9353ZM125.117 25.1057C125.117 21.7387 122.474 19.0576 119.014 19.0576C115.554 19.0576 112.911 21.7387 112.911 25.1057C112.911 28.4727 115.554 31.1538 119.014 31.1538C122.474 31.1538 125.117 28.4727 125.117 25.1057Z" fill="#070707"/>
<path class="symbOth" d="M119.391 38.8231C115.931 38.8231 113.226 37.4514 112.03 35.082L111.779 34.5832L114.17 33.2738L114.484 33.8973C115.302 35.5185 116.938 36.329 119.454 36.329C122.663 36.329 124.55 34.5832 124.55 31.5903V30.9045C123.166 32.4009 121.216 33.2115 119.014 33.2115C114.484 33.2115 110.961 29.6574 110.961 25.1681C110.961 20.6788 114.484 17.1248 119.014 17.1248C121.216 17.1248 123.166 17.9353 124.55 19.4318V17.4365H127.255V31.6527C127.193 35.8302 123.984 38.8231 119.391 38.8231ZM113.477 35.0197C114.547 36.6408 116.686 37.5761 119.391 37.5761C122.663 37.5761 125.934 35.7055 125.934 31.528V18.5588H125.746V23.734L125.557 23.3599C125.683 23.9211 125.746 24.4822 125.746 25.1058C125.746 25.7293 125.683 26.2904 125.557 26.8516L125.746 26.4775V31.5903C125.746 35.2691 123.292 37.5761 119.391 37.5761C116.12 37.5761 114.484 36.329 113.666 35.0197H113.477ZM118.951 18.2471C115.113 18.2471 112.156 21.24 112.156 25.0434C112.156 28.8469 115.176 31.8397 118.951 31.8397C120.524 31.8397 121.908 31.3409 123.04 30.468C121.908 31.2786 120.524 31.715 119.014 31.715C115.239 31.715 112.282 28.7845 112.282 25.0434C112.282 21.3023 115.239 18.3718 119.014 18.3718C120.524 18.3718 121.908 18.8706 122.977 19.6188C121.908 18.7459 120.524 18.2471 118.951 18.2471ZM119.014 19.6188C115.931 19.6188 113.54 21.9882 113.54 25.0434C113.54 28.0986 115.931 30.468 119.014 30.468C122.097 30.468 124.487 28.0986 124.487 25.0434C124.487 22.0505 122.097 19.6188 119.014 19.6188Z" fill="#070707"/>
<path class="symbOth" d="M147.705 25.1681C147.705 25.4175 147.705 25.6046 147.705 25.854H134.682C134.996 29.0962 137.513 31.2162 140.784 31.2162C143.112 31.2162 144.937 30.1562 145.755 28.5974L147.013 29.3456C145.817 31.2785 143.615 32.5879 140.721 32.5879C136.318 32.5879 133.172 29.4703 133.172 25.1681C133.172 20.9905 136.192 17.7483 140.596 17.7483C145 17.6235 147.705 21.2399 147.705 25.1681ZM134.682 24.4199H146.258C145.943 20.9282 143.49 18.9953 140.659 18.9953C137.324 18.9953 134.996 21.2399 134.682 24.4199Z" fill="#070707"/>
<path class="symbOth" d="M140.722 33.1492C136.003 33.1492 132.543 29.7822 132.543 25.1059C132.543 20.4295 135.94 17.0625 140.596 17.0625C145.629 17.0625 148.334 21.2401 148.334 25.1682C148.334 25.2929 148.334 25.4176 148.334 25.5423C148.334 25.667 148.334 25.7294 148.334 25.8541V26.4776H135.437C136.003 28.9717 138.079 30.5928 140.785 30.5928C142.798 30.5928 144.434 29.7199 145.188 28.3481L145.503 27.787L147.894 29.1587L147.579 29.7199C146.195 31.8398 143.679 33.1492 140.722 33.1492ZM140.659 18.2472C136.695 18.2472 133.864 21.1154 133.864 25.0435C133.864 29.034 136.695 31.8398 140.785 31.8398C143.049 31.8398 145 30.9669 146.132 29.4705L145.943 29.3458C144.874 30.8422 142.987 31.7151 140.785 31.7151C137.136 31.7151 134.43 29.3458 134.053 25.8541L133.99 25.1682H147.139V25.1059C147.076 21.8012 144.811 18.2472 140.659 18.2472ZM146.95 25.0435H133.99L134.053 24.3576C134.367 20.8036 137.073 18.3719 140.659 18.3719C144.056 18.3719 146.573 20.8036 146.887 24.3576L146.95 25.0435ZM135.374 23.7965H145.503C144.937 20.9283 142.735 19.6189 140.596 19.6189C137.953 19.6189 135.94 21.3024 135.374 23.7965Z" fill="#070707"/>
<path class="symbOth" d="M166.388 23.3599V32.2138H164.941V23.3599C164.941 20.7411 163.431 18.9953 160.726 18.9953C157.895 18.9953 155.693 20.8035 155.693 24.6693V32.2138H154.246V17.9353H155.693V20.6164C156.763 18.4965 158.65 17.6235 160.852 17.6235C164.249 17.6235 166.388 19.8682 166.388 23.3599Z" fill="#070707"/>
<path class="symbOth" d="M167.018 32.8373H164.312V23.3599C164.312 20.9905 162.991 19.6188 160.726 19.6188C157.958 19.6188 156.322 21.4893 156.322 24.6692V32.8373H153.617V17.3118H156.322V18.7458C157.455 17.6235 158.965 17 160.852 17C164.627 17 167.081 19.4941 167.081 23.2975V32.8373H167.018ZM165.571 31.5903H165.759V23.3599C165.759 20.2423 163.872 18.3094 160.789 18.3094C159.657 18.3094 158.65 18.5588 157.832 19.12C158.713 18.6835 159.657 18.4341 160.663 18.4341C163.683 18.4341 165.508 20.3046 165.508 23.4222V31.5903H165.571ZM154.875 31.5903H155.064V24.6692C155.064 24.0457 155.127 23.4846 155.19 22.9234L155.064 23.2352V18.5588H154.875V31.5903Z" fill="#070707"/>
<path class="symbOth" d="M172.617 25.1059C172.617 20.866 175.826 17.686 180.167 17.686C182.998 17.686 185.389 19.1201 186.458 21.3648L185.263 22.0506C184.445 20.2425 182.495 19.0578 180.167 19.0578C176.707 19.0578 174.064 21.7389 174.064 25.1059C174.064 28.4729 176.707 31.154 180.167 31.154C182.495 31.154 184.382 29.9693 185.326 28.1611L186.521 28.847C185.389 31.0293 182.935 32.4634 180.167 32.4634C175.889 32.5257 172.617 29.2834 172.617 25.1059Z" fill="#070707"/>
<path class="symbOth" d="M180.167 33.1492C175.511 33.1492 171.988 29.6575 171.988 25.1059C171.988 20.5542 175.511 17.0625 180.167 17.0625C183.25 17.0625 185.829 18.6213 187.025 21.053L187.276 21.5518L185.011 22.8612L184.697 22.2377C183.942 20.6165 182.243 19.6189 180.167 19.6189C177.021 19.6189 174.694 21.9883 174.694 25.0435C174.694 28.0987 177.021 30.4681 180.167 30.4681C182.18 30.4681 183.879 29.4705 184.76 27.8493L185.074 27.2882L187.339 28.6599L187.087 29.1587C185.829 31.6528 183.187 33.1492 180.167 33.1492ZM180.167 18.2472C176.203 18.2472 173.247 21.1777 173.247 25.0435C173.247 28.9093 176.203 31.8398 180.167 31.8398C182.495 31.8398 184.571 30.7799 185.703 29.034L185.578 28.9717C184.382 30.7175 182.432 31.7151 180.167 31.7151C176.392 31.7151 173.435 28.7846 173.435 25.0435C173.435 21.3024 176.392 18.3719 180.167 18.3719C182.432 18.3719 184.445 19.3695 185.515 21.1154L185.64 21.053C184.571 19.3072 182.558 18.2472 180.167 18.2472Z" fill="#070707"/>
<path class="symbOth" d="M205.958 17.9351L199.73 33.523C198.661 36.2664 196.522 38.137 194.068 37.8876V36.5782C196.018 36.7652 197.465 35.3312 198.346 33.2112L198.661 32.463L192.055 17.9351H193.628L199.416 30.5924L204.386 17.9351H205.958V17.9351Z" fill="#070707"/>
<path class="symbOth" d="M194.444 38.5736C194.318 38.5736 194.193 38.5736 194.004 38.5736L193.438 38.5112V35.8924L194.13 35.9548C196.143 36.1418 197.275 34.1466 197.779 33.0243L197.967 32.5255L191.047 17.374H194.004L199.351 29.0961L203.944 17.374H206.838L200.295 33.7725C199.163 36.7654 196.898 38.5736 194.444 38.5736ZM194.696 37.2018V37.3265C196.52 37.2018 198.219 35.7054 199.163 33.336L205.014 18.6211H204.825L199.477 32.2761L193.186 18.5587H192.997L199.288 32.4631L198.848 33.4607C197.967 35.7054 196.457 37.0771 194.696 37.2018Z" fill="#070707"/>
<circle class="symbPoint" cx="84.5" cy="30.5" r="1.5" fill="black"/>
</svg>
