<svg width="16" height="16" viewBox="0 0 16 16" fill="none" xmlns="http://www.w3.org/2000/svg">
<path d="M15.8608 15.1406L11.0761 10.25C12.03 9.09375 12.5069 7.76042 12.5069 6.25C12.5069 5.11458 12.2326 4.06771 11.6838 3.10938C11.1351 2.15104 10.3864 1.39323 9.43768 0.835938C8.48896 0.278646 7.45819 0 6.34537 0C5.23255 0 4.20435 0.278646 3.26076 0.835938C2.31717 1.39323 1.57101 2.15104 1.0223 3.10938C0.473578 4.06771 0.199219 5.11458 0.199219 6.25C0.199219 7.38542 0.473578 8.43229 1.0223 9.39062C1.57101 10.349 2.31717 11.1068 3.26076 11.6641C4.20435 12.2214 5.23512 12.5 6.35307 12.5C7.88127 12.5 9.22486 11.9896 10.3838 10.9688L15.1531 15.8438C15.2556 15.9479 15.3736 16 15.5069 16C15.6402 16 15.7556 15.9505 15.8531 15.8516C15.9505 15.7526 15.9992 15.6328 15.9992 15.4922C15.9992 15.3516 15.9531 15.2344 15.8608 15.1406ZM6.35307 11.5156C5.40948 11.5156 4.54024 11.2786 3.74537 10.8047C2.9505 10.3307 2.3223 9.6901 1.86076 8.88281C1.39922 8.07552 1.16845 7.19792 1.16845 6.25C1.16845 5.30208 1.39922 4.42448 1.86076 3.61719C2.3223 2.8099 2.9505 2.16927 3.74537 1.69531C4.54024 1.22135 5.40691 0.984375 6.34537 0.984375C7.28383 0.984375 8.1505 1.22135 8.94537 1.69531C9.74024 2.16927 10.3684 2.8099 10.83 3.61719C11.2915 4.42448 11.5223 5.30208 11.5223 6.25C11.5223 6.65625 11.4761 7.05729 11.3838 7.45312C11.2915 7.84896 11.1608 8.21875 10.9915 8.5625C10.8223 8.90625 10.6197 9.23177 10.3838 9.53906C10.1479 9.84635 9.88127 10.1198 9.58383 10.3594C9.2864 10.599 8.96845 10.8047 8.62999 10.9766C8.29153 11.1484 7.92742 11.2812 7.53768 11.375C7.14794 11.4688 6.75307 11.5156 6.35307 11.5156Z" fill="black"/>
</svg>
