<svg width="30" height="30" viewBox="0 0 30 30" fill="none" xmlns="http://www.w3.org/2000/svg">
<path fill-rule="evenodd" clip-rule="evenodd" d="M28.3333 0C29.255 0 30 0.745 30 1.66667C30 17.3133 17.3133 30 1.66667 30C0.745001 30 7.15256e-07 29.255 7.15256e-07 28.3333V22.5C7.15256e-07 21.58 0.745001 20.835 1.66667 20.835C3.74667 20.835 5.74667 20.5 7.62 19.8867C7.78667 19.8333 7.96167 19.8067 8.135 19.8067C8.56 19.8067 8.98667 19.97 9.31167 20.295L12.98 23.9667C17.7 21.5667 21.5583 17.7083 23.9617 12.99L20.295 9.31167C19.8367 8.855 19.7017 8.19667 19.8867 7.62C20.5 5.745 20.835 3.745 20.835 1.66667C20.835 0.745 21.58 0 22.5 0H28.3333Z" fill="white"/>
</svg>
