<svg width="44" height="44" viewBox="0 0 44 44" fill="none" xmlns="http://www.w3.org/2000/svg">
<path d="M41.0667 2.20007H7.33333C5.71331 2.20007 4.4 3.51338 4.4 5.13341V28.6001H0.733333C0.32835 28.6001 0 28.9284 0 29.3334C0 30.9534 1.31331 32.2667 2.93333 32.2667H24.2V41.0667C24.2001 41.4717 24.5284 41.8 24.9335 41.7999C25.1279 41.7999 25.3143 41.7226 25.4518 41.5852L29.3333 37.7037L33.2149 41.5852C33.3524 41.7227 33.5388 41.8001 33.7333 41.8001C33.8298 41.8004 33.9252 41.7815 34.0142 41.7443C34.2882 41.6308 34.4668 41.3633 34.4667 41.0667V32.2667H36.6667C38.2867 32.2667 39.6 30.9534 39.6 29.3334V5.86674H43.2667C43.6716 5.86674 44 5.53839 44 5.13341C44 3.51338 42.6867 2.20007 41.0667 2.20007ZM38.1333 5.13341V28.6001H35.2V30.0667H37.9361C37.6742 30.5203 37.1904 30.7998 36.6667 30.8001H34.4667V30.0667H33V39.2965L29.8518 36.1483C29.5654 35.862 29.1012 35.862 28.8149 36.1483L25.6667 39.2965V30.0667H24.2V30.8001H2.93333C2.40964 30.7998 1.92583 30.5203 1.66393 30.0667H5.13333H23.4667V28.6001H5.86667V5.13341C5.86667 4.32335 6.52328 3.66674 7.33333 3.66674H38.5411C38.2772 4.11068 38.1364 4.61696 38.1333 5.13341ZM39.7973 4.40007C40.203 3.69901 41.1002 3.45957 41.8014 3.86538C42.0233 3.99381 42.2076 4.17824 42.3361 4.40007H39.7973Z" fill="#DCBC5A"/>
<path d="M36.2464 25.1497L35.307 23.4667L36.2501 21.7851C36.4488 21.4322 36.3239 20.9851 35.9711 20.7863C35.9533 20.7764 35.935 20.767 35.9164 20.7585L34.166 19.9569L33.9401 18.0429C33.8923 17.6408 33.5275 17.3535 33.1254 17.4013C33.1067 17.4035 33.0881 17.4064 33.0696 17.4101L31.1791 17.7848L29.8716 16.3687C29.5789 16.0715 29.1006 16.0677 28.8034 16.3604C28.8005 16.3632 28.7978 16.366 28.795 16.3687L27.4875 17.7848L25.597 17.4101C25.1997 17.3315 24.8138 17.5899 24.7353 17.9872C24.7316 18.0056 24.7287 18.0242 24.7265 18.0429L24.5006 19.9569L22.7502 20.7599C22.3819 20.9285 22.22 21.3638 22.3886 21.732C22.3971 21.7506 22.4064 21.7688 22.4165 21.7866L23.3596 23.4667L22.4165 25.1482C22.2178 25.5011 22.3427 25.9483 22.6955 26.147C22.7133 26.157 22.7315 26.1664 22.7502 26.1749L24.5006 26.9779L24.7265 28.8934C24.7742 29.2955 25.1391 29.5828 25.5412 29.535C25.5599 29.5328 25.5785 29.5299 25.597 29.5262L27.4875 29.1515L28.795 30.5675C29.0701 30.8648 29.534 30.8828 29.8313 30.6078C29.8453 30.5949 29.8586 30.5815 29.8716 30.5675L31.1791 29.1515L33.0696 29.5262C33.27 29.5672 33.4784 29.5214 33.6431 29.4001C33.807 29.2793 33.9132 29.0957 33.9364 28.8934L34.1623 26.9794L35.9128 26.1763C36.281 26.0078 36.4429 25.5725 36.2743 25.2043C36.2658 25.1857 36.2564 25.1675 36.2464 25.1497ZM33.8272 23.8245L34.5818 25.1709L33.1796 25.8141C32.9472 25.9208 32.7871 26.1409 32.7572 26.3949L32.5768 27.9297L31.061 27.6298C30.8112 27.5779 30.5526 27.6615 30.3805 27.8498L29.3333 28.985L28.2861 27.8513C28.1473 27.7012 27.9522 27.6159 27.7478 27.6159C27.7 27.6156 27.6523 27.6206 27.6056 27.6306L26.0898 27.9305L25.9094 26.3956C25.8795 26.1416 25.7194 25.9215 25.487 25.8148L24.0848 25.1717L24.8394 23.8253C24.9656 23.6016 24.9686 23.33 24.8394 23.1081V23.111L24.0848 21.7646L25.487 21.1215C25.7194 21.0148 25.8795 20.7947 25.9094 20.5407L26.0898 19.0058L27.6056 19.3057C27.8553 19.357 28.1136 19.2735 28.2861 19.0857L29.3333 17.9483L30.3805 19.0821C30.5526 19.2705 30.8112 19.3541 31.061 19.3021L32.5768 19.0021L32.7572 20.537C32.7871 20.791 32.9472 21.0111 33.1796 21.1178L34.5818 21.7609L33.8272 23.1073C33.7023 23.3301 33.7023 23.6018 33.8272 23.8245Z" fill="#DCBC5A"/>
<path d="M29.3333 19.7999C27.3083 19.7999 25.6666 21.4416 25.6666 23.4666C25.669 25.4906 27.3093 27.1308 29.3333 27.1333C31.3583 27.1333 33 25.4916 33 23.4666C33 21.4416 31.3583 19.7999 29.3333 19.7999ZM29.3333 25.6666C28.1183 25.6666 27.1333 24.6816 27.1333 23.4666C27.1333 22.2516 28.1183 21.2666 29.3333 21.2666C30.5483 21.2666 31.5333 22.2516 31.5333 23.4666C31.5333 24.6816 30.5483 25.6666 29.3333 25.6666Z" fill="#DCBC5A"/>
<path d="M27.8666 6.6001H16.1333V8.06676H27.8666V6.6001Z" fill="#DCBC5A"/>
<path d="M35.2001 11H8.80005V12.4667H35.2001V11Z" fill="#DCBC5A"/>
<path d="M35.2001 13.9335H8.80005V15.4001H35.2001V13.9335Z" fill="#DCBC5A"/>
<path d="M19.0667 23.4668H9.53333V24.9335H19.0667V23.4668Z" fill="#DCBC5A"/>
</svg>
