<svg width="46" height="46" viewBox="0 0 46 46" fill="none" xmlns="http://www.w3.org/2000/svg">
<g clip-path="url(#clip0)">
<path d="M3.68533 20.0603C3.92475 20.1561 4.2024 20.1561 4.44182 20.0412L11.9203 16.6419C12.399 16.4121 12.6001 15.8376 12.3703 15.3588C12.1501 14.8992 11.6043 14.6885 11.1351 14.8992L5.89726 17.2835C8.39645 9.80504 15.3578 4.80666 23.3725 4.80666C31.7702 4.80666 39.1145 10.4179 41.2306 18.4517C41.3647 18.9591 41.8913 19.2656 42.3988 19.1315C42.9063 18.9975 43.2127 18.4708 43.0786 17.9633C40.7422 9.09649 32.6414 2.8916 23.3724 2.8916C14.5343 2.8916 6.84514 8.40706 4.06829 16.6611L1.86597 11.1553C1.70321 10.6573 1.15741 10.3797 0.659461 10.5424C0.161509 10.7052 -0.116149 11.251 0.0466033 11.7489C0.0562087 11.7872 0.0753297 11.8255 0.0944506 11.8638L3.14905 19.5241C3.24483 19.7636 3.43631 19.9646 3.68533 20.0603Z" fill="#DCBC5A"/>
<path d="M45.9418 34.1936C45.9322 34.1745 45.9227 34.1553 45.9227 34.1362L42.8681 26.4758C42.7723 26.2364 42.5809 26.0353 42.3319 25.9396C42.0925 25.8439 41.8148 25.8535 41.5754 25.9588L34.097 29.3581C33.6086 29.5592 33.3788 30.1241 33.5799 30.6124C33.781 31.1008 34.3459 31.3306 34.8343 31.1295C34.8534 31.1199 34.8726 31.1104 34.8917 31.1008L40.1295 28.7165C37.6112 36.1949 30.6402 41.1933 22.6352 41.1933C14.2375 41.1933 6.89313 35.5821 4.77698 27.5483C4.64296 27.0408 4.11628 26.7344 3.60881 26.8685C3.10134 27.0025 2.79487 27.5292 2.92898 28.0367C5.25582 36.9131 13.3663 43.1084 22.6353 43.1084C31.4734 43.1084 39.1529 37.5929 41.9394 29.3389L44.1417 34.8447C44.3236 35.3427 44.8694 35.6012 45.3673 35.4192C45.8652 35.2374 46.1237 34.6916 45.9418 34.1936Z" fill="#DCBC5A"/>
</g>
<defs>
<clipPath id="clip0">
<rect width="46" height="46" fill="white"/>
</clipPath>
</defs>
</svg>
