<svg width="40" height="40" viewBox="0 0 40 40" fill="none" xmlns="http://www.w3.org/2000/svg">
<g clip-path="url(#clip0)">
<path d="M24.6875 20.3125C24.2563 20.3125 23.9062 20.6625 23.9062 21.0938C23.9062 21.525 24.2563 21.875 24.6875 21.875C25.1187 21.875 25.4688 21.525 25.4688 21.0938C25.4688 20.6625 25.1187 20.3125 24.6875 20.3125Z" fill="#DCBC5A"/>
<path d="M7.98243 28.8895L0.169932 38.7332C-0.0165307 38.9679 -0.0519311 39.2886 0.078379 39.5584C0.208689 39.8285 0.482126 40 0.781809 40H39.2193C39.519 40 39.7924 39.8285 39.9227 39.5584C40.0534 39.2886 40.0177 38.9679 39.8312 38.7332L32.0187 28.8895C31.8707 28.7027 31.6452 28.5938 31.4068 28.5938H24.5632L30.4058 19.4299C31.7764 17.3752 32.5006 14.9789 32.5006 12.5C32.5006 5.6076 26.8933 0 20.0006 0C13.1079 0 7.50056 5.6076 7.50056 12.5C7.50056 14.9789 8.22474 17.3749 9.59529 19.4299L15.4379 28.5938H8.59431C8.35597 28.5938 8.13075 28.7027 7.98243 28.8895ZM5.06556 35.0781H9.78938L7.12336 38.4375H2.39924L5.06556 35.0781ZM16.4343 30.1562L18.576 33.5156H13.0242L15.6906 30.1562H16.4343ZM23.5672 30.1562H24.3109L26.9769 33.5156H21.4254L23.5672 30.1562ZM28.2171 35.0781L30.8831 38.4375H9.11799L11.7843 35.0781H28.2171ZM32.8781 38.4375L30.2117 35.0781H34.9359L37.6019 38.4375H32.8781ZM33.6956 33.5156H28.9718L26.3055 30.1562H31.0296L33.6956 33.5156ZM10.8996 18.5693C9.69813 16.7706 9.06306 14.6719 9.06306 12.5C9.06306 6.46912 13.9697 1.5625 20.0006 1.5625C26.0314 1.5625 30.9381 6.46912 30.9381 12.5C30.9381 14.6719 30.303 16.7706 29.1018 18.5693C29.0985 18.5739 29.0957 18.5785 29.0927 18.5831C28.5797 19.3878 20.3958 32.2241 20.0006 32.8436C19.0066 31.2845 11.9207 20.1706 10.9085 18.5831C10.9057 18.5785 10.9027 18.5739 10.8996 18.5693ZM13.6956 30.1562L11.0296 33.5156H6.30549L8.97181 30.1562H13.6956Z" fill="#DCBC5A"/>
<path d="M20 20.3125C24.2889 20.3125 27.8125 16.8393 27.8125 12.5C27.8125 8.19214 24.3079 4.6875 20 4.6875C15.6921 4.6875 12.1875 8.19214 12.1875 12.5C12.1875 16.8405 15.7123 20.3125 20 20.3125ZM20 6.25C23.4464 6.25 26.25 9.05365 26.25 12.5C26.25 15.9784 23.4238 18.75 20 18.75C16.5753 18.75 13.75 15.9784 13.75 12.5C13.75 9.05365 16.5536 6.25 20 6.25Z" fill="#DCBC5A"/>
<path d="M23.2908 22.9785C22.9215 22.7557 22.4411 22.8747 22.2184 23.2443L19.3308 28.0349C19.108 28.4045 19.227 28.8846 19.5966 29.1073C19.9677 29.331 20.4471 29.2096 20.669 28.8415L23.5566 24.0509C23.7793 23.6813 23.6603 23.2013 23.2908 22.9785Z" fill="#DCBC5A"/>
</g>
<defs>
<clipPath id="clip0">
<rect width="40" height="40" fill="white"/>
</clipPath>
</defs>
</svg>
