<svg width="40" height="40" viewBox="0 0 40 40" fill="none" xmlns="http://www.w3.org/2000/svg">
<g clip-path="url(#clip0)">
<path d="M39.1666 16.6666H37.8698C38.1568 16.1744 38.3334 15.6098 38.3334 15V14.1666C38.3334 13.706 37.9606 13.3333 37.5 13.3333H36.6245C36.2289 7.37813 31.6548 2.55961 25.8089 1.78734C25.812 1.74531 25.8334 1.70953 25.8334 1.66672C25.8334 0.747891 25.0855 0 24.1666 0C23.2479 0 22.5 0.747891 22.5 1.66664C22.5 1.70945 22.5212 1.74531 22.5245 1.78727C16.6785 2.55953 12.1045 7.37813 11.7089 13.3333H10.8334C10.3727 13.3333 10 13.706 10 14.1666V15C10 15.6098 10.1765 16.1745 10.4636 16.6666H8.0643L4.97828 8.95156C4.86711 7.67508 3.80492 6.66664 2.5 6.66664C1.12141 6.66664 0 7.78805 0 9.16664C0 10.5452 1.12141 11.6666 2.5 11.6666C3.08734 11.6666 3.62078 11.4546 4.04805 11.1143L6.66664 17.6607V32.5C6.66664 32.9606 7.03937 33.3334 7.5 33.3334C8.55969 33.3334 9.05234 33.6361 9.66187 34.0207C8.86 34.6299 8.33336 35.5839 8.33336 36.6667C8.33336 38.5051 9.82828 40.0001 11.6667 40.0001C13.5052 40.0001 15 38.5051 15 36.6666C15 35.9538 14.7708 35.2961 14.3884 34.7537C14.9831 34.5632 15.4424 34.2963 15.8512 34.038C16.4738 33.6441 16.9662 33.3333 18.0437 33.3333C19.1212 33.3333 19.6135 33.6441 20.2361 34.038C20.9498 34.4889 21.7595 35 23.3196 35C24.8797 35 25.6894 34.4889 26.4031 34.038C27.0265 33.6441 27.518 33.3333 28.5963 33.3333C29.677 33.3333 30.1702 33.6441 30.7944 34.038C31.2071 34.2984 31.6716 34.5674 32.2748 34.758C31.8943 35.2995 31.6667 35.9558 31.6667 36.6666C31.6666 38.5051 33.1616 40 35 40C36.8384 40 38.3334 38.5051 38.3334 36.6666C38.3334 35.5823 37.8054 34.6272 37.0016 34.018C37.6109 33.6345 38.1064 33.3334 39.1666 33.3334C39.6273 33.3334 40 32.9606 40 32.5V17.5C40 17.0394 39.6273 16.6666 39.1666 16.6666ZM2.5 10C2.04023 10 1.66664 9.62648 1.66664 9.16664C1.66664 8.70687 2.04016 8.33328 2.5 8.33328C2.95984 8.33328 3.33336 8.7068 3.33336 9.16664C3.33336 9.62648 2.95977 10 2.5 10ZM24.1666 3.33336C29.8587 3.33336 34.5295 7.74914 34.9577 13.3334H13.3755C13.8038 7.74914 18.4746 3.33336 24.1666 3.33336ZM36.6666 15C36.6666 15.9187 35.9188 16.6666 35 16.6666H13.3334C12.4146 16.6666 11.6667 15.9187 11.6667 15H36.6666ZM11.6666 38.3334C10.7479 38.3334 10 37.5855 10 36.6667C10 35.748 10.7479 35.0001 11.6666 35.0001C12.5854 35.0001 13.3333 35.748 13.3333 36.6667C13.3334 37.5855 12.5855 38.3334 11.6666 38.3334ZM35 38.3334C34.0812 38.3334 33.3334 37.5855 33.3334 36.6667C33.3334 35.748 34.0812 35.0001 35 35.0001C35.9188 35.0001 36.6666 35.748 36.6666 36.6667C36.6666 37.5855 35.9188 38.3334 35 38.3334ZM38.3334 31.7204C37.2925 31.8636 36.6553 32.2656 36.0799 32.6286C35.4549 33.0225 34.9617 33.3334 33.881 33.3334C32.8003 33.3334 32.3071 33.0225 31.683 32.6286C30.9684 32.1777 30.1579 31.6666 28.5963 31.6666C27.0362 31.6666 26.2265 32.1777 25.5127 32.6286C24.8894 33.0225 24.3978 33.3334 23.3195 33.3334C22.2412 33.3334 21.7497 33.0225 21.1263 32.6286C20.4127 32.1777 19.6037 31.6666 18.0437 31.6666C16.4837 31.6666 15.6747 32.1777 14.961 32.6286C14.3384 33.0225 13.8461 33.3334 12.7686 33.3334C11.6927 33.3334 11.202 33.0225 10.5795 32.6295C10.0066 32.2665 9.37094 31.8645 8.33336 31.7213V18.3334H13.3334H35H38.3334V31.7204Z" fill="#DCBC5A"/>
</g>
<defs>
<clipPath id="clip0">
<rect width="40" height="40" fill="white"/>
</clipPath>
</defs>
</svg>
