<svg width="53" height="53" viewBox="0 0 53 53" fill="none" xmlns="http://www.w3.org/2000/svg">
<path d="M43.3303 34.8531C42.0352 34.8531 40.8049 35.3604 39.8768 36.2777C38.9487 37.2058 38.4307 38.4145 38.4307 39.7096C38.4307 41.0046 38.9379 42.2134 39.8768 43.1415C40.8157 44.0588 42.0352 44.566 43.3303 44.566C45.9851 44.566 48.1436 42.386 48.1436 39.7096C48.1436 37.0331 45.9851 34.8531 43.3303 34.8531ZM43.3303 42.4076C41.841 42.4076 40.5891 41.1773 40.5891 39.7096C40.5891 38.2419 41.841 37.0116 43.3303 37.0116C44.798 37.0116 45.9851 38.2203 45.9851 39.7096C45.9851 41.1989 44.798 42.4076 43.3303 42.4076ZM44.5822 18.6758C44.3879 18.4923 44.1289 18.3952 43.8591 18.3952H38.3227C37.7292 18.3952 37.2435 18.8808 37.2435 19.4744V28.3239C37.2435 28.9175 37.7292 29.4031 38.3227 29.4031H47.1075C47.7011 29.4031 48.1867 28.9175 48.1867 28.3239V22.3991C48.1867 22.0969 48.0572 21.8055 47.8306 21.6004L44.5822 18.6758ZM46.0283 27.2447H39.402V20.5428H43.4382L46.0283 22.8739V27.2447ZM16.976 34.8531C15.6809 34.8531 14.4506 35.3604 13.5225 36.2777C12.5944 37.2058 12.0764 38.4145 12.0764 39.7096C12.0764 41.0046 12.5836 42.2134 13.5225 43.1415C14.4614 44.0588 15.6809 44.566 16.976 44.566C19.6308 44.566 21.7892 42.386 21.7892 39.7096C21.7892 37.0331 19.6308 34.8531 16.976 34.8531ZM16.976 42.4076C15.4867 42.4076 14.2348 41.1773 14.2348 39.7096C14.2348 38.2419 15.4867 37.0116 16.976 37.0116C18.4437 37.0116 19.6308 38.2203 19.6308 39.7096C19.6308 41.1989 18.4437 42.4076 16.976 42.4076ZM9.77764 36.1806H7.60843V33.3099C7.60843 32.7163 7.12279 32.2307 6.52922 32.2307C5.93565 32.2307 5.45001 32.7163 5.45001 33.3099V37.2598C5.45001 37.8533 5.93565 38.339 6.52922 38.339H9.77764C10.3712 38.339 10.8569 37.8533 10.8569 37.2598C10.8569 36.6662 10.3712 36.1806 9.77764 36.1806ZM15.2492 30.2989C15.2492 29.7053 14.7636 29.2197 14.17 29.2197H1.07921C0.485644 29.2197 0 29.7053 0 30.2989C0 30.8924 0.485644 31.3781 1.07921 31.3781H14.17C14.7636 31.3781 15.2492 30.9032 15.2492 30.2989ZM3.27001 26.4029L16.3608 26.4785C16.9544 26.4785 17.44 26.0036 17.4508 25.4101C17.4616 24.8057 16.976 24.3201 16.3824 24.3201L3.29159 24.2445C3.2808 24.2445 3.2808 24.2445 3.2808 24.2445C2.68723 24.2445 2.20159 24.7194 2.20159 25.3129C2.1908 25.9173 2.67644 26.4029 3.27001 26.4029ZM5.47159 21.5033H18.5624C19.156 21.5033 19.6416 21.0177 19.6416 20.4241C19.6416 19.8305 19.156 19.3449 18.5624 19.3449H5.47159C4.87803 19.3449 4.39238 19.8305 4.39238 20.4241C4.39238 21.0177 4.87803 21.5033 5.47159 21.5033ZM52.6007 20.0464L44.8735 13.6467C44.6793 13.4848 44.4419 13.3984 44.1829 13.3984H35.0959V9.51329C35.0959 8.91973 34.6103 8.43408 34.0167 8.43408H6.52922C5.93565 8.43408 5.45001 8.91973 5.45001 9.51329V17.4131C5.45001 18.0067 5.93565 18.4923 6.52922 18.4923C7.12279 18.4923 7.60843 18.0067 7.60843 17.4131V10.5925H32.9483V36.1806H24.0988C23.5052 36.1806 23.0195 36.6662 23.0195 37.2598C23.0195 37.8533 23.5052 38.339 24.0988 38.339H37.2759C37.8695 38.339 38.3551 37.8533 38.3551 37.2598C38.3551 36.6662 37.8695 36.1806 37.2759 36.1806H35.1067V15.5569H43.8051L50.8416 21.3846L50.766 36.159H49.6437C49.0501 36.159 48.5644 36.6446 48.5644 37.2382C48.5644 37.8318 49.0501 38.3174 49.6437 38.3174H51.8344C52.428 38.3174 52.9137 37.8426 52.9137 37.249L53 20.8882C52.9892 20.5644 52.8489 20.2514 52.6007 20.0464Z" fill="#DCBC5A"/>
</svg>
