<svg width="44" height="40" viewBox="0 0 44 40" fill="none" xmlns="http://www.w3.org/2000/svg">
<path d="M1 32.8461V4.0769C1 3.52462 1.44772 3.0769 2 3.0769H36.3452C36.8975 3.0769 37.3452 3.52462 37.3452 4.07691V32.8461C37.3452 33.3984 36.8975 33.8461 36.3452 33.8461H2C1.44772 33.8461 1 33.3984 1 32.8461Z" stroke="#DCBC5A" stroke-width="2"/>
<rect x="2" y="9" width="35" height="2" fill="#DCBC5A"/>
<circle cx="34" cy="30" r="8" fill="white" stroke="#DCBC5A" stroke-width="2"/>
<rect x="7" y="14" width="5" height="2" rx="1" fill="#DCBC5A"/>
<rect x="16" y="14" width="5" height="2" rx="1" fill="#DCBC5A"/>
<rect x="25" y="14" width="5" height="2" rx="1" fill="#DCBC5A"/>
<rect x="7" y="20" width="5" height="2" rx="1" fill="#DCBC5A"/>
<rect x="16" y="20" width="5" height="2" rx="1" fill="#DCBC5A"/>
<rect x="35" y="26" width="6" height="2" rx="1" transform="rotate(90 35 26)" fill="#DCBC5A"/>
<rect x="9" width="6" height="2" rx="1" transform="rotate(90 9 0)" fill="#DCBC5A"/>
<rect x="16" width="6" height="2" rx="1" transform="rotate(90 16 0)" fill="#DCBC5A"/>
<rect x="23" width="6" height="2" rx="1" transform="rotate(90 23 0)" fill="#DCBC5A"/>
<rect x="30" width="6" height="2" rx="1" transform="rotate(90 30 0)" fill="#DCBC5A"/>
<rect x="25" y="20" width="5" height="2" rx="1" fill="#DCBC5A"/>
<rect x="7" y="26" width="5" height="2" rx="1" fill="#DCBC5A"/>
<rect x="16" y="26" width="5" height="2" rx="1" fill="#DCBC5A"/>
<rect x="33" y="30" width="6" height="2" rx="1" fill="#DCBC5A"/>
</svg>
