<svg width="40" height="40" viewBox="0 0 40 40" fill="none" xmlns="http://www.w3.org/2000/svg">
<g clip-path="url(#clip0)">
<path d="M39.6578 0.34373C39.2002 -0.113926 38.4581 -0.113926 38.0004 0.34373L34.5872 3.757C34.3773 3.657 34.1559 3.57646 33.9247 3.51872L23.3176 0.898182C22.1266 0.600448 20.8472 0.954744 19.979 1.82295L1.02925 20.7415C-0.341454 22.1123 -0.341454 24.3427 1.02925 25.7136L14.2881 38.9723C15.6588 40.3431 17.8893 40.3432 19.2602 38.9723L38.1787 20.0225C39.0469 19.1543 39.4013 17.8749 39.1034 16.6838L36.4829 6.07677C36.4251 5.84567 36.3447 5.62419 36.2447 5.41434L39.6579 2.00107C40.1154 1.54341 40.1154 0.801385 39.6578 0.34373ZM36.8294 17.2524C36.9287 17.6494 36.8106 18.0758 36.5212 18.3653L17.6027 37.315C17.1457 37.7719 16.4022 37.7719 15.9452 37.315L2.68651 24.0562C2.22956 23.5992 2.22956 22.8557 2.68651 22.3988L21.6363 3.48029C21.858 3.25865 22.16 3.13747 22.4676 3.13747C22.5617 3.13747 22.6563 3.1488 22.7492 3.17201L32.7125 5.63161L29.8902 8.45387C28.5836 7.83153 26.9696 8.05981 25.8894 9.13996C24.5186 10.5108 24.5186 12.7412 25.8894 14.1121C26.5747 14.7975 27.4751 15.1402 28.3754 15.1402C29.2757 15.1402 30.1761 14.7975 30.8614 14.1121C31.9418 13.0318 32.17 11.4178 31.5475 10.1112L34.3697 7.28895L36.8294 17.2524ZM29.2041 12.4548C28.7472 12.9117 28.0037 12.9118 27.5468 12.4548C27.0899 11.9979 27.0899 11.2543 27.5468 10.7975C27.7753 10.5689 28.0753 10.4548 28.3754 10.4548C28.6754 10.4548 28.9756 10.569 29.204 10.7974L29.204 10.7975L29.2041 10.7975C29.6611 11.2544 29.661 11.9979 29.2041 12.4548Z" fill="#DCBC5A"/>
<path d="M19.2588 14.1118C17.888 12.741 15.6575 12.741 14.2867 14.1118C12.916 15.4825 12.916 17.713 14.2867 19.0839C15.6575 20.4546 17.888 20.4546 19.2588 19.0839C20.6296 17.713 20.6296 15.4826 19.2588 14.1118ZM17.6015 17.4264C17.1446 17.8834 16.4011 17.8834 15.9442 17.4264C15.4873 16.9695 15.4872 16.226 15.9441 15.7691C16.4011 15.3122 17.1445 15.3122 17.6015 15.7691C18.0584 16.226 18.0584 16.9695 17.6015 17.4264Z" fill="#DCBC5A"/>
<path d="M20.9162 25.713C19.5422 24.3391 17.3184 24.3389 15.9442 25.713C14.5733 27.0839 14.5733 29.3143 15.9442 30.6851C17.3182 32.0591 19.542 32.0594 20.9162 30.6851C22.287 29.3143 22.287 27.0839 20.9162 25.713ZM19.2588 29.0278C18.8009 29.4858 18.0595 29.4858 17.6015 29.0278C17.1446 28.5709 17.1446 27.8273 17.6015 27.3705C18.0595 26.9125 18.8009 26.9124 19.2588 27.3705C19.7157 27.8273 19.7157 28.5708 19.2588 29.0278Z" fill="#DCBC5A"/>
<path d="M26.2244 21.4404C26.1529 20.7971 25.5734 20.3335 24.9302 20.405L10.0141 22.0623C9.37082 22.1338 8.90722 22.7132 8.97871 23.3565C9.04535 23.9558 9.55269 24.3992 10.1421 24.3992C10.1853 24.3992 10.229 24.3968 10.2729 24.3919L25.1891 22.7346C25.8323 22.663 26.2959 22.0836 26.2244 21.4404Z" fill="#DCBC5A"/>
</g>
<defs>
<clipPath id="clip0">
<rect width="40" height="40" fill="white"/>
</clipPath>
</defs>
</svg>
