<svg width="40" height="42" viewBox="0 0 40 42" fill="none" xmlns="http://www.w3.org/2000/svg">
<g clip-path="url(#clip0)">
<path fill-rule="evenodd" clip-rule="evenodd" d="M14.6943 7.60581C15.0295 7.94137 15.5881 7.94137 15.9233 7.60581C18.3814 5.20102 21.6775 3.85881 25.1412 3.85881C28.6608 3.85881 31.9569 5.20102 34.415 7.66174C39.4988 12.695 39.4988 20.9161 34.4708 25.9494L33.5211 26.7323L34.0798 23.7683C34.1915 23.3209 33.8563 22.8735 33.4094 22.7616C33.3535 22.7616 33.2976 22.7616 33.2418 22.7616C32.8507 22.7616 32.4596 23.0412 32.4038 23.4327L31.5099 28.4101C31.3982 28.8575 31.7334 29.3049 32.1803 29.4167C34.1356 29.7523 37.1524 30.2556 37.3759 30.3115C37.7669 30.3115 38.158 30.0319 38.2138 29.5845C38.3256 29.1371 37.9904 28.6897 37.5434 28.5779L34.5267 28.0745L34.9736 27.683C35.2529 27.4593 35.644 27.1238 35.6999 27.1238C38.4932 24.3834 40.0015 20.6924 40.0015 16.7776C40.0015 12.8628 38.4373 9.17173 35.644 6.43138C32.8507 3.69103 29.1077 2.12512 25.1412 2.12512C21.1747 2.12512 17.4876 3.63511 14.6384 6.43138C14.3591 6.76693 14.3591 7.27026 14.6943 7.60581Z" fill="#DCBC5A"/>
<path fill-rule="evenodd" clip-rule="evenodd" d="M10.672 13.5339C7.43173 13.5339 4.80603 16.1624 4.80603 19.3502C4.80603 22.5939 7.43173 25.1664 10.672 25.1664C13.9122 25.1664 16.5379 22.5379 16.5379 19.3502C16.5379 16.1065 13.9122 13.5339 10.672 13.5339ZM10.672 23.4887C8.38145 23.4887 6.53787 21.6431 6.53787 19.3502C6.53787 17.0572 8.38145 15.2117 10.672 15.2117C12.9625 15.2117 14.806 17.0572 14.806 19.3502C14.806 21.6431 12.9625 23.4887 10.672 23.4887Z" fill="#DCBC5A"/>
<path fill-rule="evenodd" clip-rule="evenodd" d="M14.1915 27.0679C14.1357 27.0679 14.0798 27.0679 14.0239 27.0679C13.6887 27.0679 13.3535 27.2356 13.2418 27.5712L10.5044 34.1145L7.76695 27.5712C7.65522 27.2356 7.32002 27.0679 6.98483 27.0679H6.81723L6.59376 27.1238C3.7446 27.6271 0.00158691 28.7456 0.00158691 32.3249V41.1611C0.00158691 41.6085 0.392648 42 0.839576 42H20.9513V32.3249C20.9513 29.6964 18.6608 27.9068 14.1915 27.0679ZM19.2753 40.2663H1.73343V32.2689C1.73343 29.8641 4.63846 29.249 5.92337 28.9693C6.03511 28.9693 6.14684 28.9134 6.25857 28.9134L6.48203 28.8575L9.72226 36.6311C9.83399 36.9667 10.1692 37.1345 10.5044 37.1345C10.8396 37.1345 11.1748 36.9107 11.2865 36.6311L14.5267 28.8575L14.7502 28.9134C14.8619 28.9134 14.9737 28.9693 15.1413 29.0253C16.482 29.3049 19.2195 29.8641 19.2195 32.3249V34.7856C19.2753 36.7989 19.2753 39.2596 19.2753 39.9866V40.2663Z" fill="#DCBC5A"/>
<path fill-rule="evenodd" clip-rule="evenodd" d="M18.3814 18.7909C18.4932 19.0706 18.7725 19.2383 18.996 19.2383H24.1915C24.5825 19.2383 24.9177 18.9028 24.9177 18.5113C24.9177 18.1198 24.5825 17.7843 24.1915 17.7843H20.6719L23.4652 14.8762C23.4652 14.8762 24.1356 14.1491 24.1356 12.9747C24.1356 11.2969 22.8507 9.95471 21.2306 9.95471C19.6105 9.95471 18.3256 11.2969 18.3256 12.9747C18.3256 13.3662 18.6608 13.7017 19.0518 13.7017C19.4429 13.7017 19.7781 13.3662 19.7781 12.9747C19.7781 12.1358 20.4485 11.4088 21.2865 11.4088C22.1244 11.4088 22.7948 12.0799 22.7948 12.9747C22.7948 13.3102 22.6831 13.5899 22.5155 13.8695L18.6049 18.008C18.3256 18.1758 18.2697 18.5113 18.3814 18.7909Z" fill="#DCBC5A"/>
<path fill-rule="evenodd" clip-rule="evenodd" d="M32.6832 15.5473H31.9011V10.6258C31.9011 10.3462 31.7335 10.0666 31.4541 9.95473C31.3983 9.8988 31.2865 9.8988 31.2307 9.8988C31.0072 9.8988 30.8396 10.0107 30.672 10.1784L26.091 15.771C25.9234 15.9947 25.8675 16.2743 25.9793 16.5539C26.091 16.8336 26.3703 16.9454 26.6497 16.9454H30.4485V18.5113C30.4485 18.9028 30.7837 19.2384 31.1748 19.2384C31.5659 19.2384 31.9011 18.9028 31.9011 18.5113V17.0013H32.6832C33.0742 17.0013 33.4094 16.6658 33.4094 16.2743C33.4094 15.8828 33.0742 15.5473 32.6832 15.5473ZM30.4485 15.4913H28.1022L30.4485 12.6392V15.4913Z" fill="#DCBC5A"/>
</g>
<defs>
<clipPath id="clip0">
<rect width="40" height="42" fill="white"/>
</clipPath>
</defs>
</svg>
