<svg width="45" height="45" viewBox="0 0 45 45" fill="none" xmlns="http://www.w3.org/2000/svg">
<path d="M40.3125 0.75H4.68747C2.06253 0.75 0 2.81253 0 5.43756V36.1876C0 38.8126 2.06253 40.8751 4.68747 40.8751H40.3124C42.9375 40.8751 44.9999 38.8125 44.9999 36.1876V5.43756C45 2.81253 42.9375 0.75 40.3125 0.75ZM11.25 39H4.68747C3.18744 39 1.87497 37.6874 1.87497 36.1875V18.75H9.74997C8.62497 19.875 7.49997 21.5625 7.49997 23.4375C7.49997 24 7.875 24.375 8.4375 24.375C9 24.375 9.37503 24 9.37503 23.4375C9.37503 22.3125 10.3126 20.8124 11.25 19.875V39ZM6.56253 14.0625C6.37506 13.6875 6.75 13.3126 7.12503 12.75C7.50006 12.3749 7.875 12.1875 8.25003 12.1875H8.4375C9.37503 12.5625 10.3125 14.6249 10.875 16.4999C9 15.9375 6.93747 15.0001 6.56253 14.0625ZM11.25 12.375C10.6875 11.4375 9.93753 10.6875 9 10.3125C8.25003 10.125 7.12503 10.125 5.81247 11.4375C4.5 12.7501 4.5 13.8751 4.68747 14.625C4.87494 15.5626 5.81247 16.3125 6.75 16.875H1.87497V5.43756C1.87497 3.93762 3.18744 2.62506 4.68747 2.62506H11.25V12.375ZM43.125 36.1875C43.125 37.6874 41.8126 39 40.3125 39H13.125V19.875C14.0625 20.8125 14.9999 22.125 14.9999 23.4375C14.9999 24 15.375 24.375 15.9375 24.375C16.5 24.375 16.875 24 16.875 23.4375C16.875 21.5625 15.75 19.875 14.625 18.75H43.125V36.1875ZM13.5 16.5C14.0625 14.625 15 12.5625 15.9375 12.1876H16.1249C16.5 12.1876 16.8749 12.375 17.2499 12.7501C17.8124 13.3126 17.9999 13.6876 17.8124 14.0626C17.4375 15.0001 15.375 15.9375 13.5 16.5ZM43.125 16.875H17.625C18.5625 16.3125 19.3125 15.5625 19.6875 14.625C19.875 13.8751 19.875 12.7501 18.5625 11.4375C17.25 10.1249 16.125 10.1249 15.375 10.3125C14.4374 10.5 13.6875 11.4375 13.125 12.375V2.62506H40.3124C41.8125 2.62506 43.1249 3.93762 43.1249 5.43756L43.125 16.875Z" fill="#DCBC5A"/>
</svg>
