<svg width="40" height="40" viewBox="0 0 40 40" fill="none" xmlns="http://www.w3.org/2000/svg">
<g clip-path="url(#clip0)">
<path d="M29.7784 11.7422H10.2216V13.4843H29.7784V11.7422Z" fill="#DCBC5A"/>
<path d="M29.7785 14.3516H27.9977V16.0938H29.7785V14.3516Z" fill="#DCBC5A"/>
<path d="M12.0024 14.3516H10.2216V16.0938H12.0024V14.3516Z" fill="#DCBC5A"/>
<path d="M20.8903 6.08603H19.1095V7.82822H20.8903V6.08603Z" fill="#DCBC5A"/>
<path d="M23.5577 6.08603H21.7769V7.82822H23.5577V6.08603Z" fill="#DCBC5A"/>
<path d="M18.2233 6.08603H16.4425V7.82822H18.2233V6.08603Z" fill="#DCBC5A"/>
<path d="M15.5559 6.08603H13.7751V7.82822H15.5559V6.08603Z" fill="#DCBC5A"/>
<path d="M26.2248 6.08603H24.444V7.82822H26.2248V6.08603Z" fill="#DCBC5A"/>
<path d="M36.2468 37.4922C35.4642 37.8984 34.7934 38.25 33.3799 38.2578L38.6185 22.8828C38.7622 22.4609 38.5546 22 38.1394 21.8125L33.332 19.6953V11.3047C33.332 9.86719 32.1342 8.69531 30.6648 8.69531H29.3312V4.35156C29.3312 3.875 28.9319 3.48438 28.4448 3.48438H20.8904V0H19.1096V3.47656H11.5552C11.0681 3.47656 10.6688 3.86719 10.6688 4.34375V8.69531H9.3352C7.86584 8.69531 6.668 9.86719 6.668 11.3047V19.6953L1.86065 21.8125C1.4454 21.9922 1.23777 22.4609 1.38151 22.8828L6.62008 38.2578C5.20663 38.25 4.53584 37.8984 3.75324 37.4922C2.88281 37.0391 1.89259 36.5234 0 36.5234V38.2656C1.4454 38.2656 2.12418 38.625 2.91475 39.0312C3.78519 39.4844 4.7754 40 6.668 40C7.17109 40 7.59433 39.9688 7.96966 39.8984C9.06369 39.7344 9.78239 39.3516 10.4212 39.0234C11.2118 38.6094 11.8906 38.2578 13.328 38.2578C14.7734 38.2578 15.4522 38.6172 16.2428 39.0234C17.1132 39.4766 18.1034 39.9922 19.996 39.9922C21.8886 39.9922 22.8708 39.4766 23.7493 39.0234C24.5398 38.6094 25.2186 38.2578 26.664 38.2578C28.1094 38.2578 28.7882 38.6094 29.5788 39.0234C30.2176 39.3516 30.9363 39.7344 32.0383 39.8984C32.4137 39.9688 32.8449 40 33.34 40C35.2326 40 36.2148 39.4844 37.0932 39.0312C37.8838 38.6172 38.5626 38.2656 40.008 38.2656V36.5234C38.1074 36.5234 37.1172 37.0391 36.2468 37.4922ZM36.678 23.0781L36.0391 24.9453L20.8824 18.1328V16.125L36.678 23.0781ZM12.4416 5.21875H27.5504V8.69531H12.4416V5.21875ZM8.44081 11.3047C8.44081 10.8281 8.84009 10.4375 9.32721 10.4375H11.5472H28.4368H30.6648C31.1519 10.4375 31.5512 10.8281 31.5512 11.3047V18.9141L20.3633 13.9922C20.1318 13.8906 19.8682 13.8906 19.6367 13.9922L8.44879 18.9219L8.44081 11.3047ZM3.32202 23.0781L19.1096 16.125V18.1328L3.95288 24.9531L3.32202 23.0781ZM31.5911 38.0156C31.1599 37.875 30.8006 37.6953 30.4093 37.4922C29.5388 37.0391 28.5486 36.5234 26.656 36.5234C24.7634 36.5234 23.7812 37.0391 22.9028 37.4922C22.1122 37.9062 21.4334 38.2578 19.988 38.2578C18.5426 38.2578 17.8638 37.8984 17.0733 37.4922C16.2028 37.0391 15.2126 36.5234 13.32 36.5234C11.4354 36.5234 10.4532 37.0391 9.57477 37.4922C9.18347 37.6953 8.8321 37.8828 8.40088 38.0156L4.51188 26.6094L19.1016 20.0547V30.4375H20.8824V20.0547L35.4722 26.6094L31.5911 38.0156Z" fill="#DCBC5A"/>
</g>
<defs>
<clipPath id="clip0">
<rect width="40" height="40" fill="white"/>
</clipPath>
</defs>
</svg>
