<svg width="42" height="42" viewBox="0 0 42 42" fill="none" xmlns="http://www.w3.org/2000/svg">
<path d="M4.51991 11.5571C7.01572 11.5571 9.03982 9.52439 9.03982 7.03716C9.03982 4.54992 7.01572 2.50867 4.51991 2.50867C2.0241 2.50867 0 4.54134 0 7.02858C0 9.51582 2.03267 11.5571 4.51991 11.5571ZM4.51991 4.60995C5.85787 4.60995 6.93853 5.69919 6.93853 7.02858C6.93853 8.35796 5.8493 9.4472 4.51991 9.4472C3.19053 9.4472 2.10129 8.35796 2.10129 7.02858C2.10129 5.69919 3.19053 4.60995 4.51991 4.60995Z" fill="#DCBC5A"/>
<path d="M4.51991 25.5199C7.01572 25.5199 9.03982 23.4873 9.03982 21C9.03982 18.5128 7.01572 16.4801 4.51991 16.4801C2.0241 16.4801 0 18.5042 0 21C0 23.4958 2.03267 25.5199 4.51991 25.5199ZM4.51991 18.5814C5.85787 18.5814 6.93853 19.6706 6.93853 21C6.93853 22.3294 5.8493 23.4186 4.51991 23.4186C3.19053 23.4186 2.10129 22.338 2.10129 21C2.10129 19.6621 3.19053 18.5814 4.51991 18.5814Z" fill="#DCBC5A"/>
<path d="M4.51991 39.4912C7.01572 39.4912 9.03982 37.4586 9.03982 34.9713C9.03982 32.4755 7.00715 30.4514 4.51991 30.4514C2.03267 30.4514 0 32.4841 0 34.9713C0 37.4586 2.03267 39.4912 4.51991 39.4912ZM4.51991 32.5441C5.85787 32.5441 6.93853 33.6334 6.93853 34.9627C6.93853 36.3007 5.8493 37.3814 4.51991 37.3814C3.19053 37.3814 2.10129 36.2921 2.10129 34.9627C2.10129 33.6334 3.19053 32.5441 4.51991 32.5441Z" fill="#DCBC5A"/>
<path d="M15.0862 8.08349H40.9449C41.5281 8.08349 41.9998 7.61178 41.9998 7.02856C41.9998 6.44535 41.5281 5.97363 40.9449 5.97363H15.0862C14.503 5.97363 14.0312 6.44535 14.0312 7.02856C14.0312 7.61178 14.503 8.08349 15.0862 8.08349Z" fill="#DCBC5A"/>
<path d="M15.0862 22.0549H40.9449C41.5281 22.0549 41.9998 21.5832 41.9998 21C41.9998 20.4168 41.5281 19.9451 40.9449 19.9451H15.0862C14.503 19.9451 14.0312 20.4168 14.0312 21C14.0312 21.5832 14.503 22.0549 15.0862 22.0549Z" fill="#DCBC5A"/>
<path d="M15.0862 36.0178H40.9449C41.5281 36.0178 41.9998 35.5461 41.9998 34.9629C41.9998 34.3797 41.5281 33.908 40.9449 33.908H15.0862C14.503 33.908 14.0312 34.3797 14.0312 34.9629C14.0312 35.5461 14.503 36.0178 15.0862 36.0178Z" fill="#DCBC5A"/>
</svg>
