<svg width="40" height="40" viewBox="0 0 40 40" fill="none" xmlns="http://www.w3.org/2000/svg">
<path d="M9.67625 5.59665H8.25469C8.46852 4.0136 9.34383 3.93407 9.74664 3.89743C10.1491 3.86079 10.4571 3.52345 10.4571 3.11938V0.781493C10.4571 0.566727 10.3687 0.361336 10.2126 0.213758C10.0565 0.0661801 9.84633 -0.0103042 9.63203 0.00149265C7.1625 0.140399 4.21875 1.38727 4.21875 6.53868V10.6043C4.21875 11.283 4.77086 11.8351 5.44953 11.8351H9.67633C10.355 11.8351 10.9071 11.2829 10.907 10.6042V6.82743C10.907 6.14876 10.3549 5.59665 9.67625 5.59665ZM9.34461 10.2725H5.78125V6.53868C5.78125 2.94415 7.37977 1.94024 8.89461 1.65688V2.47829C7.84844 2.79673 6.64437 3.7372 6.64437 6.3779C6.64437 6.80938 6.99414 7.15915 7.42562 7.15915H9.34461V10.2725Z" fill="#DCBC5A"/>
<path d="M17.6635 5.59665H16.2419C16.4557 4.0136 17.331 3.93407 17.7338 3.89743C18.1362 3.86079 18.4443 3.52345 18.4443 3.11938V0.781493C18.4443 0.566727 18.3559 0.361336 18.1998 0.213758C18.0437 0.0661801 17.8334 -0.0103042 17.6192 0.00149265C15.1497 0.140399 12.2059 1.38727 12.2059 6.53868V10.6043C12.2059 11.283 12.758 11.8351 13.4367 11.8351H17.6635C18.3422 11.8351 18.8944 11.2829 18.8943 10.6041V6.82743C18.8943 6.14876 18.3422 5.59665 17.6635 5.59665ZM17.3318 10.2726H13.7684V6.53868C13.7684 2.94415 15.3669 1.94024 16.8818 1.65688V2.47829C15.8356 2.79673 14.6316 3.7372 14.6316 6.3779C14.6316 6.80938 14.9813 7.15915 15.4128 7.15915H17.3318V10.2726Z" fill="#DCBC5A"/>
<path d="M22.2711 6.3121C22.1258 6.16678 21.9242 6.08319 21.7188 6.08319C21.5133 6.08319 21.3117 6.16678 21.1664 6.3121C21.0211 6.45741 20.9375 6.65897 20.9375 6.86444C20.9375 7.06991 21.0211 7.27147 21.1664 7.41678C21.3117 7.5621 21.5133 7.64569 21.7188 7.64569C21.9242 7.64569 22.1258 7.5621 22.2711 7.41678C22.4164 7.27147 22.5 7.06991 22.5 6.86444C22.5 6.65897 22.4164 6.45741 22.2711 6.3121Z" fill="#DCBC5A"/>
<path d="M26.1146 6.08313H25.1302C24.6987 6.08313 24.3489 6.4329 24.3489 6.86438C24.3489 7.29586 24.6987 7.64563 25.1302 7.64563H26.1146C32.9095 7.64563 38.4375 13.1737 38.4375 19.9685C38.4375 25.7679 34.3244 30.8398 28.6573 32.0283C28.2955 32.1042 28.0364 32.4233 28.0364 32.7929V37.3323L23.2244 32.5202C23.0779 32.3738 22.8791 32.2914 22.672 32.2914H13.8854C7.09055 32.2914 1.5625 26.7634 1.5625 19.9685C1.5625 17.8744 2.09711 15.8065 3.10859 13.9882C3.31844 13.6112 3.18273 13.1355 2.8057 12.9257C2.42859 12.7159 1.95289 12.8516 1.7432 13.2286C0.602734 15.2785 0 17.6091 0 19.9685C0 27.625 6.22891 33.8539 13.8854 33.8539H22.3484L28.2652 39.7708C28.4147 39.9202 28.6145 39.9996 28.8178 39.9996C28.9184 39.9996 29.02 39.9802 29.1166 39.9401C29.4085 39.8192 29.5989 39.5344 29.5989 39.2184V33.412C32.4257 32.6795 34.9817 31.0496 36.8495 28.7759C38.8811 26.3027 40 23.1749 40 19.9685C40 12.3121 33.7711 6.08321 26.1146 6.08313Z" fill="#DCBC5A"/>
<path d="M29.6144 13.8666H10.3857C9.95426 13.8666 9.60449 14.2164 9.60449 14.6479C9.60449 15.0794 9.95426 15.4291 10.3857 15.4291H29.6143C30.0458 15.4291 30.3957 15.0794 30.3957 14.6479C30.3957 14.2164 30.0459 13.8666 29.6144 13.8666Z" fill="#DCBC5A"/>
<path d="M29.6144 18.0333H10.3857C9.95426 18.0333 9.60449 18.383 9.60449 18.8145C9.60449 19.246 9.95426 19.5958 10.3857 19.5958H29.6143C30.0458 19.5958 30.3957 19.246 30.3957 18.8145C30.3957 18.383 30.0459 18.0333 29.6144 18.0333Z" fill="#DCBC5A"/>
<path d="M29.6144 22.1999H10.3857C9.95426 22.1999 9.60449 22.5497 9.60449 22.9811C9.60449 23.4125 9.95426 23.7624 10.3857 23.7624H29.6143C30.0458 23.7624 30.3957 23.4125 30.3957 22.9811C30.3957 22.5497 30.0459 22.1999 29.6144 22.1999Z" fill="#DCBC5A"/>
<path d="M29.6142 26.3666H19.3649C18.9334 26.3666 18.5836 26.7165 18.5836 27.1479C18.5836 27.5793 18.9334 27.9291 19.3649 27.9291H29.6142C30.0457 27.9291 30.3955 27.5793 30.3955 27.1479C30.3955 26.7165 30.0457 26.3666 29.6142 26.3666Z" fill="#DCBC5A"/>
<path d="M14.9692 26.3665H14.9567C14.5252 26.3665 14.1754 26.7164 14.1754 27.1478C14.1754 27.5792 14.5252 27.929 14.9567 27.929H14.9692C15.4007 27.929 15.7505 27.5792 15.7505 27.1478C15.7505 26.7164 15.4007 26.3665 14.9692 26.3665Z" fill="#DCBC5A"/>
</svg>
