<svg width="40" height="40" viewBox="0 0 40 40" fill="none" xmlns="http://www.w3.org/2000/svg">
<path d="M37.866 9.12576H32.3174C33.2233 8.14372 33.7779 6.83294 33.7779 5.39473C33.7779 5.39473 33.7768 5.1752 33.7747 5.11254C33.7148 3.3377 32.7469 1.75488 31.1857 0.878161C29.5929 -0.01606 27.6955 -0.0158256 26.1101 0.87902L23.5867 2.30316C22.0063 3.19512 20.7695 4.5395 20 6.12028C19.2306 4.5395 17.9938 3.19512 16.4135 2.30324L13.89 0.878942C12.3046 -0.0158256 10.4072 -0.0161381 8.81447 0.878082C7.2533 1.75472 6.2854 3.33762 6.22548 5.11247C6.22337 5.17512 6.22228 5.39465 6.22228 5.39465C6.22228 6.83286 6.77689 8.14364 7.68275 9.12576H2.13407C0.957346 9.12576 0 10.0832 0 11.2599V16.3251C0 17.5018 0.957346 18.4591 2.13407 18.4591H3.1111V37.6585C3.1111 38.8352 4.06845 39.7925 5.24517 39.7925H34.7548C35.9316 39.7925 36.8889 38.8352 36.8889 37.6585V18.4591H37.8659C39.0427 18.4591 40 17.5017 40 16.325V11.2598C40.0001 10.0832 39.0427 9.12576 37.866 9.12576ZM24.4604 3.85137L26.9839 2.42723C28.0237 1.84035 29.269 1.84082 30.3153 2.42832C31.3301 2.99809 31.9591 4.02395 31.9979 5.17262C31.9993 5.21528 32 5.39473 32 5.39473C32 7.45208 30.3262 9.12583 28.2689 9.12583H20.9397C21.2062 6.92677 22.5043 4.95528 24.4604 3.85137ZM8.00213 5.17254C8.04095 4.02395 8.66994 2.99809 9.68471 2.42824C10.2083 2.13426 10.7814 1.98738 11.3539 1.98738C11.9256 1.98738 12.4966 2.13394 13.016 2.42723L15.5395 3.85137C17.4956 4.95528 18.7937 6.92677 19.0601 9.12568H11.731C9.67369 9.12568 7.99994 7.45192 7.99994 5.39465C8.00002 5.39473 8.00072 5.2152 8.00213 5.17254ZM16.0001 21.1632H12.3406C11.8496 21.1632 11.4517 21.5612 11.4517 22.0521C11.4517 22.543 11.8496 22.941 12.3406 22.941H16.0001V38.0147H5.24517C5.04868 38.0147 4.88892 37.855 4.88892 37.6585V18.4591H16.0001V21.1632ZM16.0001 16.6814H2.13407C1.93758 16.6813 1.77782 16.5216 1.77782 16.3251V11.26C1.77782 11.0634 1.93766 10.9036 2.13407 10.9036H16.0001V16.6814ZM22.2221 38.0146H17.7779V10.9035H22.2221V38.0146ZM35.1112 37.6585C35.1112 37.855 34.9513 38.0147 34.7549 38.0147H23.9999V22.9409H27.387C27.8779 22.9409 28.2759 22.5429 28.2759 22.052C28.2759 21.5612 27.8779 21.1631 27.387 21.1631H23.9999V18.4591H35.1112V37.6585H35.1112ZM38.2223 16.3251C38.2223 16.5216 38.0624 16.6814 37.866 16.6814H23.9999V10.9036H37.8661C38.0625 10.9036 38.2223 11.0634 38.2223 11.2599V16.3251H38.2223Z" fill="#DCBC5A"/>
<path d="M31.6096 22.9409H31.6985C32.1895 22.9409 32.5874 22.5429 32.5874 22.052C32.5874 21.5611 32.1895 21.1631 31.6985 21.1631H31.6096C31.1187 21.1631 30.7207 21.5611 30.7207 22.052C30.7208 22.5429 31.1187 22.9409 31.6096 22.9409Z" fill="#DCBC5A"/>
<path d="M8.02953 22.9409H8.11844C8.60938 22.9409 9.00735 22.5429 9.00735 22.052C9.00735 21.5611 8.6093 21.1631 8.11844 21.1631H8.02953C7.53859 21.1631 7.14062 21.5611 7.14062 22.052C7.14062 22.5429 7.53859 22.9409 8.02953 22.9409Z" fill="#DCBC5A"/>
</svg>
