<svg width="107" height="32" viewBox="0 0 107 32" fill="none" xmlns="http://www.w3.org/2000/svg">
<path d="M5.516 20.168C4.15333 20.168 3.01 19.72 2.086 18.824C1.17133 17.9187 0.714 16.7567 0.714 15.338C0.714 13.9193 1.17133 12.762 2.086 11.866C3.01 10.9607 4.15333 10.508 5.516 10.508C7.00933 10.508 8.19 11.124 9.058 12.356L8.078 12.902C7.80733 12.5007 7.44333 12.174 6.986 11.922C6.52867 11.67 6.03867 11.544 5.516 11.544C4.48933 11.544 3.63067 11.9033 2.94 12.622C2.25867 13.3313 1.918 14.2367 1.918 15.338C1.918 16.4393 2.25867 17.3493 2.94 18.068C3.63067 18.7773 4.48933 19.132 5.516 19.132C6.03867 19.132 6.52867 19.0107 6.986 18.768C7.44333 18.516 7.80733 18.1847 8.078 17.774L9.072 18.32C8.16667 19.552 6.98133 20.168 5.516 20.168ZM9.67192 21.722V19.132C10.0173 19.0667 10.2879 18.8613 10.4839 18.516C10.6799 18.1613 10.8386 17.5127 10.9599 16.57L11.3939 13.238H16.0979V19.076H16.8819V21.722H15.8319V20H10.7219V21.722H9.67192ZM12.3179 14.162L12.0099 16.696C11.8513 17.8813 11.5246 18.6747 11.0299 19.076H15.0479V14.162H12.3179ZM21.3696 20.168C20.3616 20.168 19.5356 19.8413 18.8916 19.188C18.2476 18.5253 17.9256 17.6667 17.9256 16.612C17.9256 15.6227 18.2429 14.7873 18.8776 14.106C19.5122 13.4153 20.3056 13.07 21.2576 13.07C22.2562 13.07 23.0449 13.4153 23.6236 14.106C24.2116 14.7873 24.5056 15.6507 24.5056 16.696V16.962H19.0316C19.0782 17.6247 19.3209 18.18 19.7596 18.628C20.1982 19.076 20.7676 19.3 21.4676 19.3C22.3076 19.3 23.0029 19.0153 23.5536 18.446L24.0576 19.132C23.3669 19.8227 22.4709 20.168 21.3696 20.168ZM23.4696 16.192C23.4602 15.6133 23.2642 15.0953 22.8816 14.638C22.4989 14.1713 21.9529 13.938 21.2436 13.938C20.5716 13.938 20.0396 14.1667 19.6476 14.624C19.2649 15.0813 19.0596 15.604 19.0316 16.192H23.4696ZM25.4083 20.168V19.3C25.7256 19.3 25.9869 19.09 26.1923 18.67C26.3976 18.25 26.5656 17.55 26.6963 16.57L27.1303 13.238H31.8343V20H30.7843V14.162H28.0543L27.7463 16.696C27.5969 17.9373 27.3356 18.8287 26.9623 19.37C26.5889 19.902 26.0709 20.168 25.4083 20.168ZM39.2089 20H38.1589V19.23C37.5895 19.8553 36.8429 20.168 35.9189 20.168C35.2935 20.168 34.7429 19.9673 34.2669 19.566C33.7909 19.1647 33.5529 18.6187 33.5529 17.928C33.5529 17.2187 33.7862 16.6727 34.2529 16.29C34.7289 15.898 35.2842 15.702 35.9189 15.702C36.8802 15.702 37.6269 16.01 38.1589 16.626V15.408C38.1589 14.96 38.0002 14.61 37.6829 14.358C37.3655 14.106 36.9549 13.98 36.4509 13.98C35.6575 13.98 34.9669 14.2927 34.3789 14.918L33.8889 14.19C34.6075 13.4433 35.5082 13.07 36.5909 13.07C37.3655 13.07 37.9955 13.2567 38.4809 13.63C38.9662 14.0033 39.2089 14.5773 39.2089 15.352V20ZM36.2969 19.412C37.1369 19.412 37.7575 19.132 38.1589 18.572V17.298C37.7575 16.738 37.1369 16.458 36.2969 16.458C35.8115 16.458 35.4102 16.598 35.0929 16.878C34.7849 17.1487 34.6309 17.5033 34.6309 17.942C34.6309 18.3713 34.7849 18.726 35.0929 19.006C35.4102 19.2767 35.8115 19.412 36.2969 19.412ZM42.3637 20H41.3137V13.238H42.3637V16.052H45.8917V13.238H46.9417V20H45.8917V16.976H42.3637V20ZM54.4143 19.146C53.8076 19.8273 53.0003 20.168 51.9923 20.168C50.9843 20.168 50.1723 19.8273 49.5563 19.146C48.9496 18.4647 48.6463 17.62 48.6463 16.612C48.6463 15.604 48.9496 14.764 49.5563 14.092C50.1723 13.4107 50.9843 13.07 51.9923 13.07C53.0003 13.07 53.8076 13.4107 54.4143 14.092C55.0303 14.764 55.3383 15.604 55.3383 16.612C55.3383 17.62 55.0303 18.4647 54.4143 19.146ZM50.3403 18.474C50.7509 18.978 51.3016 19.23 51.9923 19.23C52.6829 19.23 53.2289 18.978 53.6303 18.474C54.0316 17.9607 54.2323 17.34 54.2323 16.612C54.2323 15.884 54.0316 15.268 53.6303 14.764C53.2289 14.26 52.6829 14.008 51.9923 14.008C51.3016 14.008 50.7509 14.2647 50.3403 14.778C49.9389 15.282 49.7383 15.8933 49.7383 16.612C49.7383 17.34 49.9389 17.9607 50.3403 18.474ZM64.4534 20H60.6594V13.238H64.3834C64.9714 13.238 65.4334 13.3967 65.7694 13.714C66.1147 14.0313 66.2874 14.4513 66.2874 14.974C66.2874 15.3567 66.18 15.688 65.9654 15.968C65.76 16.2387 65.5034 16.4207 65.1954 16.514C65.5407 16.598 65.83 16.7987 66.0634 17.116C66.306 17.4333 66.4274 17.7833 66.4274 18.166C66.4274 18.7167 66.25 19.16 65.8954 19.496C65.55 19.832 65.0694 20 64.4534 20ZM64.2434 19.076C64.5794 19.076 64.8454 18.9827 65.0414 18.796C65.2374 18.6093 65.3354 18.3573 65.3354 18.04C65.3354 17.7507 65.2374 17.5033 65.0414 17.298C64.8454 17.0927 64.5794 16.99 64.2434 16.99H61.7094V19.076H64.2434ZM64.2014 16.066C64.5187 16.066 64.766 15.982 64.9434 15.814C65.1207 15.6367 65.2094 15.408 65.2094 15.128C65.2094 14.8293 65.1207 14.596 64.9434 14.428C64.766 14.2507 64.5187 14.162 64.2014 14.162H61.7094V16.066H64.2014Z" fill="black"/>
<path d="M90.9058 32C99.6903 32 106.812 24.8366 106.812 16C106.812 7.16344 99.6903 0 90.9058 0C82.1213 0 75 7.16344 75 16C75 24.8366 82.1213 32 90.9058 32Z" fill="#FF0000"/>
<path d="M103.059 11.1956V21.0187H102.078V18.7881C101.268 20.2466 99.7756 21.2332 97.8993 21.2332C95.1275 21.2332 92.8674 19.0026 92.8674 16.1286C92.8674 13.2117 95.1275 11.024 97.8993 11.024C99.7756 11.024 101.268 11.9677 102.078 13.4691V11.2385H103.059V11.1956ZM102.078 16.1286C102.078 13.8123 100.287 11.9677 97.9846 11.9677C95.6819 11.9677 93.8482 13.8123 93.8482 16.1286C93.8482 18.445 95.6392 20.2895 97.9846 20.2895C100.33 20.2895 102.078 18.445 102.078 16.1286Z" fill="white"/>
<path d="M97.8991 21.6622C94.8289 21.6622 92.4409 19.2171 92.4409 16.1287C92.4409 13.0402 94.8289 10.5522 97.8991 10.5522C99.3917 10.5522 100.714 11.1099 101.652 12.0965V10.7667H103.485V21.4477H101.652V20.1179C100.714 21.1045 99.3917 21.6622 97.8991 21.6622ZM97.8991 11.4102C95.2979 11.4102 93.2937 13.4691 93.2937 16.0858C93.2937 18.7024 95.3406 20.7614 97.8991 20.7614C99.0079 20.7614 99.9887 20.4182 100.756 19.7319C99.9887 20.3324 99.0505 20.6756 97.9844 20.6756C95.4259 20.6756 93.4216 18.6595 93.4216 16.0858C93.4216 13.512 95.4259 11.4959 97.9844 11.4959C99.0505 11.4959 99.9887 11.8391 100.756 12.4396C99.9887 11.7962 99.0079 11.4102 97.8991 11.4102ZM102.505 20.5898H102.633V11.6246H102.505V15.0563L102.291 14.6702C102.419 15.0992 102.505 15.6139 102.505 16.0858C102.505 16.6005 102.419 17.0724 102.291 17.5013L102.505 17.1581V20.5898ZM97.9844 12.3539C95.8949 12.3539 94.2745 13.9839 94.2745 16.0858C94.2745 18.1876 95.8949 19.8177 97.9844 19.8177C100.031 19.8177 101.652 18.1876 101.652 16.0858C101.652 14.0268 100.031 12.3539 97.9844 12.3539Z" fill="white"/>
<path d="M89.4565 16.3003C89.4565 16.4719 89.4565 16.6006 89.4565 16.7721H80.5868C80.8 19.0027 82.5057 20.4612 84.7231 20.4612C86.3009 20.4612 87.5375 19.7319 88.0919 18.6595L88.9448 19.1743C88.1345 20.5041 86.642 21.4049 84.6805 21.4049C81.6955 21.4049 79.5633 19.2601 79.5633 16.3003C79.5633 13.4263 81.6102 11.1957 84.5952 11.1957C87.5802 11.1528 89.4565 13.6408 89.4565 16.3003ZM80.5868 15.8284H88.433C88.2198 13.4263 86.5568 12.0965 84.6378 12.0965C82.4204 12.0965 80.8 13.6408 80.5868 15.8284Z" fill="white"/>
<path d="M84.7227 21.8338C81.5244 21.8338 79.1791 19.5174 79.1791 16.3003C79.1791 13.0831 81.4392 10.7239 84.6374 10.7239C88.0488 10.7239 89.8824 13.5979 89.8824 16.3003C89.8824 16.3861 89.8824 16.4719 89.8824 16.5577C89.8824 16.6434 89.8824 16.6863 89.8824 16.7721V17.2011H81.098C81.4818 18.9169 82.889 20.0322 84.7227 20.0322C86.0872 20.0322 87.1959 19.4317 87.7077 18.488L87.9209 18.1019L89.5413 19.0456L89.3281 19.4317C88.3899 20.933 86.6842 21.8338 84.7227 21.8338ZM84.6374 11.5818C81.9509 11.5818 80.0319 13.555 80.0319 16.2574C80.0319 19.0027 81.9509 20.933 84.7227 20.933C86.2578 20.933 87.5797 20.3325 88.3473 19.303L88.2194 19.2172C87.4944 20.2467 86.2152 20.8472 84.7227 20.8472C82.2494 20.8472 80.4157 19.2172 80.1599 16.815L80.1172 16.3432H89.0296V16.3003C89.0296 14.0268 87.4944 11.5818 84.6374 11.5818ZM88.9017 16.2574H80.1172L80.1599 15.7855C80.3731 13.3405 82.2067 11.6676 84.6374 11.6676C86.9401 11.6676 88.6458 13.3405 88.859 15.7855L88.9017 16.2574ZM81.098 15.3995H87.9635C87.5797 13.4263 86.0872 12.5255 84.6374 12.5255C82.8037 12.5255 81.4392 13.6408 81.098 15.3995Z" fill="white"/>
</svg>
