<svg width="17" height="17" viewBox="0 0 17 17" fill="none" xmlns="http://www.w3.org/2000/svg">
<path d="M12.3084 0H4.69126C2.1045 0 0 2.1046 0 4.69136V12.3085C0 14.8954 2.1045 16.9999 4.69126 16.9999H12.3084C14.8954 16.9999 16.9999 14.8953 16.9999 12.3085V4.69136C17 2.1046 14.8954 0 12.3084 0ZM15.4917 12.3085C15.4917 14.0637 14.0637 15.4916 12.3085 15.4916H4.69126C2.93618 15.4917 1.50831 14.0637 1.50831 12.3085V4.69136C1.50831 2.93628 2.93618 1.50831 4.69126 1.50831H12.3084C14.0636 1.50831 15.4916 2.93628 15.4916 4.69136V12.3085H15.4917Z" fill="#484848"/>
<path d="M8.49959 4.11975C6.08417 4.11975 4.11914 6.08478 4.11914 8.5002C4.11914 10.9155 6.08417 12.8804 8.49959 12.8804C10.915 12.8804 12.88 10.9155 12.88 8.5002C12.88 6.08478 10.915 4.11975 8.49959 4.11975ZM8.49959 11.372C6.91596 11.372 5.62745 10.0837 5.62745 8.50009C5.62745 6.91637 6.91586 5.62796 8.49959 5.62796C10.0833 5.62796 11.3717 6.91637 11.3717 8.50009C11.3717 10.0837 10.0832 11.372 8.49959 11.372Z" fill="#484848"/>
<path d="M13.0651 2.8407C12.7745 2.8407 12.489 2.95835 12.2838 3.16448C12.0775 3.36961 11.959 3.65519 11.959 3.94679C11.959 4.2375 12.0776 4.52297 12.2838 4.72911C12.4889 4.93424 12.7745 5.05289 13.0651 5.05289C13.3567 5.05289 13.6412 4.93424 13.8474 4.72911C14.0535 4.52297 14.1712 4.2374 14.1712 3.94679C14.1712 3.65519 14.0535 3.36961 13.8474 3.16448C13.6423 2.95835 13.3567 2.8407 13.0651 2.8407Z" fill="#484848"/>
</svg>
