<svg width="49" height="39" viewBox="0 0 49 39" fill="none" xmlns="http://www.w3.org/2000/svg">
<path d="M21.8417 29.965C21.8417 27.56 21.1917 25.48 19.8592 23.79C17.8442 21.255 13.9117 20.93 11.6367 21.45C10.6942 16.0875 15.2442 9.2625 21.1267 6.3375L16.6092 0C7.73669 4.225 -1.00581 13.91 0.489191 26.1625C1.43169 33.8975 5.91669 39 12.2542 39C15.0167 39 17.3242 38.1875 19.1442 36.5625C20.9642 34.9375 21.8417 32.7275 21.8417 29.965ZM48.0042 29.965C48.0042 27.56 47.3542 25.48 46.0217 23.79C43.9742 21.255 40.0742 20.93 37.7992 21.45C36.8567 16.0875 41.4067 9.2625 47.2892 6.3375L42.7717 0C33.8992 4.225 25.1892 13.91 26.6842 26.1625C27.6267 33.8975 32.0792 39 38.4167 39C41.1792 39 43.4867 38.1875 45.3067 36.5625C47.1267 34.9375 48.0042 32.7275 48.0042 29.965Z" fill="#FFE5D0"/>
</svg>
