<svg width="329" height="468" viewBox="0 0 329 468" fill="none" xmlns="http://www.w3.org/2000/svg">
<path d="M166 221.867C198.939 221.867 225.733 195.063 225.733 162.133C225.733 129.203 198.939 102.4 166 102.4C133.061 102.4 106.267 129.203 106.267 162.133C106.267 195.063 133.061 221.867 166 221.867ZM166 119.467C189.526 119.467 208.667 138.607 208.667 162.133C208.667 185.66 189.526 204.8 166 204.8C142.474 204.8 123.333 185.66 123.333 162.133C123.333 138.607 142.474 119.467 166 119.467Z" fill="#BDC9DA"/>
<path d="M164.49 467.26L295.4 278.187C344.5 212.727 337.401 105.131 280.202 47.9403C249.294 17.024 208.198 0 164.49 0C120.782 0 79.6855 17.024 48.7778 47.9317C-8.42117 105.122 -15.5209 212.719 33.3836 277.922L164.49 467.26ZM60.8439 59.9979C88.5346 32.3157 125.339 17.0667 164.49 17.0667C203.641 17.0667 240.445 32.3157 268.136 59.9979C319.762 111.616 326.12 208.794 281.559 268.203L164.49 437.274L47.2332 267.947C2.8599 208.794 9.22576 111.616 60.8439 59.9979Z" fill="#BDC9DA"/>
</svg>