<svg width="40" height="40" viewBox="0 0 40 40" fill="none" xmlns="http://www.w3.org/2000/svg">
	<g clip-path="url(#clip0)">
	<path d="M35 40L5 40C2.23858 40 1.95703e-07 37.7614 4.37114e-07 35L3.0598e-06 5C3.30121e-06 2.23857 2.23858 1.95703e-07 5 4.37114e-07L35 3.0598e-06C37.7614 3.30121e-06 40 2.23858 40 5L40 35C40 37.7614 37.7614 40 35 40Z" fill="#F5F5F5"/>
	<path fill-rule="evenodd" clip-rule="evenodd" d="M23.8098 15.6191L19.4288 20L23.8098 24.381L22.4765 25.7143L16.7622 20L22.4765 14.2857L23.8098 15.6191Z" fill="#2F2F2F"/>
	</g>
	<defs>
	<clipPath id="clip0">
	<rect width="40" height="40" fill="white"/>
	</clipPath>
	</defs>
</svg>