<svg width="134" height="38" viewBox="0 0 134 38" fill="none" xmlns="http://www.w3.org/2000/svg">
<path d="M20.8056 16.0567C21.0959 16.0567 21.3862 16.0567 21.6764 15.9982C22.315 14.8271 23.9986 14.9442 24.9274 14.2415C29.5717 10.7868 29.5717 5.51694 30.4425 0.832581C24.8694 3.35042 19.1221 4.58006 18.7738 10.8454C17.4966 8.09333 16.0453 5.45838 15.4067 4.75573C13.6071 4.87284 12.446 5.86826 12.446 5.86826C15.2906 8.79598 17.5547 12.7191 18.4835 15.8811C19.1221 15.9982 19.8768 16.0567 20.8056 16.0567Z" fill="white"/>
<path d="M40.1374 19.8042C38.0474 15.4712 32.5905 12.7777 27.1915 13.3047C25.2177 13.4804 23.8244 14.4758 20.9798 14.4758C18.1352 14.4758 16.742 13.4804 14.7681 13.3047C9.48532 12.7192 4.02832 15.3541 1.93841 19.57C-0.151499 23.6688 -0.441764 28.1775 0.893457 32.3934C1.53204 34.4429 2.51894 36.258 3.68001 37.8976H6.52461V28.7631H22.0248V37.8976H24.405V28.7631H34.3901V37.8976H38.2797C39.9051 35.6139 41.1243 32.9204 41.6467 29.8756C42.2273 26.4794 41.7048 23.0247 40.1374 19.8042ZM6.58266 26.5966L2.51894 20.624H18.0191L22.0828 26.5966H6.58266ZM34.5062 26.5966H24.463L28.5267 20.624H38.5699L34.5062 26.5966Z" fill="white"/>
<path d="M59.8174 23.7859H61.617V32.8619H63.8811V23.7859H65.7388V21.678H59.8174V23.7859ZM52.5607 27.0064C53.1993 26.7722 53.4896 26.3038 53.5477 26.2452C53.7799 25.8353 53.954 25.1912 53.954 24.5471C53.954 23.7274 53.7218 22.9662 53.2574 22.4392C52.5027 21.6194 51.4577 21.678 50.5289 21.678H47.5101V32.8033H50.9353C51.9222 32.8033 53.0252 32.7448 53.7799 31.6908C54.1862 31.1052 54.3023 30.4611 54.3023 29.817C54.3023 29.1729 54.1282 28.3532 53.7799 27.8262C53.4896 27.4749 53.0832 27.1821 52.5607 27.0064ZM49.6581 23.4932H50.4708C50.7031 23.4932 51.1094 23.5517 51.3416 23.7859C51.5738 24.0201 51.69 24.4886 51.69 24.8399C51.69 25.1327 51.6319 25.5426 51.4577 25.8353C51.2836 26.0696 50.9353 26.1867 50.4708 26.1867H49.6581V23.4932ZM51.6319 30.5782C51.3416 30.9296 50.9353 30.9296 50.5289 30.9296H49.6581V27.9433H50.4708C50.7611 27.9433 51.1675 27.8847 51.4577 28.1775C51.748 28.4117 51.9222 28.8216 51.9222 29.4657C51.9222 29.817 51.8641 30.344 51.6319 30.5782ZM55.9859 32.8619H58.25V21.7365H55.9859V32.8619ZM85.651 32.8619H87.9151V21.7365H85.651V32.8619ZM110.382 21.5023C109.627 21.5023 108.582 21.678 107.827 22.8491C107.479 23.4346 106.898 24.5471 106.898 27.2406C106.898 29.9341 107.421 31.0467 107.827 31.6322C108.64 32.8033 109.627 32.979 110.382 32.979C111.136 32.979 112.181 32.8033 112.936 31.6322C113.284 31.0467 113.865 29.9341 113.865 27.2406C113.865 24.5471 113.342 23.4346 112.936 22.8491C112.123 21.678 111.136 21.5023 110.382 21.5023ZM111.078 30.6368C110.962 30.8125 110.73 31.0467 110.382 31.0467C110.033 31.0467 109.801 30.8125 109.685 30.6368C109.453 30.2269 109.337 29.4657 109.337 27.2992C109.337 25.1327 109.453 24.3129 109.685 23.9616C109.801 23.7859 110.033 23.5517 110.382 23.5517C110.73 23.5517 110.962 23.7859 111.078 23.9616C111.31 24.3715 111.427 25.1327 111.427 27.2992C111.427 29.4657 111.31 30.2269 111.078 30.6368ZM104.925 29.4657C104.867 28.8216 104.809 28.2361 104.576 27.8262C104.286 27.2992 103.822 27.0064 103.299 26.9479V26.8893C103.647 26.8308 103.938 26.6551 104.112 26.4794C104.402 26.1281 104.518 25.7768 104.576 25.484C104.692 24.8399 104.75 24.6057 104.75 24.1958C104.809 23.5517 105.099 23.4932 105.273 23.4932H105.389V21.7365C105.157 21.678 105.041 21.6194 104.75 21.6194C104.344 21.6194 103.88 21.678 103.473 21.9122C103.183 22.0878 102.951 22.4392 102.835 22.7905C102.719 23.1418 102.661 23.5517 102.603 24.3129C102.544 25.0156 102.544 25.1912 102.486 25.4255C102.428 25.6597 102.312 26.1281 101.558 26.1281H100.861V21.7365H98.5968V32.8619H100.861V27.9433H101.558C101.79 27.9433 102.196 27.9433 102.428 28.2946C102.661 28.5288 102.719 28.9973 102.777 29.5243C102.893 30.871 102.951 31.5737 103.183 32.1007C103.589 32.8619 104.344 32.979 104.983 32.979C105.215 32.979 105.389 32.979 105.621 32.8619V30.9296C105.389 30.9881 105.273 30.9296 105.157 30.7539C105.041 30.5782 105.041 30.344 104.925 29.4657ZM79.4393 26.1281C79.2652 26.9479 79.091 27.8847 78.9749 29.5828C78.9169 28.8802 78.8007 27.1821 78.6266 26.4209L77.7558 21.7365H74.6209V32.8619H76.4206V26.2452C76.4206 25.5426 76.3625 23.903 76.3625 23.1418C76.5947 25.0156 76.7108 25.7182 76.8269 26.3038L78.1041 32.8619H79.5554L80.8906 26.4209C80.9487 26.011 81.239 24.1373 81.3551 23.1418C81.297 25.6597 81.239 24.7228 81.239 26.538V32.8619H83.3869V21.7365H80.3682L79.4393 26.1281ZM94.0687 26.0696H92.3852V21.678H90.1211V32.8033H92.3852V28.0018H94.0687V32.8033H96.3328V21.678H94.0687V26.0696ZM68.3512 21.678L65.8549 32.8033H67.8868L68.3512 30.4026H70.5572L71.0216 32.8033H73.2857L70.7894 21.678H68.3512ZM68.5254 28.5874L69.1059 25.5426C69.28 24.5471 69.3381 23.9616 69.3381 23.7859C69.3381 24.1958 69.3961 24.7814 69.5703 25.6597L70.2089 28.6459H68.5254V28.5874ZM133.777 19.57C130.642 22.1464 125.069 20.3312 123.502 23.2004C122.805 22.1464 121.702 21.678 120.483 21.6194H118.335C116.942 21.6194 115.664 22.2635 115.084 23.6103C114.678 24.4886 114.619 25.484 114.619 26.011C114.619 27.065 114.794 27.8847 115.316 28.7631C115.664 29.4072 116.535 30.4611 118.335 30.4611V32.7448H120.483V30.5782C122.283 30.6368 123.095 29.5243 123.502 28.9387C123.85 29.5828 124.721 30.6368 126.52 30.5782V32.7448H128.668V30.5782C130.468 30.6368 131.339 29.5243 131.687 28.8802C132.21 28.0018 132.384 27.1235 132.384 26.1281C132.384 25.5426 132.326 24.5471 131.919 23.7274C131.861 23.6688 131.861 23.6103 131.803 23.5517C133.661 22.4392 133.951 20.2141 133.777 19.57ZM118.393 28.8216C118.103 28.8216 117.522 28.7631 117.174 28.0604C116.942 27.592 116.884 26.6551 116.884 26.1867C116.884 24.7814 117.232 24.1958 117.29 24.1373C117.464 23.8445 117.812 23.5517 118.393 23.4932V28.8216ZM121.644 27.9433C121.296 28.6459 120.715 28.7045 120.425 28.7045V23.376C120.657 23.376 121.179 23.4346 121.528 24.0201C121.818 24.4886 121.934 25.3669 121.934 26.011C121.934 26.5965 121.876 27.5334 121.644 27.9433ZM126.578 28.8216C126.288 28.8216 125.708 28.7631 125.359 28.0604C125.127 27.592 125.069 26.6551 125.069 26.1867C125.069 24.7814 125.417 24.1958 125.475 24.1373C125.65 23.8445 125.998 23.5517 126.578 23.4932V28.8216ZM129.771 27.9433C129.423 28.6459 128.843 28.7045 128.552 28.7045V23.376C128.784 23.376 129.307 23.4346 129.655 24.0201C129.946 24.4886 130.062 25.3669 130.062 26.011C130.062 26.5965 130.004 27.5334 129.771 27.9433Z" fill="white"/>
</svg>
