<svg width="16" height="16" viewBox="0 0 16 16" fill="none" xmlns="http://www.w3.org/2000/svg">
<path d="M9.33333 7.66671C9.5522 7.66671 9.76893 7.6236 9.97114 7.53984C10.1733 7.45608 10.3571 7.33332 10.5118 7.17855C10.6666 7.02379 10.7894 6.84006 10.8731 6.63785C10.9569 6.43564 11 6.21891 11 6.00004C11 5.55801 10.8244 5.13409 10.5118 4.82153C10.1993 4.50897 9.77536 4.33337 9.33333 4.33337C8.89131 4.33337 8.46738 4.50897 8.15482 4.82153C7.84226 5.13409 7.66667 5.55801 7.66667 6.00004C7.66667 6.21891 7.70978 6.43564 7.79353 6.63785C7.87729 6.84006 8.00006 7.02379 8.15482 7.17855C8.46738 7.49111 8.89131 7.66671 9.33333 7.66671ZM9.33333 1.33337C11.9067 1.33337 14 3.42004 14 6.00004C14 9.50004 9.33333 14.6667 9.33333 14.6667C9.33333 14.6667 4.66667 9.50004 4.66667 6.00004C4.66667 4.76236 5.15833 3.57538 6.0335 2.70021C6.90867 1.82504 8.09566 1.33337 9.33333 1.33337ZM3.33333 6.00004C3.33333 9.00004 6.72 13.1067 7.33333 13.8734L6.66667 14.6667C6.66667 14.6667 2 9.50004 2 6.00004C2 3.88671 3.40667 2.10004 5.33333 1.52671C4.10667 2.62671 3.33333 4.22004 3.33333 6.00004Z" fill="#929292"/>
</svg>
