<svg width="1353" height="149" viewBox="0 0 1353 149" fill="none" xmlns="http://www.w3.org/2000/svg">
<path d="M239.312 6.36655V103.568H229.483V81.4963C221.364 95.9281 206.407 105.691 187.605 105.691C159.828 105.691 137.18 83.6186 137.18 55.1797C137.18 26.3163 159.828 4.6687 187.605 4.6687C206.407 4.6687 221.364 14.0069 229.483 28.863V6.79101H239.312V6.36655ZM229.483 55.1797C229.483 32.2587 211.535 14.0069 188.459 14.0069C165.383 14.0069 147.008 32.2587 147.008 55.1797C147.008 78.1006 164.956 96.3525 188.459 96.3525C211.962 96.3525 229.483 78.1006 229.483 55.1797Z" fill="#F2F2F2"/>
<path d="M187.604 109.936C156.837 109.936 132.906 85.7413 132.906 55.1801C132.906 24.6188 156.837 0 187.604 0C202.561 0 215.808 5.51801 225.21 15.2806V2.12231H243.585V107.813H225.21V94.6551C215.808 104.418 202.561 109.936 187.604 109.936ZM187.604 8.48924C161.537 8.48924 141.453 28.8634 141.453 54.7556C141.453 80.6478 161.965 101.022 187.604 101.022C198.715 101.022 208.544 97.6263 216.236 90.8349C208.544 96.7774 199.142 100.173 188.459 100.173C162.819 100.173 142.735 80.2233 142.735 54.7556C142.735 29.2879 162.819 9.33816 188.459 9.33816C199.142 9.33816 208.544 12.7339 216.236 18.6763C208.544 12.3094 198.715 8.48924 187.604 8.48924ZM233.756 99.3241H235.038V10.6116H233.756V44.5685L231.619 40.7484C232.901 44.993 233.756 50.0865 233.756 54.7556C233.756 59.8492 232.901 64.5182 231.619 68.7629L233.756 65.3672V99.3241ZM188.459 17.8274C167.52 17.8274 151.281 33.957 151.281 54.7556C151.281 75.5543 167.52 91.6838 188.459 91.6838C208.971 91.6838 225.21 75.5543 225.21 54.7556C225.21 34.3814 208.971 17.8274 188.459 17.8274Z" fill="#F2F2F2"/>
<path d="M370.848 78.101C370.848 93.8061 356.746 105.691 335.807 105.691C316.149 105.691 303.33 96.7774 298.629 84.0435L307.176 79.3744C310.594 89.986 321.277 96.3529 335.807 96.3529C349.481 96.3529 361.019 90.4104 361.019 78.101C361.019 51.7844 302.048 66.6406 302.048 31.8347C302.048 16.554 315.295 4.24463 335.379 4.24463C351.191 4.24463 363.156 11.8849 368.711 23.7699L360.592 28.439C356.318 18.2519 346.49 13.5828 335.807 13.5828C322.987 13.5828 312.303 20.3742 312.303 31.8347C311.876 58.1513 370.848 42.4462 370.848 78.101Z" fill="#F2F2F2"/>
<path d="M335.806 109.936C315.721 109.936 300.337 101.022 294.782 85.7413L293.5 82.3457L309.739 73.0075L311.448 78.101C314.439 87.0147 323.84 92.1083 336.233 92.1083C346.489 92.1083 357.172 88.2881 357.172 78.101C357.172 69.6118 348.198 66.6406 334.096 63.2449C318.285 59.0002 298.201 53.9067 298.201 31.8347C298.201 13.5828 314.012 0 335.806 0C352.899 0 366.573 8.06478 372.983 22.072L374.693 25.4677L358.881 34.3814L357.172 29.7123C354.181 22.072 346.062 17.8274 336.233 17.8274C326.832 17.8274 317.003 22.072 317.003 31.8347C317.003 40.3239 325.55 42.8707 340.079 46.2664C356.318 50.511 376.402 55.6045 376.402 78.101C375.12 96.7774 358.881 109.936 335.806 109.936ZM304.183 85.7413C309.739 95.504 321.276 101.446 335.806 101.446C353.754 101.446 366.573 91.6838 366.573 78.101C366.573 63.2449 354.608 59.4247 336.66 54.7556C322.986 51.3599 307.175 47.1153 307.175 31.8347C307.175 18.6763 318.712 9.33816 334.951 9.33816C346.916 9.33816 356.317 14.0073 361.873 22.4965L362.727 22.072C357.172 13.5828 347.344 8.48924 335.378 8.48924C318.712 8.48924 306.32 18.2519 306.32 31.8347C306.32 46.2664 317.858 50.0865 335.806 54.7556C349.908 58.1513 365.291 62.3959 365.291 78.101C365.291 91.6838 353.326 100.598 335.806 100.598C321.704 100.598 310.593 95.0795 305.038 85.3169L304.183 85.7413Z" fill="#F2F2F2"/>
<path d="M493.065 6.36731L450.759 112.483C443.495 131.159 428.965 143.893 412.3 142.195V133.281C425.547 134.555 435.375 124.792 441.358 110.361L443.495 105.267L398.625 6.36731H409.308L448.623 92.5331L482.382 6.36731H493.065V6.36731Z" fill="#F2F2F2"/>
<path d="M414.861 146.864C414.006 146.864 413.152 146.864 411.87 146.864L408.024 146.44V128.612L412.724 129.037C426.399 130.31 434.091 116.727 437.509 109.087L438.791 105.691L391.785 2.54688H411.87L448.193 82.3458L479.388 2.54688H499.045L454.603 114.18C446.911 134.555 431.527 146.864 414.861 146.864ZM416.57 137.526V138.375C428.963 137.526 440.501 127.339 446.911 111.209L486.652 11.0361H485.37L448.62 103.993L406.314 11.0361H405.032L447.765 105.691L444.774 112.483C438.791 127.339 428.536 136.677 416.57 137.526Z" fill="#F2F2F2"/>
<path d="M511.859 96.7771C511.859 92.108 515.705 87.8634 520.833 87.8634C525.534 87.8634 529.807 91.6836 529.807 96.7771C529.807 101.871 525.961 105.691 520.833 105.691C515.278 105.691 511.859 101.446 511.859 96.7771Z" fill="#F2F2F2"/>
<path d="M520.415 109.935C513.151 109.935 507.168 104.417 507.168 96.7771C507.168 89.1368 512.723 83.6188 520.415 83.6188C527.68 83.6188 533.662 89.5613 533.662 96.7771C533.662 103.993 527.68 109.935 520.415 109.935ZM520.415 92.108C517.851 92.108 515.715 93.8059 515.715 96.7771C515.715 99.7483 517.424 101.446 520.415 101.446C522.979 101.446 525.116 99.3239 525.116 96.7771C525.116 94.2303 522.979 92.108 520.415 92.108Z" fill="#F2F2F2"/>
<path d="M665.706 6.36655V103.568H655.878V81.4963C647.758 95.9281 632.802 105.691 613.999 105.691C586.223 105.691 563.574 83.6186 563.574 55.1797C563.574 26.3163 586.223 4.6687 613.999 4.6687C632.802 4.6687 647.758 14.0069 655.878 28.863V6.79101H665.706V6.36655ZM655.878 55.1797C655.878 32.2587 637.93 14.0069 614.854 14.0069C591.778 14.0069 573.403 32.2587 573.403 55.1797C573.403 78.1006 591.351 96.3525 614.854 96.3525C638.357 96.3525 655.878 78.1006 655.878 55.1797Z" fill="#F2F2F2"/>
<path d="M613.569 109.935C582.802 109.935 558.871 85.7411 558.871 55.1798C558.871 24.6185 582.802 0.424194 613.569 0.424194C628.526 0.424194 641.773 5.9422 651.174 15.7048V2.5465H669.55V107.813H651.174V94.6548C641.773 104.417 628.526 109.935 613.569 109.935ZM613.569 8.48897C587.502 8.48897 567.418 28.8632 567.418 54.7553C567.418 80.6475 587.929 101.022 613.569 101.022C624.68 101.022 634.509 97.626 642.2 90.8346C634.509 96.7771 625.107 100.173 614.424 100.173C588.784 100.173 568.7 80.2231 568.7 54.7553C568.7 29.2876 588.784 9.33789 614.424 9.33789C625.107 9.33789 634.509 12.7336 642.2 18.6761C634.509 12.3091 624.68 8.48897 613.569 8.48897ZM660.148 99.3239H661.43V10.6113H660.148V44.5682L658.012 40.7481C659.294 44.9927 660.148 50.0863 660.148 54.7553C660.148 59.8489 659.294 64.518 658.012 68.7626L660.148 64.9424V99.3239ZM614.424 17.8271C593.485 17.8271 577.246 33.9567 577.246 54.7553C577.246 75.554 593.485 91.6835 614.424 91.6835C634.936 91.6835 651.174 75.554 651.174 54.7553C651.602 34.3812 635.363 17.8271 614.424 17.8271Z" fill="#F2F2F2"/>
<path d="M813.565 6.36682V98.8996C813.565 128.187 791.772 144.317 764.85 144.317C742.201 144.317 725.963 135.403 718.698 120.972L727.245 116.303C732.373 126.49 743.056 134.979 764.85 134.979C789.208 134.979 803.737 120.972 803.737 98.4751V80.6477C795.618 95.5039 780.661 105.266 761.859 105.266C734.082 105.266 711.434 83.1945 711.434 54.7555C711.434 25.8921 734.082 4.24451 761.859 4.24451C780.661 4.24451 795.618 14.0071 803.737 28.8633V6.36682H813.565V6.36682ZM803.737 55.18C803.737 32.259 785.789 14.0071 762.286 14.0071C738.783 14.0071 720.835 32.259 720.835 55.18C720.835 78.1009 738.783 96.3528 762.286 96.3528C785.789 96.3528 803.737 78.1009 803.737 55.18Z" fill="#F2F2F2"/>
<path d="M764.844 148.562C741.341 148.562 722.966 139.224 714.847 123.094L713.137 119.699L729.376 110.785L731.513 115.03C737.068 126.066 748.178 131.584 765.272 131.584C787.066 131.584 799.885 119.699 799.885 99.3245V94.6554C790.484 104.842 777.237 110.36 762.28 110.36C731.513 110.36 707.582 86.1661 707.582 55.6049C707.582 25.0436 731.513 0.849243 762.28 0.849243C777.237 0.849243 790.484 6.36725 799.885 16.5543V2.97155H818.261V99.7489C817.833 128.188 796.039 148.562 764.844 148.562ZM724.675 122.67C731.94 133.706 746.469 140.073 764.844 140.073C787.066 140.073 809.287 127.339 809.287 98.9V10.6119H808.005V45.8422L806.723 43.2955C807.577 47.1156 808.005 50.9358 808.005 55.1804C808.005 59.425 807.577 63.2452 806.723 67.0653L808.005 64.5186V99.3245C808.005 124.368 791.339 140.073 764.844 140.073C742.623 140.073 731.513 131.584 725.957 122.67H724.675ZM761.853 8.48957C735.786 8.48957 715.701 28.8637 715.701 54.7559C715.701 80.6481 736.213 101.022 761.853 101.022C772.536 101.022 781.938 97.6266 789.63 91.6841C781.938 97.2022 772.536 100.173 762.28 100.173C736.641 100.173 716.556 80.2237 716.556 54.7559C716.556 29.2882 736.641 9.33849 762.28 9.33849C772.536 9.33849 781.938 12.7342 789.202 17.8277C781.938 11.8853 772.536 8.48957 761.853 8.48957ZM762.28 17.8277C741.341 17.8277 725.103 33.9573 725.103 54.7559C725.103 75.5546 741.341 91.6841 762.28 91.6841C783.22 91.6841 799.458 75.5546 799.458 54.7559C799.458 34.3818 783.22 17.8277 762.28 17.8277Z" fill="#F2F2F2"/>
<path d="M957.147 55.6043C957.147 57.3022 957.147 58.5756 957.147 60.2734H868.69C870.826 82.3455 887.919 96.7772 910.141 96.7772C925.952 96.7772 938.344 89.5613 943.9 78.9498L952.446 84.0433C944.327 97.2016 929.37 106.115 909.713 106.115C879.8 106.115 858.434 84.8922 858.434 55.6043C858.434 27.1654 878.945 5.09335 908.859 5.09335C938.772 4.24443 957.147 28.8632 957.147 55.6043ZM868.69 50.5108H947.318C945.182 26.7409 928.516 13.5826 909.286 13.5826C886.637 13.5826 870.826 28.8632 868.69 50.5108Z" fill="#F2F2F2"/>
<path d="M909.713 109.935C877.663 109.935 854.16 87.0144 854.16 55.1798C854.16 23.3451 877.236 0.424194 908.858 0.424194C943.045 0.424194 961.42 28.8632 961.42 55.6043C961.42 56.4532 961.42 57.3021 961.42 58.151C961.42 59 961.42 59.4244 961.42 60.2733V64.518H873.817C877.663 81.4964 891.765 92.5325 910.14 92.5325C923.815 92.5325 934.925 86.59 940.053 77.2518L942.19 73.4317L958.429 82.7698L956.292 86.59C946.891 101.022 929.798 109.935 909.713 109.935ZM909.286 8.48897C882.364 8.48897 863.134 28.0142 863.134 54.7553C863.134 81.9209 882.364 101.022 910.14 101.022C925.524 101.022 938.771 95.0792 946.463 84.8921L945.181 84.0432C937.917 94.2303 925.097 100.173 910.14 100.173C885.355 100.173 866.98 84.0432 864.416 60.2733L863.989 55.6043H953.301V55.1798C952.873 32.6833 937.49 8.48897 909.286 8.48897ZM952.019 54.7553H863.989L864.416 50.0863C866.553 25.8919 884.928 9.33789 909.286 9.33789C932.362 9.33789 949.455 25.8919 951.591 50.0863L952.019 54.7553ZM873.39 46.2661H942.19C938.344 26.7408 923.388 17.8271 908.858 17.8271C890.911 17.8271 877.236 29.2876 873.39 46.2661Z" fill="#F2F2F2"/>
<path d="M102.992 56.8776C102.992 58.5754 102.992 59.8488 102.992 61.5467H14.1075C16.2441 83.6187 33.3373 98.0504 55.5585 98.0504C71.3697 98.0504 83.7623 90.8346 89.3176 80.223L97.8642 85.3166C89.7449 98.4749 74.7883 107.389 55.1312 107.389C25.2181 107.389 3.85156 86.1655 3.85156 56.8776C3.85156 28.4386 24.3634 6.36662 54.2765 6.36662C84.1896 5.94215 102.992 30.561 102.992 56.8776ZM14.1075 52.2085H92.7362C90.5996 28.4386 73.9337 15.2803 54.7038 15.2803C32.4827 15.2803 16.2441 30.561 14.1075 52.2085Z" fill="#F2F2F2"/>
<path d="M55.5529 111.633C23.5031 111.633 0 88.7123 0 56.8777C0 25.043 22.6485 1.69763 54.6982 1.69763C88.8846 1.69763 107.26 30.1366 107.26 56.8777C107.26 57.7266 107.26 58.5755 107.26 59.4245C107.26 60.2734 107.26 60.6978 107.26 61.5468V65.7914H19.2298C23.0758 82.7699 37.1777 93.8059 55.5529 93.8059C69.2275 93.8059 80.338 87.8634 85.466 78.5253L87.6026 74.7051L103.841 84.0433L101.705 87.8634C92.3033 102.72 75.2101 111.633 55.5529 111.633ZM54.6982 10.1869C27.7764 10.1869 8.5466 29.7121 8.5466 56.4532C8.5466 83.6188 27.7764 102.72 55.5529 102.72C70.9368 102.72 84.184 96.7771 91.8759 86.59L90.594 85.7411C83.3293 95.9282 70.5094 101.871 55.5529 101.871C30.7678 101.871 12.3926 85.7411 9.82859 61.9712L9.40126 57.3022H98.7132V56.8777C98.7132 34.3812 83.3293 10.1869 54.6982 10.1869ZM97.4312 56.4532H9.40126L9.82859 51.7841C11.9652 27.5898 30.3404 11.0358 54.6982 11.0358C77.7741 11.0358 94.8673 27.5898 97.0039 51.7841L97.4312 56.4532ZM19.2298 47.964H88.03C84.184 28.4387 69.2275 19.525 54.6982 19.525C36.323 19.525 22.6485 30.5611 19.2298 47.964Z" fill="#F2F2F2"/>
<path d="M1084.07 43.2951V103.569H1074.24V43.2951C1074.24 25.4677 1063.99 13.5828 1045.61 13.5828C1026.38 13.5828 1011.43 25.8922 1011.43 52.2088V103.569H1001.6V6.36694H1011.43V24.6188C1018.69 10.1871 1031.51 4.24463 1046.47 4.24463C1069.54 4.24463 1084.07 19.5253 1084.07 43.2951Z" fill="#F2F2F2"/>
<path d="M1088.34 107.813H1069.97V43.2951C1069.97 27.1656 1060.99 17.8274 1045.61 17.8274C1026.81 17.8274 1015.7 30.5613 1015.7 52.2088V107.813H997.32V2.12231H1015.7V11.8849C1023.39 4.24462 1033.64 0 1046.46 0C1072.1 0 1088.77 16.9785 1088.77 42.8707V107.813H1088.34ZM1078.51 99.3241H1079.79V43.2951C1079.79 22.072 1066.98 8.91371 1046.04 8.91371C1038.34 8.91371 1031.51 10.6116 1025.95 14.4317C1031.93 11.4605 1038.34 9.76262 1045.18 9.76262C1065.69 9.76262 1078.09 22.4965 1078.09 43.7196V99.3241H1078.51ZM1005.87 99.3241H1007.15V52.2088C1007.15 47.9642 1007.58 44.144 1008 40.3239L1007.15 42.4462V10.6116H1005.87V99.3241Z" fill="#F2F2F2"/>
<path d="M1126.38 55.1797C1126.38 26.3163 1148.17 4.6687 1177.65 4.6687C1196.88 4.6687 1213.12 14.4313 1220.39 29.712L1212.27 34.3811C1206.71 22.0716 1193.47 14.0069 1177.65 14.0069C1154.15 14.0069 1136.2 32.2587 1136.2 55.1797C1136.2 78.1006 1154.15 96.3525 1177.65 96.3525C1193.47 96.3525 1206.29 88.2877 1212.7 75.9783L1220.81 80.6474C1213.12 95.5036 1196.46 105.266 1177.65 105.266C1148.6 105.691 1126.38 83.6187 1126.38 55.1797Z" fill="#F2F2F2"/>
<path d="M1177.65 109.935C1146.03 109.935 1122.1 86.1655 1122.1 55.1798C1122.1 24.1941 1146.03 0.424194 1177.65 0.424194C1198.59 0.424194 1216.11 11.0357 1224.23 27.5898L1225.94 30.9855L1210.55 39.8992L1208.42 35.6545C1203.29 24.6185 1191.75 17.8271 1177.65 17.8271C1156.28 17.8271 1140.47 33.9567 1140.47 54.7553C1140.47 75.554 1156.28 91.6835 1177.65 91.6835C1191.33 91.6835 1202.86 84.8921 1208.85 73.8561L1210.98 70.036L1226.37 79.3741L1224.66 82.7698C1216.11 99.7483 1198.16 109.935 1177.65 109.935ZM1177.65 8.48897C1150.73 8.48897 1130.64 28.4387 1130.64 54.7553C1130.64 81.072 1150.73 101.022 1177.65 101.022C1193.46 101.022 1207.56 93.8059 1215.26 81.9209L1214.4 81.4964C1206.28 93.3814 1193.03 100.173 1177.65 100.173C1152.01 100.173 1131.93 80.2231 1131.93 54.7553C1131.93 29.2876 1152.01 9.33789 1177.65 9.33789C1193.03 9.33789 1206.71 16.1293 1213.97 28.0142L1214.83 27.5898C1207.56 15.7048 1193.89 8.48897 1177.65 8.48897Z" fill="#F2F2F2"/>
<path d="M1346.01 6.36731L1303.71 112.483C1296.44 131.159 1281.91 143.893 1265.25 142.195V133.281C1278.5 134.555 1288.32 124.792 1294.31 110.361L1296.44 105.267L1251.57 6.36731H1262.26L1301.57 92.5331L1335.33 6.36731H1346.01V6.36731Z" fill="#F2F2F2"/>
<path d="M1267.82 146.864C1266.96 146.864 1266.11 146.864 1264.83 146.864L1260.98 146.44V128.612L1265.68 129.037C1279.36 130.31 1287.05 116.727 1290.47 109.087L1291.75 105.691L1244.74 2.54688H1264.83L1301.15 82.3458L1332.34 2.54688H1352L1307.56 114.18C1299.87 134.555 1284.48 146.864 1267.82 146.864ZM1269.53 137.526V138.375C1281.92 137.526 1293.46 127.339 1299.87 111.209L1339.61 11.0361H1338.33L1302 103.993L1259.27 10.6117H1257.99L1300.72 105.267L1297.73 112.058C1291.75 127.339 1281.49 136.677 1269.53 137.526Z" fill="#F2F2F2"/>
</svg>
