<svg width="128" height="128" viewBox="0 0 128 128" fill="none" xmlns="http://www.w3.org/2000/svg">
<path class="circle_bg" d="M63.6232 128C98.7613 128 127.246 99.3462 127.246 64C127.246 28.6538 98.7613 0 63.6232 0C28.4851 0 0 28.6538 0 64C0 99.3462 28.4851 128 63.6232 128Z" fill="#FF0000"/>
<path class="symbol_l" d="M112.235 44.7828V84.075H108.312V75.1527C105.071 80.9865 99.1014 84.9329 91.5962 84.9329C80.509 84.9329 71.4688 76.0106 71.4688 64.5147C71.4688 52.8471 80.509 44.0964 91.5962 44.0964C99.1014 44.0964 105.071 47.8712 108.312 53.8766V44.9543H112.235V44.7828ZM108.312 64.5147C108.312 55.2492 101.148 47.8712 91.9374 47.8712C82.7265 47.8712 75.3919 55.2492 75.3919 64.5147C75.3919 73.7801 82.5559 81.1581 91.9374 81.1581C101.319 81.1581 108.312 73.7801 108.312 64.5147Z" fill="white"/>
<path class="symbol_l" d="M91.5949 86.6487C79.3137 86.6487 69.7617 76.8685 69.7617 64.5146C69.7617 52.1607 79.3137 42.209 91.5949 42.209C97.5649 42.209 102.853 44.4395 106.605 48.3859V43.0669H113.94V85.7908H106.605V80.4717C102.853 84.4181 97.5649 86.6487 91.5949 86.6487ZM91.5949 45.6406C81.19 45.6406 73.1732 53.8765 73.1732 64.343C73.1732 74.8095 81.3606 83.0454 91.5949 83.0454C96.0298 83.0454 99.9529 81.6728 103.023 78.9275C99.9529 81.3296 96.2003 82.7023 91.936 82.7023C81.7017 82.7023 73.6849 74.6379 73.6849 64.343C73.6849 54.0481 81.7017 45.9838 91.936 45.9838C96.2003 45.9838 99.9529 47.3564 103.023 49.7586C99.9529 47.1849 96.0298 45.6406 91.5949 45.6406ZM110.017 82.3591H110.528V46.4985H110.017V60.2251L109.164 58.6808C109.675 60.3967 110.017 62.4556 110.017 64.343C110.017 66.402 109.675 68.2894 109.164 70.0052L110.017 68.6326V82.3591ZM91.936 49.4154C83.578 49.4154 77.0963 55.9355 77.0963 64.343C77.0963 72.7505 83.578 79.2706 91.936 79.2706C100.123 79.2706 106.605 72.7505 106.605 64.343C106.605 56.1071 100.123 49.4154 91.936 49.4154Z" fill="white"/>
<path class="symbol_l" d="M57.8304 65.2009C57.8304 65.8873 57.8304 66.402 57.8304 67.0883H22.3515C23.2044 76.0106 30.0273 81.8444 38.897 81.8444C45.2081 81.8444 50.1547 78.9275 52.3721 74.6379L55.7836 76.6969C52.5427 82.016 46.5727 85.6192 38.7264 85.6192C26.7864 85.6192 18.2578 77.0401 18.2578 65.2009C18.2578 53.705 26.4453 44.7827 38.3853 44.7827C50.3253 44.6111 57.8304 54.5629 57.8304 65.2009ZM22.3515 63.3135H53.7367C52.8839 53.705 46.2316 48.3859 38.5558 48.3859C29.6861 48.3859 23.2044 54.5629 22.3515 63.3135Z" fill="white"/>
<path class="symbol_l" d="M38.8931 87.335C26.1002 87.335 16.7188 78.0695 16.7188 65.2009C16.7188 52.3323 25.759 42.8953 38.5519 42.8953C52.1976 42.8953 59.5322 54.3912 59.5322 65.2009C59.5322 65.5441 59.5322 65.8872 59.5322 66.2304C59.5322 66.5736 59.5322 66.7451 59.5322 67.0883V68.8041H24.3945C25.9296 75.6674 31.5585 80.1285 38.8931 80.1285C44.3513 80.1285 48.7862 77.7264 50.8331 73.9516L51.6859 72.4073L58.1676 76.1821L57.3148 77.7264C53.5622 83.7317 46.7394 87.335 38.8931 87.335ZM38.5519 46.3269C27.8059 46.3269 20.1302 54.2197 20.1302 65.0293C20.1302 76.0106 27.8059 83.7317 38.8931 83.7317C45.0336 83.7317 50.3214 81.3296 53.3916 77.2116L52.8799 76.8685C49.9802 80.9864 44.8631 83.3886 38.8931 83.3886C28.9999 83.3886 21.6653 76.8685 20.6419 67.2599L20.4713 65.3725H56.1208V65.2009C56.1208 56.1071 49.9802 46.3269 38.5519 46.3269ZM55.6091 65.0293H20.4713L20.6419 63.1419C21.4948 53.3618 28.8293 46.6701 38.5519 46.6701C47.7628 46.6701 54.5856 53.3618 55.4385 63.1419L55.6091 65.0293ZM24.3945 61.5977H51.8565C50.3214 53.7049 44.3513 50.1017 38.5519 50.1017C31.2173 50.1017 25.759 54.5628 24.3945 61.5977Z" fill="white"/>
</svg>
