<svg width="190" height="83" viewBox="0 0 190 83" fill="none" xmlns="http://www.w3.org/2000/svg">
<path d="M183.415 24.1168V36.7363L188.872 33.8637V21.2441L183.415 24.1168ZM136.887 23.8702V36.4953L158.697 37.0642V24.4447L136.887 23.8702ZM172.022 26.9949V39.6144L183.418 36.7391V24.1168L172.022 26.9949ZM158.697 24.4419V37.0614L172.019 39.6144V26.9949L158.697 24.4419ZM135.88 28.1776V40.7971L136.887 36.4925V23.8674L135.88 28.1776ZM131.043 28.0234V40.643L135.88 40.7971V28.1776L131.043 28.0234ZM115.315 37.1931V49.8127L131.043 40.643V28.0234L115.315 37.1931ZM103.387 42.9522V55.5717L115.315 49.8155V37.1959L103.387 42.9522ZM102.018 45.8275V58.4499L103.387 55.5689V42.9494L102.018 45.8275ZM97.5093 48.4226V61.0422L102.018 58.4527V45.8304L97.5093 48.4226ZM96.4437 51.4129V64.038L97.5093 61.0422V48.4226L96.4437 51.4129ZM90.1234 53.3214V65.9409L96.4437 64.0352V51.4101L90.1234 53.3214ZM82.4094 53.3802V65.9997L90.1234 65.9409V53.3214L82.4094 53.3802ZM60.5096 55.7623V68.3818L82.4094 65.9997V53.3802L60.5096 55.7623ZM37.9004 57.3261V69.9456L60.5096 68.3818V55.7623L37.9004 57.3261ZM31.7286 59.0215V71.6411L37.9004 69.9456V57.3261L31.7286 59.0215ZM24.5783 64.5705V77.19L31.7286 71.6411V59.0215L24.5783 64.5705ZM17.6606 69.0685V81.688L24.5755 77.19V64.5705L17.6606 69.0685ZM7.42578 70.0381V82.6576L17.6606 81.6851V69.0656L7.42578 70.0381Z" fill="url(#paint0_linear)"/>
<path d="M0.12207 51.6136L0.18457 40.4886L7.93457 45.1761C10.0804 46.1761 14.5221 48.3011 15.1221 48.8011C15.8721 49.4261 19.4971 56.0511 19.5596 56.7386C19.6221 57.4261 17.9346 69.8011 17.7471 70.6136C17.5971 71.2636 10.3929 70.1761 7.55957 71.1761L7.43457 61.9261L0.12207 51.6136Z" fill="url(#paint1_linear)"/>
<path d="M47.0596 3.80115L47.4346 3.36365L51.1846 4.73865C52.2054 6.63448 54.2971 10.6636 54.4971 11.6136C54.6971 12.5636 49.4554 18.7595 46.8096 21.7386L47.0596 3.80115Z" fill="url(#paint2_linear)"/>
<path d="M85.3721 6.92615L85.7471 6.36365C86.3721 7.09281 87.6221 8.85115 87.6221 10.0511C87.6221 11.2511 87.2054 11.7178 86.9971 11.8011L84.9971 12.6136L85.3721 6.92615Z" fill="url(#paint3_linear)"/>
<path d="M82.4346 11.8636C82.9846 12.1136 82.8721 7.21781 82.7471 4.73865C82.2471 5.09281 81.0721 5.87615 80.3721 6.17615C79.4971 6.55115 78.1846 8.48865 77.7471 8.98865C77.3096 9.48865 81.7471 11.5511 82.4346 11.8636Z" fill="url(#paint4_linear)"/>
<path d="M88.4346 12.3011V7.61365L87.6846 7.80115L88.4346 12.3011Z" fill="url(#paint5_linear)"/>
<path d="M121.06 19.9886L120.997 16.1136L122.185 15.9261C122.351 16.1761 122.785 17.1636 123.185 19.1136C123.135 19.7636 121.747 19.9678 121.06 19.9886Z" fill="url(#paint6_linear)"/>
<path d="M121.81 15.4261L121.935 12.1136C122.455 12.197 123.572 12.3636 123.872 12.3636C124.172 12.3636 127.414 13.572 128.997 14.1761C129.101 14.5303 129.385 15.4761 129.685 16.4261C129.985 17.3761 129.06 18.197 128.56 18.4886C128.08 18.6553 126.897 19.0386 125.997 19.2386C125.097 19.4386 123.789 17.7803 123.247 16.9261L121.81 15.4261Z" fill="url(#paint7_linear)"/>
<path d="M129.31 14.1761L129.247 9.92615L130.935 10.9261C131.351 11.447 132.297 12.6511 132.747 13.3011C133.197 13.9511 132.851 14.7803 132.622 15.1136L129.31 14.1761Z" fill="url(#paint8_linear)"/>
<path d="M134.06 13.1761L134.185 9.55115L134.747 9.73865L135.06 10.3011L135.122 11.0511L134.06 13.1761Z" fill="url(#paint9_linear)"/>
<path d="M138.06 13.6761L137.622 9.17615L136.622 9.92615L135.81 10.9886L138.06 13.6761Z" fill="url(#paint10_linear)"/>
<path d="M166.622 12.8636L166.935 9.05115C167.893 9.25948 169.86 9.87615 170.06 10.6761C170.31 11.6761 169.81 12.0511 169.81 12.9886C169.81 13.7386 167.685 13.2178 166.622 12.8636Z" fill="url(#paint11_linear)"/>
<path d="M166.899 8.7905L166.924 8.78795L166.923 8.76016L168.408 8.60858L171.237 9.06342L171.921 9.45764L172.486 9.88217L173.123 10.1854L174.089 10.1551L174.844 9.76086L175.928 8.60858L176.801 8.27502L179.582 8.97244L181.539 10.3067L182.859 12.1261L183.731 14.279L189.229 21.5125L183.417 25.075L171.979 27.8875L158.479 25.45L136.729 24.95L135.854 29.2625L130.854 29.0125L115.417 38.075L103.229 43.8875L101.979 46.7625L97.479 49.45L96.2915 52.45L90.1665 54.325H82.2915L60.354 56.825L37.729 58.3875L31.604 60.1375L24.604 65.7625L17.604 70.075L8.42722 70.6152L7.53139 70.7365L7.57855 69.8874L7.64928 69.5539L8.12074 67.9771L8.26218 67.7648L12.2934 62.9737L12.647 62.4279L12.6942 62.155V61.8821L12.6706 61.6091L12.6234 61.3363L12.5292 61.0937L12.0576 60.2143L11.9162 59.7291L11.8927 59.4562L12.0813 58.0007L12.0341 57.7278L11.9869 57.4549L11.8691 57.2426L11.704 57.0303L10.7375 56.0903L10.5725 55.878L10.4546 55.6658L10.0067 54.4832L9.93597 53.9374L9.98314 52.8457L9.84169 51.5115L9.88882 51.2386V51.087L10.1717 50.4805L10.189 50.4536L10.2189 50.3895L10.4948 49.9585L0.134766 40.3266L0.195594 40.2484L0.1819 40.2356L0.600134 39.6977L0.983429 38.5376L1.1013 38.2646L1.11458 38.2521L1.14847 38.1737L1.50206 37.8401L2.06786 37.4762L3.36446 36.9607L4.1188 36.7788L5.50969 36.5968L5.83972 36.5059L6.12263 36.3846L10.2245 33.7161L11.0497 33.3826L11.7097 33.2007H12.1341L12.5349 33.14L12.7685 33.0034L12.8413 32.7458L12.7706 32.4729L12.5584 32.018L12.4641 31.7755L12.4405 31.5025L12.417 31.2296L12.5113 30.6535L12.6056 30.3503L12.6526 30.2594L12.6527 30.2593L12.747 30.0774L12.7942 29.9864L12.9592 29.7135L13.3128 29.4405L13.855 29.1373L14.963 28.6521L16.0474 28.3489L16.8725 28.1973L17.509 27.9244L25.1707 22.436L31.0642 19.9192L33.8224 19.2521L36.8163 18.7972L40.1168 18.7062L41.5784 18.8275L42.4035 19.0095L43.8415 19.434L44.5016 19.7372L45.138 19.9495L45.5388 20.0404H45.9396L46.3403 19.9495L46.7176 19.7675L47.1183 19.3733L47.4147 18.8832L48.0849 17.1294L49.1693 10.9131V10.1551L47.6134 6.69818L47.0947 4.66653L47.0004 3.8175L47.0712 3.51425L47.2362 3.15038L47.6841 2.63489L48.0377 2.30133L48.7685 1.81618L49.6879 1.33099L52.5404 0.0574036L52.6291 0.111283L53.3891 0.572906L54.9686 0.967102L58.0804 1.30066L58.599 1.72519L59.0469 3.39297L59.8013 3.8175L60.6264 3.66586L60.9564 3.18071L61.2157 2.54393L61.7579 1.96777L63.8089 1.17937L64.8462 1.84647L65.577 3.02908L66.7793 3.66586L68.1466 5.00009L68.3823 5.42462L68.2409 6.06143L68.2645 6.24338L71.6591 7.27435L72.8143 7.42596L73.993 7.36533L75.2189 6.88016L76.3504 5.51559L77.2462 5.03043L78.9672 5.66721H79.6508L80.0516 5.30331L80.4759 4.1814L80.8295 3.78717L81.9847 3.51425L82.6212 3.93878L82.7862 4.90915L82.5505 6.24338L82.5531 6.21627L82.5269 6.36469L82.5741 5.87949L81.6998 8.09898L81.6782 8.82083L82.409 9.82153L83.4699 10.6099L84.79 11.1254L86.1102 11.0951L87.026 10.3097L86.063 9.21503L85.568 8.45694L85.3794 7.63824L85.4737 6.63757L85.4875 6.61978L85.4973 6.51627L85.733 6.21304L87.7368 6.42529L88.5619 7.36533L88.279 9.33633L88.444 11.3377L90.6129 12.3383L94.8327 12.0048L96.1057 12.1261L96.978 12.3687L98.7224 13.1874L101.009 13.8545L103.037 14.0365L104.922 13.6119L106.738 12.49L108.034 12.8235L111.547 12.399L112.843 12.9751L114.635 14.1577L115.036 14.7642L116.12 16.7655L116.945 17.7056L117.865 18.3423L119.043 18.7062L120.646 18.8578L121.842 18.4439L120.977 16.0378L121.707 15.0371L121.709 15.037L121.731 15.0068L122.58 14.9461L123.075 15.31L123.381 15.7952L123.664 16.0984L124.418 16.2197H126.847L128.371 15.9523L128.167 15.2797L127.035 14.461L125.809 13.8242L123.145 13.248L121.825 12.7325L121.755 11.9745L121.78 11.962L121.778 11.9442L123.31 11.1861L124.866 11.4893L127.389 12.9145L128.426 13.2177L129.534 13.339L130.441 12.9801L130.925 11.8532L130.642 11.4286L129.393 10.3976L129.133 9.85184L129.581 9.21503L129.583 9.21511L129.605 9.18472L130.453 9.21503L131.255 9.66989L131.561 10.428L131.726 11.6106L132.363 12.399L133.329 12.4293L134.487 11.2678L134.673 10.5796L134.32 9.48795L134.697 8.9118L134.703 8.90851L134.72 8.88147L135.475 8.45694L136.229 8.39633L136.984 8.60858L137.714 9.00278L137.101 10.3976L137.384 11.7925L138.257 12.8842L139.506 13.339L141.368 13.1874L142.429 12.6719L143.254 11.9138L144.409 11.1254L145.918 10.7312L147.474 10.8222L150.091 11.3073L151.01 12.0654L151.435 12.3383L151.741 12.2171L152.071 11.9745L152.519 11.8532L153.368 11.9442L154.782 12.3383L157.894 12.6719L158.578 12.6112L159.073 12.308L160.016 11.368L160.44 11.1861L162.915 11.2467L163.67 11.4286L165.202 12.1564L166.074 12.308L166.876 12.2777L167.607 12.1867L168.196 11.9138L168.573 11.4286L168.738 10.4583L168.29 10.1248L167.583 10.0338L166.946 9.70023L166.899 8.7905Z" fill="url(#paint12_linear)"/>
<defs>
<linearGradient id="paint0_linear" x1="-133.657" y1="17.1391" x2="171.173" y2="104.575" gradientUnits="userSpaceOnUse">
<stop stop-color="#3A90B6"/>
<stop offset="1" stop-color="#075F92"/>
</linearGradient>
<linearGradient id="paint1_linear" x1="-132.067" y1="-1.16887" x2="159.756" y2="69.8616" gradientUnits="userSpaceOnUse">
<stop stop-color="#3A90B6"/>
<stop offset="1" stop-color="#075F92"/>
</linearGradient>
<linearGradient id="paint2_linear" x1="-132.067" y1="-1.16887" x2="159.756" y2="69.8616" gradientUnits="userSpaceOnUse">
<stop stop-color="#3A90B6"/>
<stop offset="1" stop-color="#075F92"/>
</linearGradient>
<linearGradient id="paint3_linear" x1="-132.067" y1="-1.16887" x2="159.756" y2="69.8616" gradientUnits="userSpaceOnUse">
<stop stop-color="#3A90B6"/>
<stop offset="1" stop-color="#075F92"/>
</linearGradient>
<linearGradient id="paint4_linear" x1="-132.067" y1="-1.16887" x2="159.756" y2="69.8616" gradientUnits="userSpaceOnUse">
<stop stop-color="#3A90B6"/>
<stop offset="1" stop-color="#075F92"/>
</linearGradient>
<linearGradient id="paint5_linear" x1="-132.067" y1="-1.16887" x2="159.756" y2="69.8616" gradientUnits="userSpaceOnUse">
<stop stop-color="#3A90B6"/>
<stop offset="1" stop-color="#075F92"/>
</linearGradient>
<linearGradient id="paint6_linear" x1="-132.067" y1="-1.16887" x2="159.756" y2="69.8616" gradientUnits="userSpaceOnUse">
<stop stop-color="#3A90B6"/>
<stop offset="1" stop-color="#075F92"/>
</linearGradient>
<linearGradient id="paint7_linear" x1="-132.067" y1="-1.16887" x2="159.756" y2="69.8616" gradientUnits="userSpaceOnUse">
<stop stop-color="#3A90B6"/>
<stop offset="1" stop-color="#075F92"/>
</linearGradient>
<linearGradient id="paint8_linear" x1="-132.067" y1="-1.16887" x2="159.756" y2="69.8616" gradientUnits="userSpaceOnUse">
<stop stop-color="#3A90B6"/>
<stop offset="1" stop-color="#075F92"/>
</linearGradient>
<linearGradient id="paint9_linear" x1="-132.067" y1="-1.16887" x2="159.756" y2="69.8616" gradientUnits="userSpaceOnUse">
<stop stop-color="#3A90B6"/>
<stop offset="1" stop-color="#075F92"/>
</linearGradient>
<linearGradient id="paint10_linear" x1="-132.067" y1="-1.16887" x2="159.756" y2="69.8616" gradientUnits="userSpaceOnUse">
<stop stop-color="#3A90B6"/>
<stop offset="1" stop-color="#075F92"/>
</linearGradient>
<linearGradient id="paint11_linear" x1="-132.067" y1="-1.16887" x2="159.756" y2="69.8616" gradientUnits="userSpaceOnUse">
<stop stop-color="#3A90B6"/>
<stop offset="1" stop-color="#075F92"/>
</linearGradient>
<linearGradient id="paint12_linear" x1="85.9971" y1="101.614" x2="50.4971" y2="-70.3863" gradientUnits="userSpaceOnUse">
<stop stop-color="#59BDE4"/>
<stop offset="0.260417" stop-color="#43A9D5"/>
<stop offset="0.697917" stop-color="#0B77B0"/>
<stop offset="1" stop-color="#015E94"/>
</linearGradient>
</defs>
</svg>
