<svg width="216" height="169" viewBox="0 0 216 169" fill="none" xmlns="http://www.w3.org/2000/svg">
<path opacity="0.1" d="M201.685 23L202.817 23.1516L204.491 23.9097L204.279 24.2433L203.831 25.4259L203.713 26.5478L203.548 27.0027L202.723 27.8517L202.416 28.3369L202.298 28.8827L202.204 30.1866L202.086 30.7324L201.426 31.4299L199.752 32.6428L195.988 36.2725L196.53 39.5777L196.703 40.1863L197.002 40.2752L199.949 40.8816L200.279 41.0029L201.858 41.9429L203.131 43.0649L203.909 43.5501L204.098 43.732L204.145 43.7933L212.286 44.0049L212.371 44.1563L212.381 44.1565L212.546 44.3688L212.805 44.5204L213.182 44.6114L215.257 44.6417L215.563 44.7327L215.681 44.9449L215.687 44.973L215.705 45.0056L215.752 45.2482L215.681 45.6424L215.516 46.0972L215.115 46.825L214.762 47.1585L214.361 47.3102L212.923 47.5831L211.367 47.7347L210.495 47.7044L210.118 47.6437L209.835 47.4921L209.693 47.2798L209.552 47.0676L209.387 46.8856L209.175 46.7643H208.868L208.562 46.8553L208.326 47.1282L208.213 47.5655L208.35 49.7663L208.346 49.7923L208.35 49.8573L208.302 50.1605L208.185 50.4941L207.854 50.9186L207.548 51.1612L207.265 51.3432L207.076 51.4948L207.051 51.5927L207.501 51.7374L208.562 52.8896L208.75 53.6174L208.732 53.6395L208.75 53.7084L208.067 54.5574L204.342 55.4671L202.762 55.6187L201.796 55.922L199.486 57.2865L198.731 57.6201L195.714 57.5291L194.464 57.7921L194.912 58.5601L194.936 59.0756L194.932 59.0764L194.936 59.1665L193.262 59.5001L192.531 60.5311L191.942 61.5924L190.669 62.1382L189.797 62.7144L188.736 64.0789L188.138 65.7041L188.594 67.1112L188.972 67.6267L189.82 69.2642L190.292 69.7797L190.787 70.2346L194.559 72.5391V72.6301V73.3275V73.4185L193.521 74.3888L193.435 75.0807L193.639 75.6927L193.993 75.9353L194.37 76.0869L194.724 76.1476L194.936 76.3599L195.054 76.6631L195.454 79.4528L195.714 79.7561L196.044 79.9683L196.35 80.1199L196.633 80.2716L196.822 80.4838L196.845 80.6961L196.837 80.7143L196.845 80.7871L196.791 80.9091L204.327 81.06L203.939 81.1432L204.327 81.1509L203.195 81.3935L202.936 81.6361L202.804 82.0028L202.936 82.849L203.148 83.3039L203.431 83.6071L204.798 84.3652L205.034 84.5471L205.199 84.7594L205.317 84.9717L205.29 85.0152L205.317 85.0626L205.152 85.3355L204.209 86.1846L204.162 86.2149L203.973 86.2756L203.714 86.2452L203.242 86.1543L201.215 85.5175H200.979L200.949 85.6142L201.592 86.973L201.663 87.2459L201.657 87.3158L201.663 87.3369L201.639 87.6401L201.333 88.0343L201.003 88.2466L200.673 88.3982L200.366 88.5195L200.178 88.8531V89.2776L200.531 90.3692L200.575 90.5208L200.885 90.9454L201.238 91.3092L201.734 91.5821L201.804 91.7641L201.757 91.9157L201.545 92.1583L201.309 92.3705L201.144 92.5525L201.097 92.9164L201.286 93.4622L201.356 93.8867L201.38 94.2506L201.144 94.7054L200.885 94.948L200.602 95.13L199.942 95.3422L198.504 95.5545H198.315H197.655H197.467L197.042 95.4939L196.665 95.3726L196.382 95.2209L196.146 95.0693L195.981 94.8874L195.486 94.008L195.345 93.8564L195.227 93.7654L194.991 93.6138L194.614 93.5532L194.31 93.5072L194.025 93.5532L193.789 93.7048L193.577 93.917L193.129 94.6145L193.035 94.7964L193.058 94.948L193.176 95.1906L193.506 95.6455L194.143 96.4035L194.425 96.8887L194.638 97.192L194.968 97.3132L195.283 97.3386L195.934 97.3132L195.958 97.3197L196.123 97.3132L196.453 97.4042L196.712 97.5558L196.877 97.7378L196.948 98.041V98.3746L196.712 98.981L196.594 99.3752L196.571 99.7694L196.877 100.164L197.184 100.406L198.056 100.891L198.221 101.073L198.268 101.316L198.079 101.589L197.867 101.801L197.702 102.074L197.679 102.438L198.079 103.287L198.174 103.56L198.15 103.802L197.891 104.075L197.584 104.257L195.698 104.924L195.533 105.197L195.463 105.622L195.604 106.441V106.865L195.416 107.411L195.133 107.623L194.826 107.835L191.337 108.594L191.078 108.866L190.984 109.291L191.031 110.231L191.384 110.807L191.573 111.232L191.644 111.535L191.455 111.99L191.29 112.293L189.734 114.112L189.64 114.325L189.619 114.514L189.781 114.598L192.422 115.083L195.062 115.841L195.486 115.901L195.911 115.932L197.302 115.659L197.632 115.689L197.891 115.81L197.957 115.875L198.079 115.932L198.268 116.114L198.339 116.356L198.268 116.629L197.914 116.963L196.948 117.448L196.83 117.63L196.901 117.872L197.165 118.066L197.349 118.176L198.032 118.449L199.494 118.903L203.101 119.358L203.478 119.298L203.761 119.176L203.973 118.964L205.27 117.023L205.505 116.841L205.859 116.811L206.708 116.963L207.462 117.175L207.651 117.296L207.651 117.296L207.745 117.357L207.933 117.478L208.028 117.751L207.509 118.6L206.543 119.843L206.095 120.177L205.835 120.329L204.798 121.147L204.68 121.36L204.633 121.633L204.68 121.905L204.892 122.209L205.077 122.36L206.401 123.058L206.437 123.098L206.59 123.179L206.802 123.422L206.92 123.816L206.731 124.574L206.755 126.12L206.826 126.393L206.873 126.939L206.778 127.333L206.59 127.849L206.024 128.455L205.6 128.668L205.175 128.789L204.94 128.94L204.704 129.183L204.492 129.517L203.077 133.58L202.983 134.308L203.007 135.612L203.101 136.339L203.266 136.855L203.525 137.158L204.095 137.588L204.916 137.977L205.435 138.128L205.859 138.341L205.888 138.382L206.048 138.462L206.26 138.765L198.283 139.22L198.118 139.705L197.529 140.221L197.01 140.554L196.515 140.797L196.138 141.13L195.855 141.585L195.761 142.343V143.405L195.69 143.708L195.502 143.89L195.054 144.223L194.323 144.557L194.087 144.769L193.993 145.042L194.087 145.497L194.323 146.073L194.417 146.316L194.441 146.619L194.346 147.498L185.781 149.136L183.612 153.654L183.595 153.676L181.136 156.959L180.17 157.778L178.496 158.263L177.671 158.627L177.247 158.9L176.94 159.264L176.492 160.113L176.209 160.355L175.879 160.537L174.654 160.81L173.098 161.447L172.65 161.75L172.343 162.053L171.966 162.842L171.612 163.448L171.282 163.721L170.952 163.903L170.245 164.085L167.817 164.267L166.709 164.479L160.886 166.663H158.364L158.01 166.572L157.869 166.39L157.704 166.177L157.326 166.056H156.666L153.979 166.45L146.907 166.329L145.304 166.026L145.091 165.905L144.95 165.814L144.643 165.419L144.549 165.238L144.526 165.207L144.29 164.752L144.196 164.51L144.078 164.267L144.004 164.078L143.842 163.812L143.653 163.63L143.418 163.509L143.041 163.418L142.522 163.388H141.555L141.06 163.509L139.009 164.51L138.609 164.57L138.302 164.479L137.831 164.146L137.618 163.964L137.147 163.63L136.888 163.509L136.416 163.418L134.624 163.509L130.357 164.843L130.075 164.995L129.839 165.146L129.391 165.51L128.071 167.027L127.316 167.572L126.491 167.967L125.949 168.118L125.454 168.149L125.1 168.058L124.558 167.785L124.228 167.663L120.056 167.724L115.836 166.087L115.411 165.783L114.987 165.419L115.058 165.328L114.916 165.207L115.081 164.995L115.294 164.813L115.789 164.479L116.048 164.328L116.284 164.146L116.449 163.934V163.782L116.307 163.661L116.001 163.539L115.152 163.479L114.374 163.539H113.855L113.243 163.448L112.158 163.145L111.663 162.903L111.333 162.69L111.192 162.508L111.05 162.326L110.994 162.132L110.979 162.114L110.909 161.872L110.885 161.629L110.909 161.295L110.866 160.99L110.767 160.719L110.531 160.477L110.296 160.325L108.646 159.415L108.363 159.051L108.353 158.918L108.292 158.839L108.268 158.506L108.386 158.233L108.787 157.808L109.541 157.141L109.636 157.08L109.753 157.02L109.966 156.959L110.178 156.929L111.616 157.111H111.734L111.781 157.08L112.064 156.959L112.276 156.777L112.417 156.535L112.488 156.262L112.534 155.314L112.37 154.564L112.064 154.169L111.64 153.957L108.716 153.987L107.868 153.927L107.467 153.836L106.901 153.533L106.217 153.047L103.742 150.894L102.846 150.5L100.842 149.257L100.088 148.923L99.4752 148.742L97.9193 148.893L96.5284 149.196L96.2219 149.318L95.9861 149.469L95.8447 149.682L95.7975 149.924V150.197L95.7504 150.44L95.5618 150.409L95.2766 150.668L95.1846 150.834L95.1611 151.076L95.2083 151.289L95.2318 151.531L95.1611 151.713L95.0549 151.774L95.0195 151.865L94.8074 151.986L94.1946 152.198L93.8881 152.32L93.7959 152.412L93.6523 152.623L93.5483 152.72L93.5109 152.775L93.0865 153.169L92.8743 153.351L92.6151 153.502L92.285 153.593L91.8842 153.624L89.1025 153.472H88.6781L88.301 153.533L87.9709 153.624L87.7116 153.775L87.2401 154.109L86.7686 154.503L86.5093 154.655L86.1793 154.746L85.3777 154.837L85.0241 154.897L84.7412 155.049L84.5055 155.2L83.8454 155.777L83.5861 155.958L83.256 156.049L82.8553 156.08L81.9359 156.049L81.5587 156.08L81.2287 156.201L80.6864 156.504L80.4036 156.626L80.0735 156.717H79.6492L75.4294 156.11H75.1465L74.8165 156.14L74.51 156.262L74.2271 156.413L73.5435 156.959L72.8127 157.353L67.367 156.504L65.9526 156.413L65.0331 156.444L64.6794 156.595L64.2316 156.717L63.4773 156.838L63.0057 156.717L62.6285 156.595L61.9449 156.292L61.3792 156.171L60.6247 156.14L60.1768 156.08L59.7996 155.958L59.5403 155.807L59.3046 155.625L59.0924 155.443L58.9274 155.261L58.8331 155.049L58.8567 154.776L58.9274 154.109L58.8802 153.806L58.6208 153.411L58.2437 153.29L57.843 153.108L56.4757 153.138L56.0278 153.017L55.6741 152.865L53.6703 151.562L53.4582 151.38L53.2695 151.198L53.2224 150.955L53.2695 150.652L53.4817 150.076L53.6703 149.863L53.6958 149.858L53.7174 149.833L53.9767 149.773L54.684 149.803L55.014 149.742L55.2475 149.633L55.4384 149.469L55.627 149.227L55.9335 148.742L56.0513 148.469L56.0984 148.196V147.923L55.9099 147.165L55.5327 146.255L55.2734 145.8L54.9905 145.376L54.5897 145.012L53.6231 144.345L52.0438 143.496L51.9494 143.374L51.8315 143.192L51.8787 142.616L51.7844 142.252L51.5015 142.101L51.1243 142.04L49.9928 142.01L49.0734 141.888L48.649 141.707L48.4368 141.464L48.4604 141.191L48.5547 140.948L48.6962 140.676L48.7668 140.433L48.6725 140.16L48.1304 139.826L47.8475 139.523L47.5881 139.22L47.376 138.826L46.9988 138.644L46.5981 138.523H46.1973L45.8672 138.614L45.5608 138.735L44.7357 139.159L44.4291 139.281L43.6984 139.402L42.8733 139.432L39.1486 139.19L38.2999 139.22L37.6398 139.402L36.6261 140.008L36.0839 140.069L35.2823 140.039L32.0056 139.463L31.652 139.523L31.369 139.675L30.8032 140.342L30.544 140.554L30.1903 140.736L29.5774 140.797L29.153 140.706L28.8466 140.554L28.3987 140.099L28.0215 139.796L27.22 139.372L26.6306 139.19L26.1355 139.129L24.1317 139.493L23.3774 139.463L22.9766 139.341L22.7644 139.129L22.788 138.886L22.9058 138.614L23.0709 138.371L24.0374 137.31L24.6976 136.339L25.1454 135.551L25.3576 134.975L25.7348 133.519L25.7584 133.277L25.4754 133.004L24.8861 132.61L22.6466 131.457L22.01 131.215L18.309 130.305L17.6252 130.062L17.2009 129.82L17.1831 129.793L17.1773 129.789L17.0358 129.577L16.9415 129.335L16.8944 129.062V128.789L16.9415 128.486L17.0123 128.182L17.4366 127L17.743 125.756L17.7903 125.18L17.7667 124.907V124.695L17.6016 124.21L17.5074 123.967L17.3423 123.755L17.1773 123.543L16.8472 123.24L15.1735 122.209L14.4898 121.966L13.9476 121.875L13.5233 121.905L12.934 121.875L12.0853 121.723L11.2838 121.269L10.8358 121.087L10.4586 120.996L10.1286 121.026L9.82214 121.147L9.58643 121.329L9.23279 121.511L8.83209 121.633H8.10126L7.77124 121.481L7.55908 121.269L7.46472 121.056L7.20544 118.934L7.48834 114.658L7.53875 114.386L7.58264 113.991L8.85565 110.14L8.90277 109.564L8.83529 109.072L4.23548 107.486L0.872314 106.343L0.0942993 104.948L0 104.554L0.0942993 104.251L0.353699 104.099L0.707214 104.039L0.744428 104.04L0.754395 104.039L2.03794 104.097L2.40466 104.039L2.71106 103.948L2.89966 103.766L2.94678 103.523L2.75818 102.947L2.80975 102.935L4.77783 102.5L4.34863 101L6.84863 92L7.34863 71.5L9.34863 63.5L18.8486 58.5L36.8486 44L48.3486 45.5L75.3486 42.5H87.8486L100.849 46.5L109.849 48L128.849 40L127.349 37L125.849 34.5L127.849 28L150.849 31H155.849L169.849 30.5L184.849 23.5L193.849 25L201.685 23Z" fill="#333333"/>
<path d="M209.5 12V1.5V1L208.5 1.5L199 9L197 15.5L201.5 21L206.5 19L209.5 12Z" fill="url(#paint0_linear)"/>
<path d="M212.5 22V22.5V32.5L211.5 33.5L207 34L206 33V41.5L203.5 42L202 42.5L199.5 42L195.5 46H192.5L191.5 47L191 49.5H191.5V54L192.5 57L194 57.5V61.5L194.5 62V73L192.5 76L190 82L189 82.5L187 90.5L186 91.5L186.5 92.5L183.5 95.5L175 95C173.333 93.6667 170.1 90.9 170.5 90.5C171 90 174.5 85 175.5 84.5C176.3 84.1 183.5 82 187 81L185 79.5C183.896 78.3333 181.65 76 181.5 76C181.35 76 179.438 74 178.5 73C179.167 72.3333 180.738 71 181.688 71C182.638 71 183.625 69.6667 184 69L188.117 70.8298L187 64.5L179.5 51C179.333 48.5 179 43.4 179 43C179 42.5 182.5 38.5 182.5 38C182.5 37.6 187.5 35.5 190 34.5L192.5 33.75V34H195.5L199.5 32.1875V32H202L203.5 31.5L204.75 29.75L203.5 29.5L204 24L206 23.5L207 24.5L211.5 23.1875L212.5 22Z" fill="url(#paint1_linear)"/>
<path d="M187.5 97.5L187 93.5L185 94.5L184.5 96L187.5 97.5Z" fill="url(#paint2_linear)"/>
<path d="M197 94.5V95V105L196 105.1V116.5H195.25V127L194 129L191.5 135.5V142.5L185.5 147L182 146H181L177 148H175.5L172 152L166 155H165.5H163L162 154H159H152L150 153.5L148 151H147L144 153H143L141 150.5H139L134.5 153L131 155.5H130L129 155H125L119.5 153L118 151.5L116 150.188L113.5 149.5V143.5L113 141.5L112 141L108.5 138H107.5L105 136L101 138L98.0001 141H97.0001H93.5001L92.5001 141.5L91.0001 142H90.0001L88.5001 143.5H87.0001L85.0001 145L80.0001 144L78.0001 145L71.0001 144H70.5001H69.5001L68.5001 145L66.5001 144.5L64.0001 143L62.0001 141H61.0001L58.0001 139V131.3L56.5001 131V129H53.5001L51.5001 127L49.5001 128H46.5001C46.4991 128 46.4981 128 46.4971 127.999L44 127.5L42 128H40.5L36.5 127L35 128.75H33.5L31 126.5H29.5L27.5 127V120.5L24.5 118.5L22 117V114L19.5 112L18.5 110.5H17L12.5 108.5V100L5.5 94L5 92V81.5L5.5 82L12.5 82.5L18.5 86V91L13.7353 98.1471L19.5 96.5L29.5 102L27.0595 105.905L34.5 106.5L34 112.5L31.4906 115.588L34 117L33.5 117.5H35L36.5 116L40.5 116.5H42L44 115.312V115.5L46.5001 116L49.5001 115L52.0001 114.5L54.5001 117L62.0001 118L60.9794 120.246L64.5001 121L63.0001 126C62.7414 126.259 61.6327 127.785 60.5659 129.283L61.0001 129.5H62.0001L63.0001 129L65.0001 130L64.0001 132L66.5001 133L68.5001 133.5L69.5001 133H71.1876L78.0001 134L80.0001 133H85.0001L87.0001 132H88.5001L90.0001 131H91.0001L92.0001 130.5H92.5001L93.5001 130L97.0001 130.5L98.0001 130L100.5 127V126L105 125.5L107.5 127L108.5 127.5L111 128.5L112 130.5L113 131L114 129L118.5 129.5L119.5 133L118.5 134L113.5 135.5H115.5L118 136.688L116 138.5L118 139.5L122.5 138.5V141L120 142L125 143.5L129 143L130 143.5H131L134.5 140.5L139 138.5H141L143 139.5H144L147 138.5H148L150 141.5L152 142L159.188 142.5L162 141.5L163 142L166 141.5L172 139.5L175.5 137L177 137.5L181 135.5L182 134.5L185.5 134L183.5 132L187.5 127.5L189.971 127.088L189.5 124.5L190.5 123.5L188.5 120L194 116.5H194.5L189.5 114C188.667 112.5 187.1 109.5 187.5 109.5C187.9 109.5 190.333 108.167 191.5 107.5L194.941 105.206L192 105.5L190 102C190.333 101.25 191.1 99.7 191.5 99.5C191.9 99.3 195.333 96.0833 197 94.5Z" fill="url(#paint3_linear)"/>
<path d="M9.5 80.5V78L11 79.5L9.5 80.5Z" fill="url(#paint4_linear)"/>
<path d="M130.5 20.5V12L133 5L132.5 11L137 17L130.5 20.5Z" fill="url(#paint5_linear)"/>
<path d="M206.685 0L207.817 0.151616L209.491 0.909698L209.279 1.24325L208.831 2.42586L208.713 3.54782L208.548 4.00267L207.723 4.85173L207.416 5.3369L207.298 5.88272L207.204 7.18662L207.086 7.73244L206.426 8.42987L204.752 9.6428L200.988 13.2725L201.53 16.5777L201.703 17.1863L202.002 17.2752L204.949 17.8816L205.279 18.0029L206.858 18.9429L208.131 20.0649L208.909 20.5501L209.098 20.732L209.263 20.9443L209.381 21.1565L209.546 21.3688L209.805 21.5204L210.182 21.6114L212.257 21.6417L212.563 21.7327L212.681 21.9449L212.687 21.973L212.705 22.0056L212.752 22.2482L212.681 22.6424L212.516 23.0972L212.115 23.825L211.762 24.1585L211.361 24.3102L209.923 24.5831L208.367 24.7347L207.495 24.7044L207.118 24.6437L206.835 24.4921L206.693 24.2798L206.552 24.0676L206.387 23.8856L206.175 23.7643H205.868L205.562 23.8553L205.326 24.1282L205.213 24.5655L205.35 26.7663L205.346 26.7923L205.35 26.8573L205.302 27.1605L205.185 27.4941L204.854 27.9186L204.548 28.1612L204.265 28.3432L204.076 28.4948L204.051 28.5927L204.501 28.7374L205.562 29.8896L205.75 30.6174L205.732 30.6395L205.75 30.7084L205.067 31.5574L201.342 32.4671L199.762 32.6187L198.796 32.922L196.486 34.2865L195.731 34.6201L192.714 34.5291L191.464 34.7921L191.912 35.5601L191.936 36.0756L191.932 36.0764L191.936 36.1665L190.262 36.5001L189.531 37.5311L188.942 38.5924L187.669 39.1382L186.797 39.7144L185.736 41.0789L185.138 42.7041L185.594 44.1112L185.972 44.6267L186.82 46.2642L187.292 46.7797L187.787 47.2346L191.559 49.5391V49.6301V50.3275V50.4185L190.521 51.3888L190.435 52.0807L190.639 52.6927L190.993 52.9353L191.37 53.0869L191.724 53.1476L191.936 53.3599L192.054 53.6631L192.454 56.4528L192.714 56.7561L193.044 56.9683L193.35 57.1199L193.633 57.2716L193.822 57.4838L193.845 57.6961L193.837 57.7143L193.845 57.7871L193.751 57.9993L193.327 58.1509L192.195 58.3935L191.936 58.6361L191.804 59.0028L191.936 59.849L192.148 60.3039L192.431 60.6071L193.798 61.3652L194.034 61.5471L194.199 61.7594L194.317 61.9717L194.29 62.0152L194.317 62.0626L194.152 62.3355L193.209 63.1846L193.162 63.2149L192.973 63.2756L192.714 63.2452L192.242 63.1543L190.215 62.5175H189.979L189.949 62.6142L190.592 63.973L190.663 64.2459L190.657 64.3158L190.663 64.3369L190.639 64.6401L190.333 65.0343L190.003 65.2466L189.673 65.3982L189.366 65.5195L189.178 65.8531V66.2776L189.531 67.3692L189.575 67.5208L189.885 67.9454L190.238 68.3092L190.734 68.5821L190.804 68.7641L190.757 68.9157L190.545 69.1583L190.309 69.3705L190.144 69.5525L190.097 69.9164L190.286 70.4622L190.356 70.8867L190.38 71.2506L190.144 71.7054L189.885 71.948L189.602 72.13L188.942 72.3422L187.504 72.5545H187.315H186.655H186.467L186.042 72.4939L185.665 72.3726L185.382 72.2209L185.146 72.0693L184.981 71.8874L184.486 71.008L184.345 70.8564L184.227 70.7654L183.991 70.6138L183.614 70.5532L183.31 70.5072L183.025 70.5532L182.789 70.7048L182.577 70.917L182.129 71.6145L182.035 71.7964L182.058 71.948L182.176 72.1906L182.506 72.6455L183.143 73.4035L183.425 73.8887L183.638 74.192L183.968 74.3132L184.283 74.3386L184.934 74.3132L184.958 74.3197L185.123 74.3132L185.453 74.4042L185.712 74.5558L185.877 74.7378L185.948 75.041V75.3746L185.712 75.981L185.594 76.3752L185.571 76.7694L185.877 77.1636L186.184 77.4062L187.056 77.8914L187.221 78.0733L187.268 78.3159L187.079 78.5888L186.867 78.8011L186.702 79.074L186.679 79.4379L187.079 80.2869L187.174 80.5598L187.15 80.8024L186.891 81.0753L186.584 81.2573L184.698 81.9244L184.533 82.1973L184.463 82.6218L184.604 83.4406V83.8651L184.416 84.4109L184.133 84.6232L183.826 84.8354L180.337 85.5935L180.078 85.8664L179.984 86.2909L180.031 87.231L180.384 87.8071L180.573 88.2316L180.644 88.5349L180.455 88.9897L180.29 89.2929L178.734 91.1123L178.64 91.3246L178.619 91.5139L178.781 91.5975L181.422 92.0827L184.062 92.8408L184.486 92.9014L184.911 92.9317L186.302 92.6588L186.632 92.6892L186.891 92.8104L186.957 92.8747L187.079 92.9317L187.268 93.1137L187.339 93.3563L187.268 93.6292L186.914 93.9627L185.948 94.4479L185.83 94.6298L185.901 94.8724L186.165 95.0663L186.349 95.1757L187.032 95.4486L188.494 95.9034L192.101 96.3583L192.478 96.2976L192.761 96.1763L192.973 95.9641L194.27 94.0234L194.505 93.8414L194.859 93.8111L195.708 93.9627L196.462 94.175L196.651 94.2962L196.651 94.2963L196.745 94.3569L196.933 94.4782L197.028 94.7511L196.509 95.6002L195.543 96.8434L195.095 97.177L194.835 97.3286L193.798 98.1473L193.68 98.3596L193.633 98.6325L193.68 98.9054L193.892 99.2087L194.077 99.3595L195.401 100.058L195.437 100.098L195.59 100.179L195.802 100.422L195.92 100.816L195.731 101.574L195.755 103.12L195.826 103.393L195.873 103.939L195.778 104.333L195.59 104.849L195.024 105.455L194.6 105.668L194.175 105.789L193.94 105.94L193.704 106.183L193.492 106.517L192.077 110.58L191.983 111.308L192.007 112.612L192.101 113.339L192.266 113.855L192.525 114.158L193.095 114.588L193.916 114.977L194.435 115.128L194.859 115.341L194.888 115.382L195.048 115.462L195.26 115.765L195.283 116.22L195.118 116.705L194.529 117.221L194.01 117.554L193.515 117.797L193.138 118.13L192.855 118.585L192.761 119.343V120.405L192.69 120.708L192.502 120.89L192.054 121.223L191.323 121.557L191.087 121.769L190.993 122.042L191.087 122.497L191.323 123.073L191.417 123.316L191.441 123.619L191.346 124.498L190.781 126.136L188.612 130.654L188.595 130.676L186.136 133.959L185.17 134.778L183.496 135.263L182.671 135.627L182.247 135.9L181.94 136.264L181.492 137.113L181.209 137.355L180.879 137.537L179.654 137.81L178.098 138.447L177.65 138.75L177.343 139.053L176.966 139.842L176.612 140.448L176.282 140.721L175.952 140.903L175.245 141.085L172.817 141.267L171.709 141.479L165.886 143.663H163.364L163.01 143.572L162.869 143.39L162.704 143.177L162.326 143.056H161.666L158.979 143.45L151.907 143.329L150.304 143.026L150.091 142.905L149.95 142.814L149.643 142.419L149.549 142.238L149.526 142.207L149.29 141.752L149.196 141.51L149.078 141.267L149.004 141.078L148.842 140.812L148.653 140.63L148.418 140.509L148.041 140.418L147.522 140.388H146.555L146.06 140.509L144.009 141.51L143.609 141.57L143.302 141.479L142.831 141.146L142.618 140.964L142.147 140.63L141.888 140.509L141.416 140.418L139.624 140.509L135.357 141.843L135.075 141.995L134.839 142.146L134.391 142.51L133.071 144.027L132.316 144.572L131.491 144.967L130.949 145.118L130.454 145.149L130.1 145.058L129.558 144.785L129.228 144.663L125.056 144.724L120.836 143.087L120.411 142.783L119.987 142.419L120.058 142.328L119.916 142.207L120.081 141.995L120.294 141.813L120.789 141.479L121.048 141.328L121.284 141.146L121.449 140.934V140.782L121.307 140.661L121.001 140.539L120.152 140.479L119.374 140.539H118.855L118.243 140.448L117.158 140.145L116.663 139.903L116.333 139.69L116.192 139.508L116.05 139.326L115.994 139.132L115.979 139.114L115.909 138.872L115.885 138.629L115.909 138.295L115.866 137.99L115.767 137.719L115.531 137.477L115.296 137.325L113.646 136.415L113.363 136.051L113.353 135.918L113.292 135.839L113.268 135.506L113.386 135.233L113.787 134.808L114.541 134.141L114.636 134.08L114.753 134.02L114.966 133.959L115.178 133.929L116.616 134.111H116.734L116.781 134.08L117.064 133.959L117.276 133.777L117.417 133.535L117.488 133.262L117.534 132.314L117.37 131.564L117.064 131.169L116.64 130.957L113.716 130.987L112.868 130.927L112.467 130.836L111.901 130.533L111.217 130.047L108.742 127.894L107.846 127.5L105.842 126.257L105.088 125.923L104.475 125.742L102.919 125.893L101.528 126.196L101.222 126.318L100.986 126.469L100.845 126.682L100.798 126.924V127.197L100.75 127.44L100.562 127.409L100.277 127.668L100.185 127.834L100.161 128.076L100.208 128.289L100.232 128.531L100.161 128.713L100.055 128.774L100.02 128.865L99.8074 128.986L99.1946 129.198L98.8881 129.32L98.7959 129.412L98.6523 129.623L98.5483 129.72L98.5109 129.775L98.0865 130.169L97.8743 130.351L97.6151 130.502L97.285 130.593L96.8842 130.624L94.1025 130.472H93.6781L93.301 130.533L92.9709 130.624L92.7116 130.775L92.2401 131.109L91.7686 131.503L91.5093 131.655L91.1793 131.746L90.3777 131.837L90.0241 131.897L89.7412 132.049L89.5055 132.2L88.8454 132.777L88.5861 132.958L88.256 133.049L87.8553 133.08L86.9359 133.049L86.5587 133.08L86.2287 133.201L85.6864 133.504L85.4036 133.626L85.0735 133.717H84.6492L80.4294 133.11H80.1465L79.8165 133.14L79.51 133.262L79.2271 133.413L78.5435 133.959L77.8127 134.353L72.367 133.504L70.9526 133.413L70.0331 133.444L69.6794 133.595L69.2316 133.717L68.4773 133.838L68.0057 133.717L67.6285 133.595L66.9449 133.292L66.3792 133.171L65.6247 133.14L65.1768 133.08L64.7996 132.958L64.5403 132.807L64.3046 132.625L64.0924 132.443L63.9274 132.261L63.8331 132.049L63.8567 131.776L63.9274 131.109L63.8802 130.806L63.6208 130.411L63.2437 130.29L62.843 130.108L61.4757 130.138L61.0278 130.017L60.6741 129.865L58.6703 128.562L58.4582 128.38L58.2695 128.198L58.2224 127.955L58.2695 127.652L58.4817 127.076L58.6703 126.863L58.6958 126.858L58.7174 126.833L58.9767 126.773L59.684 126.803L60.014 126.742L60.2475 126.633L60.4384 126.469L60.627 126.227L60.9335 125.742L61.0513 125.469L61.0984 125.196V124.923L60.9099 124.165L60.5327 123.255L60.2734 122.8L59.9905 122.376L59.5897 122.012L58.6231 121.345L57.0438 120.496L56.9494 120.374L56.8315 120.192L56.8787 119.616L56.7844 119.252L56.5015 119.101L56.1243 119.04L54.9928 119.01L54.0734 118.888L53.649 118.707L53.4368 118.464L53.4604 118.191L53.5547 117.948L53.6962 117.676L53.7668 117.433L53.6725 117.16L53.1304 116.826L52.8475 116.523L52.5881 116.22L52.376 115.826L51.9988 115.644L51.5981 115.523H51.1973L50.8672 115.614L50.5608 115.735L49.7357 116.159L49.4291 116.281L48.6984 116.402L47.8733 116.432L44.1486 116.19L43.2999 116.22L42.6398 116.402L41.6261 117.008L41.0839 117.069L40.2823 117.039L37.0056 116.463L36.652 116.523L36.369 116.675L35.8032 117.342L35.544 117.554L35.1903 117.736L34.5774 117.797L34.153 117.706L33.8466 117.554L33.3987 117.099L33.0215 116.796L32.22 116.372L31.6306 116.19L31.1355 116.129L29.1317 116.493L28.3774 116.463L27.9766 116.341L27.7644 116.129L27.788 115.886L27.9058 115.614L28.0709 115.371L29.0374 114.31L29.6976 113.339L30.1454 112.551L30.3576 111.975L30.7348 110.519L30.7584 110.277L30.4754 110.004L29.8861 109.61L27.6466 108.457L27.01 108.215L23.309 107.305L22.6252 107.062L22.2009 106.82L22.1831 106.793L22.1773 106.789L22.0358 106.577L21.9415 106.335L21.8944 106.062V105.789L21.9415 105.486L22.0123 105.182L22.4366 104L22.743 102.756L22.7903 102.18L22.7667 101.907V101.695L22.6016 101.21L22.5074 100.967L22.3423 100.755L22.1773 100.543L21.8472 100.24L20.1735 99.2087L19.4898 98.9661L18.9476 98.8751L18.5233 98.9054L17.934 98.8751L17.0853 98.7235L16.2838 98.2686L15.8358 98.0867L15.4586 97.9957L15.1286 98.0261L14.8221 98.1473L14.5864 98.3293L14.2328 98.5112L13.8321 98.6325H13.1013L12.7712 98.4809L12.5591 98.2686L12.4647 98.0564L12.2054 95.9337L12.4883 91.6582L12.5388 91.3858L12.5826 90.9911L13.8557 87.14L13.9028 86.5639L13.8353 86.0717L9.23548 84.4861L5.87231 83.3431L5.0943 81.9482L5 81.554L5.0943 81.2508L5.3537 81.0992L5.70721 81.0385L5.74443 81.0402L5.75439 81.0385L7.03794 81.0975L7.40466 81.0385L7.71106 80.9476L7.89966 80.7656L7.94678 80.523L7.75818 79.9469L7.80975 79.9355L9.77783 79.5L9.34863 78L11.8486 69L12.3486 48.5L14.3486 40.5L23.8486 35.5L41.8486 21L53.3486 22.5L80.3486 19.5H92.8486L105.849 23.5L114.849 25L133.849 17L132.349 14L130.849 11.5L132.849 5L155.849 8H160.849L174.849 7.5L189.849 0.5L198.849 2L206.685 0Z" fill="url(#paint6_linear)"/>
<defs>
<linearGradient id="paint0_linear" x1="-156.341" y1="-9.32663" x2="214.633" y2="39.0461" gradientUnits="userSpaceOnUse">
<stop stop-color="#3A90B6"/>
<stop offset="1" stop-color="#075F92"/>
</linearGradient>
<linearGradient id="paint1_linear" x1="-156.341" y1="-9.32663" x2="214.633" y2="39.0461" gradientUnits="userSpaceOnUse">
<stop stop-color="#3A90B6"/>
<stop offset="1" stop-color="#075F92"/>
</linearGradient>
<linearGradient id="paint2_linear" x1="-156.341" y1="-9.32663" x2="214.633" y2="39.0461" gradientUnits="userSpaceOnUse">
<stop stop-color="#3A90B6"/>
<stop offset="1" stop-color="#075F92"/>
</linearGradient>
<linearGradient id="paint3_linear" x1="-156.341" y1="-9.32663" x2="214.633" y2="39.0461" gradientUnits="userSpaceOnUse">
<stop stop-color="#3A90B6"/>
<stop offset="1" stop-color="#075F92"/>
</linearGradient>
<linearGradient id="paint4_linear" x1="-156.341" y1="-9.32663" x2="214.633" y2="39.0461" gradientUnits="userSpaceOnUse">
<stop stop-color="#3A90B6"/>
<stop offset="1" stop-color="#075F92"/>
</linearGradient>
<linearGradient id="paint5_linear" x1="-156.341" y1="-9.32663" x2="214.633" y2="39.0461" gradientUnits="userSpaceOnUse">
<stop stop-color="#3A90B6"/>
<stop offset="1" stop-color="#075F92"/>
</linearGradient>
<linearGradient id="paint6_linear" x1="153" y1="158" x2="78.3209" y2="-33.7243" gradientUnits="userSpaceOnUse">
<stop stop-color="#59BDE4"/>
<stop offset="0.260417" stop-color="#43A9D5"/>
<stop offset="0.697917" stop-color="#0B77B0"/>
<stop offset="1" stop-color="#015E94"/>
</linearGradient>
</defs>
</svg>
