<svg width="246" height="151" viewBox="0 0 246 151" fill="none" xmlns="http://www.w3.org/2000/svg">
<path opacity="0.1" d="M178.322 25.1523L179.029 25.2433L179.713 25.1826L180.09 25.2433L180.444 25.4859L180.868 25.9407L181.316 26.6685L182.259 27.4568L182.565 27.6691L182.777 27.9117L182.966 28.1846L183.155 28.7001L183.414 29.064L183.909 29.3975L184.38 29.5492L185.795 29.7614L186.573 29.9434L186.832 30.0647L186.974 30.1556L188.223 31.3079L188.695 31.4899H189.072L189.685 31.2473L190.251 30.9743L190.722 30.7014L191.099 30.5195L191.359 30.4589H191.618L191.924 30.5498L192.419 30.7924L192.608 31.035L192.726 31.3686L192.82 32.2176L192.631 32.5512L192.349 32.7938L189.991 33.3699L189.779 33.4912L189.85 33.946L191.382 37.0997L191.571 37.3726L192.16 37.6455L192.631 37.8274L194.282 38.2216L194.682 38.2519H195.06L196.097 38.0094L196.451 37.979L196.828 38.07L200.081 42.103L200.552 42.5882L200.859 42.7398L202.533 43.3766L202.839 43.5888L203.028 43.8921L203.122 44.5289L203.098 44.9534L203.028 45.3476L202.486 46.8031L202.438 47.1063L202.486 47.4702L202.698 48.7135L202.58 49.0774L202.368 49.3503L202.085 49.4716L201.802 49.5322L201.495 49.5019L200.859 49.3199H200.482L200.152 49.3806L199.892 49.5019L199.68 49.7142L199.562 49.9567L199.774 50.4722L200.222 51.1697L202.792 54.0201L204.136 55.0814L204.419 55.233L204.725 55.324L205.079 55.3543L205.409 55.2936L206.045 55.0814L206.375 55.0207H206.729L207.106 55.1117L207.389 55.233L208.356 55.8698L208.874 56.2943L209.157 56.6279L209.346 56.7795L209.581 56.9008H209.841L210.147 56.8401L210.737 56.6279L211.067 56.5672L211.397 56.6582L213.754 57.7801L213.99 58.053L214.178 58.4169L225.296 54.175L225.32 54.6299L225.226 56.4493L225.32 56.7222L225.508 57.0254L226.004 57.3286L226.404 57.5106L231.137 59.2997L231.467 59.6332L231.702 60.0577L231.962 62.0894L232.127 62.423L232.504 62.9081L232.787 63.181L233.117 63.4236L234.979 64.212L235.239 64.4243L235.474 64.6972L236.016 65.9708L236.087 66.3346V66.7592L235.946 67.5476L235.734 67.9721L235.521 68.245L235.286 68.3966L233.777 69.0334L233.494 69.185L233.235 69.367L233.023 69.5792L230.264 72.7329L230.288 73.0664L230.5 73.5213L231.137 74.2793L231.844 74.9465L232.339 75.2497L235.168 77.5846L235.498 77.9788L239.633 82.9821L239.822 83.528L239.916 84.7409L239.751 88.0461L239.02 90.0475L238.855 90.29L237.37 93.2314L237.323 93.474L237.394 93.7166L237.865 94.0501L238.69 94.4747L238.95 94.6263L239.185 94.8082L239.374 94.9902L239.539 95.2024L240.081 96.0515L240.718 97.7193L240.836 98.4773L240.883 100.357L240.977 100.843L241.024 100.994L241.095 101.146L241.448 101.752L241.566 101.964L239.863 103.148L240.052 103.33L240.334 103.481L241.655 103.663L241.985 103.754L242.103 103.967V104.27L245.055 104.543L244.82 104.876L244.395 105.21L241.213 106.999L240.718 107.363L240.364 107.696L240.034 107.909L239.539 108.06L241.407 109.03L240.299 108.818L240.016 108.666L239.71 108.514L239.451 108.363L237.588 107.574L236.81 107.362L236.363 107.332L235.915 107.423L235.443 107.726L235.184 108.029L234.995 108.302L234.854 108.575L233.477 109.03L232.793 109.576L231.52 110.303L231.096 110.425L230.577 108.485L229.681 108.455L229.092 108.394L228.691 108.243L227.819 107.818L227.159 107.576L226.734 107.545L226.31 107.606L225.862 107.909L225.721 108.212L225.626 108.516L225.673 108.789L225.626 109.061L225.579 109.304L225.296 109.547L224.825 109.668H223.858L212.34 113.577L212.01 113.425L211.892 113.183L211.821 112.94L211.656 111.636L211.373 110.909L211.09 110.484L210.925 111.332L208.12 108.967L207.625 108.361L207.507 108.148L207.483 107.906V106.208L207.46 105.935L207.342 105.723L207.059 105.632L206.635 105.662L205.998 105.995L205.079 106.602L204.702 106.723L204.206 106.814H203.358L202.203 106.693L201.401 106.511L201.071 106.39L200.859 106.208L200.765 105.935L200.717 105.692L200.6 105.48L200.364 105.328L199.704 105.025L199.468 104.874L199.421 104.631L199.468 104.055L199.445 103.812L199.279 103.6L198.997 103.479L198.619 103.448L198.242 103.57L197.205 104.115L196.451 104.297L195.531 104.904L195.319 105.146L195.272 105.389L195.343 105.632L195.46 105.874L195.555 106.117L195.508 106.329L195.272 106.481L194.895 106.572L193.857 106.42L193.056 106.208L192.631 106.177L192.184 108.238L191.689 108.541L191.406 108.784L190.321 110.179L189.638 110.846L188.789 111.938L188.506 112.15L188.247 112.271L185.724 113.332L185.253 113.666L184.923 113.939L184.64 114.424L184.569 114.697L184.687 114.909L184.923 115.061L185.182 115.212L185.394 115.394L185.536 115.607V115.88L185.489 116.152L185.394 116.456L184.899 117.608L184.734 117.851L184.357 118.093L183.815 118.245L182.589 118.305L182 118.214L181.599 118.063L181.481 117.82L181.316 117.638L180.844 117.608L178.817 117.851L178.346 117.79L178.18 117.669L178.133 117.456L177.992 117.305L177.709 117.153L177.355 117.062H176.978L176.577 117.183L175.328 118.033L174.951 118.214L171.745 118.912L170.778 119.336L170.236 119.67L169.835 120.155L169.411 120.519L168.539 121.095L168.114 121.489L167.666 121.762L167.077 121.914L166.228 121.793L165.757 121.52L165.474 121.156L165.097 119.973L164.932 119.609L164.696 119.245L164.437 118.942L164.13 118.669L163.8 118.427L161.537 117.456L155.95 116.152L155.384 116.092L152.862 116.001L152.437 116.122L151.942 116.334L151.494 116.88L151.235 117.365L150.787 117.729L150.151 117.911L145.907 117.851L143.691 117.365L143.102 117.305L142.465 117.456L141.829 117.942L141.546 118.366L141.428 118.851V119.761L141.617 121.065L141.664 122.429L141.593 122.854L141.31 123.673L140.98 124.006L140.58 124.309L138.67 125.34L138.01 125.886L137.798 126.22L137.633 126.614L137.538 127.039L137.232 127.827L136.69 128.888L136.148 129.252L135.205 129.586L132.965 130.041L131.456 130.495L129.853 130.859H128.957L128.392 130.92L127.708 131.435L127.401 131.557L127.024 131.435L126.812 131.253L126.341 130.647L126.128 130.495L125.963 130.374L125.681 130.253L124.596 129.95L123.677 129.859L122.451 129.919L122.027 129.889L120.423 129.555L119.551 129.464L117.029 129.525L116.392 129.646L112.951 131.011L111.795 131.253H108.849L108.306 131.314H107.835L107.41 131.253L107.081 131.132L106.279 130.677L104.935 130.162L102.79 129.737L101.022 129.646L99.8666 129.373L99.018 129.282L95.4348 129.434L94.6097 129.252L93.926 129.282L91.3799 129.677L90.5077 129.737L89.9419 129.646L89.7061 129.495L89.3289 129.1L88.9754 128.979L88.386 128.949L87.4194 129.01L86.8773 128.949L86.453 128.858L86.1229 128.737L85.7457 128.646L85.2743 128.615H84.2369L83.3882 128.494H82.7989L82.0445 128.615L79.6163 129.525L77.424 130.829L75.7737 131.617L75.1609 132.133L74.9487 132.466L75.2787 132.891L75.373 133.134L75.4201 133.346L75.4437 133.558L75.3966 133.74L74.713 135.65L74.5715 135.923L74.0292 136.317L71.389 137.834L70.6818 138.379L70.4224 138.774L70.6111 138.925L70.9175 139.077L72.4262 139.532L72.7327 139.683L72.9213 139.835L73.0156 140.078V141.472L72.9449 142.018L72.7327 142.594L72.2376 142.807L71.5068 143.019L66.2262 143.383L65.8726 143.292L65.6133 143.171L65.4011 143.019L65.2596 142.807L64.8589 142.443L64.5995 142.261L64.2695 142.14L62.9493 141.988L61.2756 142.018L60.8513 142.14L60.4504 142.352L59.9318 142.807L59.6961 143.171L59.6018 143.504L59.4839 144.08L59.4132 144.383L59.2718 144.656L59.1068 144.929L49.7006 148.022L49.3234 148.416L49.1112 148.568L48.7576 148.629H48.2626L47.1782 148.447L46.6595 148.234L46.3059 148.022L46.1409 147.81L45.9052 147.658L45.6223 147.507L45.2451 147.416L44.585 147.476L43.8306 147.689L41.756 148.72L39.8937 149.932L38.9979 150.145L36.6641 149.993L35.5796 149.235L34.9667 148.871L34.613 148.75L34.2595 148.659L33.8587 148.629L33.4815 148.659L32.7271 148.78L25.2146 148.72L24.6724 148.781H24.3659L24.1301 148.629L24.0359 148.356L24.083 147.901L24.2244 147.629L24.4131 147.447L25.7332 146.749L25.9689 146.567L26.3697 146.204L26.6054 145.809L26.7704 145.385L26.9119 145.203L27.0062 145.142H27.2892H27.4541L31.6899 146.051L32.1378 145.748L32.4678 145.475L32.6093 145.293L32.7271 145.081L32.8214 144.808L32.8686 144.505L32.845 144.232L32.4207 143.261L27.407 140.867L24.1104 139.775L23.4032 138.987L22.8138 138.107L22.6487 137.743L22.5073 137.197L22.5545 135.166L22.5073 134.923L22.2952 134.681L21.8237 134.468L18.7119 133.589L16.3781 132.497L15.8829 132.194L15.4586 131.8L15.3407 131.527L19.2701 132.133L19.3878 131.435L19.6 131.102L19.9065 130.89L21.1324 130.465L21.4153 130.313L21.6039 130.162L21.6274 129.919L21.321 129.677L20.9909 129.525L20.6137 129.404L20.1894 129.191L19.7179 128.919L19.1285 128.342L18.6571 128.13L18.2092 128.009L16.2761 128.13L13.7301 127.888L13.3529 127.797L13.0228 127.19L11.8677 122.854L11.5612 122.247L11.2077 122.126L9.48672 121.793L9.20383 121.641L8.99164 121.459L8.80307 121.186L10.6144 120.853L10.4023 120.307V119.943L10.6617 119.64L10.9445 119.488L11.8167 119.063L11.9818 118.821V118.457L11.7697 117.911L11.5574 117.578L11.3453 117.305L10.921 116.941L10.638 116.789L10.308 116.668L9.90726 116.607H8.7757L8.42206 116.547L8.18631 116.395L7.69122 116.061L7.43192 115.91L6.11179 115.394L5.8996 115.212L5.87604 115L6.11179 114.758L6.37109 114.545L6.65399 114.272L7.19617 113.272L7.52625 112.999L7.90344 112.847L8.30417 112.817L8.61063 112.665L8.7757 112.392L8.61063 111.574L5.53995 110.452L5.51636 110.392L5.25705 110.058L5.0213 109.876L4.73843 109.725L4.3848 109.634L3.93686 109.573L1.74448 109.512L1.34372 109.421L0.683655 109.148L0.447876 108.967L0.259338 108.785L0.117828 108.512L0 108.178V107.663L0.141449 107.238L0.400757 106.814L1.24939 106.055L1.57947 105.874L1.83878 105.752L4.2905 104.843L5.65781 104.479L5.89355 104.266L6.035 103.933L5.94067 103.235V102.811L6.01138 102.447L6.43576 102.113L6.7894 101.932L8.13309 101.507L8.36884 101.264L8.48672 100.931L8.25095 100.203L8.08597 99.8089L7.96808 99.445L7.99164 99.1418L8.22739 98.7476L8.72247 98.2927L8.79315 97.9895L8.69882 97.6559L8.25095 97.2011L7.89734 96.9282L7.52014 96.7462L6.45932 96.3824L6.17645 96.2307V95.7152L7.80307 94.5023L10.5848 95.0784L10.8913 95.2907L11.1977 95.5333L11.0563 95.7456L10.7498 95.8669L10.4198 95.9578L10.1369 96.1094L9.97192 96.352L10.0426 96.8372L10.3255 97.2314L10.8206 97.6256L12.2586 98.323L13.4137 98.6263L17.61 98.414L22.4252 99.4747L22.8966 99.323L23.1324 99.1108L22.9909 98.3527L23.0145 98.0798L23.1088 97.8372L23.321 97.6249L23.5331 97.443L24.594 96.8365L25.0655 96.503L25.6784 95.8965L25.8906 95.563L26.2678 94.8352L26.4563 94.5926L26.6921 94.4107L27.5644 94.1074L29.0967 93.3797L29.8275 93.2584H32.1849L32.9157 93.1977L33.3872 93.0461L34.1887 92.288L34.7781 91.9241L35.226 91.8029L35.6975 91.8332L36.2161 91.9241L38.3378 92.0454L38.7621 92.1364L39.4458 92.4093L39.7758 92.5003L40.4124 92.5913L40.7189 92.47L40.8131 92.2577L40.7424 92.0454L40.601 91.8332L40.1058 91.2267L39.988 91.0751L39.9409 90.9538L39.9644 90.7415L40.2709 90.4686L40.7424 90.1957L41.756 89.8319L42.2275 89.468L42.9819 88.8312L43.3827 88.7402L43.7834 88.8009L45.3159 89.2254L45.5751 89.3467L45.5987 89.5589L45.5044 89.7712L44.7028 90.5899L44.3728 91.0448L44.2549 91.3177V91.5603L44.3492 91.7726L44.585 91.9545L44.9387 92.0758L57.3858 93.8648L57.7159 93.9558L57.9516 94.0771L58.0223 94.2591L57.9988 94.532L57.9752 94.8049L58.0695 95.1081L58.3288 95.381L59.036 95.6236L59.6489 95.6539L60.0261 95.5023L60.2383 95.2597L61.6292 91.4693L62.0535 90.6809L62.1714 90.408L62.195 90.1351V89.5893L62.2893 89.0131L62.5014 88.437L62.7136 88.1641L63.0673 87.8912L63.7509 87.5576L64.2695 87.4666H64.7646L65.1654 87.5273L65.5426 87.6183L65.849 87.7395L66.3912 88.0731L66.6034 88.2247L66.9806 88.6189L67.1456 88.8615L67.3578 89.0738L67.6879 89.2861H68.1594L70.5167 88.7402L70.8939 88.6189L71.6955 88.1337H72.0727L72.4026 88.1944L74.3829 88.9525H74.713L74.9722 88.8312L75.3966 88.4067L76.3396 87.1937L76.6461 86.9511L76.929 86.9208L77.1882 87.0118L77.754 87.3454L78.2491 87.4666L79.1213 87.5576L80.1586 87.3454L80.795 87.2847L81.2666 87.315L81.5495 87.4666L81.7853 87.6486L83.1761 89.2557L83.4354 89.468L83.8126 89.6499L84.1898 89.6802L84.5198 89.6196L85.8164 89.1344L88.1503 88.7099L88.4096 88.5886L89.1875 87.9821L89.5647 87.7699L90.2249 87.4969L90.6492 87.5576L91.7571 87.8912L92.488 87.8608L92.9123 87.7092L93.6195 87.1937L94.3268 86.9511L94.7747 86.9208L95.1047 87.0421L95.2933 87.2544L95.4583 87.4666L95.7412 87.7092L96.1656 87.8912L97.1321 88.0125L97.6508 87.7092L97.9337 87.406L97.9572 87.1028L97.91 86.284L97.9337 86.0111L98.0279 85.7382L98.1693 85.4653L99.8666 83.4943L100.173 83.2214L100.574 82.9181L101.847 82.2813L102.201 82.0691L102.861 81.493L103.568 80.9471L105.336 79.8858L105.737 79.5219L106.161 79.249L109.108 77.7935L109.344 77.6116L109.532 77.4296L109.815 77.0658L110.97 75.216L111.395 74.8521L112.031 74.458L114.224 73.4573L114.624 73.1844L114.719 73.0328L114.766 72.7902L114.86 71.9411L114.836 71.6682L114.789 71.3953L114.695 71.1527L114.483 70.9708L114.176 70.8495L113.351 70.6978L113.021 70.5766L112.809 70.4249L112.691 70.1824L112.644 69.9095L112.691 69.0907L112.88 68.8178L113.163 68.5449L114.035 68.0294L114.247 67.7868L115.119 66.2403L115.85 65.3306L115.992 65.088L116.039 64.8151L116.015 64.5726L115.897 64.33L115.614 63.9055L115.567 63.6629L115.638 63.4203L115.779 63.1474L116.769 62.0861L116.935 61.8132L117.547 59.3266V59.0537L117.43 58.8111L117.217 58.6292L116.935 58.4776L116.699 58.2957L116.534 58.1137L116.51 57.8711L116.557 57.6285L116.652 57.3859L116.722 57.2646L117.524 56.2033L117.642 55.9607L117.689 55.7182L117.5 55.5059L117.241 55.3543L116.628 55.0814L116.392 54.9298L116.274 54.7175L116.345 54.5052L116.51 54.293L117.217 53.7471L117.453 53.5652L118.113 52.6858L118.632 52.231L119.033 51.9884L119.457 51.8671L121.932 51.6852L127.354 49.1987L128.038 49.047L128.816 48.9864H131.386L132.163 48.9257L133.389 48.6225L133.932 48.5619H134.262L134.662 48.6225L134.922 48.7438L135.134 48.9257L135.228 49.1683L135.299 49.4109L135.393 49.6535L135.511 49.8658L135.676 50.0477L135.865 50.26L136.124 50.4116L136.407 50.5632L136.666 50.7148L136.808 50.9271L136.902 51.1697L136.973 51.6852L137.067 51.9277L137.232 52.1097L137.751 52.5039L138.128 52.8374L138.34 53.0194L138.717 53.1407L138.929 53.1104L139.094 52.9891L139.212 52.7465L139.401 52.14L139.589 51.8065L139.943 51.4123L140.297 51.291L140.674 51.3213L140.957 51.4426L141.216 51.5942L141.593 51.7458L142.112 51.8065L143.031 51.7761L143.526 51.6548L143.904 51.5032L144.116 51.3213L144.281 51.0787L144.399 50.8058L144.564 50.2296L144.658 49.7445L144.729 49.5322L144.941 49.1987L145.271 49.0774L145.648 49.047L145.978 49.1683L146.19 49.3199L146.308 49.5625L146.332 49.8354L146.261 51.2303L146.332 51.5032L146.52 51.6852L146.827 51.8368L153.475 52.6252L153.899 52.5342L154.111 52.4736L154.441 52.1097L155.125 51.1393L155.879 50.3509L157.105 49.5019L157.317 49.2896L157.435 49.047L157.459 48.7741L157.388 48.0161L157.459 47.7735L157.624 47.5612L159.392 46.045L160.052 45.0747L160.358 44.5895L160.523 43.983L160.547 43.4372L160.523 42.8914L160.406 42.4062L160.311 42.1637L160.24 41.9211L160.311 41.7088L160.523 41.4056L160.83 41.2236L161.16 41.1023L163.871 40.5262L164.46 40.3139L164.861 40.1017L164.955 39.8288L164.979 39.5558L164.79 39.101L164.295 38.2216L164.13 37.7365L164.012 37.221L163.965 36.6751L163.918 36.4022L163.824 36.19L163.305 35.3106L163.211 35.068L163.47 34.7041L164.06 34.3099L166.228 33.2183L166.723 32.9151L167.053 32.4299L167.383 31.7931L167.69 31.3989L167.973 31.3382L168.68 31.5202L169.175 31.5808L170.024 31.4899L170.495 31.3686L170.872 31.2169L172.358 30.186L172.782 29.7917L173.159 29.3672L173.301 29.1246L173.348 28.8517L173.324 28.5788L173.23 28.3362L173.065 28.124L172.641 27.7601L172.405 27.6085L172.028 27.2446L171.91 27.093L171.815 26.9717L171.768 26.7594V26.5168L171.792 26.2439L171.886 25.971L172.098 25.6071L172.428 25.213L173.183 24.6065L173.513 24.3639L173.866 24.1819L174.503 24.0303L174.904 24L175.799 24.0607L176.224 24.1516L176.907 24.3942L177.544 24.6671L178.322 25.1523Z" fill="#333333"/>
<path d="M237 86V95L232.5 98H229L225.5 96.5L223.5 97L220.5 98.5L218 99.5L216.5 99L215 100H212.5L208.5 94.5L207.5 94L205 93H202L200.5 91.8125L199 92L196 91L193 92L190.5 95L189 94.5L186.5 100L185.5 102.5L182.5 103L179.5 104L178.5 103.5L176 104L172.5 104.5L168 107H165.5L163.5 105.5L160.5 104.5L156.5 104H153.5L151.5 105L147.5 106H144H143.5L142 107.5L138.5 112.5L136 114L130.5 116.5H129L127.5 115.312L125 115L123 116L120.5 115L117.688 116L113 118L110 118.5L108.5 118L105.5 117L103 116.5L101 116L98 116.5L95.5 116L91.5 117L90 116H88L86.5 115.5H86L85 116H84L81.5 117.312L76 121L74 127L67 130L63 129L60 130L51 135H48L46.5 134H45L40.5 136H38L35 135L29 136V128L28 127.5L22 120.5V113.5L19.5 112.5L16.5 113L14.5 109H12.5L11 108V105H8.5L7 104V99.5L5 99L4 98V84.5L5 85H9.5L11.5 87L11 89L7 91L8.5 91.5L12.5 90L15 93L13 96H11.5L12.5 97L14.5 97.5L16.5 102H19.5L27.5 104.5L24.5 107L22 108L28 110L35 114.312L34.5 121L31.4444 124.889L35 124L38 124.5L40.5 125L45 122.5H46.5C46.5 122.1 47.5 122.667 48 123L51 122.5L60 118L63 117L67 118.5L74 116L69.5 115L76 107.5L81.5 104.5L84 104H85L86.5 103.5L88 104H90L91.5 105L95.5 104.5H98L101 105H103L105.5 105.5L108.5 106.5H110L113 106L117.688 104.5L120.5 104L123 104.5L125 104H127.5L129 104.5H130.5L136 102.5L138.5 100L142 93.5L144 91.5L147.5 92.5H151.5L153.5 91H157.5L160.5 92L164 93L166.5 96L168 97L172.5 94L176 93.5L177 92.5H178.5L179.5 93.5H182.5H185.5L186.5 91.5L184 90.5L185.5 88L189 87.5L190.5 86.5L193 83.5L196 83.9286V82L199 81L200.5 81.5L202 83.5L205 84L207 83.5L208.5 83V85.5L212.5 89.5L215 89L216.5 88L218 88.5L220.5 89.5L223.5 88.5L225.5 87.5L229.5 88L232 88.5L237 86Z" fill="url(#paint0_linear)"/>
<path d="M10 82.5V73H10.5L13 73.5L15 72.5L15.5 77.5L13 73.5L14 76.5L15 81.5L10 82.5Z" fill="url(#paint1_linear)"/>
<path d="M40.5 69L41 67H43L43.5 69L41.5 70L40.5 69Z" fill="url(#paint2_linear)"/>
<path d="M46.5 69.5V65.5L44 67.5L46.5 69.5Z" fill="url(#paint3_linear)"/>
<path d="M62.5 67.5L63.5 64.5C64 65.6667 65 68.1 65 68.5C65 68.9 63.3333 71 62.5 72V67.5Z" fill="url(#paint4_linear)"/>
<path d="M113.5 51C113.5 49.1667 113.6 45.4 114 45L119 46.5L120 49.5L113.5 51Z" fill="url(#paint5_linear)"/>
<path d="M117 34.5L117.5 30.5C118.667 30.8333 121.1 31.5375 121.5 31.6875C121.9 31.8375 121.667 33.625 121.5 34.5L119.5 37L117.5 39L117 34.5Z" fill="url(#paint6_linear)"/>
<path d="M164 17.5L164.5 11C165.167 11.5 166.7 12.7 167.5 13.5C168.3 14.3 168.5 16.5 168.5 17.5H164Z" fill="url(#paint7_linear)"/>
<path d="M161 18L161.5 17.5L163.5 19.5L163 21.5L160.5 22L161 18Z" fill="url(#paint8_linear)"/>
<path d="M173 2L173.5 1.5L179.5 5L172 7.5L173 2Z" fill="url(#paint9_linear)"/>
<path d="M194 8V14.5L188 12.5C187.167 11.8333 185.7 10.4 186.5 10L190.5 8L193.5 7L194 8Z" fill="url(#paint10_linear)"/>
<path d="M204 24.5V20L200.5 23.5L197 25L203.5 31.5V25L204 24.5Z" fill="url(#paint11_linear)"/>
<path d="M229 62L218.5 58.5L224 49L229 47V61.5L232 64.5V78.5L224 75L232 64.5L229 61.5V62Z" fill="url(#paint12_linear)"/>
<path d="M179.322 1.1523L180.029 1.24327L180.713 1.18262L181.09 1.24327L181.444 1.48586L181.868 1.94069L182.316 2.66846L183.259 3.45685L183.565 3.66911L183.777 3.91171L183.966 4.18463L184.155 4.70012L184.414 5.06401L184.909 5.39754L185.38 5.54916L186.795 5.76143L187.573 5.94337L187.832 6.06465L187.974 6.15562L189.223 7.30791L189.695 7.48985H190.072L190.685 7.24727L191.251 6.97435L191.722 6.70145L192.099 6.51952L192.359 6.45886H192.618L192.924 6.54984L193.419 6.79243L193.608 7.035L193.726 7.36856L193.82 8.21761L193.631 8.55118L193.349 8.79376L190.991 9.3699L190.779 9.4912L190.85 9.94603L192.382 13.0997L192.571 13.3726L193.16 13.6455L193.631 13.8274L195.282 14.2216L195.682 14.2519H196.06L197.097 14.0094L197.451 13.979L197.828 14.07L201.081 18.103L201.552 18.5882L201.859 18.7398L203.533 19.3766L203.839 19.5888L204.028 19.8921L204.122 20.5289L204.098 20.9534L204.028 21.3476L203.486 22.8031L203.438 23.1063L203.486 23.4702L203.698 24.7135L203.58 25.0774L203.368 25.3503L203.085 25.4716L202.802 25.5322L202.495 25.5019L201.859 25.3199H201.482L201.152 25.3806L200.892 25.5019L200.68 25.7142L200.562 25.9567L200.774 26.4722L201.222 27.1697L203.792 30.0201L205.136 31.0814L205.419 31.233L205.725 31.324L206.079 31.3543L206.409 31.2936L207.045 31.0814L207.375 31.0207H207.729L208.106 31.1117L208.389 31.233L209.356 31.8698L209.874 32.2943L210.157 32.6279L210.346 32.7795L210.581 32.9008H210.841L211.147 32.8401L211.737 32.6279L212.067 32.5672L212.397 32.6582L214.754 33.7801L214.99 34.053L215.178 34.4169L215.296 35.175L215.32 35.6299L215.226 37.4493L215.32 37.7222L215.508 38.0254L216.004 38.3286L216.404 38.5106L224.137 40.2997L224.467 40.6332L224.702 41.0577L224.962 43.0894L225.127 43.423L225.504 43.9081L225.787 44.181L226.117 44.4236L227.979 45.212L228.239 45.4243L228.474 45.6972L229.016 46.9708L229.087 47.3346V47.7592L228.946 48.5476L228.734 48.9721L228.521 49.245L228.286 49.3966L226.777 50.0334L226.494 50.185L226.235 50.367L226.023 50.5792L223.264 53.7329L223.288 54.0664L223.5 54.5213L224.137 55.2793L224.844 55.9465L225.339 56.2497L228.168 58.5846L228.498 58.9788L231.633 63.9821L231.822 64.528L231.916 65.7409L231.751 69.0461L231.02 71.0475L230.855 71.29L229.37 74.2314L229.323 74.474L229.394 74.7166L229.865 75.0501L230.69 75.4747L230.95 75.6263L231.185 75.8082L231.374 75.9902L231.539 76.2024L232.081 77.0515L232.718 78.7193L232.836 79.4773L232.883 81.3574L232.977 81.8425L233.024 81.9942L233.095 82.1458L233.448 82.7522L233.566 82.9645L234.863 85.1478L235.052 85.3297L235.334 85.4813L236.655 85.6633L236.985 85.7543L237.103 85.9665V86.2697L237.055 86.5426L236.82 86.8762L236.395 87.2098L233.213 88.9988L232.718 89.3627L232.364 89.6963L232.034 89.9085L231.539 90.0602L230.407 90.0298L229.299 89.8176L229.016 89.666L228.71 89.5143L228.451 89.3627L226.588 88.5743L225.81 88.3621L225.363 88.3317L224.915 88.4227L224.443 88.7259L224.184 89.0292L223.995 89.3021L223.854 89.575L223.477 90.0298L222.793 90.5757L221.52 91.3034L221.096 91.4247L220.577 91.4854L219.681 91.455L219.092 91.3944L218.691 91.2428L217.819 90.8182L217.159 90.5757L216.734 90.5453L216.31 90.606L215.862 90.9092L215.721 91.2124L215.626 91.5157L215.673 91.7886L215.626 92.0615L215.579 92.3041L215.296 92.5467L214.825 92.668H213.858L213.34 92.577L213.01 92.4254L212.892 92.1828L212.821 91.9402L212.656 90.6363L212.373 89.9085L212.09 89.484L211.925 89.3324L209.12 86.9672L208.625 86.3607L208.507 86.1485L208.483 85.9059V84.2078L208.46 83.9348L208.342 83.7226L208.059 83.6316L207.635 83.6619L206.998 83.9955L206.079 84.602L205.702 84.7233L205.206 84.8142H204.358L203.203 84.6929L202.401 84.511L202.071 84.3897L201.859 84.2078L201.765 83.9348L201.717 83.6923L201.6 83.48L201.364 83.3284L200.704 83.0251L200.468 82.8735L200.421 82.631L200.468 82.0548L200.445 81.8122L200.279 81.6L199.997 81.4787L199.619 81.4483L199.242 81.5696L198.205 82.1154L197.451 82.2974L196.531 82.9039L196.319 83.1465L196.272 83.389L196.343 83.6316L196.46 83.8742L196.555 84.1168L196.508 84.3291L196.272 84.4807L195.895 84.5717L194.857 84.42L194.056 84.2078L193.631 84.1774L193.184 84.2381L192.689 84.5413L192.406 84.7839L191.321 86.1788L190.638 86.8459L189.789 87.9375L189.506 88.1498L189.247 88.2711L186.724 89.3324L186.253 89.666L185.923 89.9389L185.64 90.424L185.569 90.6969L185.687 90.9092L185.923 91.0608L186.182 91.2124L186.394 91.3944L186.536 91.6066V91.8795L186.489 92.1525L186.394 92.4557L185.899 93.608L185.734 93.8506L185.357 94.0932L184.815 94.2448L183.589 94.3054L183 94.2144L182.599 94.0628L182.481 93.8203L182.316 93.6383L181.844 93.608L179.817 93.8506L179.346 93.7899L179.18 93.6686L179.133 93.4564L178.992 93.3047L178.709 93.1531L178.355 93.0621H177.978L177.577 93.1835L176.328 94.0325L175.951 94.2144L172.745 94.9119L171.778 95.3364L171.236 95.67L170.835 96.1552L170.411 96.519L169.539 97.0952L169.114 97.4893L168.666 97.7623L168.077 97.9139L167.228 97.7926L166.757 97.5197L166.474 97.1558L166.097 95.9732L165.932 95.6093L165.696 95.2454L165.437 94.9422L165.13 94.6693L164.8 94.4267L162.537 93.4564L156.95 92.1525L156.384 92.0918L153.862 92.0009L153.437 92.1221L152.942 92.3344L152.494 92.8802L152.235 93.3654L151.787 93.7293L151.151 93.9112L146.907 93.8506L144.691 93.3654L144.102 93.3047L143.465 93.4564L142.829 93.9415L142.546 94.3661L142.428 94.8512V95.7609L142.617 97.0648L142.664 98.4294L142.593 98.8539L142.31 99.6726L141.98 100.006L141.58 100.309L139.67 101.34L139.01 101.886L138.798 102.22L138.633 102.614L138.538 103.039L138.232 103.827L137.69 104.888L137.148 105.252L136.205 105.586L133.965 106.041L132.456 106.495L130.853 106.859H129.957L129.392 106.92L128.708 107.435L128.401 107.557L128.024 107.435L127.812 107.253L127.341 106.647L127.128 106.495L126.963 106.374L126.681 106.253L125.596 105.95L124.677 105.859L123.451 105.919L123.027 105.889L121.423 105.555L120.551 105.464L118.029 105.525L117.392 105.646L113.951 107.011L112.795 107.253H109.849L109.306 107.314H108.835L108.41 107.253L108.081 107.132L107.279 106.677L105.935 106.162L103.79 105.737L102.022 105.646L100.867 105.373L100.018 105.282L96.4348 105.434L95.6097 105.252L94.926 105.282L92.3799 105.677L91.5077 105.737L90.9419 105.646L90.7061 105.495L90.3289 105.1L89.9754 104.979L89.386 104.949L88.4194 105.01L87.8773 104.949L87.453 104.858L87.1229 104.737L86.7457 104.646L86.2743 104.615H85.2369L84.3882 104.494H83.7989L83.0445 104.615L80.6163 105.525L78.424 106.829L76.7737 107.617L76.1609 108.133L75.9487 108.466L76.2787 108.891L76.373 109.134L76.4201 109.346L76.4437 109.558L76.3966 109.74L75.713 111.65L75.5715 111.923L75.0292 112.317L72.389 113.834L71.6818 114.379L71.4224 114.774L71.6111 114.925L71.9175 115.077L73.4262 115.532L73.7327 115.683L73.9213 115.835L74.0156 116.078V117.472L73.9449 118.018L73.7327 118.594L73.2376 118.807L72.5068 119.019L67.2262 119.383L66.8726 119.292L66.6133 119.171L66.4011 119.019L66.2596 118.807L65.8589 118.443L65.5995 118.261L65.2695 118.14L63.9493 117.988L62.2756 118.018L61.8513 118.14L61.4504 118.352L60.9318 118.807L60.6961 119.171L60.6018 119.504L60.4839 120.08L60.4132 120.383L60.2718 120.656L60.1068 120.929L50.7006 124.022L50.3234 124.416L50.1112 124.568L49.7576 124.629H49.2626L48.1782 124.447L47.6595 124.234L47.3059 124.022L47.1409 123.81L46.9052 123.658L46.6223 123.507L46.2451 123.416L45.585 123.476L44.8306 123.689L42.756 124.72L40.8937 125.932L39.9979 126.145L37.6641 125.993L36.5796 125.235L35.9667 124.871L35.613 124.75L35.2595 124.659L34.8587 124.629L34.4815 124.659L33.7271 124.78L30.2146 125.72L29.6724 125.781H29.3659L29.1301 125.629L29.0359 125.356L29.083 124.901L29.2244 124.629L29.4131 124.447L30.7332 123.749L30.9689 123.567L31.3697 123.204L31.6054 122.809L31.7704 122.385L31.9119 122.203L32.0062 122.142H32.2892H32.4541L32.6899 122.051L33.1378 121.748L33.4678 121.475L33.6093 121.293L33.7271 121.081L33.8214 120.808L33.8686 120.505L33.845 120.232L33.4207 119.261L32.407 117.867L31.1104 116.775L30.4032 115.987L29.8138 115.107L29.6487 114.743L29.5073 114.197L29.5545 112.166L29.5073 111.923L29.2952 111.681L28.8237 111.468L25.7119 110.589L23.3781 109.497L22.8829 109.194L22.4586 108.8L22.3407 108.527L22.2701 108.133L22.3878 107.435L22.6 107.102L22.9065 106.89L24.1324 106.465L24.4153 106.313L24.6039 106.162L24.6274 105.919L24.321 105.677L23.9909 105.525L23.6137 105.404L23.1894 105.191L22.7179 104.919L22.1285 104.342L21.6571 104.13L21.2092 104.009L19.2761 104.13L16.7301 103.888L16.3529 103.797L16.0228 103.19L14.8677 98.8539L14.5612 98.2474L14.2077 98.1261L12.4867 97.7926L12.2038 97.641L11.9916 97.459L11.8031 97.1861L11.6144 96.8526L11.4023 96.3067V95.9429L11.6617 95.6396L11.9445 95.488L12.8167 95.0635L12.9818 94.8209V94.457L12.7697 93.9112L12.5574 93.5776L12.3453 93.3047L11.921 92.9409L11.638 92.7893L11.308 92.668L10.9073 92.6073H9.7757L9.42206 92.5467L9.18631 92.395L8.69122 92.0615L8.43192 91.9099L7.11179 91.3944L6.8996 91.2124L6.87604 91.0002L7.11179 90.7576L7.37109 90.5453L7.65399 90.2724L8.19617 89.2717L8.52625 88.9988L8.90344 88.8472L9.30417 88.8169L9.61063 88.6653L9.7757 88.3924L9.61063 87.5737L9.53995 87.4523L9.51636 87.3917L9.25705 87.0582L9.0213 86.8762L8.73843 86.7246L8.3848 86.6336L7.93686 86.573L5.74448 86.5123L5.34372 86.4214L4.68365 86.1485L4.44788 85.9665L4.25934 85.7846L4.11783 85.5117L4 85.1781V84.6626L4.14145 84.2381L4.40076 83.8136L5.24939 83.0555L5.57947 82.8735L5.83878 82.7522L8.2905 81.8425L9.65781 81.4787L9.89355 81.2664L10.035 80.9328L9.94067 80.2354V79.8109L10.0114 79.447L10.4358 79.1135L10.7894 78.9315L12.1331 78.507L12.3688 78.2644L12.4867 77.9308L12.2509 77.2031L12.086 76.8089L11.9681 76.445L11.9916 76.1418L12.2274 75.7476L12.7225 75.2927L12.7932 74.9895L12.6988 74.6559L12.2509 74.2011L11.8973 73.9282L11.5201 73.7462L10.4593 73.3824L10.1765 73.2307V72.7152L11.8031 71.5023L14.5848 72.0784L14.8913 72.2907L15.1977 72.5333L15.0563 72.7456L14.7498 72.8669L14.4198 72.9578L14.1369 73.1094L13.9719 73.352L14.0426 73.8372L14.3255 74.2314L14.8206 74.6256L16.2586 75.323L17.4137 75.6263L21.61 75.414L23.4252 75.4747L23.8966 75.323L24.1324 75.1108L23.9909 74.3527L24.0145 74.0798L24.1088 73.8372L24.321 73.6249L24.5331 73.443L25.594 72.8365L26.0655 72.503L26.6784 71.8965L26.8906 71.563L27.2678 70.8352L27.4563 70.5926L27.6921 70.4107L28.5644 70.1074L30.0967 69.3797L30.8275 69.2584H33.1849L33.9157 69.1977L34.3872 69.0461L35.1887 68.288L35.7781 67.9241L36.226 67.8029L36.6975 67.8332L37.2161 67.9241L39.3378 68.0454L39.7621 68.1364L40.4458 68.4093L40.7758 68.5003L41.4124 68.5913L41.7189 68.47L41.8131 68.2577L41.7424 68.0454L41.601 67.8332L41.1058 67.2267L40.988 67.0751L40.9409 66.9538L40.9644 66.7415L41.2709 66.4686L41.7424 66.1957L42.756 65.8319L43.2275 65.468L43.9819 64.8312L44.3827 64.7402L44.7834 64.8009L46.3159 65.2254L46.5751 65.3467L46.5987 65.5589L46.5044 65.7712L45.7028 66.5899L45.3728 67.0448L45.2549 67.3177V67.5603L45.3492 67.7726L45.585 67.9545L45.9387 68.0758L58.3858 69.8648L58.7159 69.9558L58.9516 70.0771L59.0223 70.2591L58.9988 70.532L58.9752 70.8049L59.0695 71.1081L59.3288 71.381L60.036 71.6236L60.6489 71.6539L61.0261 71.5023L61.2383 71.2597L62.6292 67.4693L63.0535 66.6809L63.1714 66.408L63.195 66.1351V65.5893L63.2893 65.0131L63.5014 64.437L63.7136 64.1641L64.0673 63.8912L64.7509 63.5576L65.2695 63.4666H65.7646L66.1654 63.5273L66.5426 63.6183L66.849 63.7395L67.3912 64.0731L67.6034 64.2247L67.9806 64.6189L68.1456 64.8615L68.3578 65.0738L68.6879 65.2861H69.1594L71.5167 64.7402L71.8939 64.6189L72.6955 64.1337H73.0727L73.4026 64.1944L75.3829 64.9525H75.713L75.9722 64.8312L76.3966 64.4067L77.3396 63.1937L77.6461 62.9511L77.929 62.9208L78.1882 63.0118L78.754 63.3454L79.2491 63.4666L80.1213 63.5576L81.1586 63.3454L81.795 63.2847L82.2666 63.315L82.5495 63.4666L82.7853 63.6486L84.1761 65.2557L84.4354 65.468L84.8126 65.6499L85.1898 65.6802L85.5198 65.6196L86.8164 65.1344L89.1503 64.7099L89.4096 64.5886L90.1875 63.9821L90.5647 63.7699L91.2249 63.4969L91.6492 63.5576L92.7571 63.8912L93.488 63.8608L93.9123 63.7092L94.6195 63.1937L95.3268 62.9511L95.7747 62.9208L96.1047 63.0421L96.2933 63.2544L96.4583 63.4666L96.7412 63.7092L97.1656 63.8912L98.1321 64.0125L98.6508 63.7092L98.9337 63.406L98.9572 63.1028L98.91 62.284L98.9337 62.0111L99.0279 61.7382L99.1693 61.4653L100.867 59.4943L101.173 59.2214L101.574 58.9181L102.847 58.2813L103.201 58.0691L103.861 57.493L104.568 56.9471L106.336 55.8858L106.737 55.5219L107.161 55.249L110.108 53.7935L110.344 53.6116L110.532 53.4296L110.815 53.0658L111.97 51.216L112.395 50.8521L113.031 50.458L115.224 49.4573L115.624 49.1844L115.719 49.0328L115.766 48.7902L115.86 47.9411L115.836 47.6682L115.789 47.3953L115.695 47.1527L115.483 46.9708L115.176 46.8495L114.351 46.6978L114.021 46.5766L113.809 46.4249L113.691 46.1824L113.644 45.9095L113.691 45.0907L113.88 44.8178L114.163 44.5449L115.035 44.0294L115.247 43.7868L116.119 42.2403L116.85 41.3306L116.992 41.088L117.039 40.8151L117.015 40.5726L116.897 40.33L116.614 39.9055L116.567 39.6629L116.638 39.4203L116.779 39.1474L117.769 38.0861L117.935 37.8132L118.547 35.3266V35.0537L118.43 34.8111L118.217 34.6292L117.935 34.4776L117.699 34.2957L117.534 34.1137L117.51 33.8711L117.557 33.6285L117.652 33.3859L117.722 33.2646L118.524 32.2033L118.642 31.9607L118.689 31.7182L118.5 31.5059L118.241 31.3543L117.628 31.0814L117.392 30.9298L117.274 30.7175L117.345 30.5052L117.51 30.293L118.217 29.7471L118.453 29.5652L119.113 28.6858L119.632 28.231L120.033 27.9884L120.457 27.8671L122.932 27.6852L128.354 25.1987L129.038 25.047L129.816 24.9864H132.386L133.163 24.9257L134.389 24.6225L134.932 24.5619H135.262L135.662 24.6225L135.922 24.7438L136.134 24.9257L136.228 25.1683L136.299 25.4109L136.393 25.6535L136.511 25.8658L136.676 26.0477L136.865 26.26L137.124 26.4116L137.407 26.5632L137.666 26.7148L137.808 26.9271L137.902 27.1697L137.973 27.6852L138.067 27.9277L138.232 28.1097L138.751 28.5039L139.128 28.8374L139.34 29.0194L139.717 29.1407L139.929 29.1104L140.094 28.9891L140.212 28.7465L140.401 28.14L140.589 27.8065L140.943 27.4123L141.297 27.291L141.674 27.3213L141.957 27.4426L142.216 27.5942L142.593 27.7458L143.112 27.8065L144.031 27.7761L144.526 27.6548L144.904 27.5032L145.116 27.3213L145.281 27.0787L145.399 26.8058L145.564 26.2296L145.658 25.7445L145.729 25.5322L145.941 25.1987L146.271 25.0774L146.648 25.047L146.978 25.1683L147.19 25.3199L147.308 25.5625L147.332 25.8354L147.261 27.2303L147.332 27.5032L147.52 27.6852L147.827 27.8368L154.475 28.6252L154.899 28.5342L155.111 28.4736L155.441 28.1097L156.125 27.1393L156.879 26.3509L158.105 25.5019L158.317 25.2896L158.435 25.047L158.459 24.7741L158.388 24.0161L158.459 23.7735L158.624 23.5612L160.392 22.045L161.052 21.0747L161.358 20.5895L161.523 19.983L161.547 19.4372L161.523 18.8914L161.406 18.4062L161.311 18.1637L161.24 17.9211L161.311 17.7088L161.523 17.4056L161.83 17.2236L162.16 17.1023L164.871 16.5262L165.46 16.3139L165.861 16.1017L165.955 15.8288L165.979 15.5558L165.79 15.101L165.295 14.2216L165.13 13.7365L165.012 13.221L164.965 12.6751L164.918 12.4022L164.824 12.19L164.305 11.3106L164.211 11.068L164.47 10.7041L165.06 10.3099L167.228 9.21829L167.723 8.91505L168.053 8.42987L168.383 7.79308L168.69 7.39888L168.973 7.33824L169.68 7.52017L170.175 7.58083L171.024 7.48985L171.495 7.36856L171.872 7.21695L173.358 6.18596L173.782 5.79175L174.159 5.36723L174.301 5.12463L174.348 4.85172L174.324 4.57881L174.23 4.33623L174.065 4.12398L173.641 3.7601L173.405 3.60847L173.028 3.2446L172.91 3.09297L172.815 2.97169L172.768 2.75941V2.51683L172.792 2.24393L172.886 1.97102L173.098 1.60713L173.428 1.21295L174.183 0.606476L174.513 0.363892L174.866 0.181946L175.503 0.0303345L175.904 0L176.799 0.0606537L177.224 0.151611L177.907 0.394196L178.544 0.66713L179.322 1.1523Z" fill="url(#paint13_linear)"/>
<defs>
<linearGradient id="paint0_linear" x1="-29" y1="-76" x2="206.508" y2="132.029" gradientUnits="userSpaceOnUse">
<stop stop-color="#3A90B6"/>
<stop offset="1" stop-color="#075F92"/>
</linearGradient>
<linearGradient id="paint1_linear" x1="-29" y1="-76" x2="206.508" y2="132.029" gradientUnits="userSpaceOnUse">
<stop stop-color="#3A90B6"/>
<stop offset="1" stop-color="#075F92"/>
</linearGradient>
<linearGradient id="paint2_linear" x1="-29" y1="-76" x2="206.508" y2="132.029" gradientUnits="userSpaceOnUse">
<stop stop-color="#3A90B6"/>
<stop offset="1" stop-color="#075F92"/>
</linearGradient>
<linearGradient id="paint3_linear" x1="-29" y1="-76" x2="206.508" y2="132.029" gradientUnits="userSpaceOnUse">
<stop stop-color="#3A90B6"/>
<stop offset="1" stop-color="#075F92"/>
</linearGradient>
<linearGradient id="paint4_linear" x1="-29" y1="-76" x2="206.508" y2="132.029" gradientUnits="userSpaceOnUse">
<stop stop-color="#3A90B6"/>
<stop offset="1" stop-color="#075F92"/>
</linearGradient>
<linearGradient id="paint5_linear" x1="-29" y1="-76" x2="206.508" y2="132.029" gradientUnits="userSpaceOnUse">
<stop stop-color="#3A90B6"/>
<stop offset="1" stop-color="#075F92"/>
</linearGradient>
<linearGradient id="paint6_linear" x1="-29" y1="-76" x2="206.508" y2="132.029" gradientUnits="userSpaceOnUse">
<stop stop-color="#3A90B6"/>
<stop offset="1" stop-color="#075F92"/>
</linearGradient>
<linearGradient id="paint7_linear" x1="-29" y1="-76" x2="206.508" y2="132.029" gradientUnits="userSpaceOnUse">
<stop stop-color="#3A90B6"/>
<stop offset="1" stop-color="#075F92"/>
</linearGradient>
<linearGradient id="paint8_linear" x1="-29" y1="-76" x2="206.508" y2="132.029" gradientUnits="userSpaceOnUse">
<stop stop-color="#3A90B6"/>
<stop offset="1" stop-color="#075F92"/>
</linearGradient>
<linearGradient id="paint9_linear" x1="-29" y1="-76" x2="206.508" y2="132.029" gradientUnits="userSpaceOnUse">
<stop stop-color="#3A90B6"/>
<stop offset="1" stop-color="#075F92"/>
</linearGradient>
<linearGradient id="paint10_linear" x1="-29" y1="-76" x2="206.508" y2="132.029" gradientUnits="userSpaceOnUse">
<stop stop-color="#3A90B6"/>
<stop offset="1" stop-color="#075F92"/>
</linearGradient>
<linearGradient id="paint11_linear" x1="-29" y1="-76" x2="206.508" y2="132.029" gradientUnits="userSpaceOnUse">
<stop stop-color="#3A90B6"/>
<stop offset="1" stop-color="#075F92"/>
</linearGradient>
<linearGradient id="paint12_linear" x1="-29" y1="-76" x2="206.508" y2="132.029" gradientUnits="userSpaceOnUse">
<stop stop-color="#3A90B6"/>
<stop offset="1" stop-color="#075F92"/>
</linearGradient>
<linearGradient id="paint13_linear" x1="73" y1="168" x2="112.357" y2="-146.195" gradientUnits="userSpaceOnUse">
<stop stop-color="#59BDE4"/>
<stop offset="0.260417" stop-color="#43A9D5"/>
<stop offset="0.697917" stop-color="#0B77B0"/>
<stop offset="1" stop-color="#015E94"/>
</linearGradient>
</defs>
</svg>
