<svg width="297" height="149" viewBox="0 0 297 149" fill="none" xmlns="http://www.w3.org/2000/svg">
<path opacity="0.1" d="M143.57 30.1826L146.045 30.3949L146.964 30.2129L147.271 30.0916L147.648 30.0613L148.12 30.1523L148.803 30.4858L149.322 30.6375L150.053 30.6678L151.656 30.3949H152.08L153.895 30.5465H155.263L155.64 30.6071L156.889 30.9407L159.034 31.8201L159.624 32.1536L160.001 32.4265L160.237 32.8814L160.355 33.0936L160.614 33.3059L165.447 35.5498L165.942 35.944L166.201 36.2776L166.508 36.5202L168.511 37.3086L168.889 37.5208L170.232 38.5821L171.246 39.1886L175.584 40.5835L176.762 41.1597L178.295 42.13L178.743 42.2513L179.308 42.3119L180.251 42.2513L181.689 42.0087L182.043 41.9784L185.721 42.2209L186.098 42.1603L186.404 42.039L186.663 41.8874L187.088 41.8571L187.583 41.9177L188.856 42.5242L189.21 42.7364L189.563 42.8881L190.035 42.9487L192.156 42.7971L192.651 42.8577L193.194 43.0094L193.877 43.3429L194.396 43.4945L195.08 43.4642L195.457 43.3126L196.07 43.0094H196.635L199.677 43.4642L201.162 43.8584L201.963 44.1616L202.718 44.1313L203.166 44.0707L203.496 43.9191L203.755 43.7675L204.391 43.5552L204.769 43.4945L205.452 43.3429L205.759 43.2216L206.82 42.6455L207.998 42.13L211.322 41.2203L212.171 40.8261L212.807 40.9474L213.774 41.3112L215.825 42.4029L216.509 42.9487L216.862 43.4339L216.839 43.7068V43.9797L216.956 44.2223L217.475 44.6771L218.842 45.5565L219.055 45.7384L219.172 45.9507L219.078 46.163L219.031 46.3752L218.277 47.2849L218.064 47.4972L217.829 47.6488L216.061 48.3766L215.566 48.7101L215.33 48.8921L215.188 49.074L215.283 49.256L215.66 49.3469L218.041 49.165L218.395 49.2256L218.913 49.3773L220.21 50.014L220.799 50.2263L222.732 50.4992L223.345 50.7115L223.628 51.0753V51.3786L223.958 51.7121L224.642 52.0154L226.245 52.5309L226.952 52.8341L227.4 53.107L227.871 53.7135L228.296 53.956L230.323 54.7748L230.747 55.1083L230.865 55.4116L230.7 55.6238L230.559 55.7755L230.229 56.0484L228.838 56.7155L228.602 56.9277L228.461 57.1703L228.319 57.4432L228.296 57.7161L228.39 57.9284L228.767 58.1407L231.596 59.2323L233.435 60.3543L238.857 62.8711L239.824 63.5382L240.012 63.7201L240.13 63.9324L240.083 64.2053L239.965 64.4479L239.093 65.6305L238.975 65.8731L238.904 66.1157L238.975 66.3583L239.164 66.5099L240.389 67.086L241.757 67.8441L241.969 67.9957L242.063 68.1473L241.945 68.3293L241.78 68.5415L240.012 70.0577L239.847 70.27L239.776 70.4823L239.894 70.6642L240.672 71.1494L241.002 71.21L241.379 71.1797L241.945 70.8461L242.558 70.3306L242.794 70.179L243.124 70.0881L243.548 70.179L243.925 70.3003L244.515 70.6035L244.821 70.7248L245.34 70.6945L245.953 70.4823L247.108 69.8758L247.297 69.5726L247.202 69.33L246.566 69.0874L246.307 68.9357L246.212 68.7235L246.283 68.5112L247.32 67.1164L252.106 62.8408L253.19 62.2646L253.638 62.1737L254.227 62.1433L255.406 62.3859L258.706 63.3866L259.885 63.9324L260.286 64.2053L260.805 64.6298L261.064 64.7815L261.606 64.9028L262.431 64.9331L269.024 63.6905L269.708 63.4782L270.227 63.0234L267.476 63.3563L271.625 62.8105L271.932 63.4473L276.002 62.6595L276.097 62.9324L276.262 63.1447L276.45 63.3266L276.757 63.4176H277.11L279.609 62.9931H279.939L280.246 63.084L280.458 63.266L280.529 63.4782L280.505 63.6905L280.199 64.0544L279.609 64.3576L279.374 64.5396L278.737 65.5402L278.407 65.7525L278.101 65.9041L277.841 66.177L277.723 66.5712L277.841 67.9357L277.912 68.2996L278.03 68.5119L278.242 68.6332H278.548L280.788 68.3603L281.094 68.239L281.354 68.0874L281.519 67.8448L281.637 67.5415L281.967 65.9951L282.108 65.6312L282.368 65.146L282.721 64.9338L283.075 64.8125L286.187 64.4789L286.988 64.5092L287.295 64.6305L287.507 64.7821L287.672 64.9944L287.79 65.2066L288.025 65.9344L288.308 67.4506L288.285 67.7235L288.143 67.9964L287.695 68.2996L286.964 68.6029L285.998 68.9061L285.786 69.0577L285.691 69.3003L285.927 69.9371L286.045 70.1494L286.139 70.301L286.234 70.4829L286.281 70.6649L286.163 70.9075L285.833 71.1197L285.173 71.3926L284.961 71.6049L284.796 71.8778L285.008 74.0307L285.244 74.3036L285.88 74.6069L285.974 74.8191L285.668 75.1224L285.385 75.3346L283.782 75.9108L283.499 76.1837L283.358 76.4566L283.428 77.0024L283.523 77.3663L283.971 78.3063L284.513 80.3076L284.489 80.6412L284.23 82.1876V82.5211L284.324 82.7941L284.466 83.0063L284.654 83.1882L284.914 83.3095H285.244L285.55 83.2489L286.163 83.0366L286.894 82.9153L287.295 82.885L287.672 82.9153L287.955 83.0063L288.167 83.1579L288.285 83.3702L288.403 83.5824L288.568 83.7644L288.851 83.825L290.524 83.8857L290.901 84.007L291.137 84.1586L291.279 84.4012L291.467 85.1593L291.656 85.6445L291.892 86.069L292.127 86.5541L293.07 89.2226L293.117 89.4045L293.188 89.6168L293.259 89.8594L293.565 90.5871L293.612 90.8297L293.471 91.1936L293.141 91.6181L292.174 92.3459L287.585 93.6491L287.09 93.8311L286.383 93.9827L286.1 94.1343L285.888 94.3769L285.77 94.8317L285.793 95.1653L285.864 95.4382L286.571 97.3182L286.807 97.7731L287.703 99.0163L287.892 99.4712L288.174 100.442L288.198 100.714V100.987L288.174 101.26L287.774 101.685L287.09 102.261L285.393 103.353L284.544 103.777L283.86 103.989L283.46 103.929L280.772 103.231L277.967 102.837L277.59 102.716L277.283 102.594L277.047 102.413L276.67 101.776L276.458 101.594L276.199 101.442L275.869 101.321L271.531 100.654H271.13L270.753 100.684L268.325 101.23L267.075 101.26L266.722 101.321L266.392 101.412L266.109 101.533L265.802 101.715L265.52 101.958L265.307 102.413L265.237 103.019L265.425 107.113L265.496 107.416L265.944 108.356L266.038 109.144L266.415 109.508L266.816 109.69L268.136 109.751L268.513 109.811L268.82 109.963L269.056 110.145L269.221 110.357L269.339 110.57L264.51 114.651L265.052 115.228L265.17 115.44V115.622L264.816 115.773L264.038 115.925L261.61 116.046L261.162 116.137L260.738 116.259L260.219 116.562L259.748 116.683L258.545 116.774L258.263 116.926L258.05 117.168L257.932 117.562L257.909 117.896L257.932 118.169L257.98 118.442L258.145 118.684L258.451 118.927L259.135 119.139L260.196 119.291L260.667 119.503L260.95 119.715L261.634 121.323L253.756 120L253.426 119.939L253.167 119.788L252.742 119.424L252.459 119.272L252.129 119.151L251.752 119.09H251.375L250.903 119.212L250.385 119.394L249.63 119.848L249.3 120.212L248.9 120.788L248.428 121.001L247.674 121.122L246.071 121.213L245.269 121.183L244.703 121.092L243.878 120.637L243.548 120.516L243.148 120.455L241.497 120.425L241.12 120.364L240.79 120.243L240.625 120.03L240.554 119.788L240.484 119.545L240.201 118.575L240.106 118.363L239.965 118.15L239.706 117.999H239.376H238.975L238.551 118.12L238.103 118.272L237.56 118.696L237.278 119.03L236.924 119.576L236.712 119.788L236.146 119.939L232.846 120.303L232.209 120.273L231.973 120.121L231.785 119.939L231.455 119.818L230.724 119.667L230.559 119.515L230.465 119.303L230.394 119.06L230.182 118.878L229.498 118.635L229.309 118.454L229.192 118.211L229.168 117.968L229.239 117.756L229.427 117.635L229.97 117.665L230.3 117.786L230.865 118.09L231.195 118.12L231.573 118.029L231.926 117.665L232.115 117.332L232.586 116.149L233.034 115.361L233.105 115.088V114.845L232.987 114.633L232.822 114.421L232.704 114.208V113.966L232.751 113.723L232.916 113.238L232.893 113.056L232.846 112.995L232.681 112.965L230.677 113.147L230.347 113.056L230.135 112.935L230.017 112.813L229.828 112.662L229.569 112.541L229.239 112.48L228.862 112.419L228.555 112.359L228.437 112.146L228.484 111.358L228.437 111.085L228.154 110.084L227.966 109.629L227.824 109.417L227.612 109.235L227.306 109.114L226.905 109.053L225.891 108.962L225.632 108.902L225.396 108.75L225.372 108.508L225.467 108.265L225.655 108.022L225.844 107.81L226.763 107.082L226.952 106.84L227.093 106.597L227.141 106.324L227.046 106.112L226.881 105.9L226.504 105.869L225.985 105.991L223.746 107.143L223.439 107.204L223.015 107.295H222.214L221.883 107.143L221.695 106.9L221.671 106.355L221.624 106.112L221.176 105.475L221.082 105.233L221.035 104.96L221.058 104.656L221.247 103.747V103.474L221.153 103.231L220.964 103.049L220.681 102.867L220.304 102.776L219.903 102.746H219.078L214.835 103.595L210.992 104.808L210.12 104.929L209.554 104.869L208.375 103.747L208.093 103.595L207.763 103.444L207.385 103.353L203.802 103.019L203.425 102.928L203.142 102.776L202.152 102.109L201.515 101.594L201.256 101.442L200.997 101.26L200.667 101.139L200.242 101.048L199.37 101.018L197.366 101.291L194.372 101.958L193.736 102.2L192.628 102.837L191.072 103.989L190.388 104.323L189.257 104.626L188.62 104.747H188.125L187.889 104.717L186.805 104.384L175.301 103.474L170.421 102.109L168.936 101.897H168.229L164.362 102.473L163.113 102.716L162.453 102.867H161.84L159.812 102.322L159.034 102.291L157.809 102.352L156.323 102.625L155.852 102.837L155.215 103.08L153.966 103.231H153.259L152.575 103.171L151.774 103.383L150.689 103.838L153.403 107.233L151.587 108.082L147.438 108.203L147.037 108.142L146.731 107.991L146.566 107.778L146.448 107.566L146.236 107.111L141.118 104.596L141.071 104.111L141.047 103.747L141 103.535L140.788 103.383L140.434 103.322H140.034L139.609 103.353L139.209 103.504L138.878 103.747L138.572 104.384L138.548 104.747L143.643 107.051L144.02 107.718L144.444 108.294L144.491 108.446V108.536L144.397 108.809L144.303 109.022L144.256 109.355L156.232 109.053L156.114 109.296L155.878 109.539L154.912 109.993L154.558 110.206L154.417 110.63V110.933L154.535 111.176L154.771 111.297L155.124 111.358H155.926L156.303 111.388L156.562 111.51L156.704 111.691L156.774 111.873L156.821 112.268L156.869 112.51L156.963 112.753L157.104 112.965L157.269 113.177L157.505 113.329L157.788 113.481L158.519 113.693L161.23 114.087L161.607 114.178L161.866 114.33L162.055 114.542L162.291 114.997L162.314 115.239L162.291 115.543L162.22 115.846L162.031 116.149L161.701 116.452L160.947 116.695L157.788 117.271L157.364 117.453L155.501 118.575L155.124 118.939L154.888 119.424L154.794 119.788L154.747 120.152L154.771 120.394L154.818 120.667L154.935 120.879L155.101 121.092L155.596 121.425L161.418 123.487L161.89 123.76L162.031 123.881L162.078 124.003V124.215L162.008 124.488L161.843 124.791L161.253 125.61L161.018 126.034L160.971 126.368L161.018 126.641L161.112 126.883L161.23 127.096L161.324 127.338L161.348 127.611L156.136 126.521V126.794L156.324 126.976L156.701 127.097L158.021 127.309L159.789 127.4L160.167 127.522L160.45 127.673L160.544 127.916L160.567 128.189L159.978 131.494L159.507 132.586L159.082 134.678L158.705 135.891L157.762 137.741L157.668 137.983V138.226L157.786 138.438L158.045 138.59L159.53 139.257L160.002 139.56L160.214 139.742L160.332 139.954L160.379 140.227V140.5L160.049 142.016L159.955 142.228L159.577 142.805L159.177 143.138L158.941 143.29L158.304 143.411L153.472 143.381L145.857 142.683L127.469 141.167L123.767 140.924L122.966 141.046L113.065 144.412L103.847 145.897L95.4546 147.99L92.0835 148.384L84.752 148.081L73.1062 145.988L71.5032 146.079L62.2149 147.868L55.0012 148.293L54.1525 148.202L53.9639 147.99L53.516 147.292L53.3745 147.08L53.1624 146.868L52.7145 146.595L52.1722 146.565L50.522 146.716L50.0505 146.625L49.7677 146.474L49.6497 146.261L49.3433 145.594L49.0369 145.109L49.0133 144.867L49.1076 144.624L49.2491 144.351L49.7912 143.714L49.9326 143.502V143.29L49.7912 143.047L49.4847 142.774L48.8954 142.441L48.424 142.319L47.9524 142.259L43.6147 142.926L43.1904 143.047L42.9547 143.138L42.7896 143.32L42.7425 143.532L42.7896 143.775L42.931 144.26L42.9783 144.503L42.9547 144.775L42.8368 145.018L42.6247 145.23L42.3653 145.382L41.7524 145.594L33.9728 146.777L33.6428 146.837L33.3835 146.989L33.1949 147.171L33.077 147.383L33.0299 147.596L33.0063 147.838L32.9356 147.899L32.747 148.02L32.2755 148.202L31.804 148.232L31.3561 148.202L30.5311 147.899L29.8237 147.505L29.3287 147.171L29.1166 146.959L28.9515 146.747L28.8101 146.534L28.5272 145.837L28.2444 145.412L27.5135 145.17L26.2877 144.897L15.842 143.26L15.1819 142.987L14.0975 144.381L13.7439 144.259L8.10962 143.35L1.90955 142.834L1.34381 142.713L1.08453 142.592L0.919495 142.379L0.872314 142.046L1.08453 141.5L1.29669 141.227L1.48523 141.045L2.35748 140.439L2.78186 140.044L2.89972 139.741L2.92328 139.317L2.71112 138.619L2.5697 138.225L2.40466 137.922L1.81531 137.073L0.589417 135.678L0.117981 135.071L0.0236816 134.859V134.647L0.306519 134.404L0.895935 134.131L1.32025 133.98L4.07843 133.434L7.26099 133.191L7.52026 132.979L7.5675 132.585L7.11951 131.706L6.69513 131.311L6.31805 131.038L6.01154 130.917L5.72864 130.765L5.51648 130.462L5.42218 129.977L5.30426 126.126L5.39856 125.641L5.51648 125.247L5.68146 125.004L5.82288 124.761L5.91724 124.458L5.96436 122.851L6.10577 122.457L6.31805 122.214L6.53015 122.032L6.74237 121.85L6.76581 121.547L6.50659 121.153L5.70508 120.516L5.21002 120.334L4.73853 120.274L4.36133 120.334H3.96057H3.53619L3.18262 120.243L2.97046 119.97L2.92328 119.546L3.44196 118.242L3.84271 117.575L3.88983 117.15L3.08832 116.726L3.79559 114.361L4.54993 112.541L4.83282 112.329L5.35144 112.056L5.89362 111.965L6.71869 111.571L7.23743 111.086L7.85034 110.267L8.36896 109.782L8.98187 109.388L14.9956 109.872L15.6085 109.629L16.1036 109.508L18.8381 109.629L20.5826 109.296L21.0778 109.084L21.3606 108.841L21.5728 108.295L21.6671 108.022L21.7142 107.416L21.6671 106.9L21.5493 106.415L21.5021 105.869L21.62 105.293L21.95 104.444L22.2801 103.231L22.5393 102.989L22.8458 102.898L23.1052 102.928L23.2701 103.11L23.4116 103.292L24.0717 105.172V105.354L23.9539 105.566L23.7653 105.748L23.6002 105.96L23.5295 106.203V106.476L23.5767 106.718L23.7888 107.446L23.9539 107.689L24.1896 107.871L24.661 107.962L24.944 107.84L25.1561 107.628L25.6512 106.506L26.2405 105.506L26.4291 105.263L29.2816 103.11L29.6588 102.655L29.8945 102.231L30.1774 102.049L30.5311 102.018L30.8375 102.14L31.0732 102.322L31.2854 102.504L31.4976 102.685L31.7569 102.807L32.0398 102.928L32.3933 102.958H32.8413L33.7136 102.867L34.1614 102.716L34.5151 102.534L35.1045 102.018L37.9333 100.169L38.1219 99.9564L38.8763 98.9254L39.2535 98.7434L39.6779 98.6828L40.22 98.6525L40.7623 98.5918L41.5874 98.4099L41.9174 98.137L42.1061 97.8337L42.6954 94.4982L42.7189 94.2253L42.6482 93.9524L42.4596 93.7704L42.1532 93.6491L41.3044 93.4672L40.998 93.3459L40.833 93.1943L40.7623 93.073L40.7386 93.0123L40.6208 92.4362L40.22 88.767L39.725 87.3115L39.7014 87.069L39.6779 86.796L39.6072 86.5231L39.4893 86.3109L39.1828 86.1896L38.8528 86.1289L38.5699 86.0076L38.452 85.7954L38.3342 85.2496L38.3813 84.825L38.6641 84.5521L39.0885 84.2489L39.23 84.0063L39.2064 83.7637L37.5798 81.4592L37.344 81.0044L37.3204 80.7315L37.3912 80.1857L37.3676 79.9734L37.0847 79.9431L36.4481 79.9128L36.2832 79.8825H36.2125L36.1181 79.7612L36.0238 79.6096L35.9295 79.3366L35.8588 79.0031L35.9295 78.427L36.1181 78.1237L36.3539 77.8811L38.3813 76.9715L44.5106 75.243L44.6757 75.3036L44.8642 75.6675H45.1707L45.6893 75.5159L47.5753 74.1514L47.9053 73.9694L47.9996 73.9391L48.2118 73.8481L55.7084 71.3313L56.2506 71.0584L58.7495 69.2087L59.2445 68.9964L59.6217 68.9357L60.0225 68.9054L60.5411 68.8145L61.1541 68.6325L62.0735 68.1473L62.4742 67.8138L62.6392 67.5106L62.4506 67.3286L62.1206 67.2073L59.2916 66.8131L58.8909 66.7222L58.6788 66.5402L58.5609 66.328L58.4901 66.0551L58.3723 65.8428L58.2073 65.6608L57.9008 65.5396L53.6574 65.4789L53.2095 65.4486L52.8323 65.3273L51.2292 64.6905L50.8521 64.5692L46.7973 64.2053L46.4437 64.084L46.1608 63.9324L45.9251 63.7808L45.5715 63.1137L45.4299 62.9014L45.2414 62.6892L44.9821 62.5375L44.2985 62.295L44.0156 62.1433L43.8034 61.9614L43.6147 61.7795L43.379 61.2943L43.2847 61.0517L43.3318 60.6272L44.3456 59.5355L44.7699 59.202L45.1943 58.9897L45.5715 58.9594L45.9251 59.0201L46.1843 59.1716L46.3494 59.3536L46.5615 59.5355L46.868 59.6872L47.2924 59.7175L47.7402 59.6568L50.4512 58.08L50.8992 57.9588H51.3235L51.795 58.0194L52.1959 58.08L52.4787 58.2316L52.6673 58.4439L52.7852 58.6562L52.9738 59.111L53.1152 59.3233L53.351 59.4749L53.7281 59.5962L54.1525 59.6265L54.6003 59.5355L55.0247 59.3233L56.3684 58.1104L56.6277 57.9588L56.9342 57.8374L57.335 57.7768L57.783 57.8071L58.2308 57.8678L58.5845 57.989L58.773 58.171L58.7966 58.4439L58.6316 59.3233L58.7259 59.5659L58.938 59.7175L59.4331 59.6265L59.7631 59.3233L60.2111 58.7471L60.5175 58.5045L60.824 58.4742L60.989 58.6562L61.0361 58.8988V59.1716L61.0833 59.4749L61.1541 59.6872L61.5784 60.1723L61.6255 60.8394L61.8848 60.9607L62.262 61.0517L62.7336 60.9911L62.9928 60.8091L63.205 60.5969L63.37 60.324L63.8651 59.202L64.3602 58.5652L64.9495 58.2923L65.3503 57.9588L65.8453 57.3826L66.4818 57.049L66.7647 56.7155L66.9061 56.4426L66.9297 56.1697L67.3069 55.2599L69.0278 53.4406L69.6644 53.8348L77.9154 57.2916L78.4576 57.3826L79.4712 57.231L79.9898 57.2613L80.4142 57.4129L81.2864 57.8981L81.7579 58.1104L82.9839 58.3833L86.7793 58.7168L89.0189 59.4143L91.3998 61.173L92.3664 61.2336L94.3466 60.2633L95.8554 59.293L96.0676 59.111L96.2562 58.8988L96.374 58.6865L96.3504 58.4742L96.1383 58.2923L95.8554 58.1407L95.5253 58.0194L95.2424 57.8678L94.9832 57.7161L94.8652 57.5039L94.8417 57.231V56.9581L94.8889 56.6852L95.0538 56.4729L96.4447 55.3509L97.1991 55.0477L97.5056 54.7748L97.6234 54.5322L97.4113 53.5315L97.3877 53.2586L97.2933 53.016L97.1519 52.8038L96.987 52.5915L96.7748 52.4399L94.606 51.1966L94.4174 50.9844L94.3231 50.7721L94.2759 50.5295L94.2523 50.2566L94.3466 49.3773L94.4409 49.074L94.5588 48.8011L95.1953 47.8004L96.044 45.8597L96.2326 45.6475L96.5155 45.3746L96.9163 45.1017L97.6942 44.6771L98.9907 44.3436L99.9102 44.2526L100.405 44.101L100.688 43.8887L100.735 43.6461L100.617 43.4642L100.287 43.3429L99.5801 43.3732L99.1558 43.3126H99.0615L99.0143 43.2519L98.8965 43.161L98.8493 42.979L98.92 42.7668L99.0851 42.5545L99.3208 42.3422L101.042 41.3416L102.055 40.6138L102.904 39.7344L103.046 39.4919L103.116 39.2189V38.946L102.928 38.4609V38.188L103.14 37.8544L103.517 37.7634H103.941L104.743 37.9454L117.261 33.9427L119.76 33.6698L125.465 32.3659L126.125 32.1233L126.573 31.911L127.209 31.2742L127.94 30.7588L128.435 30.5162L129.001 30.3039L129.402 30.2129L131.193 30.2432L131.712 30.0916L132.254 29.7884L132.678 29.6671H133.103L135.13 30.122L135.437 30.2736L135.625 30.4252V30.6375L135.46 30.8194L134.965 31.1226L134.777 31.3349L134.706 31.5775L134.753 31.7897L135.059 32.002L135.507 32.1233H136.356L136.828 32.002L137.181 31.8201L137.37 31.6078L137.511 31.3652L137.723 30.7588L137.888 30.4252L138.101 30.0613L138.643 29.6368L139.091 29.4548L139.539 29.3336H139.963L140.812 29.4852L141.566 29.6974L143.57 30.1826Z" fill="#333333"/>
<path d="M295 76.5V83L290.5 85.5L284 84L283 82.5L278 82L276.433 82.9795L276 92.5L272 97L269 97.5L268.5 97.2V102.5L261 102H260L258.5 101L255.5 102L255 103H251.5L250.5 101L248 102L247 100H246L243.5 100.5V101L239 102L236 100V91.5455L235.5 91.5L232.5 91V87L231.5 86L229 88.5H228V85.5H226.5L223.5 85L216.687 87.5H215.5L213.75 85.5H212.5L211 86L206.5 83L201 85L197.5 86H194.5L193.5 85.5L189.812 86L183 85.5L176 84.5L169 85L167 84H165.5L161 85H159.5L153.5 88L152.409 88.0436L152 95C152 98 152.4 101.1 152 101.5C151.6 101.9 149.167 102.167 147.5 102.5L148.5 98L152 95L142 93.5L143 89L145.599 88.316L141 88.5L142 75.5C143.333 73.8333 146.1 70.5 146.5 70.5C146.9 70.5 151 72.5 153 73.5L153.5 76L159.5 73L161 73.5L165.5 72.5L167 72.3125V72.5L169 73.5L176 72.5C176.5 72 182.5 74 183 74L189.812 75H193.5L194.5 75.5C195.167 75.1667 196.6 74.5 197 74.5L201 72.5L206.5 71.5L211 73.5L212.5 74H213.75H215.5L216.687 75.5C218.792 74.8333 223.1 73.5 223.5 73.5L226.5 73L229 74L228 75.5L229 77.5L231.5 77L233.5 75L235 77L233.5 79L236 80.5L235.5 83L237.5 83.5L240 84L240.837 90.6939L243.5 90.25L246 88.5L247 89L248 91H250.5L251.5 91.5L255.5 91L258.5 89L260 89.5L261 90.25L266.5 91.5333V90.2143L264 89.5L264.5 88L266.5 87L269 86.5H272L270.5 85.5L272.857 83.9286L271 83L270.5 77.5L271 72.5L274 71.5L278 71L283 72L284 72.5L290.5 73.5L292.7 72.7666L292 69.5L291 64L296.5 62.5V76.5H295Z" fill="url(#paint0_linear)"/>
<path d="M155 113L155.5 101L149.5 109L150.5 113H155Z" fill="url(#paint1_linear)"/>
<path d="M155.5 113.5V124.5L153.5 127H146L141 126L135 125H131L120 129L110.5 129.5L102 132L99 132.688L91.5 132L80 130H78.5L68.5 132H68H62L61 131.5L60 130H57L56 127.5V126.5L55 126L50 129V129.5L43 130.5C42.2292 131 40.65 132 40.5 132L38.5 132.5L35.5 130.5H34L28 128L26 127L13 126V118H12V107L18 107.5L20.5 113L18.5338 114.639L26 115.5L28 116.5L34 117L35.5 117.5L38.5 119.5L40 119L42.5 118.5L48.5 118V115.5L55 114.5L59 116L56 118L57 119.5L60 119L61 121H62L68.5 120.5C71.6667 119.667 78.1 118 78.5 118H80L91.5 120.5L99 121L102 120.5L110.5 118L120 117L131 113L135 113.5L140.5 115H141H146L153.5 115.5L155.5 113.5Z" fill="url(#paint2_linear)"/>
<path d="M17.5 106.5V102.5H15V91.5V88.5L18 87.5L16.5 91L22.5 92.5L23 98L17.5 102.5L21.5 103C21.3333 103.833 21 105.6 21 106C21 106.4 18.6667 106.5 17.5 106.5Z" fill="url(#paint3_linear)"/>
<path d="M28.5 76.5L29.5 74C29.6667 75.6667 30 79.3 30 80.5C30 81.7 28.6667 82 28 82L28.5 76.5Z" fill="url(#paint4_linear)"/>
<path d="M43 57V50L49.5 51C50.5 52.3333 52.9 55.6 54.5 58C55.3191 59.2286 54.2949 60.0729 52.6081 60.5596L55.5 62.5L53 67C53.3333 68 54.1 68.7 54.5 69.5C54.9 70.3 49.6667 70.8333 47 71L47.6154 67H45.5V61H43V57Z" fill="url(#paint5_linear)"/>
<path d="M50.5 43V32L52.5 33.5L54.5 34.5L61 35L71 35.5V41.5L68 47L60.5 45L54.5 44.5H52.5L50.5 43Z" fill="url(#paint6_linear)"/>
<path d="M101.5 33V20.5C103 21.5 106 23.6 106 24V29C106 29.4 103 31.8333 101.5 33Z" fill="url(#paint7_linear)"/>
<path d="M106 16.5V14H108.5L108 15L106 16.5Z" fill="url(#paint8_linear)"/>
<path d="M110 11.5V9.5L111 10.5L110 11.5Z" fill="url(#paint9_linear)"/>
<path d="M226 23.5V17C224.5 17.6667 221.4 19 221 19C220.6 19 220.167 21.6667 220 23L226 23.5Z" fill="url(#paint10_linear)"/>
<path d="M238 26.5V32C237.333 31.6667 235.9 30.9 235.5 30.5C235 30 231.5 29 232.5 28.5L237.5 26L238 26.5Z" fill="url(#paint11_linear)"/>
<path d="M247 39.5V35L243.5 37.5L247 39.5Z" fill="url(#paint12_linear)"/>
<path d="M249 43V39L245.5 41.5V43H249Z" fill="url(#paint13_linear)"/>
<path d="M253.5 42.5V39.5L254.5 40V41.5L253.5 42.5Z" fill="url(#paint14_linear)"/>
<path d="M283.5 42.5V35.5L278.5 38L280 42L283.5 42.5Z" fill="url(#paint15_linear)"/>
<path d="M291.5 39.5V51H288.75L288.5 55.5H285L283 51L284.338 50.027L283.5 45L291 38L291.5 39.5Z" fill="url(#paint16_linear)"/>
<path d="M150.57 1.1826L153.045 1.39487L153.964 1.21294L154.271 1.09164L154.648 1.06131L155.12 1.15228L155.803 1.48584L156.322 1.63745L157.053 1.66779L158.656 1.39487H159.08L160.895 1.54648H162.263L162.64 1.60713L163.889 1.94069L166.034 2.82007L166.624 3.15363L167.001 3.42651L167.237 3.88138L167.355 4.09364L167.614 4.30589L172.447 6.5498L172.942 6.94403L173.201 7.27759L173.508 7.52016L175.511 8.30858L175.889 8.52084L177.232 9.58214L178.246 10.1886L182.584 11.5835L183.762 12.1597L185.295 13.13L185.743 13.2513L186.308 13.3119L187.251 13.2513L188.689 13.0087L189.043 12.9784L192.721 13.2209L193.098 13.1603L193.404 13.039L193.663 12.8874L194.088 12.8571L194.583 12.9177L195.856 13.5242L196.21 13.7364L196.563 13.8881L197.035 13.9487L199.156 13.7971L199.651 13.8577L200.194 14.0094L200.877 14.3429L201.396 14.4945L202.08 14.4642L202.457 14.3126L203.07 14.0094H203.635L206.677 14.4642L208.162 14.8584L208.963 15.1616L209.718 15.1313L210.166 15.0707L210.496 14.9191L210.755 14.7675L211.391 14.5552L211.769 14.4945L212.452 14.3429L212.759 14.2216L213.82 13.6455L214.998 13.13L218.322 12.2203L219.171 11.8261L219.807 11.9474L220.774 12.3112L222.825 13.4029L223.509 13.9487L223.862 14.4339L223.839 14.7068V14.9797L223.956 15.2223L224.475 15.6771L225.842 16.5565L226.055 16.7384L226.172 16.9507L226.078 17.163L226.031 17.3752L225.277 18.2849L225.064 18.4972L224.829 18.6488L223.061 19.3766L222.566 19.7101L222.33 19.8921L222.188 20.074L222.283 20.256L222.66 20.3469L225.041 20.165L225.395 20.2256L225.913 20.3773L227.21 21.014L227.799 21.2263L229.732 21.4992L230.345 21.7115L230.628 22.0753V22.3786L230.958 22.7121L231.642 23.0154L233.245 23.5309L233.952 23.8341L234.4 24.107L234.871 24.7135L235.296 24.956L237.323 25.7748L237.747 26.1083L237.865 26.4116L237.7 26.6238L237.559 26.7755L237.229 27.0484L235.838 27.7155L235.602 27.9277L235.461 28.1703L235.319 28.4432L235.296 28.7161L235.39 28.9284L235.767 29.1407L238.596 30.2323L240.435 31.3543L245.857 33.8711L246.824 34.5382L247.012 34.7201L247.13 34.9324L247.083 35.2053L246.965 35.4479L246.093 36.6305L245.975 36.8731L245.904 37.1157L245.975 37.3583L246.164 37.5099L247.389 38.086L248.757 38.8441L248.969 38.9957L249.063 39.1473L248.945 39.3293L248.78 39.5415L247.012 41.0577L246.847 41.27L246.776 41.4823L246.894 41.6642L247.672 42.1494L248.002 42.21L248.379 42.1797L248.945 41.8461L249.558 41.3306L249.794 41.179L250.124 41.0881L250.548 41.179L250.925 41.3003L251.515 41.6035L251.821 41.7248L252.34 41.6945L252.953 41.4823L254.108 40.8758L254.297 40.5726L254.202 40.33L253.566 40.0874L253.307 39.9357L253.212 39.7235L253.283 39.5112L254.32 38.1164L259.106 33.8408L260.19 33.2646L260.638 33.1737L261.227 33.1433L262.406 33.3859L265.706 34.3866L266.885 34.9324L267.286 35.2053L267.805 35.6298L268.064 35.7815L268.606 35.9028L269.431 35.9331L272.024 35.6905L272.708 35.4782L273.227 35.0234L274.476 34.3563L278.625 33.8105L278.932 34.4473L279.002 34.6595L279.097 34.9324L279.262 35.1447L279.45 35.3266L279.757 35.4176H280.11L282.609 34.9931H282.939L283.246 35.084L283.458 35.266L283.529 35.4782L283.505 35.6905L283.199 36.0544L282.609 36.3576L282.374 36.5396L281.737 37.5402L281.407 37.7525L281.101 37.9041L280.841 38.177L280.723 38.5712L280.841 39.9357L280.912 40.2996L281.03 40.5119L281.242 40.6332H281.548L283.788 40.3603L284.094 40.239L284.354 40.0874L284.519 39.8448L284.637 39.5415L284.967 37.9951L285.108 37.6312L285.368 37.146L285.721 36.9338L286.075 36.8125L289.187 36.4789L289.988 36.5092L290.295 36.6305L290.507 36.7821L290.672 36.9944L290.79 37.2066L291.025 37.9344L291.308 39.4506L291.285 39.7235L291.143 39.9964L290.695 40.2996L289.964 40.6029L288.998 40.9061L288.786 41.0577L288.691 41.3003L288.927 41.9371L289.045 42.1494L289.139 42.301L289.234 42.4829L289.281 42.6649L289.163 42.9075L288.833 43.1197L288.173 43.3926L287.961 43.6049L287.796 43.8778L288.008 46.0307L288.244 46.3036L288.88 46.6069L288.974 46.8191L288.668 47.1224L288.385 47.3346L286.782 47.9108L286.499 48.1837L286.358 48.4566L286.428 49.0024L286.523 49.3663L286.971 50.3063L287.513 52.3076L287.489 52.6412L287.23 54.1876V54.5211L287.324 54.7941L287.466 55.0063L287.654 55.1882L287.914 55.3095H288.244L288.55 55.2489L289.163 55.0366L289.894 54.9153L290.295 54.885L290.672 54.9153L290.955 55.0063L291.167 55.1579L291.285 55.3702L291.403 55.5824L291.568 55.7644L291.851 55.825L293.524 55.8857L293.901 56.007L294.137 56.1586L294.279 56.4012L294.467 57.1593L294.656 57.6445L294.892 58.069L295.127 58.5541L296.07 61.2226L296.117 61.4045L296.188 61.6168L296.259 61.8594L296.565 62.5871L296.612 62.8297L296.471 63.1936L296.141 63.6181L295.174 64.3459L294.585 64.6491L294.09 64.8311L293.383 64.9827L293.1 65.1343L292.888 65.3769L292.77 65.8317L292.793 66.1653L292.864 66.4382L293.571 68.3182L293.807 68.7731L294.703 70.0163L294.892 70.4712L295.174 71.4415L295.198 71.7144V71.9874L295.174 72.2603L294.774 72.6848L294.09 73.2609L292.393 74.3526L291.544 74.7771L290.86 74.9893L290.46 74.9287L287.772 74.2313L284.967 73.8371L284.59 73.7158L284.283 73.5945L284.047 73.4125L283.67 72.7758L283.458 72.5938L283.199 72.4422L282.869 72.3209L278.531 71.6538H278.13L277.753 71.6841L275.325 72.2299L274.075 72.2603L273.722 72.3209L273.392 72.4119L273.109 72.5332L272.802 72.7151L272.52 72.9577L272.307 73.4125L272.237 74.019L272.425 78.1127L272.496 78.4159L272.944 79.3559L273.038 80.1443L273.415 80.5082L273.816 80.6902L275.136 80.7508L275.513 80.8115L275.82 80.963L276.056 81.145L276.221 81.3573L276.339 81.5695L271.51 85.6514L272.052 86.2276L272.17 86.4398V86.6218L271.816 86.7734L271.038 86.925L268.61 87.0463L268.162 87.1372L267.738 87.2585L267.219 87.5618L266.748 87.6831L265.545 87.774L265.263 87.9257L265.05 88.1682L264.932 88.5624L264.909 88.896L264.932 89.1689L264.98 89.4418L265.145 89.6844L265.451 89.927L266.135 90.1393L267.196 90.2909L267.667 90.5031L267.95 90.7154L268.634 92.3225L260.756 91.0001L260.426 90.9394L260.167 90.7878L259.742 90.4239L259.459 90.2723L259.129 90.151L258.752 90.0904H258.375L257.903 90.2117L257.385 90.3936L256.63 90.8484L256.3 91.2123L255.9 91.7885L255.428 92.0007L254.674 92.122L253.071 92.213L252.269 92.1827L251.703 92.0917L250.878 91.6369L250.548 91.5156L250.148 91.4549L248.497 91.4246L248.12 91.364L247.79 91.2426L247.625 91.0304L247.554 90.7878L247.484 90.5452L247.201 89.5749L247.106 89.3626L246.965 89.1503L246.706 88.9987H246.376H245.975L245.551 89.12L245.103 89.2716L244.56 89.6962L244.278 90.0297L243.924 90.5755L243.712 90.7878L243.146 90.9394L239.846 91.3033L239.209 91.2729L238.973 91.1214L238.785 90.9394L238.455 90.8181L237.724 90.6665L237.559 90.5149L237.465 90.3026L237.394 90.06L237.182 89.8781L236.498 89.6355L236.309 89.4536L236.192 89.211L236.168 88.9684L236.239 88.7561L236.427 88.6348L236.97 88.6652L237.3 88.7865L237.865 89.0897L238.195 89.12L238.573 89.0291L238.926 88.6652L239.115 88.3316L239.586 87.149L240.034 86.3606L240.105 86.0877V85.8451L239.987 85.6328L239.822 85.4206L239.704 85.2083V84.9657L239.751 84.7231L239.916 84.2379L239.893 84.056L239.846 83.9954L239.681 83.9651L237.677 84.147L237.347 84.056L237.135 83.9348L237.017 83.8134L236.828 83.6618L236.569 83.5405L236.239 83.4799L235.862 83.4193L235.555 83.3586L235.437 83.1463L235.484 82.3579L235.437 82.085L235.154 81.0844L234.966 80.6295L234.824 80.4172L234.612 80.2353L234.306 80.114L233.905 80.0533L232.891 79.9624L232.632 79.9017L232.396 79.7501L232.372 79.5075L232.467 79.265L232.655 79.0223L232.844 78.8101L233.763 78.0823L233.952 77.8398L234.093 77.5972L234.141 77.3242L234.046 77.112L233.881 76.8997L233.504 76.8694L232.985 76.9907L230.746 78.143L230.439 78.2036L230.015 78.2946H229.214L228.883 78.143L228.695 77.9004L228.671 77.3546L228.624 77.112L228.176 76.4752L228.082 76.2326L228.035 75.9597L228.058 75.6565L228.247 74.7468V74.4739L228.153 74.2313L227.964 74.0493L227.681 73.8674L227.304 73.7765L226.903 73.7461H226.078L221.835 74.5952L217.992 75.8081L217.12 75.9294L216.554 75.8687L215.375 74.7468L215.093 74.5952L214.763 74.4435L214.385 74.3526L210.802 74.019L210.425 73.928L210.142 73.7765L209.152 73.1093L208.515 72.5938L208.256 72.4422L207.997 72.2603L207.667 72.139L207.242 72.048L206.37 72.0177L204.366 72.2906L201.372 72.9577L200.736 73.2003L199.628 73.8371L198.072 74.9893L197.388 75.3229L196.257 75.6262L195.62 75.7474H195.125L194.889 75.7171L193.805 75.3835L182.301 74.4739L177.421 73.1093L175.936 72.897H175.229L171.362 73.4732L170.113 73.7158L169.453 73.8674H168.84L166.812 73.3216L166.034 73.2912L164.809 73.3519L163.323 73.6248L162.852 73.8371L162.215 74.0797L160.966 74.2313H160.259L159.575 74.1706L158.774 74.3829L157.689 74.8377L155.403 76.2326L153.587 77.0817L149.438 77.2029L149.037 77.1423L148.731 76.9907L148.566 76.7784L148.448 76.5662L148.236 76.1113L148.118 75.5958L148.071 75.1106L148.047 74.7468L148 74.5345L147.788 74.3829L147.434 74.3223H147.034L146.609 74.3526L146.209 74.5042L145.878 74.7468L145.572 75.3835L145.548 75.7474L145.643 76.0507L146.02 76.7178L146.444 77.2939L146.491 77.4456V77.5365L146.397 77.8094L146.303 78.0217L146.256 78.3552L146.232 80.0533L146.114 80.2959L145.878 80.5385L144.912 80.9934L144.558 81.2056L144.417 81.6302V81.9334L144.535 82.176L144.771 82.2973L145.124 82.3579H145.926L146.303 82.3882L146.562 82.5096L146.704 82.6915L146.774 82.8734L146.821 83.2676L146.869 83.5102L146.963 83.7528L147.104 83.9651L147.269 84.1773L147.505 84.3289L147.788 84.4806L148.519 84.6928L151.23 85.087L151.607 85.178L151.866 85.3296L152.055 85.5419L152.291 85.9967L152.314 86.2393L152.291 86.5425L152.22 86.8458L152.031 87.149L151.701 87.4522L150.947 87.6948L147.788 88.271L147.364 88.4529L145.501 89.5749L145.124 89.9388L144.888 90.4239L144.794 90.7878L144.747 91.1516L144.771 91.3943L144.818 91.6671L144.935 91.8794L145.101 92.0917L145.596 92.4252L151.418 94.4872L151.89 94.7601L152.031 94.8814L152.078 95.0027V95.215L152.008 95.4879L151.843 95.7911L151.253 96.6099L151.018 97.0344L150.971 97.3679L151.018 97.6409L151.112 97.8834L151.23 98.0957L151.324 98.3383L151.348 98.6112L151.136 99.5209V99.7938L151.324 99.9757L151.701 100.097L153.021 100.309L154.789 100.4L155.167 100.522L155.45 100.673L155.544 100.916L155.567 101.189L154.978 104.494L154.507 105.586L154.082 107.678L153.705 108.891L152.762 110.741L152.668 110.983V111.226L152.786 111.438L153.045 111.59L154.53 112.257L155.002 112.56L155.214 112.742L155.332 112.954L155.379 113.227V113.5L155.049 115.016L154.955 115.228L154.577 115.805L154.177 116.138L153.941 116.29L153.304 116.411L148.472 116.381L140.857 115.683L134.469 114.167L130.767 113.924L129.966 114.046L120.065 117.412L110.847 118.897L102.455 120.99L99.0835 121.384L91.752 121.081L80.1062 118.988L78.5032 119.079L69.2149 120.868L62.0012 121.293L61.1525 121.202L60.9639 120.99L60.516 120.292L60.3745 120.08L60.1624 119.868L59.7145 119.595L59.1722 119.565L57.522 119.716L57.0505 119.625L56.7677 119.474L56.6497 119.261L56.3433 118.594L56.0369 118.109L56.0133 117.867L56.1076 117.624L56.2491 117.351L56.7912 116.714L56.9326 116.502V116.29L56.7912 116.047L56.4847 115.774L55.8954 115.441L55.424 115.319L54.9524 115.259L50.6147 115.926L50.1904 116.047L49.9547 116.138L49.7896 116.32L49.7425 116.532L49.7896 116.775L49.931 117.26L49.9783 117.503L49.9547 117.775L49.8368 118.018L49.6247 118.23L49.3653 118.382L48.7524 118.594L40.9728 119.777L40.6428 119.837L40.3835 119.989L40.1949 120.171L40.077 120.383L40.0299 120.596L40.0063 120.838L39.9356 120.899L39.747 121.02L39.2755 121.202L38.804 121.232L38.3561 121.202L37.5311 120.899L36.8237 120.505L36.3287 120.171L36.1166 119.959L35.9515 119.747L35.8101 119.534L35.5272 118.837L35.2444 118.412L34.5135 118.17L33.2877 117.897L27.842 117.26L27.1819 116.987L26.0975 116.381L25.7439 116.259L20.1096 115.35L13.9095 114.834L13.3438 114.713L13.0845 114.592L12.9195 114.379L12.8723 114.046L13.0845 113.5L13.2967 113.227L13.4852 113.045L14.3575 112.439L14.7819 112.044L14.8997 111.741L14.9233 111.317L14.7111 110.619L14.5697 110.225L14.4047 109.922L13.8153 109.073L12.5894 107.678L12.118 107.071L12.0237 106.859V106.647L12.3065 106.404L12.8959 106.131L13.3203 105.98L16.0784 105.434L19.261 105.191L19.5203 104.979L19.5675 104.585L19.1195 103.706L18.6951 103.311L18.3181 103.038L18.0115 102.917L17.7286 102.765L17.5165 102.462L17.4222 101.977L17.3043 98.126L17.3986 97.6409L17.5165 97.2467L17.6815 97.0041L17.8229 96.7614L17.9172 96.4583L17.9644 94.8511L18.1058 94.4569L18.3181 94.2143L18.5302 94.0324L18.7424 93.8504L18.7658 93.5472L18.5066 93.153L17.7051 92.5162L17.21 92.3343L16.7385 92.2736L16.3613 92.3343H15.9606H15.5362L15.1826 92.2433L14.9705 91.9704L14.9233 91.5459L15.442 90.242L15.8427 89.5749L15.8898 89.1503L15.0883 88.7258L15.7956 86.3606L16.5499 84.5412L16.8328 84.3289L17.3514 84.056L17.8936 83.9651L18.7187 83.5708L19.2374 83.0857L19.8503 82.2669L20.369 81.7818L20.9819 81.3876L21.9956 80.8721L22.6085 80.6295L23.1036 80.5082L25.8381 80.6295L27.5826 80.2959L28.0778 80.0837L28.3606 79.8411L28.5728 79.2953L28.6671 79.0223L28.7142 78.4159L28.6671 77.9004L28.5493 77.4152L28.5021 76.8694L28.62 76.2933L28.95 75.4442L29.2801 74.2313L29.5393 73.9887L29.8458 73.8977L30.1052 73.928L30.2701 74.11L30.4116 74.2919L31.0717 76.172V76.3539L30.9539 76.5662L30.7653 76.7481L30.6002 76.9604L30.5295 77.2029V77.4759L30.5767 77.7184L30.7888 78.4462L30.9539 78.6888L31.1896 78.8708L31.661 78.9617L31.944 78.8404L32.1561 78.6281L32.6512 77.5062L33.2405 76.5055L33.4291 76.2629L36.2816 74.11L36.6588 73.6552L36.8945 73.2306L37.1774 73.0487L37.5311 73.0183L37.8375 73.1396L38.0732 73.3216L38.2854 73.5035L38.4976 73.6855L38.7569 73.8067L39.0398 73.928L39.3933 73.9584H39.8413L40.7136 73.8674L41.1614 73.7158L41.5151 73.5338L42.1045 73.0183L44.9333 71.1686L45.1219 70.9564L45.8763 69.9254L46.2535 69.7434L46.6779 69.6828L47.22 69.6525L47.7623 69.5918L48.5874 69.4099L48.9174 69.137L49.1061 68.8337L49.6954 65.4982L49.7189 65.2253L49.6482 64.9524L49.4596 64.7704L49.1532 64.6491L48.3044 64.4672L47.998 64.3459L47.833 64.1943L47.7623 64.073L47.7386 64.0123L47.6208 63.4362L47.22 59.767L46.725 58.3115L46.7014 58.069L46.6779 57.796L46.6072 57.5231L46.4893 57.3109L46.1828 57.1896L45.8528 57.1289L45.5699 57.0076L45.452 56.7954L45.3342 56.2496L45.3813 55.825L45.6641 55.5521L46.0885 55.2489L46.23 55.0063L46.2064 54.7637L44.5798 52.4592L44.344 52.0044L44.3204 51.7315L44.3912 51.1857L44.3676 50.9734L44.0847 50.9431L43.4481 50.9128L43.2832 50.8825H43.2125L43.1181 50.7612L43.0238 50.6096L42.9295 50.3366L42.8588 50.0031L42.9295 49.427L43.1181 49.1237L43.3539 48.8811L45.3813 47.9715L51.5106 46.243L51.6757 46.3036L51.8642 46.6675H52.1707L52.6893 46.5159L54.5753 45.1514L54.9053 44.9694L54.9996 44.9391L55.2118 44.8481L62.7084 42.3313L63.2506 42.0584L65.7495 40.2087L66.2445 39.9964L66.6217 39.9357L67.0225 39.9054L67.5411 39.8145L68.1541 39.6325L69.0735 39.1473L69.4742 38.8138L69.6392 38.5106L69.4506 38.3286L69.1206 38.2073L66.2916 37.8131L65.8909 37.7222L65.6788 37.5402L65.5609 37.328L65.4901 37.0551L65.3723 36.8428L65.2073 36.6608L64.9008 36.5396L60.6574 36.4789L60.2095 36.4486L59.8323 36.3273L58.2292 35.6905L57.8521 35.5692L53.7973 35.2053L53.4437 35.084L53.1608 34.9324L52.9251 34.7808L52.5715 34.1137L52.4299 33.9014L52.2414 33.6892L51.9821 33.5375L51.2985 33.295L51.0156 33.1433L50.8034 32.9614L50.6147 32.7795L50.379 32.2943L50.2847 32.0517L50.3318 31.6272L51.3456 30.5355L51.7699 30.202L52.1943 29.9897L52.5715 29.9594L52.9251 30.0201L53.1843 30.1716L53.3494 30.3536L53.5615 30.5355L53.868 30.6872L54.2924 30.7175L54.7402 30.6568L57.4512 29.08L57.8992 28.9588H58.3235L58.795 29.0194L59.1959 29.08L59.4787 29.2316L59.6673 29.4439L59.7852 29.6562L59.9738 30.111L60.1152 30.3233L60.351 30.4749L60.7281 30.5962L61.1525 30.6265L61.6003 30.5355L62.0247 30.3233L63.3684 29.1104L63.6277 28.9588L63.9342 28.8374L64.335 28.7768L64.783 28.8071L65.2308 28.8678L65.5845 28.989L65.773 29.171L65.7966 29.4439L65.6316 30.3233L65.7259 30.5659L65.938 30.7175L66.4331 30.6265L66.7631 30.3233L67.2111 29.7471L67.5175 29.5045L67.824 29.4742L67.989 29.6562L68.0361 29.8988V30.1716L68.0833 30.4749L68.1541 30.6872L68.5784 31.1723L68.6255 31.8394L68.8848 31.9607L69.262 32.0517L69.7336 31.9911L69.9928 31.8091L70.205 31.5969L70.37 31.324L70.8651 30.202L71.3602 29.5652L71.9495 29.2923L72.3503 28.9588L72.8453 28.3826L73.4818 28.049L73.7647 27.7155L73.9061 27.4426L73.9297 27.1697L74.3069 26.2599L76.0278 24.4406L76.6644 24.8348L84.9154 28.2916L85.4576 28.3826L86.4712 28.231L86.9898 28.2613L87.4142 28.4129L88.2864 28.8981L88.7579 29.1104L89.9839 29.3833L93.7793 29.7168L96.0189 30.4143L98.3998 32.173L99.3664 32.2336L101.347 31.2633L102.855 30.293L103.068 30.111L103.256 29.8988L103.374 29.6865L103.35 29.4742L103.138 29.2923L102.855 29.1407L102.525 29.0194L102.242 28.8678L101.983 28.7161L101.865 28.5039L101.842 28.231V27.9581L101.889 27.6852L102.054 27.4729L103.445 26.3509L104.199 26.0477L104.506 25.7748L104.623 25.5322L104.411 24.5315L104.388 24.2586L104.293 24.016L104.152 23.8038L103.987 23.5915L103.775 23.4399L101.606 22.1966L101.417 21.9844L101.323 21.7721L101.276 21.5295L101.252 21.2566L101.347 20.3773L101.441 20.074L101.559 19.8011L102.195 18.8004L103.044 16.8597L103.233 16.6475L103.516 16.3746L103.916 16.1017L104.694 15.6771L105.991 15.3436L106.91 15.2526L107.405 15.101L107.688 14.8887L107.735 14.6461L107.617 14.4642L107.287 14.3429L106.58 14.3732L106.156 14.3126H106.061L106.014 14.2519L105.896 14.161L105.849 13.979L105.92 13.7668L106.085 13.5545L106.321 13.3422L108.042 12.3416L109.055 11.6138L109.904 10.7344L110.046 10.4919L110.116 10.2189V9.94603L109.928 9.46088V9.18796L110.14 8.8544L110.517 8.76343H110.941L111.743 8.94536L124.261 4.94269L126.76 4.66978L132.465 3.36588L133.125 3.12329L133.573 2.91103L134.209 2.27425L134.94 1.75876L135.435 1.51617L136.001 1.30389L136.402 1.21294L138.193 1.24324L138.712 1.09164L139.254 0.788406L139.678 0.66713H140.103L142.13 1.12196L142.437 1.27356L142.625 1.4252V1.63745L142.46 1.8194L141.965 2.1226L141.777 2.33488L141.706 2.57747L141.753 2.78973L142.059 3.00198L142.507 3.12329H143.356L143.828 3.00198L144.181 2.82007L144.37 2.6078L144.511 2.36522L144.723 1.75876L144.888 1.4252L145.101 1.06131L145.643 0.636795L146.091 0.454849L146.539 0.333557H146.963L147.812 0.485153L148.566 0.697418L150.57 1.1826Z" fill="url(#paint17_linear)"/>
<defs>
<linearGradient id="paint0_linear" x1="-122" y1="28" x2="186.472" y2="131.433" gradientUnits="userSpaceOnUse">
<stop stop-color="#3A90B6"/>
<stop offset="1" stop-color="#075F92"/>
</linearGradient>
<linearGradient id="paint1_linear" x1="-122" y1="28" x2="186.472" y2="131.433" gradientUnits="userSpaceOnUse">
<stop stop-color="#3A90B6"/>
<stop offset="1" stop-color="#075F92"/>
</linearGradient>
<linearGradient id="paint2_linear" x1="-122" y1="28" x2="186.472" y2="131.433" gradientUnits="userSpaceOnUse">
<stop stop-color="#3A90B6"/>
<stop offset="1" stop-color="#075F92"/>
</linearGradient>
<linearGradient id="paint3_linear" x1="-122" y1="28" x2="186.472" y2="131.433" gradientUnits="userSpaceOnUse">
<stop stop-color="#3A90B6"/>
<stop offset="1" stop-color="#075F92"/>
</linearGradient>
<linearGradient id="paint4_linear" x1="-122" y1="28" x2="186.472" y2="131.433" gradientUnits="userSpaceOnUse">
<stop stop-color="#3A90B6"/>
<stop offset="1" stop-color="#075F92"/>
</linearGradient>
<linearGradient id="paint5_linear" x1="-122" y1="28" x2="186.472" y2="131.433" gradientUnits="userSpaceOnUse">
<stop stop-color="#3A90B6"/>
<stop offset="1" stop-color="#075F92"/>
</linearGradient>
<linearGradient id="paint6_linear" x1="-122" y1="28" x2="186.472" y2="131.433" gradientUnits="userSpaceOnUse">
<stop stop-color="#3A90B6"/>
<stop offset="1" stop-color="#075F92"/>
</linearGradient>
<linearGradient id="paint7_linear" x1="-122" y1="28" x2="186.472" y2="131.433" gradientUnits="userSpaceOnUse">
<stop stop-color="#3A90B6"/>
<stop offset="1" stop-color="#075F92"/>
</linearGradient>
<linearGradient id="paint8_linear" x1="-122" y1="28" x2="186.472" y2="131.433" gradientUnits="userSpaceOnUse">
<stop stop-color="#3A90B6"/>
<stop offset="1" stop-color="#075F92"/>
</linearGradient>
<linearGradient id="paint9_linear" x1="-122" y1="28" x2="186.472" y2="131.433" gradientUnits="userSpaceOnUse">
<stop stop-color="#3A90B6"/>
<stop offset="1" stop-color="#075F92"/>
</linearGradient>
<linearGradient id="paint10_linear" x1="-122" y1="28" x2="186.472" y2="131.433" gradientUnits="userSpaceOnUse">
<stop stop-color="#3A90B6"/>
<stop offset="1" stop-color="#075F92"/>
</linearGradient>
<linearGradient id="paint11_linear" x1="-122" y1="28" x2="186.472" y2="131.433" gradientUnits="userSpaceOnUse">
<stop stop-color="#3A90B6"/>
<stop offset="1" stop-color="#075F92"/>
</linearGradient>
<linearGradient id="paint12_linear" x1="-122" y1="28" x2="186.472" y2="131.433" gradientUnits="userSpaceOnUse">
<stop stop-color="#3A90B6"/>
<stop offset="1" stop-color="#075F92"/>
</linearGradient>
<linearGradient id="paint13_linear" x1="-122" y1="28" x2="186.472" y2="131.433" gradientUnits="userSpaceOnUse">
<stop stop-color="#3A90B6"/>
<stop offset="1" stop-color="#075F92"/>
</linearGradient>
<linearGradient id="paint14_linear" x1="-122" y1="28" x2="186.472" y2="131.433" gradientUnits="userSpaceOnUse">
<stop stop-color="#3A90B6"/>
<stop offset="1" stop-color="#075F92"/>
</linearGradient>
<linearGradient id="paint15_linear" x1="-122" y1="28" x2="186.472" y2="131.433" gradientUnits="userSpaceOnUse">
<stop stop-color="#3A90B6"/>
<stop offset="1" stop-color="#075F92"/>
</linearGradient>
<linearGradient id="paint16_linear" x1="-122" y1="28" x2="186.472" y2="131.433" gradientUnits="userSpaceOnUse">
<stop stop-color="#3A90B6"/>
<stop offset="1" stop-color="#075F92"/>
</linearGradient>
<linearGradient id="paint17_linear" x1="225" y1="116" x2="110.899" y2="-108.985" gradientUnits="userSpaceOnUse">
<stop stop-color="#59BDE4"/>
<stop offset="0.260417" stop-color="#43A9D5"/>
<stop offset="0.697917" stop-color="#0B77B0"/>
<stop offset="1" stop-color="#015E94"/>
</linearGradient>
</defs>
</svg>
