<svg width="236" height="262" viewBox="0 0 236 262" fill="none" xmlns="http://www.w3.org/2000/svg">
<path opacity="0.1" d="M119.087 30.2899L119.22 30.0713L119.247 29.8805L119.278 29.5529L119.469 28.6112H119.514H120.583L121.506 28.8978L122.716 29.471L123.385 29.8805L123.989 30.3309L124.339 30.5356L124.785 30.6584L125.486 30.4127H127.268L127.841 30.5765L128.255 30.8222L128.374 31.3205L128.382 31.3545L128.096 31.6001L127.618 31.7639L125.008 32.0096L124.626 32.1733L124.403 32.4599L124.212 32.8284L123.866 34.0017L123.926 34.3843L124.276 34.7528L125.167 35.0394L129.464 35.8992L132.266 36.9229L132.775 36.9638H133.284L133.698 36.841L134.08 36.6362L136.372 35.0394L136.786 34.8347L137.231 34.7528L141.178 34.6709L141.688 34.7119L142.07 34.8757L142.101 35.326L142.1 35.3406L142.101 35.3669L141.783 37.8645V38.5606L141.847 38.9291L141.942 39.2567L142.07 39.9527L142.066 39.9749L142.07 39.9937L142.006 40.4031L141.879 40.7307L141.688 41.0582L141.401 41.3448L140.478 42.0818L140.255 42.3684L140.542 43.1463L141.274 44.2109L144.68 48.4281L144.743 48.6328V48.7966V48.9604L144.648 49.247L144.457 49.5336L144.107 49.7383L143.693 49.8611L142.165 50.0249L141.751 50.1478L141.624 50.3934L141.592 50.721L141.624 51.0485L141.497 51.3351L141.115 51.4989H139.969L139.491 51.6217L139.173 51.8265L138.918 52.1131L138.727 52.4816L138.6 52.8501V53.2186L138.823 53.5052L139.428 53.628H139.969L140.637 53.7508L141.337 53.9965L142.356 54.5697L142.993 54.7745L143.629 54.8563L154.611 54.6926L158.558 54.7745L159.004 55.7981L160.436 57.9271L160.882 58.8689L161.105 59.524L191.001 51.4643L191.224 51.8328L191.638 52.1194L192.497 52.447L193.866 52.6107H194.439L195.617 52.7336L196.094 52.9383L196.349 53.3068L196.412 53.9619L196.309 54.3285L196.317 54.4123L196.298 54.4811L196.381 54.9445L196.794 55.5587L197.813 56.5414L198.354 57.524L198.513 58.1382L198.418 58.6295L198.403 58.663L198.322 59.0799L198.004 59.8169L197.558 60.472L196.54 61.6594L196.349 61.9869L196.261 62.2684L196.253 62.3145L196.317 63.1334L196.476 63.379L196.699 63.5837L197.177 63.6656L199.023 63.2562L199.532 63.2152L200.009 63.2971L200.296 63.5837V64.1979L200.2 64.4442V64.6483L200.041 65.0577L199.818 65.4672L198.482 66.9002L196.476 68.2923L195.935 68.7427L195.808 68.9064L195.648 69.1931L195.553 69.4387L195.585 69.8072L196.158 72.141L196.826 73.615L196.89 73.8198V74.1063L196.794 74.8843V75.2937L197.081 75.7032L198.513 77.6275L198.832 78.2008L198.895 78.733L198.787 79.0803L198.8 79.1834L198.673 79.5928L198.233 80.7649L198.259 81.0668L198.513 81.4353L199.023 81.7629L200.105 82.1723L201.378 82.459L202.906 82.5818L203.415 82.7455L203.797 82.9912L203.957 83.4825L204.052 83.8919L203.988 84.629L195.896 87.6621L191.474 89.4831L191.378 89.7698L191.315 89.8926L191.124 90.343L191.023 90.7757L190.933 91.8579L190.964 92.5949L191.092 93.291L191.41 93.6594L191.983 94.1098L193.384 94.683L194.275 94.8877L195.007 94.9287H195.516L196.089 94.9696L197.458 95.461H198.031L198.54 95.42L198.954 95.2563L199.241 95.0106L199.813 94.4783L200.132 94.2736L200.705 94.3554L201.469 94.7649L202.678 95.9523L203.188 96.6074L203.506 97.1396L203.633 97.4263L203.824 97.7129L204.27 98.0405L204.875 98.409L207.103 99.3506L208.185 100.17L209.777 101.848L210.031 102.299L210.063 102.503L210.031 102.79L211.12 107.667L211.099 107.703L211.12 107.79L211.025 108.117L210.833 108.445L210.579 108.731L210.26 108.977L209.879 109.141L209.497 109.264L205.136 110.001L204.849 110.083L204.626 110.205L204.563 110.287L204.626 110.615L205.008 111.27L205.772 112.334L206.409 113.563L206.759 113.89L207.364 114.177L208.669 114.464L210.197 114.586L209.962 115.026L210.101 115.037L207.886 119.181L208.261 119.241L208.77 119.528L209.439 120.265L210.044 121.124L210.489 122.066L211.062 122.926L212.908 125.055L213.099 125.342L213.291 125.669L213.258 125.997L213.099 126.816L213.004 127.594V127.921L221.424 128.29L221.997 128.658L224.193 129.395L227.474 132.997L227.154 133.202L227.378 133.448L225.921 133.991L215.635 140.576L205.756 141.562L206.106 141.971L206.393 142.79L206.329 143.323L206.275 143.427L206.234 143.773L206.043 144.141L205.311 145.083L204.929 145.779L204.774 146.078L204.738 146.148L204.674 146.557L204.642 146.926L205.247 147.499L206.298 148.154L208.971 149.382L210.276 149.792L211.263 149.996L218.202 149.464L227.561 150.242L228.038 150.733L228.42 151.593L228.643 154.705L228.802 155.565L229.375 156.179L229.852 156.548L234.413 159.494L235.336 159.862L235.59 160.558L235.75 161.172L234.826 166.127L219.038 164.874L188.784 181.119L184.227 188.841L170.893 193.736L164.733 193.778L165.408 208.504V211.88L156.673 224.538L160.007 233.441L139.289 234.665L134.521 237.155L132.453 240.024L127.559 243.695L121.398 240.277L101.904 239.813L92.4942 241.965L84.0129 250.531L78.4432 249.602L68.5273 250.657L49.6659 259.392L46.1215 261.417L40.1298 254.033L29.8038 255.232L29.4536 255.109L29.0717 255.068L28.7853 255.232L28.4987 255.478L28.0531 256.092L27.7666 256.379L27.4483 256.42L27.0982 256.338L23.4058 254.659L22.8965 254.25L22.4508 253.676L20.9229 250.933L20.0317 249.91L20.4046 245.591L19.8635 245.223L19.4814 245.018L17.5717 244.363L13.1471 243.38L12.2558 243.053L9.61392 241.62L8.9772 241.169L8.86807 241.006L8.78625 240.883L8.72263 240.596L9.00909 240.228L9.42297 240.023L9.96401 239.941L15.1844 239.409L16.0438 239.163L16.4257 238.958L16.7122 238.754L16.8395 238.426L16.8714 238.058L16.2984 235.724L16.1712 235.396L16.171 235.396L15.8528 234.864L14.1021 232.899L13.5609 232.162L13.5071 231.934L13.4336 231.834L13.2107 230.892L13.4336 230.442L13.7838 230.155L14.5795 229.787L14.9934 229.746L15.4389 229.705L15.7892 229.828L16.1393 230.033L16.5531 230.196L17.0624 230.237H18.0491L18.4947 230.319L18.8768 230.483L19.2269 230.688L19.6726 230.892L20.8503 231.056L22.7283 231.138L22.8774 231.126L23.2377 230.933L23.3067 230.856L22.7283 230.811L23.1103 230.606L23.365 230.319L23.5242 229.951V229.623L23.365 228.6L23.3968 228.231L23.556 227.863L23.7152 227.535L28.9355 225.09L29.1265 224.804L29.2856 224.435L29.5721 223.616L29.9223 222.879L30.2087 222.593L30.4953 222.347L31.2094 221.987L31.2273 221.937L31.2831 221.967L31.451 221.934L31.482 221.815L31.6168 221.901L31.6411 221.897L31.6357 221.913L32.1822 222.265L32.5005 222.511L33.0098 223.043L33.2326 223.33L33.4554 223.534L33.742 223.698L34.0921 223.616L34.4422 223.493L35.2062 223.166L35.4927 222.92L35.7473 222.674V222.347L35.69 222.126L35.5563 221.856L35.5018 221.675L35.4289 221.528L35.2062 220.791V220.423L35.2379 220.054L35.3653 219.645L35.6836 218.908L36.5114 217.597L36.575 217.188L36.4476 216.369L36.4794 216.001L36.6068 215.673L37.9755 213.79L38.1983 213.462V213.271L38.1346 213.175L37.3389 213.094L35.6518 213.216L31.4184 212.971L30.9409 213.053L30.6654 213.23L31.0682 213.38L30.3451 213.292L30.2405 213.544L30.0339 213.406L29.8719 213.234L29.0628 213.135L29.6358 213.175L29.7486 213.103L29.5395 212.881L28.9354 212.807L29.5084 212.848L29.5395 212.881L29.825 212.916L29.0946 212.643L28.7763 212.438L27.7664 209.897L24.9652 207.809L24.1376 207.358L24.2391 207.155L24.0103 207.031L25.0004 205.05L24.5513 205.025L23.9465 205.066L21.4637 206.499L20.8589 206.99L20.4769 207.195L19.2673 206.785L17.4848 205.884L13.2831 203.264L11.5006 202.445L10.3546 202.077L7.3624 203.018L6.43946 203.182L5.93015 203.059L5.54809 202.773L5.47916 202.489L5.42076 202.445L5.2617 201.79L5.29343 201.299L5.51628 200.439L5.5799 200.07L5.56114 200.016L5.29343 199.825L3.54282 199.661L3.06532 199.538L2.65144 199.211L2.36498 198.76L2.30438 198.537L2.23765 198.433L2.2711 198.415L2.14213 197.941L7.85463 195.518L8.99162 194.928L9.21447 194.559L9.62826 194.354L10.5196 194.15L11.3472 193.863L11.6655 193.658L11.6725 193.613L11.6018 193.535L10.9333 193.372L8.38688 193.085L7.71843 192.758L7.08171 192.225L5.45842 189.932L5.45645 189.782L5.33101 189.605L5.23698 182.446L5.01273 182.053L9.62746 179.467L9.53719 179.119L9.41622 178.763L9.21892 178.546L8.83693 178.382H8.23211L8.41086 178.054H8.10478L9.54196 175.42H8.73392L7.55616 175.339L6.50564 175.093L5.70995 174.028L5.68685 173.84L5.58262 173.701L5.10988 169.851L4.30934 167.969L3.92736 167.682L3.29072 167.395L1.85839 167.191L0.935198 166.904L0.521486 166.577L0.298641 166.249L0.234936 165.881L0.203125 165.512L0.212669 165.377L0.203125 165.266L0.234936 164.816L0.394075 164.284L0.680625 163.956L1.06253 163.751L2.68597 163.629L3.32253 163.465L4.02287 163.055L4.59589 162.892L5.20063 162.769L8.47926 162.605L9.52961 162.4L10.0071 162.196L9.84806 161.909L9.1159 161.131L8.32004 159.985L15.4768 155.333L15.254 155.046L14.9356 154.801L14.5219 154.596L14.0125 154.514L12.23 154.432L11.689 154.186L11.1797 153.695L11.0523 152.631L10.4475 151.361L10.3519 150.952L10.0974 145.424L10.1055 145.355L10.0974 145.179L10.1929 144.36L10.4793 143.746L10.8612 143.418L11.2751 143.172L11.6571 143.009L12.1027 142.886L12.5802 142.804L14.2673 142.763L17.5459 142.026L18.0552 141.985H18.5963L24.4532 142.886L24.8989 143.05L25.249 143.254L25.5355 143.5L26.0447 144.36L26.363 144.605L26.7769 144.769L27.2862 144.933L31.0741 145.465L34.7028 146.407L35.244 146.489L36.1671 146.202L37.313 145.629L39.6049 144.155L40.5279 143.377L41.0691 142.804L41.1009 142.435V142.313L41.0691 141.944L40.6872 140.634L40.4325 140.02L39.2229 138.341L38.9047 137.727L37.9497 135.188L37.8542 134.82L37.8223 134.369L37.836 134.317L37.8223 134.124L37.9815 133.51L38.2679 133.182L38.65 132.977L39.6049 132.773L40.2733 132.527L41.0691 132.118L42.3742 131.135L42.8198 130.562L42.9791 130.152L42.9472 129.988L42.5334 129.006L42.4379 128.678L42.3424 128.392L42.2786 128.146L41.0054 124.543L40.6872 123.888L40.3688 123.315L40.1142 122.659L39.8596 121.636L39.6686 121.308L39.3503 121.104L38.841 120.94L36.581 120.858L36.199 120.776L35.9761 120.53L35.817 120.244L35.6578 119.957L35.3714 119.752L34.9894 119.63L34.4801 119.589L33.939 119.63L32.9521 119.793L32.1246 120.08L31.7108 120.162H31.2651L30.9151 119.998L30.6603 119.752L30.4694 119.466L30.342 119.097V118.852V118.647V118.401L30.6921 116.313L30.7102 116.058L29.9919 113.406L29.3871 112.137L29.2597 111.646L29.1642 110.909L29.1897 110.86L29.1642 110.663L29.3552 110.295L29.7371 109.926L31.9017 109.148L32.2837 108.862L32.5617 108.587L32.5383 108.534L31.6789 108.125L31.3606 107.756L31.0741 104.849L31.1328 104.752L31.106 104.481L31.3287 104.112L31.6152 103.825L32.5065 103.457L32.9521 103.17L33.0282 103.014L33.0158 102.966L32.8885 102.72L32.7612 102.515L32.6021 102.229L32.2837 101.369L32.3698 101.147L32.3155 101L32.4428 100.673L32.7294 100.468L34.0344 100.059L35.0212 99.6491L35.6259 99.2397L35.817 98.8712L35.4349 96.824L35.1166 95.8413L34.9576 95.5547L34.7346 95.2681L34.4483 95.0634L34.0344 94.8996L32.9521 94.8587L28.7504 95.309L28.273 95.4728L27.7955 95.7594L27.4453 96.4145L27.2544 96.9059L26.8088 98.994L26.6495 99.4034L26.4269 99.731L26.0766 99.9357L25.6627 100.099L22.6388 100.468H22.2251L21.9386 100.304L21.7794 100.018L21.6838 99.5263L21.5248 97.6838L21.5742 97.5186L21.5566 97.3153L21.7157 96.783L22.0658 96.4145L22.4797 96.2098L22.9253 95.9232L23.7848 94.5721L24.1032 94.3264L24.8989 93.9169L25.2442 93.5069L25.2171 93.4256L24.9307 93.18L24.5169 93.0571H24.0712L20.6972 93.6303H20.2197L19.8058 93.5075L19.5513 93.2618L19.3284 92.9752L19.2011 92.6067L19.1056 92.3201L18.6918 91.4603L17.0365 89.2903L16.6865 88.2257L16.5591 85.6053L16.3681 83.9266L16.1453 83.1487L14.1399 79.0952L13.7579 78.0716L13.6306 77.2937L13.7323 77.0756L13.6943 76.8433L13.8853 76.4338L14.2673 76.0244L14.7129 75.7787L15.2222 75.6559L16.3044 75.6149L17.514 75.7378L20.538 76.5976L21.7476 76.7614H26.363L26.8405 76.6795L27.8274 75.9835L28.7504 75.2055L30.0237 74.3867L30.4694 74.1819L31.3924 73.9772L32.3473 73.8134H32.9203L34.1299 73.8953L43.7748 76.5157L44.0295 76.5976L44.3159 76.8023L44.7615 76.9661L45.3027 77.0889L46.2575 77.1299L46.7032 76.9252L46.9818 76.6027L46.9898 76.5567L46.9579 76.2291L46.6714 75.9835L46.2258 75.8197L44.0931 75.3283L43.7429 75.1646L43.5519 75.0417L43.3928 74.837L43.3291 74.5504V74.2638L43.4246 74.0593V73.8953L43.6156 73.4859L44.6343 72.3395L45.1435 71.9709L45.7166 71.8072L46.2258 71.8891L47.3398 72.1757L48.0084 72.2576L48.9314 72.2166L49.4407 72.0119L49.7591 71.6843L49.8227 71.2339L49.8864 70.7426L49.9529 70.5972L49.9818 70.3741L50.3002 69.6781L50.6821 69.3096L51.1278 69.0639L51.6371 68.982L52.1782 68.9411L52.7193 68.982L53.2286 69.0639L53.6424 69.2687L54.5337 70.0056L54.8839 70.2103L55.2658 70.4151L55.7433 70.5788L56.2526 70.6607H56.8256L57.5577 70.6198L59.7222 70.1694L60.327 69.8828L60.5817 69.6445V69.5962L60.0723 67.9585V67.549L60.1678 67.2113V67.1805L60.2951 66.7301L60.7408 66.1569L61.2501 65.8703L61.9822 65.7065L62.3641 65.4608L62.6189 65.1743L62.9052 64.3144L63.3509 63.4137L63.6694 63.0861L67.1389 61.2027L67.7755 60.957L70.4175 60.7932L71.4997 60.5066L72.0408 60.22L72.2001 59.9898V59.8925L72.0727 59.5649L71.8498 59.2783L71.2769 58.787L71.0222 58.5003L70.8632 58.2137V57.8453L70.9904 57.0673L70.9586 56.7398L70.6721 56.4941L69.8126 56.1256L69.4945 55.8799L69.3351 55.5933L69.399 55.2658L69.4311 55.2225L69.4945 54.8973L70.8632 53.0548L71.3725 52.6044L71.818 52.2769L74.0463 51.5808L74.4918 51.2123L74.651 50.9563V50.8029L74.7146 50.3116L74.7862 50.1275L74.8101 49.9431L75.0331 49.3698L75.6378 48.3463L76.0834 47.8958L76.4654 47.5683L97.1558 37.7008L97.8878 37.1275L97.9271 37.0553L97.7604 36.841L96.2962 35.6127L95.978 35.4079L95.5961 35.2441L95.0866 35.2032L93.0175 35.4079L89.3571 35.326L88.2112 35.2032L87.7019 35.0804L87.3197 34.9166L87.1606 34.7119L87.3794 34.4201L87.288 34.3024L89.8982 30.8222L90.4074 30.4537L90.9485 30.208L100.116 29.6348L112.689 31.1907L117.05 30.8631L118.642 30.5765L119.087 30.2899Z" fill="#333333"/>
<path d="M209.365 139.89V156.93L216.824 157.547V140.507L209.365 139.89ZM216.824 140.507V157.547L224.777 158.639V141.6L216.824 140.507ZM199.392 156.34V173.379L209.365 156.93V139.89L199.392 156.34ZM189.378 155.825V172.865L199.396 173.375V156.336L189.378 155.825ZM175.918 160.763V177.807L189.378 172.868V155.829L175.918 160.763ZM170.11 160.79V177.829L175.918 177.807V160.763L170.11 160.79ZM159.849 163.211V180.251L170.11 177.825V160.786L159.849 163.211ZM155.162 181.897V198.937L159.849 183.751V166.712L155.162 181.897ZM148.631 197.521V214.561L158.486 208.022V190.983L148.631 197.521ZM147.029 208.306V225.345L149.074 222.617V205.578L147.029 208.306ZM116.618 208.177V225.217L136.011 225.807V208.768L116.618 208.177ZM106.964 210.391V227.43L116.618 225.221V208.181L106.964 210.391ZM83.2431 210.826V227.869L93.144 226.942V209.903L83.2431 210.826ZM93.1402 209.903V226.942L98.8687 227.968V210.928L93.1402 209.903ZM98.8725 210.928V227.968L106.964 227.43V210.391L98.8725 210.928ZM142.179 212.09V229.13L147.025 225.345V208.306L142.179 212.09ZM136.011 208.771V225.811L142.179 229.13V212.09L136.011 208.771ZM71.1841 221.304V238.344L83.2431 227.869V210.826L71.1841 221.304ZM64.3765 227.608V244.648L71.1841 238.344V221.304L64.3765 227.608ZM38.6114 228.331V245.371L54.7596 239.452V222.409L38.6114 228.331ZM34.6851 224.316V241.356L38.6114 245.371V228.331L34.6851 224.316ZM54.7596 222.409V239.452L60.6887 246.759V229.712L54.7596 222.409ZM60.6887 229.716V246.763L64.3765 244.652V227.612L60.6887 229.716Z" fill="url(#paint0_linear)"/>
<path d="M43.4108 229.323C42.8707 230.201 39.7539 230.589 38.263 230.674L34.6764 242.868L33.9591 234.218L27.5454 232.108L23.1993 229.45L23.4103 213.247L24.3386 212.74L27.3766 213.331L27.5876 214.344L33.3684 213.964L36.0689 216.369L40.7947 216.285L40.1783 222.255C42.5268 222.754 45.0597 223.316 45.5206 223.5C46.3645 223.838 46.027 225.019 46.3645 226.201C46.7021 227.382 44.086 228.226 43.4108 229.323Z" fill="url(#paint1_linear)"/>
<path d="M27.9252 212.74V203.331V203.12C28.7128 203.57 30.3556 204.496 30.6257 204.597C30.9632 204.723 33.7481 207.044 35.0984 208.521C36.4486 209.998 34.2967 210.884 33.2418 212.319C32.3979 213.466 29.3457 213.078 27.9252 212.74Z" fill="url(#paint2_linear)"/>
<path d="M42.0184 200.504L38.6428 195.651C38.5077 195.449 38.2208 194.357 38.0942 193.837L35.0984 195.947L24.8871 190.841L21.2583 191.854L20.119 191.01L19.3595 188.774L17.6717 188.098L16.6168 186.917L16.8278 170.419L17.6642 171.445L19.2329 171.727C19.894 171.502 21.2583 171.127 21.4271 171.431C21.5959 171.735 22.0319 172.402 22.2288 172.697L21.2161 174.554L24.7999 173.584C24.8008 173.583 24.8017 173.583 24.8027 173.583C25.0559 173.583 30.2037 172.908 30.71 173.414C31.2164 173.921 32.8198 175.144 33.4949 175.946C34.035 176.588 34.7608 177.845 35.0562 178.393L37.8833 177.296C37.8692 177.057 38.0267 176.528 38.7694 176.326C39.512 176.123 41.076 175.904 41.7652 175.82L42.145 177.465L38.7694 179.533C42.9186 180.756 51.3858 183.221 52.0609 183.288C52.9048 183.373 55.6053 184.259 57.2509 185.44C58.8965 186.622 57.1665 187.508 56.5336 190.25C55.9007 192.993 54.9724 194.175 54.3816 196.791C53.909 198.884 51.5405 200.054 50.4153 200.377L42.0184 200.504Z" fill="url(#paint3_linear)"/>
<path d="M19.9924 170.25L20.0346 161.98L17.9249 157.887L17.6717 156.325L14.9712 155.228L14.5914 153.287L14.4648 138.266L15.0134 136.747L15.0556 138.688C17.0247 138.997 21.3427 139.717 22.8617 140.122C24.7605 140.629 26.7859 141.135 27.5876 141.346C28.3893 141.557 28.98 143.54 30.3303 146.198C31.6805 148.857 29.8661 151.515 29.7396 154.258C29.6383 156.452 26.9125 157.76 25.5622 158.14L20.0346 161.98C21.2302 161.923 23.7985 161.811 24.5073 161.811C25.3934 161.811 28.4315 162.612 29.191 162.866C29.9505 163.119 28.6003 167.676 28.6003 167.971C28.6003 168.208 22.8617 169.589 19.9924 170.25Z" fill="url(#paint4_linear)"/>
<path d="M22.9039 136.072V132.569C24.4511 132.682 27.8576 132.873 29.1066 132.738C30.6679 132.569 30.8366 133.835 31.343 134.764C31.7481 135.506 25.8857 135.945 22.9039 136.072Z" fill="url(#paint5_linear)"/>
<path d="M30.7522 130.586C30.6172 130.924 27.4329 131.233 25.8576 131.346L25.1825 131.641L25.0137 123.455L26.0686 123.708L26.5749 125.185L25.8576 126.071C27.4751 125.902 30.7438 125.599 30.8788 125.734C31.0476 125.902 31.3008 126.746 31.6383 127.632C31.9759 128.519 30.921 130.164 30.7522 130.586Z" fill="url(#paint6_linear)"/>
<path d="M52.6094 119.151V112.949L52.5672 112.991L50.0777 108.391L49.276 107.548L48.2211 108.223L46.0691 108.813L44.6345 107.758L43.4108 99.446L43.5374 83.6649L42.7357 84.0869L39.2757 88.2642L37.7567 88.5174L36.7018 88.4752L35.5203 86.1545L34.803 81.5974L33.9591 81.8505C33.0871 80.4159 31.3345 77.5044 31.3008 77.3357L28.2627 65.9851C28.2487 60.6122 28.2205 49.8243 28.2205 49.6555C29.5004 50.3728 32.1869 51.9425 32.6932 52.4826C33.1996 53.0227 35.3234 55.9989 36.322 57.4195L37.5457 61.85L36.8793 63.6138C37.0617 63.5015 37.2058 63.4157 37.2925 63.369C37.7314 63.1327 39.8102 63.1299 40.7947 63.158L42.6935 64.8458L40.7947 68.7278L36.5752 69.3607L37.7567 70.3734L37.8833 71.6815L39.4023 72.5676L39.9086 69.9515L42.6513 66.7024L48.3899 66.1117C48.9666 66.3789 50.2549 66.9894 50.795 67.2932C51.4702 67.6729 54.3816 69.0654 55.8585 69.6139C57.3353 70.1624 56.3226 78.1796 56.3648 79.2344C56.3986 80.0783 53.2283 83.4962 51.6389 85.0996L46.6735 84.2203L52.2297 86.9984L52.4487 88.9985C53.3177 89.182 54.3391 89.4295 55.3099 89.6567C57.2931 90.1208 57.5463 91.6399 58.7277 93.3699C59.9092 95.0999 60.3312 96.8721 62.2722 100.627C63.8249 103.632 61.1188 105.508 59.5717 106.071L56.348 109.255C56.5624 109.436 56.742 109.614 56.8712 109.784C57.7995 111.008 57.926 111.429 58.7699 113.792C59.4451 115.683 58.6012 117.984 58.0948 118.898L52.6094 119.151Z" fill="url(#paint7_linear)"/>
<path d="M58.0526 50.3307L58.0104 46.8284L61.6814 46.7019C62.0049 46.9832 62.8038 47.6555 63.4114 48.0943C64.019 48.5331 62.9613 50.0775 62.3565 50.7948L58.0526 50.3307Z" fill="url(#paint8_linear)"/>
<path d="M74.7198 43.8326L74.762 40.035C75.0995 40.0631 75.8844 40.1953 76.3232 40.4991C76.8717 40.8789 76.3232 41.9338 76.3232 42.3557C76.3232 42.6933 75.2543 43.4809 74.7198 43.8326Z" fill="url(#paint9_linear)"/>
<path d="M84.0871 34.8872L84.1293 27.8405L88.3911 28.8954C88.7849 29.3877 89.6401 30.482 89.9101 30.9208C90.2477 31.4693 88.5599 33.9167 88.1801 34.3386C87.8763 34.6762 85.3249 34.845 84.0871 34.8872Z" fill="url(#paint10_linear)"/>
<path d="M102.062 16.068L101.978 7.20702L109.742 5.98335C110.825 6.29278 113.058 7.00448 113.329 7.3758C113.666 7.83995 114.721 9.23239 115.227 10.1607C115.734 11.089 113.202 13.3253 112.442 14.1692C111.835 14.8444 105.269 15.7164 102.062 16.068Z" fill="url(#paint11_linear)"/>
<path d="M142.865 9.61215V3.83139C141.473 3.83139 138.587 3.89046 138.182 4.12676C137.675 4.42213 136.409 5.81457 136.198 6.06774C136.03 6.27028 136.269 8.2619 136.409 9.23239L142.865 9.61215Z" fill="url(#paint12_linear)"/>
<path d="M156.79 7.46019V12.5236L156.832 19.2749C155.003 19.1061 151.372 18.701 151.473 18.431C151.6 18.0934 152.148 15.8993 152.95 15.3507C153.591 14.9119 155.777 13.2831 156.79 12.5236L154.891 12.819C154.089 12.2705 152.655 11.0046 153.33 10.3295C154.005 9.65435 155.805 8.24784 156.621 7.62897L156.79 7.46019Z" fill="url(#paint13_linear)"/>
<path d="M159.237 28.6422L159.195 21.0049C157.901 21.1033 155.11 21.3593 154.3 21.5956C153.287 21.891 152.19 22.9459 151.937 23.1569C151.735 23.3256 151.262 25.14 151.051 26.0261L154.385 28.8954L159.237 28.6422Z" fill="url(#paint14_linear)"/>
<path d="M183.331 46.8284V40.1616L183.162 40.035C182.318 40.5835 180.563 41.7312 180.293 41.9338C179.955 42.187 178.098 43.495 177.676 43.917C177.254 44.3389 177.761 45.9423 177.845 46.955C177.913 47.7652 181.53 47.2082 183.331 46.8284Z" fill="url(#paint15_linear)"/>
<path d="M185.145 45.7314L185.187 58.6431L185.567 61.5968L187.339 65.0568L188.157 65.7887L188.943 65.4366V66.4915L188.9 80.6691L182.107 81.5552C178.689 81.6958 171.567 81.3442 170.419 78.8125C169.271 76.2808 169.378 73.9319 169.575 73.0739L173.457 68.1793C173.921 68.1652 175.06 68.0949 175.904 67.9261C176.335 67.84 178.469 67.4864 180.932 67.0842C180.848 66.9021 180.774 66.6915 180.714 66.4493C179.786 62.6939 180.039 61.7234 179.153 59.4026C178.267 57.0819 177.761 56.4068 177.887 55.0143C178.014 53.6219 177.297 52.7358 177.972 52.1872C178.647 51.6387 180.166 50.6682 180.377 50.415C180.546 50.2125 181.46 49.0085 181.896 48.4319L185.145 45.7314Z" fill="url(#paint16_linear)"/>
<path d="M194.934 84.4245L195.061 100.796L192.867 103.75L191.01 106.155L189.829 106.661L189.28 112.316L185.103 111.809C182.852 109.432 178.276 104.088 177.972 101.725C177.592 98.7709 176.537 92.9901 176.875 92.526C177.212 92.0618 178.984 90.6694 180.208 89.8255C181.432 88.9816 184.554 86.5342 185.947 86.3655C187.061 86.2304 190.771 85.5216 192.487 85.184L194.934 84.4245Z" fill="url(#paint17_linear)"/>
<path d="M204.302 130.333L204.259 115.016C202.656 115.902 199.399 117.725 199.196 117.928C198.943 118.181 196.453 120.712 195.82 121.345C195.187 121.978 196.749 127.042 196.875 127.337C196.977 127.573 201.868 129.433 204.302 130.333Z" fill="url(#paint18_linear)"/>
<path d="M226.117 155.313L225.948 137.422C224.035 138.435 219.973 140.578 219.028 141.051C217.846 141.641 221.728 147.802 221.897 148.561C222.032 149.169 223.866 154.863 224.682 158.435L226.117 155.313Z" fill="url(#paint19_linear)"/>
<path d="M133.687 2.70412L133.819 2.48553L133.846 2.29469L133.878 1.96712L134.069 1.02546H134.113H135.183L136.106 1.31205L137.316 1.88525L137.984 2.29469L138.589 2.74508L138.939 2.94979L139.385 3.07263L140.085 2.82696H141.868L142.441 2.99075L142.854 3.23638L142.973 3.7347L142.982 3.76869L142.695 4.01434L142.218 4.17811L139.608 4.42377L139.226 4.58754L139.003 4.87415L138.812 5.24266L138.466 6.41592L138.525 6.79853L138.875 7.16704L139.767 7.45365L144.064 8.31346L146.865 9.33707L147.374 9.37799H147.884L148.297 9.25517L148.679 9.05046L150.971 7.45365L151.385 7.24892L151.831 7.16704L155.778 7.08512L156.287 7.12608L156.669 7.28988L156.701 7.74026L156.699 7.75485L156.701 7.78116L156.383 10.2788V10.9748L156.446 11.3433L156.542 11.6709L156.669 12.3669L156.666 12.3891L156.669 12.4079L156.606 12.8173L156.478 13.1449L156.287 13.4724L156.001 13.7591L155.078 14.496L154.855 14.7826L155.141 15.5606L155.873 16.6251L159.279 20.8423L159.343 21.0471V21.2109V21.3746L159.247 21.6612L159.057 21.9479L158.706 22.1525L158.293 22.2754L156.765 22.4392L156.351 22.562L156.224 22.8077L156.192 23.1352L156.224 23.4627L156.096 23.7494L155.714 23.9131H154.568L154.091 24.036L153.772 24.2407L153.518 24.5273L153.327 24.8958L153.2 25.2643V25.6328L153.422 25.9194L154.027 26.0422H154.568L155.237 26.1651L155.937 26.4107L156.956 26.9839L157.592 27.1887L158.229 27.2706L169.211 27.1068L173.158 27.1887L173.603 28.2123L175.036 30.3413L175.481 31.2831L175.704 31.9382L175.895 33.3303L176.118 33.6988L176.532 33.9854L177.391 34.3129L178.76 34.4767H179.333L180.511 34.5995L180.988 34.8043L181.243 35.1728L181.307 35.8279L181.203 36.1945L181.211 36.2783L181.192 36.3471L181.275 36.8105L181.689 37.4247L182.707 38.4073L183.248 39.39L183.408 40.0042L183.312 40.4955L183.297 40.529L183.217 40.9459L182.898 41.6829L182.453 42.338L181.434 43.5253L181.243 43.8529L181.155 44.1344L181.147 44.1804L181.211 44.9993L181.37 45.245L181.593 45.4497L182.071 45.5316L183.917 45.1222L184.426 45.0812L184.904 45.1631L185.19 45.4497V46.0639L185.094 46.3101V46.5143L184.935 46.9237L184.712 47.3331L183.376 48.7662L181.37 50.1583L180.829 50.6087L180.702 50.7724L180.543 51.059L180.447 51.3047L180.479 51.6732L181.052 54.007L181.72 55.481L181.784 55.6857V55.9723L181.689 56.7503V57.1597L181.975 57.5691L183.408 59.4935L183.726 60.0667L183.789 60.599L183.682 60.9463L183.694 61.0494L183.567 61.4588L183.127 62.6309L183.153 62.9328L183.408 63.3013L183.917 63.6288L184.999 64.0383L186.272 64.3249L187.8 64.4478L188.309 64.6115L188.692 64.8572L188.851 65.3485L188.946 65.7579L188.883 66.4949L180.79 69.528L176.368 71.3491L176.272 71.6357L176.209 71.7586L176.018 72.2089L175.917 72.6416L175.827 73.7239L175.859 74.4609L175.986 75.1569L176.304 75.5254L176.877 75.9758L178.278 76.549L179.169 76.7537L179.901 76.7947H180.41L180.983 76.8356L182.352 77.3269H182.925L183.434 77.286L183.848 77.1222L184.135 76.8766L184.708 76.3443L185.026 76.1395L185.599 76.2214L186.363 76.6309L187.573 77.8183L188.082 78.4734L188.4 79.0056L188.527 79.2922L188.718 79.5789L189.164 79.9064L189.769 80.2749L191.997 81.2166L193.079 82.0355L194.671 83.7142L194.926 84.1646L194.957 84.3693L194.926 84.6559L194.85 84.7417L194.862 84.8197L190.613 89.6557L190.518 89.9833L190.327 90.3108L190.072 90.5974L189.753 90.8431L189.372 91.0068L188.99 91.1297L184.629 91.8667L184.342 91.9485L184.119 92.0713L184.056 92.1532L184.119 92.4808L184.501 93.1359L185.265 94.2005L185.902 95.4288L186.252 95.7563L186.857 96.0429L188.162 96.3296L189.69 96.4523L189.228 96.8733L189.594 96.9027L183.533 102.43L183.703 102.457L184.213 102.744L184.881 103.481L185.486 104.341L185.932 105.282L186.505 106.142L188.351 108.271L188.542 108.558L188.733 108.885L188.701 109.213L188.542 110.032L188.446 110.81V111.137L188.765 111.506L189.338 111.874L191.534 112.611L204.266 114.863L204.056 115.293L204.171 115.314L203.868 115.678L201.879 119.742L200.102 120.727L200.452 121.137L200.739 121.956L200.675 122.488L200.621 122.592L200.58 122.938L200.389 123.307L199.657 124.249L199.275 124.945L199.12 125.244L199.084 125.313L199.02 125.723L198.988 126.091L199.593 126.664L200.643 127.319L203.317 128.548L204.622 128.957L205.609 129.162L212.548 128.63L221.907 129.408L222.384 129.899L222.766 130.759L222.989 133.87L223.148 134.73L223.721 135.344L224.198 135.713L224.708 135.959L225.631 136.327L225.885 137.023L226.045 137.637L225.122 142.592L209.333 141.339L199.333 157.584L189.375 157.204L176.041 162.099L169.88 162.141L159.754 164.715V168.091L155.07 183.45L158.403 192.353L148.487 198.978L149.12 206.868L147.053 209.738L142.158 213.409L135.998 209.991L116.503 209.527L107.094 211.679L98.6126 212.143L93.0428 211.214L83.1269 212.269L64.2656 229.105L60.7211 231.131L54.7294 223.746L44.4034 227.646L44.0532 227.524L43.6713 227.483L43.3849 227.646L43.0983 227.892L42.6527 228.506L42.3662 228.793L42.0479 228.834L41.6978 228.752L38.0054 227.073L37.4961 226.664L37.0504 226.091L35.5225 223.347L34.6313 222.324L35.0042 218.006L34.4631 217.637L34.0811 217.432L32.1713 216.777L27.7467 215.795L26.8554 215.467L24.2135 214.034L23.5768 213.584L23.4677 213.42L23.3859 213.297L23.3222 213.01L23.6087 212.642L24.0226 212.437L24.5636 212.355L29.784 211.823L30.6434 211.577L31.0254 211.373L31.3118 211.168L31.4392 210.84L31.471 210.472L30.898 208.138L30.7708 207.811L30.7706 207.81L30.4524 207.278L28.7017 205.313L28.1605 204.576L28.1067 204.349L28.0332 204.248L27.8104 203.307L28.0332 202.856L28.3835 202.57L29.1791 202.201L29.593 202.16L30.0385 202.119L30.3888 202.242L30.7389 202.447L31.1527 202.611L31.662 202.652H32.6487L33.0943 202.733L33.4764 202.897L33.8265 203.102L34.2722 203.307L35.4499 203.47L37.328 203.552L37.477 203.541L37.8373 203.348L37.9064 203.27L37.328 203.225L37.7099 203.02L37.9646 202.733L38.1238 202.365V202.037L37.9646 201.014L37.9964 200.645L38.1556 200.277L38.3148 199.949L43.5351 197.504L43.7262 197.218L43.8852 196.849L44.1717 196.03L44.5219 195.293L44.8083 195.007L45.0949 194.761L45.809 194.402L45.8269 194.352L45.8827 194.382L46.0506 194.348L46.0816 194.229L46.2164 194.316L46.2407 194.311L46.2353 194.328L46.7819 194.679L47.1001 194.925L47.6094 195.457L47.8322 195.744L48.055 195.948L48.3416 196.112L48.6917 196.03L49.0419 195.908L49.8058 195.58L50.0923 195.334L50.3469 195.089V194.761L50.2896 194.54L50.1559 194.27L50.1014 194.09L50.0285 193.942L49.8058 193.205V192.837L49.8376 192.468L49.9649 192.059L50.2832 191.322L51.111 190.012L51.1746 189.602L51.0472 188.783L51.079 188.415L51.2064 188.087L52.5751 186.204L52.7979 185.876V185.685L52.7342 185.59L51.9385 185.508L50.2514 185.631L46.018 185.385L45.5405 185.467L45.265 185.644L45.6678 185.794L44.9448 185.706L44.8401 185.958L44.6335 185.82L44.4715 185.648L43.6624 185.549L44.2354 185.59L44.3483 185.517L44.1391 185.295L43.535 185.221L44.108 185.262L44.1391 185.295L44.4246 185.33L43.6942 185.057L43.3759 184.853L42.366 182.311L39.5648 180.223L38.7372 179.773L38.8387 179.57L38.6099 179.445L39.6 177.464L39.1509 177.439L38.5461 177.48L36.0633 178.913L35.4585 179.404L35.0765 179.609L33.8669 179.199L32.0844 178.299L27.8827 175.678L26.1002 174.859L24.9542 174.491L21.962 175.432L21.0391 175.596L20.5298 175.473L20.1477 175.187L20.0788 174.903L20.0204 174.859L19.8613 174.204L19.893 173.713L20.1159 172.853L20.1795 172.485L20.1608 172.43L19.893 172.239L18.1424 172.075L17.6649 171.952L17.2511 171.625L16.9646 171.174L16.904 170.952L16.8373 170.847L16.8707 170.829L16.7417 170.355L22.4542 167.932L23.5912 167.342L23.8141 166.973L24.2279 166.769L25.1192 166.564L25.9468 166.277L26.2651 166.073L26.2721 166.028L26.2014 165.95L25.533 165.786L22.9865 165.499L22.318 165.172L21.6813 164.64L20.058 162.347L20.0561 162.196L19.9306 162.019L19.8366 154.86L19.6123 154.467L24.2271 151.881L24.1368 151.533L24.0158 151.177L23.8185 150.96L23.4365 150.796H22.8317L23.0105 150.469H22.7044L24.1416 147.835H23.3335L22.1558 147.753L21.1053 147.507L20.3096 146.443L20.2865 146.255L20.1822 146.115L19.7095 142.265L18.909 140.383L18.527 140.096L17.8903 139.81L16.458 139.605L15.5348 139.318L15.1211 138.991L14.8983 138.663L14.8345 138.295L14.8027 137.926L14.8123 137.791L14.8027 137.681L14.8345 137.23L14.9937 136.698L15.2802 136.37L15.6621 136.166L17.2856 136.043L17.9221 135.879L18.6225 135.47L19.1955 135.306L19.8002 135.183L23.0789 135.019L24.1292 134.815L24.6067 134.61L24.4477 134.323L23.7155 133.545L22.9197 132.399L30.0765 127.747L29.8536 127.46L29.5353 127.215L29.1215 127.01L28.6121 126.928L26.8296 126.846L26.2886 126.601L25.7793 126.109L25.6519 125.045L25.0471 123.775L24.9515 123.366L24.697 117.839L24.7051 117.769L24.697 117.593L24.7925 116.774L25.0789 116.16L25.4608 115.832L25.8747 115.587L26.2567 115.423L26.7023 115.3L27.1798 115.218L28.8669 115.177L32.1455 114.44L32.6548 114.399H33.1959L39.0528 115.3L39.4985 115.464L39.8486 115.669L40.1351 115.914L40.6443 116.774L40.9626 117.02L41.3765 117.184L41.8858 117.347L45.6737 117.88L49.3024 118.821L49.8436 118.903L50.7668 118.617L51.9126 118.043L54.2045 116.569L55.1275 115.791L55.6687 115.218L55.7005 114.85V114.727L55.6687 114.358L55.2868 113.048L55.0321 112.434L53.8225 110.755L53.5043 110.141L52.5493 107.603L52.4538 107.234L52.4219 106.784L52.4356 106.731L52.4219 106.538L52.5811 105.924L52.8675 105.596L53.2496 105.392L54.2045 105.187L54.8729 104.941L55.6687 104.532L56.9738 103.549L57.4194 102.976L57.5787 102.566L57.5469 102.403L57.133 101.42L57.0375 101.092L56.942 100.806L56.8782 100.56L55.605 96.9571L55.2868 96.302L54.9684 95.7288L54.7138 95.0737L54.4592 94.0501L54.2682 93.7226L53.9499 93.5178L53.4406 93.3541L51.1806 93.2722L50.7986 93.1903L50.5757 92.9446L50.4166 92.658L50.2574 92.3714L49.971 92.1666L49.589 92.0438L49.0797 92.0029L48.5386 92.0438L47.5518 92.2076L46.7242 92.4942L46.3104 92.5761H45.8647L45.5147 92.4124L45.2599 92.1666L45.069 91.88L44.9417 91.5115V91.2659V91.0612V90.8156L45.2917 88.7275L45.3098 88.472L44.5915 85.8205L43.9867 84.5512L43.8593 84.0599L43.7638 83.3229L43.7893 83.2738L43.7638 83.0772L43.9548 82.7088L44.3368 82.3403L46.5013 81.5623L46.8833 81.2757L47.1613 81.0007L47.1379 80.9482L46.2786 80.5387L45.9602 80.1702L45.6737 77.2632L45.7324 77.1663L45.7056 76.8947L45.9283 76.5262L46.2149 76.2396L47.1061 75.8711L47.5518 75.5845L47.6279 75.4279L47.6154 75.3798L47.4881 75.1341L47.3608 74.9294L47.2017 74.6428L46.8833 73.783L46.9694 73.5612L46.9151 73.4145L47.0424 73.0869L47.329 72.8822L48.634 72.4728L49.6208 72.0633L50.2256 71.6539L50.4166 71.2854L50.0345 69.2382L49.7162 68.2555L49.5572 67.9689L49.3343 67.6823L49.0479 67.4776L48.634 67.3138L47.5518 67.2729L43.35 67.7232L42.8726 67.887L42.3951 68.1736L42.0449 68.8287L41.854 69.3201L41.4084 71.4082L41.2492 71.8176L41.0265 72.1452L40.6762 72.35L40.2623 72.5137L37.2385 72.8822H36.8247L36.5382 72.7184L36.379 72.4318L36.2835 71.9405L36.1244 70.098L36.1738 69.9328L36.1562 69.7295L36.3153 69.1973L36.6654 68.8287L37.0793 68.624L37.5249 68.3374L38.3844 66.9863L38.7028 66.7406L39.4985 66.3311L39.8439 65.9211L39.8167 65.8398L39.5304 65.5942L39.1165 65.4713H38.6708L35.2968 66.0446H34.8193L34.4054 65.9217L34.1509 65.676L33.928 65.3894L33.8007 65.0209L33.7052 64.7344L33.2914 63.8745L31.6361 61.7045L31.2861 60.6399L31.1587 58.0195L30.9678 56.3408L30.7449 55.5629L28.7395 51.5094L28.3575 50.4858L28.2302 49.7079L28.3319 49.4898L28.2939 49.2575L28.4849 48.8481L28.8669 48.4386L29.3125 48.193L29.8218 48.0701L30.904 48.0292L32.1136 48.152L35.1376 49.0118L36.3472 49.1756H40.9626L41.4401 49.0937L42.427 48.3977L43.35 47.6197L44.6233 46.8009L45.069 46.5961L45.992 46.3914L46.9469 46.2276H47.5199L48.7295 46.3095L58.3744 48.9299L58.6291 49.0118L58.9155 49.2165L59.3611 49.3803L59.9023 49.5032L60.8571 49.5441L61.3028 49.3394L61.5814 49.0169L61.5894 48.9709L61.5575 48.6433L61.271 48.3977L60.8254 48.2339L58.6927 47.7426L58.3426 47.5788L58.1515 47.456L57.9924 47.2512L57.9288 46.9646V46.678L58.0242 46.4735V46.3095L58.2152 45.9001L59.2339 44.7537L59.7431 44.3852L60.3162 44.2214L60.8254 44.3033L61.9394 44.5899L62.608 44.6718L63.531 44.6308L64.0403 44.4261L64.3587 44.0985L64.4223 43.6482L64.486 43.1568L64.5525 43.0114L64.5814 42.7883L64.8998 42.0923L65.2817 41.7238L65.7274 41.4781L66.2367 41.3963L66.7778 41.3553L67.319 41.3963L67.8283 41.4781L68.242 41.6829L69.1334 42.4199L69.4835 42.6246L69.8654 42.8293L70.3429 42.9931L70.8522 43.0749H71.4252L72.1573 43.034L74.3218 42.5836L74.9266 42.297L75.1813 42.0588V42.0104L74.6719 40.3727V39.9632L74.7674 39.6256V39.5947L74.8947 39.1443L75.3404 38.5711L75.8497 38.2845L76.5818 38.1207L76.9637 37.8751L77.2185 37.5885L77.5048 36.7286L77.9505 35.8279L78.269 35.5003L81.7385 33.6169L82.3751 33.3712L85.0171 33.2075L86.0993 32.9208L86.6405 32.6342L86.7997 32.404V32.3067L86.6723 31.9791L86.4494 31.6925L85.8765 31.2012L85.6218 30.9145L85.4628 30.628V30.2595L85.59 29.4815L85.5582 29.154L85.2717 28.9083L84.4122 28.5398L84.0941 28.2941L83.9347 28.0075L83.9986 27.68L84.0307 27.6368L84.0941 27.3115L85.4628 25.469L85.9721 25.0186L86.4176 24.6911L88.6459 23.995L89.0914 23.6265L89.2506 23.3706V23.2171L89.3143 22.7258L89.3858 22.5417L89.4097 22.3573L89.6327 21.7841L90.2374 20.7605L90.683 20.3101L91.065 19.9825L111.755 10.115L112.487 9.54176L112.527 9.46947L112.36 9.25517L110.896 8.02687L110.578 7.82212L110.196 7.65836L109.686 7.61743L107.617 7.82212L103.957 7.74026L102.811 7.61743L102.302 7.49457L101.919 7.33079L101.76 7.12608L101.979 6.83431L101.888 6.71665L104.498 3.23638L105.007 2.86792L105.548 2.62224L114.716 2.04904L127.289 3.60489L131.65 3.27734L133.241 2.99075L133.687 2.70412Z" fill="url(#paint20_linear)"/>
<defs>
<linearGradient id="paint0_linear" x1="-113.477" y1="132.747" x2="66.52" y2="255.578" gradientUnits="userSpaceOnUse">
<stop stop-color="#3A90B6"/>
<stop offset="1" stop-color="#075F92"/>
</linearGradient>
<linearGradient id="paint1_linear" x1="-150.105" y1="-12.1456" x2="80.3552" y2="20.1303" gradientUnits="userSpaceOnUse">
<stop stop-color="#3A90B6"/>
<stop offset="1" stop-color="#075F92"/>
</linearGradient>
<linearGradient id="paint2_linear" x1="-150.105" y1="-12.1456" x2="80.3552" y2="20.1303" gradientUnits="userSpaceOnUse">
<stop stop-color="#3A90B6"/>
<stop offset="1" stop-color="#075F92"/>
</linearGradient>
<linearGradient id="paint3_linear" x1="-150.105" y1="-12.1456" x2="80.3552" y2="20.1303" gradientUnits="userSpaceOnUse">
<stop stop-color="#3A90B6"/>
<stop offset="1" stop-color="#075F92"/>
</linearGradient>
<linearGradient id="paint4_linear" x1="-150.105" y1="-12.1456" x2="80.3552" y2="20.1303" gradientUnits="userSpaceOnUse">
<stop stop-color="#3A90B6"/>
<stop offset="1" stop-color="#075F92"/>
</linearGradient>
<linearGradient id="paint5_linear" x1="-150.105" y1="-12.1456" x2="80.3552" y2="20.1303" gradientUnits="userSpaceOnUse">
<stop stop-color="#3A90B6"/>
<stop offset="1" stop-color="#075F92"/>
</linearGradient>
<linearGradient id="paint6_linear" x1="-150.105" y1="-12.1456" x2="80.3552" y2="20.1303" gradientUnits="userSpaceOnUse">
<stop stop-color="#3A90B6"/>
<stop offset="1" stop-color="#075F92"/>
</linearGradient>
<linearGradient id="paint7_linear" x1="-150.105" y1="-12.1456" x2="80.3552" y2="20.1303" gradientUnits="userSpaceOnUse">
<stop stop-color="#3A90B6"/>
<stop offset="1" stop-color="#075F92"/>
</linearGradient>
<linearGradient id="paint8_linear" x1="-150.105" y1="-12.1456" x2="80.3552" y2="20.1303" gradientUnits="userSpaceOnUse">
<stop stop-color="#3A90B6"/>
<stop offset="1" stop-color="#075F92"/>
</linearGradient>
<linearGradient id="paint9_linear" x1="-150.105" y1="-12.1456" x2="80.3552" y2="20.1303" gradientUnits="userSpaceOnUse">
<stop stop-color="#3A90B6"/>
<stop offset="1" stop-color="#075F92"/>
</linearGradient>
<linearGradient id="paint10_linear" x1="-150.105" y1="-12.1456" x2="80.3552" y2="20.1303" gradientUnits="userSpaceOnUse">
<stop stop-color="#3A90B6"/>
<stop offset="1" stop-color="#075F92"/>
</linearGradient>
<linearGradient id="paint11_linear" x1="-150.105" y1="-12.1456" x2="80.3552" y2="20.1303" gradientUnits="userSpaceOnUse">
<stop stop-color="#3A90B6"/>
<stop offset="1" stop-color="#075F92"/>
</linearGradient>
<linearGradient id="paint12_linear" x1="-150.105" y1="-12.1456" x2="80.3552" y2="20.1303" gradientUnits="userSpaceOnUse">
<stop stop-color="#3A90B6"/>
<stop offset="1" stop-color="#075F92"/>
</linearGradient>
<linearGradient id="paint13_linear" x1="-150.105" y1="-12.1456" x2="80.3552" y2="20.1303" gradientUnits="userSpaceOnUse">
<stop stop-color="#3A90B6"/>
<stop offset="1" stop-color="#075F92"/>
</linearGradient>
<linearGradient id="paint14_linear" x1="-150.105" y1="-12.1456" x2="80.3552" y2="20.1303" gradientUnits="userSpaceOnUse">
<stop stop-color="#3A90B6"/>
<stop offset="1" stop-color="#075F92"/>
</linearGradient>
<linearGradient id="paint15_linear" x1="-150.105" y1="-12.1456" x2="80.3552" y2="20.1303" gradientUnits="userSpaceOnUse">
<stop stop-color="#3A90B6"/>
<stop offset="1" stop-color="#075F92"/>
</linearGradient>
<linearGradient id="paint16_linear" x1="-150.105" y1="-12.1456" x2="80.3552" y2="20.1303" gradientUnits="userSpaceOnUse">
<stop stop-color="#3A90B6"/>
<stop offset="1" stop-color="#075F92"/>
</linearGradient>
<linearGradient id="paint17_linear" x1="-150.105" y1="-12.1456" x2="80.3552" y2="20.1303" gradientUnits="userSpaceOnUse">
<stop stop-color="#3A90B6"/>
<stop offset="1" stop-color="#075F92"/>
</linearGradient>
<linearGradient id="paint18_linear" x1="-150.105" y1="-12.1456" x2="80.3552" y2="20.1303" gradientUnits="userSpaceOnUse">
<stop stop-color="#3A90B6"/>
<stop offset="1" stop-color="#075F92"/>
</linearGradient>
<linearGradient id="paint19_linear" x1="-150.105" y1="-12.1456" x2="80.3552" y2="20.1303" gradientUnits="userSpaceOnUse">
<stop stop-color="#3A90B6"/>
<stop offset="1" stop-color="#075F92"/>
</linearGradient>
<linearGradient id="paint20_linear" x1="145.945" y1="263.67" x2="-51.1701" y2="-15.1346" gradientUnits="userSpaceOnUse">
<stop stop-color="#59BDE4"/>
<stop offset="0.260417" stop-color="#43A9D5"/>
<stop offset="0.697917" stop-color="#0B77B0"/>
<stop offset="1" stop-color="#015E94"/>
</linearGradient>
</defs>
</svg>
