<svg width="158" height="154" viewBox="0 0 158 154" fill="none" xmlns="http://www.w3.org/2000/svg">
<path opacity="0.1" d="M86.6425 20.7884L88.0805 21.7588L88.3398 21.971L88.6463 22.1226L88.9056 22.2136L89.2592 22.2742L89.9193 22.2136L90.2493 22.2742L90.5558 22.3956L91.1452 22.6685L91.5459 22.7897L91.876 22.8504H92.8897L97.8403 28.915L98.7596 30.3706L99.7026 32.7358L100.009 33.1906L100.339 33.9184L100.316 34.252L100.174 34.4945L99.7733 34.9191L99.6083 35.1617L99.4905 35.4346L99.4433 35.7075L99.4905 35.9804L99.5612 36.223L99.6791 36.4352L99.8205 36.9507L99.9855 38.2849V39.134L100.033 39.4069L100.198 39.6495L100.504 39.8921L101.942 40.3166L101.989 40.3469L102.013 40.3772L102.225 40.6502L102.249 40.6805L102.484 41.196L102.673 41.8631L102.791 42.3786L102.814 42.6515L102.791 42.9244L102.744 43.2276L102.673 43.5005L102.555 43.7735L102.414 44.0161L102.201 44.2283L101.966 44.3799L100.811 44.8954L100.575 45.0774L100.363 45.2896L100.245 45.5322L100.198 45.7748L100.245 45.9871L100.646 46.9271V47.2L100.598 47.4729L100.528 47.7761L100.339 48.3523L100.268 48.6555L100.221 48.9284V49.2013L100.198 49.3833L100.363 49.5955L100.575 49.8078L100.905 49.9594L101.565 50.02L101.966 49.9594L102.296 49.8381L102.602 49.6865L103.215 49.4136L103.545 49.3226L103.922 49.2923L104.3 49.3226L105.596 49.8381L107.741 50.202L108.072 50.4143L108.378 50.7175L108.684 51.233L108.802 51.5969L108.826 51.9304L108.779 52.5066V52.7795L108.849 53.0524L108.967 53.2646L109.109 53.4769L109.179 53.7195V53.9621L109.038 54.2047L108.826 54.3866L108.59 54.5382L108.307 54.6898L107.954 54.7505L107.576 54.7808L107.176 54.7505L106.445 54.5685L104.488 53.7802L103.663 53.5982L103.215 53.5679L102.838 53.5982L102.461 53.6892L102.225 53.8408L102.084 54.0834L102.036 54.3563L102.013 54.5989L102.084 54.8415L102.225 55.084L102.296 55.1447L103.003 55.5389L105.266 56.2666L105.808 56.6002L106.186 57.0854L106.256 57.5099V57.9648L106.516 58.6015L107.388 59.7538L108.354 60.33L109.58 60.4513L112.574 60.2087L113.659 60.3906L117.242 62.0584L117.855 62.5739L117.808 63.2713L117.148 64.4236L117.124 65.121L117.43 65.7882L118.916 67.6379L119.788 68.1837L120.424 67.7895L120.849 66.9404L121.061 66.152L121.367 65.5759L121.862 65.121L122.523 64.6662L124.196 63.9081L125.069 63.7565L126.106 63.8778L126.035 64.3933L125.21 65.212L124.361 66.9404L123.819 68.8205L123.89 70.0637L125.823 68.9418L127.497 69.0328L131.245 70.4276L129.595 71.307L125.469 71.8225L124.526 72.9748L125.163 74.8245L127.096 74.4909L130.986 72.338L132.117 72.2773L132.636 72.5502L132.848 72.4896L133.084 71.4889L133.06 70.5793L132.966 69.9728L133.343 69.6392L134.781 69.5786L135.677 69.7908L136.526 70.1547L137.445 70.3973L138.624 70.276L138.836 69.9728L138.765 69.4876L138.859 69.0328L139.52 68.8811L139.968 69.0024L141.028 69.427L141.641 69.5482L140.934 70.4883L140.486 70.9431L139.897 71.307L145.628 72.0954L147.042 72.9445L148.622 73.6722L149.824 73.9754L151.639 74.218L152.818 74.6426L154.798 76.0678L156.684 76.9168L157.108 77.1897L157.745 78.2813L157.627 78.7059L157.179 78.8878L156.896 79.3123L156.731 79.9795L156.66 80.1311L156.873 80.2524L157.485 80.8588L157.863 81.6776L157.58 82.2234L157.108 82.5873L156.943 83.0118L154.091 84.2854L153.171 84.7706L152.441 85.2557L152.087 85.5893L151.639 86.1048L151.474 86.4686L151.403 86.7719L151.498 87.6209L152.016 89.6526L153.572 93.1095V93.8675L152.488 100.084L151.804 101.873L151.474 102.419L151.073 102.813L150.696 102.995L150.295 103.086H149.895L149.494 102.995L148.857 102.783L148.197 102.479L146.759 102.055L145.934 101.873L144.472 101.752L136.172 101.843L133.178 102.297L130.42 102.965L124.526 105.481L119.951 112.831L120.319 112.697L119.928 112.869L119.865 112.97L119.228 113.243L119.042 113.277L118.668 113.486L118.315 113.759L118.15 114.032L118.056 114.214L117.961 114.517L117.867 115.093L117.891 115.366L117.914 115.639L118.008 115.881L118.221 116.336L118.291 116.609L118.197 116.943L117.938 117.094L117.537 117.155H117.113L116.452 117.337L115.627 117.671L113.631 118.969L113.767 118.915L117.522 120.733L111.363 120.564L110.986 121.705L110.538 122.281L120.905 134.919L120.575 135.435L120.339 135.95L120.292 136.193L120.245 136.466L117.386 135.8L117.339 136.892L117.41 137.438L117.857 138.62L117.975 138.832L118.14 139.045L119.107 139.985L119.272 140.197L119.39 140.409L119.437 140.682L119.484 140.955L119.296 142.411L119.319 142.684L119.46 143.169L119.932 144.048L120.026 144.291L120.073 144.564L120.097 144.836V145.109L120.05 145.382L119.696 145.928L115.665 150.719L115.524 150.931L115.052 152.508L114.981 152.842L114.934 153.691L72.4935 139.696L67.6992 133.929L67.322 133.444L67.1098 133.08L66.8033 132.413L66.1228 128.118L66.1935 126.754L66.335 126.511L67.8223 119.341L68.223 118.916L68.6474 118.552L69.1424 118.037L67.9245 111.728L67.9716 111.364V111.091L67.8773 110.818L66.6043 109.15L65.4963 107.361L65.3078 107.119L65.0248 106.846L60.7579 103.753L59.4142 102.965L59.98 103.146L59.4142 102.601L58.9898 102.328L58.4948 102.176L56.7031 102.024L56.3731 101.964L56.2081 101.752L56.1609 101.357V100.842L56.0195 99.9625L55.8073 99.538L55.548 99.2347L54.7465 98.7496L54.3221 98.416L54.0628 98.2644L53.7799 98.2038L53.497 98.2644L53.2613 98.416L52.7191 99.1134L52.5069 99.3257L52.059 99.7199L51.5639 100.053L50.9746 100.296L50.6445 100.387L49.9137 100.508L48.2635 100.599L46.4248 100.478L44.2559 100.084L43.7844 99.8715L43.2894 99.6289L42.4878 99.0225L42.0871 98.5676L41.8513 98.2038L41.8042 97.9308L41.592 95.7779L41.6156 94.9591L41.6627 94.6862L42.3464 92.9578L42.5114 92.7152L42.6293 92.412L42.7236 92.1391L42.7943 91.8358L42.8415 91.5326L42.7707 91.0172L42.6293 90.5016V90.2591L42.6529 89.7739L42.7472 89.3493L42.9593 88.7429L43.0536 88.379L43.0772 87.8635L42.865 87.5906L42.5821 87.439L42.205 87.348L41.8278 87.3783L41.4506 87.439L37.7258 88.7429L36.3349 89.0461L33.0817 89.1978L31.4551 89.7436L30.1585 90.532L29.8756 90.6836L29.2627 90.8958L28.5319 91.0172H28.0604L27.5182 90.9262L26.7402 90.6533L26.3866 90.4107L26.198 90.1378L26.1509 89.8952L26.198 89.5919L26.2923 89.3191L26.528 88.8035L26.7402 88.5306L26.9052 88.3184L27.141 87.7422V87.348L27.0467 86.8932L26.6695 86.1351L26.4102 85.7409L26.1509 85.468L25.9623 85.286L25.3729 84.9828L25.0664 84.8615L24.7128 84.7402L23.817 84.5886L23.2276 84.437L22.5911 84.1641L18.9371 81.7382L18.5599 81.344L18.3478 81.0408L18.3242 80.7679L18.3478 80.4646L18.4185 80.1917L18.6542 79.5853L18.7014 79.191L18.6071 78.5846L18.3949 78.2813L18.0649 78.0691L17.3105 77.8568L16.3911 77.7355L15.4953 77.6749L14.6938 77.7355L13.5622 77.8871L13.0435 77.8568L12.4542 77.7052L11.2283 76.9471L5.49281 77.8168L2.85249 76.7859L0 76.0581L4.24337 68.5683L4.29052 67.9921L4.19827 67.2208L4.14907 67.0521L4.0312 66.8095L3.74831 66.385L2.87606 65.2024V64.8688L2.99394 64.5959L3.37112 64.1714L5.79928 59.1983L6.24719 58.6222L7.47306 58.1674L10.9926 52.8705L11.3226 52.6582L12.7135 52.0214L13.2086 51.5059L13.8922 50.6872L16.3204 47.1697L16.5325 46.8968L16.839 46.6845L17.2869 46.3813L18.6307 45.8051L19.9272 45.4109L20.6816 45.2896L21.8368 45.229L28.8619 46.3206L32.4688 46.4419L32.9874 46.3206L33.6475 46.1084L35.3213 45.3503L35.8163 45.1987H36.2171L37.0186 45.2896L39.4703 46.169L40.0597 46.1084L40.9319 45.8961L44.3974 44.5922L45.1517 44.5012L45.5053 44.4709L46.354 44.6225L49.3715 45.4413L49.7959 45.5322H50.621L54.0864 44.7438L54.8879 44.7135L56.656 44.8954L58.2354 44.7438L58.9898 44.5922L62.1488 43.6219L65.0484 43.1063L65.8499 43.0457L66.2979 43.076L66.7693 43.1367L67.1701 43.1973L67.453 43.3186L67.9481 43.3793H68.6081L70.0226 43.1063L70.777 42.8335L71.272 42.5605L71.5078 42.3483L71.6964 42.1057L71.7671 41.8328L71.7907 41.6205L71.6728 41.3779L70.5177 40.1953L70.0462 39.6495L69.1504 39.9224L67.8302 39.7708L66.2271 39.3463L65.8028 39.0127L65.8264 37.3449L65.8735 37.072L66.0385 36.7688L66.2979 36.4959L66.6986 36.1017L66.9108 35.7984L67.0051 35.5558L66.9108 35.2526L66.7458 35.0404L66.51 34.8584L65.9207 34.5855L65.5435 34.4945H65.1191L64.742 34.6461L63.1625 35.4042L62.856 35.5255L62.5024 35.6165L62.1488 35.6468L61.7716 35.5862L61.4887 35.4649L61.253 35.2526L61.088 35.0404L60.9937 34.7674L61.0172 34.4339L61.2058 33.979L61.4887 33.7365L61.7952 33.5848L63.2568 33.3119L64.0819 33.2816L65.6378 33.3422L66.6279 33.2816L67.5001 33.0087L68.0188 32.7055L68.7732 32.099L71.2956 30.7345L71.6728 30.4312L71.7671 30.1886L71.7907 29.946L71.6492 29.7338L71.4371 29.5518L69.3625 28.5815L69.1268 28.3996L69.2918 27.975L69.7869 27.3686L72.2386 25.2459L72.7101 24.7304L72.8279 24.4575L72.8987 24.1543L72.8751 23.8814L72.8279 23.6388L72.6158 23.1536L72.1914 22.5168L72.1207 22.2742L72.2386 21.9104L72.5686 21.4858L72.5922 21.4555L73.323 20.6671L73.7945 20.3032L74.2188 20.0607L74.596 20.0303L75.0203 20.0607L77.4721 20.5761L78.2736 20.6065L83.7193 20L84.5915 20.091L85.3694 20.2426L86.0767 20.4852L86.6425 20.7884Z" fill="#333333"/>
<path d="M72.9722 118.954V131.574L75.9108 130.47V117.85L72.9722 118.954ZM75.9136 117.85V130.47L109.829 145.615V132.995L75.9136 117.85Z" fill="url(#paint0_linear)"/>
<path d="M109.5 133L110.5 131L115 125V136L110.5 143.5L109.5 145.5V133Z" fill="url(#paint1_linear)"/>
<path d="M113 120.5V113L109.5 114L107 115.5L110 118.5L113 120.5Z" fill="url(#paint2_linear)"/>
<path d="M115.5 107.5L111 111L104 111.5C103 110 100.9 106.8 100.5 106C100 105 98.5 102 99.5 101C100.3 100.2 105.167 97.6667 107.5 96.5L115 95L114 93.5L114.5 91.5L117.5 90.5L119 89.8125H120L127 85L132.5 82L138 81L147.5 82C148 80.5 149 77.3 149 76.5C149 75.7 150 74.5 150.5 74L151.5 73L146.5 69L148 64.5L152.5 63.15L154 61.5L156 62V73L155 74H153.5L152.5 75.5L152 84L150 94.5H147.5L143 92.5H140.5L138 93L127 97L120 102H119L117.5 102.5L115.5 107.5Z" fill="url(#paint3_linear)"/>
<path d="M155.5 61V58.5C155 58.6667 153.8 59.1 153 59.5C152.2 59.9 153.333 60.3333 154 60.5L155.5 61Z" fill="url(#paint4_linear)"/>
<path d="M144.5 55C144.9 55.4 144.667 51.5 144.5 49.5L141.5 51.5V53.5C142.333 53.8333 144.1 54.6 144.5 55Z" fill="url(#paint5_linear)"/>
<path d="M134 54V50.5L128 51.5L124 54L124.5 56L129.5 57.5L134 54Z" fill="url(#paint6_linear)"/>
<path d="M129 49.5V44L126 47.5L125.5 50L126.5 51.5L129 49.5Z" fill="url(#paint7_linear)"/>
<path d="M112 41.5V34L109.5 31.5L105 32.5C104.167 33.1667 102.5 34.6 102.5 35C102.5 35.5 103 36.5 103.5 37.5C104 38.5 104.5 38 106.5 39C108.5 40 108 41 108 41.5C108 41.9 110.667 41.6667 112 41.5Z" fill="url(#paint8_linear)"/>
<path d="M121 43L120.5 42.5C120 42.8333 118.6 43.6 117 44C115.4 44.4 116.333 46.1667 117 47L121 47.5V43Z" fill="url(#paint9_linear)"/>
<path d="M105.5 31V23L104 24C103.167 24.8333 101.3 26.8 100.5 28C99.7 29.2 100.167 30.5 100.5 31H105.5Z" fill="url(#paint10_linear)"/>
<path d="M103.5 20.5V14.1875C103 14.4583 101.9 15 101.5 15C101 15 101 16.5 101 17.5C101 18.3 101.667 19.1667 102 19.5L103.5 20.5Z" fill="url(#paint11_linear)"/>
<path d="M64 25.5V14.5L67 14L72.5 15C74.1667 15.6667 77.7 17.1 78.5 17.5C79.5 18 79 20 79.5 22.5C80 25 73.5 25.5 72.5 26C71.7 26.4 66.5 25.8333 64 25.5Z" fill="url(#paint12_linear)"/>
<path d="M72 13V8.5H76L76.5 9.5C76.3333 9.83333 76 10.6 76 11C76 11.5 72 12.5 72 13Z" fill="url(#paint13_linear)"/>
<path d="M75 5.5V2L77 2.5L76.5 4.5L75 5.5Z" fill="url(#paint14_linear)"/>
<path d="M3 67V56L4.5 55.5H8L8.5 57.5L14 56.5H15H17H19L20 57L22 57.5L25 62.5L26 63L27 63.5H28L30 65L32 66L31 68V70L32 69.5L34 69L36 68L39 68.5L41 68L42.5 67.5L44 65L47.5 65.5L48 70L49.5 71.5L50 74C50.6667 75.8333 52 79.6 52 80L54 79.5L56 77.5H57L58 78C58.3333 78.1667 59 78.6 59 79L61 80L62 81L64.5 83L68 86C69.3333 87 72.1 89.1 72.5 89.5C72.9 89.9 75 96.6667 76 100L73.5 101L72 104C71.6 104.8 70.5 106.667 70 107.5C71.1667 109.167 73.6 112.5 74 112.5C74.5 112.5 75 115.5 75.5 116.5C75.9 117.3 76 118.167 76 118.5L73.5 119.5L73 131.5L69 118L66.5 107.5L67.5 102.5L67.9987 98.0112C67.9184 98.3408 63.9795 95.4847 62 94L61 93H59L58 88L57 87.5L56 88L54 91L51 92L49.5 90L45 89L44 86L42.5 78L41 79L39 80L36 79.5H34L32 80.5L31 81H29L28 75.5H27L26 75H25L21.5 72L20 68.5L19 68L17 68.5H15L14 68L8.5 69.5L3 67Z" fill="url(#paint15_linear)"/>
<path d="M89.6425 0.788406L91.0805 1.75876L91.3398 1.97101L91.6463 2.12263L91.9056 2.21361L92.2592 2.27425L92.9193 2.21361L93.2493 2.27425L93.5558 2.39555L94.1452 2.66846L94.5459 2.78975L94.876 2.85037H95.8897L100.84 8.91504L101.76 10.3706L102.703 12.7358L103.009 13.1906L103.339 13.9184L103.316 14.252L103.174 14.4945L102.773 14.9191L102.608 15.1617L102.49 15.4346L102.443 15.7075L102.49 15.9804L102.561 16.223L102.679 16.4352L102.82 16.9507L102.986 18.2849V19.134L103.033 19.4069L103.198 19.6495L103.504 19.8921L104.942 20.3166L104.989 20.3469L105.013 20.3772L105.225 20.6502L105.249 20.6805L105.484 21.196L105.673 21.8631L105.791 22.3786L105.814 22.6515L105.791 22.9244L105.744 23.2276L105.673 23.5005L105.555 23.7735L105.414 24.0161L105.201 24.2283L104.966 24.3799L103.811 24.8954L103.575 25.0774L103.363 25.2896L103.245 25.5322L103.198 25.7748L103.245 25.9871L103.646 26.9271V27.2L103.598 27.4729L103.528 27.7761L103.339 28.3523L103.268 28.6555L103.221 28.9284V29.2013L103.198 29.3833L103.363 29.5955L103.575 29.8078L103.905 29.9594L104.565 30.02L104.966 29.9594L105.296 29.8381L105.602 29.6865L106.215 29.4136L106.545 29.3226L106.922 29.2923L107.3 29.3226L108.596 29.8381L110.741 30.202L111.072 30.4143L111.378 30.7175L111.684 31.233L111.802 31.5969L111.826 31.9304L111.779 32.5066V32.7795L111.849 33.0524L111.967 33.2646L112.109 33.4769L112.179 33.7195V33.9621L112.038 34.2047L111.826 34.3866L111.59 34.5382L111.307 34.6898L110.954 34.7505L110.576 34.7808L110.176 34.7505L109.445 34.5685L107.488 33.7802L106.663 33.5982L106.215 33.5679L105.838 33.5982L105.461 33.6892L105.225 33.8408L105.084 34.0834L105.036 34.3563L105.013 34.5989L105.084 34.8415L105.225 35.084L105.296 35.1447L106.003 35.5389L108.266 36.2666L108.808 36.6002L109.186 37.0854L109.256 37.5099V37.9648L109.516 38.6015L110.388 39.7538L111.354 40.33L112.58 40.4513L115.574 40.2087L116.659 40.3906L120.242 42.0584L120.855 42.5739L120.808 43.2713L120.148 44.4236L120.124 45.121L120.43 45.7882L121.916 47.6379L122.788 48.1837L123.424 47.7895L123.849 46.9404L124.061 46.152L124.367 45.5759L124.862 45.121L125.523 44.6662L127.196 43.9081L128.069 43.7565L129.106 43.8778L129.035 44.3933L128.21 45.212L127.361 46.9404L126.819 48.8205L126.89 50.0637L128.823 48.9418L130.497 49.0328L134.245 50.4276L132.595 51.307L128.469 51.8225L127.526 52.9748L128.163 54.8245L130.096 54.4909L133.986 52.338L135.117 52.2773L135.636 52.5502L135.848 52.4896L136.084 51.4889L136.06 50.5793L135.966 49.9728L136.343 49.6392L137.781 49.5786L138.677 49.7908L139.526 50.1547L140.445 50.3973L141.624 50.276L141.836 49.9728L141.765 49.4876L141.859 49.0328L142.52 48.8811L142.968 49.0024L144.028 49.427L144.641 49.5482L143.934 50.4883L143.486 50.9431L142.897 51.307L143.628 52.0954L145.042 52.9445L146.622 53.6722L147.824 53.9754L149.639 54.218L150.818 54.6426L152.798 56.0678L154.684 56.9168L155.108 57.1897L155.745 58.2813L155.627 58.7059L155.179 58.8878L154.896 59.3123L154.731 59.9795L154.66 60.1311L154.873 60.2524L155.485 60.8588L155.863 61.6776L155.58 62.2234L155.108 62.5873L154.943 63.0118L152.091 64.2854L151.171 64.7706L150.441 65.2557L150.087 65.5893L149.639 66.1048L149.474 66.4686L149.403 66.7719L149.498 67.6209L150.016 69.6526L151.572 73.1095V73.8675L150.488 80.0838L149.804 81.8729L149.474 82.4187L149.073 82.8129L148.696 82.9948L148.295 83.0858H147.895L147.494 82.9948L146.857 82.7826L146.197 82.4793L144.759 82.0548L143.934 81.8729L142.472 81.7516L139.172 81.8426L136.178 82.2974L133.42 82.9645L127.526 85.4813L119.865 90.9697L119.228 91.2426L118.403 91.3943L117.319 91.6975L116.211 92.1826L115.668 92.4859L115.315 92.7588L115.15 93.0317L115.056 93.2137L114.961 93.5169L114.867 94.093L114.891 94.3659L114.914 94.6388L115.008 94.8814L115.221 95.3363L115.291 95.6092L115.197 95.9427L114.938 96.0944L114.537 96.155H114.113L113.452 96.3369L112.627 96.6705L108.525 99.339L108.243 99.4602L107.913 99.5512L106.522 99.7332L105.767 99.9151L104.471 100.431L103.905 100.794L103.551 101.128L103.504 101.219L103.386 101.492L102.986 102.705L102.538 103.281L112.905 112.919L112.575 113.435L112.339 113.95L112.292 114.193L112.245 114.466L112.386 115.8L112.339 116.892L112.41 117.438L112.857 118.62L112.975 118.832L113.14 119.045L114.107 119.985L114.272 120.197L114.39 120.409L114.437 120.682L114.484 120.955L114.296 122.411L114.319 122.684L114.46 123.169L114.932 124.048L115.026 124.291L115.073 124.564L115.097 124.836V125.109L115.05 125.382L114.696 125.928L110.665 130.719L110.524 130.931L110.052 132.508L109.981 132.842L109.934 133.691L75.4935 119.696L70.6992 113.929L70.322 113.444L70.1098 113.08L69.8033 112.413L69.1228 108.118L69.1935 106.754L69.335 106.511L70.8223 99.3408L71.223 98.9163L71.6474 98.5524L72.1424 98.0369L70.9245 91.7278L70.9716 91.364V91.091L70.8773 90.8181L69.6043 89.1503L68.4963 87.3613L68.3078 87.1187L68.0248 86.8458L63.7579 83.7529L62.4142 82.9645L62.98 83.1465L62.4142 82.6006L61.9898 82.3277L61.4948 82.1761L59.7031 82.0245L59.3731 81.9638L59.2081 81.7516L59.1609 81.3574V80.8419L59.0195 79.9625L58.8073 79.538L58.548 79.2347L57.7465 78.7496L57.3221 78.416L57.0628 78.2644L56.7799 78.2038L56.497 78.2644L56.2613 78.416L55.7191 79.1134L55.5069 79.3257L55.059 79.7199L54.5639 80.0535L53.9746 80.2961L53.6445 80.387L52.9137 80.5083L51.2635 80.5993L49.4248 80.478L47.2559 80.0838L46.7844 79.8715L46.2894 79.6289L45.4878 79.0225L45.0871 78.5676L44.8513 78.2038L44.8042 77.9308L44.592 75.7779L44.6156 74.9591L44.6627 74.6862L45.3464 72.9578L45.5114 72.7152L45.6293 72.412L45.7236 72.1391L45.7943 71.8358L45.8415 71.5326L45.7707 71.0172L45.6293 70.5016V70.2591L45.6529 69.7739L45.7472 69.3493L45.9593 68.7429L46.0536 68.379L46.0772 67.8635L45.865 67.5906L45.5821 67.439L45.205 67.348L44.8278 67.3783L44.4506 67.439L40.7258 68.7429L39.3349 69.0461L36.0817 69.1978L34.4551 69.7436L33.1585 70.532L32.8756 70.6836L32.2627 70.8958L31.5319 71.0172H31.0604L30.5182 70.9262L29.7402 70.6533L29.3866 70.4107L29.198 70.1378L29.1509 69.8952L29.198 69.5919L29.2923 69.3191L29.528 68.8035L29.7402 68.5306L29.9052 68.3184L30.141 67.7422V67.348L30.0467 66.8932L29.6695 66.1351L29.4102 65.7409L29.1509 65.468L28.9623 65.286L28.3729 64.9828L28.0664 64.8615L27.7128 64.7402L26.817 64.5886L26.2276 64.437L25.5911 64.1641L21.9371 61.7382L21.5599 61.344L21.3478 61.0408L21.3242 60.7679L21.3478 60.4646L21.4185 60.1917L21.6542 59.5853L21.7014 59.191L21.6071 58.5846L21.3949 58.2813L21.0649 58.0691L20.3105 57.8568L19.3911 57.7355L18.4953 57.6749L17.6938 57.7355L16.5622 57.8871L16.0435 57.8568L15.4542 57.7052L14.2283 56.9471L8.49281 57.8168L5.85249 56.7859L3 56.0581L7.24337 48.5683L7.29052 47.9921L7.19827 47.2208L7.14907 47.0521L7.0312 46.8095L6.74831 46.385L5.87606 45.2024V44.8688L5.99394 44.5959L6.37112 44.1714L8.79928 39.1983L9.24719 38.6222L10.4731 38.1674L13.9926 32.8705L14.3226 32.6582L15.7135 32.0214L16.2086 31.5059L16.8922 30.6872L19.3204 27.1697L19.5325 26.8968L19.839 26.6845L20.2869 26.3813L21.6307 25.8051L22.9272 25.4109L23.6816 25.2896L24.8368 25.229L31.8619 26.3206L35.4688 26.4419L35.9874 26.3206L36.6475 26.1084L38.3213 25.3503L38.8163 25.1987H39.2171L40.0186 25.2896L42.4703 26.169L43.0597 26.1084L43.9319 25.8961L47.3974 24.5922L48.1517 24.5012L48.5053 24.4709L49.354 24.6225L52.3715 25.4413L52.7959 25.5322H53.621L57.0864 24.7438L57.8879 24.7135L59.656 24.8954L61.2354 24.7438L61.9898 24.5922L65.1488 23.6219L68.0484 23.1063L68.8499 23.0457L69.2979 23.076L69.7693 23.1367L70.1701 23.1973L70.453 23.3186L70.9481 23.3793H71.6081L73.0226 23.1063L73.777 22.8335L74.272 22.5605L74.5078 22.3483L74.6964 22.1057L74.7671 21.8328L74.7907 21.6205L74.6728 21.3779L73.5177 20.1953L73.0462 19.6495L72.1504 19.9224L70.8302 19.7708L69.2271 19.3463L68.8028 19.0127L68.8264 17.3449L68.8735 17.072L69.0385 16.7688L69.2979 16.4959L69.6986 16.1017L69.9108 15.7984L70.0051 15.5558L69.9108 15.2526L69.7458 15.0404L69.51 14.8584L68.9207 14.5855L68.5435 14.4945H68.1191L67.742 14.6461L66.1625 15.4042L65.856 15.5255L65.5024 15.6165L65.1488 15.6468L64.7716 15.5862L64.4887 15.4649L64.253 15.2526L64.088 15.0404L63.9937 14.7674L64.0172 14.4339L64.2058 13.979L64.4887 13.7365L64.7952 13.5848L66.2568 13.3119L67.0819 13.2816L68.6378 13.3422L69.6279 13.2816L70.5001 13.0087L71.0188 12.7055L71.7732 12.099L74.2956 10.7345L74.6728 10.4312L74.7671 10.1886L74.7907 9.94604L74.6492 9.73378L74.4371 9.55183L72.3625 8.58148L72.1268 8.39955L72.2918 7.97502L72.7869 7.36858L75.2386 5.24593L75.7101 4.73044L75.8279 4.45752L75.8987 4.15428L75.8751 3.88139L75.8279 3.63879L75.6158 3.15363L75.1914 2.51683L75.1207 2.27425L75.2386 1.91037L75.5686 1.48584L75.5922 1.45552L76.323 0.667114L76.7945 0.303238L77.2188 0.0606537L77.596 0.0303345L78.0203 0.0606537L80.4721 0.576141L81.2736 0.606476L86.7193 0L87.5915 0.0909882L88.3694 0.242584L89.0767 0.485168L89.6425 0.788406Z" fill="url(#paint16_linear)"/>
<defs>
<linearGradient id="paint0_linear" x1="-90" y1="-84" x2="130.342" y2="107.524" gradientUnits="userSpaceOnUse">
<stop stop-color="#3A90B6"/>
<stop offset="1" stop-color="#075F92"/>
</linearGradient>
<linearGradient id="paint1_linear" x1="-65.5" y1="-76" x2="89.1141" y2="67.8117" gradientUnits="userSpaceOnUse">
<stop stop-color="#3A90B6"/>
<stop offset="1" stop-color="#075F92"/>
</linearGradient>
<linearGradient id="paint2_linear" x1="-65.5" y1="-76" x2="89.1141" y2="67.8117" gradientUnits="userSpaceOnUse">
<stop stop-color="#3A90B6"/>
<stop offset="1" stop-color="#075F92"/>
</linearGradient>
<linearGradient id="paint3_linear" x1="-65.5" y1="-76" x2="89.1141" y2="67.8117" gradientUnits="userSpaceOnUse">
<stop stop-color="#3A90B6"/>
<stop offset="1" stop-color="#075F92"/>
</linearGradient>
<linearGradient id="paint4_linear" x1="-65.5" y1="-76" x2="89.1141" y2="67.8117" gradientUnits="userSpaceOnUse">
<stop stop-color="#3A90B6"/>
<stop offset="1" stop-color="#075F92"/>
</linearGradient>
<linearGradient id="paint5_linear" x1="-65.5" y1="-76" x2="89.1141" y2="67.8117" gradientUnits="userSpaceOnUse">
<stop stop-color="#3A90B6"/>
<stop offset="1" stop-color="#075F92"/>
</linearGradient>
<linearGradient id="paint6_linear" x1="-65.5" y1="-76" x2="89.1141" y2="67.8117" gradientUnits="userSpaceOnUse">
<stop stop-color="#3A90B6"/>
<stop offset="1" stop-color="#075F92"/>
</linearGradient>
<linearGradient id="paint7_linear" x1="-65.5" y1="-76" x2="89.1141" y2="67.8117" gradientUnits="userSpaceOnUse">
<stop stop-color="#3A90B6"/>
<stop offset="1" stop-color="#075F92"/>
</linearGradient>
<linearGradient id="paint8_linear" x1="-65.5" y1="-76" x2="89.1141" y2="67.8117" gradientUnits="userSpaceOnUse">
<stop stop-color="#3A90B6"/>
<stop offset="1" stop-color="#075F92"/>
</linearGradient>
<linearGradient id="paint9_linear" x1="-65.5" y1="-76" x2="89.1141" y2="67.8117" gradientUnits="userSpaceOnUse">
<stop stop-color="#3A90B6"/>
<stop offset="1" stop-color="#075F92"/>
</linearGradient>
<linearGradient id="paint10_linear" x1="-65.5" y1="-76" x2="89.1141" y2="67.8117" gradientUnits="userSpaceOnUse">
<stop stop-color="#3A90B6"/>
<stop offset="1" stop-color="#075F92"/>
</linearGradient>
<linearGradient id="paint11_linear" x1="-65.5" y1="-76" x2="89.1141" y2="67.8117" gradientUnits="userSpaceOnUse">
<stop stop-color="#3A90B6"/>
<stop offset="1" stop-color="#075F92"/>
</linearGradient>
<linearGradient id="paint12_linear" x1="-65.5" y1="-76" x2="89.1141" y2="67.8117" gradientUnits="userSpaceOnUse">
<stop stop-color="#3A90B6"/>
<stop offset="1" stop-color="#075F92"/>
</linearGradient>
<linearGradient id="paint13_linear" x1="-65.5" y1="-76" x2="89.1141" y2="67.8117" gradientUnits="userSpaceOnUse">
<stop stop-color="#3A90B6"/>
<stop offset="1" stop-color="#075F92"/>
</linearGradient>
<linearGradient id="paint14_linear" x1="-65.5" y1="-76" x2="89.1141" y2="67.8117" gradientUnits="userSpaceOnUse">
<stop stop-color="#3A90B6"/>
<stop offset="1" stop-color="#075F92"/>
</linearGradient>
<linearGradient id="paint15_linear" x1="-65.5" y1="-76" x2="89.1141" y2="67.8117" gradientUnits="userSpaceOnUse">
<stop stop-color="#3A90B6"/>
<stop offset="1" stop-color="#075F92"/>
</linearGradient>
<linearGradient id="paint16_linear" x1="115" y1="170.5" x2="-51.1513" y2="-25.0045" gradientUnits="userSpaceOnUse">
<stop stop-color="#59BDE4"/>
<stop offset="0.260417" stop-color="#43A9D5"/>
<stop offset="0.697917" stop-color="#0B77B0"/>
<stop offset="1" stop-color="#015E94"/>
</linearGradient>
</defs>
</svg>
