<svg width="225" height="139" viewBox="0 0 225 139" fill="none" xmlns="http://www.w3.org/2000/svg">
<path d="M0.875 40.1875L1.0625 28.0625L4.75 30L9.0625 32.0625L12.75 33.25C13.7292 33.8125 15.725 34.9875 15.875 35.1875L20.25 36.9375L21.9375 36.875L23.8125 36.5625L27.375 38.0625L29 43L29.25 43.3125L31.1875 44.5625L34.5 47.5625C36 47.8542 39.075 48.425 39.375 48.375C39.625 47.9167 40.1625 46.95 40.3125 46.75C40.5 46.5 44.0625 47.0625 45.125 47.4375C46.1875 47.8125 46.625 50.1875 46.9375 50.5625C47.25 50.9375 49.9375 52.75 50.9375 54.3125C51.9375 55.875 51.625 58.6875 52.4375 60.375C53.0875 61.725 49.375 63.9792 47.4375 64.9375L37.375 64.125L41.1875 65.5625L44.1875 67.5L37.3125 75L37.375 64.125L47.4375 64.9375L39.5 62.9375L39.3125 62.6875L33.9375 61.5L32.0625 60.25L30.625 59.875L28.3125 57L26.6875 53.125L23.625 49.375L22.1875 49.6875L20.1875 50.1875L15.875 49.0625L13.1875 47.5625L9 47.4375L6.4375 44.1875L5.1875 43.9375L4.625 43.0625L0.875 40.1875Z" fill="url(#paint0_linear)"/>
<path d="M13.375 92.625L13.25 80.4375L18.3125 80C18.5625 80.7917 19.1125 82.525 19.3125 83.125L20.125 84.5L22.0625 85.8125L24.625 85.25L27.6875 85.8125L32.4375 87.125L38.75 89.875L43.25 91.9375L50.9375 96.1875L54 96.5625L57.9375 96.6875L59.3125 96.125L61.8125 97.125L64.1875 97.3125L66.6875 98.0625L66.375 97.9375L68.25 97.5625L74.0625 99.375L76.0625 98.5L84.375 95.9375L92.125 94.625C92.9375 95.5417 94.9625 97.9875 96.5625 100.438C97.6511 102.104 96.7954 103.268 95.6647 103.96C96.9092 104.179 98.0193 104.386 98.5 104.5C99.55 104.75 97.3958 106.229 96.1875 106.938L104.312 107.75C104.417 108.167 104.688 109.088 104.938 109.438C105.25 109.875 105.312 110.812 105.312 112.375C105.312 113.625 102.229 113.688 100.688 113.562C103.604 114.062 109.9 114.925 111.75 114.375C114.062 113.688 113.562 115 114.875 115.875C116.188 116.75 114.125 119.875 114.062 120.688C114 121.5 111.438 122.438 111.125 122.5C112.667 122.729 115.8 123.25 116 123.5C116.2 123.75 115.792 124.938 115.562 125.5L117.688 126L119.438 125.812C118.833 125.646 117.537 125.213 117.188 124.812C116.838 124.412 118.208 122.521 118.938 121.625L125.875 117.375L133.25 119.375L137.438 119.5L139.812 118.438L142 118.25C140.938 116.688 138.675 113.387 138.125 112.688C137.575 111.988 135.146 110.854 134 110.375C134.312 109.042 134.938 106.3 134.938 106C134.938 105.625 141.938 104.75 142.5 104.75C142.95 104.75 144.646 106.5 145.438 107.375L149.812 108.5L149.5 107.938L153.688 105.375L157.625 106.062L162.688 108.125L164.139 108.246L164.215 108.155L159.438 106.438L161.375 104.562L163.312 103.438L166.312 104.938L166.25 101.5L167.875 100.25L168.625 102.5L171.25 102.875L174.625 102.812L172.938 101.75L173.312 100.375L175.375 99.375L174.75 97.125L177 98.0625L177.25 96.5625L180.25 95.875L183.125 95.5C181.375 95.0208 177.587 93.875 176.438 93.125C176.024 92.8555 175.776 92.6963 175.638 92.6097L175.625 92.625C175.492 92.5316 175.391 92.4552 175.638 92.6097L178.938 88.625L184.062 89.25L185.188 88.125L183.312 85.5C185.333 84.3125 189.5 81.8875 190 81.6875C190.5 81.4875 198.25 79.7292 202.062 78.875C200.854 78.7083 198.35 78.35 198 78.25C197.65 78.15 194.854 77.9167 193.5 77.8125C192.375 77.5417 190.05 76.975 189.75 76.875C189.45 76.775 191.375 75.1667 192.375 74.375C194.042 73.5208 197.538 71.725 198.188 71.375C198.837 71.025 202.458 71.6042 204.188 71.9375L212.938 71.75L217.688 72.25L218.688 70.875L221.188 68.8125L221.753 67.9076L216.5 67.5L213.312 62C213.333 60.0625 213.45 56.0375 213.75 55.4375C213.918 55.1015 214.136 54.6651 214.478 54.2352L211.188 50.5625C212.771 49.0625 216.038 46.0125 216.438 45.8125C216.837 45.6125 220.896 42.7708 222.875 41.375L225 41.875V53.75L224.113 57.3567L224.25 63.6875L223.75 68.0625L224.062 79.6875L221.75 82.25L219.125 84.3125L218.188 86.5C216.562 86.7083 213.25 87.125 213 87.125L204.25 85.75L203.25 85.625L202.062 91.5L185.188 101.375L184 102.125L183.188 108.188L180.125 108.875L176.688 110.5L175.5 112.562L174.5 115.688L171.125 116.375L168.375 115L166.438 116.75L164.875 119.875L163.938 120.688H162.438L153.688 118.5L149.812 120.625L145.438 120.75L143.812 131.25L139.875 131.188C139.188 131.688 137.75 132.75 137.5 133L133.25 133.188L125.688 130.562L119.562 137.562L117.438 139L115.125 138.25L113.125 138.562H112.062L111.312 134.438L100.562 126.188L99.4375 122.438L95.5625 119.312C95.5625 119.662 92.1458 118.042 90.4375 117.188H87.25L84.375 108.938L76.375 111.375L74 112.25L68.5625 111.188L66.9375 111.625L64.625 110.75L61.8125 111.188L59.3125 109.375L58.25 110.438L54.25 110.312L50.75 110.438L42.9375 107.375L38.6875 104.5L32.25 101.312L27.6875 98.6875L24.3125 98.375L22 98.75L19.9375 98.4375L18 98.6875L16.125 98.3125L13.375 92.625Z" fill="url(#paint1_linear)"/>
<path d="M176.562 8.25L176.375 0.4375C174.771 1.3125 171.462 3.1375 171.062 3.4375C170.562 3.8125 172.312 5.9375 172.625 6.4375C172.875 6.8375 175.354 7.8125 176.562 8.25Z" fill="url(#paint2_linear)"/>
<path d="M40.25 12.375L40.0625 9.625C40.7083 9.97917 41.9375 10.8125 41.6875 11.3125C41.4375 11.8125 40.625 12.2292 40.25 12.375Z" fill="url(#paint3_linear)"/>
<path d="M29.25 7.625L29.1875 12.2188L26.6875 13.125C26.1042 13 25.05 12.675 25.5 12.375C25.95 12.075 26.6458 11.5 26.9375 11.25L27.8372 10.3503L27.9062 8.625C27.9907 8.65516 28.1022 8.69459 28.2211 8.73598C28.2313 8.62528 28.2592 8.53999 28.3125 8.5C28.5125 8.35 28.9583 7.79167 29.25 7.625Z" fill="url(#paint4_linear)"/>
<path d="M13.4688 16.125V14.1562C13.6667 14.2292 14.125 14.3562 14.375 14.2812C14.6875 14.1875 14.4062 15.0312 14.4062 15.375C14.4062 15.65 13.7812 15.9896 13.4688 16.125Z" fill="url(#paint5_linear)"/>
<path d="M4.90625 25.2812L4.96875 17.7188L5.8125 18.2812C6.23958 18.6771 7.23125 19.6313 7.78125 20.2812C8.46875 21.0938 8.09375 22.0312 8.0625 23.5625C8.0375 24.7875 5.94792 25.2188 4.90625 25.2812Z" fill="url(#paint6_linear)"/>
<path d="M32.7188 12.0312L32.9062 9.25C33.2083 9.5 33.8375 10.0188 33.9375 10.0938C34.0625 10.1875 33.9375 10.5625 34.0625 10.875C34.1625 11.125 33.2083 11.75 32.7188 12.0312Z" fill="url(#paint7_linear)"/>
<path d="M52.7901 8.74504L53.0251 8.60758L53.1908 8.4418L53.3558 8.1689L53.4736 7.86566L53.5444 7.62308L53.6151 7.16821L53.6794 7.14914L53.9216 7.07726L55.1158 7.35306L59.6783 4.47806L78.0221 0.790558L84.5221 2.13431L89.9596 7.10306L92.9283 8.60306L94.0846 11.8843L104.491 11.4156L131.397 10.2906L162.272 4.69681L171.553 2.13431L176.366 0.196808L175.241 5.50931L186.741 14.1031L187.835 19.0718L195.71 26.7593L215.678 36.9781L222.903 36.3964L223.091 36.548L223.256 36.7602L223.677 37.2792L224.481 38.2704L224.505 38.3607L224.528 38.3917L224.67 40.3627L224.835 41.2117L224.953 41.515L225 41.7576L224.996 41.7994L225 41.8182L224.976 42.0911L224.882 42.4247L224.576 42.8492L223.821 43.5466L223.609 43.9105L223.161 45.1841L222.878 45.5783L222.572 45.8512L222.006 46.0938L221.794 46.2151L221.723 46.3364L221.684 46.5101L221.817 46.8519L222.407 47.8222L222.572 48.0042L223.09 48.368L223.279 48.5197L223.35 48.7319L223.338 48.7579L223.35 48.7926L223.255 49.0048L222.902 49.2171L222.673 49.3641L222.713 49.672L223.609 51.0062L223.727 51.2488L223.774 51.5217L223.769 51.552L223.774 51.5823L223.727 51.8552L223.397 52.2494L223.114 52.492L221.747 53.2198L221.511 53.432L221.346 53.7049L221.134 54.7663L221.039 55.9489L220.686 56.6463L220.356 57.0102L219.979 57.1618L218.918 57.3438L218.611 57.465L218.328 57.6167L217.598 58.5264L217.48 58.7993L217.461 59.0181L217.715 59.3754L218.022 59.618L218.823 60.1335L219.012 60.3457L219.318 60.7703L219.554 61.1948L219.719 61.68L219.813 65.2581L219.979 66.1072L220.238 66.6227L220.615 66.7136L221.888 66.744L222.312 66.8046L222.69 66.8956L222.996 67.0472L223.255 67.1988L223.444 67.3808L223.585 67.593L223.609 67.9569L223.606 67.9685L223.609 68.0175L223.468 68.533L222.548 69.6853L221.723 70.4434L219.955 71.4138L218.902 72.0808L218.376 72.4144L218.234 73.1118L218.21 73.3544L218.163 73.688L218.096 73.799L218.069 73.9912L217.904 74.2641L217.574 74.4764L216.395 74.6886L213.165 74.9312L203.854 73.779L197.064 74.2035L196.664 74.3854L196.286 74.6583L194.515 77.0197L194.565 77.0842L194.848 77.2055L195.226 77.2964L196.074 77.3874L198.785 77.4481L200.318 77.2964L200.695 77.3268L200.978 77.4481L201.213 77.5997L202.298 78.5094L202.463 78.7216L202.327 78.9713L202.369 79.0249L202.203 79.3281L201.661 79.7527L186.338 87.0606L186.055 87.3031L185.725 87.6367L185.301 88.3645L185.189 88.6527L185.159 88.8799V89.1529L185.089 89.2665V89.4258L184.9 89.729L184.57 90.0019L182.92 90.5174L182.59 90.76L182.212 91.0936L181.223 92.4261L181.222 92.4278L181.34 92.64L181.576 92.822L182.212 93.0949L182.425 93.2768L182.448 93.5194L182.354 94.0956V94.3685L182.472 94.5807L182.66 94.793L183.085 95.1569L183.25 95.3691L183.344 95.6117V95.8543L183.273 95.9567V96.1272L183.085 96.4001L182.684 96.6124L181.882 96.8247L179.926 96.9459L179.454 97.1279L176.885 98.5228L176.649 98.7653L176.319 99.4325L176.107 100.069L175.918 100.282L175.635 100.463L175.093 100.585L174.716 100.797L174.386 101.222L174.362 101.305V101.585L174.739 102.798V103.041L174.669 103.107V103.314L174.409 103.556L173.961 103.769L172.358 104.102L171.816 104.133H171.392L171.015 104.072L170.661 103.951L170.378 103.799L170.119 103.647L169.459 103.102L169.152 102.95L168.775 102.889L168.374 102.859L167.974 102.889L167.596 102.95L167.266 103.132L166.984 103.405L166.797 103.813L166.771 104.011L166.724 104.345L166.654 104.618L166.583 104.891L166.347 105.133L165.97 105.285L165.286 105.315L164.791 105.255L163.966 105.042L163.589 104.982L163.164 105.103L162.787 105.376L162.033 106.225L161.962 106.377V106.467L162.009 106.68L162.127 106.831L162.269 106.922L162.528 107.044L164.107 107.407L164.437 107.529L164.65 107.711L164.673 107.953L164.626 108.226L164.597 108.26L164.555 108.499L164.32 108.772L163.99 108.924L163.282 108.893L162.882 108.802L162.552 108.681L162.339 108.529L162.151 108.469L155.008 106.528L154.112 106.467H153.688L152.98 106.589L152.32 106.801L151.99 106.953L151.047 107.559L150.364 108.135L149.633 108.651L149.279 108.711H145.861L144.965 108.59L142.726 107.953L141.83 107.862L141.028 107.893L140.651 107.984L140.321 108.166L140.038 108.469L139.972 108.611L140.038 109.015L140.321 109.773L141.806 112.775L141.971 113.351L142.113 114.594L142.207 116.535L142.466 117.323L143.627 118.845L143.692 118.93L139.543 119.476L138.294 120.143L137.775 120.598L137.091 120.81L134.498 121.053L133.673 121.023L133.131 120.901L132.872 120.75L132.353 120.325L131.952 120.052L130.773 119.506L127.473 118.506L126.294 118.263L125.705 118.294L125.257 118.385L124.173 118.961L119.387 123.236L118.35 124.631L118.286 124.822L118.35 124.965L118.609 125.116L119.246 125.359L119.34 125.601L119.333 125.613L119.363 125.692L119.175 125.996L118.02 126.602L117.407 126.814L116.888 126.845L116.582 126.723L115.992 126.42L115.615 126.299L115.191 126.208L114.861 126.299L114.625 126.45L114.012 126.966L113.446 127.3L113.069 127.33L112.739 127.269L111.961 126.784L111.843 126.602L111.855 126.566L111.82 126.511L111.89 126.299L112.055 126.087L113.823 124.57L113.989 124.358L114.09 124.202L114.036 124.116L113.823 123.964L112.456 123.206L111.23 122.63L111.042 122.478L110.971 122.236L110.973 122.231L110.947 122.145L111.018 121.902L111.136 121.659L112.008 120.477L112.126 120.234L112.167 119.998L112.079 119.84L111.89 119.658L110.924 118.991L105.502 116.474L103.663 115.352L100.834 114.261L100.457 114.048L100.363 113.836L100.365 113.804L100.339 113.745L100.363 113.472L100.504 113.199L100.645 112.957L100.881 112.744L102.272 112.077L102.602 111.804L102.744 111.653L102.909 111.44L102.791 111.137L102.366 110.804L100.339 109.985L99.9147 109.742L99.4431 109.136L98.9952 108.863L98.288 108.56L96.685 108.044L96.0013 107.741L95.6713 107.407V107.104L95.3884 106.74L94.7755 106.528L92.8423 106.255L92.253 106.043L90.9565 105.406L90.4379 105.255L90.0914 105.195L87.7267 105.376L87.721 105.374L87.7032 105.376L87.326 105.285L87.2317 105.103L87.3732 104.921L87.6089 104.739L88.1039 104.405L89.8719 103.678L90.1077 103.526L90.3199 103.314L91.0743 102.404L91.1214 102.192L91.2158 101.98L91.0979 101.767L90.8857 101.585L89.5184 100.706L88.9998 100.251L88.8819 100.009V99.7357L88.9055 99.4628L88.5518 98.9776L87.8683 98.4318L85.8172 97.3401L84.8507 96.9763L84.281 96.8677L83.4598 97.2492L80.1358 98.1589L78.957 98.6744L77.8963 99.2505L77.5898 99.3718L76.9062 99.5234L76.5289 99.5841L75.8925 99.7964L75.6332 99.948L75.3031 100.1L74.8552 100.16L74.1008 100.191L74.0917 100.187L74.0065 100.191L73.205 99.8873L71.7198 99.4931L68.6787 99.0383H68.2072L67.5944 99.3415L67.2172 99.4931L66.5334 99.5234L66.521 99.5198L66.4391 99.5234L65.9205 99.3718L65.2369 99.0383L64.6947 98.8866L64.2344 98.8303L62.1722 98.9776L62.1386 98.9733L62.078 98.9776L61.6064 98.917L61.2529 98.7653L60.8993 98.5531L59.6262 97.9466L59.1659 97.8902L58.8011 97.9163L58.5418 98.0679L58.2353 98.1892L57.8581 98.2498L57.7912 98.2454L57.7638 98.2498L54.1396 98.0108L53.827 98.0376L52.3889 98.2802L51.4459 98.3408L51.4106 98.337L51.3516 98.3408L50.7859 98.2802L50.338 98.1589L48.8056 97.1886L47.6269 96.6124L43.2892 95.2175L42.2755 94.611L40.9318 93.5497L40.5546 93.3375L38.5508 92.5491L38.2443 92.3065L37.985 91.9729L37.4899 91.5787L32.6572 89.3348L32.3979 89.1225L32.28 88.9103L32.0443 88.4554L31.6671 88.1825L31.0777 87.849L28.9326 86.9696L27.683 86.636L27.3059 86.5754H26.0328H25.9385L24.1233 86.4238H23.7933L22.1902 86.6967L22.1144 86.6935L22.0959 86.6967L21.3651 86.6664L20.8465 86.5147L20.1629 86.1812L19.7191 86.0956L19.4084 86.1205L19.1021 86.2418L18.1826 86.4238L18.1168 86.4181L15.7073 86.2115L16.0138 85.7567L16.0609 85.2412L15.8252 84.4224L15.4716 83.6644L15.0472 82.9063L14.7407 82.5121L13.2085 80.9656L13.0906 80.7533L13.0434 80.4197L13.067 80.0256L13.2792 79.3888L13.68 78.6913L14.2693 78.0545L17.7347 75.3861L17.994 75.2345L18.3241 75.1435L18.6898 75.1141L18.7012 75.1132L19.1021 75.1435L19.4556 75.2648L19.715 75.3861L20.1157 75.75L20.3751 75.9319L21.2473 76.3564L22.0251 76.5687L22.4731 76.6293L29.4747 76.7506L30.9599 76.5687L34.661 75.2042L35.7454 74.5977L37.7257 72.9602L39.3995 70.9286L41.0561 69.3379L41.0733 69.1395L40.9318 68.806L40.1302 68.1085V67.8053L40.1538 67.7649V67.7143L40.3425 67.3907V67.2291L40.1774 66.9866L39.5645 66.744L38.6451 66.4711L38.3151 66.1982L38.0558 65.713L37.5135 65.0762L37.2778 64.6517L37.2307 64.1665L37.3014 63.8329L37.3108 63.8087L37.325 63.7419L37.4428 63.4387L37.5842 63.1658L37.7729 62.9536L38.0321 62.8019L39.1166 62.5897L39.7767 62.4077L40.1538 62.3471H40.5781L44.6329 62.8929H45.0101L45.293 62.711L45.6467 62.2561L45.9059 62.1045L46.2596 62.0439L47.4383 61.9529L47.7448 61.8316L47.9569 61.68L48.0148 61.5807L48.0276 61.498L47.674 61.0432L46.8961 60.6186L45.3402 60.0728L44.0672 59.2844L42.6292 58.8599L42.3227 58.6476L42.1812 58.1928L42.2196 58.1496L42.2048 58.1018L42.3934 57.8896L42.7234 57.7986L46.0474 57.6773L47.509 57.4347L47.8391 57.3134L48.0412 57.1952L47.8391 56.6463L47.1554 55.7366L43.69 51.9765L43.4071 51.552L43.1714 51.0971L43.1243 50.8546L43.1478 50.6423L43.1917 50.6109L43.1949 50.5816L43.4071 50.43L43.9729 50.2178L44.1615 50.0829V49.9449L44.1143 49.7326L43.8786 49.0048L43.7136 48.7926L43.4071 48.641L42.8649 48.5803L40.6961 48.6106L40.366 48.7016L40.1067 48.8835L39.9417 49.1261L39.7059 49.7023L39.541 49.9449L39.3052 50.0965L38.928 50.1268L38.0085 50.0661L34.4017 49.5203L34.0245 49.399L33.8123 49.1868L33.7181 48.8229L33.5766 48.55L33.3173 48.3377L31.3371 48.1861L30.9128 48.0648L30.5827 47.8526L30.3941 47.3977L30.2291 46.4577L30.0641 46.1848L29.7812 45.9422L28.296 45.366L28.0131 45.1841L27.7302 44.8809L27.4001 44.426L26.9051 43.304L26.7873 43.0008L26.6459 41.9698L26.6929 39.9988L26.6222 39.453L26.4336 38.9982L26.1743 38.7253L25.8207 38.3917L24.5948 37.6942L24.1233 37.5123L23.7226 37.4517H23.3218L22.9446 37.482L22.6146 37.573L21.7659 37.9672L21.4359 38.0581L21.0587 38.1188L21.0422 38.1176L21.0351 38.1188L20.1629 38.0581L15.7073 36.7845L15.3537 36.5723L14.34 35.7536L13.8214 35.5413L13.3292 35.3906L10.4738 35.511L10.4647 35.5104L10.4502 35.511L9.55444 35.4503L9.13007 35.3594L8.77649 35.2381L8.18713 34.9651L7.4563 34.4497L7.1734 34.298L6.84332 34.1767L5.49963 33.9948L5.09888 33.8432L4.76892 33.6613L3.96729 32.8122L3.68439 32.6606L3.30719 32.3877L2.92999 31.9935L2.36426 30.1134L2.24646 29.8708L1.02051 27.9605L1.11481 27.8392L1.77484 27.0204L2.36426 26.414L5.33466 24.3217L5.75897 23.9275L5.87677 23.321L5.94757 22.4113L5.61755 18.5603L4.91034 17.6506L7.43274 16.6499L7.78638 16.4073L8.21069 16.0738L8.44641 15.4066L8.98865 14.4666L9.31866 14.2847H9.62518L9.83734 14.406L10.0495 14.5879L10.5681 14.8911L11.4875 15.3157L12.2654 15.5886L12.902 15.6796L13.2792 15.5583L13.5149 15.346L13.6328 15.1034L13.68 14.8608L13.6093 14.6182L13.4677 14.406V14.0724L13.6564 13.6479L14.5522 12.8292L14.5635 12.8229L14.6229 12.7685L15.165 12.4653L15.6837 12.3743L16.7446 12.7685L17.2396 12.8898L17.5048 12.7761L17.6639 12.6169L17.7819 12.344L17.8997 12.0408L18.1119 11.6466L18.442 11.1917L19.1492 10.5549L19.1565 10.5513L19.2198 10.4943L19.715 10.2517L20.2336 10.1001L21.1293 10.1304L22.0251 10.2213L23.5104 10.6459L23.8405 10.7672L24.4062 10.8581L25.2078 10.8885L27.6595 10.4943L27.9207 10.4066L28.333 9.49788L28.3195 9.46327L28.0367 9.03874L27.9424 8.82648V8.55357L28.1309 8.25035L28.5789 7.7955L28.5989 7.78631L28.6495 7.73485L28.9796 7.58322L29.2861 7.49226L28.4037 9.43709L28.4846 9.6452L28.5081 9.88782L28.4139 10.1304L28.3432 10.191L28.3432 10.191L28.2017 10.3123L28.1309 10.373L27.9518 10.4331L27.4305 11.582L28.1549 11.0496L28.7207 10.8677L29.2158 10.807L29.593 10.8677L31.361 11.4741L31.8089 11.5651L32.3511 11.5954L32.6653 11.48L32.8227 11.3225L32.9169 11.0496V10.807L32.799 9.71538V9.41214L32.9169 8.98763L32.9866 8.93059L32.9876 8.92697L33.247 8.71472L33.6241 8.62373H34.0485L34.4965 8.65407L35.2743 8.86632L40.1542 10.6251L40.7672 10.7464L40.9901 10.6747L41.0265 10.5341L40.8615 10.3522L40.3192 9.95798L40.1542 9.77602L40.0835 9.50311L40.1561 9.44974L40.1542 9.44246L40.3192 9.32118L40.4843 9.26053L42.7238 9.47279L44.7748 9.29086L45.8356 8.89665L46.5428 8.74504L47.0615 8.68439L49.3011 9.01794L50.6448 9.0786L51.7763 8.98763L52.3657 8.89665L52.7901 8.74504Z" fill="url(#paint8_linear)"/>
<defs>
<linearGradient id="paint0_linear" x1="-173.393" y1="-8.82388" x2="55.698" y2="70.2328" gradientUnits="userSpaceOnUse">
<stop stop-color="#3A90B6"/>
<stop offset="1" stop-color="#075F92"/>
</linearGradient>
<linearGradient id="paint1_linear" x1="-173.393" y1="-8.82388" x2="55.698" y2="70.2328" gradientUnits="userSpaceOnUse">
<stop stop-color="#3A90B6"/>
<stop offset="1" stop-color="#075F92"/>
</linearGradient>
<linearGradient id="paint2_linear" x1="-173.393" y1="-8.82388" x2="55.698" y2="70.2328" gradientUnits="userSpaceOnUse">
<stop stop-color="#3A90B6"/>
<stop offset="1" stop-color="#075F92"/>
</linearGradient>
<linearGradient id="paint3_linear" x1="-173.393" y1="-8.82388" x2="55.698" y2="70.2328" gradientUnits="userSpaceOnUse">
<stop stop-color="#3A90B6"/>
<stop offset="1" stop-color="#075F92"/>
</linearGradient>
<linearGradient id="paint4_linear" x1="-173.393" y1="-8.82388" x2="55.698" y2="70.2328" gradientUnits="userSpaceOnUse">
<stop stop-color="#3A90B6"/>
<stop offset="1" stop-color="#075F92"/>
</linearGradient>
<linearGradient id="paint5_linear" x1="-173.393" y1="-8.82388" x2="55.698" y2="70.2328" gradientUnits="userSpaceOnUse">
<stop stop-color="#3A90B6"/>
<stop offset="1" stop-color="#075F92"/>
</linearGradient>
<linearGradient id="paint6_linear" x1="-173.393" y1="-8.82388" x2="55.698" y2="70.2328" gradientUnits="userSpaceOnUse">
<stop stop-color="#3A90B6"/>
<stop offset="1" stop-color="#075F92"/>
</linearGradient>
<linearGradient id="paint7_linear" x1="-173.393" y1="-8.82388" x2="55.698" y2="70.2328" gradientUnits="userSpaceOnUse">
<stop stop-color="#3A90B6"/>
<stop offset="1" stop-color="#075F92"/>
</linearGradient>
<linearGradient id="paint8_linear" x1="123.5" y1="164.5" x2="131.247" y2="-92.8755" gradientUnits="userSpaceOnUse">
<stop stop-color="#59BDE4"/>
<stop offset="0.260417" stop-color="#43A9D5"/>
<stop offset="0.697917" stop-color="#0B77B0"/>
<stop offset="1" stop-color="#015E94"/>
</linearGradient>
</defs>
</svg>
