<svg width="236" height="113" viewBox="0 0 236 113" fill="none" xmlns="http://www.w3.org/2000/svg">
<path d="M19.8751 60.75L19.5626 72.4375L21.7773 72.2851V59.6656L19.8751 60.75ZM21.7773 59.6656V72.2851L42.7546 81.4912V68.8717L21.7773 59.6656ZM1.31262 69.375L1.4375 80.9375L7.8299 82.6374V70.0179L1.31262 69.375ZM7.8299 70.0179V82.6374L16.674 83.4922V70.8726L7.8299 70.0179ZM232.335 77.1277V89.7501L235.406 86.9688V74.3492L232.335 77.1277ZM230.554 79.7564V92.3816L232.335 89.7529V77.1305L230.554 79.7564ZM0.125 82.625L0.25 94.3125L12.7567 95.3522V82.7271L0.125 82.625ZM216.284 83.7388V96.3611L230.554 92.3788V79.7537L216.284 83.7388ZM12.7567 82.7299V95.355L20.8857 97.4877V84.8682L12.7567 82.7299ZM211.893 86.048V98.6703L216.284 96.3639V83.7415L211.893 86.048ZM131.658 86.048V98.6703L139.966 96.1706V83.551L131.658 86.048ZM139.963 83.5482V96.1678L152.338 98.7264V86.1013L139.963 83.5482ZM20.8857 84.8654V97.4849L25.3947 98.7628V86.1433L20.8857 84.8654ZM170.438 84.2348V96.8571L172.07 99.9034V87.2839L170.438 84.2348ZM152.338 86.1041V98.7292L165.78 100.158V87.5389L152.338 86.1041ZM180.347 86.4095V99.0291L195.035 101.204V88.5842L180.347 86.4095ZM197.615 88.0714V100.691L204.04 101.071L210.466 101.45V88.8309L197.615 88.0714ZM210.466 88.8309V101.45L211.893 98.6703V86.048L210.466 88.8309ZM172.07 87.2839V99.9034L174.473 101.924V89.3045L172.07 87.2839ZM174.473 89.3073V101.927L180.35 99.0319V86.4123L174.473 89.3073ZM165.186 90.1845V102.804L170.438 96.8571V84.2348L165.186 90.1845ZM25.3918 86.1433V98.7628L28.7791 103.07V90.4507L25.3918 86.1433ZM89.8741 90.4899V103.109L99.9351 97.8828V85.2633L89.8741 90.4899ZM28.7791 90.4507V103.07L32.9039 103.889V91.269L28.7791 90.4507ZM74.2359 91.8239V98.1337V104.443L89.8741 103.112V90.4927L74.2359 91.8239ZM68.1258 91.3839V97.6937V104.003L74.2359 104.441V98.1309V91.8211L68.1258 91.3839ZM185.305 91.8239V104.443L186.522 103.889V91.269L185.305 91.8239ZM99.9351 85.2633V97.8828L107.677 104.707V92.0873L99.9351 85.2633ZM184.887 92.7375V105.36L185.302 104.443V91.8239L184.887 92.7375ZM32.9039 91.269V103.889L40.5001 105.416V92.7935L32.9039 91.269ZM61.7156 92.9113V105.531L68.1258 104.006V91.3867L61.7156 92.9113ZM56.6123 92.9309V105.55L61.7156 105.531V92.9113L56.6123 92.9309ZM182.515 93.5614V106.181L184.887 105.36V92.7375L182.515 93.5614ZM181.447 93.0458V105.665L181.685 106.293V93.6736L181.447 93.0458ZM127.056 90.5656V103.188L128.954 106.523V93.9033L127.056 90.5656ZM181.685 93.6736V106.293L181.8 106.599V93.979L181.685 93.6736ZM52.5492 94.1864V106.806L56.6123 105.548V92.9281L52.5492 94.1864ZM123.374 94.3966V107.019L127.053 103.191V90.5684L123.374 94.3966ZM107.68 92.0901V104.71L123.377 107.016V94.3966L107.68 92.0901ZM49.1367 94.5283V107.153L52.5492 106.809V94.1892L49.1367 94.5283ZM40.5001 92.7935V105.416L49.1367 107.151V94.5255L40.5001 92.7935ZM181.8 93.979V106.599L182.277 107.989V95.369L181.8 93.979ZM182.277 95.369V107.989H182.779V95.369H182.277ZM196.342 96.8936V109.513L198.717 105.699V93.0794L196.342 96.8936ZM182.961 98.0005V110.62L186.76 112.641V100.021L182.961 98.0005ZM186.758 100.021V112.641L196.339 109.513V96.8936L186.758 100.021ZM127.118 96.4172V109.037L129.75 112.344L131.537 105.206L127.118 96.4172Z" fill="url(#paint0_linear)"/>
<path d="M127.875 109.75V98.5L131.875 96L135.25 96.7812C135.969 96.6458 137.475 96.3625 137.75 96.3125C138.094 96.25 139.656 95.8125 140.125 95.875C140.5 95.925 142.427 96.5 143.344 96.7812C143.896 97 145.056 97.4563 145.281 97.5312C145.563 97.625 147 98.625 147.813 98.75C148.463 98.85 149.584 99.5625 150.063 99.9062C151.219 99.6875 153.619 99.25 153.969 99.25C154.406 99.25 156 99.5 156.781 99.5312C157.406 99.5563 160.375 100.125 161.781 100.406L165.281 100.062L165.344 112L161.875 112.812L149.938 112.406L143.406 109.312L135.375 109.625L132.25 111.5L129.625 112.375L127.875 109.75Z" fill="url(#paint1_linear)"/>
<path d="M234.344 51L234.25 63.125L231.438 64.3438L230.625 66.7812L229.094 69.0312L226.875 70.7812L226.938 74.75C225.25 74.2188 221.869 73.0188 221.844 72.4688C221.813 71.7812 220.969 70.4375 221.563 69.9375C222.156 69.4375 222.594 68.8438 223.219 68.9375L220.688 67.1875L219.062 65.75L219.125 63.8125L217.688 62.3125L217.438 59.6875L222 56.5625L226.219 58.9062L225.75 57.5C225.99 57.4062 226.525 57.225 226.75 57.25C226.975 57.275 227.698 57.2708 228.125 57.375L227.75 55.2188L230.094 54.0938C229.563 53.6875 228.55 52.7938 228.75 52.4688C228.95 52.1437 229.521 51.5417 229.781 51.2812L231.375 51.1875L234.344 51Z" fill="url(#paint2_linear)"/>
<path d="M210.781 17.8438L210.844 22.9688L211.031 27.4062L210.688 30.125C209.386 29.8021 206.813 29.05 206.938 28.625C207.094 28.0938 207.625 25.5625 208.188 24.9688C208.638 24.4937 210.146 23.4375 210.844 22.9688L206.406 22.7812L206.25 20.5938L208.625 18.4688L210.781 17.8438Z" fill="url(#paint3_linear)"/>
<path d="M142.125 5.5C142.073 4.41667 141.969 2.18125 141.969 1.90625C141.469 1.79167 140.375 1.575 140 1.625C139.531 1.6875 139.281 1.84375 137.156 3.375C135.031 4.90625 137.281 4.15625 137.813 5.09375C138.238 5.84375 140.865 5.67708 142.125 5.5Z" fill="url(#paint4_linear)"/>
<path d="M134.813 4.53125L134.719 2.5L134.938 1.75L135.781 2.0625C135.709 2.26042 135.513 2.825 135.313 3.5C135.113 4.175 134.896 4.46875 134.813 4.53125Z" fill="url(#paint5_linear)"/>
<path d="M105.156 9.53125V2.125C106.334 2.5625 108.856 3.59375 109.531 4.21875C110.375 5 109.656 6 109.844 7.5C110.031 9 109.75 10.5938 109.75 11.125C109.75 11.55 106.771 11.5729 105.281 11.5312L105.156 9.53125Z" fill="url(#paint6_linear)"/>
<path d="M97.5002 14.0312L97.719 13.7188C97.8127 14.125 98.2002 15.0437 99.0002 15.4688C99.8002 15.8938 99.3544 16.4792 99.0315 16.7188L97.5002 16.9375V14.0312Z" fill="url(#paint7_linear)"/>
<path d="M90.7978 18.8914C90.7741 18.2486 90.7391 17.4131 90.719 17.3125C91.1252 17.4896 92.0502 17.9062 92.5002 18.1562C93.0627 18.4688 92.2502 18.875 92.1252 19.125C92.0506 19.2743 91.5763 19.3168 91.176 19.3201L91.5002 19.6875C91.594 19.8646 91.794 20.2563 91.844 20.4062C91.894 20.5562 91.1148 20.9896 90.719 21.1875L90.5627 18.625L90.7978 18.8914Z" fill="url(#paint8_linear)"/>
<path d="M89.2815 28.0625L89.094 22.125C89.8232 22.5 91.5127 23.5875 92.4377 24.9375C93.594 26.625 93.219 27.1562 93.594 28.5C93.894 29.575 93.4065 29.6562 93.1252 29.5625C92.1252 29.4792 90.0502 29.2875 89.7502 29.1875C89.4502 29.0875 89.3127 28.3958 89.2815 28.0625Z" fill="url(#paint9_linear)"/>
<path d="M76.0627 44.375L76.0002 36.3125C77.344 36.2188 80.594 36.1 82.844 36.375C85.6565 36.7188 84.969 36.875 87.4377 37.5938C89.9065 38.3125 88.6252 39 88.969 40.5C89.3127 42 87.7815 43 86.719 44.4062C85.6565 45.8125 82.5315 44.0625 82.0002 43.9062C81.7701 43.8386 81.1752 43.8717 80.554 43.9361C81.8443 44.2417 83.1226 44.5609 83.2815 44.6562C83.594 44.8438 83.594 45.375 83.9065 46.4688C84.1565 47.3438 83.219 47.7708 82.719 47.875L78.5627 48.3125L78.5473 45.9197L77.9065 45.4688L76.0627 44.375Z" fill="url(#paint10_linear)"/>
<path d="M68.094 54.6875L67.969 50.3438C69.7815 50.3333 73.5815 50.2562 74.2815 50.0312C75.1565 49.75 77.1252 49.4375 78.3127 49.5625C79.5002 49.6875 78.5002 49.8125 79.6252 51.5938C80.7502 53.375 78.844 52.6562 78.7815 53.2188C78.719 53.7812 74.5627 54.3125 73.344 55.1875C72.369 55.8875 69.4377 55.1458 68.094 54.6875Z" fill="url(#paint11_linear)"/>
<path d="M141.263 3.37109L141.147 3.59405L141.428 4.03821L141.734 4.70532L141.852 4.91757L142.135 5.06921L142.607 5.16019L144.257 5.00854L144.799 5.03888L145.247 5.3118L145.459 5.52405L145.601 5.7363L146.048 6.43375L146.237 6.64603L147.086 6.73697L154.299 6.31247L163.588 4.52338L165.191 4.43243L176.836 6.52472L184.168 6.82794L187.539 6.43375L189.708 9.67831L193.881 17.4714L194.682 18.6237L194.847 18.9269L194.929 19.1641L194.965 19.2302L195.059 19.5031L195.173 20.5236L195.177 20.5341L195.389 20.7463L195.884 20.8979L196.285 20.9283L196.662 20.8676L197.299 20.6857L198.124 20.2309L198.454 20.1399L199.421 20.0186L199.869 20.1096L200.929 20.4431L201.307 20.5038L201.707 20.5341L202.085 20.5038L202.391 20.3825L202.627 20.2005L202.91 19.685L203.122 19.4424L203.523 19.0482L203.641 18.8056L203.688 18.5327L203.782 18.2598L203.923 18.0172L204.183 17.8656L204.819 17.6534L209.793 17.1682L210.076 17.1985L210.336 17.2592L210.548 17.4108L210.689 17.5927L210.654 17.7058L210.666 17.714L210.807 17.8959L210.713 18.1992L210.524 18.3811L210.265 18.5024L209.204 18.836L208.945 18.9876L208.733 19.1998L208.615 19.4727L208.52 19.776L208.473 20.3521L208.497 20.625L208.497 20.6252L208.685 20.8676L209.204 21.1709L210.336 21.656L210.524 21.838L210.666 22.1412L210.668 22.1966L210.783 22.4444L210.807 23.0206L210.689 23.2935L210.524 23.5057L210.147 23.718L210.006 23.9303L209.911 24.1729L209.935 24.4458L209.982 24.6884L210.713 26.5988L210.76 26.8413V27.0839L210.618 28.5394V28.8123L210.689 29.3582L210.801 29.8196L211.066 30.4801L211.072 30.5041L211.184 30.7834L211.267 31.1259L211.326 31.2382L211.585 31.4808L212.245 31.7234L213.259 31.9356L213.659 32.0872L213.942 32.3905L215.38 35.6654L215.385 35.7116L215.498 35.9686L215.758 38.3338L215.831 38.5495L215.993 38.7584L216.3 38.9403L216.936 39.1223L217.974 39.2436L218.044 39.2739L218.28 39.3952L218.516 39.6378L218.728 39.9713L219.011 40.6384L219.026 40.7005L219.129 40.9417L219.346 41.8064L219.388 41.8817L219.647 42.0939L220.142 42.2455L222.005 42.4275L222.382 42.5488L222.712 42.67L223.608 43.1249L224.268 43.3372L227.922 44.0043L228.252 44.1256L228.535 44.3682L228.818 44.7624L229.808 46.976L230.02 47.2186L230.327 47.4612L230.892 47.7037L231.364 47.7644L232.212 47.7947L232.613 47.8553L232.943 47.9767L233.226 48.1283L233.533 48.4618L233.839 48.947L234.263 50.0083L234.265 50.0208L234.381 50.3115L234.452 50.8574L234.311 51.1909L234.028 51.3122L232.118 51.8883L231.411 52.04L231.104 52.1613L230.892 52.3129L230.798 52.5555L230.727 52.8284L230.798 54.4355L230.704 54.6781L230.562 54.8904L230.091 55.3452L229.926 55.5575L229.761 55.8304L229.407 56.6794L229.242 56.922L229.03 57.1039L228.747 57.2556L228.111 57.4678L227.568 57.7711L227.144 58.1956L226.979 58.4382L226.79 58.6504L226.531 58.802L226.177 58.893L225.8 58.9537L223.773 59.0446L223.396 59.1053L223.089 59.1963L222.806 59.3782L222.594 59.5298L222.429 59.7421L222.406 59.9847V60.2272L222.561 60.7836L222.665 60.955L222.995 61.1673L223.749 61.3189H224.221L224.622 61.2279L224.928 61.137L224.339 61.6221L224.74 61.5312L225.046 61.4402L224.651 61.7655L225.659 62.2286L225.45 62.3816L225.777 62.5318L222.035 65.2683L222.15 65.2953L223.918 65.3862L224.366 65.5379L224.743 65.8411L225.191 66.4172L225.592 67.0844L225.757 67.5695L225.781 67.8121L225.757 68.085L225.663 68.3276L225.474 68.5398L224.791 69.0857L224.414 69.5102L224.296 69.7831L224.248 70.0257L224.279 70.2044L224.296 70.2379L224.437 70.4502L224.767 70.8444L226.7 72.6335L226.865 72.8761L227.007 73.149L227.172 73.3612L227.407 73.5735L227.785 73.7251L228.492 73.7858L231.061 73.6342L234.598 73.7251L234.998 73.8464L235.281 74.0587L235.307 74.293L235.399 74.3619L235.446 74.7864L235.305 75.0897L235.069 75.3019L234.833 75.4535L234.598 75.6355L234.503 75.8477V76.0904L234.527 76.6665L232.368 77.9693L230.461 80.7505L216.149 84.7193L211.836 87.0943L210.305 89.8755L197.493 89.1255L198.649 94.1568L196.243 97.9068L186.805 100.938L182.93 98.938L188.18 94.4693L194.961 89.688L180.243 87.5005L174.43 90.3755L172.055 88.438L170.493 85.3755L165.18 90.938L165.618 88.6255L151.493 86.8755L139.993 84.5005L131.493 86.8755L147.18 97.438L158.805 95.2505L165.43 100.001L161.828 100.698L149.947 100.395L143.511 97.1803L130.687 97.7565L127.743 98.5943L127.149 97.3443L128.961 94.813L126.899 91.4068L123.243 95.4068L107.618 93.0943L99.8364 86.188L89.9614 91.438L73.9927 92.8755L68.1489 92.4068L61.8052 93.8443H56.6177L52.6177 95.0943L49.1177 95.3755L28.7739 91.313L25.3364 87.0943L12.5552 83.6568L0.117676 82.688L9.33643 78.5318L16.5864 71.813L7.64893 70.938L1.30518 69.2818L13.5864 68.563L32.8364 69.3755L38.5552 70.3443L42.5239 69.8443L21.6802 60.5943L19.6021 60.7377L20.8751 60.3738L21.3937 60.0706L21.8651 59.7067L22.0773 59.5248L22.7845 58.5847L23.4918 57.2809L23.6804 56.9473L23.9633 56.6441L24.5526 56.2499L25.0005 56.068L25.472 55.9467L26.4622 55.8254H27.2873L31.6484 56.7957L33.5815 56.8867L34.1709 56.7957L34.5481 56.6138L34.7367 56.3712L35.5618 54.6427L35.8447 54.3092L36.4105 53.8847L36.9527 53.6724L39.428 53.2176L41.031 53.0963L41.4318 53.1266L41.7618 53.2176L41.9976 53.3995L42.3276 53.824L42.4691 54.0363L42.9406 54.1879L43.6949 54.2788L46.3116 54.1272L46.901 54.006L47.2782 53.7937L47.4669 53.6421L47.6554 53.4601L47.7733 53.1872L47.8428 52.9415L47.8676 52.8536L47.8912 52.5201L47.8676 51.4891L47.9627 51.22L47.9619 51.1859L48.0797 50.8523L48.3862 50.7614H48.7634L49.0935 50.8827L49.3056 51.0343L49.5649 51.1859L49.9421 51.3072L50.5787 51.3375L50.8616 51.4891L51.4273 51.6104L52.1817 51.7317L55.1049 51.6104L55.7413 51.7014L55.9771 51.853L56.2599 52.0046L56.6372 52.1259L58.3345 52.4595L58.6646 52.6111L58.924 52.7627L59.136 52.9446L59.6547 53.5511L59.8669 53.7331L60.3619 54.0363L60.6448 54.1576L60.857 54.1879H61.6585L65.6426 53.7937L69.2966 53.8543L69.7681 53.7937L70.0746 53.6724L70.3339 53.5208L76.0859 52.0956L77.3826 51.6407L77.7891 51.4244L77.524 51.3981L76.7697 51.4285L76.3925 51.3981L75.7088 51.1555L75.2137 51.0343L71.2062 51.3375L69.4381 51.2769L68.8723 51.1555L68.5658 51.0646L68.2829 50.9433L68.0471 50.7917L67.9529 50.5491L67.9764 50.2762L68.0506 50.2063L68.0708 49.9729L68.4243 49.6394L68.7544 49.4878L75.9917 48.6084L76.746 48.3961L78.3492 47.1832L79.2686 46.789L82.286 46.2129L83.064 45.94L83.2685 45.7822L83.2526 45.7277L83.064 45.5457L82.8518 45.3942L82.5925 45.3032L82.2625 45.2425L79.6221 45.2729L79.2449 45.2425L78.962 45.1212L78.7499 44.9393L78.6084 44.7271L78.5141 44.4844L78.3963 43.969L78.3492 43.1502L78.4465 42.8998L78.4434 42.847L78.5613 42.5437L78.8206 42.1799L79.5986 41.6947L80.0229 41.5431L80.2822 41.4825L80.3765 41.5431L80.7065 41.7553L81.1073 42.1496L81.5789 42.4831L82.0739 42.756L84.0778 43.5747V43.3322L84.1721 43.1199V43.0289L84.2663 42.8167L84.3606 42.665L84.5492 42.4831L85.8458 41.4521L86.4587 40.8153L86.6178 40.6106L86.6002 40.4514L86.4351 40.2392L82.9461 38.2379L78.6084 36.6004L78.2313 36.5397H77.8306L76.6989 36.661L76.3217 36.6307L76.0625 36.5094L75.8974 36.2971L75.8031 35.6907L75.6853 35.3268L75.5673 35.1146L75.4966 34.9023L75.4731 34.6597L75.5673 34.3868L75.5699 34.3829L75.5673 34.3565L75.6616 34.0836L75.8031 33.8713L77.0762 32.6887L78.8913 30.0506L79.5279 28.868L79.8815 28.4738L80.235 28.3828L80.5179 28.4434L81.3431 29.1105L81.5553 29.1712H83.2762L84.3606 29.0196L84.8792 28.868L85.2799 28.6557L87.3781 26.9576L87.826 26.7756L88.2267 26.6847L88.6039 26.7453L89.547 27.0789L89.9713 27.1395L90.983 28.5264L91.313 28.3748L91.478 28.1322L91.5723 27.8289L91.6902 27.5257L92.0127 27.0865L91.8788 26.8283L89.8062 23.6523L89.3819 23.0459L89.264 22.8033L89.1698 22.5607L89.1226 22.2878V22.0149L89.2169 21.4388L89.2941 21.2403L89.3112 21.1355L89.6412 20.2864L90.7472 20.3391L90.8437 20.0443L90.8651 19.8236L90.8887 19.6417L90.8179 19.2475L90.6529 18.7623L90.5351 18.55L90.7854 18.5714L90.7472 18.4591L90.6294 18.2468L91.5154 18.3225L91.4308 18.2771L91.2186 18.0649L91.0536 17.8526L90.9122 17.6403L90.7943 17.4281L90.7472 17.2462L90.8599 17.0141L90.8414 16.9429L90.9594 16.7003L91.1951 16.3364L92.3267 15.3055L92.5231 15.0275L92.6095 14.6383L92.667 14.5011L92.7039 14.3351L92.8689 13.9409L93.1518 13.8499L93.3639 13.8802L93.5761 14.0622L94.3541 15.1235L94.8019 16.0029L94.9434 16.2151L95.1791 16.3668L95.5563 16.4274L95.9806 16.4577L97.3951 16.3668L98.0317 16.2151L98.3381 16.0029L98.3617 15.9482V15.7906L98.2673 15.548L97.9844 15.1235L97.7959 14.9112L97.6544 14.6686L97.5601 14.4261L97.5366 14.1835V13.8802L97.6309 13.841V13.577L107.985 9.26982L108.047 8.95059L108.07 8.67767L108.023 8.43509L107.952 8.22284L107.858 8.07123L107.622 7.76797L107.457 7.586L107.057 7.00989L106.962 6.85828V6.79764L106.915 6.67633L106.892 6.46408L106.986 6.19116L106.989 6.18662L106.986 6.16083L107.08 5.88791L107.387 5.40277L107.422 5.33063L107.504 5.16019L107.528 4.88727L107.434 4.67499L107.269 4.46274L106.821 4.15952L105.713 3.58334L105.454 3.43176L105.289 3.24979L105.171 3.00723L105.123 2.76462L105.053 2.21881L105.076 1.40009L105.194 0.79361L110.828 1.70331L111.182 1.82462L112.266 2.43106L112.927 2.70398L118.372 3.34079L119.598 3.61368L120.329 3.85626L120.612 4.28082L120.895 4.97824L121.036 5.19049L121.201 5.40277L121.413 5.61502L121.908 5.94858L122.616 6.34277L123.441 6.64603L123.889 6.67633L124.36 6.64603L124.832 6.46408L125.02 6.34277L125.091 6.2821L125.115 6.03958L125.162 5.82727L125.28 5.61502L125.468 5.43307L125.727 5.28146L126.057 5.22079L133.837 4.03821L134.45 3.82596L134.709 3.67435L134.921 3.46204L134.963 3.37546L134.945 3.28012L134.803 2.79498L134.756 2.55237L134.803 2.34012L134.884 2.25162L134.874 2.21881L134.827 1.9762L134.874 1.76395L135.039 1.58203L135.275 1.49106L135.699 1.36978L140.037 0.702667L140.509 0.763306L140.98 0.884583L141.569 1.21814L141.876 1.49106L142.017 1.73364V1.94589L141.876 2.15817L141.865 2.17052L141.946 2.30978V2.52206L141.805 2.73431L141.263 3.37109Z" fill="url(#paint12_linear)"/>
<defs>
<linearGradient id="paint0_linear" x1="-182.818" y1="56.1247" x2="65.7465" y2="190.49" gradientUnits="userSpaceOnUse">
<stop stop-color="#3A90B6"/>
<stop offset="1" stop-color="#075F92"/>
</linearGradient>
<linearGradient id="paint1_linear" x1="-61.3957" y1="-5.81453" x2="122.811" y2="58.0684" gradientUnits="userSpaceOnUse">
<stop stop-color="#3A90B6"/>
<stop offset="1" stop-color="#075F92"/>
</linearGradient>
<linearGradient id="paint2_linear" x1="-61.3957" y1="-5.81453" x2="122.811" y2="58.0684" gradientUnits="userSpaceOnUse">
<stop stop-color="#3A90B6"/>
<stop offset="1" stop-color="#075F92"/>
</linearGradient>
<linearGradient id="paint3_linear" x1="-61.3957" y1="-5.81453" x2="122.811" y2="58.0684" gradientUnits="userSpaceOnUse">
<stop stop-color="#3A90B6"/>
<stop offset="1" stop-color="#075F92"/>
</linearGradient>
<linearGradient id="paint4_linear" x1="-61.3957" y1="-5.81453" x2="122.811" y2="58.0684" gradientUnits="userSpaceOnUse">
<stop stop-color="#3A90B6"/>
<stop offset="1" stop-color="#075F92"/>
</linearGradient>
<linearGradient id="paint5_linear" x1="-61.3957" y1="-5.81453" x2="122.811" y2="58.0684" gradientUnits="userSpaceOnUse">
<stop stop-color="#3A90B6"/>
<stop offset="1" stop-color="#075F92"/>
</linearGradient>
<linearGradient id="paint6_linear" x1="-61.3957" y1="-5.81453" x2="122.811" y2="58.0684" gradientUnits="userSpaceOnUse">
<stop stop-color="#3A90B6"/>
<stop offset="1" stop-color="#075F92"/>
</linearGradient>
<linearGradient id="paint7_linear" x1="-61.3957" y1="-5.81453" x2="122.811" y2="58.0684" gradientUnits="userSpaceOnUse">
<stop stop-color="#3A90B6"/>
<stop offset="1" stop-color="#075F92"/>
</linearGradient>
<linearGradient id="paint8_linear" x1="-61.3957" y1="-5.81453" x2="122.811" y2="58.0684" gradientUnits="userSpaceOnUse">
<stop stop-color="#3A90B6"/>
<stop offset="1" stop-color="#075F92"/>
</linearGradient>
<linearGradient id="paint9_linear" x1="-61.3957" y1="-5.81453" x2="122.811" y2="58.0684" gradientUnits="userSpaceOnUse">
<stop stop-color="#3A90B6"/>
<stop offset="1" stop-color="#075F92"/>
</linearGradient>
<linearGradient id="paint10_linear" x1="-61.3957" y1="-5.81453" x2="122.811" y2="58.0684" gradientUnits="userSpaceOnUse">
<stop stop-color="#3A90B6"/>
<stop offset="1" stop-color="#075F92"/>
</linearGradient>
<linearGradient id="paint11_linear" x1="-61.3957" y1="-5.81453" x2="122.811" y2="58.0684" gradientUnits="userSpaceOnUse">
<stop stop-color="#3A90B6"/>
<stop offset="1" stop-color="#075F92"/>
</linearGradient>
<linearGradient id="paint12_linear" x1="167.5" y1="105.5" x2="179.035" y2="-96.6461" gradientUnits="userSpaceOnUse">
<stop stop-color="#59BDE4"/>
<stop offset="0.260417" stop-color="#43A9D5"/>
<stop offset="0.697917" stop-color="#0B77B0"/>
<stop offset="1" stop-color="#015E94"/>
</linearGradient>
</defs>
</svg>
