<svg width="220" height="277" viewBox="0 0 220 277" fill="none" xmlns="http://www.w3.org/2000/svg">
<path opacity="0.1" d="M130.547 43.058L132.071 43.6952L132.604 44.1363L134.014 45.5577L135.577 46.3909L136.224 46.8811L136.758 47.9104L137.215 48.5965L137.71 49.0867L138.625 49.5768L139.387 49.7729L141.559 50.165L142.131 50.361L142.55 50.6061L142.435 50.9982L142.092 51.2433L141.635 51.4883L139.044 52.2726L138.13 52.7137L137.253 53.2038L136.872 53.4979L136.529 53.792L136.186 54.1351L135.919 54.5272L133.328 59.7226L133.176 60.1638V60.6539L133.405 61.046L133.824 61.4872L134.776 61.9283L135.653 62.1244L138.701 62.5655L139.73 63.0067L140.111 63.3987L140.416 63.8399L140.759 65.1632L141.102 65.7024L141.673 66.1925L142.855 66.9767L147.465 68.9373L151.009 70.8978L152.038 71.339L152.381 71.633L152.533 71.9761L152.19 72.4173L151.428 73.0544L151.276 73.3975L151.466 73.6916L151.809 73.9857L152.571 74.0837L153.753 73.8877L154.362 73.9857L154.972 74.3288L155.505 75.2601L156.077 75.7992L171.653 69.7748L173.863 70.265L174.359 70.461L174.778 70.7061L175.082 71.0982L175.273 71.5393V72.9607L175.464 73.4509L176.188 73.6959L176.721 73.7939L181.713 74.2841L182.322 74.2351L182.818 74.039L183.199 73.7449L183.504 73.4018L184.266 72.1765L184.609 71.8334L185.028 71.5884L185.371 71.2453L190.83 70.51L191.172 70.167L191.668 69.9709L192.316 69.9219L193.002 70.0199L193.611 70.314L193.954 70.8531L194.068 71.8824L194.03 72.5686L193.421 75.2153V75.7055L193.573 76.2446L193.916 76.7348L194.678 77.47L196.431 78.8424L197.612 80.0677L197.841 80.5088L197.993 81.048L197.917 81.9792L197.574 82.4203L197.079 82.7144L196.012 83.0085L195.516 83.2536L195.25 83.5967L195.212 84.0378L195.478 84.5279L196.812 85.3612L197.231 85.7042L197.384 86.0474L197.155 86.5375L195.593 87.7138L194.869 88.449L194.411 89.1842L194.221 89.5763L194.145 89.9194L194.107 90.2135L194.221 90.6546L194.564 91.0958L195.364 91.5859L197.498 92.1741L197.993 92.3701L198.336 92.7622L198.603 93.3504L198.679 94.3306L198.489 95.605L198.298 96.0951L198.031 96.4872L197.612 96.7323L195.707 96.9283L195.212 97.2224L194.754 97.4675L194.373 97.7126L193.649 98.3007L193.23 98.5458L192.735 98.7419L192.163 98.8399L191.553 98.8889H190.83L180.379 98.1537L179.96 98.2027V98.6438L180.227 99.281L183.123 103.153L183.504 103.888L183.618 104.28L183.656 104.673L183.542 105.016L183.161 105.212L182.551 105.31L180.531 105.359L179.96 105.457L179.579 105.751L179.388 106.192L178.817 108.643L179.198 109.182L179.922 109.623L184.037 110.75L184.571 110.995L185.028 111.338L185.333 111.976L185.371 112.368L185.218 112.809L185.028 113.201L184.875 113.642V114.034L185.028 114.426L185.561 115.063L193.344 117.759L194.45 119.033L194.792 119.818L194.983 120.651L195.135 120.994L195.364 121.337L195.669 121.68L196.355 122.219L219.599 127.317L217.427 128.934L215.864 129.179H213.73L213.235 129.277L213.045 129.473L213.464 129.816L215.521 130.748L215.75 131.091L215.712 131.532L215.026 132.218L213.959 132.953L213.083 133.443L212.587 133.64L211.978 133.738H211.292L208.548 133.247H207.939L207.481 133.443L207.138 133.738L205.919 135.159L205.652 135.6L205.5 136.041L205.652 136.678L205.995 137.071L206.491 137.365L209.31 138.345L210.263 138.786L211.063 139.325L211.787 139.864L212.282 140.501L212.473 140.894L212.587 141.237L212.549 141.678L212.244 142.315L211.749 143.099L208.015 147.559L206.872 148.442L206.567 148.785L206.491 149.177L206.757 149.667L207.1 150.01L208.282 150.892L208.586 151.235L208.625 151.677L193.734 158.779L192.591 159.759L191.753 160.054H191.029L190.038 159.612L189.428 159.514H188.781L188.171 159.563L187.675 159.71L187.18 160.25L186.837 161.034L186.571 162.7L186.685 163.484L187.028 164.024L190.152 165.69L190.533 165.984L190.762 166.278L190.648 166.621L190.114 166.964L188.59 167.602L188.209 167.847L187.904 168.239L187.752 168.729L187.866 169.513L188.209 169.954L188.628 170.248L189.2 170.444L189.847 170.591L190.572 170.689L197.621 170.935L198.078 171.131L198.383 171.425L198.65 171.768L199.031 172.454L199.64 174.022V174.414L199.412 174.758L198.726 175.003L195.296 175.787L194.954 175.934L194.725 176.179L194.572 176.62L194.725 177.355L194.992 177.796L195.525 178.483L195.678 178.924L195.754 180.198L195.868 180.639L196.097 180.982L196.44 181.227L196.973 181.423L198.916 181.767L199.374 182.012L199.717 182.257L199.907 182.649V183.09L199.793 183.629L199.64 184.266L199.564 184.756V185.197L199.907 185.933L200.212 186.276L201.584 187.452L202.079 188.089L202.27 188.481L202.193 188.922L201.812 189.462L200.745 190.246L200.25 190.883L199.755 191.52L199.526 192.402V192.991L199.64 193.481L199.831 193.824L200.136 194.167L201.393 195.392L201.66 195.735L201.889 196.078L202.003 196.471L202.041 196.863L202.117 197.745L201.965 198.676V199.117L202.003 199.558L202.27 200.343L202.651 201.078L202.727 201.519L202.575 201.911L202.079 202.352L200.822 202.744L199.907 202.842L196.287 202.891L193.544 203.578L192.515 204.068L190.191 205.881L189.543 206.224L188.971 206.322H188.323L186.99 206.126L185.77 205.832L184.703 205.391L182.532 204.166L181.312 203.823L179.216 203.529L178.607 203.332L177.54 202.891L170.862 201.96L169.147 201.421L166.403 200.882L165.603 201.127L164.727 201.715L162.212 204.558L161.793 204.803L161.259 204.999L160.65 205.048L155.696 204.411L152.876 204.362L152.19 204.705L151.504 205.342L150.59 206.616L150.018 207.303L149.599 207.94L149.409 208.381L149.332 209.214L149.104 209.802L148.38 210.341L146.475 210.832L146.055 211.077L145.712 211.371L145.446 211.812L144.874 212.988L144.569 213.478L144.226 213.87L143.845 214.164L143.426 214.41L142.474 214.851L141.254 215.537L140.835 215.733L140.416 215.88L139.959 216.223L139.578 216.713L138.968 218.184L138.358 218.625L138.091 219.066L138.015 219.654L138.32 220.683L138.625 221.271L139.006 221.713L139.616 222.35L139.806 222.693L139.844 223.134L139.616 223.624L138.93 224.163L138.244 224.31L137.139 224.702L136.758 224.948L136.491 225.389V225.928L136.758 226.663L137.025 227.104L137.977 228.525L138.663 230.486L139.12 232.054L139.158 232.937L139.082 239.014L139.501 240.583L140.187 242.053L140.683 242.739L140.949 243.034L141.216 243.377L141.369 243.72L141.216 244.161L140.568 244.553L139.921 244.602L138.625 244.504L138.13 244.7L137.787 245.092L137.749 246.17L137.939 247.298L138.13 247.886V248.474L137.672 251.072L136.758 253.866L133.633 259.894L132.223 260.433L130.471 262.296L129.251 262.933L127.689 262.982L126.66 262.492L125.746 261.806L124.64 261.169L120.068 260.433L117.667 260.678L117.744 262.149L118.772 262.688L119.916 262.835L120.64 263.374L120.373 264.943L119.725 265.776L118.772 266.217L117.591 266.364L116.296 266.413L114.886 266.168L112.409 264.992L111.19 264.698L107.189 264.599L106.503 264.894L104.978 266.413L104.178 266.903L103.073 267.001L98.0434 266.462L95.7571 265.825L94.3854 265.678L93.6614 265.874L93.128 266.266L92.6326 266.462L91.9467 266.021L90.4607 264.796L86.231 264.011L83.7161 263.864L81.2774 264.501L79.4103 265.776L78.0766 267.001L76.3619 267.834L73.3516 268.079L71.3321 267.344L69.9222 265.58L69.4649 263.325L70.4557 261.071L69.2743 260.433L68.0551 260.09L66.8356 260.188L65.6164 260.874L65.0067 261.806L65.5782 263.57L65.2734 264.698L63.3682 266.609L61.8058 266.56L60.777 265.286L60.5103 263.374L60.015 262.149L58.7194 261.414L57.3477 261.365L56.6236 262.394L57.0428 263.276L59.0623 264.943L59.5196 265.629L58.7194 267.491L57.2333 268.079L55.4424 267.883L53.7658 267.393L49.6886 265.09L47.1737 264.599L44.6968 265.825L44.8111 267.05L46.945 267.883L51.2509 268.815L53.2323 269.844L55.0613 271.167L55.4043 272.295L52.8894 272.736H48.9646L47.7452 272.54L47.288 272.05L46.7926 271.265L45.9924 270.677L44.6206 270.775L43.4394 272.393L44.8493 276.314L42.8678 277L40.2766 276.755L38.3714 276.167L36.8853 275.137L35.5517 273.618L33.837 270.334L33.113 269.403L30.217 267.491L28.1213 266.56L22.4437 267.246L20.3479 266.707L17.4138 268.521L15.8897 265.874L15.1276 264.256L14.8227 263.374L15.0513 262.933L15.5468 262.786L16.1564 262.737L16.6518 262.541L16.9947 262.1L16.6899 261.806L15.2038 261.071L14.175 260.335L13.6415 260.09L11.3933 259.159L10.7455 258.816L9.83104 258.179L9.64052 257.689L9.6786 257.247L9.98344 256.904L10.9742 255.924L11.2028 255.581L11.3171 255.238L11.3552 254.748V254.013L11.0123 253.866L10.6693 253.915L9.90726 254.503L9.33567 254.65L8.6879 254.552L7.73524 254.062L7.50663 253.571V253.081L7.73524 252.591L7.84955 252.052L7.58286 251.709L6.97317 251.513L6.24919 251.464L5.37276 251.268L4.42015 250.876L3.12461 249.993L2.62926 249.356L2.47681 248.817L2.59116 248.376L2.78163 247.886L3.50564 246.661L3.69617 246.17L3.81046 245.729L3.96291 243.524L4.03909 243.083L4.2677 242.69L4.87744 241.857L5.10605 241.269L4.87744 240.73L4.42015 240.24L3.0484 239.112L2.70547 238.622L2.74355 238.132L3.01032 237.789L3.69617 237.201L4.00101 236.858L4.22962 236.074L4.42015 235.73L4.91552 235.583L6.24919 235.485L6.82078 235.338L7.12557 234.946L7.01126 234.652L6.55404 234.407L4.30583 233.623L3.8867 233.378L3.54377 233.084L2.05765 231.417L1.90525 230.829L1.86712 230.29L2.70547 226.761L3.31509 225.291L3.42945 224.653L3.23893 224.261L2.78163 224.065L2.24818 224.114L0.990745 224.31L0.266764 224.261L0 223.967V223.526L0.190528 223.134L0.457242 222.742L0.762062 222.399L1.06696 221.909L1.33367 221.32L1.48612 220.291L1.33367 219.752L1.02883 219.213L0.152447 218.233V217.89L0.457242 217.546L1.56228 217.203L2.05765 216.958L2.2101 216.419L2.05765 215.831L1.56228 214.851L1.71473 214.41L2.13389 214.164L3.50564 213.968L4.34394 213.282L4.42015 213.135L4.1153 212.449L3.12461 210.979L2.43871 209.753L2.28626 209.018L2.3625 208.43L2.62926 208.087L2.97219 207.744L3.73425 207.205L5.02984 206.518L5.48711 206.224L5.90622 205.734L6.36348 204.852L6.43972 204.313L6.36348 203.872L6.21104 203.48L4.72499 200.882L4.5726 200.294L4.53452 199.705L4.80121 198.725L4.99173 198.284L5.83003 197.059L6.09675 196.52L6.05866 196.078L5.83003 195.735L4.64881 194.755L4.2677 194.265L3.81046 193.383L3.73425 192.795L3.81046 192.255L4.64881 190.54L4.87744 189.364L4.91552 188.53L5.10605 187.942L5.37276 187.501L5.75382 187.207L6.17296 186.962L6.66833 186.766L7.69716 186.423L9.44999 186.129L9.86912 185.786L10.2121 185.246L10.2883 184.119L10.4026 183.384L10.5931 182.845L11.3933 181.963L11.8506 181.178V180.639L11.6981 180.247L10.5169 178.973L10.2121 178.532L9.86912 177.993L9.48812 177.159L9.44999 176.62L9.60244 175.983L10.2883 174.611L10.3645 174.071L10.3264 173.434L9.75481 171.278V170.248L9.86912 169.023L9.83104 168.435L9.64052 167.994L9.29759 167.651L6.59212 166.229L6.21104 165.788L5.86811 165.151L5.10605 162.112L4.34394 160.054L2.59116 157.113L2.09573 155.838L1.98144 155.103L2.01957 154.564L2.13389 154.319L2.28626 153.976L4.15339 151.525L4.34394 151.28L4.61068 151.035L4.99173 150.79L5.44898 150.594L8.61169 149.663L9.03083 149.418L9.41188 149.173L9.6786 148.78L10.2121 147.408L10.9742 144.516L11.3552 143.634L11.5838 143.242L11.8887 142.85L12.2698 142.556L12.6508 142.311L14.0225 141.624L14.5179 141.281L14.9751 140.742L15.4705 139.762L15.5849 139.174L15.5086 138.635L15.2419 138.34L14.8608 138.046L11.8887 136.282L11.4695 135.841L11.0503 135.351L10.555 134.517L10.4407 133.929L10.4788 133.39L10.7074 132.949L11.3171 132.263L11.66 131.969L12.0792 131.675L13.4129 131.037L13.832 130.351L14.213 129.322L14.5941 127.116L14.6703 126.038L14.6322 125.254L14.5179 124.862L14.0987 124.127L13.832 123.783L13.5272 123.489L10.936 121.97L10.555 121.578L10.2121 121.088L9.83104 120.156V119.568L9.98344 119.078L10.2883 118.539L10.5931 117.804L10.9742 116.529L11.0503 115.794L11.0123 115.206L10.8599 114.863L10.5931 114.52L10.2502 114.177L9.86912 113.932L8.38306 113.148L7.84955 112.706L7.27802 111.873L7.20178 111.334L7.27802 110.844L8.23061 109.521L8.57358 108.785L8.64977 108.246L8.6879 107.658L8.30685 106.482L7.43042 104.619L7.39231 104.129L7.46855 103.786L7.69716 103.443L8.002 103.149L8.42114 102.904L8.8403 102.659L9.83104 102.316L16.3851 101.139L16.8804 100.796L17.2614 100.257L17.5663 99.2767L17.2614 98.8356L16.728 98.5905L15.2419 98.3944L14.5179 98.1984L13.9082 97.9043L13.2986 97.3162L13.2224 96.875L13.4891 96.5809L13.9463 96.3359L16.0421 95.6987L16.4994 95.4536L16.8423 95.1595L17.1852 94.6694L17.7568 93.3461L17.6806 92.9049L17.3758 92.5128L16.004 91.7776L15.623 91.4345L15.28 91.0914L14.9751 90.6013L15.0513 90.1602L15.3562 89.8661L15.8516 89.67L20.0431 89.621L21.2624 89.474L21.8721 89.2289L22.4056 88.9838L22.9391 88.1016L23.0153 87.5624L22.901 87.0723L22.6342 86.7292L22.2913 86.4351L21.4911 85.896L20.5004 85.4548L16.6137 84.5236L16.1183 84.3276L15.8135 84.0825L16.004 83.8374L16.4232 83.6414L18.938 82.9552L24.6156 81.5338L27.1306 80.6515L29.1882 79.2301L34.2562 74.7699L35.0563 74.2308L36.8853 73.2505L37.6094 73.0054L38.6763 72.7603L40.2004 72.7113L41.1531 72.8094L42.6011 73.1034L43.3632 73.1525L46.0686 73.1034L46.907 72.9074L47.8214 72.5643L49.9554 71.339L50.6793 70.7508L52.0892 69.5745L52.4702 69.3294L56.7761 67.5649L57.843 67.0258L58.5288 66.5846L59.4052 65.5063L60.396 64.526L61.1581 63.9869L66.5689 61.7323L67.2549 61.3401L67.5597 60.997L67.7883 60.6539L67.9408 60.3108L67.9788 60.0657L67.9408 59.2815L68.0551 58.8404L68.3218 58.4483L73.4279 56.0956L74.5329 55.3114L75.1425 54.6742L75.2569 54.2331L75.6379 53.743L76.3238 53.2528L77.5812 52.5667L78.1147 52.0275L78.4576 51.4883L78.6482 50.5081L78.8006 50.067L79.2198 49.6749L79.8675 49.4788L81.163 49.6258L83.6779 50.4591L84.3258 50.5571L84.9736 50.4591L85.5451 50.263L85.9262 49.7729L86.0405 49.3318V48.8416L85.9262 48.0084L85.888 47.5673L85.9643 47.0771L86.1929 46.685L86.4596 46.3419L86.9168 45.9498L87.1074 45.8028L95.0713 43.9403L97.2814 42.7639L97.9673 42.7149H98.8055L100.978 43.4011L103.149 44.2834L104.521 44.5284H105.321L106.198 44.3814L107.341 43.8913L107.989 43.4991L108.789 42.911L110.694 41.9307L111.685 41.5386L113.895 40.9994L116.334 40.6073L116.867 40.4113L117.324 40.2152L117.706 39.9212L118.353 38.5978L118.925 37.8136L119.306 37.5195L119.801 37.2744L120.487 37.1764H122.316L123.04 37.4215L123.65 37.8136L124.069 38.6958L124.145 39.333V39.9212L124.069 40.4603L124.031 40.9014L124.679 41.3916L125.365 41.7347L130.547 43.058Z" fill="#333333"/>
<path d="M197.989 164.312L198.039 182.395L192.18 182.193L190.715 182.95L184.755 186.89H183.34L181.118 186.587L176.521 184.415L174.551 184.314C173.662 184.233 171.42 183.203 170.409 182.698L166.318 181.586L162.024 185.173L160.61 185.779L155.609 185.122H152.629L149.7 188.81L149.649 189.062L147.578 190.982L145.659 191.285L144.295 194.669L142.527 196.689L143.032 197.599L142.729 199.872L142.224 201.033L141.517 224.471C141.396 224.834 136.449 235.196 133.991 240.331L131.111 242.655C130.909 242.897 129.748 243.463 129.192 243.716L127.424 243.766L124.747 242.049L120.1 241.14L120.453 242.099L120.504 244.069L119.393 245.332L116.059 246.948L114.695 246.847C114.493 246.847 112.052 245.736 110.856 245.18L106.815 245.281L103.835 247.554L97.9253 246.948L94.238 246.342L92.6721 247.251L90.5507 245.433L85.9541 244.524H83.5801L81.4081 245.079L78.1248 247.655L76.2054 248.514L73.2757 248.817L71.1542 248.363C70.9522 248.161 69.7568 246.292 69.1843 245.382C69.1035 245.1 68.3424 242.301 67.972 240.937L67.4164 237.806L66.8102 237.755L65.598 244.069L63.2238 247.251L61.7589 247.302L60.1931 244.019L60.5467 241.342L60.1931 241.291L59.6375 244.271L59.2839 245.029L58.2231 247.908L56.5057 248.312L55.0409 249.575L54.5359 252.858L51.9598 254.525L48.1714 254.626L47.5148 254.677L46.6056 252.555H46.151L45.1407 256.748L43.1203 257.859L40.0391 257.404L38.3722 256.899L35.4425 254.222L33.119 249.777L29.8862 247.908L27.9163 247.1L22.36 247.959L20.5416 247.251L17.3089 249.019L14.1772 243.968L13.268 242.301L13.1164 240.937L9.68165 238.008L7.30761 233.159L6.44892 233.361L5.64074 232.805L4.98409 232.148L5.23664 231.29L5.08511 230.684L4.47897 230.936L2.30698 229.269L2.408 211.59L3.62028 211.237C5.18613 211.153 8.80275 211.075 10.7424 211.439C13.1669 211.893 13.47 212.499 13.7731 212.752C14.0155 212.954 13.7394 215.598 13.571 216.894L9.58063 220.329L15.8441 218.359C16.8543 218.241 18.9354 218.137 19.1778 218.662C19.4203 219.187 20.3901 221.608 20.8447 222.753L18.8747 225.734L17.4099 229.37L20.4406 228.36L22.36 228.512L27.9668 227.4L29.8862 227.602L33.1695 230.785L34.4828 231.34L34.9879 232.856L35.6446 235.129C35.8971 235.23 36.5639 235.482 37.2104 235.684C37.857 235.886 38.2543 237.014 38.3722 237.553L39.2814 236.998L40.4431 234.927L42.8172 231.946C42.6488 231.121 42.3121 229.36 42.3121 228.916C42.3121 228.36 43.7264 225.936 43.979 225.835C44.181 225.754 50.8316 224.252 54.1317 223.511C52.9363 223.006 51.1616 221.824 53.6266 221.137C56.0916 220.45 58.5263 220.076 59.4355 219.975L61.5064 225.481L62.6682 225.734L64.133 221.996L65.699 221.339C66.2647 221.097 67.7868 220.767 68.4771 220.632L72.316 221.288L70.9522 225.38L71.1037 228.966L73.4273 229.017L76.1044 229.522L77.9228 228.663L81.307 226.138L83.8831 225.784L86.1056 225.734L90.6012 226.643L92.6216 227.4L94.1875 226.946L98.1779 227.552L103.684 227.956L106.664 225.784L110.806 224.622L114.192 227.476L114.19 227.4L115.958 226.693L113.483 222.854L119.797 222.198L124.545 222.349L127.374 223.41L129.242 223.107L130.152 222.299L130.707 220.43L135.255 206.919L134.597 205.074L128.586 194.517L128.434 188.254L132.223 176.687L143.79 173.959L145.558 172.444L147.427 171.232L149.447 168.453L152.326 166.332L155.306 166.13L160.206 166.029L161.923 165.17L166.166 160.927L170.409 161.887L174.299 164.059L176.673 162.544L181.522 166.686L183.29 166.534L184.3 166.484L190.513 164.514L197.736 164.413L197.989 164.312Z" fill="url(#paint0_linear)"/>
<path d="M2.66056 210.934L2.71362 205.76L0.134984 199.164L0.0844727 186.335L4.12539 184.92C4.26009 185.223 4.6204 186.011 4.98409 186.739C5.43869 187.648 8.51989 188.658 11.0455 190.729C13.0659 192.386 10.9444 195.932 9.63114 197.498L5.88064 202.075C6.12872 202.152 6.3712 202.227 6.60045 202.296C8.26733 202.801 7.71171 202.953 8.21682 203.357C8.72194 203.761 7.45915 205.074 6.90352 206.085C6.45902 206.893 5.74176 208.677 5.43869 209.469L2.66056 210.934Z" fill="url(#paint1_linear)"/>
<path d="M0.387542 185.829L0.236007 180.829C0.960005 181.115 2.58984 181.738 3.31721 181.94C4.22641 182.193 2.91312 183.253 2.61005 184.314C2.36759 185.163 1.02735 185.678 0.387542 185.829Z" fill="url(#paint2_linear)"/>
<path d="M1.59982 180.374L1.65033 177.546L2.81209 178.354C2.82893 178.606 2.8626 179.233 2.8626 179.718C2.8626 180.202 2.02075 180.357 1.59982 180.374Z" fill="url(#paint3_linear)"/>
<path d="M2.408 177.141L2.30698 171.484L4.42846 172.242C4.71469 172.831 5.40838 174.262 5.89329 175.273C6.3782 176.283 5.59022 177.175 5.13562 177.495L2.408 177.141Z" fill="url(#paint4_linear)"/>
<path d="M7.50966 169.009C7.26721 169.575 5.42185 170.019 4.52948 170.171L3.67079 165.726L3.7213 155.422L9.37859 159.867L7.25857 164.372C7.63403 164.896 8.09374 165.554 8.46938 166.13C9.22705 167.292 7.81273 168.302 7.50966 169.009Z" fill="url(#paint5_linear)"/>
<path d="M2.05442 135.52L2.00391 117.487L2.25647 117.386L16.5007 121.882L17.814 143.4C17.6625 144.747 17.319 147.552 17.1574 147.996C16.9553 148.552 11.197 152.744 10.6919 153.25C10.2878 153.654 6.71831 153.317 4.98409 153.098L5.89329 145.774L2.05442 135.52Z" fill="url(#paint6_linear)"/>
<path d="M13.369 108.799C12.682 109.365 10.8939 111.258 10.0857 112.133L9.47961 99.0002L6.95403 90.4637L7.2571 73.9465C7.33981 73.9713 7.42535 73.9971 7.5135 74.0238L7.56017 66.9759L7.96426 66.4708C8.85663 67.5315 10.7323 69.7641 11.096 70.2086C11.4597 70.6531 11.1802 72.3133 10.995 73.0878L8.29503 74.2617C11.0512 75.1061 15.2548 76.4496 15.8946 76.8761C16.6219 77.3611 18.0834 80.7824 18.7232 82.4324L16.0303 87.259L22.7641 92.5347L18.6429 98.9054C19.1215 99.3489 19.1424 99.8214 19.4809 100.566C19.986 101.677 19.1778 102.637 18.8242 104.152C18.4707 105.668 14.2277 108.092 13.369 108.799Z" fill="url(#paint7_linear)"/>
<path d="M13.0154 66.9254L13.3185 59.7528L18.9758 59.8538L19.5819 60.965L19.3293 65.5111L13.0154 66.9254Z" fill="url(#paint8_linear)"/>
<path d="M14.9348 59.5002L15.0864 53.1357L18.6222 54.8531C18.7064 55.0215 18.9051 55.4896 19.0263 56.0149C19.1475 56.5402 18.5043 57.9175 18.1676 58.5405L14.9348 59.5002Z" fill="url(#paint9_linear)"/>
<path d="M15.8441 52.8832L15.8946 46.8218L24.5825 48.1351C24.5825 48.7749 24.5522 50.2768 24.431 51.1658C24.3098 52.0548 22.2927 53.321 21.2993 53.8429L15.8441 52.8832Z" fill="url(#paint10_linear)"/>
<path d="M142.577 30.9612L142.476 13.6863C140.591 13.7368 136.657 13.8681 136.011 13.9893C135.203 14.1409 131.465 20.5053 130.96 21.061C130.455 21.6166 131.162 22.6268 132.121 25.3544C133.081 28.0821 133.283 29.2438 133.435 30.0015C133.556 30.6076 139.58 30.8939 142.577 30.9612Z" fill="url(#paint11_linear)"/>
<path d="M152.68 37.8308C152.612 36.9047 152.478 34.992 152.478 34.7496C151.754 34.9516 150.104 35.4971 149.295 36.0629C148.285 36.77 149.447 37.2751 149.952 38.4369C150.356 39.3663 151.939 38.4201 152.68 37.8308Z" fill="url(#paint12_linear)"/>
<path d="M174.804 47.3269L174.602 40.5079C173.474 41.4844 171.187 43.5487 171.066 43.9932C170.914 44.5488 171.824 46.0641 172.177 46.8218C172.46 47.428 174.046 47.4111 174.804 47.3269Z" fill="url(#paint13_linear)"/>
<path d="M178.39 60.8135L178.592 50.4586C177.548 51.0143 175.45 52.176 175.41 52.3781C175.361 52.6224 173.233 56.0806 172.362 57.4951L172.278 57.6313C171.47 58.9446 171.318 60.5609 171.167 61.5207C171.046 62.2884 174.484 62.8171 176.218 62.9855L178.39 60.8135Z" fill="url(#paint14_linear)"/>
<path d="M179.4 80.816L179.198 63.238C178.626 63.6421 177.36 64.4705 176.875 64.5513C176.269 64.6524 174.046 64.5513 171.52 64.4503C168.995 64.3493 166.318 64.6524 163.994 64.8544C162.135 65.0161 160.189 66.1004 159.448 66.6223C159.516 67.3126 159.6 68.7337 159.398 68.8953C159.145 69.0974 157.68 72.9868 157.226 74.6536C156.779 76.2905 158.574 79.34 160.552 82.7019L160.66 82.887C162.673 86.3089 164.085 88.2268 166.043 90.8883L166.065 90.9183C167.641 93.06 172.985 94.1679 175.46 94.4541L177.38 91.5245L175.561 84.1498L176.42 82.4829L177.784 81.7253L179.4 80.816Z" fill="url(#paint15_linear)"/>
<path d="M199.756 96.5756L199.857 114.558L199.302 115.315L197.534 115.618L198.696 116.023L198.14 117.184L193.139 128.297C192.816 128.256 193.577 128.583 192.887 128.297L191.371 128.802C190.546 132.052 188.836 138.5 188.593 138.298C188.29 138.046 185.26 140.167 181.724 136.833C178.188 133.5 171.874 130.115 171.066 126.883C170.258 123.65 166.772 120.215 170.409 118.498C174.046 116.78 175.965 114.154 179.097 114.154C181.603 114.154 184.721 114.389 185.967 114.507L191.472 109.355C191.119 109.254 187.987 110.062 185.664 108.597C183.34 107.133 179.198 106.88 179.905 105.112C180.613 103.344 180.815 102.586 181.774 101.526C182.734 100.465 182.886 99.2022 186.118 98.5456C188.704 98.0203 192.887 97.3838 194.655 97.1313L199.756 96.5756Z" fill="url(#paint16_linear)"/>
<path d="M194.352 146.127L194.705 137.035L191.22 137.237L186.825 140.117C186.741 140.925 186.633 142.753 186.876 143.602C187.179 144.663 189.654 146.43 190.513 146.885C191.2 147.249 193.358 146.531 194.352 146.127Z" fill="url(#paint17_linear)"/>
<path d="M197.079 159.867L197.231 151.33L195.867 151.179C195.412 151.616 194.16 152.845 192.786 154.26C191.068 156.028 191.27 156.381 191.169 156.836C191.068 157.29 192.533 159.311 192.887 159.816C193.17 160.22 195.8 160.018 197.079 159.867Z" fill="url(#paint18_linear)"/>
<path d="M130.547 5.88163L132.071 6.51879L132.604 6.95992L134.014 8.38131L135.577 9.21455L136.224 9.70469L136.758 10.734L137.215 11.4201L137.71 11.9103L138.625 12.4004L139.387 12.5965L141.559 12.9886L142.131 13.1846L142.55 13.4297L142.435 13.8218L142.092 14.0669L141.635 14.3119L139.044 15.0962L138.13 15.5373L137.253 16.0274L136.872 16.3215L136.529 16.6156L136.186 16.9587L135.92 17.3508L133.328 22.5463L133.176 22.9874V23.4775L133.405 23.8696L133.824 24.3108L134.776 24.7519L135.653 24.948L138.701 25.3891L139.73 25.8303L140.111 26.2223L140.416 26.6635L140.759 27.9868L141.102 28.526L141.673 29.0161L142.855 29.8003L147.465 31.7609L151.009 33.7214L152.038 34.1626L152.381 34.4566L152.533 34.7998L152.19 35.2409L151.428 35.878L151.276 36.2211L151.466 36.5152L151.809 36.8093L152.571 36.9073L153.753 36.7113L154.362 36.8093L154.972 37.1524L155.505 38.0837L156.077 38.6228L157.106 39.0639L159.316 39.5541L159.811 39.7501L160.23 39.9952L160.535 40.3873L160.726 40.8284V42.2498L160.916 42.7399L161.64 42.985L162.174 43.083L167.165 43.5732L167.775 43.5242L168.27 43.3281L168.651 43.034L168.956 42.6909L169.718 41.4656L170.061 41.1225L170.481 40.8774L170.823 40.5343L171.433 39.7991L171.776 39.456L172.271 39.26L172.919 39.2109L173.605 39.309L174.215 39.6031L174.558 40.1422L174.672 41.1715L174.634 41.8577L174.024 44.5044V44.9946L174.177 45.5337L174.52 46.0238L175.282 46.7591L177.035 48.1314L178.216 49.3568L178.444 49.7979L178.597 50.337L178.521 51.2683L178.178 51.7094L177.682 52.0035L176.615 52.2976L176.12 52.5427L175.853 52.8857L175.815 53.3269L176.082 53.817L177.416 54.6502L177.835 54.9933L177.987 55.3364L177.759 55.8266L176.196 57.0029L175.472 57.7381L175.015 58.4733L174.824 58.8654L174.748 59.2085L174.71 59.5026L174.824 59.9437L175.167 60.3848L175.968 60.8749L178.102 61.4631L178.597 61.6592L178.94 62.0513L179.207 62.6394L179.283 63.6197L179.092 64.8941L178.902 65.3842L178.635 65.7763L178.216 66.0214L176.311 66.2174L175.815 66.5115L175.358 66.7566L174.977 67.0016L174.253 67.5898L173.834 67.8349L173.338 68.031L172.767 68.129L172.157 68.178H171.433L165.832 67.4428L165.413 67.4918V67.9329L165.679 68.5701L168.575 72.4422L168.956 73.1774L169.071 73.5695L169.109 73.9616L168.994 74.3047L168.613 74.5007L168.004 74.5988L165.984 74.6478L165.413 74.7458L165.032 75.0399L164.841 75.481L164.269 77.9317L164.65 78.4708L165.374 78.9119L169.49 80.0393L170.023 80.2843L170.481 80.6274L170.785 81.2646L170.823 81.6567L170.671 82.0978L170.481 82.4899L170.328 82.9311V83.3232L170.481 83.7153L171.014 84.3525L173.948 87.0482L175.053 88.3225L175.396 89.1068L175.586 89.94L175.739 90.2831L175.968 90.6262L176.272 90.9693L176.958 91.5084L200.202 96.6059L198.03 98.2233L196.468 98.4684H194.334L193.839 98.5664L193.648 98.7625L194.067 99.1056L196.125 100.037L196.354 100.38L196.316 100.821L195.63 101.507L194.563 102.242L193.686 102.733L193.191 102.929L192.581 103.027H191.895L189.152 102.536H188.542L188.085 102.733L187.742 103.027L186.523 104.448L186.256 104.889L186.103 105.33L186.256 105.967L186.599 106.36L187.094 106.654L189.914 107.634L190.867 108.075L191.667 108.614L192.391 109.153L192.886 109.791L193.077 110.183L193.191 110.526L193.153 110.967L192.848 111.604L192.353 112.388L188.618 116.848L187.475 117.731L187.17 118.074L187.094 118.466L187.361 118.956L187.704 119.299L188.885 120.181L189.19 120.524L189.228 120.966L188.885 121.603L187.742 122.583L186.904 122.877H186.18L185.189 122.436L184.579 122.338H183.932L183.322 122.387L182.826 122.534L182.331 123.073L181.988 123.857L181.721 125.524L181.836 126.308L182.179 126.847L185.303 128.514L185.684 128.808L185.913 129.102L185.799 129.445L185.265 129.788L183.741 130.425L183.36 130.67L183.055 131.062L182.903 131.553L183.017 132.337L183.36 132.778L183.779 133.072L184.351 133.268L184.998 133.415L185.722 133.513L192.772 133.758L193.229 133.954L193.534 134.248L193.801 134.591L194.182 135.278L194.791 136.846V137.238L194.563 137.581L193.877 137.826L190.447 138.61L190.104 138.758L189.876 139.003L189.723 139.444L189.876 140.179L190.143 140.62L190.676 141.306L190.828 141.747L190.905 143.022L191.019 143.463L191.248 143.806L191.591 144.051L192.124 144.247L194.067 144.59L194.525 144.835L194.868 145.08L195.058 145.472V145.914L194.944 146.453L194.791 147.09L194.715 147.58V148.021L195.058 148.756L195.363 149.099L196.735 150.276L197.23 150.913L197.421 151.305L197.344 151.746L196.963 152.285L195.896 153.07L195.401 153.707L194.906 154.344L194.677 155.226V155.814L194.791 156.304L194.982 156.647L195.287 156.991L196.544 158.216L196.811 158.559L197.039 158.902L197.154 159.294L197.192 159.686L197.268 160.569L197.116 161.5V161.941L197.154 162.382L197.421 163.166L197.802 163.902L197.878 164.343L197.725 164.735L197.23 165.176L195.973 165.568L195.058 165.666L191.438 165.715L188.695 166.401L187.666 166.891L185.341 168.705L184.694 169.048L184.122 169.146H183.474L182.141 168.95L180.921 168.656L179.854 168.215L177.682 166.989L176.463 166.646L174.367 166.352L173.758 166.156L172.691 165.715L170.862 164.784L169.147 164.245L166.403 163.705L165.603 163.95L164.727 164.539L162.212 167.381L161.793 167.627L161.259 167.823L160.65 167.872L155.696 167.234L152.876 167.185L152.19 167.528L151.504 168.166L150.59 169.44L150.018 170.126L149.599 170.763L149.409 171.205L149.332 172.038L149.104 172.626L148.38 173.165L146.475 173.655L146.055 173.9L145.712 174.194L145.446 174.635L144.874 175.812L144.569 176.302L144.226 176.694L143.845 176.988L143.426 177.233L142.474 177.674L141.254 178.36L140.835 178.557L140.416 178.704L139.959 179.047L139.578 179.537L138.968 181.007L138.358 181.448L138.091 181.889L138.015 182.478L138.32 183.507L138.625 184.095L139.006 184.536L139.616 185.173L139.806 185.516L139.844 185.958L139.616 186.448L138.93 186.987L138.244 187.134L137.139 187.526L136.758 187.771L136.491 188.212V188.751L136.758 189.487L137.025 189.928L137.977 191.349L138.663 193.31L139.12 194.878L139.158 195.76L139.082 201.838L139.501 203.406L140.187 204.877L140.683 205.563L140.949 205.857L141.216 206.2L141.369 206.543L141.216 206.984L140.568 207.377L139.921 207.426L138.625 207.328L138.13 207.524L137.787 207.916L137.749 208.994L137.939 210.121L138.13 210.709V211.298L137.672 213.895L136.758 216.689L133.633 222.718L132.223 223.257L130.471 225.119L129.251 225.757L127.689 225.806L126.66 225.316L125.746 224.629L124.64 223.992L120.068 223.257L117.667 223.502L117.744 224.972L118.772 225.512L119.916 225.659L120.64 226.198L120.373 227.766L119.725 228.599L118.772 229.041L117.591 229.188L116.296 229.237L114.886 228.992L112.409 227.815L111.19 227.521L107.189 227.423L106.503 227.717L104.979 229.237L104.178 229.727L103.073 229.825L98.0434 229.286L95.7572 228.648L94.3854 228.501L93.6614 228.697L93.128 229.09L92.6326 229.286L91.9467 228.845L90.4607 227.619L86.231 226.835L83.7161 226.688L81.2774 227.325L79.4103 228.599L78.0767 229.825L76.3619 230.658L73.3516 230.903L71.3321 230.168L69.9222 228.403L69.4649 226.149L70.4557 223.894L69.2743 223.257L68.0551 222.914L66.8356 223.012L65.6164 223.698L65.0067 224.629L65.5782 226.394L65.2734 227.521L63.3682 229.433L61.8058 229.384L60.777 228.109L60.5103 226.198L60.015 224.972L58.7194 224.237L57.3477 224.188L56.6236 225.217L57.0428 226.1L59.0623 227.766L59.5196 228.452L58.7194 230.315L57.2333 230.903L55.4424 230.707L53.7658 230.217L49.6886 227.913L47.1737 227.423L44.6968 228.648L44.8111 229.874L46.9451 230.707L51.2509 231.638L53.2323 232.668L55.0613 233.991L55.4043 235.118L52.8894 235.559H48.9646L47.7452 235.363L47.288 234.873L46.7926 234.089L45.9924 233.501L44.6206 233.599L43.4394 235.216L44.8493 239.137L42.8678 239.824L40.2766 239.578L38.3714 238.99L36.8853 237.961L35.5517 236.442L33.837 233.158L33.113 232.226L30.217 230.315L28.1213 229.384L22.4437 230.07L20.3479 229.531L17.4138 231.344L15.8897 228.697L15.1276 227.08L14.8227 226.198L15.0513 225.757L15.5468 225.61L16.1564 225.561L16.6518 225.365L16.9947 224.923L16.6899 224.629L15.2038 223.894L14.175 223.159L13.6415 222.914L11.3933 221.983L10.7455 221.64L9.83104 221.002L9.64052 220.512L9.6786 220.071L9.98344 219.728L10.9742 218.748L11.2028 218.405L11.3171 218.061L11.3552 217.571V216.836L11.0123 216.689L10.6693 216.738L9.90726 217.326L9.33567 217.473L8.6879 217.375L7.73524 216.885L7.50663 216.395V215.905L7.73524 215.415L7.84955 214.876L7.58286 214.532L6.97317 214.336L6.24919 214.287L5.37276 214.091L4.42015 213.699L3.12461 212.817L2.62926 212.18L2.47681 211.641L2.59116 211.2L2.78163 210.709L3.50564 209.484L3.69617 208.994L3.81046 208.553L3.96291 206.347L4.03909 205.906L4.2677 205.514L4.87744 204.681L5.10605 204.093L4.87744 203.553L4.42015 203.063L3.0484 201.936L2.70547 201.446L2.74355 200.956L3.01032 200.613L3.69617 200.024L4.00101 199.681L4.22962 198.897L4.42015 198.554L4.91552 198.407L6.24919 198.309L6.82078 198.162L7.12557 197.77L7.01126 197.476L6.55404 197.231L4.30583 196.447L3.8867 196.201L3.54377 195.907L2.05765 194.241L1.90525 193.653L1.86712 193.114L2.70547 189.585L3.31509 188.114L3.42945 187.477L3.23893 187.085L2.78163 186.889L2.24818 186.938L0.990745 187.134L0.266764 187.085L0 186.791V186.35L0.190528 185.958L0.457242 185.565L0.762062 185.222L1.06696 184.732L1.33367 184.144L1.48612 183.115L1.33367 182.576L1.02883 182.037L0.152447 181.056V180.713L0.457242 180.37L1.56228 180.027L2.05765 179.782L2.2101 179.243L2.05765 178.655L1.56228 177.674L1.71473 177.233L2.13389 176.988L3.50564 176.792L4.34394 176.106L4.42015 175.959L4.11531 175.273L3.12461 173.802L2.43871 172.577L2.28626 171.842L2.3625 171.254L2.62926 170.91L2.97219 170.567L3.73425 170.028L5.02984 169.342L5.48711 169.048L5.90622 168.558L6.36349 167.676L6.43972 167.136L6.36349 166.695L6.21104 166.303L4.72499 163.705L4.5726 163.117L4.53452 162.529L4.80121 161.549L4.99173 161.108L5.83003 159.882L6.09675 159.343L6.05867 158.902L5.83003 158.559L4.64881 157.579L4.2677 157.089L3.81046 156.206L3.73425 155.618L3.81046 155.079L4.64881 153.364L4.87744 152.187L4.91552 151.354L5.10605 150.766L5.37276 150.325L5.75382 150.031L6.17296 149.786L6.66833 149.59L7.69716 149.246L9.44999 148.952L9.86913 148.609L10.2121 148.07L10.2883 146.943L10.4026 146.208L10.5931 145.668L11.3933 144.786L11.8506 144.002V143.463L11.6981 143.071L10.5169 141.796L10.2121 141.355L9.86913 140.816L9.48812 139.983L9.44999 139.444L9.60244 138.807L10.2883 137.434L10.3645 136.895L10.3264 136.258L9.75481 134.101V133.072L9.86913 131.847L9.83104 131.258L9.64052 130.817L9.29759 130.474L6.59212 129.053L6.21104 128.612L5.86811 127.975L5.10605 124.936L4.34394 122.877L2.59116 119.936L2.09573 118.662L1.98144 117.927L2.01957 117.388L2.13389 117.143L2.28626 116.799L4.15339 114.349L4.34394 114.104L4.61068 113.859L4.99173 113.614L5.44898 113.418L8.61169 112.486L9.03083 112.241L9.41188 111.996L9.6786 111.604L10.2121 110.232L10.9742 107.34L11.3552 106.458L11.5838 106.065L11.8887 105.673L12.2698 105.379L12.6508 105.134L14.0225 104.448L14.5179 104.105L14.9751 103.566L15.4705 102.586L15.5849 101.997L15.5086 101.458L15.2419 101.164L14.8608 100.87L11.8887 99.1056L11.4695 98.6644L11.0503 98.1743L10.555 97.3411L10.4407 96.7529L10.4788 96.2138L10.7074 95.7726L11.3171 95.0864L11.66 94.7924L12.0792 94.4983L13.4129 93.8611L13.832 93.1749L14.213 92.1456L14.5941 89.94L14.6703 88.8617L14.6322 88.0775L14.5179 87.6854L14.0987 86.9502L13.832 86.6071L13.5272 86.313L10.936 84.7936L10.555 84.4015L10.2121 83.9113L9.83104 82.9801V82.3919L9.98344 81.9018L10.2883 81.3626L10.5931 80.6274L10.9742 79.3531L11.0503 78.6179L11.0123 78.0297L10.8599 77.6866L10.5931 77.3435L10.2502 77.0004L9.86913 76.7554L8.38306 75.9711L7.84955 75.53L7.27802 74.6968L7.20178 74.1576L7.27802 73.6675L8.23061 72.3441L8.57358 71.6089L8.64977 71.0698L8.6879 70.4816L8.30685 69.3053L7.43042 67.4428L7.39231 66.9526L7.46855 66.6096L7.69716 66.2665L8.002 65.9724L8.42114 65.7273L8.8403 65.4822L9.83104 65.1391L16.3851 63.9628L16.8804 63.6197L17.2614 63.0806L17.5663 62.1003L17.2614 61.6592L16.728 61.4141L15.2419 61.218L14.5179 61.022L13.9082 60.7279L13.2986 60.1398L13.2224 59.6987L13.4891 59.4045L13.9463 59.1595L16.0421 58.5223L16.4994 58.2772L16.8423 57.9831L17.1852 57.493L17.7568 56.1697L17.6806 55.7285L17.3758 55.3364L16.004 54.6012L15.623 54.2581L15.28 53.915L14.9751 53.4249L15.0513 52.9838L15.3562 52.6897L15.8516 52.4936L20.0431 52.4446L21.2625 52.2976L21.8721 52.0525L22.4056 51.8074L22.9391 50.9252L23.0153 50.386L22.901 49.8959L22.6342 49.5528L22.2913 49.2587L21.4911 48.7196L20.5004 48.2784L16.6137 47.3472L16.1183 47.1512L15.8135 46.9061L16.004 46.661L16.4232 46.465L18.938 45.7788L24.6156 44.3574L27.1306 43.4751L29.1882 42.0537L34.2562 37.5935L35.0563 37.0544L36.8853 36.0741L37.6094 35.829L38.6763 35.5839L40.2004 35.5349L41.1531 35.633L42.6011 35.927L43.3632 35.9761L46.0686 35.927L46.907 35.731L47.8214 35.3879L49.9554 34.1626L50.6793 33.5744L52.0892 32.3981L52.4702 32.153L56.7761 30.3885L57.843 29.8494L58.5289 29.4082L59.4052 28.3299L60.3961 27.3497L61.1581 26.8106L66.5689 24.5559L67.2549 24.1637L67.5597 23.8206L67.7883 23.4775L67.9408 23.1344L67.9788 22.8893L67.9408 22.1051L68.0551 21.664L68.3218 21.2719L73.4279 18.9192L74.5329 18.135L75.1425 17.4978L75.2569 17.0567L75.6379 16.5666L76.3238 16.0764L77.5813 15.3903L78.1147 14.8511L78.4576 14.3119L78.6482 13.3317L78.8006 12.8906L79.2198 12.4985L79.8675 12.3024L81.163 12.4495L83.678 13.2827L84.3258 13.3807L84.9736 13.2827L85.5451 13.0866L85.9262 12.5965L86.0405 12.1554V11.6652L85.9262 10.832L85.888 10.3909L85.9643 9.90074L86.1929 9.50861L86.4596 9.16554L86.9169 8.77344L87.1074 8.62637L95.0713 6.76387L97.2814 5.58754L97.9673 5.53854H98.8055L100.978 6.22473L103.149 7.10696L104.521 7.35204H105.321L106.198 7.205L107.341 6.71486L107.989 6.32275L108.789 5.73458L110.694 4.75432L111.685 4.36221L113.895 3.82305L116.334 3.43095L116.867 3.23489L117.324 3.03883L117.706 2.74476L118.353 1.4214L118.925 0.637177L119.306 0.343086L119.801 0.0980263L120.487 0H122.316L123.04 0.24506L123.65 0.637177L124.069 1.51943L124.145 2.15659V2.74476L124.069 3.2839L124.031 3.72502L124.679 4.21517L125.365 4.55827L130.547 5.88163Z" fill="url(#paint19_linear)"/>
<defs>
<linearGradient id="paint0_linear" x1="-40.4092" y1="-122.844" x2="121.015" y2="190.147" gradientUnits="userSpaceOnUse">
<stop stop-color="#3A90B6"/>
<stop offset="1" stop-color="#075F92"/>
</linearGradient>
<linearGradient id="paint1_linear" x1="-40.4092" y1="-122.844" x2="121.015" y2="190.147" gradientUnits="userSpaceOnUse">
<stop stop-color="#3A90B6"/>
<stop offset="1" stop-color="#075F92"/>
</linearGradient>
<linearGradient id="paint2_linear" x1="-40.4092" y1="-122.844" x2="121.015" y2="190.147" gradientUnits="userSpaceOnUse">
<stop stop-color="#3A90B6"/>
<stop offset="1" stop-color="#075F92"/>
</linearGradient>
<linearGradient id="paint3_linear" x1="-40.4092" y1="-122.844" x2="121.015" y2="190.147" gradientUnits="userSpaceOnUse">
<stop stop-color="#3A90B6"/>
<stop offset="1" stop-color="#075F92"/>
</linearGradient>
<linearGradient id="paint4_linear" x1="-40.4092" y1="-122.844" x2="121.015" y2="190.147" gradientUnits="userSpaceOnUse">
<stop stop-color="#3A90B6"/>
<stop offset="1" stop-color="#075F92"/>
</linearGradient>
<linearGradient id="paint5_linear" x1="-40.4092" y1="-122.844" x2="121.015" y2="190.147" gradientUnits="userSpaceOnUse">
<stop stop-color="#3A90B6"/>
<stop offset="1" stop-color="#075F92"/>
</linearGradient>
<linearGradient id="paint6_linear" x1="-40.4092" y1="-122.844" x2="121.015" y2="190.147" gradientUnits="userSpaceOnUse">
<stop stop-color="#3A90B6"/>
<stop offset="1" stop-color="#075F92"/>
</linearGradient>
<linearGradient id="paint7_linear" x1="-40.4092" y1="-122.844" x2="121.015" y2="190.147" gradientUnits="userSpaceOnUse">
<stop stop-color="#3A90B6"/>
<stop offset="1" stop-color="#075F92"/>
</linearGradient>
<linearGradient id="paint8_linear" x1="-40.4092" y1="-122.844" x2="121.015" y2="190.147" gradientUnits="userSpaceOnUse">
<stop stop-color="#3A90B6"/>
<stop offset="1" stop-color="#075F92"/>
</linearGradient>
<linearGradient id="paint9_linear" x1="-40.4092" y1="-122.844" x2="121.015" y2="190.147" gradientUnits="userSpaceOnUse">
<stop stop-color="#3A90B6"/>
<stop offset="1" stop-color="#075F92"/>
</linearGradient>
<linearGradient id="paint10_linear" x1="-40.4092" y1="-122.844" x2="121.015" y2="190.147" gradientUnits="userSpaceOnUse">
<stop stop-color="#3A90B6"/>
<stop offset="1" stop-color="#075F92"/>
</linearGradient>
<linearGradient id="paint11_linear" x1="-40.4092" y1="-122.844" x2="121.015" y2="190.147" gradientUnits="userSpaceOnUse">
<stop stop-color="#3A90B6"/>
<stop offset="1" stop-color="#075F92"/>
</linearGradient>
<linearGradient id="paint12_linear" x1="-40.4092" y1="-122.844" x2="121.015" y2="190.147" gradientUnits="userSpaceOnUse">
<stop stop-color="#3A90B6"/>
<stop offset="1" stop-color="#075F92"/>
</linearGradient>
<linearGradient id="paint13_linear" x1="-40.4092" y1="-122.844" x2="121.015" y2="190.147" gradientUnits="userSpaceOnUse">
<stop stop-color="#3A90B6"/>
<stop offset="1" stop-color="#075F92"/>
</linearGradient>
<linearGradient id="paint14_linear" x1="-40.4092" y1="-122.844" x2="121.015" y2="190.147" gradientUnits="userSpaceOnUse">
<stop stop-color="#3A90B6"/>
<stop offset="1" stop-color="#075F92"/>
</linearGradient>
<linearGradient id="paint15_linear" x1="-40.4092" y1="-122.844" x2="121.015" y2="190.147" gradientUnits="userSpaceOnUse">
<stop stop-color="#3A90B6"/>
<stop offset="1" stop-color="#075F92"/>
</linearGradient>
<linearGradient id="paint16_linear" x1="-40.4092" y1="-122.844" x2="121.015" y2="190.147" gradientUnits="userSpaceOnUse">
<stop stop-color="#3A90B6"/>
<stop offset="1" stop-color="#075F92"/>
</linearGradient>
<linearGradient id="paint17_linear" x1="-40.4092" y1="-122.844" x2="121.015" y2="190.147" gradientUnits="userSpaceOnUse">
<stop stop-color="#3A90B6"/>
<stop offset="1" stop-color="#075F92"/>
</linearGradient>
<linearGradient id="paint18_linear" x1="-40.4092" y1="-122.844" x2="121.015" y2="190.147" gradientUnits="userSpaceOnUse">
<stop stop-color="#3A90B6"/>
<stop offset="1" stop-color="#075F92"/>
</linearGradient>
<linearGradient id="paint19_linear" x1="80.8184" y1="289.33" x2="-72.4483" y2="-83.3943" gradientUnits="userSpaceOnUse">
<stop stop-color="#59BDE4"/>
<stop offset="0.260417" stop-color="#43A9D5"/>
<stop offset="0.697917" stop-color="#0B77B0"/>
<stop offset="1" stop-color="#015E94"/>
</linearGradient>
</defs>
</svg>
