<svg width="319" height="132" viewBox="0 0 319 132" fill="none" xmlns="http://www.w3.org/2000/svg">
<path opacity="0.1" d="M314.448 42.7188L314.461 42.7201L314.566 42.7188L315.769 42.8438L316.925 43.2188L317.514 43.625L318.976 45.1563L317.255 47.0313L316.877 47.9688L316.854 48.25L316.712 48.5313L316.429 48.875L315.769 49.25L315.274 49.8438L314.873 50.1876L314.283 50.4688L313.788 51.125L313.293 52.2813L313.128 52.5625L312.915 52.7813L312.656 52.9688L312.184 53.0313L311.807 52.9375L311.579 52.8275L311.548 52.8125L311.515 52.3366L311.123 51.8751L311.052 51.6563L311.005 51.3438V51.125V51.0625L310.958 50.8125L310.793 50.6251L310.486 50.6563L310.18 50.9063L309.732 51.5001L309.401 51.8125L308.906 51.9063L308.694 51.75L308.6 51.5001L308.626 51.3525L308.6 51.2813L308.752 50.444L308.741 50.3126L308.552 50.125L308.199 50L307.751 49.9375L307.302 49.9063L306.902 49.9688L306.595 50.0938L306.335 50.25L304.991 51.5001L304.567 51.7188L304.119 51.8125L303.694 51.7813L303.317 51.6563L303.081 51.5001L302.939 51.2813L302.751 50.8125L302.633 50.5938L302.444 50.375L302.161 50.2188L301.76 50.1563L301.289 50.0938H300.864L300.416 50.2188L297.704 51.8438L297.256 51.9063L296.831 51.8751L296.525 51.7188L296.312 51.5313L296.147 51.3438L295.888 51.1875L295.534 51.125L295.157 51.1563L294.732 51.375L294.308 51.7188L293.294 52.8438L293.265 53.1111L293.341 53.3125L293.577 53.8125L293.765 54.0001L293.978 54.1876L294.261 54.3438L294.945 54.5938L295.204 54.75L295.393 54.9688L295.534 55.1875L295.888 55.8751L296.124 56.0313L296.407 56.1876L296.76 56.3126L300.817 56.6875L301.194 56.8125L302.798 57.4688L303.175 57.5938L303.623 57.6251L307.868 57.6875L308.175 57.8126L308.34 58.0001L308.458 58.2188L308.529 58.5L308.647 58.7188L308.859 58.9063L309.26 59.0001L312.09 59.4063L312.42 59.5313L312.609 59.7188L312.533 59.8622L312.609 59.9376L312.444 60.2501L312.043 60.5938L311.123 61.0938L310.51 61.2813L309.991 61.3751L309.59 61.4063L309.213 61.4688L308.717 61.6876L306.218 63.5938L305.719 63.8522L305.293 66.0625L305.25 66.0817L305.176 66.4688L304.963 66.5626L304.869 66.5938L304.539 66.7813L302.652 68.1875L302.133 68.3438H301.827L301.638 67.9688L301.473 67.9063L295.341 69.6876L294.398 72.4063L294.421 72.6251L294.351 73.1876L294.374 73.4688L294.61 73.9376L294.437 74.1102L294.539 74.3125L288.221 80.6331L288.17 80.7232L288.19 80.9374L288.049 81.1874L287.624 81.5L287.375 81.7475L287.365 81.8437L287.483 82.4062L287.6 82.6249L287.883 82.7499L288.214 82.8124L288.52 82.9375L288.638 83.1562L288.709 83.4374L288.733 83.7187L288.756 83.9687L289.251 85.4687L289.088 85.5624L289.181 85.8437L282.712 89.5502L282.77 89.8437L282.794 89.9062L282.865 90.0312L283.03 90.1875L283.336 90.3125L284.185 90.5L284.492 90.6249L284.681 90.8125L284.751 91.0937L284.728 91.375L284.138 94.8125L284.129 94.8273L284.067 95.1874L283.879 95.5L283.549 95.7812L282.723 95.9687L282.181 96.0312L281.638 96.0624L281.214 96.125L280.836 96.3125L280.082 97.375L279.893 97.5937L277.063 99.5L276.473 100.031L276.12 100.219L275.672 100.375L274.799 100.469H274.351L273.997 100.437L273.714 100.312L273.455 100.187L273.242 100L273.03 99.8125L272.794 99.625L272.488 99.5L272.134 99.5312L271.851 99.7187L271.615 100.156L271.238 100.625L268.384 102.844L268.195 103.094L267.606 104.125L267.111 105.281L266.898 105.5L266.615 105.625L266.144 105.531L265.908 105.344L265.743 105.094L265.531 104.344L265.483 104.094V103.812L265.554 103.562V103.406L265.625 103.156L265.79 102.937L265.979 102.75L266.007 102.696L265.365 100.812L265.224 100.625L265.059 100.437L264.799 100.406L264.493 100.5L264.233 100.75L263.903 102L263.573 102.875L263.529 103.098L263.573 103.625L263.691 104.125L263.738 104.656L263.691 105.281L263.639 105.435L263.597 105.562L263.384 106.125L263.101 106.375L262.606 106.594L260.861 106.937L258.125 106.812L257.63 106.937L257.017 107.188L256.003 107.719L255.389 108.125L254.871 108.625L254.257 109.469L253.739 109.969L252.913 110.375L252.371 110.469L251.852 110.75L251.569 110.969L250.814 112.844L250.107 115.281L248.904 114.75L248.644 114.531L248.574 114.281L248.621 113.375L248.597 113.125L248.503 112.937L248.409 112.812L248.244 112.656L246.852 111.625L246.498 111.219L246.333 111L246.192 110.781L246.074 110.281L245.956 110.031L245.791 109.812L245.531 109.687H245.13L243.621 110.406L243.149 110.469L241.31 110.25H240.508L239.588 110.437L239.164 110.656L238.881 110.906L238.834 110.99L238.739 111.156L238.692 111.438L238.669 111.719L238.786 112.25L239.093 112.969V113.094L239.022 113.25L238.928 113.375L238.881 113.437L238.786 113.562L238.551 113.719L238.291 113.812L236.027 114.156L235.787 114.301L235.697 114.437L235.437 115L235.272 115.25L235.236 115.288L235.178 115.375L234.966 115.594L234.612 115.656H234.14L233.315 115.406L232.89 115.187L232.584 114.969L232.041 114.375L231.829 114.156L231.546 114.031H231.145L229.73 114.406L226.735 114.812L225.815 115.156L225.249 115.437L225.014 115.594L224.801 115.812L224.645 115.973L224.542 116.156L224.424 116.437L224.353 116.75L224.33 117.031L224.4 117.312L224.495 117.563L224.683 117.75L224.943 117.906L225.296 118L226.546 118.125L226.829 118.25L226.924 118.469L226.947 119L226.924 119.281L226.829 119.531L226.768 119.568L226.735 119.656L226.476 119.812L226.146 119.906L224.164 120.062L223.457 120.187L223.174 120.344L223.039 120.478L222.867 120.781V121.062L222.962 121.312L223.093 121.515L223.598 122.094L223.601 122.101L223.622 122.125L223.716 122.375L223.74 122.656L223.669 123.25V123.531L223.793 123.723L224.023 123.875L224.282 124.031L224.495 124.188L224.518 124.406L224.377 124.594L224.094 124.688L222.584 124.906L222.325 125.062L222.207 125.344L222.16 125.906L222.183 126.187L222.113 127.312L222.042 127.562L221.853 127.75L221.523 127.812L208.882 129.313L208.868 129.311L208.859 129.313L208.104 129.25L203.269 128.156L202.939 128.031L202.515 127.969L202.061 127.939L201.335 128.094L200.486 128.344L200.156 128.406L200.14 128.405L200.133 128.406L199.755 128.375L198.458 127.5L196.477 126.688L195.652 126.531L194.437 126.407L191.784 126.688L191.147 126.875L190.841 127.031L190.605 127.188L190.369 127.406L188.812 129.125L187.893 130.406L187.091 131.25L186.595 131.594L186.313 131.75L185.652 131.938L184.85 132L184.84 131.999L184.827 132L184.19 131.938L183.412 131.781L181.973 131.281L181.383 130.938L181.006 130.656L180.723 130.219L180.063 129.375L179.874 129.188L179.615 129.031L179.284 128.875L177.563 128.281L176.761 127.781L176.171 127.625L173.544 127.407L172.752 127.5L172.257 127.656L172.162 127.937L172.068 128.219L171.95 128.469L171.69 128.594L171.337 128.656L164.946 128.75L164.943 128.75L164.922 128.75L164.497 128.687L164.097 128.562L163.766 128.188L163.672 127.844V127.5L163.743 127.219L163.79 126.906L163.766 126.625L163.696 126.375L163.531 126.156L162.941 125.562L162.823 125.312L162.752 125.062L162.823 124.781L162.965 124.531L163.153 124.312L164.403 123.063L164.568 122.812L164.686 122.562L164.733 122.281L164.71 122.031L164.639 121.781L164.497 121.562L164.332 121.344L162.752 120.094L162.54 119.906L162.375 119.687L162.257 119.469L162.163 119.219L162.115 118.937L162.045 118.688L161.738 118.25L161.361 117.875L161.031 117.75L160.571 117.689L158.767 117.937L158.752 117.936L158.743 117.937L158.366 117.906L157.493 117.344L156.573 116.562L154.215 113.969L154.168 113.937L153.201 112.75L153.106 112.531V112.312L153.342 112.187L156.219 111.312L157.092 110.906L157.352 110.75L157.54 110.531L157.682 110.281L157.776 110L157.823 109.656L157.8 109.375L157.753 109.125L157.635 108.875L157.352 108.438L156.856 107.25L156.691 107.031L156.29 106.906L155.694 106.876L152.847 107.219L152.832 107.218L152.823 107.219L152.375 107.188L151.904 107.094L151.22 106.75L150.724 106.594L150.124 106.533L149.309 106.625L149.302 106.623L149.286 106.625L148.578 106.437L148.13 106.281L147.187 105.531L146.857 105.406L146.428 105.376L145.206 105.719L144.829 105.875L144.593 106.062L144.451 106.312L144.404 106.594L144.451 107.375L144.38 107.594L144.145 107.75L143.838 107.844L142.706 108H142.682H142.329H142.305L141.951 107.937L141.692 107.656L141.409 107.5L141.052 107.47L140.442 107.75L140.206 108.031L140.065 108.375L140.017 109.25L139.97 109.531L139.852 109.812L139.617 110L139.286 110.062H139.263H138.862H138.838L138.414 109.969L138.036 109.687L137.942 109.437L137.966 109.219L138.084 109.094L138.084 109.093L138.107 109.062L138.442 108.678L138.555 108.438L138.65 108.125L138.862 106.594L138.768 106.062L138.65 105.812L138.461 105.625L138.202 105.5L137.895 105.469L133.886 105.687L132.942 105.875L132.329 106.062L132.07 106.219L131.716 106.281L131.268 106.25L130.678 106.031L130.372 105.812L130.183 105.562L130.065 105.313L129.853 105.156L129.523 105.062L128.391 105.406L127.141 105.969L126.598 106.031L119.783 105.375L119.099 105.156L118.863 105.031L118.698 104.906L118.533 104.75L118.368 104.562L118.25 104.344V104.312V104.062V104.031L118.296 102.902L118.25 102.719L118.226 102.656L117.849 102.5L116.198 102.187L115.726 102L115.443 101.75L115.436 101.712L115.372 101.656L115.325 101.406L115.137 99.5L115.066 99.25L114.971 99.125L114.547 98.9687L113.91 98.8437L112.637 98.7499L111.481 98.4687L106.222 98.1562L104.713 98.2812L102.189 98.8437L101.222 99.25L100.68 99.6562L100.491 100.281L100.326 100.562L100.161 100.812L99.925 101L99.3827 101.187L97.1185 101.687L96.5054 101.969L96.1044 102.25L95.8686 102.469L95.6092 102.625L95.3026 102.75L94.8309 102.781L94.2413 102.75L93.2979 102.5L92.9206 102.25L92.8952 102.202L92.8263 102.156L92.6613 101.844L92.614 101.594L92.5668 101.312L92.441 101.118L92.3075 101L92.048 100.844L91.7178 100.719L91.2698 100.687L90.7745 100.75L90.0906 101.062L89.7604 101.312L89.5481 101.531L89.0765 102.437L88.7699 102.594L88.2982 102.625L87.5435 102.406L87.2369 102.156L87.2179 102.124L87.1426 102.062L86.9775 101.781L86.9303 101.531L86.856 101.393L86.8124 101.312L86.1992 101.156L85.2323 101.062L83.0155 101.094L80.9165 100.812L80.091 100.875L76.7186 101.594L75.7516 101.906L75.1384 102.187L74.9734 102.406L74.6904 103L74.5488 103.187L74.3601 103.375L73.8884 103.469H73.1809L70.3509 103.062L67.1672 102.281L66.5776 102.219L65.9173 102.187L65.304 102.094L54.1017 102.031L53.6536 102.312L53.1583 103.594L52.8282 104L52.2385 104.125L50.116 104.031L34.8809 103.344L32.3103 102.469L30.8716 101.031L29.8576 99.25L28.7019 97.6875L28.5811 97.7155L27.7586 97.9062L27.57 97.9687L26.603 98.375L25.9898 98.5L25.9076 98.4879L25.8483 98.5L25.4238 98.4375L25.0465 98.25L24.1031 92.6562L23.6971 92.5712L23.4427 92.5937L23.1833 92.7499L22.7824 93.1562L8.03717 96.1875L7.73062 96.375L7.30613 96.5312H7.16456H6.90515H6.76364L6.43352 96.4375L6.15048 96.2812L8.27791 95.5625L8.08923 95.3437L7.75902 95.125L6.53269 94.4687L6.13178 94.3125L5.78433 94.2583L5.54215 94.2812L4.363 94.5625L2.54705 94.7812L2.54425 94.7645L2.53911 94.7651L2.45271 94.25L2.45679 94.243L2.45271 94.2187L2.61779 93.9375L2.85363 93.6562L3.25455 93.25L3.46682 92.9687L3.53317 92.705L3.46682 92.5L3.32525 92.2812L3.25455 92.0624L3.25896 92.0449L3.25455 92.0312L3.30169 91.8437L3.49039 91.4375L3.50218 91.4218L3.49039 91.4062L3.46682 91.3437L3.30169 91.1874L2.9951 91.0625L2.61779 90.9375L0.849036 90.625L0.518856 90.4999L0.212274 90.3437L0.0471382 90.1562L0 89.9374L0.00480771 89.9285L0 89.9062L0.117937 89.6875L0.330211 89.4375L1.74515 88.1562L2.1933 87.6249L2.8064 86.5625L2.90077 86.25L3.01867 85.6562L3.0223 85.6105L3.01867 85.5937V85.5624V85.375V85.3437L3.05496 85.1995L3.06584 85.0624V85.0937V85.1562L3.18375 84.9374L3.46682 84.6562L3.84414 84.3437L6.15535 82.9062L7.78259 81.6249L8.1397 81.2109L6.0326 80.4062L6.06075 80.3857L6.0326 80.3749L6.50423 80.0312L7.84855 79.3125L8.29661 79.25L8.88623 79.2187L22.9711 78.3749L23.3012 78.6249L23.3956 78.9375L23.3906 78.9522L23.3956 78.9687L23.3012 79.2499L23.2567 79.5451L23.3012 79.7812L23.4663 80L23.8437 80.4062L23.9616 80.6249L24.4097 81.8437L24.5276 82.0624L24.6927 82.2499L24.8814 82.4375L25.4238 82.3125L26.2256 79.875L27.8294 78.5312L28.867 77.3124L29.1736 77.0937L29.6453 76.9375L32.1216 76.7187L33.065 76.3125L34.8573 74.7812L37.1921 74.9374L38.0883 74.7187L39.9514 73.4687L42.0268 78.4063L42.7815 78.1875L43.4418 78.1251L43.8191 78.2188L44.1021 78.375L44.3379 78.5313L44.5031 78.75L44.8568 78.9688L45.3757 79.1875L46.4606 79.375H46.9558L47.3095 79.3125L47.5218 79.1562L47.8991 78.75L57.3025 75.5648L57.4506 75.3126L57.5921 75.0313L57.6628 74.7188L57.7807 74.1251L57.8751 73.7813L58.1109 73.4063L58.12 73.3981L58.1345 73.3751L58.6533 72.9063L59.0543 72.6876L59.4788 72.5625L61.1532 72.5313L62.474 72.6876L62.8041 72.8126L63.0635 73L63.4645 73.3751L63.606 73.5938L63.8182 73.75L64.0776 73.8751L64.4549 73.9376L69.7378 73.5626L70.4688 73.3438L70.9346 73.1381L71.1292 72.5938L71.2 72.0313V70.5938L71.1056 70.3438L70.917 70.1875L70.6103 70.0313L69.101 69.5626L68.7945 69.4063L68.6057 69.2501L68.8652 68.8438L68.8799 68.8321L68.9124 68.7813L69.6198 68.2188L72.2819 66.6679L72.7565 66.3126L72.898 66.0313L73.5819 64.0625L73.6291 63.8751L73.6054 63.6563L73.5583 63.4376L73.464 63.1875L73.1338 62.7501L73.3461 62.4063L73.9592 61.8751L74.0365 61.837L74.1008 61.7813L75.7516 60.9688L77.9449 59.625L80.374 58.6875L81.1287 58.5625H81.7183L82.5674 58.6875H83.6051L84.0767 58.7188L84.454 58.8125L84.7843 58.9375L85.2087 59.0313L85.7511 59.0938L86.718 59.0313L87.3077 59.0625L87.6615 59.1875L88.0387 59.5938L88.2746 59.7501L88.8407 59.8438L89.7132 59.7813L92.2603 59.375L92.9442 59.3438L93.7696 59.5313L97.3544 59.375L98.2034 59.4688L99.359 59.7501L101.128 59.8438L103.274 60.2813L104.618 60.8125L105.42 61.2813L105.75 61.4063L106.175 61.4688H106.646L107.189 61.4063H110.137L111.292 61.1563L114.736 59.7501L115.372 59.625L117.896 59.5625L118.768 59.6563L120.372 60L120.797 60.0313L122.023 59.9688L122.943 60.0625L124.028 60.375L124.311 60.5L124.476 60.6251L124.688 60.7813L125.16 61.4063L125.372 61.5938L125.749 61.7188L126.012 61.6116L126.598 61.1563L126.622 61.1536L126.74 61.0625L127.306 61H128.202L129.806 60.6251L131.315 60.1563L133.556 59.6876L134.487 59.3483L134.9 59.0625L135.442 57.9688L135.749 57.1563L135.843 56.7188L136.008 56.3126L136.221 55.9688L136.881 55.4063L136.971 55.3559L137.022 55.3126L138.859 54.2912L139.192 54.0313L139.522 53.6875L139.805 52.8438L139.876 52.4063L139.829 51L139.64 49.6563V48.7188L139.758 48.2188L140.041 47.7813L140.678 47.2813L140.71 47.2734L140.819 47.1875L141.456 47.0313L142.046 47.0938L144.263 47.5938L148.508 47.6563L149.099 47.4822L149.451 47.1875L149.71 46.6875L150.159 46.125L150.262 46.0795L150.3 46.0313L150.795 45.8125L151.22 45.6875L153.72 45.7188L154.286 45.7813L159.875 47.125L162.139 48.125L162.469 48.375L162.776 48.6563L163.035 48.9688L163.271 49.3438L163.436 49.7188L163.814 50.9375L164.097 51.3125L164.568 51.5938L165.417 51.7188L166.007 51.5625L166.455 51.2813L166.879 50.875L167.752 50.2813L168.177 49.9063L168.578 49.4063L169.12 49.0625L170.087 48.6251L173.294 47.9063L173.672 47.7188L174.922 46.8438L175.322 46.7188H175.7L176.053 46.8125L176.337 46.9688L176.478 47.125L176.525 47.3438L176.69 47.4688L177.162 47.5313L179.19 47.2813L179.662 47.3125L179.827 47.5L179.945 47.75L180.346 47.9063L180.935 48L182.162 47.9376L182.704 47.7813L183.055 47.5486L183.129 47.4375L183.624 46.25L183.718 45.9375L183.765 45.6563V45.375L183.624 45.1563L183.412 44.9688L183.152 44.8125L182.916 44.6563L182.798 44.4375L182.869 44.1563L183.152 43.6563L183.209 43.6079L183.27 43.5L183.6 43.2188L184.072 42.875L186.595 41.7813L186.855 41.6563L187.138 41.4375L187.869 40.4688L187.987 40.3125L188.671 39.625L189.638 38.3438L189.756 38.1875L190.039 37.9375L190.534 37.625L190.982 37.5625L191.407 37.5938L192.208 37.8125L193.246 37.9688L193.623 37.875L193.761 37.7839L193.789 37.6563L193.694 37.4063L193.576 37.1563L193.506 36.9063L193.553 36.6563L193.666 36.5224L193.671 36.5L193.883 36.25L194.779 35.6563L195.534 35.4688L196.571 34.9063L196.949 34.7813L197.326 34.8125L197.609 34.9375L197.774 35.1563L197.798 35.4063L197.751 36L197.798 36.25L198.034 36.4063L198.694 36.7188L198.93 36.875L199.048 37.0938L199.095 37.3438L199.189 37.625L199.401 37.8125L199.732 37.9375L200.533 38.125L201.689 38.25H202.538L203.033 38.1563L203.411 38.0313L204.331 37.4063L204.967 37.0625L205.392 37.0313L205.675 37.125L205.793 37.3438L205.816 37.625V39.375L205.84 39.625L205.958 39.8438L206.453 40.4688L209.26 42.9063L209.425 43.0625L209.708 43.5L209.991 44.25L210.156 45.5938L210.226 45.8438L210.344 46.0938L210.674 46.25L211.193 46.3438H212.16L212.632 46.2188L212.83 46.0438L212.868 45.8438L212.915 45.5625L212.868 45.2813L212.962 44.9688L213.104 44.6563L213.159 44.6178L213.198 44.5313L213.646 44.2188L214.071 44.1563L214.495 44.1875L215.156 44.4375L216.028 44.875L216.429 45.0313L217.018 45.0938L217.915 45.125L218.434 45.0625L218.858 44.9375L220.132 44.1875L220.816 43.625L221.109 43.2605L221.24 43L221.429 42.7188L221.483 42.6531L221.523 42.5938L221.783 42.2813L222.254 41.9688L222.702 41.875L223.15 41.9063L223.929 42.125L225.792 42.9375L226.051 43.0938L226.358 43.25L226.641 43.4063L227.749 43.625L228.881 43.6563L229.377 43.5L229.707 43.2813L230.06 42.9375L230.556 42.5625L233.739 40.7188L234.145 40.3906L234.164 40.375L234.4 40.0313L234.447 39.75V39.4375L234.329 39.2188L233.999 39.125L232.678 38.9375L232.395 38.7813L232.207 38.5938L230.909 36.3438L230.791 36.125L230.438 35.5L230.367 35.3438L230.32 35.1875L230.225 34.6875L230.178 32.75L230.06 31.9688L229.424 30.25L228.881 29.375L228.716 29.1563L228.527 28.9688L228.292 28.7813L228.032 28.625L227.207 28.1875L226.735 27.8438L226.664 27.5938L226.712 27.3437L228.197 24.3125L228.362 24.0625L229.047 22.1323L229.094 22L247.064 27.5L254.611 31.0938L255.13 31.4063L255.602 31.75L256.969 33.125L257.253 33.5625L257.37 33.7813L257.488 33.9688L258.314 34.8125L258.644 35.0313L259.186 35.3125L265.837 35.625L266.144 35.7188L266.427 36.3438L266.757 36.5938L267.346 36.75L269.092 37.0313L269.445 37.3438L269.516 37.625L269.422 37.875L269.186 38.0313L268.879 38.125L267.794 38.2813L267.559 38.4063L267.488 38.625L267.582 39.125L267.606 39.4063L267.559 39.6875L267.394 39.9063L267.205 40.0938L266.993 40.2188L266.332 40.5L266.191 40.625L266.309 40.7813L266.545 40.9375L267.653 41.4688L267.936 41.6875L269.209 42.75L269.375 42.9688L269.54 43.125L269.846 43.3438L271.073 43.875L271.45 44.0938L271.686 44.3125L271.804 44.4375L272.016 44.5313H272.205L272.771 44.2813L273.03 44L273.242 43.7188L273.455 43.5L274.139 43.4688L274.166 43.4729L274.257 43.4688L275.294 43.625L277.511 44.2307L286.266 40.6563L286.307 40.6877L286.384 40.6563L286.832 41L287.398 41.2813L290.534 42.0625L291.289 42.4375L291.714 42.75L291.879 42.9688L292.243 43.0224L292.987 42.9063L293.459 42.75L293.789 42.5313L294.496 41.5625L294.945 41.4688H295.062H295.605H295.723L298.388 42.25L298.977 42.5313L299.732 43.0313L299.944 43.25L300.581 44.0938L300.793 44.5625L300.817 44.8125L300.911 45.0625L301.053 45.2188H301.265L301.713 44.9063L301.925 44.6251L302.043 44.2813L302.326 43.0313L302.468 42.75L302.633 42.5001L303.081 42.3438L303.765 42.2188L305.133 42.125L305.77 41.9688L306.194 41.7188L306.359 41.5L308.576 41.1875L308.598 41.2011L308.694 41.1875L310.84 42.5313L312.105 42.7486L314.448 42.7188Z" fill="#333333"/>
<path d="M183 26V21.5H183.5L186 22.5L183 26Z" fill="#C4C4C4"/>
<path d="M311 26.5V36.5L309 39L308 39.5L306 41.5H305.5L304 42.8125V51.5L300.5 52.5L297.5 54.5L290 56.5L288 58.5H286.5L281.5 61L274.5 50.5L277.5 48L286.5 47H287.5L289.5 45.5L297.5 42.8125L300.5 41L302.727 40.3636L302 40L289 39L282 36.5L283.5 32L287 29H293.5H297.5H300.5L302.5 30.5L303.5 31L303 32L304 32.5L303.5 33L304 33.5L305.5 32.5L305 32L306 31L308 29L309 27.8125L308.5 24.5L311 26.5Z" fill="url(#paint0_linear)"/>
<path d="M284.5 66.5V77.5H284.121L284 81L275.5 85.5L272.5 85H271.5L268 88L266.5 90.5H265.5V85.3125H264L263 85.5L261 91L258 92.5L253.5 95.5H251.5L249.5 100.5V100.312L248.5 100L246 96.5L245 95.5H242.5L242 96.5L240 96L239 99H237.5H237L236 97.6875L234.5 100.5H234L232 99.5H231L226.5 100.5V102L224.5 102.857V109.5L223.5 110L222 112.5L218 113C215.333 113.667 210 114.9 210 114.5H208.5L203 112.5L202 112V112.5L200 113.5L195 112L190 113L185.5 117H183.5L181 116.5L179.5 114.5H177.5L176 113.5H172.5L171 114.5H170.5H163.5L162.5 112V105.5L160 102.5L158 103L153 99V93H150.5L149.5 93.5L147 92H146L144 93H142L141 91L140 92.5L139 93.5H138L136 91.5L132 92.5L129.5 90.5H128.5L126.5 91.5L120 90.5H118.5L115 87.5V84.5L113 83.5H102.5L99.5 86L95.5 88H93V88.1875L91.5 85.5L88.5 88.1875H87L83 87.5L81 87L74.5 88.5L73.5 88L67 87H65.5H54L52.5 90H35L32 88.5L31 87.5L29 83.5L25.5 84.5L24 83.5H23L20.5 85.5H19L16 85L12.5 86L10 81V70L14 69.5L15.5 72L12.5 74.5L16 74L19 75H20.5L23 72.5H24L25.5 73.5L29 72.5L31 76L32 77L35 78L52.5 78.5L53 77L54 76.5H65.5H67L73.5 77.5C73.6667 77.3333 74.1 77 74.5 77L81 75.5L83 76H87H88.5L91.5 75L93 76.5H95.5L99.5 75L102.5 73L111.5 72L113 74L114.5 72.5L118.5 73L117 75L118.5 76.5V79.5H120V80H126.5L128.5 79L129.5 79.5L132 80H135.5L137.5 78L139.5 80L139 83.5L140 82L141 80L142 80.5H144L146 79.5H147L149.5 80.5H150.5L153.5 81L158.5 79.5L161.5 87L158.531 89.0959C160.324 89.601 161.804 90 162 90C162.4 90 165.167 91.3333 166.5 92L168 98L164.994 102.1L171 102.5L172.5 101.5H176L177.5 102.5H179.5L181 104.5L183.5 105.5L185.5 106L190 101L195 100L200 102.5L202 102.056V102H202.25H203L208.5 103.5H210L217.5 101L220.881 99.7323L218.5 95.5L221 94.5L220 89.5L226.5 89L231 88.5263V88.5H231.25H232L234 89H234.5L236 87H237.5L238.029 87.3529L238.5 85L240 83.5L242 84H242.5L245 83.5L246.5 84L246 85.5L248 86L249.5 87.5L248.5 89L249.5 90L251.5 84.5H253.5L254 82.5L258 81.5H261L263 80.5L262 78.5L264 75.7571V75.5L260.5 77L264 73.5L266.5 75L266 79L265.5 79.5H266.5L268 75.5L271.5 72H272.5L275.5 73L279.484 70.123L279.5 70L284.5 66.5Z" fill="url(#paint1_linear)"/>
<path d="M23.5 62V59L22.5 60.5L23.5 62Z" fill="url(#paint2_linear)"/>
<path d="M68.5 52V46L69.5 45L75 47L74 50.5L68.5 52Z" fill="url(#paint3_linear)"/>
<path d="M73.5 39.5L74 39L75.5 40.5L73.5 42V39.5Z" fill="url(#paint4_linear)"/>
<path d="M226.5 5.5L227.5 4.5L234 11C234.5 11.5 237 16 237.5 16.5C238 17 234.5 19.5 234 20C233.6 20.4 230.833 22.8333 229.5 24L226.5 21V5.5Z" fill="url(#paint5_linear)"/>
<path d="M269.5 15.5L269 15C267 15.8333 262.9 17.5 262.5 17.5C262.1 17.5 264 19.1667 265 20L269.5 22V15.5Z" fill="url(#paint6_linear)"/>
<path d="M310.855 26.351L309.134 28.1703L308.757 29.08L308.733 29.353L308.592 29.6259L308.309 29.9594L307.649 30.3233L307.154 30.8994L306.753 31.233L306.164 31.5059L305.669 32.1427L305.174 33.2646L305.009 33.5376L304.796 33.7498L304.537 33.9318L304.066 33.9924L303.688 33.9014L303.429 33.7802L303.382 33.113L302.958 32.6279L302.934 32.4459L302.887 32.1427V31.8698L302.84 31.6272L302.675 31.4453L302.368 31.4756L302.062 31.7182L301.614 32.2943L301.284 32.5975L300.789 32.6885L300.577 32.5369L300.482 32.2943L300.647 31.4149L300.624 31.142L300.435 30.9601L300.082 30.8388L299.634 30.7782L299.186 30.7478L298.785 30.8085L298.479 30.9297L298.219 31.0814L296.875 32.2943L296.451 32.5066L296.003 32.5975L295.579 32.5672L295.202 32.4459L294.966 32.2943L294.825 32.082L294.636 31.6272L294.518 31.4149L294.329 31.2027L294.047 31.051L293.646 30.9904L293.174 30.9297H292.75L292.302 31.051L289.591 32.6279L289.143 32.6885L288.719 32.6582L288.412 32.5066L288.2 32.3246L288.035 32.1427L287.776 31.9911L287.422 31.9304L287.045 31.9608L286.621 32.173L286.196 32.5066L285.183 33.5982L285.135 34.0227L285.23 34.2653L285.466 34.7505L285.654 34.9324L285.866 35.1144L286.149 35.266L286.833 35.5086L287.092 35.6602L287.281 35.8725L287.422 36.0847L287.776 36.7518L288.012 36.9034L288.294 37.0551L288.648 37.1764L292.703 37.5402L293.08 37.6615L294.683 38.2983L295.06 38.4196L295.508 38.4499L299.752 38.5106L300.058 38.6319L300.223 38.8138L300.341 39.0261L300.412 39.299L300.53 39.5112L300.742 39.6932L301.142 39.7842L303.971 40.1784L304.301 40.2997L304.49 40.4816L304.325 40.7848L303.924 41.1184L303.005 41.6036L302.392 41.7855L301.873 41.8764L301.472 41.9068L301.095 41.9674L300.6 42.1797L298.219 43.8475L297.677 44.1204L290.18 46.6372L289.968 46.7282L289.874 46.7585L289.544 46.9404L287.658 48.305L287.139 48.4566H286.833L286.644 48.0928L286.432 48.0624L280.303 49.7908L278.275 50.7005L278.04 50.9431L277.851 51.2464L277.78 51.8225L277.851 52.1561L277.945 52.429L278.04 52.5806L278.134 52.7019H278.205L278.37 52.7322L279.006 52.7625L279.289 52.7929L279.313 53.0051L279.242 53.5509L279.265 53.8238L279.501 54.2787L281.128 56.5832L281.151 56.8257L281.01 57.0683L280.586 57.3715L280.303 57.6445L280.256 58.069L280.373 58.6148L280.491 58.827L280.774 58.9483L281.104 59.009L281.411 59.1303L281.529 59.3425L281.599 59.6155L281.623 59.8884L281.646 60.1309L282.142 61.5865L282.542 65.2556L282.66 65.8318L282.684 65.8924L282.755 66.0137L282.919 66.1653L283.226 66.2866L284.075 66.4685L284.381 66.5898L284.57 66.7718L284.64 67.0447L284.617 67.3176L284.028 70.6531L283.839 70.9564L283.509 71.2292L282.684 71.4112L282.142 71.4719L281.599 71.5022L281.175 71.5628L280.798 71.7448L280.043 72.7758L279.855 72.988L277.026 74.8378L276.437 75.3533L276.083 75.5352L275.635 75.6868L274.763 75.7778H274.315L273.961 75.7475L273.678 75.6262L273.419 75.5049L273.207 75.3229L272.995 75.141L272.759 74.9591L272.453 74.8378L272.099 74.8681L271.816 75.05L271.58 75.4745L271.203 75.9294L268.351 78.0823L268.162 78.3249L267.573 79.2953L267.078 80.4172L266.865 80.6295L266.582 80.7508L266.111 80.6598L265.875 80.4779L265.71 80.2353L265.498 79.5075L265.451 79.265V78.992L265.522 78.7495L265.687 78.5372L265.875 78.3553L265.993 78.143V77.9611L265.333 76.081L265.192 75.8991L265.027 75.7171L264.767 75.6868L264.461 75.7778L264.202 76.0204L263.871 77.2333L263.541 78.0823L263.424 78.6585L263.471 79.2043L263.589 79.6895L263.636 80.205L263.589 80.8114L263.494 81.0844L263.282 81.6302L262.999 81.8728L262.504 82.085L260.76 82.4186L258.025 82.2973L257.53 82.4186L256.917 82.6612L255.903 83.1767L255.29 83.5709L254.772 84.056L254.159 84.8748L253.64 85.36L252.815 85.7541L252.273 85.8451L251.754 86.118L251.471 86.3303L250.717 88.1497L250.01 90.5149L248.807 89.9994L248.548 89.7871L248.477 89.5445L248.525 88.6652L248.501 88.4226L248.407 88.2406L248.312 88.1193L248.147 87.9677L246.757 86.9671L246.403 86.5728L246.238 86.3606L246.096 86.1483L245.979 85.6632L245.861 85.4206L245.696 85.2083L245.436 85.087H245.036L243.527 85.7845L243.055 85.8451L241.217 85.6328H240.415L239.496 85.8148L239.071 86.027L238.788 86.2696L238.647 86.5122L238.6 86.7852L238.576 87.058L238.694 87.5735L239.001 88.271V88.3922L238.93 88.5439L238.788 88.7258L238.553 88.8774L238.293 88.9684L236.03 89.302L235.771 89.4536L235.606 89.6962L235.347 90.242L235.182 90.4846L234.969 90.6969L234.616 90.7575H234.144L233.319 90.5149L232.895 90.3026L232.588 90.0904L232.046 89.5142L231.834 89.302L231.551 89.1807H231.15L229.736 89.5445L226.742 89.9388L225.823 90.2723L225.257 90.5452L225.021 90.6969L224.809 90.9091L224.597 91.1214L224.455 91.3639L224.337 91.6368L224.267 91.9401L224.243 92.213L224.314 92.4859L224.408 92.7285L224.597 92.9104L224.856 93.0621L225.21 93.153L226.459 93.2743L226.742 93.3956L226.836 93.6079L226.86 94.1234L226.836 94.3963L226.742 94.6389L226.483 94.7905L226.153 94.8814L224.172 95.0331L223.465 95.1543L223.182 95.306L222.994 95.4879L222.781 95.8518L222.758 96.0944L222.852 96.337L222.994 96.5492L223.512 97.1254L223.607 97.368L223.63 97.6408L223.559 98.217V98.4899L223.701 98.7022L223.937 98.8538L224.196 99.0054L224.408 99.157L224.432 99.3693L224.29 99.5512L224.007 99.6422L222.499 99.8545L222.239 100.006L222.121 100.279L222.074 100.825L222.098 101.098L222.027 102.189L221.956 102.432L221.768 102.614L221.438 102.675L208.802 104.13L208.048 104.069L203.215 103.008L202.885 102.887L202.46 102.826L201.989 102.796L201.258 102.947L200.409 103.19L200.079 103.251L199.702 103.22L198.406 102.371L196.425 101.583L195.6 101.431L194.375 101.31L191.711 101.583L191.074 101.765L190.768 101.916L190.532 102.068L190.296 102.28L188.74 103.948L187.821 105.191L187.019 106.01L186.524 106.344L186.241 106.495L185.581 106.677L184.78 106.738L184.143 106.677L183.365 106.526L181.927 106.04L181.338 105.707L180.961 105.434L180.678 105.009L180.018 104.191L179.829 104.009L179.57 103.857L179.24 103.706L177.519 103.129L176.717 102.644L176.128 102.493L173.488 102.28L172.686 102.371L172.191 102.523L172.097 102.796L172.002 103.069L171.885 103.311L171.625 103.433L171.272 103.493L164.883 103.584L164.459 103.524L164.058 103.402L163.728 103.038L163.634 102.705V102.371L163.704 102.098L163.751 101.795L163.728 101.522L163.657 101.28L163.492 101.067L162.903 100.491L162.785 100.249L162.714 100.006L162.785 99.7332L162.926 99.4906L163.115 99.2783L164.364 98.0654L164.529 97.8228L164.647 97.5802L164.694 97.3073L164.671 97.0647L164.6 96.8221L164.459 96.6099L164.294 96.3976L162.714 95.1847L162.502 95.0027L162.337 94.7905L162.219 94.5782L162.125 94.3356L162.078 94.0627L162.007 93.8202L161.701 93.3956L161.323 93.0317L160.993 92.9104L160.522 92.8498L158.707 93.0924L158.329 93.0621L157.457 92.5162L156.538 91.7581L154.18 89.2413L154.133 89.211L153.167 88.0587L153.072 87.8464V87.6342L153.308 87.5129L156.184 86.6638L157.056 86.2696L157.316 86.118L157.504 85.9058L157.646 85.6632L157.74 85.3903L157.787 85.0567L157.764 84.7838L157.716 84.5412L157.599 84.2986L157.316 83.8741L156.821 82.7218L156.656 82.5095L156.255 82.3883L155.642 82.3579L152.789 82.6915L152.341 82.6612L151.87 82.5702L151.186 82.2366L150.691 82.085L150.078 82.0244L149.253 82.1154L148.546 81.9334L148.098 81.7818L147.155 81.054L146.825 80.9327L146.377 80.9024L145.151 81.236L144.774 81.3876L144.538 81.5695L144.397 81.8121L144.35 82.085L144.397 82.8431L144.326 83.0554L144.091 83.207L143.784 83.2979L142.653 83.4496H142.275L141.922 83.3889L141.662 83.116L141.379 82.9644L141.002 82.9341L140.389 83.207L140.154 83.4799L140.012 83.8134L139.965 84.6625L139.918 84.9354L139.8 85.2083L139.564 85.3903L139.234 85.4509H138.81L138.386 85.36L138.008 85.087L137.914 84.8445L137.938 84.6322L138.055 84.4806L138.409 84.0864L138.527 83.8438L138.621 83.5406L138.833 82.0547L138.739 81.5392L138.621 81.2966L138.433 81.1147L138.173 80.9934L137.867 80.9631L133.859 81.1754L132.916 81.3573L132.303 81.5392L132.044 81.6908L131.69 81.7515L131.243 81.7211L130.653 81.5089L130.347 81.2966L130.158 81.054L130.04 80.8114L129.828 80.6598L129.498 80.5689L128.366 80.9024L127.117 81.4482L126.575 81.5089L119.762 80.8721L119.055 80.6598L118.819 80.5385L118.654 80.4172L118.489 80.2656L118.324 80.0837L118.206 79.8714V79.5985L118.253 78.4766L118.206 78.2946L118.112 78.1733L117.734 78.0217L116.084 77.7184L115.613 77.5365L115.33 77.2939L115.283 77.0514L115.094 75.2016L115.023 74.9591L114.858 74.7468L114.434 74.6255L113.798 74.5042L112.525 74.4132L111.369 74.1403L106.112 73.8371L104.604 73.9584L102.081 74.5042L101.115 74.8984L100.572 75.2926L100.384 75.8991L100.195 76.172L100.03 76.4146L99.7944 76.5965L99.2522 76.7784L96.9891 77.2636L96.3762 77.5365L95.9754 77.8094L95.7396 78.0217L95.4803 78.143L95.1739 78.2643L94.7025 78.2946L94.113 78.2643L93.17 78.0217L92.7928 77.7791L92.6279 77.4759L92.5806 77.2333L92.5335 76.9604L92.3921 76.7481L92.18 76.5662L91.9206 76.4146L91.5906 76.2933L91.1427 76.2629L90.6476 76.3236L89.9639 76.6268L89.6339 76.8694L89.4218 77.0817L88.9503 77.9611L88.6438 78.1127L88.1723 78.143L87.4179 77.9307L87.1115 77.6881L86.9465 77.4152L86.8993 77.1726L86.7814 76.9604L86.1685 76.8088L85.202 76.7178L82.986 76.7481L80.8879 76.4752L80.0627 76.5359L76.6917 77.2333L75.725 77.5365L75.1121 77.8094L74.9472 78.0217L74.6643 78.5978L74.5228 78.7798L74.3342 78.9617L73.8627 79.0527H73.1555L70.3266 78.6585L67.1441 77.9004L66.5547 77.8398L65.8947 77.8094L65.2817 77.7184L54.0839 77.6578L53.636 77.9307L53.1409 79.174L52.8109 79.5682L52.2215 79.6895L50.0999 79.5985L34.8708 78.9314L32.3013 78.0823L30.8632 76.6875L29.8495 74.9591L28.6944 73.4429L27.7514 73.6552L27.5629 73.7158L26.5963 74.11L25.9833 74.2313L25.559 74.1707L25.1818 73.9887L24.2388 73.4126L23.791 73.3216L23.4373 73.3519L23.178 73.5035L22.7773 73.8977L21.0327 75.8687L20.7263 76.0507L20.302 76.2023H19.9012L19.5712 76.1113L19.2882 75.9597L18.416 75.2623L18.2274 75.05L17.8973 74.8378L16.6715 74.201L16.2708 74.0493L15.87 73.9887L15.5399 74.019L14.3612 74.2919L12.546 74.5042L12.4517 73.9584L12.6167 73.6855L12.8525 73.4126L13.2532 73.0184L13.4654 72.7455L13.5362 72.4725L13.4654 72.2603L13.3239 72.048L13.2532 71.8358L13.3004 71.6538L13.489 71.2596L13.5125 71.2292L13.489 71.199L13.4654 71.1383L13.3004 70.9867L12.9939 70.8654L12.6167 70.7441L10.8487 70.4409L10.5186 70.3196L10.2122 70.168L10.0471 69.986L10 69.7738L10.1179 69.5615L10.3301 69.3189L11.7444 68.0757L12.1924 67.5602L12.8053 66.5292L12.8996 66.226L13.0175 65.6498L13.0646 65.0736V64.8008L13.0175 64.5885V64.3762L13.0646 64.1943L13.1825 63.982L13.4654 63.7091L13.8426 63.4059L16.1529 62.011L17.7794 60.7677L18.1567 60.3432L19.029 59.5548L19.5004 59.2212L20.8442 58.5238L21.2921 58.4632L21.8814 58.4328L22.9659 58.5845L23.2959 58.827L23.3902 59.1303L23.2959 59.4032L23.2487 59.7064L23.2959 59.949L23.4609 60.1613L23.8381 60.5555L23.9559 60.7677L24.4039 61.9503L24.5217 62.1626L24.6868 62.3445L24.8754 62.5265L25.4176 62.4052L26.2191 61.9807L27.8222 60.6768L28.8594 59.4942L29.1659 59.2819L29.6374 59.1303L32.1126 58.918L33.0557 58.5238L34.8473 57.038L37.1812 57.1896L38.077 56.9773L39.9393 55.7645L42.0139 54.7335L42.7682 54.5213L43.4283 54.4606L43.8055 54.5516L44.0884 54.7032L44.3241 54.8548L44.4891 55.0671L44.8428 55.2793L45.3615 55.4915L46.4459 55.6734H46.9409L47.2945 55.6128L47.5067 55.4612L47.8839 55.0671L57.29 51.9741L57.455 51.7012L57.5964 51.4283L57.6672 51.125L57.785 50.5489L57.8794 50.2153L58.1151 49.8515L58.6337 49.3966L59.0345 49.1844L59.4588 49.0631L61.1326 49.0328L62.4528 49.1844L62.7828 49.3057L63.0421 49.4876L63.4429 49.8515L63.5844 50.0638L63.7965 50.2153L64.0558 50.3367L64.433 50.3973L69.7137 50.0334L70.4445 49.8212L70.9395 49.6089L71.1517 49.0328L71.2224 48.4869V47.0921L71.1282 46.8495L70.9395 46.6979L70.633 46.5462L69.1243 46.0914L68.8179 45.9398L68.6292 45.7882L68.8886 45.394L69.5958 44.8482L72.3304 43.3017L72.8726 42.9075L73.014 42.6345L73.6978 40.7242L73.7449 40.5423L73.7213 40.33L73.6741 40.1177L73.5798 39.8751L73.2498 39.4506L73.462 39.1171L74.075 38.6015L75.725 37.8131L77.9175 36.5092L80.3456 35.5995L81.1 35.4782H81.6894L82.5381 35.5995H83.5754L84.0468 35.6299L84.424 35.7208L84.7541 35.8421L85.1784 35.9331L85.7205 35.9938L86.6871 35.9331L87.2765 35.9634L87.6301 36.0847L88.0073 36.4789L88.243 36.6305L88.8089 36.7215L89.6811 36.6609L92.2271 36.2666L92.9108 36.2363L93.7358 36.4183L97.3192 36.2666L98.1678 36.3576L99.323 36.6305L101.091 36.7215L103.236 37.146L104.58 37.6615L105.382 38.1164L105.712 38.2377L106.136 38.2983H106.607L107.15 38.2377H110.096L111.252 37.9951L114.693 36.6305L115.33 36.5092L117.852 36.4486L118.725 36.5396L120.328 36.8731L120.752 36.9034L121.978 36.8428L122.897 36.9338L123.982 37.237L124.265 37.3583L124.43 37.4796L124.642 37.6312L125.113 38.2377L125.325 38.4196L125.703 38.5409L126.009 38.4196L126.693 37.9041L127.259 37.8435H128.154L129.757 37.4796L131.266 37.0247L133.506 36.5699L134.449 36.2363L134.991 35.8725L135.533 34.8111L135.84 34.0227L135.934 33.5982L136.099 33.204L136.311 32.8705L136.971 32.3246L138.881 31.2936L139.281 30.9904L139.611 30.6568L139.894 29.8381L139.965 29.4136L139.918 28.049L139.729 26.7451V25.8355L139.847 25.3503L140.13 24.9258L140.767 24.4406L141.403 24.289L141.992 24.3496L144.208 24.8348L148.452 24.8954L149.088 24.7135L149.536 24.3496L149.796 23.8644L150.243 23.3186L150.739 23.1064L151.163 22.9851L153.662 23.0154L154.228 23.076L159.815 24.3799L162.078 25.3503L162.408 25.5929L162.714 25.8658L162.974 26.169L163.209 26.5329L163.374 26.8968L163.751 28.0794L164.034 28.4432L164.506 28.7162L165.355 28.8374L165.944 28.6858L166.392 28.4129L166.816 28.0187L167.688 27.4426L168.113 27.0787L168.514 26.5935L169.056 26.26L170.022 25.8355L173.228 25.138L173.606 24.9561L174.855 24.107L175.256 23.9857H175.633L175.987 24.0767L176.269 24.2283L176.411 24.3799L176.458 24.5922L176.623 24.7135L177.095 24.7741L179.122 24.5316L179.593 24.5619L179.758 24.7438L179.876 24.9864L180.277 25.138L180.866 25.229L182.092 25.1684L182.634 25.0167L183.012 24.7741L183.177 24.5316L183.672 23.3793L183.766 23.076L183.813 22.8031V22.5302L183.672 22.3179L183.46 22.136L183.2 21.9844L182.964 21.8328L182.847 21.6205L182.917 21.3476L183.2 20.8624L183.53 20.5895L184.002 20.256L186.524 19.1947L186.784 19.0733L187.066 18.8611L187.915 17.7695L188.599 17.1023L189.683 15.7075L189.966 15.4649L190.461 15.1617L190.909 15.101L191.333 15.1313L192.135 15.3436L193.172 15.4952L193.549 15.4042L193.785 15.2526L193.832 15.0403L193.738 14.7978L193.62 14.5552L193.549 14.3126L193.596 14.07L193.809 13.8274L194.705 13.2513L195.459 13.0693L196.496 12.5235L196.873 12.4022L197.251 12.4326L197.534 12.5538L197.698 12.7661L197.722 13.0087L197.675 13.5849L197.722 13.8274L197.958 13.979L198.618 14.2823L198.854 14.4339L198.971 14.6461L199.019 14.8887L199.113 15.1617L199.325 15.3436L199.655 15.4649L200.457 15.6468L201.612 15.7681H202.46L202.956 15.6771L203.333 15.5558L204.252 14.9494L204.889 14.6158L205.313 14.5855L205.596 14.6765L205.714 14.8887L205.737 15.1617V16.8597L205.761 17.1023L205.879 17.3146L206.374 17.9211L209.179 20.2863L209.344 20.4379L209.627 20.8624L209.91 21.5902L210.075 22.8941L210.146 23.1367L210.264 23.3793L210.594 23.5309L211.112 23.6218H212.079L212.55 23.5005L212.833 23.2579L212.88 23.0154L212.927 22.7425L212.88 22.4696L212.975 22.1663L213.116 21.8631L213.564 21.5599L213.988 21.4992L214.413 21.5295L215.073 21.7721L215.945 22.1967L216.346 22.3483L216.935 22.4089L217.831 22.4392L218.35 22.3786L218.774 22.2573L220.047 21.5295L220.731 20.9837L221.108 20.5289L221.249 20.256L221.438 19.9831L221.697 19.6798L222.169 19.3766L222.616 19.2856L223.064 19.3159L223.842 19.5282L225.705 20.3166L225.964 20.4682L226.271 20.6198L226.553 20.7715L227.661 20.9837L228.793 21.014L229.288 20.8624L229.618 20.6502L229.972 20.3166L230.467 19.9527L233.649 18.1636L234.074 17.8301L234.309 17.4966L234.357 17.2236V16.9204L234.239 16.7081L233.909 16.6172L232.588 16.4352L232.306 16.2836L232.117 16.1017L230.82 13.9184L230.702 13.7061L230.349 13.0997L230.278 12.9481L230.231 12.7964L230.137 12.3112L230.09 10.4312L229.972 9.67314L229.335 8.00536L228.793 7.15631L228.628 6.94405L228.439 6.7621L228.204 6.58015L227.944 6.42854L227.119 6.00403L226.648 5.67047L226.577 5.42789L226.624 5.18527L228.109 2.24391L228.274 2.00134L229.005 0L246.969 5.33691L254.513 8.8241L255.031 9.12732L255.503 9.46088L256.87 10.7951L257.153 11.2196L257.271 11.4319L257.388 11.6138L258.214 12.4326L258.544 12.6448L259.086 12.9177L265.734 13.221L266.04 13.3119L266.323 13.9184L266.653 14.161L267.243 14.3126L268.987 14.5855L269.341 14.8887L269.411 15.1617L269.317 15.4042L269.081 15.5558L268.775 15.6468L267.69 15.7984L267.455 15.9197L267.384 16.132L267.478 16.6172L267.502 16.8901L267.455 17.163L267.29 17.3753L267.101 17.5572L266.889 17.6785L266.229 17.9514L266.087 18.0727L266.205 18.2243L266.441 18.3759L267.549 18.8914L267.832 19.1037L269.105 20.1347L269.27 20.3469L269.435 20.4986L269.742 20.7108L270.967 21.2263L271.345 21.4386L271.58 21.6508L271.698 21.7721L271.91 21.8631H272.217L272.783 21.6205L273.042 21.3476L273.254 21.0747L273.466 20.8624L274.15 20.8321L275.187 20.9837L277.474 21.5902L278.275 21.9844L278.723 22.3179L279.289 22.5908L282.424 23.3489L283.179 23.7128L283.603 24.0161L283.768 24.2283L284.193 24.289L284.994 24.1677L285.466 24.0161L285.796 23.8038L286.503 22.8638L286.951 22.7728H287.611L290.275 23.5309L290.864 23.8038L291.618 24.289L291.831 24.5012L292.467 25.3199L292.679 25.7748L292.703 26.0174L292.797 26.26L292.939 26.4116H293.269L293.717 26.1084L293.929 25.8355L294.047 25.5019L294.329 24.289L294.471 24.0161L294.636 23.7735L295.084 23.6218L295.768 23.5005L297.135 23.4096L297.771 23.2579L298.196 23.0154L298.361 22.8031L300.577 22.4999L302.722 23.8038L303.995 24.0161L306.447 23.9857L307.649 24.107L308.804 24.4709L309.393 24.8651L310.855 26.351Z" fill="url(#paint7_linear)"/>
<defs>
<linearGradient id="paint0_linear" x1="-224.042" y1="18.3174" x2="273.575" y2="175.53" gradientUnits="userSpaceOnUse">
<stop stop-color="#3A90B6"/>
<stop offset="1" stop-color="#075F92"/>
</linearGradient>
<linearGradient id="paint1_linear" x1="-224.042" y1="18.3174" x2="273.575" y2="175.53" gradientUnits="userSpaceOnUse">
<stop stop-color="#3A90B6"/>
<stop offset="1" stop-color="#075F92"/>
</linearGradient>
<linearGradient id="paint2_linear" x1="-224.042" y1="18.3174" x2="273.575" y2="175.53" gradientUnits="userSpaceOnUse">
<stop stop-color="#3A90B6"/>
<stop offset="1" stop-color="#075F92"/>
</linearGradient>
<linearGradient id="paint3_linear" x1="63.0572" y1="38.1311" x2="75.75" y2="38.7947" gradientUnits="userSpaceOnUse">
<stop stop-color="#3A90B6"/>
<stop offset="1" stop-color="#075F92"/>
</linearGradient>
<linearGradient id="paint4_linear" x1="63.0572" y1="38.1311" x2="75.75" y2="38.7947" gradientUnits="userSpaceOnUse">
<stop stop-color="#3A90B6"/>
<stop offset="1" stop-color="#075F92"/>
</linearGradient>
<linearGradient id="paint5_linear" x1="193.065" y1="3.19664" x2="267.823" y2="19.2016" gradientUnits="userSpaceOnUse">
<stop stop-color="#3A90B6"/>
<stop offset="1" stop-color="#075F92"/>
</linearGradient>
<linearGradient id="paint6_linear" x1="193.065" y1="3.19664" x2="267.823" y2="19.2016" gradientUnits="userSpaceOnUse">
<stop stop-color="#3A90B6"/>
<stop offset="1" stop-color="#075F92"/>
</linearGradient>
<linearGradient id="paint7_linear" x1="250" y1="124" x2="181.715" y2="-91.7284" gradientUnits="userSpaceOnUse">
<stop stop-color="#59BDE4"/>
<stop offset="0.260417" stop-color="#43A9D5"/>
<stop offset="0.697917" stop-color="#0B77B0"/>
<stop offset="1" stop-color="#015E94"/>
</linearGradient>
</defs>
</svg>
