<svg width="179" height="120" viewBox="0 0 179 120" fill="none" xmlns="http://www.w3.org/2000/svg">
<path d="M19.6307 25.2416V37.8612L21.975 36.146V23.5265L19.6307 25.2416ZM0.728516 24.0758V36.6981L3.81299 43.141V30.5215L0.728516 24.0758ZM3.81299 30.5215V43.141L21.8572 76.0448V63.4253L3.81299 30.5215ZM21.8572 63.4253V76.0448L25.152 81.9917V69.3722L21.8572 63.4253ZM25.1492 69.3722V81.9917L26.0997 84.7549V72.1354L25.1492 69.3722ZM26.0997 72.1354V84.7549L33.1884 101.093V88.4738L26.0997 72.1354Z" fill="url(#paint0_linear)"/>
<path d="M166.563 98.9375L163.063 98.4375L159.313 96.6875L156.188 96.25L153.625 93.5625L151.5 93.1875L140.125 96.8125L137.125 94.9375C136.958 95.0209 136.6 95.2625 136.5 95.5625C136.4 95.8625 135.833 97.8542 135.563 98.8125L131.875 97.1875L131.25 97.6875L129.688 102.312L127.75 102.5L125.375 101.125L119.625 100.375L119.75 102L120.938 101.625L121.188 113.438L120.375 114.188L118.813 115.188L114.625 116.812L109.875 119.312L106.625 115.438L103.688 114.188L101.813 115.188L96.5626 114.25L92.2501 115.062L86.1876 114.125L78.6251 108.625L71.5626 116.188L67.6876 112.688L62.3126 118.125L59.8126 118.438L56.6876 114.188L53.9376 109.938L51.5001 107.5L48.9376 105.125L46.5626 106.438C45.1043 106.688 42.1626 107.1 42.0626 106.75L37.8125 104.25C37.375 104 36 103.688 36 103L34.875 101.438L33 101L32.1875 89.25L34.625 87.6875L37.375 89.9375L36.375 91L37.8125 91.5C38.3958 91.1042 39.6375 90.2875 39.9375 90.1875C40.2375 90.0875 41.9792 92.0625 42.8126 93.0625L46.0001 93.1875L49.0001 92.0625L51.4376 91.25L53.5001 94L51.6251 96.4375L55.8126 94.9375L54.0001 98.25L60.5626 95.8125C60.8126 96.2292 61.5626 97.5125 62.5626 99.3125C63.8126 101.562 61.7501 101.375 61.5626 101.688C61.4126 101.938 58.2501 102.042 56.6876 102.062L59.5626 102.625L61.9376 103.75L59.9376 105.938L62.3126 104.938L68.1251 99.0625L70.8126 100L71.5626 102.188C72.2501 100.854 73.8251 98.0875 74.6251 97.6875C75.4251 97.2875 77.8334 96.0625 78.9376 95.5L82.2501 94.5L86.3751 95.625L88.0001 100.812L92.1876 101.562L96.3751 101.688L100.25 101.188H100.563L101.5 99.4375C102.438 99.5 104.35 99.675 104.5 99.875C104.65 100.075 105.979 101.417 106.625 102.062C106.646 101.542 106.8 100.537 107.25 100.688C107.813 100.875 108.313 101.375 109.563 101.812C110.563 102.162 111.604 102.625 112 102.812L112.438 105.438C112.588 105.188 114.333 103.167 115.188 102.188C113.917 101.375 111.213 99.6375 110.563 99.1875C109.913 98.7375 110.958 96.375 111.563 95.25L112.076 95.1891L112.125 93.6875L114.738 93.816L113 90.4375L117.375 87.125C118.125 86.5417 119.863 85.4125 120.813 85.5625C121.763 85.7125 123.667 86.1667 124.5 86.375C124.563 85.8333 124.788 84.825 125.188 85.125C125.576 85.4166 129.224 84.2754 131.15 83.6181C131.237 83.0981 131.476 82.6914 132.313 81.6875C133.25 80.5625 132.563 79.9375 134.313 79.375C136.063 78.8125 138.875 78.4375 139.25 78.6875C139.55 78.8875 140.167 81.1459 140.438 82.25C141.375 81.875 143.35 81.15 143.75 81.25C144.15 81.35 145.917 80.9584 146.75 80.75L151.813 79.5625L157.625 78.6875L159.313 79.75L159.75 81.3125L160.938 82.75L166.688 86.5C166.646 84 166.488 78.925 166.188 78.625C165.887 78.325 167.646 77.125 168.562 76.5625L171.625 74.125L166.25 78.1875C164.938 77.875 162.25 77.1625 162 76.8125C161.688 76.375 159.25 73.875 159.25 72.8125C159.25 71.75 160.312 71.1875 161.125 70.125C161.938 69.0625 163.688 66.6875 164.562 64.6875C165.262 63.0875 168.854 62.7292 170.562 62.75L174.938 61.125L178.375 61.9375L178.562 74.9375L176.438 76.8125L175.625 79.0625L174.875 80.6875L173.438 81.5625L171.75 86.875L170.5 89.625L169.562 92.4375L167.875 94.125L166.563 98.9375Z" fill="url(#paint1_linear)"/>
<path d="M177.5 60.25L177.438 49.25L167.812 48.875C167.021 49.75 165.262 51.9 164.562 53.5C163.688 55.5 164 56.375 164.562 58.5C165.012 60.2 169.292 59.4583 171.375 58.875L177.5 60.25Z" fill="url(#paint2_linear)"/>
<path d="M152.875 37.4375L152.75 31.8125L150 33.5625L146.062 36.5625L152.875 37.4375Z" fill="url(#paint3_linear)"/>
<path d="M142 3L142.312 14.6875L140.312 32.3125C140.438 32.625 141.188 38.4375 141.188 38.8125C141.188 39.1125 137.062 39.2708 135 39.3125L131.812 32.5C131.854 30.3958 132 25.9 132.25 24.75L132.271 24.6514C132.582 23.2199 133.013 21.2387 133.562 20.75C133.776 20.5598 134.724 20.023 135.852 19.4136L135.688 18.9375L132.25 15.9375C132.292 14.1458 132.375 10.4625 132.375 10.0625C132.375 9.5625 133.125 5.75 133.75 5.625C134.25 5.525 138.417 3.75 140.438 2.875L142 3Z" fill="url(#paint4_linear)"/>
<path d="M142.144 2.79856L141.649 3.13212L139.126 4.37537L135.472 7.25608L134.836 7.92319L134.6 8.37804L134.335 9.00226L133.917 10.3794L133.657 11.5923V12.9569L133.563 13.8362L133.587 14.0485L133.657 14.2911L133.775 14.5033L133.964 14.7156L134.223 14.8672L134.553 14.9885L135.402 15.1401H135.826L136.557 15.0795H136.84L137.005 15.2311L137.076 15.4737L137.099 15.7466L137.17 15.9892L137.335 16.2014L137.641 16.3531L138.82 16.6563L139.103 16.8079L139.339 16.9595L139.504 17.1718L139.598 17.4144L139.592 17.4589L139.598 17.475L139.551 17.8086L139.339 18.2331L138.702 18.9305L138.278 19.2641L137.028 19.8706L136.51 20.1738L136.062 20.568L135.85 20.8409L135.661 21.2351L135.472 22.3268V22.5997L135.543 23.2061L136.062 25.1468L136.109 25.3894L136.133 25.6623L136.13 25.6942L136.133 25.723L136.109 25.9655L135.944 26.5417L135.52 27.7243L135.331 28.634L135.284 29.2101L135.331 30.0289L135.284 30.3321L134.482 32.9096V33.2128L134.529 33.4857L134.647 33.698L134.93 34.1528L135.072 33.8799L135.284 34.0619L135.543 34.1832L135.826 34.2741H136.156L136.463 34.2135L136.722 34.0619L136.934 33.8496L137.406 33.0915L137.594 32.8793L137.806 32.667L138.066 32.4851L139.009 32.1818L139.692 32.0302L140.494 31.9696L141.366 31.9999L142.215 32.0909L143.606 32.5457L143.983 32.576H144.36L144.714 32.5154L145.02 32.4244L145.539 32.0909L145.774 31.9089L146.246 31.2721L146.505 31.0599L146.788 30.9082L147.118 30.8476L147.425 30.8779L147.66 31.0295L147.778 31.2418L147.873 31.4844L148.014 31.6966L148.226 31.8786L148.509 32.0302L148.863 32.1515L149.287 32.2425L150.183 32.3031L150.584 32.2728L150.937 32.2121L151.244 32.0909L152.375 31.545L152.658 31.4541L152.752 31.6663L152.704 31.917L152.729 31.9089L152.823 32.1212L152.705 32.7276L151.88 34.2438L151.574 35.0019L151.47 35.4018L151.692 35.7903L151.88 36.0026L152.092 36.1542L152.705 36.4574L154.025 36.9123L154.238 37.0336L154.379 37.1548L154.497 37.3368L154.544 37.5794L154.552 37.7678L154.568 37.7916L154.615 38.0342L154.632 38.4288L154.733 38.6104L154.945 38.7923L155.157 38.9742L156.549 39.8131L166.994 42.8476L167.504 43.3234L168.126 43.5148L168.409 43.9393L168.621 44.1212L168.88 44.2728L173.901 46.1832L177.131 48.5787L177.32 48.791L177.438 49.0336L177.508 49.3065L177.496 49.4634L177.508 49.4884L177.579 49.7614L177.555 50.0646L177.414 50.8227L177.272 51.2472L176.942 51.7324L176.259 52.4298L175.387 52.8846L174.844 53.1272L169.964 53.5518L169.611 53.7034L169.469 54.1279L168.957 56.0445L169.045 56.1292L169.352 56.2809L171.025 56.857H171.402L171.709 56.7964L172.44 56.4628L172.652 56.4022L173.359 56.3415H174.137L174.467 56.4325L174.75 56.5841L175.269 56.8873L176.353 57.797L177.272 59.0403L177.367 59.2829L177.438 59.5254L177.483 59.8921L177.508 59.9803L177.534 60.1898L177.579 60.3442L177.744 60.5564L177.933 60.7384L178.098 60.9203L178.215 61.1629L178.263 61.3752L178.268 61.5805L178.286 61.6178L178.333 61.83L178.357 62.7094L178.428 63.2249L178.286 63.5281L177.933 63.8617L176.966 64.2862L176.377 64.4378L175.811 64.5288L170.884 64.7714L170.483 64.923L170.177 65.1656L169.856 65.6666L169.917 65.772L170.177 65.954L171.214 66.5301L171.52 66.7424L171.756 67.0153L172.086 67.2579L172.204 67.4701L172.275 67.7127L172.249 67.8786L172.275 67.925L172.345 68.1676L172.298 68.4708L172.251 68.7437L172.157 69.0166L172.015 69.2895L171.638 69.5321L169.847 70.5025L168.88 71.3212L168.662 71.6718L168.856 71.776L170.46 72.3522L170.837 72.5645L170.978 72.7161L171.025 72.898L170.943 73.0572L171.049 73.1709L171.096 73.3529L171.002 73.5348L170.554 73.9593L170.2 73.7471L169.823 73.8684H169.187L167.866 73.5954H167.489H167.088L166.711 73.6561L166.145 73.838L163.123 75.1902L171.485 74.6904L171.223 74.7956L171.461 74.7813L171.084 74.9329L170.73 75.2059L170.306 75.691L170.141 75.9943L170.092 76.1623L170.07 76.3581L169.599 79.0872L169.716 80.4215V80.5427L169.74 80.8157L169.693 81.3918L169.688 81.401L169.669 81.6344L169.551 81.877L169.41 82.1196L168.868 82.6351L168.396 82.9686L168.09 83.2415L167.854 83.4841L167.689 83.7267L166.793 86.0313L166.534 86.2435L166.133 86.3648H165.426L164.954 86.2738L164.554 86.1526L164.011 85.8493L162.715 84.788L162.173 84.4545L161.843 84.3332L161.465 84.2422L158.778 83.8177L158.472 83.6661L158.33 83.5144L158.354 83.3022L158.361 83.2798L158.354 83.2719L158.377 83.0596L158.437 82.8805L158.442 82.7896L158.431 82.6698L158.307 82.4834L157.104 81.3918L156.138 80.6944L155.808 80.5731L154.935 80.4215L151.305 80.2698L149.843 80.6944L148.287 81.3312L145.529 82.1499L143.101 82.6047L140.956 83.3325L140.249 83.4235H139.659L137.985 83.0596L136.547 82.6351L135.722 82.2105L134.803 81.5131L134.567 81.4221L134.308 81.4828L134.19 81.8163V82.059L134.449 82.726L134.445 82.7442L134.473 82.817L134.402 83.0899L134.166 83.4538L133.601 83.9086L133.388 84.3938L133.406 84.622L133.624 84.8183L135.133 85.5158L135.369 85.6674L135.378 85.749L135.392 85.7584L135.416 85.9706L135.251 86.1829L134.661 86.3345H134.19L129.31 85.6371L128.933 85.7584L128.674 85.9706L128.556 86.3951L128.592 86.6257L129.31 87.699L129.499 88.1842L129.569 88.4268L129.574 88.4515L129.593 88.5178L129.64 88.7907L129.617 89.0636L129.569 89.3365L129.499 89.6701L129.263 90.0036L128.886 90.3372L128.084 90.7314L127.495 90.8527L126.953 90.9133L121.743 90.3069L118.584 89.5791H118.23L117.853 89.6094L117.476 89.7914L117.028 90.1249L116.721 90.3978L116.509 90.6404L116.469 90.8743L116.651 91.1862L116.91 91.3985L118.82 92.5204L119.267 92.8843L119.432 93.0359L119.527 93.2482L119.516 93.262L119.55 93.3392L119.432 93.4908L118.183 94.734L117.617 95.1889L117.358 95.3405L117.075 95.4921L116.769 95.6134L116.391 95.6741H115.967L114.718 95.4921H114.317L114.034 95.5831L113.9 95.8136L113.987 96.0379L114.199 96.2502L114.458 96.4321L115.543 97.0386L116.509 97.7057L117.099 98.2819L118.607 100.344L118.843 100.495L119.173 100.617L120.399 100.859L120.729 100.981L120.918 101.163L120.988 101.405L120.988 101.413L121.012 101.496L120.988 101.83L120.776 102.194L120.305 102.588L119.362 102.8L118.702 102.861L118.065 102.982L117.476 103.255L116.58 103.952L114.977 105.014L110.604 107.33L110.585 107.34L110.569 107.349L110.575 107.319L110.545 107.258L110.571 107.244L110.967 105.268L110.946 104.559L110.804 104.316L110.616 104.043L110.309 103.801L110.003 103.588L109.673 103.467L109.296 103.406L109.013 103.376L106.891 103.467L105.547 102.982L103.708 102.012L102.813 101.678L102.153 101.526L101.964 101.708L101.87 101.951V102.77L101.398 102.921L100.502 102.982L96.2118 102.285L94.5852 102.406L93.8544 102.527L93.1943 102.709L92.5814 102.952L91.8741 103.012H90.8369L87.4658 102.588L86.7349 102.406L86.4521 102.254L86.2399 102.103L86.1456 101.89L86.0984 101.617L86.287 101.072L85.9806 100.647L85.3205 100.132L82.6095 98.858L82.138 98.4941V98.2515L82.1851 97.9786L82.138 97.6754L81.9494 97.3418L81.5958 97.1902L81.1714 97.1296L78.979 96.9173L71.5318 104.465L71.2018 104.253L70.9424 103.767L70.7303 103.495L70.3531 103.131L69.9523 102.979L67.9836 100.691L67.7243 100.812L67.5828 100.994L67.4885 101.267L67.3942 101.873L67.3471 102.146L62.6246 106.113L62.436 106.326L62.0353 106.477L61.5166 106.568H60.5501L60.0786 106.417L59.8193 106.204L59.7721 105.962L59.8429 105.719L60.055 105.173L60.1215 104.917L60.1022 104.718L60.0314 104.506L59.725 104.203L57.0375 102.505L56.8489 102.323L56.7311 102.111L56.7075 101.898L56.7131 101.888L56.7075 101.838L56.8253 101.625L57.0611 101.474L57.3676 101.353L57.6976 101.262L60.4652 100.975L60.4512 100.813L60.3805 100.571L60.0741 100.146L58.2353 98.5392L57.8817 98.327L57.5752 98.2057L56.868 98.054H56.4908L55.2649 98.2663H54.5105L54.0626 98.145L53.6854 97.9934L51.8702 96.5985L51.7288 96.3863L51.7523 96.1437L51.7965 96.0527L51.7995 96.0224L51.8677 95.8819L51.8231 95.5372L51.5402 95.052L50.4086 94.1423L49.6542 93.6875L49.0649 93.4449L48.7348 93.3842H48.4755L48.1926 93.4449L47.9333 93.5965L47.674 93.7481L47.2496 94.1423L46.9903 94.2939L46.6839 94.4152L46.3538 94.4759L44.6801 94.5062L43.9021 94.5972L43.1713 94.8094L41.9943 94.8985L41.9219 95.2946L41.8998 95.2789L41.2382 94.8094L39.9888 94.5062L39.258 94.203L38.6922 93.6268L38.3386 92.9597L37.8435 92.3836L36.9241 92.0804L36.3348 91.7468L36.099 90.4126L35.2975 90.079L34.3309 90.0487L33.4351 90.1397L33.2202 88.4531L29.2515 79.4531L26.1108 72.3125L25.1265 69.3438L19.3765 58.8125L14.1421 49.2812L3.92334 30.7031L0.79834 24.0938L12.8452 21.0156L21.9077 23.6406L19.5952 25.2656L27.9233 27.25L33.564 24.2031L36.4858 21.1875L46.689 17.5781L51.9546 8L54.9546 5.59375L61.439 5.625L71.9858 4.03125L92.3452 3.48438L104.47 0.5L121.548 1.76562L131.033 2.84375L139.205 2.45312L142.087 2.79191L142.144 2.79856Z" fill="url(#paint5_linear)"/>
<defs>
<linearGradient id="paint0_linear" x1="-24.5106" y1="18.342" x2="34.4115" y2="20.736" gradientUnits="userSpaceOnUse">
<stop stop-color="#3A90B6"/>
<stop offset="1" stop-color="#075F92"/>
</linearGradient>
<linearGradient id="paint1_linear" x1="75" y1="-66.5" x2="95.6087" y2="123.328" gradientUnits="userSpaceOnUse">
<stop stop-color="#3A90B6"/>
<stop offset="1" stop-color="#075F92"/>
</linearGradient>
<linearGradient id="paint2_linear" x1="75" y1="-66.5" x2="95.6087" y2="123.328" gradientUnits="userSpaceOnUse">
<stop stop-color="#3A90B6"/>
<stop offset="1" stop-color="#075F92"/>
</linearGradient>
<linearGradient id="paint3_linear" x1="75" y1="-66.5" x2="95.6087" y2="123.328" gradientUnits="userSpaceOnUse">
<stop stop-color="#3A90B6"/>
<stop offset="1" stop-color="#075F92"/>
</linearGradient>
<linearGradient id="paint4_linear" x1="75" y1="-66.5" x2="95.6087" y2="123.328" gradientUnits="userSpaceOnUse">
<stop stop-color="#3A90B6"/>
<stop offset="1" stop-color="#075F92"/>
</linearGradient>
<linearGradient id="paint5_linear" x1="117.25" y1="128.75" x2="74.9766" y2="-74.0893" gradientUnits="userSpaceOnUse">
<stop stop-color="#59BDE4"/>
<stop offset="0.260417" stop-color="#43A9D5"/>
<stop offset="0.697917" stop-color="#0B77B0"/>
<stop offset="1" stop-color="#015E94"/>
</linearGradient>
</defs>
</svg>
