<svg width="212" height="156" viewBox="0 0 212 156" fill="none" xmlns="http://www.w3.org/2000/svg">
<path opacity="0.1" d="M189.472 41.2985L189.084 43.2354L189.424 43.9367L190.344 44.2702L191.729 44.4212L192.56 44.3915L193.291 44.2702L195.2 43.6638L195.954 43.5728H195.978H196.379H196.402L196.827 43.6334L197.557 43.8457L197.888 43.967L198.17 44.1186L198.43 44.4219L198.642 44.907L198.807 45.8774L198.783 46.4232L198.666 46.8174L198.477 47.0297L198.288 47.2419L197.793 47.6058L195.648 48.7884L195.436 48.9704V49.3039L195.624 49.7284L196.827 50.8201L197.086 51.1536V51.5175L196.332 53.2156L196.119 54.3982L196.096 54.9744V55.2473L196.426 57.0363L196.992 57.6125L203.05 61.6758L207.812 63.9197L207.765 64.4049L207.859 64.7385L207.883 64.8598L208.025 65.1024L208.402 65.4662L208.637 65.6482L210.052 66.4063L210.264 66.5579L210.429 66.7701L210.641 67.225L210.783 67.4372L211.537 68.1953L211.678 68.4076L211.773 68.6502L211.82 68.8928V69.079V69.1657L211.655 69.4082L211.325 69.5902L210.641 69.6812H209.651L209.227 69.8025L208.873 70.045L208.472 70.5909L208.381 70.8718L208.402 71.1064L208.637 71.5612L208.732 71.8038L208.826 72.0767L208.85 72.3193L208.802 72.5922L208.798 72.6005L208.779 72.7135L208.661 72.8954L208.472 73.1077L208.26 73.32L207.836 73.5625L207.223 73.8051L205.95 74.1387L205.219 74.2296L204.158 74.26L203.758 74.3206L202.32 74.8058L201.895 74.8968L200.339 75.109L197.746 75.8671L197.369 75.9277L192.112 76.322L191.428 76.4736L190.65 76.5645L187.326 76.6859L186.902 76.7768L186.548 76.9891L186.242 77.4742L185.637 78.6709L185.558 78.8994L185.535 79.1723L185.605 79.4453L185.983 80.1124L187.02 81.3253L187.185 81.5679L187.256 81.7802L187.303 82.0227L187.279 82.2957L187.185 82.5686L187.178 82.5796L187.161 82.6292L187.02 82.8718L186.666 83.1447L186.171 83.4176L184.568 83.9331L184.144 84.0241L183.507 84.0544L182.659 83.9634L182.281 83.8725L182.069 83.6905L181.904 83.4783L181.716 83.3266L181.386 83.266L181.008 83.4176L180.584 83.6905L178.792 85.5402L178.439 86.0254L178.297 86.268L177.779 86.9654L175.516 89.27L175.068 89.4823L158.314 97.2727L157.63 97.3333H157.041L156.64 97.2423L155.744 97.1514L155.32 97.303L154.974 97.6593L154.306 99.8502L154.29 99.8867L154.283 99.9108L153.906 100.76L152.871 101.973L152.845 102.003H151.831L151.501 101.942L151.1 101.821L150.511 101.548L150.204 101.427L149.874 101.366L149.214 101.427L148.861 101.366L148.601 101.275L148.295 101.124L148.083 100.881L146.645 99.9108L146.055 99.6379L145.348 99.3953L144.57 99.2437L143.698 99.1527L138.252 99.7592L137.451 99.7289L134.999 99.2134L134.575 99.183L134.197 99.2134L133.773 99.4559L133.302 99.8198L132.571 100.608L132.241 101.033L132.128 101.382L132.194 101.609L132.618 102.246L132.83 102.731L132.877 102.973L132.901 103.246L132.899 103.255L132.901 103.277L132.83 103.58L132.712 103.853L132.241 104.368L129.789 106.491L129.294 107.097L129.138 107.499L129.365 107.674L131.439 108.644L131.651 108.826L131.793 109.038L131.791 109.065L131.793 109.068L131.769 109.341L131.675 109.584L131.298 109.887L128.775 111.252L128.021 111.858L127.502 112.161L126.63 112.434L125.64 112.495L124.084 112.434L123.259 112.465L121.797 112.738L121.491 112.889L121.208 113.132L121.019 113.587L120.998 113.895L121.09 114.163L121.255 114.375L121.491 114.587L121.774 114.709L122.151 114.769L122.505 114.739L122.858 114.648L123.165 114.527L124.744 113.769L125.121 113.617H125.546L125.923 113.708L126.512 113.981L126.748 114.163L126.913 114.375L126.927 114.424L126.937 114.436L127.007 114.678L126.913 114.921L126.701 115.224L126.3 115.618L126.041 115.891L125.876 116.194L125.829 116.467L125.806 118.093L126.206 118.408L127.809 118.833L129.129 118.984L130.025 118.711L130.496 119.257L131.651 120.44L131.769 120.682V120.694L131.793 120.743V121.016L131.722 121.289L131.534 121.531L131.298 121.744L130.803 122.016L130.048 122.259L128.634 122.532H127.974L127.479 122.471L127.196 122.35L126.772 122.259L126.3 122.198L125.877 122.17L125.098 122.229L122.198 122.744L119.039 123.715L118.285 123.866L116.705 124.018L116.683 124.015L116.658 124.018L114.903 123.837L114.136 123.866L110.67 124.655H110.623H109.845H109.798L109.374 124.564L106.356 123.745L105.522 123.596L105.154 123.624L104.4 123.715L100.934 125.018L100.062 125.231L99.4725 125.291L97.0208 124.412L96.2193 124.321H95.8185L95.3234 124.473L93.6497 125.231L92.9896 125.443L92.471 125.564L88.8641 125.443L81.839 124.351L80.6838 124.412L79.9294 124.533L78.6329 124.928L77.2891 125.504L76.8412 125.807L76.5347 126.019L76.3226 126.292L73.8944 129.81L73.2108 130.628L72.7157 131.144L71.3248 131.781L70.9948 131.993L67.4988 137.381L66.273 137.836L65.8251 138.412L63.3969 143.385L63.0197 143.809L62.9018 144.082V144.372L63.0904 144.749L63.7269 145.416L64.0098 145.841L64.1277 146.083L64.1984 146.326L64.2005 146.343L64.222 146.417L64.3163 147.205L64.2691 147.782L60.0258 155.271L58.3756 154.695L57.6683 154.574L53.8493 154.635L52.4349 154.453L50.4546 154.059L49.6531 153.816L49.1344 153.573L48.9223 153.391L48.8044 153.149L48.7337 152.937L48.7101 152.664L48.7573 152.482L48.8044 152.3L48.7573 151.966L48.5451 151.602L47.9793 151.117L47.555 150.996H47.1778L46.9185 151.178L45.6455 152.057L45.2683 152.209L44.6789 152.33H44.2782L44.2546 152.3L44.1603 152.178L44.0896 152.088L44.0188 151.936L43.9717 151.724V151.451L44.0896 150.662L44.0424 150.45L43.901 150.056L43.6652 149.995L43.3823 150.026L42.6044 150.42L41.9207 150.48L40.9306 150.45L29.6773 142.026L28.9701 141.844L28.4279 141.51L27.9564 141.176L27.5557 140.813L26.4477 139.114L25.269 136.294L24.7739 135.688L24.1374 135.172L23.6659 134.93L23.1709 134.809L21.1435 134.869L18.1731 135.294L17.4894 135.445L16.9708 135.506H16.3579L15.2263 135.385L14.7077 135.233L17.2656 132.98L6.48438 125.261L7.59375 118.449L7.32812 114.839L4.04688 106.167L0 103.339L3.89062 99.5736L18.1094 102.417L23.8281 97.1361L29.8281 92.6205L30.8594 90.0892L37.375 85.3549L40.6875 82.1517L57.4531 69.433L63.1719 65.558L65.7656 63.7142L72.1875 60.9017L81.6562 52.8861L89.0781 50.683L98.5 49.9955L102.5 50.1986L107.609 42.7455L109.547 36.558L107.937 30.2123L108.833 30.1213L109.8 30.1516L110.601 30.4852L110.837 31.8194L111.426 32.153L112.346 32.4562L112.841 33.0323L113.194 33.6994L113.76 34.2756L114.491 34.5788L115.693 34.882L116.377 35.3672L116.402 35.2302L116.471 34.8517L116.497 34.8498L116.518 34.7304L117.721 34.6395L118.451 34.4272L119.229 34.3362L120.903 34.3059L121.233 34.2453L121.54 34.124L121.799 33.9724L122.223 33.5781L122.483 33.4265L122.742 33.2749L123.025 33.2143H123.284L123.614 33.2749L124.204 33.5175L124.958 33.9724L126.089 34.882L126.372 35.3672L126.42 35.7311L126.37 35.8332L126.372 35.8524L126.299 36.004L126.278 36.2163L126.42 36.4285L128.235 37.8234L128.612 37.975L129.06 38.0963H129.814L131.04 37.884H131.417L132.125 38.0357L132.431 38.157L132.785 38.3692L134.623 39.9763L134.93 40.4009L135.001 40.6435L135.024 40.9164L135.023 40.9204L135.712 40.849L135.619 40.9194L135.712 40.9097L134.816 41.5841L134.718 41.7351L134.482 41.9474L134.27 42.099L133.728 42.4022L134.042 42.1656L133.728 42.3416L134.826 41.5159L134.872 41.4475L134.93 41.2803L134.977 41.0377L134.973 40.9863L132.2 41.2736L131.87 41.3645L131.563 41.4858L131.328 41.6374L131.215 41.8396L131.233 42.0013L131.351 42.2136L131.54 42.3955L134.227 44.0936L134.534 44.3969L134.604 44.6091L134.628 44.8517L134.624 44.8683L134.628 44.9124L134.557 45.1853L134.345 45.7311L134.274 45.913L134.345 46.1556L134.604 46.3679L135.052 46.5195H136.019L136.537 46.4285L136.938 46.2769L137.127 46.0646L141.849 42.0975L141.896 41.8246L141.967 41.2484L142.061 40.9755L142.085 40.9452L142.226 40.7633L142.25 40.7329L142.509 40.6116L144.478 42.9L144.879 43.0516L145.256 43.4155L145.468 43.6884L145.728 44.1736L153.01 36.6867L153.505 36.8383L155.697 37.0506L156.122 37.1112L156.475 37.2628L156.664 37.5964L156.711 37.8996L156.664 38.1725V38.4151L157.135 38.779L159.846 40.0526L160.506 40.5681L160.813 40.9926L160.624 41.5384L160.671 41.8113L160.766 42.0236L160.978 42.1752L161.261 42.3268L161.992 42.5088L165.292 42.903H166.329L167.036 42.8423L167.649 42.5997L168.309 42.4178L169.04 42.2965L170.667 42.1752L174.957 42.8726L175.853 42.812L176.325 42.6604V41.8416L176.419 41.5991L176.608 41.4171L177.268 41.5687L178.163 41.9023L180.002 42.8726L181.393 43.4185L183.515 43.2365L183.798 43.2668L184.175 43.3275L184.505 43.4488L184.811 43.661L185.118 43.9036L185.306 44.1765L185.448 44.4191L189.472 41.2075L189.45 41.3158L189.472 41.2985Z" fill="#333333"/>
<path d="M8 81.3026V93.925L12.0967 96.8059V84.1864L8 81.3026ZM12.0967 84.1864V96.8059L15.3607 105.48V92.86L12.0967 84.1864ZM15.3607 92.86V105.48L15.6271 109.005V96.3855L15.3607 92.86ZM14.4998 103.21V115.829L25.36 123.603V110.984L14.4998 103.21Z" fill="url(#paint0_linear)"/>
<path d="M207.901 43.127L207.87 55.1583L206.808 56.8145L205.776 57.1583L205.589 59.127L203.526 60.9083L200.933 61.1583L198.808 61.9708L194.183 62.7833L188.558 63.7833L185.995 64.0333L184.62 63.2208L184.12 63.4708L183.683 66.5333L182.058 67.4708L179.62 67.9708C178.87 67.8041 177.345 67.3083 177.245 66.6583L170.995 75.4083L157.433 79.0958L155.745 79.2208L152.995 83.8458C152.495 83.9916 151.495 84.1708 151.495 83.7208C151.095 83.7208 149.953 83.5124 149.433 83.4083C147.641 82.8458 144.058 81.6458 144.058 81.3458C142.099 81.6791 138.17 82.2583 138.12 81.9083C137.82 81.8583 135.412 81.1374 134.245 80.7833L132.058 91.0333L131.87 102.533L128.62 104.533L127.558 104.408L126.245 103.908L120.995 104.471L117.308 106.158L114.245 105.658L110.433 106.471L105.308 105.658L100.183 107.033L96.0578 105.596L92.9953 107.221L88.9953 107.283L81.6203 106.158L77.0578 107.783L72.8078 112.908H72.0577L67.9327 119.158L65.9952 120.158L64.3702 129.346L60.1825 137.533L58.1825 136.596C56.5991 136.95 53.445 137.558 53.495 137.158C53.1449 136.858 50.0574 135.95 48.5574 135.533L47.5574 132.908L44.4324 134.283C44.1824 134.133 43.2865 133.054 42.8699 132.533L36.5574 132.033L33.3074 128.158L31.3074 124.596L22.5574 124.783L22.7449 113.408L25.1824 112.346C26.0574 111.992 27.9324 111.258 28.4324 111.158C28.9324 111.058 30.6824 111.283 31.4949 111.408L33.7449 112.846L33.9324 114.096L36.0574 114.283L36.6824 118.221L42.9949 117.846L45.7449 115.283L46.6824 116.158L44.7449 121.408L48.8699 118.783L49.3074 121.596L48.8699 122.783C50.474 122.95 53.7824 123.333 54.1824 123.533L59.0575 122.408L61.6827 120.158C61.1827 119.096 58.3702 115.783 58.6827 114.721C58.9327 113.871 59.7034 111.575 60.0575 110.533L65.6827 105.971L71.9328 98.2208C72.1328 97.5208 74.8077 95.1374 76.1202 94.0333L76.3703 94.2833L81.7453 91.9708L88.9328 94.1583L93.3078 91.9083L96.6203 93.5958L100.12 94.0958L105.37 92.2208L110.495 93.7208L114.12 93.4708L117.308 93.3458L120.695 92.4697L120.683 91.9708L126.12 91.4708L127.557 91.2208C125.349 90.5749 120.782 89.0458 120.182 88.0958C119.432 86.9083 116.12 83.5958 117.37 82.3458C118.62 81.0958 119.308 80.8458 120.62 79.7208C121.67 78.8208 124.183 77.0958 125.308 76.3458L125.62 76.2833C125.683 75.7833 127.87 72.9083 128.182 72.4708C128.432 72.1208 132.62 69.3666 134.683 68.0333L137.745 68.7208L144.12 68.2208L149.308 70.3458L151.308 70.1583L152.745 70.0333L155.62 66.1583L157.62 65.8458L170.058 59.2833C170.995 58.4291 172.958 56.6958 173.308 56.5958C173.658 56.4958 175.412 55.4708 176.245 54.9708L179.183 56.5333L181.808 49.4083L183.433 49.2208L184.933 47.7833L201.808 46.252C201.828 45.3562 201.939 43.5458 202.214 43.4708C202.489 43.3958 206.12 43.2103 207.901 43.127Z" fill="url(#paint1_linear)"/>
<path d="M194.807 20.4708L194.557 18.9708C193.432 19.9708 191.095 21.9333 190.745 21.7833C190.307 21.5958 188.37 23.0958 187.807 25.4708C187.245 27.8458 188.37 29.5333 189.245 32.7208C189.945 35.2708 192.828 34.8249 194.182 34.2833L194.807 20.4708Z" fill="url(#paint2_linear)"/>
<path d="M186.057 19.0958L185.432 14.6583C184.932 14.9083 183.807 15.6083 183.307 16.4083C182.682 17.4083 183.245 18.0958 183.307 19.6583C183.357 20.9083 185.162 19.8041 186.057 19.0958Z" fill="url(#paint3_linear)"/>
<path d="M134.745 17.6583L135.057 11.0333L127.932 10.5333C127.953 11.2624 128.07 13.0833 128.37 14.5333C128.67 15.9833 132.745 17.2208 134.745 17.6583Z" fill="url(#paint4_linear)"/>
<path d="M107.12 13.9083L107.87 0.408264C108.724 1.53326 110.47 3.87076 110.62 4.22076C110.807 4.65826 111.807 7.90826 111.807 8.47076C111.807 8.92076 108.682 12.2833 107.12 13.9083Z" fill="url(#paint5_linear)"/>
<path d="M185.511 15.2985L185.123 17.2354L185.464 17.9367L186.383 18.2702L187.768 18.4212L188.599 18.3915L189.33 18.2702L191.239 17.6638L191.994 17.5728H192.017H192.418H192.442L192.866 17.6334L193.597 17.8457L193.927 17.967L194.21 18.1186L194.469 18.4219L194.681 18.907L194.846 19.8774L194.823 20.4232L194.705 20.8174L194.516 21.0297L194.328 21.2419L193.833 21.6058L191.687 22.7884L191.475 22.9704V23.3039L191.664 23.7284L192.866 24.8201L193.125 25.1536V25.5175L192.371 27.2156L192.159 28.3982L192.135 28.9744V29.2473L192.465 31.0363L193.031 31.6125L199.09 35.6758L203.852 37.9197L203.804 38.4049L203.899 38.7385L203.922 38.8598L204.064 39.1024L204.441 39.4662L204.677 39.6482L206.091 40.4063L206.303 40.5579L206.468 40.7701L206.681 41.225L206.822 41.4372L207.576 42.1953L207.718 42.4076L207.812 42.6502L207.859 42.8928V43.079V43.1657L207.694 43.4082L207.364 43.5902L206.681 43.6812H205.69L205.266 43.8025L204.912 44.045L204.512 44.5909L204.421 44.8718L204.441 45.1064L204.677 45.5612L204.771 45.8038L204.865 46.0767L204.889 46.3193L204.842 46.5922L204.838 46.6005L204.818 46.7135L204.7 46.8954L204.512 47.1077L204.3 47.32L203.875 47.5625L203.262 47.8051L201.989 48.1387L201.258 48.2296L200.198 48.26L199.797 48.3206L198.359 48.8058L197.934 48.8968L196.379 49.109L193.785 49.8671L193.408 49.9277L188.151 50.322L187.467 50.4736L186.69 50.5645L183.366 50.6859L182.941 50.7768L182.588 50.9891L182.281 51.4742L181.676 52.6709L181.597 52.8994L181.574 53.1723L181.645 53.4453L182.022 54.1124L183.059 55.3253L183.224 55.5679L183.295 55.7802L183.342 56.0227L183.318 56.2957L183.224 56.5686L183.218 56.5796L183.201 56.6292L183.059 56.8718L182.705 57.1447L182.21 57.4176L180.607 57.9331L180.183 58.0241L179.547 58.0544L178.698 57.9634L178.321 57.8725L178.109 57.6905L177.943 57.4783L177.755 57.3266L177.425 57.266L177.048 57.4176L176.623 57.6905L174.832 59.5402L174.478 60.0254L174.337 60.268L173.818 60.9654L171.555 63.27L171.107 63.4823L158.353 67.2727L157.67 67.3333H157.08L156.679 67.2423L155.784 67.1514L155.359 67.303L155.013 67.6593L154.346 69.8502L154.329 69.8867L154.322 69.9108L153.945 70.7599L152.91 71.9728L152.884 72.0031H151.87L151.54 71.9425L151.14 71.8212L150.55 71.5482L150.244 71.427L149.914 71.3663L149.254 71.427L148.9 71.3663L148.641 71.2754L148.334 71.1237L148.122 70.8811L146.684 69.9108L146.095 69.6379L145.387 69.3953L144.609 69.2437L143.737 69.1527L138.292 69.7592L137.49 69.7289L135.038 69.2134L134.614 69.183L134.237 69.2134L133.812 69.4559L133.341 69.8198L132.61 70.6082L132.28 71.0328L132.167 71.3823L132.233 71.6089L132.657 72.2457L132.869 72.7309L132.917 72.9734L132.94 73.2464L132.938 73.2546L132.94 73.2767L132.869 73.5799L132.752 73.8528L132.28 74.3683L129.828 76.491L129.333 77.0974L129.177 77.4986L129.404 77.6736L131.479 78.6439L131.691 78.8258L131.832 79.0381L131.83 79.065L131.832 79.0684L131.809 79.3413L131.714 79.5839L131.337 79.8872L128.815 81.2517L128.06 81.8582L127.542 82.1614L126.669 82.4343L125.679 82.495L124.123 82.4343L123.298 82.4646L121.837 82.7375L121.53 82.8892L121.247 83.1318L121.059 83.5866L121.037 83.895L121.129 84.1628L121.294 84.375L121.53 84.5873L121.813 84.7086L122.19 84.7692L122.544 84.7389L122.898 84.6479L123.204 84.5266L124.783 83.7685L125.161 83.6169H125.585L125.962 83.7079L126.552 83.9808L126.787 84.1628L126.952 84.375L126.966 84.4235L126.976 84.4356L127.047 84.6782L126.952 84.9208L126.74 85.2241L126.339 85.6183L126.08 85.8912L125.915 86.1944L125.868 86.4673L125.845 88.0935L126.245 88.408L127.848 88.8325L129.168 88.9841L130.064 88.7112L130.536 89.2571L131.691 90.4397L131.809 90.6823V90.6944L131.832 90.7429V91.0158L131.761 91.2887L131.573 91.5313L131.337 91.7436L130.842 92.0165L130.088 92.2591L128.673 92.532H128.013L127.518 92.4713L127.235 92.35L126.811 92.2591L126.339 92.1984L125.916 92.1698L125.137 92.2287L122.237 92.7442L119.078 93.7146L118.324 93.8662L116.745 94.0178L116.722 94.0155L116.697 94.0178L114.942 93.8372L114.175 93.8662L110.71 94.6546H110.662H109.885H109.837L109.413 94.5636L106.396 93.7449L105.561 93.5958L105.193 93.6236L104.439 93.7146L100.973 95.0185L100.101 95.2308L99.5118 95.2914L97.0601 94.412L96.2586 94.321H95.8578L95.3627 94.4727L93.689 95.2308L93.0289 95.443L92.5103 95.5643L88.9034 95.443L81.8783 94.3514L80.7231 94.412L79.9688 94.5333L78.6722 94.9275L77.3284 95.5037L76.8805 95.8069L76.5741 96.0191L76.3619 96.2921L73.9337 99.8096L73.2501 100.628L72.755 101.144L71.3641 101.781L71.0341 101.993L67.5381 107.381L66.3123 107.836L65.8644 108.412L63.4362 113.385L63.059 113.809L62.9411 114.082V114.372L63.1297 114.749L63.7662 115.416L64.0491 115.841L64.167 116.083L64.2377 116.326L64.2398 116.343L64.2613 116.417L64.3556 117.205L64.3085 117.782L60.0651 125.271L58.4149 124.695L57.7076 124.574L53.8886 124.635L52.4742 124.453L50.4939 124.059L49.6924 123.816L49.1738 123.573L48.9616 123.391L48.8437 123.149L48.773 122.937L48.7494 122.664L48.7966 122.482L48.8437 122.3L48.7966 121.966L48.5844 121.602L48.0186 121.117L47.5943 120.996H47.2171L46.9578 121.178L45.6848 122.057L45.3076 122.209L44.7182 122.33H44.3175L44.2939 122.3L44.1996 122.178L44.1289 122.088L44.0581 121.936L44.011 121.724V121.451L44.1289 120.662L44.0817 120.45L43.9403 120.056L43.7045 119.995L43.4216 120.026L42.6437 120.42L41.96 120.48L40.9699 120.45L37.7167 120.026L37.0094 119.844L36.4672 119.51L35.9957 119.176L35.595 118.813L34.487 117.114L33.3083 114.294L32.8132 113.688L32.1767 113.172L31.7052 112.93L31.2102 112.809L29.1828 112.869L26.2124 113.294L25.5288 113.445L25.0101 113.506H24.3972L23.2656 113.385L22.747 113.233L25.3049 110.98L14.5237 103.261L15.6331 96.4486L15.3674 92.8392L12.0862 84.1674L8.03931 81.3392L11.9299 77.5736L18.1487 72.4174L23.8674 67.1361L29.8674 62.6205L30.8987 60.0892L37.4143 55.3549L40.7268 52.1517L57.4924 39.433L63.2112 35.558L65.8049 33.7142L72.2268 30.9017L81.6956 22.8861L89.1174 20.683L98.5393 19.9955L102.539 20.1986L107.649 12.7455L109.586 6.55798L107.977 0.212265L108.872 0.121292L109.839 0.151627L110.64 0.485184L110.876 1.8194L111.466 2.15295L112.385 2.45618L112.88 3.03233L113.234 3.69945L113.799 4.27559L114.53 4.57881L115.733 4.88205L116.416 5.36722L116.441 5.23025L116.511 4.85173L116.536 4.84982L116.558 4.73044L117.76 4.63947L118.491 4.4272L119.269 4.33623L120.942 4.30591L121.273 4.24525L121.579 4.12396L121.838 3.97235L122.263 3.57814L122.522 3.42653L122.781 3.27492L123.064 3.21426H123.323L123.654 3.27492L124.243 3.5175L124.997 3.97235L126.129 4.88205L126.412 5.36722L126.459 5.73111L126.409 5.83324L126.412 5.85239L126.338 6.00403L126.317 6.21628L126.459 6.42854L128.274 7.82339L128.651 7.97502L129.099 8.09631H129.854L131.079 7.88405H131.457L132.164 8.03566L132.47 8.15697L132.824 8.36923L134.663 9.97635L134.969 10.4009L135.04 10.6435L135.063 10.9164L135.063 10.9204L135.752 10.849L135.658 10.9194L135.752 10.9097L134.855 11.5841L134.757 11.7351L134.521 11.9474L134.309 12.099L133.767 12.4022L134.082 12.1656L133.767 12.3416L134.865 11.5159L134.911 11.4475L134.969 11.2803L135.016 11.0377L135.012 10.9863L132.239 11.2736L131.909 11.3645L131.603 11.4858L131.367 11.6374L131.255 11.8396L131.273 12.0013L131.39 12.2136L131.579 12.3955L134.266 14.0936L134.573 14.3969L134.644 14.6091L134.667 14.8517L134.663 14.8683L134.667 14.9124L134.597 15.1853L134.384 15.7311L134.314 15.913L134.384 16.1556L134.644 16.3679L135.092 16.5195H136.058L136.577 16.4285L136.978 16.2769L137.166 16.0646L141.889 12.0975L141.936 11.8246L142.006 11.2484L142.101 10.9755L142.124 10.9452L142.266 10.7633L142.289 10.7329L142.549 10.6116L144.517 12.9L144.918 13.0516L145.295 13.4155L145.508 13.6884L145.767 14.1736L153.049 6.68669L153.544 6.83832L155.736 7.05058L156.161 7.11121L156.514 7.26283L156.703 7.59639L156.75 7.89961L156.703 8.17253V8.41512L157.175 8.77899L159.886 10.0526L160.546 10.5681L160.852 10.9926L160.664 11.5384L160.711 11.8113L160.805 12.0236L161.017 12.1752L161.3 12.3268L162.031 12.5088L165.331 12.903H166.368L167.076 12.8423L167.689 12.5997L168.349 12.4178L169.08 12.2965L170.706 12.1752L174.997 12.8726L175.893 12.812L176.364 12.6604V11.8416L176.458 11.5991L176.647 11.4171L177.307 11.5687L178.203 11.9023L180.042 12.8726L181.432 13.4185L183.554 13.2365L183.837 13.2668L184.214 13.3275L184.544 13.4488L184.851 13.661L185.157 13.9036L185.346 14.1765L185.487 14.4191L185.511 15.2075L185.508 15.2193L185.511 15.2985Z" fill="url(#paint6_linear)"/>
<defs>
<linearGradient id="paint0_linear" x1="-5.49824" y1="78.4753" x2="26.0161" y2="79.731" gradientUnits="userSpaceOnUse">
<stop stop-color="#3A90B6"/>
<stop offset="1" stop-color="#075F92"/>
</linearGradient>
<linearGradient id="paint1_linear" x1="115.229" y1="-102.092" x2="85.1439" y2="137.519" gradientUnits="userSpaceOnUse">
<stop stop-color="#3A90B6"/>
<stop offset="1" stop-color="#075F92"/>
</linearGradient>
<linearGradient id="paint2_linear" x1="115.229" y1="-102.092" x2="85.1439" y2="137.519" gradientUnits="userSpaceOnUse">
<stop stop-color="#3A90B6"/>
<stop offset="1" stop-color="#075F92"/>
</linearGradient>
<linearGradient id="paint3_linear" x1="115.229" y1="-102.092" x2="85.1439" y2="137.519" gradientUnits="userSpaceOnUse">
<stop stop-color="#3A90B6"/>
<stop offset="1" stop-color="#075F92"/>
</linearGradient>
<linearGradient id="paint4_linear" x1="115.229" y1="-102.092" x2="85.1439" y2="137.519" gradientUnits="userSpaceOnUse">
<stop stop-color="#3A90B6"/>
<stop offset="1" stop-color="#075F92"/>
</linearGradient>
<linearGradient id="paint5_linear" x1="115.229" y1="-102.092" x2="85.1439" y2="137.519" gradientUnits="userSpaceOnUse">
<stop stop-color="#3A90B6"/>
<stop offset="1" stop-color="#075F92"/>
</linearGradient>
<linearGradient id="paint6_linear" x1="115.37" y1="167.408" x2="134.455" y2="-82.2" gradientUnits="userSpaceOnUse">
<stop stop-color="#59BDE4"/>
<stop offset="0.260417" stop-color="#43A9D5"/>
<stop offset="0.697917" stop-color="#0B77B0"/>
<stop offset="1" stop-color="#015E94"/>
</linearGradient>
</defs>
</svg>
