<svg width="216" height="117" viewBox="0 0 216 117" fill="none" xmlns="http://www.w3.org/2000/svg">
<path d="M94.3695 100.756V113.376L98.284 113.415V100.795L94.3695 100.756ZM121.342 100.756V113.376L125.113 115.416V102.796L121.342 100.756ZM125.113 102.796V115.416L128.554 115.567V102.948L125.113 102.796ZM71.8192 102.967V115.587L80.9857 114.519V101.9L71.8192 102.967ZM67.9299 103.06V115.679L71.8192 115.587V102.967L67.9299 103.06ZM64.0435 101.972V114.592L67.9299 115.679V103.06L64.0435 101.972ZM109.875 99.8125L109.781 115.375L121.342 113.376V100.756L109.875 99.8125ZM98.284 100.795V113.415L104.406 114.906L104.5 103.25L98.284 100.795ZM90.0372 103.769V116.388L94.3723 113.376V100.756L90.0372 103.769ZM80.9857 101.9V114.519L90.0372 116.388V103.769L80.9857 101.9Z" fill="url(#paint0_linear)"/>
<path d="M2.78125 29.125L1.40625 27.8438L1.03125 20.3438L1 11.5312C1.84375 11.7812 3.55 12.3125 3.625 12.4375C3.7 12.5625 3.71875 13.9271 3.71875 14.5938L3.48547 15.9304L4.375 16.0938L10.0312 19.2812L10.6875 21.1875L10.5625 26.6875C11.3021 26.9583 12.9875 27.55 13.8125 27.75C14.8438 28 16.0625 30.5 16.2188 31.0312C16.3438 31.4562 15.2917 32.4583 14.75 32.9062C15.6562 33.875 17.4813 35.9125 17.5312 36.3125C17.5938 36.8125 16.875 39.9688 16.9375 40.5625L20.2812 40.4375L24.1875 40.7812L24.183 40.9326L25.4688 41.3125L28.7812 40.1875H31.0312L34.0312 40.8125L37.9375 40.3438L42.4375 40.8438C43 41.3542 44.2 42.4875 44.5 42.9375C44.8 43.3875 44.3333 44.7292 44.0625 45.3438L45.2188 44.4062L50.5938 47.7812C50.6771 49 50.8438 51.4688 50.8438 51.5938C50.8438 51.7188 49.0104 55.1875 48.0938 56.9062L52.5938 59.4688L53.1875 62.25L53.9062 62.75L55.375 63.9375L64.7188 62.875C65.5 63.3229 67.1 64.2812 67.25 64.5312C67.4375 64.8438 67.1875 66.5312 66.0625 68.2812C66.0833 69.1979 66.1125 71.1125 66.0625 71.4375L69.4062 70.9375L76.0938 73.4062C76.2188 73.625 76.5 74.1625 76.625 74.5625C76.7812 75.0625 76.375 77.0625 76.0312 79.8438C75.6875 82.625 74.0625 83.5312 73.2188 84.7188C72.5437 85.6687 69.2292 86.9479 67.6562 87.4688L69.0312 83.125L65.3125 84.4062L60.5 82.2188L59.1875 77.0312L58.8438 77.125L55.0312 77.9062L53.3125 76.3125L50.1875 76.375L46.0625 68.5938L44.125 57.375L42.7812 57.4062L42.1875 53.9375L39.0938 54.875C38.8333 55.375 38.3 56.4062 38.25 56.5312L37.1562 57.2188L36.4062 57.2812L35.6562 56.875L34.25 54.5938H30.7188L28.5625 53.8125L25.5625 55.1875L25.0312 55.0625L23.7812 54.4375L20.0312 55L18.6562 54.5312L17.25 53.3438L15.75 52.6875L14.3438 49.1875L12.9375 45.875L11.5312 45.7188L9.8125 44.9375L9.53125 44.2188L9.96875 42.375L10.0938 41.1875L9.75 40.625L8 40.5938L6.46875 40.375L5.5 39.9688L4.28125 38.9688L2.78125 29.125Z" fill="url(#paint1_linear)"/>
<path d="M54.4375 99.4062C54.4792 95.5 54.5438 87.6 54.4688 87.25C57.9792 88.2188 65.475 90.2 67.375 90.375C69.275 90.55 68.9375 95.0312 68.5312 97.25L66.5312 100.312L64.0312 114.719L59.25 109.188L59.4375 107.031L57.6562 104.844L57.3438 103.438L56.25 102.844L55.9062 101.938L54.4375 99.4062Z" fill="url(#paint2_linear)"/>
<path d="M106.469 108.812C105.896 110.677 104.675 114.5 104.375 114.875C104.323 110.604 104.175 101.963 104 101.562C103.781 101.062 103.188 100.156 103.188 98.7812C103.188 97.4062 104.625 97.8125 105.375 97.375C105.975 97.025 106.708 96.8333 107 96.7812L108.406 95.4375L109.75 95.4062C109.823 93.5833 109.969 89.8562 109.969 89.5312C110.396 89.3021 111.369 88.7812 111.844 88.5312C112.319 88.2812 114.146 88.7396 115 89L115.938 90.75C116.292 91.5833 117.006 93.4 117.031 94C117.062 94.75 113.375 97.4375 112.906 98.0312C112.531 98.5062 110.75 100.958 109.906 102.125L107.969 106.188L106.469 108.812Z" fill="url(#paint3_linear)"/>
<path d="M128.5 115.594L128.344 101.344L128.375 101.625L129.062 99.1562L132.281 98.2812L133.312 98L138.938 98.5L139.125 98.5625L141.312 98.9062L141.312 99.0157L143.031 96.375L148.375 95.1562L149.531 96.2188L153.188 95.875L154.75 95.1562C154.573 94.8229 154.231 94.0875 154.281 93.8125C154.344 93.4688 155.469 93.4375 155.75 93.4375C155.975 93.4375 156.177 93.9583 156.25 94.2188L159.094 94.1875L162.156 94.7188L162.375 94.75L163.125 94.8125L163.281 94.7812L165.969 95.4688L166.125 95.5625L167.438 96.5L172.656 96.4688L176.344 96.9375L176.914 96.6204L176.094 96C174.823 95.3333 172.25 93.95 172.125 93.75C171.969 93.5 172.188 91.625 172.406 91.5312C172.581 91.4563 177.917 90.4167 180.562 89.9062C181.479 89.6562 183.363 89.15 183.562 89.125C183.612 89.1188 183.919 89.1007 184.385 89.0755C183.577 88.3994 182.84 87.6136 182.781 87C182.681 85.95 183.177 84.375 183.438 83.7188C183.662 83.7389 183.921 83.7618 184.2 83.786C181.763 82.2149 178.691 80.0954 178.531 79.4375C178.281 78.4062 178.562 75.3125 178.719 75.25C178.844 75.2 184.604 71.1458 187.469 69.125C188.615 68.7534 191.16 68.0195 192.252 68.0308L190.844 64.5L192.781 62.3125C193.25 61.9062 194.281 61.1125 194.656 61.1875C194.908 61.2379 195.367 61.3242 195.825 61.408L194.719 59.875L196 58.0312L197.406 55.5938L199.531 55.2812L202.25 55.9062L202.477 56.1101C202.613 55.299 202.753 54.6092 202.844 54.5312C203.019 54.3812 205.875 53.3229 207.281 52.8125L215.125 51.5L215.188 63.3125L214.812 64.7812L211.094 66.8438L208.594 67.7188C208.198 68.125 207.4 68.9688 207.375 69.0938C207.35 69.2188 206.01 69.9583 205.344 70.3125L204.781 70.6562L204.344 71.2188L203.719 72.3438C203.719 73.125 203.031 73.9375 203 74.25L200.719 73.6875L200.875 75.1875L200.281 76.5L199.156 81.6875L197.781 83.9062L197.312 84.25L195.688 83.4375L194.875 83.5938L194.312 86.375L193.625 95.3125L191.875 97.4375L191.625 98.5312L190.969 99.875L190.219 101.219L188 102.438L186.938 103.5L185.094 106.25L184.781 106.844L177.125 108.812L176.438 109.281L172.812 109.188L167.281 109.625L166.062 108.406L165.969 108.281L163.156 107.5L162.281 107.094L158.938 107.188L156.25 106.625L154.969 107.656L153.406 109.219L149.594 109.281C149.688 109.562 148.438 108.375 148.344 108.219L142.906 109.25L141.219 111.938L138.406 112.062L133.375 111.062L132.375 110.969L128.5 115.594Z" fill="url(#paint4_linear)"/>
<path d="M214.406 51.2188C214.556 51.4188 214.427 49.3021 214.344 48.2188L213.156 48.7188L212.75 50.0625C213.24 50.3646 214.256 51.0187 214.406 51.2188Z" fill="url(#paint5_linear)"/>
<path d="M212.125 47.0625C212.083 46.1979 212 44.4313 212 44.2812C211.719 44.3333 211.131 44.4562 211.031 44.5312C210.906 44.625 211.125 45.2812 211.25 45.6875C211.35 46.0125 211.875 46.7396 212.125 47.0625Z" fill="url(#paint6_linear)"/>
<path d="M211.562 43.375C211.49 40.5208 211.344 34.575 211.344 33.625L208.906 33.375C207.917 33.2917 205.7 33.1437 204.75 33.2188C203.562 33.3125 203.188 33.5 201.406 34.6562C199.625 35.8125 201.125 36.2188 199.781 38.2188C198.438 40.2188 198.062 42 197.938 43.5625C197.812 45.125 203.188 46.3125 204.344 46.5625C205.269 46.7625 208.25 46.0625 209.625 45.6875L211.562 43.375Z" fill="url(#paint7_linear)"/>
<path d="M210.438 32.625C210.458 29.3021 210.5 22.6125 210.5 22.4375C209.573 22.5 207.6 22.5938 207.125 22.4688C206.65 22.3438 206.385 22.8125 206.312 23.0625L207.031 31L210.438 32.625Z" fill="url(#paint8_linear)"/>
<path d="M207.844 21.7188L207.75 18.1875L207.625 18.2812C207.052 18.5729 205.694 19.2937 204.844 19.8438C203.994 20.3938 204.719 20.8854 205.188 21.0625L207.844 21.7188Z" fill="url(#paint9_linear)"/>
<path d="M195.469 16.5312L195.5 13.8438L196.656 14.4688C196.698 14.5729 196.831 14.95 197.031 15.625C197.231 16.3 196.073 16.5104 195.469 16.5312Z" fill="url(#paint10_linear)"/>
<path d="M181.281 23.3125V19.2812C182.042 19.2604 183.6 19.2312 183.75 19.2812C183.938 19.3438 184.562 19.7812 185.594 20.7812C186.625 21.7812 185.5 21.5625 185.656 23.1875C185.781 24.4875 182.792 23.8125 181.281 23.3125Z" fill="url(#paint11_linear)"/>
<path d="M179.75 28L179.812 23.1562L181.625 24.75C181.708 24.9583 181.906 25.4562 182.031 25.7812C182.188 26.1875 181.812 27.0312 181.688 27.4375C181.587 27.7625 180.354 27.9479 179.75 28Z" fill="url(#paint12_linear)"/>
<path d="M121.562 31.875C121.583 29.3125 121.631 24.1562 121.656 24.0312H121.469C120.958 24.375 119.906 25.0938 119.781 25.2188C119.625 25.375 118.719 26.125 117.719 27.4375C116.719 28.75 118.156 29.5625 118.281 30.1562C118.381 30.6313 120.51 31.5 121.562 31.875Z" fill="url(#paint13_linear)"/>
<path d="M114.844 21.125L114.75 11.7188C113.552 11.8958 110.969 12.3063 110.219 12.5312C109.281 12.8125 107.906 13.625 106.688 14.5C105.469 15.375 108.125 16.9375 108.375 17.2812C108.575 17.5562 112.771 19.9583 114.844 21.125Z" fill="url(#paint14_linear)"/>
<path d="M95.9688 13.5312C95.8958 12.0625 95.775 9.04375 95.875 8.71875L95.3438 8.5625C95.0625 8.70833 94.2125 9.3375 93.0625 10.6875C91.625 12.375 93.625 11.875 94.4375 13.0938C95.0875 14.0687 95.7292 13.7917 95.9688 13.5312Z" fill="url(#paint15_linear)"/>
<path d="M7.03125 10.8125L7.1875 6.8125L9.625 7.875C9.70833 8.34375 9.90625 9.45 10.0312 10.125C10.1562 10.8 8.08333 10.8646 7.03125 10.8125Z" fill="url(#paint16_linear)"/>
<path d="M195.818 15.6906L195.865 15.6299L195.936 15.4783V15.357L195.629 14.6596L195.511 14.1441L195.535 13.8712L195.582 13.5983L195.723 13.3557L195.771 13.3152L196.006 13.1131L196.431 12.9008L197.35 12.7189H198.152L199.99 12.9311L200.462 12.8705L201.971 12.1731H202.371L202.631 12.2944L202.796 12.5066L202.914 12.7492L203.031 13.2344L203.173 13.4467L203.338 13.6589L203.691 14.0531L205.082 15.0538L205.247 15.2054L205.342 15.3267L205.436 15.5086L205.46 15.7512L205.412 16.6306L205.483 16.8732L205.742 17.0854L206.945 17.601L207.746 18.0255L207.719 18.2714L207.77 18.2984L207.723 18.7229L207.322 19.39L206.809 20.6806L206.827 20.8456L207.039 21.1185L207.393 21.2094H207.817H208.218L208.595 21.1487L209.066 21.2094L209.561 21.3914L210.363 22.0281L210.622 22.4224L210.606 22.6344L210.646 22.6953L210.622 22.9985L210.41 23.1804L210.198 23.3624L209.986 23.6049L209.844 23.9991L209.797 25.6063L209.703 25.9095L209.561 26.1521L209.396 26.3947L209.279 26.7889L209.184 27.2741L209.297 30.9454L209.373 31.3374L209.585 31.6406L209.868 31.7922L210.174 31.9135L210.552 32.1864L210.976 32.5806L211.424 33.46L211.402 33.6434L211.448 33.7329L211.4 34.1271L211.141 34.3394L207.958 34.582L205.2 35.1278L204.776 35.2794L204.187 35.5523L203.906 35.7929L203.974 35.9465L204.446 36.553L205.672 37.9479L206.261 38.7969L206.426 39.1002L206.568 39.4943L206.78 40.1918L206.771 40.357L206.803 40.4647L206.78 40.8892L206.662 41.1925L206.237 41.5866L205.365 42.1931L205.177 42.3751L204.965 42.648L204.763 43.1654L204.776 43.2544L204.941 43.4667L205.2 43.588L205.766 43.7093L211.966 44.2248L211.914 44.4914L211.949 44.4943L211.943 44.528L211.919 45.3467L211.99 45.8925L212.037 46.1352L212.155 46.3777L212.32 46.5597L212.579 46.7113L213.687 47.2874L214.135 47.5907L214.3 47.8029L214.394 48.0152L214.371 48.2881L214.288 48.4586L214.276 48.5913L214.159 48.8339L213.855 49.3145L213.876 49.5011L213.923 49.6223V49.683L214.017 49.8346L214.418 50.4107L214.583 50.5927L214.819 50.8959L214.913 51.0475L214.984 51.2598L215.031 51.5023L215.007 51.7753L214.889 52.3817L214.851 52.3978L214.795 52.685L204.497 56.9689V57.0082L204.521 57.2508L204.615 57.4933L204.756 57.736L204.945 57.9482L205.228 58.3727L205.322 58.6153V58.8579L205.228 59.0761V59.1611L205.11 59.4341L204.803 59.6463L204.167 59.7979L202.753 59.8889L202.328 59.8586L201.951 59.7979L201.715 59.6463L201.574 59.4341L201.126 58.5547L200.348 57.4933L200.136 57.3114L199.924 57.2811L199.641 57.3721L199.533 57.629L199.429 58.0998L199.389 58.1555L199.334 58.403L199.099 58.7366L197.967 59.7676L197.731 60.1315L197.726 60.1421L197.755 60.2528L197.873 60.465L198.014 60.6773L198.179 60.8896L198.391 61.1018L198.674 61.2534L198.981 61.3747L199.358 61.496L199.782 61.5567H202.281L202.635 61.587L202.941 61.7083L203.177 61.8599L198.382 61.4504L198.58 61.5567L198.886 61.678L199.264 61.7993L199.688 61.8599H202.187L202.54 61.8902L202.847 62.0115L203.083 62.1631L197.652 61.6993L197.778 62.0722L197.849 62.4664L197.826 62.6483L197.802 62.8909L197.71 63.1722L197.708 63.1941L197.519 63.7703L196.413 63.7177L196.16 64.3682L196.083 64.8396V65.1125L196.13 65.3854L196.224 65.628L196.342 65.8706L196.767 66.4771L198.839 69.653L198.981 69.9259L198.957 70.1078L198.879 70.2144L198.886 70.2291L198.863 70.4111L198.462 70.9569L198.344 71.2601L198.25 71.5634L198.085 71.8059L197.755 71.9576L196.743 70.5707L196.319 70.51L195.376 70.1765L194.999 70.1158L194.598 70.2068L194.15 70.3887L192.052 72.0869L191.651 72.2991L191.132 72.4507L190.048 72.6024H188.327L188.115 72.5417L187.29 71.8746L187.007 71.814L186.653 71.9049L186.3 72.2991L185.663 73.4817L183.848 76.1198L182.575 77.3025L182.436 77.5108L182.457 77.727L182.528 77.9392L182.646 78.1515L182.764 78.5154L182.858 79.1219L183.023 79.3341L183.282 79.4554L183.659 79.4857L184.791 79.3644H185.192L185.569 79.4251L189.907 81.0625L193.396 83.0639L193.561 83.2762L193.584 83.4884L193.49 83.731L193.484 83.7385L193.49 83.7917L193.396 84.0342L193.231 84.2465L192.618 84.8833L191.321 85.9143L191.132 86.0962L191.038 86.2478V86.5814L190.944 86.7027V86.8846L190.85 87.0059L188.846 86.1872L188.351 85.9143L187.879 85.5807L187.478 85.1865L187.148 84.9742L187.054 84.9136L186.795 84.9742L186.37 85.1259L185.592 85.611L185.333 85.9749L185.313 86.0277L185.357 86.7936L185.475 87.3091L185.569 87.5517L185.71 87.764L185.923 87.9459L186.205 88.0672L186.583 88.0975L189.223 88.0672L189.553 88.1279L189.812 88.2188L190.024 88.3705L190.213 88.5524L190.284 88.795L190.135 88.9101L190.189 89.0982L189.836 89.3711L189.058 89.644L186.04 90.2202L185.121 90.6144L183.518 91.8273L182.764 92.0396L175.526 92.9189L175.196 93.0706L174.917 93.3342L174.913 93.3738L175.008 93.6164L175.243 93.768L175.526 93.8893L175.833 93.9803L176.398 94.1015L178.167 94.1622L182.174 93.859L182.669 93.9803L183.353 94.2228L183.73 94.2532L184.484 94.2228L184.791 94.2532L184.932 94.4048L184.655 94.5523L184.697 94.5564L184.838 94.708L184.154 95.0719L182.858 95.5267L177.106 96.9519L176.846 97.1036L176.54 97.2248L176.068 97.2855L172.414 97.2248L168.43 97.619H167.629L167.417 97.5887L167.134 97.4674L166.639 97.1642L166.427 96.9823L165.908 96.3758L165.696 96.1938L165.436 96.0422L165.106 95.8906L163.409 95.5571L163.032 95.4358L162.749 95.2842L162.513 95.1325L161.877 95.0416L158.954 95.1629L158.199 95.0416L157.633 94.9203L157.351 94.7687L156.714 94.7384L156.337 94.617L156.077 94.4654L155.865 94.3138L155.535 94.1925H155.158L154.852 94.2835L154.828 95.6784L154.734 96.012L154.616 96.2849L154.427 96.4668L154.239 96.6184L153.861 96.8307L153.178 97.2552L150.561 97.4068L149.807 97.3158L149.335 97.1642L149.194 96.9519L148.864 96.5274L148.628 96.3455L148.298 96.2545L147.897 96.2242L146.294 96.3455L143.819 96.8003L143.277 97.0126L142.711 97.4371L141.603 99.4991L141.414 99.7417L141.037 99.9236L140.448 100.015L138.515 99.9236L134.153 98.9533H133.328L132.338 99.0746L131.867 99.1959L131.419 99.3778L130.829 99.772L130.547 100.075L130.358 100.409L129.651 101.713L128.943 102.653L128.731 102.835L128.26 103.199L127.741 103.502L126.468 103.866L125.027 103.639L121.402 101.639L110.527 103.358L110.438 102.774L110.06 99.8629L111.428 97.6797L113.385 95.648L114.893 93.1919L115.27 91.797L115.2 90.7357L114.398 90.0382L110.673 89.6137L112.347 90.3415L112.724 91.8576L112.041 93.9196L110.721 95.7693L109.117 96.5881L107.302 96.9823L105.746 98.0132L104.803 99.5294L104.874 101.409L104.62 103.233L98.4016 101.639L94.4954 101.608L89.9954 104.639L81.0266 102.796L71.9641 103.827L68.0579 103.921L65.3812 103.082L65.3576 102.718L65.0276 102.051L64.509 96.4415L64.226 95.7744L62.953 95.1073L61.9393 94.7434L61.68 94.5918L61.4443 94.3492L60.6191 93.106L59.9827 92.4995L59.4876 92.1356L56.4465 90.8014L55.8807 90.2555L55.2442 89.3459L54.6313 87.8297L54.5134 87.1929L54.6785 86.8593L54.9378 86.7987L58.7096 86.6471L59.0633 86.5258L59.3226 86.4045L60.077 85.5251L60.2891 85.3432L60.6191 85.2522L60.9963 85.2219L61.3735 85.2522L61.68 85.3432L62.1986 85.6161L62.5286 85.6768L62.8587 85.6161L63.5659 85.4645L68.0922 85.2825L68.4694 85.2219L68.7994 85.0703L69.2002 84.4335L69.4124 84.2212L69.6717 84.0696L71.2512 83.6147L71.4869 83.4631L71.6048 83.3419L72.0527 82.4928L72.4535 81.4315L72.7834 80.9766L73.1843 80.6128L73.5615 80.4308L74.0329 79.9456L74.1508 79.5211L74.1979 79.0359L74.1508 78.3082L74.9288 77.1256L74.8817 76.6404L74.7402 76.3069L74.4337 76.1249L74.0801 76.0643L72.8307 76.0036L72.4063 75.943L72.2177 75.7913L72.0056 75.4578L71.6755 74.821L71.4398 74.4874L71.2276 74.2449L71.039 74.0629L70.2374 73.5778L69.931 73.3351L69.6245 73.0016L69.2945 72.3345L69.0588 72.0009L68.8466 71.8493H68.0922L67.385 72.0009L66.3477 72.2435L65.994 72.3042L65.6641 72.3648L65.334 72.3042L65.0747 72.1829L64.2732 71.728L63.5895 71.4854L61.7979 71.1822L61.3972 71.0609L61.0671 70.879L60.7842 70.6364L60.7134 70.3332L60.6899 70.0299L60.7842 69.4538L60.9492 68.908L61.1614 68.6957L61.4208 68.5744L61.7743 68.5138L62.5051 68.3925L63.1652 68.1802L63.4244 68.0589L64.4618 67.3615L64.6739 67.0279L64.9333 66.5428L64.7682 65.9363L64.6032 65.5421L64.0375 64.7234L63.896 64.6021L63.7545 64.4808L63.5659 64.3595L63.3773 64.3898L57.4838 65.2085L55.2207 65.8756L54.8199 65.8453L54.3484 65.633L53.5233 64.7537L53.2875 64.6021L52.9575 64.5111L49.9871 64.3291L46.4745 57.5367L46.121 56.3541L47.0168 54.8379L47.5119 53.716L47.7004 53.1095L47.7947 52.3514L47.7711 51.8359L47.8419 51.4417L47.889 51.4114L48.4312 51.2295L48.6669 51.0779L48.8084 50.8352L48.9027 50.5623L48.9498 49.8649L48.6669 48.3791L48.3134 47.9849L47.2525 47.1661L46.451 46.1958L46.0224 45.8099L45.5787 45.6196L43.0563 45.559L42.7263 45.4074V45.3901L42.632 45.3467V45.1345L42.797 44.9222L42.962 44.528L43.0563 43.9519L42.8441 42.7389L42.6111 42.2595L42.3491 42.1021L38.2235 42.7086L37.9171 42.8299L37.7285 43.0422L37.6106 43.3151L37.2334 44.4977L36.8798 44.9829L36.6205 45.1345L36.3848 45.2861H36.0783L35.7247 45.1345L35.6462 45.0806L35.6304 45.0738L35.2767 44.8312L34.876 44.2854L34.5931 43.0422L34.3199 42.7719L33.9802 42.6176L31.3398 42.5873L30.8684 42.5267L30.3969 42.4054L29.454 41.9202L29.006 41.799L28.6052 41.7686L28.2752 41.8596L27.568 42.3751L26.4365 42.9209L25.8 43.1331L25.4464 43.1635L25.0692 43.1331L24.7391 43.0119L24.6825 42.9651L24.6448 42.9512L24.3148 42.6783L24.1262 42.557L23.7961 42.466H23.4189L20.0478 42.8299L19.7177 42.7693L19.634 42.7106L19.6235 42.7086L19.3641 42.5267L18.7166 42.0547L18.4448 41.9202L16.7238 41.3441L16.0166 40.9802L15.9984 40.9587L15.9223 40.9196L15.6393 40.586L15.4272 40.3131L15.1915 39.646L14.72 38.7666L14.6021 38.4633L14.5786 38.1904L14.6257 37.9175L14.7672 37.6446L15.2858 36.9775L15.4744 36.7046L15.5451 36.371L15.4979 35.8859L15.3094 35.613L15.0933 35.3906L14.2721 34.9459L14.1779 34.8853L14.1778 34.8852L13.282 34.3091L13.282 34.3091L13.1877 34.2484L12.9991 33.9149L12.9519 33.6116L13.0933 33.369L13.3055 33.1568L14.0835 32.6716L14.2957 32.4897L14.4371 32.3077L14.5079 32.1561V31.8529L14.1778 30.7612L13.85 30.4801L13.5413 30.3064L11.6082 29.7909L10.8303 29.4876L10.7451 29.4306L10.736 29.427L9.60437 28.6689L9.29791 28.3354L9.13293 28.0928L9.01508 27.7592L8.92065 27.547L7.27057 19.9965L7.10553 19.6629L6.89337 19.4203L5.50244 18.359L4.77167 17.601L4.52201 17.4136L4.32373 17.2977L4.01727 17.1461L2.22565 16.8125L1.75409 16.6306L1.71464 16.5911L1.65979 16.5699L1.44769 16.3577L1.35333 16.1454L1.32977 15.5086L1.37695 15.2357L1.44769 14.9931L2.03699 14.3867L2.10773 14.1441L2.15485 13.9015L2.10773 13.6589L2.17841 12.7189L2.15485 12.3247L1.93424 12.1183L1.09406 11.7485L1.08935 11.7273L0.999756 11.6879L0.952637 11.4756L1.0705 11.2634L1.58911 10.9905L1.89557 10.8692L4.39447 10.1718L5.50244 10.2627L5.78534 10.2021L6.25684 9.8382L6.53973 9.71689L6.91693 9.65625L7.31769 9.68658L7.71844 9.77753L7.95416 9.80783L8.3078 9.74719L8.56714 9.56528L8.66138 9.26202L8.63782 8.86783L8.33398 8.67242L7.60052 8.41299L7.36487 8.20074L7.29413 7.89749L7.22333 6.65424H9.25073L9.84015 6.53293L10.1701 6.13873L10.6652 4.89548L11.1132 4.62259L22.3109 4.6832L22.924 4.7742L23.584 4.8045L24.1733 4.86517L27.3558 5.62323L30.1847 6.01743H30.8919L31.3634 5.92648L31.552 5.74454L31.6935 5.56256L31.9764 4.98645L32.1414 4.7742L32.7543 4.50128L33.7209 4.19803L37.092 3.50061L37.9171 3.43997L40.0153 3.71286L42.2312 3.68256L43.1977 3.77353L43.8107 3.92511L43.8542 4.00356L43.905 4.01611L44.0228 4.22839L44.07 4.47095L44.216 4.71249L44.4471 4.89548L45.2015 5.10776L45.673 5.07742L45.9796 4.92581L46.451 4.04642L46.6631 3.83417L46.9932 3.59158L47.6769 3.28836L48.1719 3.22769L48.6198 3.25803L48.9498 3.3793L49.2092 3.53091L49.4213 3.71286L49.437 3.73638L49.5157 3.80386L49.6572 4.01611L49.7043 4.28903L49.7513 4.53159L49.891 4.78818L50.1993 4.98645L51.1423 5.22903L51.7317 5.25937L52.2031 5.22903L52.5096 5.10776L52.7689 4.98645L53.0046 4.7742L53.4055 4.50128L54.0184 4.22839L56.2814 3.74319L56.8237 3.56128L57.0594 3.3793L57.2245 3.13675L57.413 2.86383L57.6016 2.25739L58.1439 1.86316L59.1104 1.46896L61.6328 0.923126L63.1417 0.801819L68.3986 1.10507L69.5538 1.37799L70.8268 1.46896L71.4633 1.59024L71.8876 1.71155L71.9583 1.80252L72.0527 1.92383L72.1234 2.01477L72.1941 2.25739L72.3826 4.10709L72.4228 4.31325L72.642 4.50128L73.1135 4.6832L74.7637 4.98645L75.1409 5.13806L75.2116 5.22903L75.2352 5.25937L75.2823 5.44131L75.2812 5.46739L75.2823 5.47162L75.2352 6.5936V6.83618L75.3531 7.04846L75.5181 7.23038L75.683 7.38199L75.8481 7.50327L76.0839 7.62457L76.7911 7.83682L83.6041 8.47363L84.1464 8.41299L85.3957 7.86719L86.5273 7.53363L86.8574 7.62457L87.0695 7.77618L87.1874 8.0188L87.376 8.26135L87.6824 8.47363L88.2718 8.68588L88.7197 8.71622L89.0733 8.65558L89.3326 8.50394L89.9456 8.32202L90.8885 8.14011L94.8962 7.92783L95.2026 7.95813L95.4619 8.07944L95.6505 8.26135L95.7684 8.50394L95.8627 9.01944L95.6505 10.5053L95.5563 10.8085L95.4384 11.0511L95.4191 11.0726L95.4148 11.0814L95.0615 11.4752L95.0611 11.4756L94.9669 11.597L94.9433 11.8092L95.0376 12.0518L95.4148 12.3247L95.8391 12.4156H96.2399L96.5699 12.355L96.8057 12.1731L96.9235 11.9001L96.9706 11.6272L97.0178 10.7782L97.1592 10.4446L97.3951 10.1718L98.0079 9.89883L98.0279 9.90044L98.0315 9.89883L98.4087 9.92914L98.6916 10.0807L98.951 10.3537L99.3045 10.4143H99.6581L100.79 10.2627L101.096 10.1718L101.332 10.0201L101.403 9.80783L101.355 9.04977L101.403 8.77686L101.544 8.53427L101.78 8.35236L102.157 8.20074L103.383 7.86719L103.402 7.86846L103.406 7.86719L103.854 7.89749L104.184 8.0188L105.127 8.74655L105.575 8.89816L106.275 9.07829L107.084 8.98914L107.096 8.99037L107.108 8.98914L107.721 9.04977L108.216 9.20139L108.899 9.53494L109.371 9.62595L109.804 9.65524L112.648 9.32269L112.664 9.32351L112.671 9.32269L113.284 9.35303L113.685 9.47427L113.85 9.68658L114.345 10.8389L114.628 11.2634L114.746 11.506L114.793 11.7485L114.816 12.0215L114.769 12.355L114.675 12.6279L114.534 12.8705L114.345 13.0828L114.086 13.2344L113.213 13.6286L110.337 14.4776L110.102 14.5989V14.8112L110.196 15.0234L111.162 16.1757L111.21 16.2061L113.567 18.7229L114.486 19.481L115.359 20.0268L115.721 20.0559L117.527 19.8145L117.539 19.8161L117.551 19.8145L118.023 19.8752L118.353 19.9965L118.73 20.3604L119.036 20.7849L119.107 21.0275L119.154 21.3004L119.248 21.543L119.366 21.7552L119.531 21.9675L119.743 22.1494L121.323 23.3624L121.488 23.5746L121.629 23.7869L121.7 24.0295L121.724 24.2721L121.677 24.545L121.559 24.7876L121.394 25.0302L120.144 26.243L119.956 26.4554L119.814 26.6979L119.743 26.9708L119.814 27.2134L119.932 27.456L120.521 28.0322L120.686 28.2444L120.757 28.487L120.781 28.7599L120.734 29.0631L120.663 29.3361V29.6696L120.757 30.0032L121.087 30.367L121.488 30.4883L121.91 30.5487L128.277 30.458L128.631 30.3974L128.89 30.2761L129.008 30.0334L129.102 29.7606L129.197 29.4876L129.692 29.3361L130.493 29.2451L130.507 29.2462L130.517 29.2451L133.157 29.4573L133.747 29.6089L134.548 30.0941L136.269 30.6703L136.599 30.8219L136.858 30.9735L137.047 31.1555L137.707 31.9742L137.99 32.3987L138.367 32.6716L138.956 33.0052L140.395 33.4903L141.172 33.642L141.799 33.7016L142.587 33.642L143.247 33.46L143.53 33.3084L144.025 32.9749L144.826 32.1561L145.746 30.9129L147.302 29.2451L147.538 29.0328L147.773 28.8812L148.08 28.7296L148.716 28.5477L151.38 28.2747L151.392 28.2759L151.404 28.2747L152.63 28.396L153.455 28.5477L155.435 29.3361L156.732 30.1851L157.092 30.2141L157.415 30.1548L158.264 29.9122L158.995 29.7606L159.013 29.7617L159.018 29.7606L159.49 29.7909L159.914 29.8516L160.244 29.9728L165.077 31.0341L165.817 31.0937L178.443 29.6393L178.773 29.5786L178.962 29.3967L179.033 29.1541L179.104 28.0625L179.08 27.7896L179.127 27.2437L179.245 26.9708L179.504 26.8192L181.013 26.607L181.296 26.516L181.437 26.3341L181.414 26.1218L181.202 25.9702L180.989 25.8489L180.754 25.6972L180.736 25.6707L180.73 25.6669L180.589 25.4547V25.1818L180.659 24.6056L180.636 24.3327L180.544 24.0973L180.047 23.5443L180.036 23.5286L180.023 23.514L179.881 23.3017L179.787 23.0591L179.811 22.8166L179.929 22.5739L179.982 22.522L180.023 22.4526L180.211 22.2707L180.494 22.1191L181.202 21.9978L183.182 21.8462L183.512 21.7552L183.71 21.6392L183.771 21.4823L183.795 21.2094L183.771 20.6939L183.677 20.4817L183.394 20.3604L182.145 20.2391L181.791 20.1481L181.532 19.9965L181.343 19.8145L181.249 19.572L181.178 19.299L181.202 19.0262L181.272 18.7229L181.39 18.45L181.532 18.2074L181.588 18.151L181.626 18.0861L181.838 17.8739L182.05 17.6616L182.286 17.5099L182.852 17.2371L183.771 16.9035L186.765 16.5093L188.18 16.1454H188.58L188.863 16.2667L189.075 16.479L189.618 17.0551L189.924 17.2674L190.348 17.4796L191.174 17.7222H191.645L191.999 17.6616L192.174 17.4862L192.282 17.3281L192.541 16.7822L192.706 16.5396L192.725 16.5282L192.8 16.4183L193.06 16.2667L195.323 15.9332L195.582 15.8422L195.818 15.6906Z" fill="url(#paint17_linear)"/>
<defs>
<linearGradient id="paint0_linear" x1="80.5" y1="-70.5" x2="74.2086" y2="109.827" gradientUnits="userSpaceOnUse">
<stop stop-color="#3A90B6"/>
<stop offset="1" stop-color="#075F92"/>
</linearGradient>
<linearGradient id="paint1_linear" x1="64" y1="-228" x2="62.4005" y2="126.957" gradientUnits="userSpaceOnUse">
<stop stop-color="#3A90B6"/>
<stop offset="1" stop-color="#075F92"/>
</linearGradient>
<linearGradient id="paint2_linear" x1="64" y1="-228" x2="62.4005" y2="126.957" gradientUnits="userSpaceOnUse">
<stop stop-color="#3A90B6"/>
<stop offset="1" stop-color="#075F92"/>
</linearGradient>
<linearGradient id="paint3_linear" x1="64" y1="-228" x2="62.4005" y2="126.957" gradientUnits="userSpaceOnUse">
<stop stop-color="#3A90B6"/>
<stop offset="1" stop-color="#075F92"/>
</linearGradient>
<linearGradient id="paint4_linear" x1="64" y1="-228" x2="62.4005" y2="126.957" gradientUnits="userSpaceOnUse">
<stop stop-color="#3A90B6"/>
<stop offset="1" stop-color="#075F92"/>
</linearGradient>
<linearGradient id="paint5_linear" x1="64" y1="-228" x2="62.4005" y2="126.957" gradientUnits="userSpaceOnUse">
<stop stop-color="#3A90B6"/>
<stop offset="1" stop-color="#075F92"/>
</linearGradient>
<linearGradient id="paint6_linear" x1="64" y1="-228" x2="62.4005" y2="126.957" gradientUnits="userSpaceOnUse">
<stop stop-color="#3A90B6"/>
<stop offset="1" stop-color="#075F92"/>
</linearGradient>
<linearGradient id="paint7_linear" x1="64" y1="-228" x2="62.4005" y2="126.957" gradientUnits="userSpaceOnUse">
<stop stop-color="#3A90B6"/>
<stop offset="1" stop-color="#075F92"/>
</linearGradient>
<linearGradient id="paint8_linear" x1="64" y1="-228" x2="62.4005" y2="126.957" gradientUnits="userSpaceOnUse">
<stop stop-color="#3A90B6"/>
<stop offset="1" stop-color="#075F92"/>
</linearGradient>
<linearGradient id="paint9_linear" x1="64" y1="-228" x2="62.4005" y2="126.957" gradientUnits="userSpaceOnUse">
<stop stop-color="#3A90B6"/>
<stop offset="1" stop-color="#075F92"/>
</linearGradient>
<linearGradient id="paint10_linear" x1="64" y1="-228" x2="62.4005" y2="126.957" gradientUnits="userSpaceOnUse">
<stop stop-color="#3A90B6"/>
<stop offset="1" stop-color="#075F92"/>
</linearGradient>
<linearGradient id="paint11_linear" x1="64" y1="-228" x2="62.4005" y2="126.957" gradientUnits="userSpaceOnUse">
<stop stop-color="#3A90B6"/>
<stop offset="1" stop-color="#075F92"/>
</linearGradient>
<linearGradient id="paint12_linear" x1="64" y1="-228" x2="62.4005" y2="126.957" gradientUnits="userSpaceOnUse">
<stop stop-color="#3A90B6"/>
<stop offset="1" stop-color="#075F92"/>
</linearGradient>
<linearGradient id="paint13_linear" x1="64" y1="-228" x2="62.4005" y2="126.957" gradientUnits="userSpaceOnUse">
<stop stop-color="#3A90B6"/>
<stop offset="1" stop-color="#075F92"/>
</linearGradient>
<linearGradient id="paint14_linear" x1="64" y1="-228" x2="62.4005" y2="126.957" gradientUnits="userSpaceOnUse">
<stop stop-color="#3A90B6"/>
<stop offset="1" stop-color="#075F92"/>
</linearGradient>
<linearGradient id="paint15_linear" x1="64" y1="-228" x2="62.4005" y2="126.957" gradientUnits="userSpaceOnUse">
<stop stop-color="#3A90B6"/>
<stop offset="1" stop-color="#075F92"/>
</linearGradient>
<linearGradient id="paint16_linear" x1="64" y1="-228" x2="62.4005" y2="126.957" gradientUnits="userSpaceOnUse">
<stop stop-color="#3A90B6"/>
<stop offset="1" stop-color="#075F92"/>
</linearGradient>
<linearGradient id="paint17_linear" x1="124" y1="151" x2="164.306" y2="-177.244" gradientUnits="userSpaceOnUse">
<stop stop-color="#59BDE4"/>
<stop offset="0.260417" stop-color="#43A9D5"/>
<stop offset="0.697917" stop-color="#0B77B0"/>
<stop offset="1" stop-color="#015E94"/>
</linearGradient>
</defs>
</svg>
