<svg width="219" height="205" viewBox="0 0 219 205" fill="none" xmlns="http://www.w3.org/2000/svg">
<path d="M44.375 10.7188L44.3438 21.9688L47.2219 24.073V11.4535L44.375 10.7188ZM53.2759 12.7847V25.4042L67.9076 24.5495V11.9299L53.2759 12.7847ZM50.2812 14.1383V26.7578L53.2759 25.407V12.7874L50.2812 14.1383ZM47.2219 11.4535V24.073L50.2812 26.7578V14.1383L47.2219 11.4535ZM67.9076 11.9299V24.5495L70.7874 31.6033V18.9781L67.9076 11.9299ZM70.7845 18.981V31.6061L74.7326 37.155V24.5354L70.7845 18.981ZM63.6342 40.9607V53.5803L68.8273 56.3043V43.6847L63.6342 40.9607ZM69.9825 48.9085V61.5281L72.5034 59.8522V47.2327L69.9825 48.9085ZM68.8273 43.6875V56.3071L69.9825 61.5309V48.9113L68.8273 43.6875ZM74.6429 48.9478V61.5673L77.7582 60.6733V48.0538L74.6429 48.9478ZM72.5034 47.2327V59.8522L74.6401 61.5673V48.9478L72.5034 47.2327ZM77.7582 48.0538V60.6733L79.1519 65.7458V53.1263L77.7582 48.0538ZM79.1519 53.1234V65.743L82.3822 67.4161V54.7965L79.1519 53.1234ZM82.3822 54.7993V67.4189L85.59 71.0621V58.4425L82.3822 54.7993ZM85.59 58.4397V71.0593L95.5865 65.743V53.1234L85.59 58.4397ZM95.5865 53.1234V65.743L97.3979 73.1752V60.5556L95.5865 53.1234ZM94.1088 61.1105V73.73L95.3229 78.1327V65.5132L94.1088 61.1105ZM95.3229 65.5132V78.1327L96.1558 81.1846V68.5651L95.3229 65.5132ZM91.6132 70.1625V82.7876L93.7498 83.945V71.3255L91.6132 70.1625ZM93.7498 71.3255V83.945L98.3177 83.7012V71.0817L93.7498 71.3255ZM95.5865 81.392V94.0115L100.163 93.1736V80.554L95.5865 81.392ZM100.16 80.554V93.1736L105.855 94.7178V82.0982L100.16 80.554ZM105.858 82.0982V94.7178L108.053 99.2942V86.6747L105.858 82.0982ZM108.053 86.6747V99.2942L118.675 101.903V89.2838L108.053 86.6747ZM118.675 89.2838V101.903L120.812 102.856V90.2366L118.675 89.2838ZM120.812 90.2366V102.856L123.453 106.348V93.7257L120.812 90.2366ZM123.453 93.7257V106.348L123.481 110.426V97.8061L123.453 93.7257ZM197.901 103.428V116.05L208.531 115.099V102.479L197.901 103.428ZM121.673 100.628V113.248L121.734 118.928V106.309L121.673 100.628ZM183.957 106.707V119.329L197.901 116.05V103.428L183.957 106.707ZM176.035 109.546V122.165L183.96 119.326V106.704L176.035 109.546ZM70.0414 117.552V130.172L72.5651 128.21L72.5 116.438L70.0414 117.552ZM121.734 106.306V118.926L124.227 130.385V117.765L121.734 106.306ZM177.544 118.202V130.822L179.089 126.456V113.836L177.544 118.202ZM101.688 115.375L101.702 127.03L102.563 131.758V119.139L101.688 115.375ZM50.875 114.062L50.6962 125.559L55.2051 133.72V121.1L50.875 114.062ZM172.712 121.518V134.137L177.544 130.822V118.202L172.712 121.518ZM170.099 125.007V137.626L172.71 134.137V121.518L170.099 125.007ZM168.08 127.697V140.317L170.099 137.626V125.007L168.08 127.697ZM52.1767 125.733V138.352L56.2426 140.521V127.902L52.1767 125.733ZM56.2454 127.902V140.521L59.9832 142.525V129.906L56.2454 127.902ZM163.863 132.366V144.986L168.08 140.317V127.697L163.863 132.366ZM158.675 137.363V149.982L163.863 144.986V132.366L158.675 137.363ZM155.532 139.456V152.076L158.678 149.982V137.363L155.532 139.456ZM151.435 142.222V154.842L155.532 152.079V139.459L151.435 142.222ZM146.982 145.86V158.48L151.435 154.839V142.22L146.982 145.86ZM143.424 148.761V161.38L146.982 158.482V145.863L143.424 148.761ZM38.5625 148.25L38.6499 159.875L39.3593 162.126V149.5L38.5625 148.25ZM140.365 151.238V163.858L143.424 161.38V148.761L140.365 151.238ZM39.3565 149.5V162.126L40.5482 165.766V153.146L39.3565 149.5ZM135.945 153.522V166.144L140.367 163.858V151.238L135.945 153.522ZM118.883 162.35V174.969L135.943 166.147V153.525L118.883 162.35ZM21.5625 161.75L21.7357 173.274L21.9405 176.499V163.88L21.5625 161.75ZM108.735 167.61V180.23L118.883 174.969V162.35L108.735 167.61ZM21.9405 163.877V176.497L23.9313 181.948V169.328L21.9405 163.877ZM105.025 169.516V182.135L108.735 180.23V167.61L105.025 169.516ZM99.6552 173.504V186.123L105.025 182.135V169.516L99.6552 173.504ZM20.5625 172.625L20.6674 184.408L21.5871 187.02V174.398L20.5625 172.625ZM79.9847 178.422V191.042L85.2058 190.658V178.038L79.9847 178.422ZM72.1501 178.685V191.305L79.9847 191.042V178.422L72.1501 178.685ZM85.2058 178.041V190.66L88.739 191.958V179.338L85.2058 178.041ZM0.75 177.5L0.637939 189.228L5.74133 193.824V181.205L0.75 177.5ZM88.739 179.336V191.955L97.1035 194.337V181.718L88.739 179.336ZM61.3488 182.48V195.099L72.1501 191.305V178.685L61.3488 182.48ZM56.7165 184.254V196.873L61.346 195.099V182.48L56.7165 184.254ZM5.73853 181.202V193.822L11.7925 198.93V186.311L5.73853 181.202ZM38.1115 188.275V200.895L56.7193 196.873V184.254L38.1115 188.275ZM106.836 189.307V201.926L108.53 197.734L108.375 186.188L106.836 189.307ZM97.1035 181.718V194.337L101.346 202.876V190.257L97.1035 181.718ZM11.7925 186.314V198.933L24.9688 203.014V190.394L11.7925 186.314ZM24.9688 190.394V203.014L30.8462 203.47V190.851L24.9688 190.394ZM101.346 190.257V202.876L107.223 204.306V191.686L101.346 190.257ZM30.8434 190.851V203.47L35.7982 204.538V191.919L30.8434 190.851ZM35.7982 191.919V204.538L38.1087 200.895V188.275L35.7982 191.919Z" fill="url(#paint0_linear)"/>
<path d="M218.219 77L218.188 89.0313L217.219 92.125L214.938 95.3438L212.031 97.2813L207 97.5313L199.75 96.6875C197.271 95.0625 192.25 91.5625 192 90.5625C191.688 89.3125 191.25 84.75 192.938 83.6875C194.625 82.625 197.5 82.625 198.187 82.8125C198.737 82.9625 203.771 83.9375 206.219 84.4063L211.625 84.6563L214.094 82.9063L214.125 82.5625L216.688 80.2813L218.219 77Z" fill="url(#paint1_linear)"/>
<path d="M208.125 73.375L208.25 66.75C205.854 66.7708 200.9 66.8625 200.25 67.0625C199.437 67.3125 197.75 71.6875 197.625 72C197.525 72.25 204.583 73.0208 208.125 73.375Z" fill="url(#paint2_linear)"/>
<path d="M192.437 61.9375L192.344 50.0938C191.302 50.8854 189.156 52.575 188.906 53C188.594 53.5313 187.063 55.1563 186.75 56.7813C186.438 58.4063 184.125 63.5938 184.031 64.1875C183.956 64.6625 190.125 64.7604 193.219 64.75L192.437 61.9375Z" fill="url(#paint3_linear)"/>
<path d="M186.438 46.7813L186.375 44.125C186.083 44.3021 185.438 44.6875 185.188 44.8125C184.875 44.9688 184.75 45.7813 184.781 45.9688C184.806 46.1188 185.896 46.5729 186.438 46.7813Z" fill="url(#paint4_linear)"/>
<path d="M157.875 36.2188L157.781 32.2813C157.625 32.1563 157.106 31.95 156.281 32.125C155.25 32.3438 154.688 33.4375 154.156 33.7813C153.731 34.0563 153.229 35.0417 153.031 35.5L157.875 36.2188Z" fill="url(#paint5_linear)"/>
<path d="M151.906 16.0625V9.53126C149.948 9.01043 145.869 7.91876 145.219 7.71876C144.406 7.46876 144.344 8.40626 143.656 9.09376C142.969 9.78126 142.375 11.5938 141.563 12.7188C140.75 13.8438 141 17.0313 141.125 17.6563C141.225 18.1563 145.542 19.8646 147.688 20.6563C148.24 19.8125 149.369 18.1063 149.469 18.0313C149.569 17.9563 149.74 17.3333 149.813 17.0313L151.063 16.625L151.906 16.0625Z" fill="url(#paint6_linear)"/>
<path d="M104.844 9.90625L104.875 3.84375C105.177 3.90625 105.881 4.08125 106.281 4.28125C106.781 4.53125 107.719 5.15625 108.812 6.03125C109.906 6.90625 108.656 8.5 108.5 9.09375C108.375 9.56875 106.01 9.83333 104.844 9.90625Z" fill="url(#paint7_linear)"/>
<path d="M57.0469 7.82812L57.0938 6.79688C57.3229 6.98958 57.7969 7.39687 57.8594 7.48438C57.9219 7.57188 57.3438 7.75 57.0469 7.82812Z" fill="url(#paint8_linear)"/>
<path d="M108.449 3.00674L112.81 1.58151L114.484 1.33893L115.662 1.06604L116.393 1.09634L116.794 1.24796L118.02 1.88477L118.35 2.09702L118.538 2.30927L119.39 2.98978L119.694 3.15833L120.023 3.2493H120.424L120.849 3.09769L121.155 2.91574L122.9 0.944733L123.3 0.550507L123.56 0.398926L123.913 0.368561L124.361 0.459564L125.304 1.03571L125.681 1.21765L126.106 1.27829L126.719 1.15698L127.685 0.762787L127.874 0.702148L128.958 0.489868L130.113 2.00607L131.127 3.73447L132.424 5.12933L134.993 5.97836L150.222 6.64551L150.293 7.88879L150.364 8.19199L150.599 8.40427L151.778 8.8288L151.872 8.95007L151.896 9.34427L151.802 9.64752L151.542 9.82944L151.189 9.89008L150.953 9.85977L150.552 9.76883L150.151 9.73849L149.869 9.85977L149.586 9.98108L149.114 10.3449L148.831 10.4056L147.723 10.3146L145.13 10.9514L144.824 11.0727L144.399 11.4063L144.281 11.6185L144.329 11.8308L145.13 12.1643L145.389 12.407L145.413 12.8011L145.342 13.7411L145.389 13.9837L145.342 14.2263L145.272 14.4689L144.682 15.0754L144.612 15.318L144.586 15.6109L144.588 16.2277L144.682 16.4399L144.989 16.7128L145.366 16.8341L147.252 17.2283L147.558 17.3799L147.818 17.5316L148.006 17.6832L148.737 18.4413L150.128 19.5026L150.34 19.7451L150.505 20.0787L152.155 27.6292L152.25 27.8415L152.367 28.175L152.532 28.4176L152.933 28.8118L153.971 29.5093L154.748 29.8125L156.776 30.3887L157.153 30.6009L157.507 30.9041L157.837 31.9958V32.299L157.672 32.39L157.492 32.5913L157.318 32.7539L156.54 33.239L156.328 33.4513L156.186 33.6938L156.234 33.9971L156.517 34.3913L157.412 34.9675L158.308 35.4526L158.544 35.6952L158.732 35.9681L158.874 36.5139L158.803 36.8475L158.615 37.1204L158.096 37.7875L157.955 38.0604L157.907 38.3333L157.931 38.6063L158.049 38.9095L158.52 39.7889L158.756 40.456L158.968 40.7289L159.251 41.0624L159.864 41.3657L161.679 42.0024L161.986 42.1541L162.693 42.6696L162.952 42.8515L163.282 42.9122L166.654 42.5483H167.031L167.361 42.6393L167.549 42.7606L167.879 43.0334L168.209 43.1547L168.587 43.1851L169.035 43.2154L169.671 43.0031L170.803 42.4573L171.51 41.9418L171.84 41.8508L172.241 41.8812L172.689 42.0024L173.537 42.427L174.009 42.5483L174.48 42.6089L177.12 42.6393L177.521 42.8212L177.828 43.1244L178.111 44.3677L178.606 44.9741L178.959 45.2167L179.219 45.3077H179.525L179.761 45.1561L180.02 45.0045L180.374 44.5193L180.751 43.3367L180.869 43.0638L181.057 42.8515L181.364 42.7302L185.489 42.1237L185.843 42.336L186.173 42.8818L186.385 44.0948L186.291 44.6709L186.126 45.0651L185.961 45.2774V45.4896L186.197 45.5806L188.719 45.6412L189.308 45.9142L189.78 46.3387L190.581 47.3091L191.642 48.1277L191.644 48.1302L191.66 48.1421L191.996 48.522L192.279 50.0078L192.232 50.7052L192.137 50.9781L191.996 51.2207L191.76 51.3723L191.218 51.5543L191.171 51.5846L191.1 51.9788L191.124 52.4943L191.029 53.2524L190.841 53.8589L190.837 53.8668L190.832 53.8843L190.346 54.9808L189.45 56.497L189.803 57.6796L193.222 64.5023L196.192 64.5933L196.428 64.6237L196.522 64.6843L196.758 64.8359L196.758 64.8361L196.852 64.8966L197.643 65.7394L197.96 65.8669L198.361 65.8972L200.624 65.2301L206.518 64.4114L206.8 64.4417L206.895 64.5023L206.989 64.563L207.083 64.6237L207.225 64.745L207.366 64.8662L207.932 65.685L208.097 66.0792L208.262 66.6856L208.003 67.1708L207.791 67.5044L206.753 68.2018L206.494 68.3231L205.834 68.5354L205.103 68.6566L204.75 68.7173L204.49 68.8386L204.278 69.0509L204.113 69.5967L204.019 70.1728L204.042 70.476L204.113 70.7793L204.368 70.9976L204.632 71.1432L205.032 71.2644L206.824 71.5677L207.508 71.8103L208.309 72.2651L208.569 72.3864L208.899 72.4471L209.229 72.3864L209.582 72.3258L210.525 72.0226L211.232 71.8709H211.987L212.074 71.9316H212.081L212.388 72.1438L212.623 72.4774L212.953 73.1445L213.26 73.4781L213.547 73.7057L214.274 74.1452L214.283 74.1546L214.368 74.2058L214.556 74.3878L214.769 74.6303L215.004 74.9639L215.24 75.54L215.452 75.8736L215.658 76.0276L216.065 76.0858L217.315 76.1465L217.668 76.2071L217.975 76.3891L217.977 76.3954L218.069 76.4497L218.211 76.7833L218.258 77.2685L217.48 78.4511L217.527 79.1788L217.48 79.664L217.362 80.0885L216.89 80.5737L216.513 80.7556L216.112 81.1195L215.782 81.5744L215.382 82.6357L214.934 83.4847L214.816 83.606L214.58 83.7576L213 84.2125L212.741 84.3641L212.529 84.5764L212.128 85.2132L211.798 85.3648L211.421 85.4254L206.895 85.6073L206.188 85.759L205.857 85.8196L205.528 85.759L205.009 85.4861L204.702 85.3951L204.325 85.3648L203.948 85.3951L203.618 85.4861L203.406 85.668L202.651 86.5474L202.392 86.6687L202.038 86.79L198.267 86.9416L198.007 87.0023L197.842 87.3358L197.96 87.9726L198.573 89.4888L199.21 90.3984L199.649 90.8507L202.722 92.2178L202.787 92.2652L202.816 92.2785L203.312 92.6424L203.854 93.1882L204.679 94.4315L204.902 94.6612L205.08 94.765L206.093 95.1288L207.461 95.8566L207.464 95.8692L207.555 95.9173L207.744 96.5238L208.262 102.134L208.592 102.801L208.71 103.225L208.618 103.202L207.344 102.88L197.765 104.349L184 107.568L176 110.474L179.062 114.849L177.437 119.318L172.625 122.568L168.094 128.474L163.969 133.255L158.781 138.162L151.406 143.099L140.187 152.349L131.25 156.974L114.469 165.505L105.187 170.38L99.656 174.443L108.375 186.099L106.781 190.349L107.125 192.63L101.375 191.287L97.156 182.662L88.781 180.318L85.3123 178.943L79.8748 179.318L72.031 179.662L56.781 185.193L38.1873 189.13L35.7185 192.755L30.9685 191.787L24.781 191.193L11.8435 187.287L0.687256 177.599L2.87476 175.068L5.74976 173.412L12.6873 173.849L21.5935 175.474L20.6248 172.755L23.9685 170.38L21.9373 164.787L21.7185 161.755L27.0623 160.849L33.8748 157.787L34.5935 155.318L40.5623 154.13L38.656 148.255L48.4998 144.162L54.0623 143.349L55.8748 140.505L59.9685 130.974L52.156 126.755L55.2185 122.193L50.781 113.974L57.3123 113.693L63.656 110.349L71.781 107.537L72.4685 116.599L69.8123 118.63L83.2498 116.162L85.3435 112.724L89.6248 113.193L94.6248 116.505L95.7498 120.099L102.562 120.162L101.719 115.318L117.281 120.88L120.906 117.599L124.344 118.818L121.719 107.474L121.594 101.787L123.594 98.8804L123.469 94.8492L120.781 91.2242L118.719 90.2554L108.062 87.6304L105.875 83.0367L100.219 81.5367L95.4998 82.4117L96.8435 78.5679L97.6873 75.9742L98.3123 72.0992L93.8123 72.2554L91.656 71.2242L96.1248 69.5992L94.0935 62.0679L97.4373 61.5367L95.6248 54.1617L85.5935 59.4117L82.3748 55.7867L79.156 54.1304L77.8435 49.0054L74.531 49.9429L72.4998 48.1304L70.031 49.9117L68.7498 44.5367L63.6248 41.9742L69.9685 30.9742L74.7185 25.5367L70.8435 19.9742L67.9373 12.9429L53.3748 13.7554L50.2185 15.0679L47.3123 12.5054L44.3435 10.6617L49.0333 9.4176L50.6127 8.75049L51.485 7.9924L52.4751 7.32529L53.0173 7.0524L53.1348 7.09475L53.1587 7.0827L55.954 8.09021L56.7786 7.6777L56.9908 7.49576L57.1087 7.25314V7.01056L57.0851 6.73764L59.2961 6.55453L59.2255 6.03903L59.3198 5.79648L59.5083 5.61453L59.8384 5.46292L61.9601 4.94742L62.5494 4.85645H63.0681L63.8224 5.03839L64.3646 5.25064L64.5296 5.43256L64.7418 5.61453L66.2035 6.43323L67.005 6.79715L67.4057 6.97906L67.9008 7.49457L68.6316 7.79776L72.2856 8.79846L73.6919 9.32359L74.148 9.3746L80.7016 9.34427L87.7739 7.55524H88.8584L88.9243 7.58551H88.9998L89.3298 7.73712L89.6127 7.91907L92.3945 9.07138L93.196 9.22296L98.6653 9.52621L102.767 9.28363L103.474 9.13202L103.828 9.10168L104.182 9.13202L104.842 9.34427H105.195L105.549 9.22296L106.822 6.91843L106.963 6.49387L106.94 6.16034L106.775 5.94809L106.61 5.73581L105.125 4.49255L104.795 4.06802L104.7 3.85577L104.771 3.55255L105.101 3.27963L105.95 2.94608L106.657 3.00674L107.105 3.12802L107.859 3.09769L108.449 3.00674Z" fill="url(#paint9_linear)"/>
<defs>
<linearGradient id="paint0_linear" x1="-161.009" y1="-2.23597" x2="53.0697" y2="148.397" gradientUnits="userSpaceOnUse">
<stop stop-color="#3A90B6"/>
<stop offset="1" stop-color="#075F92"/>
</linearGradient>
<linearGradient id="paint1_linear" x1="-68.2722" y1="-2.41823" x2="216.822" y2="45.1988" gradientUnits="userSpaceOnUse">
<stop stop-color="#3A90B6"/>
<stop offset="1" stop-color="#075F92"/>
</linearGradient>
<linearGradient id="paint2_linear" x1="-68.2722" y1="-2.41823" x2="216.822" y2="45.1988" gradientUnits="userSpaceOnUse">
<stop stop-color="#3A90B6"/>
<stop offset="1" stop-color="#075F92"/>
</linearGradient>
<linearGradient id="paint3_linear" x1="-68.2722" y1="-2.41823" x2="216.822" y2="45.1988" gradientUnits="userSpaceOnUse">
<stop stop-color="#3A90B6"/>
<stop offset="1" stop-color="#075F92"/>
</linearGradient>
<linearGradient id="paint4_linear" x1="-68.2722" y1="-2.41823" x2="216.822" y2="45.1988" gradientUnits="userSpaceOnUse">
<stop stop-color="#3A90B6"/>
<stop offset="1" stop-color="#075F92"/>
</linearGradient>
<linearGradient id="paint5_linear" x1="-68.2722" y1="-2.41823" x2="216.822" y2="45.1988" gradientUnits="userSpaceOnUse">
<stop stop-color="#3A90B6"/>
<stop offset="1" stop-color="#075F92"/>
</linearGradient>
<linearGradient id="paint6_linear" x1="-68.2722" y1="-2.41823" x2="216.822" y2="45.1988" gradientUnits="userSpaceOnUse">
<stop stop-color="#3A90B6"/>
<stop offset="1" stop-color="#075F92"/>
</linearGradient>
<linearGradient id="paint7_linear" x1="-68.2722" y1="-2.41823" x2="216.822" y2="45.1988" gradientUnits="userSpaceOnUse">
<stop stop-color="#3A90B6"/>
<stop offset="1" stop-color="#075F92"/>
</linearGradient>
<linearGradient id="paint8_linear" x1="-68.2722" y1="-2.41823" x2="216.822" y2="45.1988" gradientUnits="userSpaceOnUse">
<stop stop-color="#3A90B6"/>
<stop offset="1" stop-color="#075F92"/>
</linearGradient>
<linearGradient id="paint9_linear" x1="94.5" y1="246.5" x2="100.55" y2="-92.8444" gradientUnits="userSpaceOnUse">
<stop stop-color="#59BDE4"/>
<stop offset="0.260417" stop-color="#43A9D5"/>
<stop offset="0.697917" stop-color="#0B77B0"/>
<stop offset="1" stop-color="#015E94"/>
</linearGradient>
</defs>
</svg>
