<svg width="231" height="137" viewBox="0 0 231 137" fill="none" xmlns="http://www.w3.org/2000/svg">
<path opacity="0.1" d="M30.0526 29.0591L30.1889 29.3353L30.4594 29.7023L30.5939 29.7935L30.7956 29.9149L32.3132 30.2092L38.9972 30.2713L41.5329 29.8476L42.1567 29.8418L42.5142 29.9618L42.6721 30.176L42.8075 30.3597L43.1424 30.449L45.5261 30.4272L51.0079 28.1588L52.0529 27.9335L54.3457 27.7277L55.0123 27.5368L55.3225 27.3491L55.6317 27.0689L55.9603 26.4497L56.3094 25.6455L56.5962 25.3348L57.0166 25.0228L58.4809 24.3624L59.6367 24.0745L59.9469 23.8868L60.212 23.6379L60.6273 22.7714L60.9135 22.3991L61.3119 22.1181L62.0883 21.7413L63.6653 21.2339L64.571 20.3938L66.8793 17.0144L69.3159 17.9164L75.6237 18.2592L76.4248 18.1595L76.6236 17.9728L76.7998 17.7555L76.9309 17.477L77.0398 17.1987L77.4377 16.8562L78.1476 16.5416L79.9035 16.0942L80.816 15.9934L81.4623 16.0183L81.7533 16.1697L81.9774 16.3217L82.3358 16.5341L82.895 16.7755L84.6816 17.2521L85.1511 17.4327L105.244 19.6521L110.314 21.1154L110.961 21.1711L111.45 21.105L112.047 20.545L113.87 20.1894L116.542 20.0109L117.564 19.7243L118.035 19.5109L118.007 19.4121L117.783 19.2293L115.703 18.4165L115.658 18.3861L115.568 18.2945L115.545 18.1406L115.598 18.0206L115.588 17.9554L115.697 17.7079L115.896 17.5212L116.139 17.3649L119.448 16.1639L121.626 15.6818L122.206 15.7073L122.608 15.8269L123.417 16.5589L124.336 17.1975L126.552 18.3173L131.666 19.7185L132.156 19.7141L132.467 19.6188L132.522 19.495L132.487 19.3105L132.395 19.0649L132.371 18.8186L132.415 18.6488L132.414 18.6334L132.478 18.3863L132.721 18.1684L133.076 17.9495L133.631 17.7596L134.188 17.7853L135.549 18.0193L135.905 17.9236L136.113 17.7477L136.125 17.6751L136.125 17.6135L135.964 17.122L136.021 16.9803L136.007 16.9368L136.094 16.7203L136.36 16.5022L137.761 16.2121L138.16 16.0852L138.581 15.8349L139.158 15.5831L140.515 15.355L141.092 15.1033L141.446 14.8227L141.577 14.5443L141.775 14.2343L142.176 14.2307L144.386 14.7034L144.676 14.824L144.857 15.038L144.881 15.3151L144.761 16.7643L145.083 20.3353L145.199 20.858L145.426 21.3181L145.698 21.7469L147.359 23.1798L149.692 24.8839L152.669 26.4896L153.14 26.8242L153.522 27.1904L153.816 27.6191L153.93 27.8645L153.999 28.1104L153.979 28.3878L153.94 28.5115L153.936 28.5731L153.849 28.8512L153.366 29.5642L153.135 30.101L153.105 30.2444L153.107 30.5217L153.436 32.3365L153.574 32.8282L153.777 33.1036L154.069 33.3474L154.607 33.7122L155.008 33.7702L155.297 33.6443L155.451 33.3964L155.693 33.1169L156.047 32.898L156.781 32.768L157.227 32.7948L157.563 32.915L157.765 33.098L157.923 33.3122L158.014 33.527L158.108 34.0499L158.199 34.3264L158.38 34.5712L159.074 34.9654L159.276 35.1792L159.346 35.4251L159.549 35.7621L159.976 36.1279L162.481 37.2142L162.705 37.3662L162.817 37.4576L162.952 37.6104L163.201 38.0087L163.314 38.2233L163.384 38.5L163.408 38.7462L163.389 39.0545L163.35 39.1797L163.346 39.2397L163.259 39.5178L163.15 39.7653L162.996 39.9515L162.886 40.0758L162.709 40.2315L162.465 40.3569L162.176 40.452L160.707 40.6195L160.464 40.7758L160.328 40.9947L160.205 41.7641L160.275 42.0715L160.457 42.4396L161.04 42.8964L161.288 43.2022L161.402 43.5093L161.383 43.8176L161.385 44.1256L161.589 44.4627L161.857 44.5218L162.101 44.4272L162.987 43.8337L163.364 43.6454L164.564 43.3263L165.61 43.1627L172.074 43.5966L174.412 43.4519L174.723 43.3566L174.967 43.2004L175.188 43.0135L175.364 42.7654L175.473 42.4871L175.572 42.2329L175.666 41.7767L175.677 41.746L175.709 41.5914L175.818 41.2824L176.061 41.0337L176.571 40.8133L176.95 40.8407L177.352 40.991L178.449 41.5048L178.918 41.6237L179.296 41.6203L180.45 41.1476L181.956 40.1479L183.736 39.8851L189.093 40.6847L189.96 40.8141L190.637 41.7322L190.985 45.6419L190.926 46.5668L190.82 47.1839L190.423 47.5881L187.636 49.7395L187.084 50.3607L186.468 51.1982L186.38 51.3223L187.557 53.2525L187.67 53.498L188.245 55.4029L188.605 55.8002L188.964 56.0742L189.232 56.2258L189.998 57.0815L190.311 57.2634L190.691 57.414L191.963 57.5873L192.276 57.7076L192.544 57.8592L193.24 58.3766L193.799 58.6488L194.134 58.769L194.536 58.8577L195.375 58.9111L198.078 58.7637L198.08 58.7646L198.1 58.7635L198.569 58.9133L199.061 59.1245L200.027 59.9475L200.363 60.1601L204.585 61.4155L205.394 61.4686L205.743 61.4049L206.054 61.3096L206.852 60.9018L207.163 60.8065L207.52 60.7725L207.542 60.7723L207.921 60.7688L207.943 60.7686L208.322 60.8267L208.769 61.0075L209.934 61.7055L210.271 62.0413L210.519 62.3163L210.701 62.7768L210.773 63.3307L210.747 65.3336L210.89 66.3799L211.004 66.6869L211.483 67.8225L211.798 68.1894L212.068 68.495L212.337 68.6774L213.063 74.3318L213.333 74.5759L213.492 74.8517L213.656 75.8053L213.839 76.2658L214.152 76.4786L214.555 76.5982L216.427 76.7351L216.674 76.9485L216.81 77.2245L216.903 77.5934L217.105 77.8072L217.463 77.9272L220.876 78.4506L221.746 78.5042L222.102 78.4702L225.676 75.8757L225.829 75.6279L226.047 75.0405L226.2 74.7926L226.444 74.6055L226.755 74.5102L228.804 74.4607L229.317 74.5176L229.608 74.669L229.766 74.8832L229.995 75.6206L230.042 75.8358L230.044 76.0515L230.022 76.0687L230.022 76.1441L229.801 76.2694L229.268 76.4899L229.11 76.6135L229.093 76.7996L229.14 77.0457L229.366 77.5057L229.364 77.634L229.178 89.1732L228.777 89.1768L228.421 89.2417L227.799 89.4322L226.776 89.6573L226.533 89.8135L226.356 90.0308L226.225 90.3093L226.117 90.6184L226.104 90.6864L226.053 90.9579L226.102 91.4504L226.073 91.468L226.081 91.543L216.641 97.2612L217.116 97.85L217.366 98.3407L217.68 98.6151L219.483 97.1339L221.513 95.0477L221.798 95.8728L221.861 95.8992L222.02 96.1443L222.022 96.3599L222 96.4011L222 96.4525L221.999 96.4552L222.374 97.5413L222.434 97.597L221.802 95.0142L222.478 97.637L222.491 97.6493L221.824 94.9216L222.537 97.6915L222.591 97.7412L222.728 98.0788L222.708 98.3563L222.697 98.3111L222.687 98.4489L222.535 98.0095L222.665 98.5416L222.352 97.6338L221.806 97.1321L221.803 96.8241L221.825 96.7828L221.824 96.7314L221.955 96.4845L221.776 95.9655L221.259 95.7507L219.462 97.2266L217.744 98.9922L213.877 101.653L213.158 96.7684L211.588 98.6243L211.164 98.5665L210.427 98.3576L209.598 97.8414L209.351 97.6588L208.969 97.2926L208.723 97.1716L208.388 97.0514L208.02 97.0249L207.675 97.0579L207.364 97.1532L207.362 97.1472L207.342 97.1534L205.909 93.1193L205.904 93.105L202.654 95.846L202.103 96.498L201.731 97.21L201.536 97.8588L201.518 98.2595L201.565 98.598L201.679 98.8126L203.141 100.371L203.434 100.768L203.842 101.535L204.183 102.302L204.414 103.132L204.374 103.656L204.089 104.121L202.009 103.308L201.294 103.099L200.491 102.952L200.09 102.956L199.668 103.083L199.246 103.272L199.026 103.461L199.999 103.355L200.205 103.294L200.606 103.29L199.999 103.355L199.782 103.421L199.361 103.609L199.238 103.715L198.853 104.045L198.655 104.417L198.503 104.757L198.308 105.375L198.176 105.623L198 105.84L197.668 106.028L197.223 106.155L196.421 106.163L195.997 106.043L195.705 105.83L195.659 105.615L195.675 105.554L195.591 105.492L195.544 105.277L195.609 105.03L195.785 104.813L196.25 104.501L196.391 104.33L196.337 104.284L196.046 104.133L192.729 102.106L192.328 102.11L191.928 102.237L191.418 102.549L190.93 102.708L189.236 102.693L188.859 102.788L188.326 103.009L187.86 103.26L187.175 103.79L186.579 104.442L186.158 104.662L182.428 108.547L177.05 109.921L174.691 110.22L170.708 111.577L169.949 111.399L169.548 111.402L169.193 111.498L168.995 111.839L168.998 112.085L169.066 112.269L169.066 112.3L169.181 112.607L169.183 112.885L169.119 113.162L168.987 113.41L168.194 114.311L167.243 115.059L165.626 116.09L165.405 116.308L165.251 116.525L165.217 116.638L165.23 116.649L165.275 116.71L165.364 116.709L165.766 116.767L166.433 116.73L166.747 116.85L166.86 117.034L166.83 117.207L166.861 117.219L166.974 117.403L166.932 117.65L166.667 117.868L166.2 118.026L165.332 118.127L164.11 118.477L163.379 118.915L163.003 119.195L162.738 119.475L162.562 119.692L162.858 121.715L162.632 122.105L162.701 123.15L163.084 121.842L163.286 121.994L163.444 122.208L163.58 122.423L163.671 122.668L163.68 122.768L163.694 122.791L163.786 123.037L163.81 123.314L164.02 124.329L163.911 124.576L163.624 124.856L162.914 125.171L162.805 130.527L162.651 130.744L162.609 131.022L162.611 131.299L162.62 131.394L162.635 131.422L162.881 131.574L163.15 131.726L163.463 131.846L163.732 131.998L163.934 132.181L163.958 132.396L163.933 132.445L164.048 132.549L164.073 132.765L163.963 132.982L163.787 133.199L163.588 133.385L162.172 134.384L160.309 135.387L159.395 135.334L157.129 133.568L155.007 132.879L151.417 132.573L150.256 132.306L149.809 132.094L148.98 131.609L148.577 131.459L148.087 131.432L147.894 131.465L147.131 135.387L146.766 135.325L146.618 135.3L138.789 131.859L138.195 131.471L138.184 131.464L136.767 130.06L136.207 129.664L135.112 129.304L133.987 129.193L131.77 129.243L131.762 129.241L131.658 129.244L130.453 129.039L128.435 127.746L126.434 128.059L126.28 128.276L125.882 128.526L125.282 128.686L123.99 128.79L123.346 128.919L122.924 129.077L122.77 129.325L122.639 129.603L122.383 130.838L122.274 131.178L122.077 131.457L121.656 131.769L121.545 131.77L121.344 131.772L121.233 131.773L121.098 131.62L121.006 131.374L120.982 131.128L120.777 130.668L120.168 129.842L119.966 129.628L119.248 129.141L118.689 128.869L116.165 128.122L115.652 128.127L115.23 128.223L114.57 129.184L114.26 129.403L113.816 129.561L113.06 129.691L113.003 129.683L112.949 129.692L112.547 129.634L112.389 129.42L111.986 129.115L111.269 128.752L108.3 128.009L107.762 127.737L107.336 127.402L106.575 127.008L104.409 126.412L103.453 126.271L102.893 126.302L102.694 126.52L102.496 126.799L102.254 127.079L101.721 127.33L101.61 127.331L101.432 127.333L101.32 127.334L101.119 127.243L101.006 127.121L100.782 126.907L100.423 126.695L99.2602 126.182L98.9686 125.969L98.8113 125.816L98.6534 125.602L97.4409 124.565L97.1982 124.373L88.4223 126.655L88.3925 126.635L88.311 126.656L88.0868 126.504L87.974 126.351L88.1065 126.227L96.5366 123.126L96.736 123L96.9125 122.814L97.0664 122.597L97.1085 122.319L97.0837 122.042L96.99 121.55L97.0549 121.334L97.2766 121.209L98.2998 121.045L98.5886 120.95L98.8099 120.794L98.8968 120.547L98.8274 120.27L98.4904 119.965L96.9117 119.714L88.5836 122.371L88.5521 122.347L88.4723 122.372L88.1582 122.128L87.8852 121.515L87.5948 121.425L81.3101 121.174L80.7952 120.902L80.527 120.812L79.7398 119.987L79.6267 119.803L79.5134 119.589L79.2421 119.16L77.9377 117.816L77.4891 117.481L76.9962 117.178L67.4814 115.544L50.4573 110.277L50.5825 106.918L50.4822 105.686L50.2989 105.133L47.2897 100.077L46.9741 99.6797L44.2793 97.3319L43.8087 97.0281L43.1342 96.3565L42.5257 95.5918L42.321 95.1315L42.2733 94.793L44.8504 91.5652L45.0489 91.3477L45.2922 91.1606L45.5581 91.0042L46.9779 90.3442L47.1993 90.1881L47.3927 89.9153L47.5501 89.5687L47.6764 88.7665L47.6724 88.3352L47.6022 87.9661L47.078 86.6769L46.8527 86.4016L46.6057 86.1882L44.8385 85.4033L44.5244 85.1597L44.2546 84.8849L43.8936 84.3952L43.7347 84.0578L43.4707 81.9959L43.244 81.5666L42.9291 81.2306L35.6059 79.4798L35.2255 79.2984L34.7549 78.9946L34.5738 78.6882L34.4822 78.4117L34.5544 76.5625L34.5279 76.1006L34.4094 75.3314L34.2279 74.9633L34.0026 74.6881L31.7645 73.5686L31.4518 73.4791L31.1405 73.5435L30.5855 73.7643L30.2965 73.8285L30.0515 73.8308L29.8276 73.7096L29.648 73.5572L29.3776 73.2207L28.8835 72.7939L27.9643 72.1553L27.6959 72.0345L27.3387 71.9453L27.0045 71.9484L26.6932 72.0129L26.0711 72.2034L25.7598 72.2679L25.4254 72.2401L25.135 72.1504L24.8663 71.9988L23.5866 70.9321L21.1321 68.0584L20.7024 67.3537L20.4971 66.8318L20.6063 66.5844L20.8047 66.3669L20.8226 66.3577L20.871 66.3046L21.1149 66.1792L21.4262 66.1147L21.7826 66.1114L22.3858 66.2908L22.6757 66.319L22.9424 66.2549L23.1753 66.145L23.3403 65.9123L23.4483 65.5416L23.2362 64.2804L23.1883 63.9111L23.23 63.6026L23.7288 62.1192L23.792 61.7181L23.8103 61.2866L23.7153 60.6404L23.5343 60.334L23.2428 60.1209L21.6552 59.4885L21.3642 59.3371L20.9142 58.8482L17.8026 54.779L17.4453 54.6898L17.1115 54.7237L16.1336 54.9791L15.7772 54.9823L15.3982 54.955L13.8352 54.5688L13.388 54.388L12.8286 54.1158L12.6478 53.8402L11.1706 50.6494L11.0995 50.1879L11.1687 50.1446L11.1658 50.1257L11.3651 50.0007L13.5874 49.3949L13.7862 49.2083L13.7862 49.2082L13.9613 48.8677L13.8643 48.006L13.7498 47.6681L13.5693 47.4233L13.0993 47.1811L12.9703 47.0585L12.8751 47.0291L12.6301 47.0313L12.3856 47.0952L12.0309 47.2833L11.5879 47.5646L11.0558 47.8468L10.4789 48.0985L10.1225 48.1018L9.67526 47.921L8.48391 46.7611L8.34942 46.6699L8.10319 46.549L7.36646 46.3708L6.02786 46.1674L5.58097 46.0174L5.11007 45.6829L4.86165 45.3154L4.84152 45.258L4.83882 45.254L4.67595 44.7892L4.65586 44.7319L4.47502 44.4562L4.27232 44.2116L3.98072 43.9986L3.08237 43.2058L2.6524 42.4703L2.24716 42.0118L1.91081 41.7684L1.55383 41.7101L0.908345 41.7776L0.23925 41.6913L1.91611 39.9198L2.06983 39.6719L2.26661 39.2696L2.22011 39.0543L2.06223 38.8401L1.85975 38.6263L1.74589 38.35L1.83297 38.1335L2.07604 37.9157L5.42303 35.015L6.95362 31.8583L10.8959 31.7607L11.2089 31.881L11.7238 32.1536L12.0588 32.243L12.5263 32.2079L13.0372 32.0492L13.8133 31.6416L14.521 31.0805L15.7544 29.5287L16.1742 29.1552L16.3956 28.9991L16.6615 28.8426L20.6811 27.4502L22.3732 27.3423L22.8196 27.4307L23.0658 27.5517L23.5144 27.8865L23.7165 28.0695L24.1651 28.4043L24.4556 28.494L24.8338 28.429L26.7625 27.3946L27.2291 27.2671L28.1425 27.2587L28.6328 27.2851L28.9901 27.3742L29.214 27.4954L29.3938 27.6786L29.6429 28.1077L29.6629 28.1616L29.7562 28.3223L29.8476 28.568L29.9612 28.8134L30.0526 29.0591Z" fill="#333333"/>
<path d="M126.265 108.203L127.855 109.606L129.07 110.354L131.346 111.289L133.653 112.193L136.084 113.222L136.864 113.502L137.892 113.253L138.89 113.627L140.386 114.281L141.727 114.406L143.067 114.531L144.501 114.656L146.465 115.31L148.616 116.651L150.673 116.526L151.958 115.731L151.62 113.641L149.988 113.097L150.112 106.176L153.791 101.251L157.469 100.752L155.038 99.9418L158.841 94.0189L162.332 94.9541L172.744 91.6498L179.852 90.0288L182.034 89.1559L184.216 87.722L186.148 88.096L187.458 87.3479L189.827 87.9714L193.007 87.2855L197.62 88.2831L193.131 82.6096L200.862 75.8762L204.478 78.9935L210.651 79.3052L215.701 77.3101L217.366 75.784L214.08 67.3971L221.125 64.5915L221.881 64.9362L221.187 60.726L227.733 61.5989L227.422 65.7137L224.019 65.9116L224.678 66.2125H225.364L227.733 65.6514L227.172 80.3651L225.115 80.9262L220.828 83.9627L220.813 85.5398L215.825 88.7195L210.962 90.5275L203.855 90.6522L197.121 96.014L192.632 94.3307L189.328 97.8221L187.208 97.1363L185.899 97.6974L184.029 97.2609L181.784 98.882L179.54 99.8171L172.744 101.126L162.706 106.239L157.407 110.977L154.488 114.061L154.508 121.358L153.332 123.65L153.323 124.226L152.949 124.288L150.393 125.66L148.398 125.784L146.434 125.504L144.47 124.6L143.036 124.413L141.664 124.382L140.293 124.257L138.796 123.758L137.768 123.509L136.708 123.883L135.897 123.758L133.435 122.199L131.221 122.075L129.008 121.171L128.042 120.017L126.358 118.708L124.239 118.022L120.56 118.085L118.378 116.9L114.388 117.586L112.33 116.152L110.709 117.399L108.403 115.154L105.597 114.967L104.724 115.653H102.23L98.739 113.783L93.5643 112.785L91.5068 113.658L86.3321 110.79L86.3447 109.026L84.2123 107.486L78.2894 107.985L72.8653 103.62L68.8751 102.373L56.3435 98.5079L51.3558 97.7597L51.4241 96.3078L48.2385 91.7745L43.1261 88.0337L43.5625 79.7416L43.6133 78.7777L37.2656 74.0681L37.179 67.9225L24.2975 61.5989L23.7876 53.3117L20.6814 51.9975L15.8184 48.8802L13.574 46.5111V41.7023L10.9554 39.653V37.8303L7.33935 36.6604L3.59857 34.1665L3.47388 21.9466L6.96527 19.7022L7.71342 24.1911L11.2048 24.0664L11.2752 26.6948L19.0604 26.9343L17.1901 30.0517L16.3777 32.9099L20.1827 33.9171L27.5395 36.2863L30.9062 45.5135L23.3 45.3888L37.7643 52.3716L37.0162 56.3618L45.1212 58.2322L51.2311 60.4766L53.2262 69.9533L43.999 71.4496L48.7373 75.4398L52.3534 79.804L52.1741 83.2103L56.8423 84.6046L68.6881 88.7819L72.7406 90.5275L78.04 94.9541L84.4617 96.6998L87.9531 95.5776L91.6315 100.752L90.0705 103.273L91.6939 103.807L93.8136 103.496L99.0507 104.493L102.729 104.743L104.974 105.179L106.096 105.054L108.901 106.176L110.46 107.673L112.143 107.299L114.201 106.364L118.44 105.865L120.623 107.112L124.239 107.049L126.265 108.203Z" fill="url(#paint0_linear)"/>
<path d="M182.408 34.79L186.133 31.5507L184.403 25.6874L188.393 25.5627L188.892 40.8999L188.144 41.5234L184.278 44.3913L182.408 34.79Z" fill="url(#paint1_linear)"/>
<path d="M161.958 30.9245L161.21 22.4454L154.726 24.1911L156.97 33.4184L161.958 30.9245Z" fill="url(#paint2_linear)"/>
<path d="M153.354 20.575L151.983 12.8441L149.489 12.7194L147.743 21.1985L153.354 20.575Z" fill="url(#paint3_linear)"/>
<path d="M146.122 9.228C145.831 7.89794 144.85 4.34005 143.254 0.748901L139.139 13.4675L146.122 9.228Z" fill="url(#paint4_linear)"/>
<path d="M114.45 9.47738L114.7 3.49214L117.942 3.36745V8.35515L114.45 9.47738Z" fill="url(#paint5_linear)"/>
<path d="M187.496 24.7274L188.154 25.5733L188.461 29.1541L188.395 30L188.286 30.5639L187.891 30.9304L185.128 32.8759L184.58 33.4398L183.966 34.2011L183.878 34.3139L185.018 36.0902L185.128 36.3157L185.654 38.0639L186.005 38.4304L186.356 38.6842L186.619 38.8251L187.365 39.6146L187.672 39.7838L188.045 39.9248L189.295 40.0939L189.602 40.2067L189.865 40.3477L190.545 40.827L191.093 41.0808L191.422 41.1936L191.816 41.2781L192.65 41.3345L195.325 41.2217L195.786 41.3627L196.268 41.5601L197.211 42.3214L197.54 42.5187L201.685 43.7029L202.496 43.7593L202.847 43.7029L203.154 43.6184L203.944 43.2518L204.251 43.1672L204.602 43.139H204.996L205.369 43.1954L205.808 43.3646L206.948 44.0131L207.277 44.3232L207.518 44.577L207.694 44.9999L207.759 45.5074L207.716 47.3401L207.847 48.2988L207.957 48.5807L208.417 49.624L208.724 50.0469L208.988 50.3289L209.251 50.498L210.632 51.0337L210.896 51.2593L211.049 51.5131L211.203 52.3871L211.378 52.8101L211.685 53.0074L212.08 53.1202L213.922 53.2612L214.163 53.4586L214.295 53.7123L214.382 54.0506L214.58 54.248L214.931 54.3608L218.286 54.8683L219.141 54.9247L219.492 54.8965L219.711 54.7555L219.865 54.53L220.084 53.9943L220.238 53.7687L220.479 53.5995L220.786 53.5149L222.803 53.4867L223.308 53.5431L223.593 53.6841L223.746 53.8815L223.966 54.5582L224.01 54.7555V54.9529L223.79 55.0657L223.264 55.2631L223.067 55.404L223.045 55.6014L223.089 55.827L223.308 56.2499L223.571 56.6446L226.795 60.1409L227.431 60.9867L227.628 61.5224L227.409 61.6916L227.102 61.8044L225.742 62.03L222.65 62.1427L222.343 62.2273L222.167 62.4247L222.299 62.8476L222.584 63.045L223.922 63.4397L225.106 64.1728L226.553 64.6803L227.277 65.075L227.606 65.498L227.584 65.639L227.518 65.7517L227.321 65.8927L227.036 66.0055L225.939 66.0901L225.61 66.1465L225.369 66.2874L225.04 66.7104L224.777 66.8796H224.426L220.654 66.372H220.26L219.909 66.4284L219.295 66.5976L218.286 66.795L218.045 66.936L217.869 67.1333L217.738 67.3871L217.628 67.669L217.562 67.9792L217.606 68.4303L217.825 68.825L218.33 69.4171L218.571 69.8683L218.878 70.122L219.733 70.3758L220.303 70.6014L220.457 70.8269V71.0243L220.26 71.3626V71.6446L221.005 72.2931L221.137 72.6032L221.115 72.857L219.558 74.3513L218.001 76.2404L216.159 77.763L215.15 78.3269L211.707 79.5957L210.325 79.7649L203.812 79.6521L203.395 79.5957L202.672 79.3983L201.86 78.919L201.619 78.7498L201.246 78.4115L201.005 78.2987L200.676 78.1859L200.303 78.1577L199.953 78.1859L199.645 78.2705L199.404 78.4115L196.181 80.8927L195.632 81.4848L195.259 82.1333L195.062 82.7254L195.04 83.0919L195.084 83.4021L195.194 83.5994L196.619 85.0374L196.904 85.404L197.299 86.1088L197.628 86.8137L197.847 87.575L197.803 88.0543L197.518 88.4772L195.479 87.716L194.777 87.5186L193.988 87.3776H193.593L193.176 87.4904L192.759 87.6596L192.255 88.0543L192.058 88.3927L191.904 88.7028L191.707 89.2667L191.575 89.4923L191.4 89.6896L191.071 89.8588L190.632 89.9716H189.843L189.426 89.8588L189.141 89.6614L189.097 89.4641L189.163 89.2385L189.338 89.0411L189.799 88.7592L189.952 88.59V88.3927L189.777 88.2517L189.492 88.1107L187.606 87.6878H187.211L186.816 87.8006L186.312 88.0825L185.83 88.2235L184.163 88.1953L183.79 88.2799L183.264 88.4772L182.803 88.7028L182.123 89.1821L181.531 89.7742L181.115 89.9716L180.501 90.1972L175.194 91.4096L172.869 91.6633L161.224 95.3851L160.479 95.2159H160.084L159.733 95.3005L159.536 95.6107V95.8644L159.711 96.3156V96.5693L159.645 96.8231L159.514 97.0486L158.724 97.8663L157.781 98.543L156.18 99.4734L155.961 99.6708L155.808 99.84L155.742 100.037L155.786 100.207L155.895 100.291L155.939 100.348H156.027L156.422 100.404L157.08 100.376L157.387 100.488L157.496 100.658L157.452 100.883L157.189 101.081L156.729 101.222L155.873 101.306L154.667 101.616L153.944 102.011L153.571 102.265L153.308 102.519L153.132 102.716L152.343 104.52L151.751 105.451L151.641 105.705L151.553 105.987L151.465 106.804L151.487 107.058L151.531 107.284L151.619 107.481L151.794 107.678L153.812 108.834L154.009 108.975L154.163 109.173L154.294 109.37L154.382 109.596L154.404 109.849L154.601 110.78L154.492 111.005L154.207 111.259L153.505 111.541L152.211 112.584L152.058 112.782L152.014 113.035V113.289L152.036 113.543L152.145 113.74L152.387 113.881L152.65 114.022L152.957 114.135L153.22 114.276L153.417 114.445L153.439 114.643L153.33 114.84L153.154 115.037L152.957 115.206L151.553 116.109L149.711 117.011L148.812 116.955L146.597 115.319L144.514 114.671L140.983 114.361L139.843 114.107L139.404 113.909L138.593 113.458L138.198 113.317L137.715 113.289L136.772 113.43L136.268 113.346L128.593 110.131L128.001 109.765L126.619 108.468L126.071 108.101L124.996 107.763L123.878 107.65L121.597 107.678L120.413 107.481L118.417 106.269L116.356 106.55L116.202 106.748L115.807 106.973L115.215 107.114L113.943 107.199L113.307 107.312L112.891 107.453L112.737 107.678L112.606 107.932L112.343 109.06L112.233 109.37L112.036 109.624L111.619 109.906H111.312L111.18 109.765L111.093 109.539L111.071 109.314L110.873 108.891L110.281 108.129L110.084 107.932L109.382 107.481L108.834 107.227L106.356 106.522H105.742L105.325 106.607L104.667 107.481L104.36 107.678L103.921 107.819L103.176 107.932L102.781 107.876L102.628 107.678L102.233 107.396L101.531 107.058L98.6145 106.353L98.0881 106.099L97.6714 105.789L96.9258 105.423L94.7986 104.859L93.8337 104.718L93.1978 104.746L93.0004 104.943L92.803 105.197L92.5618 105.451L92.0355 105.676H91.7504L91.553 105.592L91.4434 105.479L91.2241 105.282L90.8732 105.084L89.7328 104.605L89.4477 104.408L89.2942 104.267L89.1408 104.069L87.9565 103.111L87.6934 102.913L86.6627 102.434L86.4434 102.293L86.3337 102.152L86.4653 102.039L87.0793 101.785L87.2767 101.673L87.4521 101.504L87.6056 101.306L87.6496 101.052L87.6276 100.799L87.5398 100.348L87.6056 100.15L87.825 100.037L88.8337 99.8964L89.1188 99.8118L89.3381 99.6708L89.4258 99.4453L89.3601 99.1915L89.031 98.9095L87.4083 98.6558L86.86 98.5148L86.553 98.2893L86.2898 97.7253L86.0048 97.6407L79.8205 97.3588L79.3162 97.105L79.053 97.0204L78.2854 96.2592L78.1758 96.09L78.0661 95.8926L77.803 95.4979L76.531 94.2573L76.0924 93.9472L75.61 93.6652L68.5925 90.4227L51.8818 85.4603L52.0353 82.387L51.9477 81.2592L51.7722 80.7517L48.8556 76.0994L48.5485 75.7329L45.9169 73.5619L45.4564 73.2799L44.7985 72.6596L44.2064 71.9547L44.009 71.5318L43.9651 71.2216L46.4871 68.3739L46.6845 68.1766L46.9257 68.0074L47.1888 67.8664L48.5923 67.2743L48.8117 67.1333L49.009 66.8796L49.2064 66.4848L49.338 65.7517V65.357L49.2722 65.0187L48.7678 63.8345L48.5485 63.5807L48.3073 63.3833L46.5748 62.6502L46.2678 62.4247L46.0046 62.1709L45.6537 61.7198L45.5003 61.4097L45.259 59.5206L45.0397 59.1258L44.7327 58.8157L37.5397 57.1521L37.1669 56.983L36.7064 56.701L36.5309 56.4191L36.4432 56.1653L36.5309 54.4736L36.509 54.0506L36.3993 53.3458L36.2239 53.0074L36.0046 52.7537L33.8116 51.7104L33.5046 51.6259L33.1976 51.6822L32.6493 51.8796L32.3642 51.936H32.123L31.9037 51.8232L31.7283 51.6822L31.4651 51.3721L30.9826 50.9774L30.0835 50.3853L29.8203 50.2725L29.4695 50.1879H29.1405L28.8336 50.2443L28.2195 50.4135L27.9124 50.4698L27.5835 50.4416L27.2984 50.3571L27.0353 50.2161L25.7852 49.2292L23.3949 46.5789L22.9783 45.9304L22.7809 45.4511L22.8906 45.2255L23.0879 45.0281L23.3291 44.9153L23.6362 44.859H23.9871L24.5792 45.0281L24.8642 45.0563L25.1274 44.9999L25.3905 44.8871L25.5879 44.6334L25.6976 44.2951L25.5002 43.139L25.4563 42.8007L25.5002 42.5187L26.0045 41.1654L26.0704 40.7988L26.0923 40.4041L26.0045 39.812L25.8291 39.53L25.5441 39.3326L23.9871 38.7406L23.7019 38.5996L23.2633 38.1484L20.237 34.3985L19.8861 34.3139L19.5572 34.3421L18.5923 34.5676H18.2414L17.8686 34.5394L16.3335 34.1729L15.8949 34.0037L15.3467 33.75L15.1712 33.4962L13.7458 30.5639L13.68 30.141L13.8773 30.0282L16.0704 29.4925L16.3335 29.2669L16.509 28.9567L16.4212 28.1673L16.3116 27.8571L16.1361 27.6316L15.6756 27.406L15.4563 27.2086H15.1931L14.9519 27.265L14.601 27.4342L14.1625 27.6879L13.6362 27.9417L13.0659 28.1673H12.715L12.2764 27.9981L11.1141 26.9267L10.9826 26.8421L10.7414 26.7293L10.0177 26.5601L8.70193 26.3628L8.26331 26.2218L7.80277 25.9116L7.56155 25.5733L7.38614 25.094L7.21061 24.8402L7.01328 24.6146L6.72815 24.4173L5.85098 23.6842L5.43435 23.0075L5.03957 22.5846L4.71067 22.359L4.35979 22.3026L3.72378 22.359L3.06592 22.2744L4.73252 20.6673L4.88608 20.4417L5.0834 20.0752L5.03957 19.8778L4.88608 19.6805L4.68869 19.4831L4.57909 19.2293L4.66677 19.032L4.90799 18.8346L5.89488 17.8759L7.42998 15L11.3115 14.9436L11.6186 15.0564L12.123 15.3102L12.4519 15.3948L12.9124 15.3666L13.4168 15.2256L14.1844 14.859L14.8861 14.3515L16.1142 12.9417L16.5308 12.6034L16.7501 12.4624L17.0133 12.3215L20.9826 11.0809L22.6493 10.9963L23.0879 11.0809L23.3291 11.1936L23.7677 11.5038L23.9651 11.673L24.4036 11.9831L24.6888 12.0677L25.0616 12.0113L26.9695 11.0809L27.43 10.9681H28.3291L28.8116 10.9963L29.1625 11.0809L29.3818 11.1936L29.5572 11.3628L29.7985 11.7575L29.8861 11.9831L29.9958 12.2087L30.0835 12.4342L30.3028 12.8572L30.5879 13.2237L30.7195 13.3083L30.9169 13.4211L32.4081 13.703L38.9871 13.8158L41.4871 13.4493H42.1011L42.452 13.5621L42.6055 13.7594L42.7371 13.9286L43.066 14.0132H45.4126L50.8292 11.9831L51.8599 11.7857L54.1187 11.6166L54.7766 11.4474L55.0836 11.2782L55.3906 11.0245L55.7196 10.4606L56.0704 9.72747L56.3556 9.44552L56.7722 9.16354L58.2196 8.57142L59.3599 8.31767L59.667 8.14847L59.9301 7.92292L60.3468 7.13344L60.6319 6.79509L61.0266 6.54134L61.7942 6.20299L63.3512 5.75186L64.2503 4.99059L66.5529 1.91729L68.9434 2.76315L75.1495 3.1297L75.9389 3.04511L76.1363 2.87594L76.3117 2.67857L76.4433 2.42481L76.5529 2.17105L76.9477 1.8609L77.6494 1.57895L79.3819 1.18421L80.2811 1.09962L80.917 1.12782L81.2021 1.2688L81.4214 1.40977L81.7723 1.60714L82.3205 1.83271L84.0749 2.28384L84.5355 2.45301L104.294 4.65225L109.272 6.03381L109.908 6.09021L110.391 6.03381L110.983 5.52631L112.781 5.21616L115.413 5.07517L116.422 4.82143L116.97 4.59585L116.904 4.37029L116.685 4.20112L114.645 3.43985L114.601 3.41166L114.514 3.32706L114.492 3.18608L114.601 2.96052L114.799 2.79135L115.04 2.65038L118.307 1.57895L120.457 1.15602L121.027 1.18421L121.422 1.297L122.211 1.97368L123.11 2.56579L125.281 3.60902L130.303 4.9342H130.786L131.093 4.84962L131.202 4.62404L131.158 4.39849L131.071 4.17292L131.049 3.94736L131.115 3.7218L131.356 3.52443L131.707 3.32706L132.255 3.15789L132.803 3.18608L134.141 3.41166L134.492 3.32706L134.711 3.15789L134.755 2.93233V2.87594L134.601 2.42481L134.689 2.22744L134.952 2.03008L136.334 1.77631L136.729 1.66353L137.145 1.43798L137.715 1.2124L139.053 1.01504L139.623 0.789481L139.974 0.53572L140.106 0.281966L140.303 0H140.698L142.869 0.451128L143.154 0.56391L143.329 0.761276L143.351 1.01504L143.22 2.34022L143.505 5.61089L143.615 6.09021L143.834 6.51315L144.097 6.90788L145.72 8.23307L148.001 9.81204L150.917 11.3064L151.378 11.6166L151.751 11.9549L152.036 12.3497L152.145 12.5752L152.211 12.8008L152.189 13.0545L152.101 13.3083L151.619 13.9568L151.378 14.4643L151.312 14.7463V15L151.619 16.6635L151.751 17.1147L151.948 17.3684L152.233 17.594L152.759 17.9323L153.154 17.9887L153.439 17.8759L153.593 17.6504L153.834 17.3966L154.185 17.1993L154.908 17.0865L155.347 17.1147L155.676 17.2275L155.873 17.3966L156.027 17.594L156.115 17.7914L156.202 18.2707L156.29 18.5244L156.465 18.75L157.145 19.1166L157.343 19.3139L157.409 19.5395L157.606 19.8496L158.023 20.188L160.479 21.203L160.698 21.344L160.808 21.4286L160.939 21.5696L161.18 21.9361L161.29 22.1335L161.356 22.3872L161.378 22.6128L161.356 22.8947L161.268 23.1485L161.159 23.3741L161.005 23.5432L160.895 23.656L160.72 23.797L160.479 23.9098L160.194 23.9944L158.746 24.1353L158.505 24.2763L158.351 24.5019L158.198 25.3477L158.264 25.6297L158.439 25.968L159.009 26.391L159.251 26.6729L159.36 26.9549L159.338 27.2368V27.5188L159.536 27.8289L159.799 27.8853L160.04 27.8007L160.917 27.265L161.29 27.0958L162.474 26.8139L163.505 26.6729L169.865 27.1241L172.167 27.0113L172.474 26.9267L172.716 26.7857L172.935 26.6165L173.11 26.391L173.22 26.1372L173.33 25.8834L173.461 25.3195L173.571 25.0376L173.812 24.812L174.316 24.6146L174.689 24.6428L175.084 24.7838L176.159 25.2631L176.619 25.3759H176.992L178.132 24.953L179.623 24.0507L181.378 23.8252L187.496 24.7274Z" fill="url(#paint6_linear)"/>
<defs>
<linearGradient id="paint0_linear" x1="-173.439" y1="-7.60835" x2="227.733" y2="63.267" gradientUnits="userSpaceOnUse">
<stop stop-color="#3A90B6"/>
<stop offset="1" stop-color="#075F92"/>
</linearGradient>
<linearGradient id="paint1_linear" x1="-173.439" y1="-7.60835" x2="227.733" y2="63.267" gradientUnits="userSpaceOnUse">
<stop stop-color="#3A90B6"/>
<stop offset="1" stop-color="#075F92"/>
</linearGradient>
<linearGradient id="paint2_linear" x1="-173.439" y1="-7.60835" x2="227.733" y2="63.267" gradientUnits="userSpaceOnUse">
<stop stop-color="#3A90B6"/>
<stop offset="1" stop-color="#075F92"/>
</linearGradient>
<linearGradient id="paint3_linear" x1="-173.439" y1="-7.60835" x2="227.733" y2="63.267" gradientUnits="userSpaceOnUse">
<stop stop-color="#3A90B6"/>
<stop offset="1" stop-color="#075F92"/>
</linearGradient>
<linearGradient id="paint4_linear" x1="-173.439" y1="-7.60835" x2="227.733" y2="63.267" gradientUnits="userSpaceOnUse">
<stop stop-color="#3A90B6"/>
<stop offset="1" stop-color="#075F92"/>
</linearGradient>
<linearGradient id="paint5_linear" x1="-173.439" y1="-7.60835" x2="227.733" y2="63.267" gradientUnits="userSpaceOnUse">
<stop stop-color="#3A90B6"/>
<stop offset="1" stop-color="#075F92"/>
</linearGradient>
<linearGradient id="paint6_linear" x1="124.068" y1="-32.288" x2="129.792" y2="103.803" gradientUnits="userSpaceOnUse">
<stop stop-color="#087FC4"/>
<stop offset="1" stop-color="#44AEDC"/>
</linearGradient>
</defs>
</svg>
