<svg width="179" height="139" viewBox="0 0 179 139" fill="none" xmlns="http://www.w3.org/2000/svg">
<path d="M178.062 32.5L178.437 45.625L176.812 47.4375L175.062 48.125L171.562 58.25L170.625 59.1875C170.27 59.8542 169.575 61.2625 169.625 61.5625C169.675 61.8625 165.895 66.3958 164 68.625L162.125 69.4375L161.125 70.75L160.062 72.4375L157.562 75.1875L156.312 81.3125L156.437 92.625L155.687 97.5625L152.687 104.187C151.708 105.271 149.712 107.337 149.562 106.937C149.362 106.737 147.021 106.271 145.75 105.937L143.875 102.937L141.562 105.062L140.625 105.187C140.225 105.437 136.208 107 134.25 107.75H133.125L129.562 106.687L128.25 107.25L122.687 108.25L121.5 111.187L120.625 111.25L118.187 110.812L116.875 112.437L115.5 114.062L111.062 116.437L106.5 119.687L104.812 121.375L101.25 123.187C100.95 123.237 98.8748 124.5 97.8748 125.125H95.6248L93.2498 124.75L91.8748 124.687L85.7498 129.875L80.7498 131.437L78.7498 127.437L75.7498 124.75L69.625 122.812L66.375 123.625L64.5625 123.375L61.5 122.75L52 128L51.125 128.437L42.9375 128.375C41.5875 128.825 39.8333 129.354 39.125 129.562L37.375 128.5C36.725 128.9 34.7292 129.833 33.8125 130.25L27.0183 128.3L27 131.75L22.4375 137.437L21.1875 136.937L19.125 138.25C15.975 136.9 9.9375 133.354 7.3125 131.75L5.6875 118.687L4.1875 118.812H2.5L0.8125 117.812L0.75 105.687C5.72917 105.604 15.8375 105.562 16.4375 106.062C17.1875 106.687 15.625 113.937 15.5625 114.875C15.5426 115.174 14.6639 117.066 13.4411 119.572C15.5998 119.97 17.4409 120.408 17.625 120.75C17.975 121.4 18.2292 123.187 18.3125 124L21.75 122.187L24.125 119.562L26.75 115.5L34.125 117.312L37.875 115.687L39.125 116.875L42.8125 115.312L51 115.5L51.9375 115.062L61.5625 110.125L64.3125 110.625L66.3125 111L69.5 110.125L75.8123 111.562C74.9998 111 74.0373 109.787 76.6873 109.437C79.3373 109.087 83.0833 108.458 84.625 108.187L84.5625 109.875L83.1248 114.062C83.3332 114.042 83.7123 114.05 83.5623 114.25C83.4123 114.45 83.0415 116.083 82.8748 116.875L80.6873 119.312L85.4373 116.75L91.7498 112.625L93.4373 112.687L95.8123 112.937L97.8748 112.562L101.25 110L104.687 108.25C104.837 108 105.875 107.312 106.375 107L110.687 103.312L115.187 100.625L116.687 99.1875L118.5 98.1875L120.5 98.6875L121.187 98.75L122.625 95.75L128 94.25L129.562 93.875L133 94.9375L134.437 95.0625L141.125 92.125L143.25 89.625C143.812 89.7083 145.037 89.8125 145.437 89.5625C145.453 89.553 145.468 89.5432 145.484 89.5333C145.185 89.0126 144.931 88.5141 144.75 88.0625C143.75 85.5625 142.437 82.6875 143.562 82.1875C144.462 81.7875 149.437 81.3125 151.812 81.125C150.75 80.125 145.25 75.375 144.75 73C144.25 70.625 144.875 68.875 145.437 64.625C146 60.375 145.187 57.75 148.562 56.1875C151.262 54.9375 158.771 54.1667 162.187 53.9375L163.812 48.9375L167.625 48L169 49C168.437 47.875 163.875 42.0625 164.187 41.0625C164.437 40.2625 168.333 38.8125 170.25 38.1875L172.062 34.5625L174.687 31.875L175.562 30.75L178.062 32.5Z" fill="url(#paint0_linear)"/>
<path d="M4.3125 104.437L4.0625 94.125C5.875 94.5 9.675 95.3 10.375 95.5C11.25 95.75 11.0625 96.5 14.3125 101.25C17.5625 106 13.625 103.5 13.5625 104.312C13.5125 104.962 7.375 104.667 4.3125 104.437Z" fill="url(#paint1_linear)"/>
<path d="M7 94.1875L6.75 88.8125C7.54167 89.0833 9.3375 89.7 10.1875 90C11.25 90.375 10.4375 90.875 11 92.375C11.5625 93.875 9.5 93.5 9.1875 93.75C8.9375 93.95 7.625 94.125 7 94.1875Z" fill="url(#paint2_linear)"/>
<path d="M18.625 89.375L18.6875 84.5625C19.375 84.9583 20.9375 86.2625 21.6875 88.3125C22.0875 89.4625 19.8125 89.5 18.625 89.375Z" fill="url(#paint3_linear)"/>
<path d="M23.6875 85.9375L23.625 82.5625C24.125 82.7708 25.4125 83.325 26.5625 83.875C27.7125 84.425 27 84.7292 26.5 84.8125L23.6875 85.9375Z" fill="url(#paint4_linear)"/>
<path d="M53.0625 84.4375L52.9375 73.625L60.2199 72.6065L58.75 72.3125V69.625C60.1042 69.7708 62.9875 70.0625 63.6875 70.0625C64.5625 70.0625 64.75 71.25 64.9375 71.625C65.0479 71.8458 63.5854 72.2155 62.2489 72.495C63.5864 72.9295 65.7956 73.699 66.25 74.0625C66.75 74.4625 67.1667 76.2292 67.3125 77.0625L62.0625 85.375L53.0625 84.4375Z" fill="url(#paint5_linear)"/>
<path d="M58.875 65.25L58.9681 56.967L44.8125 49.4375L44.25 47.3125L41.1875 45.9375L40.625 43L38.9375 42.75L37.125 41.5625L35 43.3125L32.375 42.875L29.9375 42.75L26.5625 44.6875L24.375 43.25V31.5625L24.501 31.5835L23.5625 24.125V12.5625L23.8125 12.375C26.5417 11.3542 32.2625 9.32499 33.3125 9.37499C34.625 9.43749 35.75 12.0625 36.0625 12.8125C36.375 13.5625 34.75 22.9375 34.5625 24.25C34.4981 24.7008 33.2253 27.1805 31.5298 30.3304L32.125 30.375L35.0625 30.3125L37.3125 28.3125L38.6875 29.25L40.6875 29.6875L46.5625 27.5L41.875 33L46.9375 31.0625L45.8125 33.375L45.118 36.6738C46.1372 35.4547 47.9857 33.4609 49.4375 32.625C51.5 31.4375 54.5625 32.8125 58.3125 33.5C62.0625 34.1875 68.375 38.1875 71.875 40.6875C75.375 43.1875 72.125 41.375 74.5625 48.0625C76.26 52.7198 72.2707 53.8312 69.2164 53.821C69.3907 54.0667 69.5419 54.3598 70 54.625C71.1875 55.3125 71.0625 57.375 71.6875 59.625C72.3125 61.875 71.125 62.4375 70.875 63.625C70.7264 64.3307 67.3955 64.8272 64.4795 65.1042C64.7513 65.6486 65.0701 66.2983 65.4375 67.0625C66.6875 69.6625 65.375 69.4792 64.5625 69.0625L59.8125 69V65.2704L58.875 65.25Z" fill="url(#paint6_linear)"/>
<path d="M142.5 21.5L141.375 12.0625C139.833 13.1042 136.5 15.4375 135.5 16.4375C134.5 17.4375 135.542 20.5625 136.188 22L142.5 21.5Z" fill="url(#paint7_linear)"/>
<path d="M31.6943 1.38053L32.1893 1.04697L37.7345 1.34216L40.547 0.873413L52.8907 1.59216L53.672 1.77966L67.5157 4.24841L82.5157 5.31091L95.3907 9.96716L105.641 8.09216L116.891 12.3734L141.328 11.7484L141.797 19.5922L144.453 22.6234L148.359 23.8109L170.531 23.7797L172.578 26.2484L178 32.2953L177.704 32.6391L177.492 32.4572L177.28 32.2752L176.973 32.154L176.596 32.1236L176.29 32.1843L176.054 32.3056L175.794 32.8211L174.852 35.914L174.757 36.7934L174.852 37.3696L175.889 38.0367L176.03 37.9457L176.172 38.158L176.158 38.3744L176.195 38.4309L176.172 38.7948L176.007 39.189L175.535 39.8257L175.299 40.0987L175.04 40.3413L174.309 40.7961L174.026 40.9174L173.673 41.0084L169.83 41.4329L169.571 41.5845L169.478 41.7521L169.5 41.8574L171.48 44.8594L171.551 45.0414L171.598 45.193L171.645 45.6782L171.644 45.6952L171.669 45.9511L171.645 46.2543L171.528 46.6485L171.245 47.1337L170.632 47.8918L170.207 48.2253L169.83 48.4679L168.251 49.0137L167.991 49.1653L167.756 49.3473L167.543 49.5595L166.53 51.288L166.2 51.7125L165.87 51.9854L165.61 52.137L165.375 52.3189L164.762 52.8041L164.573 53.0164L164.385 53.4106L164.219 53.9261L163.937 55.4422L163.724 55.9577L163.253 56.4732L162.923 56.7765L162.64 56.9887L161.839 57.4436L161.65 57.4132L161.367 57.7468L160.495 58.9901L160.094 59.3539L159.717 59.5965L158.09 60.0817L155.379 60.3849L155.049 60.4759L154.766 60.5972L154.507 60.7791L154.248 61.052L153.446 62.4469L153.399 62.5076L152.951 62.7502L152.88 62.8714L152.833 63.0837L153.21 63.7508L153.87 64.6302L153.988 64.9334L154.059 65.3276L154.083 65.9948L154.248 66.298L154.415 66.5133L154.861 66.8135L154.895 66.8641L154.955 66.9044L155.12 67.147V67.4199L154.813 67.8141L154.483 67.9961L153.776 68.178L153.635 68.3903L153.823 68.7845L154.031 69.0218L154.766 69.7245L154.768 69.7269L154.861 69.8155L155.143 70.24L155.12 70.7252L154.931 71.3923L153.658 74.7278L153.564 75.122L153.54 75.5769L153.635 76.335L153.729 76.7595L153.847 77.1234L153.988 77.3356L154.578 78.1847L155.851 79.5492L156.016 79.7615L156.251 80.2164L156.416 80.7015L156.464 80.9441L156.322 81.4596L156.016 82.157L154.224 84.7952L153.611 85.4016L152.126 86.4326L151.843 86.7662L151.089 88.0701L150.57 88.7675L150.452 88.8888L150.358 89.1314L150.334 89.465L150.594 90.0714L150.876 90.3746L151.198 90.5812L152.432 91.0721L152.444 91.079L152.503 91.1024L152.762 91.254L152.975 91.436L153.092 91.6786L152.456 92.7399L149.863 94.5289L149.691 94.4972L146.586 93.9225L146.162 93.7102L145.761 93.407L145.784 93.1341L145.798 93.0388L145.808 92.9218L145.832 92.755V92.4366L145.784 92.0424L145.525 91.4966L145.148 91.254L144.7 91.1024H143.568L143.144 91.1631L142.838 91.3147L142.602 91.4966L142.248 91.9818L141.848 92.8005L141.612 92.9825L141.329 93.1038L140.999 93.2251L139.49 93.4676L138.123 93.8012L137.51 94.0438L136.331 94.6502L135.836 95.0141L135.435 95.2567L134.728 95.5599L134.186 95.6509H133.691L132.842 95.4993L131.498 94.9535L130.155 94.5289H129.636L129.212 94.5593L127.844 95.287L122.917 96.4393L122.799 96.5303L122.517 96.7729L122.352 96.9851L122.21 97.2277L122.19 97.3578L122.21 97.5916L122.281 98.1071V98.4103L122.257 98.5013V98.6226L122.187 98.8955L121.951 99.1987L121.597 99.32L121.196 99.3807L120.796 99.32L119.24 98.8045L118.438 98.7135L118.038 98.8348L117.778 99.0774L117.684 99.3503L117.566 99.9568L117.354 100.29L117.024 100.624L116.246 101.048L115.821 101.352L115.586 101.655L115.515 101.928L115.138 102.322L114.501 102.656L111.342 104.111L111.177 104.354L111.107 104.627L111.13 105.112L111.107 105.263L111.012 105.476L110.871 105.688L110.682 105.9L110.258 106.143L106.91 107.538L106.439 107.871L105.826 108.478L105.284 109.145L104.859 109.418L104.199 109.751L101.512 110.813L101.276 110.964L100.404 111.692L99.956 112.056L98.6358 112.814L98.0701 113.026L97.5514 113.148L95.8776 113.178L95.4061 113.148L94.5103 112.966L93.9209 112.905L92.978 112.935L92.3179 113.087L91.87 113.238L90.7384 113.845L90.2434 114.178L87.108 116.938L85.835 117.817L84.2791 118.363L80.7665 119.242V119.212V117.12L80.5779 116.817L80.1772 116.453L79.7057 116.271L79.1399 115.877L78.9985 115.513L78.9749 115.179L78.9767 115.175L78.9749 115.149L79.0927 114.876L79.2106 114.603L79.5642 114.118L79.965 113.693L80.2007 113.511L80.7665 113.117L81.0258 112.875L81.2832 112.453L81.2616 112.147L81.0966 111.844L80.7665 111.51L80.4365 111.419L80.1772 111.51L79.4228 111.995L78.8334 112.268L76.7353 112.723L76.3582 112.753L75.9338 112.723L75.4387 112.632L71.1482 111.086L70.3466 110.873L69.9223 110.843L69.4744 110.813L69.0972 110.873L68.7436 110.934L66.8105 111.54L66.1269 111.48L65.1839 111.328L63.2508 110.722L62.355 110.57L61.6949 110.54L59.9268 111.298L52.9724 115.543L52.4066 115.816L51.4165 116.089L43.2834 116.119L42.0811 116.24L41.421 116.453L40.2659 117.09L39.8415 117.302L39.1107 117.514H38.6628L38.3564 117.393L37.932 116.938L37.5313 116.726H37.2012L36.8712 116.817L35.2446 117.696L34.8438 117.848L34.2309 117.999L33.7829 117.969L33.5236 117.848L33.1936 117.635L32.7457 117.393L31.0247 117.029L29.5632 116.483L27.8894 116.089L27.0879 115.998L26.5456 116.059L26.3703 116.234L26.2628 116.392L25.7205 117.484L25.5319 118.03L25.5791 118.302L25.6498 118.545L25.8384 118.727L26.0506 118.909L26.8285 119.394L27.0171 119.576L27.1114 119.788L27.0879 120.031L26.9962 120.125L26.9935 120.152L26.4631 120.698L26.357 120.88L26.3013 120.935L26.2628 121.001L25.9563 121.304L25.4848 121.608L23.3631 122.305L23.1913 122.428L23.1038 122.578L23.0095 122.851V123.124L23.0566 123.67L23.0095 123.943L22.868 124.579L22.7266 124.883L22.538 125.186H22.5191L22.4437 125.307H22.208L21.7365 124.974L21.3357 124.761L20.4399 124.61L19.992 124.67L19.7711 124.836L19.7091 124.883L19.5912 125.156L19.2932 126.188L19.2848 126.217L14.5228 123.973L8.51132 119.91L7.94553 119.333L7.61549 117.544V117.271L7.63905 116.695L7.85124 115.513L8.60559 113.815V113.451L8.34628 113.117L7.14398 112.026L6.9554 111.601V111.267L7.16759 111.086L9.31282 109.903L9.80789 109.539L9.99649 109.327L10.1851 109.115L10.303 108.72L10.3265 108.174L10.1615 107.204L9.94936 106.719L9.69002 106.416L9.40714 106.264L9.0771 106.143L8.34628 105.931L7.92197 105.87H7.52118L6.76683 105.961L4.85728 106.567L4.1265 106.689L3.27783 106.719L3.27201 106.718L3.25424 106.719L1.86334 106.567L0.94397 106.234L0.63032 105.588L0.590332 105.506L4.99875 103.171L6.60179 102.11L7.49762 101.412L8.08696 101.139L8.72348 101.018L9.38358 100.957L10.3265 100.745L10.798 100.351L11.0102 99.9871L11.0332 99.6617L10.9866 99.502L10.798 99.32L10.468 99.1987L9.2421 98.9561L8.91206 98.8348L8.67632 98.6832L7.16759 96.6212L6.57823 96.0451L5.61166 95.378L4.52725 94.7715L4.26793 94.5896L4.05577 94.3773L3.9379 94.0741L3.94496 94.062L3.91431 93.9831L4.05577 93.7405L4.33865 93.6496H4.73944L5.98886 93.8315H6.41321L6.79039 93.7709L7.09686 93.6496L7.37975 93.498L7.63905 93.3463L8.20485 92.8915L9.4543 91.6482L9.56144 91.5104L9.50142 91.3753L9.33641 91.2237L8.8885 90.8598L6.97899 89.7379L6.71968 89.5256L6.50748 89.1617L6.51422 89.1227L6.48392 89.0708L6.53105 88.7979L6.74324 88.5553L7.04971 88.2823L7.49762 87.9488L7.87482 87.7669L8.252 87.7365H8.60559L11.7646 88.4643L16.9745 89.0708L17.5167 89.0101L18.1061 88.8888L18.9076 88.4946L19.2848 88.1611L19.5205 87.8275L19.5912 87.494L19.6384 87.221L19.6619 86.9481L19.6191 86.6999L19.5677 86.5236L19.3791 86.0384L18.6483 84.9468L18.637 84.8741L18.6247 84.8558L18.5775 84.5526L18.6954 84.1281L18.9547 83.9158L19.3319 83.7945L24.2118 84.4919H24.6833L25.2726 84.3403L25.4377 84.1281L25.4231 83.9974L25.2019 83.8552L23.6932 83.1577L23.4574 82.9455L23.4516 82.8704L23.4338 82.8545L23.4103 82.5513L23.6224 82.0661L24.1882 81.6112L24.424 81.2473L24.49 80.9926L24.2354 80.3376V80.3074L24.2118 80.2467V79.9738L24.3297 79.6402L24.589 79.5796L24.8247 79.6705L25.7441 80.368L26.5692 80.7925L28.0072 81.217L29.681 81.5809H30.2704L30.9776 81.4899L33.1229 80.7622L35.551 80.3073L38.3092 79.4886L39.8651 78.8518L41.3267 78.4273L44.9571 78.5789L45.8294 78.7305L46.1594 78.8518L47.126 79.5492L48.3283 80.6409L48.4697 80.8531L48.4761 80.9183L48.4933 80.9441L48.4877 81.038L48.4933 81.0957L48.4823 81.1289L48.4697 81.3383L48.4065 81.5282L48.5405 81.6719L48.8469 81.8235L51.5344 82.248L51.9116 82.339L52.2416 82.4603L52.7838 82.7938L54.0804 83.8552L54.6226 84.1584L55.0234 84.2797L55.4949 84.3706H56.2021L56.6029 84.2494L56.8622 84.0371L57.758 81.7325L57.923 81.4899L58.1588 81.2473L58.4652 80.9744L58.9367 80.6409L59.4789 80.1254L59.6204 79.8828L59.7338 79.6494L59.7618 79.3067L59.7383 79.0338V78.7608L59.6204 77.4266L60.0918 74.6975L60.1154 74.4853L60.1372 74.4107L60.139 74.3943L60.2097 74.1517L60.3748 73.8485L60.7991 73.3633L61.1527 73.0904L61.2682 73.044L52.9375 73.542L53.1686 73.4386L52.9611 73.451L56.2144 71.9955L56.7802 71.8135L57.1573 71.7529H57.5581H57.9353L59.2554 72.0258H59.892L60.2691 71.9045L60.5285 71.7529L60.9764 71.3284L60.9882 71.3056L60.9528 71.2677L60.5756 71.0555L58.9726 70.4793L58.6897 70.3277L58.6425 70.0245L58.7074 69.9202L58.6189 69.8728L58.5718 69.5696L58.8547 69.1148L59.8212 68.296L61.6129 67.3257L61.9901 67.0831L62.1315 66.8102L62.2258 66.5373L62.273 66.2644L62.2943 66.127L62.2022 65.9612L61.8722 65.7186L61.6364 65.4456L61.33 65.2334L60.2927 64.6573L60.0334 64.4753L59.892 64.2327V63.9295L59.9012 63.915L59.8212 63.7779V63.4746L60.1513 62.9591L60.4577 62.7166L60.8585 62.5649L65.7855 62.3223L66.3513 62.2314L66.9407 62.0798L67.9072 61.6552L68.2608 61.3217L68.4023 61.0184L68.3316 60.503L68.3135 59.829L68.2137 59.6236L68.0487 59.4417L67.8601 59.2597L67.6951 59.0474L67.6243 58.8049L67.5793 58.4382L67.5536 58.35L67.5279 58.1405L67.4829 57.9861L67.3885 57.7435L66.4692 56.5003L65.3848 55.5906L64.8661 55.2873L64.5833 55.1357L64.2532 55.0448H63.4752L62.768 55.1054L62.5559 55.1661L61.8251 55.4996L61.5186 55.5603H61.1414L59.4676 54.9841L59.1612 54.8325L58.9726 54.6506L58.9961 54.317L59.0026 54.2929L58.9019 54.1957L58.9254 53.8622L59.444 51.9215L59.5855 51.4969L59.9391 51.3453L64.819 50.9208L65.3612 50.6782L66.2335 50.2234L66.9171 49.5259L67.2471 49.0408L67.3885 48.6162L67.5301 47.8582L67.5414 47.7118L67.4357 47.4943L67.2471 47.282L64.0175 44.8865L58.9961 42.9761L58.7368 42.8245L58.5247 42.6425L58.2418 42.218L57.5493 41.5718L47.0647 38.3446L46.5948 38.0615L45.2731 37.6775L45.0609 37.4956L44.8487 37.3136L44.7309 37.1014L44.6837 36.8284L44.6772 36.6772L44.6601 36.6465L44.613 36.3736L44.5976 36.0162L44.4951 35.8581L44.3537 35.7368L44.1415 35.6155L42.8214 35.1607L42.2084 34.8574L41.9963 34.7058L41.8077 34.4935L41.5483 34.0387L41.4776 33.7961L41.5154 33.6502L41.4776 33.5839L41.4069 33.3413L41.5483 32.7955L41.8548 32.0374L42.6799 30.5212L42.749 30.1654L42.4913 30.2483L41.3597 30.7941L41.0533 30.9154L40.6997 30.9761L40.2989 31.0064L39.4031 30.9457L38.9787 30.8548L38.6251 30.7335L38.3422 30.5819L38.1301 30.3999L37.9886 30.1876L37.8943 29.9451L37.7764 29.7328L37.5407 29.5812L37.2343 29.5509L36.9042 29.6115L36.6213 29.7631L36.362 29.9754L35.8905 30.6122L35.6548 30.7941L35.1361 31.1277L34.8297 31.2186L34.476 31.2793H34.0989L33.7217 31.249L32.3308 30.7941L31.4821 30.7031L30.6099 30.6728L29.8083 30.7335L29.1247 30.8851L28.1817 31.1883L27.9224 31.3703L27.7102 31.5825L27.5216 31.7948L27.0501 32.5529L26.838 32.7651L26.5787 32.9167L26.2722 32.9774H25.9422L25.6593 32.8864L25.4 32.7651L25.1878 32.5832L24.9756 32.4012L24.6691 31.9767L24.5513 31.7645L24.5041 31.4915V31.1883L25.3056 28.6108L25.3528 28.3076L25.3056 27.4889L25.3528 26.9127L25.5414 26.003L25.9657 24.8204L26.1543 24.214L26.1754 23.9426L26.1543 23.6985L26.1072 23.4559L25.5885 21.5152L25.5178 20.9087V20.8481V20.5752V20.5145L25.7064 19.4229L25.895 19.0287L26.1072 18.7558L26.5551 18.3616L27.0737 18.0583L28.3231 17.4519L28.7475 17.1183L29.384 16.4209L29.5962 15.9963L29.6371 15.7073L29.549 15.4809L29.384 15.2686L29.1482 15.117L28.8654 14.9654L27.6867 14.6621L27.3802 14.5105L27.2152 14.2982L27.1444 14.0557L27.1209 13.7827L27.0501 13.5402L26.8851 13.3885H26.6022L25.8714 13.4492H25.4471L24.5984 13.2976L24.2684 13.1763L24.009 13.0247L23.8205 12.8124L23.7026 12.6001L23.6319 12.3576L23.6083 12.0846L23.679 11.2659V9.90137L23.9383 8.68843L24.3627 7.29356L24.3809 7.25067L24.6456 6.62645L24.8813 6.1716L25.5178 5.50449L29.1718 2.62378L31.6943 1.38053Z" fill="url(#paint8_linear)"/>
<defs>
<linearGradient id="paint0_linear" x1="-137.411" y1="0.760142" x2="61.4975" y2="57.8439" gradientUnits="userSpaceOnUse">
<stop stop-color="#3A90B6"/>
<stop offset="1" stop-color="#075F92"/>
</linearGradient>
<linearGradient id="paint1_linear" x1="-137.411" y1="0.760142" x2="61.4975" y2="57.8439" gradientUnits="userSpaceOnUse">
<stop stop-color="#3A90B6"/>
<stop offset="1" stop-color="#075F92"/>
</linearGradient>
<linearGradient id="paint2_linear" x1="-137.411" y1="0.760142" x2="61.4975" y2="57.8439" gradientUnits="userSpaceOnUse">
<stop stop-color="#3A90B6"/>
<stop offset="1" stop-color="#075F92"/>
</linearGradient>
<linearGradient id="paint3_linear" x1="-137.411" y1="0.760142" x2="61.4975" y2="57.8439" gradientUnits="userSpaceOnUse">
<stop stop-color="#3A90B6"/>
<stop offset="1" stop-color="#075F92"/>
</linearGradient>
<linearGradient id="paint4_linear" x1="-137.411" y1="0.760142" x2="61.4975" y2="57.8439" gradientUnits="userSpaceOnUse">
<stop stop-color="#3A90B6"/>
<stop offset="1" stop-color="#075F92"/>
</linearGradient>
<linearGradient id="paint5_linear" x1="-137.411" y1="0.760142" x2="61.4975" y2="57.8439" gradientUnits="userSpaceOnUse">
<stop stop-color="#3A90B6"/>
<stop offset="1" stop-color="#075F92"/>
</linearGradient>
<linearGradient id="paint6_linear" x1="-137.411" y1="0.760142" x2="61.4975" y2="57.8439" gradientUnits="userSpaceOnUse">
<stop stop-color="#3A90B6"/>
<stop offset="1" stop-color="#075F92"/>
</linearGradient>
<linearGradient id="paint7_linear" x1="-137.411" y1="0.760142" x2="61.4975" y2="57.8439" gradientUnits="userSpaceOnUse">
<stop stop-color="#3A90B6"/>
<stop offset="1" stop-color="#075F92"/>
</linearGradient>
<linearGradient id="paint8_linear" x1="122.5" y1="172.5" x2="61.6748" y2="-85.488" gradientUnits="userSpaceOnUse">
<stop stop-color="#59BDE4"/>
<stop offset="0.260417" stop-color="#43A9D5"/>
<stop offset="0.697917" stop-color="#0B77B0"/>
<stop offset="1" stop-color="#015E94"/>
</linearGradient>
</defs>
</svg>
