<svg width="190" height="170" viewBox="0 0 190 170" fill="none" xmlns="http://www.w3.org/2000/svg">
<path d="M95.5403 47.6269V60.2465L98.5379 54.7368V42.1173L95.5403 47.6269ZM91.6231 47.0748V59.6944L95.5403 60.2465V47.6269L91.6231 47.0748ZM86.6964 48.7143V61.3338L91.6231 59.6916V47.072L86.6964 48.7143ZM75.8699 50.9058V63.5254L86.6964 61.3338V48.7143L75.8699 50.9058ZM168.328 123.173V135.793L172.602 129.311V116.691L168.328 123.173ZM167.137 128.453V141.073L169.366 139.43V126.811L167.137 128.453Z" fill="url(#paint0_linear)"/>
<path d="M189.75 144.062L189.812 157.875L188.312 158.563L187.062 158.5L183 157.438L180.812 157.875L178.75 157.938L177.594 157.906L176.938 159.438C174.646 158.813 170.062 157.488 170.062 157.188L168.938 160.125L165 159.125L164.562 159.563L163.5 159.063L161.125 159.5L159.875 159.438L156.688 158.5L153.688 161.375L151.562 160.813L150 163.438L148.937 163.813L145.75 162.75L143.937 165.063L140.937 166.188L134.25 165.375L132.125 165.563L129.625 167.25L126.937 166.375L125.25 168.625H114.312L112.125 169.25L111 169.813L110.25 168.125L109.5 167.313L108.437 161.125L107.812 160.5L106.125 160.75L105.625 161.125L104.187 161.188L102.5 159.063L100.25 151.438L93.875 147.125L93.0625 140.188L90.5 139.25L89.25 141.062L86.5625 141.312L83.875 143L81.875 143.25L80.375 144.625C79.725 144.825 79.0208 144.708 78.75 144.625L73.625 143.688L70.5625 141.812L69.25 141L65.8125 141.75L64.9375 144.625L58.75 145.75L57.25 146.313H56.3125L51.625 144.875L30.0625 142.438L27.8125 141.938L26.1875 141.188L25.1875 141L20.6875 143.312C19.8375 143.262 15.5 143.167 13.4375 143.125L10.6875 142.375L10.75 129.875L13.4375 130.25L20.8125 130.063L25.125 128.5H26.125L27.8125 129.25L30.0625 129.188L51.8125 131.938L56.75 133.25L58.375 132.813L64.75 132.5L61.25 131.188C60.8958 131 60.325 130.55 60.875 130.25C61.5625 129.875 61 129.5 62.5625 129.188C64.125 128.875 65.625 128.563 66 128.625C66.3 128.675 68.2916 128.479 69.25 128.375L70.625 128.625L73.875 130.188C74.1666 130.229 74.85 130.313 75.25 130.313C75.65 130.313 77.8333 130.771 78.875 131L79.75 130.875L81.6875 130.125L84.0625 129.75L86.625 127.688L88.9375 126.875L90.4375 126L91.75 125.813L93.0625 126.313L93.1875 127.813L95.25 125.938C95.8958 126.583 97.15 127.938 97 128.188C96.85 128.438 94.8958 132.833 93.9375 135L105.062 133.125L107.812 141.688L106.721 145.257C109.015 144.661 111.678 144.042 112.187 144.188C113.062 144.438 114.125 147 115.25 148.875C116.15 150.375 115.542 152.583 115.125 153.5L113.125 155.313L112.925 155.976L114.625 155.563L125.062 154.563L127.125 152.125L129.5 153.813L131.937 153L134.312 152.438L140.75 152.875L143.25 151.188L145.562 150.063L147.437 148.5L148.312 150.938L149.062 150.5C148.413 149.85 150.5 148.646 151.625 148.125L153.688 148L156.75 146L160 145.875L161.125 146.25L163.5 145.5L164.562 145.563L165.062 145.625L167.125 145.188L170.188 144L174.188 144.625L174.5 144.563L176.5 145L178.75 145.25L180.625 144.938L183.062 144.5L187 145.063L187.812 144.688L189.75 144.062Z" fill="url(#paint1_linear)"/>
<path d="M13.5 125.125L13.5625 121.375L14.25 122.688C14.3958 122.958 14.7125 123.6 14.8125 124C14.9125 124.4 13.9792 124.917 13.5 125.125Z" fill="url(#paint2_linear)"/>
<path d="M14.6875 121.688L14.6793 120.445L14.625 120.438L11.9375 115.625L11.6875 111.5L12.625 106.875L11.1875 107.438L5.125 105.438L5.5625 104.688L5.6875 104.125L1 102.625V90.625C2.1875 89.75 4.7125 87.9375 5.3125 87.6875C6.0625 87.375 8.5 86.375 15.125 85.5625C21.75 84.75 19.6875 86.75 22.625 88.1875C25.5625 89.625 24.3125 90.125 24.9375 92.125C25.5625 94.125 24.6875 96.8125 25.8125 100.312C26.9375 103.812 28.0625 107.875 30.125 111.5C31.775 114.4 27.4375 119.583 25.0625 121.812L16.5697 120.694L14.6875 121.688Z" fill="url(#paint3_linear)"/>
<path d="M4.4375 83.375V71.375L7.95924 72.2554L6.4375 70.625L9.375 61.25L9.125 58.5625L9.875 56.4375L7.6875 54.375V42.0625C9.77083 42.6042 14.1 43.775 14.75 44.125C15.5625 44.5625 16.9375 46.5 18.875 48.5625C20.8125 50.625 21.25 53.6875 24.3125 60.125C27.375 66.5625 21.9375 66.25 21.125 67.6875C20.475 68.8375 17.6875 71.2917 16.375 72.375L11.2048 73.9813C11.7094 74.398 12.2345 74.8595 12.6875 75.3125C13.7875 76.4125 14.1875 79.3959 14.25 80.75L5.4375 86.5L4.4375 83.375Z" fill="url(#paint4_linear)"/>
<path d="M25.1875 34.125L24.25 28.25L23.0625 24.375L23.5 12.875L29.6875 13.8125L28.9321 16.6371C31.3906 16.8127 34.1455 17.1779 36.0625 17.875C40.1875 19.375 37.875 18.9375 40.1875 19.8125C42.5 20.6875 40.5625 21.5625 41.6875 26.3125C42.5875 30.1125 39.2708 31.7708 37.5 32.125L25.1875 34.125Z" fill="url(#paint5_linear)"/>
<path d="M24.265 16.5863L24.2485 16.5278L24.2414 16.5257L24.0528 15.8586L23.5106 12.5533L27.2747 8.92365L28.9485 7.71072L29.6086 7.01328L29.7264 6.46746L29.8207 5.16356L29.9386 4.61774L30.2686 4.19322L31.0938 3.37449L31.2588 2.91964L31.3766 1.79768L39.2577 5.01727L46.5233 2.12665L55.4452 0.173523L58.7264 0.720398L65.8983 8.93915L69.6796 14.7048L74.3202 21.6891L80.6952 27.2048L88.3983 33.7048L98.4452 42.1891L95.4921 47.5641L91.6171 47.0641L86.6014 48.6735L75.6639 50.9548L82.7264 56.0173L84.6952 61.7204L91.6796 81.9391L96.9921 79.4079L100.617 80.5329L116.195 81.1891L116.742 84.861L120.117 86.4704L148.383 82.3298L148.805 85.1266L152.836 95.111L163.93 94.2985L164.211 100.486L172.555 116.752L168.32 123.252L169.398 126.783L166.992 128.533L172.898 134.892L178.773 137.299L180.492 142.041L189.757 143.832L189.686 144.287L189.615 144.53L189.498 144.833L189.333 145.106L189.167 145.272L189.12 145.318L188.861 145.47L188.437 145.621L187.847 145.712L186.716 145.803L185.372 145.743L183.132 145.409L182.614 145.47L181.907 145.621L180.846 146.016L178.795 146.198L176.555 145.985L176.39 146.046L176.298 146.114L176.367 146.38L176.532 146.561L177.074 146.956L177.239 147.138L177.192 147.32L177.132 147.339L177.121 147.38L176.838 147.471L176.225 147.35L171.345 145.591L170.567 145.379L170.12 145.349H169.695L169.318 145.44L169.128 145.595L169.012 146.016V146.319L169.129 147.411V147.653L169.035 147.926L168.823 148.138L168.807 148.144L168.752 148.199L168.422 148.32L167.88 148.29L167.432 148.199L165.664 147.592L165.287 147.532L164.792 147.592L163.731 147.219L161.279 147.613L160.477 147.583L159.911 147.492L159.581 147.371L158.096 146.946L157.2 146.855L156.305 146.825L155.786 146.977L155.298 147.215L154.654 147.795L154.324 148.25L154.112 148.644L153.994 148.947L153.876 149.22L153.664 149.433L153.647 149.44L153.594 149.493L153.311 149.615L152.816 149.493L151.755 149.099L151.236 149.19L150.705 149.487L149.869 150.251L149.68 150.676V151.009L149.822 151.222L149.892 151.464L149.845 151.707L149.727 151.95L149.421 152.222L149.044 152.344L148.407 152.253L147.629 151.98L146.71 151.555L146.191 151.252L145.979 151.07L145.767 150.949H145.46L145.13 151.131L144.588 152.071L144.352 152.738L143.928 153.071L143.574 153.314L141.052 154.315L140.136 154.18L134.428 153.526L132.542 153.769L130.939 154.739L129.713 155.194H129.312L128.817 155.073L127.662 154.557L127.237 154.406L126.837 154.375L126.294 154.588L126.035 154.83L125.929 155.103L125.823 155.558L125.813 155.582L125.776 155.74L125.658 156.013L125.54 156.286L125.352 156.528L125.116 156.71L124.856 156.862L124.526 156.953L122.051 157.074L115.215 156.589L114.107 156.741L112.834 157.044L112.433 157.226L111.49 157.802L111.231 157.893L110.948 157.832L110.735 157.499V157.195L110.759 156.892L110.641 156.589L110.382 156.286L109.769 155.831L109.58 155.467L109.51 155.164L109.675 154.254L109.694 154.226L109.722 154.072L109.887 153.83L110.146 153.678L111.702 153.526L112.008 153.435L112.268 153.314L112.456 153.162L112.574 153.041L112.739 152.859L112.857 152.617L112.909 152.467L112.928 152.222L112.904 151.98L112.834 151.707L112.716 151.495L112.456 151.1L112.315 150.949L112.197 150.858L111.961 150.706L109.321 149.615L108.873 149.251L108.661 148.917L108.59 148.675L108.378 148.462L107.647 148.068L107.459 147.826L107.364 147.553L107.27 147.037L107.176 146.825L107.011 146.613L106.799 146.431L106.445 146.309L105.974 146.279L105.195 146.4L104.818 146.613L104.559 146.886L104.394 147.128L104.087 147.249L103.663 147.189L103.097 146.825L102.791 146.582L102.579 146.309L102.437 145.824L102.107 144.035V143.762L102.178 143.459L102.187 143.439L102.225 143.277L102.484 142.731L103.003 142.034L103.055 141.882L103.074 141.67L103.003 141.427L102.885 141.185L102.579 140.76L102.178 140.396L101.683 140.063L98.5476 138.456L96.0958 136.757L94.3514 135.332L94.0684 134.908L93.8328 134.453L93.7148 133.937L93.4084 130.42L93.5498 128.995L93.5262 128.722L93.3376 128.51L93.0312 128.388L90.6973 127.903H90.2729L90.0609 128.206L89.9194 128.479L89.5422 128.752L88.9293 128.995L87.4913 129.207L86.8783 129.45L86.4304 129.692L86.006 129.813L84.5209 130.086L84.238 130.299L84.2054 130.372L84.3558 130.814V130.875L84.3087 131.117L84.2948 131.128L84.2615 131.299L84.0259 131.481L83.6487 131.572L82.2106 131.33L81.6212 131.299L81.0318 131.481L80.6547 131.693L80.3954 131.906L80.3733 131.982L80.3954 132.209L80.4897 132.452L80.5368 132.694L80.4779 132.815L80.4897 132.876L80.3718 133.119L80.0417 133.21H79.5231L74.1246 131.784L71.7908 130.663L70.8242 130.026L69.9755 129.298L69.5511 129.177L68.9382 129.146L66.628 129.601L63.1155 130.753L62.8561 130.905L62.6439 131.087L62.5832 131.212L62.5968 131.299L62.691 131.39L62.7382 131.421L64.9306 132.239L65.1664 132.421L65.2371 132.664L65.1476 132.701L65.1899 132.846L64.6005 133.088L63.5162 133.361L60.6872 133.513L58.7542 133.846L58.1176 134.392L57.599 134.453L56.9154 134.392L51.564 132.906L30.3236 130.541L29.8285 130.359L27.9426 129.874L27.3532 129.632L26.976 129.419L26.7403 129.268L26.4338 129.116L25.7502 129.086L24.7836 129.177L22.9213 129.601L22.1669 129.904L21.7426 130.238L21.6247 130.511L21.4832 130.784L21.2946 130.996L21.0825 131.178L20.2338 131.269L13.5623 130.875L10.9927 129.965L11.0742 129.795L13.1615 125.447L13.7273 123.809L13.8216 122.93L13.798 122.627L13.7037 122.384L13.468 121.808L13.3737 121.353L13.468 121.08L13.7037 120.868L14.4344 120.535L14.8824 120.201L15.0474 119.928L15.1182 119.625V118.564L15.2125 117.805L15.4954 117.351L15.8726 117.017L16.3676 116.774L16.8862 116.441L17.4756 115.925L17.6406 115.44L17.617 114.985L17.4339 114.724L17.1691 114.591L16.6505 114.44L15.7547 114.015L15.6408 113.929L15.5661 113.894L14.8824 113.378L14.6231 113.075L14.4581 112.56L14.3638 111.832L14.3402 110.528L14.4344 109.8L15.849 105.737L16.0611 105.403L16.2969 105.161L16.5326 105.009L16.9569 104.888L17.3812 104.675L17.9471 104.069L18.1357 103.553L18.23 103.159L18.1828 102.613L18.1121 102.341L18.0886 100.794L18.2772 100.036L18.1592 99.6418L17.9827 99.4398L16.6977 98.7624L16.6227 98.701L16.509 98.6411L16.2498 98.4289L16.0376 98.1256L15.9904 97.8527L16.0376 97.5798L16.1555 97.3675L17.1927 96.5488L17.452 96.3972L17.9 96.0636L18.8665 94.8204L19.3851 93.9713L19.2908 93.6984L19.1965 93.6378L19.1964 93.6377L18.4421 93.4255L17.5934 93.2739L17.2398 93.3042L17.0041 93.4862L15.7076 95.4269L15.4954 95.6391L15.2125 95.7604L14.8353 95.821L11.2285 95.3662L9.76678 94.9114L9.08319 94.6384L8.77667 94.4565L8.71043 94.4078L8.58813 94.3352L8.25806 94.0926L8.18732 93.85L8.30524 93.6681L9.27173 93.1829L9.62537 92.8494L9.69611 92.5765L9.62537 92.3339L9.50335 92.2162L9.36603 92.1519L9.03607 92.1216L7.64508 92.3945L7.22076 92.3642L6.79645 92.3036L4.15613 91.5455L1.51581 91.0603L1.16217 90.8784L1.16472 90.8554L0.973633 90.7571L0.997192 90.5448L1.09143 90.3326L2.6474 88.5131L2.81238 88.2099L3.00098 87.7551L2.93024 87.4518L2.7417 87.0273L2.38806 86.4512L2.34088 85.5111L2.43518 85.0866L2.69458 84.8137L6.18347 84.0556L6.48999 83.8434L6.77283 83.6311L6.96149 83.0853V82.782L6.82001 81.9633L6.89081 81.5388L7.05573 81.2659L8.94171 80.5988L9.24817 80.4168L9.50751 80.1439L9.53107 79.9013L9.43677 79.6284L9.03607 78.7794L9.05957 78.4155L9.22461 78.1426L9.43677 77.9303L9.62537 77.6574L9.57819 77.4148L9.41321 77.2329L8.54089 76.7477L8.23444 76.5051L7.92804 76.1109L7.95154 75.7167L8.06946 75.3225L8.30524 74.716V74.3825L8.23444 74.0793L8.06946 73.8973L7.81012 73.7457L7.50346 73.6612L6.89081 73.6851L6.8292 73.6801L6.70215 73.6851L6.32489 73.6547L5.99487 73.5334L5.78278 73.2302L5.49988 72.745L4.86334 71.987L4.53333 71.5321L4.41547 71.2895L4.39191 71.1379L4.48615 70.956L4.93408 70.2585L5.14618 70.0463L5.38196 69.8946L5.75916 69.834L5.85632 69.8487L5.94775 69.834L6.34851 69.8946L6.72571 69.9553L6.96149 70.1069L7.07935 70.1979L7.22076 70.3495L7.71588 71.2289L7.88086 71.4108L8.11658 71.5624L8.39948 71.714L8.77667 71.8353L9.20099 71.896H9.86108L11.2991 71.6837L11.9592 71.4715L12.2421 71.2895L12.5015 71.0469L12.7136 70.5921L12.69 70.2282L12.6193 69.8037L12.4307 69.2579L12.4778 68.894L12.6429 68.6211L12.8786 68.4088L13.0908 68.1662L13.1379 68.0146L13.0672 67.8327L12.5721 67.5598L12.2185 67.1959L12.1213 66.8623L12.0771 66.8017L11.7234 65.71V65.6191V65.1945V65.1036L11.9121 64.77L12.2185 64.6487L12.5486 64.4971L12.8786 64.2848L13.185 63.8906L13.2032 63.6573L13.1379 63.4055L12.4778 62.0106L12.4949 61.9557L12.4778 61.9196L12.525 61.768H12.7607L14.7881 62.4048L15.2596 62.4958L15.519 62.5261L15.7076 62.4654L15.7547 62.4351L16.6977 61.5861L16.8363 61.3567L16.7448 61.1919L16.5798 60.9796L16.344 60.7977L14.9767 60.0396L14.6938 59.7364L14.4817 59.2815L14.3402 58.3718L14.3501 58.3443L14.3402 58.2808L14.4817 57.8866L14.741 57.644L15.8726 57.4015L16.2969 57.2498L16.3831 57.0558L16.3676 56.9163L16.1791 56.704L15.8961 56.5524L15.5897 56.4008L15.2596 56.1885L15.0003 55.8853L14.5995 53.0955L14.4817 52.7923L14.2695 52.5801L13.9158 52.5194L13.5386 52.3678L13.185 52.1252L12.9729 51.4884L12.9811 51.4222L12.9729 51.3974L13.0672 50.6394L14.1045 49.669V48.9716L10.3326 46.667L9.83759 46.2122L9.36603 45.6967L8.51746 44.0592L8.1402 43.5437L7.66864 42.0882L7.6843 42.0456L7.66864 41.9972L8.28162 40.3294L9.34241 38.9649L10.2148 38.3888L11.4877 37.8429L12.0771 36.7816L12.8079 35.7506L14.4776 35.4179L14.4581 34.9925L13.963 34.1435L14.0103 34.1336L13.963 34.0525L15.2596 33.7796L18.2772 33.8706L19.0315 33.537L21.3418 32.1725L22.3083 31.8693L23.8878 31.7176L27.6125 30.8079L28.2783 29.981L28.1076 29.3221L27.0468 28.1698L26.5753 28.0182L26.597 27.9342L26.5753 27.9272L26.6224 27.7453L26.811 27.5937L27.0939 27.4117L27.4003 27.1692L27.7304 26.7446L27.8483 26.4111L27.8914 26.1338L27.754 23.9246L27.7586 23.9069L27.754 23.8336L27.8718 23.3787L28.1076 23.1058L28.4141 23.0149H28.7205L28.9327 23.1362L29.0977 23.3181L29.2391 23.5304L29.3806 23.7426L29.6636 23.8942L30.0406 23.9549L30.913 23.9852L32.4689 23.8336L33.9069 23.6517L34.2841 23.4394L34.6376 23.1058L35.0385 22.3781L35.2034 21.9232L35.2742 21.529L35.2325 21.3144L35.1328 21.1348L34.8263 21.0438L32.7518 21.0135L32.3746 20.9226L32.1152 20.7709L31.9503 20.5587L31.8323 20.3464L31.6673 20.1341L31.4788 19.9522L30.7008 19.467L29.4278 18.3451L27.8483 17.4051L27.5183 17.2838L24.5715 16.6773L24.265 16.5863Z" fill="url(#paint6_linear)"/>
<defs>
<linearGradient id="paint0_linear" x1="0.656087" y1="35.5032" x2="102.041" y2="44.4972" gradientUnits="userSpaceOnUse">
<stop stop-color="#3A90B6"/>
<stop offset="1" stop-color="#075F92"/>
</linearGradient>
<linearGradient id="paint1_linear" x1="20" y1="-188" x2="84.377" y2="147.11" gradientUnits="userSpaceOnUse">
<stop stop-color="#3A90B6"/>
<stop offset="1" stop-color="#075F92"/>
</linearGradient>
<linearGradient id="paint2_linear" x1="20" y1="-188" x2="84.377" y2="147.11" gradientUnits="userSpaceOnUse">
<stop stop-color="#3A90B6"/>
<stop offset="1" stop-color="#075F92"/>
</linearGradient>
<linearGradient id="paint3_linear" x1="20" y1="-188" x2="84.377" y2="147.11" gradientUnits="userSpaceOnUse">
<stop stop-color="#3A90B6"/>
<stop offset="1" stop-color="#075F92"/>
</linearGradient>
<linearGradient id="paint4_linear" x1="20" y1="-188" x2="84.377" y2="147.11" gradientUnits="userSpaceOnUse">
<stop stop-color="#3A90B6"/>
<stop offset="1" stop-color="#075F92"/>
</linearGradient>
<linearGradient id="paint5_linear" x1="20" y1="-188" x2="84.377" y2="147.11" gradientUnits="userSpaceOnUse">
<stop stop-color="#3A90B6"/>
<stop offset="1" stop-color="#075F92"/>
</linearGradient>
<linearGradient id="paint6_linear" x1="104" y1="173" x2="61.5881" y2="-56.5017" gradientUnits="userSpaceOnUse">
<stop stop-color="#59BDE4"/>
<stop offset="0.260417" stop-color="#43A9D5"/>
<stop offset="0.697917" stop-color="#0B77B0"/>
<stop offset="1" stop-color="#015E94"/>
</linearGradient>
</defs>
</svg>
