<svg width="132" height="145" viewBox="0 0 132 145" fill="none" xmlns="http://www.w3.org/2000/svg">
<path opacity="0.1" d="M129.289 29.4089L127.733 29.8334L127.474 29.9547L127.356 30.1063L127.544 30.2579L127.851 30.3792L130.255 30.9554L130.868 31.2283L131.363 31.5618L131.576 31.7438L131.741 31.956L131.811 32.2593L131.764 32.5928L131.434 33.1386L131.08 33.4115L130.703 33.5632L129.949 33.6541L127.356 33.6845L127.049 33.8058L126.861 33.9877L126.813 34.2606L127.002 34.5638L127.214 34.7761L127.45 34.9884L128.299 35.4432L128.487 35.6858L128.534 35.9587L128.181 36.7775L127.969 37.0807L127.756 37.2626L127.474 37.4142L126.177 37.8084L125.894 37.9601L125.729 38.142L125.776 38.4149L126.153 38.7788L126.531 38.9607L126.979 39.082L127.898 39.2033L128.228 39.3549L128.417 39.6278L128.228 40.2343L127.992 40.5679L127.686 40.7801L123.631 41.5079L123.018 41.7201L122.759 41.8717L122.499 42.0234L122.311 42.2053L122.169 42.4176L122.122 42.6298L122.146 42.9331L122.688 44.0854L122.924 44.8131L122.947 45.086L122.9 45.4196L122.688 45.8744L122.099 46.6931L122.052 46.9964L122.099 47.3299L122.452 47.8454L122.782 48.1183L123.702 48.6035L123.937 48.7551L124.15 48.9674L124.315 49.1797L124.409 49.3919L124.432 49.7558L124.385 50.2106L124.15 50.9991L123.961 51.4539L123.772 51.7875L123.678 52.0907V52.4546L123.914 53.0307L124.126 53.334L124.362 53.5765L125.965 54.5166L126.153 54.6985L126.318 54.9108L126.578 55.3656L126.648 55.6082L126.672 56.0934L126.625 56.7605L126.389 58.125L126.153 58.7618L125.894 59.1863L125.069 59.5805L124.81 59.7625L124.598 59.9444L124.22 60.369L124.079 60.6419L124.055 60.9754L124.126 61.3393L124.432 61.8548L124.692 62.158L124.951 62.4309L126.79 63.5226L127.026 63.7045L127.191 63.8865L127.238 64.22L127.167 64.5839L126.861 65.1904L126.578 65.5239L126.271 65.7362L125.423 66.1607L125.187 66.3123L124.951 66.4942L124.763 66.7368L124.621 66.9794L124.385 67.5252L123.914 69.3143L123.584 70.1634L123.419 70.406L123.183 70.5576L122.924 70.7092L120.967 71.2853L120.684 71.4066L120.448 71.5582L120.283 71.7099L120.166 71.8615L119.01 73.3776L118.916 73.5899L118.845 73.7415L118.822 74.0751L118.893 74.5299L119.199 75.3183L120.283 77.1377L120.755 78.4113L121.226 80.2914L121.439 80.6855L121.674 80.9585L123.348 81.8378L123.56 82.0501L123.678 82.323L123.702 82.6869L123.631 83.4449V84.0818L123.985 85.416L124.008 85.8102L123.961 86.1438L123.537 86.9928L123.442 87.387L123.466 87.7206L123.702 88.236L123.914 88.5696L124.102 88.8425L124.833 89.6309L124.928 89.8735V90.2071L124.645 90.6922L124.15 91.2381L124.032 91.5716L123.961 92.0264L123.914 92.7239L123.702 93.0575L123.442 93.2697L122.358 93.4517L121.721 93.6639L121.415 93.7852L121.156 93.9368L120.92 94.1188L120.755 94.3917L113.637 94.7556L113.613 95.271L113.472 95.9988L119.953 97.0601L119.906 97.3937L119.953 97.7576L113.236 98.3034L113.472 98.6066L114.203 99.2131L114.344 99.4253L114.368 99.6982L114.203 100.032L113.684 100.79L113.566 101.063L113.401 101.669L113.425 102.033L113.519 102.397L114.439 104.004L114.533 104.247L114.58 104.52L114.533 104.853L114.25 105.399L113.991 105.702L113.708 105.884L119.906 106.309L119.435 106.642L119.223 106.855L119.058 107.067L119.01 107.431L119.105 107.886L119.529 108.644L113.142 109.553L113.331 109.978L113.283 110.069L119.765 110.493L118.916 110.615L118.657 110.766L118.562 111.039L118.869 111.646L118.94 111.979L118.822 112.343L118.515 112.495L115.832 112.707L115.643 112.919V113.192L116.185 113.799L116.374 114.132L116.468 114.466L116.374 115.102L116.232 115.466L116.044 115.77L115.855 115.982L115.69 116.224L115.572 116.467V116.74L115.737 116.922L116.185 116.952L116.963 116.831L117.293 116.801L117.576 116.922L117.694 117.164L117.623 117.559L117.246 118.468L116.728 120.652L116.751 120.985L116.845 121.349L117.765 122.38L117.977 122.562L118.236 122.714L119.627 123.199L119.91 123.35L119.981 123.532L119.792 123.775L119.439 123.866L118.613 123.927L118.307 124.018L118.189 124.23L118.048 124.715L117.859 124.927L117.435 125.291L117.27 125.503L117.246 125.807L117.458 126.11L118.307 126.807L118.59 127.11L118.731 127.444L118.59 127.808L118.213 128.323L118.071 128.566L118.024 128.839L117.93 130.203L117.859 130.476L117.741 130.78L117.293 131.538L117.175 131.841L117.105 132.114L117.199 132.447L117.505 132.842L118.307 133.387L118.896 133.63L119.439 133.751L119.886 133.782L120.264 133.903L120.429 134.115L120.358 134.449L120.217 134.752V135.055L120.358 135.358L120.947 135.662L121.372 135.722L121.725 135.631L122.197 135.267L122.409 135.237L122.621 135.328V135.783L122.598 136.086L122.527 136.298L122.385 136.511L121.772 137.117L121.584 137.329L121.56 137.602L121.678 137.906L122.244 138.3L122.645 138.512L124.036 139.088L124.366 139.24L125.002 139.695L125.921 140.15L126.11 140.331L125.898 140.604L125.591 140.726L125.214 140.756L124.908 140.847L124.766 141.12L124.955 141.666L125.426 142.666L117.369 144.304L115.483 144.728L108.456 144.546L120.169 143.879L118.425 143.061L117.553 142.818L116.28 142.697L98.0598 143.03L95.891 142.03L95.726 140.028L96.0089 138.057L95.1837 137.117L93.18 136.905L92.9442 137.208L92.8499 138.209L93.0385 139.028L93.5336 139.786L94.5472 140.938L93.5571 141.787L92.237 141.817L90.9168 141.302L89.856 140.513L89.1252 139.513L89.1487 138.724L90.0446 136.45L89.9974 136.935L90.2331 135.601L90.0681 134.631L89.4316 134.206L88.2765 134.479L87.9229 134.873L87.4985 135.995L87.1213 136.238H86.4377L84.7168 135.601L83.8209 136.086L82.6894 137.451L81.4635 137.936L80.2848 137.997L79.1296 137.845L75.735 136.814L75.7114 136.632L75.8528 135.995L75.6171 135.571L74.2498 134.236L73.0475 133.6L72.3167 132.417L71.2794 131.75L69.2285 132.508L68.6862 133.084L68.4269 133.721L68.0969 134.206L67.2718 134.358L66.5174 133.933L66.1167 132.265L65.598 131.841L62.4862 131.507L60.9067 131.113L60.0581 130.598L60.1759 130.203L60.6474 129.84L60.9303 129.294L60.5531 128.475L59.9402 127.869L59.728 127.747L59.7988 127.596L59.9637 126.929L60.2467 126.504L60.6946 126.322L60.8124 125.898L60.1759 124.806L59.7516 124.533L57.8656 123.684L55.8854 122.259L54.7067 121.834L52.8915 121.592L51.6892 121.288L50.1097 120.561L48.6952 119.712L47.9644 118.923L48.5538 118.559L49.0017 118.104L49.7089 117.164L49.096 117.043L48.0352 116.619L47.5873 116.497L46.9272 116.649L46.8329 117.104L46.9036 117.589L46.6914 117.892L45.5127 118.014L44.5933 117.771L43.7447 117.407L42.8488 117.195L41.4108 117.255L41.0336 117.589L41.1279 118.195L41.1515 119.105L40.9157 120.106L40.7036 120.166L40.1849 119.894L39.0533 119.954L35.1636 122.107L33.2305 122.441L32.594 120.591L33.537 119.439L37.6625 118.923L39.3127 118.044L35.5644 116.649L33.8906 116.558L31.9575 117.68L31.8868 116.437L32.429 114.557L33.2777 112.828L34.1028 112.01L34.1735 111.494L33.1362 111.373L32.264 111.524L30.5902 112.282L29.9301 112.737L29.4351 113.192L29.1286 113.768L28.9164 114.557L28.4921 115.406L27.8556 115.8L26.9833 115.254L25.4981 113.404L25.1917 112.737L25.2152 112.04L25.8754 110.888L25.9225 110.19L25.3096 109.675L21.7262 108.007L20.6418 107.825L17.6479 108.067L16.422 107.946L15.4555 107.37L14.5832 106.218L14.3239 105.581V105.126L14.2532 104.702L13.876 104.216L13.3338 103.883L11.0707 103.155L10.3634 102.761L10.2927 102.7L10.1513 102.458L10.0806 102.215L10.1041 101.972L10.1513 101.7L10.2927 101.457L10.5285 101.305L10.9057 101.214L11.2828 101.184L11.7307 101.214L12.5558 101.396L14.5125 102.185L15.2433 102.367L15.6441 102.397L16.0213 102.367L16.3749 102.306L16.6578 102.154L16.8935 102.003L17.1057 101.821L17.2471 101.578V101.336L17.1764 101.093L17.035 100.881L16.9171 100.669L16.8464 100.396V100.123L16.8935 99.5466L16.8699 99.2131L16.7521 98.8492L16.4456 98.3337L16.1392 98.0305L15.8091 97.8182L13.6639 97.4543L12.3672 96.9388L11.9901 96.9085L11.6129 96.9388L11.2828 97.0298L10.6699 97.3027L10.3634 97.4543L10.0334 97.5756L9.63268 97.6362L8.97256 97.5756L8.64253 97.424L8.43034 97.2117L8.26535 96.9995L8.28891 96.8175L8.24174 96.5446L8.28891 96.2717L8.35962 95.9685L8.54825 95.3923L8.61897 95.0891L8.66609 94.8162V94.5433L8.26535 93.6033L8.21819 93.391L8.26535 93.1484L8.38322 92.9058L8.59538 92.6936L8.83113 92.5116L9.98627 91.9962L10.222 91.8445L10.4342 91.6323L10.5756 91.3897L10.6935 91.1168L10.7642 90.8438L10.8114 90.5406L10.835 90.2677L10.8114 89.9948L10.6935 89.4793L10.5049 88.8122L10.2927 88.2664L10.057 87.9631L10.0098 87.9328L8.57181 87.5083L8.26535 87.2657L8.10031 87.0231L8.05319 86.7502V85.9012L7.88815 84.5669L7.74672 84.0514L7.62885 83.8392L7.55812 83.5966L7.51096 83.3237L7.55812 83.0508L7.67599 82.7779L7.84099 82.5353L8.24174 82.1107L8.38322 81.8682L8.40678 81.5346L8.07675 80.8068L7.77028 80.352L6.8273 77.9868L5.90791 76.5312L0.933731 70.4363L1.9946 69.193L2.37177 68.344L3.05542 66.1L3.40906 65.7362L3.83336 65.5846L4.72919 65.6755L5.12997 65.7665H5.71931L6.40298 65.7059L19.1567 61.9154L19.6046 61.7032L21.8677 59.3986L22.3864 58.7012L22.5278 58.4586L22.8814 57.9734L24.673 56.1237L25.0974 55.8508L25.4746 55.6992L25.8046 55.7598L25.9932 55.9114L26.1582 56.1237L26.3704 56.3056L26.7476 56.3966L27.5962 56.4876L28.2328 56.4572L28.6571 56.3663L30.2602 55.8508L30.7552 55.5779L31.1088 55.305L31.2503 55.0624L31.3446 54.7895L31.3681 54.5166L31.321 54.274L31.2503 54.0617L31.0852 53.8191L30.048 52.6062L29.6708 51.9391L29.6001 51.6662L29.6236 51.3933L29.7179 51.1203L30.3309 49.9074L30.6373 49.4222L30.991 49.21L31.4153 49.119L34.7393 48.9977L35.5172 48.9068L36.2009 48.7551L41.458 48.3609L41.8351 48.3003L44.4283 47.5422L45.9842 47.3299L46.4085 47.239L47.8466 46.7538L48.2473 46.6931L49.3082 46.6628L50.039 46.5719L51.312 46.2383L51.9249 45.9957L52.3492 45.7531L52.5614 45.5409L52.75 45.3286L52.8679 45.086L52.9151 44.8131L52.8915 44.5705L52.7972 44.2976L52.7029 44.055L52.4671 43.6002L52.4436 43.3273L52.5614 42.9634L52.9622 42.4176L53.3158 42.175L53.7401 42.0537H54.7303L55.4139 41.9627L55.744 41.7808L55.909 41.5382V41.2653L55.8618 41.0227L55.7675 40.7801L55.6261 40.5679L54.8717 39.8098L54.7303 39.5975L54.5181 39.1427L54.3531 38.9304L54.1409 38.7788L52.7265 38.0207L52.4907 37.8387L52.1135 37.4749L51.9721 37.2323L51.9485 37.111L51.8542 36.7775L51.9014 36.2923L52.2078 35.2309L52.3257 34.958L52.6086 34.7458L53.0565 34.6851L53.9523 34.8367L54.3531 35.049L54.8245 35.3826H55.0603L55.2489 35.0793L55.3903 34.7761L55.5318 34.1393L55.5789 33.8664L55.5318 33.3206V33.0477L55.6261 32.7748L55.7675 32.5322L55.9797 32.3806L58.1014 31.6831L58.5729 31.3799L58.8793 31.0767L59.0208 30.8341L59.6102 30.2276L59.6337 29.985L59.5394 29.7728L59.3508 29.5908L58.5729 29.1057L58.3607 28.9237L58.1721 28.7418L58.1014 28.4992L58.0542 28.2263L58.2428 27.6805L58.785 26.5888L58.9501 26.3462L59.1622 26.134L59.7044 26.0733L60.506 26.1643L62.1797 26.5585L63.6413 27.1043L65.3623 27.4682L65.8102 27.7108L66.1402 27.923L66.3996 28.0443L66.8474 28.0747L67.4604 27.923L67.8611 27.7714L69.4878 26.892L69.8178 26.8011H70.1478L70.5486 27.0133L70.9729 27.4682L71.2794 27.5895H71.7273L72.4581 27.3772L72.8825 27.1649L74.0376 26.5282L74.6977 26.3159L75.9 26.1946L84.0331 26.1643L85.0232 25.8914L85.589 25.6185L92.5434 21.3732L94.3115 20.6151L94.9716 20.6454L95.8674 20.7971L97.8005 21.4035L98.7435 21.5551L99.4271 21.6158L117.36 21.0093L117.714 20.9487L117.997 21.0093L118.445 21.0396L118.869 21.07L119.67 21.2822L123.961 22.8287L124.456 22.9197L124.88 22.95L125.258 22.9197L127.356 22.4648L127.945 22.1919L128.699 21.7068L128.959 21.6158L129.289 21.7068L129.619 22.0403L129.784 22.3436L129.807 22.6771L129.548 23.1016L129.289 23.3442L128.723 23.7384L128.487 23.9204L128.087 24.3449L127.733 24.83L127.615 25.103L127.497 25.3759L127.521 25.7094L127.662 26.0733L128.228 26.4675L128.699 26.6495L129.1 27.0133L129.289 27.3166V29.4089Z" fill="#333333"/>
<path d="M7.84766 62.625L7.91016 50.6875L17.9727 53.6875C18.4935 54.6667 19.7477 57.2875 20.5977 59.9375C21.4477 62.5875 20.1602 65.125 19.4102 66.0625L23.0977 74.3125C23.9518 74.9167 25.7602 76.175 26.1602 76.375C26.6602 76.625 28.4727 77.9375 30.2227 79.375C31.6227 80.525 28.8477 83.4792 27.2852 84.8125L17.5352 82.1875L19.0352 83.1875L21.6602 84.5L23.2852 85.625L27.7852 87.25C29.2227 86.9792 32.5977 86.45 34.5977 86.5C37.0977 86.5625 35.3477 87.6875 36.1602 89C36.8102 90.05 33.9727 91.7708 32.4727 92.5L35.2227 94.5625L35.7852 94.5L36.4727 92.75C37.4935 91.375 40.0852 88.675 42.2852 88.875C45.0352 89.125 44.0977 89.9375 44.5977 90.8125C45.0977 91.6875 42.5352 93.6875 41.7852 94.5625C41.1852 95.2625 39.8685 96.1875 39.2852 96.5625C40.9727 96.0625 44.5227 95.05 45.2227 95C46.0977 94.9375 46.4727 96.0625 47.5352 97.25L48.0352 96.375L49.0977 96L49.4102 95.9375L52.5352 97.3125L53.7227 96.875L53.2227 94.0625C53.4518 94.0417 54.7102 94.25 57.9102 95.25C61.9102 96.5 58.1602 95.8125 59.2852 98.375C60.4102 100.938 55.9727 99.625 55.5977 99.6875C57.0143 100.021 59.9352 100.688 60.2852 100.688C60.6352 100.688 61.5143 100.896 61.9102 101L64.7852 102.438C65.7852 102.479 67.9977 102.625 68.8477 102.875C69.6977 103.125 70.1602 104.938 70.2852 105.812C69.9518 106.875 69.2602 109.088 69.1602 109.438C69.0941 109.669 68.6973 109.967 68.3154 110.203L72.4727 107.875L74.8477 111.938L76.3477 111.438L78.5977 110.438L80.2227 112.125C81.2435 112.875 83.2977 114.438 83.3477 114.688L86.5977 116.438L86.9102 116.375L87.5352 116.562L89.4727 116.438L92.0977 114.688C92.6602 114.604 93.8602 114.425 94.1602 114.375L96.2852 113.25C96.8477 113.167 98.1852 113.162 99.0352 113.812C100.098 114.625 99.1602 115.125 99.0977 115.812C100.014 115.417 102.123 114.8 103.223 115.5C104.598 116.375 104.16 117.188 104.785 118.688C105.41 120.188 104.723 120.938 104.723 121.938C106.077 121.604 108.86 120.938 109.16 120.938C109.163 120.938 109.166 120.938 109.169 120.94L113.723 122.312C114.378 122.211 115.565 122.031 116.425 121.915L115.348 120.75L119.098 120.688L119.15 124.186L119.348 124.438L119.66 136.188L117.348 137L113.973 136.125L109.41 134.562L105.098 135.375L102.723 133.875L102.66 129.188L102.16 129.25L101.66 133.188L100.473 133.938L98.2227 133.25L96.2852 126.312C96.1852 126.713 95.2852 127.938 94.8477 128.5H93.8477L92.0977 127.75L89.7852 129.312L87.4102 130.062L86.2852 130L82.8477 128.75L80.2852 125.875L78.6602 123.5L76.4727 124L75.2227 126.438H74.4102L72.7227 123.938L67.1602 122.438L64.6602 115.625L61.9102 113.938L55.4102 111.25L53.7227 110.062C53.4518 110.042 52.8102 110.012 52.4102 110.062L49.5352 109.062L48.7852 108.938L48.1602 112.5L46.3477 112.25L42.4102 114.25L40.2852 114.625L39.0352 109.5L38.0977 104.875L37.6602 104.625L36.5352 105.375L35.5977 107.375L34.9727 107.438L32.2852 104.312L28.0352 100.062L23.4102 100.125L21.7227 99.125C21.2643 98.9375 20.2727 98.55 19.9727 98.5C19.6727 98.45 19.1393 97.9375 18.9102 97.6875L16.7852 94.4375L15.2852 89.625L15.1602 76.8125L15.4727 76.375L15.2852 73.4375L13.9102 72.8125L13.5977 71.1875L11.0977 69.25L7.84766 62.625Z" fill="url(#paint0_linear)"/>
<path d="M115.535 119.438V115.688L113.098 117.375L114.285 118.625L115.535 119.438Z" fill="url(#paint1_linear)"/>
<path d="M112.91 103.688V113.062L111.848 114.75L104.973 112.125C104.577 111.479 104.06 109.963 105.16 109.062C106.258 108.164 107.946 104.824 108.656 103.258C107.002 102.876 105.019 102.165 105.098 101.188C105.223 99.625 103.16 96.625 104.098 95.0625C104.848 93.8125 106.993 91.875 107.973 91.0625L108.169 91.0033L105.91 85.75L108.761 85.2342L107.41 83.375C106.014 80.2917 103.36 74.0625 103.91 73.8125C104.598 73.5 106.223 72.625 108.098 72.25C108.735 72.1225 109.741 72.2087 110.808 72.3867L112.329 71.7498C111.248 68.9583 110.178 66.5181 109.535 65.875C107.848 64.1875 98.5977 58.25 98.8477 55.625C99.0977 53 99.7852 49.6875 100.41 49.375C101.035 49.0625 108.348 46.1875 109.348 45.8125C110.148 45.5125 115.598 44.6875 118.223 44.3125L118.16 56.1875L116.348 59.25L114.629 62.4375L114.348 65.6562L114.098 68.4375L115.91 70.25L116.066 80.7188L115.91 81.9375L114.785 85.125L112.501 89.4707L112.535 95.4375L111.473 98.6875L109.948 103.383L112.91 103.688Z" fill="url(#paint2_linear)"/>
<path d="M119.598 32.1562L118.004 33.4062L117.191 36.6136C117.372 36.4814 117.541 36.3588 117.691 36.25L117.754 44.0312C116.473 43.75 113.879 43.1063 113.754 42.7812C113.598 42.375 112.785 40.75 112.91 40.5625C113.035 40.375 113.223 39.7812 113.535 39.4062C113.675 39.2381 114.561 38.5583 115.539 37.8299C114.246 37.7378 112.752 37.3993 112.41 36.5C111.816 34.9375 108.566 29.8125 108.16 27.5625C107.754 25.3125 106.723 23.4688 107.41 22.625C108.098 21.7812 109.816 19.8125 110.691 19.8438C111.07 19.8573 112.817 19.8409 114.754 19.8165L113.66 17.0312C113.212 16.0208 112.429 13.9187 112.879 13.5938C113.441 13.1875 116.723 13.5312 117.316 13.4375C117.791 13.3625 121.118 12.7188 122.723 12.4062L122.754 25.3438L119.598 32.1562Z" fill="url(#paint3_linear)"/>
<path d="M120.285 11.5695V11.7188C120.183 11.6984 120.058 11.6725 119.921 11.6433C117.83 12.0637 115.025 12.5623 114.941 12.3125C114.816 11.9375 114.098 10.875 114.66 8.65625C115.223 6.4375 115.004 5.9375 115.691 4.78125C116.241 3.85625 118.066 3.64583 118.91 3.65625L120.91 2.625L121.066 11.4062C120.831 11.4566 120.567 11.5117 120.285 11.5695Z" fill="url(#paint4_linear)"/>
<path d="M58.8477 28.3125C58.8477 24.5 58.8852 16.825 59.0352 16.625C60.056 17.375 62.6227 19.1 64.7227 20C67.3477 21.125 65.3477 20.9375 65.3477 21.25C65.3477 21.5625 63.6602 23.875 61.8477 26.5625C60.3977 28.7125 59.2435 28.625 58.8477 28.3125Z" fill="url(#paint5_linear)"/>
<path d="M65.2227 13.3125V8.25L66.0977 7.5C66.2435 7.64583 66.8477 8.275 68.0977 9.625C69.6602 11.3125 68.7852 11.3125 69.4102 13C69.9102 14.35 66.8268 13.7708 65.2227 13.3125Z" fill="url(#paint6_linear)"/>
<path d="M36.9727 38.5L36.7227 31.8125C37.3268 31.9583 38.6727 32.4375 39.2227 33.1875C39.9102 34.125 39.3477 34.625 39.4102 35.9375C39.4602 36.9875 37.806 38.0833 36.9727 38.5Z" fill="url(#paint7_linear)"/>
<path d="M120.289 9.52L118.733 9.94452L118.474 10.0658L118.356 10.2174L118.544 10.369L118.851 10.4903L121.255 11.0665L121.868 11.3394L122.363 11.6729L122.576 11.8549L122.741 12.0672L122.811 12.3704L122.764 12.7039L122.434 13.2498L122.08 13.5227L121.703 13.6743L120.949 13.7652L118.356 13.7956L118.049 13.9169L117.861 14.0988L117.813 14.3717L118.002 14.675L118.214 14.8872L118.45 15.0995L119.299 15.5543L119.487 15.7969L119.534 16.0698L119.181 16.8886L118.969 17.1918L118.756 17.3737L118.474 17.5253L117.177 17.9195L116.894 18.0712L116.729 18.2531L116.776 18.526L117.153 18.8899L117.531 19.0718L117.979 19.1931L118.898 19.3144L119.228 19.466L119.417 19.7389L119.228 20.3454L118.992 20.679L118.686 20.8912L114.631 21.619L114.018 21.8313L113.759 21.9829L113.499 22.1345L113.311 22.3164L113.169 22.5287L113.122 22.741L113.146 23.0442L113.688 24.1965L113.924 24.9242L113.947 25.1971L113.9 25.5307L113.688 25.9855L113.099 26.8043L113.052 27.1075L113.099 27.4411L113.452 27.9565L113.782 28.2294L114.702 28.7146L114.937 28.8663L115.15 29.0785L115.315 29.2908L115.409 29.503L115.432 29.8669L115.385 30.3218L115.15 31.1102L114.961 31.565L114.772 31.8986L114.678 32.2018V32.5657L114.914 33.1418L115.126 33.4451L115.362 33.6877L116.965 34.6277L117.153 34.8096L117.318 35.0219L117.578 35.4767L117.648 35.7193L117.672 36.2045L117.625 36.8716L117.389 38.2361L117.153 38.8729L116.894 39.2975L116.069 39.6917L115.81 39.8736L115.598 40.0555L115.22 40.4801L115.079 40.753L115.055 41.0865L115.126 41.4504L115.432 41.9659L115.692 42.2691L115.951 42.5421L117.79 43.6337L118.026 43.8156L118.191 43.9976L118.238 44.3311L118.167 44.695L117.861 45.3015L117.578 45.635L117.271 45.8473L116.423 46.2718L116.187 46.4234L115.951 46.6054L115.763 46.848L115.621 47.0905L115.385 47.6364L114.914 49.4254L114.584 50.2745L114.419 50.5171L114.183 50.6687L113.924 50.8203L111.967 51.3965L111.684 51.5177L111.448 51.6694L111.283 51.821L111.166 51.9726L110.01 53.4888L109.916 53.701L109.845 53.8526L109.822 54.1862L109.893 54.6411L110.199 55.4295L111.283 57.2489L111.755 58.5224L112.226 60.4025L112.439 60.7967L112.674 61.0696L114.348 61.9489L114.56 62.1612L114.678 62.4341L114.702 62.798L114.631 63.5561V64.1929L114.985 65.5271L115.008 65.9213L114.961 66.2549L114.537 67.1039L114.442 67.4981L114.466 67.8317L114.702 68.3472L114.914 68.6807L115.102 68.9536L115.833 69.742L115.928 69.9846V70.3182L115.645 70.8034L115.15 71.3492L115.032 71.6827L114.961 72.1376L114.914 72.835L114.702 73.1686L114.442 73.3808L113.358 73.5628L112.721 73.775L112.415 73.8963L112.156 74.0479L111.92 74.2299L111.755 74.5028L111.637 74.8667L111.613 75.3822L111.472 76.1099L110.953 77.1712L110.906 77.5048L110.953 77.8687L111.236 78.4145L111.472 78.7177L112.203 79.3242L112.344 79.5365L112.368 79.8094L112.203 80.1429L111.684 80.901L111.566 81.1739L111.401 81.7804L111.425 82.1443L111.519 82.5081L112.439 84.1153L112.533 84.3578L112.58 84.6308L112.533 84.9643L112.25 85.5101L111.991 85.8134L111.708 85.9953L110.906 86.4198L110.435 86.7534L110.223 86.9657L110.058 87.1779L110.01 87.5418L110.105 87.9967L110.529 88.7547L111.142 89.6644L111.331 90.0889L111.283 90.1799L110.765 90.6045L109.916 90.7258L109.657 90.8774L109.562 91.1503L109.869 91.7567L109.94 92.0903L109.822 92.4542L109.515 92.6058L108.832 92.818L108.643 93.0303V93.3032L109.185 93.9097L109.374 94.2432L109.468 94.5768L109.374 95.2136L109.232 95.5775L109.044 95.8807L108.855 96.093L108.69 96.3356L108.572 96.5782V96.8511L108.737 97.033L109.185 97.0633L109.963 96.942L110.293 96.9117L110.576 97.033L110.694 97.2756L110.623 97.6698L110.246 98.5795L109.728 100.763L109.751 101.096L109.845 101.46L110.765 102.491L110.977 102.673L111.236 102.825L112.627 103.31L112.91 103.462L112.981 103.643L112.792 103.886L112.439 103.977L111.613 104.038L111.307 104.129L111.189 104.341L111.048 104.826L110.859 105.038L110.435 105.402L110.27 105.614L110.246 105.918L110.458 106.221L111.307 106.918L111.59 107.222L111.731 107.555L111.59 107.919L111.213 108.435L111.071 108.677L111.024 108.95L110.93 110.315L110.859 110.587L110.741 110.891L110.293 111.649L110.175 111.952L110.105 112.225L110.199 112.559L110.505 112.953L111.307 113.499L111.896 113.741L112.439 113.862L112.886 113.893L113.264 114.014L113.429 114.226L113.358 114.56L113.217 114.863V115.166L113.358 115.47L113.947 115.773L114.372 115.833L114.725 115.742L115.197 115.379L115.409 115.348L115.621 115.439V115.894L115.598 116.197L115.527 116.41L115.385 116.622L114.772 117.228L114.584 117.441L114.56 117.713L114.678 118.017L115.244 118.411L115.645 118.623L117.036 119.199L117.366 119.351L118.002 119.806L118.921 120.261L119.11 120.443L118.898 120.715L118.591 120.837L118.214 120.867L117.908 120.958L117.766 121.231L117.955 121.777L118.426 122.777L119.369 124.415L117.483 124.839L115.456 124.658L113.169 123.99L111.425 123.172L110.553 122.929L109.28 122.808L105.06 123.141L102.891 122.141L102.726 120.139L103.009 118.168L102.184 117.228L100.18 117.016L99.9442 117.319L99.8499 118.32L100.038 119.139L100.534 119.897L101.547 121.049L100.557 121.898L99.237 121.928L97.9168 121.413L96.856 120.625L96.1252 119.624L96.1487 118.835L97.0446 116.561L96.9974 117.046L97.2331 115.712L97.0681 114.742L96.4316 114.317L95.2765 114.59L94.9229 114.984L94.4985 116.106L94.1213 116.349H93.4377L91.7168 115.712L90.8209 116.197L89.6894 117.562L88.4635 118.047L87.2848 118.108L86.1296 117.956L82.735 116.925L82.7114 116.743L82.8528 116.106L82.6171 115.682L81.2498 114.348L80.0475 113.711L79.3167 112.528L78.2794 111.861L76.2285 112.619L75.6862 113.195L75.4269 113.832L75.0969 114.317L74.2718 114.469L73.5174 114.044L73.1167 112.377L72.598 111.952L69.4862 111.618L67.9067 111.224L67.0581 110.709L67.1759 110.315L67.6474 109.951L67.9303 109.405L67.5531 108.586L66.9402 107.98L66.728 107.858L66.7988 107.707L66.9637 107.04L67.2467 106.615L67.6946 106.433L67.8124 106.009L67.1759 104.917L66.7516 104.644L64.8656 103.795L62.8854 102.37L61.7067 101.945L59.8915 101.703L58.6892 101.4L57.1097 100.672L55.6952 99.8228L54.9644 99.0343L55.5538 98.6704L56.0017 98.2156L56.7089 97.2756L56.096 97.1543L55.0352 96.7298L54.5873 96.6084L53.9272 96.7601L53.8329 97.2149L53.9036 97.7001L53.6914 98.0033L52.5127 98.1246L51.5933 97.882L50.7447 97.5182L49.8488 97.3059L48.4108 97.3665L48.0336 97.7001L48.1279 98.3066L48.1515 99.2163L47.9157 100.217L47.7036 100.278L47.1849 100.005L46.0533 100.065L42.1636 102.218L40.2305 102.552L39.594 100.702L40.537 99.5498L44.6625 99.0343L46.3127 98.155L42.5644 96.7601L40.8906 96.6691L38.9575 97.7911L38.8868 96.5478L39.429 94.6678L40.2777 92.9393L41.1028 92.1206L41.1735 91.6051L40.1362 91.4838L39.264 91.6354L37.5902 92.3935L36.9301 92.8484L36.4351 93.3032L36.1286 93.8794L35.9164 94.6678L35.4921 95.5168L34.8556 95.911L33.9833 95.3652L32.4981 93.5155L32.1917 92.8484L32.2152 92.1509L32.8754 90.9986L32.9225 90.3012L32.3096 89.7857L28.7262 88.118L27.6418 87.936L24.6479 88.1786L23.422 88.0573L22.4555 87.4812L21.5832 86.3289L21.3239 85.6921V85.2372L21.2532 84.8127L20.876 84.3275L20.3338 83.994L18.0707 83.2662L17.3634 82.872L17.2927 82.8114L17.1513 82.5688L17.0806 82.3262L17.1041 82.0836L17.1513 81.8107L17.2927 81.5681L17.5285 81.4165L17.9057 81.3255L18.2828 81.2952L18.7307 81.3255L19.5558 81.5075L21.5125 82.2959L22.2433 82.4778L22.6441 82.5081L23.0213 82.4778L23.3749 82.4171L23.6578 82.2655L23.8935 82.1139L24.1057 81.932L24.2471 81.6894V81.4468L24.1764 81.2043L24.035 80.992L23.9171 80.7797L23.8464 80.5068V80.2339L23.8935 79.6578L23.8699 79.3242L23.7521 78.9603L23.4456 78.4448L23.1392 78.1416L22.8091 77.9293L20.6639 77.5654L19.3672 77.05L18.9901 77.0196L18.6129 77.05L18.2828 77.1409L17.6699 77.4138L17.3634 77.5654L17.0334 77.6867L16.6327 77.7474L15.9726 77.6867L15.6425 77.5351L15.4303 77.3228L15.2654 77.1106L15.2889 76.9286L15.2417 76.6557L15.2889 76.3828L15.3596 76.0796L15.5482 75.5034L15.619 75.2002L15.6661 74.9273V74.6544L15.2654 73.7144L15.2182 73.5021L15.2654 73.2595L15.3832 73.0169L15.5954 72.8047L15.8311 72.6228L16.9863 72.1073L17.222 71.9556L17.4342 71.7434L17.5756 71.5008L17.6935 71.2279L17.7642 70.955L17.8114 70.6517L17.835 70.3788L17.8114 70.1059L17.6935 69.5904L17.5049 68.9233L17.2927 68.3775L17.057 68.0742L17.0098 68.0439L15.5718 67.6194L15.2654 67.3768L15.1003 67.1342L15.0532 66.8613V66.0123L14.8882 64.6781L14.7467 64.1626L14.6288 63.9503L14.5581 63.7077L14.511 63.4348L14.5581 63.1619L14.676 62.889L14.841 62.6464L15.2417 62.2219L15.3832 61.9793L15.4068 61.6457L15.0768 60.918L14.7703 60.4631L13.8273 58.0979L12.9079 56.6424L7.93373 50.5474L8.9946 49.3041L9.37177 48.4551L10.0554 46.2112L10.4091 45.8473L10.8334 45.6957L11.7292 45.7866L12.13 45.8776H12.7193L13.403 45.817L26.1567 42.0266L26.6046 41.8143L28.8677 39.5097L29.3864 38.8123L29.5278 38.5697L29.8814 38.0845L31.673 36.2348L32.0974 35.9619L32.4746 35.8103L32.8046 35.8709L32.9932 36.0225L33.1582 36.2348L33.3704 36.4167L33.7476 36.5077L34.5962 36.5987L35.2328 36.5684L35.6571 36.4774L37.2602 35.9619L37.7552 35.689L38.1088 35.4161L38.2503 35.1735L38.3446 34.9006L38.3681 34.6277L38.321 34.3851L38.2503 34.1728L38.0852 33.9302L37.048 32.7173L36.6708 32.0502L36.6001 31.7773L36.6236 31.5044L36.7179 31.2315L37.3309 30.0185L37.6373 29.5334L37.991 29.3211L38.4153 29.2301L41.7393 29.1088L42.5172 29.0179L43.2009 28.8663L48.458 28.472L48.8351 28.4114L51.4283 27.6533L52.9842 27.4411L53.4085 27.3501L54.8466 26.8649L55.2473 26.8043L56.3082 26.7739L57.039 26.683L58.312 26.3494L58.9249 26.1068L59.3492 25.8642L59.5614 25.652L59.75 25.4397L59.8679 25.1971L59.9151 24.9242L59.8915 24.6816L59.7972 24.4087L59.7029 24.1661L59.4671 23.7113L59.4436 23.4384L59.5614 23.0745L59.9622 22.5287L60.3158 22.2861L60.7401 22.1648H61.7303L62.4139 22.0738L62.744 21.8919L62.909 21.6493V21.3764L62.8618 21.1338L62.7675 20.8912L62.6261 20.679L61.8717 19.9209L61.7303 19.7086L61.5181 19.2538L61.3531 19.0415L61.1409 18.8899L59.7265 18.1318L59.4907 17.9499L59.1135 17.586L58.9721 17.3434L58.9485 17.2221L58.8542 16.8886L58.9014 16.4034L59.2078 15.3421L59.3257 15.0692L59.6086 14.8569L60.0565 14.7962L60.9523 14.9479L61.3531 15.1601L61.8245 15.4937H62.0603L62.2489 15.1904L62.3903 14.8872L62.5318 14.2504L62.5789 13.9775L62.5318 13.4317V13.1588L62.6261 12.8859L62.7675 12.6433L62.9797 12.4917L65.1014 11.7942L65.5729 11.491L65.8793 11.1878L66.0208 10.9452L66.6102 10.3387L66.6337 10.0961L66.5394 9.88387L66.3508 9.70193L65.5729 9.21677L65.3607 9.03482L65.1721 8.85287L65.1014 8.61031L65.0542 8.33739L65.2428 7.79158L65.785 6.69992L65.9501 6.45734L66.1622 6.24507L66.7044 6.18443L67.506 6.27541L69.1797 6.6696L70.6413 7.21541L72.3623 7.5793L72.8102 7.82188L73.1402 8.03415L73.3996 8.15544L73.8474 8.18578L74.4604 8.03415L74.8611 7.88254L76.4878 7.00316L76.8178 6.9122H77.1478L77.5486 7.12445L77.9729 7.5793L78.2794 7.70059H78.7273L79.4581 7.48834L79.8825 7.27606L81.0376 6.63927L81.6977 6.42702L82.9 6.30573L91.0331 6.27541L92.0232 6.0025L92.589 5.72958L99.5434 1.48431L101.311 0.726227L101.972 0.756561L102.867 0.908188L104.8 1.51465L105.743 1.66626L106.427 1.72691L108.36 1.12044L108.714 1.05978L108.997 1.12044L109.445 1.15076L109.869 1.18109L110.67 1.39336L114.961 2.93983L115.456 3.03082L115.88 3.06114L116.258 3.03082L118.356 2.57596L118.945 2.30305L119.699 1.81789L119.959 1.72691L120.289 1.81789L120.619 2.15144L120.784 2.45467L120.807 2.78821L120.548 3.21274L120.289 3.45534L119.723 3.84955L119.487 4.03148L119.087 4.45601L118.733 4.94116L118.615 5.21408L118.497 5.48698L118.521 5.82054L118.662 6.18443L119.228 6.57864L119.699 6.76057L120.1 7.12445L120.289 7.42769V9.52Z" fill="url(#paint8_linear)"/>
<defs>
<linearGradient id="paint0_linear" x1="-10.3398" y1="-146.312" x2="90.7154" y2="87.9809" gradientUnits="userSpaceOnUse">
<stop stop-color="#3A90B6"/>
<stop offset="1" stop-color="#075F92"/>
</linearGradient>
<linearGradient id="paint1_linear" x1="-10.3398" y1="-146.312" x2="90.7154" y2="87.9809" gradientUnits="userSpaceOnUse">
<stop stop-color="#3A90B6"/>
<stop offset="1" stop-color="#075F92"/>
</linearGradient>
<linearGradient id="paint2_linear" x1="-10.3398" y1="-146.312" x2="90.7154" y2="87.9809" gradientUnits="userSpaceOnUse">
<stop stop-color="#3A90B6"/>
<stop offset="1" stop-color="#075F92"/>
</linearGradient>
<linearGradient id="paint3_linear" x1="-10.3398" y1="-146.312" x2="90.7154" y2="87.9809" gradientUnits="userSpaceOnUse">
<stop stop-color="#3A90B6"/>
<stop offset="1" stop-color="#075F92"/>
</linearGradient>
<linearGradient id="paint4_linear" x1="-10.3398" y1="-146.312" x2="90.7154" y2="87.9809" gradientUnits="userSpaceOnUse">
<stop stop-color="#3A90B6"/>
<stop offset="1" stop-color="#075F92"/>
</linearGradient>
<linearGradient id="paint5_linear" x1="-10.3398" y1="-146.312" x2="90.7154" y2="87.9809" gradientUnits="userSpaceOnUse">
<stop stop-color="#3A90B6"/>
<stop offset="1" stop-color="#075F92"/>
</linearGradient>
<linearGradient id="paint6_linear" x1="-10.3398" y1="-146.312" x2="90.7154" y2="87.9809" gradientUnits="userSpaceOnUse">
<stop stop-color="#3A90B6"/>
<stop offset="1" stop-color="#075F92"/>
</linearGradient>
<linearGradient id="paint7_linear" x1="-10.3398" y1="-146.312" x2="90.7154" y2="87.9809" gradientUnits="userSpaceOnUse">
<stop stop-color="#3A90B6"/>
<stop offset="1" stop-color="#075F92"/>
</linearGradient>
<linearGradient id="paint8_linear" x1="90.1602" y1="175.187" x2="-56.3323" y2="-2.9523" gradientUnits="userSpaceOnUse">
<stop stop-color="#59BDE4"/>
<stop offset="0.260417" stop-color="#43A9D5"/>
<stop offset="0.697917" stop-color="#0B77B0"/>
<stop offset="1" stop-color="#015E94"/>
</linearGradient>
</defs>
</svg>
