<svg width="192" height="139" viewBox="0 0 192 139" fill="none" xmlns="http://www.w3.org/2000/svg">
<path d="M177.578 81.9524V94.5719L181.669 92.571V79.9514L177.578 81.9524ZM177.727 82.0112V94.6308L180.635 97.6042V84.9847L177.727 82.0112ZM169.508 89.3509V101.97L180.517 97.565V84.9455L169.508 89.3509ZM149.033 91.8283V104.448L156.36 104.353V91.733L149.033 91.8283ZM166.6 92.8204V105.44L169.508 101.97V89.3509L166.6 92.8204ZM156.363 91.733V104.353L160.072 105.706V93.0866L156.363 91.733ZM141.229 93.8881V106.508L149.033 104.448V91.8283L141.229 93.8881ZM160.07 93.0866V105.706L162.742 107.402V94.7821L160.07 93.0866ZM135.175 95.1997V107.819L141.229 106.505V93.8853L135.175 95.1997ZM162.742 94.7821V107.402L163.572 110.355V97.7359L162.742 94.7821ZM163.575 97.9461V110.568L166.6 105.44V92.8204L163.575 97.9461ZM109.417 99.1063V111.731L119.178 111.367V98.7476L109.417 99.1063ZM102.353 99.3586V111.978L109.417 111.731V99.1063L102.353 99.3586ZM161.02 100.157V112.777L163.575 110.568V97.9461L161.02 100.157ZM127.576 100.213V112.833L135.175 107.819V95.1997L127.576 100.213ZM97.4912 100.446V113.065L102.353 111.978V99.3586L97.4912 100.446ZM119.181 98.7476V111.367L124.169 116.283V103.663L119.181 98.7476ZM87.3432 104.257V116.877L97.4912 113.068V100.449L87.3432 104.257ZM121.556 106.889V119.508L127.576 112.836V100.216L121.556 106.889ZM121.2 106.922V119.545L121.558 119.506V106.886L121.2 106.922ZM77.9945 110.737V123.356L87.3432 116.874V104.254L77.9945 110.737ZM71.6769 112.701V125.321L77.9945 123.359V110.739L71.6769 112.701ZM49.2725 112.99V125.609L51.2886 125.074V112.454L49.2725 112.99ZM67.9952 113.845V126.464L71.6741 125.318V112.698L67.9952 113.845ZM51.2886 112.454V125.074L54.2244 128.866V116.246L51.2886 112.454ZM62.9787 118.116V130.735L67.9952 126.464V113.845L62.9787 118.116ZM58.8259 122.232V134.852L62.9787 130.735V118.116L58.8259 122.232ZM54.2244 116.246V128.866L55.7078 137.329V124.71L54.2244 116.246Z" fill="url(#paint0_linear)"/>
<path d="M0.5625 60.8125L0.8125 49.75L3.4375 52.3125L5.4375 55.75L11.3438 59.5625L12.9062 60.5L17.0312 58.9687C17.7292 59.1042 19.1562 59.4187 19.2812 59.5937L23.6562 59.1562L25.5938 59.9687L26.0312 61.4062L25.8125 63.2187C25.9479 64.2604 26.2 66.5937 26.125 67.5937C26.05 68.5937 25.4479 71.3854 25.1562 72.6562L25.1498 72.7817L29.3125 75.1562C29.6771 75.4167 30.65 76.0562 31.625 76.5312C32.6 77.0062 32.9479 80.4167 33 82.0625L35.3438 82.4062L38.1875 84.9062C39.9271 85.0104 43.6875 85.2062 44.8125 85.1562C45.9375 85.1062 48.8021 89.4687 50.0938 91.6562C50.0312 92.3542 49.8438 93.95 49.5938 94.75C49.3438 95.55 49.9062 97.2917 50.2188 98.0625L46.0938 102.844L35.5 102.469L36.4688 97.3125L34.2188 96.4062L32.1875 96.2187L30.1562 93.4687L30.0625 92.0937L29.1562 91.3437L28.1562 91.5312L27.125 91.125L26.0938 90.6562L25.4375 89.6875L25.5312 88.375L24.5 85.3437L22.2812 84.5625L21.2188 83.7187L20.3125 82.7187L19.6875 80.625L19.0938 76.9687L19.1875 73.5625L18.6875 72.8125L18.7812 71.125L18.1875 72.5L17.7188 72.8125L17.4062 74.0312L16.2812 74.7812L15.25 74.8125L13.9062 74.375L13.1875 73.8437L12.25 73.3125H11.9375L11.4062 73.8437L10.4375 74.5312L8.78125 74.875H7.46875L6.875 73.8437L6.5625 72.5937L5.125 70.375L0.5625 60.8125Z" fill="url(#paint1_linear)"/>
<path d="M35.25 108.031L35.3125 102.594L39.875 103.625C39.7083 104.312 39.3688 105.787 39.3438 106.187C39.3125 106.687 38.25 107.969 38.1562 108.156C38.0812 108.306 36.1875 108.135 35.25 108.031Z" fill="url(#paint2_linear)"/>
<path d="M34.4375 118.875L34.6875 108.25L37.8125 108.469L38.3125 108.781C39.1146 108.927 40.7687 109.237 40.9688 109.312C41.1688 109.387 45.3646 111.969 47.4375 113.25L49.375 113.625L50.2812 116.875L50.3125 120.125L49.2812 126.719L46.5312 127.562L45.0625 127.406L44.5938 126.906L44.5625 125.406L45.6875 124.625L40.4062 124.281L39.8125 124.781L38.0938 124.312L36.9375 123.969L34.4375 118.875Z" fill="url(#paint3_linear)"/>
<path d="M58.9062 135.812L55.7188 138.25L55.5312 126.5L56.8125 123.187C57.2917 122.917 58.3688 122.344 58.8438 122.219C59.3187 122.094 59.5625 122.104 59.625 122.125C59.7917 122.552 60.1188 123.5 60.0938 123.875C60.0687 124.25 59.4062 129.677 59.0781 132.344C59.3125 132.708 59.7906 133.45 59.8281 133.5C59.8656 133.55 59.2292 135.062 58.9062 135.812Z" fill="url(#paint4_linear)"/>
<path d="M42.6562 19.2187L42.5625 10.9062C44.2083 10.8437 47.725 10.7812 48.625 11.0312C49.75 11.3437 51.7812 12.4375 53.0625 13.625C54.3438 14.8125 53.25 15.6562 53.2812 17.6562C53.3125 19.6562 49.5312 20.0937 48.5625 20.9375C48.0687 21.3675 46.6439 21.3553 45.303 21.2144C46.3577 21.5366 47.2952 21.8125 47.4062 21.8125C47.4065 21.8125 47.4067 21.8125 47.4069 21.8125L51.4375 21.9688L52 23.6875L52.3125 26.0312L51.8101 28.2115C53.846 27.8569 56.042 27.5119 56.5312 27.5625C57.4375 27.6562 58.1562 29.5625 58.125 30.25C58.0938 30.9375 57.4375 34.5938 57.5 36.3125C57.5625 38.0312 53.5 39.5625 53.375 39.4688C53.3154 39.4241 52.3212 39.4511 51.2408 39.4957L51.7812 39.8125C52.8958 40.1354 55.15 40.8563 55.25 41.1562C55.375 41.5312 56.4688 43.875 57 44.7188C57.425 45.3937 54.6146 47.8125 53.1562 48.9375C50.8229 48.4896 46.05 47.5563 45.625 47.4062C45.2 47.2562 45.9688 46.2604 46.4062 45.7812L48.4688 42.7812L47.9375 41L49.1875 39.5938L46.875 36.4062L46.9062 34.7812L47.3438 33.875L46.1562 33.2188L42.875 31.25L42.9062 20.4688C42.9826 20.4929 43.0632 20.5183 43.1474 20.5449L42.6562 19.2187Z" fill="url(#paint5_linear)"/>
<path d="M191.188 53.7188L191.219 65L189.281 71.25L188.25 71.5938L186.281 70.875L184.5 73.5938L182.453 74.3438L182.406 77.5625L182.281 85.1875C179.042 84.3333 172.512 82.5563 172.312 82.2812C172.113 82.0062 170.312 78.8333 169.438 77.2812L168.469 71.7188L169.844 68.4062L171.438 64.6562L173.031 63.9062L180.031 61.0312L183.969 60.1875L186.156 58.6875L187.875 60.1875L188.812 59.6562C187.875 59.0104 186.044 57.6188 186.219 57.2188C186.438 56.7188 188.094 55.0312 188.25 54.9688C188.375 54.9188 190.135 54.1771 191 53.8125L191.188 53.7188Z" fill="url(#paint6_linear)"/>
<path d="M182.375 97.9375C182.427 93.8125 182.531 85.525 182.531 85.375L181.031 85.25L179.188 86C178.823 86.5521 178.075 87.75 178 88.125C177.906 88.5938 177.188 90.5625 177.094 91.4688C177.019 92.1937 177.312 94.875 177.469 96.125L180.469 98.5938L182.375 97.9375Z" fill="url(#paint7_linear)"/>
<path d="M154.393 20.165L154.479 20.0709L154.582 19.9224L154.912 19.5585L155.666 19.1037L156.185 18.9218L156.656 18.8004H157.033L157.411 18.8611L157.741 18.9824L158.024 19.134L158.448 19.4979L158.707 19.6495L159.037 19.7102L166.632 21.2146L166.638 21.2603L166.986 24.0953L167.575 24.8837L168.353 25.0656L169.225 25.1263H170.05L168.854 27.3195H169.302L169.585 27.4408L169.75 27.6227L169.915 28.1079L170.174 29.1086L166.729 30.493L166.89 36.0024L168.002 37.572L168.473 37.9662L168.968 38.2087L170.854 38.4211L171.349 38.5423L171.514 38.7242L171.496 38.8426L171.609 38.9669L171.585 39.1184L171.349 39.2701L170.736 39.4823L170.076 39.634L169.77 39.7856L168.668 40.2529L164.533 42.3988L164.558 42.4894L164.721 42.7452L165.027 42.9878L165.381 43.0788L166.677 43.2001L166.89 43.3517L166.97 43.5844L166.984 43.5943L167.078 43.8672L167.031 44.1401L166.866 44.7769L166.842 45.1407L166.909 45.4158L167.149 45.5956L167.526 45.6866L168.21 45.5653L170.426 44.8679L171.274 45.1407L172.594 45.7472L175.706 47.6879L177.026 48.355L177.922 48.6583L178.205 48.5067L178.653 48.1428L180.492 47.0815L180.94 47.0511L181.482 47.0815L181.367 47.3123L181.576 47.3241L180.803 48.8718L181.246 49.1131L183.321 50.6596L184.069 52.5419L184.305 52.6935L185.271 53.5469L185.436 53.1483L185.672 52.9968L186.025 52.9361L189.161 53.118L190.41 53.027L191 53.0877L191.141 53.3V53.4011L191.235 53.5426V53.7851L191.07 54.0277L190.057 55.4226L189.962 55.6652L189.939 55.9381L190.033 56.5446L189.986 56.8478L189.373 57.8181L189.137 58.364L189.043 58.6672L189.019 58.9401V59.213L189.144 59.6253L189.255 59.8498L189.283 59.9589L189.349 60.0923L189.42 60.3653V60.6078L189.232 60.7898L189.019 60.9718L188.454 61.2143L188.194 61.3053L187.935 61.3659L187.723 61.2447L187.558 61.093L187.393 60.8808L187.016 60.4866L186.78 60.3047L186.261 59.9711L186.02 59.8416L185.978 59.8498L185.698 59.9907L186.073 60.0923L185.53 60.3653L185.318 60.5472L185.106 60.7595L184.847 61.3053L184.635 61.9117L184.517 62.1847L184.375 62.3969L180.509 64.2077L180.391 64.4503L180.273 64.7232L180.25 64.9961L180.368 65.7542V65.9967L180.25 66.2697L180.112 66.4243L181.24 66.5122L179.794 66.6249L179.778 66.6335L181.334 66.7548L179.778 66.8761L178.387 66.8155L177.515 66.6942L177.185 66.5426L176.926 66.391L176.643 66.2697L176.313 66.209H175.582L175.205 66.1786L174.898 66.0574L174.639 65.9058L174.38 65.8148L174.05 65.8451L173.743 65.8755L173.154 66.1483L172.895 66.3606L172.73 66.6942L172.855 67.2232L173.201 67.6949L174.498 69.1504L174.733 69.5446L174.828 69.7869L174.828 69.7872L174.922 70.0297L175.016 70.2723L175.441 72.0008L175.417 72.2737L175.323 72.5162L175.111 72.6678L174.828 72.8195L174.191 73.0014L170.325 73.3956L169.924 73.4563L169.618 73.6078L169.406 73.8808L169.419 73.9414L169.453 74.093L169.594 74.3053L170.066 74.6389L172.022 75.7002L172.682 75.9428L175.959 76.6705L177.374 77.1557L177.656 77.3073L176.484 79.5653L177.781 80.7783L178.441 81.5363L179.573 83.568L179.903 83.9925L180.28 84.2958L182.452 85.2832L182.509 85.2612L183.015 85.539L182.452 85.2832L173.415 88.7612L169.509 90.3862L166.509 93.7925L163.665 98.7612L162.603 95.73L160.103 94.105L156.384 92.8237L149.04 92.8862L135.228 96.105L127.384 101.23L124.103 104.886L119.071 99.7925L102.353 100.324L97.1338 101.511L87.4775 105.105L77.9775 111.667L68.0088 114.824L55.3525 126.949L55.6338 125.699L54.1963 117.167L51.29 113.511L49.2588 113.98L51.04 117.667L47.9359 119.69L47.6391 119.608L47.6058 119.599L47.5822 119.538L47.5351 119.447L47.4644 118.72V118.477L47.5587 118.265L47.7944 118.083L48.0302 117.931L48.2659 117.719L48.4073 117.416L48.3862 117.226L48.1952 117.082L47.7944 116.961L44.2582 116.87L41.6887 117.022L40.9815 116.961L40.6043 116.809L40.3685 116.597L40.2035 116.385L40.062 116.112L39.897 115.869L37.9639 114.08L37.6339 113.686L37.4924 113.474L37.3746 113.231L37.3583 113.137L37.2567 112.928L37.2096 112.655L37.2567 112.412L37.3746 112.14L37.7517 111.715L38.4354 111.169L38.624 110.957L38.7183 110.714L38.7419 110.441L38.7183 110.199L38.6711 110.017L38.3881 109.653L37.9402 109.077L37.5631 108.774L37.1152 108.622L35.3471 108.531L34.8285 108.41L35.1141 108.201L34.7106 108.107L38.5286 105.314L37.5355 104.858L37.7296 104.698L37.4176 104.555H36.946L36.1918 104.403L35.8617 104.191L35.6966 103.918L35.6401 103.716L35.5788 103.615L35.3666 102.857V102.614L35.3902 102.371L35.5552 102.159L35.7674 102.008L36.0503 101.826L36.3567 101.735L36.7339 101.674L38.7614 101.583L39.1385 101.522L39.4922 101.431L39.7514 101.28L39.9401 101.068L40.105 100.825L40.5294 100.4L41.0715 100.097L41.7081 99.8849L41.991 99.7333L42.2032 99.5514L42.3682 99.3087L42.7218 98.4597L42.8868 98.1868L43.0518 97.9746L43.5233 97.5197L43.6647 97.3075L43.7591 97.0649L43.6883 95.4577L43.7591 95.1848L43.8534 94.9423L44.0656 94.7906L44.372 94.6693L45.0792 94.5177L46.9887 93.9416L47.2716 93.8203L47.413 93.4867L47.344 92.9534L47.0358 92.1828L46.7295 91.6977L46.423 91.3641L46.1401 91.2125L45.8101 91.0912L45.4092 91.0305L44.5606 91.0002L44.0891 90.9395L43.5233 90.697L43.2168 90.4544L43.0047 90.2118L42.0146 87.9982L41.7316 87.604L41.4487 87.3614L41.1187 87.2401L37.4647 86.573L36.8046 86.3607L35.9088 85.9059L35.5788 85.7846L35.2016 85.6633L33.3392 85.4814L32.8442 85.3297L32.5849 85.1175L32.467 84.9052L32.4252 84.739L32.3491 84.602L32.1054 83.6331L31.9248 83.2071L31.7126 82.8736L31.4769 82.631L31.2411 82.5097L31.1704 82.4793L30.1331 82.358L29.4966 82.1761L29.1902 81.9942L29.0016 81.7516L28.9099 81.4821L28.8837 81.4484L28.7187 80.9632L28.4644 78.6442L27.1392 75.6263L26.8563 75.3231L26.4556 75.1714L25.4418 74.9592L24.7817 74.7166L24.5225 74.474L24.381 74.2011L24.3464 74.0585L24.2631 73.8979L24.1511 73.4367L23.886 72.7759L23.8802 72.7522L23.7681 72.4727L23.6502 71.9875L23.5795 71.4417V71.1688L23.7209 69.7133V69.4707L23.6738 69.2281L22.9429 67.3177L22.8958 67.0751L22.8722 66.8022L22.9665 66.5596L23.108 66.3474L23.4851 66.1351L23.6502 65.9228L23.7681 65.6499L23.7468 65.1292L23.7209 65.0738L23.5323 64.8919L22.4008 64.4067L21.8821 64.1035L21.67 63.8305L21.5757 63.5578L21.5757 63.5576L21.5521 63.5273L21.4578 63.2544L21.4343 62.9815L21.4814 62.4053L21.5757 62.1021L21.6935 61.8292L21.9058 61.6169L22.165 61.4653L23.2259 61.1317L23.4851 61.0105L23.6738 60.8285L23.7329 60.6383L23.5323 60.495L23.273 60.4343L22.9901 60.404L18.0159 60.8892L17.3795 61.1014L17.1201 61.2531L16.9786 61.4957L16.8844 61.7686L16.8372 62.0415L16.7194 62.2841L16.3186 62.6783L16.1064 62.9208L15.8235 63.4363L15.5878 63.6183L15.2813 63.7396L14.9042 63.7699L14.5034 63.7396L14.1262 63.6789L13.0654 63.3454L12.6175 63.2544L11.6509 63.3757L11.3209 63.4667L10.4957 63.9215L9.85919 64.1035L9.48199 64.1641L9.0813 64.1338L8.58618 63.9822L8.37408 63.7699L8.25616 63.497L8.25163 63.4562L8.13831 63.1938L8.02045 62.1324L8.00811 62.0967L7.87903 61.8595L7.07751 60.7072L2.90479 52.9142L0.865442 49.8632L0.736023 49.6696L0.808635 49.6515L9.12842 47.5773L18.3459 46.0914L28.2471 42.7255L29.0488 42.6042L32.7498 42.8468L39.1385 44.363L46.753 45.0605L51.5858 45.0908L52.2222 44.9695L52.4579 44.8178L52.837 44.5023L53.0474 44.1811L53.1417 43.9688L53.4717 42.4526V42.1797L53.4246 41.9068L53.3066 41.6945L53.0945 41.5126L52.623 41.2094L51.1378 40.5423L50.8784 40.3907L50.7606 40.1784V39.9358L50.855 39.6932L51.7979 37.8435L52.1751 36.6306L52.5994 34.5382L53.0709 33.4466L53.6602 30.1414L53.6367 29.8685L53.5424 29.6259L53.2595 29.4743L52.8823 29.353L51.1143 29.262L49.7941 29.0497L49.4169 28.9284L49.2283 28.7465V28.4736L49.4405 27.5639L49.4169 27.291L49.3226 27.0484L49.2048 26.8361L49.1104 26.5936L49.0633 26.3206L49.1104 25.9871L49.3462 25.5626L49.5081 25.3376L49.5347 25.2896L49.9598 24.6991L50.1006 24.4406L50.1713 24.1677V23.9554L50.1241 23.8341L49.9826 23.7128L49.5112 23.4399L43.6883 21.3779L43.1933 21.0444L43.0283 20.8321L42.9104 20.6198L42.8633 20.347L42.8396 20.1043L42.8868 19.7405L42.9811 19.3766L43.2168 18.8914L43.3223 18.7897L43.4055 18.6185L43.7827 18.2546L45.645 17.1327L46.0694 16.9507L49.2283 16.3746L49.9826 16.132L50.2687 15.8692L50.3127 15.7985L50.3834 15.4952L50.407 15.192L50.3834 14.9494L50.1477 14.4946L49.9591 14.2823L49.6998 14.1307L49.3226 14.0397L46.6115 13.6455L45.8807 13.4333L45.5978 13.2816L45.3621 13.13L45.1971 12.9178L45.0557 12.7055L44.9614 12.4629L44.9142 12.2203L44.8671 11.8261L44.7963 11.6442L44.6549 11.4622L44.3956 11.3409L44.0183 11.3106H43.2168L42.8633 11.25L42.6275 11.1287L42.5096 10.8861V10.5829L42.6511 10.1583L42.7731 10.0851L42.8396 9.88541L43.1933 9.67316L44.1598 9.21829L44.2836 9.0909L44.3248 9.00604L44.3484 7.30792L44.3956 6.97437L44.4899 6.76212L44.5842 6.4892V6.39825L44.537 6.24664L44.1127 5.6705L43.7355 5.00339L43.6411 4.70013L43.6647 4.33624L43.9713 3.69949L44.0598 3.63443L44.1598 3.42657L44.537 3.18396L44.9377 3.03235L45.3621 3.00204H45.7629L46.1165 3.06268L46.3287 3.21429L46.3758 3.42657L46.3994 3.79044L46.4465 4.2756L46.5644 4.79111L46.7295 5.27628L46.8473 5.48853L47.0123 5.70078L47.3188 5.85245L47.7195 5.91309L51.8687 5.79178L53.6838 4.94272L55.9706 3.54785L57.0549 3.09302L57.8565 2.88074L58.5402 2.94141H59.2474L60.4968 2.78976L61.1333 2.54718L61.6048 2.33493L63.0899 2.06204L64.3159 2.00137L65.0938 2.03168L67.1212 2.57751H67.7341L68.3942 2.42587L69.6437 2.18329L73.5098 1.60718H74.217L75.7021 1.81943L80.5821 3.18396L92.0864 4.09369L93.1708 4.42725L93.4065 4.45755H93.9016L94.5381 4.33624L95.6696 4.03305L96.3533 3.69949L97.9092 2.54718L99.0172 1.91037L99.6537 1.66782L102.648 1.0007L104.651 0.727783L105.524 0.758118L105.948 0.849091L106.278 0.970367L106.537 1.15231L106.797 1.30392L107.433 1.81943L108.423 2.48654L108.706 2.63815L109.083 2.72916L112.667 3.06268L113.044 3.15366L113.374 3.30527L113.657 3.45688L114.836 4.57886L115.401 4.6395L116.274 4.51819L120.116 3.30527L124.36 2.45621H125.185L125.585 2.48654L125.963 2.57751L126.245 2.75943L126.434 2.94141L126.528 3.18396V3.45688L126.34 4.36661L126.316 4.66983L126.363 4.94272L126.458 5.18533L126.906 5.82208L126.953 6.0647L126.976 6.6105L127.165 6.85312L127.495 7.0047H128.296L128.721 6.91373L129.027 6.85312L131.267 5.70078L131.785 5.57953L132.163 5.60983L132.328 5.82208L132.422 6.03436L132.375 6.30728L132.233 6.54987L132.045 6.79245L131.856 7.03503L130.937 7.76279L130.748 7.97504L130.654 8.21765L130.677 8.46024L130.913 8.61182L131.172 8.67249L132.186 8.76346L132.587 8.8241L132.893 8.94537L133.106 9.12735L133.247 9.3396L133.436 9.79443L133.719 10.7951L133.766 11.0681L133.719 11.8564L133.836 12.0687L134.143 12.1294L134.52 12.19L134.85 12.2506L135.109 12.3719L135.298 12.5235L135.416 12.6448L135.628 12.7661L135.958 12.8571L137.962 12.6752L138.127 12.7055L138.174 12.7661L138.198 12.9481L138.033 13.4333L137.985 13.6758V13.9184L138.103 14.1307L138.268 14.3429L138.386 14.5552V14.7978L138.315 15.0707L137.868 15.8591L137.396 17.0417L137.208 17.3752L137.085 17.5017L137.019 17.6179L136.665 17.9818L136.288 18.0727L135.958 18.0424L135.392 17.7392L135.062 17.6179L134.52 17.5875L134.469 17.6206L134.449 17.6785L134.473 17.9211L134.591 18.1637L134.779 18.3456L135.463 18.5882L135.675 18.7702L135.746 19.0127L135.84 19.225L136.005 19.3766L136.736 19.5282L137.066 19.6495L137.255 19.8315L137.49 19.9831L138.127 20.0134L141.427 19.6495L141.993 19.4979L142.116 19.375L142.37 18.9824L142.503 18.8254L142.559 18.7398L142.842 18.4062L143.384 17.9818L143.832 17.8301L144.256 17.7088H144.657H144.987L145.246 17.8604L145.388 18.0727L145.482 18.285L145.765 19.2553L145.836 19.4979L145.906 19.7405L146.071 19.9528L146.402 20.0741L146.779 20.1347L148.429 20.165L148.83 20.2256L149.16 20.347L149.985 20.8018L150.551 20.8928L151.352 20.9231L152.955 20.8321L153.709 20.7108L154.152 20.5116L154.393 20.165Z" fill="url(#paint8_linear)"/>
<defs>
<linearGradient id="paint0_linear" x1="-53.6725" y1="76.1163" x2="175.55" y2="127.468" gradientUnits="userSpaceOnUse">
<stop stop-color="#3A90B6"/>
<stop offset="1" stop-color="#075F92"/>
</linearGradient>
<linearGradient id="paint1_linear" x1="216" y1="-262" x2="69.2878" y2="127.892" gradientUnits="userSpaceOnUse">
<stop stop-color="#3A90B6"/>
<stop offset="1" stop-color="#075F92"/>
</linearGradient>
<linearGradient id="paint2_linear" x1="216" y1="-262" x2="69.2878" y2="127.892" gradientUnits="userSpaceOnUse">
<stop stop-color="#3A90B6"/>
<stop offset="1" stop-color="#075F92"/>
</linearGradient>
<linearGradient id="paint3_linear" x1="216" y1="-262" x2="69.2878" y2="127.892" gradientUnits="userSpaceOnUse">
<stop stop-color="#3A90B6"/>
<stop offset="1" stop-color="#075F92"/>
</linearGradient>
<linearGradient id="paint4_linear" x1="216" y1="-262" x2="69.2878" y2="127.892" gradientUnits="userSpaceOnUse">
<stop stop-color="#3A90B6"/>
<stop offset="1" stop-color="#075F92"/>
</linearGradient>
<linearGradient id="paint5_linear" x1="216" y1="-262" x2="69.2878" y2="127.892" gradientUnits="userSpaceOnUse">
<stop stop-color="#3A90B6"/>
<stop offset="1" stop-color="#075F92"/>
</linearGradient>
<linearGradient id="paint6_linear" x1="216" y1="-262" x2="69.2878" y2="127.892" gradientUnits="userSpaceOnUse">
<stop stop-color="#3A90B6"/>
<stop offset="1" stop-color="#075F92"/>
</linearGradient>
<linearGradient id="paint7_linear" x1="216" y1="-262" x2="69.2878" y2="127.892" gradientUnits="userSpaceOnUse">
<stop stop-color="#3A90B6"/>
<stop offset="1" stop-color="#075F92"/>
</linearGradient>
<linearGradient id="paint8_linear" x1="89" y1="180" x2="110.001" y2="-153.072" gradientUnits="userSpaceOnUse">
<stop stop-color="#59BDE4"/>
<stop offset="0.260417" stop-color="#43A9D5"/>
<stop offset="0.697917" stop-color="#0B77B0"/>
<stop offset="1" stop-color="#015E94"/>
</linearGradient>
</defs>
</svg>
