<svg width="196" height="172" viewBox="0 0 196 172" fill="none" xmlns="http://www.w3.org/2000/svg">
<path opacity="0.1" d="M27.6998 40.5406L27.912 40.7225L28.908 40.9045L32.908 37L34.408 34L40.908 31L42.908 35H48.908L55.408 32L64.908 26V31L70.908 34L71.908 36.5L79.908 32.5L89.908 34L92.908 39L93.908 42L103.908 35L110.408 32.5H114.408L123.908 29.5L128.408 28.5L134.908 37L133.908 39L138.908 46L152.078 46.625L154.034 51.9421L153.869 52.7609L153.681 53.3067L152.95 54.2164L152.078 54.9745L151.182 55.49L149.013 56.4906L147.693 56.8848L146.962 57.0061L146.137 57.0365L145.831 57.1577L145.736 57.4307L146.891 60.463L147.481 64.1018L147.787 65.0721L148.023 65.527L148.164 65.7089L148.306 65.8302L148.332 65.8226L148.518 65.7696L148.73 65.618L150.145 64.1321L150.38 63.9805L150.687 63.9199L151.04 63.9805L151.771 64.1624L151.836 64.1913L151.842 64.1928L153.068 64.7386L155.166 66.0121L155.567 66.4064L155.727 66.6126L155.826 66.6489L155.944 66.8915L156.109 67.3767L156.227 67.589L156.486 67.7406L156.816 67.8619L158.443 68.2257L159.126 68.4987L159.386 68.6806L159.857 69.0142L160.022 69.2264L160.164 69.4387L160.258 69.6813L160.27 69.8328L160.282 69.8632L160.305 70.1664L160.258 70.5L159.952 70.9548L159.009 71.8342L158.631 72.2587L158.49 72.562L158.419 72.8955L158.349 73.3201V73.8052L158.514 75.4124L158.466 75.9582L158.224 76.2946L175.402 67.1111L178.941 70.8754L179.056 70.8409L180.659 72.0841L180.847 72.2661L180.965 72.5693L180.972 72.708L180.989 72.7513L181.012 73.2364L179.527 78.1488L179.511 78.3509L179.574 78.5127L179.904 78.6946L180.187 78.7553L182.757 78.543L183.653 78.6643L184.407 78.8766L184.902 79.2101L185.091 79.4224L185.209 79.665L185.397 80.1501L185.609 81.1205L186.482 83.516V83.6333L186.505 83.698V84.0315L186.387 84.4257L185.963 85.0625L185.609 85.3961L185.279 85.6084L183.087 86.3664L182.851 86.5181L182.639 86.7303L181.932 87.6703L179.928 89.5504L179.268 90.3085L178.561 91.2485L178.466 91.4911V91.6452L178.726 92.0065L178.985 92.2491L179.291 92.4614L180.47 93.0375L180.682 93.2498L180.73 93.553L180.726 93.5608L180.753 93.735L180.399 94.5234L179.669 95.8273L179.527 96.0092L179.291 96.1912L178.961 96.2821L178.136 96.3428L177.901 96.4944L177.868 96.7458L178.113 97.1918L178.466 97.4344L179.197 97.7377L179.409 97.9196L179.527 98.0712L179.598 98.1925L179.645 98.2835L179.633 98.3959L179.669 98.4654L179.645 98.6777L179.551 99.0112L178.891 100.376L178.726 100.618L178.514 100.831L178.254 100.982L177.948 101.073L177.547 101.104L176.321 100.891H175.968L175.661 100.831L175.52 101.043L175.543 101.285L175.826 101.558L176.887 101.983L177.123 102.135L177.17 102.347L176.934 102.65L176.722 102.862L176.415 103.014L176.038 103.044L174.459 103.135L174.27 103.348L174.294 103.651L174.718 104.197L175.142 104.379L175.543 104.409L175.92 104.379L178.631 103.681L179.009 103.651L181.955 103.62L182.356 103.681L182.686 103.802L183.228 104.136L184.053 104.864L184.242 105.046L184.431 105.228L184.596 105.44L184.761 105.622L184.996 105.925L185.374 107.896L186.364 109.261L186.529 110.383L186.835 110.777L187.189 110.959L188.014 110.928L188.462 110.989L188.863 111.05L189.169 111.201L189.381 111.383L189.546 111.595L190.348 112.899L190.937 113.627L191.126 113.809L191.361 113.961L191.692 114.082L192.493 114.294L192.729 114.658L192.8 115.295L192.352 118.054L192.399 118.843V119.116L192.352 119.419L192.281 120.329V120.571L192.375 120.814L192.493 121.026L192.682 121.208L192.941 121.36L193.2 121.541L194.167 121.936L194.45 122.087L194.615 122.421L194.709 122.906L194.685 123.846L194.968 124.24L195.133 124.604L195.157 124.907L194.52 125.605L194.397 125.676L194.379 125.696L193.908 125.969L193.483 126.181L191.126 126.515L190.937 126.575L190.846 126.619L190.678 126.787L190.536 127.06L190.513 127.546L190.607 128.182L191.479 130.79L191.432 130.942L191.244 131.154L190.796 131.457L190.584 131.76L190.56 132.215L190.678 132.488L190.843 132.761L194.733 137.067L194.85 137.31L194.898 137.552L194.662 137.946L194.261 138.401L192.658 139.493L192.63 139.507L192.517 139.584L192.022 139.826L190.088 140.433L189.894 140.548L189.523 140.857L189.051 141.525L187.896 142.495L187.78 142.565L187.755 142.586L187.401 142.798L187.142 142.95L186.812 143.041L185.774 143.283L185.468 143.405L184.761 143.859L184.761 143.86L184.619 143.95L184.124 144.163L181.814 144.83L179.221 146.012L178.867 146.073L178.49 146.103L177.877 146.043L177.594 146.103L177.284 146.244L176.84 146.68L176.726 146.744L176.698 146.77L176.321 146.983L175.897 147.104L175.025 147.043L174.647 147.074L174.317 147.134L173.859 147.356L173.681 147.559L173.539 147.862L173.728 148.469L173.94 148.802L174.294 149.287L174.341 149.651L174.317 150.136L174.011 151.046L173.799 151.531L173.587 151.925L173.021 152.562L172.62 152.956L172.101 153.351L172.007 153.502L172.078 153.654L172.997 153.775H173.869L175.472 153.593H175.85L176.203 153.624L176.415 153.775L176.51 154.048V154.412L176.415 154.988L176.321 155.382L176.109 155.716L175.802 155.958L175.76 155.971L175.661 156.049L174.553 156.383L174.263 156.546L174.176 156.595L173.94 156.777L173.741 157.744L173.728 157.808L171.96 157.747L171.258 157.945L171.064 158.081L170.852 158.263L168.494 159.628L168.458 159.641L168.377 159.688L167.646 159.961L167.009 160.082L165.866 160.024L153.907 169.143L153.851 169.157L153.789 169.204L152.917 169.416L152.489 169.608L152.375 169.871L152.281 170.144L152.186 170.78L152.021 171.144L151.911 171.188L151.904 171.205L151.597 171.326H151.22L149.829 171.144L142.285 171.357L137.24 170.75L134.576 170.841L133.115 170.599L132.478 170.386L132.054 170.204L131.771 170.022L131.582 169.84L131.512 169.628L131.606 169.416L131.818 169.234L132.525 168.688L132.738 168.476L132.879 168.264L132.903 168.051L132.808 167.839L131.889 166.869L131.795 166.657L131.724 166.414L131.677 166.141L131.535 165.838L131.252 165.504L122.932 165.837L122.626 165.625L122.555 165.504V165.291L122.649 165.049L122.814 164.806L123.215 164.382L122.728 162.653L122.775 162.44L122.61 162.167L120.653 161.167L120.441 161.015L120.229 160.833L119.687 160.227L118.579 158.589L118.532 158.438L118.484 158.225L118.461 157.983L118.532 157.407L118.508 157.134L118.437 156.861L118.343 156.618L118.272 156.376V156.133L118.343 155.89L118.555 155.496L118.39 155.193L118.06 154.799L116.905 154.041L116.575 153.646L116.481 153.313L116.598 153.07L116.693 152.828L116.598 152.525L116.292 152.373L115.891 152.282L111.436 151.797L111.147 151.831L110.846 152.009L110.587 152.525L110.28 153.01L110.092 153.252L109.88 153.465L109.338 153.768L108.701 153.98L108.608 154.001L108.512 154.041L106.876 154.416L106.061 154.738L105.801 154.89L105.589 155.072L104.693 156.163L104.033 157.164L103.868 157.376L103.656 157.528L103.491 157.649L103.302 157.74H103.24L103.114 157.801H102.43L97.1261 157.164H96.7489L96.4409 157.221L95.358 157.589L95.3192 157.598L95.1694 157.649L94.085 157.922L92.5763 158.104L92.2462 157.983L92.0105 157.831L91.8218 157.649L91.3975 157.376L89.6294 156.679L88.9694 156.588L82.7929 156.406L82.1369 156.459L81.9678 156.558L80.5769 158.013L80.1762 158.286L80.0347 158.407L79.8786 158.44L79.8461 158.468L78.691 158.71L77.2058 158.801H76.4043L75.7913 158.71L72.5145 157.649L71.7837 157.528H71.2179L69.9214 157.892L69.1906 158.043L62.4247 158.013L56.3897 158.923L54.0794 159.044L49.2939 158.438L43.0231 158.771L28.6428 155.618L28.2184 155.284L28.0298 155.072L27.8884 154.859L27.7941 154.647L27.6763 154.132L27.4641 153.646L26.7804 152.858L24.9652 151.19L24.6352 150.796L24.5409 150.554V150.311L24.6352 150.038L24.7531 149.795L24.8473 149.523L24.8237 149.28L24.6352 148.886L24.3523 148.673L24.0222 148.522L21.4762 147.824L21.0283 147.552L20.7925 147.218L21.1461 145.702L21.264 145.429L21.4998 145.247L21.5705 145.235L21.5941 145.217L21.9477 145.156L23.1971 145.126L23.5228 145.073L23.7157 144.974L23.7865 144.762L23.7629 144.519L23.6922 144.277L23.4564 143.822L21.6648 141.426L21.4998 141.032V140.759L21.5941 140.748V140.729L21.8534 140.698L25.3188 141.153H25.7667L26.1439 141.123L26.4663 141.068L26.7097 140.971L26.969 140.82L27.4169 140.456L27.6526 140.304L27.9356 140.153L28.008 140.134L28.0298 140.122L28.3363 139.94L29.515 139.819L29.7743 139.667L29.9393 139.425L30.0101 139.243L30.0101 139.243L30.128 138.455L30.0808 137.848L29.9158 137.484L29.7036 137.242L29.3972 137.12L28.077 136.756L27.5819 136.453L27.3698 136.18L27.2991 135.907L27.3226 135.725L27.3698 135.513L27.407 135.437L27.4169 135.392L27.5348 135.149L27.8177 134.694L28.2656 134.24L29.2321 133.512L29.3218 133.32L29.2321 133.118L28.9728 132.905L28.1477 132.39L27.9827 132.087L28.0063 131.814L28.0475 131.761L28.0534 131.692L28.2184 131.48L28.525 131.329L29.185 131.147L29.4915 130.965L29.662 130.745L29.7036 130.237L29.6093 129.903L29.4679 129.63L28.7371 128.872L27.6998 127.993L27.2283 127.538L27.0161 127.235L26.9219 126.901V126.81V126.598V126.507L27.2991 124.87L27.3193 124.506L27.2519 123.899L27.0398 123.566L26.6626 123.384L26.2382 123.323L25.8374 123.354L25.531 123.475L25.3188 123.687L24.9416 124.142L24.7295 124.354L24.4702 124.506L24.258 124.718L23.7865 125.476L23.5978 125.688L23.3622 125.87L23.0557 125.992L22.6785 126.022L19.5902 125.719L19.2602 125.658L18.8123 125.507L18.6944 125.203V125.112V124.324L18.5765 124.051L18.388 123.808L18.1287 123.657L17.8222 123.535L16.4548 123.232L15.8183 122.959L15.4648 122.626L15.1347 122.05L14.7575 121.837L14.3803 121.777L13.6495 121.898L13.1781 121.837L12.9659 121.655L12.848 121.473L12.872 121.42L12.848 121.383L12.9423 121.17L13.4138 120.776L13.6002 120.536L13.5317 120.382L13.3195 120.2L12.683 119.927L10.4905 118.714L7.63806 117.501L6.90726 117.016L6.55368 116.713L6.34149 116.379L6.12936 115.56L5.94073 115.288L5.70499 115.045L5.06848 114.772L3.18253 114.499L2.64035 114.378L2.05096 114.105L1.79166 113.832L1.65021 113.589V113.498V113.286V113.195L1.74451 112.922L3.34753 109.708L3.5126 109.465L3.72479 109.253L3.93692 109.071L4.17267 108.889L4.71487 108.586L5.28067 108.313L6.8837 107.828L7.16656 107.676L7.37875 107.525L7.42685 107.36L7.19019 107.221L6.83658 107.1L5.4928 106.767L5.02136 106.645L4.45554 106.342L4.14911 106.039L4.13543 106.018L4.12555 106.009L3.84268 105.584L3.52326 104.968L3.5126 104.947L3.11179 104.644L2.14526 104.129L1.27301 103.249L0.942963 102.976L0.0714459 102.612L0 102.582L2.59323 100.793L3.22964 99.7316L3.11179 99.489L2.89966 99.3071L2.6522 99.1624L1.41452 98.6703L1.40566 98.6646L1.34369 98.64L1.0137 98.4277L0.730835 98.1245L0.471497 97.5181L0.495087 97.1845L0.589386 96.9419L0.707275 96.8206L1.22589 96.1232L1.98029 94.8193L2.26315 94.4857L3.74835 93.4547L4.3613 92.8483L6.15292 90.2101L6.45938 89.5127L6.60083 88.9972L6.55368 88.7546L6.38861 88.2695L6.15292 87.8146L5.98788 87.6023L4.71487 86.2378L4.12555 85.3887L3.9841 85.1765L3.86624 84.8126L3.77191 84.3881L3.67761 83.63L3.70117 83.1751L3.79547 82.7809L5.06848 79.4454L5.23349 78.7176L5.25705 78.2324L4.97577 77.8103L4.24341 77.1105L4.2388 77.1052L4.14911 77.0195L3.93692 76.7769L3.74835 76.3827L3.8898 76.1704L4.59698 75.9885L4.92706 75.8066L5.23349 75.4124V75.1394L5.1029 74.9475L4.66772 74.6543L4.62293 74.5967L4.57343 74.5633L4.3613 74.2904L4.19623 73.9872L4.17267 73.3201L4.10199 72.9259L3.9841 72.6226L3.32397 71.7433L2.94678 71.0761L2.99396 70.8639L3.06467 70.7426L3.5126 70.5L3.55972 70.4393L4.3613 69.0445L4.62054 68.7716L4.87985 68.5896L5.16281 68.4683L5.4928 68.3774L8.20383 68.0741L9.83047 67.589L10.2077 67.3464L10.6085 66.9825L11.4807 65.7392L11.7636 65.4057L12.0229 65.2541L12.8244 64.7992L13.1073 64.587L13.4374 64.2837L13.9088 63.7682L14.121 63.2527L14.4039 61.7366L14.5689 61.2211L14.7575 60.8269L14.9461 60.6146L15.5591 60.1294L15.7948 59.9475L16.0541 59.7959L16.3842 59.523L16.7141 59.0984L17.7279 57.37L17.94 57.1577L18.1758 56.9758L18.4351 56.8242L20.0146 56.2784L20.3918 56.0358L20.8161 55.7022L21.429 54.9441L21.7119 54.459L21.8298 54.0648L21.8521 53.7786L21.8298 53.5493L21.7827 53.3977L21.7119 53.2157L19.7317 50.2137L19.661 49.8802L19.6858 49.8355L19.6374 49.6073L19.7553 49.395L20.0146 49.2434L23.8571 48.8188L24.2108 48.7279L24.4937 48.6066L25.2245 48.1517L25.4838 47.9091L25.7195 47.6362L26.191 46.9995L26.356 46.6052L26.3656 46.4578L26.2617 46.302L26.0967 46.1201L25.0595 45.453L24.9652 44.8768L25.0595 43.9974L26.0024 40.9045L26.2617 40.389L26.4976 40.2677L26.804 40.207L27.1812 40.2374L27.4876 40.3587L27.6998 40.5406Z" fill="#333333"/>
<path d="M183.5 122.5L184 134L178 137L173 140H172L168 142H166.5L165.5 141V150L163 154L157 156H155.5H151.5L150 158H148.5L140 159L135 157.5L133 158L130.5 157L130 156L129 155L126.5 151L127 140L125.5 138L121 136H120L119 139H118L115 139.5L113 142H111.5L106 141L102 143H101L99 141L98 140.5L91 141L89 143H85L81.25 142H80L78 143H72L66 144H65.5H63L58 143L52 144L38 141L37 140L33 136L32 133L30 132V121L36.5 121.5L34 124L40 127L37 129H38L52 132H58L62.5 132.5H63L66 132L72 130.5L78 131.5L79.5 131H80H81.0625L81.25 130.5L85 131.5L89 130.5L91 130H98H99L101 130.5H102L106 129.5H111.5H113L115 127.5L119 125C121 125 125.1 125.05 125.5 125.25C125.9 125.45 127.333 126.833 128 127.5L133 135L132.5 138L130 139L133.5 144.5L130 146H132.5H135L140 146.5L148.5 145.5L150 145L151.5 144V144.5L155.5 144H156.5L163 140.595V140.278L160.5 140L159 136L162.5 130.5L166.5 129H168L172 127.5H173L178 124.5L183.5 122.5L175 119.5L172 114L184 110L184.5 122.5H183.5Z" fill="url(#paint0_linear)"/>
<path d="M30.5 120V115H31L34.5 117.5V120.5C34.5 121.3 31.8333 120.5 30.5 120Z" fill="url(#paint1_linear)"/>
<path d="M41 115C41 115.4 38 115.833 36.5 116C36.5 114.965 38 116.314 38 115L35.5 116L34.5 108H33.5L32 110H27L25.5 106.5L24.5 106L22 104.5L21 105.5H20L19 105V103.5H18.5L16 102L10.5 99V87.5L9 87V76.5L18 77.5L19.5 80.5L17.5 84L13.1412 86.1794C14.204 86.0137 15.3272 85.8277 16 85.6875C17.2 85.4375 16.5 87.7917 16 89L25 92L32 96.5H38.5L43 102.5L40 110H41L41.5 112.5C41.3333 113.167 41 114.6 41 115Z" fill="url(#paint2_linear)"/>
<path d="M9.5 76V71.5L13 73C13.1667 73.5 13.6 74.7 14 75.5C14.4 76.3 12.1667 76.1667 11 76H9.5Z" fill="url(#paint3_linear)"/>
<path d="M12.5 58L13 57.5L16.5 61C17 61.5 17.5 63 17.5 63.5C17.5 63.9 16.8333 65.6667 16.5 66.5L12.5 68V58Z" fill="url(#paint4_linear)"/>
<path d="M14.5 55L13 56V52L12 51V45H12.1875L14.5 46L16 48.5L14.0699 50.7518C14.6597 50.8823 15.2623 51 15.5 51C16 51 16 52.5 16 54C16 55.2 15 55.1667 14.5 55Z" fill="url(#paint5_linear)"/>
<path d="M28.5 31.3125V23.5C30 24.6667 33 27.1 33 27.5C33 28 32.5 29.5 33 30C33.4 30.4 30.1667 31.0417 28.5 31.3125Z" fill="url(#paint6_linear)"/>
<path d="M34 24V18.5L37 20C36.8333 20.6667 36.4 22.2 36 23C35.6 23.8 34.5 24 34 24Z" fill="url(#paint7_linear)"/>
<path d="M163 41.5V26L146.5 30L143.5 36L155 45.5L163 41.5Z" fill="url(#paint8_linear)"/>
<path d="M169 58V44.5L153.5 50L155 55.5L169 58Z" fill="url(#paint9_linear)"/>
<path d="M175 70V69L160 77.5L150.5 86L156.5 93H171L173.5 90V84.5L175 79.5V70Z" fill="url(#paint10_linear)"/>
<path d="M170 65.5V58L166 63L167 65.5H170Z" fill="url(#paint11_linear)"/>
<path d="M36.6998 14.5406L36.912 14.7225L37.908 14.9045L41.908 11L43.408 8L49.908 5L51.908 9H57.908L64.408 6L73.908 0V5L79.908 8L80.908 10.5L88.908 6.5L98.908 8L101.908 13L102.908 16L112.908 9L119.408 6.5H123.408L132.908 3.5L137.408 2.5L143.908 11L142.908 13L147.908 20L161.078 20.625L163.034 25.9421L162.869 26.7609L162.681 27.3067L161.95 28.2164L161.078 28.9745L160.182 29.49L158.013 30.4906L156.693 30.8848L155.962 31.0061L155.137 31.0365L154.831 31.1577L154.736 31.4307L155.891 34.463L156.481 38.1018L156.787 39.0721L157.023 39.527L157.164 39.7089L157.306 39.8302L157.332 39.8226L157.518 39.7696L157.73 39.618L159.145 38.1321L159.38 37.9805L159.687 37.9199L160.04 37.9805L160.771 38.1624L160.836 38.1913L160.842 38.1928L162.068 38.7386L164.166 40.0121L164.567 40.4064L164.727 40.6126L164.826 40.6489L164.944 40.8915L165.109 41.3767L165.227 41.589L165.486 41.7406L165.816 41.8619L167.443 42.2257L168.126 42.4987L168.386 42.6806L168.857 43.0142L169.022 43.2264L169.164 43.4387L169.258 43.6813L169.27 43.8328L169.282 43.8632L169.305 44.1664L169.258 44.5L168.952 44.9548L168.009 45.8342L167.631 46.2587L167.49 46.562L167.419 46.8955L167.349 47.3201V47.8052L167.514 49.4124L167.466 49.9582L167.16 50.3827H166.853L166.547 50.2917L166.288 50.1401L165.745 49.8369L165.392 49.7459L164.968 49.6853H162.799L162.492 49.8975L162.433 50.2555L162.681 51.0801L163.058 51.444L163.459 51.5956L163.836 51.626L164.142 51.7473L164.378 51.9292L168.056 55.8409L169.659 57.0841L169.847 57.2661L169.965 57.5693L169.972 57.708L169.989 57.7513L170.012 58.2364L168.527 63.1488L168.511 63.3509L168.574 63.5127L168.904 63.6946L169.187 63.7553L171.757 63.543L172.653 63.6643L173.407 63.8766L173.902 64.2101L174.091 64.4224L174.209 64.665L174.397 65.1501L174.609 66.1205L175.482 68.516V68.6333L175.505 68.698V69.0315L175.387 69.4257L174.963 70.0625L174.609 70.3961L174.279 70.6084L172.087 71.3664L171.851 71.5181L171.639 71.7303L170.932 72.6703L168.928 74.5504L168.268 75.3085L167.561 76.2485L167.466 76.4911V76.6452L167.726 77.0065L167.985 77.2491L168.291 77.4614L169.47 78.0375L169.682 78.2498L169.73 78.553L169.726 78.5608L169.753 78.735L169.399 79.5234L168.669 80.8273L168.527 81.0092L168.291 81.1912L167.961 81.2821L167.136 81.3428L166.901 81.4944L166.868 81.7458L167.113 82.1918L167.466 82.4344L168.197 82.7377L168.409 82.9196L168.527 83.0712L168.598 83.1925L168.645 83.2835L168.633 83.3959L168.669 83.4654L168.645 83.6777L168.551 84.0112L167.891 85.3758L167.726 85.6184L167.514 85.8306L167.254 85.9822L166.948 86.0732L166.547 86.1035L165.321 85.8913H164.968L164.661 85.8306L164.52 86.0429L164.543 86.2855L164.826 86.5584L165.887 86.9829L166.123 87.1345L166.17 87.3468L165.934 87.6501L165.722 87.8623L165.415 88.0139L165.038 88.0443L163.459 88.1352L163.27 88.3475L163.294 88.6507L163.718 89.1966L164.142 89.3785L164.543 89.4088L164.92 89.3785L167.631 88.6811L168.009 88.6507L170.955 88.6204L171.356 88.6811L171.686 88.8024L172.228 89.1359L173.053 89.8637L173.242 90.0456L173.431 90.2276L173.596 90.4398L173.761 90.6218L173.996 90.925L174.374 92.896L175.364 94.2606L175.529 95.3825L175.835 95.7767L176.189 95.9587L177.014 95.9283L177.462 95.989L177.863 96.0497L178.169 96.2013L178.381 96.3832L178.546 96.5955L179.348 97.8994L179.937 98.6271L180.126 98.8091L180.361 98.9607L180.692 99.082L181.493 99.2942L181.729 99.6581L181.8 100.295L181.352 103.054L181.399 103.843V104.116L181.352 104.419L181.281 105.329V105.571L181.375 105.814L181.493 106.026L181.682 106.208L181.941 106.36L182.2 106.541L183.167 106.936L183.45 107.087L183.615 107.421L183.709 107.906L183.685 108.846L183.968 109.24L184.133 109.604L184.157 109.907L183.52 110.605L183.397 110.676L183.379 110.696L182.908 110.969L182.483 111.181L180.126 111.515L179.937 111.575L179.846 111.619L179.678 111.787L179.536 112.06L179.513 112.546L179.607 113.182L180.479 115.79L180.432 115.942L180.244 116.154L179.796 116.457L179.584 116.76L179.56 117.215L179.678 117.488L179.843 117.761L183.733 122.067L183.85 122.31L183.898 122.552L183.662 122.946L183.261 123.401L181.658 124.493L181.63 124.507L181.517 124.584L181.022 124.826L179.088 125.433L178.894 125.548L178.523 125.857L178.051 126.525L176.896 127.495L176.78 127.565L176.755 127.586L176.401 127.798L176.142 127.95L175.812 128.041L174.774 128.283L174.468 128.405L173.761 128.859L173.761 128.86L173.619 128.95L173.124 129.163L170.814 129.83L168.221 131.012L167.867 131.073L167.49 131.103L166.877 131.043L166.594 131.103L166.284 131.244L165.84 131.68L165.726 131.744L165.698 131.77L165.321 131.983L164.897 132.104L164.025 132.043L163.647 132.074L163.317 132.134L162.859 132.356L162.681 132.559L162.539 132.862L162.728 133.469L162.94 133.802L163.294 134.287L163.341 134.651L163.317 135.136L163.011 136.046L162.799 136.531L162.587 136.925L162.021 137.562L161.62 137.956L161.101 138.351L161.007 138.502L161.078 138.654L161.997 138.775H162.869L164.472 138.593H164.85L165.203 138.624L165.415 138.775L165.51 139.048V139.412L165.415 139.988L165.321 140.382L165.109 140.716L164.802 140.958L164.76 140.971L164.661 141.049L163.553 141.383L163.263 141.546L163.176 141.595L162.94 141.777L162.741 142.744L162.728 142.808L160.96 142.747L160.258 142.945L160.064 143.081L159.852 143.263L157.494 144.628L157.458 144.641L157.377 144.688L156.646 144.961L156.009 145.082L154.831 145.022L151.789 145.204L150.917 145.416L150.489 145.608L150.375 145.871L150.281 146.144L150.186 146.78L150.021 147.144L149.911 147.188L149.904 147.205L149.597 147.326H149.22L147.829 147.144L140.285 147.357L135.24 146.75L132.576 146.841L131.115 146.599L130.478 146.386L130.054 146.204L129.771 146.022L129.582 145.84L129.512 145.628L129.606 145.416L129.818 145.234L130.525 144.688L130.738 144.476L130.879 144.264L130.903 144.051L130.808 143.839L129.889 142.869L129.795 142.657L129.724 142.414L129.677 142.141L129.535 141.838L129.252 141.504L127.932 140.837L127.626 140.625L127.555 140.504V140.291L127.649 140.049L127.814 139.806L128.215 139.382L131.728 136.653L131.775 136.44L131.61 136.167L129.653 135.167L129.441 135.015L129.229 134.833L128.687 134.227L127.579 132.589L127.532 132.438L127.484 132.225L127.461 131.983L127.532 131.407L127.508 131.134L127.437 130.861L127.343 130.618L127.272 130.376V130.133L127.343 129.89L127.555 129.496L127.39 129.193L127.06 128.799L125.905 128.041L125.575 127.646L125.481 127.313L125.598 127.07L125.693 126.828L125.598 126.525L125.292 126.373L124.891 126.282L120.436 125.797L120.147 125.831L119.846 126.009L119.587 126.525L119.28 127.01L119.092 127.252L118.88 127.465L118.338 127.768L117.701 127.98L117.608 128.001L117.512 128.041L115.876 128.416L115.061 128.738L114.801 128.89L114.589 129.072L113.693 130.163L113.033 131.164L112.868 131.376L112.656 131.528L112.491 131.649L112.302 131.74H112.24L112.114 131.801H111.43L106.126 131.164H105.749L105.441 131.221L104.358 131.589L104.319 131.598L104.169 131.649L103.085 131.922L101.576 132.104L101.246 131.983L101.01 131.831L100.822 131.649L100.398 131.376L98.6294 130.679L97.9694 130.588L91.7929 130.406L91.1369 130.459L90.9678 130.558L89.5769 132.013L89.1762 132.286L89.0347 132.407L88.8786 132.44L88.8461 132.468L87.691 132.71L86.2058 132.801H85.4043L84.7913 132.71L81.5145 131.649L80.7837 131.528H80.2179L78.9214 131.892L78.1906 132.043L71.4247 132.013L65.3897 132.923L63.0794 133.044L58.2939 132.438L52.0231 132.771L37.6428 129.618L37.2184 129.284L37.0298 129.072L36.8884 128.859L36.7941 128.647L36.6763 128.132L36.4641 127.646L35.7804 126.858L33.9652 125.19L33.6352 124.796L33.5409 124.554V124.311L33.6352 124.038L33.7531 123.795L33.8473 123.523L33.8237 123.28L33.6352 122.886L33.3523 122.673L33.0222 122.522L30.4762 121.824L30.0283 121.552L29.7925 121.218L30.1461 119.702L30.264 119.429L30.4998 119.247L30.5705 119.235L30.5941 119.217L30.9477 119.156L32.1971 119.126L32.5228 119.073L32.7157 118.974L32.7865 118.762L32.7629 118.519L32.6922 118.277L32.4564 117.822L30.6648 115.426L30.4998 115.032V114.759L30.5941 114.748V114.729L30.8534 114.698L34.3188 115.153H34.7667L35.1439 115.123L35.4663 115.068L35.7097 114.971L35.969 114.82L36.4169 114.456L36.6526 114.304L36.9356 114.153L37.008 114.134L37.0298 114.122L37.3363 113.94L38.515 113.819L38.7743 113.667L38.9393 113.425L39.0101 113.243L39.0101 113.243L39.128 112.455L39.0808 111.848L38.9158 111.484L38.7036 111.242L38.3972 111.12L37.077 110.756L36.5819 110.453L36.3698 110.18L36.2991 109.907L36.3226 109.725L36.3698 109.513L36.407 109.437L36.4169 109.392L36.5348 109.149L36.8177 108.694L37.2656 108.24L38.2321 107.512L38.3218 107.32L38.2321 107.118L37.9728 106.905L37.1477 106.39L36.9827 106.087L37.0063 105.814L37.0475 105.761L37.0534 105.692L37.2184 105.48L37.525 105.329L38.185 105.147L38.4915 104.965L38.662 104.745L38.7036 104.237L38.6093 103.903L38.4679 103.63L37.7371 102.872L36.6998 101.993L36.2283 101.538L36.0161 101.235L35.9219 100.901V100.81V100.598V100.507L36.2991 98.8697L36.3193 98.5059L36.2519 97.8994L36.0398 97.5658L35.6626 97.3839L35.2382 97.3232L34.8374 97.3535L34.531 97.4748L34.3188 97.6871L33.9416 98.1419L33.7295 98.3542L33.4702 98.5058L33.258 98.7181L32.7865 99.4762L32.5978 99.6884L32.3622 99.8704L32.0557 99.9917L31.6785 100.022L28.5902 99.7188L28.2602 99.6581L27.8123 99.5065L27.6944 99.2033V99.1123V98.3239L27.5765 98.051L27.388 97.8084L27.1287 97.6568L26.8222 97.5355L25.4548 97.2322L24.8183 96.9593L24.4648 96.6258L24.1347 96.0497L23.7575 95.8374L23.3803 95.7767L22.6495 95.898L22.1781 95.8374L21.9659 95.6554L21.848 95.4735L21.872 95.4195L21.848 95.3825L21.9423 95.1703L22.4138 94.7761L22.6002 94.5362L22.5317 94.3819L22.3195 94.1999L21.683 93.927L19.4905 92.7141L16.6381 91.5011L15.9073 91.016L15.5537 90.7127L15.3415 90.3792L15.1294 89.5605L14.9407 89.2875L14.705 89.0449L14.0685 88.772L12.1825 88.4991L11.6404 88.3778L11.051 88.1049L10.7917 87.832L10.6502 87.5894V87.4984V87.2862V87.1952L10.7445 86.9223L12.3475 83.708L12.5126 83.4654L12.7248 83.2531L12.9369 83.0712L13.1727 82.8893L13.7149 82.586L14.2807 82.3131L15.8837 81.8279L16.1666 81.6763L16.3788 81.5247L16.4269 81.3599L16.1902 81.2215L15.8366 81.1002L14.4928 80.7666L14.0214 80.6453L13.4555 80.3421L13.1491 80.0389L13.1354 80.0183L13.1255 80.0086L12.8427 79.584L12.5233 78.9678L12.5126 78.9473L12.1118 78.644L11.1453 78.1285L10.273 77.2491L9.94296 76.9762L9.07145 76.6119L9 76.582L11.5932 74.793L12.2296 73.7316L12.1118 73.489L11.8997 73.3071L11.6522 73.1624L10.4145 72.6703L10.4057 72.6646L10.3437 72.64L10.0137 72.4277L9.73083 72.1245L9.4715 71.5181L9.49509 71.1845L9.58939 70.9419L9.70728 70.8206L10.2259 70.1232L10.9803 68.8193L11.2632 68.4857L12.7484 67.4547L13.3613 66.8483L15.1529 64.2101L15.4594 63.5127L15.6008 62.9972L15.5537 62.7546L15.3886 62.2695L15.1529 61.8146L14.9879 61.6023L13.7149 60.2378L13.1255 59.3887L12.9841 59.1765L12.8662 58.8126L12.7719 58.3881L12.6776 57.63L12.7012 57.1751L12.7955 56.7809L14.0685 53.4454L14.2335 52.7176L14.257 52.2324L13.9758 51.8103L13.2434 51.1105L13.2388 51.1052L13.1491 51.0195L12.9369 50.7769L12.7484 50.3827L12.8898 50.1704L13.597 49.9885L13.9271 49.8066L14.2335 49.4124V49.1394L14.1029 48.9475L13.6677 48.6543L13.6229 48.5967L13.5734 48.5633L13.3613 48.2904L13.1962 47.9872L13.1727 47.3201L13.102 46.9259L12.9841 46.6226L12.324 45.7433L11.9468 45.0761L11.994 44.8639L12.0647 44.7426L12.5126 44.5L12.5597 44.4393L13.3613 43.0445L13.6205 42.7716L13.8799 42.5896L14.1628 42.4683L14.4928 42.3774L17.2038 42.0741L18.8305 41.589L19.2077 41.3464L19.6085 40.9825L20.4807 39.7392L20.7636 39.4057L21.0229 39.2541L21.8244 38.7992L22.1073 38.587L22.4374 38.2837L22.9088 37.7682L23.121 37.2527L23.4039 35.7366L23.5689 35.2211L23.7575 34.8269L23.9461 34.6146L24.5591 34.1294L24.7948 33.9475L25.0541 33.7959L25.3842 33.523L25.7141 33.0984L26.7279 31.37L26.94 31.1577L27.1758 30.9758L27.4351 30.8242L29.0146 30.2784L29.3918 30.0358L29.8161 29.7022L30.429 28.9441L30.7119 28.459L30.8298 28.0648L30.8521 27.7786L30.8298 27.5493L30.7827 27.3977L30.7119 27.2157L28.7317 24.2137L28.661 23.8802L28.6858 23.8355L28.6374 23.6073L28.7553 23.395L29.0146 23.2434L32.8571 22.8188L33.2108 22.7279L33.4937 22.6066L34.2245 22.1517L34.4838 21.9091L34.7195 21.6362L35.191 20.9995L35.356 20.6052L35.3656 20.4578L35.2617 20.302L35.0967 20.1201L34.0595 19.453L33.9652 18.8768L34.0595 17.9974L35.0024 14.9045L35.2617 14.389L35.4976 14.2677L35.804 14.207L36.1812 14.2374L36.4876 14.3587L36.6998 14.5406Z" fill="url(#paint12_linear)"/>
<defs>
<linearGradient id="paint0_linear" x1="67" y1="-59" x2="54.4818" y2="141.652" gradientUnits="userSpaceOnUse">
<stop stop-color="#3A90B6"/>
<stop offset="1" stop-color="#075F92"/>
</linearGradient>
<linearGradient id="paint1_linear" x1="67" y1="-59" x2="54.4818" y2="141.652" gradientUnits="userSpaceOnUse">
<stop stop-color="#3A90B6"/>
<stop offset="1" stop-color="#075F92"/>
</linearGradient>
<linearGradient id="paint2_linear" x1="67" y1="-59" x2="54.4818" y2="141.652" gradientUnits="userSpaceOnUse">
<stop stop-color="#3A90B6"/>
<stop offset="1" stop-color="#075F92"/>
</linearGradient>
<linearGradient id="paint3_linear" x1="67" y1="-59" x2="54.4818" y2="141.652" gradientUnits="userSpaceOnUse">
<stop stop-color="#3A90B6"/>
<stop offset="1" stop-color="#075F92"/>
</linearGradient>
<linearGradient id="paint4_linear" x1="67" y1="-59" x2="54.4818" y2="141.652" gradientUnits="userSpaceOnUse">
<stop stop-color="#3A90B6"/>
<stop offset="1" stop-color="#075F92"/>
</linearGradient>
<linearGradient id="paint5_linear" x1="67" y1="-59" x2="54.4818" y2="141.652" gradientUnits="userSpaceOnUse">
<stop stop-color="#3A90B6"/>
<stop offset="1" stop-color="#075F92"/>
</linearGradient>
<linearGradient id="paint6_linear" x1="67" y1="-59" x2="54.4818" y2="141.652" gradientUnits="userSpaceOnUse">
<stop stop-color="#3A90B6"/>
<stop offset="1" stop-color="#075F92"/>
</linearGradient>
<linearGradient id="paint7_linear" x1="67" y1="-59" x2="54.4818" y2="141.652" gradientUnits="userSpaceOnUse">
<stop stop-color="#3A90B6"/>
<stop offset="1" stop-color="#075F92"/>
</linearGradient>
<linearGradient id="paint8_linear" x1="67" y1="-59" x2="54.4818" y2="141.652" gradientUnits="userSpaceOnUse">
<stop stop-color="#3A90B6"/>
<stop offset="1" stop-color="#075F92"/>
</linearGradient>
<linearGradient id="paint9_linear" x1="67" y1="-59" x2="54.4818" y2="141.652" gradientUnits="userSpaceOnUse">
<stop stop-color="#3A90B6"/>
<stop offset="1" stop-color="#075F92"/>
</linearGradient>
<linearGradient id="paint10_linear" x1="67" y1="-59" x2="54.4818" y2="141.652" gradientUnits="userSpaceOnUse">
<stop stop-color="#3A90B6"/>
<stop offset="1" stop-color="#075F92"/>
</linearGradient>
<linearGradient id="paint11_linear" x1="67" y1="-59" x2="54.4818" y2="141.652" gradientUnits="userSpaceOnUse">
<stop stop-color="#3A90B6"/>
<stop offset="1" stop-color="#075F92"/>
</linearGradient>
<linearGradient id="paint12_linear" x1="126" y1="179" x2="-11.8178" y2="-74.1709" gradientUnits="userSpaceOnUse">
<stop stop-color="#59BDE4"/>
<stop offset="0.260417" stop-color="#43A9D5"/>
<stop offset="0.697917" stop-color="#0B77B0"/>
<stop offset="1" stop-color="#015E94"/>
</linearGradient>
</defs>
</svg>
