<?xml version="1.0" encoding="UTF-8"?>
<svg width="19px" height="20px" viewBox="0 0 19 20" version="1.1" xmlns="http://www.w3.org/2000/svg" xmlns:xlink="http://www.w3.org/1999/xlink">
    <!-- Generator: Sketch 46 (44423) - http://www.bohemiancoding.com/sketch -->
    <title>Group</title>
    <desc>Created with Sketch.</desc>
    <defs></defs>
    <g id="Page-1" stroke="none" stroke-width="1" fill="none" fill-rule="evenodd">
        <g id="icon" transform="translate(-36.000000, -158.000000)" fill-rule="nonzero" fill="#F56107">
            <g id="Group" transform="translate(36.000000, 158.000000)">
                <g id="database">
                    <path d="M18.0335593,15.9389831 C17.8474576,15.9023729 17.6711864,16.020678 17.6335593,16.2037288 C17.2552542,18.0688136 15.7877966,19.3220339 13.9827119,19.3220339 C12.2783051,19.3220339 10.780678,18.2033898 10.2715254,16.6101695 L11.8644068,16.6101695 L11.8644068,15.9322034 L9.15254237,15.9322034 L9.15254237,18.6440678 L9.83050847,18.6440678 L9.83050847,17.339322 C10.5657627,18.9264407 12.1745763,20 13.9827119,20 C16.119661,20 17.8538983,18.5284746 18.2983051,16.3386441 C18.3355932,16.1549153 18.2169492,15.9762712 18.0335593,15.9389831 Z" id="Shape"></path>
                    <path d="M17.9661017,11.8644068 L17.9661017,13.3250847 C17.2033898,11.8149153 15.6935593,10.8474576 13.9827119,10.8474576 C11.9118644,10.8474576 10.0705085,12.2023729 9.50508475,14.1427119 C9.45288136,14.3223729 9.5559322,14.5105085 9.7359322,14.5627119 C9.9159322,14.6142373 10.1040678,14.5115254 10.1559322,14.3318644 C10.6298305,12.7057627 12.2389831,11.5254237 13.9827119,11.5254237 C15.5301695,11.5254237 16.8850847,12.4630508 17.4844068,13.8983051 L15.9322034,13.8983051 L15.9322034,14.5762712 L18.6440678,14.5762712 L18.6440678,11.8644068 L17.9661017,11.8644068 Z" id="Shape"></path>
                    <path d="M8.47457627,13.9610169 C8.19423729,13.9610169 7.91966102,13.9555932 7.65016949,13.9461017 C7.48644068,13.94 7.32813559,13.9294915 7.16813559,13.920339 C7.06779661,13.9145763 6.96474576,13.9108475 6.86610169,13.9037288 C6.65389831,13.8884746 6.44779661,13.8688136 6.2440678,13.8477966 C6.2040678,13.8437288 6.1620339,13.840678 6.12237288,13.8362712 C5.88915254,13.8108475 5.6620339,13.7816949 5.44033898,13.7491525 C5.43322034,13.7481356 5.42542373,13.7471186 5.4179661,13.7461017 C4.27152542,13.5766102 3.28779661,13.3186441 2.51830508,13.0115254 C2.51355932,13.0094915 2.50813559,13.0077966 2.50338983,13.0057627 C2.3620339,12.9491525 2.22983051,12.8905085 2.10338983,12.8308475 C2.08813559,12.8237288 2.07186441,12.8166102 2.05661017,12.8091525 C1.94338983,12.7545763 1.83830508,12.6983051 1.7379661,12.6416949 C1.71355932,12.6277966 1.68847458,12.6142373 1.66474576,12.600339 C1.57728814,12.5491525 1.49762712,12.4966102 1.42135593,12.4440678 C1.39186441,12.4233898 1.36135593,12.4030508 1.33355932,12.3823729 C1.26915254,12.3345763 1.21118644,12.2867797 1.1559322,12.2383051 C1.12542373,12.2115254 1.09491525,12.1850847 1.06745763,12.1579661 C1.0220339,12.1142373 0.982033898,12.0698305 0.94440678,12.0254237 C0.917966102,11.9942373 0.892542373,11.9627119 0.870169492,11.9315254 C0.840338983,11.8898305 0.814915254,11.8481356 0.791864407,11.8064407 C0.773559322,11.7728814 0.757288136,11.739322 0.743389831,11.7057627 C0.726779661,11.6647458 0.713559322,11.6237288 0.704067797,11.5830508 C0.691864407,11.5281356 0.677966102,11.4728814 0.677966102,11.4186441 L0.677966102,8.63661017 C0.687457627,8.64542373 0.699322034,8.65389831 0.709152542,8.66271186 C0.783050847,8.72745763 0.858305085,8.79220339 0.943050847,8.85457627 C2.22,9.82067797 4.77389831,10.5708475 8.47491525,10.5708475 C12.160339,10.5708475 14.7074576,9.82644068 15.9898305,8.86644068 C16.0922034,8.79186441 16.1844068,8.71491525 16.2711864,8.63661017 L16.2715254,8.63661017 L16.2715254,9.89322034 C16.2715254,10.080678 16.4230508,10.2322034 16.6105085,10.2322034 C16.7979661,10.2322034 16.9494915,10.080678 16.9494915,9.89322034 L16.9494915,7.52033898 L16.9494915,7.35084746 L16.9494915,3.28305085 L16.9494915,3.11355932 C16.9494915,3.05864407 16.9335593,3.00881356 16.9105085,2.96305085 C16.5067797,1.27762712 12.9474576,0 8.47457627,0 C4.00169492,0 0.442033898,1.27762712 0.0389830508,2.96271186 C0.0159322034,3.00847458 0,3.05830508 0,3.11355932 L0,3.28305085 L0,7.35084746 L0,7.52033898 L0,11.4186441 L0,11.5881356 L0,15.6559322 C0,15.7105085 0.0142372881,15.7620339 0.0389830508,15.8077966 C0.425084746,17.4461017 3.66305085,18.4111864 6.75423729,18.6430508 C6.76271186,18.6437288 6.77152542,18.6440678 6.78,18.6440678 C6.9559322,18.6440678 7.10440678,18.5088136 7.11762712,18.3305085 C7.13152542,18.1437288 6.99186441,17.9810169 6.80508475,17.9671186 C3.03762712,17.6844068 0.842033898,16.5369492 0.688813559,15.6010169 C0.686101695,15.5857627 0.682711864,15.5711864 0.677966102,15.5566102 L0.677966102,12.7044068 C0.687457627,12.7132203 0.699322034,12.7216949 0.709152542,12.7305085 C0.783050847,12.7952542 0.858305085,12.86 0.943050847,12.9223729 C2.22,13.8884746 4.77389831,14.6386441 8.47491525,14.6386441 C8.66237288,14.6386441 8.81389831,14.4871186 8.81389831,14.299661 C8.81389831,14.1122034 8.6620339,13.9610169 8.47457627,13.9610169 Z M0.881694915,4.73932203 C0.983389831,4.81932203 1.09322034,4.89830508 1.21220339,4.97525424 C1.23694915,4.99118644 1.26474576,5.00677966 1.29050847,5.02271186 C1.39050847,5.08474576 1.49559322,5.14576271 1.60677966,5.20508475 C1.64779661,5.22711864 1.68881356,5.24881356 1.73118644,5.27050847 C1.85491525,5.33355932 1.98474576,5.39457627 2.12135593,5.45423729 C2.14372881,5.4640678 2.1640678,5.47423729 2.18677966,5.48372881 C2.34576271,5.55118644 2.51457627,5.61559322 2.69016949,5.67762712 C2.73864407,5.69491525 2.78949153,5.71118644 2.83932203,5.72813559 C2.97898305,5.77525424 3.12338983,5.82033898 3.27288136,5.8640678 C3.32677966,5.87966102 3.37966102,5.8959322 3.43491525,5.91118644 C3.63322034,5.96610169 3.8379661,6.01830508 4.05288136,6.06644068 C4.08237288,6.07322034 4.11423729,6.07898305 4.1440678,6.08542373 C4.33355932,6.12677966 4.53016949,6.16508475 4.73220339,6.20067797 C4.80067797,6.21288136 4.87016949,6.22440678 4.94,6.2359322 C5.13220339,6.26745763 5.33016949,6.29661017 5.53322034,6.32305085 C5.58542373,6.32983051 5.63525424,6.33728814 5.68813559,6.3440678 C5.94033898,6.37457627 6.20135593,6.40067797 6.46949153,6.42305085 C6.53559322,6.42847458 6.60440678,6.43254237 6.67152542,6.43728814 C6.88610169,6.45288136 7.10542373,6.46576271 7.32983051,6.4759322 C7.41152542,6.47966102 7.49288136,6.48338983 7.57627119,6.48610169 C7.86881356,6.49627119 8.16644068,6.50305085 8.47457627,6.50305085 C8.78271186,6.50305085 9.08067797,6.4959322 9.37288136,6.48610169 C9.4559322,6.48338983 9.53728814,6.47932203 9.61932203,6.4759322 C9.84372881,6.46576271 10.0630508,6.45288136 10.2776271,6.43728814 C10.3447458,6.43220339 10.4132203,6.42847458 10.479661,6.42305085 C10.7477966,6.40101695 11.0088136,6.37457627 11.2610169,6.3440678 C11.3138983,6.33762712 11.3637288,6.32983051 11.4159322,6.32305085 C11.6189831,6.29661017 11.8166102,6.26745763 12.0091525,6.2359322 C12.0789831,6.22440678 12.1484746,6.21288136 12.2169492,6.20067797 C12.4189831,6.16508475 12.6155932,6.12677966 12.8050847,6.08542373 C12.8349153,6.07898305 12.8667797,6.07322034 12.8962712,6.06644068 C13.1111864,6.01830508 13.3159322,5.96610169 13.5142373,5.91118644 C13.5694915,5.8959322 13.6223729,5.88 13.6762712,5.8640678 C13.8257627,5.82067797 13.9701695,5.77525424 14.1098305,5.72813559 C14.159661,5.71118644 14.2105085,5.69491525 14.2589831,5.67762712 C14.4345763,5.61525424 14.6037288,5.55084746 14.7623729,5.48372881 C14.7850847,5.47423729 14.8054237,5.46372881 14.8277966,5.45423729 C14.9644068,5.39457627 15.0942373,5.33355932 15.2179661,5.27050847 C15.260339,5.24881356 15.3016949,5.22711864 15.3423729,5.20508475 C15.4532203,5.14576271 15.5586441,5.08508475 15.6583051,5.02271186 C15.6840678,5.00677966 15.7118644,4.99118644 15.7366102,4.97525424 C15.8555932,4.89830508 15.9654237,4.81966102 16.0671186,4.73932203 C16.0925424,4.71898305 16.1152542,4.69864407 16.14,4.67830508 C16.1840678,4.64169492 16.2305085,4.60542373 16.2711864,4.56847458 L16.2711864,7.35050847 C16.2711864,7.40508475 16.2572881,7.46 16.2444068,7.51491525 C16.2349153,7.5559322 16.2216949,7.59661017 16.2050847,7.63762712 C16.1915254,7.67118644 16.1749153,7.70474576 16.1566102,7.73830508 C16.1338983,7.78 16.1084746,7.82169492 16.0783051,7.86338983 C16.0559322,7.89457627 16.0305085,7.92610169 16.0040678,7.95728814 C15.9664407,8.00135593 15.9264407,8.04576271 15.8810169,8.08983051 C15.8532203,8.11694915 15.8230508,8.14338983 15.7925424,8.17016949 C15.7372881,8.21864407 15.679322,8.26644068 15.6149153,8.31423729 C15.5871186,8.33491525 15.5566102,8.35525424 15.5271186,8.3759322 C15.4508475,8.42847458 15.3711864,8.48101695 15.2837288,8.53220339 C15.260339,8.54610169 15.2349153,8.56 15.2105085,8.57355932 C15.1101695,8.63016949 15.0050847,8.68644068 14.8918644,8.74101695 C14.8766102,8.74847458 14.860339,8.75559322 14.8450847,8.76271186 C14.7186441,8.82237288 14.5864407,8.88101695 14.4450847,8.93762712 C14.440339,8.93966102 14.4349153,8.94135593 14.4301695,8.94338983 C13.660678,9.25050847 12.6769492,9.50847458 11.5305085,9.6779661 C11.5233898,9.67898305 11.5155932,9.67966102 11.5081356,9.68101695 C11.2867797,9.71355932 11.059322,9.74271186 10.8261017,9.76813559 C10.7864407,9.77254237 10.7444068,9.77525424 10.7044068,9.77966102 C10.500339,9.80067797 10.2942373,9.82033898 10.0823729,9.83559322 C9.98372881,9.84271186 9.88067797,9.84644068 9.78033898,9.85220339 C9.62067797,9.86135593 9.46237288,9.87220339 9.29830508,9.8779661 C9.02881356,9.88745763 8.75389831,9.89288136 8.47389831,9.89288136 C8.19389831,9.89288136 7.91898305,9.88745763 7.64949153,9.8779661 C7.48576271,9.87186441 7.32745763,9.86135593 7.16745763,9.85220339 C7.06711864,9.84644068 6.9640678,9.84271186 6.86542373,9.83559322 C6.65322034,9.82033898 6.44711864,9.80067797 6.24338983,9.77966102 C6.20338983,9.77559322 6.16135593,9.77254237 6.12169492,9.76813559 C5.88847458,9.74271186 5.66135593,9.71355932 5.43966102,9.68101695 C5.43254237,9.68 5.42474576,9.67898305 5.41728814,9.6779661 C4.27084746,9.50847458 3.28711864,9.25050847 2.51762712,8.94338983 C2.51288136,8.94135593 2.50745763,8.93966102 2.50271186,8.93762712 C2.36135593,8.88101695 2.22915254,8.82237288 2.10271186,8.76271186 C2.08745763,8.75559322 2.07118644,8.74847458 2.0559322,8.74101695 C1.94271186,8.68644068 1.83762712,8.63016949 1.73728814,8.57355932 C1.71288136,8.55966102 1.68779661,8.54610169 1.6640678,8.53220339 C1.57661017,8.48101695 1.49694915,8.42847458 1.42067797,8.3759322 C1.39118644,8.35525424 1.36067797,8.33491525 1.33288136,8.31423729 C1.26847458,8.26644068 1.21050847,8.21864407 1.15525424,8.17016949 C1.12474576,8.14338983 1.09423729,8.11694915 1.06677966,8.08983051 C1.02135593,8.04610169 0.981355932,8.00169492 0.943728814,7.95728814 C0.917288136,7.92610169 0.891864407,7.89457627 0.869491525,7.86338983 C0.839661017,7.82169492 0.814237288,7.78 0.791186441,7.73830508 C0.772881356,7.70474576 0.756610169,7.67118644 0.742711864,7.63762712 C0.726101695,7.59661017 0.712881356,7.55559322 0.703389831,7.51491525 C0.691864407,7.46033898 0.677966102,7.40508475 0.677966102,7.35084746 L0.677966102,4.56881356 C0.718644068,4.60576271 0.765084746,4.6420339 0.809152542,4.67864407 C0.833559322,4.69864407 0.856271186,4.71932203 0.881694915,4.73932203 Z M8.47457627,0.677966102 C13.0694915,0.677966102 16.2711864,2.05084746 16.2711864,3.28305085 C16.2711864,4.48576271 13.0694915,5.82542373 8.47457627,5.82542373 C3.87966102,5.82542373 0.677966102,4.48576271 0.677966102,3.28305085 C0.677966102,2.05084746 3.87966102,0.677966102 8.47457627,0.677966102 Z" id="Shape"></path>
                </g>
            </g>
        </g>
    </g>
</svg>