<?xml version="1.0" encoding="UTF-8"?>
<svg width="15px" height="15px" viewBox="0 0 15 15" version="1.1" xmlns="http://www.w3.org/2000/svg" xmlns:xlink="http://www.w3.org/1999/xlink">
    <!-- Generator: Sketch 46 (44423) - http://www.bohemiancoding.com/sketch -->
    <title>pen</title>
    <desc>Created with Sketch.</desc>
    <defs></defs>
    <g id="Page-1" stroke="none" stroke-width="1" fill="none" fill-rule="evenodd">
        <g id="icon" transform="translate(-39.000000, -293.000000)" fill-rule="nonzero" fill="#F56107">
            <g id="pen" transform="translate(39.000000, 293.000000)">
                <rect id="Rectangle-path" x="2.76315789" y="14.2105263" width="10.2631579" height="1"></rect>
                <path d="M14.3594346,1.98119796 C14.3245873,1.93820273 14.2793329,1.9113015 14.2312483,1.89196533 L12.4134679,0.0910435658 C12.3540329,0.0321587956 12.2728698,0.00257036695 12.1892598,0 C12.1053255,0.000613383023 12.0250765,0.034583119 11.9665848,0.0943733594 L1.9703844,10.308778 C1.864103,10.4172591 1.8591206,10.5802438 1.94343816,10.6999411 C1.9363036,10.709872 1.92619139,10.7164732 1.92014765,10.7273973 L0.0382151033,14.145664 C-0.0282660492,14.2667341 -0.0065085811,14.4168085 0.0918127686,14.5142196 C0.152161735,14.5740098 0.232410825,14.6052632 0.313573846,14.6052632 C0.365048831,14.6052632 0.416494335,14.5928202 0.463664998,14.567321 L3.91387466,12.7028119 C3.92658126,12.6959186 3.93448235,12.7131226 3.94589175,12.7048273 C3.99312138,12.7318454 4.04444895,12.7796016 4.09981552,12.7796016 C4.10072945,12.7796016 4.10134856,12.7796016 4.1022625,12.7796016 C4.18619679,12.7796016 4.26644588,12.716394 4.3249375,12.6566329 L14.0818353,2.67259746 C14.317777,3.02593529 14.4096419,3.30961033 14.3569876,3.54663906 C14.2421271,4.06477246 13.40529,4.51321386 12.4058321,5.0083308 C10.4234556,5.99050306 9.76244718,8.21252688 9.73517664,8.30660815 C9.68771116,8.47154976 9.78417517,8.64227471 9.95051072,8.68962203 C9.9793143,8.69782968 10.0084127,8.70130552 10.036892,8.70130552 C10.1731857,8.70130552 10.2987776,8.61230656 10.3383125,8.47619395 C10.3444447,8.45571864 10.954892,6.41843995 12.6864386,5.56081365 C13.8733704,4.97284221 14.795321,4.46040451 14.9699409,3.67276229 C15.0807625,3.17206649 14.8868911,2.63439246 14.3594346,1.98119796 Z M1.09955501,13.5158365 L2.39521518,11.1624319 L3.47501061,12.2321427 L1.09955501,13.5158365 Z M4.09642513,11.9687385 L2.63566763,10.5217971 L12.1950972,0.753672483 L13.6558547,2.20075987 L4.09642513,11.9687385 Z" id="Shape"></path>
            </g>
        </g>
    </g>
</svg>