<?xml version="1.0" encoding="UTF-8"?>
<svg width="19px" height="17px" viewBox="0 0 19 17" version="1.1" xmlns="http://www.w3.org/2000/svg" xmlns:xlink="http://www.w3.org/1999/xlink">
    <!-- Generator: Sketch 46 (44423) - http://www.bohemiancoding.com/sketch -->
    <title>Group 15</title>
    <desc>Created with Sketch.</desc>
    <defs></defs>
    <g id="Page-1" stroke="none" stroke-width="1" fill="none" fill-rule="evenodd">
        <g id="icon" transform="translate(-34.000000, -118.000000)" fill-rule="nonzero" fill="#F56107">
            <g id="Group-15" transform="translate(34.000000, 118.000000)">
                <rect id="Rectangle-path" x="9" y="11" width="1" height="5"></rect>
                <rect id="Rectangle-path-Copy" transform="translate(9.500000, 16.000000) rotate(-270.000000) translate(-9.500000, -16.000000) " x="9" y="7" width="1" height="18"></rect>
                <path d="M17.9295692,4.05636596 C17.2378334,3.28754376 16.3180829,2.86344338 15.3387226,2.86198483 C15.3370021,2.86198483 15.3352817,2.86198483 15.3335612,2.86198483 C14.8274859,2.86198483 14.3291527,2.97782707 13.8692774,3.19997489 C12.9331317,0.761004987 10.4609985,-0.558306237 8.12189923,0.226279475 C6.85714103,0.651389623 5.82727951,1.6217156 5.24691976,2.91948521 C5.08453642,2.88212399 4.91876272,2.86299459 4.74990227,2.86204093 C3.32104026,2.86204093 2.15905569,4.1502178 2.15905569,5.73762105 C2.15905569,5.74003327 2.15905569,5.74238938 2.15905569,5.74480159 C0.950415636,5.86636581 0,6.99612212 0,8.36715564 C0,9.81908238 1.06528325,11 2.37492584,11 L15.5731133,10.9994951 C17.503294,10.8616064 19.0085657,9.07460669 18.9999633,6.93054363 C19.0008742,5.84527299 18.6209002,4.82468327 17.9295692,4.05636596 Z M15.5451301,10.0425766 L2.37497644,10.0425766 C1.54160432,10.0425766 0.863632396,9.29103252 0.863632396,8.36709954 C0.863632396,7.44322266 1.54155372,6.69162253 2.37497644,6.69162253 L2.6340611,6.69162253 C2.763148,6.69162253 2.88494815,6.62795137 2.96697476,6.51738234 C3.04900137,6.40681332 3.08224719,6.26174406 3.05765439,6.12149922 C3.03478208,5.99224958 3.0230929,5.86058773 3.02223266,5.7337503 C3.02223266,4.67770668 3.79690591,3.8189595 4.74646131,3.8189595 C4.94811216,3.82041804 5.14586662,3.86153783 5.33456324,3.9410286 C5.55432978,4.0334219 5.80177587,3.91376501 5.88901453,3.67058046 C6.32900303,2.44607475 7.23407885,1.52455397 8.37192604,1.14207826 C10.4221358,0.454654167 12.5971819,1.74137249 13.2185296,4.01524617 C13.2573923,4.15790322 13.3540937,4.27183812 13.4793348,4.32451408 C13.6045759,4.37668516 13.7448966,4.36187531 13.8593087,4.28384308 C14.3019286,3.97984837 14.8119003,3.81952048 15.3330552,3.81952048 C15.3343708,3.81952048 15.3360913,3.81952048 15.3373564,3.81952048 C16.0852609,3.82097902 16.7886859,4.14505679 17.3176335,4.73240217 C17.8461763,5.32025242 18.1371912,6.10102347 18.1359261,6.93059973 C18.1359261,6.9315534 18.1359261,6.93250706 18.1359261,6.93346072 C18.1428586,8.5719692 16.9929681,9.93817829 15.5451301,10.0425766 Z" id="Shape"></path>
            </g>
        </g>
    </g>
</svg>