<?xml version="1.0" encoding="UTF-8"?>
<svg width="19px" height="17px" viewBox="0 0 19 17" version="1.1" xmlns="http://www.w3.org/2000/svg" xmlns:xlink="http://www.w3.org/1999/xlink">
    <!-- Generator: Sketch 46 (44423) - http://www.bohemiancoding.com/sketch -->
    <title>Group 18</title>
    <desc>Created with Sketch.</desc>
    <defs></defs>
    <g id="Page-1" stroke="none" stroke-width="1" fill="none" fill-rule="evenodd">
        <g id="icon" transform="translate(-34.000000, -78.000000)" fill-rule="nonzero" fill="#F56107">
            <g id="Group-18" transform="translate(34.000000, 78.000000)">
                <path d="M11.8601042,1.80755208 L8.024375,1.80755208 C7.4003125,1.80802083 6.89255208,2.31614583 6.89255208,2.94020833 C6.89255208,3.15828125 6.89255208,8.97619792 6.89255208,9.20703125 C6.89260417,9.83161458 7.400625,10.3397917 8.02520833,10.3397917 L11.8594792,10.3397917 C12.4841146,10.3397917 12.9922917,9.83166667 12.9922917,9.20703125 C12.9922917,6.87536458 12.9922917,5.16973958 12.9922917,2.94020833 C12.9922396,2.31609375 12.4844792,1.80796875 11.8601042,1.80755208 Z M12.2110937,9.20703125 C12.2110937,9.40088542 12.0533333,9.55859375 11.8594792,9.55859375 L8.02520833,9.55859375 C7.83140625,9.55859375 7.67380208,9.40088542 7.67380208,9.20703125 L7.67380208,8.80484375 L12.2111458,8.80484375 L12.2111458,9.20703125 L12.2110937,9.20703125 Z M12.2110937,8.00447917 L7.67375,8.00447917 L7.67375,7.25072917 L12.2110937,7.25072917 L12.2110937,8.00447917 Z M12.2110937,6.46958333 L7.67375,6.46958333 L7.67375,5.69671875 L12.2110937,5.69671875 L12.2110937,6.46958333 Z M12.2110937,4.91552083 L7.67375,4.91552083 L7.67375,4.14265625 L12.2110937,4.14265625 L12.2110937,4.91552083 Z M12.2110937,3.36151042 L7.67375,3.36151042 L7.67375,2.94020833 C7.67375,2.74651042 7.83130208,2.58885417 8.02463542,2.58875 L11.8597396,2.58875 C12.0534896,2.58890625 12.2110417,2.74661458 12.2110417,2.94020833 L12.2110417,3.36151042 L12.2110937,3.36151042 Z" id="Shape"></path>
                <path d="M11.7049479,13.5270833 L8.17994792,13.5270833 C7.96416667,13.5270833 7.789375,13.7019792 7.789375,13.9176563 C7.789375,14.1333854 7.96421875,14.3082292 8.17994792,14.3082292 L11.7049479,14.3082292 C11.9207292,14.3082292 12.0955208,14.1333333 12.0955208,13.9176563 C12.0955208,13.7019271 11.920625,13.5270833 11.7049479,13.5270833 Z" id="Shape"></path>
                <path d="M14.6310417,1.28473958 C14.6310417,0.660104167 14.1228646,0.151979167 13.4982292,0.151979167 L6.38635417,0.151979167 C5.76177083,0.151979167 5.25364583,0.66015625 5.25364583,1.28473958 L5.25364583,1.74572917 L5.25354167,2.52703125 L5.25354167,3.1834375 L1.96276042,3.1834375 C1.40734375,3.1834375 0.95546875,3.6353125 0.95546875,4.19072917 L0.95546875,15.3204688 C0.95546875,15.8758854 1.40734375,16.3277083 1.96276042,16.3277083 L2.58375,16.3277083 C2.79953125,16.3277083 2.97432292,16.1528125 2.97432292,15.9371354 C2.97432292,15.7214063 2.79947917,15.5465625 2.58375,15.5465625 L1.96276042,15.5465625 C1.83802083,15.5465625 1.73661458,15.4451563 1.73661458,15.3204688 L1.73661458,4.19052083 C1.73661458,4.06583333 1.83802083,3.964375 1.96276042,3.964375 L5.25354167,3.964375 L5.25354167,4.91557292 L3.78791667,4.91557292 C3.16385417,4.91604167 2.65614583,5.42416667 2.65614583,6.04822917 C2.65614583,7.85229167 2.65614583,6.728125 2.65614583,9.20697917 C2.65614583,9.8315625 3.16427083,10.3397396 3.78885417,10.3397396 L5.25354167,10.3397396 C5.25354167,10.9079167 5.25354167,14.9730729 5.25354167,15.5464063 L4.40645833,15.5464063 C4.19067708,15.5464063 4.01588542,15.7213021 4.01588542,15.9369792 C4.01588542,16.1527083 4.19072917,16.3275521 4.40645833,16.3275521 C5.75109375,16.3275521 5.76427083,16.3584896 5.91020833,16.2222917 C6.2278125,16.37 5.76864583,16.3275521 13.4981771,16.3275521 C13.6682292,16.3275521 13.829375,16.2896354 13.9742708,16.2222917 C14.1297396,16.3673438 13.9374479,16.3275521 17.9218229,16.3275521 C18.4772396,16.3275521 18.9291146,15.8757292 18.9291146,15.3203125 L18.9291146,4.19052083 C18.9291146,3.63510417 18.4772396,3.18322917 17.9218229,3.18322917 L14.6309896,3.18322917 L14.6309896,2.52682292 L14.6310417,1.28473958 Z M5.25364583,9.55859375 L3.78895833,9.55859375 C3.59510417,9.55859375 3.43744792,9.40088542 3.43744792,9.20703125 L3.43744792,8.80484375 L5.25369792,8.80484375 L5.25369792,9.55859375 L5.25364583,9.55859375 Z M5.25364583,8.00447917 L3.43739583,8.00447917 L3.43739583,7.25078125 L5.25364583,7.25078125 L5.25364583,8.00447917 Z M5.25364583,6.46958333 L3.43739583,6.46958333 L3.43739583,6.04828125 C3.43739583,5.85458333 3.59494792,5.69697917 3.78828125,5.69682292 L5.25359375,5.69682292 L5.25359375,6.46958333 L5.25364583,6.46958333 Z M13.8499479,15.1949479 C13.8499479,15.3888021 13.6921875,15.5464583 13.4983333,15.5464583 L6.38635417,15.5464583 C6.1925,15.5464583 6.03484375,15.38875 6.03484375,15.1949479 C6.03484375,13.8963021 6.03484375,2.60864583 6.03484375,1.28473958 C6.03484375,1.09083333 6.19255208,0.933177083 6.38635417,0.933177083 L13.4983333,0.933177083 C13.6922396,0.933177083 13.8499479,1.0909375 13.8499479,1.28473958 C13.8499479,1.64234375 13.8499479,14.804375 13.8499479,15.1949479 Z M14.6310417,5.69677083 L16.0960417,5.69677083 C16.2897396,5.69692708 16.4472396,5.85458333 16.4472396,6.04822917 L16.4472396,6.46953125 L14.6309896,6.46953125 L14.6309896,5.69677083 L14.6310417,5.69677083 Z M14.6310417,7.25083333 L16.4472917,7.25083333 L16.4472917,8.00453125 L14.6310417,8.00453125 L14.6310417,7.25083333 Z M14.6310417,8.80484375 L16.4472917,8.80484375 L16.4472917,9.20703125 C16.4472917,9.40088542 16.2895833,9.55859375 16.0957812,9.55859375 L14.6310937,9.55859375 L14.6310937,8.80484375 L14.6310417,8.80484375 Z M17.921875,3.96442708 C18.0466146,3.96442708 18.1480208,4.06588542 18.1480208,4.19057292 L18.1480208,15.3204167 C18.1480208,15.4451042 18.0466146,15.5465104 17.921875,15.5465104 L14.6310417,15.5465104 C14.6310417,14.9732292 14.6310417,10.9079688 14.6310417,10.3398438 L16.0957292,10.3398438 C16.7203125,10.3398438 17.2284375,9.83171875 17.2284375,9.20708333 C17.2284375,8.53302083 17.2284375,6.71598958 17.2284375,6.04833333 C17.2284375,5.42427083 16.7207292,4.91614583 16.0963542,4.91567708 L14.6310417,4.91567708 L14.6310417,3.96447917 L17.921875,3.96447917 L17.921875,3.96442708 Z" id="Shape"></path>
            </g>
        </g>
    </g>
</svg>