<svg width="16" height="16" viewBox="0 0 16 16" fill="none" xmlns="http://www.w3.org/2000/svg">
<path d="M8.00016 1.3335C4.32416 1.3335 1.3335 4.32416 1.3335 8.00016C1.3335 11.6762 4.32416 14.6668 8.00016 14.6668C11.6762 14.6668 14.6668 11.6762 14.6668 8.00016C14.6668 4.32416 11.6762 1.3335 8.00016 1.3335ZM8.00016 13.3335C5.0595 13.3335 2.66683 10.9408 2.66683 8.00016C2.66683 5.0595 5.0595 2.66683 8.00016 2.66683C10.9408 2.66683 13.3335 5.0595 13.3335 8.00016C13.3335 10.9408 10.9408 13.3335 8.00016 13.3335Z" fill="#070707"/>
<path d="M7.3335 7.33317H8.66683V11.3332H7.3335V7.33317ZM7.3335 4.6665H8.66683V5.99984H7.3335V4.6665Z" fill="#070707"/>
</svg>
