<svg xmlns="http://www.w3.org/2000/svg" width="36" height="36" viewBox="0 0 36 36">
    <defs>
        <linearGradient id="eu6cymgiva" x1="6.714%" x2="93.608%" y1="93.485%" y2="6.619%">
            <stop offset="0%" stop-color="#FD5"/>
            <stop offset="50%" stop-color="#FF543E"/>
            <stop offset="100%" stop-color="#C837AB"/>
        </linearGradient>
    </defs>
    <g fill="none" fill-rule="evenodd">
        <circle cx="18" cy="18" r="18" fill="url(#eu6cymgiva)"/>
        <path fill="#FFF" fill-rule="nonzero" d="M18 9c-2.443 0-2.75.01-3.71.054-.958.044-1.612.196-2.185.419-.592.23-1.094.537-1.594 1.037-.5.5-.808 1.003-1.039 1.594-.223.573-.375 1.227-.418 2.185C9.011 15.249 9 15.556 9 18s.01 2.75.054 3.71c.044.958.196 1.612.419 2.184.23.592.537 1.095 1.038 1.595.5.5 1.002.809 1.593 1.038.573.223 1.227.375 2.185.419.96.043 1.267.054 3.71.054 2.445 0 2.751-.01 3.711-.054.958-.044 1.613-.196 2.186-.419.591-.23 1.093-.538 1.593-1.038s.808-1.003 1.038-1.594c.222-.573.374-1.227.419-2.185.043-.96.054-1.266.054-3.71s-.011-2.751-.054-3.711c-.045-.958-.197-1.612-.419-2.184-.23-.592-.538-1.094-1.038-1.595-.5-.5-1.002-.808-1.594-1.037-.574-.223-1.228-.375-2.186-.419-.96-.043-1.266-.054-3.711-.054h.003zm-.807 1.622h.808c2.403 0 2.688.008 3.637.052.877.04 1.353.186 1.67.31.42.163.72.358 1.035.673.315.315.51.615.673 1.035.124.317.27.793.31 1.67.043.95.053 1.234.053 3.636s-.01 2.687-.053 3.636c-.04.877-.186 1.353-.31 1.67-.163.42-.358.72-.673 1.034-.315.315-.614.51-1.034.673-.317.124-.794.27-1.671.31-.95.043-1.234.053-3.637.053s-2.688-.01-3.637-.053c-.877-.04-1.354-.187-1.671-.31-.42-.163-.72-.358-1.035-.673-.315-.315-.51-.614-.674-1.035-.123-.316-.27-.793-.31-1.67-.043-.949-.051-1.234-.051-3.637 0-2.404.008-2.687.051-3.636.04-.877.187-1.354.31-1.67.163-.42.359-.72.674-1.036.315-.315.615-.51 1.035-.673.317-.124.794-.27 1.671-.31.83-.038 1.152-.05 2.83-.051v.002zm5.612 1.494c-.596 0-1.08.483-1.08 1.08 0 .596.484 1.08 1.08 1.08.596 0 1.08-.484 1.08-1.08 0-.596-.484-1.08-1.08-1.08zm-4.804 1.262c-2.553 0-4.622 2.07-4.622 4.622s2.07 4.62 4.622 4.62 4.621-2.068 4.621-4.62-2.069-4.622-4.621-4.622zM18 15c1.657 0 3 1.343 3 3s-1.343 3-3 3-3-1.343-3-3 1.343-3 3-3z"/>
    </g>
</svg>
