<svg xmlns="http://www.w3.org/2000/svg" width="40" height="40" viewBox="0 0 40 40">
    <g fill="none" fill-rule="evenodd">
        <circle cx="20" cy="20" r="20" fill="#7F4DA0"/>
        <g fill="#FFF" fill-rule="nonzero">
            <path d="M14.234 7.66c-.074-.598-.258-1.067-.584-1.483-.423-.535-.964-.855-1.765-1.045-.522-.127-.733-.112-.922.06-.176.162-.21.486-.076.696.094.152.203.207.507.266.404.074.683.17.937.316.539.311.79.798.817 1.586.012.37.044.484.173.616.24.24.666.193.847-.094.067-.108.077-.156.084-.407.004-.155-.002-.387-.018-.511z" transform="translate(10 10)"/>
            <path d="M16.344 8.333c-.106-1.83-.822-3.303-2.103-4.339-.722-.582-1.595-.982-2.551-1.177-.35-.07-.996-.126-1.106-.094-.105.03-.252.143-.318.245-.07.111-.086.359-.026.502.096.24.274.324.773.368.77.067 1.564.338 2.164.738.685.456 1.23 1.08 1.582 1.812.305.63.492 1.537.487 2.35-.002.294.043.46.161.581.179.187.439.228.668.104.255-.134.314-.369.27-1.09zM18.68 15.382c-.036-.105-.12-.266-.179-.359-.376-.567-2.396-2.148-3.405-2.665-.576-.296-1.002-.395-1.319-.302-.34.095-.519.254-1.089.962-.23.284-.465.55-.528.592-.155.107-.46.194-.674.194-.499-.003-1.403-.326-2.098-.75-.54-.329-1.233-.918-1.764-1.5-.627-.685-1.053-1.288-1.39-1.97-.436-.876-.547-1.41-.365-1.802.045-.099.105-.203.132-.236.027-.03.307-.26.617-.511.61-.484.708-.595.821-.927.143-.421.105-.851-.116-1.285-.17-.329-.615-1.046-.937-1.51-.427-.609-1.49-1.912-1.701-2.088-.382-.31-.872-.365-1.412-.156-.57.222-1.638 1.082-2.095 1.683-.411.544-.57.93-.593 1.438-.021.418.015.591.235 1.126 1.728 4.196 4.306 7.547 7.849 10.207 1.85 1.39 3.769 2.447 5.759 3.17 1.16.422 1.665.443 2.259.096.25-.15.871-.786 1.217-1.25.573-.77.785-1.126.845-1.41.042-.194.009-.532-.069-.747z" transform="translate(10 10)"/>
            <path d="M18.493 8.754c-.038-1.036-.212-1.885-.576-2.832-.359-.931-.722-1.54-1.408-2.361-.648-.77-1.152-1.21-1.95-1.7-1.115-.683-2.472-1.135-3.992-1.325C10.05.47 9.932.474 9.773.58c-.309.201-.305.703.005.9.102.064.193.087.607.141.637.086 1.046.167 1.532.3 1.904.52 3.369 1.584 4.348 3.164.82 1.316 1.16 2.633 1.111 4.315-.016.568-.004.668.083.805.166.255.605.305.83.094.14-.129.167-.226.194-.712.014-.254.016-.629.01-.833z" transform="translate(10 10)"/>
        </g>
    </g>
</svg>
