<?xml version="1.0" encoding="UTF-8"?>
<svg width="46px" height="46px" viewBox="0 0 46 46" version="1.1" xmlns="http://www.w3.org/2000/svg" xmlns:xlink="http://www.w3.org/1999/xlink">
    <!-- Generator: Sketch 46 (44423) - http://www.bohemiancoding.com/sketch -->
    <title>Group 10</title>
    <desc>Created with Sketch.</desc>
    <defs></defs>
    <g id="Page-1" stroke="none" stroke-width="1" fill="none" fill-rule="evenodd">
        <g id="Data-Center_colokeishn" transform="translate(-1013.000000, -2332.000000)" fill-rule="nonzero">
            <g id="Group-10" transform="translate(1013.000000, 2332.000000)">
                <g id="document-settings" fill="#9BA5AE">
                    <path d="M18.0492172,43.8356164 L3.95919765,43.8356164 C2.63737769,43.8356164 1.56193738,42.7601761 1.56193738,41.4383562 L1.56193738,3.86497065 C1.56193738,2.54315068 2.63737769,1.46771037 3.95919765,1.46771037 L25.1431507,1.46771037 L25.1431507,5.43052838 C25.1431507,7.56164384 26.8770059,9.29549902 29.0081213,9.29549902 L32.9709393,9.29549902 L32.9709393,24.2172211 C32.9709393,24.6225049 33.2995108,24.9510763 33.7047945,24.9510763 C34.1100783,24.9510763 34.4386497,24.6225049 34.4386497,24.2172211 L34.4386497,8.56164384 C34.4386497,8.53708415 34.4373777,8.51262231 34.4349315,8.48835616 C34.4331703,8.47054795 34.430137,8.45322896 34.4271037,8.43581213 C34.4260274,8.42964775 34.4254403,8.42328767 34.4242661,8.41712329 C34.4201566,8.39657534 34.4148728,8.37641879 34.4090998,8.35655577 C34.4082192,8.35362035 34.4077299,8.35058708 34.4068493,8.34765166 C34.4006849,8.32739726 34.3933464,8.30763209 34.3855186,8.28816047 C34.3844423,8.28551859 34.3836595,8.28277886 34.3825832,8.28023483 C34.3749511,8.26174168 34.3661448,8.24383562 34.357045,8.22622309 C34.3551859,8.22260274 34.3537182,8.21888454 34.3517613,8.21526419 C34.3430528,8.19892368 34.3332681,8.1832681 34.3232877,8.16771037 C34.3203523,8.1630137 34.3177104,8.15812133 34.3146771,8.1535225 C34.3047945,8.13874755 34.2938356,8.12465753 34.2829746,8.11066536 C34.2791585,8.10577299 34.2758317,8.10068493 34.2719178,8.09589041 C34.2566536,8.07739726 34.2406067,8.05949119 34.2236791,8.0425636 L26.3960861,0.215068493 C26.3791585,0.1981409 26.3613503,0.181996086 26.3427593,0.166829746 C26.3379648,0.162915851 26.3327789,0.159589041 26.3279843,0.155772994 C26.3139922,0.14481409 26.2999022,0.133953033 26.2851272,0.12407045 C26.2805284,0.120939335 26.275636,0.118395303 26.2709393,0.115459883 C26.2553816,0.105577299 26.239726,0.0957925636 26.2233855,0.0869863014 C26.219863,0.0850293542 26.216047,0.0835616438 26.2124266,0.081702544 C26.1947162,0.0726027397 26.1768102,0.0637964775 26.1584149,0.0561643836 C26.155773,0.0550880626 26.1530333,0.0543052838 26.1504892,0.0532289628 C26.1310176,0.0454011742 26.1112524,0.0380626223 26.090998,0.0318982387 C26.0880626,0.0310176125 26.0850294,0.0304305284 26.0820939,0.0296477495 C26.0622309,0.0238747554 26.0420744,0.0184931507 26.0215264,0.0143835616 C26.015362,0.013111546 26.009002,0.0126223092 26.0028376,0.0115459883 C25.9854207,0.00851272016 25.9681018,0.00547945205 25.9502935,0.00371819961 C25.9260274,0.00127201566 25.9015656,0 25.8770059,0 L3.95919765,0 C1.82808219,0 0.0942270059,1.73385519 0.0942270059,3.86497065 L0.0942270059,41.4383562 C0.0942270059,43.5694716 1.82808219,45.3033268 3.95919765,45.3033268 L18.0492172,45.3033268 C18.454501,45.3033268 18.7830724,44.9747554 18.7830724,44.5694716 C18.7830724,44.1641879 18.454501,43.8356164 18.0492172,43.8356164 Z M26.6108611,5.43052838 L26.6108611,2.50547945 L31.9331703,7.82778865 L29.0081213,7.82778865 C27.6863014,7.82778865 26.6108611,6.75234834 26.6108611,5.43052838 Z" id="Shape"></path>
                    <path d="M5.52475538,13.9921722 L7.09031311,13.9921722 C7.49559687,13.9921722 7.8241683,13.6636008 7.8241683,13.258317 C7.8241683,12.8530333 7.49559687,12.5244618 7.09031311,12.5244618 L5.52475538,12.5244618 C5.11947162,12.5244618 4.7909002,12.8530333 4.7909002,13.258317 C4.7909002,13.6636008 5.11947162,13.9921722 5.52475538,13.9921722 Z" id="Shape"></path>
                    <path d="M10.2214286,13.9921722 L11.7869863,13.9921722 C12.1922701,13.9921722 12.5208415,13.6636008 12.5208415,13.258317 C12.5208415,12.8530333 12.1922701,12.5244618 11.7869863,12.5244618 L10.2214286,12.5244618 C9.81614481,12.5244618 9.48757339,12.8530333 9.48757339,13.258317 C9.48757339,13.6636008 9.81614481,13.9921722 10.2214286,13.9921722 Z" id="Shape"></path>
                    <path d="M22.7458904,12.5244618 L14.9181018,12.5244618 C14.512818,12.5244618 14.1842466,12.8530333 14.1842466,13.258317 C14.1842466,13.6636008 14.512818,13.9921722 14.9181018,13.9921722 L22.7458904,13.9921722 C23.1511742,13.9921722 23.4797456,13.6636008 23.4797456,13.258317 C23.4797456,12.8530333 23.1511742,12.5244618 22.7458904,12.5244618 Z" id="Shape"></path>
                    <path d="M17.2175147,17.1722114 C17.2175147,16.7669276 16.8889432,16.4383562 16.4836595,16.4383562 L10.2214286,16.4383562 C9.81614481,16.4383562 9.48757339,16.7669276 9.48757339,17.1722114 C9.48757339,17.5774951 9.81614481,17.9060665 10.2214286,17.9060665 L16.4836595,17.9060665 C16.8889432,17.9060665 17.2175147,17.5774951 17.2175147,17.1722114 Z" id="Shape"></path>
                    <path d="M18.8809198,17.1722114 C18.8809198,17.5774951 19.2094912,17.9060665 19.614775,17.9060665 L25.094227,17.9060665 C25.4995108,17.9060665 25.8280822,17.5774951 25.8280822,17.1722114 C25.8280822,16.7669276 25.4995108,16.4383562 25.094227,16.4383562 L19.614775,16.4383562 C19.2094912,16.4383562 18.8809198,16.7669276 18.8809198,17.1722114 Z" id="Shape"></path>
                    <path d="M5.52475538,17.9060665 L7.09031311,17.9060665 C7.49559687,17.9060665 7.8241683,17.5774951 7.8241683,17.1722114 C7.8241683,16.7669276 7.49559687,16.4383562 7.09031311,16.4383562 L5.52475538,16.4383562 C5.11947162,16.4383562 4.7909002,16.7669276 4.7909002,17.1722114 C4.7909002,17.5774951 5.11947162,17.9060665 5.52475538,17.9060665 Z" id="Shape"></path>
                    <path d="M5.52475538,21.8199609 L7.09031311,21.8199609 C7.49559687,21.8199609 7.8241683,21.4913894 7.8241683,21.0861057 C7.8241683,20.6808219 7.49559687,20.3522505 7.09031311,20.3522505 L5.52475538,20.3522505 C5.11947162,20.3522505 4.7909002,20.6808219 4.7909002,21.0861057 C4.7909002,21.4913894 5.11947162,21.8199609 5.52475538,21.8199609 Z" id="Shape"></path>
                    <path d="M15.7008806,21.8199609 L29.0081213,21.8199609 C29.4134051,21.8199609 29.7419765,21.4913894 29.7419765,21.0861057 C29.7419765,20.6808219 29.4134051,20.3522505 29.0081213,20.3522505 L15.7008806,20.3522505 C15.2955969,20.3522505 14.9670254,20.6808219 14.9670254,21.0861057 C14.9670254,21.4913894 15.2955969,21.8199609 15.7008806,21.8199609 Z" id="Shape"></path>
                    <path d="M10.2214286,20.3522505 C9.81614481,20.3522505 9.48757339,20.6808219 9.48757339,21.0861057 C9.48757339,21.4913894 9.81614481,21.8199609 10.2214286,21.8199609 L12.5697652,21.8199609 C12.9750489,21.8199609 13.3036204,21.4913894 13.3036204,21.0861057 C13.3036204,20.6808219 12.9750489,20.3522505 12.5697652,20.3522505 L10.2214286,20.3522505 Z" id="Shape"></path>
                    <path d="M18.8319961,24.2661448 L10.2214286,24.2661448 C9.81614481,24.2661448 9.48757339,24.5947162 9.48757339,25 C9.48757339,25.4052838 9.81614481,25.7338552 10.2214286,25.7338552 L18.8319961,25.7338552 C19.2372798,25.7338552 19.5658513,25.4052838 19.5658513,25 C19.5658513,24.5947162 19.2372798,24.2661448 18.8319961,24.2661448 Z" id="Shape"></path>
                    <path d="M9.43864971,31.9960861 L12.5697652,31.9960861 C12.9750489,31.9960861 13.3036204,31.6675147 13.3036204,31.2622309 C13.3036204,30.8569472 12.9750489,30.5283757 12.5697652,30.5283757 L9.43864971,30.5283757 C9.03336595,30.5283757 8.70479452,30.8569472 8.70479452,31.2622309 C8.70479452,31.6675147 9.03336595,31.9960861 9.43864971,31.9960861 Z" id="Shape"></path>
                    <path d="M5.52475538,25.7338552 L7.09031311,25.7338552 C7.49559687,25.7338552 7.8241683,25.4052838 7.8241683,25 C7.8241683,24.5947162 7.49559687,24.2661448 7.09031311,24.2661448 L5.52475538,24.2661448 C5.11947162,24.2661448 4.7909002,24.5947162 4.7909002,25 C4.7909002,25.4052838 5.11947162,25.7338552 5.52475538,25.7338552 Z" id="Shape"></path>
                    <path d="M5.00587084,31.7811155 C5.14911937,31.924364 5.3369863,31.9960861 5.52475538,31.9960861 C5.71252446,31.9960861 5.90039139,31.9244618 6.04363992,31.7811155 L7.60919765,30.2155577 C7.89579256,29.9289628 7.89579256,29.4642857 7.60919765,29.1777886 L6.04363992,27.6122309 C5.75704501,27.325636 5.29236791,27.325636 5.00587084,27.6122309 C4.71927593,27.8988258 4.71927593,28.3635029 5.00587084,28.65 L6.05254403,29.6966732 L5.00587084,30.7433464 C4.71927593,31.0298434 4.71927593,31.4946184 5.00587084,31.7811155 Z" id="Shape"></path>
                </g>
                <g id="handshake-(1)" transform="translate(18.000000, 26.000000)" fill="#F56107">
                    <path d="M27.5172973,6.65194595 L22.3945946,1.52918919 C22.1834595,1.31810811 21.8410811,1.31805405 21.6298378,1.52918919 C21.4187027,1.74032432 21.4187027,2.0827027 21.6298378,2.29394595 L26.3702162,7.03427027 L23.5986486,9.80578378 C23.5137297,9.89064865 23.3756216,9.89064865 23.2908108,9.80578378 L17.8178378,4.33286486 C17.7329189,4.248 17.7329189,4.10989189 17.8178378,4.02497297 L19.6778919,2.16481081 C19.889027,1.95367568 19.889027,1.6112973 19.6778919,1.40010811 C19.4667027,1.18897297 19.1244324,1.18897297 18.9131351,1.40010811 L17.0530811,3.26016216 C16.6677838,3.64551351 16.5764324,4.21448649 16.7774054,4.68783784 L16.1483243,5.31691892 L13.7225405,5.31691892 L13.5313514,5.31691892 L11.75,5.31691892 L10.9563784,4.5232973 C10.9868649,4.41205405 11.002973,4.29621622 11.002973,4.17778378 C11.002973,3.83075676 10.8677838,3.50448649 10.6224324,3.25913514 L8.81264865,1.44935135 C8.60145946,1.23821622 8.25918919,1.23821622 8.04789189,1.44935135 C7.83675676,1.66048649 7.83675676,2.00286486 8.04789189,2.21410811 L9.85772973,4.02389189 C9.91318919,4.07935135 9.92151351,4.14416216 9.92151351,4.17778378 C9.92151351,4.21140541 9.91324324,4.27621622 9.85767568,4.33172973 L9.70708108,4.48232432 L4.38302703,9.80508108 C4.3812973,9.80681081 4.37983784,9.8087027 4.37816216,9.81043243 C4.32421622,9.86032432 4.26313514,9.86843243 4.23075676,9.86843243 C4.19708108,9.86843243 4.13227027,9.86016216 4.07681081,9.8047027 L1.30540541,7.03318919 L6.10951351,2.22913514 C6.32064865,2.018 6.32064865,1.67562162 6.10951351,1.46443243 C5.89837838,1.25324324 5.55610811,1.2532973 5.34475676,1.46443243 L0.158378378,6.65086486 C-0.0527567568,6.862 -0.0527567568,7.20437838 0.158378378,7.41556757 L3.31221622,10.5694595 C3.56556757,10.8227568 3.89821622,10.9493514 4.23086486,10.9493514 C4.38362162,10.9493514 4.53605405,10.9213514 4.68108108,10.8678919 L6.45637838,12.6431892 C6.31854054,12.9017838 6.24016216,13.1965405 6.24016216,13.5094054 C6.24016216,14.5284865 7.06924324,15.3575676 8.08832432,15.3575676 C8.09059459,15.3575676 8.09286486,15.3574054 8.09513514,15.3574054 C8.09513514,15.3575135 8.09513514,15.3576216 8.09513514,15.3577297 C8.09513514,16.3745405 8.92048649,17.202 9.93643243,17.2057297 C9.93643243,17.2065405 9.93637838,17.2072973 9.93637838,17.2081081 C9.93637838,18.2271892 10.7654595,19.0562703 11.7845405,19.0562703 C12.0980541,19.0562703 12.3934595,18.9775676 12.6523784,18.8392432 L13.3132973,19.5001622 C13.6231351,19.81 14.0351351,19.9806486 14.4732973,19.9806486 C14.9115135,19.9806486 15.3235135,19.81 15.6332973,19.5001622 C15.9266486,19.2068108 16.0952432,18.8218919 16.1123243,18.4098378 C16.5119459,18.3899459 16.9057297,18.2277838 17.2102162,17.9232432 C17.5319459,17.6015135 17.7056757,17.1737297 17.6994595,16.7188108 C17.6994595,16.7178378 17.6994054,16.7169189 17.6994054,16.7159459 C18.1698378,16.6867568 18.6026486,16.4805946 18.9226486,16.1318919 C19.2443243,15.7815135 19.4035135,15.3396757 19.4021081,14.8989189 C19.8545405,14.8858919 20.2778378,14.7036216 20.5991892,14.3822162 C20.9344324,14.047027 21.1182703,13.6012973 21.1166486,13.1271892 C21.1157297,12.8480541 21.0502162,12.5795135 20.928,12.3375676 L22.7015135,10.7159459 C22.9239459,10.8714054 23.1840541,10.9502703 23.4447027,10.9502703 C23.7773514,10.9502703 24.1100541,10.8236216 24.3633514,10.5704324 L27.5171892,7.41654054 C27.7284324,7.20545946 27.7284324,6.86308108 27.5172973,6.65194595 Z M8.08837838,14.2762162 C7.66556757,14.2762162 7.32162162,13.9322703 7.32162162,13.5094595 C7.32162162,13.0867027 7.66556757,12.7427568 8.08837838,12.7427568 C8.51118919,12.7427568 8.85513514,13.0867027 8.85513514,13.5094595 C8.85508108,13.9322703 8.51113514,14.2762162 8.08837838,14.2762162 Z M10.5143784,15.8676216 C10.4923784,15.8884865 10.4709189,15.9098378 10.4499459,15.9317297 C10.3146486,16.0512973 10.1375676,16.1245405 9.9432973,16.1245405 C9.52054054,16.1245405 9.17659459,15.7805946 9.17659459,15.3577838 C9.17659459,14.934973 9.52048649,14.591027 9.9432973,14.591027 C10.3661081,14.591027 10.7100541,14.934973 10.7100541,15.3577838 C10.71,15.5536757 10.6355676,15.732 10.5143784,15.8676216 Z M12.3340541,17.7418919 C12.3315676,17.7442703 12.3289189,17.7463243 12.3264865,17.7487568 C12.3237838,17.7514595 12.3215676,17.7543784 12.318973,17.7570811 C12.1807568,17.8917297 11.9923243,17.975027 11.7846486,17.975027 C11.3617838,17.9749189 11.0178378,17.630973 11.0178378,17.2082162 C11.0178378,17.0123784 11.0922162,16.8340541 11.2134595,16.6984324 C11.2354595,16.6775676 11.2569189,16.6562162 11.2778919,16.6343243 C11.4131351,16.5147568 11.5902703,16.4415676 11.7845405,16.4415676 C12.2072973,16.4415676 12.5512973,16.7855135 12.5512973,17.2083243 C12.5512973,17.4156757 12.4682703,17.6037297 12.3340541,17.7418919 Z M19.8345946,13.6176757 C19.7051351,13.7470811 19.5331351,13.8183243 19.3501081,13.8183243 C19.1670811,13.8183243 18.9950811,13.7470811 18.8656216,13.6177297 L17.7422703,12.4943243 C17.5311351,12.2831892 17.1888649,12.2831892 16.9775135,12.4943243 C16.7663784,12.7054595 16.7663784,13.0478378 16.9775135,13.259027 L18.1008108,14.3823784 C18.1008649,14.3823784 18.1009189,14.3824324 18.1009189,14.3824324 L18.1043243,14.3858378 C18.3830811,14.6645405 18.3925946,15.1102703 18.126,15.4006486 C17.9920541,15.5465946 17.8092973,15.6307568 17.6112973,15.6376757 C17.4137297,15.644973 17.2250811,15.5734595 17.0812973,15.4372973 L15.9996216,14.4134054 C15.7827027,14.2081081 15.4404865,14.2174595 15.2351892,14.4343784 C15.0298919,14.6512432 15.0392432,14.9934595 15.2561081,15.1988108 L16.4337838,16.3136757 C16.5503784,16.4240541 16.6157838,16.5732432 16.618,16.7337838 C16.6202162,16.8943243 16.5589189,17.0452432 16.4454054,17.1587568 C16.2156216,17.3886486 15.8414595,17.3885946 15.6116757,17.1587568 L15.0656757,16.6127568 C14.8544865,16.4016216 14.5122162,16.4016216 14.3009189,16.6127568 C14.1953514,16.7183784 14.1425405,16.8567027 14.1425405,16.9950811 C14.1425405,17.1334595 14.1953514,17.2718919 14.3009189,17.3774054 L14.8684865,17.944973 C14.9741081,18.0505946 15.0322703,18.190973 15.0322703,18.3402703 C15.0322703,18.4895676 14.9741081,18.63 14.8684865,18.7355676 C14.7628649,18.8411892 14.6224865,18.8992973 14.4731892,18.8992973 C14.3238378,18.8992973 14.1835135,18.8411351 14.0778919,18.7355135 L13.4165405,18.0741622 C13.5542703,17.8156757 13.6325946,17.521027 13.6325946,17.2082703 C13.6325946,16.1914595 12.8071892,15.364 11.7912432,15.3602703 C11.7912432,15.3594595 11.7912973,15.3587027 11.7912973,15.3578919 C11.7912973,14.3388108 10.9622162,13.5097297 9.94313514,13.5097297 C9.94086486,13.5097297 9.93864865,13.5098919 9.93637838,13.5098919 C9.93637838,13.5097838 9.93637838,13.5096757 9.93637838,13.5095676 C9.93637838,12.4904865 9.1072973,11.6614595 8.08821622,11.6614595 C7.77481081,11.6614595 7.47951351,11.7401081 7.2207027,11.8783243 L5.5307027,10.1883784 L10.3112432,5.40778378 L11.1436216,6.24021622 C11.2450811,6.34162162 11.3825946,6.39859459 11.5259459,6.39859459 L12.2258378,6.39859459 L10.0914595,8.53297297 C9.76513514,8.8592973 9.58545946,9.29324324 9.58545946,9.75475676 C9.58545946,10.2162703 9.76513514,10.6501622 10.0914595,10.9764865 C10.4177838,11.3028649 10.8517297,11.4825405 11.3132432,11.4825405 C11.7747568,11.4825405 12.2087027,11.3028108 12.535027,10.9764865 L14.3453514,9.16610811 L16.3272432,9.18783784 L19.8312973,12.6455135 C19.9622162,12.7747027 20.0346486,12.9471351 20.0351892,13.131027 C20.0359459,13.3147027 19.9646486,13.4875676 19.8345946,13.6176757 Z M20.2253514,11.5148108 L16.9314054,8.26448649 C16.9313514,8.26443243 16.9312973,8.26437838 16.9312432,8.26432432 L16.9264865,8.25962162 C16.8048649,8.13956757 16.6407027,8.0892973 16.4831892,8.10783784 L14.1297297,8.08205405 C13.9837838,8.08097297 13.8443243,8.13756757 13.7414595,8.24037838 L11.7702703,10.2116216 C11.6481622,10.3337297 11.4858378,10.4009189 11.3132432,10.4009189 C11.1406486,10.4009189 10.9783243,10.3337297 10.8562162,10.2116216 C10.7341081,10.0895676 10.6669189,9.92724324 10.6669189,9.75459459 C10.6669189,9.58194595 10.7341081,9.41962162 10.8562162,9.29751351 L13.7552973,6.39843243 L16.3723784,6.39843243 C16.5157838,6.39843243 16.6532973,6.34145946 16.7547027,6.24005405 L17.4751351,5.51962162 L21.9203784,9.96486486 L20.2253514,11.5148108 Z" id="Shape"></path>
                    <circle id="Oval" cx="23.6938378" cy="7.28324324" r="1"></circle>
                    <circle id="Oval" cx="3.9267027" cy="7.3372973" r="1"></circle>
                    <circle id="Oval" cx="7.08454054" cy="0.602108108" r="1"></circle>
                    <circle id="Oval" cx="20.5814595" cy="0.558810811" r="1"></circle>
                </g>
            </g>
        </g>
    </g>
</svg>