<svg width="60" height="53" viewBox="0 0 60 53" fill="none" xmlns="http://www.w3.org/2000/svg">
<path d="M59.9752 2V0H45.9897V2H51.9835V4H50.0355L39.047 2.9C33.0282 2.3 26.972 2.3 20.9533 2.9L9.96476 4H8.02927V2H14.023V0H0.0375977V2H6.03135V4H4.03344C3.48401 4 3.03448 4.45 3.03448 5V9C3.03448 11.2 4.80763 13 7.01783 13C8.82844 13 10.4143 11.7875 10.8763 10.025C15.7837 10.3125 20.2416 13.0125 22.7889 17.225C23.8253 18.9375 25.6734 19.9875 27.6713 20H32.3414C34.3394 20 36.1874 18.95 37.2239 17.2375C39.7712 13.025 44.2291 10.325 49.1365 10.0375C49.6984 12.1625 51.8836 13.4375 54.0064 12.875C55.7546 12.4125 56.9783 10.825 56.9783 9.0125V5C56.9783 4.45 56.5288 4 55.9793 4H53.9814V2H59.9752ZM9.02823 9C9.02823 10.1 8.12917 11 7.03031 11C5.93146 11 5.03239 10.1 5.03239 9V6H9.02823V9ZM48.9866 8.025C43.4299 8.375 38.3976 11.425 35.5131 16.2C34.8388 17.3125 33.6401 18 32.3414 18H27.6713C26.3727 18 25.1739 17.3125 24.4996 16.2C21.6151 11.425 16.5829 8.375 11.0262 8.025V5.9L21.1656 4.8875C27.047 4.3 32.9783 4.3 38.8597 4.8875L48.9991 5.9V8.025H48.9866ZM54.9804 6V9C54.9804 10.1 54.0813 11 52.9824 11C51.8836 11 50.9845 10.1 50.9845 9V6H54.9804Z" fill="#DCBC5A"/>
<path d="M30.0065 8C27.7963 8 26.0106 9.7875 26.0106 12C26.0106 14.2125 27.7963 16 30.0065 16C32.2166 16 34.0023 14.2125 34.0023 12C34.0023 9.7875 32.2042 8 30.0065 8ZM30.0065 14C28.9076 14 28.0085 13.1 28.0085 12C28.0085 10.9 28.9076 10 30.0065 10C31.1053 10 32.0044 10.9 32.0044 12C32.0044 13.1 31.1053 14 30.0065 14Z" fill="#DCBC5A"/>
<path d="M49.9856 23C49.9856 34.05 41.0449 43 30.0064 43C18.9679 43 10.0272 34.05 10.0272 23H8.0293C8.0293 35.15 17.869 45 30.0064 45C42.1438 45 51.9835 35.15 51.9835 23H49.9856Z" fill="#DCBC5A"/>
<path d="M41.9939 23C41.9939 29.625 36.6245 35 30.0064 35C23.3883 35 18.0189 29.625 18.0189 23H16.021C16.021 30.7375 22.277 37 30.0064 37C37.7359 37 43.9918 30.7375 43.9918 23H41.9939Z" fill="#DCBC5A"/>
<path d="M34.0022 23C34.0022 25.2125 32.2165 27 30.0063 27C27.7961 27 26.0105 25.2125 26.0105 23H24.0126C24.0126 26.3125 26.6973 29 30.0063 29C33.3154 29 36.0001 26.3125 36.0001 23H34.0022Z" fill="#DCBC5A"/>
<path d="M57.9772 23C57.9648 38.4625 45.4528 50.9875 30.0064 51C14.56 50.9875 2.048 38.4625 2.03552 23H0.0375977C0.0375977 39.5625 13.4611 53 30.0064 53C46.5516 53 59.9752 39.5625 59.9752 23H57.9772Z" fill="#DCBC5A"/>
</svg>
