<svg width="60" height="51" viewBox="0 0 60 51" fill="none" xmlns="http://www.w3.org/2000/svg">
<g clip-path="url(#clip0)">
<path d="M60 3.04688V37.3828C60 38.2031 59.6836 38.9648 59.1094 39.5391C58.5352 40.1133 57.7734 40.4297 56.9531 40.4297H42.1289L40.0312 46.7109L42.0234 48.7031C42.4805 49.1602 42.4805 49.8984 42.0234 50.3555C41.7891 50.5898 41.4961 50.6953 41.1914 50.6953C40.8867 50.6953 40.5938 50.5781 40.3594 50.3555L38.6719 48.6797L36.9727 50.3555C36.5156 50.8125 35.7656 50.8008 35.3203 50.3438C34.8633 49.8867 34.875 49.1367 35.332 48.6914L37.0195 47.0391L34.3359 44.332L31.6641 46.9922L33.3516 48.6797C33.8086 49.1367 33.8086 49.875 33.3516 50.332C32.8945 50.7891 32.1562 50.7891 31.6992 50.332L30 48.6562L28.3125 50.3438C27.8555 50.8008 27.1172 50.8008 26.6602 50.3438C26.2031 49.8867 26.2031 49.1484 26.6602 48.6914L28.3477 47.0039L25.6641 44.332L22.9805 47.0156L24.668 48.6797C25.125 49.1367 25.1367 49.875 24.6797 50.332C24.2227 50.7891 23.4844 50.8008 23.0273 50.3438L21.3281 48.668L19.6406 50.3555C19.1836 50.8125 18.4453 50.8125 17.9883 50.3555C17.5312 49.8984 17.5312 49.1602 17.9883 48.7031L19.9922 46.6992L17.8828 40.4297H3.04688C2.22656 40.4297 1.46484 40.1133 0.890625 39.5391C0.316406 38.9648 0 38.2031 0 37.3828V3.04688C0 2.22656 0.316406 1.46484 0.890625 0.890625C1.46484 0.316406 2.22656 0 3.04688 0H52.6055C53.25 0 53.7773 0.527344 53.7773 1.17188C53.7773 1.81641 53.25 2.34375 52.6055 2.34375H3.04688C2.66016 2.34375 2.34375 2.66016 2.34375 3.04688V37.3828C2.34375 37.7695 2.66016 38.0859 3.04688 38.0859H17.0977L16.1133 35.1562H13.7109C11.7773 35.1562 10.1953 33.5742 10.1953 31.6406C10.1953 29.707 11.7773 28.125 13.7109 28.125H14.1797V10.8984C14.1797 10.2539 14.707 9.72656 15.3516 9.72656H44.6484C45.293 9.72656 45.8203 10.2539 45.8203 10.8984V28.125H46.2891C48.2227 28.125 49.8047 29.707 49.8047 31.6406C49.8047 33.5742 48.2227 35.1562 46.2891 35.1562H43.8867L42.9023 38.0859H56.9531C57.3398 38.0859 57.6562 37.7695 57.6562 37.3828V3.04688C57.6562 2.66016 57.3398 2.34375 56.9531 2.34375H51.4453C50.8008 2.34375 50.2734 1.81641 50.2734 1.17188C50.2734 0.527344 50.8008 0 51.4453 0H56.9531C57.7734 0 58.5352 0.316406 59.1094 0.890625C59.6836 1.46484 60 2.22656 60 3.04688ZM16.5234 28.125H43.4766V12.0703H16.5234V28.125ZM16.9805 32.8125H43.0078C43.0312 32.8125 43.043 32.8125 43.0664 32.8125H46.2891C46.9336 32.8125 47.4609 32.2852 47.4609 31.6406C47.4609 30.9961 46.9336 30.4688 46.2891 30.4688H13.7109C13.0664 30.4688 12.5391 30.9961 12.5391 31.6406C12.5391 32.2852 13.0664 32.8125 13.7109 32.8125H16.9336C16.9453 32.8125 16.9688 32.8125 16.9805 32.8125ZM37.1484 35.1562L38.6719 36.6914L40.207 35.1562H37.1484ZM28.4648 35.1562L30 36.6914L31.5352 35.1562H28.4648ZM19.793 35.1562L21.3281 36.6914L22.8516 35.1562H19.793ZM24.0117 42.6797L19.6523 38.3203L21.8438 44.8477L24.0117 42.6797ZM28.3477 38.3438L25.6641 35.6602L22.9922 38.3438L25.6641 41.0156L28.3477 38.3438ZM32.6719 42.6797L30 39.9961L27.3281 42.668L30 45.3398L32.6719 42.6797ZM34.3359 41.0156L37.0195 38.3438L34.3359 35.6602L31.6523 38.3438L34.3359 41.0156ZM40.3594 38.3203L35.9883 42.6797L38.168 44.8594L40.3594 38.3203Z" fill="#DCBC5A"/>
</g>
<defs>
<clipPath id="clip0">
<rect width="60" height="50.707" fill="white"/>
</clipPath>
</defs>
</svg>
