<svg width="60" height="60" viewBox="0 0 60 60" fill="none" xmlns="http://www.w3.org/2000/svg">
<path d="M59.0273 35.7773C58.3828 35.0859 57.5156 34.6992 56.5898 34.6992C56.1914 34.6992 55.8047 34.7695 55.4414 34.9102C55.1836 33.75 54.3867 32.8008 53.3438 32.3789C53.707 30.5977 53.8945 28.7812 53.8945 26.9531C53.8945 19.7578 51.0938 12.9844 45.9961 7.89844C40.9219 2.80078 34.1484 0 26.9531 0C22.8633 0 18.7617 0.949219 15.0938 2.74219C14.5078 3.02344 14.2734 3.72656 14.5547 4.3125C14.8359 4.89844 15.5391 5.13281 16.125 4.85156C19.4766 3.21094 23.2266 2.34375 26.9531 2.34375C40.5234 2.34375 51.5625 13.3828 51.5625 26.9531C51.5625 28.6055 51.3984 30.2461 51.0586 31.8633V24.4805C51.0586 22.5117 49.5352 20.9062 47.6484 20.9062C45.7734 20.9062 44.2383 22.5117 44.2383 24.4805V24.5625C43.8984 24.4453 43.5469 24.3867 43.1719 24.3867C41.2969 24.3867 39.7617 25.9922 39.7617 27.9609V37.7344C38.3672 38.2148 37.3594 39.5508 37.3594 41.1094V43.2305C36.3516 43.875 35.2969 44.4258 34.1836 44.8711C33.5859 45.1172 33.293 45.7969 33.5391 46.3945C33.7266 46.8516 34.1602 47.1328 34.6289 47.1328C34.7812 47.1328 34.9219 47.1094 35.0742 47.0508C35.8594 46.7344 36.6211 46.3711 37.3594 45.9609V46.875C37.3594 47.6484 37.4414 48.3984 37.5938 49.1367C34.2773 50.7305 30.6094 51.5742 26.9297 51.5742C13.3594 51.5742 2.32031 40.5352 2.32031 26.9648C2.32031 20.3906 4.875 14.2148 9.52734 9.5625C9.98438 9.10547 9.98438 8.36719 9.52734 7.91016C9.07031 7.45312 8.33203 7.45312 7.875 7.91016C5.37891 10.4062 3.41016 13.3477 2.05078 16.6406C0.691406 19.9219 0 23.3906 0 26.9531C0 34.1484 2.80078 40.9219 7.89844 46.0078C12.9844 51.1055 19.7578 53.9062 26.9531 53.9062C30.8672 53.9062 34.7812 53.0391 38.332 51.3867C39.2227 53.4375 40.7227 55.1953 42.6562 56.4258V58.8281C42.6562 59.4727 43.1836 60 43.8281 60H55.2656C55.9102 60 56.4375 59.4727 56.4375 58.8281V55.0898C58.7109 52.9453 60 49.9805 60 46.875V38.2734C60 37.3359 59.6602 36.4453 59.0273 35.7773ZM57.6562 46.8633C57.6562 49.4766 56.5078 51.9609 54.5039 53.6719C54.4922 53.6836 54.4805 53.6953 54.4688 53.707C54.457 53.7188 54.4453 53.7305 54.4219 53.7422C54.4102 53.7539 54.3867 53.7773 54.375 53.7891C54.3633 53.8008 54.3516 53.8125 54.3398 53.8242C54.3281 53.8359 54.3164 53.8594 54.3047 53.8828C54.293 53.8945 54.2812 53.9062 54.2812 53.918C54.2695 53.9414 54.2578 53.9531 54.2461 53.9766C54.2344 53.9883 54.2344 54 54.2227 54.0234C54.2109 54.0469 54.1992 54.0586 54.1992 54.082C54.1875 54.0938 54.1875 54.1172 54.1758 54.1289C54.1641 54.1406 54.1641 54.1641 54.1523 54.1758C54.1406 54.1992 54.1406 54.2109 54.1289 54.2344C54.1289 54.2461 54.1172 54.2695 54.1172 54.2812C54.1172 54.3047 54.1055 54.3164 54.1055 54.3398C54.1055 54.3633 54.0938 54.375 54.0938 54.3984C54.0938 54.4219 54.0938 54.4336 54.082 54.457C54.082 54.4805 54.082 54.5039 54.082 54.5273C54.082 54.5391 54.082 54.5508 54.082 54.5625V57.6562H45V55.7695V55.7578C45 55.7578 45 55.7578 45 55.7461C45 55.7109 45 55.6758 45 55.6406C45 55.6172 45 55.6055 44.9883 55.582C44.9883 55.5586 44.9883 55.5469 44.9766 55.5234C44.9766 55.5 44.9648 55.4766 44.9648 55.4531C44.9648 55.4414 44.9531 55.4297 44.9531 55.418C44.9414 55.3945 44.9414 55.3711 44.9297 55.3477C44.9297 55.3359 44.918 55.3242 44.918 55.3125C44.9062 55.2891 44.8945 55.2656 44.8945 55.2539C44.8828 55.2422 44.8828 55.2305 44.8711 55.207C44.8594 55.1836 44.8477 55.1719 44.8359 55.1602C44.8242 55.1484 44.8125 55.125 44.8125 55.1133C44.8008 55.1016 44.7891 55.0898 44.7773 55.0664C44.7656 55.0547 44.7539 55.0312 44.7422 55.0195C44.7305 55.0078 44.7188 54.9961 44.707 54.9844C44.6953 54.9727 44.6719 54.9492 44.6602 54.9375C44.6484 54.9258 44.6367 54.9141 44.625 54.9023C44.6133 54.8906 44.5898 54.8789 44.5781 54.8555C44.5547 54.8438 44.543 54.832 44.5195 54.8086C44.5078 54.7969 44.4961 54.7969 44.4844 54.7852C44.4492 54.7617 44.4141 54.7383 44.3789 54.7148C41.5078 53.1328 39.7266 50.1328 39.7266 46.8633V41.1094C39.7266 40.4297 40.2773 39.8789 40.957 39.8789C41.6016 39.8789 42.1289 39.3516 42.1289 38.707V27.9492C42.1289 27.2812 42.6211 26.7188 43.1953 26.7188C43.7695 26.7188 44.2617 27.2812 44.2617 27.9492V38.707C44.2617 39.3516 44.7891 39.8789 45.4336 39.8789C46.0781 39.8789 46.6055 39.3516 46.6055 38.707V24.4805C46.6055 23.8125 47.0859 23.25 47.6719 23.25C48.2578 23.25 48.7383 23.8125 48.7383 24.4805V38.707C48.7383 39.3516 49.2656 39.8789 49.9102 39.8789C50.5547 39.8789 51.082 39.3516 51.082 38.707V35.707C51.082 35.0391 51.5625 34.4766 52.1484 34.4766C52.7344 34.4766 53.2148 35.0391 53.2148 35.707V39.1875C53.2148 39.832 53.7422 40.3594 54.3867 40.3594C55.0312 40.3594 55.5586 39.832 55.5586 39.1875V38.2617C55.5586 37.5938 56.0508 37.0312 56.625 37.0312C56.8945 37.0312 57.1406 37.1484 57.3398 37.3594C57.5625 37.5938 57.6797 37.9102 57.6797 38.25V46.8633H57.6562Z" fill="#DCBC5A"/>
<path d="M42.2812 13.2773C42.7383 12.8203 42.7383 12.082 42.2812 11.625C40.2539 9.59766 37.8867 8.01562 35.25 6.92578C32.6016 5.82422 29.8125 5.27344 26.9531 5.27344C15 5.27344 5.27344 15 5.27344 26.9531C5.27344 27.5977 5.80078 28.125 6.44531 28.125C7.08984 28.125 7.61719 27.5977 7.61719 26.9531C7.61719 16.2891 16.2891 7.61719 26.9531 7.61719C32.1211 7.61719 36.9727 9.63281 40.6289 13.2773C41.0859 13.7344 41.8242 13.7344 42.2812 13.2773Z" fill="#DCBC5A"/>
<path d="M13.453 21.0703C13.8749 21.0703 14.285 20.8359 14.496 20.4375C16.9218 15.7852 21.6913 12.8906 26.953 12.8906C29.414 12.8906 31.8515 13.5469 33.9843 14.7773C34.5468 15.1055 35.2616 14.9062 35.5897 14.3438C35.9179 13.7812 35.7187 13.0664 35.1562 12.7383C32.6601 11.3086 29.8241 10.5469 26.953 10.5469C20.8241 10.5469 15.246 13.9219 12.41 19.3594C12.1054 19.9336 12.328 20.6367 12.9022 20.9414C13.078 21.0352 13.2655 21.0703 13.453 21.0703Z" fill="#DCBC5A"/>
<path d="M26.9532 41.0157C21.9493 41.0157 17.2735 38.3203 14.7774 33.9844C14.4493 33.4219 13.7344 33.2344 13.1719 33.5508C12.6094 33.8789 12.4219 34.5938 12.7383 35.1563C15.6563 40.2188 21.1055 43.3594 26.9415 43.3594C27.586 43.3594 28.1133 42.8321 28.1133 42.1875C28.1133 41.543 27.5977 41.0157 26.9532 41.0157Z" fill="#DCBC5A"/>
<path d="M26.9531 23.4375C25.0195 23.4375 23.4375 25.0195 23.4375 26.9531C23.4375 28.8867 25.0195 30.4688 26.9531 30.4688C28.8867 30.4688 30.4688 28.8867 30.4688 26.9531C30.4688 25.0195 28.8867 23.4375 26.9531 23.4375ZM26.9531 28.125C26.3086 28.125 25.7812 27.5977 25.7812 26.9531C25.7812 26.3086 26.3086 25.7812 26.9531 25.7812C27.5977 25.7812 28.125 26.3086 28.125 26.9531C28.125 27.5977 27.5977 28.125 26.9531 28.125Z" fill="#DCBC5A"/>
<path d="M37.5 26.9531C37.5 21.1406 32.7656 16.4062 26.9531 16.4062C21.1406 16.4062 16.4062 21.1406 16.4062 26.9531C16.4062 32.7656 21.1406 37.5 26.9531 37.5C32.7656 37.5 37.5 32.7656 37.5 26.9531ZM26.9531 35.1562C22.4297 35.1562 18.75 31.4766 18.75 26.9531C18.75 22.4297 22.4297 18.75 26.9531 18.75C31.4766 18.75 35.1562 22.4297 35.1562 26.9531C35.1562 31.4766 31.4766 35.1562 26.9531 35.1562Z" fill="#DCBC5A"/>
<path d="M11.3321 7.61719C11.5782 7.61719 11.836 7.53516 12.047 7.37109L12.0704 7.35938C12.586 6.97266 12.6915 6.23437 12.3048 5.71875C11.9181 5.20312 11.1798 5.09766 10.6642 5.48437L10.629 5.50781C10.1134 5.89453 10.0196 6.63281 10.4064 7.14844C10.629 7.45313 10.9806 7.61719 11.3321 7.61719Z" fill="#DCBC5A"/>
<path d="M26.9531 46.289C23.5664 46.289 20.2149 45.3984 17.2852 43.6992C16.7227 43.371 16.0078 43.5703 15.6797 44.1328C15.3516 44.6953 15.5508 45.4101 16.1133 45.7382C19.4063 47.6367 23.1563 48.6445 26.9531 48.6445C27.5977 48.6445 28.125 48.1171 28.125 47.4726C28.125 46.8164 27.5977 46.289 26.9531 46.289Z" fill="#DCBC5A"/>
<path d="M31.2658 45.8086L31.2306 45.8203C30.5978 45.961 30.2111 46.5938 30.3517 47.2266C30.4806 47.7656 30.9611 48.1406 31.4884 48.1406C31.5705 48.1406 31.6642 48.1289 31.7462 48.1055L31.7814 48.0938C32.4142 47.9531 32.8009 47.3203 32.6603 46.6875C32.5197 46.0547 31.8869 45.6563 31.2658 45.8086Z" fill="#DCBC5A"/>
</svg>
