<svg width="24" height="24" viewBox="0 0 24 24" fill="none" xmlns="http://www.w3.org/2000/svg">
<path d="M24 10.4785L20.7582 11.3696L4.27789 15.8878C4.82376 16.9564 5.58131 17.8992 6.50224 18.6572C8.0099 19.8996 9.94832 20.6501 12.0576 20.6501C15.8453 20.6501 19.0723 18.2431 20.2754 14.8821L23.9517 13.8728C23.0494 19.6112 18.0622 24 12.0464 24C8.32183 24 4.99458 22.3177 2.78508 19.6777C2.05725 18.8088 1.45196 17.8364 0.995203 16.7863C0.564443 15.8028 0.263655 14.7527 0.111403 13.6546L3.37924 12.7598L19.9263 8.21938C19.6701 7.68695 19.3619 7.1878 19.0091 6.72192C17.4161 4.63657 14.8983 3.28702 12.0613 3.28702C7.57172 3.28702 3.87684 6.66277 3.3978 11.0035L0 11.9353C0.033421 5.33909 5.4142 0 12.0501 0C16.4283 0 20.2568 2.32199 22.3698 5.79757C22.6669 6.28563 22.9305 6.79957 23.157 7.332C23.5692 8.32291 23.8589 9.37668 24 10.4785Z" fill="white"/>
</svg>
