<?xml version="1.0" encoding="utf-8"?>
<!-- Generator: Adobe Illustrator 21.1.0, SVG Export Plug-In . SVG Version: 6.00 Build 0)  -->
<svg version="1.1" id="Layer_1" xmlns="http://www.w3.org/2000/svg" xmlns:xlink="http://www.w3.org/1999/xlink" x="0px" y="0px"
	 viewBox="0 0 1600 837" style="enable-background:new 0 0 1600 837;" xml:space="preserve">
<style type="text/css">
	.st0{fill:#161616;}
</style>
<g>
	<path class="st0" d="M404.3,492.4c11.9,13.4,23.5,26.4,35.1,39.4c61.7,69.2,123.4,138.4,185.1,207.6c3.9,4.4,7.9,8.8,11.8,13.2
		c3.6,4.1,4.3,9.1,2.1,13.3s-6,5.8-11.9,4.8c-51-9.1-102.1-18.3-153.1-27.5c-39.9-7.2-79.8-14.3-119.6-21.5
		c-1.5-0.3-3.1-0.4-5.2-0.7c-2.1,9.7-4.1,19.1-6.1,28.6c-1.6,7.3-3.1,14.7-4.7,22c-0.4,1.7-0.8,3.4-1.4,5.1c-1.5,3.9-4,6.9-8.5,7.4
		c-4.7,0.5-7.8-1.9-10.1-5.8c-8.4-14.1-16.8-28.3-25.2-42.4c-43.5-73.2-87.1-146.4-130.6-219.6C129.4,461.8,97.1,407.4,64.7,353
		c-3.4-5.7-2.2-11.1,0.3-16.4c15.1-32.9,30.3-65.8,45.4-98.7c8.1-17.5,16-35.1,24.3-52.6c1.7-3.5,1-5.7-1.3-8.4
		c-30.8-37-61.6-74.1-92.3-111.2c-1.8-2.2-3.7-4.4-5.1-6.9c-4.8-8.5-0.5-15.8,9.2-16.1c25.5-0.6,51-1.2,76.6-1.8
		c26.8-0.6,53.6-1.1,80.4-2c6.6-0.2,10.7,2.1,14.8,7.5c11.1,14.8,23,29,34.7,43.4c33.5,41.4,67.1,82.8,100.5,124.3
		c2.9,3.6,5.1,4.2,9.5,2.4c78.7-32.6,157.4-65.1,236.2-97.3c6.9-2.8,14.8-3.4,22.4-4.3c55.9-6.5,111.9-12.7,167.9-19.1
		c63.6-7.2,127.1-14.3,190.7-21.5c6.5-0.7,13-1.5,19.5-2.2s11.2,1.5,13.1,6.3c2,5,0.1,9.4-5.6,13.2c-72,47.9-144,95.8-215.9,143.8
		C692.5,300.2,595.2,365,497.9,429.9c-30.1,20.1-60.3,40.1-90.4,60.2C406.5,490.7,405.7,491.4,404.3,492.4z M577,149.7
		c-0.3-0.3-0.5-0.7-0.8-1c-158.9,65.5-317.9,131-477.9,197c95.3,44.3,189.5,88.2,284,132.1C447.3,368.1,512.2,258.9,577,149.7z
		 M963.2,96.7c-0.1-0.3-0.3-0.5-0.4-0.8c-1.2,0-2.4-0.1-3.6,0c-40.9,4.6-81.8,9.3-122.7,13.9c-74.5,8.4-149,16.8-223.5,25.1
		c-3.6,0.4-5.9,1.8-7.9,5.1C543.8,243.5,482.4,346.9,421,450.3c-2,3.3-3.9,6.7-5.8,10.1c0.3,0.3,0.6,0.5,0.8,0.8
		C598.4,339.7,780.8,218.2,963.2,96.7z M96.3,366.2c-0.2,0.3-0.5,0.5-0.7,0.8c75.5,126.9,151,253.9,227,381.8c0.7-2.6,1-3.8,1.3-5.1
		c17.2-81.1,34.4-162.3,51.7-243.4c0.8-3.6-0.6-4.7-3.4-6c-81-37.6-162-75.3-243-112.9C118.2,376.3,107.3,371.2,96.3,366.2z
		 M209.7,68.7c-39.9,86.5-79.5,172.3-119.1,258c0.3,0.3,0.5,0.6,0.8,0.8c81.7-33.7,163.4-67.4,245.8-101.3
		C294.7,173.6,252.5,121.5,209.7,68.7z M604,747.1c0.2-0.3,0.4-0.7,0.6-1c-70.1-78.7-140.3-157.3-211.2-236.8
		c-13.8,65-27.3,128.7-40.9,192.7C436.8,717.1,520.4,732.1,604,747.1z M145.7,161.5c16-34.8,31.6-68.5,47.4-102.9
		c-43.7,1-86.4,2-130.2,3C90.8,95.3,117.9,128,145.7,161.5z"/>
	<path class="st0" d="M1151.6,596.2c-7.2,0-13.7,0.2-20.2-0.2c-1.5-0.1-3.6-2.2-4.3-3.8c-5.4-13.3-10.6-26.7-15.8-40
		c-7-18-14-36-21.2-54c-0.5-1.2-2.4-2.4-3.7-2.4c-36.1-0.1-72.1-0.1-108.2,0c-1.3,0-3.3,1.3-3.7,2.5c-12.3,31.3-24.5,62.7-36.6,94.1
		c-1,2.7-2.5,4-5.6,3.8c-6-0.3-12.1-0.1-19.1-0.1c2.4-6.3,4.7-12.3,7.1-18.2c12.6-31.7,25.2-63.5,38-95.1c14.1-35,28.3-70,42.4-105
		c8.4-20.8,16.8-41.6,24.9-62.6c1.1-2.9,2.5-3.4,5.1-3.4c9.4,0,9.5-0.1,12.9,8.6c14.6,37.1,29.1,74.3,43.8,111.4
		c14.5,36.7,29.1,73.3,43.6,110c6.8,17.1,13.3,34.3,20,51.4C1151.2,594,1151.2,594.8,1151.6,596.2z M1082.3,477.4
		c-16.5-43.7-32.9-87.1-48.8-129.4c-16.5,42.5-33.3,85.9-50.2,129.4C1016.4,477.4,1048.9,477.4,1082.3,477.4z"/>
	<path class="st0" d="M890.9,576.9c0,6.7,0,12.6,0,18.9c-51.8,0-103.5,0-155.6,0c0-94.1,0-188.3,0-282.7c51.7,0,103.3,0,155.3,0
		c0,6,0,12.1,0,18.8c-44.7,0-89.4,0-134.4,0c0,35.6,0,70.6,0,106.2c42.1,0,84.3,0,126.7,0c0,6.6,0,12.7,0,19.2
		c-42.1,0-84.2,0-126.6,0c0,40,0,79.6,0,119.7C801,576.9,845.7,576.9,890.9,576.9z"/>
	<path class="st0" d="M1339.8,324.7c-2.1,4.8-4.4,9.4-6.1,14.2c-1,2.8-2,2.8-4.4,2c-9.6-3.2-19.2-6.5-29-9.1
		c-13.6-3.7-27.5-5.6-41.6-4.6c-15.7,1.1-30.8,4.6-43.7,14.9c-10.2,8.2-16.3,18.7-17.5,31.5c-0.9,9.8-0.8,19.9,3.7,29.2
		c5.3,11,14.1,18.8,24.8,23.7c15.4,7.1,31.5,12.7,47.1,19.4c14.2,6.1,28.7,11.7,42,19.4c15.1,8.7,26.9,21.6,30.1,39.3
		c5.1,27.7,1,53.6-21.9,73.1c-13.2,11.3-28.8,18.3-46.1,20.1c-14.8,1.6-29.7,2.4-44.6,1.9c-19.2-0.7-38.4-3-56.8-9.4
		c-3.5-1.2-4.6-2.9-4.4-6.5c0.3-4.9,0.1-9.9,0.1-15.5c1.6,0.3,2.9,0.3,4.1,0.8c13.6,5.3,27.7,8.8,42.3,9.8
		c13.4,0.9,26.9,2.3,40.3,1.7c20.2-0.8,39-6.6,53.4-21.8c8.4-8.8,12.8-19.4,13.2-31.7c0.3-11.3-0.9-22-7.7-31.4
		c-5.2-7.1-11.9-12.8-19.8-16.5c-13.7-6.4-27.5-12.6-41.6-17.9c-18.1-6.9-36.3-13.5-52.5-24.4c-16-10.8-24.6-25.5-27-44.7
		c-1.8-14.7-0.4-28.5,6.2-41.7c6.5-12.9,16.9-22.1,29.4-29.1c12.6-7.1,26.2-10.4,40.7-11.7c30.1-2.6,58.7,2.7,86.4,13.9
		C1339.1,323.8,1339.3,324.1,1339.8,324.7z"/>
	<path class="st0" d="M1365.5,312.8c7.6,0,14.5-0.1,21.3,0.1c1.2,0,2.9,1,3.5,2.1c4.2,7.5,8.3,15.1,12.3,22.7
		c9.6,18.1,19,36.3,28.7,54.4c13.1,24.6,26.3,49.1,39.8,74.3c0.8-1.4,1.4-2.5,2-3.6c13.7-25.7,27.4-51.4,41.1-77.1
		c9.6-18.1,19.3-36.2,28.9-54.3c2.7-5.1,5.4-10.3,8.4-15.2c0.9-1.5,2.9-3.2,4.5-3.3c6.3-0.4,12.7-0.2,19.8-0.2
		c-3.2,6.2-6.1,12.1-9.2,17.8c-5.3,9.8-10.7,19.5-16,29.2c-13.4,24.4-26.8,48.8-40.1,73.3c-7.1,13.1-14.1,26.2-21.1,39.3
		c-1,1.8-1.9,3.6-3,5.3c-3.5,5.6-4.9,11.6-4.9,18.3c0.3,31.4,0.1,62.9,0.1,94.3c0,1.7,0,3.5,0,5.5c-7,0-13.8,0-21,0
		c0-1.8,0-3.5,0-5.2c0-30-0.2-60,0.2-90c0.1-7.9-1.7-14.8-5.5-21.5c-5.1-8.8-9.9-17.7-14.7-26.7c-15.5-28.6-30.9-57.3-46.4-85.9
		c-8.9-16.5-17.8-33.1-26.7-49.6C1367,315.8,1366.5,314.7,1365.5,312.8z"/>
	<path class="st0" d="M1315.8,700.8c0.2,11.3-1.9,22.1-6.6,32.2c-6.9,14.8-18.3,24.2-34.8,27c-9.2,1.6-18.2,1.2-27.1-1.4
		c-15.7-4.6-25.6-15.5-30.7-30.5c-6.5-19.2-6.3-38.9,1.3-57.7c6.4-15.7,18.5-25.6,35.9-28.2c14.7-2.3,28.3-0.4,40.7,8.5
		c10.3,7.4,15.7,17.8,18.5,29.6C1314.6,686.9,1315,693.9,1315.8,700.8z M1306.9,701.2c-0.4-5.2-0.6-10.4-1.4-15.5
		c-2.1-12.6-7-23.6-18.2-30.7c-11-7-23-7.4-35.4-4.6c-11.4,2.6-19.7,9.4-24.6,20c-8,17.2-7.8,35-3.2,52.9c2.8,10.7,8.4,19.5,18.5,25
		c8,4.4,16.6,5.7,25.5,5c14.2-1.1,25.3-7.3,32-20.5C1305.1,722.7,1306.9,712.2,1306.9,701.2z"/>
	<path class="st0" d="M1050.2,759.8c0-39.5,0-77.8,0-116.7c2.3,0,4.6,0,6.9,0c12.1,0.3,24.2-0.2,36.1,1.1
		c23.6,2.6,38.3,15.4,42.6,39.3c3,16.4,2.7,33-5,48.5c-6.8,13.7-18.5,22.3-33.2,24.6C1082.2,759,1066.2,758.9,1050.2,759.8z
		 M1057.8,752.2c12.7-1,25.2-0.9,37.2-3c16.1-2.9,26.8-12.9,31.3-28.9c3.2-11.6,3.3-23.5,1-35.2c-2.7-13.8-10.1-24.3-23.6-30
		c-14.9-6.3-30.4-3.7-45.9-4.4C1057.8,684.4,1057.8,717.5,1057.8,752.2z"/>
	<path class="st0" d="M926.4,643.3c2.7,0,4.9,0,7.6,0c0,1.8,0,3.5,0,5.2c0,23.4-0.2,46.9,0.1,70.3c0.1,9.1,2.2,17.8,8.9,24.6
		c9.4,9.5,21.3,10.7,33.7,9.4c6.4-0.7,12.3-3,17.3-7.4c8-7,10.6-16.3,10.7-26.2c0.3-23.4,0.1-46.9,0.1-70.3c0-1.7,0-3.5,0-5.5
		c2.6,0,4.9,0,7.6,0c0,1.8,0,3.5,0,5.3c0,23.6-0.1,47.2,0,70.8c0.1,19.2-9.3,34.9-29.3,39.5c-17.2,4-33.5,2.9-46.8-10.6
		c-6.4-6.5-9.8-14.9-9.9-23.7C926.1,697.7,926.4,670.8,926.4,643.3z"/>
	<path class="st0" d="M733.7,748.2c11.2,4.3,22.9,5.7,34.7,4.9c10.4-0.7,20.1-3.4,25.3-14c5.1-10.5,1.3-22.8-9.4-27.7
		c-11.3-5.2-23-9.7-34.4-14.8c-6.8-3.1-12.2-8.2-14-15.7c-4.3-17.5,2-30.6,20.4-36.6c13.9-4.5,27.9-2.1,41.4,3
		c1.1,0.4,2.1,1.3,3.2,2c-0.9,2.2-1.7,4.1-2.4,5.8c-7.1-1.7-13.9-3.9-20.9-4.9c-9.7-1.4-19.1-0.6-27.3,5.7
		c-11.2,8.5-9.6,28.5,4.2,34.2c8.6,3.6,17.4,6.8,26,10.5c7.7,3.3,15.4,6.6,19.9,14.3c9,15.2,2.7,34.7-14,42c-11.1,4.8-22.9,5-34.8,3
		c-4.2-0.7-8.4-1.1-12.5-2C732.3,756.5,732.2,756.2,733.7,748.2z"/>
	<path class="st0" d="M903.3,643.5c0,2.4,0,4.5,0,7.1c-12.3,0-24.4,0-37.2,0c0,36.3,0,72.1,0,108.1c-3,0-5.5,0-8.5,0
		c0-35.7,0-71.5,0-107.9c-12.7,0-24.9,0-37.3,0c0-2.7,0-4.9,0-7.4C847.9,643.5,875.4,643.5,903.3,643.5z"/>
	<path class="st0" d="M1179.8,758.7c-2.9,0-5.4,0-8.1,0c0-38.4,0-76.6,0-115.2c2.6,0,5.1,0,8.1,0
		C1179.8,681.7,1179.8,720,1179.8,758.7z"/>
</g>
</svg>
