<svg height="512pt" viewBox="0 -27 512.00031 512" width="512pt" xmlns="http://www.w3.org/2000/svg"><path d="m76.003906 150c-2.632812 0-5.210937-1.070312-7.070312-2.933594-1.859375-1.855468-2.929688-4.4375-2.929688-7.066406s1.066406-5.210938 2.929688-7.070312c1.859375-1.859376 4.4375-2.929688 7.070312-2.929688 2.628906 0 5.207032 1.070312 7.066406 2.929688 1.859376 1.859374 2.933594 4.441406 2.933594 7.070312s-1.070312 5.210938-2.933594 7.066406c-1.859374 1.863282-4.4375 2.933594-7.066406 2.933594zm0 0"/><path d="m372.667969 285.261719h-44.167969c-5.519531 0-10-4.480469-10-10 0-5.523438 4.480469-10 10-10h44.167969c5.523437 0 10 4.476562 10 10 0 5.519531-4.476563 10-10 10zm0 0"/><path d="m288.332031 285.257812c-2.632812 0-5.210937-1.070312-7.070312-2.929687s-2.929688-4.441406-2.929688-7.070313c0-2.628906 1.066407-5.210937 2.929688-7.070312 1.859375-1.859375 4.4375-2.929688 7.070312-2.929688 2.640625 0 5.210938 1.070313 7.066407 2.929688 1.871093 1.859375 2.933593 4.441406 2.933593 7.070312 0 2.628907-1.0625 5.210938-2.933593 7.070313-1.855469 1.859375-4.4375 2.929687-7.066407 2.929687zm0 0"/><path d="m495.660156 286.601562c-12.644531-9.320312-29.683594-10.40625-43.410156-2.761718l-6.25 3.480468v-257.320312c0-16.542969-13.457031-30-30-30h-319.996094c-16.542968 0-30 13.457031-30 30v66c0 5.523438 4.476563 10 10 10 5.519532 0 10-4.476562 10-10v-66c0-5.515625 4.484375-10 10-10h95.996094v134c0 5.519531 4.480469 10 10 10h108c5.523438 0 10-4.480469 10-10v-134h96c5.515625 0 10 4.484375 10 10v268.464844l-61.460938 34.238281c-31.808593 17.71875-67.273437 28.242187-103.511718 30.828125 4.382812-10.820312 4.359375-22.671875-.117188-33.515625-4.644531-11.246094-13.441406-19.890625-24.761718-24.34375l-93.1875-36.632813c-18.035157-7.089843-37.824219-9.3125-56.957032-6.5625v-84.476562c0-5.523438-4.480468-10-10-10-5.523437 0-10 4.476562-10 10v89.074219l-58.664062 16.214843c-5.324219 1.46875-8.445313 6.976563-6.976563 12.300782 1.472657 5.324218 6.976563 8.445312 12.304688 6.976562l64.980469-17.960937c19.03125-5.257813 39.625-4.175781 57.992187 3.046875l93.1875 36.636718c6.21875 2.441407 11.042969 7.1875 13.59375 13.363282 2.550781 6.171875 2.476563 12.941406-.203125 19.0625-5.195312 11.847656-18.746094 17.566406-30.855469 13.015625l-75.609375-28.40625c-5.175781-1.941407-10.9375.675781-12.878906 5.847656-1.941406 5.167969.675781 10.933594 5.84375 12.875l75.609375 28.40625c5.128906 1.925781 10.394531 2.84375 15.585937 2.84375 8.601563 0 16.980469-2.523437 24.105469-7.128906 45.488281-.105469 90.511719-11.851563 130.253907-33.988281l65.988281-36.765626c.4375-.203124.859375-.433593 1.257812-.699218l20.460938-11.398438c6.898437-3.84375 15.457031-3.296875 21.8125 1.386719 5.3125 3.917969 8.304687 9.949219 8.203125 16.546875-.097656 6.601562-3.265625 12.542969-8.6875 16.300781l-36.746094 25.453125c-72.714844 50.371094-157.90625 76.996094-246.359375 76.996094h-190.199219c-5.523437 0-9.99999975 4.480469-9.99999975 10 0 5.523438 4.47656275 10 9.99999975 10h190.195313c92.546875 0 181.675781-27.855469 257.75-80.554688l36.746093-25.453124c10.800782-7.480469 17.105469-19.308594 17.300782-32.445313.191406-13.140625-5.761719-25.144531-16.335938-32.945313zm-195.660156-142.601562h-88v-124h88zm0 0"/></svg>