<svg width="108" height="90" viewBox="0 0 108 90" fill="none" xmlns="http://www.w3.org/2000/svg">
<g clip-path="url(#clip0)">
<path fill-rule="evenodd" clip-rule="evenodd" d="M0.00893079 57.105L56.264 90L56.255 86.895L0 54L0.00893079 57.105Z" fill="#2D3C51"/>
<path fill-rule="evenodd" clip-rule="evenodd" d="M48.6638 24.354C49.1117 24.1233 49.6076 24.003 50.1106 24.003C50.6136 24.003 51.1094 24.1233 51.5574 24.354L107.411 56.853C108.196 57.312 108.196 58.068 107.411 58.536L59.3361 86.319C58.8869 86.5455 58.3916 86.6634 57.8893 86.6634C57.387 86.6634 56.8917 86.5455 56.4425 86.319L0.589368 53.82C-0.205472 53.361 -0.196542 52.605 0.589368 52.137L48.6638 24.354Z" fill="#EEEEEE"/>
<path fill-rule="evenodd" clip-rule="evenodd" d="M58.9341 86.562L58.943 89.649L107.401 61.632L107.393 58.545L58.9341 86.562Z" fill="#2D3C51"/>
<path fill-rule="evenodd" clip-rule="evenodd" d="M56.0137 86.562V89.649C56.4663 89.8799 56.9665 90.0002 57.4739 90.0002C57.9812 90.0002 58.4814 89.8799 58.934 89.649V86.562C58.4814 86.7929 57.9812 86.9132 57.4739 86.9132C56.9665 86.9132 56.4663 86.7929 56.0137 86.562Z" fill="#2D3C51"/>
<path fill-rule="evenodd" clip-rule="evenodd" d="M71.7678 3.41999L75.0186 5.30099C73.0806 4.16699 70.3924 4.32899 67.4274 6.05699C66.2281 6.76917 65.116 7.62102 64.1141 8.595L60.8633 6.71399C61.8669 5.74208 62.9787 4.89042 64.1766 4.17599C67.1416 2.44799 69.8298 2.28599 71.7678 3.41999Z" fill="#2D3C51"/>
<path fill-rule="evenodd" clip-rule="evenodd" d="M26.1045 17.352C28.2358 15.9864 30.7247 15.2966 33.2492 15.372C36.2142 9.9 40.4831 5.013 45.2343 2.25C49.7443 -0.378003 53.8346 -0.630003 56.7907 1.107L59.9879 2.988C57.0408 1.251 52.9505 1.494 48.4315 4.131C43.6892 6.894 39.4203 11.754 36.4642 17.244C33.9395 17.1768 31.4521 17.8693 29.3196 19.233C21.2819 23.913 14.7982 35.262 14.8249 44.577C14.8249 49.203 16.4593 52.461 19.0671 53.991L15.852 52.11C13.2442 50.58 11.6099 47.322 11.6099 42.696C11.6099 33.381 18.0758 21.996 26.1045 17.352Z" fill="#2D3C51"/>
<path fill-rule="evenodd" clip-rule="evenodd" d="M36.3303 17.001C33.8044 16.9238 31.3142 17.6171 29.1857 18.99C21.2552 23.67 14.8161 35.028 14.8429 44.352C14.8696 53.676 21.3534 57.429 29.3286 52.749L67.088 30.6C72.9376 27.126 77.6977 18.801 77.6441 11.961C77.5906 5.121 72.8662 2.367 66.9808 5.796C65.7913 6.51423 64.6885 7.36893 63.6943 8.343C61.7563 1.656 55.5494 -0.441002 48.2261 3.87C43.4928 6.642 39.2953 11.502 36.3303 17.001Z" fill="url(#paint0_linear)" stroke="white"/>
<path d="M49.1191 27.288C49.1958 27.2608 49.2622 27.2102 49.3092 27.1433C49.3562 27.0764 49.3815 26.9965 49.3815 26.9145C49.3815 26.8325 49.3562 26.7526 49.3092 26.6857C49.2622 26.6188 49.1958 26.5682 49.1191 26.541C48.9202 26.4432 48.7018 26.3923 48.4805 26.3923C48.2592 26.3923 48.0408 26.4432 47.842 26.541C47.7653 26.5682 47.6988 26.6188 47.6518 26.6857C47.6048 26.7526 47.5796 26.8325 47.5796 26.9145C47.5796 26.9965 47.6048 27.0764 47.6518 27.1433C47.6988 27.2102 47.7653 27.2608 47.842 27.288C48.0383 27.3943 48.2577 27.45 48.4805 27.45C48.7034 27.45 48.9228 27.3943 49.1191 27.288Z" fill="url(#paint1_linear)"/>
<path d="M49.1192 27.243C48.9204 27.3408 48.702 27.3917 48.4807 27.3917C48.2594 27.3917 48.041 27.3408 47.8421 27.243C47.7697 27.2152 47.7063 27.1676 47.659 27.1057C47.6117 27.0437 47.5823 26.9697 47.5742 26.892C47.5835 26.975 47.6128 27.0545 47.6595 27.1235C47.7062 27.1925 47.7689 27.249 47.8421 27.288C48.0422 27.3815 48.2601 27.4299 48.4807 27.4299C48.7012 27.4299 48.9192 27.3815 49.1192 27.288C49.3157 27.171 49.405 27.018 49.3782 26.892C49.3719 26.969 49.3443 27.0427 49.2985 27.1048C49.2527 27.1668 49.1906 27.2147 49.1192 27.243Z" fill="white"/>
<path d="M49.1191 29.061C49.1958 29.0338 49.2622 28.9832 49.3092 28.9163C49.3562 28.8494 49.3815 28.7695 49.3815 28.6875C49.3815 28.6055 49.3562 28.5256 49.3092 28.4587C49.2622 28.3918 49.1958 28.3412 49.1191 28.314C48.9202 28.2162 48.7018 28.1653 48.4805 28.1653C48.2592 28.1653 48.0408 28.2162 47.842 28.314C47.7653 28.3412 47.6988 28.3918 47.6518 28.4587C47.6048 28.5256 47.5796 28.6055 47.5796 28.6875C47.5796 28.7695 47.6048 28.8494 47.6518 28.9163C47.6988 28.9832 47.7653 29.0338 47.842 29.061C48.0383 29.1673 48.2577 29.223 48.4805 29.223C48.7034 29.223 48.9228 29.1673 49.1191 29.061Z" fill="url(#paint2_linear)"/>
<path d="M49.1191 30.852C49.1969 30.8272 49.2649 30.7781 49.3131 30.7117C49.3614 30.6454 49.3874 30.5652 49.3874 30.483C49.3874 30.4007 49.3614 30.3206 49.3131 30.2543C49.2649 30.1879 49.1969 30.1388 49.1191 30.114C48.9202 30.0162 48.7018 29.9653 48.4805 29.9653C48.2593 29.9653 48.0409 30.0162 47.842 30.114C47.7642 30.1388 47.6962 30.1879 47.648 30.2543C47.5997 30.3206 47.5737 30.4007 47.5737 30.483C47.5737 30.5652 47.5997 30.6454 47.648 30.7117C47.6962 30.7781 47.7642 30.8272 47.842 30.852C48.037 30.9624 48.2569 31.0203 48.4805 31.0203C48.7042 31.0203 48.9241 30.9624 49.1191 30.852Z" fill="url(#paint3_linear)"/>
<path d="M47.6011 26.91V26.01C47.6098 26.0897 47.6392 26.1658 47.6862 26.2305C47.7332 26.2952 47.7962 26.3464 47.869 26.379C48.0679 26.4768 48.2863 26.5277 48.5075 26.5277C48.7288 26.5277 48.9472 26.4768 49.1461 26.379C49.3247 26.271 49.4051 26.163 49.4051 26.028V22.113H47.6189V33.57C47.6189 33.8147 47.7154 34.0493 47.8871 34.2223C48.0587 34.3953 48.2916 34.4925 48.5343 34.4925C48.7771 34.4925 49.01 34.3953 49.1816 34.2223C49.3533 34.0493 49.4497 33.8147 49.4497 33.57V30.465C49.4407 30.5458 49.4125 30.6231 49.3674 30.6905C49.3223 30.7579 49.2617 30.8133 49.1908 30.852C48.9903 30.9499 48.7705 31.0008 48.5477 31.0008C48.325 31.0008 48.1051 30.9499 47.9047 30.852C47.8336 30.8182 47.7724 30.7665 47.727 30.7018C47.6816 30.6372 47.6536 30.5618 47.6457 30.483V29.583C47.6553 29.6613 47.6839 29.736 47.7291 29.8004C47.7743 29.8648 47.8346 29.9169 47.9047 29.952C48.1051 30.0499 48.325 30.1008 48.5477 30.1008C48.7705 30.1008 48.9903 30.0499 49.1908 29.952C49.3604 29.844 49.4497 29.736 49.4497 29.601V28.701C49.4421 28.7833 49.4145 28.8626 49.3694 28.9316C49.3242 29.0007 49.2629 29.0575 49.1908 29.097C48.9903 29.1949 48.7705 29.2458 48.5477 29.2458C48.325 29.2458 48.1051 29.1949 47.9047 29.097C47.8346 29.0619 47.7743 29.0098 47.7291 28.9454C47.6839 28.881 47.6553 28.8063 47.6457 28.728V27.828C47.6553 27.9063 47.6839 27.981 47.7291 28.0454C47.7743 28.1098 47.8346 28.1619 47.9047 28.197C48.1051 28.2949 48.325 28.3458 48.5477 28.3458C48.7705 28.3458 48.9903 28.2949 49.1908 28.197C49.3604 28.089 49.4497 27.981 49.4497 27.846V26.946C49.4407 27.0268 49.4125 27.1041 49.3674 27.1715C49.3223 27.2389 49.2617 27.2943 49.1908 27.333C48.9903 27.4309 48.7705 27.4818 48.5477 27.4818C48.325 27.4818 48.1051 27.4309 47.9047 27.333C47.8252 27.2954 47.7569 27.2373 47.7068 27.1646C47.6566 27.0919 47.6263 27.0072 47.6189 26.919L47.6011 26.91Z" fill="url(#paint4_linear)"/>
<path d="M49.1192 29.016C48.9204 29.1138 48.702 29.1647 48.4807 29.1647C48.2594 29.1647 48.041 29.1138 47.8421 29.016C47.7691 28.9891 47.7051 28.9418 47.6577 28.8796C47.6103 28.8175 47.5813 28.7431 47.5742 28.665C47.5819 28.7485 47.6106 28.8286 47.6575 28.8979C47.7043 28.9671 47.7679 29.0233 47.8421 29.061C48.041 29.1588 48.2594 29.2097 48.4807 29.2097C48.702 29.2097 48.9204 29.1588 49.1192 29.061C49.3157 28.953 49.405 28.8 49.3782 28.665C49.3741 28.7427 49.3473 28.8174 49.3012 28.8798C49.2551 28.9422 49.1919 28.9896 49.1192 29.016Z" fill="white"/>
<path d="M49.1192 30.807C48.9204 30.9048 48.702 30.9557 48.4807 30.9557C48.2594 30.9557 48.041 30.9048 47.8421 30.807C47.7692 30.7826 47.7049 30.7373 47.6573 30.6765C47.6097 30.6157 47.5808 30.5422 47.5742 30.465C47.5834 30.5469 47.6127 30.6252 47.6595 30.6927C47.7063 30.7603 47.769 30.8151 47.8421 30.852C48.041 30.9498 48.2594 31.0007 48.4807 31.0007C48.702 31.0007 48.9204 30.9498 49.1192 30.852C49.3157 30.744 49.405 30.591 49.3782 30.465C49.3735 30.5414 49.3463 30.6147 49.3002 30.6756C49.2541 30.7365 49.1912 30.7822 49.1192 30.807Z" fill="white"/>
<path opacity="0.8" d="M49.1192 26.361C48.9204 26.4588 48.702 26.5097 48.4807 26.5097C48.2594 26.5097 48.041 26.4588 47.8421 26.361C47.7694 26.3285 47.7064 26.2773 47.6593 26.2125C47.6123 26.1478 47.583 26.0717 47.5742 25.992V26.892C47.5832 26.9728 47.6125 27.0499 47.6594 27.1161C47.7063 27.1822 47.7692 27.2352 47.8421 27.27C48.0422 27.3635 48.2601 27.4119 48.4807 27.4119C48.7012 27.4119 48.9191 27.3635 49.1192 27.27C49.1935 27.2332 49.2567 27.1771 49.3022 27.1075C49.3477 27.0379 49.374 26.9573 49.3782 26.874V25.974C49.3813 26.0578 49.3579 26.1405 49.3113 26.21C49.2648 26.2796 49.1975 26.3325 49.1192 26.361Z" fill="url(#paint5_linear)"/>
<path opacity="0.8" d="M49.1192 28.143C48.9191 28.2365 48.7012 28.2849 48.4807 28.2849C48.2601 28.2849 48.0422 28.2365 47.8421 28.143C47.7692 28.1082 47.7063 28.0552 47.6594 27.9891C47.6125 27.9229 47.5832 27.8458 47.5742 27.765V28.665C47.5824 28.7461 47.6114 28.8236 47.6584 28.8899C47.7053 28.9562 47.7687 29.0089 47.8421 29.043C48.041 29.1408 48.2594 29.1917 48.4807 29.1917C48.702 29.1917 48.9204 29.1408 49.1192 29.043C49.1941 29.007 49.2578 28.9511 49.3034 28.8813C49.3491 28.8115 49.3749 28.7305 49.3782 28.647V27.747C49.3805 27.8318 49.3569 27.9152 49.3106 27.9861C49.2643 28.0569 49.1975 28.1117 49.1192 28.143Z" fill="url(#paint6_linear)"/>
<path opacity="0.8" d="M49.1192 29.934C48.9204 30.0318 48.702 30.0827 48.4807 30.0827C48.2594 30.0827 48.041 30.0318 47.8421 29.934C47.7699 29.9007 47.7073 29.8493 47.6604 29.7847C47.6135 29.7201 47.5838 29.6445 47.5742 29.565V30.465C47.583 30.5447 47.6123 30.6208 47.6593 30.6855C47.7064 30.7503 47.7694 30.8014 47.8421 30.834C48.041 30.9318 48.2594 30.9827 48.4807 30.9827C48.702 30.9827 48.9204 30.9318 49.1192 30.834C49.194 30.8004 49.2579 30.7463 49.3037 30.6779C49.3495 30.6094 49.3753 30.5295 49.3782 30.447V29.547C49.38 29.6305 49.356 29.7126 49.3096 29.7819C49.2633 29.8512 49.1968 29.9043 49.1192 29.934Z" fill="url(#paint7_linear)"/>
<path d="M45.2521 20.7L45.1271 20.637L44.6538 18.126L45.1986 14.778L46.7436 13.086L48.3333 11.529L50.9053 10.476H50.9678C51.0913 10.5352 51.208 10.6077 51.3161 10.692L53.2095 10.458C53.1095 10.213 52.9869 9.97795 52.8433 9.756L53.147 9.648L51.9949 9H51.9502C51.3417 8.73441 50.6751 8.63292 50.0159 8.70551C49.3567 8.77809 48.7276 9.02225 48.1904 9.414C46.6183 10.447 45.3093 11.8381 44.3691 13.475C43.429 15.1119 42.884 16.9487 42.7783 18.837C42.7783 20.565 43.3678 21.771 44.3412 22.338L45.5379 23.031L45.4754 22.689C45.6267 22.707 45.7796 22.707 45.9309 22.689C45.4991 22.1164 45.2611 21.4192 45.2521 20.7Z" fill="url(#paint8_linear)"/>
<path d="M53.5846 12.6V12.474C53.5954 11.7859 53.4772 11.1019 53.2363 10.458L51.343 10.692C51.6844 11.0104 51.9501 11.4024 52.1202 11.8388C52.2903 12.2751 52.3604 12.7445 52.3254 13.212C52.246 14.6551 51.8302 16.0591 51.1118 17.31C50.3934 18.5609 49.3925 19.6237 48.1904 20.412C47.7775 20.7151 47.2925 20.903 46.7845 20.9568C46.2764 21.0105 45.7632 20.9281 45.2969 20.718C45.3242 21.412 45.568 22.0796 45.9935 22.626C46.5561 22.5892 47.1057 22.4392 47.6099 22.185L47.4313 22.383C47.4313 22.383 49.673 21.6 49.7176 21.555L52.3968 18.855L54.1116 15.129L53.5846 12.6Z" fill="url(#paint9_linear)"/>
<path opacity="0.5" d="M52.9953 13.743C52.9953 11.097 51.1467 10.017 48.8693 11.331C47.6687 12.1209 46.669 13.184 45.9508 14.4346C45.2326 15.6852 44.8159 17.0884 44.7344 18.531C44.7344 21.186 46.583 22.257 48.8693 20.943C50.0688 20.1526 51.0671 19.0892 51.7838 17.8385C52.5005 16.5879 52.9155 15.185 52.9953 13.743Z" fill="url(#paint10_linear)"/>
<path opacity="0.48" d="M52.6916 13.545C52.6916 10.899 50.843 9.819 48.5656 11.142C47.362 11.9287 46.3601 12.9911 45.6415 14.2423C44.9228 15.4936 44.508 16.8984 44.4307 18.342C44.4307 20.997 46.2793 22.068 48.5656 20.754C49.7662 19.9627 50.7653 18.8979 51.4821 17.6456C52.1988 16.3932 52.6132 14.9885 52.6916 13.545Z" fill="url(#paint11_linear)"/>
<path d="M49.3247 9.999C47.7511 11.0304 46.4409 12.4211 45.5006 14.0584C44.5603 15.6956 44.0162 17.5332 43.9126 19.422C43.9126 22.878 46.3239 24.309 49.3247 22.554C50.8963 21.5205 52.2049 20.1292 53.145 18.4924C54.0851 16.8557 54.6303 15.0191 54.7367 13.131C54.7367 9.666 52.3254 8.271 49.3247 9.999ZM49.3247 21.087C47.0384 22.419 45.1897 21.321 45.1897 18.675C45.2698 17.232 45.6859 15.8284 46.4042 14.5775C47.1226 13.3267 48.1231 12.2639 49.3247 11.475C51.602 10.143 53.4507 11.232 53.4507 13.887C53.3723 15.3293 52.9578 16.7327 52.241 17.9836C51.5242 19.2345 50.5251 20.2977 49.3247 21.087Z" fill="#BCBEFF"/>
<path d="M49.3247 9.999C47.7511 11.0304 46.4409 12.4211 45.5006 14.0584C44.5603 15.6956 44.0162 17.5332 43.9126 19.422C43.9126 22.878 46.3239 24.309 49.3247 22.554C50.8963 21.5205 52.2049 20.1292 53.145 18.4924C54.0851 16.8557 54.6303 15.0191 54.7367 13.131C54.7367 9.666 52.3254 8.271 49.3247 9.999ZM49.3247 21.087C47.0384 22.419 45.1897 21.321 45.1897 18.675C45.2698 17.232 45.6859 15.8284 46.4042 14.5775C47.1226 13.3267 48.1231 12.2639 49.3247 11.475C51.602 10.143 53.4507 11.232 53.4507 13.887C53.3723 15.3293 52.9578 16.7327 52.241 17.9836C51.5242 19.2345 50.5251 20.2977 49.3247 21.087Z" fill="#FF7F1B"/>
<path d="M43.9931 19.53C44.0946 17.6407 44.6378 15.8023 45.5783 14.1647C46.5188 12.5272 47.8301 11.1368 49.4052 10.107C51.1914 9.03599 52.8614 9.16199 53.8706 10.215C52.915 9.08099 51.236 8.90099 49.3516 9.99899C47.778 11.0304 46.4679 12.4211 45.5276 14.0584C44.5872 15.6956 44.0432 17.5332 43.9396 19.422C43.8672 20.5185 44.2157 21.6011 44.913 22.446C44.2778 21.6121 43.9524 20.5804 43.9931 19.53Z" fill="white"/>
<path d="M49.4049 21.195C50.6065 20.4061 51.607 19.3433 52.3254 18.0925C53.0437 16.8416 53.4598 15.4379 53.5399 13.995C53.5831 13.1609 53.3119 12.3412 52.7808 11.7C53.2512 12.3447 53.4877 13.1326 53.4506 13.932C53.3708 15.374 52.9558 16.7769 52.2391 18.0275C51.5224 19.2782 50.524 20.3416 49.3246 21.132C47.9314 21.942 46.69 21.852 45.9487 21.042C46.69 21.897 47.9492 22.023 49.4049 21.195Z" fill="white"/>
<path d="M97.4793 59.994L96.4969 60.165L73.8484 46.98C73.6728 46.8899 73.4785 46.8429 73.2813 46.8429C73.0842 46.8429 72.8899 46.8899 72.7142 46.98L38.9559 66.699L37.2144 67.005V67.572C37.2164 67.6339 37.2359 67.6939 37.2708 67.745C37.3056 67.796 37.3542 67.8359 37.4108 67.86L60.8452 81.486C61.0226 81.5699 61.2175 81.6096 61.4133 81.6017C61.6091 81.5939 61.8002 81.5388 61.9705 81.441L97.1935 60.912C97.3632 60.804 97.4793 60.669 97.4793 60.543V59.994Z" fill="url(#paint12_linear)"/>
<path opacity="0.5" d="M97.4793 59.994L96.4969 60.165L73.8484 46.98C73.6728 46.8899 73.4785 46.8429 73.2813 46.8429C73.0842 46.8429 72.8899 46.8899 72.7142 46.98L38.9559 66.699L37.2144 67.005V67.572C37.2164 67.6339 37.2359 67.6939 37.2708 67.745C37.3056 67.796 37.3542 67.8359 37.4108 67.86L60.8452 81.486C61.0226 81.5699 61.2175 81.6096 61.4133 81.6017C61.6091 81.5939 61.8002 81.5388 61.9705 81.441L97.1935 60.912C97.3632 60.804 97.4793 60.669 97.4793 60.543V59.994Z" fill="url(#paint13_linear)"/>
<path d="M97.1935 60.588L61.9705 81.117C61.7973 81.21 61.6041 81.2586 61.4079 81.2586C61.2116 81.2586 61.0184 81.21 60.8452 81.117L37.4108 67.5C37.3561 67.4757 37.3089 67.437 37.2743 67.3879C37.2397 67.3387 37.219 67.2811 37.2144 67.221V67.374C37.2158 67.4349 37.2353 67.494 37.2703 67.5437C37.3053 67.5935 37.3542 67.6315 37.4108 67.653L60.8452 81.315C61.0191 81.4057 61.212 81.4531 61.4079 81.4531C61.6037 81.4531 61.7966 81.4057 61.9705 81.315L97.1935 60.786C97.2679 60.7509 97.3327 60.6982 97.3825 60.6323C97.4322 60.5665 97.4655 60.4896 97.4793 60.408V60.21C97.4655 60.2916 97.4322 60.3685 97.3825 60.4343C97.3327 60.5002 97.2679 60.5529 97.1935 60.588Z" fill="url(#paint14_linear)"/>
<path d="M60.8452 80.937L37.4108 67.311C37.125 67.14 37.1518 66.852 37.4912 66.654L72.7142 46.125C72.8899 46.0349 73.0842 45.9879 73.2813 45.9879C73.4784 45.9879 73.6728 46.0349 73.8484 46.125L97.2828 59.751C97.5597 59.931 97.5418 60.21 97.1935 60.408L61.9705 80.892C61.7972 80.9808 61.6069 81.0308 61.4127 81.0385C61.2185 81.0463 61.0249 81.0117 60.8452 80.937Z" fill="url(#paint15_linear)"/>
<path opacity="0.7" d="M60.8452 80.937L37.4108 67.311C37.125 67.14 37.1518 66.852 37.4912 66.654L72.7142 46.125C72.8899 46.0349 73.0842 45.9879 73.2813 45.9879C73.4784 45.9879 73.6728 46.0349 73.8484 46.125L97.2828 59.751C97.5597 59.931 97.5418 60.21 97.1935 60.408L61.9705 80.892C61.7972 80.9808 61.6069 81.0308 61.4127 81.0385C61.2185 81.0463 61.0249 81.0117 60.8452 80.937Z" fill="url(#paint16_linear)"/>
<g opacity="0.4">
<path opacity="0.5" d="M97.4793 59.859L96.4969 60.039L73.8663 46.872C73.6877 46.7866 73.4912 46.7461 73.2937 46.7539C73.0962 46.7618 72.9035 46.8177 72.7321 46.917L38.9559 66.6L37.2144 66.906V67.014C37.2174 67.0756 37.2374 67.1352 37.2721 67.1861C37.3068 67.2369 37.3548 67.2771 37.4108 67.302L60.8452 80.919C61.0191 81.0097 61.212 81.0571 61.4079 81.0571C61.6037 81.0571 61.7966 81.0097 61.9705 80.919L97.1935 60.39C97.3632 60.282 97.4793 60.147 97.4793 60.021V59.904V59.859Z" fill="url(#paint17_radial)"/>
<path opacity="0.7" d="M60.8452 80.811L37.4108 67.176C37.125 67.005 37.1518 66.717 37.4912 66.519L72.7142 45.99C72.8897 45.8992 73.0841 45.8518 73.2813 45.8518C73.4786 45.8518 73.673 45.8992 73.8484 45.99L97.2828 59.58C97.5597 59.751 97.5418 60.039 97.1935 60.237L61.9705 80.766C61.8002 80.8638 61.6091 80.9189 61.4133 80.9267C61.2175 80.9346 61.0226 80.8949 60.8452 80.811Z" fill="url(#paint18_radial)"/>
<path opacity="0.4" d="M60.8452 80.811L37.4108 67.176C37.125 67.005 37.1518 66.717 37.4912 66.519L72.7142 45.99C72.8897 45.8992 73.0841 45.8518 73.2813 45.8518C73.4786 45.8518 73.673 45.8992 73.8484 45.99L97.2828 59.58C97.5597 59.751 97.5418 60.039 97.1935 60.237L61.9705 80.766C61.8002 80.8638 61.6091 80.9189 61.4133 80.9267C61.2175 80.9346 61.0226 80.8949 60.8452 80.811Z" fill="#312A91"/>
</g>
<path opacity="0.5" d="M60.8452 80.811L37.4108 67.176C37.125 67.005 37.1518 66.717 37.4912 66.519L72.7142 45.99C72.8897 45.8992 73.0841 45.8518 73.2813 45.8518C73.4786 45.8518 73.673 45.8992 73.8484 45.99L97.2828 59.58C97.5597 59.751 97.5418 60.039 97.1935 60.237L61.9705 80.766C61.8002 80.8638 61.6091 80.9189 61.4133 80.9267C61.2175 80.9346 61.0226 80.8949 60.8452 80.811Z" fill="url(#paint19_radial)"/>
<path d="M60.8452 80.811L37.4108 67.176C37.125 67.005 37.1518 66.717 37.4912 66.519L72.7142 45.99C72.8897 45.8992 73.0841 45.8518 73.2813 45.8518C73.4786 45.8518 73.673 45.8992 73.8484 45.99L97.2828 59.58C97.5597 59.751 97.5418 60.039 97.1935 60.237L61.9705 80.766C61.8002 80.8638 61.6091 80.9189 61.4133 80.9267C61.2175 80.9346 61.0226 80.8949 60.8452 80.811Z" fill="#E1E7EB"/>
<path d="M49.0565 66.042L48.1635 66.564C48.1156 66.5853 48.0639 66.5963 48.0116 66.5963C47.9593 66.5963 47.9076 66.5853 47.8598 66.564L46.9042 66.015C46.8149 66.015 46.8328 65.88 46.9042 65.835L47.7973 65.313C47.845 65.2911 47.8967 65.2798 47.9491 65.2798C48.0015 65.2798 48.0533 65.2911 48.1009 65.313L49.0565 65.853C49.1726 65.907 49.1191 65.979 49.0565 66.042Z" fill="#37474F"/>
<path d="M71.2589 62.928L61.7566 68.454C61.6592 68.494 61.5502 68.494 61.4529 68.454L60.4973 67.905C60.408 67.905 60.4348 67.779 60.4973 67.734L70.0175 62.226C70.0652 62.2041 70.117 62.1928 70.1693 62.1928C70.2217 62.1928 70.2735 62.2041 70.3212 62.226L71.2768 62.775C71.3482 62.802 71.3482 62.883 71.2589 62.928Z" fill="#37474F"/>
<path d="M78.3051 58.833L77.412 59.355C77.3642 59.3763 77.3125 59.3873 77.2602 59.3873C77.2079 59.3873 77.1562 59.3763 77.1083 59.355L76.1528 58.806C76.0634 58.761 76.0813 58.671 76.1528 58.626L77.0458 58.104C77.0935 58.0821 77.1453 58.0708 77.1977 58.0708C77.25 58.0708 77.3018 58.0821 77.3495 58.104L78.3051 58.644C78.4122 58.698 78.3855 58.788 78.3051 58.833Z" fill="#37474F"/>
<path d="M80.0822 57.78L79.1892 58.311C79.0918 58.351 78.9828 58.351 78.8855 58.311L77.9299 57.762C77.8406 57.762 77.8674 57.636 77.9299 57.591L78.823 57.06C78.8722 57.0379 78.9254 57.0265 78.9793 57.0265C79.0331 57.0265 79.0864 57.0379 79.1356 57.06L80.109 57.6C80.1894 57.654 80.1894 57.735 80.0822 57.78Z" fill="#37474F"/>
<path d="M78.5014 56.862L77.6083 57.384C77.5605 57.4053 77.5088 57.4164 77.4565 57.4164C77.4042 57.4164 77.3525 57.4053 77.3046 57.384L76.349 56.835C76.2597 56.835 76.2776 56.7 76.349 56.655L77.2421 56.133C77.2898 56.1111 77.3416 56.0998 77.394 56.0998C77.4463 56.0998 77.4981 56.1111 77.5458 56.133L78.5014 56.673C78.5907 56.7 78.5907 56.817 78.5014 56.862Z" fill="#37474F"/>
<path d="M81.913 56.7L81.0199 57.231C80.9722 57.2529 80.9205 57.2642 80.8681 57.2642C80.8157 57.2642 80.7639 57.2529 80.7163 57.231L79.7607 56.7C79.6714 56.655 79.6892 56.574 79.7607 56.529L80.6537 55.998C80.7014 55.9761 80.7532 55.9648 80.8056 55.9648C80.8579 55.9648 80.9097 55.9761 80.9574 55.998L81.913 56.547C82.0201 56.601 81.9933 56.7 81.913 56.7Z" fill="#37474F"/>
<path d="M58.2556 70.488L56.5409 71.496C56.4932 71.5179 56.4415 71.5292 56.3891 71.5292C56.3367 71.5292 56.2849 71.5179 56.2373 71.496L55.2817 70.956C55.1924 70.956 55.2102 70.821 55.2817 70.776L56.9964 69.768C57.0456 69.7459 57.0988 69.7345 57.1527 69.7345C57.2065 69.7345 57.2598 69.7459 57.3089 69.768L58.2645 70.317C58.3449 70.353 58.3449 70.443 58.2556 70.488Z" fill="#37474F"/>
<path d="M60.8453 68.976L59.1306 69.984C59.0814 70.0061 59.0281 70.0175 58.9743 70.0175C58.9204 70.0175 58.8672 70.0061 58.818 69.984L57.8624 69.444C57.782 69.399 57.7999 69.309 57.8624 69.264L59.5771 68.256C59.6248 68.2341 59.6765 68.2228 59.7289 68.2228C59.7813 68.2228 59.8331 68.2341 59.8807 68.256L60.8363 68.805C60.9524 68.841 60.9524 68.931 60.8453 68.976Z" fill="#37474F"/>
<path d="M73.9288 61.371L72.2141 62.379C72.1663 62.4003 72.1145 62.4113 72.0623 62.4113C72.01 62.4113 71.9582 62.4003 71.9104 62.379L70.9548 61.83C70.8655 61.83 70.8923 61.695 70.9548 61.65L72.6785 60.642C72.7758 60.602 72.8848 60.602 72.9821 60.642L73.9377 61.191C74.036 61.245 74.036 61.308 73.9288 61.371Z" fill="#37474F"/>
<path d="M76.5367 59.859L74.822 60.867C74.7742 60.8883 74.7225 60.8993 74.6702 60.8993C74.6179 60.8993 74.5662 60.8883 74.5183 60.867L73.5627 60.318C73.4734 60.318 73.5002 60.183 73.5627 60.138L75.2864 59.13C75.3837 59.09 75.4927 59.09 75.59 59.13L76.5456 59.679C76.6528 59.733 76.626 59.796 76.5367 59.859Z" fill="#37474F"/>
<path d="M52.1739 64.224L51.2808 64.746C51.233 64.7673 51.1813 64.7784 51.129 64.7784C51.0767 64.7784 51.025 64.7673 50.9771 64.746L50.0126 64.224C49.9233 64.224 49.9412 64.089 50.0126 64.044L50.9057 63.522C51.0032 63.4829 51.1118 63.4829 51.2093 63.522L52.1649 64.071C52.1767 64.0796 52.1865 64.0907 52.1935 64.1036C52.2004 64.1165 52.2045 64.1307 52.2054 64.1454C52.2062 64.16 52.2038 64.1747 52.1984 64.1883C52.1929 64.2019 52.1846 64.2141 52.1739 64.224Z" fill="#37474F"/>
<path d="M75.2327 52.848L49.8425 67.617C49.745 67.6561 49.6363 67.6561 49.5388 67.617L48.5832 67.068C48.4939 67.068 48.5207 66.933 48.5832 66.888L74.0003 52.146C74.0976 52.106 74.2066 52.106 74.3039 52.146L75.2595 52.695C75.322 52.722 75.322 52.785 75.2327 52.848Z" fill="#37474F"/>
<path d="M76.93 53.838L51.5398 68.607C51.4921 68.6289 51.4403 68.6402 51.3879 68.6402C51.3356 68.6402 51.2838 68.6289 51.2361 68.607L50.2805 68.058C50.1912 68.058 50.218 67.932 50.2805 67.887L75.6975 53.1C75.7452 53.0781 75.797 53.0668 75.8494 53.0668C75.9017 53.0668 75.9535 53.0781 76.0012 53.1L76.9568 53.649C77.0193 53.703 77.0193 53.775 76.93 53.838Z" fill="#37474F"/>
<path d="M78.5907 54.819L53.2362 69.588C53.1387 69.6271 53.0301 69.6271 52.9326 69.588L51.977 69.039C51.8877 69.039 51.9055 68.904 51.977 68.859L77.3672 54.099C77.415 54.0777 77.4667 54.0667 77.519 54.0667C77.5713 54.0667 77.623 54.0777 77.6708 54.099L78.6354 54.648C78.7157 54.693 78.7157 54.756 78.5907 54.819Z" fill="#37474F"/>
<path d="M76.7152 57.915L54.933 70.578C54.8853 70.5999 54.8336 70.6112 54.7812 70.6112C54.7288 70.6112 54.677 70.5999 54.6293 70.578L53.6737 70.029C53.5844 70.029 53.6023 69.903 53.6737 69.858L75.4738 57.213C75.5713 57.1739 75.6799 57.1739 75.7774 57.213L76.733 57.762C76.8045 57.78 76.8045 57.843 76.7152 57.915Z" fill="#37474F"/>
<path d="M53.8435 63.261L52.9504 63.783C52.8529 63.8221 52.7443 63.8221 52.6468 63.783L51.6912 63.234C51.6019 63.189 51.6286 63.099 51.6912 63.054L52.5842 62.532C52.6321 62.5107 52.6838 62.4996 52.7361 62.4996C52.7883 62.4996 52.8401 62.5107 52.8879 62.532L53.8435 63.081C53.9506 63.108 53.9506 63.189 53.8435 63.261Z" fill="#37474F"/>
<path d="M55.5407 62.271L54.6477 62.802C54.5503 62.842 54.4413 62.842 54.344 62.802L53.3884 62.253C53.2991 62.253 53.3259 62.127 53.3884 62.082L54.2815 61.551C54.3292 61.5291 54.3809 61.5178 54.4333 61.5178C54.4857 61.5178 54.5375 61.5291 54.5852 61.551L55.5407 62.1C55.6479 62.145 55.6301 62.208 55.5407 62.271Z" fill="#37474F"/>
<path d="M57.2372 61.29L56.3441 61.812C56.2965 61.8339 56.2447 61.8452 56.1923 61.8452C56.1399 61.8452 56.0881 61.8339 56.0405 61.812L55.0849 61.272C54.9956 61.272 55.0134 61.137 55.0849 61.092L55.978 60.57C56.0258 60.5487 56.0775 60.5377 56.1298 60.5377C56.1821 60.5377 56.2338 60.5487 56.2816 60.57L57.2372 61.119C57.3444 61.2 57.3265 61.2 57.2372 61.29Z" fill="#37474F"/>
<path d="M61.1313 59.004L60.2382 59.535C60.1906 59.5569 60.1388 59.5682 60.0864 59.5682C60.034 59.5682 59.9823 59.5569 59.9346 59.535L58.9433 59.004C58.854 59.004 58.8718 58.878 58.9433 58.833L59.8364 58.311C59.8842 58.2897 59.9359 58.2787 59.9882 58.2787C60.0405 58.2787 60.0922 58.2897 60.14 58.311L61.0956 58.86C61.2385 58.878 61.2117 58.968 61.1313 59.004Z" fill="#37474F"/>
<path d="M62.819 58.041L61.926 58.572C61.8783 58.5939 61.8265 58.6052 61.7741 58.6052C61.7218 58.6052 61.67 58.5939 61.6223 58.572L60.6578 58.023C60.5774 58.023 60.5953 57.897 60.6578 57.852L61.5509 57.321C61.6482 57.281 61.7572 57.281 61.8545 57.321L62.8101 57.87C62.9084 57.888 62.9083 57.978 62.819 58.041Z" fill="#37474F"/>
<path d="M64.4983 57.06L63.6052 57.582C63.5574 57.6033 63.5057 57.6144 63.4534 57.6144C63.4011 57.6144 63.3494 57.6033 63.3015 57.582L62.3459 57.033C62.2566 57.033 62.2834 56.898 62.3459 56.853L63.239 56.331C63.3365 56.2919 63.4452 56.2919 63.5427 56.331L64.4983 56.88C64.6054 56.907 64.6054 56.988 64.4983 57.06Z" fill="#37474F"/>
<path d="M66.1947 56.07L65.3016 56.601C65.254 56.6229 65.2022 56.6342 65.1498 56.6342C65.0974 56.6342 65.0457 56.6229 64.998 56.601L64.0424 56.052C63.9531 56.052 63.971 55.926 64.0424 55.881L64.9355 55.35C64.9831 55.3281 65.0349 55.3168 65.0873 55.3168C65.1397 55.3168 65.1915 55.3281 65.2391 55.35L66.1947 55.899C66.3019 55.944 66.2751 56.007 66.1947 56.07Z" fill="#37474F"/>
<path d="M70.0798 53.793L69.1867 54.315C69.1389 54.3363 69.0872 54.3473 69.0349 54.3473C68.9826 54.3473 68.9309 54.3363 68.8831 54.315L67.9185 53.766C67.8382 53.721 67.856 53.631 67.9185 53.595L68.8116 53.064C68.8593 53.0421 68.9111 53.0308 68.9634 53.0308C69.0158 53.0308 69.0676 53.0421 69.1153 53.064L70.0709 53.613C70.1959 53.658 70.1959 53.748 70.0798 53.793Z" fill="#37474F"/>
<path d="M80.2611 55.8L79.3681 56.322C79.3204 56.3439 79.2686 56.3552 79.2162 56.3552C79.1638 56.3552 79.1121 56.3439 79.0644 56.322L78.1088 55.8C78.0195 55.755 78.0374 55.665 78.1088 55.62L79.0019 55.098C79.0497 55.0767 79.1014 55.0656 79.1537 55.0656C79.206 55.0656 79.2577 55.0767 79.3055 55.098L80.2611 55.647C80.3772 55.638 80.3772 55.719 80.2611 55.8Z" fill="#37474F"/>
<path d="M71.7768 52.812L70.8838 53.334C70.8346 53.3561 70.7813 53.3675 70.7275 53.3675C70.6736 53.3675 70.6204 53.3561 70.5712 53.334L69.6602 52.812C69.5799 52.812 69.5977 52.677 69.6602 52.632L70.5533 52.11C70.601 52.0881 70.6528 52.0768 70.7051 52.0768C70.7575 52.0768 70.8093 52.0881 70.857 52.11L71.8126 52.659C71.8929 52.677 71.8661 52.767 71.7768 52.812Z" fill="#37474F"/>
<path d="M73.4734 51.84L72.5803 52.371C72.5326 52.3929 72.4808 52.4042 72.4285 52.4042C72.3761 52.4042 72.3243 52.3929 72.2766 52.371L71.321 51.822C71.2317 51.822 71.2585 51.696 71.321 51.651L72.2141 51.129C72.2635 51.1074 72.3166 51.0963 72.3704 51.0963C72.4242 51.0963 72.4774 51.1074 72.5267 51.129L73.4823 51.678C73.5627 51.687 73.5627 51.777 73.4734 51.84Z" fill="#37474F"/>
<path d="M72.4288 44.721L69.5442 19.683C69.5376 19.6299 69.5225 19.5782 69.4995 19.53L69.7407 19.422L69.1512 19.089C69.0155 19.01 68.8615 18.9684 68.7047 18.9684C68.5479 18.9684 68.3939 19.01 68.2581 19.089L33.4102 39.402C33.2548 39.492 33.1273 39.6239 33.0421 39.7829C32.9569 39.9419 32.9174 40.1216 32.9279 40.302L35.884 65.349C35.9001 65.4879 35.9502 65.6206 36.0297 65.7353C36.1092 65.85 36.2156 65.943 36.3395 66.006L36.9111 66.33L36.8218 66.051C36.9107 66.0291 36.9974 65.999 37.0808 65.961L71.9733 45.684C72.1342 45.5857 72.263 45.4422 72.3439 45.2711C72.4248 45.1 72.4543 44.9088 72.4288 44.721Z" fill="#312A91"/>
<path d="M72.4288 44.721L69.5442 19.683C69.5376 19.6299 69.5225 19.5782 69.4995 19.53L69.7407 19.422L69.1512 19.089C69.0155 19.01 68.8615 18.9684 68.7047 18.9684C68.5479 18.9684 68.3939 19.01 68.2581 19.089L33.4102 39.402C33.2548 39.492 33.1273 39.6239 33.0421 39.7829C32.9569 39.9419 32.9174 40.1216 32.9279 40.302L35.884 65.349C35.9001 65.4879 35.9502 65.6206 36.0297 65.7353C36.1092 65.85 36.2156 65.943 36.3395 66.006L36.9111 66.33L36.8218 66.051C36.9107 66.0291 36.9974 65.999 37.0808 65.961L71.9733 45.684C72.1342 45.5857 72.263 45.4422 72.3439 45.2711C72.4248 45.1 72.4543 44.9088 72.4288 44.721Z" fill="#E1E7EB"/>
<path d="M72.6249 46.062L37.7324 66.366C37.6121 66.4373 37.476 66.4772 37.3365 66.4822C37.197 66.4872 37.0585 66.457 36.9335 66.3945C36.8085 66.3319 36.7009 66.239 36.6206 66.124C36.5402 66.009 36.4895 65.8757 36.4731 65.736L33.5795 40.689C33.5598 40.5074 33.5953 40.324 33.6815 40.1632C33.7676 40.0025 33.9003 39.8719 34.0618 39.789L68.9544 19.44C69.0753 19.3685 69.2121 19.3287 69.3522 19.3242C69.4923 19.3197 69.6313 19.3507 69.7565 19.4142C69.8818 19.4777 69.9892 19.5719 70.069 19.688C70.1489 19.8041 70.1986 19.9385 70.2136 20.079L73.1072 45.117C73.1191 45.3037 73.0805 45.4902 72.9956 45.6566C72.9107 45.823 72.7826 45.9631 72.6249 46.062Z" fill="url(#paint20_linear)"/>
<path d="M72.6249 46.062L37.7324 66.366C37.6121 66.4373 37.476 66.4772 37.3365 66.4822C37.197 66.4872 37.0585 66.457 36.9335 66.3945C36.8085 66.3319 36.7009 66.239 36.6206 66.124C36.5402 66.009 36.4895 65.8757 36.4731 65.736L33.5795 40.689C33.5598 40.5074 33.5953 40.324 33.6815 40.1632C33.7676 40.0025 33.9003 39.8719 34.0618 39.789L68.9544 19.44C69.0753 19.3685 69.2121 19.3287 69.3522 19.3242C69.4923 19.3197 69.6313 19.3507 69.7565 19.4142C69.8818 19.4777 69.9892 19.5719 70.069 19.688C70.1489 19.8041 70.1986 19.9385 70.2136 20.079L73.1072 45.117C73.1191 45.3037 73.0805 45.4902 72.9956 45.6566C72.9107 45.823 72.7826 45.9631 72.6249 46.062Z" fill="url(#paint21_linear)"/>
<path d="M36.6163 65.817L33.7316 40.779C33.6691 40.365 33.8031 40.122 34.2139 39.834L69.1065 19.53C69.2192 19.4592 69.3477 19.4179 69.4803 19.4101C69.6129 19.4022 69.7454 19.428 69.8656 19.485C69.7348 19.3924 69.5789 19.3428 69.4191 19.3428C69.2592 19.3428 69.1033 19.3924 68.9725 19.485L34.0621 39.753C33.9066 39.843 33.7791 39.9749 33.694 40.1339C33.6088 40.2929 33.5692 40.4726 33.5798 40.653L36.4734 65.7C36.4958 65.8451 36.5531 65.9824 36.6402 66.1001C36.7274 66.2178 36.8418 66.3121 36.9735 66.375C36.7882 66.2417 36.6604 66.0421 36.6163 65.817Z" fill="#1E252E"/>
<path d="M40.2333 48.906L39.4116 49.392V47.115L40.2333 46.611V48.906Z" fill="#FF7F1B"/>
<path d="M41.6444 48.078L40.8228 48.555V44.793L41.6444 44.307V48.078Z" fill="#FF7F1B"/>
<path d="M43.0644 47.241L42.2339 47.745V44.244L43.0644 43.74V47.241Z" fill="#FF7F1B"/>
<path d="M44.493 46.431L43.6445 46.917V42.444L44.493 41.967V46.431Z" fill="#FF7F1B"/>
<path d="M45.9134 45.603L45.0649 46.08V40.491L45.9134 40.014V45.603Z" fill="#FF7F1B"/>
<path d="M47.324 44.793L46.4756 45.27V40.581L47.324 40.104V44.793Z" fill="#FF7F1B"/>
<path d="M48.7351 43.956L47.8867 44.442V37.08L48.7351 36.576V43.956Z" fill="#FF7F1B"/>
<path d="M50.1463 43.128L49.2979 43.632V34.911L50.1463 34.425V43.128Z" fill="#FF7F1B"/>
<path d="M54.7994 35.784L57.7555 34.2C57.6661 32.4 56.3444 31.68 54.7369 32.625C53.501 33.4398 52.5608 34.6368 52.0576 36.036L54.7994 35.784Z" fill="#5AAD45"/>
<path d="M53.6916 39.024C53.9774 37.998 54.2543 36.945 54.4061 36.441L51.8697 36.657C51.7622 37.0498 51.7081 37.4555 51.709 37.863C51.709 39.267 52.4056 40.059 53.4326 40.032C53.4951 39.753 53.5845 39.42 53.6916 39.024Z" fill="#5AAD45"/>
<path d="M54.9063 36.315C54.6026 37.431 54.1918 38.853 53.8882 39.987C54.1851 39.9125 54.4706 39.7974 54.7366 39.645C55.5573 39.1014 56.2508 38.3843 56.769 37.5435C57.2872 36.7027 57.6176 35.7584 57.7374 34.776L54.9063 36.315Z" fill="#5AAD45"/>
<path d="M61.015 29.826L58.5591 31.23V30.771L61.015 29.34V29.826Z" fill="#5AAD45"/>
<path d="M62.471 28.953L61.5601 29.493V29.034L62.471 28.494V28.953Z" fill="#5AAD45"/>
<path d="M60.1934 31.356L58.5591 32.301V31.842L60.1934 30.897V31.356Z" fill="#5AAD45"/>
<path d="M62.471 30.024L60.667 31.077V30.618L62.471 29.565V30.024Z" fill="#5AAD45"/>
<path d="M60.1934 34.146L58.5591 35.082V34.623L60.1934 33.678V34.146Z" fill="#5AAD45"/>
<path d="M61.1225 33.615L60.667 33.876V33.399L61.1225 33.129V33.615Z" fill="#5AAD45"/>
<path d="M62.0151 33.066L61.5864 33.327V32.868L62.0151 32.607V33.066Z" fill="#5AAD45"/>
<path d="M63.7835 32.058L62.4707 32.805V32.346L63.7835 31.581V32.058Z" fill="#5AAD45"/>
<path d="M59.0146 35.784L58.5591 36.045V35.586L59.0146 35.325V35.784Z" fill="#5AAD45"/>
<path d="M60.783 34.758L59.4702 35.523V35.064L60.783 34.29V34.758Z" fill="#5AAD45"/>
<path d="M62.0153 34.056L61.2383 34.497V34.029L62.0153 33.57V34.056Z" fill="#5AAD45"/>
<path d="M59.7379 36.288L58.5591 36.99V36.504L59.7379 35.829V36.288Z" fill="#5AAD45"/>
<path d="M60.8634 35.658L60.1489 36.045V35.586L60.8634 35.19V35.658Z" fill="#5AAD45"/>
<path d="M65.4717 27.216L63.0425 28.638V28.161L65.4717 26.757V27.216Z" fill="#5AAD45"/>
<path d="M67.2576 26.163L66.043 26.892V26.433L67.2576 25.704V26.163Z" fill="#5AAD45"/>
<path d="M45.3864 56.448C45.3304 56.4594 45.2727 56.4594 45.2167 56.448C45.148 56.4031 45.0931 56.3396 45.0584 56.2649C45.0236 56.1901 45.0104 56.107 45.0203 56.025C45.0213 55.8216 45.0695 55.6213 45.161 55.4401C45.2524 55.2588 45.3847 55.1016 45.5472 54.981C45.6131 54.9353 45.6895 54.9072 45.7691 54.8993C45.8488 54.8915 45.9291 54.9041 46.0026 54.936C46.0714 54.9786 46.1266 55.0404 46.1614 55.1138C46.1963 55.1873 46.2094 55.2693 46.1991 55.35C46.1859 55.5497 46.1285 55.7439 46.0312 55.9183C45.9338 56.0927 45.7989 56.2429 45.6365 56.358C45.5595 56.4037 45.4747 56.4342 45.3864 56.448ZM45.8865 55.044C45.8109 55.046 45.737 55.0677 45.6722 55.107C45.5204 55.2025 45.395 55.335 45.3075 55.4923C45.2201 55.6497 45.1735 55.8267 45.1721 56.007C45.1661 56.0618 45.1744 56.1173 45.1964 56.1678C45.2183 56.2184 45.2531 56.2622 45.2971 56.295C45.3469 56.3163 45.4016 56.3234 45.4552 56.3155C45.5088 56.3075 45.5591 56.2849 45.6008 56.25C45.7526 56.1545 45.878 56.022 45.9654 55.8647C46.0528 55.7073 46.0994 55.5303 46.1009 55.35C46.1089 55.295 46.1014 55.2389 46.0793 55.188C46.0572 55.1371 46.0213 55.0934 45.9758 55.062C45.9484 55.0475 45.9174 55.0412 45.8865 55.044Z" fill="white"/>
<path d="M43.2162 59.994C43.1577 60.0096 43.0962 60.0096 43.0376 59.994C42.9696 59.9506 42.9151 59.8887 42.8803 59.8155C42.8456 59.7422 42.832 59.6606 42.8412 59.58C42.8438 59.367 42.8971 59.1578 42.9966 58.9699C43.096 58.782 43.2387 58.6209 43.4127 58.5C43.4832 58.4637 43.5613 58.4447 43.6405 58.4447C43.7196 58.4447 43.7977 58.4637 43.8682 58.5C43.9362 58.5434 43.9907 58.6053 44.0255 58.6785C44.0602 58.7518 44.0738 58.8334 44.0647 58.914C44.0511 59.1146 43.9926 59.3095 43.8936 59.4841C43.7946 59.6586 43.6577 59.8083 43.4931 59.922C43.4057 59.9621 43.312 59.9865 43.2162 59.994ZM43.6896 58.59C43.6202 58.5956 43.553 58.6171 43.4931 58.653C43.344 58.7514 43.2207 58.8846 43.1337 59.0413C43.0466 59.198 42.9983 59.3735 42.993 59.553C42.9866 59.6075 42.9958 59.6628 43.0195 59.7122C43.0433 59.7616 43.0805 59.8032 43.1269 59.832C43.1734 59.858 43.2256 59.8716 43.2788 59.8716C43.3319 59.8716 43.3841 59.858 43.4306 59.832C43.5818 59.7359 43.7068 59.6033 43.7942 59.4461C43.8815 59.2889 43.9285 59.1121 43.9307 58.932C43.9371 58.8775 43.9279 58.8222 43.9041 58.7728C43.8804 58.7234 43.8432 58.6818 43.7967 58.653C43.7967 58.653 43.761 58.59 43.6896 58.59Z" fill="white"/>
<path d="M47.583 55.566C47.5206 55.5662 47.4593 55.5507 47.4044 55.521C47.338 55.4764 47.2852 55.414 47.2521 55.3409C47.219 55.2678 47.2067 55.1868 47.2168 55.107C47.23 54.9073 47.2874 54.7132 47.3848 54.5387C47.4821 54.3643 47.617 54.2141 47.7794 54.099C47.8499 54.0627 47.928 54.0437 48.0072 54.0437C48.0864 54.0437 48.1644 54.0627 48.2349 54.099C48.3037 54.1439 48.3585 54.2074 48.3933 54.2821C48.428 54.3569 48.4412 54.44 48.4314 54.522C48.4182 54.7217 48.3608 54.9158 48.2634 55.0903C48.1661 55.2647 48.0312 55.4149 47.8688 55.53C47.7782 55.5668 47.6797 55.5792 47.583 55.566ZM48.0652 54.162C47.9937 54.1639 47.9248 54.1892 47.8688 54.234C47.7169 54.3295 47.5915 54.462 47.5041 54.6193C47.4167 54.7767 47.3701 54.9537 47.3686 55.134C47.3606 55.189 47.3681 55.2451 47.3902 55.296C47.4123 55.3469 47.4482 55.3906 47.4937 55.422C47.5404 55.4472 47.5925 55.4604 47.6455 55.4604C47.6985 55.4604 47.7506 55.4472 47.7973 55.422C47.9491 55.3265 48.0745 55.194 48.162 55.0367C48.2494 54.8793 48.296 54.7023 48.2974 54.522C48.3034 54.4672 48.2951 54.4117 48.2731 54.3612C48.2512 54.3106 48.2164 54.2668 48.1724 54.234C48.1475 54.1967 48.109 54.1709 48.0652 54.162Z" fill="white"/>
<path d="M49.7533 52.83C49.6938 52.8302 49.6353 52.8147 49.5837 52.785C49.5149 52.7424 49.4597 52.6806 49.4249 52.6072C49.39 52.5337 49.3769 52.4517 49.3872 52.371C49.3991 52.171 49.456 51.9764 49.5534 51.8018C49.6509 51.6271 49.7864 51.4771 49.9498 51.363C50.0203 51.3267 50.0984 51.3077 50.1776 51.3077C50.2567 51.3077 50.3348 51.3267 50.4053 51.363C50.4741 51.4056 50.5292 51.4674 50.5641 51.5408C50.5989 51.6142 50.612 51.6962 50.6018 51.777C50.5803 51.9714 50.5163 52.1587 50.4144 52.3252C50.3124 52.4917 50.1751 52.6334 50.0123 52.74C49.9318 52.7847 49.8441 52.8151 49.7533 52.83ZM50.2356 51.408C50.1652 51.408 50.0966 51.43 50.0391 51.471C49.8873 51.5665 49.7619 51.699 49.6745 51.8563C49.587 52.0137 49.5404 52.1907 49.539 52.371C49.533 52.4268 49.5423 52.4831 49.5659 52.5339C49.5896 52.5847 49.6266 52.628 49.673 52.659C49.7176 52.6899 49.7706 52.7065 49.8248 52.7065C49.879 52.7065 49.9319 52.6899 49.9766 52.659C50.1267 52.5617 50.2509 52.4288 50.3381 52.2719C50.4253 52.1149 50.4729 51.9388 50.4767 51.759C50.4827 51.7032 50.4734 51.6469 50.4498 51.5961C50.4262 51.5453 50.3892 51.502 50.3428 51.471L50.2356 51.408Z" fill="white"/>
<path d="M51.9504 49.824C51.8943 49.8343 51.8368 49.8343 51.7807 49.824C51.7119 49.7791 51.6571 49.7156 51.6223 49.6409C51.5876 49.5661 51.5744 49.483 51.5842 49.401C51.5974 49.2013 51.6548 49.0071 51.7522 48.8327C51.8495 48.6583 51.9844 48.5081 52.1469 48.393C52.2179 48.3587 52.2958 48.3408 52.3746 48.3408C52.4534 48.3408 52.5312 48.3587 52.6023 48.393C52.6711 48.4379 52.726 48.5013 52.7607 48.5761C52.7954 48.6509 52.8086 48.734 52.7988 48.816C52.7856 49.0157 52.7282 49.2098 52.6309 49.3843C52.5335 49.5587 52.3986 49.7089 52.2362 49.824C52.1415 49.8395 52.045 49.8395 51.9504 49.824ZM52.4326 48.402C52.3538 48.4088 52.2775 48.4334 52.2094 48.474C52.0581 48.5701 51.9331 48.7027 51.8458 48.8599C51.7584 49.0171 51.7115 49.1938 51.7092 49.374C51.6959 49.4296 51.7011 49.4881 51.724 49.5405C51.7469 49.5929 51.7863 49.6362 51.836 49.6638C51.8858 49.6914 51.9431 49.7018 51.9993 49.6933C52.0555 49.6849 52.1073 49.6581 52.1469 49.617C52.2981 49.5209 52.4231 49.3882 52.5104 49.2311C52.5978 49.0739 52.6447 48.8971 52.647 48.717C52.6523 48.6635 52.6435 48.6096 52.6216 48.5606C52.5996 48.5116 52.5653 48.4693 52.5219 48.438C52.5219 48.438 52.4773 48.402 52.4326 48.402Z" fill="white"/>
<path d="M54.1294 49.941C54.0675 49.9379 54.0068 49.9226 53.9508 49.896C53.8849 49.8504 53.832 49.7882 53.7975 49.7155C53.763 49.6429 53.7481 49.5623 53.7543 49.482C53.7666 49.2811 53.8245 49.0857 53.9236 48.9109C54.0227 48.7362 54.1603 48.5867 54.3259 48.474C54.3957 48.4354 54.474 48.4152 54.5536 48.4152C54.6332 48.4152 54.7115 48.4354 54.7813 48.474C54.8494 48.5174 54.9039 48.5793 54.9386 48.6525C54.9734 48.7258 54.987 48.8074 54.9778 48.888C54.9629 49.0883 54.9039 49.2827 54.805 49.4571C54.7062 49.6315 54.5699 49.7814 54.4062 49.896C54.3193 49.9347 54.224 49.9502 54.1294 49.941ZM54.6027 48.537C54.5325 48.5381 54.4642 48.56 54.4062 48.6C54.2561 48.6973 54.132 48.8302 54.0448 48.9871C53.9576 49.1441 53.91 49.3202 53.9061 49.5C53.9008 49.5544 53.9105 49.6093 53.9341 49.6585C53.9578 49.7077 53.9944 49.7494 54.0401 49.779C54.0859 49.8068 54.1384 49.8214 54.1919 49.8214C54.2454 49.8214 54.2979 49.8068 54.3437 49.779C54.4955 49.6835 54.621 49.551 54.7084 49.3937C54.7958 49.2363 54.8424 49.0593 54.8438 48.879C54.8499 48.8232 54.8405 48.7669 54.8169 48.7161C54.7933 48.6653 54.7563 48.622 54.7099 48.591L54.6027 48.537Z" fill="white"/>
<path d="M56.2641 44.523C56.2084 44.5375 56.1501 44.5375 56.0944 44.523C56.0256 44.4804 55.9705 44.4186 55.9356 44.3452C55.9008 44.2717 55.8877 44.1897 55.8979 44.109C55.9111 43.9093 55.9685 43.7152 56.0659 43.5407C56.1632 43.3663 56.2981 43.2161 56.4606 43.101C56.5282 43.0595 56.6043 43.0339 56.6832 43.0261C56.7621 43.0183 56.8416 43.0285 56.916 43.056C56.9848 43.1009 57.0397 43.1644 57.0744 43.2391C57.1091 43.3139 57.1223 43.397 57.1125 43.479C57.0993 43.6787 57.0419 43.8728 56.9446 44.0473C56.8472 44.2217 56.7123 44.3719 56.5499 44.487C56.4602 44.527 56.3608 44.5395 56.2641 44.523ZM56.7464 43.128C56.6679 43.13 56.5912 43.1517 56.5231 43.191C56.3729 43.2883 56.2488 43.4212 56.1616 43.5781C56.0744 43.7351 56.0268 43.9112 56.023 44.091C56.0169 44.1468 56.0263 44.2031 56.0499 44.2539C56.0735 44.3047 56.1105 44.348 56.1569 44.379C56.2072 44.3976 56.2614 44.4032 56.3144 44.3954C56.3674 44.3875 56.4177 44.3664 56.4606 44.334C56.6124 44.2385 56.7378 44.106 56.8252 43.9487C56.9127 43.7913 56.9592 43.6143 56.9607 43.434C56.9667 43.3782 56.9574 43.3219 56.9338 43.2711C56.9101 43.2203 56.8731 43.177 56.8267 43.146C56.8126 43.1382 56.7976 43.1321 56.7821 43.128H56.7464Z" fill="white"/>
<path d="M58.4965 41.193C58.4369 41.1941 58.3782 41.1786 58.3268 41.148C58.258 41.1054 58.2029 41.0436 58.168 40.9702C58.1332 40.8967 58.1201 40.8147 58.1303 40.734C58.1436 40.5343 58.2009 40.3401 58.2983 40.1657C58.3957 39.9913 58.5305 39.841 58.693 39.726C58.7641 39.6917 58.8419 39.6738 58.9207 39.6738C58.9996 39.6738 59.0774 39.6917 59.1485 39.726C59.2172 39.7709 59.2721 39.8343 59.3068 39.9091C59.3416 39.9839 59.3548 40.067 59.3449 40.149C59.3317 40.3487 59.2744 40.5428 59.177 40.7173C59.0796 40.8917 58.9448 41.0419 58.7823 41.157C58.6917 41.1938 58.5933 41.2062 58.4965 41.193ZM58.9431 39.798C58.8725 39.7967 58.8034 39.8188 58.7466 39.861C58.5948 39.9564 58.4693 40.089 58.3819 40.2463C58.2945 40.4036 58.2479 40.5807 58.2465 40.761C58.2404 40.8158 58.2488 40.8713 58.2708 40.9218C58.2927 40.9724 58.3274 41.0162 58.3715 41.049C58.4182 41.0742 58.4703 41.0874 58.5233 41.0874C58.5763 41.0874 58.6284 41.0742 58.6751 41.049C58.8269 40.9535 58.9524 40.821 59.0398 40.6637C59.1272 40.5063 59.1738 40.3293 59.1753 40.149C59.1813 40.0942 59.1729 40.0387 59.1509 39.9881C59.129 39.9376 59.0943 39.8938 59.0502 39.861C59.0206 39.8309 58.9836 39.8092 58.9431 39.798Z" fill="white"/>
<path d="M56.9785 43.2C56.9785 43.2 56.9785 43.137 56.9785 43.119L58.3271 41.058C58.3271 41.058 58.3985 41.058 58.4164 41.058C58.4342 41.058 58.4164 41.13 58.4164 41.148L57.0678 43.209C57.0142 43.2 56.9964 43.2 56.9785 43.2Z" fill="white"/>
<path d="M54.6472 48.537C54.6275 48.5327 54.6101 48.521 54.5985 48.5043C54.5869 48.4876 54.582 48.4672 54.5847 48.447L56.1923 44.442C56.1999 44.4255 56.2129 44.412 56.2291 44.4038C56.2453 44.3957 56.2638 44.3933 56.2816 44.397C56.2886 44.4093 56.2923 44.4233 56.2923 44.4375C56.2923 44.4517 56.2886 44.4657 56.2816 44.478L54.6651 48.492C54.6651 48.492 54.674 48.537 54.6472 48.537Z" fill="white"/>
<path d="M53.8881 49.212L52.6914 49.149C52.6748 49.149 52.6589 49.1424 52.6472 49.1305C52.6355 49.1187 52.6289 49.1027 52.6289 49.086C52.6304 49.0689 52.6372 49.0526 52.6485 49.0397C52.6597 49.0268 52.6748 49.0177 52.6914 49.014L53.9328 49.086C53.9494 49.086 53.9653 49.0926 53.977 49.1044C53.9887 49.1163 53.9953 49.1323 53.9953 49.149C53.9953 49.149 53.9328 49.212 53.8881 49.212Z" fill="white"/>
<path d="M50.4498 51.489H50.4051C50.3963 51.4757 50.3916 51.46 50.3916 51.444C50.3916 51.428 50.3963 51.4123 50.4051 51.399L51.6912 49.599C51.6912 49.599 51.7537 49.599 51.7716 49.599C51.7894 49.599 51.7716 49.662 51.7716 49.68L50.4855 51.48C50.4855 51.48 50.4766 51.489 50.4498 51.489Z" fill="white"/>
<path d="M48.2798 54.279C48.2798 54.279 48.2798 54.279 48.2351 54.279C48.2235 54.2634 48.2173 54.2445 48.2173 54.225C48.2173 54.2055 48.2235 54.1866 48.2351 54.171L49.4676 52.596C49.4712 52.5843 49.4774 52.5736 49.4858 52.5646C49.4941 52.5557 49.5043 52.5488 49.5157 52.5444C49.5271 52.5401 49.5393 52.5384 49.5514 52.5394C49.5635 52.5405 49.5752 52.5444 49.5857 52.5507C49.5961 52.557 49.605 52.5656 49.6116 52.5759C49.6183 52.5861 49.6225 52.5978 49.6241 52.6099C49.6256 52.6221 49.6244 52.6345 49.6205 52.6461C49.6166 52.6577 49.6101 52.6683 49.6016 52.677L48.3423 54.261C48.3245 54.279 48.2977 54.279 48.2798 54.279Z" fill="white"/>
<path d="M46.172 55.521C46.172 55.521 46.1273 55.521 46.1005 55.521C46.0737 55.521 46.1005 55.431 46.1452 55.431L47.2526 54.99C47.2973 54.99 47.3241 54.99 47.3419 54.99C47.3493 54.9949 47.3553 55.0016 47.3595 55.0095C47.3637 55.0173 47.3659 55.0261 47.3659 55.035C47.3659 55.0439 47.3637 55.0527 47.3595 55.0605C47.3553 55.0684 47.3493 55.0751 47.3419 55.08L46.2345 55.512L46.172 55.521Z" fill="white"/>
<path d="M43.8682 58.635C43.8581 58.6222 43.8525 58.6064 43.8525 58.59C43.8525 58.5736 43.8581 58.5578 43.8682 58.545L45.2436 56.313C45.2436 56.313 45.3061 56.313 45.3239 56.313C45.3418 56.313 45.3239 56.376 45.3239 56.394L43.9575 58.635H43.8682Z" fill="white"/>
</g>
<defs>
<linearGradient id="paint0_linear" x1="46.4118" y1="1.93752" x2="46.4118" y2="54.5422" gradientUnits="userSpaceOnUse">
<stop stop-color="#F4F6FA"/>
<stop offset="1" stop-color="#CDD8E1"/>
</linearGradient>
<linearGradient id="paint1_linear" x1="63.017" y1="22.7657" x2="63.667" y2="23.8776" gradientUnits="userSpaceOnUse">
<stop stop-color="#5761D7"/>
<stop offset="0.16" stop-color="#5E67DA"/>
<stop offset="0.41" stop-color="#727AE2"/>
<stop offset="0.69" stop-color="#9297EE"/>
<stop offset="1" stop-color="#BCBEFF"/>
</linearGradient>
<linearGradient id="paint2_linear" x1="7689.53" y1="-1680.89" x2="7692.51" y2="-1680.89" gradientUnits="userSpaceOnUse">
<stop stop-color="#5761D7"/>
<stop offset="0.16" stop-color="#5E67DA"/>
<stop offset="0.41" stop-color="#727AE2"/>
<stop offset="0.69" stop-color="#9297EE"/>
<stop offset="1" stop-color="#BCBEFF"/>
</linearGradient>
<linearGradient id="paint3_linear" x1="7743" y1="-1672.98" x2="7746.01" y2="-1672.98" gradientUnits="userSpaceOnUse">
<stop stop-color="#5761D7"/>
<stop offset="0.16" stop-color="#5E67DA"/>
<stop offset="0.41" stop-color="#727AE2"/>
<stop offset="0.69" stop-color="#9297EE"/>
<stop offset="1" stop-color="#BCBEFF"/>
</linearGradient>
<linearGradient id="paint4_linear" x1="45.1898" y1="28.305" x2="50.1285" y2="28.305" gradientUnits="userSpaceOnUse">
<stop stop-color="#AF3C00"/>
<stop offset="0.19" stop-color="#B64202"/>
<stop offset="0.47" stop-color="#CA5209"/>
<stop offset="0.81" stop-color="#EA6D14"/>
<stop offset="1" stop-color="#FF7F1B"/>
</linearGradient>
<linearGradient id="paint5_linear" x1="47.6099" y1="26.712" x2="49.414" y2="26.712" gradientUnits="userSpaceOnUse">
<stop stop-color="#BCC6CC"/>
<stop offset="0.29" stop-color="#C1CAD0"/>
<stop offset="0.64" stop-color="#CFD7DC"/>
<stop offset="1" stop-color="#E6ECEF"/>
</linearGradient>
<linearGradient id="paint6_linear" x1="11491.7" y1="-151.897" x2="11495.4" y2="-151.897" gradientUnits="userSpaceOnUse">
<stop stop-color="#BCC6CC"/>
<stop offset="0.29" stop-color="#C1CAD0"/>
<stop offset="0.64" stop-color="#CFD7DC"/>
<stop offset="1" stop-color="#E6ECEF"/>
</linearGradient>
<linearGradient id="paint7_linear" x1="11491.3" y1="-146.107" x2="11494.9" y2="-146.107" gradientUnits="userSpaceOnUse">
<stop stop-color="#BCC6CC"/>
<stop offset="0.29" stop-color="#C1CAD0"/>
<stop offset="0.64" stop-color="#CFD7DC"/>
<stop offset="1" stop-color="#E6ECEF"/>
</linearGradient>
<linearGradient id="paint8_linear" x1="66144.2" y1="-1927.19" x2="66298.9" y2="-1992.41" gradientUnits="userSpaceOnUse">
<stop stop-color="#AF3C00"/>
<stop offset="0.19" stop-color="#B64202"/>
<stop offset="0.47" stop-color="#CA5209"/>
<stop offset="0.81" stop-color="#EA6D14"/>
<stop offset="1" stop-color="#FF7F1B"/>
</linearGradient>
<linearGradient id="paint9_linear" x1="54.835" y1="12.906" x2="44.267" y2="20.5772" gradientUnits="userSpaceOnUse">
<stop stop-color="#BCC6CC"/>
<stop offset="0.3" stop-color="#C3CCD2"/>
<stop offset="0.73" stop-color="#D7DEE2"/>
<stop offset="1" stop-color="#E6ECEF"/>
</linearGradient>
<linearGradient id="paint10_linear" x1="52418.8" y1="-1470.94" x2="52495.2" y2="-1470.94" gradientUnits="userSpaceOnUse">
<stop stop-color="#BCC6CC"/>
<stop offset="0.29" stop-color="#C1CAD0"/>
<stop offset="0.64" stop-color="#CFD7DC"/>
<stop offset="1" stop-color="#E6ECEF"/>
</linearGradient>
<linearGradient id="paint11_linear" x1="52415.2" y1="-1474.29" x2="52491.6" y2="-1474.29" gradientUnits="userSpaceOnUse">
<stop stop-color="#BCC6CC"/>
<stop offset="0.29" stop-color="#C1CAD0"/>
<stop offset="0.64" stop-color="#CFD7DC"/>
<stop offset="1" stop-color="#E6ECEF"/>
</linearGradient>
<linearGradient id="paint12_linear" x1="37.2144" y1="64.233" x2="97.4793" y2="64.233" gradientUnits="userSpaceOnUse">
<stop stop-color="#AF3C00"/>
<stop offset="1" stop-color="#FF7F1B"/>
</linearGradient>
<linearGradient id="paint13_linear" x1="-1769.66" y1="-2754.48" x2="2297.02" y2="-2754.48" gradientUnits="userSpaceOnUse">
<stop stop-color="#AF3C00"/>
<stop offset="1" stop-color="#FF7F1B"/>
</linearGradient>
<linearGradient id="paint14_linear" x1="-1769.66" y1="-1441.69" x2="2297.02" y2="-1441.69" gradientUnits="userSpaceOnUse">
<stop stop-color="#AF3C00"/>
<stop offset="1" stop-color="#FF7F1B"/>
</linearGradient>
<linearGradient id="paint15_linear" x1="2548.23" y1="-2948.83" x2="6614.54" y2="-2948.83" gradientUnits="userSpaceOnUse">
<stop stop-color="#AF3C00"/>
<stop offset="1" stop-color="#FF7F1B"/>
</linearGradient>
<linearGradient id="paint16_linear" x1="-1769.49" y1="-2808.43" x2="2296.82" y2="-2808.43" gradientUnits="userSpaceOnUse">
<stop stop-color="#AF3C00"/>
<stop offset="1" stop-color="#FF7F1B"/>
</linearGradient>
<radialGradient id="paint17_radial" cx="0" cy="0" r="1" gradientUnits="userSpaceOnUse" gradientTransform="translate(36.6249 69.138) scale(24.2828 24.471)">
<stop stop-color="#42E8E0"/>
<stop offset="0.1" stop-color="#3CCACE"/>
<stop offset="0.34" stop-color="#2F87A5"/>
<stop offset="0.56" stop-color="#255385"/>
<stop offset="0.75" stop-color="#1E2D6E"/>
<stop offset="0.91" stop-color="#1A1660"/>
<stop offset="1" stop-color="#180D5B"/>
</radialGradient>
<radialGradient id="paint18_radial" cx="0" cy="0" r="1" gradientUnits="userSpaceOnUse" gradientTransform="translate(-1782.02 -2943.66) scale(3377.54 1966)">
<stop stop-color="#42E8E0"/>
<stop offset="0.1" stop-color="#3CCACE"/>
<stop offset="0.34" stop-color="#2F87A5"/>
<stop offset="0.56" stop-color="#255385"/>
<stop offset="0.75" stop-color="#1E2D6E"/>
<stop offset="0.91" stop-color="#1A1660"/>
<stop offset="1" stop-color="#180D5B"/>
</radialGradient>
<radialGradient id="paint19_radial" cx="0" cy="0" r="1" gradientUnits="userSpaceOnUse" gradientTransform="translate(-1514.47 -2848.96) scale(2764.1 1608.93)">
<stop stop-color="#42E8E0"/>
<stop offset="0.1" stop-color="#3CCACE"/>
<stop offset="0.34" stop-color="#2F87A5"/>
<stop offset="0.56" stop-color="#255385"/>
<stop offset="0.75" stop-color="#1E2D6E"/>
<stop offset="0.91" stop-color="#1A1660"/>
<stop offset="1" stop-color="#180D5B"/>
</radialGradient>
<linearGradient id="paint20_linear" x1="33.5795" y1="42.903" x2="73.1072" y2="42.903" gradientUnits="userSpaceOnUse">
<stop stop-color="#2B237C"/>
<stop offset="1" stop-color="#180D5B"/>
</linearGradient>
<linearGradient id="paint21_linear" x1="33.5795" y1="42.903" x2="73.1072" y2="42.903" gradientUnits="userSpaceOnUse">
<stop stop-color="#364044"/>
<stop offset="0.14" stop-color="#3B4649"/>
<stop offset="0.6" stop-color="#485456"/>
<stop offset="1" stop-color="#4D595B"/>
</linearGradient>
<clipPath id="clip0">
<rect width="108" height="90" fill="white"/>
</clipPath>
</defs>
</svg>
