<svg width="80" height="80" viewBox="0 0 80 80" fill="none" xmlns="http://www.w3.org/2000/svg">
<g clip-path="url(#clip0)">
<path d="M59.2239 17.8221C57.8977 16.4959 55.7473 16.4959 54.4211 17.8221L53.6165 18.6268C52.2903 19.9529 50.1399 19.9529 48.8137 18.6268L48.0091 17.8221C46.6829 16.4959 44.5325 16.4959 43.2063 17.8221L42.4016 18.6268C41.0755 19.9529 38.9251 19.9529 37.5989 18.6268L36.7942 17.8221C35.4681 16.4959 33.3177 16.4959 31.9915 17.8221L31.1868 18.6268C29.8606 19.9529 27.7103 19.9529 26.3841 18.6268L25.5794 17.8221C24.2532 16.4959 22.1029 16.4959 20.7767 17.8221L19.972 18.6268C19.309 19.2898 18.4397 19.6221 17.5706 19.6221V74.3019C17.5706 77.3972 20.0798 79.9081 23.1767 79.9094L56.8215 79.9206C59.9182 79.9221 62.4303 77.4113 62.4303 74.3132V19.6221C61.5612 19.6221 60.692 19.2899 60.0289 18.6268L59.2239 17.8221Z" fill="#DAE7EF"/>
<path d="M59.2239 17.8221C57.8977 16.4959 55.7473 16.4959 54.4211 17.8221L53.6165 18.6268C52.2903 19.9529 50.1399 19.9529 48.8137 18.6268L48.0091 17.8221C46.6829 16.4959 44.5325 16.4959 43.2063 17.8221L42.4016 18.6268C41.0755 19.9529 38.9251 19.9529 37.5989 18.6268L36.7942 17.8221C35.4681 16.4959 33.3177 16.4959 31.9915 17.8221L31.1868 18.6268C29.8606 19.9529 27.7103 19.9529 26.3841 18.6268L25.5794 17.8221C24.2532 16.4959 22.1029 16.4959 20.7767 17.8221L19.972 18.6268C19.309 19.2898 18.4397 19.6221 17.5706 19.6221V74.3019C17.5706 77.3972 20.0798 79.9081 23.1767 79.9094L56.8215 79.9206C59.9182 79.9221 62.4303 77.4113 62.4303 74.3132V19.6221C61.5612 19.6221 60.692 19.2899 60.0289 18.6268L59.2239 17.8221Z" stroke="#BBD7EB"/>
<path d="M24.1319 63.0844C20.4324 63.0844 17.9371 59.3007 19.3951 55.8999C22.8002 47.9555 22.8002 38.9611 19.3951 31.0167C17.9371 27.6157 20.4324 23.8322 24.1319 23.8322C26.194 23.8322 28.0571 25.0603 28.8688 26.9556L30.6099 31.0169C34.015 38.9613 34.015 47.9557 30.6099 55.9001L28.8688 59.9613C28.0571 61.8564 26.194 63.0844 24.1319 63.0844Z" fill="#436B1C"/>
<path d="M57.1307 22.9909C60.4658 24.5946 61.0742 29.0861 58.2859 31.5184C51.7728 37.203 47.8756 45.3071 47.5 53.9426C47.3388 57.6393 43.4514 59.9679 40.1164 58.3641C38.2588 57.4697 37.1121 55.5548 37.2018 53.4954L37.3925 49.0824C37.7683 40.4455 41.6668 32.3413 48.1799 26.6567L51.5079 23.752C53.0612 22.3965 55.2732 22.0965 57.1307 22.9909Z" fill="#A4E869"/>
<path d="M33.1002 78.3325C30.4844 75.7167 31.3956 71.277 34.8301 69.9032C42.8558 66.6929 49.2161 60.3326 52.4263 52.3069C53.8002 48.8723 58.2399 47.9612 60.8557 50.577C62.3137 52.035 62.7623 54.2219 61.9969 56.1354L60.3568 60.2373C57.1465 68.263 50.7862 74.6219 42.7605 77.8321L38.6586 79.4737C36.7451 80.239 34.5582 79.7904 33.1002 78.3325Z" fill="#659C35"/>
<path d="M20.5464 33.6453C20.5464 32.8714 21.1745 32.2433 21.9483 32.2433C22.7222 32.2433 23.3503 32.8714 23.3503 33.6453C23.3503 34.4191 22.7222 35.0472 21.9483 35.0472C21.1743 35.0471 20.5464 34.4191 20.5464 33.6453Z" fill="#A4E869"/>
<path d="M26.1537 35.0471C26.1537 34.2732 26.7818 33.6451 27.5556 33.6451C28.3295 33.6451 28.9575 34.2732 28.9575 35.0471C28.9575 35.8209 28.3295 36.449 27.5556 36.449C26.7818 36.449 26.1537 35.8209 26.1537 35.0471Z" fill="#A4E869"/>
<path d="M30.3595 43.4583C30.3595 42.6845 30.9876 42.0564 31.7614 42.0564C32.5353 42.0564 33.1634 42.6845 33.1634 43.4583C33.1634 44.2322 32.5353 44.8603 31.7614 44.8603C30.9874 44.8601 30.3595 44.2322 30.3595 43.4583Z" fill="#A4E869"/>
<path d="M24.752 40.6546C24.752 39.8808 25.38 39.2527 26.1539 39.2527C26.9277 39.2527 27.5558 39.8808 27.5558 40.6546C27.5558 41.4285 26.9277 42.0565 26.1539 42.0565C25.38 42.0564 24.752 41.4283 24.752 40.6546Z" fill="#A4E869"/>
<path d="M21.948 46.262C21.948 45.4882 22.5761 44.8601 23.3499 44.8601C24.1238 44.8601 24.7519 45.4882 24.7519 46.262C24.7519 47.0359 24.1238 47.664 23.3499 47.664C22.5761 47.664 21.948 47.0359 21.948 46.262Z" fill="#A4E869"/>
<path d="M27.5554 49.0657C27.5554 48.2919 28.1835 47.6638 28.9574 47.6638C29.7312 47.6638 30.3593 48.2919 30.3593 49.0657C30.3593 49.8396 29.7312 50.4677 28.9574 50.4677C28.1835 50.4677 27.5554 49.8396 27.5554 49.0657Z" fill="#A4E869"/>
<path d="M27.5554 56.0751C27.5554 55.3012 28.1835 54.6732 28.9574 54.6732C29.7312 54.6732 30.3593 55.3012 30.3593 56.0751C30.3593 56.8489 29.7312 57.477 28.9574 57.477C28.1835 57.477 27.5554 56.8489 27.5554 56.0751Z" fill="#A4E869"/>
<path d="M23.3502 53.2714C23.3502 52.4975 23.9783 51.8694 24.7522 51.8694C25.526 51.8694 26.1541 52.4975 26.1541 53.2714C26.1541 54.0452 25.526 54.6733 24.7522 54.6733C23.9783 54.6733 23.3502 54.0452 23.3502 53.2714Z" fill="#A4E869"/>
<path d="M47.6012 51.0747C47.2661 51.7728 46.4278 52.0658 45.7297 51.7308C45.033 51.3942 44.7386 50.5573 45.0751 49.8592C45.4102 49.1611 46.2485 48.8681 46.9452 49.2032C47.6433 49.5397 47.9363 50.3766 47.6012 51.0747Z" fill="#436B1C"/>
<path d="M43.1556 47.3808C42.8206 48.0789 41.9822 48.3719 41.2841 48.0368C40.5874 47.7003 40.293 46.8634 40.6295 46.1653C40.9646 45.4672 41.8029 45.1742 42.4996 45.5092C43.1977 45.8458 43.4907 46.6827 43.1556 47.3808Z" fill="#436B1C"/>
<path d="M43.0115 37.9779C42.6764 38.676 41.8381 38.969 41.14 38.634C40.4433 38.2974 40.1489 37.4605 40.4854 36.7624C40.8204 36.0643 41.6588 35.7713 42.3554 36.1064C43.0535 36.4429 43.3465 37.2798 43.0115 37.9779Z" fill="#436B1C"/>
<path d="M46.8495 42.9351C46.5144 43.6333 45.6761 43.9262 44.978 43.5912C44.2813 43.2547 43.9869 42.4178 44.3234 41.7196C44.6585 41.0215 45.4968 40.7285 46.1935 41.0636C46.8914 41.4001 47.1844 42.237 46.8495 42.9351Z" fill="#436B1C"/>
<path d="M51.8069 39.0972C51.4718 39.7953 50.6335 40.0883 49.9354 39.7532C49.2387 39.4167 48.9443 38.5798 49.2808 37.8817C49.6159 37.1836 50.4542 36.8906 51.1509 37.2257C51.849 37.5622 52.142 38.3991 51.8069 39.0972Z" fill="#436B1C"/>
<path d="M47.9689 34.1399C47.6338 34.838 46.7955 35.131 46.0974 34.7959C45.4007 34.4594 45.1063 33.6225 45.4428 32.9244C45.7778 32.2263 46.6162 31.9333 47.3128 32.2684C48.011 32.6049 48.3039 33.4418 47.9689 34.1399Z" fill="#436B1C"/>
<path d="M51.0068 27.8233C50.6717 28.5214 49.8334 28.8144 49.1353 28.4793C48.4386 28.1428 48.1442 27.3059 48.4807 26.6078C48.8158 25.9097 49.6541 25.6167 50.3508 25.9517C51.0489 26.2883 51.3419 27.1252 51.0068 27.8233Z" fill="#436B1C"/>
<path d="M55.2817 31.4494C54.9466 32.1475 54.1083 32.4405 53.4102 32.1055C52.7135 31.7689 52.4191 30.932 52.7556 30.2339C53.0907 29.5358 53.929 29.2428 54.6257 29.5779C55.3238 29.9144 55.6168 30.7513 55.2817 31.4494Z" fill="#436B1C"/>
<path d="M51.3815 54.9805C51.9297 54.4323 52.8169 54.4323 53.3637 54.9805C53.9119 55.5287 53.9119 56.416 53.3637 56.9628C52.8169 57.511 51.9295 57.511 51.3815 56.9628C50.8334 56.416 50.8334 55.5286 51.3815 54.9805Z" fill="#436B1C"/>
<path d="M54.3551 59.9367C54.9033 59.3885 55.7906 59.3885 56.3373 59.9367C56.8855 60.4849 56.8855 61.3721 56.3373 61.9189C55.7906 62.4671 54.9032 62.4671 54.3551 61.9189C53.8071 61.3723 53.8071 60.4849 54.3551 59.9367Z" fill="#436B1C"/>
<path d="M51.3815 68.8582C51.9297 68.31 52.8169 68.31 53.3637 68.8582C53.9119 69.4064 53.9119 70.2936 53.3637 70.8404C52.8169 71.3886 51.9295 71.3886 51.3815 70.8404C50.8334 70.2938 50.8334 69.4064 51.3815 68.8582Z" fill="#436B1C"/>
<path d="M49.3988 62.9106C49.947 62.3624 50.8343 62.3624 51.381 62.9106C51.9292 63.4588 51.9292 64.3461 51.381 64.8928C50.8343 65.441 49.9469 65.441 49.3988 64.8928C48.8508 64.3462 48.8508 63.4588 49.3988 62.9106Z" fill="#436B1C"/>
<path d="M43.4514 64.8931C43.9996 64.3449 44.8869 64.3449 45.4336 64.8931C45.9818 65.4413 45.9818 66.3286 45.4336 66.8753C44.8869 67.4235 43.9995 67.4235 43.4514 66.8753C42.9034 66.3287 42.9034 65.4413 43.4514 64.8931Z" fill="#436B1C"/>
<path d="M45.434 70.8407C45.9822 70.2925 46.8694 70.2925 47.4162 70.8407C47.9644 71.3889 47.9644 72.2761 47.4162 72.8229C46.8694 73.3711 45.982 73.3711 45.434 72.8229C44.8859 72.2763 44.8859 71.3889 45.434 70.8407Z" fill="#436B1C"/>
<path d="M40.4774 75.7972C41.0256 75.249 41.9129 75.249 42.4596 75.7972C43.0078 76.3454 43.0078 77.2326 42.4596 77.7794C41.9129 78.3276 41.0255 78.3276 40.4774 77.7794C39.9292 77.2326 39.9292 76.3454 40.4774 75.7972Z" fill="#436B1C"/>
<path d="M39.4863 70.8407C40.0345 70.2925 40.9218 70.2925 41.4686 70.8407C42.0167 71.3889 42.0167 72.2761 41.4686 72.8229C40.9218 73.3711 40.0344 73.3711 39.4863 72.8229C38.9381 72.2763 38.9381 71.3889 39.4863 70.8407Z" fill="#436B1C"/>
<path d="M62.4298 7.81957V2.80371C62.4298 1.25615 61.175 0 59.6261 0H20.4468C18.9075 0 17.6556 1.24059 17.6431 2.77988L17.5995 7.81957C17.5813 9.9952 16.708 12.077 15.1687 13.6163C13.3982 15.3868 13.3982 18.2578 15.1687 20.0283C16.4949 21.3545 18.6453 21.3545 19.9715 20.0283L20.7761 19.2237C22.1023 17.8975 24.2527 17.8975 25.5789 19.2237L26.3835 20.0283C27.7097 21.3545 29.8601 21.3545 31.1863 20.0283L31.9909 19.2237C33.3171 17.8975 35.4675 17.8975 36.7937 19.2237L37.5983 20.0283C38.9245 21.3545 41.0749 21.3545 42.4011 20.0283L43.2058 19.2237C44.5319 17.8975 46.6823 17.8975 48.0085 19.2237L48.8132 20.0283C50.1393 21.3545 52.2897 21.3545 53.6159 20.0283L54.4206 19.2237C55.7468 17.8975 57.8971 17.8975 59.2233 19.2237L60.028 20.0283C61.3542 21.3545 63.5045 21.3545 64.8307 20.0283C66.6012 18.2578 66.6012 15.3868 64.8307 13.6163C63.2933 12.0784 62.4298 9.99393 62.4298 7.81957Z" fill="#546A79"/>
<path d="M65.2337 7.0098H14.7666C13.9913 7.0098 13.3646 6.38315 13.3646 5.60786C13.3646 4.83258 13.9913 4.20593 14.7666 4.20593H65.2337C66.009 4.20593 66.6357 4.83258 66.6357 5.60786C66.6357 6.38315 66.009 7.0098 65.2337 7.0098Z" fill="#749EB5"/>
</g>
<defs>
<clipPath id="clip0">
<rect width="80" height="80" fill="white"/>
</clipPath>
</defs>
</svg>
