<svg width="80" height="80" viewBox="0 0 80 80" fill="none" xmlns="http://www.w3.org/2000/svg">
<g clip-path="url(#clip0)">
<path d="M27.3931 38.6483C26.9682 41.5788 26.1997 44.4492 25.1034 47.2C24.8622 47.8126 25.0843 48.5104 25.6351 48.8709C26.186 49.2315 26.9143 49.1558 27.3793 48.6896L40 36.0455L44.3917 39.5641L31.3103 52.6207C30.8441 53.0856 30.7684 53.8139 31.129 54.3648C31.4896 54.9157 32.1873 55.1377 32.8 54.8965C35.5508 53.8002 38.4211 53.0317 41.3517 52.6069C41.7103 53.1034 43.5034 53.5724 43.9448 54.0276H43.9586C43.7257 54.6365 43.5277 55.2582 43.3655 55.8896C43.1586 56.7034 41.6137 57.5448 41.5172 58.4138C37.6771 59.5669 34.1744 61.6354 31.3103 64.4414L16.5379 79.2138C15.9874 79.7353 15.2523 80.0166 14.4943 79.9959C13.7364 79.9752 13.0177 79.6542 12.4965 79.1034L6.68961 73.3103L0.896505 67.5034C0.345754 66.9823 0.0246911 66.2636 0.00399563 65.5056C-0.0166999 64.7476 0.264669 64.0125 0.78616 63.462L15.5586 48.6896C19.6903 44.3314 22.2527 38.7213 22.8413 32.7448L27.3931 38.6483Z" fill="#24AE5F"/>
<path d="M80 60.6896C80 71.3544 71.3544 79.9999 60.6896 79.9999C50.0248 79.9999 41.3793 71.3544 41.3793 60.6896C41.3763 59.9288 41.4224 59.1686 41.5172 58.4137C41.6151 57.5625 41.7718 56.7191 41.9862 55.8896C42.1484 55.2582 42.3465 54.6365 42.5793 54.0275C45.8028 45.24 54.867 40.032 64.0822 41.6726C73.2975 43.3132 80.0073 51.3294 80 60.6896Z" fill="#81CCB8"/>
<path d="M72.8979 62.0758L69.1034 63.9531L63.4483 60.6896L69.1034 57.4262L72.8979 59.3103C73.5799 59.6421 74.4019 59.3609 74.7378 58.681C75.0738 58.0011 74.7978 57.1774 74.12 56.8372L71.9738 55.7751L73.3241 54.9945C73.7544 54.7498 74.0206 54.2934 74.0217 53.7984C74.0228 53.3035 73.7586 52.8459 73.3294 52.5993C72.9002 52.3528 72.3718 52.3552 71.9448 52.6055L70.5931 53.3848L70.7476 50.9945C70.771 50.6294 70.6484 50.2699 70.4068 49.9952C70.1652 49.7205 69.8244 49.553 69.4593 49.5296C69.0932 49.502 68.7315 49.6231 68.4558 49.8656C68.1802 50.108 68.0139 50.4513 67.9945 50.8179L67.7241 55.0345L62.069 58.3007V51.7724L65.5931 49.4276C66.0031 49.1541 66.236 48.6826 66.2042 48.1908C66.1723 47.699 65.8805 47.2615 65.4387 47.0432C64.9968 46.8249 64.4721 46.8589 64.0621 47.1324L62.069 48.4579V46.8965C62.069 46.1348 61.4514 45.5172 60.6897 45.5172C59.9279 45.5172 59.3103 46.1348 59.3103 46.8965V48.4579L57.3172 47.1282C56.9073 46.8548 56.3825 46.8208 55.9406 47.0391C55.4988 47.2574 55.207 47.6949 55.1751 48.1867C55.1433 48.6785 55.3762 49.1499 55.7862 49.4234L59.3103 51.7724V58.3007L53.6552 55.0345L53.3793 50.8096C53.3306 50.0479 52.6735 49.4698 51.9117 49.5186C51.15 49.5673 50.5719 50.2244 50.6207 50.9862L50.7862 53.3793L49.4345 52.6C49.0075 52.3496 48.4791 52.3473 48.0499 52.5938C47.6207 52.8404 47.3565 53.298 47.3576 53.7929C47.3587 54.2879 47.6249 54.7443 48.0552 54.9889L49.4055 55.7696L47.2593 56.8317C46.5749 57.1692 46.2936 57.9976 46.631 58.682C46.9685 59.3665 47.7969 59.6478 48.4814 59.3103L52.2759 57.4262L57.931 60.6896L52.2759 63.9531L48.48 62.0758C47.798 61.7441 46.9761 62.0252 46.6401 62.7051C46.3041 63.3851 46.5801 64.2087 47.2579 64.5489L49.4041 65.611L48.0538 66.3917C47.6235 66.6363 47.3573 67.0928 47.3562 67.5877C47.3551 68.0827 47.6193 68.5403 48.0485 68.7868C48.4777 69.0333 49.0061 69.031 49.4331 68.7807L50.7848 68.0014L50.6303 70.3917C50.6069 70.7568 50.7295 71.1162 50.9711 71.3909C51.2127 71.6657 51.5535 71.8331 51.9186 71.8565H52.0083C52.7369 71.858 53.341 71.2926 53.3876 70.5655L53.6634 66.3407L59.3103 63.0786V69.6069L55.7862 71.9517C55.1524 72.3745 54.9814 73.231 55.4041 73.8648C55.8269 74.4986 56.6834 74.6697 57.3172 74.2469L59.3103 72.9214V74.4827C59.3103 75.2445 59.9279 75.862 60.6897 75.862C61.4514 75.862 62.069 75.2445 62.069 74.4827V72.9214L64.0621 74.251C64.6959 74.6738 65.5524 74.5027 65.9752 73.8689C66.398 73.2351 66.2269 72.3786 65.5931 71.9558L62.069 69.6069V63.0786L67.7241 66.3448L68 70.5696C68.0466 71.2967 68.6507 71.8622 69.3793 71.8607H69.469C69.8341 71.8373 70.1749 71.6698 70.4165 71.3951C70.6581 71.1204 70.7807 70.7609 70.7572 70.3958L70.5931 68L71.9448 68.7793C72.3718 69.0296 72.9002 69.032 73.3294 68.7854C73.7586 68.5389 74.0228 68.0813 74.0217 67.5863C74.0206 67.0914 73.7544 66.635 73.3241 66.3903L71.9738 65.6096L74.12 64.5476C74.7978 64.2073 75.0738 63.3837 74.7378 62.7038C74.4019 62.0238 73.5799 61.7427 72.8979 62.0745V62.0758Z" fill="white"/>
<path d="M75.1586 41.2413C78.1148 44.2119 79.2795 48.5244 78.2206 52.5793C74.9384 45.4974 67.7155 41.0879 59.9165 41.4048C52.1174 41.7217 45.276 46.7027 42.5793 54.0275H42.5655C42.1273 53.5838 41.7216 53.109 41.3517 52.6069C39.7104 50.4772 38.8009 47.8745 38.7586 45.1862C38.7122 42.7475 39.6463 40.3922 41.3517 38.6482C39.6118 40.3496 37.2605 41.2792 34.8275 41.2275C32.1355 41.195 29.5268 40.2899 27.3931 38.6482C25.361 37.1373 23.7858 35.0943 22.8413 32.7448V32.731C21.4967 29.662 21.7176 26.1325 23.4344 23.2551C22.8303 22.8456 22.2668 22.3791 21.7517 21.862C17.162 17.1472 17.211 9.61984 21.8619 4.96523C26.5127 0.310631 34.04 0.255437 38.7586 4.84134C39.098 5.18457 39.4158 5.54848 39.7103 5.93099C39.9012 4.45561 40.5641 3.08151 41.5999 2.01375C44.731 -1.11728 50.3999 -0.524181 54.2758 3.33789C55.7674 4.82739 56.8218 6.69757 57.3241 8.74479C60.4965 5.87582 65.9586 6.5103 69.7241 10.2758C73.4896 14.0413 74.1241 19.5034 71.2551 22.6758C73.3023 23.1782 75.1725 24.2325 76.662 25.7241C80.5241 29.6 81.1172 35.2689 77.9862 38.4C76.9184 39.4359 75.5443 40.0987 74.0689 40.2896C74.4514 40.5841 74.8153 40.9019 75.1586 41.2413Z" fill="#4FBA6F"/>
<path d="M38.7723 45.1724L38.7585 45.1862L38.7723 45.1724Z" fill="#4FBA6F"/>
<path d="M40.7655 19.2992C40.2617 19.2986 39.7984 19.0234 39.5569 18.5813C39.3153 18.1393 39.3339 17.6008 39.6055 17.1765C40.4427 15.8531 40.739 14.2585 40.433 12.7227C40.3345 12.2395 40.5012 11.7405 40.8703 11.4135C41.2395 11.0866 41.755 10.9814 42.2228 11.1377C42.6905 11.2939 43.0393 11.6878 43.1379 12.171C43.5809 14.4079 43.1452 16.7296 41.9213 18.6537C41.6723 19.053 41.236 19.2967 40.7655 19.2992Z" fill="#4C8056"/>
<path d="M45.7215 30.742H45.6774C44.916 30.718 44.3182 30.0813 44.3422 29.3199C44.3963 26.9664 43.3333 24.7263 41.476 23.2799C40.8797 22.8138 40.7704 21.9544 41.2309 21.3538C41.6914 20.7533 42.5498 20.636 43.1546 21.0909C45.7121 23.0817 47.175 26.1667 47.0981 29.4068C47.0743 30.1502 46.4653 30.7408 45.7215 30.742Z" fill="#4C8056"/>
<path d="M51.2358 22.1517C50.6193 22.1533 50.0766 21.7456 49.9065 21.1531C49.7363 20.5606 49.98 19.9271 50.5034 19.6013C52.2261 18.513 53.3905 16.7294 53.6937 14.7144C53.7482 14.2128 54.0723 13.781 54.5387 13.5884C55.0051 13.3959 55.5394 13.4734 55.9319 13.7906C56.3244 14.1077 56.5123 14.6139 56.422 15.1103C56.0004 17.9275 54.3729 20.4215 51.9641 21.942C51.7459 22.0791 51.4935 22.1517 51.2358 22.1517Z" fill="#4C8056"/>
<path d="M30.3283 19.5365C29.6967 19.5365 29.1457 19.1075 28.991 18.4951C28.8363 17.8827 29.1173 17.2434 29.6732 16.9434C31.575 15.9267 33.785 15.6472 35.8801 16.1586C36.6194 16.3433 37.0689 17.0924 36.8842 17.8317C36.6995 18.571 35.9504 19.0205 35.2111 18.8358C33.7816 18.4865 32.2734 18.6766 30.9752 19.3696C30.7768 19.478 30.5545 19.5353 30.3283 19.5365Z" fill="#4C8056"/>
<path d="M59.2263 30.1448C58.7258 30.1435 58.2653 29.8712 58.023 29.4333C57.7807 28.9954 57.7946 28.4605 58.0594 28.0358C59.5806 25.6281 62.0734 24.0006 64.8897 23.5765C65.6439 23.4672 66.3439 23.99 66.4532 24.7441C66.5625 25.4983 66.0397 26.1982 65.2856 26.3076C63.2705 26.6104 61.4865 27.7743 60.3973 29.4965C60.145 29.9002 59.7023 30.1453 59.2263 30.1448Z" fill="#4C8056"/>
<path d="M11.615 61.8855C11.0572 61.8854 10.5544 61.5493 10.341 61.034C10.1275 60.5186 10.2455 59.9255 10.6398 59.531L19.5047 50.6662C20.0459 50.1435 20.9062 50.1509 21.4382 50.683C21.9703 51.215 21.9777 52.0753 21.455 52.6165L12.5902 61.4814C12.3316 61.74 11.9808 61.8854 11.615 61.8855Z" fill="white"/>
<path d="M6.69107 66.8096C6.13328 66.8095 5.63047 66.4735 5.41703 65.9581C5.20359 65.4428 5.32154 64.8496 5.7159 64.4551L6.69934 63.4703C7.24055 62.9476 8.10084 62.9551 8.63288 63.4871C9.16493 64.0192 9.17241 64.8795 8.64969 65.4207L7.66624 66.4055C7.40763 66.6642 7.05685 66.8095 6.69107 66.8096Z" fill="white"/>
</g>
<defs>
<clipPath id="clip0">
<rect width="80" height="80" fill="white"/>
</clipPath>
</defs>
</svg>
