<svg width="80" height="80" viewBox="0 0 80 80" fill="none" xmlns="http://www.w3.org/2000/svg">
<path d="M35.2484 73.7937H19.6312C16.5875 66.214 16.3875 60.3344 16.3796 55.825H30.4468C30.4596 61.9581 31.277 66.9323 35.2484 73.7937Z" fill="#FFE5D3"/>
<path d="M35.2483 73.7937H23.553V55.825H30.4467C30.4467 62.4934 31.5361 67.3809 35.2483 73.7937Z" fill="#FFCEAB"/>
<path d="M23.5534 40.1998C15.7964 40.1998 9.4856 46.5083 9.4856 54.2623C9.4856 55.5567 10.535 56.6061 11.8293 56.6061H35.2775C36.5718 56.6061 37.6212 55.5567 37.6212 54.2623C37.6212 46.5083 31.3104 40.1998 23.5534 40.1998Z" fill="#E9A270"/>
<path d="M37.6217 54.2625C37.6217 55.5563 36.5717 56.6063 35.278 56.6063H23.553V40.2C31.3108 40.2 37.6217 46.5078 37.6217 54.2625Z" fill="#D38853"/>
<path d="M56.208 73.7937H41.3783C47.6517 56.9969 45.5408 47.25 42.6986 31.2656C47.1908 30.4406 52.0502 29.5484 56.5346 28.725C59.3517 44.5265 61.7658 55.614 56.208 73.7937Z" fill="#FFE5D3"/>
<path d="M56.208 73.7937H49.0736V30.0953C51.5924 29.6328 54.1174 29.1687 56.5345 28.725C59.325 44.6058 61.7919 55.5289 56.208 73.7937Z" fill="#FFCEAB"/>
<path d="M73.0904 26.4781L26.2513 35.0812C24.9716 35.3156 23.756 34.4672 23.5232 33.2C22.6873 28.6547 23.0779 24.1625 24.4669 20.0703C24.4669 20.0703 29.9651 10.2204 33.2326 7.77499C36.5 5.32955 37.5 3.49999 45.5 2.49999C53.5 1.49998 63.3044 6.39374 63.3044 6.39374C69.2326 10.1641 73.6357 16.2875 75.0107 23.6937C75.2794 25.0016 74.4013 26.2656 73.0904 26.4781Z" fill="#E9A270"/>
<path d="M73.0908 26.4781C70.7803 26.9025 50.9967 30.5359 49.0736 30.8891V2.5C49.0736 2.5 57.3767 2.62344 63.3049 6.39375C69.233 10.1641 73.6361 16.2875 75.0111 23.6937C75.2799 25.0016 74.4017 26.2656 73.0908 26.4781Z" fill="#D38853"/>
<path d="M77.6562 73.0123H2.34375C1.04937 73.0123 0 74.0617 0 75.3561C0 76.6505 1.04937 77.6998 2.34375 77.6998H77.6562C78.9506 77.6998 80 76.6505 80 75.3561C80 74.0617 78.9506 73.0123 77.6562 73.0123Z" fill="#E7985B"/>
<path d="M80 75.3562C80 76.65 78.95 77.7 77.6562 77.7H40V73.0125H77.6562C78.95 73.0125 80 74.0609 80 75.3562Z" fill="#D38853"/>
</svg>
