<svg width="80" height="80" viewBox="0 0 80 80" fill="none" xmlns="http://www.w3.org/2000/svg">
<g clip-path="url(#clip0)">
<path d="M28.874 62.8182L28.9982 62.7939C32.0427 62.1913 34.0228 59.2345 33.4201 56.1894L30.2285 40.0702L24.5918 41.1865L28.874 62.8182Z" fill="#FCDA4F"/>
<path d="M15.0645 25.2016C13.2511 16.0439 15.892 7.49906 21.1109 4.00714C19.8455 3.75203 18.5612 3.73516 17.287 3.98825C9.81317 5.46762 5.52622 15.6174 7.71221 26.6573C9.89753 37.698 17.7283 45.4485 25.2022 43.9691C26.4764 43.7167 27.6574 43.2119 28.7305 42.4938C22.5748 41.254 16.8773 34.3599 15.0645 25.2016Z" fill="#CCC033"/>
<path d="M31.2254 7.89116C24.7707 7.75618 19.3749 15.4122 19.1738 24.9924C18.9726 34.5725 24.0418 42.4485 30.4965 42.5842C36.9512 42.7199 42.347 35.0638 42.5481 25.4837C42.7492 15.9035 37.6801 8.02682 31.2254 7.89116Z" fill="#CCC033"/>
<path d="M36.9825 20.8627C35.9343 15.5674 33.5871 11.0308 30.6047 7.90466C24.2883 8.26506 19.1969 16.0304 19.1686 25.4574C19.1409 34.6798 23.9691 42.1293 30.0911 42.5653C35.8648 39.4621 38.8911 30.5022 36.9825 20.8627Z" fill="#99AF17"/>
<path d="M28.8742 62.8183L28.75 62.8433C25.7056 63.4453 22.7489 61.4665 22.1462 58.4213L18.9546 42.3021L24.5913 41.1859L28.8742 62.8183Z" fill="#FCDA4F"/>
<path d="M23.4797 24.1419C19.6436 15.3615 11.7372 10.3383 5.82105 12.9231C-0.0957625 15.508 -1.78098 24.7223 2.05513 33.5034C5.89192 42.2845 13.7983 47.3071 19.7145 44.7222C25.6306 42.1374 27.3165 32.923 23.4797 24.1419Z" fill="#99AF17"/>
<path d="M34.7783 21.3007C32.5929 10.2601 24.7621 2.50888 17.2876 3.98826C9.81316 5.4683 5.52622 15.6181 7.71221 26.6587C9.89752 37.6993 17.7283 45.4505 25.2028 43.9704C32.6766 42.4911 36.9642 32.3413 34.7783 21.3007Z" fill="#EACF32"/>
<path d="M20.3378 25.5728C17.514 25.5728 15.2396 24.0596 15.1283 23.984C14.6545 23.6628 14.5303 23.0189 14.8509 22.5445C15.1715 22.0707 15.8146 21.9459 16.2884 22.2651C16.3249 22.2894 18.8308 23.9321 21.4365 23.3881C22.9105 23.0804 24.1773 22.1132 25.2024 20.5137C25.5109 20.0312 26.1514 19.8901 26.6346 20.1999C27.1165 20.509 27.2568 21.1502 26.9477 21.632C25.606 23.7256 23.8884 25.0004 21.8401 25.4222C21.3292 25.5275 20.8257 25.5728 20.3378 25.5728Z" fill="#FFEEA4"/>
<path d="M22.0396 34.8674C17.7837 34.8674 14.202 31.8797 14.0319 31.7359C13.5953 31.3661 13.5413 30.7121 13.9111 30.2754C14.281 29.8388 14.9336 29.7841 15.3709 30.1533C15.4107 30.1864 19.3845 33.4866 23.3664 32.6605C25.6334 32.1908 27.5352 30.4428 29.02 27.4645C29.2751 26.9523 29.8981 26.7437 30.4096 26.9988C30.9219 27.2546 31.1304 27.8769 30.8753 28.3891C29.0902 31.9701 26.7011 34.0913 23.774 34.6933C23.1889 34.8141 22.6078 34.8674 22.0396 34.8674Z" fill="#FFEEA4"/>
<path d="M21.4834 17.7304C21.3268 17.0481 20.6033 16.6229 19.8522 16.7721C19.103 16.9206 18.5968 17.5853 18.7089 18.2751L25.6002 60.7045C25.6185 60.8158 25.6522 60.9204 25.6981 61.019C26.0949 62.304 27.4569 63.099 28.8667 62.8203C28.8769 62.8183 28.8863 62.8149 28.8958 62.8129C28.9072 62.8108 28.9187 62.8095 28.9302 62.8075C30.3225 62.5321 31.2613 61.2788 31.1243 59.9439C31.1297 59.8379 31.1216 59.7299 31.0966 59.6219L21.4834 17.7304Z" fill="#FFF9DC"/>
<path d="M27.3638 60.6889C27.3179 60.5904 27.2834 60.4858 27.2659 60.3744L20.3745 17.9451C20.3091 17.5428 20.4548 17.15 20.7356 16.8625C20.4717 16.7485 20.1646 16.71 19.8522 16.7721C19.103 16.9199 18.5968 17.5853 18.7089 18.2744L25.6002 60.7038C25.6185 60.8151 25.6522 60.9204 25.6981 61.0183C26.0949 62.3033 27.4569 63.099 28.8667 62.8196C28.8769 62.8176 28.8863 62.8149 28.8958 62.8128C28.9072 62.8101 28.9187 62.8095 28.9302 62.8074C29.2076 62.7521 29.4661 62.6576 29.7023 62.5321C28.6177 62.4308 27.681 61.7175 27.3638 60.6889Z" fill="#FFF4C1"/>
<path d="M56.9907 47.0621C56.853 47.0621 56.7126 47.0344 56.5783 46.9757L52.1787 45.0637C51.6536 44.8356 51.4126 44.2255 51.6408 43.6998C51.8689 43.1754 52.4797 42.9338 53.0047 43.1625L57.4044 45.0745C57.9294 45.302 58.1704 45.9127 57.9423 46.4378C57.7722 46.8286 57.3915 47.0621 56.9907 47.0621Z" fill="#FF4B34"/>
<path d="M63.546 43.6931C63.409 43.6931 63.2686 43.6654 63.1336 43.6067L57.4125 41.1224C56.8875 40.8943 56.6465 40.2835 56.8746 39.7584C57.1028 39.2333 57.7122 38.9917 58.2379 39.2205L63.9597 41.7048C64.4848 41.9329 64.7257 42.5437 64.4976 43.0688C64.3282 43.4595 63.9469 43.6931 63.546 43.6931Z" fill="#FF4B34"/>
<path d="M49.9732 56.8616C48.3244 55.9492 47.553 54.0143 48.1436 52.2744L56.8923 26.5035C58.6031 21.4633 64.5469 19.2665 69.3218 21.9101C74.0967 24.5537 75.3905 30.7566 72.0275 34.8823L54.8318 55.9769C53.671 57.4016 51.622 57.7748 49.9732 56.8616Z" fill="#FF624B"/>
<path d="M76.228 15.3812H76.2267C76.4932 15.1213 76.7274 14.8197 76.9171 14.4775C77.9827 12.5527 77.2451 10.1048 75.269 9.01083C73.2936 7.9175 70.8275 8.59172 69.7618 10.5165C69.5728 10.8587 69.4412 11.2171 69.3623 11.5808H69.3616L69.3596 11.5923C69.338 11.6949 69.3204 11.7982 69.3069 11.9021L68.086 19.0533C67.9855 19.6418 68.2777 20.2364 68.8122 20.532C69.3387 20.8235 69.9872 20.7621 70.4327 20.3774L75.871 15.6883C75.9918 15.5965 76.1065 15.4966 76.2165 15.3906L76.228 15.3812Z" fill="#EACF32"/>
<path d="M61.2865 36.2476C61.1495 36.2476 61.0084 36.2199 60.8748 36.1612L56.4751 34.2492C55.9494 34.0211 55.7091 33.4103 55.9372 32.8852C56.1647 32.3609 56.7768 32.1192 57.3005 32.348L61.7002 34.2593C62.2253 34.4875 62.4662 35.0989 62.2381 35.6233C62.0687 36.0141 61.6874 36.2476 61.2865 36.2476Z" fill="#FF4B34"/>
<path d="M69.9357 33.928C69.798 33.928 69.6577 33.9003 69.5234 33.8423L61.6318 30.4152C61.1067 30.1871 60.8658 29.5763 61.0939 29.0512C61.322 28.5261 61.9314 28.2852 62.4572 28.5133L70.3494 31.9404C70.8745 32.1686 71.1154 32.7793 70.8873 33.3044C70.7173 33.6952 70.3359 33.928 69.9357 33.928Z" fill="#FF4B34"/>
<path d="M69.9636 20.6434C69.9663 20.6184 69.969 20.5927 69.9731 20.5671L71.1933 13.4159C71.2068 13.312 71.2243 13.2087 71.2466 13.1061L71.2486 13.0946H71.2493C71.3282 12.7309 71.4592 12.3725 71.6481 12.0303C72.6321 10.2527 74.8094 9.54334 76.693 10.3053C76.3387 9.78698 75.8595 9.33817 75.269 9.01152C73.2929 7.91752 70.8275 8.59174 69.7611 10.5172C69.5722 10.8587 69.4412 11.2171 69.3623 11.5815L69.3616 11.5809L69.3596 11.593C69.3373 11.6956 69.3198 11.7988 69.3063 11.9021L68.086 19.054C67.9855 19.6425 68.2777 20.2364 68.8116 20.5327C69.174 20.7324 69.5924 20.7655 69.9636 20.6434Z" fill="#CCC033"/>
<path d="M69.395 19.3759L68.1687 13.5954C68.1505 13.4726 68.1242 13.3497 68.0911 13.2282L68.0884 13.2174H68.0877C68.0061 12.9212 67.8819 12.6303 67.7111 12.3536C66.7494 10.7946 64.7051 10.2722 63.1448 11.1867C61.5844 12.1018 61.0999 14.1076 62.0616 15.6666C62.2323 15.9434 62.4375 16.1863 62.6676 16.3955L62.667 16.3962L62.6751 16.4023C62.7399 16.461 62.8067 16.517 62.8762 16.5703L67.5242 20.4517C67.9069 20.7709 68.4474 20.8195 68.8693 20.5718C69.2857 20.3282 69.4956 19.8497 69.395 19.3759Z" fill="#FCE575"/>
<path d="M65.2066 15.4986C65.1384 15.446 65.0709 15.39 65.0055 15.3313L64.9981 15.3245L64.9987 15.3238C64.7686 15.1153 64.5634 14.8717 64.3927 14.5949C63.6118 13.3295 63.7846 11.7698 64.7112 10.7379C64.1733 10.7541 63.6348 10.8992 63.1448 11.1867C61.5844 12.1012 61.0999 14.1077 62.0616 15.6667C62.2323 15.9434 62.4375 16.1864 62.6676 16.3956L62.667 16.3962L62.6751 16.4023C62.7399 16.461 62.8067 16.5171 62.8762 16.5704L67.5242 20.4517C67.9069 20.7709 68.4474 20.8195 68.8693 20.5718C69.2857 20.3282 69.4956 19.8497 69.395 19.3759L69.2971 18.9143L65.2066 15.4986Z" fill="#EACF32"/>
<path d="M79.9986 20.5171C79.9452 18.7091 78.4173 17.254 76.5856 17.2661C76.2603 17.2682 75.9478 17.3181 75.6536 17.4058V17.4052L75.6428 17.4092C75.522 17.4457 75.4039 17.4888 75.2898 17.5381L69.7401 19.5669C69.2859 19.7329 68.9917 20.1655 69.0059 20.6474C69.02 21.1367 69.348 21.5693 69.8218 21.7238L75.5787 23.6021C75.6597 23.6324 75.7427 23.6594 75.827 23.6837L75.8372 23.6864V23.6857C76.1368 23.7701 76.4513 23.8146 76.7766 23.8126C78.609 23.8005 80.0512 22.3245 79.9986 20.5171Z" fill="#FCE575"/>
<path d="M79.1077 22.7409C78.7824 22.7436 78.4673 22.6983 78.1683 22.6146V22.6153L78.1581 22.6119C78.0738 22.5883 77.9908 22.5607 77.9098 22.531L72.1529 20.6521C71.6791 20.4975 71.3511 20.0649 71.337 19.5763C71.3295 19.3326 71.4011 19.1025 71.532 18.9122L69.7401 19.5675C69.2859 19.7335 68.9917 20.1655 69.0059 20.648C69.02 21.1366 69.348 21.5692 69.8218 21.7238L75.5787 23.6027C75.6597 23.6324 75.7427 23.6601 75.8271 23.6837L75.8372 23.6871V23.6864C76.1368 23.7707 76.4513 23.8153 76.7766 23.8133C77.7424 23.8065 78.5995 23.3928 79.1867 22.7388C79.1604 22.7395 79.1347 22.7409 79.1077 22.7409Z" fill="#EACF32"/>
<path d="M52.7136 53.4433L61.4623 27.6724C62.6568 24.1528 65.9159 22.0201 69.3991 21.954C69.3734 21.9391 69.3478 21.9243 69.3221 21.9101C64.5472 19.2665 58.6034 21.4633 56.8925 26.5035L48.1439 52.2744C47.5526 54.0142 48.3247 55.9492 49.9728 56.8616C51.0587 57.4623 52.3174 57.5055 53.3824 57.0587C52.5712 56.0578 52.287 54.6999 52.7136 53.4433Z" fill="#FF4B34"/>
<path d="M40.9884 31.2203C40.4714 31.2203 40.0435 30.8019 40.0125 30.2646L39.5785 22.9056C39.5441 22.3198 39.9916 21.8251 40.5551 21.8251H41.4217C41.9859 21.8251 42.4327 22.3198 42.3983 22.9056L41.965 30.2646C41.9339 30.8019 41.506 31.2203 40.9884 31.2203Z" fill="#BF6C0D"/>
<path d="M42.0646 27.7918C47.9726 31.0643 49.5849 24.2533 49.9474 22.0248C50.0081 21.6482 49.7564 21.2945 49.3919 21.2432C47.1897 20.9375 40.1958 20.4651 41.5706 27.1121C41.6306 27.403 41.8115 27.6521 42.0646 27.7918Z" fill="#EACF32"/>
<path d="M40.9256 30.2646L40.4923 22.9056C40.4586 22.3279 40.8925 21.8399 41.4453 21.8264C41.4372 21.8257 41.4298 21.8251 41.4217 21.8251H40.5551C39.9916 21.8251 39.5441 22.3198 39.5785 22.9056L40.0125 30.2646C40.0442 30.8019 40.4714 31.2203 40.9884 31.2203C41.1531 31.2203 41.309 31.1778 41.4453 31.1029C41.1531 30.9416 40.9465 30.6304 40.9256 30.2646Z" fill="#8C4C17"/>
<path d="M49.7108 28.1062C46.6346 27.4448 43.522 28.4093 40.9655 30.5062C38.4083 28.4093 35.2957 27.4448 32.2195 28.1062C26.0118 29.4419 22.3046 36.8914 23.9392 44.7458C25.5738 52.6003 31.9307 57.8854 38.1384 56.5504C39.1514 56.3324 40.0976 55.9511 40.9648 55.4321C41.8321 55.9511 42.7783 56.3324 43.7913 56.5504C49.999 57.8854 56.3565 52.6003 57.9904 44.7458C59.6257 36.8914 55.9185 29.4419 49.7108 28.1062Z" fill="#FF624B"/>
<path d="M43.3483 28.0017C42.1739 22.319 47.1135 21.8398 49.9481 22.0113C50.0014 21.6401 49.7517 21.2932 49.3913 21.2432C47.1891 20.9368 40.1958 20.4644 41.5699 27.1121C41.63 27.4023 41.8122 27.6521 42.0646 27.7918C42.5964 28.0867 43.0938 28.2986 43.5582 28.4403C43.4563 28.3155 43.3827 28.1657 43.3483 28.0017Z" fill="#CCC033"/>
<path d="M29.2763 44.7459C27.7051 37.1958 31.0702 30.0203 36.8473 28.2899C35.3463 27.8539 33.7785 27.7716 32.2195 28.1063C26.0118 29.4419 22.3046 36.8914 23.9392 44.7459C25.5738 52.6003 31.9307 57.8854 38.1384 56.5505C38.3786 56.4992 38.6148 56.4371 38.847 56.3676C34.3731 55.0684 30.5006 50.6276 29.2763 44.7459Z" fill="#FF4B34"/>
<path d="M6.39404 74.2449V34.7439C6.39404 33.8193 7.14318 33.0702 8.06779 33.0702H15.9796C16.9042 33.0702 17.6533 33.8193 17.6533 34.7439V74.2449C17.6533 75.1689 16.9042 75.918 15.9796 75.918H8.06779C7.14318 75.918 6.39404 75.1689 6.39404 74.2449Z" fill="#DB9C2E"/>
<path d="M62.5161 74.2449V34.7439C62.5161 33.8193 63.2652 33.0702 64.1899 33.0702H72.1017C73.0263 33.0702 73.7754 33.8193 73.7754 34.7439V74.2449C73.7754 75.1689 73.0263 75.918 72.1017 75.918H64.1899C63.2659 75.918 62.5161 75.1689 62.5161 74.2449Z" fill="#DB9C2E"/>
<path d="M77.2313 48.0832H2.93867C1.98437 48.0832 1.21094 47.3098 1.21094 46.3554V38.5806C1.21094 37.6263 1.98437 36.8529 2.93867 36.8529H77.2313C78.1856 36.8529 78.959 37.6263 78.959 38.5806V46.3554C78.959 47.3098 78.1856 48.0832 77.2313 48.0832Z" fill="#FFC34C"/>
<path d="M77.2313 62.0779H2.93867C1.98437 62.0779 1.21094 61.3045 1.21094 60.3502V52.5754C1.21094 51.6211 1.98437 50.8477 2.93867 50.8477H77.2313C78.1856 50.8477 78.959 51.6211 78.959 52.5754V60.3502C78.959 61.3045 78.1856 62.0779 77.2313 62.0779Z" fill="#FFC34C"/>
<path d="M77.2313 76.0725H2.93867C1.98437 76.0725 1.21094 75.2991 1.21094 74.3448V66.57C1.21094 65.6157 1.98437 64.8422 2.93867 64.8422H77.2313C78.1856 64.8422 78.959 65.6157 78.959 66.57V74.3448C78.959 75.2991 78.1856 76.0725 77.2313 76.0725Z" fill="#FFC34C"/>
<path d="M75.8486 73.9986C75.2763 73.9986 74.812 73.535 74.812 72.962V67.9516C74.812 67.3792 75.2763 66.9149 75.8486 66.9149C76.421 66.9149 76.8853 67.3792 76.8853 67.9516V72.962C76.8853 73.535 76.421 73.9986 75.8486 73.9986Z" fill="#FFD551"/>
<path d="M69.8017 70.0255C69.8017 70.9798 69.0282 71.7532 68.0739 71.7532C67.1196 71.7532 66.3462 70.9798 66.3462 70.0255C66.3462 69.0712 67.1196 68.2977 68.0739 68.2977C69.0282 68.2977 69.8017 69.0712 69.8017 70.0255Z" fill="#FFDF74"/>
<path d="M69.8017 56.0308C69.8017 56.9851 69.0282 57.7586 68.0739 57.7586C67.1196 57.7586 66.3462 56.9851 66.3462 56.0308C66.3462 55.0765 67.1196 54.3031 68.0739 54.3031C69.0282 54.3031 69.8017 55.0765 69.8017 56.0308Z" fill="#FFDF74"/>
<path d="M69.8017 42.0362C69.8017 42.9905 69.0282 43.7639 68.0739 43.7639C67.1196 43.7639 66.3462 42.9905 66.3462 42.0362C66.3462 41.0819 67.1196 40.3085 68.0739 40.3085C69.0282 40.3085 69.8017 41.0819 69.8017 42.0362Z" fill="#FFDF74"/>
<path d="M11.5773 60.3502V52.5754C11.5773 51.6211 12.3508 50.8477 13.3051 50.8477H2.93867C1.98437 50.8477 1.21094 51.6211 1.21094 52.5754V60.3502C1.21094 61.3045 1.98437 62.0779 2.93867 62.0779H13.3051C12.3508 62.0779 11.5773 61.3045 11.5773 60.3502Z" fill="#F9BB32"/>
<path d="M11.5773 74.3448V66.57C11.5773 65.6157 12.3508 64.8422 13.3051 64.8422H2.93867C1.98437 64.8422 1.21094 65.6157 1.21094 66.57V74.3448C1.21094 75.2991 1.98437 76.0725 2.93867 76.0725H13.3051C12.3508 76.0725 11.5773 75.2991 11.5773 74.3448Z" fill="#F9BB32"/>
<path d="M11.5773 46.3554V38.5806C11.5773 37.6263 12.3508 36.8529 13.3051 36.8529H2.93867C1.98437 36.8529 1.21094 37.6263 1.21094 38.5806V46.3554C1.21094 47.3098 1.98437 48.0832 2.93867 48.0832H13.3051C12.3508 48.0832 11.5773 47.3098 11.5773 46.3554Z" fill="#F9BB32"/>
<path d="M13.8231 42.0362C13.8231 42.9905 13.0497 43.7639 12.0954 43.7639C11.1411 43.7639 10.3677 42.9905 10.3677 42.0362C10.3677 41.0819 11.1411 40.3085 12.0954 40.3085C13.0497 40.3085 13.8231 41.0819 13.8231 42.0362Z" fill="#FFDF74"/>
<path d="M13.8231 56.0308C13.8231 56.9851 13.0497 57.7586 12.0954 57.7586C11.1411 57.7586 10.3677 56.9851 10.3677 56.0308C10.3677 55.0765 11.1411 54.3031 12.0954 54.3031C13.0497 54.3031 13.8231 55.0765 13.8231 56.0308Z" fill="#FFDF74"/>
<path d="M13.8231 70.0255C13.8231 70.9798 13.0497 71.7532 12.0954 71.7532C11.1411 71.7532 10.3677 70.9798 10.3677 70.0255C10.3677 69.0712 11.1411 68.2977 12.0954 68.2977C13.0497 68.2977 13.8231 69.0712 13.8231 70.0255Z" fill="#FFDF74"/>
<path d="M11.5771 57.6789V54.382C10.8765 54.6021 10.3677 55.2574 10.3677 56.0308C10.3677 56.8043 10.8759 57.4589 11.5771 57.6789Z" fill="#FFD551"/>
<path d="M11.5771 43.6843V40.3875C10.8765 40.6075 10.3677 41.2628 10.3677 42.0362C10.3677 42.8097 10.8759 43.4643 11.5771 43.6843Z" fill="#FFD551"/>
<path d="M25.7385 42.0362C25.7385 43.7059 24.3846 45.0597 22.7149 45.0597C21.0452 45.0597 19.6914 43.7059 19.6914 42.0362C19.6914 40.3665 21.0452 39.0126 22.7149 39.0126C24.3846 39.0126 25.7385 40.3665 25.7385 42.0362Z" fill="#F9BB32"/>
<path d="M36.1052 56.0309C36.1052 57.7005 34.7513 59.0544 33.0816 59.0544C31.4119 59.0544 30.0581 57.7005 30.0581 56.0309C30.0581 54.3612 31.4119 53.0073 33.0816 53.0073C34.7513 53.0073 36.1052 54.3612 36.1052 56.0309Z" fill="#F9BB32"/>
<path d="M75.8486 60.0039C75.2763 60.0039 74.812 59.5402 74.812 58.9672V53.9568C74.812 53.3845 75.2763 52.9202 75.8486 52.9202C76.421 52.9202 76.8853 53.3845 76.8853 53.9568V58.9672C76.8853 59.5402 76.421 60.0039 75.8486 60.0039Z" fill="#FFD551"/>
<path d="M75.8486 45.4909C75.2763 45.4909 74.812 45.0273 74.812 44.4543V39.4439C74.812 38.8716 75.2763 38.4072 75.8486 38.4072C76.421 38.4072 76.8853 38.8716 76.8853 39.4439V44.4543C76.8853 45.0273 76.421 45.4909 75.8486 45.4909Z" fill="#FFD551"/>
</g>
<defs>
<clipPath id="clip0">
<rect width="80" height="80" fill="white"/>
</clipPath>
</defs>
</svg>
