<svg width="80" height="80" viewBox="0 0 80 80" fill="none" xmlns="http://www.w3.org/2000/svg">
<g clip-path="url(#clip0)">
<path d="M35.0075 11.2319C40.8308 17.0552 50.4015 36.0592 44.5835 41.8759C38.7656 47.6925 19.7575 38.1178 13.9396 32.2998C8.18835 26.4706 8.21943 17.0929 14.0097 11.302C19.7999 5.51179 29.1782 5.48071 35.0075 11.2319Z" fill="#FF624B"/>
<path d="M13.6386 13.6397C13.2795 13.641 12.9343 13.4982 12.6811 13.2429L9.73965 10.3015C7.54551 8.09611 4.56046 6.8595 1.44977 6.8681C0.701858 6.8681 0.095459 6.26236 0.095459 5.51379C0.095459 4.76587 0.701858 4.15947 1.44977 4.15947C5.27928 4.14955 8.95404 5.67117 11.6547 8.38641L14.5961 11.3278C14.9836 11.7153 15.0994 12.2979 14.8897 12.8038C14.6801 13.3097 14.1861 13.6397 13.6386 13.6397Z" fill="#24420E"/>
<path d="M28.536 16.3483C28.177 16.3496 27.8318 16.2068 27.5785 15.9515L24.8699 13.2429C24.3567 12.7119 24.364 11.8668 24.8864 11.3444C25.4088 10.8219 26.2539 10.8147 26.785 11.3278L29.4936 14.0364C29.8811 14.424 29.9968 15.0066 29.7872 15.5124C29.5776 16.0183 29.0836 16.3483 28.536 16.3483Z" fill="#ED462D"/>
<path d="M23.1188 21.7656C22.7597 21.7669 22.4146 21.6241 22.1613 21.3688L19.4526 18.6602C19.1008 18.3203 18.9593 17.817 19.0836 17.3436C19.2073 16.8701 19.577 16.4998 20.0505 16.3761C20.5239 16.2524 21.0278 16.3933 21.3677 16.7451L24.0764 19.4537C24.4639 19.8412 24.5796 20.4238 24.37 20.9297C24.1603 21.4356 23.6664 21.7656 23.1188 21.7656Z" fill="#ED462D"/>
<path d="M17.7012 27.1828C17.3421 27.1841 16.9969 27.0413 16.7437 26.786L14.035 24.0774C13.6832 23.7375 13.5417 23.2343 13.666 22.7608C13.7897 22.2873 14.1594 21.917 14.6328 21.7933C15.1063 21.6697 15.6102 21.8105 15.9501 22.1623L18.6588 24.871C19.0463 25.2585 19.162 25.8411 18.9524 26.347C18.7427 26.8528 18.2488 27.1828 17.7012 27.1828Z" fill="#ED462D"/>
<path d="M27.1814 31.2457C26.8224 31.2471 26.4772 31.1042 26.2239 30.849L23.5153 28.1403C23.1635 27.8004 23.022 27.2972 23.1463 26.8237C23.2699 26.3502 23.6396 25.9799 24.1131 25.8563C24.5865 25.7326 25.0904 25.8735 25.4303 26.2253L28.139 28.9339C28.5265 29.3214 28.6422 29.904 28.4326 30.4099C28.223 30.9158 27.729 31.2457 27.1814 31.2457Z" fill="#ED462D"/>
<path d="M32.599 25.8285C32.24 25.8298 31.8948 25.687 31.6415 25.4317L28.9329 22.7231C28.5811 22.3832 28.4396 21.88 28.5639 21.4065C28.6875 20.933 29.0572 20.5627 29.5307 20.439C30.0042 20.3154 30.5081 20.4562 30.848 20.808L33.5566 23.5167C33.9441 23.9042 34.0598 24.4868 33.8502 24.9926C33.6406 25.4985 33.1466 25.8285 32.599 25.8285Z" fill="#ED462D"/>
<path d="M46.7029 11.8218L54.3639 4.16083L62.0249 11.8218C71.5454 21.3417 71.5454 36.7768 62.0249 46.2966L54.3639 53.9583L46.7029 46.2966C37.1824 36.7768 37.1824 21.3417 46.7029 11.8218Z" fill="#5E8D3A"/>
<path d="M54.268 12.1895C53.5201 12.1895 52.9137 12.7959 52.9137 13.5438V17.0459L51.1626 15.2949C50.6316 14.7817 49.7865 14.789 49.2641 15.3114C48.7417 15.8338 48.7344 16.6783 49.2476 17.2099L52.9137 20.8761V24.3783C52.9137 25.1262 53.5201 25.7326 54.268 25.7326C55.016 25.7326 55.6224 25.1262 55.6224 24.3783V13.5438C55.6224 12.7959 55.016 12.1895 54.268 12.1895Z" fill="#507831"/>
<path d="M69.1652 19.0569H79.9997V29.8915C79.9997 43.3552 69.0859 54.2691 55.6221 54.2691H44.7876V43.4346C44.7876 29.9715 55.7021 19.0569 69.1652 19.0569Z" fill="#6CA044"/>
<path d="M70.1243 30.7518L75.5416 25.3345C76.0547 24.8028 76.0474 23.9584 75.525 23.436C75.0026 22.9136 74.1582 22.9063 73.6265 23.4194L70.5198 26.5262V24.3783C70.5198 23.6304 69.9134 23.024 69.1655 23.024C68.4175 23.024 67.8111 23.6304 67.8111 24.3783V29.2348L65.4993 31.5466C65.1124 31.9342 64.9967 32.5167 65.2063 33.0226C65.4153 33.5285 65.9093 33.8585 66.4568 33.8585H73.2284C73.9763 33.8585 74.5827 33.2521 74.5827 32.5042C74.5827 31.7563 73.9763 31.1499 73.2284 31.1499H69.7262L70.1243 30.7518Z" fill="#5E8D3A"/>
<path d="M69.1655 42.0803C69.1655 51.8038 61.283 59.6863 51.5594 59.6863C41.8359 59.6863 33.9534 51.8038 33.9534 42.0803C33.9534 32.3567 41.8359 24.4742 51.5594 24.4742C61.283 24.4742 69.1655 32.3567 69.1655 42.0803Z" fill="#456EA2"/>
<path d="M47.5531 70.2894C49.4444 68.3981 49.9027 65.5043 48.6899 63.1211C50.4701 61.9896 51.548 60.0263 51.548 57.9168C51.548 55.8072 50.4701 53.8439 48.6899 52.7118C49.7777 50.5831 49.5383 48.0173 48.0749 46.1267C46.6121 44.2361 44.1879 43.3605 41.8542 43.8803C41.2775 41.7972 39.6495 40.1698 37.5664 39.5925C38.0855 37.2602 37.2106 34.8385 35.3213 33.3758C33.4327 31.913 30.8689 31.673 28.7402 32.7588C27.6094 30.9773 25.6461 29.8981 23.5359 29.8981C21.4257 29.8981 19.4624 30.9773 18.3316 32.7588C16.0528 31.5956 13.2933 31.9586 11.3934 33.672C9.49284 35.3848 8.84676 38.0921 9.76793 40.4786C8.10745 41.0817 6.78554 42.3693 6.13946 44.0132C5.49272 45.6578 5.58398 47.5002 6.38876 49.0727C4.95973 49.9793 3.96714 51.4342 3.64377 53.096C3.3204 54.7571 3.69601 56.4785 4.68132 57.8539C4.6595 57.8758 4.63503 57.8949 4.61321 57.9168C3.08035 59.4496 2.46403 61.6735 2.98843 63.7771C3.51283 65.8806 5.10124 67.555 7.17437 68.1892C7.21273 71.5392 9.91871 74.2452 13.2688 74.2836C13.903 76.3567 15.5773 77.9451 17.6809 78.4695C19.7838 78.9939 22.0083 78.3769 23.5412 76.8447C23.563 76.8229 23.5822 76.7984 23.6034 76.7766C24.9795 77.7619 26.7008 78.1376 28.362 77.8142C30.0238 77.4908 31.4786 76.4982 32.3852 75.0692C33.9578 75.874 35.8001 75.9652 37.4447 75.3185C39.0887 74.6724 40.3762 73.3505 40.9793 71.69C43.2548 72.5616 45.8305 72.0127 47.5531 70.2894Z" fill="#5C87BD"/>
<path d="M30.5854 68.334C32.1744 69.9125 32.4628 72.3797 31.2804 74.2823C30.098 76.1848 27.7584 77.0187 25.6396 76.2932C26.0721 75.5737 26.3803 74.7862 26.5509 73.9635L23.8951 73.4285C23.7093 74.3583 23.2511 75.212 22.5785 75.8799C20.6707 77.7024 17.6672 77.7024 15.7593 75.8799C13.8767 73.9979 13.8767 70.9447 15.7593 69.0627L13.8449 67.1476C12.4278 68.5562 11.6329 70.4732 11.6382 72.4717C11.6382 72.5146 11.6508 72.557 11.6521 72.5999C10.1113 72.0359 8.96728 70.7225 8.61944 69.1189C8.27161 67.516 8.7689 65.8462 9.93739 64.6949L8.0223 62.7798C5.99083 64.7895 5.27929 67.7798 6.18856 70.4891C7.09783 73.1977 9.4692 75.1538 12.3021 75.5308C13.4984 78.2539 16.1951 80.009 19.1696 79.9997C20.8308 79.9944 22.4416 79.4337 23.747 78.4074C27.0389 80.1174 31.086 79.1678 33.2735 76.1715C35.4604 73.1759 35.1317 69.0316 32.5005 66.4176L30.5854 68.334Z" fill="#3E689D"/>
<path d="M12.3889 58.873L14.304 56.9579C12.4094 55.019 9.61811 54.2479 6.99677 54.9396C4.3761 55.6313 2.32876 57.6787 1.63705 60.3C0.946007 62.9214 1.71707 65.712 3.65596 67.6066L5.57104 65.6915C3.6877 63.8088 3.6877 60.7557 5.57104 58.873C7.47951 57.0531 10.4804 57.0531 12.3889 58.873Z" fill="#3E689D"/>
<path d="M8.4815 49.6798C6.59882 47.7964 6.59882 44.7433 8.4815 42.8606C10.3906 41.0414 13.3915 41.0414 15.3007 42.8606L17.2158 40.9455C14.2737 38.0048 9.50451 38.0061 6.56377 40.9482C3.62369 43.8902 3.62436 48.6594 6.56708 51.6001L8.4815 49.6798Z" fill="#3E689D"/>
<path d="M22.306 62.0524C20.4233 60.1698 20.4233 57.1166 22.306 55.2339L20.3916 53.3188C17.4502 56.2589 17.4502 61.0275 20.3916 63.9675L22.306 62.0524Z" fill="#3E689D"/>
<path d="M29.8568 41.4044L31.7719 39.49C28.8312 36.55 24.064 36.55 21.1226 39.49L23.0376 41.4044C24.9468 39.5853 27.9477 39.5853 29.8568 41.4044Z" fill="#3E689D"/>
<path d="M33.2273 59.8695L31.3129 61.7846C34.2556 64.7194 39.0182 64.7194 41.9615 61.7846L40.0478 59.8695C38.1631 61.7489 35.1126 61.7489 33.2273 59.8695Z" fill="#3E689D"/>
<path d="M48.5109 44.5845C46.7816 42.8579 44.3223 42.0776 41.9139 42.4903C39.5055 42.9036 37.4469 44.4582 36.3915 46.6623L38.829 47.8308C39.067 47.3362 39.3878 46.8865 39.7773 46.4996C41.6851 44.6798 44.6867 44.6798 46.5945 46.4996C48.4778 48.3823 48.4778 51.4355 46.5945 53.3188C45.623 54.2863 44.2859 54.7968 42.9164 54.7234L42.7689 57.432C42.9038 57.4399 43.0394 57.4439 43.175 57.4439C46.2215 57.4459 48.9698 55.6122 50.1363 52.7977C51.3028 49.9833 50.6587 46.743 48.5043 44.5885L48.5109 44.5845Z" fill="#3E689D"/>
<path d="M40.5894 41.333L38.1652 40.1209L38.3986 39.6547C40.9141 34.6739 46.6938 32.28 51.9946 34.0252L51.1383 36.5982C47.1157 35.2763 42.7307 37.0922 40.8215 40.8714L40.5894 41.333Z" fill="#603813"/>
<path d="M33.7216 26.0613L39.4669 31.8072C41.583 33.9226 41.583 37.3527 39.4669 39.4682L33.7216 33.7223C31.6055 31.6068 31.6055 28.1767 33.7216 26.0613Z" fill="#406325"/>
<path d="M78.6457 61.0406C78.6457 70.7642 70.7632 78.6467 61.0397 78.6467C51.3161 78.6467 43.4336 70.7642 43.4336 61.0406C43.4336 51.3171 51.3161 43.4346 61.0397 43.4346C70.7632 43.4346 78.6457 51.3171 78.6457 61.0406Z" fill="#456EA2"/>
<path d="M70.5194 54.2691C70.5194 56.5135 68.7002 58.332 66.4565 58.332C64.2128 58.332 62.3936 56.5135 62.3936 54.2691C62.3936 52.0253 64.2128 50.2061 66.4565 50.2061C68.7002 50.2061 70.5194 52.0253 70.5194 54.2691Z" fill="#2B5080"/>
<path d="M61.0392 35.3087C61.0392 37.5531 59.22 39.3716 56.9763 39.3716C54.7325 39.3716 52.9133 37.5531 52.9133 35.3087C52.9133 33.0649 54.7325 31.2457 56.9763 31.2457C59.22 31.2457 61.0392 33.0649 61.0392 35.3087Z" fill="#2B5080"/>
<path d="M1.44958 19.0576L7.1955 13.3117C9.31095 11.1956 12.741 11.1956 14.8565 13.3117L9.11058 19.0576C6.99513 21.1731 3.56504 21.1731 1.44958 19.0576Z" fill="#5E8D3A"/>
<path d="M14.7609 5.74591L20.5068 0C22.6223 2.11545 22.6223 5.54554 20.5068 7.661L14.7609 13.4069C12.6455 11.2915 12.6455 7.86137 14.7609 5.74591Z" fill="#5E8D3A"/>
</g>
<defs>
<clipPath id="clip0">
<rect width="80" height="80" fill="white"/>
</clipPath>
</defs>
</svg>
