<svg width="80" height="80" viewBox="0 0 80 80" fill="none" xmlns="http://www.w3.org/2000/svg">
<g clip-path="url(#clip0)">
<path d="M74.9837 13.0878C74.5747 11.8042 73.8448 10.7996 72.9366 10.0793C72.3756 9.63379 72.0577 8.94958 72.0577 8.23303V2.38098C72.0577 1.72363 71.5248 1.1908 70.8675 1.1908H68.4871C67.8304 1.1908 67.2975 1.72363 67.2975 2.38098V7.34436C67.2975 8.22327 66.816 9.03687 66.0365 9.44336C64.9153 10.0293 63.9449 10.9766 63.3138 12.2974C60.6538 17.8693 55.9328 29.4049 46.2355 39.0833C36.5572 48.7805 25.0209 53.5016 19.4496 56.1621C14.3465 58.5986 14.7969 66.0974 20.2394 67.8314C23.4181 68.844 26.9496 69.3298 30.6465 69.2627C41.432 69.068 52.7766 63.0188 61.4742 54.3219C70.1711 45.625 76.2203 34.2804 76.415 23.4943C76.4821 19.7974 75.9963 16.2665 74.9837 13.0878Z" fill="#FFCF5D"/>
<path d="M69.978 13.8086C70.1935 13.9795 70.3467 14.2157 70.4474 14.5325C71.3068 17.2296 71.7133 20.2155 71.6553 23.4088C71.4941 32.3364 66.4294 42.6343 58.1079 50.9564C49.7858 59.278 39.4879 64.342 30.5597 64.5038C28.0371 64.5496 26.0095 66.5497 25.8923 69.0344C27.4347 69.2157 29.0247 69.2926 30.6464 69.2633C41.4319 69.068 52.7765 63.0188 61.474 54.3219C70.1709 45.625 76.2201 34.2804 76.4148 23.4943C76.4819 19.798 75.9961 16.2665 74.9835 13.0878C74.5746 11.8042 73.8446 10.7996 72.9364 10.0793C72.3755 9.63379 72.0575 8.94958 72.0575 8.23303V2.38098C72.0575 1.72363 71.5247 1.1908 70.8673 1.1908H68.4869C67.8302 1.1908 67.2974 1.72363 67.2974 2.38098V8.23303C67.2974 10.4248 68.2745 12.4573 69.978 13.8086Z" fill="#FFB545"/>
<path d="M14.6052 36.0626L10.6025 33.5278C9.59602 32.8906 8.33016 33.8391 8.67867 34.9713L9.85359 38.786C10.7288 41.6302 12.541 44.1021 15.0007 45.8087L18.9338 48.3966C18.9338 43.7622 18.7544 38.6901 14.6052 36.0626Z" fill="#28D05B"/>
<path d="M32.6062 35.506L31.9714 34.8712C31.6528 34.5526 31.1816 34.4416 30.7538 34.5838C24.5563 36.6498 19.978 41.3587 17.5146 48.2019L19.754 49.0082C21.8994 43.0475 25.6201 39.0399 30.8191 37.0856L30.9229 37.1894C31.3879 37.6538 32.1411 37.6538 32.6056 37.1894C33.0707 36.7243 33.0707 35.9711 32.6062 35.506Z" fill="#B66652"/>
<path d="M25.5172 46.6686C23.2094 46.5844 20.9731 47.1856 18.9339 48.3233C16.8947 47.1856 14.6584 46.5838 12.3507 46.6686C7.52584 46.8743 4.05538 49.4622 2.20479 52.7941C0.346881 56.1803 0.109454 60.3112 1.59078 64.8693C3.8564 71.8206 9.86837 78.0468 15.58 78.3733C16.1409 78.4112 16.6897 78.4002 17.2231 78.3434C18.3529 78.2244 19.515 78.2244 20.6441 78.3434C21.1776 78.4002 21.7263 78.4112 22.2872 78.3733C27.9989 78.0468 34.0114 71.8206 36.2771 64.8693C37.7584 60.3112 37.5203 56.1803 35.663 52.7941C33.8125 49.4622 30.342 46.8743 25.5172 46.6686Z" fill="#FF5368"/>
<path d="M35.6627 52.7942C34.757 51.1633 33.4624 49.7119 31.8114 48.6297C31.9841 48.891 32.1471 49.1577 32.2985 49.4299C34.1558 52.8161 34.3938 56.947 32.9125 61.5057C31.3909 66.1725 28.1804 70.5133 24.5061 72.9602C22.4773 74.3121 20.0823 75.0091 17.6439 75.0091H8.27441C10.5431 76.9659 13.0901 78.2312 15.5803 78.3734C16.1412 78.4118 16.6899 78.4002 17.2234 78.3435C18.3611 78.2232 19.5085 78.2239 20.6456 78.3441C21.1791 78.4002 21.7272 78.4112 22.2875 78.3734C27.9985 78.0475 34.0117 71.8207 36.2767 64.87C37.7581 60.3113 37.52 56.181 35.6627 52.7942Z" fill="#D9435B"/>
<path d="M68.2477 48.952C67.7472 46.8585 65.8655 45.3021 63.6188 45.3021C61.3727 45.3021 59.491 46.8585 58.9905 48.952C52.4847 50.9326 47.7515 56.9794 47.7515 64.1327C47.7515 72.8961 54.8553 80 63.6188 80C72.3822 80 79.4861 72.8961 79.4861 64.1327C79.4861 56.9794 74.7528 50.9326 68.2477 48.952Z" fill="#FF983B"/>
<path d="M73.0298 51.3568C74.9725 53.9898 76.1218 57.2448 76.1218 60.7684C76.1218 69.5318 69.0173 76.6357 60.2545 76.6357C56.731 76.6357 53.4766 75.4864 50.8435 73.5437C53.7329 77.4597 58.3789 80 63.6188 80C72.3822 80 79.4861 72.8961 79.4861 64.1327C79.4861 58.8928 76.9458 54.2468 73.0298 51.3568Z" fill="#FF7E40"/>
<path d="M62.4285 38.9483V50.0128C62.4285 50.664 62.9308 51.2322 63.582 51.2518C64.2559 51.2725 64.8088 50.7317 64.8088 50.0622V37.6647C63.7871 36.9933 62.4285 37.7258 62.4285 38.9483Z" fill="#B66652"/>
<path d="M72.6836 49.5245L71.5093 45.7098C70.6334 42.8655 68.8213 40.393 66.3622 38.6871L64.8088 37.6653C63.7871 36.9933 62.4285 37.7258 62.4285 38.9483V40.639C62.4285 43.8213 63.9507 46.6564 66.7571 48.4332L70.7604 50.9686C71.7662 51.6052 73.0321 50.6561 72.6836 49.5245Z" fill="#28D05B"/>
<path d="M57.4591 56.2505C57.4591 56.9079 56.9269 57.4407 56.2695 57.4407C55.6122 57.4407 55.0793 56.9079 55.0793 56.2505C55.0793 55.5932 55.6122 55.0604 56.2695 55.0604C56.9269 55.0604 57.4591 55.5932 57.4591 56.2505Z" fill="#FF7E40"/>
<path d="M60.6327 60.6939C60.6327 61.3513 60.1005 61.8841 59.4431 61.8841C58.7858 61.8841 58.2529 61.3513 58.2529 60.6939C58.2529 60.0366 58.7858 59.5037 59.4431 59.5037C60.1005 59.5037 60.6327 60.0366 60.6327 60.6939Z" fill="#FF7E40"/>
<path d="M54.2859 64.1851C54.2859 64.8424 53.7531 65.3747 53.0957 65.3747C52.4384 65.3747 51.9055 64.8424 51.9055 64.1851C51.9055 63.5277 52.4384 62.9949 53.0957 62.9949C53.7531 62.9949 54.2859 63.5277 54.2859 64.1851Z" fill="#FF7E40"/>
<path d="M46.2731 4.3909C46.0216 3.7836 45.3252 3.49551 44.7179 3.74698L44.005 4.04178L44.5507 3.49612C45.0157 3.03165 45.0157 2.27786 44.5507 1.81338C44.0862 1.34891 43.3324 1.34891 42.8679 1.81338L42.3223 2.35904L42.6177 1.64615C42.8691 1.03885 42.5804 0.342436 41.9731 0.0909712C41.3665 -0.161104 40.67 0.127592 40.4186 0.735502L39.7722 2.29556L44.0691 6.59183L45.6292 5.94546C46.2358 5.694 46.5245 4.9982 46.2731 4.3909Z" fill="#28D05B"/>
<path d="M33.8429 3.54485C36.3215 1.06621 40.0038 1.40312 42.4824 3.88176C44.961 6.3604 45.2973 10.0426 42.8187 12.5213C40.3401 14.9999 33.7409 17.5805 31.2623 15.1019C28.7837 12.6232 31.3642 6.02409 33.8429 3.54485Z" fill="#FF5368"/>
<path d="M42.4824 3.88184C41.8873 3.28674 41.2226 2.81677 40.522 2.47742C41.5944 4.69482 41.338 7.27295 39.4545 9.15649C37.5709 11.0406 33.3088 12.9803 30.2827 12.7167C30.3663 13.6725 30.6672 14.5068 31.2623 15.1019C33.741 17.5806 40.3401 15 42.8187 12.5214C45.298 10.0427 44.961 6.36047 42.4824 3.88184Z" fill="#D9435B"/>
<path d="M38.6161 8.93799C38.6161 9.59473 38.0833 10.1276 37.4259 10.1276C36.7692 10.1276 36.2363 9.59473 36.2363 8.93799C36.2363 8.28064 36.7692 7.7478 37.4259 7.7478C38.0833 7.7478 38.6161 8.28064 38.6161 8.93799Z" fill="#FFCF5D"/>
<path d="M35.2501 12.3035C35.2501 12.9608 34.7173 13.4937 34.0605 13.4937C33.4032 13.4937 32.8704 12.9608 32.8704 12.3035C32.8704 11.6467 33.4032 11.1139 34.0605 11.1139C34.7173 11.1139 35.2501 11.6467 35.2501 12.3035Z" fill="#FFCF5D"/>
<path d="M35.2501 8.93799C35.2501 9.59473 34.7173 10.1276 34.0605 10.1276C33.4032 10.1276 32.8704 9.59473 32.8704 8.93799C32.8704 8.28064 33.4032 7.7478 34.0605 7.7478C34.7173 7.7478 35.2501 8.28064 35.2501 8.93799Z" fill="#FFCF5D"/>
<path d="M38.6161 12.3035C38.6161 12.9608 38.0833 13.4937 37.4259 13.4937C36.7692 13.4937 36.2363 12.9608 36.2363 12.3035C36.2363 11.6467 36.7692 11.1139 37.4259 11.1139C38.0833 11.1139 38.6161 11.6467 38.6161 12.3035Z" fill="#FFCF5D"/>
<path d="M41.9822 8.93799C41.9822 9.59473 41.4493 10.1276 40.792 10.1276C40.1346 10.1276 39.6018 9.59473 39.6018 8.93799C39.6018 8.28064 40.1346 7.7478 40.792 7.7478C41.4493 7.7478 41.9822 8.28064 41.9822 8.93799Z" fill="#FFCF5D"/>
<path d="M38.6161 5.5719C38.6161 6.22864 38.0833 6.76147 37.4259 6.76147C36.7692 6.76147 36.2363 6.22864 36.2363 5.5719C36.2363 4.91455 36.7692 4.38171 37.4259 4.38171C38.0833 4.38171 38.6161 4.91455 38.6161 5.5719Z" fill="#FFCF5D"/>
<path d="M29.9008 24.3976C29.9008 28.7793 26.3485 32.3309 21.9668 32.3309C17.5851 32.3309 14.0334 28.7793 14.0334 24.3976C14.0334 20.0159 17.5851 16.4636 21.9668 16.4636C26.3485 16.4636 29.9008 20.0159 29.9008 24.3976Z" fill="#5C87BD"/>
<path d="M25.636 17.3639C26.2097 18.4613 26.5363 19.7089 26.5363 21.0333C26.5363 25.4144 22.984 28.9667 18.6023 28.9667C17.2778 28.9667 16.0303 28.6407 14.9329 28.067C16.2573 30.6006 18.9093 32.3309 21.9666 32.3309C26.3483 32.3309 29.9005 28.7793 29.9005 24.3976C29.9005 21.3397 28.1702 18.6884 25.636 17.3639Z" fill="#456EA2"/>
<path d="M23.2905 21.6205L23.639 21.272C24.1035 20.8075 24.1035 20.0537 23.639 19.5893C23.1739 19.1248 22.4207 19.1248 21.9556 19.5893L21.6071 19.9378L21.2586 19.5893C20.7941 19.1248 20.0403 19.1248 19.5759 19.5893C19.1108 20.0544 19.1108 20.8075 19.5759 21.272L19.9244 21.6205L19.5759 21.969C19.1108 22.4341 19.1108 23.1873 19.5759 23.6524C19.8084 23.8843 20.113 24.0009 20.4175 24.0009C20.7221 24.0009 21.0267 23.8843 21.2592 23.6524L21.6071 23.3039L21.9556 23.6524C22.1882 23.8843 22.4927 24.0009 22.7973 24.0009C23.1019 24.0009 23.4064 23.8843 23.639 23.6524C24.1041 23.1873 24.1041 22.4341 23.639 21.969L23.2905 21.6205Z" fill="#315588"/>
<path d="M52.7533 20.0445C52.4859 19.4501 51.7688 19.2035 51.167 19.4531L50.4998 19.729L51.0107 19.2187C51.4709 18.7579 51.5179 18.0011 51.0717 17.5268C50.6091 17.0361 49.8364 17.027 49.3628 17.5006L48.8171 18.0456L49.1125 17.3334C49.364 16.7261 49.0759 16.0296 48.4686 15.7782C47.8613 15.5261 47.1649 15.8148 46.9134 16.4221L46.2671 17.9822C46.1114 18.3587 46.1639 18.7579 46.358 19.0686C46.6778 19.5807 46.6223 20.2411 46.195 20.6683L46.1847 20.6781C45.7104 21.1523 45.6842 21.9549 46.17 22.4176C46.6363 22.8619 47.3742 22.8552 47.832 22.3974C48.3288 21.9006 48.9758 21.8829 49.4891 22.1954C49.6716 22.3071 49.8846 22.37 50.1086 22.37C50.2606 22.37 50.415 22.3407 50.5639 22.279L52.124 21.6327C52.7423 21.3763 53.0297 20.6592 52.7533 20.0445Z" fill="#28D05B"/>
<path d="M49.4519 20.777C48.5827 20.5438 47.6788 20.8203 47.0843 21.4655L43.1799 20.2466L40.2905 23.2794L39.0643 27.854C39.0503 27.8503 39.0362 27.8455 39.0222 27.8412C37.7526 27.5006 36.4477 28.2532 36.1065 29.5227C35.7653 30.7922 36.5185 32.0978 37.788 32.439C39.0576 32.7795 40.3631 32.027 40.7037 30.7574C40.802 30.3918 40.8172 30.0159 40.7379 29.6472C40.9814 30.3821 41.5832 30.9918 42.387 31.2073C43.6572 31.5472 44.9621 30.7941 45.3027 29.5245C45.4071 29.1351 45.4113 28.7256 45.3143 28.3344C45.4217 28.7091 45.6231 29.0619 45.9185 29.3567C46.8481 30.2863 48.3551 30.2863 49.284 29.3567C50.2136 28.4271 50.2136 26.9202 49.284 25.9906C48.9911 25.6976 48.6316 25.4913 48.2476 25.3827C49.5086 25.7056 50.7971 24.953 51.1346 23.692C51.4752 22.4225 50.722 21.1169 49.4519 20.777Z" fill="#D9435B"/>
<path d="M46.0859 17.4127C44.3159 16.9391 42.6997 18.5644 43.1715 20.3271C42.8962 19.2956 41.9575 18.5644 40.8723 18.5644C40.2632 18.5644 39.654 18.7964 39.1896 19.2614C38.26 20.191 38.26 21.698 39.1896 22.6275C39.5106 22.9486 39.8994 23.1591 40.3108 23.258C39.0144 22.8784 37.6832 23.648 37.3408 24.9279C37.0008 26.1975 37.7552 27.5024 39.0248 27.8424C40.2949 28.1817 41.5998 27.4279 41.9392 26.1578C42.0472 25.755 42.0472 25.3308 41.9392 24.9279C42.2084 25.9143 43.105 26.6906 44.2384 26.6906C44.2421 26.6906 44.2457 26.69 44.2494 26.69C46.3423 26.6809 47.4214 24.1272 45.9217 22.6275C45.6123 22.3181 45.2473 22.1167 44.8652 22.0135C46.1323 22.3468 47.4311 21.5936 47.7699 20.3271C48.1099 19.057 47.3555 17.7527 46.0859 17.4127Z" fill="#FF5368"/>
</g>
<defs>
<clipPath id="clip0">
<rect width="80" height="80" fill="white"/>
</clipPath>
</defs>
</svg>
