<svg width="80" height="80" viewBox="0 0 80 80" fill="none" xmlns="http://www.w3.org/2000/svg">
<g clip-path="url(#clip0)">
<path d="M60.4236 39.0125C62.6565 39.5423 65.0967 39.5307 67.6996 38.4323C72.1741 36.5449 75.3557 32.2533 75.455 27.3974C75.5673 21.9584 72.1165 17.3198 67.2821 15.6239C66.9424 10.6859 62.8394 6.78443 57.8164 6.78443C57.802 6.78443 57.7876 6.78587 57.7732 6.78587C57.8625 6.03869 57.8121 5.24832 57.5702 4.4234C56.8907 2.10556 54.8536 0.327591 52.4552 0.0425402C50.4886 -0.190683 48.6833 0.513306 47.4178 1.76436C46.2171 0.680306 44.6393 0.000790305 42.8901 0.000790305C39.1427 0.000790305 36.105 3.03846 36.105 6.78587C36.105 6.79739 36.1079 6.8089 36.1079 6.82042C31.5529 7.16594 27.9624 10.9637 27.9624 15.6066C27.9624 16.3164 28.0545 17.0031 28.2129 17.6639C22.7911 17.8899 18.4621 22.3427 18.4621 27.8192C18.4621 29.6749 18.966 31.4082 19.8341 32.9069C18.1684 34.276 17.106 36.352 17.106 38.6756C17.106 41.9249 19.1863 44.6818 22.0857 45.7068C21.7114 58.9761 26.4464 66.8049 35.6069 77.3504C35.771 77.539 35.9366 77.729 36.1036 77.9176C36.1396 77.9579 36.1756 77.9982 36.2116 78.0385C40.0209 82.3129 48.6127 79.0391 46.7642 73.6203C36.8954 44.6689 67.3152 48.8539 67.3152 48.8539C67.3152 48.8539 68.1848 40.0965 60.3372 39.6862C60.3473 39.4674 60.3574 39.2471 60.3675 39.0283C60.3876 39.024 60.4035 39.0168 60.4236 39.0125Z" fill="#88C057"/>
<path d="M36.213 78.0378C36.177 77.9974 36.141 77.9571 36.105 77.9168C35.938 77.7282 35.7724 77.5396 35.6083 77.3496C26.4464 66.8042 21.7113 58.9753 22.0871 45.7061C19.1876 44.681 17.1073 41.9241 17.1073 38.6748C17.1073 36.3498 18.1698 34.2752 19.8355 32.9061C18.9688 31.4074 18.4635 29.6741 18.4635 27.8184C18.4635 22.3419 22.7925 17.8877 28.2143 17.6631C28.0559 17.0023 27.9638 16.3156 27.9638 15.6058C27.9638 11.9174 30.2326 8.77035 33.4474 7.45451C33.2343 6.75628 32.9637 6.05229 32.6081 5.3483C30.8344 1.83411 27.7133 -0.372875 24.8642 0.0906926C22.5161 0.4722 20.8735 2.38838 20.1666 4.96535C18.1972 3.63943 16.0118 3.12404 14.038 3.81939C9.80687 5.30943 8.47231 11.3934 10.8952 17.0282C10.9024 17.0455 10.9125 17.0599 10.9197 17.0771C6.33299 19.2683 5.1136 25.7827 8.0217 31.6594C8.4464 32.516 8.9402 33.3035 9.47863 34.0305C4.41249 36.1252 3.07506 42.4856 6.26532 48.0441C7.2846 49.8206 8.64651 51.2833 10.161 52.3875C9.44407 54.1021 9.59956 56.2112 10.7398 58.1576C12.2701 60.772 15.1422 62.324 17.8315 62.3052C22.5579 71.5867 28.3568 75.1872 37.1372 78.9131C37.2294 78.9519 37.3215 78.9908 37.4136 79.0282C36.9817 78.7547 36.5714 78.4409 36.213 78.0378Z" fill="#659C35"/>
<path d="M39.6553 35.1548C39.7388 34.9706 39.7776 34.7777 39.7805 34.5876C40.8127 31.9905 42.0552 29.8109 43.348 27.9926C49.8034 26.6508 54.6737 28.6678 54.7817 28.7138C54.9703 28.7973 55.1661 28.8348 55.3561 28.8348C55.9104 28.8348 56.4387 28.5123 56.6763 27.9739C56.9959 27.2454 56.6633 26.396 55.9363 26.0764C55.7362 25.99 51.7642 24.2941 46.0531 24.7102C48.8431 21.8006 51.292 20.4805 51.6576 20.2962C53.7495 19.2942 56.8058 20.5899 57.8093 21.1744C58.0382 21.3097 58.2887 21.3731 58.5377 21.3731C59.0301 21.3731 59.5109 21.1197 59.7787 20.6648C60.1818 19.9795 59.9558 19.0984 59.2691 18.6939C59.105 18.596 55.8686 16.7259 52.5531 17.1016C52.8367 15.9341 53.4658 14.8716 53.7869 14.4455C54.2692 13.8149 54.1482 12.9122 53.5162 12.4299C52.8871 11.9477 51.9816 12.0657 51.4993 12.6992C51.4086 12.8158 49.5198 15.3208 49.5241 18.2044C47.4294 19.4871 42.0177 23.3756 38.2315 31.19C38.027 31.6104 37.8298 32.0625 37.634 32.516C33.7066 29.831 34.353 25.0543 34.389 24.8225C34.5114 24.0393 33.9773 23.3036 33.1927 23.1784C32.4095 23.0531 31.6695 23.5887 31.5443 24.3733C31.1268 26.9863 31.7257 32.3706 36.5759 35.2628C35.5048 38.4128 34.6928 42.1731 34.4423 46.6116C34.4135 46.7512 34.4077 46.8866 34.4193 47.0248C34.2695 50.1359 34.4135 53.5867 34.9145 57.3658C33.089 56.3609 32.254 54.891 32.2008 54.7917C31.825 54.0935 30.9583 53.8271 30.2587 54.1957C29.5561 54.5657 29.284 55.4367 29.6555 56.1406C29.7318 56.2861 31.455 59.472 35.4385 60.7029C36.4765 66.3982 38.3265 72.7931 41.3181 79.9698C42.3042 79.905 43.2645 79.6444 44.1139 79.2211C44.1096 79.2096 44.111 79.1967 44.1067 79.1837C40.9668 71.7134 39.0722 65.1327 38.0645 59.318C38.0587 59.2834 38.0558 59.2503 38.0486 59.2172C37.3 54.855 37.0567 50.9349 37.1978 47.4236C39.2133 43.9871 45.1375 43.8489 45.1979 43.8475C45.9926 43.8345 46.6275 43.1823 46.616 42.3877C46.6045 41.5987 45.9638 40.9682 45.1778 40.9682C45.172 40.9682 45.1663 40.9682 45.1605 40.9682C44.9258 40.971 40.8214 41.0603 37.5649 43.1017C37.9622 40.2512 38.623 37.7261 39.4422 35.4831C39.5271 35.3838 39.6006 35.2758 39.6553 35.1548Z" fill="#659C35"/>
</g>
<defs>
<clipPath id="clip0">
<rect width="80" height="80" fill="white"/>
</clipPath>
</defs>
</svg>
